<svg xmlns="http://www.w3.org/2000/svg" width="1024" height="1024" xmlns:v="https://vecta.io/nano"><path d="M496.7 150.8q3.1 0 6.1 0c37.1-.2 72.7 12.7 101.2 36.2.9.7.9.7 1.8 1.5 18.7 15.3 33 33 47.2 52.5-3.1 4.2-6.3 8.4-9.6 12.4-32.9 41.1-53.2 93-63.9 144q-.8 3.8-1.6 7.5c-2.9 13.6-4.5 27.3-5.9 41.1q-.1 1.2-.3 2.4c-.7 7-.9 14-.9 21.1q0 1.7 0 3.5 0 5.7-.1 11.3 0 1.9 0 3.9c.1 18.8.4 37.2 3.3 55.8q.3 1.7.5 3.5c5.9 37.9 16.9 74.9 33.5 109.5q.6 1.3 1.3 2.7C623.7 690.2 643 721 667 745c2.6 0 5.1-.1 7.6-.4q1.1-.1 2.2-.1 2.6-.3 5.2-.5c-5.3 22-14.1 43.4-27 62q-1.1 1.6-2.2 3.2c-5.9 8.9-12.8 16.6-20.3 24.2q-1.8 2-3.6 3.9c-16.7 17.8-42.2 31.4-66.7 32.9-14.5.4-27.1-2-38.1-11.9-9.4-9.8-11.4-21.9-11.5-34.8.3-15.4 6.1-28.2 13.4-41.5q.8-1.6 1.7-3.2c6.6-11.7 14.8-22.3 23.3-32.8q-6.5-1-13-2-2.2-.4-4.3-.7-1.1-.2-2.2-.3-1-.2-2.1-.4-2.1-.3-4.3-.6a171.55 171.55 0 0 1-9.9-1.8q-1.7-.3-3.4-.6-1.5-.4-3.1-.7c-2.9-.2-2.9-.2-5.4 2.1-2.3 2.5-4.3 5.2-6.3 8q-1.6 1.9-3.3 3.8c-.8 1-.8 1-1.7 1.9-19.5 21.6-42.5 36.5-71 43.3q-1.1.3-2.2.6c-8.4 2-17 1.8-25.7 1.8q-1.2 0-2.5 0c-29.5-.1-55.7-7.7-77.8-28.4-4.2-4.4-7.3-9.2-10.2-14.6q-.5-.9-1-1.8c-6.1-11.8-6.9-27.8-3.8-40.7 1.2-3.4 2.6-6.6 4.2-9.9q.4-.9.9-1.8c4.4-9.2 9.7-17.3 16.1-25.2 1.1-1.3 1.1-1.3 2.1-2.7q5.8-7.3 11.9-14.3c4.5 2.3 8.3 5 12.3 8.1 5.1 3.9 10.4 7.4 15.9 10.7a46.46 46.46 0 0 1 2.3 1.4c4.7 2.8 9.5 5.4 14.5 7.8l20.5-26.5q8.5-11.2 17.2-22.3.8-1 1.6-2.1 1.8-2.3 3.7-4.5 1-1.2 2-2.4.9-1.1 1.8-2.2.6-1 1.2-2c-1.2-3.7-2.3-4.1-5.4-6.1-24-16.3-35.6-40.4-41.1-68.1-5.1-28.5-.3-57.5 16.3-81.4 11.6-15.1 26.4-27.6 45.2-32.4q3 0 6 0c-9.8-15.6-20.4-30.5-31.2-45.4q-10.8-14.9-21.2-30c-3.7-5.3-7.5-10.5-11.4-15.7q-8.1-11-15.7-22.3c-2.8-4.2-5.7-8.1-8.8-12-13.6-18.7-19.4-43.9-16.4-66.7 4.4-25.5 22.7-46.7 43-61.3 32.7-23 71.5-34.8 111.4-34.8zM742 266c7.2 2 14.1 4.5 21.1 7.4l3.1 1.4c38.2 16.2 74.2 37.2 105.3 64.9q2 1.7 3.9 3.4c12.8 11.2 25.3 23.3 35.6 36.9q1.5 1.9 3 3.8c33 41.8 51.2 90.8 45 144.5-4 30.3-17.1 59.1-35 83.7q-.6.8-1.2 1.7c-5.3 7.2-11.1 14-17.2 20.5l-6.8 7.6a86.15 86.15 0 0 1-9.7 9.4q-2.1 1.8-4.1 3.7c-18.3 17.2-40.1 30.9-62 43.1q-1.3.7-2.7 1.5c-11.2 6.2-22.6 11.7-34.6 16.6q-1.6.6-3.3 1.3c-6.7 2.7-13.4 4.9-20.4 6.6q-4.5-4.4-8.9-8.8-1.5-1.5-3-3c-6.9-6.7-13.2-13.6-19.1-21.2l-1.4-1.8c-52.5-65.2-76.9-152.4-68.3-235.4 2.9-25.9 8.2-51.1 16.7-75.8.5-1.3.5-1.3.9-2.7 13.8-40 35.1-77.5 63.1-109.3zm-484.9 82.3q4 3.3 7.9 6.7 1.1.9 2.3 1.8c30 25 41.7 69.3 47.7 106.2q.3 1.9.6 3.8c.7 5.8.6 11.8.6 17.7q0 3.1 0 6.2c.2 32.4-9.5 65.1-23.2 94.3q-.7 1.6-1.5 3.3C276.9 617 247.6 636.2 220 651q-1 .5-2 1.1c-22.4 11.9-47.7 18.5-73 12.4C115.3 655 95.2 633 81 606c-30.5-59.5-33.1-137.8-13.3-201.1 7.4-22.6 17.2-44.1 33.3-61.9q.6-.7 1.3-1.5c11.5-12.6 24.6-21.1 40.7-26.5l2.8-1c38.2-12.1 81.8 11.7 111.3 34.3z" fill="#f78d00"/><path d="M496.7 150.8q3.1 0 6.1 0c37.1-.2 72.7 12.7 101.2 36.2.9.7.9.7 1.8 1.5 18.7 15.3 33 33 47.2 52.5-3.2 1.6-6.7.8-10.2.4q-2.5-.2-5.1-.4l-2.8-.2c-76.9-6.2-152.9 5.1-223.7 36.3-2.1.8-4 1.4-6.2 1.9 2.7 5.8 5.8 10.9 9.6 16.1 4.8 6.5 9.3 13.2 13.8 19.9l12.7 18.9q1.3 2 2.7 4 9.5 13.9 18.9 27.8 7.7 11.4 15.4 22.7.6.9 1.2 1.8 7.4 10.8 14.7 21.7.8 1.1 1.5 2.3 3.8 5.5 7.5 11 8.4 12.5 17 24.8c-2.7 1.4-3.7.6-6.6-.3q-1.4-.4-2.8-.9-1.5-.5-3-1c-25.8-8.8-25.8-8.8-51.9-5.4-16.9 9.7-27.1 26.1-33.1 44.2-3.1 11.5-4 22.9-3.9 34.7q0 1.9 0 3.9c.1 9.6.9 18.5 3.3 27.8q.2 1 .5 2c6.2 23.4 18.4 46.6 39.7 59.5 6.6 3.5 14.3 6.7 21.9 6.6h2.3q1.2 0 2.3 0c1.2 0 1.2 0 2.5-.1q2.9 0 5.8 0c-1.5 3.2-3.2 5.8-5.3 8.6q-1.1 1.5-2.2 3l-1.2 1.6q-2.9 4-5.8 8-7.7 10.7-15.5 21.3l-21.8 30q-1.8 2.4-3.5 4.9-1.7 2.3-3.4 4.7c-2.7 3.7-5.4 7.4-8.3 10.9-8.1-2-15.5-5.3-23-8.9q-2.9-1.4-5.9-2.7c-7.5-3.6-14.9-7.3-22.1-11.4.9-4.5 3.5-7.6 6.2-11.2q.8-1 1.7-2.1 1.7-2.2 3.4-4.5 2.4-3.2 4.9-6.4l20.5-26.6q.8-1 1.6-2.1 1.8-2.3 3.7-4.5 1-1.2 2-2.4.9-1.1 1.8-2.2l1.2-2c-1.2-3.7-2.3-4.1-5.4-6.1-24-16.3-35.6-40.4-41.1-68.1-5.1-28.5-.3-57.5 16.3-81.4 11.6-15.1 26.4-27.6 45.2-32.4q3 0 6 0c-9.8-15.6-20.4-30.5-31.2-45.4q-10.8-14.9-21.2-30c-3.7-5.3-7.5-10.5-11.4-15.7q-8.1-11-15.7-22.3c-2.8-4.2-5.7-8.1-8.8-12-13.6-18.7-19.4-43.9-16.4-66.7 4.4-25.5 22.7-46.7 43-61.3 32.7-23 71.5-34.8 111.4-34.8z" fill="#e26b0b"/><path d="M653 240l1.6.6c6.2 2.1 12.4 3.7 18.8 5.2 18.8 4.4 37.3 9.1 55.5 15.5 6 2.1 11.9 3.6 18.1 4.7q-3 1-6 2c-3.3 3.4-6.1 7.2-9 11q-.6.8-1.3 1.7c-34 44.4-57.4 98-65.7 153.3l-.4 2.9c-2.4 16-3.8 31.8-3.8 48q-.1 1.1-.1 2.2c.2 72.1 23.7 143.1 68.3 199.9q1.2 1.5 2.4 3c7.6 9.5 16 18.4 24.5 27.1q.8.9 1.7 1.7c2.6 2.7 5 4.6 8.4 6.2q-.9.2-1.8.3c-6.6 1.3-13 3-19.4 4.9-19.9 5.7-40.1 10.1-60.4 13.7q-1.8.4-3.6.7c-12.6 2.2-12.6 2.2-15.5.3-5-5.5-9.7-11.1-14.3-16.9q-.7-.9-1.4-1.7c-39.3-50.5-65.2-111.2-75.3-174.2q-.3-1.9-.6-3.9c-3.2-20.7-4.1-41.2-4-62.2q0-1.9 0-3.8c0-18.6.4-36.8 3.3-55.2q.2-1.5.5-3c1-6.3 2.2-12.7 3.5-19q.3-1.4.6-2.8c11.4-56.9 34.2-112 71.6-156.9 1.9-2.4 1.9-2.4 3.8-5.3zm-304 56c3.1 2.6 4.4 5.7 6.1 9.4 2.7 5.7 5.9 10.6 9.9 15.6 3.4 4.2 6.5 8.6 9.6 13.1 3.2 4.7 6.4 9.3 9.9 13.9 3.4 4.5 6.6 9 9.8 13.6q5.9 8.8 12.1 17.3 8.6 11.9 17 23.8 1.7 2.4 3.4 4.8C447 436.3 447 436.3 447 439q-1 .2-2.1.4c-12.8 2.7-25.2 8.7-34.9 17.6l-2.4 2.2c-13.4 12.5-22.4 30-26.6 47.8q-.3 1.2-.6 2.4c-6.1 28.7.5 62.4 16.4 86.9 8.1 11.8 18.5 20.6 30.2 28.7-1.3 2.7-2.7 5.1-4.5 7.5l-1.6 2q-.8 1-1.6 2.1-.9 1.1-1.8 2.3-7.1 9.2-14.3 18.4l-13.1 17.2q-5.9 7.9-12.1 15.5c-15.9-6.9-30.2-17.6-44-28l-5 3q1-3 2-6-1.2-1-2.4-2c-31.1-26-31.1-26-40.6-39q0-1 0-2-1 0-2 0c-1.3-1.5-1.3-1.5-2.6-3.5q-.7-1-1.4-2c-.5-.7-.5-.7-1-1.5-4.1 1.6-6.8 4.5-9.7 7.6l-1.6 1.6q-1.8 1.9-3.7 3.8-1-.5-2-1 1.2-1.1 2.5-2.3c26.9-25.9 38.3-59.7 45.5-95.7q.3-1.2.5-2.5c10.1-47.6-2.9-103.9-29.1-144.5-6.2-9-13.5-16.6-22.2-23.2-2.2-1.8-2.2-1.8-4.2-4.8 9.5 4.2 17.8 12.9 24 21q0 1 0 2c3.7-3 7-5.9 10.1-9.6 4.5-5.2 9.3-10 14.2-14.8q1.3-1.4 2.6-2.7c6.1-6.1 12.4-11.6 19.1-16.9q1.2-1 2.4-1.9 3.4-2.7 6.9-5.4 1.1-.8 2.2-1.7 6.6-5.2 13.5-10c-.7-4.1-1.8-8-3-12z" fill="#feeecf"/><path d="M651 241c0 4.3-2.6 6.4-5.3 9.6-34.2 41.7-55.2 94.4-66.2 146.8q-.8 3.8-1.6 7.5c-2.9 13.6-4.5 27.3-5.9 41.1q-.1 1.2-.2 2.4c-.7 6.5-1 13-1.1 19.5 0 1.5 0 1.5-.1 3q-.1 4.6-.2 9.3 0 3.2-.1 6.3-.2 7.8-.3 15.5-.5 0-1 0 0-.9.1-1.9v-8.7-3.1c0-5.7 0-5.7-3-10.2-2.3-1.6-4.6-2.9-7.1-4.1q-2.3-1.6-4.6-3.3c-4.3-3-8.7-5.7-13.3-8.3q-1-.5-2.1-1.1c-4-2.3-8.2-4.3-12.4-6.1-4.4-2.2-6.9-4.4-9.7-8.3q-.6-.8-1.1-1.6c-5.4-7.5-10.5-15.1-15.7-22.8q-1.6-2.5-3.3-4.9-3.3-5-6.7-9.9-6.5-9.8-13.1-19.5-1.2-1.7-2.3-3.4-8.6-12.6-17.1-25.2-9.3-13.5-18.4-27.1-7-10.3-14-20.6-.6-.8-1.2-1.7-2.7-3.9-5.3-7.8-1.9-2.8-3.8-5.6-2.1-3-4.2-6.1-1.1-1.6-2.2-3.2-1-1.5-2-3C405 282 405 282 405 279c21-9.8 42.8-17.5 65-24q1.4-.4 2.9-.9c58.6-17 117.8-18.1 178.1-13.1z" fill="#f78d00"/><path d="M527.1 453.8c3.4 1.6 6.6 3.4 9.9 5.2q1.1.6 2.1 1.2c10 5.5 19.1 11.6 27.9 18.8l1-13q.5 0 1 0v2.8c.5 27 1.4 54.3 6.1 81 2.2 12.9 2.2 12.9-1 18.7q-1.3 1.6-2.7 3.1-.6.9-1.3 1.7a115.77 115.77 0 0 1-9.6 10.2c-1.7 1.7-1.7 1.7-3.9 4.5-3.3 3.8-6.8 6.8-10.6 10q-1.3 1.2-2.7 2.4c-17.6 14.4-40.4 23.7-63.3 21.6-3.6-.6-6.7-1.6-10-3q-1.4-.6-2.8-1.1c-8.6-3.9-14.7-9.3-21.2-15.9l-1.8-1.8c-10.6-11.5-17.8-27.4-22-42.3l-.6-2.1c-3-11.2-4-22.4-3.9-34q0-1.9 0-3.8c.3-25.3 6.9-48.9 25.3-67q.8-.9 1.7-1.7c21.5-20.3 58.8-6.8 82.4 4.5z" fill="#e16a09"/><path d="M403 280c5.2 4.6 8.7 10.3 12.4 16.1l15.7 23.1c5.3 7.4 10.4 15 15.5 22.6q6.7 10.2 13.6 20.3c1.1 1.5 1.1 1.5 2.1 3.1q2.3 3.3 4.5 6.5 5.6 8.4 11.3 16.7.6.9 1.2 1.8 7.4 10.8 14.7 21.7.8 1.1 1.5 2.3 3.8 5.5 7.5 11 8.4 12.5 17 24.8c-2.7 1.4-3.7.6-6.6-.3q-1.4-.4-2.8-.9-1.5-.5-3-1c-25.8-8.8-25.8-8.8-51.9-5.4-16.9 9.7-27.1 26.1-33.1 44.2-3.1 11.5-4 22.9-3.9 34.7q0 1.9 0 3.9c.1 9.6.9 18.5 3.3 27.8q.2 1 .5 2c6.2 23.4 18.4 46.6 39.7 59.5 6.6 3.5 14.3 6.7 21.9 6.6h2.3q1.2 0 2.3 0c1.2 0 1.2 0 2.5-.1q2.9 0 5.8 0c-1.5 3.2-3.2 5.8-5.3 8.6q-1.1 1.5-2.2 3l-1.2 1.6q-2.9 4-5.8 8-7.7 10.7-15.5 21.3l-21.8 30q-1.8 2.4-3.5 4.9-1.7 2.3-3.4 4.7c-2.7 3.7-5.4 7.4-8.3 10.9-8.1-2-15.5-5.3-23-8.9q-2.9-1.4-5.9-2.7c-7.5-3.6-14.9-7.3-22.1-11.4.9-4.5 3.5-7.6 6.3-11.2q.7-1 1.6-2.1 1.7-2.2 3.4-4.5 2.4-3.2 4.9-6.4l20.5-26.6q.8-1 1.6-2.1 1.8-2.3 3.7-4.5 1-1.2 2-2.4.9-1.1 1.8-2.2l1.2-2c-1.2-3.7-2.3-4.1-5.4-6.1-24-16.3-35.6-40.4-41.1-68.1-5.1-28.5-.3-57.5 16.3-81.4 11.6-15.1 26.4-27.6 45.2-32.4q3 0 6 0c-9.8-15.6-20.4-30.5-31.2-45.4q-10.8-14.9-21.2-30c-3.7-5.3-7.5-10.5-11.4-15.7-5.4-7.3-10.6-14.8-15.7-22.3-3.6-5.3-7.3-10.5-11.2-15.7-1.3-1.9-1.3-1.9-1.3-3.9 1.7-1.3 1.7-1.3 4.2-2.7q1.4-.8 2.8-1.6 1.4-.9 2.9-1.8l3.1-1.7c11.3-6.6 22.8-13.1 35-18.2zm-201 38c-3.4 1.9-7 2.9-10.8 4.1-31.1 10-53.6 35.5-68.3 63.7-13.9 27.5-22 58-22.1 88.8q0 1.5 0 3 0 4.8-.1 9.5 0 1.6 0 3.3c.1 15.4.3 30.4 3.3 45.6a31.35 31.35 0 0 1 .5 2.7c7.8 40.4 26 78.8 60.8 102.5 12.6 8.1 25.8 13.5 40.7 15.8-9.1 9.1-29 9.2-40.8 9.4-23.8-.1-43.3-10-60.4-26.2-39.5-41.6-50.1-105.2-49-160.6C57 432.1 68.3 379.2 101 343q.6-.7 1.3-1.5c11.5-12.6 24.6-21.1 40.7-26.5l2.8-1c17.3-5.5 39.7-3.1 56.2 4z" fill="#0a5359"/><path d="M333 661c4.5 2.3 8.3 5 12.3 8.1 5.1 3.9 10.4 7.4 15.9 10.7q1.2.7 2.3 1.4c4.1 2.5 8.2 4.7 12.5 6.8 2 1 3.9 2.2 5.8 3.4 34.4 21.9 78.2 36.1 118 44 2.2.6 2.2.6 5.2 2.6-11.2 24.6-42.2 45.8-66.7 55-5.7 2-11.5 3.6-17.3 5q-1.1.3-2.2.6c-8.4 2-17 1.8-25.7 1.8q-1.2 0-2.5 0c-29.5-.1-55.7-7.7-77.8-28.4-4.2-4.4-7.3-9.2-10.2-14.6l-1-1.8c-6.1-11.8-6.9-27.8-3.8-40.7 1.2-3.4 2.6-6.6 4.2-9.9q.4-.9.9-1.8c4.4-9.2 9.7-17.3 16.1-25.2q1.1-1.3 2.1-2.7 5.8-7.3 11.9-14.3zm349 83c-5.3 22-14.1 43.4-27 62q-1.1 1.6-2.2 3.2c-5.9 8.9-12.8 16.6-20.3 24.2q-1.8 2-3.6 3.9c-16.7 17.8-42.2 31.4-66.7 32.9-14.5.4-27.1-2-38.1-11.9-9.4-9.8-11.4-21.9-11.5-34.8.3-15.4 6.1-28.2 13.4-41.5q.8-1.6 1.7-3.2c4.2-7.4 9-14.3 14.1-21.1q1.7-2.4 3.3-4.8 1-1.4 2-2.8.8-1.2 1.6-2.4c5-3.7 13.9-1.5 19.9-1 14.1 1.3 28.2 1.6 42.5 1.6q5.4-.1 10.9 0c17.6 0 35.2-.4 52.5-3.9 2.5-.4 4.9-.5 7.5-.4z" fill="#e26a0b"/><path d="M959 517c.4 6.6-.2 12.9-1.4 19.4l-.4 2c-1.3 6.8-2.4 10.6-8.2 14.6-26 13.3-58.8 11.8-86 3.2-9.5-3.2-24.9-8.6-29.9-17.6-1.6-5.1-1.9-8.5.6-13.3 2-3.2 3.7-5 7.3-6.3 7.2-1.5 12.5.9 18.8 4.1 24.8 12.3 56.9 12.3 82.7 3.7 4-1.5 13.4-9.8 16.5-9.8zM819.1 404.3c6.3 4.9 9.8 12.1 11.9 19.7 1 10.8.6 20.7-6 29.8-7.8 9-15.1 12.4-26.9 13.6-8.5-.3-17.2-4.3-23.1-10.4-7-9.5-9.1-18.3-8-30 2.5-9.7 8.5-19 17.1-24.3 11.4-5.9 24-5.2 35 1.6z" fill="#0a535b"/></svg>