<svg xmlns="http://www.w3.org/2000/svg" width="1024" height="1024" xmlns:v="https://vecta.io/nano"><path d="M309 69c38.8-1 77.4 6.4 115 15q1.8.4 3.7.9c29.6 6.9 58.4 17.1 86.3 29.1q2.3 1 4.7 2c44.5 18.9 87.4 45.7 124.3 77q1.6 1.3 3.2 2.7c5.9 4.9 11.8 10 17.5 15.2 4.6 4.2 9 7.7 14.5 10.7 24.5 13.6 48.1 29.8 70.2 47.1q2.5 2 5 3.9c12.2 9.5 23.8 19.5 35.1 30q2.4 2.2 4.9 4.5c7.5 6.9 14.8 13.8 21.5 21.5 2.2 2.5 4.5 4.9 6.8 7.4 5.2 5.6 10.2 11.2 15 17.2l8.2 9.6c5.4 6.3 10.6 12.8 15.7 19.5q3.4 4.3 6.8 8.6.7.9 1.4 1.8 5.8 7.4 11.7 14.7 5 6.2 9.9 12.5c5.1 6.6 10.4 13 15.6 19.4q3.6 4.4 7.1 8.9c3.5 4.4 7.2 8.7 10.8 13 3.6 4.2 7.1 8.5 10.4 13 1.7 2.1 1.7 2.1 4.7 2.8 2.9 4.3 2.6 9 2 14-1.8 6.3-5.7 10.4-11 14-3.5 1.8-6.1 2.2-10 2q0 1 0 2 1 0 2 0c3.5 5.9 5.6 10.8 5.7 17.8-.7 2.2-.7 2.2-2.9 3.9-4 3.3-5.6 7.2-7.9 11.8-26 51.2-62.9 97.4-103.3 138q-1.1 1.1-2.2 2.2c-4.6 4.7-9.4 9-14.4 13.3q-1.7 1.5-3.5 3.1c-9.1 8.1-18.7 15.6-28.5 22.9q-1.2.9-2.3 1.7-3.6 2.6-7.1 5.2l-2.2 1.6c-2.9 2.1-5.7 4.2-8.9 5.8-7.5 3.9-10.1 8.3-13.4 16q-1.6 3.2-3.1 6.4-.7 1.6-1.5 3.3c-3.6 7.3-8.1 14.1-12.5 21q-.6 1-1.3 2c-7.8 12.3-16.5 23.8-26.4 34.5q-1.9 2.1-3.7 4.1c-5 5.9-10.4 11.3-15.8 16.8q-2.3 2.3-4.6 4.7c-6.4 6.4-13.1 12.3-20.2 17.9q-1.8 1.5-3.6 3c-31.1 25.7-68.7 46-108.4 54q0-1 0-2 2.2-1.9 4.5-3.7c17.9-14.3 33.8-30.9 47.5-49.3q.6-.8 1.2-1.7c7.5-10 14.3-20.6 20.8-31.3q.6-1 1.2-2c8.2-13.2 13.9-27.7 19.8-42q-1.3.4-2.7.8c-7.3 2.1-14.6 4-22.1 5.3q-1.4.3-2.9.5c-5.7 1-11.4 1.9-17.2 2.6l-2 .2c-3.5.4-6.8.6-10.3.4-7-.3-7-.3-13.4 2.3-3.3 3.3-6 7.1-8.7 10.8-3.1 3.9-6.7 7.4-10.3 10.9q-1.1 1.1-2.2 2.2c-5.5 5.4-11.1 10.3-17.2 15q-1.7 1.4-3.3 2.7c-32.1 26.7-71.2 45.5-111.2 56.6-3.7 1.1-7.2 2.4-10.7 4.1-8.8 4.2-18.4 6.8-27.8 9.6q-1.4.4-2.8.8c-13 3.8-26.2 6.1-39.6 8.1q-1.1.1-2.3.3c-8.1 1.2-16 2.1-24.3 1.8 1.7-4.7 4.1-9 6.6-13.4q1.4-2.4 2.7-4.8 1.9-3.4 3.8-6.8c13.5-24.2 23.8-51.7 28.9-79q.2-1 .4-2.1c7.6-35.7 4.7-83-14.4-114.9-2.7-3.9-5.8-7.5-8.8-11.1-5.7-6.8-10.4-14.4-15.2-21.9q-.6-1-1.3-2.1c-21.2-33.7-42.5-80.2-41.7-120.9q-1 0-2 0-.3.8-.7 1.6c-1.7 3.2-4 6-6.2 8.8q-.8 1-1.5 1.9c-4.6 5.8-9.4 11.4-14.2 17q-2.2 2.7-4.4 5.3c-5.1 6.1-10.3 11.9-16 17.4-1.9 1.9-3.6 3.8-5.3 5.9-4.3 5-9.3 9.3-14.2 13.7q-2.1 1.9-4.1 3.9c-8 7.5-16.6 14-25.4 20.5-1 .8-1 .8-2.1 1.6-21.5 15.8-44.9 28.9-69.3 39.6q-1.3.5-2.6 1.1c-5.1 2.2-9.5 3.3-15 3.7-6.9-10.4-2.1-32.7.1-44.5 6-28.9 17.6-55.7 29.2-82.7C112.9 535 112.9 535 121 508q.3-1.2.7-2.5c2.7-11.1 1.8-22.9.1-34q-.1-1-.3-2.1c-2.3-13.8-7.3-27.1-12.3-40.1q-1.4-3.6-2.8-7.3-4-10.4-8-20.7c-14-36.3-26.1-75.6-26.6-114.8q-.1-1.3-.1-2.7 0-1.2 0-2.5 0-1.1-.1-2.3c.5-2.6 1.3-3.5 3.4-5 24.5 2.5 50.8 20.8 70 35q.9.7 1.9 1.4 5.6 4.2 11.1 8.6 1.4 1.1 2.8 2.2c11.2 9 21.4 18.9 31.5 29 .7.7.7.7 1.5 1.4 8.5 8.5 16.3 17.4 23.9 26.8q2.1 2.6 4.2 5.2c6.9 8.3 13.4 16.7 19.8 25.4 4.3 5.7 8.7 11.4 13.3 17 1.6-3.6 2.5-7.1 3.3-11q.3-1.7.7-3.5.3-1.8.7-3.7c10.6-52.5 31-103.6 68.3-142.8q1.9-2.1 3.7-4.2c2.7-3.2 5.6-6 8.7-8.8 3.9-5 5.2-11.8 6.3-17.9q.1-1.1.3-2.2c1.3-8.1 1.5-16.2 1.4-24.4q0-1.2 0-2.4c-.1-14-1.4-27.4-4.4-41.1q-.3-1.5-.6-3c-6.5-29.6-17.8-57.8-31.8-84.7-2.6-5.1-2.6-5.1-2.6-7.3z" fill="#fba100"/><path d="M309 69c38.8-1 77.4 6.4 115 15q1.8.4 3.7.9c29.6 6.9 58.4 17.1 86.3 29.1q2.3 1 4.7 2c44.5 18.9 87.4 45.7 124.3 77q1.6 1.3 3.2 2.7 4.9 4.1 9.8 8.3.8.6 1.5 1.3 2.2 1.8 4.3 3.7 1.2 1 2.5 2.1c1.7 1.9 1.7 1.9 1.7 4.9q-1-.5-2.1-.9c-13.5-5.8-26.9-11.5-40.9-16.1q-1.1-.4-2.2-.7c-13.4-4.5-27-8-40.8-11.3-1.9-.4-1.9-.4-3.8-.9-25.6-6.1-49.9-9.6-76.2-10.1.3.8.3.8.6 1.7 11.8 33.3 20.4 68.1 20.6 103.6a13.4 13.4 0 0 0 .1 2q0 7.6 0 15.2 0 1.1 0 2.3c0 22.6-.5 44.8-4.3 67.2q-.3 2.1-.7 4.3-2.4 14.9-5.3 29.7c-.4 1.8-.4 1.8-.7 3.6-4.6 23.3-10.8 46.3-16.9 69.2q-1.9 7.1-3.8 14.1-1.3 5.2-2.7 10.3c-3.5 12.8-6.5 25.7-8.9 38.8-.3 1.8-.3 1.8-.7 3.6-7.3 41.5-4 84.9 0 126.6 5.9 62.7 2.1 131.2-38.3 182.8q-1 1.3-2 2.6c-5.5 7.2-11.7 13.8-18 20.4q-1.2 1.3-2.5 2.7c-8.2 8.4-17.5 16.1-27.5 22.3q-1 0-2 0 0 1 0 2 1.1-.5 2.2-1.1c3-1 3.9-.8 6.8.1-10.5 5.4-21.7 8.7-33 12q-1.4.4-2.8.8c-13 3.8-26.2 6.1-39.6 8.1q-1.1.1-2.3.3c-8.1 1.2-16 2.1-24.3 1.8 1.7-4.7 4.1-9 6.6-13.4q1.4-2.4 2.7-4.8 1.9-3.4 3.8-6.8c13.5-24.2 23.8-51.7 28.9-79q.2-1 .4-2.1c7.6-35.7 4.7-83-14.4-114.9-2.7-3.9-5.8-7.5-8.8-11.1-5.7-6.8-10.4-14.4-15.2-21.9q-.6-1-1.3-2.1c-21.2-33.7-42.5-80.2-41.7-120.9q-1 0-2 0-.3.8-.7 1.6c-1.7 3.2-4 6-6.2 8.8q-.8 1-1.5 1.9c-4.6 5.8-9.4 11.4-14.2 17q-2.2 2.7-4.4 5.3c-5.1 6.1-10.3 11.9-16 17.4-1.9 1.9-3.6 3.8-5.3 5.9-4.3 5-9.3 9.3-14.2 13.7q-2.1 1.9-4.1 3.9c-8 7.5-16.6 14-25.4 20.5-1 .8-1 .8-2.1 1.6-21.5 15.8-44.9 28.9-69.3 39.6q-1.3.5-2.6 1.1c-5.1 2.2-9.5 3.3-15 3.7-6.9-10.4-2.1-32.7.1-44.5 6-28.9 17.6-55.7 29.2-82.7C112.9 535 112.9 535 121 508q.3-1.2.7-2.5c2.7-11.1 1.8-22.9.1-34q-.1-1-.3-2.1c-2.3-13.8-7.3-27.1-12.3-40.1q-1.4-3.6-2.8-7.3-4-10.4-8-20.7c-14-36.3-26.1-75.6-26.6-114.8q-.1-1.3-.1-2.7 0-1.2 0-2.5 0-1.1-.1-2.3c.5-2.6 1.3-3.5 3.4-5 24.5 2.5 50.8 20.8 70 35q.9.7 1.9 1.4 5.6 4.2 11.1 8.6 1.4 1.1 2.8 2.2c11.2 9 21.4 18.9 31.5 29 .7.7.7.7 1.5 1.4 8.5 8.5 16.3 17.4 23.9 26.8q2.1 2.6 4.2 5.2c6.9 8.3 13.4 16.7 19.8 25.4 4.3 5.7 8.7 11.4 13.3 17 1.6-3.6 2.5-7.1 3.3-11q.3-1.7.7-3.5.3-1.8.7-3.7c10.6-52.5 31-103.6 68.3-142.8q1.9-2.1 3.7-4.2c2.7-3.2 5.6-6 8.7-8.8 3.9-5 5.2-11.8 6.3-17.9q.1-1.1.3-2.2c1.3-8.1 1.5-16.2 1.4-24.4q0-1.2 0-2.4c-.1-14-1.4-27.4-4.4-41.1q-.3-1.5-.6-3c-6.5-29.6-17.8-57.8-31.8-84.7-2.6-5.1-2.6-5.1-2.6-7.3z" fill="#fc9e00"/><path d="M500 176c29-.8 56 3.6 84 11q1.6.3 3.2.7c2.8 1.3 2.8 1.3 4.3 4.2.6 1.8.6 1.8 1.1 3.6q.3 1 .6 2.1c2.3 7.8 4.1 15.7 5.7 23.7q.3 1.2.5 2.4c4 19.3 6.8 38.6 9.3 58.1q.4 3 .8 6c2 16 3.1 32 4.1 48l.2 3c1.9 30 2.4 60.1 2.3 90.2q0 7.1 0 14.3c.1 35.3-.3 70.6-2.4 105.8 0 1.7 0 1.7-.1 3.3-2.9 49.7-8 99.9-18.6 148.6q-.3 1.6-.7 3.3c-6.9 32.5-18.3 69.2-39.3 95.7l-2.3 2.9c-10.8 13.3-23.1 25.6-36.7 36.1q-1.7 1.4-3.3 2.7C481.4 867.8 428.9 901 387 901q0-1 0-2 2.2-1.5 4.6-2.8c16.7-10.4 31.4-25.7 43.4-41.2l2.2-2.8c46.1-59.5 44.1-135.8 37.3-206.9-1.5-15.4-1.9-30.8-1.9-46.3q0-1.9 0-3.8c.1-19.3.6-38.2 4.4-57.2l.6-2.8c3.5-17.8 7.9-35.3 12.7-52.8q2.5-9.5 5.1-19 .8-3.1 1.6-6.2c10-37.3 17.5-74.5 21.6-112.9q.4-3.4.9-6.8c.8-6.3.7-12.7.7-19.1q0-2.2 0-4.3 0-4.5 0-9 0-4.5 0-9.1c.2-23.1.2-23.1-2.2-46q-.2-1.4-.4-2.9c-3.2-20.9-8.4-41.8-15.5-61.8q-.4-1.2-.8-2.4-.4-1-.8-2.1c-.5-1.8-.5-1.8-.5-4.8z" fill="#0d4d53"/><path d="M325 705c5.2 4.4 10 9 14.8 13.9 5.8 5.8 11.6 11.2 18.2 16.1q2.3 1.8 4.6 3.6c31.5 24.7 66.5 40.1 104.4 52.4-2 9.4-2 9.4-3.6 13.8-.8 2.2-1.4 4.2-1.8 6.5-1.1 4.9-3.7 9.2-6 13.6q-.8 1.6-1.7 3.2c-4.3 8.1-9.2 15.6-14.9 22.9q-1 1.3-2 2.6c-5.5 7.2-11.7 13.8-18 20.4q-1.2 1.3-2.5 2.7c-8.2 8.4-17.5 16.1-27.5 22.3q-1 0-2 0 0 1 0 2 1.1-.5 2.2-1.1c3-1 3.9-.8 6.8.1-10.5 5.4-21.7 8.7-33 12l-2.8.8c-13 3.8-26.2 6.1-39.6 8.1q-1.1.1-2.3.3c-8.1 1.2-16 2.1-24.3 1.8 1.7-4.7 4.1-9 6.6-13.4q1.4-2.4 2.7-4.8 1.9-3.4 3.8-6.8c13.5-24.2 23.8-51.7 28.9-79q.2-1 .4-2.1c7.5-34.9 3.4-74.1-10.7-106.8-.7-2.1-.7-2.1-.7-5.1z" fill="#f69000"/><path d="M734 742c1 3 1 3 .4 4.9q-.6 1-1.1 2.1l-1.2 2.5q-.7 1.2-1.4 2.6-.6 1.3-1.3 2.7c-4.7 9-9.9 17.6-15.4 26.2q-.6 1-1.3 2c-7.8 12.3-16.5 23.8-26.4 34.5q-1.9 2.1-3.7 4.1c-5 5.9-10.4 11.3-15.8 16.8q-2.3 2.3-4.6 4.7c-6.4 6.4-13.1 12.3-20.2 17.9q-1.8 1.5-3.6 3c-31.1 25.7-68.7 46-108.4 54q0-1 0-2 2.2-1.9 4.5-3.7c17.9-14.3 33.8-30.9 47.5-49.3q.6-.8 1.2-1.7c7.5-10 14.3-20.6 20.8-31.3l1.2-2c6.1-9.9 10.7-20.4 15-31.2q.6-1.6 1.3-3.3.6-1.4 1.2-2.9c1.4-2.8 2.9-4.6 5.3-6.6 2.7-.9 5.2-1.5 7.9-2.1 19.9-4.9 39.3-12 57.8-20.8q3.5-1.7 7.1-3.3c11.5-5.2 22.4-11.3 33.2-17.8z" fill="#f79000"/><path d="M768.5 365.3c8.7 5.8 15.1 15 18 25 2.3 13.2.7 25.6-6.7 36.9-7.6 10.1-17.1 16.9-29.8 18.8-14.7 1-26.4-1.2-38-11-8.3-7.8-13.5-17.9-14.2-29.3-.4-12.8 2.7-23 11.1-32.9 16.2-17 39.5-19.2 59.6-7.5z" fill="#0d4d54"/><path d="M940 479c2.1 4.2 1.7 9.8.4 14.2-2.8 6.1-7.2 10.1-13 13.2-2.6.6-4.8.8-7.4.6q0 1 0 2 1 0 2 0c4.1 6.8 5.8 12 5 20-5.1-.4-9.5-1.4-14.3-3-7.8-2.3-15.2-2.6-23.3-2.6-25 0-25 0-34.4-8.4-2.4-3-2.4-6.2-2.3-9.9.7-4.8 2.5-7.7 6.2-10.6 9.2-5.2 19.9-5.2 30.1-5.9 15.5-1.1 29.8-2.3 43.7-9.7 2.8-1.1 4.4-.9 7.3.1z" fill="#0e4c54"/><path d="M734 742c1 3 1 3-.7 6.6q-1.1 2-2.2 4.1-.6 1-1.2 2.1-1.4 2.6-2.9 5.2-1 0-2 0-.5 1-1 2-2.5 1.1-5 2-3.2 1.4-6.4 2.8c-9.7 4.2-19.8 7.4-30 10.4q-2.7.8-5.4 1.7c-7.9 2.5-15.9 4.6-24 6.4q-3.1.7-6.2 1.4-2 .5-4 .9-1.8.4-3.6.8c-3.5.6-6.8.6-10.4.6-2.4.9-2.4.9-4 2 .2-1.9.2-1.9 1-4 1.8-.9 1.8-.9 4.3-1.5q1.3-.4 2.7-.8 1.6-.4 3.1-.8c34.3-9.3 67.8-22.9 97.9-41.9z" fill="#ee8600"/></svg>