<svg xmlns="http://www.w3.org/2000/svg" width="1024" height="1024" xmlns:v="https://vecta.io/nano"><path d="M350.6 116.7q5.1 0 10.1 0c29.8-.2 59.1 1.3 88.5 6.7q2.6.4 5.3.9c12.2 2.2 24.4 4.5 36.5 7.7q1.7.4 3.5.9c20.5 5.3 40 12 59.5 20.1q1.6.6 3.2 1.3c33.3 13.6 65.6 32.5 92.8 56.1q4.4 3.8 8.8 7.4 1.2 1 2.5 2 1.3 1.1 2.7 2.2.8.7 1.7 1.4c5.6 4.6 11.7 7.1 18.4 9.8 31.2 12.8 60.8 28.6 87.9 48.8l1.6 1.2c11.6 8.6 22.5 18.1 33.2 27.8 2 1.8 4 3.5 6 5.2 8.9 7.7 16.6 16.9 24.2 25.8q1.3 1.6 2.7 3.1c24.6 28.4 43.3 58.5 58.3 92.9q1.5 3.4 3 6.8.8 2 1.7 4.1c1.1 2.5 2.2 4.9 3.5 7.4.8 1.7.8 1.7.8 4.7q1.8-.1 3.7-.2 2.5 0 4.9-.1 1.2-.1 2.5-.1c4.2-.1 7 0 10.4 2.7 4.3 4.7 5.7 8.6 5.9 14.8-.2 9-2.8 18.2-8.6 25.2-4.8 4.5-10.7 7.4-16.8 9.7 2 2 3.7 2.9 6.3 4.2 5.1 2.8 9 6.5 11.7 11.8.6 5.9.1 10.8-3 16-4.7 3.7-8.3 5.1-14.2 5.1q-1.3-.1-2.7-.1H905q-.2 1.7-.3 3.4c-.6 4.7-1.8 9.2-3.2 13.7q-.4 1.3-.8 2.6c-4.8 15.4-11.2 30.1-18.7 44.4q-1.6 3-3.1 6c-14.6 28.9-35.6 53.8-58.4 76.6q-2.3 2.3-4.5 4.6c-6.4 6.3-13 12.1-20 17.7q-1.6 1.3-3.1 2.7c-5.4 4.6-11 8.9-16.8 12.9q-.9.7-1.9 1.3c-10.5 7.1-21.4 13.4-32.6 19.4q-1.9.9-3.7 1.9c-5.7 3.1-11.5 6.1-17.3 8.9-12 5.7-18.2 10.3-22.8 22.8-1.4 3.5-3.2 6.8-5 10q-.6 1-1.2 2C687 809 681.5 816.5 676 824q-.6.9-1.3 1.7c-18 24.7-38.4 45.4-64.7 61.3q-1.8 1.1-3.6 2.2c-16.2 10-34.1 19.3-53.7 15.3-5-1.8-8.4-5.8-10.7-10.5-1.7-18 13.1-32.9 23.3-46.3 16.1-21.3 16.1-21.3 28.3-44.9q.7-1.6 1.4-3.3l1-2.5q-1 0-2.1 0-9.8.1-19.7.2-5 0-10.1 0c-17.6.2-34.7-.6-52.1-3.2q-1.4-.2-2.8-.4c-9.2-1.4-18.3-2.9-27.3-5.1-3.2-.5-4.9-.6-7.9.5-2 1.7-3.8 3.3-5.6 5.2-12.3 11.8-26.5 21.6-41.4 29.8q-1.2.6-2.4 1.3c-45.3 25.1-111.9 46.3-163.9 33.1-3.5-1.4-6.1-2.9-7.7-6.4-.2-4.3 1.3-6.6 3.9-9.8 3.6-3.9 7.7-7.2 11.9-10.5 11.3-9.3 21.5-19.9 31.9-30.1q1.6-1.7 3.3-3.3c8.1-8 15.2-16.3 22-25.3q.9-1.1 1.7-2.3c8.9-11.6 16.4-23.9 23.3-36.7q-1-.3-2.1-.7c-3.6-1.6-6.4-3.8-9.5-6.3q-.9-.7-1.8-1.5l-14.7-12.1q-4.2-3.5-8.5-7C299.9 694.6 287.1 682 276 667q-.8-1-1.6-2.1c-7.1-9.6-13.8-19.5-20.1-29.7q-2.2-3.6-4.5-7.2c-7-10.9-12.8-21.8-17.8-33.7-1.6-3.8-3.3-7.6-5-11.3q-.9 1.5-1.7 3.1c-9.3 16.1-19.4 31.3-31.8 45.2q-2.3 2.6-4.5 5.3c-6.8 8.1-14 15.4-22 22.4q-.8.7-1.6 1.4c-23.2 20.6-51.7 37.1-80.3 49q-1.7.8-3.5 1.5c-4.2 1.3-7.2 1.4-11.6 1.1-3.2-1.8-4.6-3.1-6.1-6.5-1.2-4.6-1.2-8.8-1.2-13.5 0-1.4 0-1.4-.1-2.9q0-4.7 0-9.3 0-1.6 0-3.3c0-15.2.7-29.9 3.9-44.9q.7-3.8 1.4-7.7c7.2-41.8 26.1-81.6 58.5-110 1.8-1.7 1.8-1.7 1.5-3.9-1-2.2-2.1-3.6-3.8-5.3-20.4-22.6-36.4-52-46.1-80.7q-.4-1.1-.8-2.3c-7-20.6-11.3-42.6-11.4-64.4q-.1-1.6-.1-3.3 0-3.5 0-7 0-3.6-.1-7.1 0-5.2 0-10.3c-.1-1.6-.1-1.6-.1-3.2 0-6.4.7-10.3 4.5-15.4 4.4-2.9 7.9-2.8 13-2 4.9 1.7 9.5 4 14.1 6.4q1.9.9 3.9 1.9c21.8 11 42 24.4 61 39.7q.8.6 1.6 1.3C178 370 191.7 383.2 203 398q1.1 1.4 2.3 2.9c7.7 9.6 15.2 20.1 20.7 31.1q.4-1 .9-2.1c7.1-16.6 14.8-32.4 24.1-47.9.7-1.1.7-1.1 1.4-2.3 5.3-8.9 11.1-17.5 17.2-25.9q1.4-1.9 2.8-3.8c10.6-14.6 22.7-27.7 36.9-38.8 3.2-2.6 6.2-5.4 9.2-8.2 4.8-4.5 9.7-8.7 14.8-12.8 2.9-2.3 5.7-4.8 8.6-7.2 28.9-24 28.9-24 39.1-24-6.6-26-18.7-45-37.2-64.1l-7.8-8.5c-5.6-6.1-11.4-11.9-17.7-17.4q-3.3-2.9-6.6-6c-4.2-3.9-8.5-7.7-13-11.3q-7.1-5.7-13.9-11.8-1-.8-2-1.7c-3.3-2.9-5.2-4.9-5.5-9.4.7-3.8.7-3.8 2.3-5.7 20.6-9.3 48.8-6.4 71-6.4z" fill="#feb200"/><path d="M597.2 212.7l2.8.3 3.3.3q5.7.6 11.4 1.4 1 .1 2 .3c16 2 31.6 5.2 46.8 10.2 2.4.8 2.4.8 4.5 1.3 12.3 3.3 24.4 10.2 36 15.5q1.1.5 2.3 1c23.3 10.6 45.2 23.7 65.7 39q.8.6 1.6 1.2c11.6 8.6 22.5 18.1 33.2 27.8 2 1.8 4 3.5 6 5.2 8.9 7.7 16.6 16.9 24.2 25.8q1.3 1.6 2.7 3.1c24.6 28.4 43.3 58.5 58.3 92.9q1.5 3.4 3 6.8.8 2 1.7 4.1c1.1 2.5 2.2 4.9 3.5 7.4.8 1.7.8 1.7.8 4.7q1.8-.1 3.7-.2 2.5 0 4.9-.1c1.2-.1 1.2-.1 2.5-.1 4.2-.1 7 0 10.4 2.7 4.3 4.7 5.7 8.6 5.9 14.8-.2 9-2.8 18.2-8.6 25.2-4.8 4.5-10.7 7.4-16.8 9.7 2 2 3.7 2.9 6.2 4.2 5.2 2.8 9.1 6.5 11.8 11.8.6 5.9.1 10.8-3 16-4.7 3.7-8.3 5.1-14.2 5.1q-1.3-.1-2.7-.1H905q-.2 1.7-.3 3.4c-.6 4.7-1.8 9.2-3.2 13.7q-.4 1.3-.8 2.6c-4.8 15.4-11.2 30.1-18.7 44.4q-1.6 3-3.1 6c-14.6 28.9-35.6 53.8-58.4 76.6q-2.3 2.3-4.5 4.6c-6.4 6.3-13 12.1-20 17.7q-1.6 1.3-3.1 2.7c-5.4 4.6-11 8.9-16.8 12.9q-.9.7-1.9 1.3c-10.5 7.1-21.4 13.4-32.6 19.3q-1.9 1-3.7 2c-5.7 3.1-11.5 6.1-17.3 8.9-12 5.7-18.2 10.3-22.8 22.8-1.4 3.5-3.2 6.8-5.1 10q-.5 1-1.1 2C687 809 681.5 816.5 676 824q-.6.9-1.3 1.7c-18 24.7-38.4 45.4-64.7 61.3q-1.8 1.1-3.6 2.2c-16.2 10-34.1 19.3-53.7 15.3-5-1.8-8.4-5.8-10.7-10.5-1.7-18 13.1-32.9 23.3-46.3 12-16.1 23.5-31.8 30.7-50.7l-2.3.2c-3.2-.2-4-.9-6.3-3.2-1-.9-1-.9-2-1.9q-1-1.1-2-2.2-1.1-1-2.2-2.2c-10.8-11.3-18.9-23.4-25.2-37.7q-.6-1.4-1.3-2.9c-11.5-28.7-5.1-60.9 1.8-89.9q1.3-5.6 2.5-11.2.3-1.6.7-3.2c1.3-7.5 1.3-14.3.8-21.8q-.2-4.6-.4-9.1-.2-3.1-.4-6.2c-1.1-13.9-1.1-13.9 1.3-19.7 4.5-4.9 10.6-7.4 16.7-10 5.2-2.3 9.2-6.2 13.3-10 1.1-1 1.1-1 2.2-1.9 10.9-10.3 19.4-25.2 20.2-40.4-.2-10.2-5-18.3-12-25.5-11.2-10.1-26-14.1-40.7-14.8q-1.3 0-2.5-.1-3.1-.2-6.2-.3.3-1 .6-2c6-21.4 10.6-44.2 10.8-66.5V412c-.1-18.3-4.5-36.7-8-54.6-8.7-45.1-6.5-83.6 19.7-122.6q2.7-4 5.6-7.9 1.9-2.8 3.7-5.6 1.1-1.6 2.2-3.3 1-1.4 1.9-2.9c3-2.5 4.9-2.6 8.7-2.4z" fill="#fdc819"/><path d="M588 213c.7 1.8.7 1.8 1 4-1 1.9-1 1.9-2.5 3.9q-.8 1.1-1.6 2.2l-1.8 2.3q-1.9 2.5-3.7 4.9-.9 1.2-1.8 2.5c-22.2 30.5-30.6 65.3-25.2 102.6 1.9 12.2 4.3 24.3 6.7 36.4 7.1 35.6 8.2 77.2-7.1 111.2q1.7-.1 3.4-.1c17.2-.5 34.6 3.2 47.6 15.3 7.2 7.8 11.3 17.3 11.2 27.8-.9 13.3-8.6 25.3-17.2 35l-2.1 2.3c-9.4 10-20.9 16.4-32.9 22.7q0 1.9 0 3.9.1 7.3.2 14.7 0 3.1 0 6.2c.3 19.6-2 37.5-6.8 56.5-7.9 32.8-9.3 66.5 8.3 96.6 6.9 11.1 15.4 20.6 24.8 29.7 1.3 1.2 1.3 1.2 2.5 2.4q0 .5 0 1-11.2 0-22.5.1-3.8 0-7.6 0-5.5 0-11 0h-3.4c-19 0-19 0-24.5-3.1q0-1 0-2-1 0-2 0a138.95 138.95 0 0 1-4.6-6.1q-.7-1-1.4-1.9c-8.1-11.8-13.8-23.4-18-37q-.5-1.7-1.1-3.5c-6.5-25.4-.7-53.1 7.3-77.3 6.3-19 10-37.8 8.9-57.8q-.1-2.3-.1-4.5c-.1-3.9-.4-7.3-2-10.9-2.4-2.2-4.8-3.6-7.7-5.1-21.9-12.5-36.9-34.6-44.3-58.1-2.5-9.5-3.2-18.9-3.3-28.7q0-1.1-.1-2.3c0-7.1 1.7-13.2 5.6-19.1 3.3-3.2 6.5-5.1 10.8-6.7 1.4-.5 1.4-.5 2.9-1.1 5.8-1.6 12-1.1 18-1q1.9 0 3.8 0 4.7 0 9.3.1.1-1.2.2-2.5c.7-10.3.7-10.3 1.3-15.2 3.2-26.7 3.6-55-2.5-81.3q-.4-1.6-.7-3.2-2.5-10.9-5.3-21.8-.3-1.2-.6-2.4-.6-2.1-1.1-4.3-.7-2.8-1.4-5.7-.9-3.5-1.8-6.9c-8.4-34.4 3.2-63.9 17.7-94.3q.5-1.1 1-2.1 1.5-3 2.9-6 .8-1.8 1.7-3.5c1.6-2.8 1.6-2.8 4.6-4.8 22-4.7 45.7-4.4 68-4z" fill="#faa200"/><path d="M518 217c-1.3 4.3-3 8.3-5 12.3q-.9 1.8-1.8 3.6-.5 1-.9 1.9C501.8 252 501.8 252 495 270q-.3 1-.7 2c-5.7 18.7-5.2 40.2-.3 59q4 15.7 7.6 31.4.5 2.2 1.1 4.5c3.7 16.1 5.7 31.6 5.6 48.2q0 1.3 0 2.6c0 17.9-1.3 35.6-4.3 53.3h-2.3q-5.3.2-10.6.3-1.8 0-3.6.1c-10 .3-20.1 1.3-27.5 8.6-7.8 10.3-5.8 25.9-4.3 38.1 3.8 26.6 18.5 48.4 39.3 64.9q2 1.2 4 2.4c10.1 5.9 10.1 5.9 12.4 10.3.6 3.5.7 6.7.6 10.3q.1 2.5.3 5.1c.8 21.5-4.5 41.4-11.1 61.7-5.1 15.6-7.4 29.8-7.4 46.1q0 1.7 0 3.4c-.1 23.7 9.1 45.2 23.2 63.9 2 2.8 2 2.8 3 5.8q1 0 2 0l1 3c-13.8-.9-27.5-3.4-41-6q0-1 0-2-1.5-.2-3-.4-.8-.2-1.7-.3-2.9-.4-5.7-.6c-6.1-.8-11.8-2.7-17.6-4.5q-1.7-.5-3.4-1.1c-16.5-5-16.5-5-19.3-10.3q-.5-1.9-1-3.8-.3-1-.6-2.1-.6-2.3-1.1-4.6-.9-3.4-1.8-6.8c-7.3-29.2-2.3-59.9 5.6-88.4q.8-3.1 1.6-6.1l.6-2.3c2-8.2 1.7-16.6 1.7-25q0-4 .1-8c0-16.4-2.6-31.6-6.8-47.5q-.9-3.6-1.8-7.2c-.5-1.7-.5-1.7-.9-3.5q-2-7.8-3.8-15.7-.3-1.3-.6-2.6c-7.1-31.3-.1-61.7 7.7-92.1 9.2-35.9 7.8-69.2-.7-105.1-7.3-31.3-7.3-62-.1-93.3q.3-1.3.6-2.6c3.6-14.6 3.6-14.6 9-17.9q2-.7 4-1.2 1.4-.4 2.8-.9 4.9-1.5 10-2.9 1.8-.5 3.7-1.1C502.9 217 502.9 217 518 217zm-127 37l2 1c-.4.8-.4.8-.7 1.6-2.4 5.4-4.1 10.8-5.4 16.5q-.3 1-.5 2c-2.9 12.6-3.8 25.5-3.8 38.4v2.1c.1 20.7 3.1 41.2 6.8 61.6 4.8 29.7-.6 57.5-7.6 86.2-3.3 13.8-5.9 27.4-6.8 41.6q-.1 1.3-.2 2.7c-1.2 23.9 5 46.5 11.3 69.4 3.9 14.1 6.3 27.6 6.1 42.3a38.6 38.6 0 0 1 .1 3.4c-.1 13.3-2.3 26-5.3 38.9-5.9 26.1-8.7 49.7-5 76.3q.1 1.1.3 2.1.8 6 1.7 11.9c-21.4-6.3-47.6-22.9-62-40-.5-1.9-.5-1.9-.6-4.1-.2-3.4-.5-6.7-.9-10.1-3.2-26.7 0-51.6 5.5-77.8 5.2-24.8.4-47.7-6.1-71.7-3.2-11.9-5.3-23.4-5.2-35.7q.1-1.5.1-3.1c.2-14.8 3.5-27.9 7.4-42.1 3.8-13.5 6.1-25.9 6.2-39.8q0-1.1.1-2.1c0-13.9-2.1-26.8-5-40.3-2.8-13.2-3.9-25.9-3.9-39.4q0-1.2 0-2.5c.1-11 .5-21.9 2.1-32.9q.2-1.6.4-3.3c1-5.9 2-9.3 6.9-13.1 1-1 1-1 2.1-2 35.8-33 35.8-33 49.9-33q.5-1 1-2 2.5-.5 5-1 1.1-.6 2.2-1.1.9-.5 1.8-.9z" fill="#feca1a"/><path d="M275 347q1.5 0 3 0l.2 3.3c.7 8.7 1.7 17.3 3.3 25.8 5.4 29.1 7.5 57.8.5 86.9l-.8 3.2q-2.2 9.2-4.6 18.3c-1.3 5.4-1.8 10.7-1.8 16.3q-.1 1.1-.1 2.3 0 3.6 0 7.1v2.5c0 12 .7 22.8 4.3 34.3 8.3 29.6 10.1 58.9 3 89-2 9.1-3.4 17.8-3.7 27.1q-.1 1.5-.3 2.9-1 .5-2 1c-7.7-10.4-15-20.8-21.7-31.8q-2.2-3.6-4.5-7.2c-7.4-11.6-13.6-23.3-18.8-36q-.5-1.3-1.1-2.5c-2-5-3.6-9.7-4.8-14.9q-.5-2.1-1-4.2-.3-1.1-.5-2.2-.9-3.4-1.9-6.9c-15.9-58.2-6.9-116.2 22.9-168.5q3.2-5.4 6.4-10.8.7-1.1 1.4-2.3c5.7-9.6 11.9-18.8 18.6-27.7q1-1.4 2.1-2.9.9-1 1.9-2.1z" fill="#feca1b"/><path d="M703 774c1 3 1 3-.4 6.3q-1 2-2 4l-1.2 2.2q-1.7 3.2-3.4 6.5-.5.9-1 1.8c-5.5 10.4-12.1 19.8-19 29.2q-.6.9-1.3 1.7c-18 24.7-38.4 45.4-64.7 61.3q-1.8 1.1-3.6 2.2c-16.2 10-34.1 19.3-53.7 15.3-5-1.8-8.4-5.8-10.7-10.5-1.7-18 13.1-32.9 23.3-46.3 15.9-19.8 15.9-19.8 26.8-42.4 1.2-3.9 2.1-6.3 4.9-9.3 4.7-1.7 9.8-1.5 14.8-1.7 6.9-.2 13.5-1.4 20.3-2.7q1.7-.3 3.6-.6 3.5-.7 7-1.4 4.4-.8 8.8-1.6c11.2-2.1 22.1-5 33.1-8.3q5.3-1.5 10.6-3c4-1.1 4-1.1 7.8-2.7z" fill="#feaf01"/><path d="M915.4 460.6q1.2-.1 2.5-.1c4.3-.1 7.2.1 10.6 2.8 4.4 4.7 5.7 8.6 5.9 14.8-.2 9-2.8 18.2-8.6 25.2-4.8 4.5-10.7 7.4-16.8 9.7 2 2 3.7 2.9 6.3 4.2 5.1 2.8 9 6.5 11.7 11.8.6 5.9.1 10.8-3 16-6.5 5.2-11.9 5.4-20 5-3.7-.5-7.3-1.2-10.9-2.1q-1.5-.3-3-.6c-13.9-3.3-26.8-7.8-39.4-14.4q-1.2-.6-2.3-1.2c-6.9-3.7-13.8-8-16.4-15.7-.7-4.7-.5-8 1.6-12.3 6-6.9 11.1-8.8 19.8-11 19-5.2 31.9-14.2 46.2-27.6 5.1-4.4 9.3-4.5 15.8-4.5z" fill="#fa9700"/><path d="M781 380c12.2 9.3 22.1 22.7 25 38 1 13.6 1 13.6-3 19-2.5 2.8-4 3-7.8 3.6-4.2-.2-6.7-1.7-9.7-4.6-2.9-3.9-4.1-8.4-5.5-13-3.4-10.1-8-16.9-17.6-22-9.7-4.1-21.2-4.8-31.3-1.4-10.1 4.4-16.7 9.8-21.2 19.9-.8 2.3-1.3 4.4-1.6 6.9-1.1 4.9-3.4 8.4-7.3 11.6-3.6 1.8-6.6 2.3-10.6 2.3q-1.4 0-2.9.1c-2.5-.4-2.5-.4-4.3-1.7-3-4.3-2.7-9.7-2.2-14.7 3.1-17.4 10.4-32.1 24.9-42.8 5.1-3.4 10.4-6 16.1-8.2q1.2-.5 2.4-1c17.8-6 41.2-2.7 56.6 8z" fill="#17747a"/></svg>