<svg xmlns="http://www.w3.org/2000/svg" width="1024" height="1024" xmlns:v="https://vecta.io/nano"><path d="M450.9 128.1q1.5.4 3.1.7c40 9.2 74.6 31.1 105 58.2q.8.7 1.6 1.5c11.7 10.5 23.3 21.4 33.4 33.5a65.47 65.47 0 0 0 2.4 2.7c13.8 15.9 25.4 33.5 36.8 51.2 3.4 5.2 6.9 8.1 12.8 10.1q3 .6 6 1.1c64.1 11.3 132.3 41.2 185 78.9l2.1 1.5c9.3 6.7 18.4 13.5 27 21 2.8 2.4 5.7 4.7 8.6 7.1 4.6 3.7 8.8 7.8 13 12.1 2 2 4 3.8 6.2 5.7 9.1 7.7 16.7 17.3 24.1 26.6q1.2 1.5 2.5 3.1c16 20.2 24.3 39 22.5 64.9-2.8 22.5-16 41.1-29.7 58.4q-2 2.5-3.9 5C894.2 591 877.6 609.8 858 625q-1.8 1.5-3.5 2.9C808.6 666.2 754.2 692.8 696 706q-1.3.3-2.6.6c-10.8 2.5-21.4 4.3-32.4 5.4l-1 3.7c-5.5 19.8-11 39.3-21 57.3q-.8 1.6-1.7 3.1C624 800 605.3 819.2 584 836q-1.4 1.2-2.8 2.4c-17.9 14.6-38.6 24.5-62 22.9-6.5-.8-11.1-3.9-15.6-8.6-9-11.7-9.9-26.5-8.4-40.7 3.1-21.4 14.1-40.6 27.8-57q.7-.8 1.4-1.7c4.8-5.8 9.6-11.5 15-16.7 2.4-2.4 4.6-4.9 6.8-7.5q1.9-2.2 3.9-4.4 1.1-1.1 2.2-2.3 1-1 2-2c2.1-3 2.9-5.9 3.7-9.4q-1.7 0-3.5 0c-26.3-.5-52.9-5.3-78.2-12.4L466 696c-8.4 8.9-8.4 8.9-16.2 18.3-5.9 7.2-12.4 13.8-18.8 20.5q-2.9 3.1-5.7 6.2c-14.7 16-30.4 30.3-49.3 41q-1.4.8-2.9 1.6c-17.3 9.4-39.2 14.1-58.4 8.4-12.4-4.5-22.4-12.2-28.7-24-10.9-23.2-9.9-46.2-1.6-70.1 6.8-17.4 17.8-31.5 30.6-44.9q1.3-1.4 2.7-2.8c9.2-9.6 19-17.9 31.3-23.2-3.6-3.7-7.4-7.1-11.3-10.4-6.2-5.2-12.1-10.7-18-16.3-6.1-5.8-12.5-11.3-19-16.7-3.8-3.4-7.3-7.2-10.8-10.8q-3.2-3.1-6.4-6.3-1.6-1.7-3.3-3.4-2.4-2.4-4.8-4.8-.8-.8-1.5-1.5c-4.3-4.3-4.3-4.3-9.8-6.4-3.4.3-3.4.3-5.6 3.6q-1.2 2-2.3 4.1-1.3 2.2-2.6 4.5-.7 1.1-1.3 2.2c-1.9 3.2-3.8 6.3-5.8 9.3q-.5.9-1.1 1.8c-6.1 9.4-12.7 18.4-19.8 27.2q-.7.9-1.4 1.8c-9.3 11.3-19.6 21.8-29.9 32.1q-.8.8-1.7 1.7c-8.4 8.5-17.1 16.3-26.9 23.1l-7.3 5.4c-21.9 15.7-49.6 30.9-77.4 28.8-4.8-1.6-7.3-3.7-10-8-3.7-8.5-5.1-16.5-5.2-25.9q0-1.1 0-2.2 0-3.5 0-7.1-.1-1.2-.1-2.4c.1-12.4.7-24.3 3.3-36.4q.4-2.2.8-4.3c3.5-16.9 10.1-32.6 18.2-47.7.5-.9.5-.9.9-1.8 8-15.1 18.8-28.4 30.1-41.2q.7-.8 1.4-1.5c6.7-7.7 13.9-14.7 21.6-21.5q-3-3.5-6-7-.8-1-1.7-2-.9-1-1.7-2-.8-.9-1.6-1.8c-1.7-1.9-3.5-3.7-5.4-5.5C92.7 444.9 73.9 393.1 67 348c-.2-1-.2-1-.3-2-.8-5.6-.9-11.2-.9-16.9q0-1.4 0-2.8c0-9.4.7-18.9 7.2-26.3 6.6-4.4 16.1-2.3 23.4-.9 66 14.5 112.8 60.9 149.9 114.5q4.1 5.8 8.1 11.5 6.3 8.9 12.6 17.9c4-1.4 6.4-3.1 9.4-6.1 1.2-1.2 1.2-1.2 2.4-2.5q1.2-1.3 2.5-2.6c9.4-9.6 9.4-9.6 13.4-13 6.8-5.8 13-12.4 19.3-18.8 9.1-9.2 18-18.2 28.2-26.1 3.5-2.8 6.7-5.6 9.8-8.9-1.3-3.1-2.7-4.8-5.4-6.9q-1-.8-2-1.6-1.1-.8-2.2-1.6c-10.2-8.2-19.7-16.4-22.4-29.9-1.7-21.1 8.9-38.4 22-54 2.9-3.4 5.9-6.7 9-10q1.6-1.8 3.3-3.6l16.5-17.2c5.2-5.1 9.7-10.5 14.2-16.2q1.1-1.3 2.1-2.7c17.7-22.5 30.6-48.7 33.7-77.4.8-6.4 2.5-12.4 7.4-16.9 7.4-2.6 15.4-.5 22.7 1.1z" fill="#fead03"/><path d="M450.9 128.1q1.5.4 3.1.7c40 9.2 74.6 31.1 105 58.2q.8.7 1.6 1.5c11.7 10.5 23.3 21.4 33.4 33.5q1.2 1.3 2.4 2.7c13.8 15.9 25.2 33.6 36.8 51.1q2.8 4.2 5.8 8.2-1-.1-2.1-.3-4.8-.6-9.6-1.1-1.6-.2-3.3-.4c-44.9-5.5-91.6-1.5-135 11.8-1.5.5-1.5.5-3.1.9-15.1 4.8-29.6 10.2-43.9 17.1q-1.2.6-2.4 1.2c-21.4 10.1-41.6 22.2-60.5 36.4-9 6.9-17.9 13.3-28.1 18.4q.4-1.1.7-2.3c.6-2.8.6-2.8-1.3-4.7q-1.1-.9-2.3-1.9-1.2-1-2.5-2.1-3.5-2.7-7.1-5.4c-9-6.9-16.2-15.2-18.5-26.6-1.7-21.1 8.9-38.4 22-54 2.9-3.4 5.9-6.7 9-10q1.6-1.8 3.3-3.6c5.4-5.8 10.8-11.6 16.5-17.1 5.2-5.2 9.7-10.6 14.2-16.3q1.1-1.3 2.1-2.7c17.7-22.5 30.6-48.7 33.7-77.4.8-6.4 2.5-12.4 7.4-16.9 7.4-2.6 15.4-.5 22.7 1.1zM350 626q1.7 1.3 3.4 2.6l2.3 1.7q2.2 1.6 4.4 3.3c24.8 18.8 51.8 35.1 79.9 48.4q2.2 1.1 4.4 2.1c7.4 3.6 14.9 7 22.6 9.9q-.5.6-1.1 1.3-3.9 4.6-7.9 9.2-4.5 5.2-9 10.5-.9 1.1-1.9 2.2c-5 5.8-10.2 11.4-15.4 16.9q-2.7 3-5.4 5.9c-15 16.3-30.9 31-50.3 42q-1.4.8-2.9 1.6c-17.3 9.4-39.2 14.1-58.4 8.4-12.4-4.5-22.4-12.2-28.7-24-10.9-23.2-9.9-46.2-1.6-70.1 6.8-17.4 17.8-31.5 30.6-44.9q1.3-1.4 2.7-2.8c8.7-9 18-17.2 29.5-22.4 1.8-.7 1.8-.7 2.8-1.8z" fill="#fc8200"/><path d="M553 709q1 .1 2 .2 1.4.2 2.9.4 1.5.2 3.1.4 3.5.4 6.9.8l14.5 1.8c20.2 3 41.4 2 61.7-.2 5-.5 9.9-.5 14.9-.4-.5 7.4-1.9 14.2-4.1 21.4q-.4 1.5-.9 3.1c-12.5 41-36.6 73.1-70 99.5q-1.4 1.2-2.8 2.4c-17.9 14.6-38.6 24.5-62 22.9-6.5-.8-11.1-3.9-15.6-8.5-9-11.8-9.9-26.6-8.4-40.8 3.1-21.4 14.1-40.6 27.8-57q.7-.8 1.4-1.7c4.8-5.8 9.6-11.5 15-16.7 2.4-2.4 4.6-4.9 6.8-7.5q1.9-2.2 3.9-4.4c4.2-4.4 6.9-7.6 7.9-13.7l-5-1q0-.5 0-1z" fill="#fc8800"/><path d="M700 362c2.9 1.4 2.9 1.4 5 4 1.7 7.7-1.8 13.4-5.6 19.8q-1.7 2.9-3.4 5.8-.7 1.4-1.6 2.8c-5.2 9.4-9 19.4-12.6 29.5q-.8 2.1-1.6 4.2c-7.8 21.3-11.4 42.9-11.4 65.5q-.1 3.6-.1 7.2c-.1 14.4 2 28 6.1 41.8q.4 1.3.8 2.7c6.2 20.8 16.1 41.4 28.9 58.9 3.3 4.9 4.6 8.6 4.1 14.5-.6 2.3-.6 2.3-3.1 5.1-4.2 1.5-7.3 1.7-11.5.2-3-1.7-5.5-3.7-8-6q-1-.8-1.9-1.7c-20.2-19.1-33.5-46.6-40.1-73.3q-.3-1.1-.6-2.2c-14.2-54.5 5.3-111.7 31.9-159C688 360.5 688 360.5 700 362z" fill="#fb8a00"/><path d="M810.6 415.2c9.4 5.6 14.6 13.4 17.8 23.7 2 9.7-.8 19-5.7 27.3-3.6 5.3-8.1 8.7-13.7 11.8l-1.8 1c-7.3 3.4-16.5 3.1-24.1 1.3-10.7-3.9-16.8-10.4-22.1-20.3-3.5-8-3.4-18.4-.3-26.5 5.1-10.8 12.1-17.4 23.3-21.6 8.9-2.6 18.4-.9 26.6 3.3z" fill="#017c61"/><path d="M943 498c.4 8.4-.2 17.4-4 25-8.7 4.7-20.8 3.2-30.4 3.2q-3.5.1-7.1.1c-11 .1-23.1.2-32.5-6.3-1.8-2.4-2-3.8-2.1-6.9 1.8-5.3 5.6-7.8 10.5-10.3 8.1-3.5 16.1-3.9 24.8-4.1q1.3 0 2.6-.1 2.7 0 5.3-.1 4.1-.1 8.2-.2 2.6-.1 5.3-.1c1.2 0 1.2 0 2.4-.1q8.5-.1 17-.1z" fill="#fb8a00"/></svg>