<svg xmlns="http://www.w3.org/2000/svg" width="1024" height="1024" xmlns:v="https://vecta.io/nano"><path d="M407.4 155.6q1.5 0 3 0c47.7.2 91.8 11.5 134.6 32.4a31.5 31.5 0 0 1 2.6 1.3c18.6 9.1 35.2 20.9 51.4 33.7q1.5 1.2 3.1 2.4c36 28.9 36 28.9 45.6 46.8 3.2 5.5 5.7 8.6 11.9 10.3 4 .9 8 1.5 12.1 2.2 8.7 1.4 17.1 3.8 25.6 6.2q1.2.3 2.4.6c11.7 3.3 23.1 6.9 34.3 11.5q2.7 1.1 5.4 2.1 8.3 3.4 16.6 6.9 1.2.5 2.4 1c21.4 9.3 42 21.9 60.6 36a31.29 31.29 0 0 0 1.9 1.4 278.48 278.48 0 0 1 20.5 17.2c2.4 2.2 4.9 4.3 7.5 6.3 5.8 4.7 11.1 9.9 16.4 15.2l2.5 2.5c5 5 9.7 10.1 14.2 15.4q1.2 1.4 2.5 2.9c17.2 20.3 33.2 43.6 41.2 69.2 1.3 4.3 1.3 4.3 4.3 7.5 2.1 1.1 2.1 1.1 4.1 1.7 2.4.9 3.4 1.7 4.9 3.7.4 2.2.4 2.2.3 4.5q0 1.2 0 2.3c-.3 2.2-.3 2.2-2.3 5.2q-1 0-2 0-.4.9-.9 1.9C933 508 933 508 931 510c-.3 4.7-.3 4.7 1 9 1.2 18.6 1.2 18.6-4 27q-.7 1.3-1.3 2.6c-3.7 7.1-8.1 13.8-12.7 20.4q-.7 1-1.4 2c-6.2 9-12.6 17.7-19.6 26q-1 1.3-2.1 2.6c-13.1 16.5-28.2 31.5-44.9 44.4q-1 .8-2 1.5c-12.2 9.4-24.8 17.7-38 25.5-1.3.8-1.3.8-2.7 1.6C774 690 741.7 704.2 709 714q-1 .3-2 .6c-10.7 3.3-10.7 3.3-14.5 3.6-5 .5-5 .5-8.9 3.5-1.1 2.3-1.9 4.5-2.7 6.9q-1 2.6-2 5.3l-1 2.6c-6.8 18.1-18 36.2-30.9 50.5q-1 1.2-2.1 2.4-3.4 3.9-6.9 7.6-.7.7-1.4 1.5c-8.4 9-17.5 16.4-27.6 23.5q-1.5 1-3 2.1c-6.9 4.7-14.1 7.4-22 9.9q-1.5.5-3 1c-10 .9-20.2 1.1-29-4q-1.6-.9-3.2-1.7c-6.2-5.1-10.4-11.2-11.2-19.1-.8-21.1 8.7-40 22.7-55.4 9-9.5 18.2-18.9 28.1-27.4q1.9-1.6 3.6-3.4-6.9-1.1-13.7-2.2-1.1-.2-2.2-.4-13.1-2.1-26.3-4c-18.2-2.5-35.2-5.8-52.5-11.9q-1.5-.6-3.1-1.1-1.4-.5-2.8-1c-2.9-.5-3.9 0-6.4 1.6-4.4 3.4-8.4 7.4-12.3 11.4-4.9 4.9-10.2 9.3-15.7 13.6q-.8.6-1.6 1.3c-25.9 20.2-55.8 35.2-89.1 35.1q-1 0-2.1 0c-20.6-.1-38-4.8-53.3-19.4-11.8-12.4-17.4-30.4-17.2-47.3 2.2-29.5 23.5-53.6 44.7-72.5q5.6-4.8 11.6-9.2c-.9-4.5-3.5-7-6.6-10.3q-1.7-1.7-3.3-3.5-.8-.8-1.7-1.7c-2.3-2.4-4.4-5-6.6-7.5q-2-2.2-4.1-4.4c-7.2-7.6-12.9-15.9-18.7-24.6q-1-1.5-2-3-2-3-4-6c-3.4 2.7-6.4 5.4-9.2 8.7-6 6.9-12.5 13.3-19.5 19.3-2.5 2.1-4.9 4.4-7.3 6.7-5.5 5.2-11.1 10.2-17 14.9q-3.4 2.7-6.6 5.4c-8.9 7.3-17.9 14.1-27.4 20.6q-2.8 2-5.7 4c-26.2 18-61.6 38.5-94.9 32.8-11-2.8-19.4-12-25.4-21.1-38.2-65.1-35.2-164-25-236.3q.2-1.7.5-3.5c11.7-80.8 11.7-80.8 37.9-102.3 12-8.9 25.2-9.6 39.7-8 19.1 3.1 38.7 12.5 54.9 22.8q1.1.7 2.2 1.4c10.4 6.6 20.3 13.7 29.8 21.6q.8.7 1.7 1.4c15 12.5 29.9 25.7 42.5 40.5 2 2.4 4.1 4.6 6.2 6.9 3.9 4.4 7.6 8.8 11.3 13.4q2.4 2.9 4.9 5.9 1.2 1.4 2.5 3 1.1 1.3 2.2 2.7c1.7 2.2 1.7 2.2 1.7 4.2 5.3-4.6 8.7-10.4 12.4-16.2 12.3-19.5 27.4-37.2 45.8-51.1 3.6-2.7 6.7-5.5 9.8-8.7q-1-.3-2.1-.6c-3.9-1.8-6.7-4.4-9.9-7.2q-1-.9-2-1.8c-24.8-22-46.3-49.8-49.2-84-1.5-25.3 5.4-50.1 22.3-69.4l6.9-7q1-1 2-2.1c18-17.3 44.9-18.3 68.4-18.3z" fill="#fa6813"/><path d="M198 321q1.1.7 2.2 1.4c10.4 6.6 20.3 13.7 29.8 21.6q.8.7 1.7 1.4c15 12.5 29.9 25.7 42.5 40.5 2 2.4 4.1 4.6 6.2 6.9 8.7 9.7 16.6 20 24.6 30.2l-2 1q-.6 2.5-1 5-1.1 3.5-2.3 6.9-.7 2.1-1.4 4.2-.4 1-.8 2.1c-10 29.3-17.5 58.5-6.5 88.8q.4 1.1.8 2.1c2.1 5.8 4.3 11.4 7.4 16.7 1.8 3.2 1.8 3.2 1.8 5.2a11.27 11.27 0 0 1 1.8.3c2.6.8 3.2 1.6 4.7 3.9q.6 1 1.3 2c.7 1 .7 1 1.4 2.1q1.5 2.2 2.9 4.4.8 1.1 1.5 2.2c5.1 7.6 10.7 14.7 17 21.4 4.5 4.8 8.8 9.7 13.1 14.7q.7.9 1.5 1.8.7.8 1.4 1.7c1.4 1.5 2.9 3 4.4 4.5q-.5 1-1 2c-4.4-4.2-8.5-8.6-12.4-13.4-2.9-3.6-5.9-6.9-9.4-10.2-10.4-10.2-18.3-23.2-26.2-35.4-3.4 2.7-6.4 5.4-9.3 8.7-5.9 6.9-12.4 13.3-19.4 19.3-2.5 2.1-4.9 4.4-7.3 6.7-5.5 5.2-11.1 10.2-17 14.9q-3.4 2.7-6.6 5.4c-8.9 7.3-17.9 14.1-27.4 20.6q-2.8 2-5.7 4c-26.2 18-61.6 38.5-94.9 32.8-11-2.8-19.4-12-25.4-21.1-38.2-65.1-35.2-164-25-236.3q.2-1.7.5-3.5c11.7-80.8 11.7-80.8 37.9-102.3 27.9-20.6 69.1-1.4 94.6 14.8z" fill="#e95500"/><path d="M407.4 155.6q1.5 0 3 0c47.7.2 91.8 11.5 134.6 32.4a31.5 31.5 0 0 1 2.6 1.3c18.6 9.1 35.2 20.9 51.4 33.7q1.5 1.2 3.1 2.4c20.2 16.2 37.5 34.8 52.9 55.6-2.6 1.3-4.4.7-7.3.2-45.7-8.2-95.2-7.5-140.7 1.8q-1.4.3-2.8.6c-15 2.9-29.6 6.9-44.2 11.4q-1.3.4-2.6.8-1.2.4-2.5.8-1 .3-2.1.7c-2 .7-2 .7-3.8 2.7q-1.3.2-2.7.4c-4 .7-7.2 2.3-10.8 4.2q-1 .5-2.1 1.1-3.2 1.6-6.4 3.3l-3.5 1.9c-10.1 5.5-19.3 12.2-28.5 19.1q-1.8 1.3-3.6 2.7c-4.1 3-8.2 6-12 9.4-2.4 1.9-2.4 1.9-4.4 1.9q-.4.9-.8 1.8c-1.3 2.4-2.7 3.7-4.8 5.5q-1 .7-1.9 1.5-.8.6-1.5 1.2c0-3 0-3 2.5-5.7l2.5-2.3-2.1-.6c-3.9-1.8-6.7-4.4-9.9-7.2q-1-.9-2-1.8c-24.8-22-46.3-49.8-49.2-84-1.5-25.3 5.4-50.1 22.3-69.4l6.9-7q1-1 2-2.1c18-17.3 44.9-18.3 68.4-18.3z" fill="#ea5500"/><path d="M352 618.1c2.5 1.1 3.9 2.5 5.8 4.5 3.2 3.4 6.5 6.5 10.1 9.6q2.1 1.8 4.2 3.8c21.1 19.8 47.3 33.1 72.9 46q1 .5 2 1 7.1 3.6 14.2 7.2 1 .5 2 1 2.7 1.3 5.5 2.7l3.2 1.6c5.6 2.7 10.6 4.8 16.9 5.6 6 .7 6 .7 8.2 2.9q-.9-.3-1.8-.6c-3-.7-5.1-.9-8.2-.4-4.5 3.1-8.2 7-12 11q-1.8 1.8-3.6 3.6-.8.8-1.6 1.7c-4 3.8-8.4 7.3-12.8 10.7q-.8.6-1.6 1.3c-25.9 20.2-55.8 35.2-89.1 35.1q-1 0-2.1 0c-20.6-.1-38-4.8-53.3-19.4-11.8-12.4-17.4-30.4-17.2-47.3 2.2-29.5 23.5-53.7 44.7-72.5q1.3-1.1 2.6-2.2 1.3-1.1 2.5-2.2c5.9-4.8 5.9-4.8 8.5-4.7z" fill="#e85400"/><path d="M503 489h2.2c34.5.8 89.7 7.7 115.8 32.4 6.5 7.1 8.7 12.5 8.4 22.3-2.1 18.4-16 36.2-29.6 48.1-16.5 13.1-34.7 19.4-55.8 17.2-21.5-4.1-37.6-19.6-49.5-37-12.8-19.3-20.3-42.8-18.5-66 1.5-6.5 4.1-10.8 9.3-14.9 5.3-3.3 11.7-2.2 17.7-2.1z" fill="#cf4600"/><path d="M684 718l2 1q-.4.8-.8 1.7-.5 1.3-1.1 2.5-.7 1.6-1.4 3.1-1.9 4-3.5 8.1c-9.9 23.1-23.4 43.9-40.8 62.1q-1.4 1.5-2.8 3c-8.1 8.6-16.9 15.7-26.6 22.5q-1.5 1.1-3 2.1c-6.9 4.7-14.1 7.4-22 9.9q-1.5.5-3 1c-10 .9-20.2 1.1-29-4l-3.3-1.8c-6.1-5-10.3-11.1-11.1-19-.8-21.1 8.7-40 22.7-55.4 26.4-28 26.4-28 33.7-29.8q.5-1 1-2 .9 0 1.8 0 9.3 0 18.6.1 3.4 0 6.9 0c26 .1 26 .1 51.8-2.6q1.3-.2 2.6-.4c4-.3 4-.3 7.3-2.1z" fill="#e75400"/><path d="M803.4 413.1l6.6 4.9q1.2.9 2.4 1.8c7.7 6.1 13.8 15.5 15.6 25.2 1.7 15-4.7 26.1-13.8 37.5-7 8.5-15.6 12.7-26.5 13.8-11.9.5-19.9-3.2-29.2-10.7-8.8-8.3-11.3-18.4-11.8-30.1-.6-22.2-.6-22.2 6.3-30.5 6.4-6.6 13.5-10.8 22-14 1.6-.6 1.6-.6 3.3-1.3 9.5-1.8 16.9-2 25.1 3.4z" fill="#016e67"/><path d="M663.6 424.2c2.4.8 2.4.8 4.4 2.8-.3 4.1-1.5 7.7-3 11.5-7.8 20.7-9.8 39.4-9 61.5q.1 2.3.1 4.5c1.5 36.6 19.8 67.4 44.3 93.5 5.5 6 5.5 6 5.8 10.1-.2 2.9-.2 2.9-1.2 3.9-2.6.5-2.6.5-6 0-2.9-2-5.4-4.5-8-7q-2-1.7-3.9-3.4-2.1-1.8-4.1-3.6l-2-1.8c-21.6-20.1-37.6-52.1-39.1-81.7-.8-26.7-.4-67.6 17.6-89.3 1.5-1.2 1.5-1.2 4.1-1z" fill="#d44600"/><path d="M133.9 386.5c5.7.2 10.6 3.3 15.6 5.9q1.6.8 3.3 1.7 4.5 2.2 8.9 4.5 4.3 2.2 8.8 4.5 6.7 3.4 13.5 6.8 11 5.6 22 11.1l49.4 24.9c1 .5 1 .5 2.1 1.1 4.6 2.4 9.1 5.2 13.5 8q-.5 2.5-1 5c-9.6 1.4-16.8-3.6-25-8q-4.4-2.4-8.9-4.7-1.1-.6-2.3-1.2c-22.1-11.7-44.5-22.5-67.1-32.9q-1.4-.6-2.8-1.3-7-3.2-14-6.4-2.6-1.1-5.2-2.3-1.1-.6-2.4-1.1c-9.8-4.6-9.8-4.6-13.3-8.1-.2-2.4-.2-2.4 0-5 2-2 2-2 4.9-2.5z" fill="#c24500"/><path d="M131.4 472.1q2.2.2 4.5.4 5.9.5 11.9 1 3.7.3 7.4.6l78.5 7.6q5.6.7 11.1 1.3 9.1 1 18.2 2c-.3 2.4-.3 2.4-1 5-3.7 2.5-6.5 2.3-10.8 2.2h-2.4c-10.1-.1-20-1.1-30.1-2.1q-2.8-.2-5.6-.5-10-.9-19.9-1.9c-10.3-1-20.6-1.8-31-2.4q-1.4-.1-2.9-.2-6-.4-12-.7c-32.7-1.8-32.7-1.8-45.3-6.4-.2-2.4-.2-2.4 0-5 7.5-5 20.7-1.6 29.4-.9z" fill="#c34600"/><path d="M374 202c4.6 1.4 6.7 3.5 9.7 7.3q.6.7 1.3 1.6c4.4 5.5 8.5 11.3 12.6 17.1 7.8 11.1 15.8 21.8 24.3 32.3 4.5 5.4 8.8 11.1 13.1 16.7q1.3 1.7 2.7 3.5.7.8 1.4 1.7 1.8 2.4 3.7 4.8c6.2 8.3 6.2 8.3 6.2 11-6.9 3.9-6.9 3.9-11 3-2.3-2.2-4.1-4.9-5.9-7.5-3.5-5.1-7.2-9.8-11.3-14.4-3.2-3.7-6-7.5-8.9-11.3q-.9-1.3-1.9-2.6c-5.3-7.1-10.2-14.4-15.1-21.8-4.6-7.1-9.6-13.8-14.9-20.4-9.4-11.9-9.4-11.9-9-18 1.4-1.9 1.4-1.9 3-3zM261 519c2.1.4 2.1.4 4 1-.1 2.3-.1 2.3-1 5-4.9 3.6-10.2 5.2-15.9 7-3.6 1.2-7 2.5-10.4 4-2.4.9-4.9 1.7-7.4 2.4-5.1 1.5-10.2 3.3-15.2 5q-10.8 3.8-21.5 7.5-1.1.3-2.2.7-2.3.8-4.5 1.6l-37.4 13.1q-1.4.5-2.9 1.1-1.2.4-2.4.9c-4.6 1.5-8.5 1.8-13.5 1.8q-1.8-.1-3.8-.1-1.4 0-2.9 0c.2-2.3.2-2.3 1-5 3.7-2.6 7.6-4 11.9-5.4q.9-.3 2-.7 3.2-1 6.4-2.1 2.3-.7 4.5-1.5 4.5-1.5 9.1-2.9 7.9-2.7 15.9-5.3 2.9-1 5.7-1.9 6.4-2.2 12.8-4.3l45.4-15q1.7-.6 3.4-1.1c4.7-1.5 9.3-2.9 14.1-4 3.6-.4 3.6-.4 4.8-1.8zm180-319c3.4.1 4.8.8 7.4 3.1 7.5 8.3 14.2 17.2 20.8 26.4 2.4 3.3 4.9 6.6 7.4 9.8 8 10.6 15.5 21.4 22.8 32.4q2.2 3.2 4.5 6.3c2.1 3 2.1 3 2.1 5l-11 2c-5.9-8-11.7-16-17.3-24.2-9.3-13.7-19.2-27-29.4-40-9-11.7-9-11.7-9.7-16.7.4-2.1.4-2.1 2.4-4.1z" fill="#c34500"/><path d="M935 488.4c3.9 3.2 3.9 3.2 4.3 5.7q0 1.1 0 2.3v2.4c-.3 2.2-.3 2.2-2.3 5.2q-1 0-2 0-.4.9-.9 1.9C933 508 933 508 931 510c-.2 2.9-.2 2.9-.1 6.1q0 1.7 0 3.3.1 1.3.1 2.6c-2.3-3.4-2.2-5-2-9q-1.3.3-2.6.7c-13.1 2.9-28.4 5.6-40.4-1.7-.4-4.5-.4-4.5 1.1-6.5 3.2-2.5 7.2-3 11.2-3.9 6.4-1.5 10.9-4.4 15.3-9.2 5.8-5.9 13.7-7.6 21.4-4z" fill="#e64c00"/><path d="M515 210c2.5.2 3.7.8 5.6 2.4 4.6 5.5 8.9 11.2 13.2 16.9q1.9 2.6 3.8 5.1 8.7 11.7 16.7 23.9c3.2 4.7 6.5 8.9 10.4 13 1.3 1.7 1.3 1.7 1.3 4.7-4.5 1.4-8.7 2-13 0-6.2-5.5-10.6-13.1-15-20q-.7-1.1-1.5-2.3-2.5-3.9-4.9-7.9c-3.3-5.5-7-10.6-10.8-15.7-7.6-9.9-7.6-9.9-8.2-15.4.4-2.7.4-2.7 2.4-4.7z" fill="#c44500"/><path d="M417.4 667.7q1.3.6 2.6 1.3c0 4 0 4-2.1 6.6q-1.4 1.3-2.9 2.7-.8.7-1.5 1.5c-3.3 3.1-6.7 6.1-10.1 9.1-4.1 3.6-7.9 7.6-11.8 11.5-3.7 3.8-7.5 7.3-11.6 10.8-2.1 1.9-4.1 3.8-6.1 5.8q-1 .9-2 1.9-2.1 2.1-4.1 4.1c-5 4.9-5 4.9-9.3 5.4q-1.2-.2-2.5-.4c.5-4.7 2.2-6.7 5.5-10q.7-.7 1.4-1.4 2.3-2.3 4.6-4.6 1.6-1.6 3.2-3.2 3.4-3.3 6.8-6.7 4.3-4.3 8.6-8.6 3.3-3.3 6.6-6.6 1.6-1.6 3.2-3.2 2.2-2.2 4.5-4.4 1.2-1.2 2.5-2.5c2.1-1.8 2.1-1.8 4.1-1.8q.5-1.5 1-3c5-5.2 5-5.2 9.4-4.3z" fill="#c34400"/></svg>