<svg xmlns="http://www.w3.org/2000/svg" width="1024" height="1024" xmlns:v="https://vecta.io/nano"><path d="M488.3 75.4c7.8 1.3 13.9 8.4 19.5 13.7q1 .9 2.1 1.9c9 8.6 16.6 18.2 24.2 28 2.6 3.4 5.3 6.6 8.1 9.7 2.6 2.9 4.9 5.7 7.1 8.9q.9 1.3 1.8 2.6a46.13 46.13 0 0 0 1.9 2.8q1.9 2.7 3.7 5.3 2 2.8 3.9 5.6 1.1 1.5 2.1 3.1 5.9 8.3 11.6 16.8c11.2 17.5 11.2 17.5 25.7 32.2q2 0 4 0c1.5-3 .9-6 .7-9.2q-.1-1.1-.1-2.3c-.7-10.1-1.9-20.1-3.1-30.1q-.3-3-.7-6l-2.4-19.2c-.6-4.5-.6-8.9-.7-13.4v-2.7c-.1-6.4-.1-6.4 1.6-9.7 1.7-1.4 1.7-1.4 4.4-2.1 9.1 1.9 16.4 12.8 21.4 20.1q1.6 2.4 3.1 4.8.8 1.3 1.7 2.6c6 9.5 11.7 19.3 17.1 29.2q.7 1.3 1.5 2.7C678 224.2 678 224.2 678 246q.9.3 1.9.5c35.2 10.4 68.7 29.7 98.1 51.5q.9.6 1.8 1.3c11.1 8.3 21.7 17.3 32 26.7q2.9 2.6 5.9 5.2c9.1 7.9 17.6 16.6 25.3 25.8q1.2 1.4 2.4 2.8c17 19.7 32.4 41.3 44.5 64.2q1.8 3.2 3.5 6.4C911 462.5 911 462.5 911 471l3.6-.2c4.2 0 6.9.8 10.4 3.2 4.3 4.4 6.2 7.5 6.3 13.7-.1 7.9-2.5 11.6-7.9 17.1-2.1 2-3.9 3.6-6.4 5.2 1.5 4.5 4.9 6.2 8.7 9 3.4 2.9 4.2 4.9 4.7 9.4-.4 3.6-1.1 5.7-3.6 8.4-3.5 2.4-7.7 2.7-11.8 3.2-.1.9-.1.9-.3 1.9-1.3 8.2-3.7 15.9-6.3 23.8q-.4 1-.7 2c-3.2 9.5-6.7 18.7-11.7 27.4q-1.7 3.1-3.3 6.3c-11.3 20.9-24.8 40.2-40 58.5q-1.8 2.2-3.6 4.5c-5.9 7.5-12.4 14.2-19.1 20.9q-2.8 2.7-5.5 5.5c-6.2 6.1-12.4 12-19.2 17.3-2.2 1.9-4.4 3.7-6.5 5.7-16.7 15-36.3 27.2-55.8 38.2q-1 .6-2 1.1c-9.1 5.2-18.5 9.5-28.1 13.6q-1.7.8-3.4 1.5c-9.2 3.9-9.2 3.9-14.1 4.9-6.2 1.4-9.9 2.8-13.6 8.1-2.7 4.4-5.1 8.8-7.4 13.3-2 3.5-4.2 6.8-6.6 10.1q-.6.8-1.2 1.7c-6.7 9-14 17.4-21.6 25.7q-1.4 1.5-2.7 3c-5.2 5.8-10.3 11.2-16.3 16q-.7.6-1.5 1.3C604 869.4 580 885.8 554 893q-1.3.4-2.6.7c-11.2 2.7-24.5 2.9-34.8-3-3.8-2.6-5.7-5.2-7.3-9.5-1.6-11.1 2.5-21 9-30 3.5-4.5 7-8.9 10.7-13.2.6-.8.6-.8 1.3-1.5q12.5-14.9 25.2-29.6l1.8-2q1.7-2 3.4-3.9c2.6-2.9 5-5.9 7.3-9q-1.4 0-2.8.1c-26.8.3-54.3-4.5-80.2-11.1q-1.1-.3-2.2-.6c-9.5-2.4-18.7-5.4-28-8.5q-1.2-.4-2.5-.8-6.1-2.1-12.2-4.2-2.3-.8-4.6-1.6-1-.4-2.1-.7c-4.7-1.7-4.7-1.7-9.4-.6l-6.3 4.3c-28.5 19.5-64.3 33.8-99.1 33.9q-3.2.1-6.4.1-2 0-4.1 0-1.8 0-3.7.1c-3.8-.4-6.2-1.4-9.4-3.4-2-3-2-3-1.8-5.9 2.4-9.3 9.3-15.8 16-22.3 8.5-7.9 8.5-7.9 11.9-18.5q-.1-1.6-.1-3.3a443.12 443.12 0 0 0-28.3-1.2q-1.6 0-3.3-.1-6.7 0-13.5-.1-5 0-9.9-.1-1.6 0-3.1 0c-5.3-.1-9.3-.4-13.9-3.5-1.1-2.3-1.1-2.3-1-5 5.1-10 15-18.8 23.5-26 10.1-8.7 19.6-18.3 27.5-29-1.6-3.9-4.1-6.3-7.1-9.3q-.8-.7-1.6-1.5-3.2-3.2-6.5-6.3c-6.4-6.3-12.4-12.5-17.9-19.5-1.8-2.3-3.7-4.4-5.7-6.5C225 601.6 225 601.6 225 586c-3.3 3.1-6.1 6.3-8.9 9.9-2.9 3.7-6 7.1-9.4 10.4a69.1 69.1 0 0 0-5.1 5.7c-3 3.4-6.1 6.3-9.5 9.2q-2.1 1.8-4.1 3.7c-24.4 23-54.9 41-86 53.1q-1.7.6-3.4 1.3-3.7 1.4-7.6 2.7l-3.7 1.2c-4.1 1-8.2 1.1-12.4 1.2-1 0-1 0-2.1.1-5.1 0-8-1.2-11.8-4.5-12.2-22-.2-63.2 6.2-85.4 7.9-26.5 20-52.6 37.8-73.8 1.4-2.5 1.5-3.9 1-6.8-1.3-2.1-2.7-4-4.3-6-31.6-42.2-46.4-97.5-41.3-149.8.8-4.1 2.4-5.6 5.6-8.2 9.2-4.6 23.9 0 33 3 21.9 7.5 42.2 18.6 61 32l2.1 1.5c9.2 6.6 17.7 13.7 25.9 21.5q2.1 1.9 4.3 3.7c11 9.6 23.1 22.1 29.7 35.3l.8-1.6c14.9-28.5 33.2-55.1 54.9-78.8q1.9-2.1 3.8-4.3c5-5.9 10.4-11.4 15.9-16.9 1.4-1.3 1.4-1.3 2.8-2.7 6.6-6.6 13.4-12.9 20.8-18.7-.2-3.2-1-4-3.5-6.2q-1.7-1.2-3.4-2.4c-1-.6-1-.6-1.9-1.3-6.3-4.3-12.8-8.2-19.3-12.1-6.3-3.8-12.6-7.9-18.8-11.9l-12.8-8q-1.1-.7-2.2-1.3-2-1.2-4-2.4c-4.3-2.7-7.7-5.6-11.1-9.4-.5-2.8-.5-2.8 0-5 3.2-3.2 7.4-2.5 11.8-2.5 11.1.3 21.8 3.1 32.6 5.6l17.4 4q9.8 2.1 19.6 4.4c16.2 4.7 16.2 4.7 31.8 1.5q.9-1 1.8-2c-1.1-11.6-13.2-20.5-21.1-28.3q-1.4-1.4-2.8-2.8a297.64 297.64 0 0 0-14.2-13.3c-5.5-4.7-10.8-9.8-16.1-14.9q-2.2-2.1-4.5-4.2c-6.7-6.3-13.8-14.2-16.3-23.1 0-3.4 0-3.4 1.5-5.8 5.6-3.6 13.3-2.4 19.6-1.2 16.5 3.8 31.8 13.6 45.9 22.9 8.3 5.4 17 10.1 25.8 14.7q2.2 1.1 4.3 2.3 3.2 1.6 6.4 3.3 5.6 2.9 11 5.9c1.2.6 1.2.6 2.3 1.2q2.1 1.1 4.2 2.3c9.6 5.2 9.6 5.2 20 6 2.1-1.4 2.1-1.4 3-4-.3-7.2-2.8-12.8-5.9-19.2q-.7-1.6-1.5-3.2c-7-14.9-14.6-29.3-23.4-43.2-7.5-11.9-14.4-24.1-21.2-36.4q-.7-1.3-1.5-2.7-1.8-3.3-3.6-6.6-.9-1.7-1.8-3.5c-1.3-3.9-1.2-6.2-.1-10.2 1.2-1.9 1.2-1.9 3-3 2.3-.5 2.3-.5 5.1-.5q1.3 0 2.6-.1c8.6 1.6 15.8 7 22.5 12.2q1.3.9 2.5 1.8c10.5 7.9 20.2 16.5 29.9 25.4 2.7 2.5 5.5 4.9 8.3 7.4l7.4 6.7c4.4 4 9 7.8 13.7 11.6 3.5 2.9 7 6 10.5 9q9.1 7.9 18.5 15.5 1.3 1.1 2.7 2.2c8.2 7.2 8.2 7.2 18.3 9.8.3-7.1-.7-13.1-2.6-20-.4-1.6-.4-1.6-.9-3.3-3.3-11.7-7.5-23-11.8-34.3-4.6-12.5-8.9-24.9-12.6-37.6q-.3-1.1-.6-2.2c-4.6-16.1-4.6-16.1-4.8-24.7q-.1-1.8-.1-3.6c.4-3.3.4-3.3 2.2-5.7 2.2-1.6 2.2-1.6 5.4-2.2z" fill="#b1c240"/><path d="M99 353c21.9 7.5 42.2 18.6 61 32q1 .7 2.1 1.5c9.2 6.6 17.7 13.7 25.9 21.5q2.1 1.9 4.3 3.8c7.4 6.4 13.6 13.5 19.7 21.2q.6.8 1.3 1.6 1.8 2.4 3.7 4.8 1.1 1.4 2.3 2.9c1.8 2.8 2.3 4.4 2.7 7.7-.6 2.5-.6 2.5-1.7 5q-.6 1.4-1.2 2.9c-.6 1.5-.6 1.5-1.3 3-3.5 8.6-6.6 17.1-8.8 26.1q-.3 1.2-.6 2.5c-7.2 30.1-.1 61.6 13 89 2.2 4.9 2.2 4.9 2.6 7.5a106.13 106.13 0 0 1-4.9 6.8q-.8.9-1.6 1.8c-3.3 4.1-6.8 8-10.7 11.6-1.9 1.9-3.6 3.8-5.3 5.9-2.9 3.3-6 6.2-9.4 9.1q-2.1 1.8-4.1 3.7c-24.4 23-54.9 41-86 53.1q-1.7.6-3.4 1.3-3.7 1.4-7.6 2.7-1.8.6-3.7 1.2c-4.1 1-8.2 1.1-12.4 1.2q-1 0-2.1.1c-5.1 0-8-1.2-11.8-4.5-12.2-22-.2-63.2 6.2-85.4 7.9-26.5 20-52.6 37.8-73.8 1.4-2.5 1.5-3.9 1-6.8-1.3-2.1-2.7-4-4.2-6-31.7-42.2-46.5-97.5-41.4-149.8.8-4.1 2.4-5.6 5.6-8.2 9.2-4.6 23.9 0 33 3z" fill="#007053"/><path d="M488.3 75.4c7.8 1.3 13.9 8.4 19.5 13.7q1 .9 2.1 1.9c9 8.6 16.6 18.2 24.2 28 2.6 3.4 5.3 6.6 8.1 9.7 2.6 2.9 4.9 5.7 7.1 8.9q.9 1.3 1.8 2.6a46.13 46.13 0 0 0 1.9 2.8q1.9 2.7 3.7 5.3 2 2.8 3.9 5.6 1.1 1.5 2.1 3.1 5.9 8.3 11.6 16.8c11.2 17.5 11.2 17.5 25.7 32.2q2 0 4 0c1.5-3 .9-6 .7-9.2q-.1-1.1-.1-2.3c-.7-10.1-1.9-20.1-3.1-30.1q-.3-3-.7-6l-2.4-19.2c-.6-4.5-.6-8.9-.7-13.4v-2.7c-.1-6.4-.1-6.4 1.6-9.7 1.7-1.4 1.7-1.4 4.4-2.1 9.1 1.9 16.4 12.8 21.4 20.1q1.6 2.4 3.1 4.8.8 1.3 1.7 2.6c6 9.5 11.7 19.3 17.1 29.2q.7 1.3 1.5 2.7c11 19.9 20.1 40.7 26.8 62.4q.5 1.5.9 2.9c1.9 6.6 1.9 6.6.8 10q-1.3-.4-2.7-.7c-26.8-7.3-53.6-14.2-81.3-17.3q-1.1-.1-2.2-.3c-8.9-1.1-17.8-.9-26.7-1q-1.4 0-2.7 0c-31.1.1-60.7 5.1-90.4 14.3q-1.1.3-2.2.7c-50.2 15.3-95.6 42.6-136.7 74.7-3 2.3-6 4.4-9.1 6.6q-.7-.6-1.4-1.3c-5.3-4.8-10.9-8.6-16.9-12.4q-1.5-.9-2.9-1.8-3-1.9-6-3.7-3.8-2.4-7.7-4.9l-20.2-12.5q-1.5-.9-3.1-1.9-3-1.8-6-3.5c-5.6-3.3-10.8-6.8-14.8-12-.6-2.8-.6-2.8 0-5 3.2-3.2 7.4-2.5 11.8-2.5 11.1.3 21.8 3.1 32.6 5.6l17.4 4q9.8 2.1 19.6 4.4c16.2 4.7 16.2 4.7 31.8 1.5l1.8-2c-1.1-11.6-13.2-20.5-21.1-28.3q-1.4-1.4-2.8-2.8a297.64 297.64 0 0 0-14.2-13.3c-5.5-4.7-10.8-9.8-16.1-14.9q-2.2-2.1-4.5-4.2c-6.7-6.3-13.8-14.2-16.3-23.1 0-3.4 0-3.4 1.5-5.8 5.6-3.6 13.3-2.4 19.6-1.2 16.5 3.8 31.8 13.6 45.9 22.9 8.3 5.4 17 10.1 25.8 14.7q2.2 1.1 4.3 2.2 3.2 1.7 6.4 3.4 5.6 2.9 11 5.9c1.2.6 1.2.6 2.3 1.2q2.1 1.1 4.2 2.3c9.6 5.2 9.6 5.2 20 6 2.1-1.4 2.1-1.4 3-4-.3-7.2-2.8-12.8-5.9-19.2q-.7-1.6-1.5-3.2c-7-14.9-14.6-29.3-23.4-43.2-7.5-11.9-14.4-24.1-21.2-36.4q-.7-1.3-1.5-2.7-1.8-3.3-3.6-6.6-.9-1.7-1.8-3.5c-1.3-3.9-1.2-6.2-.1-10.2 1.2-1.9 1.2-1.9 3-3 2.3-.5 2.3-.5 5.1-.5q1.3 0 2.6-.1c8.6 1.6 15.8 7 22.5 12.2q1.3.9 2.5 1.8c10.5 7.9 20.2 16.5 29.9 25.4 2.7 2.5 5.5 4.9 8.3 7.4l7.4 6.7c4.4 4 9 7.8 13.7 11.6 3.5 2.9 7 6 10.5 9q9.1 7.9 18.5 15.5 1.3 1.1 2.7 2.2c8.2 7.2 8.2 7.2 18.3 9.8.3-7.1-.7-13.1-2.6-20-.4-1.6-.4-1.6-.9-3.3-3.3-11.7-7.5-23-11.8-34.3-4.6-12.5-8.9-24.9-12.6-37.7q-.3-1-.6-2.1c-4.6-16.1-4.6-16.1-4.8-24.7-.1-1.8-.1-1.8-.1-3.6.4-3.3.4-3.3 2.2-5.7 2.2-1.6 2.2-1.6 5.4-2.2z" fill="#79a130"/><path d="M487.1 506.7q5.5 0 11 0c55.7 0 55.7 0 73.6 15.6 8.9 9.3 10.9 17.6 10.8 30.1-.8 22.3-13.7 39.7-29.3 54.7-18 16.7-39.2 22.9-63.3 22.2-23.5-1-44-13.5-59.9-30.3-13.9-15.2-23.1-34.8-22.3-55.7.9-9.2 2.9-16.5 9.3-23.3q.7-.8 1.5-1.7c15.1-15 49.2-11.8 68.6-11.6z" fill="#006e54"/><path d="M781.3 382.1c13 8.2 23.8 21.4 27.3 36.7 2.1 16.9.9 34.2-9.6 48.2-9.7 12.3-22.4 21.1-38 24-18.2 2-32.8-2.6-47-14-10.6-8.8-16.9-21.5-19-35-1.1-17.2 1.3-33.2 12.8-46.8 8.2-9.1 17.5-14.6 29.2-18.2q1.7-.5 3.4-1.1c13.7-3.4 28.6-.4 40.9 6.2z" fill="#fdc50c"/><path d="M683 777q.5 1 1 2c-.9 1.9-.9 1.9-2.3 4.2q-.8 1.3-1.6 2.6-.9 1.4-1.8 2.8l-1.8 2.9C662.9 812.9 645.9 835 626 851q-1.6 1.3-3.2 2.7c-20 16.5-43.5 32.3-68.8 39.3q-1.3.4-2.6.7c-11.2 2.7-24.5 2.9-34.8-3-3.8-2.6-5.7-5.2-7.3-9.5-1.6-11.1 2.5-21 9-30 3.5-4.5 7-8.9 10.7-13.2q.6-.8 1.3-1.5L552 811q.9-1 1.7-2 2.7-3.1 5.4-6.2.8-.9 1.6-1.9.8-.9 1.6-1.8.7-.8 1.4-1.6.6-.7 1.3-1.5.7-.8 1.3-1.6c3-2.5 7-1.9 10.7-2 1.4-.1 1.4-.1 2.7-.1q2.9-.1 5.8-.2 7.6-.3 15.2-.6 1.5 0 3-.1c27.2-1.2 53.3-6.5 79.3-14.4z" fill="#79a130"/><path d="M300 683c4 1.7 7.2 4.4 10.6 7.1l1.9 1.5q4 3.2 8 6.4c31.4 25.6 68 47.6 105.5 63-16.2 17-40.3 25.8-62.1 33.1-1 .3-1 .3-2 .7-15.3 5.1-29.9 7.7-46 7.6q-2.1 0-4.1 0h-4q-1.7 0-3.5 0c-3.7-.5-6.1-1.4-9.3-3.4-2-3-2-3-1.8-5.9 2.4-9.3 9.3-15.8 16-22.3 8.5-7.9 8.5-7.9 11.9-18.5q-.1-1.6-.1-3.3a443.12 443.12 0 0 0-28.3-1.2q-1.6 0-3.3-.1-6.7 0-13.5-.1-5 0-9.9-.1-1.6 0-3.1 0c-5.3-.1-9.3-.4-13.9-3.5-1.1-2.3-1.1-2.3-1-5 5.1-10 15-18.8 23.5-26 10.4-9 20.1-19 28.5-30z" fill="#79a030"/><path d="M623.5 392.5c3.5.5 3.5.5 5.9 1.9 2.4 4 2.4 7.2 1.6 11.6-1.3 3.8-2.8 7.5-4.4 11.3-3.3 7.6-5.5 15.1-7.2 23.3q-.3 1.5-.7 3c-1.8 8.3-2.9 16.3-2.9 24.8q-.1 1.3-.1 2.7 0 2.9 0 5.7 0 2.9-.1 5.7c-.2 13.7 1.2 26.2 4.4 39.5q.3 1.5.7 3.1c6.9 29.3 23.2 55.9 43.3 77.9q.7.7 1.4 1.5c9.1 9.9 19.7 18.4 31 25.7 2.6 1.8 2.6 1.8 4.6 4.8.4 3.4.4 3.4 0 7-2.5 2.9-4 3.9-7.9 4.3-10.1-.9-19.7-11.8-27.1-18.3q-.8-.7-1.6-1.4c-37.3-32.9-62.6-80.6-66.2-130.6-1.7-31.4 2-62.6 14.4-91.8q.4-.9.8-2c2.3-5.2 4.2-8.9 10.1-9.7z" fill="#749b2e"/><path d="M922.3 472.1c3.8 2.6 6.6 5.7 8.7 9.9.6 6.2 1 12.1-2.7 17.4-3.4 4.1-6.9 7.7-11.3 10.6 1.5 4.5 4.9 6.2 8.7 9 3.4 2.9 4.2 4.9 4.7 9.4-.5 4.7-1.9 6.4-5.4 9.6-8.8 3.9-19.4 2.1-28.6.3-1.4-.3-1.4-.3-2.8-.5-16.8-3.3-35.2-7.1-47.6-19.8-2.2-3.8-2.6-6.6-2-11 3.6-5.9 8.1-8.4 14.5-10.6q2.4-.8 4.8-1.7 1.2-.5 2.4-.9c11-3.9 20.4-9.1 30.2-15.2 16-10 16-10 26.4-6.5z" fill="#016c53"/><path d="M774.1 404.3c6.7 5.1 11.5 13.5 12.9 21.7.9 12.2-.9 22.5-9 32-8.4 8.1-16.5 10.5-28 10.4-9.4-.3-17.2-3.9-24-10.4-6.8-7.7-9.7-17.7-9.2-27.9q.1-1 .2-2.1.1-1.1.2-2.2c1.3-8.3 6.1-15.9 12.5-21.2 14.1-9.3 30.2-9.2 44.4-.3z" fill="#016c55"/><path d="M527.5 326.2c5 3.6 9.5 7.9 11.5 13.8.7 7.5.6 13.8-4 20-4.9 5-11 7.1-17.9 7.6-6-.2-10.5-2.9-15.1-6.6-5.2-5.8-5.4-12-5.3-19.5.5-6 2.6-9.2 7.2-13.1 7.1-4.7 15.6-4.9 23.6-2.2zm-140 37.7c5.6 3.3 10 8.1 12.5 14.1 1 7-.2 13.1-4 19-3.8 4.3-8.3 6.7-14.1 7.4-7.3.1-12.3-.3-17.9-5.4-5-5-7.1-8.5-7.4-15.7.1-6 1.4-9.8 5.4-14.3 7.1-6.6 16.2-8.5 25.5-5.1zm69.1 57c5.2 3.2 9.1 7.4 11.4 13.1.7 6.6 1.2 13.5-3 19-4.3 4.4-8.4 7.6-14.6 8.3-9 0-14.9-2.1-21.4-8.3-3.8-5.3-4.5-10.5-4-17 2.1-6.6 6.4-11 12-15 6-2 13.6-2.3 19.6-.1z" fill="#79a131"/><path d="M332 464c4.9 4.2 7.5 8.8 8.3 15.3.2 6.1-.6 10.8-4.3 15.7-6.4 5.9-12.7 6.5-21.3 6.3-5-.4-8.2-1.7-11.7-5.3-4.7-6-6.6-11.3-6-19 2.3-7.5 7.8-12.6 14.5-16.4 7.6-1.7 13.8-.4 20.5 3.4z" fill="#7aa131"/></svg>