<svg xmlns="http://www.w3.org/2000/svg" width="1024" height="1024" xmlns:v="https://vecta.io/nano"><path d="M429.7 133.7q4 .1 8.1 0c54.9 0 111 15.8 156.2 47.3a35.34 35.34 0 0 1 2.4 1.7c11.4 7.9 21.7 16.6 31.6 26.3q1.5 1.5 3.1 2.9c8.8 8.6 16.2 18 23.3 28q.8 1.1 1.6 2.2.7 1 1.5 2.1c.6.9.6.9 1.3 1.8 1.2 2 1.2 2 2 4.6 1 2.6 1 2.6 3.5 3.4q1.5.3 3 .5c7 1.5 13.7 3.6 20.5 5.9q1 .3 1.9.6c20.3 6.8 40.4 14.9 59.2 24.9q3.7 1.9 7.4 3.8c21.3 10.8 41.4 23.2 60.7 37.3q.9.6 1.8 1.3 5.1 3.8 10.2 7.7l1.7 1.3c6.9 5.3 13.6 10.8 20.1 16.7q3 2.7 6 5.3c12.3 10.8 24.7 21.9 35.3 34.4q2.4 2.8 4.8 5.6c7.9 8.9 15.1 18.1 22.1 27.7q.8 1.1 1.7 2.3c9.5 13 17.7 26.5 25.3 40.7q.6 1 1.2 2.1c7 13.2 7.4 31.5 3.4 45.7-1.8 5.5-4.1 10.9-6.6 16.2q-.6 1.3-1.2 2.7c-11.9 25.7-27.5 49.8-45.8 71.3q-1.3 1.6-2.7 3.2c-11.9 14.1-24.5 27.5-38.3 39.8q-1.2 1.2-2.5 2.3c-6.3 5.9-13 11.1-19.8 16.4q-2.4 1.8-4.7 3.7c-31.1 24.6-67 44.1-103.8 58.6q-1.8.7-3.6 1.4c-5.8 2.3-11.5 4.3-17.6 5.6l-.4 3c-2.9 20.2-14 40.4-27.8 55-1.8 1.9-1.8 1.9-2.8 4q-1 0-2 0-.5 1.5-1 3c-3.5 3.2-7.3 6.1-11 9q-1.3 1-2.5 2c-19.7 15-42.4 23.5-66.4 28.5q-2.5.6-5.1 1.2c-6.3 1.5-12.7 1.5-19.2 1.6q-1.4 0-2.8 0c-13-.1-13-.1-17.9-3.7-2.6-3.7-2.4-7.3-2.1-11.6 3.7-14.1 15.2-23.4 25.8-32.6 20.7-17.5 20.7-17.5 36.2-39.4q-1.7.2-3.5.5c-4.3.5-8.6.7-13 .7q-1.2 0-2.4 0-3.9 0-7.7.1h-2.7c-16.4-.1-32.4-1.1-48.7-3.3l-3.2-.4c-13.7-2-27-4.9-40.4-8.2q-1.4-.4-2.8-.7-2.5-.7-4.9-1.4c-4-1.1-6.8-1.8-10.7-.3-2.2 1.4-4.3 2.9-6.4 4.5-18.5 13.7-38.1 23.2-60.6 28.5q-1.1.3-2.3.5c-35.7 8.2-80.3 2.7-111.7-16.7-4.9-3.3-4.9-3.3-5.9-7.1q-.1-1.3-.1-2.7c4.6-4.1 10-6.8 15.4-9.6 22.9-12.3 42.7-28.5 55.6-51.4q.6-2 1-4-.7-.5-1.4-1.1c-10.5-8-20.7-16.2-30.6-24.9q-1.4-1.2-2.8-2.5c-13.6-12.2-27-25-38.2-39.5q-2.4-2.8-4.8-5.6C257.7 597 245.6 577.5 236 557c-1.6 2.4-2.9 4.7-4.1 7.3-11.5 24-25.8 46.2-43.9 65.7q-1.7 1.9-3.3 3.9c-8.1 9.3-17 17.4-26.7 25.1l-2.6 2.2c-24.5 20.7-59.2 41-92.2 41.5-2.2-.7-2.2-.7-4-2.9-13.9-31 3.5-84.3 14.7-114 12-31 28.8-58.4 50.1-83.8-1.4-3.3-3.2-5.4-5.7-8-11.3-12.4-21.2-26.3-29.3-41q-.6-1.2-1.3-2.4c-14-25.3-23.3-52.1-28.7-80.6-.2-1.1-.2-1.1-.5-2.2-2.7-14-2.8-28.1-2.8-42.4q0-1.4 0-2.9 0-4.2 0-8.4 0-1.2 0-2.5c.1-9.4.1-9.4 3.3-12.6 7.3-.5 13.5.8 20.6 2.9q1.6.4 3.2.9c23.1 6.8 44.7 17.3 64.2 31.2.9.6.9.6 1.8 1.3 9.2 6.5 17.7 13.6 25.8 21.5 2.3 2.2 4.7 4.3 7.1 6.4 2.4 2 4.5 4 6.5 6.3q3.2 3.8 6.5 7.5c15.7 17.8 28 37.5 39.3 58.3.9 1.7.9 1.7 2 2.7.4-.8.4-.8.8-1.5 17.1-32.4 39.7-60.1 65.4-85.9q1.2-1.1 2.3-2.2c17.8-17.8 38.3-32.8 59.3-46.6q1.3-.8 2.6-1.7 1.1-.7 2.4-1.5c1-.7 1-.7 2.1-1.4 2.3-1.3 4.6-2.3 7.1-3.2-.3-21.8-2.2-43.5-10-64q-.4-1.1-.9-2.3c-4.1-10.6-8.7-20.3-15.1-29.7q-.9-1.4-1.9-2.7c-7-10.1-14.9-20.3-24.6-28-2.3-2-3.4-3.8-3.9-6.7.4-2.6.4-2.6 2.4-4.5 3.8-2.6 7.7-4.3 11.9-6q1.3-.5 2.7-1c29-11.1 60.2-15.5 91.1-15.4z" fill="#0c9994"/><path d="M62.8 298.8c5.9 0 11.2 1.5 16.8 3.1 1.6.4 1.6.4 3.2.9 23.1 6.8 44.7 17.3 64.2 31.2q.9.6 1.8 1.3c9.2 6.5 17.7 13.6 25.8 21.5 2.3 2.2 4.7 4.3 7.1 6.4 2.4 2 4.5 4 6.5 6.3q3.2 3.8 6.5 7.5c13.2 15 24.1 31.2 33.9 48.6 1.2 2.1 2.4 4 3.8 5.9 1.9 3 3.1 5 3.6 8.5-1.2 4.2-2.9 7.7-4.8 11.6-2.5 4.8-4.1 9.8-5.6 15q-.3 1.2-.7 2.5c-7.6 26-3.3 56 8.5 80.1q.5.9 1 1.8c1.9 6.7-2.1 13.2-5.1 19.1q-.7 1.4-1.5 2.9c-10.7 20.6-23.9 40-39.8 57q-1.7 1.9-3.3 3.9c-8.1 9.3-17 17.4-26.7 25.1q-1.3 1.1-2.6 2.2c-24.5 20.7-59.2 41-92.2 41.5-2.2-.7-2.2-.7-4-2.9-13.9-31 3.5-84.3 14.7-114 12-31 28.8-58.4 50.1-83.8-1.4-3.3-3.2-5.4-5.7-8-11.3-12.4-21.2-26.3-29.3-41q-.6-1.2-1.3-2.4c-14-25.3-23.3-52.1-28.7-80.6q-.2-1.1-.5-2.2c-2.7-14-2.8-28.1-2.8-42.4q0-1.4 0-2.9 0-4.2 0-8.4 0-1.2 0-2.5c.1-12.4.1-12.4 7.1-12.8zm366.9-165.1q4 .1 8.1 0c54.9 0 111 15.8 156.2 47.3a35.34 35.34 0 0 1 2.4 1.7c11.4 7.9 21.7 16.6 31.6 26.3q1.5 1.5 3.1 2.9c8.8 8.6 16.2 18 23.3 28q.8 1.1 1.6 2.2l1.5 2.1q.6.9 1.3 1.8c1.4 2.3 2.3 4.6 3.2 7q-1.3-.3-2.6-.6c-30.9-6.8-60.4-10.8-92.1-10.8q-1.8 0-3.6 0c-15 0-29.8.6-44.7 2.4q-1.7.2-3.5.4c-47 6.2-94.2 22.8-134.6 47.5-1.9 1.1-1.9 1.1-2.9 1.1q0-.9 0-1.7c-.5-20.9-2.5-41.7-10-61.3q-.4-1.1-.9-2.3c-4.1-10.6-8.7-20.3-15.1-29.7q-.9-1.4-1.9-2.7c-7-10.1-14.9-20.3-24.6-28-2.3-2-3.4-3.8-3.9-6.7.4-2.6.4-2.6 2.4-4.5 3.8-2.6 7.7-4.3 11.9-6q1.3-.5 2.7-1c29-11.1 60.2-15.5 91.1-15.4z" fill="#067274"/><path d="M601 283c3.5 2.7 4.9 4.1 5.6 8.5-.3 13.6-.3 13.6-3.6 19.5q-.7 1.2-1.3 2.5c-4 6.9-8.4 12.7-14.6 17.8-7.9 6.8-15.3 15.3-16.5 26.1-.4 13 4.6 20.1 11.9 30.2 9.9 13.6 13.2 25.7 11.5 42.4-.8 3.7-2.1 6.7-4 10-.6 1.2-.6 1.2-1.2 2.3-3.3 6.2-7.7 11.2-12.3 16.4-9.1 10.4-13.6 20.3-12.8 34.2 1 7.5 5.6 13.8 10.6 19.1 10.2 11.8 19.5 26.7 18.9 42.8-1.5 13.3-7.4 23.2-15.6 33.4-8.7 11.1-11 21.9-9.6 35.8 2.5 10.4 10.8 17.1 18.2 24.2 9.6 9.3 18.4 23.2 19.1 36.8q0 2.1 0 4.1a14.08 14.08 0 0 0 .1 2.1c0 4.5-.6 7.3-3.4 10.8-3.8 2.5-5.6 2.5-10 2-4.6-3.6-6.6-7.2-7.5-13q-.1-1.6-.3-3.2c-1.9-12.9-8.8-20.7-18-29.5-6.2-6-11.1-11.7-15.2-19.3q-.8-1.3-1.5-2.6c-5.6-10.7-5.5-25.5-2.4-37 2.8-8.7 7.5-16.1 12.9-23.4 6-8.1 12-16.2 11.4-26.7-1.4-8.6-5.9-14.8-11.4-21.3-13.6-16.2-19.9-30.4-18-52 2.6-12 10.3-21.9 18.3-30.9 7.3-8.4 13.4-16.6 13.3-28.2-1.7-8.1-6.1-14.3-11-20.8-10.2-13.7-14.7-25.9-13.6-43.1 2.7-16.8 15.2-29.7 27.1-41 5.4-5.1 8.8-10.2 10.4-17.6 1.1-4.3 2.2-7.2 5.5-10.4 3.1-1.6 5.5-1.4 9-1z" fill="#31bbb1"/><path d="M351 689c4.3 1.5 7.8 3.8 11.5 6.4 14.4 9.8 29.7 18.2 45.5 25.6q1.2.5 2.3 1.1c18.3 8.6 37.5 14.7 56.7 20.9-18.4 18.6-43.9 30.1-69 36q-1.1.3-2.3.5c-35.7 8.2-80.3 2.7-111.7-16.7-4.9-3.3-4.9-3.3-5.9-7.1q-.1-1.3-.1-2.7c4.6-4.1 10-6.8 15.4-9.6 23.4-12.6 41.6-28.7 55.6-51.4q1-1.5 2-3z" fill="#067174"/><path d="M462 291.5c3.3.8 4.9 2.9 7 5.5l1 1c1.2 15.2-2.4 25.8-12.3 37.5q-2.8 3.4-5.7 6.7c-7.6 8.9-11.5 16.3-11.3 28.2.8 9.1 6 14.7 12.1 21.1 9.9 10.4 14.8 21 14.6 35.5-.5 12.7-6.4 21.9-13.4 32q-1 1.4-2 2.9-1.7 2.5-3.5 4.9c-5.4 7.8-8.7 15.6-7.5 25.2 1.8 8.6 5.4 14.3 11.3 20.7 4.6 5.1 8.3 10.3 11.7 16.3q.7 1.1 1.3 2.2c4.7 9.3 4.1 21.7 1.8 31.6-2.6 7.2-6.5 13.1-11.1 19.2-8.6 11.8-16.2 22.9-15 38 2 11.2 8.3 17.6 16.5 24.9 9.3 8.3 16.8 17 17.8 29.8.1 6.6.2 11.5-3.3 17.3-3.1 2.6-4.5 3-8.6 2.9-3.8-1-5-1.8-7.4-4.9-.7-3.3-.7-3.3-.9-7.1-1.4-13.2-7.4-20-17-28.3-9.4-8.2-17.2-17.8-18.3-30.8-.5-19.8 3.6-32.6 15.1-48.9q.7-1 1.4-2.1 1.5-2.1 2.9-4.1c6.1-8.6 7.8-16.1 6.8-26.7-2.3-7.9-7.8-13.8-13.4-19.6-9.9-10.8-14.1-23.4-13.8-37.9.9-13.5 7.3-24.7 16-34.8 6.2-7.6 11.9-15.7 11.6-25.9-1.4-9.2-7.1-15.9-13.4-22.4-11.1-11.7-14.5-24.2-14.3-39.9.3-5.7 1.7-10.4 4.3-15.5l1.2-2.4c3.2-5.9 7.3-10.8 11.7-15.8 7.9-9.1 12.9-16.8 15.1-28.7 1.9-5.9 4.8-7.8 11-7.6z" fill="#31bbb1"/><path d="M703 739c1 3.1 1 4.9.1 8q-.4 1.1-.7 2.3-.4 1.2-.8 2.5l-.9 2.5c-5.3 15.8-13.4 30.5-24.9 42.7-1.8 1.9-1.8 1.9-2.8 4q-1 0-2 0-.5 1.5-1 3c-3.5 3.2-7.3 6.1-11 9q-1.3 1-2.5 2c-19.7 15-42.4 23.5-66.4 28.5q-2.5.6-5.1 1.2c-6.3 1.5-12.7 1.5-19.2 1.5q-1.4.1-2.8.1c-13-.1-13-.1-17.9-3.7-2.6-3.7-2.4-7.3-2.1-11.6 3.7-14.1 15.2-23.4 25.8-32.6 12.2-10.5 23.6-21.9 33.2-34.8 3.4-4.5 3.4-4.5 6.8-5.1q1.8-.2 3.7-.4 2-.2 4.1-.4 1.1-.2 2.2-.3c28.2-3 57.7-7.8 84.2-18.4z" fill="#067174"/><path d="M701 302c2.7 5.3 2 12.6.4 18.2-1.9 5.1-4.1 10.1-6.2 15C681 368.5 671.3 404.1 667 440c-.2 1.2-.2 1.2-.3 2.4-3.3 25.3-2.3 51.3.3 76.6q.1 1.4.3 2.8c2.3 22.5 8.1 44.2 15.2 65.6q.3 1 .7 2c3.2 9.9 7.2 19.2 11.8 28.6q.7 1.4 1.4 2.9c6 12.7 12.8 24.7 20.6 36.5 2.3 3.6 2.3 6.3 2 10.6-1 1.9-1 1.9-3 3-5 .8-7.8.5-12-2.4-35.2-29.6-53.5-89-60-132.6q-.3-1.7-.5-3.6c-5-33.3-5.2-67-.5-100.4q.2-1.3.3-2.5C649 388 662.2 334.3 692 303c3-1.5 5.7-1.1 9-1z" fill="#046e70"/><path d="M329.2 371.7c5.8.5 9 3.2 12.8 7.4 9.9 12.3 14.4 25.2 13.2 40.9-1.5 13.2-9.8 22.4-18.1 32.1-4.3 5-7.9 10.2-11.1 15.9q-1 1.6-1.9 3.3c-2.2 7.5-2.5 15.7.8 23 2.7 4.5 6.1 8.2 9.7 12 12.7 14.2 20 30.1 19.6 49.2-1 15-7.9 29.5-19.2 39.5-4.2 3.1-8.1 5.2-13.3 5.6-3.7-.6-3.7-.6-6.1-2.5-2.7-3.5-3.3-5.7-2.6-10.1 2.1-2.9 4.6-5.4 7-8 8.6-9.8 12.4-19.6 12.3-32.6-.9-11-7.9-19.5-14.7-27.7-11-13.5-18.1-25.8-16.8-43.7 2-17.3 13.7-30.8 25-43.2 6.1-6.9 8.7-14.3 8.6-23.5-1.2-9.6-7.3-16.9-13.7-23.8-1.7-2.5-1.7-2.5-1.6-5.1 1.2-3.3 3.3-5.1 5.9-7.4 1-1 1-1 4.2-1.3z" fill="#31bbb1"/><path d="M815.8 391.7c6.7 4.9 10.7 10.5 12.8 18.6 1.6 11 1.4 21.6-5.1 30.9-6.5 8-14.8 12.4-24.8 14.2-8.9.8-16.9-4-24-9-6.3-5.6-9.5-13.5-10.1-21.9-.5-10.7.8-18.3 7.7-26.7 12.1-13 28.1-15.4 43.5-6.1z" fill="#006567"/><path d="M881.7 492.4q1.2 0 2.3 0 3.8 0 7.6.1 2.6 0 5.2 0 6.8.1 13.7.2 7 0 14 .1 13.8 0 27.5.2.1 4.6.1 9.2.1 1.3.1 2.6c0 4.5 0 8.1-2.2 12.2q-12.4-.1-24.8-.3-5.8-.1-11.6-.1-5.5-.1-11.1-.2-2.1 0-4.2 0-3 0-6-.1-1.7 0-3.4 0c-2.8-.3-4.5-.9-6.9-2.3q-2-.5-3.9-.8c-4.3-1.1-6.6-2.5-9.1-6.2-.7-3.2-.9-5.9 0-9 3.8-4.8 6.8-5.7 12.7-5.6z" fill="#046e70"/><path d="M61.6 298.9l2.4.1q-1 .3-1.9.7c-2.4 1.2-2.4 1.2-2.9 3.9q-.1 1.2-.2 2.4 1 0 2 0v30q-1.5 0-3 0-.5 3-1 6-.5 0-1 0-.1-7.8-.1-15.5 0-2.7-.1-5.3 0-3.8 0-7.6 0-1.2 0-2.4c0-4.2.3-7.5 2.2-11.2 1-1 1-1 3.6-1.1z" fill="#066565"/><path d="M950 493q1 0 2 0 .1 4.6.1 9.2.1 1.3.1 2.6 0 1.3 0 2.6 0 1.1 0 2.3c-.2 2.3-.2 2.3-2.2 7.3l-62-1q0-.5 0-1l61-1v-10q.2-3.1.5-6.1l.3-2.8q.1-1.1.2-2.1z" fill="#046466"/></svg>