<svg xmlns="http://www.w3.org/2000/svg" width="1024" height="1024" xmlns:v="https://vecta.io/nano"><g fill="#00adaa"><path d="M341.8 127.8l3.3-.1c26.2-.2 51.9.5 77.9 4.3q1 .1 2 .3c51.4 7.4 101.9 21.7 148.1 45.7q3 1.6 6 3.1c23.1 11.8 44.4 26.7 63.9 43.9q1.2 1 2.4 2.1c12.2 10.6 23.8 22.1 33.6 34.9q1.4 1.8 2.9 3.6 4.1 5.2 8.1 10.4.9 1.1 1.8 2.3c1.2 1.7 1.2 1.7 1.2 3.7q1.9.4 3.8.8c5.6 1.2 10.9 3.1 16.2 5.1q1.5.6 3.1 1.2c43 16.5 82.6 42.9 116.6 73.8q3 2.7 6.1 5.4c9.2 8 18 16.4 26.6 25q1.1 1.1 2.2 2.2c4.1 4.1 8 8.2 11.7 12.6 2.1 2.4 4.3 4.7 6.5 7.1 5.7 6 11.1 12.2 16.2 18.8q1.6 2 3.2 4c14.3 17.9 27.9 37.4 35.8 59q.5 1.2 1 2.4c5.9 16.5.9 35.3-6.2 50.7q-1.4 3-2.8 5.9-.9 1.8-1.7 3.6c-13.9 27.6-34.6 51.7-55.3 74.4q-.7.8-1.4 1.6c-7.5 8.1-14.8 16.1-23.2 23.3q-2.8 2.5-5.5 5c-7.4 7.1-15 13.5-23.1 19.7q-2.7 2.1-5.3 4.3c-33.6 27.8-82.2 59.4-125.7 67.5-2.2.5-2.2.5-3.7 3.7q-1.1 2.1-2.1 4.2c-10.3 20.3-22.2 41.2-38 57.7q-1.5 1.8-3.1 3.6c-20.7 23.7-50.1 49.8-82.8 52.7-8.6.3-15.7-1.5-22.6-6.7-4.2-4.3-4.7-7.5-4.7-13.5 1.4-17.3 17.4-34.6 27.2-48 7.8-10.7 14.8-22 21.8-33.2q1.6-2.5 3.2-4.9c2.8-.4 5.4-.6 8.2-.7q1.2-.1 2.5-.1 3.9-.2 7.8-.3 3.9-.2 7.8-.4 2.4-.1 4.9-.2c4 0 4 0 7.8-1.3q-.3-.9-.6-1.8C596 676.9 596 676.9 596 637l-2.3.8q-1.6.6-3.2 1.1-1.5.6-3.1 1.1c-17.8 5.1-38 3-54.4-5-.4 9.8.8 19.2 2.2 28.8.2 1.2.2 1.2.3 2.4 1.8 12 4 23.9 6.8 35.8q1.2 5.1 2.3 10.3c3.7 16.3 7.8 32.4 13.3 48.2q.4 1.2.8 2.4.4 1.1.8 2.2c.5 1.9.5 1.9.5 4.9-5.4.2-10.7-.1-16.1-.7q-1.1-.1-2.1-.2c-5.2-.6-10.1-1.6-15.2-2.8-14.7-4-14.7-4-28.8-1-3.7 2.9-6.9 6.2-9.9 9.7-3.1 3.3-6.5 6-10 8.7q-1 .8-2 1.7C451.1 805.3 423 816.8 392 823q-1.5.3-3 .6c-17 3.5-33.8 3.8-51 3.8q-1.6 0-3.3.1c-28.4.1-28.4.1-36.3-5.9-2.4-2.6-3.7-4.1-4.4-7.6.3-5.8 1.5-8.3 5.7-12.3q.7-.6 1.5-1.4c4.3-4 8.9-7.7 13.7-11.3 4.5-3.5 8.7-7.1 12.9-11 1.9-1.7 3.9-3.4 5.9-5.1C345 763 355.1 752.1 364 740c.7-.9.7-.9 1.4-1.9q2-2.7 4-5.5.6-.9 1.3-1.7c5-6.5 5-6.5 7.3-13.9-2.6-1.7-5.1-3.2-7.8-4.8-7.1-4.2-14-8.7-20.8-13.5l-2.5-1.7q-2.4-1.6-4.7-3.4c-2.1-1.6-2.1-1.6-4.4-2.9-5.6-3.7-6.9-8.1-8.2-14.4-.7-3.5-1.3-7-1.8-10.6q-.6-2.8-1.1-5.6-1.4-8-2.7-16.1-.3-1.9-.7-3.9L320 617q-.3-2.3-.6-4.6-1-7.7-2-15.4-.2-1.2-.3-2.4-1-7.2-1.8-14.3-.4-3.3-.9-6.6c-1.8-14.1-1.7-28.4-1.7-42.6q.1-5.4 0-10.7c-.1-47.2 4.4-94.5 13.9-140.8q.2-1 .4-2.1 1.4-6.8 3-13.5.4-1.8.8-3.6c2.1-8.3 5.3-12.4 12.2-17.4q1.2-.9 2.4-1.9 3.6-2.8 7.2-5.5c1.3-.9 1.3-.9 2.6-1.9 18.3-13.6 18.3-13.6 26.8-17.7-5.8-37.2-18.4-75.4-41-106q-1.1-1.5-2.3-3.1c-12-16.2-25.7-31.4-41.1-44.5-3.8-3.4-6.4-6.6-6.9-11.7.5-5.6 2.9-8.4 6.9-12.3 13-10.1 28.3-10.5 44.2-10.6z"/><path d="M556 268q-.4 1.4-.8 2.9c-13 46.4-21.4 93-26.9 140.9q-.6 4.7-1.2 9.4c-4.1 35.5-5.6 71.1-6.1 106.8q8.3 1.4 16.6 2.8 1.2.2 2.5.4c9.8 1.7 19.6 3.2 29.5 4.4 15.3 1.9 29.4 5.6 44 10.4a15.87 15.87 0 0 1 2 .7c25.1 8.3 25.1 8.3 31.5 18.7 3.4 13.2-2 26.7-8.2 38.4-10.9 18.4-27.9 29-47.9 35.2-1.7.5-1.7.5-3.4 1.1-18.1 4.7-37.9 3.1-54.6-5.1-.4 9.8.8 19.2 2.2 28.8.2 1.2.2 1.2.3 2.4 1.8 12 4 23.9 6.8 35.8q1.2 5.1 2.3 10.3c3.7 16.3 7.8 32.4 13.3 48.2q.4 1.2.8 2.4.4 1.1.8 2.2c.5 1.9.5 1.9.5 4.9-5.4.2-10.7-.1-16.1-.7l-2.1-.2c-5.2-.6-10.1-1.6-15.2-2.8-14.7-4-14.7-4-28.8-1-3.7 2.9-6.9 6.2-9.9 9.7-3.1 3.3-6.5 6-10 8.7q-1 .8-2 1.7C451.1 805.3 423 816.8 392 823q-1.5.3-3 .6c-17 3.5-33.8 3.8-51 3.8q-1.6 0-3.3.1c-28.4.1-28.4.1-36.3-5.9-2.4-2.6-3.7-4.1-4.4-7.6.3-5.8 1.5-8.3 5.7-12.3q.7-.6 1.5-1.4c4.3-4 8.9-7.7 13.7-11.3 4.5-3.5 8.7-7.1 12.9-11 1.9-1.7 3.9-3.4 5.9-5.1C345 763 355.1 752.1 364 740c.7-.9.7-.9 1.4-1.9q2-2.7 4-5.5.6-.9 1.3-1.7c5-6.5 5-6.5 7.3-13.9-2.6-1.7-5.1-3.2-7.8-4.8-7.1-4.2-14-8.7-20.8-13.5q-1.2-.8-2.5-1.7-2.4-1.6-4.7-3.4c-2.1-1.6-2.1-1.6-4.4-2.9-5.6-3.7-6.9-8.1-8.2-14.4-.7-3.5-1.3-7-1.9-10.6q-.5-2.8-1-5.6-1.4-8-2.7-16.1-.3-1.9-.7-3.9L320 617q-.3-2.3-.6-4.6-1-7.7-2-15.4-.2-1.2-.3-2.4-1-7.2-1.8-14.3-.4-3.3-.9-6.6c-1.8-14.1-1.7-28.4-1.7-42.6q.1-5.4 0-10.7c-.1-47.2 4.4-94.5 13.9-140.8q.2-1 .4-2.1 1.4-6.8 3-13.5.4-1.8.8-3.6c2.1-8.3 5.3-12.4 12.2-17.4 1.2-.9 1.2-.9 2.4-1.9q3.6-2.8 7.2-5.5 1.3-.9 2.7-1.9c32.5-24.1 32.5-24.1 47.7-27.7q2.5-1.2 5-2.4c12.6-6.3 25.8-10.9 39-15.6q1.6-.6 3.2-1.2 1.5-.5 3.1-1 1.4-.5 2.8-1c2.9-.8 5.8-1.2 8.8-1.5 3.5-.5 6.8-1.4 10.2-2.3 1.2-.2 1.2-.2 2.3-.5q3.6-1 7.2-1.9c23.6-6 46.9-10.8 71.4-10.6z"/></g><path d="M79.1 314.3q1.2.4 2.4.8c16.1 5.8 30.7 14.8 44.5 24.9l2.1 1.5c8.8 6.4 17 13.1 24.9 20.5q2.1 1.9 4.3 3.7c3.1 2.7 6 5.6 8.9 8.6 1.8 1.7 3.5 3.2 5.4 4.7 6 5.2 11.2 11.2 16.6 17.1q2.5 2.7 5.1 5.4c6.2 6.6 12.1 13.4 17.7 20.5q.8 1 1.6 2c7.7 9.8 15.2 19.7 22.4 30q3.9-4.9 7.8-9.9c7.4-9.5 15-18.9 23.1-27.8q2.7-3 5.4-6.1c5.4-6.2 11.1-12.2 16.7-18.2 1.4 2.8.7 4.1-.1 7q-.4 1.6-.7 3.2-.5 1.7-.9 3.4c-17.4 73.5-19.1 157 .3 230.3 1.5 5.8 1.5 5.8.4 9.1a184.02 184.02 0 0 1-15.8-17.3c-2-2.4-3.9-4.6-6-6.9-9.9-11.1-18.1-23.4-26-36q-2.6-3.9-5.2-7.8-.7 1.2-1.5 2.4c-10.9 17.4-23.3 33.9-37.2 49q-1.9 2.1-3.7 4.3c-5.5 6.3-11.3 12.2-17.2 18.1q-.8.8-1.6 1.6C165 660.3 157 667.5 148 674q-2.4 2-4.7 3.9C124.4 693 90.5 718.8 65 716c-3.2-.9-3.8-1.7-5.6-4.6-1.6-3.9-1.8-6.6-1.8-10.8q0-1-.1-2.1 0-3.5.1-6.9 0-1.1 0-2.3c.3-53.5 22.5-107.9 57.2-148.3 5.2-6.2 10.2-12.6 15.2-19q.9-.9 1.8-1.9c1.9-3.3 1.8-6.5 1.2-10.1-1.3-2.5-2.5-4.3-4.2-6.5q-.7-.9-1.3-1.8c-4.1-5.3-8.3-10.4-12.5-15.6-11.2-13.7-20.7-27.5-29-43.1q-.6-1-1.1-2.1c-17.7-32.7-27.8-74.5-28.3-111.5q-.1-1.6-.1-3.2c0-4.5 0-7.4 2.3-11.4 6-5 13.6-2.8 20.3-.5zm262.7-186.5l3.3-.1c26.2-.2 51.9.5 77.9 4.3q1 .1 2 .3c51.4 7.4 101.9 21.7 148.1 45.7q3 1.6 6 3.1c23.1 11.8 44.4 26.7 63.9 43.9q1.2 1 2.4 2.1c12.2 10.6 23.7 22.1 33.6 34.9q1.5 1.8 2.9 3.6 1.5 1.9 3 3.8.7.8 1.5 1.7c2.5 3.2 4.2 6.1 5.6 9.9q-1-.2-2.1-.4-4.8-1-9.6-1.9-1.6-.3-3.2-.7c-36.2-7-74.3-11.6-111.1-10q-2 .1-4 .2c-32.7 1.2-63.6 7.2-95.1 16.1-2.9.7-2.9.7-6 1.1-5.7.9-11 2.7-16.4 4.5q-1.8.6-3.6 1.2c-11.6 4-22.8 8.7-33.9 13.9q-1.1.5-2.2 1c-2 1-2 1-3.8 3q0-1 0-2l-17 9c-2.3-2.3-2.4-3.3-3-6.5-.3-1.4-.3-1.4-.5-2.9l-.6-3.1c-6.6-32.9-18.9-66.3-38.9-93.5q-1.1-1.5-2.3-3.1c-12-16.2-25.7-31.4-41.1-44.5-3.8-3.4-6.4-6.6-6.9-11.6.5-5.7 2.9-8.5 6.9-12.4 13-10.1 28.3-10.5 44.2-10.6z" fill="#009899"/><path d="M460 285q-.5 2.3-1.1 4.6-.5 2.2-1 4.4-1.6 7-3.4 13.9C438 372.7 429.7 439.8 429 506.7q0 3.5-.1 7c-1.3 75.2 9.7 149.8 29.1 222.3q.6 2.2 1.2 4.4 1.4 5.3 2.8 10.6c-11-2.1-21.2-6.5-31.6-10.7q-4.8-1.8-9.6-3.6-2.9-1.1-5.7-2.2-1.3-.5-2.6-.9c-3.4-1.4-5.8-2.5-7.8-5.7-1.1-2.6-1.9-5.2-2.7-7.9q-.4-1.4-.8-2.8-1.3-4.5-2.5-9-.5-1.7-.9-3.4-.9-3.6-1.9-7.2-.9-3.5-1.8-7c-7-26.9-11.3-54.1-14.3-81.6-.2-1-.2-1-.3-2.1-.6-5.3-1-10.6-1.5-15.9q-.1-1.4-.3-2.9c-1.8-21.1-2-42.1-2-63.2q.1-7 0-14.1c0-32.7 1.6-64.8 5.6-97.2q.2-1.9.4-3.9c3.7-30.3 8.6-60.1 16.3-89.7q.4-1.8.9-3.6c2.5-9.7 2.5-9.7 6.3-12.1 1.8-.9 1.8-.9 3.7-1.6q1.1-.5 2.1-.9c2.3-1 4.7-1.9 7-2.8q2.5-1 5.1-2.1c8.6-3.4 17.3-6.4 26-9.4q1.1-.4 2.3-.8c3-1 5.4-1.7 8.6-1.7z" fill="#b3e3d5"/><path d="M401 307c1.1 3.4.9 4.2-.2 7.5q-.4 1.5-.8 2.9-.5 1.6-.9 3.2c-7.9 28.2-12.4 56.9-16 86q-.2 1.7-.4 3.6c-1.5 12.1-2.8 24.2-3.8 36.4-.1 1.3-.1 1.3-.3 2.7a586.8 586.8 0 0 0-1.8 45.9v2.7q0 7.1 0 14.1 0 5.7-.1 11.4c-.2 37.1 2.3 73.8 7.3 110.6q.1 1 .3 2.1c4.2 31.3 12.3 61.5 20.7 91.9-5.2-.6-9.2-2.3-13.9-4.5-1.1-.5-1.1-.5-2.2-1.1-19.1-9.3-42.7-21.3-56.9-37.4-.8-2.8-1.4-5.5-1.9-8.3q-.2-1.3-.5-2.5-.8-4.1-1.5-8.2-.6-2.8-1.1-5.7c-2.7-14.4-5.1-28.8-7-43.3q-.3-2.3-.6-4.6-1-7.7-2-15.4-.2-1.2-.3-2.4-1-7.2-1.8-14.3-.4-3.3-.9-6.6c-1.8-14.1-1.7-28.4-1.7-42.6q.1-5.4 0-10.7c-.1-47.2 4.4-94.5 13.9-140.8l.4-2.1q1.4-6.8 3-13.5.4-1.8.8-3.6c2.1-8.3 5.3-12.4 12.2-17.4 1.2-.9 1.2-.9 2.4-1.9q3.6-2.8 7.2-5.5 1.3-.9 2.7-1.9C391.4 307 391.4 307 401 307z" fill="#00adaa"/><path d="M625 270c-2.1 8.5-4.4 17-6.8 25.5-6.7 24.3-12.6 48.7-17.2 73.5q-.2 1.1-.4 2.3c-4.3 23.2-7.8 46.3-10.2 69.7q-.4 4.2-.9 8.4c-1.2 10.4-2 20.9-2.6 31.4q0 1.2-.1 2.4c-.9 18.3-1.4 36.5-1.8 54.8-8.7-.6-17.2-1.6-25.8-2.8-1.9-.3-1.9-.3-3.8-.5q-12.3-1.8-24.7-3.8-1.4-.3-2.9-.5c-1.3-.2-1.3-.2-2.7-.5q-1.1-.2-2.3-.4-.9-.2-1.8-.5c-1.5-3.1-1.1-6.3-1-9.6q0-1.2.1-2.4 0-3.9.1-7.9.1-1.3.1-2.7c1.6-62.7 8.1-126.1 21.7-187.4q.4-2 .9-4.1c9.6-43.4 9.6-43.4 13.1-46.9 22.4-3.8 46.7-.8 69 2z" fill="#b2e3d4"/><path d="M523.6 528.4l2.6.5q2.8.4 5.6.9 7.3 1.3 14.5 2.5 1.4.2 2.9.4 10.4 1.7 20.9 3c15.1 1.9 29.1 5.5 43.5 10.3q1 .3 2 .7c25.1 8.3 25.1 8.3 31.5 18.7 3.4 13.2-2 26.7-8.2 38.4-10.9 18.4-27.9 29-47.9 35.2q-1.7.5-3.4 1.1c-18 4.6-38.3 3.4-54.7-5.3-4.9-3-8.9-6.7-12.9-10.8q-1.1-1.1-2.3-2.2c-17.9-18.2-32.3-53.5-33-79.1.4-4.7 1-7.3 4.2-10.8 10.6-6.4 23-5.5 34.7-3.5z" fill="#008f91"/><path d="M379 717c5.2 2 10.3 4.5 15.3 6.9 4.6 2.2 9.2 4.1 14 6 3 1.2 6 2.5 9.1 3.9 13.3 5.8 26.6 11.2 40.5 15.5 2 .7 4 1.4 5.9 2.2 5.3 2 10.7 3.5 16.1 5.1a50.93 50.93 0 0 1 3.1.9c6.3 1.8 12.5 3.3 19 4.5q0 1 0 2a145.18 145.18 0 0 1-6.1 4.9c-4.5 3.4-8.8 6.8-13 10.6-26.4 23.2-56.6 36.6-90.9 43.5l-3 .6c-17 3.5-33.8 3.8-51 3.8q-1.6 0-3.3.1c-28.4.1-28.4.1-36.3-5.9-2.4-2.6-3.7-4.1-4.4-7.6.3-5.8 1.5-8.3 5.7-12.3q.7-.6 1.5-1.4c4.3-4 8.9-7.7 13.7-11.3 4.5-3.5 8.7-7.1 12.9-11 1.9-1.7 3.9-3.4 5.9-5.1C345 763 355.1 752.1 364 740q.7-.9 1.4-1.8c5-6.8 9.8-13.6 13.6-21.2z" fill="#009798"/><path d="M818.8 416.1c11.3 9.5 19.1 22.4 22.2 36.9.9 12.3 1.1 24.6-4 36q-.6 1.4-1.3 2.9c-3.5 7-8.2 12.6-13.7 18.1q-1 1-1.9 2c-10.7 10.1-26 15-40.6 15.5-17.7-.7-33.4-8-45.7-20.7-11.8-13.9-17.2-30.7-16-48.8 1.6-15.6 9.5-30.6 21.2-41 24.6-19.4 54.9-19.4 79.8-.9z" fill="#fca401"/><path d="M333 352c1.7 3.3-.1 6.6-1.1 10.1-9.9 36.3-14.4 74.4-16.9 111.9q-.1 1-.1 2c-1.1 15.2-1.1 30.4-1.1 45.6q0 4.4 0 8.8c-.1 22.8-.1 22.8 1.9 45.5q.5 3.3.9 6.7.8 7 1.7 14.1.2 1.2.3 2.5c3.1 23.9 6.9 47.7 11.4 71.4.3 1.5.3 1.5.5 2.9q.6 3.1 1.3 6.1.1 1.2.2 2.4-1 1-2 2c-7.2-5.6-13.9-11.5-20.6-17.7-2.1-2-4.3-3.9-6.5-5.9-1.2-1-1.2-1-2.3-2q-2.5-2.3-5.1-4.6c-7-6.3-9.5-11.6-11.3-20.7q-.4-1.9-.8-3.8c-3.4-15.6-5.5-31.5-7.4-47.3q-.1-1-.3-2.1c-4.5-38.4-3.9-77.3.1-115.7q.3-3.2.6-6.4c1.6-15.5 4-30.7 7.2-45.9q.2-1.1.4-2.2.6-3 1.3-6 .4-1.7.8-3.5c1.5-5.2 3.5-9.2 7.4-13q1-1 2.1-2.1 1-1 2.1-2 1-1 2.1-2.1c4-4 8.1-7.7 12.4-11.4 2.3-2 4.5-4.1 6.7-6.1 4.5-4.1 9.2-7.8 14.1-11.5z" fill="#b3e3d4"/><path d="M688 757c-.6 3.8-1.7 6.7-3.6 10-.8 1.5-.8 1.5-1.7 2.9-.8 1.5-.8 1.5-1.7 3q-.9 1.6-1.8 3.2c-23.8 41.3-59 86-106.8 99.6-10.3 2.4-20 2.4-29.4-2.7-4-2.6-6.9-5.2-8-10-1-20.3 15.7-38.4 27-53.9 7.8-10.7 14.8-22 21.8-33.2q1.6-2.5 3.2-4.9c3-.4 5.9-.6 8.9-.7q1.4-.1 2.7-.2 4.3-.1 8.5-.3 2.9-.1 5.8-.2 7-.3 14.1-.6.5-1 1-2c2.4-.3 2.4-.3 5.7-.4 15.4-.9 30.5-4.5 45.4-8q1.3-.3 2.7-.6 1.1-.3 2.3-.6c1.9-.4 1.9-.4 3.9-.4z" fill="#009799"/><path d="M288 392c1.4 2.8.7 4.1-.1 7q-.4 1.6-.7 3.2-.5 1.7-.9 3.4c-17.4 73.5-19.1 157 .3 230.3 1.5 5.8 1.5 5.8.4 9.1a184.02 184.02 0 0 1-15.8-17.3c-2-2.4-3.9-4.6-6-6.9-28.7-32.1-52.2-72.6-50.5-116.6 1.3-15.5 8.9-29.8 16.3-43.2q.8-1.5 1.6-3c1.4-2 1.4-2 4.4-3q1.1-2.5 2.2-5.1c1.3-3.1 3.3-5.5 5.4-8.2q.7-.8 1.4-1.6 2-2.6 4-5.1l2.3-2.9c4.4-5.4 8.9-10.7 13.6-15.8q2.7-3 5.3-6.1c5.5-6.2 11.2-12.2 16.8-18.2z" fill="#00adaa"/><path d="M532 634q1.7.6 3.5 1.3 2.4.8 4.7 1.6 1.1.5 2.3.9 1.1.4 2.3.8 1 .4 2.1.7c5.9 1.9 11.6 1.9 17.7 1.9q1.5 0 3 0c6.7-.1 12.9-.6 19.4-2.2q2.6-.6 5.2-1.1c1.9-.5 1.9-.5 3.8-.9q.6 3.5 1.3 7 .2 1.1.4 2.3 1.1 6.5 2.1 13c6 37.5 15.8 73.6 27.2 109.7-3.8 1.3-7.6 1.4-11.6 1.6q-1.3 0-2.7.1c-17.6.7-35.1.4-52.7.3-11.5-36.5-20.7-73-26.3-110.9q-.3-1.6-.5-3.4c-1.1-7.6-1.4-15-1.2-22.7z" fill="#b3e3d4"/><path d="M798.3 433.3c8 5.5 13.2 12.2 16.3 21.6 2.1 11.3.4 22.7-6.1 32.2-5.8 7.3-13.4 12.1-22.5 13.9-11.4 1-21.2-.9-30.2-8.3-8.3-7.9-11.9-17.4-12.3-28.8.4-10.6 4-19.3 11.5-26.9 12.7-10.6 28.8-12.2 43.3-3.8z" fill="#014f60"/><path d="M927 471c10 9.3 16 26.6 17.4 40 .4 10-1.4 19.5-4.4 29q-1 1-2 2 .5-2.5 1-5-1.7-.1-3.4-.3a845.87 845.87 0 0 1-32-3.6l-3.9-.4q-1.7-.3-3.6-.5-1.6-.2-3.2-.4c-4.1-1.1-6.8-3.2-9.2-6.7-1.4-4.4-1.2-7.2.9-11.3 4.2-4.9 9.1-6.2 15.3-7.2q1.9-.3 3.9-.6 2.1-.3 4.1-.6 2.1-.4 4.1-.7c17.8-2.8 17.8-2.8 23.4-2.8a23.48 23.48 0 0 0 2.7.1q.9 0 1.9 0c-2.7-8.6-6-16.4-10.4-24.2-2.6-4.6-2.6-4.6-2.6-6.8z" fill="#018f91"/></svg>