<svg xmlns="http://www.w3.org/2000/svg" width="1024" height="1024" xmlns:v="https://vecta.io/nano"><path d="M277.8 50.3c11.1 5.6 20.5 13.9 29.6 22.3q1 .9 2 1.9c4.5 4.2 8.6 8.8 12.6 13.5q1.5 1.7 3 3.4C377.1 150 414.9 226.1 426 304q.2 1.4.4 2.9A335.6 335.6 0 0 1 430 347c1.2-.4 1.2-.4 2.4-.9 23.3-7.2 49.9-6.5 74-6.5q4.1 0 8.2 0c20.1-.2 39.5 1.3 59.4 4.4q1.9.3 3.8.6 4.6.7 9.2 1.4c0-1.1 0-1.1-.1-2.3-.1-9.1.8-18 1.8-27 .2-1.2.2-1.2.3-2.4 9.9-85.7 50.2-167.2 110-229.3l1.8-1.8c15.1-15.8 35.8-36.9 59-37.6h2.4c1.1-.1 1.1-.1 2.3-.1 8.5.2 15 3 21.3 8.8 15.5 18.7 16.8 45 16.6 68.2q0 1.4 0 2.9c0 18.8-1.6 37.1-4.4 55.6q-.3 1.8-.5 3.7C792 221.5 780.8 257.8 766 292q-.6 1.3-1.2 2.7c-16.4 38-38.8 78.2-68.8 107.3 1.4 2.9 3 5.6 4.9 8.2C728.2 450 739.2 494.9 751 541q.3 1.1.6 2.2 1.8 7 3.5 14 .5 1.7.9 3.5.4 1.6.8 3.2c.4 1.4.4 1.4.7 2.8.5 2.3.5 2.3.5 5.3q.8 0 1.7 0 8.6-.1 17.1-.1 3.2 0 6.4-.1 4.7 0 9.3 0h2.8c6.3 0 11.9.2 17.1 4 2.1 3 2.1 4.6 1.6 8.2-2.3 4.6-2.3 4.6-5 6q-2.3.1-4.6.1-1.5 0-2.9 0-1.6 0-3.2 0-1.6 0-3.2 0-5.1 0-10.2 0-3.5 0-6.9-.1-8.5 0-17 0v3.4c.1 7.6.1 15.1-1 22.7q-.1 1-.3 2-.3 2.5-.7 4.9c8.7 3.1 17.6 5.1 26.6 7.2 18.7 4.5 18.7 4.5 23.4 11.8a18 18 0 0 1 0 8c-2.1 2.5-2.1 2.5-5 4-4.8.3-8.8-.3-13.5-1.6q-1.8-.5-3.6-1-1.9-.6-3.8-1.1-3-.9-5.9-1.7-2.9-.8-5.7-1.6c-6.5-1.8-13-3.4-19.5-5q-.2.8-.4 1.6c-2.3 8.8-6.4 16.5-10.6 24.4q-.5.9-1 1.9c-10.1 19.2-26.7 40.2-45 52.1q-1.6 1.2-3.3 2.4c-51.9 39.4-119.8 48.9-183.3 48.8q-1.5 0-3.2 0c-15.5 0-30.8-.2-46.2-2.2q-1.6-.2-3.2-.4c-8-1-15.9-2.3-23.8-3.6q-1.6-.3-3.2-.5c-42.7-7.5-87.1-22.9-118.4-54.1q-2-2-4.2-4c-18.6-17.7-34.1-42-42.2-66.4-6.8 1.3-13.5 2.8-20.2 4.8q-1.6.4-3.3.9-3.3 1-6.5 2c-6.2 1.8-11.5 2.8-18 2.3-2.6-1.6-2.6-1.6-4-4-.7-3.8-.2-5.7 1.5-9.1 5.8-6.7 14.8-8.3 22.9-10.5 1.7-.5 1.7-.5 3.3-.9 6.1-1.7 12.1-3.2 18.3-4.5q-.1-1.1-.3-2.3-.6-5.1-1.2-10.3-.2-1.7-.4-3.5-.2-1.8-.4-3.5-.2-1.6-.4-3.2c-.3-3.4-.3-6.8-.3-10.2q-2 .1-4 .1-7.2.3-14.5.5-3.2.1-6.3.2-4.6.2-9.1.3-1.4 0-2.8.1c-4.9.1-8.3.1-12.3-3.2-1.5-2.9-1.4-4.8-1-8 2.1-3.6 3.3-5.4 7.3-6.8 2.6-.5 5.1-.9 7.7-1.2 1.8-.3 1.8-.3 3.7-.5 4.2-.5 8.3-.6 12.5-.6q1.1 0 2.3 0 3.5 0 7 0 2.4 0 4.8.1 5.9 0 11.7 0 .2-1.9.3-3.8c.7-5.6 2-10.9 3.5-16.4l6.4-26.9c1.5-7 3.4-14 5.3-20.9q.8-2.9 1.5-5.8c8.3-30.6 17.4-59.7 37-85.2q1.8-2.4 3.6-4.9 1.2-1.5 2.4-3.1c-1.3-2.9-2.7-4.9-5.1-7.1-3.8-3.7-7.2-7.8-10.5-12q-2.3-2.8-4.7-5.6c-11.8-13.6-21.8-28.7-30.7-44.3q-.6-1-1.2-2.1c-17.9-31.4-31.3-64-40.8-98.9l-.8-3.1C215.7 184.7 202.3 113.2 223 68c2.1-3.6 4.4-6.8 7-10l2.2-3.2c13.1-12.9 30-11.5 45.6-4.5z" fill="#77a59e"/><path d="M312 776c7.1 5.2 7.1 5.2 10.1 7.8 8 6.7 16.9 11.9 25.9 17.2.9.6.9.6 1.9 1.1C385 822.8 429 830.9 469 835c1.2.1 1.2.1 2.5.3 7.2.7 14.4.9 21.6.9h3.7q6 0 12 .1h2c20.2 0 40.2-.2 60.2-3.3q1.7-.3 3.5-.5c15.4-2.5 30.5-5.9 45.5-10.5q1.3-.4 2.7-.8c27.2-8.4 51.4-20.6 73.5-38.5 3.2-2.5 6.3-4.7 9.8-6.7 4.8 7.5 8.6 15.2 12.2 23.3q.4.9.8 1.9c16.2 36.5 27.2 74.2 37 112.8-31 25.3-69.4 41.4-107 54q-1.6.5-3.2 1.1c-35.5 11.9-73.5 19-110.9 19.1q-1.1 0-2.2 0-5.7 0-11.3 0-4.6 0-9.2.1c-83.6.6-169.4-19.9-239.3-67.3q-1-.7-2-1.3c-6.1-4.3-6.1-4.3-7.9-7.7.3-2.7.8-5 1.5-7.7q.3-1.1.6-2.3.9-3.7 2-7.5.7-2.6 1.4-5.3c10.2-38.1 22.7-79.5 43.5-113.2z" fill="#76a49d"/><path d="M696 720c2.2 3.3 2.9 5.8 3.9 9.6q.2 1 .5 2 2.7 10.4 5 20.9.5 2.2 1 4.3.7 3.1 1.4 6.2.4 1.9.8 3.7c.4 3.6.1 5.2-1.6 8.3a71.67 71.67 0 0 1-5.8 5.2q-.8.7-1.7 1.4A272.07 272.07 0 0 1 680 796c-1.5 1-1.5 1-3 2.1-43.5 27.9-99.6 39-150.6 39.1q-1.9 0-3.8 0-4 0-8 0-6 0-12 0c-18.9.1-37.7-.7-56.4-4q-1.4-.2-2.9-.5c-48-8.5-96.9-23-132.5-57.9-2-3.2-2-4.7-1.3-8.4q.2-1 .5-2.1.2-1.1.4-2.2.8-3.6 1.6-7.1c.3-1.1.3-1.1.5-2.3q1.8-7.9 3.7-15.8.5-2.3 1.1-4.6 1.3-5.7 2.7-11.3l14.8 9.6c8.9 6.3 18.1 11.1 28.2 15.4a52.55 52.55 0 0 0 2.3 1c33.4 14.6 69.5 20.9 105.7 24q1.4.1 2.9.3c11 1 22.1.9 33.2.9q1.6 0 3.3 0c16.2 0 32.4-.3 48.6-2.2 1.3-.2 1.3-.2 2.7-.3 47.1-5.6 97.5-18 134.3-49.7z" fill="#febf0b"/><path d="M270.9 111.9c10.6 2.1 18.7 8.8 26.1 16.1q.9.8 1.8 1.6c6.1 5.8 11.1 12.7 16.2 19.4q.8 1 1.6 2c23.5 31.1 41.4 67 53.4 104q.4 1.2.8 2.5c7.7 23.7 13 47.7 16.6 72.3q.2 1.3.4 2.7.6 3.9 1.1 7.7l.4 2.3c.7 5.2.8 10.2.7 15.5q-1.7.7-3.5 1.5C374.2 365 362.9 371 352 379c-3.7-1.5-5.5-3.6-8-6.7q-1.2-1.5-2.4-3-.6-.8-1.3-1.6-2-2.6-4.1-5.2C299.4 317.6 277 262.5 265 206l-.4-2.1q-1.3-5.8-2.2-11.8-.4-2.2-.8-4.4c-2.2-12.1-2.9-24.1-2.9-36.3q0-1 0-2.1c-.1-26.6-.1-26.6 7.7-36 1.6-1.3 1.6-1.3 4.5-1.4zM751 113c5.7 4.8 6.2 13.1 7 20 .4 5.9.4 11.8.4 17.7q0 1.2 0 2.5c-.1 14.3-1.2 27.8-4.4 41.8q-.2 1.1-.5 2.1c-8.7 38.8-20.7 76.7-39.5 111.9-.6 1.2-.6 1.2-1.2 2.3-9.1 17.2-19.6 32.6-31.8 47.7q-1.2 1.5-2.4 3-7.1 8.7-14.6 17-.8-.5-1.6-1.1c-11-7.4-22.3-13.4-34.4-18.9 1-47.8 12-95.5 32-138.9q1.4-3 2.7-6.1c8.2-18.5 19.2-36.8 31.3-53q1.2-1.6 2.4-3.2c36.8-48.9 36.8-48.9 54.6-44.8z" fill="#407880"/><path d="M483.5 559.7q1.7 0 3.4 0 1.8 0 3.6 0h3.8q4.9 0 9.8 0 5 0 10-.1 3.8 0 7.6 0h3.6c7.8.1 17 .1 22.8 6 2.5 4.5 2.9 7.4 1.9 12.4-4.4 12.6-13 21-24.7 27-2.3 1-2.3 1-5.3 1q.1 5 .3 10 0 1.4 0 2.8c.3 7.9 2.1 13.7 7.6 19.4 8.8 6.9 20.4 7.8 31.1 6.8 6.2-1.2 10.9-3.3 16-7q1 0 2 0 .3-.8.7-1.6c1.8-3.3 4.3-5.9 6.8-8.6q.7-.8 1.5-1.6c3.2-3.5 4.7-5 9.3-5.6 3.7.4 3.7.4 6.6 2.6 2.8 4 2.9 8.1 2.6 12.8-.8 4.8-3.2 7.6-6.5 11q-.7.9-1.5 1.8c-10.2 11.3-25.4 17.5-40.5 18.4-17.6.5-33.8-2.8-47-15.2-2.8 1.3-4.8 2.6-7 4.8-10.3 9.1-24.8 10.7-38 10.5-16.6-1.3-29.2-7.8-41-19.3q-1-1-2.1-2c-4.6-4.3-6.9-7.6-7.2-14 .1-3.7.9-6 3.3-9 3.7-2.5 6.7-2.8 11-2 6.1 3.9 9.9 9.9 13.9 15.7 5.7 6.2 14.1 7.9 22.2 8.5 10.8.3 18.9-1.7 26.9-9.2 3.9-4.6 6-8.6 6.3-14.7q.1-1.3.1-2.7.1-1.4.2-2.8c0-1.4 0-1.4.1-2.8q.2-3.5.3-7-1.3-.4-2.7-.8c-11.9-4.3-19.9-12.2-26-23.1-1.9-4.6-2.6-8.3-1.3-13.1 3.7-6.4 8.2-9.2 15.5-9.3z" fill="#012740"/><path d="M422.3 495.2c11 8.4 20.1 21.3 22.1 35.4.1 4.3 0 6.8-2.3 10.5-3.6 2.2-5.8 2.5-9.8 2.5-3.9-1-6.3-3-8.4-6.4q-1.7-3.2-3.3-6.5c-3.1-6.1-5.9-11.6-11.6-15.7q-.8-.6-1.7-1.3c-6.2-3.8-13.3-3.5-20.3-2.7-3.4.9-6.1 2.1-9 4q-.9.6-1.9 1.2c-8.1 5.9-11.2 16.4-14.1 25.6-1 2.2-1 2.2-4 4.2-4.8.6-9.4.9-13.7-1.4-3.2-6.3-1.3-13.3.7-19.7 5.6-15.9 15.6-26.8 30.7-34.2 14.9-6.1 33.2-4.2 46.5 4.5zM658 499q16.4 13.7 19 34.7c.4 6.9.4 6.9-1.8 10.1-3.8 2.6-6.2 2.9-10.7 2.9-3.6-1-5.1-2.8-7.5-5.7-1.2-2.5-2.2-4.9-3.1-7.4-3.3-9.3-8.1-17.3-17.2-21.7-9.3-3.4-17.7-1.8-26.7 2.1-6.8 4.5-9 12.4-11.5 19.7-2 5.8-2 5.8-4.4 8.3-4 1.9-7.8 1.7-12.1 1-3.1-1.7-3.1-1.7-5-5-1.8-10.4 1.1-20.1 6.8-28.8 8.5-11.1 18.6-18.6 32.6-20.9 15.1-1.7 29.6 1.1 41.6 10.7z" fill="#01273f"/><path d="M335 587c1.9 1.9 1.9 1.9 3 4 0 2.5 0 2.5-1 5-3.6 3.4-6.2 4.9-11.2 5.2-4.2-.2-7.8-1.2-11.7-2.5-11.2-3.3-22.6-5.1-34.1-6.7q-.9-.1-1.9-.3c-6.9-.9-13.9-.8-20.9-.7q-3 0-6 0-7.4.1-14.7.2-4.1 0-8.3 0-3.8.1-7.7.1-1.8 0-3.6 0-1.5 0-3.1.1c-3.3-.5-5.1-1.5-7.8-3.4-1.5-2.9-1.4-4.8-1-8 2.1-3.6 3.3-5.4 7.3-6.8 2.6-.5 5.1-.9 7.7-1.2q1.7-.3 3.5-.5c30.9-3.8 85.3-3.8 111.5 15.5z" fill="#02263f"/><path d="M778.4 571.8q4.5 0 9 0 2.9 0 5.7 0l2.7-.1c6.1.1 11.5.4 16.6 4 2.1 3.1 2.1 4.7 1.6 8.3-2.3 4.6-2.3 4.6-5 6q-2.1.1-4.2.2h-2.7q-1.4 0-2.9 0-3.1 0-6.2.1-1.6 0-3.2 0c-30.6.4-59.6 3-88.8 12.7-4.7.6-8.7.8-12.6-2.1-2.4-2.9-2.4-2.9-3.1-5.8.9-4 2.8-6.4 5.7-9.1 25.2-13.1 59.6-14.2 87.4-14.2z" fill="#01253e"/><path d="M749 622q1.6.3 3.2.6L772 627q1.6.4 3.2.7 4.8 1.1 9.6 2.3 1.5.3 3 .7c7.8 1.9 16.6 4.1 21.2 11.3a18 18 0 0 1 0 8c-2.5 3-4 3.9-7.9 4.3-5.9-.1-11.5-2.2-17.1-3.9-27-7.6-54.5-14.8-82.7-14.8-6.2-.2-9.8-1.1-14.3-5.6-.4-4.2-.4-6.3 1.9-9.9 11.4-11.4 46.3-.9 60.1 1.9z" fill="#01263e"/><path d="M314.6 615.6q1.6 0 3.2 0c6.6 0 10.4.6 15.2 5.4.7 5.6.7 5.6 0 8-2.7 3.3-4.5 4.7-8.7 5.5-3.5.2-7 .4-10.5.4-29.4 1.4-58.5 7.6-86.6 16.5-3.7 1-7.4 1.3-11.2.6-2.6-1.6-2.6-1.6-4-4-.7-3.8-.2-5.7 1.5-9.1 5.5-6.3 13.9-8.1 21.6-10.3q1.6-.4 3.3-.9c13.4-3.6 27-6.3 40.6-8.7q1.5-.3 3.1-.5c10.8-1.9 21.5-2.8 32.5-2.9z" fill="#01253e"/></svg>