<svg xmlns="http://www.w3.org/2000/svg" width="1024" height="1536" xmlns:v="https://vecta.io/nano"><path d="M259 139q1.7.7 3.4 1.5c8.3 3.9 15.5 8.7 22.6 14.5l2.9 2.3c7.4 6 14.1 12.5 20.8 19.2q1.4 1.3 2.7 2.6c6 6 11.4 12.3 16.6 18.9l1.5 1.9c5.4 6.9 10.6 13.9 15.5 21.1q.7 1 1.4 2c11.4 17.1 21.7 34.7 30.7 53.2q1.3 2.6 2.7 5.2c24.1 45.7 38.2 98.3 47.4 148.8q.2 1 .4 2.1c1.8 9.5 3.2 19.1 4.4 28.7q1.5-.5 3.1-1c20.1-5.9 40.8-9.1 61.8-9.2q1.8 0 3.7 0 3.9 0 7.7 0 5.8-.1 11.6-.1c20.2-.1 39.3 1.8 59 6.5l3.6.8q4.2 1 8.5 2 .1-1.3.3-2.7c1-8.5 2.2-16.8 3.7-25.2.2-1.5.2-1.5.5-2.9q1.5-8.7 3.5-17.2.3-1.5.7-3.1c15.7-70 41-136.4 83.3-194.9q.7-1 1.5-2.1c21.6-29.8 53.7-70.4 92.5-76.9 10.3-1.1 21.9-1.8 31 4q1.2.7 2.3 1.5c14.7 10.3 18.9 26.9 21.9 43.6 1.3 8.7 1.3 17.3 1.2 26.1q0 4.4 0 8.8c-.1 18.7-2.3 36.7-5.7 55.1q-.8 4.2-1.5 8.4c-3 16.6-6.8 33-12.1 49q-.5 1.6-1 3.2-1.5 4.6-3.1 9.3-.4 1.3-.9 2.7c-10 30-22.6 58.7-38.1 86.3q-1.1 1.9-2.1 3.8c-11.3 20.1-24.1 39.1-38.9 56.8a206.26 206.26 0 0 0-5.8 7.3c-2.4 2.9-4.8 5.8-7.4 8.5q-.8.8-1.7 1.7-1.6 1.8-3.3 3.4c-1.8 1.8-1.8 1.8-3.8 4.5.3 3.2 1.5 4.8 3.8 7q.9.8 1.8 1.7.9.8 1.8 1.7c9.8 9.5 17.6 19.9 24.6 31.6.5.8.5.8 1 1.7 14.1 23.3 21.6 48.9 25.8 75.7q.2 1.1.4 2.3l9.2 62.9q.9 6.3 1.7 12.5.9 6.1 1.8 12.2.4 2.9.8 5.7c2.5 18.1 2.5 18.1 3.3 27q1.1-.3 2.2-.6c7.7-2 15.3-3.4 23.2-4.5q1.9-.2 3.7-.5c10.6-1.4 21.2-2.6 31.9-3.4q1.5-.1 3.1-.2 5-.3 9.9-.6 1.5-.1 3.1-.2c8.9-.4 8.9-.4 12.9 3 2 2.6 2 3.8 1.8 7.1-.9 3.1-1.3 3.9-3.8 5.9-9.7 2.9-20.7 3-30.8 4.1-27.3 2.6-27.3 2.6-54.2 7.9v7q2 .5 4 1 0 7.1.1 14.3 0 2.4 0 4.8 0 3.5 0 7 0 1 0 2.1c0 3.8-.2 7.2-1.1 10.8q1.4.1 2.8.2c19.7 1.8 39.1 6.1 58.3 10.5l2.6.6c5.1 1.2 9.2 2.8 13.2 6.4 1.7 3.5 1.1 5.7.1 9.3-1.5 2.4-1.5 2.4-4 4-8.1.7-15.9-1.1-23.8-2.7q-6.2-1.2-12.4-2.4-1.2-.2-2.5-.5l-24.1-4.3q-1.9-.4-3.8-.7-4.2-.7-8.4-1.4c-.2 1-.2 1-.3 2.1-1.1 6.2-2.5 12-4.5 17.9l-.8 2.4c-2.1 6-4.6 11.8-7.4 17.6-.7 1.6-.7 1.6-1.5 3.2-11.9 25.3-31.7 47.7-54.5 63.8q-.9.6-1.7 1.2c-40.6 28.6-88.2 40.1-136.3 48.8-1.4.3-1.4.3-2.9.5C508.2 1014.9 433 1005 366 983q-1-.3-2.1-.7c-9.6-3.1-18.6-7.4-27.7-11.7-1.7-.8-1.7-.8-3.4-1.7-9.6-4.6-18.6-10-26.9-16.5-1.9-1.5-1.9-1.5-4.3-2.8-3.1-1.9-5.8-4.1-8.6-6.5l-3.1-2.5c-2.7-2.5-5.3-5-7.9-7.6q-1.2-1.2-2.4-2.5c-22-23.2-39.6-53.6-44.6-85.5q-6.4 1-12.9 2.1-1 .1-2 .3c-8.1 1.3-16.2 2.8-24.3 4.5q-1.1.2-2.3.5-5.5 1.1-11.1 2.4c-14.9 3.2-14.9 3.2-21.4 2.2-2.6-1.9-3.6-3.2-5-6-.5-3.9-.4-5.5 1.9-8.7 6.3-4.7 14.4-5.9 21.9-7.5q1.4-.3 2.8-.6 2.9-.6 5.8-1.2 4.4-.9 8.7-1.8 2.9-.6 5.7-1.1 1.3-.3 2.6-.6c9.2-1.8 18.1-2.5 27.6-3.5v-41q2-.5 4-1-.5-2.5-1-5c-18.6-3.9-37.2-6.4-56-8.6q-2.5-.3-5-.6-5.7-.7-11.4-1.2-2.1-.3-4.1-.5l-3.5-.4c-3.5-.8-4.8-1.8-7-4.7-.5-3.7-.5-6 1.1-9.4 5.6-4.8 16-2.3 22.9-1.9q1.1.1 2.2.1c53.1 3.3 53.1 3.3 64.8 9.2q.1-1.1.1-2.3c.6-10.4 2-20.6 3.4-31q.6-4.4 1.2-8.8.4-2.8.8-5.7.2-1.3.4-2.6.9-6.5 2.1-12.9a584.77 584.77 0 0 0 3-19.1q.6-3.8 1.1-7.7.9-6 1.8-12.1c1.9-13.4 4-26.8 6.7-40.1q.3-1.5.6-2.9c6.4-29.7 20.8-56.3 39.9-79.7q.9-1.1 1.8-2.2c3.7-4.5 7.6-8.2 12.1-11.9-.7-3.3-1.5-4.8-4.1-7.1-1.6-1.5-1.6-1.5-2.9-2.9q0-1 0-2-1 0-2 0c-4-4.5-4-4.5-4-7q-1 0-2 0c-1.5-1.6-1.5-1.6-3.2-3.9q-1.1-1.4-2.2-2.8-.6-.8-1.2-1.6-2.3-2.8-4.5-5.6c-39.3-49-65.8-108-82.9-168.1q-.4-1.3-.8-2.7c-10-35.4-15.5-71.7-15.6-108.4q0-1.2-.1-2.5c-.1-21.6 2.6-46 17.7-62.8 13.6-12.3 35.6-13.2 51.8-5.6zm17 879c6.6 3.2 13 6.5 19.4 10.2 33.8 19.2 69.9 32.8 107.8 41.2q3.8.8 7.5 1.7c9.6 2.2 19.3 3.7 29 5 1.7.3 1.7.3 3.5.5q5.9.8 11.8 1.4 1.2.1 2.5.3c16.8 1.8 33.7 2 50.6 2q4.4 0 8.8 0c77.6.5 157-16.5 223-58.8q1.2-.7 2.3-1.4c1-.7 1-.7 2-1.3 1.8-.8 1.8-.8 4.8.2 1.2 2.5 2.3 4.8 3.3 7.4q.5 1.1 1 2.3 1.6 3.9 3.1 7.9 1.2 2.7 2.3 5.5 1.8 4.3 3.6 8.7l12.7 30.9q3.2 7.6 6.4 15.2.6 1.4 1.2 2.9 3.5 8.5 7.1 17 .4 1 .8 2 1.8 4.5 3.7 8.9 3.1 7.6 6.3 15.1l1.2 2.7q1.1 2.5 2.2 4.9c2.1 5 2.1 5 2 7.6-1.2 2.8-2.7 3.5-5.3 5q-1.4.9-2.8 1.7-1.5.9-3 1.8-1.6.9-3.2 1.9-4.8 2.8-9.6 5.6-2.6 1.5-5.2 3.1c-43.9 25.8-90.3 42.4-139.8 53.9-1.5.4-1.5.4-2.9.7-21.5 5.2-43.4 7.7-65.3 10q-1.7.2-3.4.3c-99.2 10.1-201.7-6.6-325.6-69q-.9-.5-1.8-1.1c-7.2-4.4-14.2-9-21-13.9 4.2-11.5 8.8-22.7 13.5-34q3.2-7.4 6.3-14.8.7-1.5 1.3-3.1 6.1-14.4 12.1-28.8 1.7-4 3.4-8 4.7-11.2 9.4-22.4 1.8-4.4 3.6-8.8.8-1.9 1.6-3.9 1.2-2.7 2.3-5.4.6-1.5 1.3-3.1c1.2-2.7 2.6-5.2 4.2-7.7z" fill="#feb600"/><path d="M723 949q.4 1.1.8 2.2 1.9 5.2 3.8 10.5l.7 2q4.7 12.7 9.5 25.5.5 1.2 1 2.5 2.4 6.3 4.8 12.5.9 2.3 1.7 4.6.4 1 .8 2.1c1.9 4.9 1.9 4.9 1.9 7.1-49.1 29.1-100.6 49.9-157.3 58.3q-3.1.4-6.2.9c-22.2 3.3-44.2 4.2-66.6 4.1q-4.3 0-8.7 0c-82.2.5-163.2-19.1-233.2-63.3 1.8-6.3 3.9-12.5 6.3-18.6a529.65 529.65 0 0 0 6.6-17.6c3.7-10.7 7.9-21.2 12.1-31.8 3.4.8 5.4 1.9 8.2 4 34.8 24.8 77.5 35.8 118.8 43.6q2.9.6 5.7 1.1c83.9 16.6 187 9.5 276.4-41.4 3.3-2.2 6.4-4.6 9.4-7.2 1.5-1.1 1.5-1.1 3.5-1.1z" fill="#008090"/><path d="M290 235l2.3 2.3c12.6 13.3 22.6 29 31.7 44.7.6 1 .6 1 1.2 2.1 26.8 46.1 42.6 96.7 52.5 148.9.7 4 1.5 7.9 2.4 11.9 1 4.3 1.6 8.6 2 13q.2 1.1.3 2.2c.6 6 .7 11.9.6 17.9-.8.4-.8.4-1.7.8-10.7 4.9-21 9.9-30.8 16.6-2.5 1.6-2.5 1.6-4.5 1.6-2-2.4-3.9-4.8-5.7-7.3q-.9-1.1-1.8-2.3-2.7-3.7-5.5-7.4-.9-1.2-1.9-2.5c-6.7-9-13.3-17.9-19.1-27.5l-2-3.2c-22.4-36.4-38-75.2-51-115.8q-.5-1.6-1.1-3.3c-8.2-26-14.7-53.4-15.9-80.7q-.1-1.6-.2-3.3c-.2-9.9 1.1-19.5 7.7-27.3 1.5-1.4 1.5-1.4 3.8-2.5 15.4.7 26.3 10.7 36.7 21.1zm482.7-19.1c4.8 4.4 7.1 11.5 7.5 17.9.2 15.4-.1 30.1-3.2 45.2q-.4 2.3-.9 4.6c-2 10.4-4.7 20.5-7.7 30.6q-1.7 5.8-3.1 11.6c-.9 3.9-2 7.5-3.5 11.2-.8 2-1.5 4.1-2.2 6.2q-.4 1.2-.8 2.4-.4 1.2-.8 2.4c-7.9 23.8-17.8 46.6-29 69q-.6 1.2-1.2 2.4c-13.9 27.7-31.4 54.2-51.8 77.6q-7.8-4.2-15.5-8.5-1.2-.7-2.4-1.4-2.4-1.3-4.7-2.6c-4.1-2.3-8.2-4.5-12.4-6.5-.4-9.2.4-17.5 2.2-26.4.7-3.9 1.2-7.7 1.7-11.5 3.3-25 8.6-50 16.1-74.1q.6-1.8 1.2-3.7c4.7-15.1 9.8-30 16.8-44.3q.5-1 1-2l7-14q.5-1.1 1.1-2.2c4.8-9.3 9.9-18.2 15.9-26.8q2-3 3.9-6c40-59.7 40-59.7 64.8-51.1z" fill="#f18200"/><path d="M528 740h3.6q4.8.1 9.6.3 1.4 0 2.8 0c5.4.2 8.7 1 13 4.7 1.9 2 1.9 2 3.3 4.1q.7 1 1.5 2c2.5 3.9 2.5 7.4 2.2 11.9-6.9 17.5-20.9 31.5-38 39q-1.5 0-3 0c2.1 21.3 2.1 21.3 13.9 38.5 7.3 5.2 15.2 8.5 24.1 9.5q1 .1 2 .2c12.9.8 30.3-4.4 40.3-12.4 3.9-3.2 6.6-3.9 11.7-3.8 3.7 1.5 6.1 3.5 8 7 .8 5.4-.3 8.6-3.3 13-10 12.2-25.3 18.9-40.7 21-20.2 1.8-39.6-2.7-56-15-9.3-8.1-9.3-8.1-10-13q-1 1-2 2-.7.7-1.4 1.4-1.7 1.7-3.3 3.5c-12.6 13.3-30.4 20.8-48.7 21.5-19.1.3-37.6-4.7-51.6-18.2-3.7-4.1-5.8-7.2-6.4-12.9.6-5 .6-5 2.4-7.3 4-2.7 7.2-3.5 12-2.7 2.3.8 3.7 1.8 5.6 3.4 10.4 8.5 27.5 13.2 40.8 12.6 12.3-1.6 22.4-6 30.5-15.6 7.1-9.9 8-20.9 9.1-32.7q-1.1-.2-2.2-.3c-15.3-3.6-25.7-17.1-33.7-29.6-3.1-5.4-5.3-9.8-5.1-16.1 1.8-6.3 5.8-10.3 11-14 3.6-1.8 7.6-1.4 11.6-1.6q1.5 0 3-.1c14.5-.5 28.9-.5 43.4-.3z" fill="#01344b"/><path d="M668.2 651.4c9 6.2 14.2 14.9 16.4 25.6 1.8 12.5-.4 23.6-8 34-5.8 7.1-12.7 11.3-22 12.4-9.4.3-16.9-1.3-24.4-7.1-7.4-7-12-15.9-12.7-26.1-.2-12.9 1.2-22.4 9.7-32.6 11.1-11.5 27.1-14.7 41-6.2zm-278.9.7c9.4 6.7 15.3 16.6 17.2 27.9 1.1 12-1.5 23.3-9.1 33-5.5 5.9-12.6 10.5-20.8 11.2-9.2.2-17.4-1.3-24.6-7.2q0-1 0-2-.9-.3-1.8-.7c-4.9-2.9-7.4-9.4-9.5-14.5-2.8-11.6-3.1-23.4 2.5-34.1 4.4-7.2 11-14.8 19.4-17.3 9.7-1.6 18.1-1.2 26.7 3.7z" fill="#01344a"/><path d="M307 775q1.8.5 3.8 1 4.5 1.1 9 2.4l2.4.6c4.4 1.3 7.5 2.9 10.8 6 1.4 2.9 1.3 4.8 1 8-1.8 2.7-3.1 4.5-6 6-5.8.3-10.7-.4-16.3-1.8q-1.2-.3-2.4-.6-3.6-.9-7.3-1.8-2.4-.7-4.8-1.2-7.1-1.8-14.2-3.6c-37.6-9.5-75-17.2-113.8-20.6l-2.3-.2q-2.1-.2-4.3-.4c-4.7-.5-8.4-1.6-12.6-3.8-1.5-3.1-1.2-5.6-1-9 8.5-15.3 138.4 14 158 19zm566.8-21.8c1.7 2.6 2.1 4.7 2.2 7.8-1.3 3.2-2.2 4.6-5.3 6.1-2.6.9-4.9 1.3-7.7 1.6q-1.4.2-2.9.3-1.6.2-3.2.3-3.3.4-6.7.8-1.8.1-3.6.3c-40 4.3-78.3 12.4-117.3 22.3q-1.2.3-2.5.7-5.8 1.4-11.6 3-2.1.5-4.2 1-1.7.5-3.5.9c-5.3 1-9.9 1.8-14.5-1.3-2.2-3.3-2.6-5.1-2.7-8.9 1.1-3.4 3-4.9 5.7-7.1 2.7-1.3 5.5-2 8.4-2.8q1.4-.3 2.7-.7c23.3-6.2 46.8-11.6 70.4-16q3.3-.7 6.6-1.3c23.8-4.8 48.1-7.6 72.3-8.9q1.3-.1 2.7-.1c10.9-.5 10.9-.5 14.7 2zm-561.3 64.4l3.6-.1q1.7 0 3.4 0h2.9c3.3.6 4.5 1.9 6.6 4.5 1.2 2.4 1.1 3.7 1 6.4q0 1.1-.1 2.3c-1.2 3-2.9 4.1-5.7 5.5-4.4 1.6-9 1.3-13.7 1.3-18.3.3-36.4 2.4-54.5 4.5-1.1.1-1.1.1-2.2.3-22.2 2.6-44.1 6.8-65.9 11.4q-1.6.3-3.2.7-2.9.6-5.8 1.2c-5.9 1.2-11.9 2.1-17.9 1.4-2.6-1.9-3.6-3.2-5-6-.5-3.9-.4-5.5 1.9-8.7 6.2-4.7 14.2-5.9 21.7-7.4q1.3-.3 2.7-.6 2.8-.6 5.7-1.2 4.2-.8 8.4-1.7c22.8-4.7 45.9-7.8 69-10.3q5.3-.5 10.6-1.2c12.1-1.3 24.2-2.2 36.5-2.3z" fill="#033349"/><path d="M735.9 819.3l2.7.2c35.9 2.8 71.1 8.4 106.4 15.8 1.7.3 1.7.3 3.4.7 13.2 2.8 13.2 2.8 18.1 7.3 2 3.7 1.7 5.7.5 9.7-1.5 2.4-1.5 2.4-4 4-8 .7-15.7-1.1-23.5-2.6q-6.2-1.3-12.4-2.5-1.3-.2-2.6-.5c-31.4-6-63.1-11.1-95-13.2q-1.4-.1-2.9-.2-6.8-.5-13.7-.8-2.4-.2-4.9-.3-1.1-.1-2.2-.1c-4.8-.3-7.4-1.4-10.8-4.8-1.4-2.9-1.3-4.8-1-8 7.1-11.1 30.1-5.7 41.9-4.7z" fill="#03334a"/></svg>