<svg xmlns="http://www.w3.org/2000/svg" width="1024" height="1024" xmlns:v="https://vecta.io/nano"><path d="M299.3 59c5.5 4 10.6 8.5 15.7 13q.8.7 1.5 1.3c11.6 10.2 22.2 21.4 31.5 33.7q.6.8 1.2 1.6c11.8 15.4 22.3 31.7 31.5 48.9q1.4 2.6 2.8 5.3c28.3 52 42 108.2 45.5 167.2q1.6-.5 3.3-1c9.3-2.6 18.6-4.7 28.1-6.2q1.5-.3 3-.5c14.1-2.3 28.1-2.5 42.4-2.5h3.1c27.4.1 53.7 2.5 80.1 10.2q0-1.3-.1-2.5c-.7-49.8 13.9-101.7 35.1-146.5q.6-1.3 1.2-2.6c8.5-17.9 18.4-35.2 29.8-51.4.6-.8.6-.8 1.2-1.7 5.3-7.6 10.8-15.1 16.8-22.3.6-.8.6-.8 1.3-1.5C685.5 87.8 697.8 74.7 712 64q.8-.6 1.6-1.2c15.2-11.7 33.2-22 53-21.3 8.9 1.3 16.1 5.9 21.7 12.9 9.6 14.3 13.8 32.7 13.9 49.7v2.3q0 3.7 0 7.4.1 1.3.1 2.6c-.1 22.6-2.8 44.5-7.3 66.6q-.3 1.3-.5 2.7C781.2 252.2 756.3 317.6 714 371q-1.4 1.8-2.9 3.7-2.8 3.6-5.6 7.1-.6.8-1.2 1.6-1.3 1.7-2.8 3.2c-2.7 2.8-2.7 2.8-3.5 6.6 1.1 2.1 2.4 3.6 4.1 5.3 4.6 5.1 8.3 10.7 11.9 16.5q.6.9 1.2 1.9c18 28.7 25.8 61.5 30.5 94.8 1.6 10.6 5.7 19.8 9.9 29.7 4.9 11.3 8.5 23.2 8.4 35.6q1.1 0 2.2 0c24.3-.2 24.3-.2 35.2.3q1 0 2.1.1c4.3.2 7.1 1 10.5 3.6 1.4 2.8 1.2 4.9 1 8-1.2 2.2-1.2 2.2-3 4-2.1.5-2.1.5-4.7.5q-1.4 0-2.8 0c-1.5-.1-1.5-.1-3.1-.1h-3.1q-5-.1-10-.1-3.4-.1-6.7-.1-8.3-.1-16.6-.2 0 1.1 0 2.3 0 1.4 0 3 0 1.4 0 2.9c-.1 9.8-2.4 19.4-5 28.8q7.6 2.6 15.2 4.9 1.7.5 3.3 1 3.4 1 6.8 2c18.1 5.4 18.1 5.4 22.7 11.1.5 3.9.6 6.1-1.6 9.4-3.3 2.2-5.4 1.9-9.4 1.6-3-.8-5.8-2-8.7-3.1-7-2.7-14-5.2-21.2-7.3q-1.3-.4-2.6-.8-1.2-.4-2.4-.7-1-.3-2.1-.7c-2.3-.5-2.3-.5-6-.4q-.7 1.5-1.5 3.1c-10.6 20.8-24.2 38.6-40.6 55.3q-1.1 1.1-2.2 2.2c-5.1 5.2-10.6 9.4-16.7 13.4q-.9.6-1.8 1.2c-71.4 46.4-168.9 49.5-278.1 33.1-35.2-7.6-72.4-20.6-100.1-44.3q-1.6-1.4-3.3-2.7C290 692 274.8 672.3 264 649q0-1 0-2-7 1.8-14 3.7-2.3.6-4.7 1.2-3.5.9-6.9 1.8-1.1.3-2.2.6c-4.8 1.3-9.5 2.7-14.1 4.2-2.5.6-4.6.7-7.1.5-2.3-1.6-2.3-1.6-4-4-.5-3.5-.5-3.5 0-7 2.9-3.7 5.7-4.9 10.1-6.3q1.8-.5 3.7-1.1 1.8-.6 3.8-1.2 1.8-.5 3.7-1.1c20-6.3 20-6.3 25.7-6.3q-.3-1.3-.6-2.6-.4-1.8-.8-3.5l-.8-3.5c-1.5-6.5-1.9-12.6-1.9-19.3q0-1.3.1-2.6 0-3.3 0-6.5-.8 0-1.7 0-8.6.1-17.3.2-3.2 0-6.4 0-4.6.1-9.3.1h-2.9c-4.9 0-8.4 0-12.4-3.3-1-1-1-1-1.3-3.8.4-3.9 1.5-5.4 4.3-8.2 2.8-.9 4.5-1.1 7.5-1.1h2.7q1.4 0 2.9 0 1.5 0 3.1 0 4.7 0 9.5 0 3.2 0 6.5.1 7.9 0 15.8 0v-3.8c-.1-14.4 6-31.6 13.1-44 2.9-5.7 3.4-12 4.2-18.3 6-40.7 16.1-81.3 43.3-113.4 2.7-3.2 3.4-4.2 3.4-8.5-1.7-2.4-3.5-4.7-5.4-6.9q-1.6-2.1-3.3-4.1c-.9-1-.9-1-1.7-2.1-58-70.7-90.2-166.3-92.4-282.7 1.8-17.3 7.8-36.3 21.5-47.6 18.7-13.4 45 1.5 61.6 12.4zm7.7 715c3.1 1.4 5.3 3 7.7 5.3 4.1 3.6 8.4 6.4 13.1 9.1a55.99 55.99 0 0 0 2.5 1.4c31.7 17.8 66 28 101.7 34.2q1.6.3 3.2.6c43.1 7.5 88.4 8.2 131.8 2.4q3.3-.4 6.7-.8c34.8-4.5 69.7-13.6 101.3-29.2q1.2-.6 2.5-1.2c11.4-5.7 22.5-11.5 31.5-20.8 4.3 1.4 5.7 4.7 8.1 8.4a46.46 46.46 0 0 1 1.4 2.3c21.1 33.6 32.7 72.6 40.5 111.3q.3 1.2.5 2.5c.6 3.1.9 4.9-.9 7.6q-1.2.8-2.4 1.7-1.3.9-2.7 1.9-1.8 1.2-3.5 2.3-1 .7-2.1 1.4c-55.1 36.3-119.3 57-184.9 63.6q-1.1.1-2.3.2c-16.5 1.8-32.9 2.2-49.5 2.1q-1.9 0-3.9 0c-20.3 0-40.2-.6-60.3-3.3q-1.1-.1-2.2-.3c-63.2-8.4-126.1-28.2-178.7-65.1q-.9-.7-1.8-1.3c-2.7-2-4.4-3.5-6.3-6.3.1-1.8.1-1.8.5-4q.3-1.2.5-2.5.4-1.4.7-2.8.3-1.5.7-3c5.7-24.7 12.9-49.3 22.6-72.7q.5-1.3 1.1-2.6c6.2-14.9 13.3-29.4 22.9-42.4z" fill="#c37300"/><path d="M703 713c1.9 2.8 2.4 4 2.9 7.2q.2 1.3.4 2.6.2 1.4.4 2.8l.5 2.9q.5 3 .9 6 .8 4.6 1.5 9.2.5 3 .9 5.9.3 1.4.5 2.7c2.6 17.1 2.6 17.1-2 23.7-24.6 27.8-71.3 38.1-106 46q-1.8.4-3.6.8c-8 1.8-16.1 3.2-24.3 4.3l-3.4.4c-20.3 2.8-40.5 3.9-61 3.8q-1.7-.1-3.4-.1c-61.5-.2-149.8-8.5-196.5-54.1-4.2-4.4-4.2-7.8-4.1-13.8.5-9.3 2.9-18.5 4.8-27.6q.7-3.2 1.3-6.3 1.6-7.7 3.2-15.4c2.6 1.3 5 2.6 7.4 4.1C369.9 748 422.6 758.6 477 763q1.3.1 2.7.2c48 3.8 99 .4 145.3-13.2q1.8-.5 3.7-1.1c26.6-8 52.1-18.9 74.3-35.9z" fill="#008cc9"/><path d="M287 112c23.3 6 38.6 29.7 50.3 49.1 32.3 55.3 50.5 122.6 49.7 186.9q-1.6.8-3.3 1.7c-12.9 6.6-24.5 14-35.7 23.3-3.1-2.9-5.5-6-7.9-9.6q-.5-.8-1.1-1.6-1.8-2.6-3.5-5.2-.6-.9-1.2-1.9c-7.3-10.9-14-22.1-20.3-33.7q-.8-1.5-1.7-3.1C303 300.8 295 283.2 288 265q-.7-1.7-1.4-3.5c-6.9-18.2-12.1-36.6-16.6-55.5q-.4-1.7-.8-3.5c-1.5-6.1-2.8-12.1-3.8-18.3q-.2-1-.4-2c-1.7-9.6-2.2-19.1-2.3-28.8q0-2.1-.1-4.2c-.2-12.5 1.1-25.3 9.4-35.2 4.7-3.1 9.5-2.5 15-2zm457.8 4c6.2 3.9 8.8 9.2 11 16 7.9 35.6-6.8 76.5-17.8 110q-.4 1.4-.9 2.8c-14.4 44.1-36.3 91.3-66.1 127.2-2.7-1.3-5.1-2.7-7.5-4.5q-1.1-.7-2.1-1.5-1.1-.8-2.1-1.6A203.54 203.54 0 0 0 632 348c-1.5-74.1 19.6-154.9 69-212 1-1.4 1-1.4 2.1-2.8q.9-1.1 1.9-2.2 1 0 2 0l1-3c9.7-9.2 23.3-18.8 36.8-12z" fill="#994f00"/><path d="M498.6 546.7q4.4 0 8.7 0c9 0 17.9.2 26.8 1.2a16.6 16.6 0 0 1 2.2.3c7.1.8 12.3 2.3 17.3 7.5 1.9 4.5 1.8 7.6.4 12.3-4.2 9-13.1 18.7-22.1 23.2-6.2 3-6.2 3-10.9 7.8-2.1 7.5-1 15.4 0 23q.2 1.9.5 3.9c1.5 7.7 5 13 11.5 17.5 7.1 3.8 15.2 3.7 23 1.9 8.7-2.9 15.7-7.6 22-14.3 2.4-2.3 3.6-2.9 6.9-3.5 4.2.7 5.6 2.1 8.1 5.5.8 6.3-1.9 9.4-5.6 14.3-9.5 10.9-22.9 17.9-37.4 18.9-14.4.4-26.1-3.6-37-13.2q-2-2-4-4-1.1 1-2.2 2c-6.5 5.7-12.6 10-20.8 13q-1.7.6-3.5 1.3c-13.6 2.7-26.9-1-38.5-8.3-5.7-4.4-11.7-9.5-15-16-.6-7.1-.6-7.1 1.6-10.5 3.2-2 4.7-2.1 8.4-1.5 3.5 1.9 6.3 4.3 9.2 6.9 8.3 7.2 18.5 10.7 29.3 10.4 5.8-.7 10.1-3 14.4-6.9 4.3-6.9 5.6-14.4 6.1-22.4l.4-3.8c.7-7.8.7-7.8-2.2-14.9-2.6-2.4-5.3-4.3-8.2-6.3q-3.1-2.2-6.1-4.5-1.5-1.1-3.1-2.2c-6.4-5.1-12.3-11-13.8-19.3-.6-5-.7-9.3 1.3-14 9.1-6.7 21.6-5.4 32.3-5.3z" fill="#3f2600"/><path d="M647 476c8.5 5.9 13.7 14 16 24 1.5 12.9-.4 24.4-7.7 35.4-4.6 5.6-11.1 9.6-18.3 10.6-9.1.8-16.5.5-24-5-7.7-6.5-11.8-16.1-13-26-.7-13.7-.1-22.8 8.9-33.7 9.2-9.8 26.2-12 38.1-5.3zm-244 0c8.1 5.4 12.6 12.7 15.6 21.9 2.2 12.2 0 25-6.1 35.7-4.5 6.3-9.9 10.7-17.5 12.4-10.5 1-19.2-.2-27.8-6.5-7.3-6.8-10-16.4-10.4-26.1-.3-11.8-.2-22.8 8.4-31.8 11.3-9.7 24.4-13.1 37.8-5.6z" fill="#013052"/><path d="M215.6 577.9q1.8-.1 3.6-.1h3.8q1.9 0 4 0 4.1 0 8.3 0 4.3 0 8.5 0c17.8-.1 35.5.4 53.2 2.2q1.1.1 2.3.2 6.4.7 12.8 1.6 1.7.2 3.5.4c6.4.9 12.6 2 17.4 6.8.7 3.6.7 3.6 0 7-1.2 1.7-1.2 1.7-3 3-7.5 1.1-15.6-.4-23.1-1.4q-3-.4-6.1-.8-1.3-.2-2.6-.4-1.6-.2-3.2-.4-1-.1-2-.3c-7.6-.9-15.3-.9-23-.9q-3.7 0-7.5-.1-10.6 0-21.2-.1-6.5 0-13-.1-2.5 0-5 0-3.5 0-6.9-.1-2 0-4 0c-3.9-.5-6.6-1.6-9.4-4.4-.4-3.8-.3-5.5 1.8-8.8 3.4-3.4 6.2-3.3 10.8-3.3z" fill="#3d2502"/><path d="M760.4 576.8q5.4 0 10.7 0c10.1 0 20.2.1 30.3.5a14.08 14.08 0 0 0 2.1.1c4.3.2 7.1 1 10.5 3.6 1.4 2.8 1.2 4.9 1 8-1.1 2.2-1.1 2.2-3 4-3.1.5-3.1.5-7.1.5q-1 0-2.1 0-2.4 0-4.7 0-3.7 0-7.5 0-7.9.1-15.9.1-10.4 0-20.8 0h-2.6c-16.8.2-32.8 2.1-49.3 5.8-4.2.8-8.8 1.7-13 .6-2.4-2.5-3-3.4-3-7 1.3-3.8 2.7-4.7 6-7 21.6-8.8 45.5-9.3 68.4-9.2zM332 620c1 1 1 1 1.2 4.4-.2 3.6-.2 3.6-2.2 6.6-2.8.8-2.8.8-6.5 1.5q-1 .2-2 .4-5.3.9-10.6 1.7c-8.6 1.3-16.9 3.1-25.3 5.5q-1.6.5-3.2.9-5.2 1.5-10.4 3-3.5 1-6.9 2-1.7.5-3.5 1-6.9 2-13.9 3.9-3.5 1.1-7.1 2.1-5.2 1.5-10.4 3c-1.6.4-1.6.4-3.2.9q-1.5.4-3 .8-1.2.4-2.6.8c-2.5.5-4.8.7-7.4.5-2.3-1.6-2.3-1.6-4-4-.5-3.5-.5-3.5 0-7 2.6-3.2 4.9-4.6 8.8-5.9q1.5-.5 3.1-1 1.6-.5 3.4-1 1.7-.6 3.5-1.2c12.5-3.8 25.1-7.3 37.7-10.7q1.5-.4 3.1-.9c10.4-2.8 20.7-5.5 31.3-7.6q1.2-.3 2.4-.5c21.1-4.1 21.1-4.1 27.7.8z" fill="#3c2401"/><path d="M710.3 619.7q3.3.6 6.6 1.2 1.8.3 3.7.6c22.9 4.3 45.8 10 68 17.4q1.6.5 3.3 1.1c6.3 2.1 11.4 4.3 16.1 9 .4 3.9.6 6.1-1.6 9.4-3.3 2.2-5.4 1.9-9.4 1.6-2.7-.9-5.3-1.8-8-2.9-26.7-10.4-57.8-20-86.4-21.5-6-.3-11.2-1.2-15.6-5.6-.6-7.2-.6-7.2 1.1-9.6 5.4-4 15.9-1.5 22.2-.7z" fill="#3c2402"/></svg>