<svg xmlns="http://www.w3.org/2000/svg" width="1024" height="1536" xmlns:v="https://vecta.io/nano"><path d="M305.9 162.9c13.5 10.3 26.1 21.7 36.7 35.1q2.7 3.3 5.4 6.6c8.1 9.7 15.2 19.8 22 30.4q.7 1.1 1.5 2.3c6.1 9.6 11.6 19.3 16.5 29.6q1.6 3.2 3.1 6.4c23.5 47.9 35.6 99.4 43.8 151.8q.2 1.5.5 3 .6 4.3 1.3 8.6l.4 2.6c.6 4 1.1 7.7.9 11.7q1.1-.3 2.2-.6 1.5-.4 3.1-.8 1.4-.4 2.9-.7c11-2.5 22-3.6 33.2-4.5l2.5-.2c15.4-1.3 30.6-1.6 46.1-1.2q1.2 0 2.5 0c10.2.3 20.3 1.5 30.4 2.9q1.9.2 3.7.5c7.3 1 14.3 2.5 21.4 4.6q0-1.5-.1-3c.1-4 .6-7.4 1.4-11.3 1.2-5.8 2.2-11.6 3-17.5 5.9-43.8 16.3-86.5 33.7-127.2q.6-1.3 1.2-2.7c18.7-43.6 45.9-87.8 82.8-118.3q.7-.6 1.5-1.2c12.7-10.6 26-19 41.5-24.8q1.3-.5 2.7-1c10.9-3.6 24.8-3.8 35.3 1 3.2 1.7 3.2 1.7 6 4q.8.7 1.7 1.3c10.9 9.6 14.6 24.9 16.3 38.7.2 3.1.2 6.1.2 9.2a22.6 22.6 0 0 1 .1 2.6c.6 72.7-20.1 142-51.3 207.2q-.6 1.2-1.1 2.4c-8.6 17.9-18.6 35.2-29.6 51.6q-1.9 3-3.9 5.9c-5.4 8.4-11.2 16.3-17.4 24.1-1 1.3-1 1.3-2.1 2.6l-8.4 10.4q-1.2 1.4-2.5 2.9-1.1 1.4-2.3 2.8c-2 2.2-2 2.2-1.7 5.3 1.8 2.3 1.8 2.3 4.3 4.7 10.3 11 18.8 23.5 26.6 36.4q1.5 2.6 3.1 5.2c9.5 15.5 16.3 33.2 21 50.7q.3 1.2.7 2.5c5.1 18.2 7.4 36.7 9.7 55.4q1.4 11.6 2.9 23.2.5 3.7 1 7.5c1.1 9.2 2.3 18.4 3.9 27.5.8 5 .9 9.8.8 14.9h10c-3.7 1.8-6.2 2.5-10.1 3.2q-1.9.4-3.9.7l-2 .4q-5.5.9-11 1.9-1.2.2-2.4.4-13.7 2.5-27.3 5.1-2.8.5-5.6 1-3.9.7-7.8 1.5-1.1.2-2.3.4c-5.3 1-10.7 2.2-15.6 4.4-1.6 3.1-1.6 6.6-1 10 1.5 2 2.4 2.9 4.9 3.3 5.7-.1 11.2-.8 16.8-1.9q1.3-.3 2.7-.5 2.9-.5 5.8-1.1 4.4-.8 8.9-1.7 5.8-1 11.7-2.1 9.4-1.8 18.9-3.5c1.3-.2 1.3-.2 2.6-.5 5.3-.9 10.3-1.1 15.7-1 2.9 9.7.7 21-.5 30.8l-.4 3.6q-.6 4.3-1.1 8.6l9 1q0 .5 0 1c-9.4-.6-18.5-1.8-27.8-3.3-10.8-1.8-21.6-3.4-32.4-4.7q-3-.4-6-.8c-11.4-1.7-11.4-1.7-22.8-1.2-3.2 2.5-3.9 3.4-4.6 7.5.3 3.6.3 3.6 2.8 5.6 3.1 2.1 5.1 2.6 8.7 3q1.8.3 3.6.5l3.8.4q3 .4 6 .8 4.2.5 8.4 1 8.3 1 16.6 2 2.9.4 5.9.8c9 1.1 17.9 2.5 26.8 4.4-4.8 22-13.9 43.3-28 61q-.9 1.2-1.7 2.4c-8.8 11.5-20 22.9-31.8 31.4q-1.2.9-2.5 1.8-1.1.8-2.3 1.6c-2 1.7-2 1.7-1.9 4.5q.1 1.1.2 2.3-1-.5-2-1 0-1 0-2l-2.6 1.8c-35.1 24-74.2 38.9-115.8 46.9q-1.4.3-2.9.6-5.4.9-10.7 1.7-1.3.2-2.6.4c-17.8 2.5-35.4 3.1-53.3 3q-3.3 0-6.5 0c-20.8 0-41.1-.6-61.6-4.4q-1.6-.3-3.2-.6c-25.5-4.4-50.1-12.1-73.8-22.4-1.3-.6-1.3-.6-2.6-1.1-14.4-6.4-28.5-13.8-40.6-23.9-1.8-1.2-1.8-1.2-4-.7q-.9.4-1.8.7c-.3-1.1-.3-1.1-.7-2.2-1.6-3.4-3.2-4.7-6.1-6.9-27.9-22-52.4-51.5-60.2-86.9q0-2.5 0-5h-15q0-.5 0-1l2.7-.4q4.9-.8 9.9-1.6 2.1-.4 4.3-.7 3-.5 6.1-1 1.1-.2 2.1-.3 6.3-1.1 12.5-2.1a109.54 109.54 0 0 1 11.5-1.5c2.9-.2 5.1-.5 7.9-1.4q3.2-.4 6.4-.7 1.9-.2 3.8-.4 4-.3 8-.7 1.9-.2 3.9-.4 1.7-.1 3.5-.3c6.7-.9 6.7-.9 12.3-4.3 1.5-3 1.6-4.9 1.1-8.2-2.1-2.8-3.3-3.9-6.8-4.5-9.3.2-18.4 1.2-27.6 2.5q-3.6.5-7.3 1c-8.6 1.1-17.2 2.4-25.7 4.1-5 .9-9.6 1.2-14.6.9-1.9-4.2-2.6-8.3-3.1-12.8q-.2-1.1-.3-2.2c-.8-7.7-.8-15.3-.6-23q0-2 0-4 0-.5 0-1c6.5-.2 12.4.4 18.7 1.6q1.4.3 2.8.5 4.3.8 8.7 1.6 2.8.6 5.7 1.1l23.1 4.4q2.9.5 5.9 1.1a23.81 23.81 0 0 1 2.6.5c8.2 1.6 8.2 1.6 16.5 1.2 2-1.6 2.9-2.4 3.4-4.9V769v-2.1c-.5-2.5-1.4-3.3-3.4-4.9-2.6-.9-2.6-.9-5.6-1.5-1.8-.3-1.8-.3-3.6-.7l-3.8-.8q-2-.4-4-.8-6.5-1.3-13-2.6l-2.3-.4c-8.5-1.7-17-3.3-25.5-4.7q-1-.2-2-.3-4.8-.8-9.6-1.6-1.7-.3-3.4-.6-1.5-.2-3-.4-1.1-.3-2.2-.6-.5-1-1-2 1.5-.5 3-1 .2-1.6.3-3.2c1.2-10.8 2.6-21.6 4.2-32.3 2.1-13.7 3.9-27.3 5.1-41s3.4-27.1 6.4-40.5q.3-1.2.6-2.5c4.6-20.6 12.2-41 22.4-59.5q.9-1.7 1.9-3.5c9.1-16.6 20.5-32.2 34.1-45.5-1.7-4-4.4-6.9-7.2-10.1-11.5-13-21.4-27.3-30.8-41.9q-.6-.9-1.2-1.9c-7.4-11.4-14.2-23.2-20.8-35.1-.7-1.2-.7-1.2-1.4-2.5-37.5-68.2-77.6-168.6-56.6-247.6 3.5-11.9 9.4-23.3 20-30.2 24.5-13.1 52.8 1.2 72.9 16.2zM727 985c3.3 2.7 4.6 6.2 6.1 10.1q.3.9.7 1.8c1.4 3.5 2.4 6.8 2.9 10.5 1.6 8.2 5.3 15.8 8.5 23.4q1.1 2.6 2.2 5.2 1.6 4 3.3 8.1 5 12 9.9 24.1l32.4 78.2q1 2.3 2 4.6a71.62 71.62 0 0 1 1.2 2.7c.6 1.3.6 1.3 1.1 2.7q.5 1.1 1.1 2.4c.7 2.5.6 3.7-.4 6.2-2.3 2-4.5 3.8-7 5.6q-1.1.7-2.2 1.5c-7.1 5.2-14.5 10-21.9 14.7q-2.5 1.6-5 3.2c-6.2 4-12.4 7.6-18.9 11q-1.6.9-3.2 1.8c-19 10.3-38.4 19.2-58.8 26.2q-1.5.5-3 1c-35 11.9-71.9 18.5-108.7 21.6q-1.2.1-2.3.2c-16.5 1.4-32.9 1.7-49.4 1.6q-5.8 0-11.6 0c-16.5.1-32.8-.4-49.3-1.8q-1.1-.1-2.2-.2c-15.3-1.3-30.4-3.6-45.5-6.4q-1.6-.3-3.2-.6c-34.5-6.5-67.8-17.2-99.8-31.4q-1.3-.6-2.7-1.2c-27.2-12.1-53.1-28.1-76.3-46.8.6-4.7 1.9-8.8 3.8-13.1l.8-2q.9-2.2 1.8-4.3 1.5-3.5 2.9-6.9 1.9-4.7 3.9-9.4 3.6-8.7 7.2-17.4.6-1.6 1.3-3.2l13.1-32.6q9-22.7 18.2-45.3.9-2.1 1.7-4.2 1.8-4.4 3.6-8.7.5-1.3 1.1-2.7.5-1 .9-2.1c1.1-3.5 1-6.5.7-10.1q1 0 2 0 0 1 0 2 1.2.3 2.4.7c4.6 1.7 8.6 4.1 12.8 6.6 36.6 21.2 77.2 38.5 118.8 46.7q1.6.3 3.3.6c29.4 5.8 58.3 8.8 88.3 8.7h3.6c18.1-.1 35.9-.5 53.8-3.3 1-.2 1-.2 2.1-.3 22.5-3.6 44.2-8.7 65.9-15.7q1.4-.4 2.9-.9c29.1-9.3 56.2-23.5 82.1-39.5q1.2-.7 2.3-1.5l2-1.2c1.7-.9 1.7-.9 3.7-.9q-.8-1.8-1.5-3.6-1-2.4-2-4.7l-1-2.4q-.5-1.1-1-2.3c-.4-1-.4-1-.9-2.1-.6-1.9-.6-1.9-.6-4.9z" fill="#fef2d2"/><path d="M322 927c2.8 1.3 5.3 2.8 7.9 4.5 27.5 17.8 56.4 30 88.1 38.5 1.2.3 1.2.3 2.4.7 13.3 3.5 27 5.5 40.6 7.3q1.8.3 3.7.5c15.2 2.1 30.6 1.9 45.9 1.9h2.2c21.6 0 42.8-.4 64.2-4.4q1.9-.3 3.8-.7 12.7-2.3 25.2-5.3 1.4-.3 2.9-.7c30.1-7.4 64.6-20.9 89-40.6 2.1-1.7 2.1-1.7 4.1-1.7q8.5 19.9 17 39.7 3.5 8.1 7 16.3 1.9 4.4 3.8 8.9l1.4 3.1q.5 1.3 1.1 2.7.5 1.2 1 2.4c.7 1.9.7 1.9.7 4.9-34.3 20-68 37.1-106 49-1.4.4-1.4.4-2.8.9-52.6 16.2-112 19-166.2 11.1l-3.2-.4c-59.6-8.3-114.1-30.4-165.8-60.6 2.4-9.7 6.5-18.7 10.4-27.8q2.2-5.1 4.4-10.2.5-1.2 1-2.5 3.5-8.2 6.9-16.4.4-1 .8-2.1 1.6-3.8 3.2-7.7 1.1-2.6 2.1-5.2.6-1.4 1.2-2.9c1-2.2 1-2.2 2-3.2z" fill="#fe4c40"/><path d="M284.5 213.8c6.9 3.1 12.1 7.9 17.5 13.2l2.7 2.5c13.2 12.6 22.8 28 32.3 43.5q.7 1.2 1.5 2.4c21.6 35.2 35.8 77.2 43.5 117.6q.5 2.4.9 4.8 1.1 5.6 2.1 11.2.3 1.6.6 3.1.8 5 1.4 9.9.1 1 .3 2.1c.6 4.9 1.1 9.9 1.5 14.9q.2 3.2.5 6.4c2 20.3 2 20.3-1.7 25.7-3.7 3.3-8 5.2-12.6 7-2.9 1.3-5.3 3.1-7.7 5.1-3.7 2.8-3.7 2.8-6.3 2.7-2.7-1.2-4.1-2.9-6.1-5.2q-1.1-1.3-2.4-2.7-1.2-1.5-2.5-3-1.3-1.4-2.6-2.9c-7.8-8.9-14.6-18.4-21.4-28.1-.6-.9-.6-.9-1.3-1.8-24-34.2-41.1-72.6-53.7-112.2q-.5-1.5-1-3c-7.9-24.9-12.2-50.7-12.3-76.8q0-1 0-2.1c-.1-12.1.4-21.6 8.3-31.1 5.5-5.1 11.6-5.4 18.5-3.2zm469.7 1.6c5.7 3.2 8.8 8.7 10.9 14.8.9 3.9 1.2 7.2 1.2 11.2v2.1q0 3.3 0 6.6v2.3c-.1 12.5-.9 24.4-3.3 36.6q-.3 1.5-.6 3c-8.5 46.8-26.5 92.6-51.4 133q-.6 1-1.2 1.9c-10.5 17-22.3 33.3-35.8 47.9q-2.1 2.4-4.1 4.8c-2 2.6-4.3 4.4-6.9 6.4-4.2-1.4-7.2-3.5-10.7-6.3q-1.4-1.1-2.9-2.2-.7-.6-1.5-1.3c-1.9-1.3-1.9-1.3-4.5-2.3-3-1.4-5.1-2.5-7.4-4.9-1.4-5.1-1.1-10.1-.9-15.4q.1-2.3.1-4.5c.7-22.5 3.9-44.7 9.2-66.5q.9-3.8 1.7-7.6c11.8-54.5 39.7-124.7 87.6-157.6 6.6-3.9 13.3-5 20.5-2z" fill="#feb298"/><path d="M491.1 725.5q2.5 0 5 0 5.3-.1 10.5 0 6.7 0 13.4 0 5.2-.1 10.4 0 2.5 0 4.9 0c16-.1 16-.1 22.7 4.5 4.7 5 5.4 9.2 5.4 15.9-1.3 11.1-8.1 21-16.4 28.1q-2.9 2.1-5.9 4.1-1.5 1-3.1 2c-3 1.9-3 1.9-5.8 3.1-2.9 1.3-4.3 2.1-6.2 4.8-1.8 8.2-1.5 18.7 2.7 26.2q.7.9 1.3 1.8.7 1 1.4 2.1c5.9 8.7 13.4 12.5 23.6 14.9 10.4 1.5 19.7-2 29-6.3q1.3-.6 2.7-1.2 2.6-1.3 5.1-2.6c5.7-2.7 9.1-3.4 15.2-1.9 2.4 1.9 3.7 3.3 5 6 .3 5-.3 8.2-3.6 12.1-16.5 12.2-38.5 18.8-59 16.6-14.4-2.4-26.5-10-36.4-20.7-3.3 1.4-5.5 3.3-8.1 5.7-12.5 11.3-27.4 15.8-44 15.6-15.6-1.1-36-7.7-46.9-19.3-2.1-3.5-2.6-5.9-2-10 1.8-2.9 3.9-5.4 7-7 6-.8 10.2 1.7 15.3 4.3 9.4 4.7 17.5 8.3 28.1 8.1q1.3 0 2.6 0c10.6-.3 17.1-3.6 24.9-11 4.7-5.3 7.1-11.3 7.4-18.3q.1-1.4.1-2.8.1-1.5.2-3c0-1.5 0-1.5.1-3q.2-3.6.3-7.3-1-.3-1.9-.6c-14.2-6.4-27.1-17.7-33.2-31.9-2.2-6.1-3.3-12.6-1.1-18.8 6.4-11.4 17.9-10.3 29.3-10.2z" fill="#4e3f2b"/><path d="M395.4 628c8.7 5.1 14 13.4 17.2 22.8 2 11.4.8 23.1-5.3 33-4.3 5.9-9.9 11.6-17.3 13.2-8.2.8-15.1.8-22-4q-1.3-.8-2.6-1.7c-8.3-8.1-12.4-18.8-12.9-30.4.4-10.5 4.4-20.1 11.5-27.9 9.1-7.4 20.3-10.1 31.4-5z" fill="#014854"/><path d="M653 628.1l4 2.9q.9.7 1.9 1.4c6.9 6 10.9 14.3 11.6 23.3.4 13.2-1.4 24.1-10.5 34.3-8.3 6.8-15.4 8-26 7-7.9-2.2-13.4-7.4-18-14-5.8-10.4-7.1-23.4-4.2-35 .9-2.2 1.9-4.1 3.2-6q.8-1.5 1.7-3.1c8.8-11.2 22.4-18.1 36.3-10.8z" fill="#014853"/><path d="M842.6 736.5l2.1-.1c3.6 0 5.1.4 7.8 2.9 1.5 2.7 1.5 2.7 1.5 6.3-1.1 3.9-1.6 5.2-5 7.4-8.3 2.4-17.2 2.9-25.8 3.9-40.6 4.7-81.3 11.2-121.2 19.8-4.9.8-9.2 1.3-13.6-1.2-1.9-3.4-2.4-6.7-1.4-10.5 2.8-3.3 4.9-4.6 9.1-5.5q1.6-.4 3.2-.7 1.8-.4 3.7-.8 1-.2 2-.4 8.3-1.8 16.6-3.4 1.3-.2 2.6-.5c28-5.4 56.2-9.9 84.4-13.7q3-.4 5.9-.8c9.3-1.3 18.7-2.4 28.1-2.7z" fill="#4c3d29"/><path d="M178.5 736.4l2.2.1q1.2 0 2.4 0c10.9.4 21.7 2 32.5 3.6q3.5.4 6.9.9c20.3 2.9 40.4 6.2 60.5 10q1.2.2 2.5.5 8.6 1.6 17.2 3.3 1.1.2 2.2.4 7.1 1.4 14.1 2.8 1.9.4 3.8.7 1.7.4 3.5.8 1.5.3 3 .6c3.1 1.1 4.6 2.4 6.7 4.9 1 3.8.5 7.1-1.4 10.5-6.1 3.5-14.3 1.2-20.8 0q-1.3-.3-2.7-.5-2.7-.5-5.5-1.1-7.5-1.4-14.9-2.7-1.5-.3-3.1-.6c-23.3-4.3-46.7-8-70.2-11.3q-1.6-.3-3.2-.5-4.5-.6-9-1.3-1.4-.2-2.9-.4c-4.5-.6-9-1.2-13.5-1.6q-1.3-.1-2.5-.2-2.3-.2-4.6-.4c-4.9-.4-7.9-1.8-11.7-4.9-1.4-2.9-1.3-4.8-1-8 2.5-4.4 4.4-5.6 9.5-5.6z" fill="#4c3e29"/><path d="M333.4 800.1c1.9 3.4 2.3 5 1.6 8.9-2 3.6-3.3 4.8-7.2 6.1-3.6.9-7 1.4-10.7 1.7q-1.9.2-3.9.4-1.9.2-3.9.4-4 .3-7.9.7-1.7.2-3.5.3c-3 .3-3 .3-5.9 1.4q-3.6.5-7.3.9-2.1.3-4.3.6l-2.3.2c-19.5 2.4-38.7 5.9-58 9.9q-1.4.3-2.8.6c-13.1 2.8-13.1 2.8-26.1 6.2-3.8 1-7.4 1.4-11.2.6-3.5-2.4-4.8-3.8-5.6-8 .8-4 2.5-5.3 5.6-8 2.9-1.2 2.9-1.2 6.1-2q1.8-.5 3.7-1 2.1-.5 4.2-1 1.1-.3 2.2-.5c5.9-1.4 11.7-2.6 17.6-3.8q1.4-.3 2.8-.6 40.8-8.5 82.1-14 1.2-.2 2.4-.4c26-3.5 26-3.5 32.3.4z" fill="#4d3e29"/><path d="M724.1 800.1q1.2.2 2.5.4c17.9 2.3 35.7 5.2 53.4 8.5q1.1.2 2.3.4 16.9 3.2 33.7 6.6 1 .2 2 .4 6.5 1.3 12.9 2.7 1.5.3 3.2.7c5.9 1.3 9.7 2.7 13.9 7.2 1.3 3.7 1.4 5.2-.3 8.8-1.7 2.2-1.7 2.2-3.7 3.2-7 .4-12.7-.7-19.4-2.6-35.3-9.2-71.4-14.5-107.6-18.6l-2.3-.2q-5.1-.6-10.3-1.1c-6.6-.7-11-1.3-15.4-6.5-.8-4.3-.5-6.2 1.7-9.9 8.7-5.5 23.5-1.3 33.4 0z" fill="#4c3d29"/></svg>