<svg xmlns="http://www.w3.org/2000/svg" width="1024" height="1536" xmlns:v="https://vecta.io/nano"><path d="M287 151c18 13.7 33.4 29.9 47 48q.7 1 1.5 2c19.2 25.7 35 53.4 49.5 82q.6 1.2 1.2 2.4c20.2 39.5 29.4 84.5 37.3 127.8q.2 1 .4 2.1c2.1 11.6 3.3 22.9 3.1 34.7q.9-.3 1.9-.6c8-2.3 16.2-3.7 24.5-5q1-.1 2.1-.3 7.3-1.1 14.5-2.1 1.4-.2 2.9-.4c40.6-5.6 84.5-1.6 124.1 7.4q0-1.1-.1-2.1c-.4-10.5 1.5-20.6 3.1-30.9q.2-1.3.4-2.6c12.4-79.3 41.5-153.3 91.6-216.4q1.1-1.4 2.2-2.8c5.9-7.4 12.3-14.3 18.8-21.2q.8-.9 1.6-1.7c17.5-18.5 40-36.8 66.5-38.5 13.5-.2 24.7 2.1 35.1 11.1 10.6 10.8 14.3 25.5 16.8 40.1q.3 1.5.5 3c1.7 10.2 1.9 20.3 1.9 30.6q0 1.3 0 2.7c0 19.2-2.1 37.8-5.4 56.7q-.3 1.9-.7 3.9c-7.9 44.8-23 88.9-44.3 129.1l-1.2 2.2C770 438.5 753.6 462.9 735 486q-.8 1-1.6 2c-5.7 7.1-11.5 14.1-17.4 21 1.7 3.7 3.8 5.9 6.9 8.8 36.9 35.9 46.9 86 52.4 135 1.8 15.9 4.2 31.2 7.9 46.7 1.6 7.2 2.9 14.4 4.2 21.6q.2 1.1.4 2.2c2.2 12.2 2.2 12.2 2.2 15.7l3.3-.4c42.6-5.6 42.6-5.6 62.7-6.6q1.4-.1 2.8-.2 3.8-.1 7.6-.2 1.1-.1 2.2-.1c3.7-.1 5.1.2 7.8 2.8 1.9 3.3 2.1 5 1.6 8.7-1.8 3.1-2.5 3.8-6 5q-3.9.4-7.9.6-2.5.2-5 .4c-1.3 0-1.3 0-2.6.1-21.6 1.5-43 3.6-64.5 5.9q.2.8.5 1.7c.5 2.3.6 4.3.6 6.7q0 1.3 0 2.6 0 1.4 0 2.8 0 1.4 0 2.9 0 4.5 0 9.1 0 3-.1 6.1 0 7.6 0 15.1c1.5.2 1.5.2 3 .3 19.8 2.4 39.6 5.9 58.8 11.3q1.5.4 3 .9l2.8.8q1.2.3 2.4.7c2.5 1.2 3.5 2.6 5 5 .6 3.7.2 5.6-1.4 8.9-2.6 2.1-2.6 2.1-4.5 2.2-5.5-.8-10.8-1.8-16.2-3q-1.3-.3-2.6-.6-2.6-.6-5.3-1.2-6.9-1.5-13.8-3.1-1.3-.3-2.7-.6-11.4-2.5-22.9-4.5c-5.4-1-5.4-1-7.6-2.1q-.2.9-.3 1.8c-5.5 29.4-20.1 57.8-40.4 79.7q-1.8 2.1-3.6 4.2c-6.4 7.3-13.6 14.9-21.7 20.3.6 4.1 1.5 7.6 3.1 11.4q.7 1.6 1.3 3.2c.8 1.7.8 1.7 1.5 3.5q1.3 3 2.5 5.9.9 2.2 1.8 4.3 5.4 12.8 10.6 25.7.5 1.3 1.1 2.6l24.9 61.5a23.4 23.4 0 0 0 .9 2.4q11.8 29.3 23.6 58.7l.8 2q.8 2 1.6 4 2 5 4 10 .5 1 .9 2.1 1.1 2.8 2.3 5.6c1.1 3.1 1.1 3.1 1.1 7.1-11 13.8-31 23.4-46 32q-1.3.7-2.6 1.5c-32 18.2-66.2 32.1-101.4 42.5q-1.2.3-2.4.7c-52.8 15.3-106.9 20.1-161.6 19.3q-1.6 0-3.3 0c-87.5-1.5-184.8-30-272.7-96 .7-4 1.9-7.4 3.4-11.2q.4-.9.7-1.8.9-2.1 1.7-4.1 2.4-5.9 4.7-11.7c.5-1.3.5-1.3 1.1-2.6l15.9-40.4q9.4-24 19-47.9 4.8-11.9 9.5-23.9 3.2-8 6.4-15.9 2.7-6.9 5.4-13.7 2.7-6.7 5.4-13.4 1-2.5 2-5.1 1.4-3.5 2.8-7 .4-1 .9-2.1c1.2-3.1 2.5-6.2 4.1-9.2q-.8-.3-1.6-.6c-3.3-1.9-6-4.5-8.7-7.1q-.9-.8-1.8-1.6-2.4-2.4-4.9-4.7c-1-1-1-1-2.1-2-5.1-4.9-9.5-10.4-13.9-16q-.6-.8-1.3-1.6c-14-17.9-24.1-38-30.6-59.7q-.4-1-.7-2.1c-1-3.6-1.5-6.8-1.4-10.6q-10.9 2.2-21.8 4.5-3.7.7-7.4 1.5c-18.1 3.7-18.1 3.7-36 8.3-2.8.7-5 1-7.8.7-2.8-2.6-3.9-4.2-4.5-8 .7-3.9 1.6-5.2 4.5-8 3.2-1.4 6.5-2.1 9.9-2.9q1.5-.4 3-.8c13.3-3.2 26.7-5.8 40.1-8.3l3.1-.6 2.9-.6q1.2-.2 2.4-.5c3.2-.4 6.4-.4 9.6-.3q0-.8 0-1.7 0-8.7-.1-17.4 0-3.3 0-6.5 0-4.7 0-9.4 0-1.4 0-2.9 0-1.4 0-2.7 0-1.2 0-2.5c.1-1.9.1-1.9 1.1-3.9q-19.5-2-38.9-3.8-2.8-.3-5.5-.5-4.1-.4-8.2-.8-1.3-.1-2.7-.2c-4.2-.4-8.4-.8-12.6-.9-1.2-.1-1.2-.1-2.4-.1q-2.1-.1-4.3-.2c-4.3-.1-7-.9-10.4-3.5-1.4-2.9-1.3-4.8-1-8 1.5-2.7 1.5-2.7 4-5 3-.5 5.3-.7 8.3-.6q1.3.1 2.7.1c24.4.7 48.9 4.3 73 7.5q.1-.9.1-1.8c.6-6.4 1.6-12.6 2.9-18.9.2-1.5.2-1.5.5-3q1-4.7 1.9-9.4.6-3.1 1.2-6.3.3-1.5.6-3.1.6-3 1.2-6.1 1.2-6.3 2.5-12.7c1.9-9.9 3.1-19.7 4.1-29.6 4.6-43.1 14.2-83.8 40.8-119.1q.8-1 1.5-2c4.6-6 9.5-11.6 14.7-17-1.5-3.3-3.3-5.6-5.8-8.2-16.8-18.3-30.5-39.6-43.2-60.8l-1.4-2.4c-7.8-12.9-14.8-26.2-21.6-39.6q-.6-1.3-1.3-2.6c-12.2-24-21.3-49.5-28.7-75.4l-.6-2.2c-1.3-4.3-2.4-8.5-3.4-12.8q-.3-1.2-.6-2.3c-9.8-39.8-16.8-87.1-7.4-127.7q.4-1.9.8-3.8c3.3-13.1 9.4-26.1 21.1-33.5 25.3-14.2 51.3-3.6 73.1 12.3z" fill="#9b5d00"/><path d="M273 989c3.3 1.5 6.1 3.5 9 5.7 5.9 4.3 12 7.8 18.4 11.2q1.7.9 3.5 1.9c26.5 13.9 54.2 23.5 83.1 31.2q1.2.3 2.4.7c38.2 10 77.9 13.7 117.3 13.6q5.8-.1 11.7 0c16 0 31.7-.7 47.6-2.3q1.1-.1 2.2-.2c31-3 62.1-9.4 91.8-18.8q1.7-.5 3.4-1.1c26.9-8.6 56.2-19.1 78.8-36.5 2.5-1.9 5.1-3.7 7.8-5.4 3.7 7.1 6.7 14.4 9.6 21.9q.8 2 1.7 4.1 2.1 5.4 4.3 10.8 3.3 8.5 6.7 17 .9 2.1 1.7 4.3l19 46.9q3.5 8.6 7 17.1.8 2.2 1.7 4.4 1.4 3.3 2.7 6.6a36.47 36.47 0 0 1 .8 1.9c1.3 3.3 1.8 5.4 1.8 9-11 13.8-31 23.4-46 32q-1.3.7-2.6 1.5c-32 18.2-66.2 32.1-101.4 42.5-1.2.3-1.2.3-2.4.7-52.8 15.3-106.9 20.1-161.6 19.3q-1.6 0-3.3 0c-87.5-1.5-184.8-30-272.7-96 .7-4 1.9-7.4 3.4-11.2q.4-.9.7-1.8.9-2.1 1.7-4.1 2.4-5.9 4.7-11.7.5-1.3 1.1-2.6l14.5-36.9 19.2-48.5q5.5-13.6 10.7-27.2z" fill="#9a5d00"/><path d="M300 924c5.3 2.8 10.6 5.7 15.7 8.9 4.2 2.5 8.6 4.8 13 7q.9.5 1.8.9 3.2 1.6 6.5 3.2 1.6.8 3.3 1.6c9.2 4.5 18.6 8.1 28.4 11.3l2.3.8c26.3 8.7 53.5 14.3 81 17.3q1 .1 2 .2c33.4 3.8 67.7 4.9 101.2 1.1q4.4-.5 8.8-.9c25.2-2.4 49.9-7.7 74.2-14.5q1.1-.3 2.2-.6c14.8-4.1 29-9.4 43-15.6l3.3-1.4c11.7-5.3 23.3-10.8 33.7-18.3 1.6-1 1.6-1 3.6-1l26 64c-31.4 32.3-87.6 46.4-130.1 55.4q-3.8.8-7.6 1.7c-11.7 2.6-23.6 4.1-35.6 5.6q-1.2.1-2.5.3c-20.9 2.6-41.5 3.2-62.5 3.3q-1 0-2.1 0c-21.6 0-43.1-.6-64.6-3.3q-1.7-.2-3.4-.4c-53.1-6.6-128.8-21.9-167.6-61.6 2.1-7.6 4.8-14.9 7.8-22.2l1.4-3.5q1.4-3.5 2.9-7.1 2.2-5.5 4.4-10.9 1.4-3.5 2.8-7 .7-1.6 1.3-3.3.7-1.5 1.3-3 .5-1.4 1.1-2.7c1-2.3 1-2.3 3-5.3z" fill="#006875"/><path d="M255 194c9.6 3.5 17.6 9.1 25 16q.8.7 1.5 1.4c20.3 18.8 34.8 42.8 48 66.9q2.1 3.7 4.2 7.4C347 309.9 355 335.5 362 362c.5 1.7.5 1.7.9 3.4 8.7 33.1 13.6 66.4 13.1 100.6q-1.4.6-2.8 1.3c-17.3 7.6-17.3 7.6-33.2 17.7-29-12.1-52.9-70-65.8-96.5q-2.2-4.5-4.5-9c-10.1-20-16.4-40.6-21.2-62.5q-1.3-5.5-2.6-10.9l-.4-2c-.8-3.6-1.8-7-3-10.5-2.3-7.5-3.1-15.4-4.1-23.2q-.4-2.3-.7-4.7-.9-6.3-1.7-12.7l-.4-2.6c-.8-6.5-.9-13.1-.9-19.8q0-2-.1-4.1c-.2-10.5.4-20.1 8-28.1q.9-.9 1.8-1.9c3.3-3.1 6.2-2.8 10.6-2.5z" fill="#663100"/><path d="M777 194c4.1 2.7 6.1 5.4 8.3 9.8.7 1.5.7 1.5 1.5 3 7.1 18.5 1.9 44.2-.8 63.2q-.2 1.5-.4 3c-5.1 37.1-16.5 75.1-32.6 109q-.6 1.3-1.2 2.6c-10 21.3-22.1 42.1-35.8 61.4q-.8 1.1-1.6 2.2c-7.7 11-15.9 21.2-25.4 30.8q-1.3 1.4-2.7 2.8C684 484 684 484 681 485c-2.3-1.2-4.4-2.5-6.6-3.9-5.8-3.6-11.8-7-17.8-10.2q-1.2-.5-2.3-1.2-2.7-1.3-5.3-2.7c-.6-42 5.9-81.9 18-122.1q.3-1 .6-2c4.2-14 9-27.7 15.4-40.9q.7-1.4 1.4-2.9c13.7-27.9 30.6-55.2 51.2-78.5q1.9-2.2 3.7-4.4c8.1-9.5 23.9-25.9 37.7-22.2z" fill="#673100"/><path d="M481.1 713.8h2.2q3.5 0 7.1 0 1.2 0 2.5-.1 6.5 0 12.9 0 6.7 0 13.4-.1 5.1 0 10.2 0 2.5 0 5-.1c15.9-.1 15.9-.1 22.6 4.5 5.2 5.2 7.2 10.6 7.4 17.7-.3 12.7-6.6 23-15.6 31.5-7.6 6.4-16.1 10.2-25.8 11.8.3 14.2 3.8 26.7 13.9 36.9 9.5 8.8 21.4 12.9 34.4 12.5 12.9-1.4 26.5-4.9 35.8-14.6 1.9-1.8 1.9-1.8 5.2-2.4 4.2.7 6.3 1.8 9.4 4.7 2 2.9 2.3 5.1 2 8.6-2.4 8.2-11.4 13.8-18.3 17.9-10.3 5.4-21.8 8.9-33.4 9.4l-3.1.2c-16.2.6-34.2-4.2-46.5-15.3-7.6-7.3-7.6-7.3-9.4-10.9-3.4 1.1-4 2-6.2 4.7-11.7 13.6-29.2 20.1-46.7 21.6-18.8.5-38.2-4.9-52.5-17.4-4.3-4.1-7.2-7.3-8.2-13.3.7-4.4 2-5.8 5.5-8.5 2.8-1.5 4.9-2 8.1-1.8 3.3 1.1 5.3 3.4 7.8 5.8 10 8.6 23.8 11.6 36.7 11.2 12.6-1.2 24-6.8 32.7-16 7.8-10 9.8-21 10.8-33.3q-.9-.2-1.8-.4c-14.7-4-28.1-12.5-35.8-25.8-3.4-6.8-5.8-14.2-4.4-21.8 2.3-6.8 5.9-12.1 12-16 3.5-1.2 6.4-1.1 10.1-1.2zm-92.9-81.5c8.5 6 14.7 13.3 16.8 23.7 1.3 13.2.2 24.8-7.9 35.7-5.5 6.1-12.5 10.9-20.8 11.5-10.2.3-17.4-1.7-25.2-8.2-8.8-8.5-11.9-18.9-12.3-30.8.1-10.1 4.1-19.6 10.9-27 10.9-9.9 25.4-12.5 38.5-4.9z" fill="#013542"/><path d="M663.6 630.6c9.7 5.7 16 13.9 18.9 24.6 2.1 11.8.2 23.5-6 33.7-4.6 6.3-10.9 11.2-18.5 13.1-8.6 1-16.4.4-24-4-2.8-2.3-2.8-2.3-5-5q-.7-.8-1.5-1.5c-8-8.5-9.8-19-9.7-30.4.7-10.7 5.7-19.3 13.3-26.6 9.4-7.5 21.6-8.9 32.5-3.9z" fill="#003542"/><path d="M858.3 731.9q3.7-.2 7.4-.3 1.1 0 2.3-.1c3.9 0 5.6.1 8.5 2.8 1.8 3.3 2 5 1.5 8.7-1.8 3.1-2.5 3.8-6 5q-4 .4-8 .6-2.5.2-5 .4-1.3 0-2.7.1c-44.6 3-88.9 9-132.8 17.4l-3.3.6c-5.8 1.1-11.4 2.5-17.1 4.3-3.1.9-5.9 1-9.1.6-2.1-1.6-2.9-2.5-3.5-5.1 0-1.2 0-1.2-.1-2.3q0-1.2-.1-2.3c.9-2.9 2.2-3.9 4.7-5.4 4-1.9 8.3-2.8 12.6-3.9q1.3-.4 2.7-.7c18.5-4.7 37.4-7.4 56.3-9.9q6.5-.8 13-1.7 1.6-.2 3.2-.4 10-1.4 19.9-2.9a480.43 480.43 0 0 1 24.1-3q1.9-.2 3.8-.4c9.2-.9 18.4-1.6 27.7-2.1zm-700-.5q1.4.1 2.8.1c130.7 4.2 130.7 4.2 169.9 27.5 2.3 3.5 2.4 4.9 2 9-1.1 2.4-1.1 2.4-3 4-4.7.3-8.8-.2-13.3-1.4q-1.8-.4-3.6-.8-1.9-.5-3.9-1c-38.1-9.2-76.9-13.9-116-17.6q-1.6-.2-3.3-.3-4.7-.5-9.4-.9-1.5-.2-3.1-.3c-4.5-.4-9-.8-13.5-1-1.2 0-1.2 0-2.4-.1q-3.1-.1-6.1-.2c-3.6-.4-5.5-1.2-8.4-3.4-1.4-2.9-1.3-4.8-1-8 3.1-5.5 6.4-5.8 12.3-5.6zm552.3 61a13.4 13.4 0 0 1 2 .1c16.6.1 32.9 2.1 49.4 4.2q4.5.6 9 1.1c28.3 3.5 57.4 8.1 84.8 16q1.4.4 2.8.8c3.5 1.1 5.8 1.8 8.4 4.4 1.4 2.9 1.5 4.8 1 8-1.4 2.9-1.4 2.9-4 5-6 .2-12.2-1.6-18-2.9q-1.2-.3-2.5-.6-2.6-.5-5.3-1.1-6.9-1.6-13.8-3.1-1.4-.3-2.8-.6c-19.7-4.4-39.5-8.2-59.6-10.7q-1-.1-2-.3c-9.7-1.2-19.3-1.9-29-2.2q-1.5 0-3.1-.1-6.3-.2-12.6-.4-4.6-.1-9.3-.2-1.4-.1-2.9-.1c-6.4-.2-6.4-.2-9.7-2.5-2.1-3.3-2-5.4-1.4-9.2 4.4-6.9 11.1-5.7 18.6-5.6z" fill="#033340"/><path d="M310.3 792.4q1.1 0 2.3-.1 3.2 0 6.5 0l3.7.1c4.1.8 5.5 2.5 8.2 5.6q.5.5 1 1c.3 2.3.3 2.3 0 5-2.2 2.8-3.6 3.9-7 5q-2.1.2-4.2.2l-2.5.1q-1.4 0-2.8.1-3 .1-6 .1l-3.1.1c-16.7.6-33.3 1.5-49.8 3.8q-1.1.2-2.2.4-7.2 1-14.4 2.2-1 .2-2 .3c-11.3 1.9-22.6 4.2-33.8 6.6q-4.2.8-8.4 1.7c-9.4 1.9-18.6 4-27.8 6.7-2.8.7-5.1 1-8 .7-2.8-2.6-3.9-4.2-4.5-8 .7-3.9 1.6-5.2 4.5-8 3.2-1.4 6.5-2.1 9.9-2.9q1.5-.4 3-.8c44.5-10.7 91.6-19.6 137.3-19.9z" fill="#023340"/></svg>