<svg xmlns="http://www.w3.org/2000/svg" width="1024" height="1536" xmlns:v="https://vecta.io/nano"><path d="M275.3 163.2c17.4 12.9 32.3 28.9 45.7 45.8q.8.9 1.5 1.9c9.1 11.4 17.5 23 25.5 35.1q.6.9 1.2 1.9C379 292.4 400.3 342.3 414 394q.4 1.5.8 3c6.7 25.4 11.3 51.4 14.6 77.4.3 1.9.3 1.9.5 3.8 1.1 8.7 1.3 17.1 1.1 25.8q1.2-.3 2.4-.6c10.1-2.5 20.3-4.1 30.6-5.4q1.3-.2 2.6-.3c33-3.9 68.6-4.1 101.4 1.3q1.7.3 3.4.5 10.3 1.7 20.6 3.5v-3.2c.7-39.7 9.3-81.9 21-119.8q.5-1.7 1.1-3.5c16.1-52.5 39.5-102 71.9-146.5q.7-1 1.5-2.1c7.1-9.7 14.5-18.9 22.5-27.9q1.3-1.4 2.6-2.9 4.1-4.6 8.4-9.1.9-1 1.9-2c17.4-18.2 39.2-37.8 65.8-38.4 12.5.4 21.7 4.4 30.5 13.5 8.4 10 11.5 22.3 13.8 34.9a27.6 27.6 0 0 0 .5 2.5c4.8 27.4 2.4 55-.3 82.5q-.3 2.6-.5 5.2c-3.7 37-13.3 73.6-24.7 108.8-.5 1.6-.5 1.6-1.1 3.3C788.7 454.9 759 507.1 719 551q-2.3 2.6-4.6 5.1-.9 1.1-2 2.3-.7.8-1.4 1.6c3.2 3.9 6.5 7.6 10.2 11.1 30.3 30 46.3 71.2 54.7 112.2.3 1.8.3 1.8.7 3.8 3 14.5 5.5 29.2 7.9 43.8q1.3 8.1 2.7 16.2.2 1 .4 2c1.9 11.5 4.1 23 6.5 34.4q.4 1.8.8 3.6.3 1.5.6 3.1c.5 2.7.6 5.1.5 7.8q1.5-.2 3-.5c52.7-8.9 52.7-8.9 68-9.5 1.2-.1 1.2-.1 2.5-.1q4-.2 8.1-.3 1.2-.1 2.6-.2c5.9-.1 5.9-.1 8.5 1.8 2.4 2.8 3.3 4.8 3.9 8.4-.8 4.3-2.3 5.7-5.6 8.4-2.3 1.2-4.1 1.3-6.7 1.6q-1.5.2-3 .4-1.6.1-3.2.3-1.7.2-3.4.4-5.4.6-10.8 1.2-7 .7-14 1.5-1.8.2-3.5.4-13.3 1.5-26.6 3.3c-5.3.7-10.4 1-15.8.9q.2 1.2.4 2.4c2 12.2 2.7 24 2.7 36.3q0 1.6 0 3.3v3 2.8c-.1 2.2-.1 2.2-1.1 4.2q1.9.1 3.9.3c8 .8 15.7 2.6 23.5 4.4q1.2.3 2.4.5c42.4 9.5 42.4 9.5 48.9 16.7 2 3.3 2.1 6.3 1.3 10.1-2.1 2.7-3.6 3.7-6.9 4.4-4.5.2-8-.6-12-2.2-6.6-2.5-13.2-4-20-5.6q-1.9-.4-3.9-.9L798 887q-.3 1.2-.6 2.3c-7.3 30.4-24.6 56.8-46 79.3q-2 2.1-4 4.2c-17 17.7-39.2 31.1-61.4 41.2-1.2.5-1.2.5-2.4 1.1-32.3 14.6-66.5 23-101.6 27.9q-2 .3-4 .6c-22.2 3.3-44.3 3.8-66.7 3.8h-2c-23.6 0-47.1-.7-70.4-4.1q-1.8-.2-3.6-.5c-32.1-4.8-63.5-12.8-93.3-25.8-1-.4-1-.4-2.1-.9-48.8-20.9-89.1-59.9-109.4-109.1-2.5-6.5-4.1-13.2-5.5-20-14.5 2.2-28.7 5.5-42.9 9.1q-1.3.3-2.7.6-3.8 1-7.6 2c-1.2.2-1.2.2-2.4.5-3.6 1-7.2 2-10.7 3.4-4.5 1.7-6.9 2-11.7 1.4-3-2.1-3-2.1-5-5-.6-3.5-.6-3.5 0-7 12.5-14.8 42.6-17.8 60.7-21.9q1.1-.3 2.1-.5c11.5-2.6 11.5-2.6 16.2-2.6q0-1 0-1.9c-.5-36-.5-36 3-49.1q-1.6.1-3.3.1c-5.3 0-10.4-.9-15.6-1.8-9.5-1.5-19-2.6-28.6-3.6q-1.6-.1-3.3-.3-8.4-.8-16.7-1.6-3.1-.3-6.2-.6-1.5-.1-3-.2c-4.7-.5-8.4-.9-12.3-4-2.2-3.2-2.3-3.8-1.9-7.4q.1-1.2.2-2.3c1-3.1 2.1-4.4 4.7-6.3 27.7-4.5 62.7 4.4 90 10q.2-1.9.4-3.8c.6-5.5 1.6-10.9 2.6-16.4q.7-3.3 1.3-6.6.3-1.7.6-3.5c3.6-18.6 6.9-37.2 9.8-55.8C252.1 653.1 269.4 602 313 560q-1.4-1.3-2.7-2.7c-7.3-7.1-14-14.3-20.3-22.3q-1.4-1.7-2.8-3.4c-33.8-41.4-57.8-89.8-74.6-140.3q-.4-1.1-.8-2.2c-5.1-15.5-9.6-31-12.9-47q-.3-1.8-.7-3.6-.8-3.6-1.5-7.2-.9-4.2-1.8-8.4c-10.4-47.6-21-115.2 5.1-158.9 4-5.8 8.7-9.9 15-13q.9-.5 1.9-1c19.7-8.1 42.1 2.2 58.4 13.2zM265 1056c3.6 1.7 6.1 3.7 9.1 6.4 8 6.8 16.9 12.2 25.9 17.6q1 .6 2 1.2c61.9 36.1 139 46 209.4 46 1.7.1 1.7.1 3.5.1 20.5-.1 40.7-1 61.1-3.3 2-.2 2-.2 4-.5 60.7-7.2 122.8-24.3 171.2-63.3 2.8-2.2 2.8-2.2 5.8-4.2q3.7 8.6 7.3 17.2.6 1.3 1.2 2.7 6.7 15.8 13.4 31.7.6 1.4 1.2 2.9 1.2 2.9 2.4 5.8l16.8 39.2q1.1 2.7 2.3 5.4 3.7 8.5 7.5 16.9.7 1.6 1.4 3.2 1.4 3 2.8 6 .6 1.3 1.2 2.6.5 1.2 1 2.3c.5 2.1.5 2.1-.2 4.2-1.4 2-2.6 3.2-4.5 4.7q-1 .8-2.1 1.6-1 .8-2.1 1.6-1.2.8-2.3 1.7c-13.2 9.8-27.4 18.2-41.9 26q-2.5 1.3-5 2.7c-50.5 27.5-107.5 44.6-164.4 52.6l-2.9.4c-24.6 3.4-49.1 4.9-73.9 4.9q-5.2-.1-10.3 0c-17.4 0-34.6-.6-51.9-2.3q-1.6-.1-3.3-.3c-86.6-8.2-174.6-40.7-243.7-93.7 1.3-4 2.7-7.8 4.4-11.6l1.4-3.3q.8-1.8 1.6-3.7l40.8-97.5q4.8-12 9.8-23.9z" fill="#4c8680"/><path d="M294 989q.8.5 1.7 1.1 4.6 3 9.3 5.9 1.1.7 2.2 1.4c40 24.9 84.9 38.2 131.4 44.9q1.6.2 3.2.4c23.1 3.1 46.3 3.7 69.5 3.7q1 0 2.1 0c22.4 0 44.5-.8 66.6-4.1q3-.4 5.9-.9c47.8-6.7 99-20.7 137.9-50.3 1.6-1 1.6-1 3.2-2.1q1.5.5 3 1c1.3 2.8 2.4 5.5 3.5 8.4q1.1 2.8 2.1 5.5l1.2 3c2.1 5.5 4.5 10.9 6.8 16.3q1.4 3.3 2.8 6.6 2.4 5.7 4.9 11.5 1 2.2 1.9 4.5.5 1 1 2c1.1 2.7 1.8 4.9 1.8 7.9-6 14.2-33.1 25.6-46 32.3q-1.1.6-2.2 1.2c-22 11.3-45.9 18.6-69.8 24.8q-1.3.3-2.6.7c-26.2 7-53.4 10.1-80.4 12.3-1.7.1-1.7.1-3.5.3-12.7.9-25.5.9-38.2.9q-1.7 0-3.6 0c-17.6 0-35.1-.4-52.7-2.2q-1.6-.1-3.2-.3c-63.2-5.9-141.6-23-187.8-69.7 2.1-6.7 4.6-13.1 7.3-19.5q.6-1.5 1.3-3 1.8-4.3 3.6-8.6 1.3-3.1 2.6-6.2 2.4-5.7 4.8-11.4 1-2.2 1.9-4.5 1.3-3.2 2.7-6.3.4-1 .8-2c1.9-4.4 1.9-4.4 3-5.5z" fill="#feb500"/><path d="M252 221c16 7.6 29.8 25.9 40 40q.7 1 1.4 2 5.4 7.4 10.6 15 .8 1.1 1.6 2.3c6.6 9.6 12.9 19.4 18.4 29.7q.7 1.2 1.3 2.5c28 52 46.5 108.9 54.7 167.5q.2 1.6.4 3.2c3.2 23.3 3.2 23.3 2.6 34.8q-3.1 1.5-6.1 3.1c-1 .4-1 .4-1.9.9q-4.9 2.5-9.8 4.9-1 .4-1.9.9-2.6 1.3-5.1 2.5c-3.3 1.7-3.3 1.7-6.5 3.9-2.7 1.8-2.7 1.8-5.1 2-6.4-3-11-9.6-15-15.1q-.8-1-1.5-2.1c-10.4-14.1-20.2-28.8-28.9-43.9q-1.3-2.3-2.6-4.6c-23-39.3-39.4-81.1-50.5-125.3q-.3-1.1-.5-2.2c-4.4-17.4-7.3-34.7-9.3-52.5q-.2-1.4-.3-2.9c-5.6-50.2-5.6-50.2 6-65.6 2.8-1.4 4.9-1.2 8-1zm527 0c5.9 4.7 6.2 10.8 7 18 .3 4.3.3 8.7.3 13q-.1 1.8-.1 3.6c-.1 9.3-.7 18.3-1.8 27.5q-.7 5.1-1.2 10.1c-6.1 50.2-19.5 98.1-41.2 143.8l-1.6 3.3C726 470.7 708.1 499.7 687 526l-2.2 3c-1.1 1.3-1.1 1.3-2.2 2.7q-.9 1.2-1.8 2.5c-1.8 1.8-1.8 1.8-3.6 2.8-3.5 0-6-2.1-8.9-3.9-6.4-4.1-12.9-7.4-19.8-10.5-5.3-2.4-5.3-2.4-7.5-4.6-9.9-77 34.2-177 77-239q.6-.9 1.3-1.9 4.2-6.1 8.7-12.1.6-.9 1.3-1.8c7.3-9.7 15.5-18.4 24.1-27q.8-.7 1.6-1.6 2.2-2.3 4.5-4.5 1.3-1.3 2.7-2.7c5-4.3 9.9-7.7 16.8-6.4z" fill="#165558"/><path d="M478.7 773.7q1.1 0 2.2 0 3.8 0 7.5 0 2.6 0 5.2 0 5.5 0 11 0 7 0 13.9-.1 5.4 0 10.8 0 2.6 0 5.2 0c20.9-.1 20.9-.1 27.9 5.2 4.9 6.3 7.2 11.3 7 19.4-1.9 14-10.6 24.4-21.4 32.8-6.3 4.4-15 10-23 10q.1 5.7.3 11.4 0 1.6 0 3.3c.3 11.3 4.2 20.1 12.4 28 13.5 10.9 29.8 11.4 46.3 10.3 10.8-1.4 23.3-5.5 30.6-13.9 2.7-2.9 4.5-3.7 8.5-4 3.8.3 5.8 1.2 8.5 4 2.6 3.6 3.2 6.4 2.4 10.9-4.3 10.6-15.2 15.8-25 20.2-21 8.7-46.1 10-67.4 1.5-12-5.5-22.5-12.4-29.6-23.7q-1.1 1.3-2.2 2.6C499.6 903.3 488.9 910 474 915q-1 .4-2.1.7c-21.1 6.6-46.5 1.7-65.7-7.9-6.5-3.7-13.8-8.9-17.2-15.8-.7-6.8-.7-6.8 1-9.8 3-3.6 4.9-5 9.4-5.8 5.6 0 8.6 3.7 12.5 7.2 14.1 11 33 11.9 50.1 10.4 11.3-1.8 22.5-6.7 29.6-16 5.4-8 6-16.2 6.2-25.6q0-1.8 0-3.6.1-4.4.2-8.8-1.5-.2-3.1-.3c-14.1-2.5-25.7-12.7-34-23.8-5.3-8.3-6.9-16-5.9-25.9 1.7-6.5 5.6-10.3 11-14 4.2-2.1 8.1-2.3 12.7-2.3z" fill="#104a4e"/><path d="M382.2 682.8c10.9 7.3 16.7 16.5 19.8 29.2 1.3 14.1-.9 26.3-9.8 37.6-5.7 6.1-12.3 9.9-20.7 10.7-11.6.2-19.8-1.7-28.4-9.7-9.9-12-11.5-25.7-10.1-40.6 2.6-11 9.3-19.8 18.8-25.8 8.1-4.4 21.7-5.6 30.4-1.4zm274.1-2.3q1.1 0 2.3 0c8.3.3 14.1 3.1 20.2 8.8 8.5 9.4 13.1 21.2 12.5 34-1.5 12.7-5.9 22.8-16 31-8.3 6.1-16.1 6.8-26.3 5.7-10.1-2.5-17.5-10.5-23-19-5.6-9.7-5.4-23.5-3.4-34.4 3.7-11 11.4-19.1 21.6-24.2 4.1-1.7 7.8-1.9 12.1-1.9z" fill="#134e52"/><path d="M869.5 787.9q4-.2 8.1-.3l2.6-.2c5.9-.1 5.9-.1 8.5 1.8 2.4 2.8 3.3 4.8 3.9 8.4-.8 4.3-2.3 5.7-5.6 8.4-2.2 1.1-3.9 1.3-6.3 1.6q-1.4.1-2.8.3-1.5.1-3 .3-3.3.4-6.5.7-1.7.2-3.5.4-9.1 1-18.2 2-1.9.2-3.8.5-5.4.6-10.9 1.2-1.6.2-3.3.4c-58.5 4.4-58.5 4.4-113.7 21.7-3.3 1.5-5.6.8-9-.1-2.5-2.1-2.5-2.1-4-5-.2-3.5-.2-3.5 1-7 5.1-4.4 9.9-6.3 16.4-7.9q1.3-.4 2.7-.8 4.5-1.2 8.9-2.3 1.5-.4 3.1-.8c20.1-5.1 40.4-8.9 60.9-12.2l-1-9c2.2 3.2 2.2 4.3 2 8q1.5-.2 3-.5c50.7-8.6 50.7-8.6 70.5-9.6zm-676.3 4.2c33.7 5.2 67.5 11.4 100.5 20.2q1.8.4 3.6.9c20.3 5.6 20.3 5.6 24.7 10.8.6 3.8.3 5.5-1.6 8.8-3.2 2.9-5.1 2.9-9.4 3.2-3.4-.9-3.4-.9-6.9-2.2-8.1-2.9-16.4-4.9-24.8-6.9q-2.2-.5-4.5-1c-16.5-3.8-32.9-7.2-49.8-8.9v3.8c.1 3.5-.3 6.8-1 10.2q-.5 0-1 0 0-2.6-.1-5.2 0-1.5 0-3c.1-2.5.4-4.5 1.1-6.8q-1.6.1-3.3.1c-5.3 0-10.4-.9-15.6-1.8-9.5-1.5-19-2.6-28.6-3.6q-1.6-.1-3.3-.3-8.4-.8-16.7-1.6-3.1-.3-6.2-.6-1.5-.1-3-.2c-4.7-.5-8.4-.9-12.3-4-2.2-3.2-2.3-3.8-1.9-7.4q.1-1.2.2-2.3c4.4-14.6 47.5-4.1 59.9-2.2zm524.7 63.6c11.3.2 22.5 1.9 33.7 3.4q1.9.2 3.8.4c21 2.7 41.9 6 62.6 10.5q1.2.3 2.4.5c32.9 7.1 32.9 7.1 48.7 12.7q1.3.5 2.7 1c4.6 1.7 7.6 3.3 10.2 7.8.8 3 .5 4.8 0 8-2.1 2.7-3.6 3.7-6.9 4.4-4.5.2-8-.6-12.1-2.2-6.4-2.4-12.8-4-19.5-5.5q-1.9-.5-3.9-.9-11.1-2.5-22.2-4.7-1.2-.3-2.5-.5-5.8-1.2-11.7-2.3-1.1-.2-2.2-.4-3-.6-5.9-1.1c-3.1-.8-3.1-.8-6.1-2.8-2.1-.5-2.1-.5-4.4-.7q-1.3-.2-2.6-.4-1.5-.1-3-.3-1.5-.2-3-.4-4.9-.6-9.8-1.1-3.4-.4-6.7-.8l-29.2-3.2q-1.1-.1-2.2-.2-4.7-.4-9.5-.8c-9.8-.8-9.8-.8-13.6-5.1-1.6-3.1-1.4-5.5-1-9 2.4-2.9 2.4-2.9 5-5 2.1-2.1 6-1.3 8.9-1.3zm-414.2-.1l3.8-.1c4.7.7 6.2 2.2 9.5 5.5.8 2.3.8 2.3.7 4.5q0 1.1 0 2.2c-1.1 3.6-2.8 5.1-5.7 7.3-2.9.6-5.4.9-8.4 1.1q-2.8.2-5.6.4-1.6.1-3.3.2c-7.7.6-15.5 1.4-23.3 2.2-1.2.2-1.2.2-2.5.3l-29.2 3.4-2.4.4c-4.1.5-4.1.5-7.3 3-2.1.5-2.1.5-4.7.9q-1.5.3-3 .5-1.7.3-3.4.6c-12.5 2.2-24.8 5-37.1 8.1q-1.3.3-2.6.7-3.8.9-7.6 1.9l-2.3.6a99.88 99.88 0 0 0-10.6 3.3c-4.5 1.7-6.9 2-11.7 1.4-3-2.1-3-2.1-5-5-.6-3.5-.6-3.5 0-7 12.5-14.8 42.6-17.8 60.7-21.9q1-.3 2-.5 3-.7 5.9-1.3 1.6-.4 3.4-.8c2.7-.5 5.2-.6 8-.5q0-2.5 0-5l1 4q1.3-.2 2.7-.5c17.5-3.1 34.9-5.9 52.6-7.9q1-.1 2.2-.2c7.7-.9 15.4-1.6 23.2-1.8z" fill="#134c50"/></svg>