<svg xmlns="http://www.w3.org/2000/svg" width="1024" height="1536" xmlns:v="https://vecta.io/nano"><path d="M273.4 144.5c13.8 6.9 26.2 16.1 37.6 26.5q.9.8 1.9 1.7c13 11.8 13 11.8 18.5 18.5 1.9 2.1 3.9 4.1 6 6.1 4 4 7.6 8.2 11.2 12.7q2.5 3.1 5.1 6.2c8.6 10.4 16.1 21.6 23.5 33q2.4 3.6 4.8 7.3c23.9 35.6 39.5 75.4 51 116.5q.5 1.7 1 3.5c3 10.5 4.8 21 6.6 31.7q.2 1.3.4 2.8c2.6 15.6 4.6 31.2 6 47q1.3-.2 2.5-.4c40.9-6.4 85.8-8.4 126.5.4q0-1.6.1-3.3c.5-14.6 2.3-29 4.4-43.4q.6-4 1.1-8c4.4-32 15.1-64 28.4-93.3q.5-1.1 1-2.2c13.4-30 31-58.2 51-84.2 2.9-3.8 5.6-7.7 8.4-11.6l1.6-2q1 0 2 0c.4-.8.4-.8.7-1.7 9-16.3 28.6-32.1 43.3-43.3q1.5-1.2 2.9-2.4c19.7-15.9 43.2-28.8 69.1-26.6 9.4 1.5 17.7 6.5 23.7 14 10.3 15.7 11.5 34.9 12 53.2q0 1 0 2c2 74.6-22.1 146.8-53.3 213.6-.5 1.1-.5 1.1-1.1 2.2-6.9 14.9-15.1 29.1-24.3 42.8q-.9 1.3-1.8 2.6c-4.8 7.1-9.8 13.9-15.2 20.6-1 1.2-1 1.2-2 2.5-4.4 5.7-9.1 11.2-13.9 16.7-2.5 2.9-4.9 5.7-7.1 8.8 1.4 3.3 3.2 5.4 5.7 8 10.8 11.8 20.3 25.1 28.3 39q1.1 1.8 2.2 3.6c13.6 23.1 22.5 49.1 27.8 75.4q.3 1.4.6 2.9c2.1 10.3 4.1 20.7 5.2 31.2 1.9 16.6 5.4 31.9 10.4 47.9q.4 1.1.7 2.3.7 2.2 1.4 4.3c1.9 6.1 2.3 12.1 2.7 18.4q.9 0 1.9 0 9.6-.1 19.3-.2 3.6 0 7.2 0 5.2-.1 10.4-.1 1.5 0 3.2 0c8.7 0 17.8 1 25 6.3 1 1 1 1 1.4 3.8-.4 3.3-1 4.9-3.5 7.2-4.5 2.4-10.3 1.6-15.3 1.5q-1.9 0-3.9 0-5.2-.1-10.4-.2-5.3 0-10.6-.1-10.3 0-20.7-.2 0 1 0 2.1c.2 25.1.2 25.1-1 35.5q-.1 1.4-.3 2.8-.3 3.3-.7 6.6c11.3 4.8 22.8 9 34.5 12.8 16.9 5.6 16.9 5.6 22.5 11.2-.1 4-.4 6.3-2.9 9.4-3.6 2.8-5.6 3-10.1 2.6-3.4-1-6.7-2.2-10.1-3.5-1.4-.5-1.4-.5-2.9-1.1q-7.4-2.8-14.9-5.6-1.4-.6-2.8-1.1-2.7-1-5.3-2.1c-4.6-1.8-9.2-3.3-14-4.6l-.4 2.2c-.6 2.9-1.6 5.3-2.9 8q-.7 1.4-1.4 2.9-.7 1.5-1.5 3.1-.7 1.5-1.4 3c-3.1 6.5-6.6 12.7-10.4 18.8q-1 1.5-1.9 3.1c-9.6 14.6-20.8 27.6-33.1 39.9q-.8.8-1.6 1.7c-5.5 5.8-11.9 10.6-18.4 15.3q-.8.6-1.6 1.2c-38.3 28-87.9 43.3-134.1 51.1l-2.8.4c-19.7 3.1-39.4 3.7-59.4 3.6q-1.8 0-3.8 0c-19.3 0-38.2-.6-57.3-3.3q-1.9-.3-3.8-.5c-16.1-2.4-31.9-5.5-47.6-9.8q-3.5-.9-6.9-1.8c-33.9-9.1-68.9-25.4-96.7-46.9q-1.3-1-2.7-2c-14.8-11.6-27.5-25.6-38.3-41q-.7-1-1.4-2C234 842.6 234 842.6 234 830c-11.9 4-23.6 8.3-35.2 13-14.9 5.9-14.9 5.9-22.8 5-3.3-2.4-4.7-4.2-6.1-8 .1-3 .1-3 2-5.6 6.5-5 14.5-7.3 22.2-9.8 6.5-2.1 12.9-4.3 19.2-6.9 4.9-2 9.5-3.6 14.7-4.7q-.2-1.2-.4-2.4c-2.3-14.8-1.7-29.7-1.6-44.6q-1.1 0-2.2 0-10.3 0-20.6-.1-5.3-.1-10.6-.1-6.1 0-12.2-.1-1.9 0-3.8 0c-9.8-.1-9.8-.1-12.9-3.1-1.7-2.6-1.7-2.6-2.5-5.6 1.1-4 2.8-4.9 6.3-6.9 6.7-2.9 13-3.4 20.2-3.3q1.3 0 2.7 0 2.8 0 5.7 0 4.3 0 8.6 0 2.7 0 5.5 0 1.3 0 2.6 0A145.32 145.32 0 0 1 229 748q.1-1.5.3-3.1c.8-6.6 2.8-12.9 4.6-19.2q1.6-5.6 3.1-11.3.9-3 1.8-6c2.9-9.4 3.9-19.2 5.2-28.9q1.5-10.8 3-21.5.2-1.2.4-2.5c2.4-16.9 6.4-32.8 11.9-48.9q.3-1.1.7-2.2c11.2-33.5 30.9-63.6 55-89.4-2.9-5.3-6.9-9.6-10.9-14.1-4.1-4.7-4.1-4.7-4.1-6.9q-1 0-2 0-2.1-2.4-4.1-4.9-1.2-1.5-2.5-3-1.2-1.5-2.4-3.1-1-1.2-2.1-2.5c-26.5-32.4-44.8-72-59-111.1q-1-2.6-1.9-5.2c-13.3-36.1-22.7-72.1-28-110.2q-.2-1.5-.4-3.1c-4.2-30.9-7.8-75.1 10.5-102 16.8-20.2 44.4-14.3 65.3-4.4z" fill="#f29a00"/><path d="M279 1004c2.6 1.2 5 2.6 7.4 4.2 40.8 27 85.4 45.7 133.6 54.8q1.7.3 3.4.6c45.7 8.5 92.3 10.1 138.6 5.4q1.5-.2 3.1-.3c59.8-6.1 118.4-25.1 168.6-58.3a222.91 222.91 0 0 1 9.3-5.4c3.7 7 6.6 14.3 9.5 21.8q.8 2.1 1.7 4.2l22.1 57.3q4.1 10.7 8.2 21.4 1.6 4 3.1 8 1 2.5 2 5 1.3 3.4 2.6 6.8l.8 2c1.7 4.4 3.1 8.8 4 13.5-1.4 2.5-1.4 2.5-4 5q-1.7 1.9-3.3 3.9c-5.8 6.7-12 12.3-19.2 17.5q-1.2.8-2.4 1.7c-7.2 5-14.4 9.7-22.1 13.9q-1.2.7-2.5 1.4c-43.9 24.1-91.4 37.5-140.5 46.6q-1.3.2-2.7.5c-27.4 5-55.4 6.7-83.2 6.8q-1.6 0-3.2 0c-41.4-.1-81.6-4.4-122-13.6q-3.8-.9-7.6-1.7c-48.9-10.9-104.2-31.4-142.3-65q-1.2-1-2.4-1.9c-2.3-2-4.5-4-6.6-6.1q-1.3-1.2-2.5-2.4c-2.7-2.8-4.1-5-5.5-8.6.6-2.7 1.2-4.6 2.3-7.1q.9-2.1 1.8-4.2.4-1.2.9-2.3l4.9-12.5q2.1-5.5 4.2-11l1.2-2.9q8.3-21.6 16.9-43.1 11.2-27.8 21.8-55.9z" fill="#f19a00"/><path d="M307 927q1.1.7 2.3 1.3c52 30.6 105.2 49.4 165.7 54.7 1.5.1 1.5.1 3 .3a287.06 287.06 0 0 0 22.7.9h3.6q5.6 0 11.2 0a49.48 49.48 0 0 0 3.9.1c18.4-.1 36.4-.3 54.6-3.3q1.7-.3 3.5-.6c7.8-1.2 15.7-2.8 23.5-4.4q1.2-.3 2.5-.5c39-8.2 79.3-24.1 111.5-47.5 3.3 1.7 3.7 5.3 4.8 8.7a23.4 23.4 0 0 0 .9 2.4q1.3 4 2.7 7.9 1.9 5.5 3.8 11l.9 2.8q3.2 9 6.5 18.1.5 1.1.9 2.3 1.6 4.3 3.2 8.7 1.2 2.9 2.3 5.9.6 1.6 1.2 3.4c.8 2.8 1.1 4.1-.2 6.8-1.4 1.3-1.4 1.3-3.3 2.5l-2.1 1.3q-1.1.7-2.2 1.4-1.2.7-2.4 1.5-2.3 1.4-4.7 2.9-3 1.8-6 3.7c-19 11.9-39.5 20.7-60.3 28.7q-1.2.5-2.4.9c-66.9 25.2-145.3 29.4-215.6 19.1q-1.1-.2-2.2-.3c-40.5-6-79-17.6-115.8-35.7q-1.2-.6-2.5-1.2c-14.8-7.4-29.8-16-42.5-26.8.6-4.3 1.6-8.1 3.2-12.1q.6-1.8 1.3-3.6.3-1 .7-1.9 1.9-5 3.7-10.1.4-1 .8-2l8.9-25.5c2.5-7.4 5.3-14.6 8.4-21.8z" fill="#007393"/><path d="M761.4 207.2c6.4 5.1 8.9 12 10.6 19.8q.2 4.3.2 8.5 0 1.3 0 2.6 0 2.7 0 5.4 0 4 0 8c.1 14.8-1.2 29.2-4.3 43.8q-.3 1.4-.7 3c-4.3 19.9-9.9 39.6-17.2 58.7q-.4 1.2-.9 2.4c-7.7 19.9-16.1 39.7-26.1 58.6q-.6 1.1-1.2 2.3c-9.4 17.8-20.1 34.2-32.8 49.7q-.7.8-1.4 1.7c-4.9 6.1-10.1 12-15.5 17.7q-1.3 1.3-2.6 2.7c-2.5 1.9-2.5 1.9-4.9 2-3.5-1.5-6.4-3.4-9.4-5.6-5.5-3.8-11.1-7.3-16.9-10.6q-1.1-.5-2.1-1.1c-2.7-1.5-5.3-2.8-8.2-3.8-.5-15.9.9-31.3 3-47 .2-1.3.2-1.3.3-2.7 1.8-13 4.8-25.7 8-38.5q.9-3.4 1.6-6.9c4.4-19.7 11.9-39.9 21.1-57.9q.9-1.9 1.9-3.8 3-6.1 6.1-12.2c.5-1 .5-1 1-2.1 11-21.5 24.4-41.9 40-60.5l6.1-7.6c3.1-3.9 6.4-7.4 10-10.9 1.9-1.9 3.6-3.9 5.4-6 7.2-8.4 17.8-15.3 28.9-9.7zM274 206c10.7 4.3 17.7 13.5 24.7 22.2 2.1 2.6 4.3 5 6.6 7.5 55 60.7 90.8 154.5 88.7 236.3q-1.6.8-3.2 1.6c-10.7 5.5-21.8 11.3-30.9 19.3-1.9 1.1-1.9 1.1-4.3 1.1-3.5-1.4-5.8-3.7-8.4-6.4q-.7-.8-1.5-1.6c-4.9-5.1-9.4-10.5-13.7-16q-1.1-1.4-2.3-2.9C305 436 287.9 400 274 363q-1.1-2.8-2.2-5.7c-7.6-20-13.2-40.6-17.7-61.6q-.2-1-.4-2c-3.2-14.8-5.1-29.3-5-44.5q.1-3.2 0-6.4c0-12 .6-23.4 8.9-32.7 5.4-4.7 9.4-5.1 16.4-4.1z" fill="#e07500"/><path d="M506 729.8q3.2 0 6.4 0c31.2-.2 31.2-.2 41.9 9.2 3 3.6 3 7.1 2.9 11.6-.7 8-5.1 13.5-10.2 19.4-.9 1-.9 1-1.7 2.1-5.7 6.2-12.8 10.2-20.3 13.9q-1 0-2 0 .1 6.7.3 13.3 0 1.9 0 3.8c.3 13 3.6 23 13.1 32.2 9.8 6.3 21.5 6.9 32.8 5.2 12.9-2.8 20-9.1 27.8-19.5 5.4-6.8 5.4-6.8 9-7.2 4-.2 6.4-.1 10 1.8 2.7 3.3 3.1 5.1 3 9.4-3 11.3-10.8 21.1-20.8 27.1-7.7 4.2-15.6 8-24.2 9.9l-2.2.6c-16.4 2.6-33.6.4-47.8-8.6-9.5-7.4-9.5-7.4-11-12q-.9 1-1.8 2c-15.1 14.9-32.7 19.4-53.2 19.4-17.8-.3-33.4-8.4-46.3-20.6-5.5-5.8-9.7-11.9-10.3-20.1.6-3.7.6-3.7 2.5-6.7 4.4-2.8 8-2.9 13.1-2 4.3 2.3 6.6 6.1 9.4 9.9 7.8 10.3 18 15.2 30.6 17.1 10.6.8 20.7.8 29.3-6.2 7.8-7.5 12.4-17.5 12.8-28.3q0-4.5 0-8.9 0-1.5-.1-3.1 0-3.7 0-7.5-1.1-.5-2.2-.9c-13.9-6.4-26.1-18-32.9-31.9-1.5-5.1-1.7-8.6.7-13.4 6.4-7.5 15.1-9.6 24.6-10.6 5.6-.4 11.2-.4 16.8-.4z" fill="#01405a"/><path d="M681 658.5c9.5 8.3 16 24.1 17.3 36.4.1 4.2.1 7.5-2.3 11.1-2.8 1.8-5.1 2.3-8.4 2.4q-1.1 0-2.3.1c-3.5-.7-4.9-1.9-7.3-4.5-1.5-3.2-2.5-6.4-3.5-9.7-2.8-9-5.6-16.8-13.6-22.3-7.8-4.1-17.8-4.4-26.4-2.4-6.8 2.9-11.9 9-15 15.6-1.2 3.2-2.4 6.5-3.5 9.8q-1 2.6-2.1 5.1c-.5 1-.5 1-.9 2.1-1.8 3.3-3.4 4.6-7 5.8-7.6.4-7.6.4-11-2-3.2-4.9-2.5-9.9-1.6-15.5 3.6-15.4 12.1-30.3 25.5-39 20.8-11 44-6.7 62.1 7zm-272.2-4.8c12.8 10.1 23.2 25.2 25.5 41.6.2 4.4-.5 7.4-3.3 10.7-3.8 2.4-7.5 2.3-11.9 1.6-2.7-.8-4.4-2.2-6.1-4.5-1.7-3.5-2.8-7.2-3.9-10.9-3.2-9.3-7.5-16.3-16.1-21.2-8.5-3.7-17.1-4.4-25.8-1.1-8.7 4.3-12.7 11.4-16.2 20.1-1 3.4-2 6.8-2.8 10.2-1.5 3.5-3.1 4.8-6.2 6.8-4.2 1.5-7.3 1.3-11.4-.3-2.6-1.7-2.6-1.7-3.6-3.7-1.7-14 3.7-26.9 12-38q.9-1.2 1.8-2.4c15.9-19.6 47.5-22.9 68-8.9z" fill="#023f5a"/><path d="M187.3 746.8h2.6q2.8 0 5.5 0 4.2 0 8.3 0c28.4.1 56.1 2.3 83.7 9.2q1 .2 2 .5c17.4 4.3 17.4 4.3 21.6 8.5.5 4.2.4 7-2.1 10.4-2.9 2.6-2.9 2.6-6 2.9-4.6-.4-8.6-1.4-13-2.6q-2.6-.7-5.2-1.4-3.9-1.1-7.9-2.2c-20.6-5.3-43-6.2-64.1-6.2q-4-.1-8-.1-6.2 0-12.5-.1-4.1.1-8.2 0-3.8 0-7.6 0c-9.6-.1-9.6-.1-12.7-3.1-1.7-2.6-1.7-2.6-2.5-5.6 1.1-4 2.8-4.9 6.3-6.9 6.5-2.8 12.7-3.4 19.8-3.3z" fill="#463a25"/><path d="M819.8 747.7q2.9 0 5.7 0c24.6-.3 24.6-.3 33.5 6.3 1 1 1 1 1.4 3.8-.4 3.3-1 4.9-3.5 7.2-4.4 2.4-9.9 1.7-14.8 1.7q-3 0-5.9 0-4.1.1-8.2 0-5.1.1-10.2.1h-4q-2 0-4 .1-1.9 0-3.9 0c-16.3.1-31.9 1.1-47.9 3.9q-1.2.1-2.4.3c-9.8 1.7-19.6 3.6-29.2 6.5-3.9 1.2-6.6 1.7-10.4.4-3.2-2.3-3.9-3.7-5-7.5 0-3.5 0-3.5 1.5-5.5 3.2-2.5 6.5-3.7 10.3-4.9l2.3-.8c30.7-9.6 62.8-11.4 94.7-11.6z" fill="#463b25"/><path d="M304.9 799.3c3.3 2.8 4.9 4.4 5.5 8.8-.4 2.9-.4 2.9-2.1 4.5-2.4 1.5-4.2 2-6.9 2.5q-1.3.3-2.7.6-1.5.2-3 .5-3.2.6-6.4 1.2-1.6.3-3.3.6c-25.6 4.9-50.8 10-74.9 20.1l-11.8 4.7q-1.1.4-2.2.9c-7 2.7-13.5 5.2-21.1 4.3-3.3-2.4-4.7-4.2-6.1-8 .1-3 .1-3 2-5.6 6.5-5 14.5-7.3 22.2-9.8 6.3-2 12.4-4.1 18.4-6.7 19-7.7 39.5-11.6 59.5-15.9q1.6-.3 3.2-.7 4-.9 8.1-1.7 1.1-.3 2.3-.5c6.3-1.3 13.3-2.4 19.3.2zm440.9 2.3q1.8.4 3.7.8c11.6 2.5 23.1 5.6 34.6 8.8l9.1 2.3c5 1.2 9.7 2.8 14.4 4.8 7 2.8 14 5.3 21.2 7.7 16.5 5.3 16.5 5.3 22.2 11-.1 4-.4 6.3-2.9 9.4-3.6 2.8-5.6 3-10.1 2.6-3.4-1-6.7-2.2-10.1-3.5q-1.4-.5-2.9-1.1l-17.2-6.6c-23.4-9-47.2-14.6-71.8-19.1-5.2-.9-10.4-2-15.6-3.2q-1.4-.3-2.9-.6c-2.6-.9-3.9-1.6-5.5-3.9 0-4 .7-6.5 2.7-9.9 8.6-5.4 21.7-1.6 31.1.5z" fill="#463a24"/></svg>