<svg xmlns="http://www.w3.org/2000/svg" width="1024" height="1024" xmlns:v="https://vecta.io/nano"><path d="M827 82.3c5.1 3.8 8.1 9.1 11 14.7q.6 1.1 1.1 2.2c11.2 24.5 9.2 55.3 9.2 81.7q-.1 5.3 0 10.7c0 19.2-.7 38.2-2.3 57.4q-.1 1.4-.2 2.8c-2.1 25-5.7 50.1-11.2 74.6q-.9 4-1.7 8-.3 1.2-.5 2.6-.5 2.3-1 4.7c-.7 3.7-1.7 7.3-3 10.9-2.6 7.7-1.1 12.9 2.2 20 18.5 42.1 23.9 87.8 19.4 133.4l-13 1h5q9.1.1 18.3.2 3.9 0 7.9 0 5.7 0 11.4.1 1.7 0 3.6 0c8.1.1 8.1.1 11.5 3.1 1.5 3 1.9 5.2 1.9 8.6q.1 1.5.1 3.1c-.8 3.3-2.1 4.7-4.7 6.8-3.9 2.1-8.1 1.8-12.4 1.8q-1.5 0-3 .1-4.8 0-9.5 0-3.2 0-6.4.1-7.8.1-15.7.1-.2 1-.4 2c-.9 4.7-1.8 9.2-3.3 13.8q-.5 1.4-1 3-.5 1.5-1.1 3-.5 1.6-1 3.2c-2.6 7.6-5.5 14.8-9.2 22q-.5 1.1-1 2.3c-1 1.7-1 1.7-3 2.7q1.9.5 3.8.9 6.9 1.8 13.8 3.6 3 .7 6 1.5 4.3 1.1 8.6 2.2 1.4.3 2.7.7c6.4 1.6 11.3 3.4 15.1 9.1.3 3.1-.1 6-1 9-3.2 3.7-6 5.4-10.8 6-4.9 0-9.5-1.5-14.2-2.7q-1.7-.5-3.4-.9-5.5-1.4-10.9-2.8-5.5-1.4-10.9-2.8-3.4-.9-6.8-1.8-1.5-.4-3.1-.8c-1.4-.3-1.4-.3-2.7-.7-2.2-.6-2.2-.6-4.2-.5q1 .5 2 1c-8.1 23.2-36.3 46.8-55.3 60.7q-3.2 2.4-6.4 4.9l-2.4 2q-1 .7-1.9 1.4 3.7 10.8 7.3 21.6 1.7 5.1 3.4 10.1 2 5.8 3.9 11.6.7 1.8 1.3 3.6.5 1.7 1.1 3.4.5 1.5 1 3 1 2.7 2.1 5.4c.9 2.3.9 2.3.8 4.3-9.7 20.5-52.4 34-71.9 41-19.7 6.7-39.7 11.6-60 16l-2.8.6c-11.9 2.6-23.9 4.3-35.9 6q-1.1.2-2.2.3c-24.6 3.6-49.2 4.5-74.1 4.4q-4.8 0-9.6 0c-29.9.2-59.9-1-89.5-6q-1.2-.2-2.3-.4c-52.9-8.6-108.3-23-151-56.6q-2.8-2.2-5.6-4.3c2.1-7.2 4.4-14.4 6.8-21.5q1-3.2 2.1-6.5 1.7-5.1 3.4-10.2 1.6-4.9 3.2-9.8.5-1.6 1-3.1c1.5-4.6 2.9-9.1 3.5-13.9l-2.4-1.8C268.1 663.8 260 657 252 650q-1.4-1.2-2.9-2.5c-4.4-3.9-8.4-7.8-12.2-12.3-1.9-2.2-3.8-4.2-5.8-6.3-4.6-4.9-8.8-10-12.7-15.5-.7-.9-.7-.9-1.3-1.8-1.8-2.5-3.1-4.7-4.1-7.6-6.1.6-11.8 1.9-17.7 3.5q-2.8.8-5.6 1.5-4.3 1.2-8.7 2.4-4.2 1.2-8.4 2.3-1.3.4-2.6.8c-5 1.3-8.8 1.8-14 .5-3.2-1.9-5.4-3.4-6.7-6.9-.6-3.4-.5-5.6.6-8.9 5-5.4 12.5-7.1 19.4-8.8q1.3-.3 2.6-.6 4-1.1 8.1-2 2.8-.7 5.5-1.4 6.8-1.7 13.5-3.4-.5-.9-1-1.8c-3-6-5.6-12-8-18.3q-.5-1.4-1-2.8c-3.6-9.5-7.1-19.1-9-29.1q-.9 0-1.8 0-9.2-.3-18.5-.6-3.4-.1-6.9-.2-5-.1-9.9-.3-1.5 0-3.1 0c-7.2-.3-7.2-.3-10.4-3.3-1.6-2.9-1.9-4.8-1.9-8.1v-2.8c.7-3.7 1.7-5.1 4.5-7.7 3.3-.8 6.6-.7 10-.7q1.5 0 3-.1 4.6 0 9.2 0 3.2 0 6.4-.1 7.7-.1 15.4-.1-.5-.5-1-1c-1.4-9.7-1.2-19.7-1.2-29.5q0-1.2 0-2.4c0-11.4.3-22.6 1.9-33.9q.4-3.3.8-6.6c2.9-22.6 9.8-46.7 20.2-67 2.7-5.4.2-11-1.5-16.5-2.8-9.9-4.7-19.9-6.6-30q-.3-1.6-.6-3.2c-11.6-61.1-16.9-124.6-8.1-186.4q.2-1.6.4-3.2c2.1-13.7 5.9-30.1 16.6-39.8 10.7-7.7 21.2-9.5 34.1-8.5 25.8 4.9 51.3 25.9 71.4 41.7q2.5 2 5.1 4.1 15.1 11.7 29.7 24.1c4.3 3.7 8.6 7.2 13 10.8 3.1 2.5 6.1 5.1 9.1 7.7 5.8 4.9 11.6 9.6 17.6 14.2 3.1 2.4 3.1 2.4 5.7 4.8 2.2 1.8 2.2 1.8 4.6 1.5l2.2-.8q1.3-.5 2.7-1 1.4-.5 2.9-1.1c37.2-13.5 74.7-18.8 114-18.4q4.4 0 8.8 0c20.2 0 40 1 60 4.6q1.8.4 3.6.7c17.7 3.3 34.7 8.2 51.6 14.4q4 1.4 8 2.7 1.1-1 2.2-2.1c5.8-5.4 11.7-10.5 17.8-15.5 3.5-2.8 7-5.8 10.4-8.8 10-8.7 20.1-17.4 30.6-25.6q1.5-1.2 3.1-2.5 5.5-4.3 10.9-8.5 1-.8 2-1.5c49-38.3 49-38.3 75-46.5q.9-.3 1.9-.6c11-2 22.6-1.1 32.1 4.8z" fill="#f9e2b5"/><path d="M260 737q1.5 1.2 3.1 2.4 2.5 1.8 4.9 3.6l2.9 2.2c41.3 30.9 95.3 43 145.1 51.8q1.4.2 2.8.5c30 5.2 60.6 6 91 5.8q4.8 0 9.6 0c24.4 0 48.6-1 72.8-4.4 1.1-.2 1.1-.2 2.2-.3 57.1-8.1 121.3-21.3 166.2-59.7 2.4-1.9 2.4-1.9 4.4-1.9l16.6 43.2 5.5 15c5.4 14 10.1 28.2 14.8 42.4q1.5 4.5 3 8.9c5.7 17 5.7 17 7.1 24.5q.3 1.2.5 2.4c-.9 4.4-4.3 6.2-7.7 8.7q-1.2.8-2.4 1.7c-8.7 6.4-18 11.9-27.4 17.2l-2.4 1.4c-69.9 39.3-157.5 57.6-237.1 57.8q-1.2 0-2.3 0-6.2 0-12.3 0-5 0-9.9.1c-33.4.2-66-2.2-99-7.3q-1.4-.2-2.9-.4c-64.9-9.7-138-30.5-190.2-72.1-1.9-1.6-1.9-1.6-4.1-2.9-1.8-1.6-1.8-1.6-2.2-3.4 1-8.5 3.8-16.4 6.5-24.4q1.4-4.3 2.8-8.7c5.7-17.5 12-34.8 18.2-52.1q3.6-9.9 7.1-19.8 1.5-4.3 3-8.7 1-2.8 2-5.6 1.4-4 2.8-7.9.4-1.2.8-2.4c2-5.4 2-5.4 4.2-7.6z" fill="#f9e2b2"/><path d="M280 673c3 1.4 5.7 3 8.5 4.8 25.6 15.7 52.7 27.4 81.9 34.6q3.8.9 7.5 1.9c21.6 5.5 43.9 8.9 66.1 10.7q1.5.1 3 .2c22.8 1.8 45.4 2.2 68.3 2.2q1.3 0 2.7 0c27.5 0 54.7-.5 82-4.4q2.4-.3 4.8-.7c46.9-6.6 93.6-19.3 132.9-46.8 2.3-1.5 2.3-1.5 5.3-2.5.4 1 .4 1 .7 2.1q3.3 9.8 6.6 19.5 1.7 5.1 3.4 10.1 2 5.8 3.9 11.6.7 1.8 1.3 3.6.5 1.7 1.1 3.4l1 3q1 2.7 2.1 5.4c.9 2.3.9 2.3.8 4.3-9.7 20.5-52.4 34-71.9 41-19.7 6.7-39.7 11.6-60 16q-1.4.3-2.8.6c-11.9 2.6-23.9 4.3-35.9 6-1.1.2-1.1.2-2.2.3-24.6 3.6-49.2 4.5-74.1 4.4q-4.8 0-9.6 0c-29.9.2-59.9-1-89.5-6q-1.2-.2-2.3-.4c-52.9-8.6-108.3-23-151-56.6q-2.8-2.2-5.6-4.3c2.1-7.2 4.4-14.4 6.7-21.5q.5-1.6 1.1-3.2 1.1-3.4 2.2-6.7 1.6-5.1 3.3-10.2 1-3.3 2.1-6.5l1-3.1q.5-1.4 1-2.9.4-1.2.8-2.5c.8-2.5 1.8-5 2.8-7.4z" fill="#007eaa"/><path d="M564.1 456.8c4.7 4.7 6.9 8.7 7.3 15.5-.5 11.4-7.2 18.8-15.1 26.3-5.1 4.7-10.6 8.2-16.6 11.7q-2.7 1.6-5.3 3.1-1.2.7-2.4 1.4c-1.7 1-3.3 2.1-5 3.2-.3 2.8-.5 5.3-.5 8.1 0 1.2 0 1.2-.1 2.4q0 3.8-.1 7.6 0 2.6-.1 5.2-.1 6.4-.2 12.7.9.4 1.9.9c2.5 1.3 4.7 2.8 7.1 4.4 13.8 8.9 28.1 12.1 44.3 9.1 7.1-2.3 12.2-6.6 17.7-11.4q2.2-1.7 4.5-3.4.9-.7 1.9-1.5c3.6-2.5 6.3-2.4 10.6-2.1 3.6 1.6 6.2 3.4 8 7 .8 5.8 0 9.2-3.3 13.9-11.6 14.5-26.6 21.5-44.7 24.1-20.2 1.6-38.5-5.8-55-17q-1.3-1.1-2.6-2.3c-2.3-2-2.3-2-4.9-1.6-2.7 1-4.6 2.2-6.8 4-16.6 11.9-36.2 18.4-56.7 16.9-17.8-3.2-32.9-11.6-44-26-2-4-1.6-8.7-1-13 3-3.9 5.2-5.7 10.1-6.4 7.6.8 12.7 6.2 18.3 11 10.5 8.5 20 9.6 33.1 8.7 12.4-1.4 23-7.6 32.5-15.3q1 0 2 0v-37l-6-2c-2.8-1.4-5.5-3-8.2-4.6q-1.1-.6-2.3-1.3c-12.8-7.8-24.8-17.2-29.1-32.2-1.2-5.6-.5-10 2.2-15 7.2-9.9 19.9-12.2 31.2-14.3 22.5-3.5 58.5-6.3 77.3 9.2z" fill="#4e280a"/><path d="M246.7 139.8c7.9 4.1 14.6 9.5 21.3 15.2q1.7 1.4 3.3 2.8c6.5 5.3 12.7 10.8 18.8 16.5q2.8 2.6 5.6 5.1c8 7.2 15.7 14.9 23.3 22.6q1.3 1.3 2.6 2.7l2.4 2.4c1.9 2 1.9 2 4 2.9q0 1 0 2-2.6 1.9-5.2 3.6c-17.4 11.3-34.6 24.7-49 39.7-1.8 1.7-1.8 1.7-3.8 1.7q0 1 0 2-2.4 2.6-5 5c-16 15.5-29.5 33.3-40 53q-1 0-2 0c-2.9-13.8-5.4-27.6-7.2-41.6q-.2-1.7-.5-3.5c-2.6-21-3.6-41.9-3.6-63.1q.1-5.8 0-11.6c0-43.7 0-43.7 11.5-55.6 7.6-6.7 14.8-5.8 23.5-1.8zm549.4-1.8c8.6 5.9 11.6 13 13.9 23 2.4 13.3 2.3 26.5 2.2 39.9q0 1.7 0 3.3c-.1 37.6-5.2 74.1-13.2 110.8q-1 0-2 0-.7-1.2-1.3-2.5c-8.2-14.8-18.6-27.8-29.7-40.5q-1-1.2-2.1-2.5c-10.4-11.7-21.5-22.9-33.9-32.5q-1.6-1.3-3.2-2.6c-7.2-5.7-14.5-11.1-22.1-16.3-3.6-2.5-6.8-4.9-9.7-8.1 12.9-13.1 12.9-13.1 19.2-18.5 1.9-1.6 3.6-3.3 5.3-5 3-3 6.1-5.8 9.3-8.6 2.5-2.1 4.9-4.4 7.3-6.6 5.8-5.3 11.9-10.2 18.1-14.9q2.7-2.1 5.3-4.1c23.6-18.5 23.6-18.5 36.6-14.3z" fill="#ebc98d"/><path d="M682.1 375.2c10.5 7.3 17.2 17.2 20.2 29.6 2.7 16.4.2 32.3-9.3 46.2-6.7 7.5-14.6 12.4-24.6 13.3-11.9.6-20.4-1.5-29.8-9.3-10.7-10.9-14-25.3-13.9-40 .4-14.9 6.7-26.8 17.3-37 11.3-9 27.5-10.1 40.1-2.8zm-300 2.1c9.4 7.4 15.2 19 16.9 30.7 1.1 17.1-.6 31.2-11.6 45-5.5 6.1-13.6 10.7-21.9 11.2-11.9.2-21-1.3-30.5-9.2-11.7-12.3-13.6-26-13.3-42.3.5-12.8 5.3-24.3 14.7-33.1 13.5-11.3 30.8-11.8 45.7-2.3z" fill="#013449"/><path d="M849.9 507.6q5.5 0 10.9-.1 6.4-.1 12.9-.1 2.4 0 4.8 0 3.3 0 6.6 0 1.8 0 3.8 0c3.1.6 3.1.6 5.5 3 1.9 3.1 2.2 5 2.2 8.6q.1 1.5.1 3.1c-.8 3.4-2.2 4.7-4.9 6.8-3.2 1.9-6.6 1.8-10.3 1.7H879q-4.1.1-8.2 0-3 0-5.9.1-7.8 0-15.5 0-13.7 0-27.4.1h-3c-17.2 0-34.4.7-51.6 1.6q-1.1.1-2.4.1-1.1.1-2.3.2c-31.9 1.7-31.9 1.7-35.4-1-3-4-2.9-9-2.3-13.7 1.8-2.9 3-4.5 6-6q2.7-.3 5.4-.5 1.8-.1 3.6-.2 2-.1 4-.2 1-.1 2.1-.2 7.2-.4 14.3-.8 3.9-.2 7.7-.4c27.3-1.5 54.6-2 81.8-2.1z" fill="#4d270a"/><path d="M144.2 507.5h3.7q5 0 9.9.1 4.1 0 8.2.1c18.4.1 36.7.3 55 1.3 1.4.1 1.4.1 2.9.1q12 .7 24.1 1.3 1.7.1 3.4.2 11.3.7 22.6 1.4l3.2.2q4.6.3 9.1.6l2.8.2c5.1.4 8.2 1.1 11.9 5 1.5 3.1 1.2 5.6 1 9-1.4 2.9-2.7 4.7-5 7-9.4 1-19.2-.3-28.6-.9-27.7-1.8-55.4-2.3-83.2-2.6q-14.7-.2-29.4-.4-3.6-.1-7.2-.1-4.3-.1-8.6-.2-1.1 0-2.4 0c-3.7-.2-5.3-.5-8.1-3.2-1.7-2.9-2-4.7-2-8.1q0-1.4 0-2.8c1.8-9.4 8.8-8.4 16.7-8.2z" fill="#4c270a"/><path d="M746.5 565.9q1.5.3 3 .6 4.8 1 9.6 1.9 1.6.4 3.3.7c21.1 4.3 42.1 9.1 63 14.3q4 1 8.1 1.9 6.8 1.7 13.7 3.4 2.5.7 5.1 1.3 3.5.9 7.1 1.8 1 .2 2 .5c5.9 1.5 10.2 3.6 13.6 8.7.3 3.1-.1 6-1 9-3.2 3.6-5.9 5.5-10.8 6-5.1 0-10.1-1.7-15-3q-2.9-.7-5.9-1.5-3.1-.8-6.2-1.6-10.8-2.8-21.7-5.5-1.1-.3-2.2-.6l-44.3-10.5q-1.6-.3-3.2-.7-3.1-.7-6.2-1.4-3-.6-5.9-1.3-7.4-1.7-14.8-3.2-1.5-.3-3.1-.6-2.9-.6-5.7-1.2c-4.2-.8-6.5-1.4-9.6-4.4-2.1-3.7-2.1-6.4-1.4-10.5 1.3-2.9 2.1-4.5 4.8-6.1 6.9-2.7 16.7.6 23.7 2zM301.9 564c4.3 4.1 5.2 5.8 5.5 11.8-.7 3.5-1.8 4.7-4.4 7.2-4 1.4-8.1 2.1-12.2 2.9q-3.9.7-7.7 1.5-1 .2-2 .4c-7.3 1.4-14.5 3-21.8 4.7q-2 .4-4 .9-5.1 1.1-10.3 2.3-3.2.7-6.4 1.5c-20.1 4.5-40.1 9.3-60 14.6q-1.2.3-2.4.6-2.2.6-4.4 1.2c-12.2 3.2-12.2 3.2-17.2.6-3.9-3.3-5.1-4.9-5.6-10.2 0-3.2.8-4.6 3-7 5.5-3.4 11.4-5.1 17.7-6.7q1.4-.3 2.8-.7 4.6-1.1 9.2-2.2 3.2-.8 6.4-1.6 43.7-10.7 87.8-19.4 1.4-.3 2.7-.6 3.7-.7 7.4-1.4l2.2-.4c10.1-1.9 10.1-1.9 13.7 0z" fill="#4d270a"/></svg>