<svg xmlns="http://www.w3.org/2000/svg" width="1024" height="1024" xmlns:v="https://vecta.io/nano"><g fill="#053542"><path d="M251.8 97.6c12.8 7.6 25.1 15.9 37 24.8q3.5 2.6 7 5.1c9.6 7 19 14.1 28.2 21.5q1 .8 1.9 1.6c10.6 8.5 21.1 17.2 31.3 26.1q1 .8 1.9 1.6c1.9 1.7 1.9 1.7 4 4q1.1 1.1 2.2 2.3 1 1.1 1.9 2.2c4.8 2.1 9.1-.2 13.8-1.8q3.1-.9 6.2-1.8 1.6-.5 3.2-1c25.8-7.3 52.2-12.4 78.9-14.9q3.1-.4 6.2-.8c5.7-.7 11.4-.7 17.1-.7q1.8-.1 3.7-.1 5.9 0 11.9 0 1 0 2 0c22.5-.1 44.5.9 66.8 4.3q1.6.2 3.2.5c21.9 3 44.4 8.4 65.2 15.9 3.9 1.3 6.7 2.1 10.6.6 1.9-1.3 1.9-1.3 3.6-2.9q1.1-1 2.1-1.9 1.1-1.1 2.3-2.2c7.2-6.6 14.4-12.9 22-19q1.9-1.5 3.8-3.1c8.3-6.8 16.7-13.4 25.2-19.9l1.8-1.4Q732.2 125 748 114c.9-.7.9-.7 1.9-1.3C798 79.5 798 79.5 825.4 84.4c8.4 2.6 12.8 9.4 16.8 16.7 5.4 10.4 7.9 20.9 9.9 32.4q.3 1.4.5 2.8.8 4.8 1.4 9.7.1 1 .3 2.1c1.9 15.7 2 31.4 2 47.3q-.1 5.3 0 10.7c.1 47-3.5 97.1-22.4 140.7-1.1 4-.5 5.5 1.1 9.2q.8 2 1.5 3.9.4 1.1.9 2.2c7.3 19.1 11.7 38.7 14.6 58.9q.2 1.2.4 2.5c1.9 13.8 1.8 27.6 1.6 41.5q1.1-.2 2.1-.3c57.4-8.9 57.4-8.9 65.9-2.7 2.3 3 2.5 6.3 2.4 10-.7 3.6-2.8 5.4-5.4 8-3.4 1.7-7.4 1.6-11.2 1.9q-1.3.1-2.8.3-4.5.3-8.9.7-5.9.5-11.7 1.1l-2.9.2c-9.2.8-18.3 1.8-27.5 2.8q-.1 1.8-.3 3.6c-.8 10-2.4 19.7-4.6 29.5l-.8 3.5c-1.4 6.3-3.1 12.3-5.3 18.4q1.3.2 2.6.5 4.9 1 9.8 1.9 2.1.4 4.2.8 14.7 2.8 29.4 5.8c1.3.3 1.3.3 2.7.5q3.3.7 6.5 1.4 1 .3 2.1.5c4.4.9 7 2 9.7 5.6 1 3 1.2 5.8 1 9-2 3.8-3.4 5.6-7 8-8.1 1.1-15.7-.8-23.5-2.9-7-1.8-13.9-3.4-20.9-4.6-4.6-.9-9.2-2-13.7-3.2-3.5-.8-6.4-1.3-9.9-1.3-.4.9-.4.9-.9 1.8-5.7 11.9-11.6 23.3-19.1 34.2q-.6.9-1.2 1.7c-6.1 8.9-12.7 17.2-19.8 25.3-.9 1.1-.9 1.1-1.9 2.2-8.1 9.6-17.2 18-27.1 25.8q-1.8 1.4-3.6 2.9-1.9 1.5-3.8 3c-.8.7-.8.7-1.7 1.4-3.2 2.5-6.4 4.7-9.9 6.7 2.5 10 5.9 19.7 9.2 29.4q1 2.8 1.9 5.5 1.5 4.2 2.9 8.5 3.4 9.8 6.7 19.6l17.7 51.4q1.4 3.9 2.7 7.8 4.8 13.6 9.6 27.2 2.5 7.2 5 14.3 1.2 3.5 2.5 7 1.7 4.9 3.4 9.8l1 2.9c1.8 4.9 3.2 9.3 2.4 14.6-2.4 3.8-5.1 6-8.9 8.3q-1.5.9-3 1.8-1.5.9-3.2 1.8-1.6 1-3.3 2c-49 28.8-101.4 48.2-156.6 61.1q-1.7.4-3.4.8c-80.9 18.5-168 14.2-410.9-65.3q-.8-.6-1.8-1.1-4.5-3-8.8-6.3c-.8-.7-.8-.7-1.7-1.4-2-2.5-2.1-4.5-2.4-7.7.6-2.7.6-2.7 1.5-5.5q.6-1.5 1.1-3.2l1.3-3.4 1.2-3.6q1.7-4.8 3.4-9.6 1.7-5 3.5-10 3.4-9.7 6.8-19.3 2.4-6.7 4.7-13.3 2.4-7 4.9-13.9 5.4-15.4 10.8-30.8.4-1.3.9-2.6 5.8-16.6 11.6-33.3.5-1.6 1.1-3.4 2.9-8.2 5.7-16.4 1.1-3 2.1-6 .5-1.4 1-2.8c1.1-3.3 2.2-6.5 3.6-9.8 1-2.3 1-2.3.8-6.1-2.3-2-4.6-3.7-7.1-5.4-19.3-14-36.7-30.4-50.9-49.6q-1-1.3-2-2.6c-10.9-14.3-19.3-30.3-27-46.4-5.7.5-10.9 1.4-16.4 2.9-6.6 1.7-13.2 2.9-19.9 3.9-5.1.9-10.1 2-15.2 3.4-14.2 3.7-14.2 3.7-20.5 0-2.8-3.1-3.8-4.9-4.4-9.1.5-4.1 1.6-6 4.4-9.1 7.7-3.6 16.1-4.9 24.4-6.5q2.3-.5 4.6-.9l23.8-4.5q1-.2 2.1-.4c3.4-.5 6.7-.7 10.1-.7-.2-.8-.2-.8-.5-1.7-5.1-17.8-9.8-35.7-10.5-54.3q-1-.1-2-.1c-8.7-.6-17.4-1.6-26-2.7-5.6-.7-11.1-1.3-16.7-1.7q-1.7-.1-3.3-.2-3.1-.2-6.2-.4c-5.8-.4-9.3-1.1-13.8-4.9-2.4-3.2-2.5-6.1-2-10 2-3.7 3.5-5.7 7-8 10.5-.9 20.9.4 31.3 1.7q4.8.5 9.6 1.1l3.5.4q3.6.4 7.1.7 1.6.2 3.2.4 1.5.2 3 .3c2.3.4 2.3.4 4.3 1.4v-2.8a244.99 244.99 0 0 1 1.2-27l.2-1.9c2.5-25.6 8-50 17.3-73.9q.6-1.7 1.3-3.4l1.4-2.9c.9-4.5-.6-7.4-2.4-11.5-9.5-23.8-13.1-49.4-16.2-74.7l-.2-2.1q-.4-3.1-.8-6.1-.2-1.8-.4-3.6c-1.2-11.2-1.6-22.4-1.6-33.7q0-1.1-.1-2.3 0-6.2 0-12.4 0-5-.1-10c-.7-82.3-.7-82.3 20.8-106 18-15.4 45.7-3.4 63.4 6.9z"/><path d="M251 738c2.6 1.3 5.1 2.6 7.5 4.3 24.6 16.3 50.5 28.2 78.5 37.7l2.8 1c14.7 5 29.6 8.8 44.8 12.2q4.5 1.1 9 2.1c13.4 3.1 27 5 40.7 6.9q1.3.2 2.7.4c26.2 3.6 52.2 4.8 78.6 4.7q2.1 0 4.1 0c20.6 0 40.9-.7 61.3-3.3l3.3-.4c62-7.3 129.5-25.7 180.4-63 2.3-1.6 2.3-1.6 5.3-2.6q.3.8.5 1.6l24.4 71.2q1 2.7 1.9 5.3 3.8 10.8 7.6 21.6 1.4 4.1 2.9 8.2.9 2.7 1.9 5.4c3.7 10.4 3.7 10.4 2.8 15.7-2.6 3.7-5.1 6-8.9 8.3l-3 1.8c-1.5.9-1.5.9-3.2 1.8q-1.6 1-3.3 2c-49 28.8-101.4 48.2-156.6 61.1q-1.7.4-3.4.8c-80.9 18.5-168 14.2-410.9-65.3q-.8-.6-1.8-1.1-4.5-3-8.8-6.3c-.8-.7-.8-.7-1.7-1.4-2-2.5-2.1-4.5-2.4-7.7.6-2.7.6-2.7 1.5-5.5q.6-1.5 1.1-3.2.6-1.6 1.3-3.4.6-1.7 1.2-3.6 1.7-4.8 3.4-9.6 1.7-4.9 3.5-9.9 3.4-9.7 6.8-19.4 2.4-6.9 4.8-13.7 3.8-10.9 7.7-21.7 1.9-5.5 3.9-10.9 3.9-11.1 7.8-22.1z"/></g><path d="M275 669c5.6 2.7 11 5.6 16.3 8.7 44.1 26.2 92.9 39 143.3 46.1q1 .2 2.1.3c23.5 3.4 47.1 4.3 70.9 4.3q.9 0 2 0c36 0 71-3.7 106.4-10.4q1.9-.3 3.8-.7c41.9-8.1 83-21.7 119.5-44.1l5.7-3.2c2.9 1.4 2.9 3.1 3.9 6.1q.6 1.7 1.1 3.3l1.2 3.7q1 2.8 1.9 5.6 1.4 3.9 2.7 7.9 1.9 5.9 3.9 11.8 1.6 4.6 3.1 9.2a44.75 44.75 0 0 1 1.1 3.4q.6 1.5 1.1 3.1l2.8 7.5c1.2 3.4 1.4 4.2.2 7.4-12.7 12.4-32.1 20.5-48 28q-1.2.6-2.4 1.1c-56.1 26.3-122.8 40-184.6 40.1q-2 0-3.9 0-4.1 0-8.2 0-4.1 0-8.1 0c-25.9.1-51.5-1.2-77.2-4.7q-1.4-.2-2.8-.4c-30.4-4.1-61-10.2-90-20.1q-4.3-1.5-8.6-2.9c-28.4-9.4-59.4-22.1-82.2-42.1 1.4-7.2 3.6-14 6-21q.6-1.6 1.2-3.4 1.9-5.3 3.7-10.7 1.3-3.6 2.5-7.2L275 669z" fill="#e75532"/><path d="M562.9 465.2c3.7 3.2 6.7 5.9 7.4 10.9-.4 8.3-5.5 14.4-11.2 20-9 7.5-20 12.3-31.1 15.9q-.8 5.1-1.5 10.2-.2 1.4-.4 2.9l-.4 2.8q-.2 1.3-.4 2.6c-.7 5.5-.7 5.5 1.5 10.3 10 11.2 22.4 18.3 37.5 19.4 14.8.6 29.7-2.6 41.2-12.3 5.2-5 9.1-9.7 11.4-16.6 1.6-3.3 3.9-4.5 7.1-6.3 5-1.7 10.1-1.9 14.9.3 2.4 1.9 3.9 3.6 4.4 6.6.1 12.7-5.8 21-14.2 30.1-8.8 8.3-20.8 14-32.1 18q-1.6.6-3.2 1.2c-20.2 6.6-44 4.4-62.9-5.1-6.7-3.5-12.9-7.6-18.9-12.1-3.5 1.5-6.1 3.6-9 6-19.1 13.2-43.4 17.9-66.1 13.8-22.6-4.5-40.6-17.4-53.9-35.8-3.3-4.9-5-8.6-4.9-14.7 1-3.6 2.3-5.6 4.9-8.3 2.4-1.2 4.1-1.2 6.8-1.3q1.2-.1 2.5-.1c5 .8 7.9 3.4 10.9 7.3 1.1 1.6 1.1 1.6 2.1 3.3 8.7 13.2 19 21.3 34.6 25.1 12.5 2.4 26.5 2 37.6-4.8 8.1-5.8 18.9-14.7 21-24.9a98.46 98.46 0 0 0 .3-7.6q.1-1.3.1-2.6.1-3.2.1-6.4-.8-.2-1.7-.3c-16.6-3.4-29.9-13.6-40.3-26.7-2.9-4.7-2.9-9.6-2-15 3.8-7.5 11.5-11.1 19-14 27.4-8.6 64.9-10 88.9 8.2z" fill="#001922"/><path d="M232 141c9.4 3.3 18.1 8.9 26 15q.8.6 1.6 1.2c8.4 6.5 16.6 13.3 24.6 20.3q2.7 2.3 5.3 4.5a513.4 513.4 0 0 1 18.9 16.8c4.3 4 8.9 7.7 13.6 11.2-2.8 3-5.7 5.3-9.3 7.5-14.2 9.3-27.8 19.9-40.4 31.4q-2.9 2.7-6 5.3c-15.3 13.4-29.5 27.7-42.3 43.4-1.6 2-3.2 3.7-5 5.4-3.3-6-5.1-11.5-6.5-18.1q-.3-1.5-.6-3c-2.7-13.2-4.3-26.5-5.9-39.9q-.1-1-.3-2.1c-1.5-12.5-2.1-24.8-2.1-37.3q0-4.5 0-9.1c-.1-15.4.1-34.4 9.4-47.5q.6-.8 1.2-1.7c4.6-5.1 11.6-4.4 17.8-3.3zm574.2.3c11.9 11.6 12.9 30.3 13.1 45.9.4 38.2.6 82-14.3 117.8-3.8-3.6-7-7.4-10.1-11.6-4.5-5.8-9.3-11.2-14.3-16.6q-3.7-4-7.3-8.1c-6.4-7.1-13-13.4-20.5-19.4-2.6-2.1-5-4.3-7.5-6.6-13.7-12.4-29.4-22.3-45.3-31.7q1.7-1.7 3.4-3.4 1.6-1.6 3.2-3.3c4.7-4.9 9.8-9.1 15.2-13.2 3.4-2.6 6.6-5.3 9.8-8.2 5-4.5 10.3-8.5 15.7-12.6q2.5-1.9 5-3.8c39.5-30.9 39.5-30.9 53.9-25.3z" fill="#0d4d60"/><path d="M692 376q1.5.5 3.1 1.1c17.9 6.8 30.3 20.7 38.3 37.9 2.7 6.8 4 12.3 1.4 19.3-1.8 2.8-3 4-5.8 5.7-2.6.4-2.6.4-5.4.4q-1.3.1-2.7.1c-5-.9-8-3.3-10.9-7.3q-.9-1.6-1.8-3.3c-7.5-12.8-15.9-23.3-30.7-27.3-11.9-2.8-20.7-2.2-31.4 4.1-9.5 6.4-15.1 15.2-20.7 25.1-1.6 2.5-3.2 4.3-5.4 6.2-6.4.3-11.2-3.1-16-7-2.6-3.9-2.9-6.5-2-11 7.4-20 23-33.5 42-42.3 16.1-7.1 31.5-8.1 48-1.7z" fill="#001821"/><path d="M384 379q1.5.6 3.1 1.3c14.2 7 23.6 20.6 29.9 34.7 1.6 4.7 2 9.1 1 14-3.5 4.8-8.7 8.2-14.4 9.6-2.6-.6-2.6-.6-4.8-3.7q-1.4-2.4-2.8-4.9-2.3-3.9-4.6-7.7-.5-.9-1.1-1.9c-3.5-5.9-6.8-10.4-12.7-14.1-1.3-.9-1.3-.9-2.7-1.7-8.8-4.8-18.9-5-28.4-2.8-14.9 5.3-25.7 15.2-32.6 29.1q-.5 1-.9 2c-2.2 4.5-4.2 6.4-9 8.1-4.5.8-7.9.6-11.9-1.7-4.1-4.4-5.8-7.7-5.5-13.7 2.1-13.5 12.1-26.1 22.4-34.6 22.5-16.2 48.6-23.5 75-12z" fill="#001822"/><path d="M853 447q.5 0 1 0v18l5.2-.8c54.4-8.4 54.4-8.4 62.8-2.2 2.3 3 2.5 6.3 2.4 10-.7 3.6-2.8 5.4-5.4 8-3.4 1.7-7.4 1.6-11.2 1.9q-1.3.1-2.8.3-4.5.3-8.9.7-5.9.5-11.7 1.1-1.4.1-2.9.2c-9.2.8-18.3 1.8-27.5 2.8l-2 16q-.5 0-1 0 0-2.1-.1-4.1 0-1.2 0-2.3c.1-3 .6-5.7 1.1-8.6-30 2.7-59.7 8-89 14.9q-1.9.4-3.7.8-1.6.4-3.2.8c-8.6 1.5-8.6 1.5-12-.7-1.3-2.1-1.7-3.7-2-6.2q-.2-1.1-.4-2.2c.4-3.5 1.9-5 4.3-7.4 9.8-5.2 21.2-7.3 32-9.4q.9-.2 1.9-.4 2.1-.4 4.1-.8 2.9-.6 5.7-1.1l41.1-7.6c1.4-.3 1.4-.3 2.9-.5 6.4-1 12.8-1.7 19.3-2.2v-19z" fill="#011821"/><path d="M169 443q.5 0 1 0l1 22c8.3 2.1 16.6 3.6 25.1 4.9 19.3 2.9 38.4 6.2 57.2 11.2q1.9.5 3.9 1c9.1 2.5 16.5 4.7 21.8 12.9.7 2.6.7 2.6 0 5-1.5 2.2-3.2 4-5 6-5.6-1.1-11.2-2.3-16.8-3.6C214.5 492 214.5 492 171 488v9q-.5 0-1 0l-1-10q-2.4-.2-4.9-.3c-7.8-.6-15.4-1.6-23.1-2.5-5.6-.7-11.1-1.3-16.7-1.7q-1.7-.1-3.3-.2-3.1-.2-6.2-.4c-5.8-.4-9.3-1.1-13.8-4.9-2.4-3.2-2.5-6.1-2-10 2-3.7 3.5-5.7 7-8 10.5-.9 20.9.4 31.3 1.7q4.8.5 9.6 1.1l3.5.4q3.6.4 7.1.7 1.6.2 3.3.4 1.4.2 2.9.3c2.3.4 2.3.4 4.3 1.4q0-1.5 0-3 0-2-.1-4.1 0-1.9 0-3.9c.1-3.8.5-7.3 1.1-11zm110.9 86.8c3.1 3.3 4 5.1 4.5 9.6-.5 4.7-1.7 5.7-5.4 8.6-3.2 1.2-6.4 1.8-9.7 2.4q-1.6.3-3.2.6c-14.5 2.7-29.2 4.2-43.8 5.9-9.5 1-18.8 2.1-28 4.5-2.3.6-2.3.6-5.3.6q.5 1 1 2.1 2.3 4.6 4.6 9.3.8 1.6 1.6 3.2.7 1.6 1.5 3.2l1.4 2.9c.4 1.1.4 1.1.9 2.3l-1 2q-2.4-4.6-4.9-9.2-.7-1.4-1.4-2.7-.6-1.3-1.3-2.6-.6-1.1-1.3-2.3-1.6-3.1-3.1-6.2c-5.7.4-11 1.4-16.4 2.9-6.6 1.7-13.2 2.9-19.9 3.9-5.1.9-10.1 2-15.2 3.4-14.2 3.7-14.2 3.7-20.5.1-2.8-3.2-3.8-5-4.4-9.2.5-4.1 1.6-6 4.4-9.1 7.7-3.6 16.1-4.9 24.4-6.5q2.3-.5 4.6-.9l23.8-4.5 2.1-.4c3.4-.5 6.7-.8 10.1-.7l-1-7q1.5 1 3 2 0 2 0 4 10.8-1.4 21.7-2.8 3.6-.5 7.3-1l34.2-4.8c1-.2 1-.2 2-.3 6.2-1.1 12.2-2.7 18.2-4.3 5.1-1.1 9.8-1.9 14.5 1zM847 520q.5 0 1 0c-.3 5.8-1.2 10.9-3 16.4q-.6 1.5-1.2 3.2-.4 1.2-.8 2.4 1.3.2 2.6.5 4.9 1 9.8 1.9 2.1.4 4.2.8 14.7 2.8 29.4 5.8 1.3.3 2.7.5 3.3.7 6.5 1.4 1 .3 2.1.5c4.4.9 7 2 9.7 5.6 1 3 1.2 5.8 1 9-2 3.8-3.4 5.6-7 8-8.1 1.1-15.7-.8-23.5-2.9-7-1.8-13.9-3.4-20.9-4.6-4.6-.9-9.1-2.1-13.6-3.3-4.3-1.1-7.6-1.3-12-.2q0-1.5 0-3-1.3-.2-2.7-.3c-6.6-.9-13.1-1.8-19.7-3.1-7.8-1.4-15.6-2.3-23.5-3.2-11.1-1.3-22-2.7-32.9-5q-1.5-.3-3-.6c-4.5-.9-7.7-1.7-11.2-4.8-1.2-3.7-1.7-7.1-1-11 2.2-2.7 3.9-4.5 7-6 5-.3 9.2.4 14 1.8 10.5 2.8 21.3 4.2 32.1 5.8q3 .4 6 .8L840 542q.7-1.9 1.4-3.8.4-1 .8-2.1c1.2-3.1 2.1-6.4 3-9.6l1-3.7q.4-1.4.8-2.8z" fill="#011921"/></svg>