<svg xmlns="http://www.w3.org/2000/svg" width="1024" height="1024" xmlns:v="https://vecta.io/nano"><path d="M251 89c13 7.5 25.2 16.1 37 25.4 3.3 2.7 6.8 5.2 10.2 7.7 10.8 8.1 21.4 16.5 31.7 25.3l8.8 7.2c4.4 3.6 8.7 7.4 13 11.3l8.2 7.2c3.6 3.2 7.1 6.5 10.6 9.8 2.2 1.9 3.8 3.1 6.5 4.1 2.3-.3 2.3-.3 4.8-1.3l2.8-1q1.5-.6 3.1-1.1 3.3-1.2 6.6-2.3 1.6-.6 3.4-1.2c23.8-8 49.2-14.2 74.3-16.1q1.4-.1 2.9-.3c30.8-2.4 63.6-2.7 94.1 2.3q1 .2 2.1.3c25 4.2 49.2 10.3 73.1 18.9 2.9.8 4.8 1.3 7.8.8 2.4-1.6 2.4-1.6 4.7-3.9q1.3-1.3 2.6-2.5 1.3-1.3 2.7-2.6 2.5-2.3 5-4.5 3.7-3.4 7.5-6.7c5-4.6 10.1-9 15.4-13.3q3.3-2.7 6.7-5.4C721 127 746.6 107.9 774 92q.9-.5 1.8-1.1c14-8.1 29.7-15.5 46.2-12.9 9.6 3 15 10.8 19.6 19.3 12 24.4 11.9 53.2 11.8 79.8v3.9c-.1 22.1-.9 44-3.4 66q-.1 1.1-.3 2.3c-3.4 30-9.1 59.5-17.3 88.6q-.4 1.4-.8 2.8-.7 2.7-1.5 5.4c-.1 4.6 1.7 8.4 3.5 12.6q1.1 2.8 2.2 5.6.6 1.4 1.1 2.9c2.8 7.1 5 14.5 7.1 21.8.5 1.8.5 1.8 1.1 3.7 2.4 9 4 18.2 5.6 27.5q.3 1.9.6 3.8c2.1 12.5 2.9 24.7 2.8 37.3q0 1.7-.1 3.4 0 4.2 0 8.3l2-.2 40-2.8q1.2-.1 2.4-.1 3.7-.2 7.4-.3 1.1 0 2.2-.1c4.1-.1 5.8.3 9 2.9 2.9 3.7 3.6 5.8 3 10.6-3 3.7-5.3 5.7-10.1 6.2q-1.2.1-2.5.2-1.4.1-2.8.1-1.5.1-3 .2-1.6.1-3.1.2-5 .3-10 .6-4.9.3-9.9.6-3 .2-6.1.4-9.8.5-19.5 1.5-.1 1-.2 2c-2 16.9-4.4 33.2-10.8 49a48.6 48.6 0 0 0 3.8.3c5.7.7 11.3 2 17 3.3q1.6.4 3.3.8 3.5.8 6.9 1.6 5.3 1.2 10.6 2.4 3.4.8 6.8 1.6 1.5.4 3.1.7c13.4 3.2 13.4 3.2 17.5 7.3 0 4.5-.5 8.1-2.7 12-2.9 2.5-4.5 2.6-8.3 3-3.1-.4-3.1-.4-6.4-1.2q-1.9-.4-3.8-.8-2-.5-4.1-.9-2.1-.5-4.2-1-5.4-1.2-10.9-2.5-4.5-1-9-2-9.3-2.1-18.6-4.2-1.6-.4-3.3-.7c-2.7-.7-2.7-.7-5.7-1.7-.1.8-.1.8-.3 1.5-4.8 16.7-17 33.1-27.7 46.5q-1.2 1.5-2.4 3c-10.8 13.3-23 25.6-36.6 36q-1.5 1.2-3.1 2.5C744.1 667 744.1 667 740 667q.3.8.6 1.6c5.1 13.3 9.9 26.6 14.6 40q6.5 18.7 13.2 37.3 10.9 30.1 21.5 60.3 1.1 3 2.1 6 .7 1.9 1.4 3.9 3.9 11 7.9 22.1 1.9 5.2 3.7 10.3.9 2.3 1.7 4.6c6.2 16.8 6.2 16.8 3.3 23-31 33.8-88.2 48.4-131.2 59.2q-3.8 1-7.6 2c-26.6 7.3-54.7 10.6-82.1 13.5q-3.1.3-6.2.7c-56.4 6.1-114.8 3.8-170.9-3.5q-1.7-.2-3.5-.5c-60.3-8-150-24.4-193.5-70.5-3.1-6.3-.5-13.6 1.6-19.8q1.1-3 2.1-6.1.8-2.2 1.5-4.4 2-5.8 4-11.7 2.1-6.1 4.2-12.2 8.8-25.6 17.7-51l19.4-56.6q1.9-5.5 3.7-11 2.3-6.6 4.5-13.2.8-2.4 1.7-4.9 1.1-3.4 2.2-6.8.4-.9.7-2c1.3-3.7 2.2-7.4 2.7-11.3l-2-1.2c-16.4-10.2-31-22.5-45-35.8-1.1-1.1-1.1-1.1-2.3-2.2-5.4-5.2-10-10.9-14.7-16.8q-1.2-1.4-2.4-2.9c-25.6-32-25.6-32-25.6-44.1-12.1 2.2-24.2 4.5-36.2 7.4q-1.3.3-2.7.6-6.6 1.5-13.1 3.1-2.5.6-4.9 1.2-1.1.3-2.3.6c-3.9.9-7 1.5-10.8.1-3.1-3.4-4.9-5.7-5.4-10.4.4-3.6.4-3.6 2.4-5.7 3.8-2.4 7.3-3.3 11.6-4.3q1.3-.3 2.5-.7 4.1-.9 8.1-1.9 2.6-.6 5.2-1.3 12.9-3.1 25.7-6 1.1-.3 2.3-.5c2.9-.7 5.6-1.2 8.6-1.2q-.2-1-.4-2-2.3-11.5-4.6-23-.3-1.3-.5-2.7-.7-3.4-1.3-6.7c-.4-1.9-.4-1.9-.7-3.8-.6-4.6-.6-9.1-.5-13.8q-.9 0-1.8-.1-11.1-.3-22.1-.8-3.3-.1-6.6-.3-5.7-.2-11.5-.5-2.2-.1-4.5-.2-3.2-.1-6.4-.3-1.8-.1-3.7-.2c-4-.7-6.3-2-9.4-4.6-1.2-3.9-1.5-6 .3-9.7q.8-1.2 1.7-2.3.6-.8 1.1-1.6c3-2.2 6.1-1.8 9.7-1.8q1.2 0 2.5 0c16.2.3 32.5 2 48.7 3.4q0-1.1 0-2.3c-.1-17.1 1.2-33.8 4-50.7q.2-1.5.5-3c3.8-22.7 10-44.6 18.5-66 1.3-3.9.4-5.9-.7-9.9q-.6-2.1-1.2-4.2-.3-1.1-.6-2.3-1.6-5.8-3.1-11.6-.4-1.2-.7-2.4c-7.8-29.7-11.3-60-13.6-90.6q-.2-2.8-.4-5.7c-.9-11.7-.9-23.4-.9-35.2q0-5.2 0-10.5c-.1-19.7.3-39.6 4.5-58.9.3-1.6.3-1.6.7-3.2 1.6-7.2 3.5-13.9 7-20.5q.7-1.3 1.4-2.7c3.9-7.2 8.8-12 15.9-16.2 17.1-4.9 34.9 3.8 49.7 11.9z" fill="#518484"/><path d="M282 667c3.3 1.2 6.3 2.6 9.3 4.4 66.9 38.1 145.4 47.8 221.3 47.9q1.7 0 3.5 0c30.7-.1 61.6-1.5 91.9-6.3 1.5-.2 1.5-.2 3.1-.5 45.7-7.5 88.7-21.3 128.9-44.5 4.5 10.2 8.2 20.7 11.8 31.2q2.9 8.1 5.7 16.2.6 1.6 1.2 3.3 4.5 12.8 9.2 25.7 11.1 30.9 22 61.8 1.1 3 2.1 6 .7 1.9 1.4 3.9 3.9 11 7.9 22.1 1.9 5.2 3.7 10.3.9 2.3 1.7 4.6c6.2 16.8 6.2 16.8 3.3 23-31 33.8-88.2 48.4-131.2 59.2q-3.8 1-7.6 2c-26.6 7.3-54.7 10.6-82.1 13.5q-3.1.3-6.2.7c-56.4 6.1-114.8 3.8-170.9-3.5q-1.7-.2-3.5-.5c-60.3-8-150-24.4-193.5-70.5-3.1-6.3-.5-13.6 1.6-19.8q1.1-3 2.1-6.1.8-2.2 1.5-4.4 2-5.8 4-11.7 2.1-6.1 4.2-12.2 8.8-25.6 17.7-51l24-70.4q1.7-5.2 3.5-10.4 1.2-3.7 2.4-7.3.8-2.3 1.5-4.5.4-1 .7-2c1.2-3.4 2.4-6.8 3.8-10.2z" fill="#528483"/><path d="M282 667c3.3 1.2 6.3 2.6 9.3 4.4 66.9 38.1 145.4 47.8 221.3 47.9q1.7 0 3.5 0c30.7-.1 61.6-1.5 91.9-6.3 1.5-.2 1.5-.2 3.1-.5 45.7-7.5 88.7-21.3 128.9-44.5 4.4 10 8.1 20.2 11.8 30.4q1 2.9 2.1 5.7 1.5 4.2 3 8.4.5 1.2.9 2.5c1.9 5.2 2.7 9.4 2.2 15-6.1 10.9-23.1 16.8-34 22q-1 .5-2.1 1c-75.7 35.8-164.2 44.5-400.8 11.3-51.4-18.7-51.4-18.7-61.1-33.3.3-7.3 2.3-13.7 4.7-20.6q.6-1.7 1.2-3.3 1.7-5.2 3.5-10.4 1.2-3.4 2.4-6.9 2.2-6.4 4.4-12.8.5-1.3.9-2.6 1.4-3.7 2.9-7.4z" fill="#007490"/><path d="M390.7 367.1c14.6 12.5 22.9 27.9 24.6 47.2.6 19.7-6.8 36.5-19.9 50.9-12.7 12.2-30.2 17.4-47.5 17.1-17.8-1.4-32.3-9.6-44-22.8-13.2-16.4-16.7-33.7-14.9-54.5.9-5 2.7-9.5 5-14q.7-1.3 1.4-2.7c3.6-6.6 8.4-12 13.6-17.3q1-1 1.9-2c21.5-20.3 57.2-19.3 79.8-1.9z" fill="#fdac01"/><path d="M705.4 365.6c12.4 9.1 22.7 22.8 26.2 38.1 1.4 11.7 2.2 25.3-2.6 36.3q-.4.9-.8 1.8c-7.3 16.6-18.3 29.1-35.4 36.2-18.1 6.5-34.6 5.3-52-2.7-6.2-3.2-11-7.4-15.8-12.3q-.9-.9-1.9-1.8c-12.2-12.5-16.7-30.2-16.5-47.1.5-15.3 6.9-30.1 17.4-41.3 22.9-20.9 55.2-24.4 81.4-7.2z" fill="#fcac01"/><path d="M246.1 144.5c20.8 8.1 38.1 22.2 54.9 36.5a31.92 31.92 0 0 1 1.9 1.6c6.8 5.7 13.4 11.5 19.9 17.4 2.1 1.9 4.2 3.7 6.3 5.4q1.4 1.3 2.9 2.6 0 1 0 2c-2.3 1.5-4.6 3-7 4.4-11.7 7.1-22.6 15.1-32.6 24.4-2.6 2.4-5.3 4.6-8.1 6.8-3.8 3.1-7.3 6.2-10.6 9.7-1.8 1.8-3.6 3.4-5.4 5-9.1 7.8-16.9 16.3-24.3 25.7q-1.4 1.8-2.8 3.5L227 308c-19.2-18-21.1-54.2-22-79l-.3-20.3q0-3 0-6c-.4-40.8-.4-40.8 12.4-55 7.8-7 19.3-6.1 29-3.2z" fill="#2f666d"/><path d="M500.3 457.8h2.9q3 0 6 0 4.5 0 9.1 0c34.7-.1 34.7-.1 47.1 11.5 3.8 4 4 6.7 3.9 11.9-.7 7.2-2.9 13.1-7.3 18.8-3 2.1-3 2.1-6.4 3.9q-1.9 1-3.8 2-.9.5-1.9 1.1c-14.5 7.6-14.5 7.6-22.9 21-1.1 10.8.4 19.7 7.3 28.2 8.8 9.1 21.4 10.9 33.5 11.1 8.6.1 15.8.1 23.8-3.5 3.1-1 5.2-.6 8.4.2 3.1 2.1 4.9 3.8 7 7 .5 4 .3 6.4-1.4 10.1-8.1 9.2-19.7 12.5-31.6 13.9-20.7 1.1-39.8-2.2-56-16-1.9-1.9-3.4-3.8-5-6-1.5 1.3-1.5 1.3-2.9 2.6q-2.1 1.7-4.1 3.4-1 .9-2.1 1.8c-16 13.2-36.7 16-56.9 14.2-10.4-1.4-20.7-5.2-28.1-12.9-2.4-3.9-2.7-5.6-1.9-10.1 2.3-4.5 4.5-7.4 9.2-9.3 4.3.3 7.4 1.5 11.3 3.3 12.6 5 30 1.3 42.5-3 8-3.6 12.4-7.8 15.7-15.9 2.3-7.4 3.1-15.9 0-23.1-4.6-7.2-10.8-11.1-18.4-14.9-8.9-4.5-16.3-8.5-20.2-18.4-1.9-6.6-2.4-13.7.4-20.1 11.2-11.5 27.6-12.7 42.8-12.8z" fill="#053339"/><path d="M808.3 146.5c11.5 9.6 12.1 25.1 13.5 39.1.6 7.5.6 15 .6 22.5v2.7c-.1 17.3-1.6 34.1-4.4 51.2q-.2 1.5-.5 3c-2.3 14-5.5 29.7-14.5 41q-2 0-4 0c-1.8-1.9-1.8-1.9-3.6-4.7-12.3-17.8-28-34.2-44.4-48.3q-1.6-1.4-3.2-2.7-3.6-3.1-7.2-6.2-3.4-2.9-6.8-5.9C722.1 228 709.3 219.1 696 211c1.4-3.2 3-5.2 5.5-7.6q1.1-1 2.2-2 1.1-1 2.2-2.1 1.2-1.1 2.4-2.2c4.9-4.5 9.8-8.8 15.1-13 2.4-1.9 4.7-3.9 7.1-6 13-11.3 27-21.4 42.5-29.1l3.3-1.7c9.5-4.2 22.6-6.5 32-.8z" fill="#2f666d"/><path d="M499.1 162.9q1.7 0 3.5 0 3.6 0 7.2 0 5.6 0 11.2 0 3.5 0 7.1 0 1.6 0 3.3 0c5 0 9.7 0 14.6 1.1q-2.3 23.5-4.6 46.9-.4 4.2-.8 8.3-1.2 12-2.4 24-.6 5.3-1.1 10.7c-1.4 13.6-2.8 27.1-5.6 40.4q-.3 1.4-.5 2.9c-2.2 9.7-4.4 18.1-13 23.8-3.1 1.5-5.6 1.2-9 1-6.8-3.3-9.5-9.1-12.1-16-3.6-12.1-4.8-24.8-6.4-37.4q-.5-3.5-1-7.1c-1.4-9.9-2.3-19.9-3.2-29.8q-.6-7.3-1.3-14.6l-.2-2.9q-1.2-12.3-2.5-24.6-.2-1.6-.3-3.4c-.5-3.9-.9-7.8-1.6-11.7-.6-3.5-.5-6.9-.4-10.5 6.4-1.1 12.6-1.1 19.1-1.1zM476 165q0 .5 0 1c-5.4.9-10.5 1.1-16 1q.4 1.9.8 3.8c1.6 7.7 2.5 15.5 3.4 23.4q.5 4 1 8 .4 2.6.7 5.2c.1 1.2.1 1.2.3 2.4 1.2 10.4 2 20.8 2 31.3v3.4q0 3.5 0 7 0 5.3 0 10.5 0 3.5 0 6.9 0 1.5.1 3.1c-.1 9.4-.9 18.8-4.6 27.5q-.6 1.4-1.2 2.9c-1.8 3.1-3.6 4.7-6.5 6.6-4.5.9-7.3.2-11-2.3-15.4-12.9-19.5-37.9-24-56.5q-.4-1.5-.8-3.1c-5.6-22.7-10.4-45.8-13.2-69.1 7.7-3 15.4-5.2 23.4-7.1q1.7-.3 3.5-.7c13.8-3.1 27.8-6 42.1-5.2z" fill="#2f666c"/><path d="M559 166c8.7-.4 16.8 1 25.2 2.7q3.5.7 7 1.4c7.9 1.5 15.6 3.3 23.3 5.5q1.1.3 2.2.6c5 1.5 5 1.5 7.3 3.8l-7-1q-.2 1.9-.4 3.9c-11.3 101-11.3 101-34.9 121.2-4.2 2.9-7.6 3.7-12.7 2.9-5.6-3.1-7.1-6.9-9.1-12.9-2.2-7.9-3.2-15.1-3.2-23.3q0-1.5 0-3.2 0-5.1 0-10.2 0-1.8 0-3.6c0-18.4.9-36.5 3.3-54.8q.3-2.1.5-4.2 1.3-10.1 2.6-20.1c.2-1.6.2-1.6.5-3.2.4-2.5.4-2.5 1.4-4.5q-3 0-6 0 0-.5 0-1z" fill="#2e666c"/><path d="M363.3 384.4c9.6 4.6 16.9 12.6 20.8 22.4 2.3 8.4 2.1 19-1.6 26.9-5.3 8.4-12.9 16.1-22.5 19.3-11.2.8-19.4.3-28.2-7.1-7.9-7.5-12.7-16.1-13.1-27.1.2-9.9 2.5-19.3 9.3-26.8 2.8-2.3 5.8-4.2 9-6q1.4-.8 2.8-1.6c7.1-3.1 16.3-2.5 23.5 0z" fill="#06323b"/><path d="M684 386c7.7 4.7 14.6 11.7 17.5 20.4 1.9 10.1 1.6 20.6-3.5 29.6q-.6 1.2-1.3 2.4c-4.5 7.8-11.3 11.6-19.7 14.5-8.2 2.2-15.2.7-22.6-3.3-8.3-5.5-13-12.8-16.7-21.8-1.8-9.9-1.7-19.8 3.3-28.8 10.1-14.4 26.5-20.5 43-13z" fill="#06333b"/><path d="M279.4 527.2l1.6 1.7q.8.8 1.7 1.6c1.9 2.2 2.3 3.4 2.7 6.3-.5 4.4-2 5.5-5.4 8.2-2.9.9-5.4 1.4-8.4 1.9q-1.2.2-2.5.4-2.7.5-5.4.9l-15 2.6-3.2.5-33.6 6.4-3.1.6-62.1 13.5q-1.8.4-3.6.8-3.4.8-6.7 1.6c-14.6 3.3-14.6 3.3-18.2 1.1-3.2-3.4-4.1-5.1-4.6-9.8.4-3.5.4-3.5 2.4-5.6 3.5-2.2 6.9-3.3 10.9-4.2q1.2-.3 2.4-.6 3.8-.9 7.7-1.9 2.7-.6 5.4-1.3c17-4.1 34.1-7.8 51.2-11.4q3.7-.8 7.3-1.5l50.3-10.1q2.1-.4 4.3-.8c18.7-3.5 18.7-3.5 23.9-.9z" fill="#063138"/><path d="M898.7 469.9q3.8-.2 7.5-.3l2.2-.1c3.9-.1 5.4.4 8.5 2.9 2.3 2.8 3 3.9 3.5 7.4-.5 4.3-2.1 5.5-5.4 8.2-2.6.9-4.4 1.2-7.2 1.3l-2.5.2-2.8.1q-3 .2-5.9.4l-3.2.2c-41.8 2.4-83.8 5.3-125.3 11.6-6.1.9-11.9 1.6-18.1 1.2-3.6-3-4.8-4.9-5.6-9.6.7-4 1.6-5.6 4.6-8.4 4.5-2.3 9.3-2.7 14.3-3.4q1.3-.1 2.7-.3 4.6-.6 9.1-1.2 1.6-.2 3.2-.4c31-3.9 62.1-6.6 93.3-8.4q1.6-.1 3.3-.2l23.8-1.2z" fill="#053238"/><path d="M776.3 529.6q1 .2 2.1.4c12.7 2.4 25.3 5 37.9 7.9q1 .2 2 .4 1 .2 2 .4c5.2 1.2 10.5 2.3 15.7 3.3 14.1 2.8 28 6 42 9.3q3.4.8 6.8 1.6 4.9 1.1 9.7 2.3c1.5.3 1.5.3 2.9.7 5.4 1.3 9.3 2.7 13.6 6.1-.2 4.5-.5 8-2.7 12-2.9 2.5-4.5 2.6-8.3 3-2.9-.4-2.9-.4-6-1.1q-1.7-.4-3.5-.8c-1.9-.4-1.9-.4-3.8-.9q-2-.4-4-.9-5.3-1.2-10.6-2.4-9.3-2.1-18.6-4.2-1-.2-2.1-.5c-13.6-3.1-27.4-5.9-41.1-8.6q-6.4-1.2-12.8-2.5-12.1-2.5-24.2-4.6-1.1-.2-2.2-.4-5.6-1-11.1-2-2-.3-4.1-.7-1.8-.3-3.6-.6c-5-1.2-8.4-2.4-11.3-6.8-.4-3.4-.4-3.4 0-7 9.2-11.2 22.6-5.7 35.3-3.4z" fill="#063137"/><path d="M119 469.7q1.3 0 2.6 0c13.2.3 26.2 1.3 39.3 2.2q5.8.4 11.5.8c93.1 6.4 93.1 6.4 105.1 13.9 2.3 3.7 2.2 7.1 1.5 11.4-1.3 3.1-1.3 3.1-4 5-8.1.9-16.4-.6-24.4-1.8-14.5-2.1-29-3.8-43.5-5.2q-1.8-.2-3.8-.4c-15.3-1.5-30.6-2.8-46-3.7q-1.1-.1-2.2-.2-10.6-.6-21.2-1.1-4.8-.3-9.6-.5-1.8-.1-3.5-.2c-6.1-.3-10.3-.7-14.8-4.9-1.2-3.9-1.5-6 .3-9.7q.8-1.2 1.7-2.3.5-.8 1.1-1.6c3-2.2 6.3-1.8 9.9-1.7z" fill="#063238"/><path d="M845 408q1.5 0 3 0c5 21 6.4 41.4 6 63q-.5 0-1 0l-2-22q-9.8.8-19.7 1.7-3.3.2-6.7.5-4.8.4-9.6.8-1.5.2-3 .3c-5.1.4-10 1-15 1.7-9.3.7-17.2.8-25-5-3.7-3.5-5.9-6.6-6.4-11.7.1-4.9 1.9-7.9 5.4-11.3 4.9-4.1 10.7-5.6 16.9-6.9q1.1-.3 2.3-.6c10.4-2.1 20.8-3.4 31.3-4.7q4.6-.6 9.2-1.2 2.8-.3 5.7-.7 1.2-.1 2.5-.3 1.1-.1 2.3-.3c1.9-.2 1.9-.2 3.8-1.3q0-1 0-2zm-669 3q.9.1 1.8.2c10.5 1.5 21 2.8 31.6 3.8 35 3.3 35 3.3 45.6 14 2.4 3.8 2.7 7.6 2 12-2.5 5-6.1 8.4-11 11-11.8 4-24 2-36 .1-9.1-1.3-18.1-1.6-27.3-1.8-1.6 0-1.6 0-3.3-.1h-2.9c-2.5-.2-2.5-.2-5.5-1.2.3-13 2.3-25.3 5-38z" fill="#2f666d"/></svg>