<svg xmlns="http://www.w3.org/2000/svg" width="1024" height="1024" xmlns:v="https://vecta.io/nano"><path d="M828.1 75.5c16.7 13.3 18.8 37.9 21.9 57.5q.3 1.5.5 3.1c5.7 36.2 4 74.7-.5 110.9q-.4 3.5-.8 7c-3.6 29.6-8 59.7-15.6 88.5-2 7.9-1.5 13.1 2.3 20.3 2.1 4.3 3.5 8.9 5 13.5q.5 1.6 1 3.3c7.6 24.4 13.5 50.9 13.2 76.5q0 1.2-.1 2.3 0 2.8 0 5.6 1.6-.2 3.2-.4c9.9-1.3 19.7-1.8 29.6-1.9q1.7 0 3.4-.1c5.6 0 10 .1 14.8 3.4 2.4 3.2 2.4 6.1 2 10-1.7 3.8-3.2 5.4-7 7-2.2.4-2.2.4-4.7.5q-1.4.1-2.8.2-1.4.1-3 .2c-1.5 0-1.5 0-3 .1q-4.9.3-9.8.6-3.2.2-6.5.4-8.1.5-16.2 1-.2 1.3-.4 2.6c-2.4 17.2-5.2 33.8-10.6 50.4q3.1.6 6.2 1.2 1.1.2 2.1.4 7.3 1.4 14.7 2.6 1.8.3 3.7.6 3.7.6 7.4 1.2c7.5 1.3 15 2.7 21 7.7 1.4 3.5 1.6 6.7.9 10.3-1.8 3-1.8 3-5 5-8.9 1.2-17.9-1.1-26.6-2.8q-2.2-.4-4.3-.8-4.2-.9-8.3-1.7-7.2-1.3-14.3-2.6-1.9-.3-3.9-.7-1.3-.2-2.6-.4-.2 1.1-.4 2.2c-1.1 4.9-3.6 9.2-6 13.6q-.8 1.5-1.6 3.1c-4.7 8.9-10 17.1-16 25.1l-1.4 1.8c-6.4 8.5-13.2 16.5-20.6 24.2q-.8.9-1.7 1.8c-13.8 14.6-29.6 26-46.3 37.2 1.5 4.8 3.4 9.3 5.4 13.8 7 16.2 13.1 32.7 19.1 49.2q2.7 7.4 5.4 14.8c5.4 14.5 10.4 29 15.3 43.6l13.1 39.1 1 3q1 2.8 2 5.7.9 2.8 1.9 5.6 2.3 7 4.9 13.8.5 1.4 1 2.8.9 2.6 1.9 5.1c1.6 4.5 2.6 7.8 1 12.5-1.5 1.9-1.5 1.9-3.5 3.5q-1 .9-2.2 1.8c-3.8 2.8-7.8 5.5-11.8 8.1q-1.3.8-2.7 1.7c-7.1 4.5-14.3 8.8-21.7 12.7q-3.4 1.9-6.8 3.8c-13.7 7.5-27.7 13.1-42.3 18.4q-1.5.5-3 1.1-8.6 3.1-17.3 6-2.6.9-5.3 1.8c-58.9 20.1-123.7 24.3-185.5 24.3q-1.7 0-3.4 0c-17.3 0-34.3-.5-51.5-2.2q-3.8-.3-7.5-.7c-23.4-2.1-46.3-5.8-69.2-10.6q-3.4-.7-6.8-1.4C332.3 936 293 924.1 256 906q-1.3-.6-2.6-1.3c-12.9-6.4-24.9-14.1-36.6-22.5q-.9-.6-1.9-1.3c-3.5-2.6-6.2-4.8-7.9-8.9.5-3.4 1.5-6.5 2.6-9.8q.5-1.4 1-2.8.6-1.5 1.1-3 .6-1.5 1.2-3.2 1.2-3.3 2.4-6.6 1.8-5 3.6-10 5.7-15.9 11.7-31.7c4.1-11 8-22.2 11.8-33.4q1.6-4.9 3.3-9.8l9-27.1c5.5-17.1 12-33.8 18.7-50.5q.5-1.3 1.1-2.7 1-2.6 2.1-5.2.4-1.1.9-2.3.4-1 .8-2c.7-1.9 1.2-3.9 1.7-5.9-1-.3-1-.3-2-.7-23.7-10.5-46.8-35-62-55.3q-.6-.9-1.3-1.7C204 594.1 194.5 579.6 188 563q-6.7 1.2-13.4 2.3-2.3.4-4.7.9c-10 1.7-20 3.5-29.9 5.8-4.6 1-8.4 1.1-13 0-3.1-2.7-3.9-4.4-4.6-8.4.7-4.3 2.4-6.7 5.6-9.6 3.1-1.5 3.1-1.5 6.8-2.6l2.1-.6c6.4-1.7 12.9-3.2 19.3-4.6q1.5-.3 3-.6c6.9-1.4 13.8-2.2 20.8-2.6l-.8-2c-2.5-6.8-4.6-13.6-6.3-20.6q-.4-1.6-.8-3.2c-2.1-8.7-3.4-17.3-4.1-26.2q-1.3-.1-2.7-.1-5.7-.4-11.3-.7-3.2-.2-6.5-.4-5.6-.3-11.3-.6-1.8-.1-3.7-.2-1.7-.1-3.5-.2-1.5-.1-3.1-.2c-3.5-.7-5.3-2.1-7.9-4.6-1.6-3.2-1.8-6.6-1-10 2-2.8 3.6-4.7 7.1-5.4 2.6-.2 5.1-.2 7.7-.1q1.4 0 2.9 0 4.5 0 9 .1 3 0 6.1.1 5.5 0 11.1.1 1.1 0 2.3 0c1.8.2 1.8.2 3.8 1.2q0-.9 0-1.9c-.8-36.1 4.4-73.4 19.9-106.4 3.2-7.2 1.2-13-1.2-20.1-2.7-8.3-4.8-16.7-6.7-25.2-.3-1.2-.3-1.2-.5-2.3-13.6-61.8-27.2-165.7 6.8-222.7 5.2-7.2 12-12.5 20.7-14.4 36.8-3.7 72.9 25.7 100.3 46.7q3.9 2.9 7.8 5.9c20.8 15.5 41.7 31.8 59.9 50.4 5-1.5 9.7-3.3 14.4-5.4 62.3-27.2 144.5-23.9 209.2-8.5q1.2.3 2.5.6c11.9 2.8 23.3 6.1 34.6 10.7q1.4.6 2.8 1.1 1.1.5 2.4 1c2.1.7 2.1.7 4.3-.3 2.1-1.4 3.8-3 5.5-4.9 2.7-2.7 5.4-5.3 8.3-7.8 2.8-2.4 5.4-4.9 8-7.5a204.23 204.23 0 0 1 9.6-9q2.7-2.3 5.3-4.6c7.4-6.5 15.1-12.5 23.1-18.3 4.8-3.5 9.6-7.1 14.2-10.8 79-62.4 79-62.4 109.9-40.8z" fill="#efa000"/><path d="M280 668c4.2 1.6 8.2 3.6 12.3 5.6 16.3 8.3 16.3 8.3 33.2 15.4q2.8 1.1 5.7 2.4c9.9 4.1 19.9 7.1 30.2 9.9q3.7 1 7.3 2C458.2 727.9 559 728.7 732 673q1.7-1.1 3.4-2.3c2.6-1.7 2.6-1.7 5.6-1.7 19.8 42.4 34.2 87.4 49.2 131.6q4.1 12.3 8.3 24.6 1.4 3.9 2.7 7.8l7.5 21.5q.6 1.6 1.2 3.2 1 2.9 2.1 5.7c2.9 8.1 2.9 8.1 1 12.6-4.9 5.5-11.3 9.4-17.5 13.4q-1.3.8-2.7 1.7c-7.1 4.5-14.3 8.8-21.7 12.7q-3.4 1.9-6.8 3.8c-13.7 7.5-27.7 13.1-42.3 18.4q-1.5.5-3 1.1-8.6 3.1-17.3 6-2.6.9-5.3 1.8c-58.9 20.1-123.7 24.3-185.5 24.3q-1.7 0-3.4 0c-17.3 0-34.3-.5-51.5-2.2q-3.8-.3-7.5-.7c-23.4-2.1-46.3-5.8-69.2-10.6q-3.4-.7-6.8-1.4C332.3 936 293 924.1 256 906c-1.3-.6-1.3-.6-2.6-1.3-12.9-6.4-24.9-14.1-36.6-22.4q-.9-.7-1.9-1.4c-3.5-2.6-6.2-4.8-7.9-8.9.5-3.4 1.5-6.5 2.6-9.8q.5-1.4 1-2.8.6-1.5 1.1-3 .6-1.5 1.2-3.2 1.2-3.3 2.4-6.6 1.8-5 3.6-10 5.7-15.9 11.7-31.7c4.1-11 8-22.2 11.8-33.4q1.6-4.9 3.3-9.8l9-27.1c7.2-22.3 14.8-45.6 25.3-66.6z" fill="#cb6a00"/><path d="M272.7 99.7c11.5 7.6 22.6 15.6 33.6 24q3.9 2.9 7.8 5.9c20.8 15.5 41.7 31.8 59.9 50.4 5-1.5 9.7-3.3 14.4-5.4 27.2-11.9 61.9-17.5 91.6-17.6 6.9 24 10.6 48.2 13 73a26.6 26.6 0 0 0 .3 2.8c8.1 83.2-1.8 173.4-56.3 240.2-3.2 3.8-6.6 7.4-10 11q-1.8 2.1-3.6 4.1c-6.3 7.2-13.1 13.6-20.5 19.6q-2.9 2.3-5.6 4.6c-14.2 12.4-30.6 22-47.3 30.7q-1.1.6-2.2 1.1c-23.2 12-48.5 19.5-73.8 25.9q-1.5.4-3 .8c-23.4 5.7-49.8 10.8-74 10.2q-2.3-3.9-4.5-7.9-.6-1.1-1.3-2.2-.6-1.1-1.2-2.2-.6-1-1.2-2c-.8-1.7-.8-1.7-.8-3.7q-6.7 1.2-13.4 2.3-2.3.4-4.7.9c-10 1.7-20 3.5-29.9 5.8-4.6 1-8.4 1.1-13 0-3.1-2.7-3.9-4.4-4.6-8.4.7-4.3 2.4-6.7 5.6-9.6 3.1-1.5 3.1-1.5 6.8-2.6l2.1-.6c6.4-1.7 12.9-3.2 19.4-4.6q1.4-.3 2.9-.6c6.9-1.4 13.8-2.2 20.8-2.6l-.8-2c-2.5-6.8-4.6-13.6-6.3-20.6q-.4-1.6-.8-3.2c-2.1-8.7-3.4-17.3-4.1-26.2q-1.3-.1-2.7-.1-5.7-.4-11.3-.7-3.2-.2-6.5-.4-5.6-.3-11.2-.6-1.9-.1-3.8-.2-1.7-.1-3.5-.2-1.5-.1-3.1-.2c-3.5-.7-5.3-2.1-7.9-4.6-1.6-3.2-1.8-6.6-1-10 2-2.8 3.6-4.7 7.1-5.4 2.6-.2 5.1-.2 7.7-.1q1.4 0 2.9 0 4.5 0 9 .1 3 0 6.1.1 5.5 0 11.1.1 1.1 0 2.3 0c1.8.2 1.8.2 3.8 1.2q0-.9 0-1.9c-.8-36.1 4.4-73.4 19.9-106.4 3.2-7.2 1.2-13-1.2-20.1-2.7-8.3-4.8-16.7-6.7-25.2-.3-1.2-.3-1.2-.5-2.3-13.6-61.8-27.2-165.7 6.8-222.7 22-30.4 63.2-7.2 87.4 8.3z" fill="#053a47"/><path d="M255 733c4.7 2.5 9.1 5 13.4 8.1 26 18.4 55.9 30.2 86.6 37.9q1.4.4 2.9.7c29.4 7.4 59.4 12.6 89.6 15 2.3.3 4.3.7 6.5 1.3a45.69 45.69 0 0 0 .7 3.6c12.2 62.7 36.9 112.6 82.3 157.4q-.5 1-1 2c-54.8.4-54.8.4-80-2q-3.8-.3-7.5-.7c-23.4-2.1-46.3-5.8-69.2-10.6q-3.4-.7-6.8-1.4C332.3 936 293 924.1 256 906c-1.3-.6-1.3-.6-2.6-1.3-12.9-6.4-24.9-14.1-36.6-22.5q-.9-.6-1.9-1.3c-3.5-2.6-6.2-4.8-7.9-8.9.5-3.4 1.5-6.5 2.6-9.8q.5-1.4 1-2.8.6-1.5 1.1-3 .6-1.5 1.2-3.2 1.2-3.3 2.4-6.6 1.8-5 3.6-10l10.5-28.7c4.7-12.4 9.1-24.9 13.4-37.5q1.6-5 3.3-9.9 1.1-3.2 2.2-6.4.5-1.5 1-3 3-9 5.7-18.1z" fill="#f0a000"/><path d="M280 668c4.2 1.6 8.2 3.6 12.3 5.6 16.3 8.3 16.3 8.3 33.2 15.4q2.8 1.1 5.7 2.4c9.9 4.1 19.9 7.1 30.2 9.9q3.7 1 7.3 2C458.2 727.9 559 728.7 732 673q1.7-1.1 3.4-2.3c2.6-1.7 2.6-1.7 5.6-1.7 6.6 14.1 12.4 28.4 17.9 43q1.5 4 3.1 8c.4 1.1.4 1.1.9 2.3q1.1 2.8 2.2 5.6c1 3.4 1 4.8-.1 8.1-1.9 1.4-1.9 1.4-4.4 2.5-3.6 1.6-7.2 3.3-10.6 5.3-10.2 5.7-20.5 11-31.2 15.7-4.6 2-9.2 4.2-13.7 6.6-32.4 17.1-71.2 23-107.1 27.9q-1.6.2-3.3.5c-24.5 3.4-48.9 4.8-73.7 4.8q-5.2-.1-10.4 0c-22.7 0-45.5-.4-67.9-3.7q-4.2-.7-8.5-1.2c-44-5.3-90-12.9-130.2-32.4q-2.1-1-4.2-2c-15.4-7.4-29.7-16.4-43.8-26 1.4-7 3.4-13.5 5.9-20.2q.5-1.6 1.1-3.2c12-32.5 12-32.5 17-42.6z" fill="#007894"/><path d="M233 127c10.7 3.6 19.9 9.1 29 15.6q3.2 2.2 6.3 4.4c11.1 7.6 21.4 15.8 31.2 24.9 4.1 3.8 8.5 7.4 12.8 10.9 8 6.5 15.9 13.5 22.7 21.2q0 1 0 2c-1.8 1.3-1.8 1.3-4.4 2.8q-1.4.8-2.9 1.7-1.5.9-3.1 1.8c-14.9 8.9-28.9 18.8-41.9 30.2q-2.8 2.5-5.6 4.9-4.7 4-9.3 8.1-1.9 1.5-3.7 3.1c-3.1 2.6-5.9 5.1-8.4 8.2-2.6 3.1-5.4 5.7-8.4 8.3-5.3 4.7-9.4 9.9-13.7 15.5-3.3 4.3-6.9 8.4-10.6 12.4-2.3-2.3-2.7-3.9-3.6-7q-.5-1.5-.9-3.1-.5-1.6-.9-3.3-.5-1.5-.9-3.1c-8.2-28.4-12.3-55.7-12.2-85.3q0-1.6 0-3.4c.1-17.1.3-33.6 6.2-49.8q.5-1.4 1-2.9c3.7-10.4 8.8-20.2 21.3-18.1z" fill="#d7770a"/><path d="M507.9 459.6q3.6 0 7.2-.1c13.8-.1 30.3 1.2 40.7 11.3 4 4.4 5.6 7.8 5.5 13.9-1.1 9.3-6.7 17.5-13.8 23.4-3.7 2.7-7.5 5.2-11.3 7.7-4.8 3-8.4 5.4-9.9 11-1.2 9.3 1.9 17.7 6.8 25.4 7.8 8.4 19.7 11.2 30.7 12.1 10.9.4 19.3-1.9 28.2-8.3q1 0 2 0 .4-.8.8-1.7c3.2-6 8.6-12.3 15.2-14.3 4.9.1 7.6 1.6 11 5 2.4 4.1 2.8 8.4 2 13-4.3 11.6-14.3 20.5-25 26-17.9 7.6-38.7 7.3-57 1l-2.8-.8c-10-3.5-19-10.7-25.2-19.2q0-1 0-2-1 0-2 0-.4.9-.8 1.7c-5.8 10.8-18.5 17-29.6 21.1-15.8 4.6-33.9 7.1-49.6 1.2q-1.1-.4-2.3-.8c-15.2-6.2-24-16-32.3-29.7-1.8-4.6-1.5-6.7-.4-11.5 1.8-3.3 4.4-5.4 7.9-6.7 4.6-.9 7.3-.1 11.4 2.4 2.8 2.1 4.7 4.8 6.6 7.7 5.4 7.4 10.8 12.8 19.9 15.1 15 2.2 29.6 1.3 42.2-7.9 6.7-5.5 11.1-12.3 12.3-21 .2-4.9-.5-8.5-3.3-12.6-3.5-3.4-7.2-5.7-11.3-8.2-9.9-6.2-17.8-15.7-21.4-27-.9-5.1.1-9.4 2.7-13.8 10.8-12.7 29.5-13.5 44.9-13.4z" fill="#012425"/><path d="M800.3 129.1c7 5 8.5 10.7 10.1 18.8 1.9 11.8 1.8 23.8 1.7 35.7q0 4.3 0 8.5c.1 33.8.1 33.8-3 50.2q-.5 3.2-1.1 6.4-.2 1.6-.5 3.2c-.8 5-1.4 10-2 15C803.9 280 802 293 800 306c-3.4-3.3-6-6.7-8.7-10.6-11.2-15.8-24.4-31.2-39.2-43.8l-6-5.4c-11.7-10.7-24.8-19.8-38-28.6q-.9-.6-1.8-1.2c-7-4.7-14-9.2-21.3-13.4 3.7-7.8 11.4-13.6 17.9-19.2q2.3-2 4.4-4c8-7.6 16.7-13.6 25.7-19.8q2.7-1.8 5.3-3.7 2.4-1.6 4.8-3.3 2.7-1.9 5.4-3.8c35.3-25.4 35.3-25.4 51.8-20.1z" fill="#cc6a00"/><path d="M711.5 385.6l2.5 2.4q0 1 0 2 1 0 2 0c6 6.1 9.9 13 13 21q.6 1.6 1.3 3.2c1.1 4.3 1.9 8.5-.2 12.6-3.5 4.4-6.7 5.8-12 6.6-4.3-.6-6.4-2.2-9.1-5.4-2.1-3.2-4.1-6.5-6.1-9.8-6.3-10.4-15.5-14.8-26.9-18.2-12.6-2.9-24 0-34.9 6.8-6.5 4.8-10.7 10.3-14.6 17.3-2.8 4.9-5.4 9.3-10.5 11.9-4.4 1.1-7.4.3-11.4-1.9-4.5-3.7-4.5-3.7-5-6.1-.3-13.7 8-27.2 16.7-37.3 24.2-25.4 67.9-26.8 95.2-5.1z" fill="#022b34"/><path d="M398.6 387.6c9.9 9.3 20.4 23.5 21.1 37.6-.8 4.1-1.9 5.8-4.7 8.8q0 1.5 0 3c-2.4 1.2-4.1 1.3-6.8 1.4q-1.3 0-2.6.1c-3.8-.7-5.1-2.5-7.6-5.5-1.6-2.7-3-5.5-4.4-8.4-6-11.7-12.7-18-25.5-22.2-12-2.1-23.4-.1-33.8 6.2-7.3 5.3-12.6 11.9-17 19.8-2.6 4.7-4.2 7.5-9.3 9.6-4.2.7-6.4 1-10-1.3-2.5-2-4.6-3.8-6-6.7-.2-12.4 7.9-25.1 16-34 1-1.2 1-1.2 2.1-2.3 21.9-23.3 63.2-25.7 88.5-6.1z" fill="#001b1d"/><path d="M888.4 461.7l3.3-.1c5.5 0 9.6.2 14.3 3.4 2.4 3.2 2.4 6.1 2 10-1.7 3.8-3.2 5.5-7 7-2.6.4-2.6.4-5.7.5q-1.7.2-3.5.3l-3.8.2q-2.9.1-5.9.3-5.2.3-10.5.6c-17 1-34 2.1-50.9 4.7q-6 .9-12 1.7-6.3.9-12.7 1.8-3.3.4-6.5.8l-33.8 5.2c-13.5 2.3-13.5 2.3-18.8-1.1-2.1-3.3-2.7-5.2-2.4-9.1.9-3.6 2.5-4.8 5.5-6.9 7.7-2.7 15.7-3.9 23.8-5.1q1.7-.3 3.6-.5 5.8-.9 11.6-1.8 3-.4 6-.9 8.9-1.3 17.9-2.6 7.7-1.2 15.4-2.4c23.3-3.5 46.5-5.8 70.1-6z" fill="#03292d"/><path d="M748 525l2.3.1c16.9 1.3 33.8 3.6 50.7 5.9a54.2 54.2 0 0 0 3.7.5c23.4 3.2 46.5 7.2 69.6 11.9q3.6.8 7.1 1.4c6.3 1.3 11.4 2.4 16.6 6.2 2.5 3.7 2.8 6.7 2 11-1.8 3-1.8 3-5 5-8 1.1-16-.7-23.8-2.3q-5.3-1-10.6-2c-1-.3-1-.3-2.1-.5-11-2.1-22-3.9-33-5.6q-4.9-.8-9.7-1.6l-36.4-5.6q-1.1-.1-2.2-.3l-22.6-3q-1.6-.2-3.3-.4-3.1-.3-6.1-.6c-4.7-.6-8.4-1-12.2-4.1-2-3.1-2.3-3.9-2.4-7.4q0-1.2-.1-2.3c1.8-8.7 10.7-6.8 17.5-6.3z" fill="#03282c"/><path d="M167 451q.5 0 1 0v19l7.5.8 82.3 10.4q1.1.2 2.4.4 3.3.5 6.7 1l3.7.6c5.1 1.2 8.5 2.4 11.4 6.8.8 6.9.8 6.9-2.1 10.9-5.3 3.8-10.6 3.2-16.8 2.2q-1-.1-2-.3-2.1-.3-4.2-.6-5.7-.9-11.4-1.8l-2.4-.4c-8.2-1.2-16.4-2.2-24.6-3.1q-1.9-.2-3.8-.5-3-.3-5.9-.6-6.3-.7-12.6-1.5c-11.4-1.4-22.7-2.6-34.2-3.3-1.7-.1-1.7-.1-3.4-.3q-7-.4-14-.9-5.2-.3-10.4-.6-1.6-.1-3.2-.2c-5.5-.4-9.1-.7-13-5-1.6-3.2-1.8-6.6-1-10 2-2.8 3.6-4.7 7.1-5.4 2.6-.2 5.1-.2 7.7-.1q1.4 0 2.9 0 4.5 0 9 .1 3 0 6.1.1 5.5 0 11.1.1 1.1 0 2.3 0c1.8.2 1.8.2 3.8 1.2v-19z" fill="#001d1f"/><path d="M266.5 528.8c8.8-.2 8.8-.2 11.8 1.4 2.2 2.3 2.2 3.6 2.2 6.7-.2 3.2-.5 5.1-1.8 8-7.5 5.8-18.8 5.9-27.8 7q-4 .5-8 1.1-1 .1-2 .2a571.59 571.59 0 0 0-48.8 8.4l-31.9 6.5q-3.2.7-6.4 1.3-4.6.9-9.3 1.8-1.4.3-2.9.6c-5.2 1-9.4 1.5-14.6.2-3.1-2.7-3.9-4.4-4.6-8.4.7-4.3 2.4-6.7 5.6-9.6 3.1-1.5 3.1-1.5 6.8-2.6q1-.3 2.1-.6c6.4-1.7 12.9-3.2 19.3-4.5 1.5-.4 1.5-.4 3-.7 6.9-1.4 13.8-2.2 20.8-2.6l-1-5q1 2 2 4 6.9-1.2 13.7-2.4 2.3-.4 4.6-.8l23.7-4.4c5.7-1.2 11.4-2.2 17.1-3q1.3-.2 2.6-.4c7.9-1.1 15.8-1.8 23.8-2.2z" fill="#011d1f"/></svg>