<svg xmlns="http://www.w3.org/2000/svg" width="1024" height="1024" xmlns:v="https://vecta.io/nano"><path d="M295.8 132.8c10.4 8.3 20.6 16.8 30.7 25.4q4.8 4.1 9.7 7.9c4.3 3.4 8.4 7.1 12.4 10.8q3.2 2.8 6.3 5.5c4.3 3.7 8.4 7.5 12.5 11.3q1.3 1.1 2.6 2.3 1.1 1.2 2.2 2.4c3.8 2.2 6 1.4 10.1.4q1.3-.4 2.7-.8 1.3-.3 2.6-.7 4-1 8-2.1c53-14.1 108.9-18.4 163.4-13.2q1.8.2 3.6.3c13.7 1.3 27.1 2.9 40.5 6.3 3 .7 6.1 1.1 9.1 1.6 5.6 1 10.9 2.4 16.3 4.1q1 .3 2.1.6 5.1 1.6 10.2 3.2 1.9.6 3.8 1.2 1.7.6 3.4 1.1c2.9.8 2.9.8 5.3-.2 1.9-1.3 3.6-2.7 5.3-4.2q1-.9 2.1-1.9 5.3-4.8 10.6-9.7 4.3-3.8 8.6-7.6 3.8-3.3 7.6-6.8c7.8-7.1 15.8-14 23.8-20.8q3.6-3.1 7.1-6.2c76.7-66.9 76.7-66.9 114.8-65.3 10.7 1.2 18.7 5.9 25.4 14.4 32.3 45.9 16.7 129.8 7.9 180.9l-2.5 13q-.3 1.6-.6 3.2c-4.7 23.6-10.6 46.6-20.3 68.7-3.8 8.8-2.7 14 .6 22.9 5.4 14.6 8.7 29.5 11.5 44.8q.2 1.1.4 2.1.6 3.1 1.2 6.1.3 1.7.6 3.5c1.3 7.8 1.8 15.3 1.7 23.1q0 1.5 0 3 0 3.1 0 6.2 0 4.6 0 9.3c0 10.4-.1 20.7-1.1 31.1q1-.2 2.1-.4c8.2-1.5 16.1-2 24.3-2q1.9-.1 3.8-.1c8.9-.1 8.9-.1 13.1 2.7 2.9 4.8 2.6 9.3 1.7 14.8-2 3.4-3.4 4.5-7.1 5.7-12.9 2.8-26.8 2.5-39.9 2.3q-.1 1.7-.2 3.4c-.8 7-3 13.5-5 20.2q-1.1 3.4-2.1 6.8-.7 2.1-1.4 4.3-.3 1-.6 2c-1 3.3-2.1 6.3-3.7 9.3q1 .1 2 .1c6.7.5 12.8 1.7 19.3 3.5q1.3.4 2.8.8 2.9.8 5.8 1.6 4.4 1.2 8.8 2.4 2.9.8 5.7 1.6 1.3.4 2.6.7c5 1.5 8.9 3.1 13 6.3 1 3.1.7 5.9 0 9-2.9 5.5-2.9 5.5-6 7-6.9.4-12.9-.9-19.6-2.6q-3.4-.8-6.8-1.6-1.9-.4-3.7-.9-6.2-1.4-12.4-2.8-1.1-.3-2.2-.5-4.2-.9-8.4-1.9-2.9-.6-5.8-1.3c-1.7-.4-1.7-.4-3.4-.7-2.7-.7-2.7-.7-4.7-1.7q-.4 1.1-.8 2.2c-1.2 2.7-2.4 4.7-4.1 7.1-.9 1.1-.9 1.1-1.8 2.3q-.9 1.3-1.9 2.5c-.9 1.3-.9 1.3-1.9 2.6-14.6 19.6-31.2 38.2-50.5 53.3q-1.4 1.2-2.9 2.4c-52.3 41.7-123 57-188.1 63.6q-1.7.2-3.5.4c-39 3.9-79.4 3-118.5-.4q-1.7-.1-3.5-.3c-88-7.8-179.5-33-238.3-103.1-6-7.7-11.6-15.6-17.2-23.6q-.6-.9-1.3-1.8c-2.7-4-2.7-4-2.7-6.2q-9.3 2-18.7 4.1-3.1.7-6.3 1.4-4.6 1-9.2 2-1.4.3-2.8.6c-5.4 1.2-10.6 2.6-15.9 4.3-4.3 1.2-8.6 1.4-13.1.6-3.7-3.3-5.2-6.5-5.4-11.4q-.1-1.1-.2-2.3c.6-2.3.6-2.3 3.2-4.5 3.4-1.8 6.3-2.8 10-3.7q2-.5 4-1 1-.2 2.1-.5c4.2-1.1 8.3-2.4 12.4-3.7 20.4-6.1 20.4-6.1 27.9-5.9q-.5-1.5-1.1-3.1c-3.1-9-5.9-18-8.3-27.2q-.4-1.5-.8-3-.3-1.4-.7-2.8l-.6-2.5c-.5-2.5-.6-4.8-.5-7.4q-1.8 0-3.7.1c-9.1.1-18.1-.1-27.1-.9q-1.2-.1-2.5-.2c-5.9-.6-11.6-1.6-15.6-6.2-1.4-3.7-1.8-7-1.1-10.8 1.5-2.7 2.8-4.8 5-7q2.3-.1 4.5-.1 1.5 0 2.9 0h3.1q1.4 0 2.9 0c8.9 0 17.7.5 26.6 1.1q0-.8 0-1.7c-.6-54.1-.6-54.1 3-76.3q.3-1.6.5-3.3c2.9-17.7 6.5-36.4 13.8-53 2.8-6.9.8-12.1-2-18.7q-.5-1.2-1.1-2.5-1.1-2.7-2.1-5.4-.6-1.3-1.1-2.7c-6.2-15.3-9.4-31.4-13-47.4-.4-1.6-.4-1.6-.7-3.3-8.5-37.8-12.5-76.4-12.6-115.1q0-1.5 0-3c.1-67.9.1-67.9 21.3-89.7 35.2-32 98.8 24.6 125.8 45.9z" fill="#faad00"/><path d="M781 738c2.2 3.3 3.3 6.5 4.5 10.1q.4 1.1.7 2.2.8 2.4 1.6 4.7 1.1 3.4 2.2 6.8c7.9 23.6 15.1 47.4 22.2 71.2q1.6 5.4 3.2 10.7 1.6 5.3 3.2 10.6.6 2 1.2 4 .8 2.7 1.6 5.5.5 1.5.9 3.1c1.1 5 1.4 8.8-1 13.3-18.7 22.8-58.4 35.4-85.3 44.8q-1.5.5-2.9 1c-36 12.8-74.2 21.1-112.1 26-1 .1-1 .1-1.9.3-21.4 2.7-42.6 4.6-64.1 5.7q-1.7.1-3.4.2c-82.2 4.1-165.5-5.1-308.2-52.4q-1-.5-2.1-1c-31.6-15.2-31.6-15.2-39.3-26.8-.2-6.3 1.8-12.4 3.7-18.3q.4-1.4.8-2.7 1.4-4.5 2.8-9 1-3.2 2-6.4 2.1-7 4.3-13.9 3.9-12.4 7.7-24.8.6-2.2 1.3-4.4 1-3.3 2-6.6L243 739q1.4 1.2 2.9 2.5 2 1.8 4.1 3.5c1 .9 1 .9 2.1 1.8C306.6 792.6 387.2 804 456 809q1.9.1 3.9.3c17.3 1.2 34.6.9 52 .9q1.2.1 2.6.1c27.6 0 55-.5 82.5-3.3q1-.1 2.1-.2c38.8-3.8 79.6-12.6 115.9-26.8q1.3-.5 2.6-1c24-9.5 45.2-22.6 63.4-41z" fill="#faac00"/><path d="M263 675q1.2.7 2.4 1.4c15.5 8.9 31.2 17.4 47.6 24.6q1 .4 1.9.9c77.9 33.9 176.4 39.8 263.1 31.1q1.9-.2 3.8-.4c48.8-4.8 99-15.9 143.2-37.6q1.1-.5 2.2-1.1c9.2-4.6 17.9-9.7 26.4-15.4 5.2-3.5 5.2-3.5 7.4-3.5q2.8 8.3 5.7 16.5.9 2.8 1.9 5.6 2.7 8.1 5.5 16.3 1.3 3.9 2.7 7.8.8 2.4 1.7 4.8.3 1.1.7 2.3c1.3 3.6 2.3 6.8 1.8 10.7-34.8 46.3-115.6 59.6-168 67.3-5.4.7-10.7 1.2-16 1.7q-1 .1-2 .2c-26.6 2.6-53.2 3.1-79.8 3.1q-3.8 0-7.5 0c-85.3.2-191-8.2-261.8-68.5-1.9-2.8-1.9-2.8-1.9-6.3q.4-2.3 1-4.5.4-1.4.7-2.8 1.4-5.1 2.9-10.1.5-1.8 1-3.7 3.8-13 7.8-26 .5-1.6 1-3.3.5-1.5.9-3.1.4-1.3.9-2.7c.8-2.3.8-2.3 2.8-5.3z" fill="#007ea1"/><path d="M825.6 144.1c8.5 6.5 11 17.7 12.4 27.9.2 3.3.2 6.6.2 9.8q.1 1.5.1 2.9c.1 20.4 0 40.1-3.7 60.1q-.9 4.7-1.6 9.5c-3 18.3-8.5 35.9-14.3 53.5q-.7 2.3-1.5 4.6-1.1 3.5-2.3 7.1-.3 1-.7 2.2c-1.7 5-1.7 5-4.4 6.8-.9.2-.9.2-1.8.5-4.4-5.3-8.8-10.6-12.8-16.2-5.2-7.4-11.2-14.1-17.2-20.8-.7-.8-.7-.8-1.5-1.6C767.3 280 757.6 270 747 261q-1.3-1.2-2.7-2.4c-14-12.2-28.8-23-45.3-31.6.4-4.9 2.4-6.9 5.8-10.3q.8-.7 1.5-1.4 2.4-2.4 4.8-4.7 1.5-1.5 3.1-3.1c5.4-5.3 11-10.6 16.8-15.5q1.6-1.4 3.1-2.7c68.4-58.2 68.4-58.2 91.5-45.2zM233 145q1.4.7 2.9 1.3c14.4 7.2 27.1 17.7 39.2 28.2 2.8 2.4 5.7 4.8 8.6 7.1 4.4 3.7 8.7 7.4 13 11.3q3 2.7 6 5.3c4.1 3.6 8.2 7.3 12.2 11.1q1 .9 2 1.8.9.9 1.9 1.8.9.8 1.7 1.6c2.5 2.6 3.5 4.3 4.1 7.9-.6 3.6-.6 3.6-3.6 6.1q-2 1.2-4.1 2.3-2.2 1.3-4.5 2.6-1.1.6-2.2 1.3c-3.3 2-6.4 4.1-9.5 6.4q-.9.6-1.8 1.2c-5.4 4-10.7 8.3-15.9 12.7q-1.4 1.1-2.8 2.2c-7.6 6.2-14.5 12.9-21.5 19.8q-1.3 1.4-2.7 2.8c-6.1 6.1-11.6 12.5-17 19.2q-2.2 2.7-4.4 5.3c-6 7.3-11.4 14.9-16.6 22.7q-1 0-2 0c-11.5-21-17.7-44.8-23-68q-.4-1.7-.8-3.4c-4.3-20.4-5.5-41.3-5.6-62q0-1.1 0-2.2c-.1-14.4.5-33.6 9.9-45.2 9.8-8.8 25.6-6.5 36.5-1.2z" fill="#e27400"/><path d="M555.9 481.3c4 3.3 7.3 6.8 9.1 11.7.4 11-7 20.2-14 28-6.8 7.1-14.7 11.9-24 15-.7 14.2 1.1 26.1 11 37 10.2 9.4 23.6 14.4 37.4 14.2 15-.9 32.6-4.7 43.2-16 3.3-4.2 5.3-9.1 7.6-14 2.2-3.9 4.7-6.2 8.8-8.2 5.1-.6 10.3-1.1 14.7 1.9 2.5 3.3 3.1 5.3 2.8 9.4-3.1 16.6-12.4 29.9-26.2 39.6-18.7 11.8-43.7 15.4-65.2 10.9-19.4-4.6-35.8-13.9-48.1-29.8q0-1 0-2-1 0-2 0-.3 1-.6 2c-6.3 13.2-21.4 21.3-34.6 26.2-23.9 7.7-49 6.7-71.8-4.2-14.4-7.7-25.2-17.8-30.4-33.6-1.8-6.4-3-12.1-.3-18.3 2.3-2.8 4.3-4.8 8-5.5 5 0 9.6.2 14.1 2.7 2.8 3 3.1 6.7 3.8 10.6 1.9 7.6 7.3 13.8 13.8 18.1 15 8.8 30.3 12.3 47.6 8.9 11.5-3 22.6-8.5 29.2-18.7 5.5-10.3 7.8-20.5 7.2-32.2q-1.3-.6-2.7-1.2c-11.9-5.5-20.9-12.8-28.3-23.8q-.6-.9-1.3-1.9c-3.4-5.7-3.9-11.7-2.7-18.1 3.9-8.6 14.7-12.6 23-16 22-7.7 51.7-6.6 70.9 7.3z" fill="#012a38"/><path d="M494 182q5.7 0 11.4-.1 1.6 0 3.3 0c18 0 18 0 22.3 4.1.5 2.6.5 2.6.5 5.8v3.7q0 1.9 0 4 0 2 0 4.1 0 5.6 0 11.2-.1 3.4-.1 6.9c-.1 18.5-.4 37-1.7 55.6q-.1 1.2-.2 2.4c-2.2 29.7-2.2 29.7-9.5 40.3-4 2.7-7.3 2.8-12 2-8.3-5.9-10.3-16.5-12-26-2.6-17.2-3.2-34.4-3.1-51.8q0-2.6 0-5.2 0-5.4 0-10.8 0-7 0-14 0-5.3 0-10.7 0-2.6 0-5.1 0-3.6 0-7.2 0-1 0-2.1c0-4.9 0-4.9 1.1-7.1z" fill="#e27400"/><path d="M697 393c11.5 9.1 25.5 22.8 27.4 38.1.2 10.1.2 10.1-2.5 13.6-4.5 3.5-7.9 4.5-13.5 4.2-3.2-.4-4.4-.9-7.2-2.9-2.3-3.1-3.6-6.1-5.1-9.6-4.3-9.6-10-14.7-19.8-18.4-11.4-3.4-26.4-4.1-37.3 1q-1.1.5-2.3 1.1c-7.4 4.1-10.7 10.8-14.7 17.9-3.2 4.9-5.3 8.1-11 10-5.6.4-9.2.3-14-3-3.4-3.8-4.5-6.7-4.3-11.8.6-4.2 2.7-7.8 4.8-11.6q.7-1.2 1.4-2.5c9.5-17 23.1-30.1 42.1-35.6 18.9-4.8 39.9-1.7 56 9.5z" fill="#012a38"/><path d="M406.3 394c11.7 8.8 22.8 22.6 25.1 37.4.2 4-.3 6.3-2 10-3.4 3.7-6.5 5.5-11.6 5.7-5.3-.4-8.6-1.6-12.8-5.1-1.7-2.7-2.8-5.5-4-8.4-3.1-7.7-5.9-11.7-13.6-15.3-13.3-4.4-28.1-5-41.4-.3-9.3 5-14 11.4-18.2 20.9-2.1 4.6-4.4 6.8-8.8 9.1-4.4.9-8.2.3-12.3-1.2-3.2-2.1-4.9-3.4-6.7-6.8-1.6-9.9 1.7-17.9 7.2-26 3.9-5.3 8.2-10.2 12.8-15q.9-1 1.9-1.9c23-22 59.4-19.9 84.4-3.1z" fill="#022a38"/><path d="M577.9 184.5c6.9-.1 13.3 1.2 20 2.8a36.14 36.14 0 0 1 2.7.7c9.9 2.4 9.9 2.4 12.4 5 .6 3.4.3 6.6 0 10l-.2 3.4q-.5 5.8-1 11.5-.1 1.1-.3 2.1c-6 62.2-6 62.2-18.6 76q-.8.8-1.5 1.7c-2.1 1.9-3.3 2.3-6.1 2.6-5-.5-7.9-2.6-11-6.4-4.6-10.6-3.7-22.8-3.6-34.1v-3c0-16 .7-31.9 1.7-47.9q.1-1.6.2-3.2.2-4.3.5-8.7.1-1.3.2-2.6c.7-8.9.7-8.9 4.6-9.9zM450 186c1.7 22.8 3.3 45.6 3.3 68.4q0 1.2 0 2.4c.1 31.2.1 31.2-7.3 40.2-4 2.7-7.3 2.9-12 2-2.4-2.1-3.5-3.3-5-6q-.6-1-1.2-2.1c-8.9-16.2-11.6-35.5-13.9-53.5q-.2-1-.3-2c-1.9-14.4-2.4-28.8-2.6-43.4 13.1-3.7 25.4-6.2 39-6z" fill="#e27400"/><path d="M885.1 507.6q1.7-.1 3.6-.1c8.4-.1 8.4-.1 12.6 2.7 2.9 4.8 2.6 9.3 1.7 14.8-1.8 3.1-1.8 3.1-5 5-7.8 2-15.9 2.5-24 3l-3.9.2c-14.3.9-28.5 1.4-42.8 1.9l-41.6 2q-1 0-2 .1c-6.3.4-12.5.9-18.7 1.8-10.4.8-10.4.8-15.2-1.6-2.4-3.3-2.9-5.3-2.8-9.4 3.8-5.6 9.8-7.1 16.2-8.5q3.2-.5 6.5-1 1.3-.1 2.5-.3 4.1-.6 8.1-1.1 1.4-.2 2.8-.4c19-2.6 38.1-4.5 57.2-6q6.7-.6 13.4-1.2c10.4-1 20.8-1.9 31.4-1.9z" fill="#032a37"/><path d="M128.5 507.9h2.9 3.1 3.2c8.8 0 17.5.4 26.3 1.1l3 .2c18.5 1.6 36.9 3.7 55.3 5.8q1.6.2 3.3.4c10.7 1.2 21.4 2.5 32 4.1q1.1.2 2.3.3c5.5.9 11 2.1 15.1 6.2.5 4.1.5 6.2-1.8 9.7-4.8 3.4-8.9 2.9-14.6 2.7q-1.7 0-3.5 0c-16.2-.4-32.4-1.3-48.6-2.3q-4.9-.2-9.7-.5-8-.5-15.9-.9-10.2-.6-20.4-1.1-11.2-.5-22.3-1.5-1.2-.1-2.5-.2c-5.9-.5-11.5-1.5-15.6-6.1-1.4-3.7-1.8-7-1.1-10.8 4-7.1 4-7.1 9.5-7.1zm652 59c6.5 1.7 12.9 2.9 19.6 3.9 26.8 4.2 53.6 8.5 79.8 16q1.2.3 2.5.7 3.5.9 7 2 1 .3 2.1.6c4.4 1.3 7.9 3.1 11.5 5.9 1 3.1.7 5.9 0 9-2.9 5.5-2.9 5.5-6 7-6.9.4-12.9-.9-19.6-2.6q-3.4-.8-6.9-1.6-1.8-.4-3.7-.9l-20.1-4.6q-3.8-.8-7.6-1.7-1.8-.4-3.6-.8-3.3-.8-6.6-1.5c-6.5-1.6-12.9-2.9-19.4-4.1q-1.3-.3-2.6-.5-5.3-1-10.6-2c-9.8-1.8-19.5-3.9-29.1-6.6q-1.2-.4-2.5-.7c-5.3-1.7-10.3-3.8-14.7-7.4-1-2.6-1-2.6-.8-5.1q0-1.3 0-2.6c.8-2.3.8-2.3 3-4.1 9-3.9 19.2-.6 28.3 1.7zm-518.7-3.2q1.9 0 3.8-.1c3.6.4 5 .9 7.4 3.4 1 3.4 1 3.4 1 7-4.1 6.4-10 7.8-17 10q-1 .3-2 .7c-15.6 4.8-31.7 7.8-47.7 11-12.9 2.6-25.6 5.4-38.4 8.6l-20 4.8q-1.5.3-3 .7-1.3.3-2.7.6-2.6.7-5.2 1.6c-3.7.4-7.3.5-11 0-3.7-3.3-5.2-6.5-5.4-11.4q-.1-1.1-.2-2.3c.6-2.3.6-2.3 3.2-4.5 3.4-1.8 6.3-2.8 10-3.7q2-.5 4-1 1-.2 2.1-.5c4.2-1.1 8.3-2.4 12.4-3.7 9.3-2.8 18.6-5.1 28.1-6.8q6.8-1.3 13.6-2.7c12.8-2.8 25.6-5.1 38.5-7.3q2.1-.4 4.2-.8 1-.1 2-.3c3.6-.6 7-1.3 10.5-2.2 4-.9 7.7-1.1 11.8-1.1z" fill="#022937"/><path d="M169.9 440.7c5.5.1 10.5.8 15.9 2.3 1.2.3 1.2.3 2.4.7 13.9 3.9 27.2 9.4 40.3 15.6q1.3.6 2.7 1.2c6.2 3 11.9 5.9 14.8 12.5 1 4.5 1.6 8.5-.1 12.9-3.5 3.9-6.5 5.9-11.8 6.6q-2.4 0-4.8-.1h-2.7c-9.1-.2-18.3-.9-27.4-1.6l-2.2-.2c-8.2-.6-16-1.6-23.9-3.6q-1.1-.2-2.1-.5c-3-.8-4.8-1.3-7-3.5-.3-2.2-.3-2.2-.3-4.9q0-1.5 0-3 0-1.6.1-3.2 0-1.6 0-3.3c.3-27 .3-27 6.1-27.9zm685.1.3c5 5 4.2 12.1 4.2 18.7q0 1.9 0 3.7 0 1.9 0 3.7 0 1.8 0 3.6 0 1.6 0 3.2c-.2 3.4-.8 6-2.2 9.1-4.7 1.9-9.6 2.5-14.6 3.1q-1.1.1-2.2.2c-12.7 1.3-25.5 1.4-38.2 1.7q-1.9.1-3.8.1-1.9.1-3.7.1-1.7.1-3.4.1c-4.7-.5-7.9-2.3-11.5-5.4-2.4-4.3-2.7-8-1.6-12.9 5.5-10.9 20-16 30.9-19.6q5.5-1.8 11.1-3.4 1.5-.4 3-.9c24.7-7.2 24.7-7.2 32-5.1z" fill="#e27400"/></svg>