<svg xmlns="http://www.w3.org/2000/svg" width="1024" height="1024" xmlns:v="https://vecta.io/nano"><g fill="#4fa098"><path fill-rule="evenodd" d="M208.8 78.6L212 80c28.8 12.3 57.6 30.4 81 51.3 2.1 2 4.3 3.9 6.6 5.8 4.9 4 9.7 8.1 14.4 12.4 2.9 2.7 5.7 5.3 8.7 7.8 5.8 4.6 11.3 9.4 16.7 14.4 2.2 2.1 4.5 4.2 6.9 6.3 2.7 2.3 5.3 4.6 7.8 7.1q2.3 2.3 4.5 4.5 1.2 1.2 2.4 2.4 1.3 1.3 2.6 2.6 1.3 1.2 2.6 2.5c2.3 2.2 2.3 2.2 4.8 3.9 3.2.4 5.3.2 8.3-.8 44.7-19.7 100.2-22.3 148.4-21.3q1.7.1 3.3.1c4.9.1 9.7.3 14.6.8q1.2.1 2.4.2c30.6 2.7 61.4 6.7 90.6 16.8 5.3 2 10.6 4 16.3 4.4 3.3-.3 4.9-1.9 7.2-4.1q1.7-1.8 3.4-3.6 1-.9 1.9-1.8 4.3-4.4 8.8-8.6.9-.7 1.7-1.5l10-9q3.7-3.2 7.3-6.6c5.4-5.1 10.8-10.1 16.5-14.7l7.8-6.5c7.8-7.1 15.8-13.8 24.2-20.1l8-6c25.9-20.1 61.3-45.6 95.1-48 11.7-.1 21.8 1.5 30.6 9.6 20 40.7 20 40.7 18.8 87.6q0 4.1 0 8.1 0 4.1 0 8.1 0 2 0 3.9c0 8.3-.3 16.5-.9 24.8-.2 1.6-.2 1.6-.3 3.2-2.7 34.6-6.4 69-13.7 102.9q-.6 3.1-1.3 6.1c-3.7 17.7-7.9 35-13.1 52.3q-.4 1.1-.7 2.2-.6 2.1-1.3 4.3c-1.8 6.2-2.6 11.3-1 17.7 10.7 32.8 13.6 65.1 13.1 99.4v3.1q7.4 0 14.8 0 3.1-.1 6.1-.1 4.4 0 8.9 0 1.4 0 2.8 0 1.4 0 2.8 0 1.3 0 2.5 0c2.6 0 3.8 0 6.1 1.1 3.6 3.5 4.5 6.1 4.7 10.9-.7 2.4-.7 2.4-3.1 4.8-3.4 2.6-6.3 2.9-10.5 3.1q-1.4 0-2.7 0-4.2.1-8.4.2-1.5 0-3 0-8.6.1-17.1 0H877c.3 18-2 35.4-7.2 52.6q-.4 1.2-.8 2.4c3-.2 5.3.1 8.2.9 2 .5 3.9 1.1 5.9 1.6 7.9 2 15.8 3.9 23.4 6.7l2 .8c3.6 1.3 3.6 1.3 6.5 3 2.9 3.8 3.4 6.3 3 11-1.5 3-3.1 4.2-6 6-3.6.5-7.2.5-10.7-.4-3-.8-3-.8-12.9-2.8q-2-.4-4.1-.8c-8.1-1.7-16.1-3.3-24.3-4-19.9 37.7-48.9 68.3-84.8 91.4-3 1.9-3 1.9-5.2 3.6 0 3.1.6 5.8 1.2 8.8 1.5 6.2 2.9 12.5 4.2 18.9 3.6 17.8 7.8 35.3 13.4 52.6 2.1 6.3 4 12.7 5.8 19.1l13.3 44.1q1.5 4.7 2.9 9.5 1 3.2 2 6.4 1.5 4.8 3 9.7.5 1.6 1 3.1c2 6.6 6.7 15.9 4.2 22.6-23.6 19.2-23.6 19.2-51.7 31.4q-4.4 1.9-8.8 4c-34.6 16-74.9 23.6-112.4 29.3q-1.6.3-3.1.5c-13.8 2.1-27.6 3.5-41.5 4.8q-1.4.1-2.8.3c-29 2.7-58 4.3-87.2 4.3q-3.5 0-6.9 0c-21.3 0-42.4-.5-63.6-2q-1.9-.1-3.6-.2a696.36 696.36 0 0 1-45.8-4.8q-1.3-.2-2.6-.4c-36.9-5.2-72.8-14.1-108.1-26.3q-1-.4-1.9-.7c-21.3-7.4-60.3-17.5-72.4-38.9-2.9-6.3-1.8-12.1.1-18.5l.8-2.8q.5-1.6 1-3.2.5-1.8 1-3.5 1.5-4.7 2.9-9.4 1.8-6.1 3.6-12.1 5-16.8 10.1-33.5c7.1-23.6 14-47.1 19.9-71.1q1-4.1 2-8.2 1.1-4 2.1-8.1.4-1.9.9-3.8c1.8-7.3 3.4-14.4 4-21.9-10.5-6.8-20.9-13.5-30.4-21.7q-2.6-2.3-5.4-4.5c-11.2-8.9-20.7-19.1-29.8-30.1q-.7-.8-1.4-1.7c-5.3-6.4-10.1-13-14.5-20q-.8-1.3-1.5-2.4c-2.5-4-4.7-7.8-6.3-12.1q-.4-1.3-.7-2.5c-10.1 1-19.9 3-29.8 5.1-7.9 1.8-16.1 4.2-24.2 2.9-2.7-1.9-2.7-1.9-4-5-1-3.7-1.4-5.9 0-9.5 2.2-2.8 4.3-3.9 7.5-5.2q1.2-.4 2.3-.8c11.7-4.4 24-7.4 36.3-9.1q1.5-.2 2.9-.4c-4-9.3-5.9-19.4-7.3-29.4q-.3-1.4-.4-2.9c-1-6.8-1.4-13.5-1.3-20.5q0-1.1 0-2.2c-10.9.1-21.8.3-32.7-.3q-1.2-.1-2.2-.1c-3.2-.2-6.2-.1-9.1-1.6-2.3-3.1-3-4.8-3.2-8.7.2-3.8.6-4.7 3.2-7.4 3.6-2.3 5.7-2.4 9.8-2.4q1.4.1 2.7.1 4.2 0 8.4.1 2.9.1 5.9.1 6.7 0 13.5.1c1.9.1 1.9.1 3.7.1-.9-31.2 3.1-62.2 11.7-92.2 2.8-9.4 5.6-17.1 2.6-26.8-1.4-4.3-2.8-8.6-3.9-13-.3-1.1-.3-1.1-.5-2.1q-.9-3.3-1.7-6.6-.3-1.2-.6-2.3a844.14 844.14 0 0 1-9.9-44.6c-.4-1.7-.4-1.7-.7-3.4-12.3-62-20.9-130.3-11.4-193.2q.2-1.4.4-2.8c1.9-11.8 5.3-23 12-33 16.2-19.7 41.1-13.8 61.8-5.4z"/><path d="M244 757l5.5 7.1C278.7 803.9 352 813 397.3 820c73.5 11.1 148.1 12.6 221.7 2q2-.3 4-.6c51.6-7 119-16.8 156-56.4q2.5-2.5 5-5 2.4 8.1 4.9 16.2.8 2.7 1.6 5.4 4 13.5 8 26.9l8 26.3q1.3 4.1 2.5 8.2l7 22.4q.9 2.8 1.8 5.6 1 3.2 2.1 6.4.4 1.5.9 2.9.4 1.2.8 2.4c.7 3.9-.1 6.6-2.3 9.8-14.2 15.3-37 24.5-55.9 32.5q-2.3 1-4.7 2c-54.6 24.1-117.4 31.1-176.3 35.7q-1.1.1-2.3.2-8.1.6-16.1 1.1-1.1.1-2.2.1c-17.3 1.2-34.6 1.2-52 1.2q-1.2 0-2.4 0c-39.8.1-79.9-1.2-119.2-7.8q-5.1-.8-10.2-1.5c-47.7-7.1-138.5-22-169-63-3.7-6.8-2.1-13.7 0-20.7q.4-1.4.9-2.9.5-1.5.9-3.1 1.6-5.1 3.1-10.2 1.1-3.6 2.2-7.2 2.3-7.5 4.5-15.1 5.4-17.6 10.6-35.2 1.6-5.6 3.3-11.1 1-3.4 2.1-6.9.4-1.5.9-3 2.6-8.7 4.9-17.5c.6-2.1.6-2.1 1.6-3.1z"/></g><path d="M258 697c5 1.3 9 3.7 13.3 6.4 4.3 2.5 8.7 4.7 13.1 6.8q1.5.7 3 1.4c44.3 20.8 90.7 33 139.1 39.2q1.2.2 2.5.3 3.5.5 7.1.9 1 .1 2 .3c14.9 1.7 29.6 1.9 44.5 1.9q1.6 0 3.3 0 8.5 0 17 0 6.9 0 13.9.1c26.2.1 52.1-.1 78.2-3.3q2-.2 4-.5c57.8-6.9 111.3-22.6 162.6-50.3 2.4-1.2 4.9-2.2 7.4-3.2 2.8 9.5 4.9 19.2 7 28.9q.8 3.5 1.6 7 .5 2.3 1 4.6 1.8 8.4 4 16.8c.4 2.9.2 4.9-.6 7.7-2.7 3.6-5.8 6.8-9 10q-.9.9-1.8 1.9C725.4 817.8 632.1 823.7 572 828q-1 .1-2.1.2c-11.6.8-23.3 1.4-34.9 1.8-1.2 0-1.2 0-2.5.1-48.9 1.7-99.3-2.6-147.5-11.1q-1.7-.3-3.5-.6c-7.5-1.3-15-2.8-22.5-4.4q-1.5-.3-3-.6c-35.3-7.4-84.9-19.5-108-49.4-.7-.8-.7-.8-1.4-1.7-1.6-2.4-2.7-4.4-2.4-7.3q.2-1.2.5-2.3.3-1.3.6-2.7.3-1.5.7-3 .4-1.6.7-3.3 1.3-5.5 2.6-11.1.2-.9.5-2 3.9-16.8 8.2-33.6z" fill="#ea4818"/><path d="M212.6 134c20.3 8.2 38.7 21.1 55.4 35q.8.7 1.7 1.4c15.2 12.7 29.3 26.5 43.2 40.5q2.1 2 4.2 4.1 4.9 5 9.9 10c-1 3-1 3-3.9 4.6q-1.9.9-3.8 1.8c-44.7 21.3-85.7 56.4-114.9 96.2q-.6.8-1.3 1.6-1.7 2.4-3.3 4.7-.9 1-1.8 2.1-1 0-2 0c-6.2-19.5-11-39-15-59l-.6-3c-4.1-20-6-40.5-8.2-60.9q-.3-2.6-.6-5.3c-.7-7.3-.8-14.5-.8-21.9q0-3.1 0-6.3c-.2-35.6-.2-35.6 10.8-47 8.9-6.6 21.5-2 31 1.4zm630.3-2.9c9.9 8.8 12 21.3 13 34.1 2.5 50.9-5.7 102.7-20.1 151.4q-.5 1.7-1 3.5c-1.6 5.4-3.4 10.7-5.8 15.9-4.1-3.9-7.7-8.2-11.2-12.6q-2.5-3.1-5-6.1-1.9-2.4-3.8-4.8c-5.6-7.1-11.8-13.6-18.2-19.9q-2.5-2.6-5-5.1c-6.6-6.6-13.4-12.7-20.8-18.5q-2.1-1.7-4.2-3.4c-16.1-12.8-33.2-24-51.3-33.6-2.7-1.5-5.1-3.1-7.5-5 1.4-3.2 3.1-5.4 5.6-7.9 1.2-1.1 1.2-1.1 2.3-2.3q1.2-1.2 2.4-2.4c1.3-1.3 1.3-1.3 2.6-2.5q2.6-2.7 5.3-5.4 4-4 8.1-8c8.2-8.3 16.4-16.4 25.7-23.5q1.7-1.4 3.3-2.8c59-51.5 59-51.5 85.6-41.1z" fill="#026875"/><path d="M511 486.7q3.7 0 7.4-.1c13.7 0 29.5.2 41.6 7.4q1.5.8 3.1 1.6c2.7 3.4 2.6 6 2.4 10.3-2.2 13.9-10 23.7-20.8 32.3-2.7 1.8-2.7 1.8-5.8 3.3-3.1 1.6-5.5 2.9-7.9 5.5-2.8 10.8 1.3 21.2 6.4 30.6 6.9 11.2 17.7 17.2 29.8 21.6 16.1 3.5 33.1 1.5 47-7.3 9.7-6.5 16.1-14.2 21.5-24.5 1.7-3.1 3.1-4.8 6.3-6.4 4.6-.8 8.6-.5 12.8 1.6 4.4 3.3 6.8 6 7.8 11.5-2.2 15-11.3 27.2-22.6 36.9-22.3 16.1-49.6 22.4-76.8 18.4-19.4-3.6-33.8-14.6-47.2-28.4q-2-2-4-4-.5.7-1 1.5c-12.3 17-30.7 27.7-51.4 31.2-15 1.9-30.2 1.1-44.6-3.7q-1-.3-2-.7c-8.7-3-16.5-6.9-24-12.3q-1.3-.9-2.7-1.9c-10.8-8.2-20-20.4-22.3-34.1-.3-4.2-.2-7.6 2.6-10.9 4.7-4 7.9-5.5 14.1-5.4 3.8.5 5.5 1.6 8.3 4.3 1.5 2.6 2.9 5.3 4.3 8.1 7.6 13.3 21 21.6 35.4 26 11.6 2.8 26.7 2.7 37.3-3.1q1.3-.7 2.6-1.4c11.4-6.3 19.9-14.8 24.3-27.3q.7-2.7 1.1-5.3.3-1.8.7-3.6c.4-4.2.4-7.3-.7-11.4-3.7-3.5-7.7-5.6-12.2-8-10.6-5.9-18.5-16.8-22.1-28.3-1.1-4.3-2-8.3-.7-12.7 5.5-7.1 15.1-8.7 23.5-9.8 9.5-1.2 18.9-1.5 28.5-1.5z" fill="#003c47"/><path d="M393.9 418.4c11 8.9 21.2 20.8 23.5 35.2.2 4.8-.6 8.4-3.4 12.4-3.5 3.3-6.3 4.3-11 4.5-5.9-.3-9-2.5-13.1-6.6-1.7-2.6-3-5.1-4.4-7.9-5.3-10.8-14.3-17-25.5-21-9.2-2.8-18.5-1.1-27 3-9.7 5.5-16.1 13.2-22.6 22.2-6.8 9.4-6.8 9.4-11.7 10.2-5.7.2-9.3-.5-13.7-4.4-2.9-3.4-3.8-6.7-3.6-11.2C284.8 439 297 424.9 310 416c26.2-15.7 59.1-16.1 83.9 2.4z" fill="#003c46"/><path d="M721 420c9.8 7.5 16 16.8 21 28q.7 1.5 1.4 3.1c1.1 5.4.7 10.1-2.2 14.8-3.5 3.3-6.3 4.4-11 4.5-4.2-.1-7.2-.7-10.5-3.4-3.1-3.6-5.4-7.7-7.8-11.8-3.1-5.2-6.3-8.8-11.1-12.3q-1.3-.9-2.7-1.9c-7.4-4.7-13.6-6.7-22.4-6.6q-1.4 0-2.8 0c-10.1.3-17.3 3.9-24.9 10.6-1.9 2.5-1.9 2.5-3.5 5.2q-.9 1.4-1.8 2.9-2.3 3.9-4.4 7.8c-2.4 4.4-4.4 7.5-9.3 9.1-5 .5-8.9.6-13.4-1.7-3.3-2.9-5.2-5.6-6.1-9.9-.4-13 6.5-23.3 14.9-32.7 26.7-27.1 66.5-27.7 96.6-5.7z" fill="#003c47"/><path d="M257.6 563.6q1.1 0 2.3 0c5.2-.1 8.1 1.1 12.1 4.4 2.3 2.8 2 4.3 1.9 7.9-.6 4.3-2.5 6.4-5.9 9.1-2.7 1.4-5.2 1.5-8.3 1.8q-2 .3-4.1.6l-2.3.2c-19.2 2.4-38.3 5.3-57.4 8.3-1 .1-1 .1-2.1.3-34.7 5.1-34.7 5.1-69 12.4-3.9.9-7.9 1-11.8.4-3.3-2.6-3.9-4.5-4.9-8.5-.1-4.1.4-5.3 2.9-8.5 2.6-1.4 4.9-2.4 7.6-3.4q1.2-.5 2.5-.9c30.8-11 64.6-14.5 96.8-19.6q1.8-.3 3.7-.6c25.3-3.9 25.3-3.9 36-3.9z" fill="#013c46"/><path d="M808.1 567.8q4.1.6 8.3 1.2c14.5 2 28.9 4.3 43.3 7.1a59.31 59.31 0 0 1 3.7.7c47.3 9.4 47.3 9.4 53.5 17.7 1.4 3.1 1.6 5.1 1.1 8.5-1.8 2.7-3.1 4.5-6 6-7.8.5-14.8-1-22.4-2.7q-2.9-.6-5.9-1.2-1.9-.4-3.9-.9-9.5-2-19.1-3.8-1.4-.3-2.8-.6c-19.2-3.7-38.5-6.5-57.8-9q-5.3-.7-10.6-1.4-3.4-.5-6.8-.9-1.5-.2-3.1-.4c-5.5-.7-11-1.4-16.5-1.8-4.2-.6-6.4-2.4-8.9-5.6-1.5-3.4-1.9-5.1-1.2-8.7 10.8-16 38.8-6.6 55.1-4.2z" fill="#013b45"/><path d="M886.6 503.9q6.3-.1 12.7-.2 2.5 0 5-.1 3.5 0 7 0l2.2-.1c4.7 0 7.1 1.1 10.5 4.5 1.6 3.2 2 6.6 1 10-3.6 4.1-6.1 5.3-11.5 5.8q-3.4.1-6.8.2-1.8.1-3.6.2-5 .1-9.9.3l-16.4.7q-2.1.1-4.2.2c-29 1.2-57.8 4.7-86.5 9.2l-2.1.4c-3.5.5-6.9 1.2-10.3 2.1-5.6 1.4-9 1.8-14.1-1-2.7-2.5-3.1-4.6-3.3-8.2 0-3.4.3-4.5 2.7-7 3.9-2.5 7.7-3.7 12.2-4.8q1.4-.4 2.9-.8c36.4-9.2 75.2-10.6 112.5-11.4zm-771.5 0q1.1 0 2.2 0 3.6 0 7.1 0 1.3 0 2.5 0 8.6 0 17.1.1h3.7c27.6.4 55 3.9 82.2 7.9q1.2.2 2.4.4c8.3 1.2 16.5 2.7 24.5 5.1q1 .3 2 .6c4.1 1.3 7 3.1 10.2 6 1.4 2.9 1.4 4.8 1 8-2.2 2.6-4 4.5-7 6-7.1-.2-14.2-1.6-21.1-2.9-12.3-2.1-24.6-3.7-37-5.2q-1.6-.2-3.2-.4c-20.3-2.5-40.4-4.1-60.9-4.8q-5.8-.2-11.6-.5-4.2-.1-8.5-.2-2.6-.1-5.2-.2-1.2-.1-2.4-.1c-3.6-.2-5.7-.4-8.6-2.6-2.8-3.8-2.9-6.4-2.5-11.1 3.8-5.8 6.6-6.2 13.1-6.1z" fill="#013a45"/></svg>