<svg xmlns="http://www.w3.org/2000/svg" width="1024" height="1024" xmlns:v="https://vecta.io/nano"><path d="M241.2 82.1c22.9 13.6 44.5 29.8 64.8 46.9q1.6 1.3 3.2 2.7 8.9 7.4 17.5 15.3 3.1 2.7 6.1 5.3c9.6 8.4 18.8 17.2 27.9 26.2q1.6 1.6 3.2 3.2 2.3 2.2 4.5 4.5 1.3 1.3 2.7 2.7c1.9 2.1 1.9 2.1 1.9 4.1q.9-.3 1.8-.6c22.7-8 45.4-13.7 69.2-17.4l2.6-.4c67.3-10.8 138-4.2 202.4 17.4q1.2-1.2 2.4-2.5 4.6-4.5 9.1-9.1 2-1.9 3.9-3.9c6.7-6.7 13.4-13.4 20.6-19.5q2.7-2.4 5.3-4.9a387.12 387.12 0 0 1 13.8-11.7q3.9-3.3 7.8-6.6c13.3-11.6 27.5-22 41.9-32.2q3.2-2.3 6.4-4.7c20.6-15 46.1-32.3 72.8-29.9 10.8 1.9 18.7 8.2 25 17 15.8 26.4 17.4 59.2 17.2 89.2q0 1.4 0 2.8c0 15.1-.5 30-2.2 45l-.2 2.2c-5.1 45.2-11.3 92.9-31.1 134.5-1.3 4.3.6 8.2 2.1 12.3 10.3 27.2 18.2 56.1 18.4 85.4q0 1.3 0 2.6 0 4.2 0 8.4.1 1.4.1 2.8c0 41.2 0 41.2-4.3 49.8q1 0 2.1 0c8.5-.1 16.9.3 25.3.8q1 .1 2.1.1 2.9.2 5.9.4 1.7.1 3.5.2c4 .7 6.9 2 9.5 5.3.9 3.4.5 5.8-.4 9.2-2.1 2.4-3.8 3.8-7.1 4.3-2.6.1-5.1.1-7.7 0q-1.4 0-2.9 0-4.6-.1-9.3-.3-1.7-.1-3.4-.1-10.3-.4-20.6-.9-.2 1-.3 2.1c-1.2 6.4-2.6 12.7-4.4 19l-.8 2.7c-2.5 8.7-5.8 17-9.5 25.2q1.4.2 2.7.3c14.4 2.1 28.8 7.1 42.6 11.3q1.4.4 2.8.8c5.1 1.6 8.5 3.2 11.9 7.6.6 3.5.6 3.5 0 7-2.1 2.9-2.1 2.9-5 5-7 .8-13.5-1.5-20.2-3.3q-1.8-.5-3.8-1-4.9-1.3-9.9-2.7-5.1-1.3-10.2-2.7-9.9-2.6-19.9-5.3-.4 1.1-.9 2.3c-6.2 15.1-20 28-31.1 39.7q-1.2 1.2-2.4 2.5c-4.6 4.8-9.5 9-14.7 13.2q-3.8 3.1-7.6 6.2C761.2 679 761.2 679 758 679q.2.8.4 1.7 1.9 9 3.8 17.9.7 3.4 1.4 6.7 1 4.8 2 9.6.4 1.6.7 3.3c1.1 5.5 2 10.9 2.4 16.6 1.4 12 6.1 23.4 10.1 34.8q1.8 5.1 3.5 10.2 2.2 6.4 4.4 12.7 6.7 19.4 13.1 38.8 1.7 5 3.4 10.1c3.1 9.2 6.1 18.4 8.8 27.7q.3 1.1.6 2.2c1.3 4.6 2.4 9.2.6 13.8-26.4 40.1-94.1 51.8-137.8 61L660 949q-1.6.3-3.3.6c-17 3.1-34 5.2-51.1 7.1-1.4.1-1.4.1-2.8.3-28.7 3.1-57.3 4.4-86.2 4.3q-3.4-.1-6.9-.1c-84.3-.2-175-7.3-281.9-59.1q-.9-.6-1.8-1.3c-13.7-10.1-13.7-10.1-16-17.8-.2-9 3.1-17.5 5.8-25.9q.8-2.3 1.5-4.6l14.4-43.7q2.7-8.1 5.4-16.2.4-1.2.8-2.4 2-5.7 3.9-11.5l6.6-19.5c3.9-11.1 6.7-21.9 8.5-33.5 1.5-9.6 3.5-19 5.3-28.4q.7-3.5 1.4-6.9.2-1.1.4-2.2c.6-2.8 1-5.3 1-8.2-2.1-1.7-4.1-3.2-6.3-4.6q-2-1.4-3.9-2.7c-1-.7-1-.7-1.9-1.4-4.5-3.2-8.7-6.7-12.9-10.3q-1.1-.9-2.2-1.9c-14.5-12.6-28-26.2-38.8-42.1l-1.3-1.9q-3.4-5-6.7-10.1c-9.2 1.3-18 3.4-26.9 5.9q-1.9.5-3.8 1l-15.2 4.2q-1.8.6-3.7 1.2-1.6.5-3.3 1c-3.2.7-5.8 1-9.1.7-2.9-2.1-2.9-2.1-5-5-.7-4.1-.6-6.1 1.7-9.6 2.7-2.8 4.5-3.5 8.3-4.6q1.7-.6 3.5-1.1c1.9-.6 1.9-.6 3.9-1.1q1.9-.6 3.9-1.2 5.8-1.7 11.7-3.4l3.5-1q4.5-1.3 9.1-2.6 1.3-.3 2.7-.7 1.2-.4 2.5-.7 1.1-.3 2.2-.6c2-.4 2-.4 6-.4-.5-1.2-.5-1.2-1.1-2.3-6.3-13.9-13.3-31.3-12.9-46.7q-1.1 0-2.3.1-11 .4-22.1.8-3.3.1-6.7.2-3.9.2-7.8.3-1.2 0-2.3.1c-4 .1-5.6-.4-8.8-2.8-2-2.7-2-2.7-2.6-6.2.7-4 1.8-5.7 4.6-8.5 2.8-1.4 5.2-1.3 8.3-1.5q2-.2 4-.3c1-.1 1-.1 2-.1q3-.2 6.1-.4c7.9-.6 15.7-.8 23.6-.7q-.5-1-1-2c-4.2-27.9-4.8-57.1-1-85q.1-1.1.3-2.3c2.8-20.8 8.3-43.5 17.5-62.4 2.4-6.6-.8-12.1-3.4-18.2-15.1-36.8-21.1-76.3-25.7-115.5l-.2-2.1c-2.1-18.2-2.7-36.4-2.7-54.8q-.1-5-.1-10c-.2-28.3 1.3-66.4 21.3-88.9 20.9-20.3 49.5-8.3 71.2 4.3z" fill="#00404d"/><path d="M242 662c4.2 1.4 7.2 3.5 10.7 6.2 4.6 3.5 9.3 6.9 14 10.2 2.3 1.6 2.3 1.6 4.6 3.5 3.4 2.6 7 4.7 10.7 6.7q1.2.7 2.4 1.3c49.1 26.7 103.2 40.2 158.5 46.4q1.2.1 2.3.2c15.1 1.7 30.2 2.7 45.4 2.7h2.2q5.7 0 11.4 0 4.6 0 9.2.1c71.8.5 145.4-11 210.6-42.3q1-.5 2.1-1c11.4-5.5 21.9-12.4 32.3-19.5q1.7-1.1 3.3-2.2 1.5-1 3-2c1.1-.6 1.1-.6 2.3-1.3q1 .5 2 1-2.2 1.8-4.4 3.5-1.2 1-2.4 2C760 679 760 679 758 679q.2.8.4 1.7 1.9 9 3.8 17.9.7 3.4 1.4 6.7 1 4.8 2 9.6.4 1.6.7 3.3c1.1 5.5 2 10.9 2.4 16.6 1.4 12 6.1 23.4 10.1 34.8q1.8 5.1 3.5 10.2 2.2 6.4 4.4 12.7 6.7 19.4 13.1 38.8 1.7 5 3.4 10.1c3.1 9.2 6.1 18.4 8.8 27.7l.6 2.2c1.3 4.6 2.4 9.2.6 13.8-26.4 40.1-94.1 51.8-137.8 61L660 949l-3.3.6c-17 3.1-34 5.2-51.1 7.1q-1.4.1-2.8.3c-28.7 3.1-57.3 4.4-86.2 4.3q-3.4-.1-6.9-.1c-84.3-.2-175-7.3-281.9-59.1q-.9-.6-1.8-1.3c-13.7-10.1-13.7-10.1-16-17.8-.2-9 3.1-17.5 5.8-25.9q.8-2.3 1.5-4.6l14.4-43.7q2.7-8.1 5.4-16.2.4-1.2.8-2.4 2-5.7 3.9-11.5l6.6-19.5c3.9-11.1 6.7-21.9 8.5-33.5 1.5-9.6 3.5-19 5.3-28.4q.7-3.5 1.4-6.9.2-1.1.4-2.2c.6-2.8 1-5.3 1-8.2-2.1-1.7-4.2-3.2-6.4-4.7q-2-1.4-3.9-2.7-.9-.7-1.9-1.3c-2.4-1.7-4.8-3.5-7.2-5.4q-1-.8-2.1-1.6L242 663q0-.5 0-1z" fill="#00404c"/><path d="M242 662c4.2 1.4 7.2 3.5 10.7 6.2 4.6 3.5 9.3 6.9 14 10.2 2.3 1.6 2.3 1.6 4.6 3.5 3.4 2.6 7 4.7 10.7 6.7q1.2.7 2.4 1.3c49.1 26.7 103.2 40.2 158.5 46.4q1.2.1 2.3.2c15.1 1.7 30.2 2.7 45.4 2.7h2.2q5.7 0 11.4 0 4.6 0 9.2.1c71.8.5 145.4-11 210.6-42.3 1-.5 1-.5 2.1-1 11.4-5.5 21.9-12.4 32.3-19.5q1.7-1.1 3.3-2.2 1.5-1 3-2c1.1-.6 1.1-.6 2.3-1.3q1 .5 2 1-2.2 1.8-4.4 3.5-1.2 1-2.4 2C760 679 760 679 758 679q.2.9.4 1.7 1.9 9 3.8 18 .7 3.4 1.5 6.7c5.1 23.8 5.1 23.8 5.3 35.6q-1.5 0-3 0-2 2.4-4 4.8c-9.1 9.8-21.3 16.1-33 22.2q-1.1.6-2.2 1.2C705.7 780 683 787.3 660 793q-1.1.3-2.2.6c-4.9 1.2-9.8 2.3-14.8 3.4q-1.3.3-2.6.6c-63.1 13.9-131 17.1-195.1 9.7q-3.7-.5-7.3-.9c-20.2-2.2-40.2-4.8-60-9.4q-1.5-.3-3-.7c-39.7-9.1-79.9-22.7-111.1-49.8-4-4.2-4-4.2-8.9-6.5.7-8.1 2-16.1 3.5-24.1q.6-3.2 1.2-6.4c1.4-8 3-15.9 4.8-23.7.6-2.8.6-2.8.5-5.8-2.1-1.7-4.2-3.2-6.4-4.8q-2-1.3-3.9-2.6c-.9-.7-.9-.7-1.9-1.3-2.4-1.7-4.8-3.5-7.2-5.4q-1-.8-2.1-1.6-.8-.7-1.5-1.3 0-.5 0-1z" fill="#008bab"/><path d="M218 129c24.6 6.7 46.2 23.1 64.3 40.5l6.5 5.8c4.3 3.7 8.3 7.6 12.3 11.6 1 1 1 1 2 2.1 4.5 4.5 8.7 9.2 12.9 14q1.8 2 3.5 4 1.7 1.9 3.4 3.9.9 1 1.8 2 .8.9 1.7 1.9.7.9 1.5 1.7c1.1 1.5 1.1 1.5 1.1 3.5-1.6 1.2-1.6 1.2-4 2.5q-1.2.8-2.5 1.5-1.4.8-2.7 1.6-2.8 1.7-5.6 3.3-1.4.8-2.7 1.6c-13.9 8.3-27 18.2-39.5 28.5q-1.4 1.2-2.9 2.4c-15.4 12.7-30.2 26.4-43.1 41.6q-1.5 1.8-3.1 3.5-1.6 2-3.3 3.9-.8.9-1.6 1.9c-2.8 3.1-2.8 3.1-5 6.7q-1 0-2 0c-11-41.5-11-41.5-13.6-58.4q-.7-4.2-1.4-8.5c-3.9-22.7-6.3-45.3-6.4-68.4q0-1.2 0-2.4c-.1-17.3.6-35.3 12.7-48.7 4.9-4.7 9.3-4.4 15.7-3.6zm601.3 1.6c9.1 8 12.4 17.6 13.7 29.4.4 7.1.4 14.3.4 21.4q0 1.5 0 3.1c-.1 35.2-5 70.3-13.4 104.5l-.8 3.3q-1.4 5.6-2.8 11.2-.5 1.8-.9 3.6c-.5 1.7-.5 1.7-.9 3.4q-.4 1.5-.8 3.1c-.8 2.4-.8 2.4-2.8 4.4q-2.5-2.7-4.9-5.3-.7-.7-1.4-1.5c-3.1-3.3-6-6.8-8.9-10.4-4.6-5.7-9.6-10.9-14.9-16.1q-2.2-2.2-4.5-4.4c-5.3-5.3-10.7-10.4-16.4-15.3q-1.5-1.3-3.1-2.7C738 246.1 717.5 232.7 696 220c.9-4.5 3.5-7 6.6-10.2q1.6-1.7 3.1-3.3c.8-.9.8-.9 1.7-1.7l4.7-5.4c4.6-5.3 9.6-10.2 14.5-15.2q2.5-2.4 4.9-4.9c5.8-5.8 11.6-11.3 18-16.3 2.7-2.1 5.2-4.3 7.8-6.4 6.5-5.4 13.5-10 20.7-14.6q1.5-1 3.1-2c10.5-6.5 26-15.4 38.2-9.4z" fill="#006984"/><path d="M555.2 493.2c2.4 2.4 3.7 4.6 4.8 7.8q.3.9.7 1.9c1.3 9-1 14.6-6 22-6.4 8.2-15.9 12.9-25 17.5-2.9 1.5-2.9 1.5-4.7 4.6-1.2 12.2-.4 22.6 7 32.7 8.1 9.8 18.5 15.3 31 17.3 14.8.7 26.7-1.2 38.2-11.2 3.2-3.1 6-6.2 8.6-9.7 4.4-5.8 4.4-5.8 8.2-7.1 4.9-.3 8.1.3 12 3.4 2.5 3.3 3.5 6.2 3.4 10.4-2.1 11.4-10.6 20.3-19.4 27.1-17.4 11.9-37.9 16.1-58.7 12.3-16.4-3.4-28.1-9.9-40.2-21.5-2-2-2-2-5.1-1.7-2 1.5-2 1.5-4 3.6-11.5 10.5-24.8 16.1-40 19.4q-1.2.3-2.4.5c-17.8 3.3-38.3.3-53.6-9.5-7.2-5.1-11.6-11.4-16-19q-1-1.4-1.9-2.9c-1.8-5-2-9.9-1.1-15.1 1.8-3.6 4.2-5.4 8-6.7 4.8-.9 7.9-.1 12 2.7 2.3 2.5 4.1 5.1 5.9 8 6.1 8.8 14.8 14.5 25.1 17 3.1.4 6.2.4 9.4.4q1.2 0 2.5-.1c6.4-.1 12.1-.9 18.1-3.3q1.5-.6 3-1.2c10.4-4.7 16.5-11.5 21-21.8 1.4-4.3 1.2-8.4 1.2-12.9q.1-1.3.1-2.7c.1-6.8.1-6.8-3.3-12.4-2.5-1.4-4.9-2.6-7.6-3.7-11.1-5.3-18.9-12.1-24.4-23.3-1.9-5.6-1.9-11.7.4-17.1 5-8.5 11.9-12.6 21.2-15.2 21.7-4.4 53.7-5.4 71.6 9.5z" fill="#002a34"/><path d="M362.3 370.6q1.5 0 3 0c8.2.2 15.1 1.3 22.7 4.4q1.3.5 2.7 1.1c17.6 8 27.5 22.5 34.5 39.8 4.7 14.6 2 30.7-4.3 44.3-3.5 6.5-7.6 11.7-12.9 16.8q-1 1.1-2.1 2.1c-12.7 12.4-28.6 16.4-45.8 16.3-15.9-.4-29.1-5.9-41.1-16.4q-1-.9-2.1-1.7c-10.9-10-17.4-24.7-18.3-39.4-.3-10.2.2-19.4 4.4-28.9l1.2-2.8c7.6-15.5 22.1-27.5 38.3-33.1 6.7-1.9 12.9-2.6 19.8-2.5zm340.3 14.5c11.9 10.1 20.2 24.7 21.6 40.4.9 18.1-2.3 33.7-14.6 47.7q-2.3 2.5-4.6 4.8-.9 1-1.9 1.9c-12.4 12-28.7 15.6-45.4 15.5-15.7-.5-28.9-6-40.7-16.4-.9-.8-.9-.8-1.9-1.6-11-10.3-17.7-25.2-18.4-40.2-.4-18.5 4.2-33.3 17.1-47 24.7-24.7 61.2-26.4 88.8-5.1z" fill="#fca700"/><path d="M553 172q0 .5 0 1h-21l-.2 7.5q-.2 12.5-.5 24.9-.2 7.6-.4 15.1L529 282q-.1 1.9-.2 3.8c-2 34.9-2 34.9-11.6 45.1-3.4 1.7-6.5 1.8-10.2 1.1-6.9-4.7-8.8-13.2-10.3-20.9-1.2-6.3-1.8-12.5-2.2-18.9q-.1-1.1-.1-2.3c-.5-7.6-.7-15.3-1-23q0-1 0-2.2c-.5-18.1-.5-36.2-.5-54.3q0-6.6.1-13.1 0-12.6 0-25.3-.9.2-1.9.5c-2.1.5-4 .6-6.2.6q-1.1 0-2.3 0-1.2 0-2.4 0-1.1 0-2.4-.1-2.9 0-5.8 0 0-.5 0-1c27.3-2.5 53.8-2.1 81 0z" fill="#00303b"/><path d="M563 174c10-.5 19.3 1 29.1 2.9q2.2.5 4.5.9c10.8 2 10.8 2 14.4 3.2-.5 26-1.7 52.5-9.1 77.6q-.5 1.5-.9 3.1c-10.6 34.8-10.6 34.8-21 41.3-3 1-5.8 1.3-9 1-3.6-2.6-5.2-4.7-6-9q-.1-2.3-.1-4.7 0-1.4 0-2.8 0-1.5 0-3v-3.2q0-3.4 0-6.7 0-5 0-10c0-11.4.2-22.7.7-34l1-33.5q0-3.3.1-6.5.2-7.8.3-15.6-2-.5-4-1zm-102 0q-2 .5-4 1 0 1.3.1 2.7l2.1 101.9q.1 1.3.1 2.6 0 3.4 0 6.9 0 1.8 0 3.7c-.4 4.1-1.2 7-4 10-3.3 1.7-5.6 1.6-9.3 1.2-7.3-2.7-10.7-8.1-14-15-12.2-27.2-15.8-57.3-17.1-86.8q-.2-2.8-.3-5.5L414 181c8.2-2.2 16.3-3.9 24.6-5.2q1.6-.3 3.2-.5c6.5-1.1 12.7-1.5 19.2-1.3z" fill="#00303a"/><path d="M382.2 400.3c8.9 6.3 14.9 14.2 17.8 24.7 1.5 10.4-.6 21.6-6.7 30.3-6.5 7.7-13.8 14.8-24.3 15.9-8.6.6-16.6.7-24-4.2l-2.1-1.3c-9.2-6.2-14.8-14.8-16.9-25.7-1.1-11.8.2-21 7.3-30.8 12.5-15 31.7-19.1 48.9-8.9z" fill="#013b4a"/><path d="M679 399l2.2 1.3c5.4 3.6 8.7 8.1 11.8 13.7q.6 1.1 1.3 2.2c4.3 8.8 4.1 19.8 1.9 29.3-3.6 9.6-10.4 17.3-19.1 22.6-9.1 4-20.9 4.8-30.5 1.5A43.26 43.26 0 0 1 627 450q-.5-1-1-1.9c-3.6-8.8-3.3-20.1-.4-29 4.2-10 12.3-19.3 22.5-23.4 10.1-2.4 21.9-2.1 30.9 3.3z" fill="#003c49"/><path d="M860 482q.5 0 1 0c.2 9.2.2 18.3-.9 27.5q-.2 1.1-.3 2.2c-.7 5-.7 5-1.8 7.3h2.1c8.5-.1 16.9.3 25.3.8q1 .1 2.1.1 2.9.2 5.9.4l3.5.2c4 .7 6.9 2 9.5 5.3.9 3.4.5 5.8-.4 9.2-2.1 2.4-3.8 3.8-7.1 4.3-2.6.1-5.1.1-7.7 0q-1.4 0-2.9 0-4.6-.1-9.3-.3c-1.7-.1-1.7-.1-3.4-.1q-10.3-.4-20.6-.9-.2 1-.3 2.1a190.72 190.72 0 0 1-4.2 18.5l-.6 2.5a134.56 134.56 0 0 1-1.9 5.9l-2 1c1.8-9.8 4.4-19.4 7-29-25.3-.6-50.4 2.4-75.4 5.6q-4.8.6-9.5 1.1-2.8.4-5.6.7-1.5.2-3 .4c-1.2.1-1.2.1-2.4.3-2.5-.1-4-.7-6.1-2.1-2.6-4-3.8-7.2-3-12 3.5-4.7 6.6-5.8 12.1-6.7q1.5-.2 3-.4 1.5-.2 3.2-.4c30.1-4.2 60.3-6.3 90.7-5.5.9-12.5.9-12.5 1.1-25q0-1-.1-2.1 0-2.4 0-4.9 1 0 2 0 0-3 0-6z" fill="#012933"/><path d="M165 514q.5 0 1 0 0 3 0 6 1.3 0 2.7-.1c24.2-.5 47.9 1 72 3.8q3.3.4 6.7.8 5.7.7 11.3 1.4l3.3.4c4.7.7 7.4 1.2 11.2 4.1 2.2 3.2 2.6 4.8 2.3 8.7-.5 1.9-.5 1.9-2.3 4.9-8.1 5-20.8 1.4-29.8.2-24.4-3.2-48.8-5.4-73.4-6.2l-1 3q0-1.5 0-3c-1.1 0-1.1 0-2.3.1q-11 .4-22.1.8-3.3.1-6.7.2-3.9.2-7.8.3-1.2 0-2.3.1c-4 .1-5.6-.4-8.8-2.8-2-2.7-2-2.7-2.6-6.2.7-4 1.8-5.7 4.6-8.5 2.8-1.4 5.2-1.3 8.3-1.5q2-.2 4-.3 1-.1 2-.1 3-.2 6.1-.4c7.9-.6 15.7-.8 23.6-.7q0-2.5 0-5z" fill="#012a33"/><path d="M845 569c1.4 4.2-.3 6.8-1.9 10.7-.5 1-.5 1-.9 2.1q-1.1 2.6-2.2 5.2 1.4.2 2.7.3c14.4 2.1 28.8 7.1 42.6 11.3q1.4.4 2.8.8c5.1 1.6 8.5 3.2 11.9 7.6.6 3.5.6 3.5 0 7-2.1 2.9-2.1 2.9-5 5-7 .8-13.5-1.5-20.2-3.3l-3.8-1q-4.9-1.3-9.9-2.7-5.1-1.3-10.2-2.7-9.9-2.6-19.9-5.3-.5 1.2-.9 2.4c-1.5 3.7-3.7 6.4-6.1 9.6 0-3.7 1.1-5.1 3-8.2q.8-1.3 1.7-2.7.6-1 1.3-2.1l-3.8-.4c-5.5-.6-10.8-1.6-16.2-2.8q-1.5-.3-3.1-.6-5-1-9.9-2.1-4.9-1-9.8-2-3.1-.7-6.3-1.3c-4.7-1-9.3-1.9-14-2.6l-2.4-.4q-3-.4-6.1-.8c-4.3-1.3-6.2-2.9-9.4-6-1-3.1-.7-5.8 0-9 1.8-3.1 1.8-3.1 5-5 9.9-1.5 20.5 1.5 30.1 3.5q2.7.5 5.5 1.1c16.6 3.3 33 7.2 49.4 11.4q.3-.9.6-1.8c2.6-7.9 2.6-7.9 4.1-11.8q.6-1.7 1.3-3.4z" fill="#012932"/><path d="M273.3 572c1.9 3.3 2.3 5.2 2.4 8.9-1.1 3.3-3 5.2-5.7 7.1-3.5 1.2-7.1 1.8-10.7 2.5q-1.6.3-3.2.6-5.2.9-10.3 1.8-6.9 1.3-13.9 2.7-1.7.3-3.4.6c-11.9 2.2-23.7 4.9-35.5 7.8l6 9-1 2-7-10c-9.2 1.4-17.9 3.4-26.9 5.9q-1.9.5-3.8 1l-15.2 4.2q-1.8.6-3.7 1.2-1.6.5-3.3 1c-3.2.7-5.8 1-9.1.7-2.9-2.1-2.9-2.1-5-5-.7-4.1-.6-6.1 1.7-9.6 2.7-2.8 4.5-3.5 8.3-4.6 1.7-.6 1.7-.6 3.5-1.1q1.9-.6 3.9-1.1 1.9-.6 3.9-1.2 5.8-1.7 11.7-3.4 1.7-.5 3.5-1 4.5-1.3 9.1-2.6 1.3-.3 2.7-.7c1.2-.4 1.2-.4 2.5-.7q1.1-.3 2.2-.6c2-.4 2-.4 6-.4q-.6-1.2-1.1-2.5-.7-1.6-1.5-3.3-.7-1.6-1.4-3.3c-1-2.9-1-2.9 0-5.9q1.3 2.9 2.5 5.9.7 1.6 1.4 3.3c1.1 2.8 1.1 2.8 1.1 4.8q1.8-.4 3.7-.9 7-1.6 13.9-3.2 3-.7 6-1.4c57.6-13.5 57.6-13.5 65.6-8.5z" fill="#012933"/><path d="M164 428q1 1.5 2 3 .5-1 1-2c19.8 2.2 52.1 6.2 66.4 21.5 2 3.2 2.3 4.8 1.6 8.5-7.3 8.6-22.3 9.4-32.7 10.3-12.8 1-25.5.8-38.3.7l-1 24q-.5 0-1 0c-1.3-7.9-1.2-15.7-1.2-23.7q0-1.1 0-2.2c0-28.1 0-28.1 3.2-40.1z" fill="#002d37"/><path d="M858 426c8.6 12.9 4.2 39 4 54q-.5 0-1 0v-10q-2 0-4.1.1c-53.2.6-53.2.6-66.9-10.1-1.2-3.4-1.2-3.4-1-7 6.7-11.5 24.2-14.8 36.3-18q5.8-1.6 11.7-3 1.5-.4 3.1-.8c5.7-1.2 11.1-1.4 16.9-1.2q.5-2 1-4z" fill="#002e38"/></svg>