<svg xmlns="http://www.w3.org/2000/svg" width="1024" height="1024" xmlns:v="https://vecta.io/nano"><path d="M273 109q2.4 1.7 4.8 3.4c8.3 5.9 16.4 12 24.2 18.6q2.7 2.2 5.4 4.4c9.4 7.7 18.7 15.6 27.7 23.9q2.2 2.1 4.6 4.1c4.4 3.8 8.5 7.8 12.5 12q1.7 1.8 3.4 3.5 2.6 2.7 5.1 5.5 2.5 2.6 5.1 5.3.8.8 1.5 1.6c2.1 2.1 3.8 3.6 6.7 3.8 2.1-.2 4-.6 6-1.1q1.3-.3 2.6-.6 1.1-.3 2.3-.6 1.3-.4 2.6-.7 1.4-.4 2.8-.8c50-13.3 50-13.3 70.7-13.3q0 1 0 2 1 0 2 0 0-1 0-2c9.1-3 19.6-2.2 29.1-2.2q2.2 0 4.3 0 4.5 0 9.1 0 4.5 0 9.1 0c32.4-.1 32.4-.1 47.4 2.2l-1 11 3-11c27.1 3.5 55 8.3 81 17 3.4.5 5.8.8 8.8-1.2 1.9-1.7 3.6-3.5 5.4-5.3q1-1 2-2.1 3.1-3.2 6.2-6.5 3.2-3.2 6.3-6.4 1.9-2 3.8-4c3.8-3.8 7.6-7.5 11.7-11 2.6-2.2 5.1-4.5 7.6-6.9 4.7-4.3 9.5-8.4 14.4-12.4a287.15 287.15 0 0 0 8.5-7C752.2 105.1 798.4 67.5 843 70c11.1 1.6 19.3 6.1 26.4 14.8 11.6 15.6 15.5 33.9 17.8 52.9q.1 1.1.2 2.2c3.1 25.9 1.1 51.2-1.4 77.1q-.2 1.8-.4 3.7c-1.5 15.6-4.3 30.9-7.6 46.3q-.5 2.2-.9 4.5L874 285q-.4 1.6-.8 3.2c-7 29.3-14.9 60.8-29.6 87.3-2.8 5.1-2.8 5.1-3.7 10.8 1.6 5.5 3.5 11 5.4 16.4 5.2 15.4 9.2 30.6 12 46.7q.2 1.4.4 2.9c6.7 41.2 1 83.5-12.7 122.7l-1 2.8c-7 18.7-17.7 35.6-30 51.2q-.7.8-1.3 1.7c-10.3 12.9-22.1 25-35.1 35.2-4.8 3.8-9.2 8-13.6 12.1q-1.4 1-2.9 2.1c-2.9 4-2.2 6.3-1.5 11q.3 1.6.6 3.2.5 3.2.9 6.5c.3 1.5.3 1.5.5 3.2 2 15.4.5 31-8.6 44-37.4 45.8-116.1 53.6-170.8 60.3q-.9.1-2 .2c-22.4 2.8-45 2.7-67.6 2.8h-2.2c-23.9 0-47.6-.5-71.4-3.3q-1.1-.1-2.3-.3c-19.7-2.3-39.3-5.3-58.7-9.7-1.5-.3-1.5-.3-3-.7-34.8-7.9-84.5-21.5-105.8-53.2-5.3-9.2-6.4-18.7-6.4-29.1q0-1.4 0-2.8c.1-8.7 1.1-16.9 2.9-25.4.6-2.9.6-2.9-1.4-5.6-3.4-3.6-7.4-6.6-11.2-9.6-4.5-3.7-8.7-7.7-12.9-11.7-3.7-3.4-7.5-6.7-11.3-10-1.9-1.9-1.9-1.9-3-4.1-.8-2.2-.8-2.2-3.9-2.8-1.8-2-3.4-4-5-6.1q-.7-1-1.5-1.9-2.2-3-4.5-6-.7-.9-1.5-1.9c-9.6-12.8-17.7-25.9-24.6-40.3q-1.3-2.6-2.6-5.1C181 579 181 579 181 576q2-.5 4-1-3-.5-6-1c-10.1-30.4-16.6-62.9-15-95q.1-1.3.1-2.5c1.4-28.6 7.6-58.5 18.7-84.9 2.2-6.7.1-11.3-2.9-17.3-.7-1.3-.7-1.3-1.3-2.5-9.3-18.8-16.1-38.7-21.6-58.8q-.5-1.8-1-3.7c-8.4-30.1-14.7-60.2-18-91.3q-.1-1-.2-2.1c-4.6-42.3-10.1-95.4 16.4-131.9 31-37.1 90.3 4.6 118.8 25z" fill="#f8e7c1"/><path d="M273 109q2.4 1.7 4.8 3.4c8.3 5.9 16.4 12 24.2 18.6q2.7 2.2 5.4 4.4c9.4 7.7 18.7 15.6 27.7 23.9q2.2 2.1 4.6 4.1c4.4 3.8 8.5 7.8 12.5 12q1.7 1.8 3.4 3.5 2.6 2.7 5.1 5.5 2.5 2.6 5.1 5.3.8.8 1.5 1.6c2.1 2.1 3.8 3.6 6.7 3.8 2.1-.2 4-.6 6-1.1q1.3-.3 2.6-.6 1.1-.3 2.3-.6 1.3-.4 2.6-.7 1.4-.4 2.8-.8c50-13.3 50-13.3 70.7-13.3q1.2 5.7 2.4 11.3.3 1.6.6 3.1c3.5 16.7 4.3 33.1 4.2 50.1q0 4.5 0 9.1c0 17.1-.6 34.1-3 51.1q-.3 2-.6 4-.8 5.6-1.6 11.3-.2 1.5-.4 3c-5.1 36.5-17 73.7-32.6 107q-.6 1.3-1.2 2.6c-10.4 22.1-23.6 44.8-41.8 61.4q-1.2 1.2-2.5 2.5-1.2 1.2-2.5 2.5c-.7.8-.7.8-1.5 1.6-11.8 12.5-26.7 22-41.5 30.4q-1.1.6-2.2 1.3c-29.3 16.4-62.1 28.2-94.8 35.7-1.1.3-1.1.3-2.2.5-19.6 4.7-40.6 8.8-60.8 7.5-10.1-30.4-16.6-62.9-15-95q.1-1.3.1-2.5c1.4-28.6 7.6-58.5 18.7-84.9 2.2-6.7.1-11.3-2.9-17.3-.7-1.3-.7-1.3-1.3-2.5-9.3-18.8-16.1-38.7-21.6-58.8q-.5-1.8-1-3.7c-8.4-30.1-14.7-60.2-18-91.3q-.1-1-.2-2.1c-4.6-42.3-10.1-95.4 16.4-131.9 31-37.1 90.3 4.6 118.8 25zm586.8-33.3c15.8 11.6 22.7 31.3 25.8 50q.9 6 1.6 12 .1 1.1.2 2.2c3.1 25.9 1.1 51.2-1.4 77.1q-.2 1.8-.4 3.7c-1.5 15.6-4.3 30.9-7.6 46.3q-.5 2.2-.9 4.5L874 285l-.8 3.2c-7 29.3-14.9 60.8-29.6 87.3-2.8 5.1-2.8 5.1-3.7 10.8 1.6 5.5 3.5 11 5.4 16.4 5.2 15.4 9.2 30.6 12 46.7q.2 1.4.4 2.9c6.6 40.8 1.4 83-12.7 121.7-32.5 2-66.4-7.9-97-18q-1.2-.4-2.4-.8c-12.2-4-23.9-9-35.6-14.2-1.1-.5-1.1-.5-2.3-1-33.7-15-65.4-37.6-86.7-68q-.6-.9-1.2-1.8c-17.3-24.6-29.6-52-39.8-80.2q-.4-1.2-.9-2.5c-9-25-15.1-51.2-19.3-77.4q-.2-1.5-.5-2.9c-2.8-18.7-3.7-37.6-3.6-56.5q0-4.9-.1-9.7c-.1-46-.1-46 8.4-63 27.1 3.5 55 8.3 81 17 3.4.5 5.8.8 8.8-1.2 1.9-1.7 3.6-3.5 5.4-5.3q1-1 2-2.1 3.1-3.2 6.2-6.5 3.2-3.2 6.3-6.4 1.9-2 3.8-4c3.8-3.8 7.6-7.5 11.7-11 2.6-2.2 5.1-4.5 7.6-6.9 4.7-4.3 9.5-8.4 14.4-12.4a287.15 287.15 0 0 0 8.5-7C818.3 50 818.3 50 859.8 75.7z" fill="#feb900"/><path d="M264 731l3 6.2c11.1 24.5 41.8 37.7 65.7 46.8 29.4 11 60.3 16.6 91.3 21q1.7.2 3.5.5c27.4 3.8 54.7 4.8 82.3 4.8q3.2 0 6.4 0c27.7.1 55.2-1.2 82.6-5.1q1.4-.2 2.9-.4C650.6 798 714.2 787.7 750 750c1.8-2.3 3.3-4.7 4.8-7.2 1.2-1.8 1.2-1.8 3.2-3.8q-.2 1-.3 2c.3 3.1.8 4 2.5 6.5 3.1 5 5.8 10.1 8.5 15.3q.8 1.5 1.7 3.1c4.7 9.3 9.3 18.6 13.6 28.1l.8 1.8c7.6 16.8 14.7 33.8 20.5 51.3q.4 1.1.7 2.1c7.8 23.8 7.8 23.8 6 34.8-1.8 3.3-4.1 5.6-7 8q-.7.7-1.5 1.5c-34.6 32.4-90.3 46.3-135.5 56.5q-1.7.4-3.5.8c-20.6 4.6-41.6 6.9-62.5 9.2q-1.1.1-2.3.3c-27.9 3.1-55.7 4.1-83.8 4q-3.8-.1-7.5-.1c-33.6 0-66.6-1-99.9-5.7q-4.8-.7-9.5-1.2c-12.5-1.6-24.8-4-37-6.7q-4.3-.9-8.5-1.7A419.92 419.92 0 0 1 283 928c-1.2-.5-1.2-.5-2.4-.9-22.3-8.8-56.1-22.1-68.6-44.1-1.9-8.2 1.6-17.2 4-25q.3-1.1.7-2.3c11.2-36 27.1-70.7 42.4-105.2q.4-.9.8-1.9l3.1-6.6q.3-2.8.6-5.6.1-1.5.2-3.1l.2-2.3z" fill="#f8e7c1"/><path d="M757 684c7.6 11.4 6.4 33.9 3.9 46.9-5.1 18.8-19.2 29.1-35.2 38.5-43.7 24.8-94.3 32.9-143.4 38.9q-1 .1-2.1.2c-22.4 2.8-45 2.7-67.6 2.8h-2.2c-23.9 0-47.6-.5-71.4-3.3q-1.1-.1-2.3-.3c-19.7-2.3-39.3-5.3-58.7-9.7q-1.5-.3-3-.7c-34.8-7.9-84.5-21.5-105.8-53.2-5.3-9.2-6.4-18.7-6.4-29.1q0-1.4 0-2.8c.1-9.3 1.3-18.1 3.2-27.2 3.4 1.3 6.1 2.7 9 4.9 54.5 38.7 126 49.3 191 54q2.9.2 5.7.4c13.4.9 26.9.9 40.3.9q4.2 0 8.3 0c26.3.1 52.5-1 78.6-4.5q1.2-.2 2.5-.3c13.7-1.8 27.1-4.2 40.6-7.4q2.9-.6 5.7-1.3c35.4-8.2 82.8-21.2 109.3-47.7z" fill="#029cb9"/><path d="M510 472.7q3.6 0 7.2-.1c15.9 0 32.1 1.4 44.2 12.7 2.9 3.1 3.5 5.6 4 9.8-1.2 12.2-8.1 22-16.8 30.2-5.2 4.2-10.8 8-16.4 11.7-3.1 2-3.1 2-5.2 5-1.2 14.3 2 26.7 11 38 8.3 9 18.4 15.3 30.8 16.3 14.3 0 25.5-2.3 37-11.5 2.1-2.7 3.5-5.3 5.1-8.4 2.8-5.2 4.5-7.4 10.1-9.4 5.1-.8 8.8-.6 13.4 1.7 4.3 3.9 4.3 3.9 5.6 7.3.4 10.5-4.2 19.3-11 27-12.2 13.1-30.3 20.4-47.9 21.4-22.1.7-41.5-4.2-58.1-19.4-8.5-8.1-8.5-8.1-10-11-3.3 1.1-4 1.9-6.1 4.6-11.8 13.6-25.5 20.7-42.9 24.4q-1.1.3-2.3.6c-16.3 2.5-33.1.1-47.7-7.6q-1.2-.6-2.4-1.3c-13.3-7.4-23.3-17.9-27.6-32.7-.6-5.1-.1-7.9 3-12 2.5-2.9 4.5-3.9 8.3-4.2 9-.2 9-.2 12.7 3.2 2.9 3.9 5.4 8 7.9 12.2 5.5 7.5 13.1 11.9 22.1 13.8 15.9 1.2 29.5.4 42.5-9.7 9-8.3 16.1-20.1 16.7-32.6.1-6.4.1-6.4-1.2-12.7-2.4-1.8-4.9-3.4-7.4-5.1-12.4-8.3-24.8-18-29.6-32.9-.7-6.2-.7-11.8 3-17 11.6-13.1 32-12.4 48-12.3z" fill="#01384b"/><path d="M260.6 169c5.8 3.9 11.3 8.1 16.6 12.6q2.9 2.3 5.8 4.6c10.7 8.5 20.9 17.6 30.6 27.4 2 2 4.2 3.7 6.4 5.4-1.5 4.3-4.6 6-8.4 8.2-32.8 20.4-59.4 49.1-81.2 80.8-11.5 16.6-11.5 16.6-18.4 24-20.5-25.5-25.7-75.3-29-107q-.1-1.3-.3-2.7c-.8-8.9-1-17.8-1-26.8q0-1.2 0-2.4c0-31.2 0-31.2 8.3-42.1 18.3-17 54.5 7.3 70.6 18zM831 149c8.1 6.5 9.2 17.1 10.4 26.8 2 18.4 1.6 38-1.4 56.2q-.2 1.3-.4 2.6A659.98 659.98 0 0 1 836 254q-.2 1.2-.5 2.5c-4.5 22.9-10.5 45.7-19.3 67.3q-.4 1.1-.9 2.2c-2 4.9-2 4.9-4.3 6-6.1-7.9-12-15.9-17.6-24.2-11.7-17.2-25.2-32.7-39.4-47.8q-.9-1-1.9-2.1c-12.3-12.7-27.8-23.9-42.9-33.2-2.3-1.8-3-3.1-4.2-5.7q3.7-3.8 7.5-7.6 1-1 2.1-2.1c4.6-4.6 9.4-9 14.4-13.3 1.4-1.3 1.4-1.3 2.9-2.6 70.5-60.7 70.5-60.7 99.1-44.4z" fill="#f29400"/><path d="M380.7 393.2c8 6.2 11.2 14.5 14.3 23.8.9 14.2-1.2 26-10.7 37-8 7.6-17.5 10.8-28.4 10.6-9.3-.5-17.4-4.1-24.2-10.6-7.7-8.9-11.4-19.8-10.9-31.6.9-10.6 5.2-20.5 13.1-27.8 14.9-11 31.3-11.3 46.8-1.4zM689 393c7.5 5.9 11 13 14 22 1.3 12.6.4 24.1-6.9 34.8-6 7.3-13.3 11.3-22.1 14.2-12.7 1.1-22.3-.8-32.4-9.1-7.6-7.3-11.6-16.6-11.9-27-.2-11.6 2.1-20.9 9.6-30.2 13.5-13.6 33.9-15.7 49.7-4.7z" fill="#013a4e"/></svg>