<svg xmlns="http://www.w3.org/2000/svg" width="1024" height="1024" fill-rule="evenodd" xmlns:v="https://vecta.io/nano"><path d="M200.5 110.5q30.2-.2 56 15.5 36.3 23 67 53.5 31.7 30.4 59.5 64 2.7 3.7 7 5 82.9-12 166.5-7.5 39.1 2.9 78 7 42.9-51.9 94-96 22.7-18.6 49-32 13.9-6.3 29-9 39.6-1.8 55.5 34.5 17.5 48.4 15.5 100 1.1 72.8-18 143 32.2 73.2 26 153 19.9-3.2 40-3.5 10.3 6.3 5.5 17.5-2 2.3-4.5 4-22.1 6.1-44.5 11-3.8 27.4-12.5 53.5 24.1 6 48 13 8.4 10-1 19-2.9 1.2-6 1.5-24.9-4.9-50-5-68.4 149.6-225 200.5-144.3 42.7-284-13Q239.3 791.8 178 686.5q-9.1-17.1-16.5-35-25.8 1.1-51.5 6-12.2-3.5-9-16 1.7-3.2 4.5-5.5 22.8-6.7 46-11.5-7.7-26.6-12.5-54-21.8-4.9-43.5-10.5-10.7-5.9-6.5-17.5 2.3-2.8 5.5-4.5 20.6 0 41 2.5-5.3-79.7 27-152.5-19-69.4-18-141.5-1-42.7 9.5-84 7.3-28.3 30.5-45.5 7.9-4 16-6.5z" fill="#021b60"/><path d="M273.5 168.5q53 47.5 100 101 3 2.5 7 3.5 13.2 1.3 26-1.5-2.2 2.5-6 2.5-.9 1.3-1 3 5.4 37.9 12.5 75.5 1.6 13.2 12.5 20.5 7.2 3 14-1 14.2-14.7 14.5-35.5.9-23.7 1.5-47.5 0-9.9-2-19 1-.5 2-1-10.3.1-20-.5 19.9-2.4 40-3 6.5-.2 13 .5-4.1.3-8 1.5 5.3 43.1 12.5 86 3.2 10.1 10.5 17.5 12.1 6.1 21.5-3.5 5.8-9.3 8-20 5.9-40 11.5-80-6.4-1.2-13-1.5 8-.7 16-.5 3.5 0 7 0 9.7 1.8 20 2-3.3 1-7 2 1.9 37.5 4.5 75 2.6 15.4 13.5 26.5 15.2 7.3 23.5-7.5 1.1-3.7 3-7 8.2-41.3 13.5-83-24.1-1.5-44-5 2.5 0 5 0 24.2 1.6 48 5 12 .7 19-9 23.9-27.4 50-53 14-11.8 27-25.5 17.3-14.6 35-28.5 24.5-21.2 57-20.5 15.2 8.7 20 25.5-.9.4-1 1.5 10.6 31.9 10.5 65.5 1.4 39.1-2.5 78 0 3.8 1 7-1.8 17.4-6 34-5.9 19.2-10 41 4.4 17.4 11.5 34 3.9 16.2 8.5 30 1.4 3.2 2 7-1 .9-1 2.5 7.6 40 3.5 80.5-7.5 2.8-15.5 4.5.9.7 2 .5-28.7 6.5-57 15.5-8.8 8.8-2 19.5 1.3 3.2 5 3.5 4 1 8 0 28.4-7.2 57-12-3.9 9.7-3 19.5.3 1.5-1 2-3.4 10.2-8 22-19.1-1.8-38-5-2.5.8-5 1-7.7-.6-15 1.5-5.5 3.8-5 10.5-1.7 9.2 8 12.5 22.6 3.6 45 8.5-6 13-12 26-37 69.3-103 112.5-65.3 43.2-143 55.5-1.7-1-4-1-39.1 4.7-78 6-131.1-6.2-230-91-32-30.5-55-68 0-.5 0-1-10.4-19.2-20-39 22.4-4.6 45-8.5 5.5-1.4 8-6.5-.2-.9-1-1 2.7-21.5-19-16.5-22 3-44 5.5-1-1.1-2-2-6.2-22.2-10-45 29.7 5.4 59 12.5 19.1.9 13.5-17.5-2.3-2.3-4.5-4.5-12.2-3.8-24-7.5-6.1-2.9-13-4.5-16.6-3.3-33-7.5-.7-24.7-2-49 1.2-16.6 4-33 2.9-13.4 6.5-27 7.8-22.5 15.5-45-5.5-25-11-50 1-1.2 1-3-8-57.9-8-116 1.1-30.3 11-59 4.5-10.9 12-20 10.5-8.6 24-5.5 14.8 3.4 28 11 14.6 10.3 29 20.5z" fill="#feb000"/><path d="m273.5 168.5q-14.4-10.2-29-20.5-13.2-7.6-28-11-13.5-3.1-24 5.5 1-2 0-3.5 15-7.7 31-2 29.2 11.2 50 31.5z" fill="#14116f"/><path d="m764.5 157.5q-17.7 13.9-35 28.5-13 13.7-27 25.5 22.8-25.6 50-46.5 5.8-4.2 12-7.5z" fill="#f4c70c"/><path d="m180.5 162.5q-9.9 28.7-11 59-1.8 32.5 0 65-1.2-3.2-1.5-7-1-29.5 0-59 1.7-27 9-53 1.4-3.8 3.5-5z" fill="#0b0a74"/><path d="M546.5 265.5q-8-.2-16 .5 6.6.3 13 1.5-5.6 40-11.5 80-2.2 10.7-8 20-9.4 9.6-21.5 3.5-7.3-7.4-10.5-17.5-7.2-42.9-12.5-86 3.9-1.2 8-1.5-6.5-.7-13-.5 36-3.8 72 0z" fill="#fd9400"/><path d="M553.5 265.5q-3.5 0-7 0-36-3.8-72 0-20.1.6-40 3-14 1.7-28 3-12.8 2.8-26 1.5-4-1-7-3.5.1-.8 1-1 7 4.4 15.5 4 83.9-13.8 168.5-7.5-2.5.7-5 .5z" fill="#100974"/><path d="M573.5 267.5q3.8-.5 7 1 19.9 3.5 44 5-5.3 41.7-13.5 83-1.9 3.3-3 7-8.3 14.8-23.5 7.5-10.9-11.1-13.5-26.5-2.6-37.5-4.5-75 3.7-1 7-2zm-139 1q9.7.6 20 .5-1 .5-2 1 2 9.1 2 19-.6 23.8-1.5 47.5-.3 20.8-14.5 35.5-6.8 4-14 1-10.9-7.3-12.5-20.5-7.1-37.6-12.5-75.5.1-1.7 1-3 3.8 0 6-2.5 14-1.3 28-3z" fill="#fe9500"/><path d="M652.5 264.5q-7 9.7-19 9-23.8-3.4-48-5 2.5-1 5.5-1 21.7 1.3 43 5 11.2-.1 18-9 .6.3.5 1z" fill="#0c0872"/><path d="M841.5 162.5q9.9 28.1 10.5 58 1.7 47.1-2.5 94-1-3.2-1-7 3.9-38.9 2.5-78 .1-33.6-10.5-65.5.1-1.1 1-1.5z" fill="#f5ca09"/><path d="m169.5 221.5q0 58.1 8 116 0 1.8-1 3-4.3-27.1-7-54-1.8-32.5 0-65z" fill="#ddb51b"/><path d="M843.5 348.5q-3.5 20.2-9 40 .7 4 1.5 8 12.5 27.4 17.5 57-4.6-13.8-8.5-30-7.1-16.6-11.5-34 4.1-21.8 10-41z" fill="#edc110"/><path d="M374.5 484.5q4.1 40.9-36.5 47-20.4-1.7-32.5-18-13.3-28.1 9-49.5 41.1-21.9 60 20.5zm340-13q15.5 29.8-9 52.5-7.2 5.2-16 6.5-32.8 2.5-42.5-29-4.1-34 28.5-44.5 23.6-3.5 39 14.5z" fill="#021c61"/><path d="M855.5 460.5q1.7 10.2 4 20 .7 11.5 1 23 .3 20-.5 40-.7 1.8-2.5 2.5-6.6 1-13 2.5-1.1.2-2-.5 8-1.7 15.5-4.5 4.1-40.5-3.5-80.5 0-1.6 1-2.5z" fill="#f2c909"/><path d="M165.5 462.5q-2.8 16.4-4 33-2.2 25 .5 50 1.5 1.3 3.5 1 .2 1.1-.5 2-2-1-4-2-3.4-36.8 1.5-73.5-.7-3.3-.5-6.5.5 1 1 2 1.4-3.9 2-8 .7.9.5 2z" fill="#190f6f"/><path d="M714.5 471.5q11 14.2 6.5 32-6.8 20.7-27.5 27.5-2.3 1.1-4-.5 8.8-1.3 16-6.5 24.5-22.7 9-52.5z" fill="#ecc113"/><path d="M860.5 503.5q-.3-11.5-1-23 2.4 9.8 2.5 22 1 15.5 0 31-.3-15.3-1.5-30z" fill="#030572"/><path d="M161.5 495.5q1.3 24.3 2 49 16.4 4.2 33 7.5 6.9 1.6 13 4.5-22.1-4.5-44-10-2 .3-3.5-1-2.7-25-.5-50z" fill="#ebbe11"/><path d="m305.5 513.5q12.1 16.3 32.5 18 40.6-6.1 36.5-47 7.2 31.8-24 46.5-25.2 6.6-42.5-12.5-1.6-2.4-2.5-5z" fill="#efc40e"/><path d="M536.5 663.5q.5 2.8 3 4.5 30.1 21.5 64 6 5.1-2 9-5.5 7.9-3.3 13.5-10 4.6-8.1 8.5-16.5 13.5-8 21.5 5.5 1 5 0 10-20.5 39.6-64.5 48.5-49.8 8.4-81.5-30.5-5.5 5-9.5 11-35.5 28.3-80 18-.5-1.3-2-1-37.6-10.4-53.5-46-1.3-6.8 1.5-13 11.4-11.3 22.5 0 6.2 20.2 25.5 29.5 34.1 15.2 65-5 23.4-21.1 14-51-40.4-17.1-35.5-60.5 7.4-11.1 20.5-14.5 32-9 64 0 29.1 7.5 20.5 36.5-8.9 27.4-35.5 38.5-6.5 12.1-2.5 25.5 2.4 12.1 11.5 20z" fill="#031b61"/><path d="M853.5 591.5q-1.4 1.1-1 3-.9-9.8 3-19.5-28.6 4.8-57 12-4 1-8 0-3.7-.3-5-3.5 4.2 2.2 9 3 23.2-5.5 46-11 7.6-.9 15-3 .5 1 1 2-1.7 8.5-3 17z" fill="#edc011"/><path d="M853.5 591.5q1.3-8.5 3-17-.5-1-1-2-7.4 2.1-15 3 6.8-2.7 14.5-4 1.7.1 3 1-1.2 10.5-4 21-.7-.9-.5-2z" fill="#0c0d73"/><path d="M165.5 573.5q3.8 22.8 10 45-4.5-10.2-7.5-23-1.6-10.7-4.5-21 .7-1.2 2-1z" fill="#0f0b75"/><path d="M851.5 596.5q-1.9 12.4-6.5 24-22.5-2.2-44.5-6 2.5-.2 5-1 18.9 3.2 38 5 4.6-11.8 8-22z" fill="#e8bc16"/><path d="M780.5 626.5q.8 8.5 9 11.5 23.3 3.1 46 8.5-5.9 14.3-14 27 6-13 12-26-22.4-4.9-45-8.5-9.7-3.3-8-12.5z" fill="#eec30f"/><path d="M240.5 631.5q.8.1 1 1-2.5 5.1-8 6.5-22.6 3.9-45 8.5 9.6 19.8 20 39-4-3.9-6.5-9-8.5-15.1-15.5-31 22.7-5.3 46-8.5 5.2-1.9 8-6.5z" fill="#f0c30f"/><path d="m536.5 663.5q23.1 21.3 54 13.5 11.3-3.8 22-8.5-3.9 3.5-9 5.5-33.9 15.5-64-6-2.5-1.7-3-4.5z" fill="#edc311"/><path d="m366.5 644.5q-2.8 6.2-1.5 13 15.9 35.6 53.5 46-40-8.7-55.5-48-1.1-5.9 2-11 1-1.9 1.5 0z" fill="#f1c50d"/><path d="M500.5 686.5q-6.1 6.8-14 11.5-32.1 16.8-67 7 .3-.6 1-.5 44.5 10.3 80-18z" fill="#f3c60a"/><path d="M208.5 687.5q23 37.5 55 68-3.7-2.7-8-4 .2-1.6-.5-3-27.5-26-47-58-1.1-1.9.5-3z" fill="#130f71"/><path d="m575.5 841.5q-40.8 5.8-82 5 38.9-1.3 78-6 2.3 0 4 1z" fill="#f6cd05"/></svg>