<svg xmlns="http://www.w3.org/2000/svg" width="1024" height="1024" xmlns:v="https://vecta.io/nano"><path d="M203 145c11.6 9.1 19.8 19.1 22 34v12h80v-15c2.9-12.3 9.5-22.7 20-30 11.7-7 24.6-10.3 38.1-7.3q2 .6 3.9 1.3 1.2.4 2.4.8c13.4 4.9 21.7 14.4 27.7 27.1 3.6 8.4 1.9 10.7 1.9 23.1h81v-12c2.3-12.7 8.8-24 19-32 12.8-7.7 25.6-11.5 40.6-7.9 13.1 4.2 23.8 10.8 30.5 23.2 3.8 7.6 6 13.9 5.9 22.4v3q0 1.1 0 2.3 1.2 0 2.5 0 4.8-.1 9.5-.1 3.1 0 6.1-.1c23.2-.1 43.1 5.6 60 22.1 17 17.6 21.1 41.4 21 65q0 1.8 0 3.8 0 5.2 0 10.4 0 5.7 0 11.3 0 9.8 0 19.5 0 14.1 0 28.2 0 22.9 0 45.8 0 22.3 0 44.5 0 1.3 0 2.8 0 6.8 0 13.7Q675 514 675 571l3.1.2q2 .1 4.1.2a13.4 13.4 0 0 0 2 .1c5.6.4 10.6 1.4 15.9 3.1q1.2.4 2.5.8c6.6 2.2 12.7 5 18.8 8.3 2.4 1.5 2.4 1.5 4.6 1.3 1.4-2.1 2.8-4.1 4.1-6.2 8.1-13 17.4-24.9 28.6-35.3q1.2-1.2 2.3-2.5c-.5-4.4-3.2-8-5.4-11.8-9.6-17.1-17.8-34.8-24.6-53.2q-.4-1.1-.9-2.3c-9.7-26.6-16.3-55-22.1-82.7q-.3-1.4-.6-2.9c-2.9-13.6-3.8-26.9-3.8-40.7q0-1.1-.1-2.2c0-14.4.3-33.5 10-45 1.5-1.2 1.5-1.2 3.9-1.7 3.8.7 5.1 2.6 7.6 5.5 1.4 2.4 2.7 4.8 3.8 7.3q.5 1 1.1 2.1 1.6 3.3 3.1 6.6.5 1 1 2 3.3 7.2 6.6 14.4 1 2.3 2 4.6 2.7 5.8 5.4 11.7 2.5 5.5 5 11.1 2.8 6.3 5.7 12.5 7.4 16.4 14.9 32.7 2.2 4.8 4.4 9.6c6.6 14.4 13.6 28.5 21.2 42.4q.5.9 1 1.8 1.3 2.4 2.6 4.8c1.2 2.4 1.2 2.4 1.2 4.4q1 0 2 0 .4-1.3.8-2.6c1.1-3.2 2.4-6.1 3.8-9.1q.8-1.6 1.6-3.4l.8-1.8 18.4-39.8q2.4-5.4 4.9-10.8.6-1.3 1.2-2.7 5.8-12.9 11.7-25.7.5-1.1 1-2.2 4.9-10.9 9.9-21.7 2.1-4.6 4.2-9.2 1.1-2.2 2.1-4.5a770.05 770.05 0 0 0 13.5-30.7c2.5-5.8 4.7-10.2 10.1-13.8 3.9.1 6.2.3 9.2 2.9 15 25.4 10 60.4 4.6 88q-.2 1.2-.5 2.4c-2.6 13.7-5.6 27.2-9.3 40.7q-.4 1.3-.7 2.7c-3.5 13-7.7 25.7-12.5 38.3q-.9 2.2-1.7 4.3c-16 41.8-16 41.8-25.5 59.8q-.8 1.5-1.5 3-.7 1.3-1.4 2.5c-.9 3.2-.2 4.5 1.3 7.4q2 3.4 4.1 6.8c5 8.2 9.5 16.6 13.9 25.2q.9 1.7 1.8 3.4c1.2 2.6 1.2 2.6 1.2 4.6q1.5-.5 3-1c22.8-2.9 45.3-.2 64 14 3.5 2.9 6.7 5.9 10 9q1.3 1.2 2.6 2.4c10.2 11.3 16.6 23.9 20.4 38.6q.3 1.3.7 2.6c2.2 10.1 2.6 21.9.4 32-.9 4.3-1.5 8-1.1 12.4 2.5 3.7 5.3 6.2 8.6 9 14.5 12.3 23.2 35.9 24.8 54.3 1.9 25.4-4.4 50.3-21.1 70-2.7 3-5.5 5.9-8.3 8.7q-1.1 1.1-2.2 2.2c-18.6 17.8-43.7 23.5-68.5 23.1-19.7-.7-40.3-9.5-54.9-22.6q-1.2-1.3-2.4-2.7-1-1.1-2.1-2.1c-16.7-17.9-25.3-40.1-25.2-64.6q0-1.5 0-3.2c.1-9.6 1.1-19 4.4-28.2 1-2.7 1.8-5 1.9-7.9-1.3-2.6-2.9-4.5-4.9-6.6-15-16.8-19.5-42.2-18.3-64 .9-10.6 4.5-20.5 8.2-30.4 2.3-6.6 2.5-12.4 0-19-2.7-5-6.5-8.9-10.4-13-1.6-2-1.6-2-1.6-4-22.7 21.7-33.1 49.9-41.1 79.4-5.5 20.3-12.3 40.9-26.9 56.6q-1.2 1.4-2.5 2.8C720 745 707.2 751.6 693 757c-1.4.5-1.4.5-2.8 1.1-19.8 6.2-43.5 2-61.9-6.4-5.4-2.8-10.4-6.2-15.3-9.7-3.8-2.5-6.9-2.3-11.3-2.3q-1.3 0-2.6 0-4.4 0-8.7 0-3.2 0-6.3 0-8.7 0-17.4 0-9.4 0-18.7 0-16.2 0-32.4 0-23.5 0-47 0-10.9-.1-21.9-.1-1 0-2.2 0-26 0-52.1 0-1.2 0-2.3 0-26.6 0-53.2 0-9.2-.1-18.5-.1-1.1 0-2.3 0-25.9 0-51.9 0-1.1 0-2.2 0-11 0-21.9 0-5.4 0-10.7 0-1.1 0-2.2 0-17-.1-34-.1-17.1 0-34.2 0-9.2 0-18.5 0-8.5 0-16.9 0-3.1 0-6.2 0c-24.7.1-45.5-3.8-64.2-21-18.1-18.8-22.7-42.6-22.6-67.7q0-2.6 0-5.1 0-6.8 0-13.7 0-7.4 0-14.8 0-14.5 0-28.9 0-16.9 0-33.8 0-30.1.1-60.3 0-29.2 0-58.4 0-31.8 0-63.7 0-3.4 0-6.8 0-1.6 0-3.3 0-11.8 0-23.5 0-14.4 0-28.7 0-7.3 0-14.6 0-6.7 0-13.4 0-2.4 0-4.8c0-25.9 4.6-47.8 23.3-66.9q1-1 2-2.1c16.2-15.8 37.6-18.1 59.1-18q2.1 0 4.1.1 4.9 0 9.8 0c.1-1.6.1-1.6.3-3.3 1.4-16 5.9-28.2 18.3-38.9 15.9-12.2 38.5-13.5 55.4-2.8z" fill="#fefde7"/><path d="M203 145c11.6 9.1 19.8 19.1 22 34v12h80v-15c2.9-12.3 9.5-22.7 20-30 11.7-7 24.6-10.3 38.1-7.3q2 .6 3.9 1.3 1.2.4 2.4.8c13.4 4.9 21.7 14.4 27.7 27.1 3.6 8.4 1.9 10.7 1.9 23.1h81v-12c2.3-12.7 8.8-24 19-32 12.8-7.7 25.6-11.5 40.6-7.9 13.1 4.2 23.8 10.8 30.5 23.2 3.8 7.6 6 13.9 5.9 22.4v3q0 1.1 0 2.3 1.2 0 2.5 0 4.8-.1 9.5-.1 3.1 0 6.1-.1c23.2-.1 43.1 5.6 60 22.1 17 17.6 21.1 41.4 21 65q0 1.8 0 3.8 0 5.2 0 10.4 0 5.7 0 11.3 0 9.8 0 19.5 0 14.1 0 28.2 0 22.9 0 45.8 0 22.3 0 44.5 0 1.3 0 2.8 0 6.8 0 13.7Q675 514 675 571l3.1.2q2 .1 4.1.2a13.4 13.4 0 0 0 2 .1c5.6.4 10.6 1.4 15.9 3.1q1.2.4 2.5.8c6.6 2.2 12.7 5 18.8 8.3 2.4 1.5 2.4 1.5 4.6 1.3 1.4-2.1 2.8-4.1 4.1-6.2 8.1-13 17.4-24.9 28.6-35.3q1.2-1.2 2.3-2.5c-.5-4.4-3.2-8-5.4-11.8-9.6-17.1-17.8-34.8-24.6-53.2q-.4-1.1-.9-2.3c-9.7-26.6-16.3-55-22.1-82.7q-.3-1.4-.6-2.9c-2.9-13.6-3.8-26.9-3.8-40.7q0-1.1-.1-2.2c0-14.4.3-33.5 10-45 1.5-1.2 1.5-1.2 3.9-1.7 3.8.7 5.1 2.6 7.6 5.5 1.4 2.4 2.7 4.8 3.8 7.3q.5 1 1.1 2.1 1.6 3.3 3.1 6.6.5 1 1 2 3.3 7.2 6.6 14.4 1 2.3 2 4.6 2.7 5.8 5.4 11.7 2.5 5.5 5 11.1 2.8 6.3 5.7 12.5 7.4 16.4 14.9 32.7 2.2 4.8 4.4 9.6c6.6 14.4 13.6 28.5 21.2 42.4q.5.9 1 1.8 1.3 2.4 2.6 4.8c1.2 2.4 1.2 2.4 1.2 4.4q1 0 2 0 .4-1.3.8-2.6c1.1-3.2 2.4-6.1 3.8-9.1q.8-1.6 1.6-3.4l.8-1.8 18.4-39.8q2.4-5.4 4.9-10.8.6-1.3 1.2-2.7 5.8-12.9 11.7-25.7.5-1.1 1-2.2 4.9-10.9 9.9-21.7 2.1-4.6 4.2-9.2 1.1-2.2 2.1-4.5a770.05 770.05 0 0 0 13.5-30.7c2.5-5.8 4.7-10.2 10.1-13.8 3.9.1 6.2.3 9.2 2.9 15 25.4 10 60.4 4.6 88q-.2 1.2-.5 2.4c-2.6 13.7-5.6 27.2-9.3 40.7q-.4 1.3-.7 2.7c-3.5 13-7.7 25.7-12.5 38.3q-.9 2.2-1.7 4.3c-16 41.8-16 41.8-25.5 59.8q-.8 1.5-1.5 3-.7 1.3-1.4 2.5c-.9 3.2-.2 4.5 1.3 7.4q2 3.4 4.1 6.8c5 8.2 9.5 16.6 13.9 25.2q.9 1.7 1.8 3.4c1.2 2.6 1.2 2.6 1.2 4.6q1.5-.5 3-1c22.8-2.9 45.3-.2 64 14 3.5 2.9 6.7 5.9 10 9q1.3 1.2 2.6 2.4c10.2 11.3 16.6 23.9 20.4 38.6q.3 1.3.7 2.6c2.2 10.1 2.6 21.9.4 32-.9 4.3-1.5 8-1.1 12.4 2.5 3.7 5.3 6.2 8.6 9 14.5 12.3 23.2 35.9 24.8 54.3 1.9 25.4-4.4 50.3-21.1 70-2.7 3-5.5 5.9-8.3 8.7q-1.1 1.1-2.2 2.2c-18.6 17.8-43.7 23.5-68.5 23.1-19.7-.7-40.3-9.5-54.9-22.6q-1.2-1.3-2.4-2.7-1-1.1-2.1-2.1c-16.7-17.9-25.3-40.1-25.2-64.6q0-1.5 0-3.2c.1-9.6 1.1-19 4.4-28.2 1-2.7 1.8-5 1.9-7.9-1.3-2.6-2.9-4.5-4.9-6.6-15-16.8-19.5-42.2-18.3-64 .9-10.6 4.5-20.5 8.2-30.4 2.3-6.6 2.5-12.4 0-19-2.7-5-6.5-8.9-10.4-13-1.6-2-1.6-2-1.6-4-22.7 21.7-33.1 49.9-41.1 79.4-5.5 20.3-12.3 40.9-26.9 56.6q-1.2 1.4-2.5 2.8C720 745 707.2 751.6 693 757c-1.4.5-1.4.5-2.8 1.1-19.8 6.2-43.5 2-61.9-6.4-5.4-2.8-10.4-6.2-15.3-9.7-3.8-2.5-6.9-2.3-11.3-2.3q-1.3 0-2.6 0-4.4 0-8.7 0-3.2 0-6.3 0-8.7 0-17.4 0-9.4 0-18.7 0-16.2 0-32.4 0-23.5 0-47 0-10.9-.1-21.9-.1-1 0-2.2 0-26 0-52.1 0-1.2 0-2.3 0-26.6 0-53.2 0-9.2-.1-18.5-.1-1.1 0-2.3 0-25.9 0-51.9 0-1.1 0-2.2 0-11 0-21.9 0-5.4 0-10.7 0-1.1 0-2.2 0-17-.1-34-.1-17.1 0-34.2 0-9.2 0-18.5 0-8.5 0-16.9 0-3.1 0-6.2 0c-24.7.1-45.5-3.8-64.2-21-18.1-18.8-22.7-42.6-22.6-67.7q0-2.6 0-5.1 0-6.8 0-13.7 0-7.4 0-14.8 0-14.5 0-28.9 0-16.9 0-33.8 0-30.1.1-60.3 0-29.2 0-58.4 0-31.8 0-63.7 0-3.4 0-6.8 0-1.6 0-3.3 0-11.8 0-23.5 0-14.4 0-28.7 0-7.3 0-14.6 0-6.7 0-13.4 0-2.4 0-4.8c0-25.9 4.6-47.8 23.3-66.9q1-1 2-2.1c16.2-15.8 37.6-18.1 59.1-18q2.1 0 4.1.1 4.9 0 9.8 0c.1-1.6.1-1.6.3-3.3 1.4-16 5.9-28.2 18.3-38.9 15.9-12.2 38.5-13.5 55.4-2.8zM51 322l-.2 175.1-.2 55.3v32.7q0 11 0 21.9-.1 12.6-.1 25.2.1 6.5 0 12.9 0 5.9 0 11.7 0 2.1 0 4.2c-.1 16.8 4.2 30.5 15.8 42.8 12.3 11.6 26.1 15.4 42.5 15.3h2.5q4.3 0 8.5 0 3 0 6.1 0 8.4 0 16.7 0 9.1 0 18.1 0 15.7 0 31.4 0 16.4 0 32.8 0 1 0 2.1 0 5.2 0 10.4 0 36.7 0 73.5 0 35.7 0 71.4 0 1.1 0 2.2 0 11.1 0 22.1 0 22.5-.1 45.1-.1h2.1q69.1 0 138.2 0c-1.6-4-3.4-7.7-5.4-11.4-11.2-21.8-11.6-48.6-4.3-71.7 4.4-13.2 11.6-24.5 20.7-34.9q1-1.1 2-2.3c12.3-13.1 28.9-20.8 46.1-24.9 2.8-.5 2.8-.5 3.9-1.8V322H51z" fill="#01195a"/><path d="M351.6 362.6q4.8 0 9.5-.1c12.2 0 23.2.9 34.9 4.5q1.5.4 3 .9 3.8 1.2 7.4 2.7 1.3.5 2.7 1c13.1 5.3 25.3 13 35.9 22.4q1.2 1 2.4 2.1 3.9 3.4 7.6 6.9 1.3 1.2 2.7 2.5c7.2 6.9 12.9 14.2 18.3 22.5.6.9.6.9 1.2 1.7 22.2 33.8 28.4 73.2 20.4 112.4-1.6 7.2-3.9 14.1-6.6 20.9q-.4 1.1-.9 2.3c-7 17.3-16.4 32-29.1 45.7q-.7.8-1.5 1.7c-22.7 24.7-56.3 42.9-90.3 44.5q-2 0-4 0-1.1.1-2.2.1c-44 .4-79.1-12.6-112-42.3q-1.1-1-2.3-2.1c-19.3-18.4-32.2-43.2-38.7-68.9q-.5-1.9-1.1-3.8c-9-36.8 1.4-77.3 20.1-109.2 2.5-3.9 5.1-7.4 8-11q1.2-1.5 2.5-3.1c19.9-24.6 47-42.3 77.5-50.9q1.4-.4 2.9-.8c10.5-2.7 20.9-2.7 31.7-2.6z" fill="#fec213"/><path d="M100.8 210.9h2.5q4 0 8 0 2.7 0 5.4.1 6.7 0 13.3 0 0 .9 0 1.8c.5 16.5 1.7 31.2 14.2 43.4 1.8 1.8 1.8 1.8 1.8 3.8q1.1.4 2.2.8c3.8 1.6 7.3 3.7 10.9 5.8 10 4.9 22.7 5.1 33.3 1.8 12.3-4.8 21.8-12 27.5-24.1 4.9-11.4 4.5-20.1 5.1-33.3h80l1 22c2.9 12.2 9.5 22.8 20 30 12.5 7.1 25.8 9.7 40.1 6.1 7.3-2.4 13.3-5.8 18.9-11.1.8-.8.8-.8 1.7-1.6 12-12.7 12.5-28.5 13.3-45.4h80l1 19c2.9 14.3 10.1 25.5 22.2 33.9 11.6 6.8 23.9 8.8 36.9 5.9 12.4-3.5 22.3-10.9 28.9-22 3.3-5.8 5.2-11.1 5.4-17.9q.1-1.6.1-3.3.1-1.7.1-3.5.1-1.7.1-3.5.2-4.3.3-8.6 7.8-.1 15.5-.2 2.7 0 5.3-.1c16.3-.3 28.3 1.4 41.2 12.3q1 .8 2 1.7c9.6 8.9 12.6 18.5 16 31.3v46H51c0-61.3 0-61.3 15.5-77.7 10.1-9.3 20.8-13.5 34.3-13.4z" fill="#fefde7"/><path d="M771 558c3.7 1.3 5.2 3.3 7.2 6.6l1.8 2.7q.8 1.4 1.7 2.8.9 1.4 1.9 2.9 2.2 3.5 4.4 7-5.3 7.1-10.8 14c-19.9 25.7-29.7 54.7-38.2 85.8-6.1 21.1-16.5 40.8-35.8 52.6-18.2 9.3-39.1 12.2-58.9 5.9-20.6-8.2-35.6-22.8-44.6-43.1-7.7-21-5.9-43 3.3-63.2 9.7-20 26.2-32.7 46.7-40.4 21.5-6.6 42.8-1.7 62.3 8.4q3.2 1.9 6.4 3.9c4.4 2.7 7.6 3.9 12.7 3.7 5.5-1.8 7.9-7.8 10.5-12.5 18.2-31.5 18.2-31.5 29.4-37.1z" fill="#0048a6"/><path d="M959.9 709.4c14.6 12.1 25.7 31.5 27.9 50.4 1.9 20.8-2.9 40.2-15.9 56.9-11.8 13.6-27.9 24.4-45.9 27.3l-2.1.4c-19 3-38.3-2.3-53.9-13.4-15.7-12.7-26.1-27.7-29-48-.7-13-1.3-26.6 3-39q.5-1.6 1-3.3c6.5-18.7 20.4-30.8 37.4-40 24.3-11.8 56.1-7.4 77.5 8.7z" fill="#0047a5"/><path d="M351.6 362.6q4.8 0 9.5-.1c12.2 0 23.2.9 34.9 4.5q1.5.4 3 .9 3.8 1.2 7.4 2.7 1.3.5 2.7 1c13.1 5.3 25.3 13 35.9 22.4q1.2 1 2.4 2.1 3.9 3.4 7.6 6.9 1.3 1.2 2.7 2.5c7.2 6.9 12.9 14.2 18.3 22.5.6.9.6.9 1.2 1.7 22.2 33.8 28.4 73.2 20.4 112.4-1.6 7.2-3.9 14.1-6.6 20.9q-.4 1.1-.9 2.3c-7 17.3-16.4 32-29.1 45.7q-.7.8-1.5 1.7c-22.7 24.7-56.3 42.9-90.3 44.5q-2 0-4 0-1.1.1-2.2.1c-44 .4-79.1-12.6-112-42.3q-1.1-1-2.3-2.1c-19.3-18.4-32.2-43.2-38.7-68.9q-.5-1.9-1.1-3.8c-9-36.8 1.4-77.3 20.1-109.2 2.5-3.9 5.1-7.4 8-11q1.2-1.5 2.5-3.1c19.9-24.6 47-42.3 77.5-50.9q1.4-.4 2.9-.8c10.5-2.7 20.9-2.7 31.7-2.6zM319 386q-2.1.6-4.2 1.3c-15.9 5.1-30 12.9-42.8 23.7q-1.5 1.3-3 2.6c-8.1 6.9-14.6 14.9-21 23.4q-.9 1.1-1.8 2.3c-18.4 25.3-23.6 61.3-19 91.5 2.5 14.9 7.6 28 14.8 41.2q.8 1.4 1.5 2.8c17 29.8 47.7 50.2 80 59.4 19.7 5 39.8 5.5 59.5.8q1.1-.2 2.1-.5c11.1-2.7 21-7 30.9-12.5q1.4-.8 2.9-1.6c8.5-5.1 15.8-11.8 23.1-18.4q1.2-1 2.3-2.1c19.1-17.9 30.6-43.7 35.7-68.9q.3-1.5.6-3c5.8-32-4.1-64.5-21.9-91.1-20.5-28.2-48.8-47.5-83.3-54-7.5-1.2-15-1.3-22.6-1.3h-2.2c-11.1.1-21.1.8-31.6 4.4z" fill="#02185b"/><path d="M722 340c1.7 2.6 2.8 4.8 4 7.7q.6 1.4 1.2 2.9l1.4 3.3c6.4 15.4 13.4 30.5 20.4 45.7q4.9 10.5 9.6 21.1c2.9 6.4 6.1 12.8 9.3 19.1q3 6 5.9 11.9c7.6 15.5 15.6 30.7 24.5 45.5q2.6 4.2 5 8.5c8.3 14.2 17.1 27.9 26.7 41.2 11.6 16.1 21.6 33.1 29.8 51.1l1.6 3.2q.6 1.4 1.2 2.8c1.3 2.2 1.3 2.2 3.7 2.9 3.3.1 5.3-.7 8.3-1.8 12-3.9 25.7-3.6 37.4.9q1.4.5 2.9 1c15.5 5.9 27.9 17.1 35.1 32 4.9 11.8 6.2 21.9 6.1 34.5q0 1.7-.1 3.4 0 4 0 8.1c-4.3-.8-8.2-2.1-12.3-3.6q-1-.3-2-.7-2.3-.8-4.7-1.7c-.1-2-.1-2-.3-4-1.1-15.2-4.2-29.5-16.1-40.3-3.5-2.9-7.4-5-11.6-6.7q-1.2-.5-2.5-1.1c-5.2-1.3-10.3-1.3-15.7-1.3q-1.6 0-3.2 0c-12.2-.1-22.6 3.9-31.5 12.2-9.2 9.8-12.5 21-12.4 34.2.4 7.8 1.8 15.7 5.6 22.6 1.7 3.4 1.7 3.4 1.6 5.3-1.2 2.9-3.1 4.8-5.3 7.2-1.2 1.2-1.2 1.2-2.4 2.6q-2.5 2.7-5.2 5.3c-11.8-16.5-16.9-35.1-14.3-55.3 1.3-8.1 3.9-16 7.1-23.6 2.2-5.2 2.7-9.6 2.6-15.2q0-1.1 0-2.3c0-8.1-3.4-14-8.1-20.4q-.7-.9-1.3-1.9c-4.3-5.8-8.9-11.5-13.5-17.1-15.5-18.9-27.7-38.9-39.5-60.2q-.7-1.3-1.5-2.7c-21.7-39.5-33-82.6-42.5-126.3q-.3-1.5-.7-3.1-.8-3.9-1.7-7.8l-.4-2.1c-1.9-8.9-2.3-17.5-2.3-26.6q0-1.5.1-3 0-3.7 0-7.4z" fill="#0048a6"/><path fill-rule="evenodd" d="M700.2 618.1c11.5 8 19.4 20.4 22.3 34.1.3 2.3.4 4.5.5 6.8q.1 1.4.2 2.9c.7 14.8-4.8 29-14.4 40.2-7.1 7.6-14.9 12.7-24.8 15.9-1.6.5-1.6.5-3.2 1.1-14.2 3.4-29.2 1.1-41.6-6.4-12.7-8.6-20-20.2-23.8-35-2.4-15.6.2-31.3 8.6-44.7 18.2-24.4 50.1-31.2 76.2-14.9zM652 632c-9.8 6.9-16 16.4-19 28-1.3 10 1.7 19.9 7.5 28.1 5.7 7.1 13.1 12.1 22.2 13.6q1.2.2 2.3.3c9 1.1 16.5-1.5 24.1-6.3 8.3-6.5 14.1-16.4 15.9-26.7.3-11.9-1.8-21.9-9.7-30.9-7.1-7-15.4-9.2-25.2-9.5h-2.4c-6-.1-10.3.6-15.7 3.4z" fill="#00185b"/><path d="M544 163c6.4 3.9 9.6 9.8 11.6 16.9.8 4.2.7 8.4.7 12.7q0 1.5.1 3 0 3.2 0 6.4 0 4.8 0 9.7.1 3.1.1 6.2 0 1.4 0 2.9c-.1 8.5-1.9 16.7-7.7 23.1-7.1 6.3-14 7.8-23.4 7.6-7.5-1-13.6-4.6-18.4-10.5-5.7-7.9-7.3-14.8-7.3-24.4v-2.7q0-2.8 0-5.6.1-4.2 0-8.5 0-2.7 0-5.4 0-1.2 0-2.5c.1-8.5 2-17.1 7.7-23.6q1.3-1.1 2.6-2.3 1.2-1 2.4-2.1c10.1-7.2 20.7-6.2 31.6-.9z" fill="#0048a6"/><path d="M194 164c5.3 4.2 9.6 10.4 11 17q.2 2.4.2 4.8 0 1.4 0 2.9 0 1.5 0 3.1.1 1.5.1 3.2 0 3.3 0 6.7 0 3.4.1 6.8 0 5 0 9.9.1 1.5.1 3.1c0 8.5-1.9 15.9-7.7 22.4-6.5 5.8-13.1 7.8-21.8 7.5-8.1-1-13.8-4.2-19.3-10.2-6.1-7.9-6.9-16.6-6.9-26.4q0-1.1 0-2.3 0-2.4 0-4.8 0-3.6 0-7.3c-.1-23.5-.1-23.5 8.2-33.4 11-10.4 23.3-9.6 36-3z" fill="#0048a5"/><path d="M426 446c3.8 2.6 4.8 4.2 5.8 8.7-.4 6-4.9 10-8.8 14.3q-1.3 1.4-2.7 2.9-2.1 2.3-4.2 4.6c-3 3.2-5.8 6.5-8.6 10-4.1 5.1-8.5 9.9-12.9 14.7q-4 4.4-7.9 8.8c-2 2.4-4.1 4.7-6.3 7-3.2 3.6-6.2 7.2-8.9 11.1-2 2.5-4.2 4.7-6.5 6.9-5 5.4-9.9 10.8-14.6 16.6q-1.1 1.3-2.2 2.7-2.3 2.8-4.5 5.6c-6.3 7.7-6.3 7.7-10.8 8.2-7.9-1.2-13-9.3-17.6-15.2-2.8-3.5-5.8-6.7-8.8-9.9-4.4-4.7-8.6-9.5-12.5-14.6-2.3-2.8-4.7-5.4-7.1-8-12.2-13.3-12.2-13.3-11.9-19.4 1.3-3.3 2.7-6.4 6-8 4.7-.5 6.9-.7 10.9 1.8 3.6 3.4 6.5 7.3 9.6 11.2 2.6 3.1 5.3 6.2 8.1 9.2q.7.7 1.4 1.5.7.8 1.4 1.5 4.9 5.3 9.6 10.8.8.9 1.5 1.7c3.5 4.1 3.5 4.1 3.5 6.3q1 0 2 0l2 3c3.9-1.6 6.1-4 8.8-7.1q.7-.8 1.3-1.5 2-2.2 3.9-4.4c.9-1.1.9-1.1 1.9-2.2q1.7-1.9 3.3-3.8c4.3-4.9 8.7-9.7 13.1-14.5 3.7-4.1 7.4-8.3 10.9-12.7 4.9-6.1 10.2-11.7 15.6-17.4 4-4.2 7.8-8.6 11.6-13q1.5-1.9 3.1-3.7 1.6-1.8 3.2-3.7c10.1-11.9 10.1-11.9 18.3-10z" fill="#02175d"/><path d="M366 162c7.5 5.1 11.4 10.4 14 19 .5 3.6.6 7.2.5 10.9q0 1.5 0 3.1 0 3.1 0 6.3 0 4.8 0 9.6 0 3.1 0 6.2 0 1.4.1 2.9c-.2 7.6-2 14.3-6.4 20.6-6.9 6.6-12.6 9.6-22.2 10-8.1-.3-12.8-2.8-18.8-8-7.1-8.4-8.5-15.4-8.5-26q0-1.5-.1-3 0-3.1 0-6.2 0-4.8 0-9.5-.1-3.1-.1-6.1 0-1.4 0-2.8c.1-8.2 2.1-16.4 8.1-22.4 9.3-8.6 22-10 33.4-4.6z" fill="#0048a5"/><path d="M889 334q.5 0 1 0c1 47.6-13.8 97.1-31.2 141.1q-1.2 3-2.4 6c-5.9 14.9-11.7 29.8-19.4 43.9-4.9-4.3-7.9-9.4-11.1-15q-.8-1.3-1.6-2.7-1.5-2.6-3-5.1c-1.3-2.3-1.3-2.3-3.2-4.9-1.6-3.4-.8-5.7-.1-9.3 1.3-3.1 1.3-3.1 2.9-6.3q.4-.9.8-1.8 1-1.9 1.9-3.8 2.6-5.2 5.2-10.4.5-1.1 1-2.2c3.7-7.5 7.2-15.1 10.6-22.7q.5-1.1 1-2.1 1.8-4.2 3.7-8.3 5-10.9 9.9-21.8 8.3-17.9 16.4-35.8.4-1 .8-2 6.6-14.5 12.9-29.1c.5-1.3.5-1.3 1.1-2.7.5-1.1.5-1.1 1-2.3.8-1.7.8-1.7 1.8-2.7z" fill="#0048a6"/><path d="M918 720c3 1.8 5.4 3.9 7 7q.1 3.7.1 7.4 0 1.1 0 2.2 0 3.5 0 7 0 2.4-.1 4.8 0 5.8 0 11.6 1.4 0 2.8 0 5.1-.1 10.2-.2 2.2 0 4.4 0 3.2-.1 6.3-.1h3.9c3.6.3 5.5 1.1 8.4 3.3 2.3 3 2.4 6.3 2.3 10-.5 3.2-2 4.8-4.3 7-3.6 2.4-6.7 2.2-11 2.2q-.9 0-2 0-3.1 0-6.3-.1-2.1 0-4.2 0-5.3 0-10.5-.1 0 1.3 0 2.6.1 4.7.2 9.5 0 2 0 4.1.1 2.9.1 5.9 0 1.7 0 3.6c-.3 3.7-1.3 6.1-3.3 9.3-4 2.7-7.3 2.7-12 2-3.5-2.1-4.7-3.1-6-7q-.1-3.4-.1-6.9 0-.9 0-2 0-3.1 0-6.3 0-2.1.1-4.3 0-5.2 0-10.5c-1.4 0-1.4 0-2.8.1q-5 .1-10.1.1-2.2 0-4.4.1-3.2.1-6.3.1-1.9 0-3.9.1c-4.2-.6-6.3-1.9-9.5-4.5-2.5-3.7-2.6-6.7-2-11 1.6-3.6 2.7-4.8 6-7 2.5-.2 5-.2 7.5-.2q1.1 0 2.2 0 3.5 0 7 .1 2.4 0 4.7 0 5.8 0 11.6.1 0-1.4 0-2.8-.1-5-.2-10.1 0-2.2 0-4.4-.1-3.2-.1-6.3 0-1.9 0-3.9c.4-4.6 1.9-8 5-11.4 3.4-1.6 5.6-1.6 9.3-1.1z" fill="#f8fbfb"/><path d="M905.2 645.8c7.5 5.1 12 13.4 13.8 22.2.1 2.7.1 5.3 0 8q-.8.1-1.7.1c-15.8 1.2-30.2 3.3-44.8 9.8-2.2 1-4.2 1.6-6.5 2.1-4.4-8.3-6.8-16.3-4.3-25.7 3-7.8 6.9-13.1 14.3-17.3 8.8-3.5 20.8-3.8 29.2.8z" fill="#0048a6"/><path d="M589 715q1.5 1 3 2 0 1 0 2-70.2 0-140.5 0h-2.1q-22.5 0-45.1.1-11.1 0-22.2 0-1.1 0-2.2 0-35.7 0-71.5 0-36.7 0-73.4 0-5.2 0-10.4 0h-2q-16.5 0-32.9 0-16.5 0-33 0-9 0-17.9 0-8.2 0-16.4 0-3 0-5.9 0-4.1 0-8.1 0-1.1 0-2.3 0c-4.2 0-8-.3-12.1-1.1q0-.5 0-1h495q0-1 0-2z" fill="#e4e7e3"/><path d="M810.8 533.2c2.7 2.2 3.4 3.4 4.2 6.8-.1 4.2-.6 6.4-3 9.9-3.5 2.5-5.6 2.8-9.8 2.6-3.5-.8-5.1-2.8-7.2-5.5-1.4-2.8-1.2-4.9-1-8 1.3-2.8 2.3-4.5 4.8-6.3 4.2-1.3 7.9-1.3 12 .5z" fill="#01195a"/><path d="M375.5 360.8l2.6.5q1.3.3 2.6.6 1.4.3 2.7.6 3.3.8 6.6 1.5-.5 1-1 2-.9-.2-1.8-.4c-6.7-1.5-13.1-1.9-19.9-2-1.6 0-1.6 0-3.2-.1q-5.1-.1-10.2-.1-3.5-.1-7-.1-8.4-.2-16.9-.3c3.9-2.1 7.1-2.2 11.5-2.2q1 0 2.1.1 3.5 0 6.9 0 3.4.1 6.9.1 2.1 0 4.2.1c2.6 0 5 0 7.6-.7 2.3-.5 4-.1 6.3.4z" fill="#fbfdf8"/><path d="M717.3 298.6c3.9.6 5.2 2.3 7.7 5.4 1.6 2.3 2.8 4.5 4 7q-.5 1-1 2-.5-1.1-1.1-2.2c-2.5-5.2-2.5-5.2-6.9-8.7-2.1-.3-2.1-.3-5-.1l-4 7q-.5-1.5-1-3c4.1-6.9 4.1-6.9 7.3-7.4z" fill="#0a1147"/><path d="M457 614c0 3 0 3-1.7 5l-2.2 2.2q-1 1.1-2.2 2.2C449 625 449 625 447 625q-1 2-2 4-2-.5-4-1 1-.8 2-1.5c5-4 9.6-7.9 14-12.5z" fill="#f8f9f3"/><path d="m390 508c-2.5 6.1-8 10-13 14 1.6-3.7 3.8-6.3 6.5-9.3q1.2-1.3 2.4-2.7c2.1-2 2.1-2 4.1-2z" fill="#f8d60b"/><path d="M267 415q.5 1 1 2-1.6 1.9-3.3 3.9-.9 1-1.8 2.2c-1.9 1.9-3.4 2.9-5.9 3.9 2.9-4.7 6-8.2 10-12z" fill="#eac70e"/><path d="M254 401q2 .5 4 1l-8 7q-1-1-2-2 1.4-1.6 2.8-3.1l1.5-1.7q.8-.6 1.7-1.2z" fill="#19295e"/><path d="M489 565c1.3 4.2.3 6.9-1 11q-1 0-2 0-.5 2-1 4-1 0-2 0c1.6-5.2 3.7-10.1 6-15z" fill="#eef1ed"/><path d="M428 450q1.5.5 3 1v8q-1 0-2 0l-1-9z" fill="#060e61"/><path d="M839 398q1.5 0 3 0-.5 2-1 4-1 0-2 0l-2 6c-1.4-4.2.2-6.1 2-10z" fill="#0c184e"/><path d="M323 387q-.5 1-1 2l-6 .8c-2.2.2-2.2.2-5 1.2q0-1 0-2 1.9-.8 3.8-1.6 1-.4 2.1-.8c2.4-.7 3.7-.4 6.1.4z" fill="#f8d60b"/></svg>