<svg xmlns="http://www.w3.org/2000/svg" width="1024" height="1024" xmlns:v="https://vecta.io/nano"><path fill-rule="evenodd" d="M251.2 90.6c12.2 11.2 16.7 24.1 17.8 40.4v9h108v-12c1-12.7 4.2-25.6 14.1-34.4q1-.8 1.9-1.6c6.9-6.5 14.7-10.3 24-12 13.5-1.4 26.7.7 37.6 9.3 12.7 10.8 17.7 23.4 19.4 39.7v11h107c-1.4-17.1.5-31.2 11.7-44.8 8.7-9.1 19.9-14.8 32.6-15.5 14.5-.5 25.6 2.8 36.4 12.9 12.6 13.1 15.5 27.1 15.3 44.8q0 1.3 0 2.6 7.8-.1 15.7-.1 3.2 0 6.4 0c21.5-.2 37.8 1 57 11.1 19.2 10.4 31.9 28 38 48.6q.5 1.7.9 3.4c1.7 6.8 2.2 13.3 2.3 20.3q0 3.1 0 6.1 0 5.8 0 11.5 0 6.3 0 12.6 0 10.9 0 21.7 0 15.9 0 31.7.1 25.8.1 51.5 0 1.5 0 3.1 0 17.2 0 34.4 0 6.3.1 12.5 0 1.6 0 3.2 0 25.8 0 51.6.1 15.9.1 31.8 0 11 0 22 0 6.3 0 12.7 0 5.8 0 11.7 0 2.2 0 4.3 0 2 0 4 0 1.9 0 3.7c0 3.1 0 3.1.4 5.6q1.5 1 3 2c25.8 22.8 39.6 51.5 42.3 85.6q.3 3.6.6 7.1c.6 7.1 1.2 14.2 1.2 21.4q-.1 2-.1 3.9c34-.3 64.9 6.3 90.1 30.8 24.2 25.1 33.7 53.5 33.2 88-.8 23.8-12.9 52.2-30.4 68.5q-1 .9-1.9 1.7c-20.7 19.5-45.3 31.9-74.1 32.3q-1.8 0-3.6 0c-20.1.1-37.8-4.7-55.4-14.3-1-.5-1-.5-1.9-1-7.6-4.2-14.4-8.8-20.7-14.8q-2.3-2.2-4.7-4.3-1.1-1-2.2-2-1.7-1.4-3.4-2.9c.2 2.2.2 2.2-1.4 4.5-9.8 14-23.2 24.8-39.9 28.9-19.4 4.3-35.3 0-51.7-10.4q0-1 0-2-1 0-2 0c-2.6-2.3-2.6-2.3-5.1-4.9-.9-1.1-.9-1.1-1.9-2.1-4.2-4.5-7.3-9.3-9.9-14.9q-.5-1-1-2c-1.6-3.6-2.9-6.8-3.5-10.7l-.2-2.7-.2-2.7q-.1-1-.2-2c-14.9.8-29.9 1.2-44.8 1.2q-6.1 0-12.1.1-4 0-8 0-2 0-3.9 0c-7.1.1-13.5.1-20.3-2.5-9.5-4.2-17.4-11.3-21.5-20.9-2.8-9.1-2.8-20.4 1-29.1q.9-1.8 1.7-3.5c1.7-3.5 3.2-6.5 5.6-9.4q1-1.1 1.9-2.1 1-1.1 1.9-2.2.8-.8 1.5-1.6-81.2-.2-162.3-.3-9.8 0-19.6-.1-2 0-3.9 0-31.7 0-63.3-.1-32.6-.1-65.2-.1-20-.1-40.1-.1-13.9 0-27.8-.1-8 0-16 0-7.4 0-14.9 0-2.7 0-5.4 0-3.7 0-7.4-.1-1.2 0-2.3 0-2 0-4 0c-18.2-.6-36.5-8.9-49.1-22.2q-.9-1-1.7-1.9c-18.4-20.3-21.2-43.6-21.1-69.9q0-2.9 0-5.7 0-8 0-15.9 0-8.7 0-17.4 0-17 0-34 0-14.9 0-29.9 0-1 0-2 0-4 0-8 0-37.8 0-75.5 0-33.6 0-67.2 0-37.8 0-75.6 0-4 0-8 0-1.1 0-2 0-14 0-28 0-17.2 0-34.4 0-8.7 0-17.5 0-8.1 0-16.3 0-2.9 0-5.9 0-4.1 0-8.2 0-1.2 0-2.4C51.8 201 59.5 180.1 73 165c22.1-21 46.3-25.6 75.8-25.2q2.9 0 5.9 0 6.8.1 13.7.2h3.6q-.1-3.2-.1-6.3 0-1.3 0-2.6c-.3-13.6 2.9-25.1 11.7-35.8 17.5-18.5 47.9-21.5 67.6-4.7z" fill="#fefedf"/><path d="M246.5 87.1c13.9 10.6 19.7 22.2 22.1 39.3.6 4.6.4 8.8.4 13.6h108v-12c1.2-16.3 6.7-28.3 19-39 10.3-8.2 23.2-10.2 36-9.2 13.6 1.5 24.4 10 33 20.2 8.2 12 9 25.8 9 40h107l-1-12c1.2-14.9 6.6-27.9 18-38 13.1-9.5 27.1-11.8 42.9-9.6 12.4 3.1 22.6 12.5 29.7 22.9 6.3 11.2 6.6 24.2 6.4 36.7q.8 0 1.7 0 8.6-.1 17.2-.1 3.2 0 6.4-.1c31.3-.2 31.3-.2 42.9 5.4q1 .4 2 .9c20 9.5 37.3 25.6 45.1 46.7q.9 2.6 1.7 5.2.6 1.8 1.2 3.7c2.1 8.4 1.9 16.7 1.9 25.3q0 2.2 0 4.3 0 4.7 0 9.3-.1 7.6-.1 15.1 0 8.2 0 16.3 0 20.2 0 40.3 0 1.5 0 3 0 12 0 24 0 10.8 0 21.6v3.2q-.1 24.9-.1 49.9-.1 25.7-.1 51.4.1 15.8 0 31.7-.1 10.8 0 21.6 0 6.3-.1 12.6 0 5.7.1 11.4 0 3.1-.1 6.1c.1 5.2.2 8.8 3.5 12.9 2.5 2.3 5 4.3 7.8 6.3 12.8 11.2 21.7 26.4 28 42q.6 1.4 1.2 2.9c7.5 20.4 8.2 44.7 7.8 66.1q1.9 0 3.8-.1c35.2-.4 63.8 9.5 89.3 33.9 21.5 22 30.5 51 30.3 81.2-.2 9.5-1.4 18-4.4 27l-.6 2c-5 15.3-12.5 29.1-23.4 41q-1.2 1.4-2.5 2.8c-18.7 19.5-44.8 32.7-72.1 33.5q-3.3 0-6.7 0-1.8 0-3.6 0c-8.7-.1-16.7-.9-25.1-3.3q-1.6-.4-3.2-.8c-18.9-5.2-36.1-16-50.1-29.6-2.1-2.1-4.3-3.9-6.7-5.6q-.4.9-.8 1.7c-7.4 14.4-19.9 25.1-35.2 30.3-16.9 4.8-33.5 4.5-49-4.1q-4.1-2.4-8-4.9 0-1 0-2l-1.8-.8c-11.5-6.2-17.7-20.6-21.6-32.5-.7-3-.6-5.7-.6-8.7q-1.8.1-3.7.2c-15 .8-30 1-45 1.1q-4 0-8 .1-6 0-11.9 0-1.7.1-3.6.1c-12-.1-21.6-3.5-30.4-11.7-7.4-7.6-9.9-17.1-9.8-27.5.3-12.5 6.6-23.6 15.4-32.3q-1.4 0-2.8 0-81.6-.1-163.2-.3-9.8 0-19.6 0h-4q-31.6-.1-63.1-.1-32.5-.1-64.9-.1-20-.1-40-.1-13.7 0-27.4-.1-7.9 0-15.8 0-7.3 0-14.5 0-2.7 0-5.3 0c-14.2 0-26.4-1.1-39.4-7.3q-1.4-.6-2.7-1.2c-17.8-8.8-30.1-25.3-36.7-43.6-5-14.7-4.7-29.4-4.7-44.8q-.1-3-.1-5.9 0-8.1 0-16.2 0-8.8 0-17.5 0-21.1 0-42.2 0-10-.1-19.9 0-33.1 0-66.2 0-2.1 0-4.3 0-1 0-2.1 0-5.4 0-10.7 0-1.1 0-2.2 0-34.5-.1-69.1 0-36.5 0-73.1 0-19.9-.1-39.8 0-16.9 0-33.9 0-8.6 0-17.3 0-7.9 0-15.8 0-2.9 0-5.7c-.1-24.4 5.4-48 22.4-66.5 22.2-21.2 48-24.4 77.5-24.1q3 0 6 0 7.3 0 14.6.1 0-1.9 0-3.9-.1-2.6-.1-5.2v-2.6c-.1-14.5 4.9-25.6 14.8-36.2 16-14.5 41.6-16.9 59.8-5zM71 279l-.1 205.7-.1 65v38.4q0 12.8 0 25.6 0 14.9 0 29.7 0 7.5 0 15.1-.1 6.9 0 13.7 0 2.5 0 5c-.1 20.9 3.1 40 17.8 56 8.1 7.6 17.5 12.8 28.4 14.8 1.3.3 1.3.3 2.7.5 3.7.6 7.3.6 11.1.6q1.1 0 2.3 0 3.9 0 7.7 0 2.8 0 5.6 0 7.7 0 15.4 0 8.3 0 16.6 0 14.4 0 28.8 0 20.7 0 41.5 0 33.7 0 67.4 0 32.8 0 65.5 0 1 0 2.1 0 10.1 0 20.3 0 85-.1 170-.1 1.2-2.4 2.4-4.7.7-1.4 1.3-2.7c3.1-6.4 4.7-12.9 5.9-19.8q.2-1 .4-2.1c2.5-14.5 2.3-29.3 2.5-44 .7-43.8 7.8-77.4 39.9-109.4 11-10.7 23.5-19.1 37.9-24.5 3-1.6 3-1.6 3.8-5 .2-1.9.2-1.9.5-3.9 1.9-12.5 7.9-23.2 18.3-30.7 11.6-7.6 23.7-10.3 37.5-7.5 15.1 4.3 24.4 11.9 32.1 25.3 2.5 4.9 3.7 9.4 4.1 14.9q.1 1.4.3 2.9 0 1.1.1 2.2 2.8 1.2 5.7 2.4 1.6.7 3.2 1.4c3.3 1.4 3.3 1.4 8.1 2.2V279H71z" fill="#011959"/><path d="M545.8 368l5.4 4.6c3.7 3.1 6.7 6.7 9.8 10.4q1.2 1.4 2.5 2.9 1.4 1.6 2.7 3.2 1.2 1.4 2.5 2.9c2 2.6 3.7 5.3 5.3 8.2 1.3 2.4 2.7 4.6 4.1 6.9 15.6 25.4 25.8 53.5 26.1 83.5q.1 1.2.1 2.4c.1 17.3.1 34.1-4.3 51q-.3 1.2-.6 2.4c-5.4 20-14 38.4-25.4 55.6-.6.9-.6.9-1.2 1.9-6.6 10-14.4 18.6-22.8 27.1q-.8.9-1.7 1.8c-29.5 30.2-74.4 48.8-116.5 49.3q-9.9 0-19.8-.1h-3.9c-41.2-1.5-82.1-23.7-111.1-52q-2-2.5-4-5-2.5-2.5-5-5c-14.2-15.2-24.3-33.7-32-53q-.7-1.8-1.5-3.7c-11.1-30.2-13-65.9-6.5-97.3l.4-2.2c6.8-34.4 24.6-64.6 48.6-89.8q.9-1 1.9-2.1c28.7-30.7 74.7-47.9 116-49.8 48.4-1.2 94.9 12.7 130.9 45.9z" fill="#fec600"/><path d="M150.2 160.9q3 0 6.1 0 7.3 0 14.7.1.1.9.2 1.8.6 4.2 1.2 8.3.2 1.4.4 2.9c2.1 15.2 8.2 27.2 20.2 37 10.8 6.8 22.3 9.4 35 8 13.5-3.1 24.4-9.1 32-21 6.6-11.7 6.2-23.5 7-37h109l3 20c2.9 13 10.5 24.6 21.9 31.8 12.8 6.9 25.9 7.7 39.9 4.2 4.9-1.6 9-4 13.2-7l3.2-2.2c13.4-13.4 13.7-28.4 14.8-46.8h108l2 18c3.6 13.7 10.7 26.1 22.9 33.8 10.7 5.8 23.2 8.3 35.2 5.5 13.4-4.2 23.2-10.8 29.9-23.3 3.9-7.7 4.2-15.4 4.6-23.9q0-1.4.1-2.9.2-3.6.3-7.2 10-.2 20.1-.2 3.4 0 6.8-.1c21.8-.3 40.2 1.3 56.8 16.9 10.5 10.2 15.8 21.3 19.3 35.4v47H71c0-62.9 0-62.9 17.8-81.8 8.3-8.1 16.9-12.4 28.2-15.2q1-.3 2.1-.6c10.2-2.3 20.7-1.6 31.1-1.5z" fill="#fefee0"/><path d="M786.3 574.7c3 2.7 5.9 5.4 8.7 8.3q1.1 1.1 2.2 2.2c17.4 18.5 26.9 42.8 27 68.2q0 1.1 0 2.3 0 2.5 0 4.9 0 3.8 0 7.5 0 2.4 0 4.8 0 1.1.1 2.2c-.1 4.1-.3 7.3-2.3 10.9-2.9 1.5-2.9 1.5-6.7 2.7-12.5 4.6-23.2 11.7-33.3 20.3q-.9.7-1.8 1.4c-18.6 14.4-28.8 40.1-32.2 62.6-1.4 11.6-1 23 0 34.7.1 1.8.1 1.8.3 3.6q.3 4.3.7 8.7-23.2.2-46.4.4-10.7.1-21.5.2-4.2 0-8.4 0-1 .1-2 .1-16.5.1-33 .2-12.4.1-24.9.2-6.8.1-13.6.2-3.2 0-6.3 0-4.3.1-8.6.1-1.2 0-2.5.1c-7 0-13.2-1.9-18.2-6.9-3.1-5.1-3.8-8.3-3.3-14.2 1.6-5.7 5.8-9.7 9.8-13.8 24.2-25.9 33.4-54.3 34.4-89.2q.1-3 .2-5.9.1-5.2.3-10.3.2-6.1.4-12.2.1-3.8.2-7.6c.7-22.9.7-22.9 3.7-32q.3-1 .6-2.1c5.8-18 14.7-33.1 28.1-46.3q1-1 2-2c12.4-11.6 28.8-19.4 45-24q1-.3 2-.6c32.6-9 73.2-1.6 99.3 20.3z" fill="#fec600"/><path d="M856 699.8q1.6-.1 3.3-.1c25.6.1 47.7 10.7 65.9 28.2 12.5 12.8 20.2 28.7 23.8 46.1q.2 1.1.5 2.2c3.7 23.2-3.1 46.7-15.7 66.1-14.4 20-35.2 33.6-59.6 38.2-25.9 3.8-49.8-1.4-71.5-15.8-20.4-15.2-33-35.5-37.3-60.8-3.3-24 1.9-48.4 16.6-67.9 18.7-23.1 43.9-36.5 74-36.2z" fill="#00358b"/><path d="M545.8 368l5.4 4.6c3.7 3.1 6.7 6.7 9.8 10.4q1.2 1.4 2.5 2.9 1.4 1.6 2.7 3.2 1.2 1.4 2.5 2.9c2 2.6 3.7 5.3 5.3 8.2 1.3 2.4 2.7 4.6 4.1 6.9 15.6 25.4 25.8 53.5 26.1 83.5q.1 1.2.1 2.4c.1 17.3.1 34.1-4.3 51q-.3 1.2-.6 2.4c-5.4 20-14 38.4-25.4 55.6-.6.9-.6.9-1.2 1.9-6.6 10-14.4 18.6-22.8 27.1q-.8.9-1.7 1.8c-29.5 30.2-74.4 48.8-116.5 49.3q-9.9 0-19.8-.1h-3.9c-41.2-1.5-82.1-23.7-111.1-52q-2-2.5-4-5-2.5-2.5-5-5c-14.2-15.2-24.3-33.7-32-53q-.7-1.8-1.5-3.7c-11.1-30.2-13-65.9-6.5-97.3l.4-2.2c6.8-34.4 24.6-64.6 48.6-89.8q.9-1 1.9-2.1c28.7-30.7 74.7-47.9 116-49.8 48.4-1.2 94.9 12.7 130.9 45.9zm-239.5 23.7c-29 31-43.7 73.2-43.4 115.6 1.3 38.3 15.1 72.3 41 100.5 1.8 1.9 3.5 3.9 5.2 5.9 2.6 3.1 5.6 5.8 8.8 8.5q2.1 1.8 4.1 3.7c6.4 6 13.5 10.6 21 15.1q.9.6 1.9 1.1c36.9 21.9 81.2 25.6 122.1 15.1 25.6-7.1 48-20.6 67-39.2q1.4-1.3 2.8-2.6c7.2-7 13.3-14.4 19.2-22.4q1-1.3 2-2.6c24.4-33.8 32-75.6 26-116.4-6.4-38.8-28.2-76.4-60-100-11.4-8.1-23.2-15.2-36-21l-3-1.4c-61.5-26.2-133.1-5.9-178.7 40.1z" fill="#021b61"/><path d="M515 416c2.7 2.7 2.7 2.7 4 6-.2 6.3-2.3 9.2-6.4 13.6q-1.6 1.8-3.3 3.7c-.8.9-.8.9-1.7 1.8-2.5 2.9-4.8 5.9-7.2 9-6.2 8-12.8 15.7-19.4 23.4-6.8 7.9-13.5 15.8-19.9 23.9-4 5.1-8.1 10-12.4 14.9a279.97 279.97 0 0 0-13.8 16.8c-3.4 4.3-7 8.4-10.7 12.5-3.1 3.4-6 7-8.9 10.5q-3.8 4.7-7.6 9.3-1.2 1.5-2.4 3c-5.6 6.4-5.6 6.4-9.7 7.5-3.9.1-6-.3-9.6-1.9-2-2-3.7-4-5.4-6.2q-1.5-1.8-2.9-3.5l-1.4-1.8c-2.1-2.4-4.4-4.6-6.7-6.9-2.5-2.5-4.7-5.1-7-7.8-1.3-1.5-2.7-2.8-4-4.2-1.6-1.6-1.6-1.6-1.6-3.6q-1 0-2 0c-1.6-1.6-1.6-1.6-3.4-3.8-2.6-3-2.6-3-5.3-5.8-1.3-1.4-1.3-1.4-1.3-3.4q-1 0-2 0c-1.7-1.6-1.7-1.6-3.5-3.7l-1.8-2.2c-1.7-2.1-1.7-2.1-2.7-4.3-.9-2.2-.9-2.2-4-2.8-3.9-4.4-5.8-8-6.2-13.9.3-3.4 1.8-4.9 4.2-7.1 3.3-2.3 6.1-2.7 10-2 10.1 6.4 18.5 18 26.2 27 2.3 2.6 4.7 5.2 7.1 7.8q.7.8 1.4 1.6 1.5 1.5 2.9 3.1 3.4 3.7 6.8 7.4 1.2 1.3 2.4 2.6c2.2 2.5 4.2 4.9 6.2 7.5 3.1-1.3 4.8-2.7 6.9-5.3q.8-1 1.6-2 .8-1.1 1.7-2.1 1.7-2.2 3.5-4.4.8-1.1 1.7-2.2l15.8-19.2c6.4-7.5 12.6-15.1 18.8-22.8q7.3-9 14.9-17.8c4.5-5.2 8.8-10.6 13-16 3.1-4 6.4-7.9 9.7-11.8 4.6-5.3 8.9-10.9 13.2-16.5q1.1-1.4 2.2-2.9 1-1.4 2.1-2.8c4.8-5.6 11.6-4.7 17.9-2.2z" fill="#021b63"/><path d="M863 730c3.5 2.1 5.7 4.1 7 8q.1 2 .1 4v2.4q0 1.3 0 2.6 0 1.4 0 2.7 0 4.3 0 8.5 0 2.9-.1 5.7 0 7.1 0 14.1 1.8 0 3.7-.1 6.7-.2 13.4-.2 2.9-.1 5.9-.2 4.2-.1 8.3-.1c1.3 0 1.3 0 2.7-.1 5.6 0 8.6 1.2 12.7 5.1 2.9 3.5 2.7 7.3 2.3 11.6-2 3.7-3.5 5.7-7 8-2 .2-2 .2-4.2.2h-2.5q-1.4 0-2.8 0-1.4 0-2.8 0-4.4 0-8.9-.1-3 0-6 0-7.4 0-14.8-.1a48.2 48.2 0 0 0 .1 3.8q.1 6.9.1 13.8 0 3 .1 6 .1 4.3.1 8.6 0 1.4.1 2.7c0 5.7-.8 8.7-4.5 13.1-2.8 1.9-5.6 2.7-9 3-4.1-1-6.9-2.7-9.6-6-2-4.3-1.8-8-1.7-12.7q0-1.4 0-2.8.1-4.4.1-8.8 0-3 .1-6 0-7.4.1-14.7c-1.9 0-1.9 0-3.8.1q-6.9.1-13.9.2-3 0-6 .1-4.3.1-8.6.1c-1.4 0-1.4 0-2.7.1-4.5 0-6.4-.1-10-3-3.7-4.8-4.4-7.5-3.6-13.4.9-3.4 2.9-5.1 5.6-7.2 3.4-1.7 7.2-1.2 10.9-1.3q1.4 0 2.7-.1 4.3-.1 8.5-.2 2.9 0 5.8-.1 7-.2 14.1-.3 0-1.8.1-3.6.1-6.6.2-13.3.1-2.8.1-5.7.1-4.1.2-8.3 0-1.2 0-2.5.1-1.2.1-2.5 0-1 0-2.1c.4-2.4 1-4 2.3-6 5.1-3.7 8.9-5.2 15-3z" fill="#f2f6d8"/><path d="M235.8 106.6c9.2 8.9 11.4 19.3 11.8 31.7q.1 1.3.1 2.6.1 2.9.2 5.9.1 3.4.3 6.8.2 5.8.3 11.5l.2 3.7c.1 8.8-2 14.4-7.7 21.2-6.4 6.1-13.1 9.1-21.9 9.5-7.3-.2-12.8-2.5-18.2-7.4-6.3-6.8-8.8-14-9.2-23.2q-.1-1.5-.1-3-.4-8.5-.6-16.9-.1-1.7-.1-3.4-.1-4.8-.2-9.6-.1-1.4-.1-2.9c-.1-9.4 3-16.4 9.4-23.2 11-10.1 23.7-13.3 35.8-3.3zM432 101c3.4 1.3 3.4 1.3 6 3q1.2.8 2.5 1.6c13.4 12.8 12.8 31.6 13.3 48.9q.1 3.6.3 7.3c.4 10.4-.3 18.4-6.9 27-6.5 7-14.2 10.1-23.6 10.6-7.7-.3-13.7-3-19-8.6-5.4-6.2-7.1-13-7.3-21q0-1.3-.1-2.5-.1-4.7-.2-9.3-.1-2.2-.1-4.3-.2-6-.2-12-.1-2.4-.1-4.9c-.4-16.5-.4-16.5 5.4-22.8q.8-1.1 1.7-2.1c4.3-4.3 8.9-7.2 14.3-9.9 4.2-2.1 9.5-1.3 14-1z" fill="#003c94"/><path d="M640.3 103.4c7.7 5.2 12 12.8 14.7 21.6.5 2.7.6 5.4.7 8.1q.1 1.2.2 2.3.1 2.4.2 4.8.1 3.5.3 7.1c.4 7.3.7 14.7.8 22q0 1.7 0 3.5c-.5 7.6-4.7 13.6-10.2 18.7-7.6 5.7-15.5 8.3-25 7.5-6.7-1.5-12.2-5.2-16.3-10.7-3.4-5.8-4.9-11.2-5.1-17.9q-.1-1.8-.1-3.8-.1-2-.1-4-.1-2.1-.1-4.2-.1-4.2-.2-8.4-.1-5.4-.4-10.8c-.6-17.9-.6-17.9 4.4-24.3q.9-.9 1.9-1.9 1-1.1 2.1-2.2c9.2-8.8 20-14 32.2-7.4z" fill="#003b94"/><path d="M71 279h707v267c-3.8-.8-6.4-1.5-9.8-3.1q-1.2-.5-2.4-1.1-.9-.4-1.8-.8c4-1 4-1 12 3V281H73v412q-1-.5-2-1V279z" fill="#d0d8da"/><path d="M665.1 838.9h2.7c2.2.1 2.2.1 4.2 1.1l1.8 4c5.9 13.7 12.9 22.6 26.5 29.1 10.8 3.6 23.1 2.3 33.3-2.3 12.4-6.7 18.2-17.3 23.4-29.8l1 3q1.5.5 3 1c1.5 2.1 1.5 2.1 3 4.8q.7 1.2 1.5 2.6.7 1.3 1.5 2.6.9 1.3 1.7 2.6c1.3 2.4 1.3 2.4 1.2 4.4-6.3 14-19.5 24.4-33.4 30.2-15.6 5.2-32.4 6.1-47.5-1.2-4.1-2.1-8.1-4.5-12-7q0-1 0-2-.9-.4-1.8-.8c-10-5.4-16-17.5-20.2-27.7-1.2-4.3-1.6-7.5-.3-11.8 2.5-3.3 6.6-2.8 10.4-2.8z" fill="#021d63"/><path d="M673 840h84c-2.3 11.7-9 21.5-18.4 28.8-10.9 7.2-22.9 8.5-35.6 6.2-11.3-3.8-20-11.1-25.8-21.5-4.2-8.6-4.2-8.6-4.2-13.5z" fill="#fdc800"/><path d="M725.9 514.6c6.7 3.6 11.2 7.7 14.6 14.6.5 1.8.5 1.8-.5 4.8q-1.1-.2-2.2-.5c-2.6-.5-4.9-.6-7.6-.6q-1.4 0-2.8 0-1.4 0-3 0-1.5 0-3 0-4.9 0-9.7 0-3.3 0-6.6.1-8 0-16.1 0c2.7-8.3 6.5-13.7 14.2-18.1 6.7-3.3 15.8-3.1 22.7-.3z" fill="#fbca01"/><path d="M379 116q.5 0 1 0-.2 5.9-.4 11.9 0 1.7-.1 3.4 0 1.6-.1 3.3l-.1 3c-.3 2.4-.3 2.4-2.3 4.4-1.9.2-1.9.2-4.4.2q-1.3.1-2.8.1-1.5 0-3-.1h-3.2q-5.3.1-10.6 0-3.7 0-7.3 0-7.7 0-15.4 0-9.8 0-19.7 0-7.5 0-15.1 0-3.6 0-7.3 0-5 0-10.1-.1H275q-1.3 0-2.8 0h-2.4c-1.8-.1-1.8-.1-2.8-1.1q-.1-4.3-.1-8.6 0-1.2.1-2.4 0-3 0-6 .5 0 1 0c.9 5.5 1 10.2 1 16h108v-12q.4-3.4 1-6.8l.6-3q.2-1.1.4-2.2z" fill="#0f1c51"/><path d="M472 161h107q-.5 2-1 4 0-1 0-2H474l-1 20c-1.8 7-1.8 7-3 10-1.1-3.3-.9-5.4-.1-8.7 1.3-7.7 1.6-15.5 2.1-23.3z" fill="#fafbec"/><path d="M120 746l176 1q0 .5 0 1-33.8.3-67.5.5-15.7.2-31.4.3-13.6.1-27.3.2-7.2.1-14.4.1-6.8.1-13.7.1-2.5 0-5 .1-3.4 0-6.8 0-1.9 0-3.8.1c-3.1-.4-3.1-.4-6.1-3.4z" fill="#f6f6d9"/><path d="M844 738q.5 0 1 0 .3 8.3.5 16.6.1 2.8.1 5.7.2 4 .3 8.1 0 1.2.1 2.5 0 3.1 0 6.1c-1.5 1.5-2.9 1.2-5.1 1.2q-1.2 0-2.6.1h-2.8q-1.4 0-2.9.1-4.6.1-9.2.2-3.1 0-6.2.1-7.6.2-15.2.3c2.9-2.9 4.7-3 8.7-3.1q2.4 0 4.7 0 1.1 0 2.2 0 4 0 8.1 0l18.3.1v-38z" fill="#07267f"/><path d="M610 584q1 1.5 2 3l-1.2 1.4c-.9.9-.9.9-1.7 1.9q-.8.9-1.6 1.8c-1.6 1.9-1.6 1.9-2.6 4.1-.9 1.8-.9 1.8-2.9 2.8.5-4.3 2-6.9 4.6-10.3q.9-1.3 1.9-2.7c.7-1 .7-1 1.5-2z" fill="#081348"/><path d="M613 620q1 .5 2 1a86.39 86.39 0 0 1-5 14q-.5 0-1 0c.5-5.7 1.5-9.9 4-15z" fill="#f2d503"/><path d="M744 782q.5 0 1 0l1 12q.5 0 1 0 0 3 0 6-1 0-2 0-.5 1.5-1 3v-21z" fill="#f2bf04"/><path d="M621 571q.5 1.5 1 3-2.4 2.6-5 5-1 0-2 0-.4 1-.9 1.9C613 583 613 583 611 584c1.4-3.2 3.2-5.6 5.6-8.2q.9-1 1.8-2.1 1.3-1.4 2.6-2.7z" fill="#050d40"/><path d="M317 381q.5 1 1 2c-6.2 7.5-6.2 7.5-10 10q-1-.5-2-1l11-11z" fill="#e7ca08"/><path d="M415 519c0 3 0 3-1 5q1 .5 2 1c-1.3 1.5-1.3 1.5-3 3q-1.5 0-3 0l-2 1c1.7-3.9 4.2-6.8 7-10z" fill="#04126a"/><path d="M643 552q1 .5 2 1c-7.3 7.3-7.3 7.3-12 8 2.9-4 5.8-6.4 10-9z" fill="#030c42"/><path d="M772 860q.7.6 1.4 1.2c2.7 2.4 5.3 4.6 8.5 6.5q1.1.6 2.1 1.3 0 1.5 0 3c-3.4-1.5-5.6-3.4-8.3-6q-1-1-2.1-2.1C772 862 772 862 772 860z" fill="#080f42"/><path d="M820 622q.5 1 1 2 1.5 0 3 0v9c-2.8-2.3-3.9-3.6-4.8-7.2q-.1-1.4-.2-2.8.5-.5 1-1z" fill="#0d1953"/><path d="M804 566c3.7 1.5 6 3.8 8.8 6.6q1.1 1.2 2.4 2.5c.9.9.9.9 1.8 1.9q-1 1-2 2-2.2-2.4-4.4-4.8-1.2-1.3-2.4-2.7C806 569 806 569 804 566z" fill="#161c48"/><path d="M931 845q1 1 2 2l-10 10q-1-.5-2-1 .7-.7 1.4-1.4c4.6-4.5 4.6-4.5 8.6-9.6z" fill="#00134d"/><path d="M268 163q2 0 4 0-.5 2.5-1 5-1.5 0-3 0 0 3 0 6-.5 0-1 0c-.1-7.4-.1-7.4 1-11z" fill="#f1f3df"/><path d="M463 461c0 3.7-.9 5-3 8l-4 3q-1-.5-2-1l9-10z" fill="#060e6f"/><path d="M961 753c2 1 2 1 3.1 4.3.8 3.1 1.1 5.5.9 8.7-2.3-3.4-2.5-5.9-3-10q-1 0-2 0 .5-1.5 1-3z" fill="#070e3d"/><path d="M598 547c2.2 3.2 2.2 4.3 2 8q-1 0-2 0 0 1 0 2-1 0-2 0l2-10z" fill="#e0e5df"/><path d="M551 370q2.1 1.9 4 4 0 1 0 2 2 .5 4 1-.5 1.5-1 3c-2.9-2.9-5.6-5.7-8-9q.5-.5 1-1z" fill="#ecefe4"/><path d="M669 562q-.5 1.5-1 3c-2.1.7-2.1.7-4.6 1.2q-1.2.2-2.5.5l-1.9.3c3.1-3.2 5.4-5 10-5z" fill="#f6da03"/><path d="M485 650q1 .5 2 1-2 2-4 4-2-1-4-2 2.9-1.6 6-3z" fill="#05116b"/><path d="M607 638l3 2-1 9q-.5 0-1 0l-1-11z" fill="#e7bb07"/><path d="m650 544q2 1 4 2c-3 1.6-5.9 3.3-9 5 1.1-3.3 2.5-4.6 5-7z" fill="#f5f6ee"/><path d="M451 509q.5 1.5 1 3-1.9 2.1-4 4-1 0-2 0c1.3-2.9 2.7-4.9 5-7z" fill="#f6d602"/><path d="M65 176q1 .5 2 1c-.8 2.9-.8 2.9-2 6q-1.5.5-3 1c.6-2.9 1.6-5.4 3-8z" fill="#060f42"/></svg>