<svg xmlns="http://www.w3.org/2000/svg" width="1024" height="1024" xmlns:v="https://vecta.io/nano"><path d="M224.9 91.8q2.1 1.6 4.1 3.2 1 .8 2.1 1.7c8.8 7.8 14.1 19.6 14.9 31.3.2 5.7.1 11.3 0 17q.9 0 1.9 0l55.2.5q4.1.1 8.2.1 9.8.2 19.7.4v-3.7q-.1-2.5-.1-4.9 0-1.2 0-2.4c-.1-13.3 4.1-26.1 13.3-35.9C355.9 88.4 369 84 384.6 84.6c13 .9 25 6.9 33.8 16.4 10.5 13.5 10.6 26.8 10.6 44h86v-18c1.2-10.9 6.5-23.7 15-31 13-9.6 25.7-13.5 41.8-11.7 13.5 2.4 25 9.7 33.2 20.7 2 3.2 3.6 6.5 5 10l1 2.4c2 6.2 2.1 12 2.1 18.5q0 1.3 0 2.6-.1 3.3-.1 6.5 1.7 0 3.4 0 6.4-.1 12.8-.2 2.8 0 5.5 0c14.8-.2 29.6 0 43.1 6.8q1.1.5 2.1 1.1c18.5 9.4 29.8 25.4 36.2 44.7 1.8 7 2 13.9 2 21.1q0 1.4 0 2.8 0 4.6 0 9.3 0 3.3 0 6.6 0 9 0 18 0 9.5 0 18.9 0 15.8 0 31.6 0 16.3 0 32.6 0 1 0 2 0 5.1 0 10.1-.1 41.8-.1 83.6 1 0 1.9 0 10.1-.2 20.1-.2 3.7 0 7.5-.1 5.3-.1 10.7-.1c1.7 0 1.7 0 3.4-.1 13 0 23.3 4.4 33.1 12.8 11.3 13.1 11.7 25.2 11.5 41.8q0 2.8-.1 5.5 0 6.7-.1 13.4 1.8 0 3.6 0 17.1-.1 34.2-.2 8.7 0 17.5-.1 8.5-.1 16.9-.1 3.3 0 6.5 0c15.1-.2 26.8.3 38.8 10.5 10.1 11.6 10.8 22.8 10.6 37.7q0 2.2 0 4.4 0 4.7-.1 9.4 0 7.5 0 14.9 0 1.3 0 2.6 0 2.6 0 5.1-.1 17.4-.2 34.7-.1 11.8-.1 23.5 0 6.2-.1 12.4-.1 5.8 0 11.6 0 2.2-.1 4.3c-.1 4.4 0 8.2 1.5 12.3 2.8 2.5 5.5 4 8.9 5.6 5 2.3 8.9 5.9 13.1 9.4q.9.7 1.8 1.3c14.3 11.2 24.1 29.7 29.2 46.7l1 3c7 25.9 1.9 55.8-11.1 78.9-11.7 19.3-28.3 33-48.9 42.1q-1.2.6-2.4 1.1c-20.9 9.4-48.6 8.9-69.9 1.1-20.4-8-40.4-22-51.7-41.2q0-1 0-2-.9 0-1.9 0-54.8.1-109.6.1-6.6 0-13.1 0h-2.7q-21.2 0-42.4.1-21.8 0-43.5 0-13.5 0-26.9 0-9.2 0-18.4 0-5.3 0-10.6 0-5.8.1-11.6 0-1.6 0-3.3.1c-12.7-.1-22.3-2.3-31.9-11-7.1-7.9-10.4-17.4-10.3-28q0-1.1 0-2.2 0-3.6 0-7.2 0-2.5 0-5 0-6.6.1-13.1 0-7.9 0-15.8 0-12 .1-24-1 0-2.1 0l-133.1 1.2q-7.4 0-14.9 0-24.7 0-49.4 0-1.3 0-2.6 0-1.3 0-2.7 0-21.5 0-42.9 0-22.3 0-44.6 0-12.4 0-24.8 0-10.5.1-21 0-5.4 0-10.7.1-5.8 0-11.6-.1-1.6.1-3.4.1c-12.3-.1-23-2.3-34.2-7.3q-1.4-.6-2.8-1.2c-17-8.4-28.3-23.7-35-41-3.4-10.8-3.5-21.2-3.5-32.4q0-2.8 0-5.7 0-7.8 0-15.5 0-8.5 0-16.9 0-16.4 0-32.9 0-13.4 0-26.8 0-1.9 0-3.9 0-3.8 0-7.7 0-26 0-52 0-1 0-2.1 0-5.1 0-10.3 0-1 0-2.1 0-2 0-4.1 0-32.2 0-64.4-.1-36.1-.1-72.3 0-19.2 0-38.3 0-16.3 0-32.6 0-8.4 0-16.7 0-7.6 0-15.2 0-2.8 0-5.5c-.1-20.3 3.5-37.1 16.4-53.4q.7-.9 1.4-1.9c9.3-12.2 26.5-21.2 41.5-23.4 5.7-.7 11.4-.8 17.2-.8q1.3 0 2.8 0 4.3 0 8.7 0 2.9 0 5.9.1 7.3 0 14.5 0 0-1.7-.1-3.4c-.1-14.6 1.1-27.5 10.1-39.6q.7-1 1.4-1.9c15.4-19.7 45.5-20.8 65.5-8.3z" fill="#011251"/><path d="M59 279h640v155l-56 1c-11.9 3.3-21 6.5-28 17-3 5.7-6.1 11.6-6.2 18.1q0 1.2-.1 2.5 0 1.3 0 2.7c0 1.2 0 1.2-.1 2.4q-.1 4.5-.2 9L608 507h-66l.3-28.8c.1-11.5-.6-22.1-3.3-33.2-.5-1.9-.5-1.9-.9-3.9C531 412 516.9 386.5 496 365q-1-1.1-2.1-2.3c-11.3-12.2-26.2-21-40.9-28.7q-1.4-.7-2.8-1.5c-38-19.8-86.1-19.9-126.2-7.3-41.4 14-75.1 45.4-94.4 84.2-18.9 39.8-20.7 87.2-6 128.6 6 16 14 30.5 24.4 44q1.1 1.4 2.2 2.9c25.7 32.4 64 53 104.8 58.7 6.6.7 13.1.7 19.6.7q3.5-.1 7 0c13.9 0 27-1.5 40.4-5.6q1.5-.4 3.1-.9c18.5-5.7 35.7-13.6 51-25.4 1.9-1.4 1.9-1.4 2.9-1.4v100l-54.3.8h-3l-146 .3q-17.4 0-34.8 0-20.6 0-41.1 0-2.2 0-4.4 0-1.1 0-2.2 0-7.5 0-14.9 0-10.1 0-20.1 0-3.7 0-7.3 0c-12.4 0-24.7-.1-37.1-.5q-1.6 0-3.2-.1C97.7 711.1 88.1 707 78 699q-1.3-.9-2.7-1.8c-11-10.5-16.5-25.1-17.6-40q-.1-6.2 0-12.4 0-2.4 0-4.7 0-6.5 0-13 .1-7.1.1-14.2 0-13.8.1-27.6.1-16 .1-31.9.1-42.2.3-84.3L59 279zm468.7 246.5q2.4 0 4.8 0 6.6 0 13.2 0 7.1 0 14.3 0 13.9 0 27.9 0 16.3 0 32.5 0 29 0 58 0 28.2.1 56.3.1 30.7-.1 61.3 0 3.3 0 6.5 0h3.3q11.3 0 22.7 0 13.8 0 27.6 0 7 0 14.1 0 6.4 0 12.9 0 2.3 0 4.6 0 3.2 0 6.4 0 1.7 0 3.5 0c4.8.6 8.7 1.9 12.4 5.1q.7.9 1.4 1.8l1.4 1.8c2.4 3.4 2.3 6.5 2.3 10.5v3.7q0 2 0 4.1 0 2.1 0 4.2 0 5.8 0 11.6 0 6 0 12.1 0 11.4 0 22.9 0 13 0 26-.1 26.8-.1 53.6l-10.3-1.5c-27.4-3.4-53.4 3.2-75.3 19.9q-2.2 1.8-4.4 3.6c-1 .8-1 .8-2 1.5-14.9 12.2-23.9 30.3-29 48.5l-1 3.4c-4.1 16.9-3.4 35.5 1.1 52.3.9 3.3.9 3.3.9 6.3q-53.9.1-107.7.2-6.4 0-12.8 0-1.2 0-2.5 0-20.5.1-41 .1-21.1.1-42.1.1-13 0-26 0-8.9.1-17.8.1-5.1-.1-10.2 0-5.6 0-11.2 0-1.6 0-3.3 0c-6.2 0-11.4-.5-16.4-4.5-5.9-6.1-6.9-11.9-6.8-20.1q0-1.7 0-3.3 0-5.5 0-10.9 0-3.9 0-7.8 0-9.5 0-19.1 0-7.7 0-15.4 0-1.1 0-2.2 0-2.3 0-4.5 0-21 0-42 .1-18 0-35.9 0-20.9 0-41.9 0-2.2 0-4.4 0-1.1 0-2.2 0-7.7 0-15.5 0-10.4 0-20.8 0-3.8 0-7.6 0-5.2 0-10.4 0-1.5 0-3c.1-6 1.1-9.8 5-14.3 7.4-6.9 15.9-6.3 25.5-6.2z" fill="#fefede"/><path d="M447 352q1.4.7 2.8 1.4c32 16.3 56.1 46.8 67.3 80.6 5 15.8 7.1 31 7 47.6q0 3.1 0 6.2c0 6.5-.1 12.8-1.1 19.2q-1.4 0-2.9 0c-11.4.5-20 2.7-29.1 10q-1 0-2 0-.4.9-.8 1.8c-1.5 2.8-3.2 5.4-5 8.1-2.4 4.1-3.5 7.4-3.3 12.2v3q.1 1.5.1 3.2 0 3.3.1 6.7 0 5.3.1 10.7c.6 20.7.6 20.7-3.7 26.2-2.8 2.9-6 5-9.5 7.1q-2 1.5-3.9 3-1.7 1.1-3.3 2.2-1 .6-1.9 1.2c-7 4.5-14.4 8.1-21.9 11.6q-1.2.6-2.4 1.2c-7.7 3.8-16.3 5.7-24.6 7.8l-2.2.6c-21.2 5.1-43.8 3.1-64.8-1.6-1-.2-1-.2-2.1-.5-22.5-5.1-43.7-17.7-60.5-33.3q-2.6-2.4-5.4-4.6c-3.1-2.6-5.7-5.6-8.2-8.8q-.7-.9-1.4-1.8c-13.4-17.7-23.2-37.4-28.4-59-.2-1-.2-1-.5-2.1-8.2-35.9-1.2-76.1 18-107.5 11.5-18.3 26.1-33.9 44.5-45.4q1.7-1.1 3.4-2.2c14.2-9.1 30.1-15.3 46.6-18.8q1.6-.3 3.2-.7c32.6-5.5 66.5-.4 95.8 14.7z" fill="#feca00"/><path d="M129.8 163.9q2.8 0 5.6 0 6.8 0 13.6.1 0 .9 0 1.9c.4 25.8.4 25.8 13.3 47.5 13.4 11.2 27.7 14.1 44.7 12.6 12.2-2.4 22.8-8.8 30-19 6.5-10.7 8.2-20.8 8.6-33.1.1-1.5.1-1.5.1-2.9q.2-3.5.3-7c17-.1 33.9.2 50.9.5q5.8.1 11.6.1 11.2.2 22.5.4 0 .9.1 1.7.1 4 .3 7.9a23.48 23.48 0 0 1 .1 2.7c.7 15.2 5.3 27.5 16.1 38.3 12.9 10 27.7 11.9 43.4 10.4 4.7-.9 8.8-2.7 13-5q1.2-.7 2.5-1.4c12.6-7.6 18-18.7 21.5-32.6l1-23h86l1 21c2.4 12.7 7 24 17.6 31.9 13.2 8.7 27.5 11.1 43 8.5 11.7-3.2 21-9.4 27.8-19.5 2.5-4.5 4.1-9 5.6-13.9q.5-1.5 1-3 .2-2.9.3-5.8.1-1.6.1-3.4l.2-3.5q0-1.7.1-3.6.2-4.3.3-8.7 8.1-.1 16.1-.1 2.7 0 5.5-.1c18.4-.1 34 1.4 48.4 14.2q.9.7 1.8 1.4c4.4 3.8 6.9 8.3 9.5 13.4a32.97 32.97 0 0 1 1 1.9c9.5 19.3 4.7 48.6 4.7 66.3H59c0-65.7 0-65.7 15.6-81.8 16.3-14.9 34.2-15.5 55.1-15.3z" fill="#fefdde"/><path d="M942 717.7c12.7 10.5 21.9 23.6 27 39.3q.4 1.3.9 2.7c4.6 16.2 3.4 34.5-1.9 50.3q-.4 1.3-.8 2.7c-7.1 20.3-23.3 35.4-42.2 44.6-19.4 9.1-40.7 10.5-61 3.7-11.9-4.6-23.4-11.5-32-21q-.9-.9-1.8-1.9c-13.1-13.8-21.6-33.9-21.1-53.1q.1-2.7.2-5.3.1-1.4.2-2.8c1-18.2 6.4-32.6 17.5-46.9q1-1.2 1.9-2.5c28.5-34.2 78.9-35.9 113.1-9.8z" fill="#003c7c"/><path d="M689 568.9q1.2-.1 2.5-.1 1.3 0 2.7 0 1.4 0 2.8 0 2.9 0 5.8 0 4.5 0 8.9 0 2.9 0 5.7 0 1.3 0 2.7-.1c5.3.1 9.6.1 13.7 4 1.6 3 1.7 5.3 1.9 8.6a13.4 13.4 0 0 0 .1 2c.4 9.8.3 19.7.3 29.6q0 3.1-.1 6.2 0 7.4 0 14.9h2.3q10.7-.1 21.4-.1 5.4 0 10.9-.1 5.3 0 10.6 0 3 0 6 0 1.9 0 3.7 0h3.3c2.8.2 4.5.6 6.8 2.2 2.3 4.9 2.3 9.6 2.3 14.9q0 1.2 0 2.5 0 2.7 0 5.3-.1 4.1 0 8.1 0 2.6 0 5.2 0 1.2 0 2.4c-.1 4.9-.5 9-2.3 13.6-3.5 2.4-5 2.2-9.1 2.2q-1.9 0-3.8 0-2.1 0-4.2 0-2.1 0-4.2 0-5.6 0-11.1-.1-5.7 0-11.4 0-11.1 0-22.2-.1 0 1.1 0 2.2.1 10.5.2 21 0 5.4.1 10.8.1 5.2.1 10.4 0 2.9.1 5.9v3.6q0 1.6 0 3.2c-.6 3.6-2 5.3-4.5 7.9-4.4 2.7-9.3 2.3-14.3 2.3q-1.3 0-2.7 0-2.8 0-5.6 0-4.3-.1-8.6 0-2.8 0-5.5 0-1.3 0-2.6 0c-8.1-.1-8.1-.1-11.7-2.3-2.8-3.8-3.4-6.4-3.3-11.1q0-1.8 0-3.6v-3.9q0-2 0-4 0-5.3.1-10.6 0-5.3.1-10.7 0-10.6.1-21.1-1.2 0-2.4 0-11 .2-22 .3-5.7 0-11.4.1-5.5.1-10.9.1-2.1 0-4.2 0-2.9.1-5.9.1-1.6 0-3.3 0c-2.9-.6-2.9-.6-5.2-3-3.3-5.1-2.9-10.3-2.9-16.2q0-1.2 0-2.5 0-2.6 0-5.2-.1-3.9-.1-7.9 0-2.5 0-5.1 0-1.1-.1-2.4c.1-4.7.4-8.3 3.4-12.3 6.3-3 13.5-2.3 20.4-2.2h3.8q5.1 0 10.2.1 5.1 0 10.3 0 10.2 0 20.3.1 0-.9 0-1.8 0-9.1-.1-18.2 0-3.3 0-6.7 0-4.9 0-9.8 0-1.5 0-3c0-17.7 0-17.7 3.5-22.1 3.2-2.9 4.5-3.5 8.6-3.5z" fill="#003b7b"/><path d="M583.3 110.1c5.8 6.2 9.8 13 9.9 21.6a42.08 42.08 0 0 0 .1 3.5q.1 8 .1 16.1 0 4.2.1 8.4.1 6.1.1 12.2.1 1.9.1 3.8c0 9.4-2.3 16.5-8.8 23.5-6.9 6.7-14.1 8.4-23.4 8.4-7.9-.3-13.9-2.8-19.4-8.6-7.4-9.4-8.3-18-8.3-29.6q0-1.7 0-3.4 0-3.6 0-7.1-.1-5.4-.1-10.8 0-3.5 0-7 0-1.6-.1-3.2c.1-11 2.2-18.8 9.9-26.8 11.7-10 27.4-9.1 39.8-1z" fill="#00468a"/><path d="M397.5 109.2c6.8 4.8 10.2 10.8 12.5 18.8.6 4.3.6 8.6.6 13q0 1.8 0 3.7 0 3.9 0 7.7 0 5.9.1 11.8 0 3.7 0 7.5.1 1.7.1 3.5c-.1 9.2-2.6 17-8.7 24-5.8 5.7-13.1 8.9-21.2 9.2-8.1-.3-15.4-3.2-21.5-8.7-8.1-9-8.7-16.8-8.8-28.5v-3.7q0-3.9 0-7.8-.1-6-.1-11.9-.1-3.8-.1-7.6 0-1.8 0-3.6c0-8.9 2.2-15.1 7.5-22.2 11.3-11 25.6-13.2 39.6-5.2zm-186.6-3.3c7.9 5.3 12.9 11.9 15.1 21.1.4 4.3.4 8.7.4 13q0 1.9 0 3.8 0 3.8 0 7.7 0 6 0 11.9 0 3.8 0 7.6 0 1.7 0 3.5c-.1 9.4-1.4 18.6-8.4 25.5-9.3 6.6-17.8 8.2-29 7-8.1-2.2-13.9-7.6-18.1-14.9-4.7-10.2-3.2-22.6-3.3-33.5q0-3.7 0-7.4-.1-5.3-.1-10.6c-.1-1.7-.1-1.7-.1-3.3 0-9.8 2.7-18.4 9.3-25.8 9-8 23.1-11.1 34.2-5.6z" fill="#00478b"/><path d="M464 403c3.1 2.6 3.8 4.3 4.8 8.2-1.2 5.9-4.8 9.4-8.8 13.8q-1.1 1.2-2.3 2.5-2.2 2.5-4.5 5c-2.1 2.4-4.1 4.9-6.1 7.4-3.7 4.7-7.6 9-11.6 13.3-2.4 2.7-4.7 5.5-7 8.3-3.1 3.8-6.2 7.4-9.5 11-4 4.4-7.8 8.9-11.6 13.6l-12.8 15.1q-3.9 4.4-7.7 8.9-.7.8-1.5 1.7-5 5.8-9.9 11.7-2 2.4-4.1 4.8-1.5 1.8-3 3.6-2.4 2.9-4.9 5.8c-.8.9-.8.9-1.5 1.8-2.2 2.6-4.1 4.6-7 6.5-4.3.3-7.3.3-11-2-1.9-2.1-1.9-2.1-4-4.8-3.5-4.4-7.1-8.6-11-12.7-4.5-4.8-8.6-9.6-12.7-14.7-3.5-4.2-7.1-8.1-10.8-12.1-6.5-7.1-6.5-7.1-6.5-9.7q-1 0-2 0c-2-2.1-3.8-4.2-5.6-6.5q-.8-.9-1.6-1.8c-2.6-3.3-4.1-5.7-4.2-10 .5-4.3 1-5.9 4.4-8.7 4.7-1.6 4.7-1.6 8-1 3.2 1.9 5.5 4.3 8 7q1.1 1.1 2.2 2.3c4.7 5.2 9.2 10.5 13.6 16 2.1 2.6 4.4 5.2 6.7 7.7 3.9 4.3 7.6 8.7 11.2 13.2 3.6 4.4 7.5 8.6 11.3 12.8 5.9-6.3 11.6-12.5 16.7-19.5q.6-.7 1.3-1.5 1 0 2 0 .4-.9.8-1.8c1.1-2.1 2.3-3.6 3.8-5.4q.8-.9 1.6-1.8.8-.9 1.7-1.9 1.8-2 3.5-4 .9-1 1.8-2.1 4-4.5 7.9-9.1 1.4-1.7 2.9-3.4.8-.9 1.5-1.8 2.3-2.6 4.6-5.3c4.6-5.3 9.1-10.6 13.5-16.1 3.8-4.7 7.8-9.1 11.9-13.5 3.2-3.6 6.3-7.4 9.3-11.1 2.9-3.6 6-7 9.1-10.4q2.8-3.1 5.5-6.4c4.2-4.7 7.7-4.4 13.6-2.9z" fill="#021154"/><path d="M893.9 728.1c3.3 1.4 5.3 3.9 7.1 6.9.7 3 .6 5.9.5 8.9q0 1.2 0 2.5-.1 4-.2 8 0 2.7-.1 5.4 0 6.6-.2 13.2 1.6 0 3.2-.1 6-.1 11.9-.2 2.6 0 5.1-.1 3.7-.1 7.4-.1l2.3-.1c4.2 0 5.9.4 9.1 3.1q1 1.2 2 2.5.5.5 1 1c.4 5 .2 8.1-3 12-4.6 2.9-8.5 3.4-13.8 3.3q-1.1 0-2.2 0-3.4 0-6.9-.1-2.3 0-4.7-.1-5.7 0-11.4-.1 0 1.6.1 3.2.1 5.9.2 11.9 0 2.5.1 5.1.1 3.7.1 7.3 0 1.2.1 2.3c0 4.1-.4 6.5-3 9.7-3.1 3-4.5 3.5-8.6 3.7-3.5-.4-5.4-1.9-8-4.2-2.3-4.2-2.3-8.3-2.2-12.9q0-1.1 0-2.3 0-3.6.1-7.1 0-2.4 0-4.9 0-5.9.1-11.8-1.5 0-3 0-5.6.1-11.2.2-2.4 0-4.8 0-3.5.1-7 .1h-2.1c-4.7 0-7.9-.8-11.9-3.3-2.4-2.9-2.5-6.3-2.4-10 .7-3.4 2.9-4.9 5.4-7l1-1q4-.1 8-.1 1.2 0 2.4 0 3.8 0 7.7 0 2.6 0 5.2.1 6.3 0 12.7 0 0-1.6 0-3.3-.1-6.1-.2-12.2 0-2.7 0-5.3-.1-3.8-.1-7.6v-2.4c0-4.6.4-7.5 3.3-11.2 3.6-3.1 6.4-3.3 10.9-2.9z" fill="#f4f4dc"/><path d="M657.1 452.6q1.7 0 3.6 0 4.8 0 9.7 0 5.1 0 10.2 0 8.6 0 17.1 0 9.9 0 19.8 0 8.5 0 17 0 5.1 0 10.1 0 5.7 0 11.3 0 1.7 0 3.4 0c8.5.1 15.7 1.4 22 7.6 7.6 8.3 6.2 19.3 6 29.9q-.1 2.6-.1 5.2-.1 6.3-.2 12.7h-13q0-2.5 0-5.1-.1-3.4-.2-6.8 0-1.6 0-3.3c-.2-8.7-1.9-15.9-8.2-22.2q-1.3-.8-2.6-1.6-1.3-.8-2.6-1.6c-4.4-1.8-8.2-1.8-13-1.8q-1.4 0-2.8 0-4.7 0-9.3 0-3.3 0-6.6 0-6.8-.1-13.6 0-8.7 0-17.4-.1-6.7 0-13.5 0-3.2 0-6.4 0-4.5 0-9 0h-2.7c-7.4.1-12.6 2-17.9 7.3-5.3 7.7-5.7 14-5.9 23.1q0 1.8-.1 3.6-.1 4.2-.2 8.5h-15q-.1-7.9-.2-15.8 0-2.7-.1-5.4-.1-3.8-.1-7.7 0-1.2-.1-2.4c0-7.2 2.4-12.7 7.3-18 6.8-6.1 14.5-6.1 23.3-6.1z" fill="#00478c"/><path d="M670.9 483.5q1.2 0 2.4 0 1.2 0 2.5 0 4.1-.1 8.3 0 2.8 0 5.7 0 6-.1 12 0 7.7 0 15.4 0 6-.1 11.9 0 2.8 0 5.7 0 3.9-.1 7.9 0h2.4c5.3 0 5.8.4 9.9 4.5v19h-94c0-23.4 0-23.4 9.9-23.5z" fill="#fdfefe"/><path d="M65 279h634v155h-59q0-.5 0-1c12.3-1.2 24.5-1.1 36.9-1.1q3.1 0 6.1.1 7.5 0 15 0-.5-1.5-1-3V281H64q.5-1 1-2z" fill="#fdfeef"/><path d="M793 812c2 2 2 2 2 5q-54 .1-108.1.1-6.3 0-12.7 0h-2.6q-20.5 0-41.1.1-21.1 0-42.2 0-13 0-26 0-8.9 0-17.9 0-5.1 0-10.3 0-5.5.1-11.1 0l-3.3.1c-1.5 0-1.5 0-3-.1q-1.3 0-2.6 0c-2.1-.2-2.1-.2-4.1-2.2h283q0-1.5 0-3z" fill="#d7dad9"/><path d="M479 611v99q-1 0-2 0v-95q-1-.5-2-1c2.9-3 2.9-3 4-3z" fill="#fcfcec"/><path d="M900 732c3.3 4.4 3.4 6.8 3.3 12q0 1.2 0 2.4-.1 3.7-.1 7.3 0 2.6-.1 5.1 0 6.1-.1 12.2 1.5 0 3 0 5.4-.1 10.9-.1 2.3 0 4.7-.1 3.4 0 6.8 0 1 0 2.1 0c3.7 0 6.4.2 9.5 2.2l-1 2-2-1q-4-.2-8.1-.3-1 0-2.1-.1-4-.1-7.9-.2L901 773l-1-41z" fill="#073172"/><path d="M515 164v24q-.5 0-1 0l-1-21-82-1q0-.5 0-1 15.3-.2 30.6-.4 7.2-.1 14.3-.2 6.8-.1 13.7-.1 2.6-.1 5.2-.1 3.7-.1 7.4-.1h2.2q5.3-.1 10.6-.1z" fill="#fdfef9"/><path d="M109 164h40v25c-2.1-3.2-2.2-4-2.2-7.7q0-1.2 0-2.4 0-1.5.1-3.1l.1-9.8-38-1q0-.5 0-1z" fill="#c2c7c8"/><path d="M465 404c3 1 3 1 4 3 .8 6.6-.3 10.6-4 16q-1 0-2 0c.4-2.5.9-3.9 2.6-5.8 2-3.2 1.7-5.5 1.4-9.2-.9-2.4-.9-2.4-2-4z" fill="#f5df02"/><path d="M610 195c1 3 1 3-.4 5.9q-.8 1.5-1.6 3.1 0 2 0 4l-6 3c1.4-3.8 3.2-7.3 5.1-10.8q.8-1.5 1.7-3 .6-1.1 1.2-2.2z" fill="#f8f9ee"/><path d="M611 121c1 3 1.1 4.7.9 7.9q-.1 1.4-.2 2.8-.1 1.5-.1 3-.1 1.5-.2 3-.2 3.6-.4 7.3-.5 0-1 0-.3-4.2-.5-8.3-.1-1.2-.1-2.4-.1-1.1-.2-2.3 0-1-.1-2.1c-.2-3.7.1-5.7 1.9-8.9z" fill="#091e60"/><path d="M813 716q1 .5 2 1c-1.4 4.4-3.3 6.3-7 9 0-3.4.5-4.1 2.5-6.7q.7-.9 1.4-1.9.5-.7 1.1-1.4z" fill="#091248"/><path d="M373 526c0 3.6-1.1 5-3 8q-.5 1-1 2-3 1.1-6 2c6.2-8.4 6.2-8.4 10-12z" fill="#fbdd01"/><path d="M450 436c0 3.7-.9 4.4-3.3 7.2q-.9 1.1-1.9 2.2C443 447 443 447 440 447l10-11z" fill="#f7e102"/><path d="M443 350c3.8.7 7.4 1.5 11 3q.5 1.5 1 3c-4.2-1.3-8.1-2.9-12-5q0-.5 0-1z" fill="#0e1052"/><path d="M73 156q.5 1.5 1 3l-8 5c1-4 1-4 4.1-6.3q1.4-.8 2.9-1.7z" fill="#081349"/><path d="M347 99q1 .5 2 1l-5 6q-2-1-4-2c2.1-2.3 4.1-3.9 7-5z" fill="#0b1a52"/><path d="M468 365c4.1 1.5 7.4 3.5 11 6q-1.5 1-3 2-2-1.7-4-3.4-1.1-1-2.3-2-.8-.8-1.7-1.6 0-.5 0-1z" fill="#141553"/><path d="M426 463q.5 1.5 1 3l-5 5q-1-.5-2-1l6-7z" fill="#ead105"/></svg>