<svg xmlns="http://www.w3.org/2000/svg" width="1024" height="1024" xmlns:v="https://vecta.io/nano"><path d="M345 0h41v2l2-1c5.746-.357 11.339.015 17 1v2l2-1c11.678.089 24.225 2.603 35.059 6.887 4.479 1.695 9.057 3.055 13.637 4.451C460.81 15.905 460.81 15.905 463 17v2l2.688.188c6.06.826 11.688 3.521 17.313 5.813v2l2.313.625c5.201 1.939 9.863 4.647 14.688 7.375l3.789 2.102 3.836 2.148 1.867 1.034c4.393 2.487 4.393 2.487 5.508 4.716 1.404.889 2.849 1.714 4.313 2.5l2.363 1.281a114.44 114.44 0 0 0 4.469 2.227C528.91 52.487 530.79 54.79 533 57l6 4 3 3c1.297.999 2.611 1.978 3.938 2.938 2.943 2.175 5.516 4.428 8.063 7.063l2.438 1.938c3.787 3.048 7.049 6.383 10.063 10.188 2.253 2.896 2.253 2.896 4.855 4.27 2.91 1.767 5.061 3.756 7.457 6.168l2.395 2.379C583 101 583 101 583 103l3 1v3l1.688.125c3.607 1.365 5.043 3.786 7.313 6.875v2l1.688.688c2.974 1.688 5.033 3.779 7.313 6.313v2l1.688.625c2.558 1.521 4 3.35 5.828 5.664 2.278 2.626 4.916 4.79 7.559 7.039 2.428 2.108 4.653 4.399 6.926 6.672l3 2v2l1.773.773c2.436 1.342 3.959 2.825 5.852 4.852 1.713 1.881 1.713 1.881 3.375 3.375h2l1.75 2.25c2.447 2.99 5.046 4.638 8.25 6.75v2l1.563.75c9.022 4.627 9.022 4.627 11.438 8.25a100.26 100.26 0 0 0 6 3l6 3v2l2.168.836c2.789 1.147 5.455 2.426 8.145 3.789l2.676 1.352L692 193v2l2.09.344c3.32.749 6.312 1.896 9.473 3.156 5.126 2.046 5.126 2.046 10.438 3.5v2l1.796.345c6.484 1.269 12.907 2.728 19.329 4.28l2.898.695L745 211v2l3.688.352c6.164.687 12.225 1.851 18.313 3.023l3.406.633c5.583 1.07 10.903 2.314 16.257 4.216 4.88 1.621 9.907 2.745 14.899 3.964l3.346.826L813 228v2l1.66.262c8.064 1.429 15.63 4.045 23.34 6.738v2l1.652.516c5.632 1.81 10.987 3.988 16.348 6.484v2l2.375.625c6.944 2.634 12.883 6.719 18.625 11.375l3.688 2.063C884 264 884 264 886 267a132.04 132.04 0 0 0 5 3c2.313 1.563 2.313 1.563 4 3v2l1.813.813c2.206 1.197 3.623 2.232 5.188 4.188v3l2.375.25L907 284l2 4c1.832 1.86 1.832 1.86 3.938 3.563 6.671 5.599 6.671 5.599 7.938 8.313 1.104 2.336 1.104 2.336 3.5 4.5 2.692 2.692 4.67 5.366 6.625 8.625v2l3 1c1.387 1.996 1.387 1.996 2.688 4.438l1.324 2.434C939 325 939 325 939 327h2l3.5 6.875 1.012 1.973C948 340.773 948 340.773 948 343h2l3.5 8.75 1.012 2.5.957 2.422.889 2.222C957 361 957 361 957 365h2c2.704 9.521 5.343 19.011 7.422 28.691.355 2.257.355 2.257 1.578 3.309l-.062 2.125c-.058 2.978-.058 2.978 1 6.125 1.955 6.901 2.176 13.639 2 20.781-.162 1.972-.162 1.972 1.063 2.969.093 1.382.117 2.768.114 4.153v2.669l-.016 2.901-.004 2.955-.031 9.385-.014 6.346L972 473h-2l1 2c.07 1.54.085 3.083.063 4.625l-.027 2.477L971 484h-2l1 2a105.46 105.46 0 0 1-.312 6.188l-.238 3.355c-.476 3.659-1.389 6.923-2.449 10.457l-1.219 4.918-.637 2.611-1.289 5.352-.637 2.6-.564 2.341c-.667 2.223-1.603 4.116-2.654 6.179-.377 1.657-.721 3.323-1 5h-2l-.687 3.75c-2.786 12.289-9.344 23.276-15.312 34.25h-2l-.34 2.199c-.69 2.926-1.715 5.024-3.223 7.613l-1.379 2.395L933 587h-2l-.687 2.563c-1.347 3.529-2.991 5.973-5.289 8.922-1.21 1.487-1.21 1.487-1.023 3.516l-1.687 1.563c-2.755 2.904-4.344 5.97-6.164 9.512C915 615 915 615 913 616c-.758 1.263-1.457 2.562-2.125 3.875-2.592 4.851-5.741 9.108-9.105 13.449-1.889 2.857-2.748 5.418-3.77 8.676-1.047 2.205-2.133 4.392-3.25 6.563l-1.883 3.734-3.484 6.906c-4.203 8.668-6.875 17.53-9.383 26.797h-2l-.312 3.563c-.499 4.524-1.305 8.975-2.187 13.438l-.396 2.033c-.98 4.843-.98 4.843-2.104 5.967-.118 1.859-.167 3.723-.189 5.586l-.051 3.622-.041 3.952-.056 4.041-.163 12.861-.192 14.834-.068 5.922c-.084 6.143-.301 12.107-1.24 18.181h2v20h-2l.5 2.25c.701 5.254.577 10.458.5 15.75h-2l1 8h-3l1 2c.125 3.063.125 3.063 0 6l-1 1-.25 3.875c-.74 8.575-3.451 16.864-5.75 25.125h-2l-.344 2.547c-.713 3.75-1.845 7.12-3.156 10.703l-1.344 3.703C854 884 854 884 853 886h-2l-.324 2.133c-.76 3.225-1.977 5.796-3.488 8.742l-1.52 2.992c-3.415 6.414-7.12 12.379-11.293 18.32l-2.914 4.168-1.288 1.833c-1.226 1.811-1.226 1.811-2.179 3.891-1.459 2.817-3.759 4.685-5.995 6.921l-2.125 3.188C818 941 818 941 815 943l-1.375 2.375c-1.86 3.005-3.862 4.427-6.625 6.625-1.816 1.975-3.557 4.004-5.301 6.043-2.12 2.441-4.383 4.703-6.699 6.957l-2.125 2.25C791 969 791 969 788 970l-2.312 2.313c-2.705 2.705-5.516 4.573-8.687 6.688l-2 3c-1.314.704-2.652 1.363-4 2l-3.125 2.125C765 988 765 988 763 988v2l-6.375 3.5-1.828 1.012C750.227 997 750.227 997 748 997v2l-6.812 3-1.947.867c-2.918 1.27-5.023 2.133-8.24 2.133v2l-14.187 4.625-2.154.695c-2.995.947-5.497 1.68-8.658 1.68v2l-11.187 2.5-3.197.723-3.096.684-2.841.635c-2.616.448-5.033.466-7.679.459l-1 1h-6l-1 1c-7.522.239-7.522.239-10-1v2l-15.588.055-5.302.021-7.625.022-2.39.016c-3.558 0-6.664-.25-10.094-1.113h-3.187H613l-1-1h-2.5-2.5l-1-1c-1.518-.137-3.04-.233-4.562-.312-7.699-.609-15.007-2.683-22.437-4.687v-2l-2.91-.309c-4.702-.672-9.055-2.2-13.527-3.754l-2.506-.854L554 1007v-2l-2.105-.34c-3.265-.745-6.131-1.904-9.207-3.223l-3.238-1.379L537 999v-2l-1.652-.516c-5.632-1.81-10.987-3.988-16.348-6.484v-2l-2.105-.309c-3.385-.809-6.117-2.158-9.207-3.754l-3.238-1.66L502 981v-2l-1.687-.516c-5.408-1.718-10.293-3.838-15.312-6.484v-2l-1.652-.516c-5.632-1.81-10.987-3.988-16.348-6.484v-2l-3.25-.687c-5.834-1.437-11.258-3.915-16.75-6.312v-2l-2.941-.34c-4.467-.638-8.689-1.905-12.996-3.223l-2.361-.709L423 946v-2l-3.937-.437c-3.937-.437-3.937-.437-5.062-1.562a123.14 123.14 0 0 0-5.562-.562l-3.066-.254L403 941v-2l-2 1c-2.69.187-5.297.086-8 0l-1-1c-1.706-.157-3.417-.251-5.129-.316l-3.135-.127-3.299-.119-3.311-.131L369 938v2l-5.312.063-2.988.035C358 940 358 940 355 939v2l-4.375.063-2.461.035C346 941 346 941 344 940v2l-7.562 1-2.135.289A87.96 87.96 0 0 1 321 944v2c-6.75.125-6.75.125-9-1v2c-5.75.125-5.75.125-8-1v2c-5.305.943-10.356 1.055-15.742.938-2.227-.197-2.227-.197-3.258 1.063-1.382.093-2.768.117-4.153.114h-2.669l-2.901-.016-2.955-.004-9.385-.031-6.346-.014L241 950v-2l-2 1c-9.055 1.03-18.161-1.277-27-3v-2l-3.871-.309c-5.308-.59-10.142-2.066-15.191-3.754l-2.623-.854L184 937v-2l-3.312-.687c-5.542-1.363-10.564-3.845-15.687-6.312v-2l-2.168-.316c-3.144-.759-5.384-1.949-8.145-3.621l-2.676-1.59L150 919v-2l-2.691-.762c-3.416-1.278-5.48-2.706-8.246-5.051-2.897-2.41-5.767-4.744-8.875-6.875-3.069-2.226-5.548-4.604-8.187-7.312l-2.437-1.875c-2.791-2.314-4.953-4.83-7.23-7.637-1.283-1.617-1.283-1.617-3.332-2.488l-.852-1.762c-1.445-2.817-3.347-4.755-5.523-7.051-2.65-2.879-5.038-5.539-6.875-9-1.596-3.275-1.596-3.275-4.25-5.625-2.726-2.794-4.046-5.36-5.605-8.891-.788-1.859-.788-1.859-2.895-2.672a150.67 150.67 0 0 1-3.625-7.437l-.984-2.104C76 835.271 76 835.271 76 833h-2l-3.5-9.312-1.012-2.67-.957-2.568-.889-2.365C67 814 67 814 67 811h-2l-3-10.125-.867-2.883C59.741 793.219 58.593 789.03 59 784h-2l-.184-2.152-.254-2.785-.246-2.777c-.077-2.247-.077-2.247-1.316-3.285v-6l-1-1c.176-2.691.618-5.329 1-8h-2c-.125-6.75-.125-6.75 1-9h-2l-.062-6.187-.035-3.48A39.4 39.4 0 0 1 53 731h-2v-17h1l-.016-1.912-.047-8.526-.025-3.01-.01-2.861-.016-2.65C52 693 52 693 53 692c.072-1.519.084-3.042.063-4.562l-.027-2.504L53 683h2l-1-2c.063-2.357.198-4.712.375-7.062l.273-3.848C55 667 55 667 56 666l-.062-2.687c.067-3.563.934-5.945 2.063-9.312.528-2.413 1.017-4.834 1.473-7.262l.388-2.038 1.202-6.388 1.213-6.42 1.092-5.801C64 623 64 623 65 620h2l.309-3.652c.713-6.42 2.257-12.635 3.754-18.91l.854-3.635L74 585h2l.313-3.125c.925-7.397 2.34-14.936 4.754-21.992.885-2.733 1.251-5.03 1.434-7.883.179-2.795.504-5.013 1.434-7.668 1.436-4.486 1.998-8.987 2.629-13.645l.754-5.426.326-2.407C88 521 88 521 89 520v-3.5c0-3.5 0-3.5 1-4.5.237-2.526.422-5.031.563-7.562l.131-2.154L91 497h3l-2-3c-.258-2.695-.089-5.285 0-8h3l-1-3c-.084-2.284-.107-4.57-.098-6.855l.004-2.005.031-6.327.014-4.295L94 453l-2-1 .07-1.941c.114-5.482-.504-9.773-2.07-15.059-.12-2.675-.046-5.321 0-8l-1-1c-.678-3.683-1.089-7.411-1.562-11.125l-.42-3.133c-.559-4.321-1.106-8.559-1.045-12.922L86 396l-1-1c-.141-2.671-.042-5.324 0-8h-2v-7h2v-2h-3l.063-3.437c.353-3.378.353-3.378-1.062-4.562-.237-6.525-.237-6.525 1-9h-2l-.062-4.875-.035-2.742C80 351 80 351 81 349h-2l-.062-5.812-.035-3.27C79 337 79 337 80 334h-2v-33h2l-.492-1.613c-.618-2.903-.64-5.607-.633-8.574l-.008-3.23C79 285 79 285 80 284c.072-1.519.084-3.042.063-4.562l-.027-2.504L80 275h2l-1-2c-.125-3.562-.125-3.562 0-7l1-1c.287-2.971.449-5.942.621-8.922.372-3.02 1.119-5.324 2.379-8.078h2l-.576-2.622c-.451-3.592-.091-5.942.791-9.433l.83-3.359.893-3.461.881-3.531L92 217h2l.297-2.02a84.27 84.27 0 0 1 4.801-17.57A48.04 48.04 0 0 0 101 191h2l.34-2.074c.768-3.403 1.944-6.493 3.223-9.738l1.379-3.52L109 173h2l.516-1.652c1.81-5.632 3.988-10.987 6.484-16.348h2l.688-2.375c2.224-6.142 4.647-11.995 9.313-16.625 1.611-2.566 3.098-5.188 4.598-7.82C136 126 136 126 138 125c1.381-2.317 2.711-4.633 4-7 2.202-4.02 4.765-6.765 8-10l2-3c2.07-3.105 4.302-5.433 7-8a135.69 135.69 0 0 0 8.5-9.062c2.62-3.035 5.341-5.461 8.5-7.937l4-5c3.739-4.178 7.962-7.161 12.598-10.254 2.402-1.746 4.312-3.644 6.402-5.746l6.313-5 1.646-1.289C216.976 45 216.976 45 221 45l1-3c2.398-1.605 2.398-1.605 5.375-3.187l2.961-1.605C233 36 233 36 236 36l1-3c2.836-1.605 2.836-1.605 6.375-3.187l3.523-1.605C250 27 250 27 253 27v-2l6.813-3 1.947-.867C264.678 19.863 266.783 19 270 19v-2l2.152-.687 9.785-3.126 3.385-1.08 3.33-1.064 3.28-1.048 10.101-3.431c2.881-.826 5.747-1.07 8.729-1.255 2.375-.252 2.375-.252 5.055-1.293 3.541-1.13 6.729-1.463 10.434-1.703l3.703-.262C333 2 333 2 335 3V1c7.75-.125 7.75-.125 10 1V0z" fill="#fefefe"/></svg>