<svg xmlns="http://www.w3.org/2000/svg" width="1024" height="1024" xmlns:v="https://vecta.io/nano"><g fill="#fecf1a"><path d="M521 135h2.6c58.9 1.2 117.5 18.8 169.4 46q1 .5 2.1 1.1c38.9 20.5 77.5 50.5 104.8 85.2 1.9 2.5 4 4.9 6 7.2 7 8.1 13.1 16.7 19.1 25.5q.7 1 1.4 2.1c10.5 15.6 19.5 32 27.6 48.9.5 1.1.5 1.1 1.1 2.2 23.1 48.2 34.5 101.1 34.1 154.5q0 1.5 0 3c-.1 25.9-2.1 50.8-7.2 76.3-.4 1.8-.4 1.8-.7 3.6-6.2 30.2-16 59.6-29.3 87.4q-.6 1.3-1.3 2.7c-20 42.4-49.9 82.7-85.7 113.3q-1.5 1.3-3.1 2.7C739 816.8 713.3 834.2 686 848q-1.2.6-2.5 1.3c-43.6 22.2-90.3 33.3-138.5 38.7q-1.5.2-3.1.4c-9.2.8-18.3.8-27.5.8q-1.3 0-2.6 0c-92.6-.2-183.8-33.4-252.5-96.1q-2.9-2.7-6-5.2c-8.7-7.6-17.1-15.9-24.5-24.7q-2.2-2.7-4.6-5.3c-22-24.7-40.1-53-54.2-82.9q-.5-1.1-1.1-2.2c-19-40.1-29-82.9-33.9-126.8q-.2-1.3-.3-2.7c-9-83.9 16.3-173.4 72-253.6q1.9-2.5 3.8-5c14.5-19.4 31-38 49.5-53.7l2.9-2.5c71.9-61.6 163.1-96 258.1-93.5z"/><path d="M264 228q.9 1.1 1.7 2.2 2.1 2.6 4.3 5.2c14.1 16.7 24.5 35.9 34 55.6q1.5 3 3 6c11.1 22 19.2 46 26.3 69.5q1.1 3.7 2.2 7.4c4.8 15.4 7.7 31.2 10.5 47.1q.3 1.6.6 3.3C360 498.2 355.7 578.8 335 651q-.4 1.4-.8 2.8c-3.3 11.4-6.9 22.7-11.3 33.8q-1.6 4.3-3.2 8.6c-11.7 31-26.9 60.2-46.7 86.8q-.7.9-1.3 1.8c-5.2 6.8-5.2 6.8-7.7 9.2-5 0-6.6-1.9-9.9-5.2q-.9-.8-1.7-1.6-2.7-2.6-5.4-5.2c-.9-.8-.9-.8-1.8-1.7-5.6-5.5-11.2-11-16.3-17.1q-2.3-2.7-4.7-5.4c-22-24.6-40.1-52.9-54.2-82.8q-.5-1.1-1.1-2.2c-19-40.1-29-82.9-33.9-126.8q-.2-1.3-.3-2.7c-9-83.9 16.3-173.4 72-253.6q1.9-2.5 3.8-5c15.3-20.4 32.9-41.5 53.5-56.7zm496 1c14.9 6.4 30.1 25.8 39.9 38.4 1.9 2.4 4 4.8 6 7.1 7 8.1 13.1 16.7 19.1 25.5.7 1.1.7 1.1 1.4 2.1 10.5 15.6 19.5 32 27.6 48.9q.5 1.1 1.1 2.2c23.1 48.2 34.5 101.1 34.1 154.5q0 1.5 0 3c-.1 25.9-2.1 50.8-7.2 76.3-.4 1.8-.4 1.8-.7 3.6-6.2 30.2-16 59.6-29.3 87.4q-.6 1.3-1.3 2.7c-19.6 41.6-49.1 82.8-84.7 112.3-27.4-11.5-48.7-68.2-59.1-93.3-16.4-40.2-26.9-81.7-32.4-124.8q-.5-3.7-1-7.5c-5-36.2-3.8-74-.5-110.4.1-1.7.1-1.7.3-3.3 5.6-66 25.9-135.7 61.7-191.7q1.1-1.7 2.1-3.4c4-6.1 8.3-11.9 12.9-17.6q1.1-1.4 2.1-2.8 1.1-1.3 2.2-2.8 1-1.2 2-2.5.8-1 1.7-1.9 1 0 2 0 0-1 0-2z"/></g><path d="M719 199c5.9 1.3 10 3.7 14.9 7.3q1.1.7 2.2 1.5c22.5 16.4 22.5 16.4 24.9 21.2q-.5 1-1 2-1 0-2 0c-.4.8-.4.8-.7 1.7-1.6 2.9-3.6 5.1-5.8 7.6-21.3 25.1-35.5 56.6-47.5 87q-.4 1-.8 2c-3.5 8.8-6.6 17.6-9.2 26.7q-.3.9-.6 1.9c-9.4 32.5-16.6 65.3-19.4 99.1q-.2 1.7-.3 3.4c-3.5 39.4-3.4 79.4 2.3 118.6q.2 1.1.3 2.3C687 656.2 712.1 736.9 765 793c-12 12.3-26.2 23.2-41 32-7.3-5.5-12.5-12.7-18-20q-.6-.8-1.2-1.6c-15.5-20.1-27.6-43.4-37.7-66.6q-.4-1.1-.9-2.1c-17.7-40.8-30.5-83.2-38.8-126.8q-.5-2.6-1-5.1c-8.9-46.4-10.4-95.8-5.7-142.7q.5-4.9.9-9.8c2.4-26 7.1-51.9 13.4-77.3q.2-1 .5-2 1.7-6.5 3.5-13 .3-1 .6-2.1c8.3-29.1 18.2-58 32.3-84.8q1.8-3.5 3.6-7c12-23.6 26.3-45 43.5-65.1zm-415 1.6c27.5 20.1 45.5 66.6 57.9 96.7q1.1 2.6 2.2 5.3c33.6 79.6 44.5 167.7 37.9 253.4q-.1 1.4-.2 2.8c-1.9 24.2-6.1 48.4-11.1 72.1q-1.1 4.9-2.1 9.7c-3.1 14.7-7 29-11.6 43.3q-2.1 6.6-4.1 13.1c-2.4 7.9-5.1 15.5-8.5 23-1.9 4-3.5 8.1-5.2 12.2-5.3 12.5-10.8 24.8-17.2 36.8-.6 1-.6 1-1.1 2.1-10.6 19.9-23.5 38.5-38.9 54.9-8.5-5.1-16.3-10.8-24-17q-1.5-1.2-3.1-2.5c-4.5-3.6-8.8-7.3-12.9-11.5q.7-.7 1.3-1.4c34-36.5 56.7-90.3 69-138q.9-3.4 1.9-6.9 1.4-5.4 2.8-10.7.5-1.7.9-3.5c2.6-10 4.6-20.1 6.3-30.4q.6-4 1.3-8c9.6-56.3 10.3-115.6.1-171.9q-.6-3.4-1.2-6.8c-11.2-64.1-34.7-135.8-78.2-185.5-1.2-1.9-1.2-1.9-1-3.8 1-2.5 2-3.5 4.1-5.2q1.1-.8 2.1-1.7 1.1-.9 2.3-1.8 1.1-.9 2.3-1.9 7.2-5.8 14.8-11.2.8-.7 1.6-1.3c7.8-5.5 7.8-5.5 11.6-4.4z" fill="#f88f00"/></svg>