<svg xmlns="http://www.w3.org/2000/svg" width="1024" height="1024" xmlns:v="https://vecta.io/nano"><path d="M293.2 232.8c4.5 3.6 8.5 7.8 10.8 13.2q0 1.5 0 3 1.1-.4 2.3-.7c7.5-2.3 15.1-4.1 22.8-5.5q1.4-.2 2.7-.5c13.9-2.5 27.8-2.5 41.8-2.6q1.5 0 3.1 0c23.4.1 45.5 2.5 68.3 8.3q.6-1 1.3-2c6.4-9.6 12.2-15.2 23.7-18 22.5-3.6 51.3 13.5 71 22q1.6.7 3.3 1.4 9.4 4.1 18.8 8.3 2.8 1.3 5.7 2.5c9.6 4.3 18.4 8.5 26.2 15.8q.9.8 1.9 1.6c13.3 12 20.4 32.1 21.4 49.7.4 11.7-.7 22.5-8.6 31.8-8.9 9.6-18.4 15.1-31.6 16.1-18.9.5-33.8-7.9-48.1-19.2q-2-1.5-4-3c.5 1.5.5 1.5 1.1 3.1 9.8 27.8 15.3 56.7 15.3 86.3v2c0 23.1-4.1 46.6-19.4 64.6q1.2 0 2.4 0 71.3.1 142.5.2 8.6 0 17.2 0h3.4q27.6.1 55.2.1 28.3 0 56.6.1 17.4 0 34.9 0 12 0 24 0 6.9.1 13.8 0 6.3 0 12.6.1 2.3 0 4.6 0c13-.1 24.9 1.5 34.8 10.5q1.3 1.1 2.6 2.2c7.1 8.2 10.9 16.7 10.6 27.5-.9 10.6-5.4 19.5-13.2 26.8-7 5.4-14.4 7.3-23 8.5 0 1.2 0 1.2.1 2.5.2 11.8-1 23.4-2.2 35.1q-.2 1.6-.4 3.2c-6 56.9-14.6 118-55.5 161.2q-.7.7-1.4 1.5c-6.5 7-13.4 13.1-21.2 18.8q-1.1.8-2.3 1.7c-6 4.2-6 4.2-10.1 5q.3.9.6 1.8c11.3 34 11.3 34 5.4 49.2-4.5 8-10.5 11.2-19 14-11.3 2.7-21.1.6-31-5.3-4.4-2.9-7.7-6.5-11.2-10.4-11.8-14.7-11.8-14.7-27.8-23.2-4.8-.2-9.4.5-14.2 1.4-3.7.7-7.4.8-11.3.9q-4.7.1-9.5.3c-35.8 1.4-71.7 1.5-107.5 1.5q-6.3 0-12.6 0-21 0-41.9 0-1.1 0-2.3 0-1.1 0-2.2 0-18.1 0-36.1 0-18.8 0-37.6 0-10.4 0-20.9 0c-33 .1-65.9-.4-98.9-1.6q-6.9-.3-13.8-.5-3.2-.1-6.3-.2-4.4-.2-8.7-.3-1.3-.1-2.5-.1c-6.2-.1-9.6 1.8-14.1 5.9-1.8 1.8-1.8 1.8-3.2 3.5q-.8.9-1.5 1.8c-.8.9-.8.9-1.6 1.9q-2.4 2.6-4.8 5.3-1.6 1.7-3.1 3.4c-7.5 8.4-17.9 15.8-29.4 16.7q-1.1.1-2.2.2c-9.2.4-17.6-2-24.8-7.9-6.2-6-8.6-12.7-9.1-21.2.4-12.5 5-24.5 9.1-36.1l-2.8-1.8c-41.7-26.9-65.2-67.4-75.8-115.3q-1.4-6.8-2.7-13.5-.7-3.5-1.4-6.9c-2.2-10.1-3.6-20.2-4.8-30.4-.2-1.3-.2-1.3-.3-2.6q-2.3-18.5-4-37-.1-1-.2-2.1c-.6-6.8-1.2-13.5-1-20.4q-1-.1-2.1-.3c-9.8-1.4-18.2-5.3-24.9-12.7-7.2-10.1-9.2-19.7-8-32 2.3-9.3 7.6-17.8 15.7-23.1 9.6-5.6 18-7 29-7.1q1.6 0 3.2 0 5.3-.1 10.5-.1 3.7 0 7.3-.1 9.6-.1 19.2-.1 9.8-.1 19.6-.2 19.3-.2 38.5-.3-.6-.7-1.2-1.4-.8-.9-1.7-1.9-.8-.9-1.6-1.8c-2.3-2.9-4-6.1-5.6-9.5-.5-1-.5-1-1.1-2.1-3.1-6.5-5.3-13.2-6.8-20.3q-.3-1.2-.5-2.5c-1.8-9.1-1.9-18.1-1.8-27.4q0-1.2 0-2.5c0-13.1.9-25.7 3.3-38.6q.4-2.5.8-4.9c5.5-30.5 5.5-30.5 12.2-43.1q-1.3 1-2.7 2.1C206.9 369.6 190.2 379 169 377c-12.3-2.6-21.5-9-29-19-7.6-12-7.8-27.6-5-41.2 4.8-19.7 14.9-35.6 32-46.8 4.4-2.5 8.9-4.7 13.5-6.8q1.9-.9 3.8-1.8c17.7-8.4 35.8-16 54-23.1q2-.8 3.9-1.6c16.9-6.6 33.9-13.3 51-4z" fill="#fed00d"/><path d="M124 609h777l-3.8 38.1q-.3 2-.5 4c-6.3 46.7-15.5 98-48.7 133.9q-.9.9-1.8 1.9c-24.8 26.6-24.8 26.6-37.2 29.1q.3.9.6 1.8c11.3 34 11.3 34 5.4 49.2-4.5 8-10.5 11.2-19 14-11.3 2.7-21.1.6-31-5.3-4.4-2.9-7.7-6.5-11.2-10.4-11.8-14.7-11.8-14.7-27.8-23.2-4.8-.2-9.4.5-14.2 1.4-3.7.7-7.4.8-11.3.9q-4.7.1-9.5.3c-35.8 1.4-71.7 1.5-107.5 1.5q-6.3 0-12.6 0-21 0-41.9 0-1.1 0-2.3 0-1.1 0-2.2 0-18.1 0-36.1 0-18.8 0-37.6 0-10.4 0-20.9 0c-33 .1-65.9-.4-98.9-1.6q-6.9-.3-13.8-.5-3.2-.1-6.3-.2-4.4-.2-8.7-.3-1.3-.1-2.5-.1c-6.2-.1-9.6 1.8-14.1 5.9-1.8 1.8-1.8 1.8-3.2 3.5q-.8.9-1.5 1.8c-.8.9-.8.9-1.6 1.9q-2.4 2.6-4.8 5.3-1.6 1.7-3.1 3.4c-7.5 8.4-17.9 15.8-29.4 16.7q-1.1.1-2.2.2c-9.2.4-17.6-2-24.8-7.9-6.2-6-8.6-12.7-9.1-21.2.4-12.5 5-24.5 9.1-36.1q-1.4-.9-2.8-1.8c-41.7-26.9-65.2-67.4-75.8-115.3q-1.4-6.8-2.7-13.6-.7-3.4-1.4-6.7c-2.3-10.6-3.6-21.2-4.9-31.9q-.4-2.7-.7-5.3-.9-7.2-1.7-14.4-.2-1.5-.4-3.1c-.6-5.4-.6-10.4-.6-15.9z" fill="#fed00c"/><path d="M723.8 136.8q1.3 0 2.6 0 4.3 0 8.7 0l3-.1q7.8 0 15.7 0 8.1 0 16.2-.1 6.2 0 12.5 0 2.9 0 5.9-.1c26.1-.2 48.6 6.7 67.7 25.1 15.2 15.3 24.2 36.4 24.3 58q0 1.7 0 3.4 0 1.9 0 3.8 0 5.1-.1 10.2 0 5.6 0 11.1 0 9.6 0 19.2 0 13.9 0 27.7 0 22.5-.1 45 0 21.8 0 43.7 0 1.3 0 2.7 0 6.8 0 13.5-.1 56.1-.2 112.1h-47v-11.2q0-50.8-.1-101.6 0-6.7-.1-13.4 0-1.3 0-2.7 0-21.4 0-42.9 0-22-.1-44.1 0-13.6 0-27.2 0-9.3 0-18.6 0-5.4 0-10.8 0-5.8-.1-11.7.1-1.6.1-3.3c-.2-11.7-3.9-21.9-12.1-30.3-7.9-6.6-16.1-9.3-26.2-9.4q-1.1 0-2.3 0-3.7-.1-7.5-.1-1.2 0-2.6 0-6.8 0-13.6-.1-5.6 0-11.2 0-6.8-.1-13.6-.1-2.6 0-5.1-.1c-12.1-.3-12.1-.3-23 4.5-1.5 1.1-1.5 1.1-3.5 1.1q.8 1 1.7 2c8.9 10.6 15.4 20.6 19.3 34q.3 1 .6 1.9c1.8 7.1 1.7 14.1 1.7 21.3q0 1.8.1 3.8 0 1.8 0 3.6 0 1.6 0 3.3c-.5 4.2-2 7.6-4.9 10.7-5.4 4.2-9.8 5.2-16.5 4.4-4.1-1.1-8-2.7-11.9-4.3q-1.7-.6-3.5-1.3-4.6-1.8-9.2-3.6-4.8-1.9-9.6-3.8-6.8-2.7-13.5-5.4-10.9-4.3-21.9-8.4-4.1-1.7-8.3-3.3-2.6-1-5.2-1.9c-24.7-9.5-24.7-9.5-28.9-18-.8-4.9-.4-9 2.1-13.4 7.8-10.5 21.2-18.8 32.7-24.5 4.6-2.4 7.2-5.3 10-9.7 15.1-22.3 37.4-33.9 63.2-39.4q1.1-.3 2.2-.5c3.8-.7 7.7-.7 11.6-.7z" fill="#1fb3dc"/><path d="M702.6 418.7l6.4 5.3q1 .9 2.1 1.8c8.4 7.9 13.6 18.1 18.9 28.2q.9-.6 1.7-1.2c14.5-9.3 32.4-12.3 49.3-8.8 21.5 5.2 37.3 17.4 49 36 4.8 9.6 2 21.3 2 32H522l7-11c3.2-5.6 5.8-10.4 6.9-16.7 2.5-13.6 2.5-13.6 7.4-17.2 4.1-2.2 8.3-3.7 12.7-5.1 1.8-.7 1.8-.7 3.7-1.3 10.7-3.5 24.3-4.8 35.3-1.7q.5-1.8 1.1-3.7c3.7-11.1 9.6-20.1 17.9-28.3q.9-.9 1.9-1.9c23.6-22.5 60-24.1 86.7-6.4z" fill="#9ceaee"/><path d="M123 587h779c0 15 0 15-1 22H124c-2.3-7-1-14.7-1-22z" fill="#fba606"/><path d="M541 250q1.6.7 3.3 1.4 9.4 4.1 18.8 8.3 2.8 1.3 5.7 2.5c9.6 4.3 18.4 8.5 26.2 15.8q.9.8 1.9 1.6c13.3 12 20.4 32.1 21.4 49.7.4 11.7-.7 22.5-8.6 31.8-8.9 9.6-18.4 15.1-31.6 16.1-18.8.5-33.8-7.8-48.1-19.2q-1.2-1-2.5-2-1.2-1-2.5-2-1.3-1-2.6-2.1c-20.2-16.3-32.9-35.5-42.9-59.2-9.8-24.9-9.8-24.9-28.4-42.2q-2.1-.8-4.1-1.5c.7-7.3 4.7-11.2 10-16 24.7-15.1 61.1 7.1 84 17zm-247.8-17.2c4.5 3.6 8.5 7.8 10.8 13.2q0 1.5 0 3-1 .4-1.9.8c-19.6 8.9-27.2 34.1-35 52.6-8.5 20.3-22.2 38.6-40.1 51.6q-2.3 1.8-4.5 3.6c-14.7 11.6-30.8 20.6-50 19.8-12.7-1.5-22.6-7.4-30.8-17.1-8.6-11.5-9.2-25.7-7.4-39.5 3.3-19.7 13.3-36.7 29.4-48.5 5.2-3.7 11-6.4 16.8-9.1q1.9-.9 3.8-1.8c17.7-8.4 35.8-16 54-23.1q2-.8 3.9-1.6c16.9-6.6 33.9-13.3 51-4z" fill="#fba706"/><path d="M404.4 76.5L407 78q1.2.6 2.4 1.3c10.3 6.1 17.3 16.6 20.2 28.1 2 13.4.1 26.5-8 37.6-8.6 10.5-18.7 16.7-32.5 18.4-14 .4-26-5-36.2-14.4-8.5-9.1-12.5-19.5-12.4-31.8q0-1.3 0-2.7c.3-11.3 4.7-20.3 12.5-28.5 14-12.7 33.8-18.3 51.4-9.5z" fill="#9ce9ee"/><path d="M405 403c4.3 4.2 6.2 7.6 6.4 13.6-.1 6.3-1.7 10.3-5.4 15.4q-1.1 1.6-2.3 3.2c-6.2 6.4-11.7 9.5-20.7 9.8.3 9.3.3 9.3 5 17 8.6 6.5 17.5 7.2 28 6 7.3-1.9 13-4.5 17-11q1.7-3.5 3.2-7.1c.8-1.9.8-1.9 1.8-2.9 6.4-.5 6.4-.5 8.7 1.3 1.6 2.1 1.6 3.1 1.4 5.8-1.4 8.8-6.9 15.5-13.6 21.1-11.3 8-23.1 8.9-36.5 7.8-8.7-2-15.4-7.3-22-13-.8.8-.8.8-1.7 1.6-10.8 10.2-20.8 12-35.2 11.7-10.3-.4-17.6-4.8-24.9-11.9-4.9-5.4-9.3-11-9.4-18.5.2-3.9.2-3.9 2.2-5.9 6.3-.6 6.3-.6 8.6 1.2 1.6 2 2.3 3.8 3.2 6.1 2.7 6.3 6.8 10 13.2 12.6 10.7 3 21 1.6 31-2.9q1.5-.5 3-1c1.2-2.4 1.2-2.4 2-5l1-2q.3-2.8.6-5.6l.2-3.1q.1-1.1.2-2.3-1.9 0-3.9-.1c-7.6-.8-13.4-5.8-18.5-11.3-4.5-5.7-7.4-12-7-19.4 1.1-5.5 4.3-9.6 8.7-13 15.4-10 41-9.2 55.7 1.8z" fill="#584d0d"/><path d="M207.9 112.4c8.3 6.5 14.6 14.9 16.1 25.6.9 12.7-1.4 22.7-9 33-6.9 7.7-17.2 12.3-27.4 13.2-11.9.5-22.6-4.3-31.4-12.4-8.9-9.5-10.8-19.7-10.5-32.2.5-9.8 4.9-17.3 11.6-24.3 14.8-12.6 34.7-14.4 50.6-2.9z" fill="#9ce9ee"/><path d="M750.9 307.6c8.5 4.5 13.7 10.4 17.1 19.4 2.5 10.1.7 17.9-4 27-3.8 6.1-10.3 9.8-17 12-9.5.8-18.1 1-26-5-6.5-5.7-10.3-12.6-11.4-21.1-.3-9.1 1.4-17.3 6.9-24.7 8.9-9.3 22.3-12.4 34.4-7.6z" fill="#9be9ee"/><path d="M211 464q.3 1.7.7 3.4c3.4 16.8 8.9 30.7 19.3 44.6h-68c0-13.1 5.5-24.8 14.3-34.4 9-8.5 21.4-13.8 33.7-13.6z" fill="#9ce9ed"/><path d="M329 357c6.1 4 10.3 9.2 13 16 .5 3.3.6 5-1.1 7.9-3.3 1.9-5.1 1.9-8.9 1.1-2-2.4-3.5-4.9-5.2-7.5-2.7-3.7-5.3-5.4-9.8-6.5-6.5-.7-12.5-.9-18 3-3 2.6-4.9 4.9-6.9 8.3-2.1 2.7-2.1 2.7-5.7 3.3-3.4-.6-3.4-.6-5.4-1.6-1.7-3.4-1.1-6.5 0-10 4.5-8 11.5-14.2 20.1-17.3 9.6-2.3 19.2-1.3 27.9 3.3z" fill="#54490d"/><path d="M460 357c5.6 3.8 9 8 12 14l1 2c.4 5.2.4 5.2-1.1 7.9-3.3 1.9-5.1 1.9-8.9 1.1-2-2.4-3.5-4.9-5.2-7.5-2.7-3.8-5.3-5.4-9.8-6.5-7.1-.9-13.4-1-19.3 3.3-2 2-3.3 4.1-4.8 6.5-1.4 2.4-1.4 2.4-2.9 4.2-3.8.8-5.6.8-8.9-1.1-1.7-3-1.7-4.5-1.1-7.9 4.5-9 11.7-16 21.2-19.3 9.5-2.3 19.1-1.3 27.8 3.3z" fill="#53480d"/></svg>