<svg xmlns="http://www.w3.org/2000/svg" width="1024" height="1160" xmlns:v="https://vecta.io/nano"><path d="M688.7 338.3c6.4 4.9 11 11 13.3 18.7q0 2 0 4 1.1-.2 2.3-.5c10.7-1.5 17.2-.4 25.9 5.8 4.2 4 6.6 7 7.1 12.7 0 4.3 0 8-1.3 12q1.8 0 3.6-.1c8.5 1 15.9 7.5 22.5 12.4 6.2 4.5 10.8 6.4 18.5 7.2 9.9 1.4 19.6 5.1 27.4 11.5q1 .8 2 1.6c16.5 14.6 21 39.4 26.5 59.6 3.1 11.3 7.4 21.6 12.4 32.1 4 8.3 7.1 17 10.1 25.7q.6 1.7 1.2 3.4c3.4 15 1.6 31-5.8 44.5-7.2 11.3-18.1 17-30.8 20.4-13.7 2.6-26.1-.3-38.4-6.3-2.1-1.1-2.1-1.1-4.2-1l-8 15q1.5 0 3 0 1.7 3.4 3.4 6.8.5 1 1 2c3.2 6.2 3.8 10.6 3.8 17.4q0 1.3 0 2.6c.1 10.8-3.3 17.3-10.8 25-9 8.8-18.5 15.9-29.4 22.2q-.9.5-1.7 1c-13.7 7.9-28.1 13.3-43.5 16.8q-1.2.3-2.5.6c-14.3 3.1-28.4 4-43 3.9h-2.5c-26.3-.1-56.7-2.6-76.6-21.9-14.1-15.4-18.5-32.1-18.2-52.4-17.3 4.6-33.5 10.5-49.9 17.7q-1.2.6-2.6 1.2-1.1.5-2.4 1.1-1 .5-2.1.9c-2.1 1.1-2.1 1.1-4.1 2.7-1.9 1.4-1.9 1.4-3.9 1.4 5.1 6 10.4 11.5 16 17 16.2 15.9 16.2 15.9 17 21.2-.4 5.8-4.3 9.7-7.8 14-2 2.6-3.2 4.7-4.2 7.8q.9.3 1.7.5 2.6.8 5.2 1.6 3.3 1 6.6 1.9 1.8.5 3.6 1.1 1.6.4 3.3.9c2.6 1 2.6 1 3.6 3-.4 2.1-.4 2.1-1.1 4.7l-.8 2.9c-.5 1.5-.5 1.5-.9 3q-.8 3-1.7 5.9-.4 1.4-.8 2.8L528 765q1.6-.1 3.3-.3c8.6.1 16.1 4 22.7 9.3q.4-1.1.7-2.2c3.8-8.3 12.4-12.8 20.5-15.9 11.3-3.6 22.9-2.8 33.4 2.4 12.6 7.1 18.6 16.9 23 30.5.6 3.1.5 6.1.5 9.3q0 1.8 0 3.7c-.1 3.2-.1 3.2-1.1 6.2q1.3.4 2.7.8c13.1 4.7 21.2 14.1 27.2 26.4 2.1 5.3 2.3 10.2 2.2 15.8q0 1 0 2.1c0 3.8-.2 7.3-1.1 10.9q3.4 1.6 6.7 3.1 1 .4 2 .9c2.5 1.1 4.7 2 7.5 1.9 2.4-1.2 3.9-2.8 5.7-4.7 6.9-6.2 16-9.8 25.3-10.4 6.8.5 14.7 2.1 20.8 5.2q.1-1 .2-1.9c1.6-12 7.3-22.6 16.8-30.1 9.6-7.2 22-11.5 34-10 14.5 2.4 26.1 9.4 35 21 7.3 11.4 9.5 22.5 7.6 35.9-.6 2.8-1.3 5.5-2.6 8.1q1-.5 2-1c12.8-1.2 23.9 2.1 34 10a83.68 83.68 0 0 1 2.4 3.1c4.7 4.8 11.9 4.7 18.2 5.5 9.9 1.2 18.4 3.1 27.4 7.4q1.4.7 2.9 1.3c8.9 4.2 13.6 9.5 17.1 18.7 1 5.5-.6 9.1-3.4 13.8-3.7 5-8.5 9.5-14.6 11.2q-.1.8-.1 1.7c-2 21.1-6.3 41.9-11.9 62.3q-.6 2.2-1.2 4.3-1.9 7.3-3.9 14.4-.3 1.2-.7 2.4c-8.3 30.1-8.3 30.1-17.3 40.6q-.8.9-1.6 1.9c-.7.7-.7.7-1.3 1.4h3.2q14.9.1 29.8.2 7.6 0 15.3.1 7.4 0 14.8.1 2.8 0 5.6 0 4 0 7.9.1 1.2-.1 2.4-.1c4.9.1 7.5 1.1 11 4.6 3.6 5.1 5.8 10.5 5.4 16.8-1.3 6.7-4.6 10.9-9.7 15.1-3.5 2.3-6.7 2.2-10.8 2.2q-1.9 0-3.9 0-2.1 0-4.3 0-2.2 0-4.5 0-6.3 0-12.7 0-6.8 0-13.7.1-13.6 0-27.2 0-16.3 0-32.6 0-39.4 0-78.8 0-18.6 0-37.2 0-63.7.1-127.5.1-4 0-8 0-.9 0-2 0-10 0-20.1 0-2 0-4 0-64.7 0-129.5.1-69.3 0-138.7 0-7.6 0-15.1 0-1.8 0-3.7 0-29.8 0-59.5.1-29.9 0-59.9 0-17.7 0-35.5 0-11.9 0-23.8 0-6.7 0-13.5 0-6.1 0-12.3 0-2.2 0-4.4 0-3 0-6 0-1.7 0-3.4 0c-5.2-.8-8.3-3.7-11.9-7.4-3.8-5.3-5.2-10.6-4.2-17.1 1.9-6.3 4.9-10.8 10-15q2 0 4 0-.5-1-1-2c-.4-6.1.2-12.2 1-18.3q.1-1.3.3-2.6.4-4.2.9-8.4.4-2.9.7-5.8c2.9-23.7 6.2-47.3 10.1-70.9q.3-1.6.5-3.3 3.7-21.7 7.9-43.3.2-1.2.4-2.3 2.4-12.3 5-24.6c4.8-23.4 8.6-46.9 12.2-70.5a13.8 13.8 0 0 1 2 .3q4.7.6 9.4 1.1l3.2.4c14.8 1.9 29.6 2.4 44.5 2.3h2.3c31.3.6 31.3.6 62.1-3.4 2.1-.5 2.1-.5 5.5-.7q2.1 1.9 4 4c8.9 4.3 18.8 3.3 28.4 2.9 9.1 0 9.1 0 13.4 3.2 2.3 2.5 4.3 5.1 6.2 7.9l2.2 3.2q.7 1.3 1.4 2.6.7 1.3 1.4 2.7c1.1 2.7 1.2 4.6 1 7.5 7.1 2 14 1.9 20.5-1.7 1.8-1.3 1.8-1.3 2.2-4.4q.7-1.4 1.3-2.9c3-1.1 5.9-1.7 9-2.3 4.9-1.1 7.7-3 10.8-7 1.4-3.2 1.9-6.2 2.2-9.7 1.3-.2 1.3-.2 2.6-.5 9.3-1.8 9.3-1.8 16.4-7.5 2.7-4.3 3.5-8 4-13 1.2.1 1.2.1 2.4.1 8.8.4 8.8.4 16.6-3.1 5.6-7.7 5.1-18.9 4-28-1.1-4.7-2.8-8.7-5-13q-.4-.9-.9-1.8c-3.7-7.2-7.9-13.6-13.6-19.5-1.5-1.7-1.5-1.7-1.5-3.7 1.5-1.4 1.5-1.4 3.6-3.1 4.2-3.6 7.8-7.6 11.4-11.9-1.4-4.4-3.8-7.6-6.7-11.1-2.4-3.4-2.7-6.8-2.7-10.8.7-3.7 3.3-5.8 6-8.1q1.5-1.4 3.1-2.9c.8-.7.8-.7 1.6-1.5 2.5-2.3 4.6-4.9 6.8-7.5 3.3-3.7 6.8-7.2 10.3-10.7q1.1-1 2.2-2.1 1.1-1.1 2.1-2.2 1-.9 1.9-1.9c2-1.9 4.1-3.7 6.2-5.5 4.3-3.7 8.3-7.7 12.2-11.7q2.3-2.3 4.5-4.6 3.5-3.5 7-7 3.4-3.5 6.9-6.9c1-1.1 1-1.1 2.1-2.2 8.2-8.2 8.2-8.2 13.7-8.4 8.7 2.6 16 10.4 21.8 17.1q0 1 0 2 1 0 2 0 0 1 0 2 1 0 2 0c-.1-24.4-6.6-49.3-13.7-72.5-3.6-12.1-6.6-24.1-9.2-36.5-1.5-7.2-3.2-14.4-5.3-21.5-1.6-5.7-3-11.4-4.2-17.3-4.9-21.6-11.4-42.9-17.6-64.2q-.4-1.5-.9-3-2-7-4.1-14c5.6 2.1 10.3 5.2 15.3 8.4a49.76 49.76 0 0 1 3 1.9c11.4 7.4 22.7 15.3 32.7 24.7l2.2 2c11.2 10.5 19.8 23.6 27.1 37 1.8 3.1 3.7 6 5.7 9 8.4-12.2 12.9-26.7 17.7-40.5 6-17.1 12-33.1 23.3-47.5q.9-1.1 1.8-2.3c9.6-11 25.4-15.1 38.9-19L598 388l-1-1.8c-2.5-5.5-2.1-14.1-.1-19.8a30.74 30.74 0 0 1 4.1-5.4q.7-.8 1.5-1.7c6.2-6 14.1-8.5 22.6-8.6 4.5.1 4.5.1 6.9 1.3q.3-1 .6-2c4.2-8.8 11.2-13.8 20.1-17 12.8-3.8 24.8-2 36 5.3z" fill="#003e4b"/><path d="M452 72q1.4 1 2.9 2c24.8 18.1 43.7 42.8 51.1 73l.8 3.3c5.5 24 1.6 50.8-9 72.9-1.1 2.5-1.5 5.1-1.8 7.8q-.5 0-1 0-.1-1.7-.3-3.5c-1.8-22.8-5.3-41.6-18.7-60.5q-.6-.9-1.3-1.9c-2.5-3.4-5-6.8-7.7-10.1q-1-1.3-1.9-2.6c-7.2-9.2-15.3-17.2-24.5-24.3-9.9-8-19.6-16.7-25.6-28.1l-3 1c-1 2.2-1.8 4.4-2.6 6.7-10.9 29.2-41 42.5-67.1 55.8-19.9 10-38.1 22-53.7 37.9-2.1 2.1-4.3 4.1-6.5 6-9.2 7.9-16.7 15.6-22.6 26.2q-.7 1.2-1.5 2.4-1 0-2 0c-.3-.8-.3-.8-.7-1.7-2.1-5-4.5-9.2-7.9-13.5-1.4-1.8-1.4-1.8-2.5-4-1.2-2.4-2.4-2.8-4.9-3.8q-1.3-.8-2.7-1.5c-6.3-2.8-14.2-2.6-20.8-.8-2 .9-3.7 2-5.5 3.3l-1.9 1.3c-8.5 6.5-12.4 17.3-14.1 27.7-1.3 18.6 2.7 35.4 15 50 9.4 10.6 19.5 12 33 14-.4 7.5-1.1 14.8-2.3 22.2-8.4 50.7-8.7 90 21.3 133.8 11.8 15.8 32.5 27.4 51.9 30.4 5.8.8 11.7 1 17.6 1q1.5.1 3 .1A59.99 59.99 0 0 0 376 477c9.2-11.1 11.8-23.9 11-38q-.1-2.5-.2-5-.4-7-.8-14c5.8-2.2 11.7-4.2 17.6-6.1 3.8-1.2 7-2.8 10.4-4.9q1 0 2 0c3.7 7.5 5.9 15.2 8.2 23.2q1.4 4.7 2.8 9.5c7.8 26.4 15.1 52.9 21 79.8 1.1 5.3 2.6 10.4 4 15.6 1 3.8 1.8 7.6 2.7 11.4 2 9.3 4.4 18.3 7.2 27.3 7 23.1 13.3 48 13.1 72.2q-1.5-.5-3-1 0-1 0-2-1 0-2 0c-1.4-1.5-1.4-1.5-3.1-3.5-7.6-9.1-7.6-9.1-17.9-14.5-4.6.4-7 1.3-10.3 4.5q-1.3 1.2-2.6 2.5-1.6 1.5-3.1 3l-1.8 1.8q-7.5 7.4-14.8 14.8-4.4 4.4-8.8 8.8-.9 1-1.9 2c-3.9 3.9-7.8 7.5-11.9 11.1q-3 2.6-5.8 5.4-1 1-2 2-1 1-2.1 2-1 1-2 2.1a217.5 217.5 0 0 0-11.3 12.2c-1.6 1.8-3.3 3.3-5 4.8-2.8 3.2-2.8 3.2-3.2 7 .7 7.3 5.3 12.5 9.6 18-1.5 3.6-3.7 6.1-6.3 9q-1.1 1.3-2.3 2.6c-2.3 2.3-4.8 4.4-7.4 6.4q-.7-.6-1.4-1.1c-13.7-10.6-26.5-13.7-43.6-11.9-6.9 1.3-13.4 3.6-20 6q-1.1.4-2.2.8c-7.7 2.6-7.7 2.6-14.6 6.6-4 3-6.5 4-11.6 3.3q-3.2-.6-6.3-1.3-1.8-.4-3.6-.7-4.1-.9-8.1-1.7-7.8-1.7-15.6-3.3-8.7-1.7-17.3-3.5c-14.1-2.9-28.3-5.6-42.6-7.7q-1-.2-2.1-.5c-1.4-2.7-.9-4.6-.7-7.7q.2-1.6.3-3.4.2-1.7.3-3.5.2-1.8.3-3.6.4-4.4.8-8.8c-30.9-4.6-30.9-4.6-62-7q-1.4 0-2.8-.1c-14.1-.3-28.1.2-42.2 1.4l-2.2.2q-3.1.3-6.2.6-1.8.1-3.7.3c-3.1.6-3.9 1.2-5.9 3.6-2.6.4-2.6.4-5 0-11.7-17.6 3.9-64.2 7.8-84.1 3-14.9 6.9-29.4 11.2-43.9q.4-1.5.9-3.1 2.9-10 6.1-19.9l1-3c9.8-30.6 22.2-59.8 43.4-84.2q2.1-2.4 4.1-4.8c5.3-6.1 11.2-11 17.5-16q3.5-3 7-6-.9-.4-1.7-.9c-19.7-10.6-34.9-33.5-41.6-54.5q-.3-1.3-.7-2.6-.4-1.4-.9-2.7c-5.8-20.6-2.3-40.9 7.8-59.3a161.16 161.16 0 0 1 18.1-26c.9-1.1.9-1.1 1.8-2.1 3.4-4.1 7-7.6 11-11.1 2.4-2 4.7-4.1 7-6.2 3.5-3.2 7.1-6.2 10.8-9.2 19.8-16.1 26.1-33 29-57.6 6.3-51.1 23.9-102.7 66-135.7 3.4-2.5 6.8-4.8 10.4-7.1q.8-.5 1.7-1.1C312.9 27.1 397.5 33 452 72z" fill="#003f4b"/><path d="M907 953c-1.8 21.7-6.3 43.1-12 64q-.6 2.2-1.2 4.3-1.9 7.3-3.9 14.4-.3 1.2-.7 2.4c-8.3 30.1-8.3 30.1-17.3 40.6q-.8.9-1.6 1.9c-.7.7-.7.7-1.3 1.4q1.6 0 3.2 0 14.9.1 29.8.2 7.6 0 15.3.1 7.4 0 14.8.1 2.8 0 5.6 0 4 0 7.9.1 1.2-.1 2.4-.1c4.9.1 7.5 1.1 11 4.6 3.6 5.1 5.8 10.5 5.4 16.8-1.3 6.7-4.6 10.9-9.7 15.1-3.5 2.3-6.7 2.2-10.8 2.2q-1.9 0-3.9 0-2.1 0-4.3 0-2.2 0-4.5 0-6.3 0-12.7 0-6.8 0-13.7.1-13.6 0-27.2 0-16.3 0-32.6 0-39.4 0-78.8 0-18.6 0-37.2 0-63.7.1-127.5.1-4 0-8 0-.9 0-2 0-10 0-20.1 0-2 0-4 0-64.7 0-129.5.1-69.3 0-138.7 0-7.6 0-15.1 0-1.8 0-3.7 0-29.8 0-59.5.1-29.9 0-59.9 0-17.7 0-35.5 0-11.9 0-23.8 0-6.7 0-13.5 0-6.1 0-12.3 0-2.2 0-4.4 0-3 0-6 0-1.7 0-3.4 0c-5.2-.8-8.3-3.7-11.9-7.4-3.8-5.3-5.2-10.6-4.2-17.1 1.8-5.9 4.5-11.7 10-15 4.7-.9 9.3-.8 14.1-.8q2.2 0 4.4 0 6 0 12 0 6.4 0 12.9 0 11.2 0 22.4 0 16.2 0 32.4 0 26.3-.1 52.6-.1 25.6 0 51.1 0 1.6 0 3.2 0 7.9 0 15.8 0 65.6-.1 131.1-.1-.4-.8-.9-1.6-2-3.5-4-7.1c-.6-1.2-.6-1.2-1.3-2.4-3.1-5.5-5.7-10.9-7.5-16.9l-.8-2.6q-1.3-4.2-2.5-8.4-.4-1.5-.9-3c-17.5-61.4-17.5-61.4-17.1-82 5.8.5 11.4 1.4 17.1 2.5 21.1 4 42.1 7.1 63.5 9 3.5.3 7 .7 10.4 1.5q.2.8.4 1.7c2 7.1 5.4 12.4 11.6 16.6 13 7 31.5 7 45.5 3.1 8.2-3.1 12.7-7.6 16.5-15.4q17.6-.3 35.2-.5 8.1 0 16.3-.2 7.9-.1 15.8-.2 3 0 6-.1c15.7-.3 15.7-.3 20.7 3 1.9 2.2 3.4 4.5 5 7 2.9 2 2.9 2 5.7 3q1.3.6 2.7 1.1c11 3.7 26.7 4 37.4-.8 6.5-3.7 9.9-6.5 13.2-13.3 2-.1 2-.1 4-.1 35.4-1.1 70.7-3.1 106-5.9l2.5-.2c31.9-2.5 67.4-15.8 98.5-15.8z" fill="#3aaaa1"/><path d="M688.7 338.3c6.4 4.9 11 11 13.3 18.7q0 2 0 4c1.1-.2 1.1-.2 2.3-.5 10.7-1.5 17.2-.4 25.9 5.8 4.2 4 6.6 7 7.1 12.7 0 4.3 0 8-1.3 12q1.8 0 3.6-.1c8.5 1 15.9 7.5 22.5 12.4 6.2 4.5 10.8 6.4 18.5 7.2 9.9 1.4 19.6 5.1 27.4 11.5q1 .8 2 1.6c16.5 14.6 21 39.4 26.5 59.6 3.1 11.3 7.4 21.6 12.4 32.1 4 8.3 7.1 17 10.1 25.7l1.2 3.4c3.4 15 1.6 31-5.8 44.5-7.2 11.3-18.1 17-30.8 20.4-13.7 2.6-26.1-.3-38.4-6.3-2.1-1.1-2.1-1.1-4.2-1q-.7 1.4-1.4 2.9c-4.7 9.4-10.1 16.7-17.6 24.1q-1 1-1.9 2.1c-22 23-56 36.1-87.1 39.9q-1.1.1-2.2.3c-33.7 3.8-69.9.7-97.3-20.9-14.9-12.1-35.8-35.1-38.4-55.2q0-1.6-.1-3.2-1.4.1-2.9.1c-13.2.4-24.8-2.6-34.9-11.7-8.2-8.9-11.9-20.6-11.5-32.6 1.2-11.1 4.9-20.6 9.6-30.7q.7-1.4 1.4-2.9c2.8-5.6 5.9-10.8 9.7-15.9 9-12.9 13.5-29.4 18.6-44.1 7.4-21 16.7-44 37.9-54.3 7.7-3.4 15.7-5.8 23.8-8.2L598 388q-.5-.9-1-1.8c-2.5-5.5-2.1-14.1-.1-19.8a30.74 30.74 0 0 1 4.1-5.4q.7-.8 1.5-1.7c6.2-6 14.1-8.5 22.6-8.6 4.5.1 4.5.1 6.9 1.3q.3-1 .6-2c4.2-8.8 11.2-13.8 20.1-17 12.8-3.8 24.8-2 36 5.3z" fill="#e47800"/><path d="M413 99c3.8 1.3 4.1 2.4 6 5.9 6 9.7 14.5 16.8 23.3 23.9 4.4 3.6 8.6 7.4 12.7 11.2l2 1.8c10.7 10 18.8 22.8 25.9 35.4 1.1 1.8 1.1 1.8 2.4 3.6 4 5.7 5.2 11.5 6.5 18.3q.3 1.6.6 3.2.8 4.4 1.6 8.7.3 1.4.6 2.9c.8 6.2.6 12.4.7 18.6q0 1.1 0 2.3c-.1 14.4-1.1 28.6-2.9 42.9q-.5 4.5-.9 9C488.2 320.9 472 355 450 381q-.9 1.2-1.9 2.4C432.5 402 410.3 414.3 387 420q.1 1.8.2 3.7.4 6.4.7 12.9.1 3 .3 6c.6 12.3-3.1 24.3-10.8 33.9-10.8 11.2-24.3 18.2-39.9 18.8-25.9.4-48.4-5.3-68.3-23.1-7.5-7.5-12.9-15.7-18.4-24.7q-.9-1.4-1.8-2.9c-5.2-8.5-9.6-17.2-12.3-26.8-.4-1.7-.4-1.7-.9-3.4-6.1-25.9-.4-54.6 3.2-80.4.2-1.1.2-1.1.3-2.3q1.8-12.4 3.7-24.7-1.2-.1-2.4-.2l-3.3-.2q-1.5-.1-3.2-.3c-11.5-1.2-19-6.4-26.6-15-11.1-13.8-14.8-30.9-13.5-48.3 2-12.5 6.9-22.6 17.1-30.4 7.5-4.2 14.5-4.5 22.9-3.6 9.6 3.3 15.9 11.7 20.5 20.4 1.5 3.6 1.5 3.6 1.5 6.6q1 0 2 0 .4-1.1.8-2.2c6-14.2 20-25.5 31.4-35.2 1.9-1.7 3.6-3.4 5.2-5.3 13.4-13.5 31.6-22.8 48.4-31.4 9.3-4.8 18.5-9.9 27.6-15.2q1.7-1 3.4-2c18.5-11 28.1-23.4 36.4-43.1.8-1.6.8-1.6 1.8-2.6z" fill="#e27900"/><path d="M616 763c8.5 6.9 13.9 17.3 16 28q.1 3.5.1 7.1 0 1.8 0 3.7c-.1 3.2-.1 3.2-1.1 6.2q1.3.4 2.7.8c13.1 4.7 21.2 14.1 27.2 26.4 2.1 5.3 2.3 10.2 2.2 15.8q0 1 0 2.1c0 3.8-.2 7.3-1.1 10.9q3.4 1.6 6.8 3.1.9.4 1.9.9c2.5 1.1 4.7 2 7.5 1.9 2.4-1.2 3.9-2.8 5.7-4.6 6.9-6.3 16-9.9 25.3-10.5 6.8.5 14.7 2.1 20.8 5.2l.2-1.9c1.6-12 7.3-22.6 16.8-30.1 9.6-7.2 22-11.5 34-10 14.5 2.4 26.1 9.4 35 21 7.3 11.4 9.5 22.5 7.6 35.9-.6 2.8-1.3 5.5-2.6 8.1q1-.5 2-1c14-1.3 25.3 2.9 36 11.7 6.5 6 12.6 14.8 13.3 23.8q0 1.8-.1 3.7.1 1.8.1 3.7c-.3 3.1-.3 3.1-2.3 5.1-12.6 3.4-25.9 4.1-38.8 5.1q-3.3.2-6.5.5-9.3.7-18.7 1.4-1.2.1-2.4.2c-32.5 2.4-65.1 2.9-97.6 3.8l-.8 2q-.5 1.4-1 2.7-.5 1.4-1.1 2.7c-4.7 10.8-14.3 18.4-25.1 22.6-11.6 3.8-21.5 4.1-33 0-3.2-1.7-6.1-3.8-9-6q-1.3-.9-2.6-1.7c-6.1-5.8-10.6-13.4-13.4-21.3q0-1 0-2-1.1 0-2.3 0c-1.6 0-1.6 0-3.2.1q-1.8 0-3.6 0c-2.8-.1-5.3-.3-8-.7-4.1-.5-7.8-.9-11.9-.4-2.7 2.2-4.3 4.4-6.1 7.3-3.6 5.1-9.2 7.8-14.9 9.7-10.8.7-18.8 0-28-6q-.3 1.2-.6 2.4c-4.1 10.6-11.6 18.9-21.9 23.6-11.1 4.4-23.5 4.6-34.8.3-12.5-6-18-16.7-22.9-29.2-.9-3.5-.9-6.5-.8-10.1q-1.9 0-3.8.1c-20.7.2-41-1.4-61.2-6.1-2.2-2.2-1.3-7.2-1.3-10.2.2-15.7 5-30 15.9-41.5 9.5-9 20.4-12.5 33.3-12.5q1 0 2 0c4.8 0 8.6.7 13.1 2.2q-.5-.7-1-1.5c-5.7-8.7-7.4-17.1-6-27.5 3.6-11.3 10.3-19.8 20.3-25.7 6.1-2.9 11.6-3.6 18.1-3.4h2.3q2.6 0 5.3.1-.1-1.7-.1-3.4c-.3-13.9 1.2-23.9 11.1-34.6 8-6.3 16.8-9.2 27-8 6.9 1.8 12.4 4.6 18 9q.4-1.1.7-2.2c3.8-8.3 12.4-12.8 20.5-15.9 14.7-4.7 28.5-1.7 40.8 7.1z" fill="#f7f0d3"/><path d="M827 48q1.8.4 3.6.9c19.8 5.3 36.7 14 52.4 27.1q1.4 1.2 2.9 2.4c25.4 21.9 40.4 55.4 43.1 88.6 2.1 35-8.1 69.8-31.1 96.7-2.8 3.2-5.8 6.3-8.9 9.3q-1.2 1.2-2.4 2.4c-24.3 23-56.9 34.1-89.9 33.9q-1.9 0-3.9 0c-9.6-.1-18.5-.9-27.8-3.3q-1.9-.5-3.8-1c-34.3-9.3-62.8-31.8-80.6-62.2-4.8-8.6-8.4-17.6-11.6-26.8q-.4-1.1-.8-2.3c-3.9-11.9-4.6-24.1-4.5-36.6q0-1.9 0-4c.1-9.4.7-18 3.3-27.1q.3-1.1.6-2.1c6.5-22.7 18-42.1 34.4-58.9q1-1.1 2.1-2.3C733.6 50.9 785.5 37.4 827 48z" fill="#42beaa"/><path d="M556 641q0 .8.1 1.7c1.2 20.6 5.8 37.9 21.1 52.7 26.6 21.8 68.9 21.1 101.2 18.1 4.9-.6 9.8-1.4 14.6-2.5q1.2-.3 2.5-.5c28.2-6.1 53.3-18.1 74.6-37.7q.9-.8 1.8-1.7c3-2.9 5.4-5.5 7.6-9 2.5-3.1 2.5-3.1 5.6-3.6q1.6.3 3.2.6 1.6.2 3.3.4a20.48 20.48 0 0 0 2.4.5c12 25 12 25 12 31q.8-.8 1.6-1.5c4.2-3.7 7.4-6 13.1-6.3 5.3.4 7.8 1.9 11.3 5.8 1.3 2.6 1.1 4.5 1.1 7.4q0 1.4 0 2.9c-.1 2.4-.4 4.4-1.1 6.7q1-.1 2-.1c5.9-.3 9.4 0 14 4.1 2.9 3.5 3.5 6.4 3.3 10.9-.5 3.6-1.9 6.7-3.3 10.1q1 .1 2.1.1c4.7 1.4 8.5 4.6 11.1 8.8 1.5 3.8 1.6 7.1.8 11.1-2 3.3-4.4 6.1-7 9q-1.8 2.1-3.6 4.2-.7 1-1.5 1.9c-1.2 1.9-1.2 1.9-.1 4.2 1.2 2.7 2.5 5.1 4 7.7q.9 1.4 1.7 2.9.9 1.5 1.9 3c21.9 37.4 40.2 75.6 38.6 120.1q-4.8-.7-9.6-1.4-4.7-.6-9.3-1.2c-14.4-1.7-14.4-1.7-18.2-5.7q-.7-.9-1.4-1.9c-5.6-6.8-15.1-9.6-23.5-10.8a140.91 140.91 0 0 0-13 0q.2-.9.4-1.9c3-14.3 2.8-27-5-39.7-8.4-11.6-18.9-19.6-33.2-22.1-12.6-1.5-24.3 1.5-34.7 8.7-10.5 8.4-15.5 19.2-18.5 32q-1.7-.5-3.4-.9c-12.9-3.4-24.2-4.3-36.3 2.3-3.4 2.4-6.3 5.2-9.2 8.1-2.1 1.5-2.1 1.5-4.4 1.4q-4.8-1.6-9.5-3.5-1.7-.6-3.5-1.3c-1.4-.6-1.4-.6-2.7-1.1.2-1.2.2-1.2.5-2.5 1.9-13.3 1-25.4-7-36.5q-.7-1-1.5-2-1.1-1.5-2.2-3.1c-5.1-5.9-12.9-9.5-19.8-12.9q.1-1.7.1-3.4c.2-8.3.2-15.8-3.1-23.6q-.4-1-.8-2c-4.8-11.3-14.1-18.4-25.2-22.8-11.5-3.5-24.1-1.3-34.6 4.2-5.5 3.4-10.5 7.7-13.4 13.6-2.1-1-4.1-2.1-6.2-3.2-6.4-3.6-12.5-5-19.8-5.8a301.6 301.6 0 0 1 7-31q-.9-.3-1.9-.6-4.2-1.4-8.5-2.8l-3-1q-1.4-.5-2.8-1-1.3-.4-2.6-.8c-2.2-.8-2.2-.8-4.2-1.8.6-5.9 4.3-9.3 8.1-13.7 2.5-4.3 3.2-7.4 1.9-12.3-1.9-3.1-4.4-5.6-7.1-8.1-1-1.1-1-1.1-2.1-2.2q-3.4-3.4-6.8-6.7-3.3-3.2-6.5-6.4-2-2-4-4-2.3-2.2-4.5-4.6 0-1 0-2c17.8-10.9 43.8-25 65-25z" fill="#e47900"/><path d="M129 699q1.5.2 3.1.3c12.1 1.4 24 3 35.9 5.7q0 3.4.1 6.8 0 1.9 0 3.8c0 5.2-.6 10.3-1.1 15.4q1.9.3 3.8.6c13.3 2.1 26.4 4.6 39.5 7.2a23.81 23.81 0 0 0 2.6.5q12.9 2.6 25.8 5.3 4.8 1 9.7 2 2.3.5 4.6 1 3.1.7 6.3 1.3 1.7.4 3.6.8c5.1.5 8.5-1.9 12.9-4.3 17.8-9.1 40.7-16.6 60.8-11.3 17.8 6.7 29.5 22.1 37.3 38.9q1.1 2.5 2.1 5c.5 1.4.5 1.4 1.1 2.8 1.1 4 1.3 7.8 1.3 12q0 1.1 0 2.4c-.2 6-.9 11.7-4.4 16.8-4 3.6-7.8 3.9-13 4-2.4-.2-4.6-.5-7-1q.2 1.5.3 3c0 6-3.6 10.3-7.6 14.4-4.9 2.9-10 4-15.7 3.6l.2 3.2c-.3 5.1-1.7 7.4-5.4 10.9-5.3 3.6-10.3 5.4-16.8 4.9q-.1 1.4-.1 2.8c-.9 3.2-.9 3.2-3.8 5.5-3.9 2.1-6.7 2.9-11 2.9q-1.3 0-2.6 0c-2.7-.2-4.3-.6-6.5-2.2-.8-1.8-.8-1.8-1.4-4.1-1.6-5.3-4.2-9.5-7.6-13.9l-1-1.8c-1.5-2.3-2.8-3.7-5-5.2-4.8-.9-9.4-.8-14.2-.7-20.8.1-20.8.1-27.5-5.6-2.3-2.1-2.3-2.1-5.6-1.5q-2 .5-4 1c-14.1 2.9-28.4 2.6-42.7 2.8q-1.1 0-2.3 0c-87.4 1.3-87.4 1.3-114.7-24-11.2-12-14.3-24.2-17-40q-.3-1.3-.5-2.6c-.7-5-.7-9.9-.7-15q0-1.6 0-3.4 0-3.5 0-7.1 0-5.4 0-10.7 0-3.5 0-7 0-1.5-.1-3.2c.1-6.7.2-13.6 2.3-20 3.5-2.3 5.4-2.5 9.6-2.9q.9 0 1.9-.1 3.3-.3 6.5-.6 1.1-.1 2.2-.2c22.1-1.9 43.8-1.7 65.8.8z" fill="#e38000"/><path d="M201 403c2.1.4 2.1.4 4 1q.1 34.8.1 69.6 0 16.2.1 32.3 0 14.1 0 28.2 0 7.5 0 14.9c.2 49.8.2 49.8-4.6 72.6q-.3 1.6-.6 3.3c-5.9 28.4-5.9 28.4-13 39.1q-1 0-2 0l-1-16-6-2c-1.6 5.3-2.7 10.6-3.7 16q-.2 1.3-.4 2.6-.5 2.7-1 5.4-.7 4-1.4 8.1c-1.6 8.9-3 17.8-3.5 26.9q-.8-.1-1.6-.2c-30.1-4.5-30.1-4.5-60.4-6.8q-1.4 0-2.8-.1c-14.1-.3-28.1.2-42.2 1.4l-2.2.2q-3.1.3-6.2.6c-1.8.1-1.8.1-3.7.3-3.1.6-3.9 1.2-5.9 3.6-2.6.4-2.6.4-5 0-11.7-17.6 3.9-64.2 7.8-84.1 3-14.9 6.9-29.4 11.2-43.9q.4-1.5.9-3.1 2.9-10 6.1-19.9l1-3c9.8-30.6 22.2-59.8 43.4-84.2q2.1-2.4 4.1-4.8c5.3-6.1 11.2-11 17.5-16q1.1-.9 2.3-1.9c19.7-16.4 42.2-27.6 65.5-38 2.1-.9 2.1-.9 3.2-2.1z" fill="#008086"/><path d="M419 418c5.6 2.1 10.3 5.2 15.3 8.4q1.5.9 3 1.9c11.4 7.4 22.7 15.3 32.7 24.7q1.1 1 2.2 2c12.1 11.4 20.9 25.5 28.8 40q.9 1.3 1.8 2.6c1.2 2.4 1.2 2.4 1.2 4.7-1.5 4.1-3.6 7.8-5.8 11.6-8.7 16-14.1 32.1-9.1 50.3 1.2 3.9 2.7 7.3 4.9 10.8l1 1.8c5.2 7.3 16.4 12.4 25 14.2q3.9.3 7.7.6a16.2 16.2 0 0 1 2.2.1q2.5.2 5.1.3.3 1.2.6 2.4c2.4 8.4 5.6 15.3 10.4 22.6q.6.9 1.2 1.9c14.7 22.8 34.6 42 61.8 48.3q2 .4 4 .8 1 .2 2 .4c42.3 9.3 88.4 0 125.1-22.3 2.4-1.6 4.6-3.3 6.9-5.1q1.3-1 2.6-2c7.4-5.9 15.7-12.5 21-20.3.7-.9.7-.9 1.4-1.7q2 0 4 0 1.7 3.4 3.4 6.8l1 2c3.2 6.2 3.8 10.6 3.8 17.5q0 1.2 0 2.5c.1 10.8-3.3 17.3-10.8 25-9 8.8-18.5 15.9-29.4 22.2q-.9.5-1.7 1c-13.7 7.9-28.1 13.3-43.5 16.8q-1.2.3-2.5.6c-14.3 3.1-28.4 4-43 3.9h-2.5c-26.3-.1-56.7-2.6-76.6-21.9-14.1-15.4-18.5-32.1-18.2-52.4-17.3 4.6-33.5 10.5-49.9 17.8q-1.2.5-2.6 1.1-1.1.5-2.4 1.1-1 .5-2.1.9c-2.1 1.1-2.1 1.1-4.1 2.7-1.9 1.4-1.9 1.4-3.9 1.4q.8.8 1.6 1.7.7 1.1 1.4 2.3c-1.2 4.3-3.4 6.8-6.5 9.8q-1.4 1.4-2.8 2.8-.7.7-1.4 1.4-2.1 2.1-4.2 4.2c-4.7 4.5-9.4 8.9-14.3 13.2-3 2.7-5.7 5.6-8.4 8.5q-.8.9-1.7 1.9-4.3 4.7-8.5 9.6c-2.7 3.1-5.6 5.8-8.7 8.4l-9.8 8.8q-.9.9-1.9 1.8c-3.2 3-6.3 6.1-9.2 9.4q-.8.9-1.6 1.9-1.5 1.7-2.9 3.5c-1.3 1.5-1.3 1.5-4.1 3.8-4.7 0-6.3-.3-9.7-3.6q-1.1-1.2-2.3-2.4c-3.4.3-5 1.7-7.3 4q-1 .9-1.9 1.9l-1.9 1.9q-.9 1-1.9 1.9c-2.9 3-5.6 5.9-8 9.3-4.1-1.4-4.8-3.9-6.7-7.5-3-5.6-6.3-10.2-10.8-14.8-1.5-1.7-1.5-1.7-1.5-3.7 1.5-1.4 1.5-1.4 3.6-3.1 4.2-3.6 7.8-7.6 11.4-11.9-1.4-4.4-3.8-7.6-6.7-11.1-2.4-3.4-2.7-6.8-2.7-10.8.7-3.7 3.3-5.8 6-8.1q1.5-1.4 3.1-2.9c.8-.7.8-.7 1.6-1.5 2.5-2.3 4.6-4.9 6.8-7.5 3.3-3.7 6.8-7.2 10.3-10.7 1.1-1 1.1-1 2.2-2.1q1.1-1.1 2.1-2.2 1-.9 1.9-1.9c2-1.9 4.1-3.7 6.2-5.5 4.3-3.7 8.3-7.7 12.2-11.7q2.3-2.3 4.5-4.6 3.5-3.5 7-7 3.4-3.5 6.9-6.9 1-1.1 2.1-2.2c8.2-8.2 8.2-8.2 13.7-8.4 8.7 2.6 16 10.4 21.8 17.1q0 1 0 2 1 0 2 0 0 1 0 2 1 0 2 0c-.1-24.4-6.6-49.3-13.7-72.5-3.6-12.1-6.6-24.1-9.2-36.5-1.5-7.2-3.2-14.4-5.3-21.5-1.6-5.7-3-11.4-4.2-17.3-4.9-21.6-11.4-42.9-17.6-64.2q-.4-1.5-.9-3-2-7-4.1-14z" fill="#008387"/><path d="M70.1 1081.3q2.2 0 4.4 0 6.1-.1 12.1 0 6.5 0 13 0 12.8 0 25.5.1 10.4 0 20.7 0 1.5 0 3 0 3 0 6 0 28.1.1 56.2.2 24.1.1 48.2.1 28 0 56 .1 3 0 6 .1 1.5 0 3 0 10.3 0 20.7 0 12.6 0 25.2.1 6.5 0 12.9 0 5.9 0 11.8.1 2.1 0 4.2 0c9.2-.1 15.4 1.5 23.3 6.2 3.5 2.2 6.9 3.4 10.8 4.4l2.3.6c41.8 10.3 87.1 11.4 129.8 13.6q4 .2 7.9.4c22.1 1.2 44.4.9 66.5.9q1.7 0 3.4 0c49 0 98.2 0 147-5.2 1.7-.2 1.7-.2 3.5-.3 35.1-3.2 35.1-3.2 67.2-16.3 8.8-4.8 17.4-4.4 27.2-4.2q2.9 0 5.7 0 5.9 0 11.8.1 7.6 0 15.2 0 5.9 0 11.7 0 2.8.1 5.6.1 3.9 0 7.8 0 1.2 0 2.4 0c4.9.1 7.4 1.1 10.9 4.6 3.6 5.1 5.8 10.5 5.4 16.8-1.3 6.7-4.6 10.9-9.7 15.1-3.5 2.3-6.7 2.2-10.8 2.2q-1.9 0-3.9 0-2.1 0-4.3 0-2.2 0-4.5 0-6.3 0-12.7 0-6.8 0-13.7.1-13.6 0-27.2 0-16.3 0-32.6 0-39.4 0-78.8 0-18.6 0-37.2 0-63.7.1-127.5.1-4 0-8 0-.9 0-2 0-10 0-20.1 0-2 0-4 0-64.7 0-129.5.1-69.3 0-138.7 0-7.6 0-15.1 0-1.8 0-3.7 0-29.8 0-59.5.1-29.9 0-59.9 0-17.7 0-35.5 0-11.9 0-23.8 0-6.7 0-13.5 0-6.1 0-12.3 0-2.2 0-4.4 0-3 0-6 0-1.7 0-3.4 0c-5.2-.8-8.3-3.7-11.8-7.4-3.9-5.3-5.3-10.6-4.3-17.1 4.1-13.6 10.8-15.9 24.1-15.7z" fill="#dabe6d"/><path d="M864 899c16.8.6 32.2 4 47 12q.9.5 1.9.9c4.1 2.2 6.3 4.1 8.5 8.2q.7 1.2 1.4 2.6c2.2 4.3 2.7 7.5 2.2 12.3-3 8.1-8.7 13.7-16.2 17.7q-1.9.7-3.8 1.3c-1.4.5-1.4.5-2.8.9-7.5 2.4-15 4.2-22.8 5.5-1.8.3-1.8.3-3.6.7q-4.9.8-9.8 1.6-2.9.5-5.8.9c-53.9 8.7-109.6 12.1-164.2 11.4q-.4 1.4-.9 2.9c-1.8 5.2-5.6 7.8-10.4 10.3-7.2 3.3-13 4-20.8 4q-1.4.1-2.8.1c-9.4.1-18.7-2.1-26.1-8.3q-.6-.8-1.2-1.7c-2.8-3.8-2.8-3.8-6.8-6-2.4-.2-4.7-.2-7-.2h-2.7q-4.4 0-8.8 0-3 0-6.1 0-8-.1-16 0-8.2 0-16.3-.1-16.1 0-32.1 0-.4 1.4-.9 2.9c-2.1 6.1-7.2 9.5-12.7 12.5-13.2 5-31.6 5-44.8 0-6.8-3.6-11.8-8.5-15-15.5-.6-1.9-.6-1.9-.6-5.9l-2.4-.2q-3.4-.2-6.9-.5-3.4-.3-6.9-.5c-19-1.5-37.5-4.5-56.2-8.1q-1.4-.3-2.8-.5-2.7-.5-5.3-1.1c-3.9-.7-7.5-1.3-11.5-1.1q0-1 0-2-.9-.2-1.8-.4c-7.4-2-15.2-4.7-20-10.9-2.5-5.5-2.2-12.3-.5-18 .9-2.1 2-3.9 3.3-5.7.7-1 .7-1 1.3-2 8-10.5 20.6-13.8 33-15.6 2.9-.3 5.7-.5 8.7-.4.7 4.1 1.1 7 0 11q-.1 4.1-.1 8.3 0 1.1.1 2.2 0 2.8 0 5.5c21.6 4.6 43 6.1 65 7q.2 1 .4 2c2.3 12.2 6.9 24.3 16.5 32.7 9.9 6.7 21.6 7.7 33.1 5.8 11.3-2.8 19-8.1 26-17.5 1.9-3.2 3.5-6.5 5-10 2.9 1.1 5.6 2.3 8.4 3.6 7 2.6 15.5 2.7 22.6.4 2.5-1.2 4.7-2.5 7-4q1.4-.9 2.8-1.8c2.1-2.1 3.3-3.9 4.8-6.3q.7-1.1 1.4-2.2.5-.9 1-1.7c26.3-.7 26.3-.7 32.1 3.6 3 3.8 4.2 7.9 5.3 12.5 2.2 7 9.8 11.2 15.6 14.9 11.4 5.7 23.3 4.9 35 1 13-5.2 20.1-12.5 26-25q1-2.5 2-5 1.1 0 2.2-.1c35.8-.9 71.5-2 107.2-4.7q3.9-.3 7.8-.6 6.2-.4 12.4-.9 2.3-.2 4.5-.4c16.3-.2 16.3-.2 30.9-5.3 1.2-10.3-.8-17.1-6-26q-.5-1.5-1-3z" fill="#00767a"/><path d="M782.5 410.4c14.8 3.2 27.4 10.2 35.8 23 9.4 15.2 13.5 32.7 18.2 49.8 3.1 11.3 7.4 21.6 12.4 32.1 4 8.3 7.1 17 10.1 25.7q.6 1.7 1.2 3.4c3.4 15 1.6 31-5.8 44.5-7.2 11.3-18.1 17-30.8 20.4-16.5 3.1-31.7-1.6-45.6-10.3-11.8-8.7-17.9-22.4-20.5-36.5q-.3-1.7-.5-3.5-.1-.9-.3-1.9c-1-8.1-.8-16.2-.7-24.4q0-4.1 0-8.2.1-11.8.2-23.6c.1-22.2-.1-44-2.8-66q-.6-4.2-1-8.5-.2-1.2-.3-2.4c-.1-2.8.5-4.9 1.7-7.5q.5-1.2 1-2.5c4.5-7.5 20.2-4.8 27.7-3.6z" fill="#b54e00"/><path d="M967 702c4.4 2.1 7.4 4.8 10 9 .9 10.6-7.4 20.3-13 28.8-9.4 14.4-13 27.2-9.5 44.3 2.2 9.9 6.9 18.8 11.5 27.9 21.3 42.5 32.3 86.6 17.8 133.4-8.4 24.7-24.1 45.8-44.8 61.6q-1.4 1.1-2.8 2.2c-9.9 7.8-22.8 17.1-35.2 19.8-2.6-.3-4.6-.7-6.9-2.1-2.4-4.1 0-10.4 1.1-14.9q.8-2.8 1.5-5.6c1.9-7.1 3.5-14 4.4-21.2 2.9-23.5 2.9-23.5 10.2-29.5 2.2-1.7 4.4-3.2 6.7-4.7 16.4-15.6 25.8-38.8 26.5-61.2.1-11.5-1-21.9-4.5-32.8l-.8-2.7c-3.5-11-7.4-21.3-13-31.4-6.1-11-10.1-22.7-13.2-34.9-.3-1.3-.3-1.3-.7-2.7-4.1-18.9-1.6-39.8 8.7-56.3 10.1-14.6 27-30.3 46-27z" fill="#e07f00"/><path d="M772 617q2 0 4 0 1.7 3.4 3.4 6.8.5 1 1 2c3.2 6.2 3.8 10.6 3.8 17.4q0 1.3 0 2.6c.1 10.8-3.3 17.3-10.8 25-9 8.8-18.5 15.9-29.4 22.2q-.9.5-1.7 1c-13.7 7.9-28.1 13.3-43.5 16.8q-1.2.3-2.5.6c-14.3 3.1-28.4 4-43 3.9q-1.2 0-2.5 0c-26.3-.1-56.7-2.6-76.6-21.9-13-14.2-18.2-30.1-18.4-49 .2-3.5 1-6.2 2.2-9.4q1.1 1.1 2.2 2.2c17 17 34.9 27.6 58.8 31.8q1.4.3 2.9.5c8.4 1.5 16.5 1.8 25 1.8q1 0 2 0c34.2-.1 70.8-8.6 98.1-30.3q1.3-1 2.6-2c7.4-5.9 15.7-12.5 21-20.3q.7-.8 1.4-1.7z" fill="#013f4d"/><path d="M387 429c12.5 18.7 13.1 52.3 17.3 74.5q1 4.9 2 9.8.2 1.5.5 2.9.6 2.6 1.1 5.2c1 5 1.3 9.5 1.1 14.6-7.3 7.3-39.3 3.1-48.7 3.1q-4.9 0-9.9 0-5.2 0-10.4 0-9.8 0-19.6 0-11.2 0-22.4 0-23-.1-46-.1c-1.9-3.6-2.5-6.7-3-10.8q-.1-1-.2-2-.4-3.4-.8-6.8-.1-1.1-.3-2.3c-2-18.1-2.7-36.1-3.4-54.3q-.3-8.2-1.1-16.3c-.3-4.2-.3-8.3-.2-12.5 2.1 2.8 4 5.6 5.8 8.6 14 23.2 30.7 42.4 58.1 49.5 8.1 1.8 16.3 2.3 24.6 2.3q1.5.1 3 .1A59.99 59.99 0 0 0 376 477c11.9-14.4 11.6-30.4 11-48z" fill="#008087"/><path d="M632.5 503.3l3.4.4c12.3 1.4 12.3 1.4 16.7 6q.6.9 1.2 1.8.6.9 1.2 1.8c3.4 5.8 2.5 13.2 2 19.7-.9 3.1-2.1 5.4-4 8q-.8 1.3-1.7 2.6c-7.9 8.1-16.4 10.6-27.3 11.4-.2 12.3-.2 12.3 5 23.2 9.4 8.6 19.7 9.5 31.9 9 8.8-.7 15.4-4.3 21.7-10.3 3.8-4.6 6.7-9.6 9.6-14.7 1.8-3.2 1.8-3.2 3.8-5.2 6.6.6 6.6.6 8 2 .6 7.4-1 12-5.4 17.9-4.5 5.3-9.3 9-15.2 12.7-8.6 5.5-14.1 10.8-19.3 19.7-8.8 14.7-21.7 31.3-39.1 35.7-9.3 1-20.9 1.9-29.1-3.3-8.9-7.9-10.7-17.2-12.5-28.5-2.5-14-7.9-21-17.9-30.7-4.8-4.7-8.7-9.3-11.5-15.5q-.5-1.2-1.1-2.4c-1.6-4.5-1.6-8.9-.9-13.6 2.2-3.3 2.2-3.3 5-5 2.7-.1 2.7-.1 5 1 2.2 3.3 2.3 6.3 2.4 10.2.6 9 2.3 14.1 8.9 20.4 3.3 2.8 5.7 4 10.1 3.9 9.8-1.9 17.4-7.2 23.1-15.2 2.6-4.1 3.8-7.4 4.5-12.3q-.8-.2-1.7-.4c-9.5-2.9-17.3-7.7-22.3-16.6-2.6-6.6-3.4-14.3-1.3-21.2 3-5.9 8.3-10.3 14.4-12.7 10.4-2.9 21.8-.9 32.4.2z" fill="#023e4e"/><path d="M688.7 338.3c6.4 4.9 11 11 13.3 18.7q0 2 0 4c1.1-.2 1.1-.2 2.3-.5 10.7-1.5 17.2-.4 25.9 5.8 5.2 5 7 8.6 7.3 15.7-.3 7.3-2.4 11.3-7.8 16.2-7.5 6-15.2 6.8-24.7 5.8q-2.7-.9-5.3-1.9c-2.3-1-2.3-1-4.7-1.1-2.6 1.4-4.4 3.1-6.6 5-8.8 7.2-20.4 8.7-31.4 8-9.5-1.2-17.2-5.2-24-12q-2.6 0-5.3.1c-9 .3-16.1-.5-23.5-6.3q-1.1-1.4-2.2-2.8-.8-.9-1.6-1.8c-4.8-5.9-5.2-11.2-4.9-18.7.7-4.9 2.1-7.9 5.5-11.5q.7-.8 1.5-1.7c6.2-6 14.1-8.5 22.6-8.6 4.5.1 4.5.1 6.9 1.3l.6-2c4.2-8.8 11.2-13.8 20.1-17 12.8-3.8 24.8-2 36 5.3z" fill="#f7f0d3"/><path d="M808.4 158.6c7.5 4.6 12 11.2 16.7 18.5 5.4 8.3 11.5 16.1 17.9 23.6 7.7 9 12.4 16.3 12.3 28.3-.7 7-2.8 13-7.9 17.9-6.5 5.1-14.1 7.9-22.4 7.1-2.9-1.1-5.7-2.6-8.5-4-14.9-6.9-25.7-4.2-40.7 1.2-6.8 2.4-12.3 4.1-19.5 2-7.4-3.7-13.9-9-16.9-17-1.7-8.8-1.3-17.6 3.6-25.2 3.3-4.6 7-8.9 10.8-13.2 5.4-6.1 10.4-12.3 15-19.1 9.2-13.8 21-28.5 39.6-20.1z" fill="#004949"/><path d="M594 399c.5 2.8.5 2.8 0 6-2.8 3.8-5.8 5.4-9.9 7.3-5.8 2.7-8.2 6.1-11.1 11.7q-.8 1.6-1.7 3.3c-7.3 14.5-11.4 29.7-15 45.5-1.8 7.6-4.1 14.8-7 22-1.3 3.5-1.7 7-2.1 10.7-1.1 8.3-3.8 15.6-6.7 23.3-7.5 20.2-12.6 42-5.5 63.2-14.3.7-26.7-1.7-37.8-11.6-8.2-8.9-11.9-20.6-11.5-32.6 1.2-11.1 4.9-20.6 9.6-30.7q.7-1.4 1.4-2.9c2.8-5.6 5.9-10.8 9.7-15.9 9-12.9 13.5-29.4 18.6-44.1 7-19.9 15.7-42.2 35.1-52.9 3.3-1.6 6.5-3 9.9-4.3q1.3-.6 2.7-1.1c7.6-2.9 14.6-1.4 21.3 3.1z" fill="#b54d00"/><path d="M494 671c7.2 6 13.8 12.6 20.3 19.3q2.1 2.1 4.2 4.1c3 3.1 5 5.5 5.5 9.8-.4 5.8-4.3 9.7-7.8 14-2 2.6-3.2 4.7-4.2 7.8q.9.3 1.7.5 2.6.8 5.2 1.6 3.3 1 6.6 1.9 1.8.5 3.6 1.1 1.6.4 3.3.9c2.6 1 2.6 1 3.6 3-6.8-.7-12.8-2.8-19.1-5.1-4.8-1.6-4.8-1.6-9.8-1.4-2.5 1.8-3.7 3.5-5.3 6.1-3.8 5.7-8.3 9.4-13.8 13.4-2.9 2.2-4.9 3.8-6.9 6.9-2.5 3.7-4.5 5.6-8.1 8.1-2.9.3-2.9.3-5 0q-.2 1.6-.3 3.3c-.7 3.6-.9 4.6-3.7 6.7q0-2 0-4c-3.6 3.1-4.6 5.6-6 10-2.8 4.1-6 7.2-10 10-4-.4-5.7-2.5-8.2-5.5q-.8-.9-1.5-1.9l-1.7-1.9c-3.8-4.6-7.3-9.3-10.7-14.2-2.6-3.4-5.5-6.5-8.4-9.5-1.5-2-1.5-2-1.5-6 1.1-1.7 1.1-1.7 2.6-3.3q.8-.9 1.6-1.8c.9-1 .9-1 1.8-1.9q.8-.9 1.7-1.8c3.5-3.6 7.2-6.9 11.1-10.3 7.2-6.2 14-12.6 20.2-19.9 5.9-6.9 12.2-13.1 18.9-19.3 4.4-4.1 8.7-8.2 13-12.5.7-.7.7-.7 1.5-1.4 2.1-2.2 3.9-4.2 5.6-6.8z" fill="#005553"/><path d="M826 684c3.2 1.7 5.4 3.8 7 7q.1 2.7.1 5.4v2.9c-.1 2.4-.4 4.4-1.1 6.7q1-.1 2-.1c5.9-.3 9.4 0 14 4.1 2.9 3.5 3.5 6.4 3.3 10.9-.5 3.6-1.9 6.7-3.3 10.1q1 .1 2.1.1c4.7 1.4 8.5 4.6 11.1 8.8 1.5 3.8 1.6 7.1.8 11.1-2 3.3-4.4 6.1-7 9q-1.7 2.1-3.4 4.3-.7.9-1.4 1.8c-1.3 1.9-1.3 1.9-1.6 4.3-1.5 6.4-8.3 12-13.5 15.7-4.6 2.6-9 2.8-14.1 1.9-4.9-2.4-7.4-5.3-10-10q-.6-2-1-4-1.8-.3-3.6-.6c-4.8-1.2-8-3.8-11.4-7.4-1.5-3-1.1-5.7-1.1-9v-3.8c.1-3.2.1-3.2 1.1-5.2q-.9-.1-1.8-.3c-5.5-.9-8.6-2.1-12.2-6.7-3.2-5.2-2.6-11.1-2-17 3.5-11.8 14.6-23.4 24-31q3-1.1 6-2c1.7-2.4 1.7-2.4 3-5 4.5-3 8.8-2.8 14-2z" fill="#b24c00"/><path d="M556 641q.6 6.1 1.1 12.2.1 2.1.3 4.2c.9 9.1.5 16.2-3.4 24.6q-1 2.5-2 5.1-.6 1.3-1.1 2.6C545 704.2 540.5 719 536 734q-4.9-1.4-9.8-2.9-1.3-.4-2.7-.8-1.4-.4-2.7-.8c-1.3-.4-1.3-.4-2.5-.7-2.2-.8-4.2-1.7-6.3-2.8.6-5.9 4.3-9.3 8.1-13.7 2.5-4.3 3.2-7.4 1.9-12.3-1.9-3.1-4.4-5.6-7.1-8.1-1-1.1-1-1.1-2.1-2.2q-3.4-3.4-6.8-6.7-3.3-3.2-6.5-6.4-2-2-4-4-2.3-2.2-4.5-4.6 0-1 0-2c17.8-10.9 43.8-25 65-25z" fill="#d06700"/><path d="M263.7 837.3c3.8.1 5.9.4 9.2 2.5 2.3 2.6 4.2 5.2 6.1 8.2a49.76 49.76 0 0 0 1.9 3c4.1 7.1 4.1 7.1 4.1 12q-1.1.3-2.2.7c-3.3 1.5-4.8 3.2-7.2 6-5.4 6.2-11.2 12.1-17.1 17.9q-1.6 1.6-3.1 3.2-2.3 2.2-4.6 4.5-1.3 1.3-2.6 2.7c-4.1 3.8-7.8 3.3-13.2 3.3-5.4-.5-8.3-3.4-11.8-7.3-3.3-4.5-4.8-7.8-4.6-13.5 1.4-8.5 9.8-15.2 15.7-20.9 6.7-6.5 13-13.1 18.7-20.6 2.3-2.3 7.5-1.7 10.7-1.7z" fill="#008688"/><path d="M921.4 467.5c5.9 3.5 10.6 9 12.6 15.5.8 7.8 1.1 15.6-4 22-6 6.2-10.4 9.3-19.1 9.4-7.8 0-13.5-1.7-19.5-6.8-4.6-4.8-6.5-11.5-6.9-18 .3-6.5 3.1-12 7.4-16.7 8.1-7.3 19.2-10 29.5-5.4z" fill="#43baac"/><path d="M832 706c5-.4 8.9-.6 13.4 1.7 4 3.6 5.4 5.7 6 11.1-.2 4.5-1.6 8.1-3.4 12.2q1 .1 2.1.1c4.7 1.4 8.5 4.6 11.1 8.8 1.5 3.8 1.6 7.1.8 11.1-1.9 3.4-4.4 6.1-7 9q-.6.9-1.3 1.8c-3.2 4.3-7.2 7.2-11.6 10.1q-.9.6-1.8 1.3c-4.2 2.7-7.3 3.3-12.3 2.8-2.6-1.6-2.9-2.8-3.8-5.8-.2-3.2-.2-3.2 1.5-5.8q1.4-1.4 2.7-2.8.8-.7 1.5-1.5 2.5-2.6 5.1-5.1 3.2-3.2 6.4-6.3 2.1-2.1 4.2-4.2c3.4-3.3 6.2-6.3 8.4-10.5-4-1.3-4-1.3-8-1-2.6 2.2-4.6 4.6-6.8 7.3-2.5 3.1-5.3 5.5-8.3 8-2.6 2.3-5 4.7-7.4 7.2-2.8 2.8-4.4 3.5-8.4 3.9-3-.1-4-.4-6.6-1.9-2.1-3.4-2.1-6.6-1.5-10.5 1.4-2.5 2.6-4.3 4.4-6.4q.7-.8 1.4-1.6 2.1-2.5 4.2-5 1.2-1.4 2.5-2.9c2.9-3.3 5.7-6.4 9.1-9.2 5-4 7.8-8.8 9.4-14.9q-3 0-6 0 0-.5 0-1z" fill="#e58000"/><path d="M775.1 94.1c8.5 5.8 12.9 16 14.9 25.9.7 10.4.1 20.7-7 29-4.1 2.6-7.2 3.8-12 3-7.9-3.8-12.6-9.4-16-17.4-3.2-9.8-3.9-23.2 0-32.8 2.1-3.7 4.5-6.6 7.8-9.2 4.5-1.2 8.3-.6 12.3 1.5z" fill="#004847"/><path d="M830 93c5.9 3.9 8.7 11.4 10 18 1.4 13 .5 25.5-8 36-5 4.4-7.9 5.4-14.5 5.3-3-.4-5-1.4-7.3-3.6-6.4-8.7-7-18.6-6-29.1 1.7-9.3 6.7-19.3 14-25.4 4-1.7 7.5-2.2 11.8-1.2z" fill="#004948"/><path d="M454 938h7q.2 1.1.4 2.1c2.5 11.5 7.2 23.7 16.5 31.5 10.4 6.4 21.1 7.9 33.1 5.9 11.3-2.8 19-8.1 26-17.5 1.9-3.2 3.5-6.5 5-10 2.9 1.1 5.6 2.3 8.4 3.6 7 2.6 15.5 2.7 22.6.4 7-3.4 11.9-7.3 16-14q.5 1 1 2-1 1.5-2 3-.4 1.7-.9 3.4c-1.9 6.3-5.5 9.3-11.1 12.6-5.9 2.7-12.3 3.1-18.5 1.3-4.8-2-7.9-4.4-11.5-8.3q-1.5-.5-3-1c-2.6 4.6-3.6 8.7-4.2 13.9-.3 2.3-.5 4.7-.8 7.1h18q0 .5 0 1h-18q-.5 2.5-1 5c-5 7.9-11.8 11.5-20.6 13.6-13.4 2.3-30.5 2.4-42-5.4-8.9-7.2-11.1-15.1-12.4-26.2q-.5-4.9-.8-9.9A289.66 289.66 0 0 0 460 939q-3 0-6 0 0-.5 0-1z" fill="#016d6a"/><path d="M579 304.9c4.9 3.3 8 7.5 10 13.1 1 6.7.9 13.3-2.6 19.2-4.4 5.7-9.2 9.6-16.4 10.8-7.9.8-13.2-1.7-19.8-5.7-4.8-5-6.4-10.5-6.7-17.4.3-6.4 1.7-10.9 6.1-15.6 8-7.3 19.5-9.2 29.4-4.4z" fill="#44baac"/><path d="M732.9 136.6c9.1 4 16.8 11.7 21.2 20.6 2.2 6.7 2.3 15.9-.1 22.6-2.1 3.6-4.1 5.6-8 7.2-8.1 1-13.6-2-20.2-6.5-6.3-5-11.4-12.4-12.8-20.5-.8-8-.5-13.7 4.3-20.3 4.4-4.4 9.9-4.8 15.6-3.1z" fill="#004847"/><path d="M616 587c3.3 1.1 3.7 1.7 5.7 4.4 4.3 5.2 9.3 6.4 15.8 7.3 1.7.1 1.7.1 3.5.3.6 12.3-2.9 20.7-11 30-6.8 6.2-12 7.4-21.1 7.3-4-.4-6-1.5-8.9-4.3-5.3-7.2-6.8-13.1-6-22 1.8-9.1 8.8-13 16-18q1.8-1.5 3.6-3.1 1.2-.9 2.4-1.9z" fill="#d34b20"/><path d="M280 377c4.3.3 6.2 3 9 6q2.1 2.6 4.1 5.3c14.7 18 38.9 30.4 61.9 33.7 10.2.8 21 .5 31-2l1 13c-13.7 7.5-33.7 5.4-48.3 1.2-23.8-7.6-42.2-22.4-55.7-43.2q-.7-1.1-1.5-2.2c-2.3-3.7-3-6.4-2.5-10.8q.5-.5 1-1z" fill="#b24c00"/><path d="M872 135c4.2 2.1 7.2 4.5 9.3 8.8 2.5 7.8 1.3 15.2-2.3 22.5-5 9.4-11.8 16.3-22 19.7-4.4.7-7.8.5-11.9-1.1-3.9-3.5-5.5-7.8-6.1-12.9q-.1-.9-.3-1.9c-.7-9.2 4.3-17.1 10-24 6.1-6.4 14.2-12 23.3-11.1z" fill="#004847"/><path d="M620 944c2.6 2.4 4.2 4.8 5.9 7.9 2.3 3.9 4.6 7 8.1 10.1q.7.7 1.5 1.5c7.7 7.2 17.5 9.9 28 9.7 13.7-1.1 25.4-6.9 34.5-17.2q1.5-1.5 3-3c.6 7.6-1.6 13.9-4 21l2.4-.2c12.5-1 25-.9 37.6-.8q0 .5 0 1c-8.5 1.2-17 1.1-25.6 1.1q-2.2 0-4.5-.1-5.4 0-10.9 0-.4 1.4-.9 2.9c-1.8 5.2-5.6 7.8-10.4 10.3-7.2 3.3-13 4-20.8 4q-1.4.1-2.8.1c-9.4.1-18.7-2.1-26.1-8.3-.5-.8-.5-.8-1-1.7-2.2-3.3-3.9-5-7.9-6-3.7-.2-7.3-.2-11-.2q-2.1 0-4.1 0-5.3-.1-10.7 0-5.4 0-10.9-.1-10.7 0-21.4 0 0-.5 0-1l60-1c-2.5-12.2-2.5-12.2-6-24q-1-3-2-6z" fill="#016d6b"/><path d="M334.5 327.4c2.5.6 2.5.6 4.1 2.6 1.1 2.3 1.9 4.4 2.7 6.8 3.7 10 11.4 14.3 20.7 18.5 14.9 6.5 31.5 7.9 47 2.7q2.2-1 4.4-2.2c3.4-1.7 5-2.4 8.6-1.8 2.6 2.6 2.4 4.5 2.6 8-.6 2-.6 2-2.7 3.6-3.3 1.6-6.7 2.9-10.2 4q-.9.3-1.9.7c-18.4 6.1-39.2 3.3-56.4-5.1-10.2-5.3-19.5-12.9-23.8-23.9-1.4-7.8-1.4-7.8.6-11.7 1.8-1.6 1.8-1.6 4.3-2.2z" fill="#b14b00"/><path d="M411.1 243.6q1.4.2 2.9.4c2.2 3.3 2.7 5.7 3.6 9.5q.2 1 .4 2 .7 3.1 1.4 6.3.9 4 1.7 8.1.3 1 .5 2c1.3 6 2.9 11.9 4.6 17.8 2.6 10.2 3.2 20.5-1.2 30.3-3.8 4.8-8.6 7.3-14 10-4.5.5-8 .5-12.1-1.6-1.9-2.4-1.9-2.4-2.3-5.5.4-2.9.4-2.9 2.4-4.9q1.9-.2 3.8-.4c4.1-.4 6.3-1.6 9.2-4.6 4-12.1.1-26.1-3-37.9-5.3-21-5.3-21-4-27.1 2.3-3.9 2.3-3.9 6.1-4.4z" fill="#b24c00"/><path d="M843.3 390.7c5.1 2.2 8.1 5.5 10.7 10.3 1.9 5.7 1.9 11.7-.5 17.3-3 5.2-7.8 8.8-13.5 10.7-6.5.6-11.5-.4-17-4-4.8-4.9-6.8-9-7.3-15.7.1-5.4 2-9.9 5.8-13.8 6.5-5.7 13.3-7.2 21.8-4.8z" fill="#44bcad"/><path d="M450 738c2.2-.3 2.2-.3 5 0 2.4 2.3 2.4 2.3 4.6 5.3 2.9 3.9 2.9 3.9 6.2 7.4 1.2 1.3 1.2 1.3 1.2 3.3 3.6 2.3 6.8 2.2 11 2-.4 2.7-.8 3.8-2.8 5.8-2.6 1.4-4.2 1.4-7.2 1.2q-.5 2-1 4c-3-2.7-5.3-6-7.6-9.4q-.6-.8-1.2-1.7c-2.2-3.2-3.9-6.2-5.2-9.9q-1 0-2 0c-1.4-2.7-1.1-5-1-8z" fill="#00424d"/><path d="M826 684c3.2 1.7 5.4 3.7 7 7 .6 6 .7 11.3-2.7 16.4-1.9 2.4-4.1 4.5-6.3 6.6-2.4 2.4-4.4 4.9-6.4 7.5-10.5 13-10.5 13-17.4 13.8-3.9-.4-5.4-1.6-8.2-4.3-1.6-3.1-1.7-5.7-1-9 3.4-7.2 8.6-12.9 14-18.6 4.8-5.1 9.6-10.4 11-17.4q-2 1.5-4 3-1-.5-2-1c4.5-5 9.7-5.1 16-4z" fill="#e47f00"/><path d="M582.4 849.9c10.9 4.2 18.1 11.4 23.4 21.6 2.8 8 2.2 17.7-.8 25.5h-9q0-1.7 0-3.4c-.3-10.5-1.4-18.3-8.6-26.5-6.2-5.3-10.2-6.4-18.3-6.4-3.8.4-6.3 1.5-9.4 3.5-2.3 1.1-3.4.6-5.7-.2q-1-.5-2-1c-.3-2.2-.3-2.2 0-5 8.2-9.9 18.5-11.2 30.4-8.1z" fill="#6cbca9"/><path d="M379 204c2.5 2.2 3 2.6 3.3 6.1-.3 2.9-.3 2.9-2.3 4.9-5.3.6-9.3-1-14.1-2.9-12.2-4.9-21.5-5.2-33.9-.1-2.9 1.8-5.7 3.6-8.5 5.7-3.2 1.7-5 1.3-8.5.3-1-1-1-1-1.6-4.1.8-5.2 2.9-6.8 6.9-10 17.2-11.9 41.8-13.2 58.7.1z" fill="#033b4e"/><path d="M472.7 205.1C482 212 482 212 484 216c.2 3.5.2 3.5 0 7q-1 1-2 2c-4.1-.3-6.5-1.8-9.7-4.3-7.5-5.4-14.5-8.6-23.9-8.3-5.1.9-9.8 2.9-14.5 5.1-6.7 3.1-6.7 3.1-10.9 2.5q-.5-.5-1-1c.3-5.4 1.3-8.1 5-12 3.1-1.8 3.1-1.8 6.5-3.3q1.7-.7 3.4-1.5c11.1-4.4 25.7-3.7 35.8 2.9z" fill="#043c4f"/><path d="M483.2 1021.1c4.2 2.8 7.2 6 8.8 10.9.5 6.2-.1 10.1-4 15-3.6 3.5-6.6 4.3-11.4 4.6-5.5-.3-8.9-1.6-12.6-5.6-3-4.2-3.7-8.3-3.6-13.5 1-4.6 4.1-7.6 7.6-10.5 5-3 9.9-2.7 15.2-.9z" fill="#7ccfbe"/><path d="M481 695c4.4 1.9 6.6 4.9 9.3 8.7 3.9 5.3 7.9 10.7 12.7 15.3 2 2 2 2 2 4q1 0 2 0l1 2c2 1.1 2 1.1 4 2q-.8.1-1.7.3c-4.6 1.5-7.2 4.3-9.5 8.4-4.5 7.7-12.7 12.3-19.8 17.3q-1 1-2 2-.1-.8-.2-1.7c-1.1-6.3-3.4-10-7.5-14.8q-1.7-1.9-3.3-3.9-.8-.9-1.6-1.9c-1.8-2.2-3.5-4.5-5.1-6.8q-.7-1-1.4-2c-1.1-2.4-1.1-4.3-.9-6.9q2.5-.5 5-1 .9 1.1 1.8 2.3 1.2 1.4 2.5 2.9 1.1 1.5 2.3 3c2.3 2.8 2.3 2.8 4.7 5 1.7 1.8 1.7 1.8 1.7 3.8q1 0 2 0c2.6 2.4 2.6 2.4 5 5q0 1 0 2c3.4-.1 6-.3 8.8-2.3 3.1-3.3 4.6-5.6 4.6-10.1q-.2-1.8-.4-3.6-1 0-2 0c-2.9-3.5-5.4-7.3-8-11q-1-1.3-2-2.7c-3.6-4.8-5.9-8.2-6-14.3q1-.5 2-1z" fill="#00414c"/><path d="M616 587c3.3 1.1 3.7 1.7 5.7 4.4 4.3 5.2 9.3 6.4 15.8 7.3 1.7.1 1.7.1 3.5.3.3 6.1-.3 11.2-2 17q-1.4-.2-2.8-.5l-3.6-.6q-1.8-.3-3.7-.6-1.4-.1-2.9-.3-.5.5-1 1c-2.2.5-2.2.5-5 0-1.3-1.6-1.3-1.6-2.8-3.6-1.4-1.9-1.4-1.9-3.2-3.4-2.4-.3-4.3.1-6.6.5-3.8.8-7.5.6-11.4.5q-.5-1-1-2c2.6-6.4 6.7-9.3 12.3-13.1 2.2-1.6 4.2-3.1 6.2-5q1.2-.9 2.5-1.9z" fill="#aa3710"/><path d="M887 626c4 1.4 7.1 3 10 6.1 1.6 4.6 1.9 9 1 13.9-2 3.8-4.7 6.2-8.4 8.5-5.3 1-9.2.2-13.9-2.2-3.5-3-5.3-5.6-6-10.3-.3-5.1.9-8 4.3-12 4.4-3.7 7.3-4.8 13-4z" fill="#43b9aa"/><path d="M466 245q1.5.9 3.1 1.8c5.1 3.9 9.6 7.5 10.4 14.1-.5 3.1-.5 3.1-1.5 4.1-2.8.4-2.8.4-6 0-2.6-2.2-2.6-2.2-5-5-4.9-4.5-9.9-6.7-16.5-7.4-5.8.6-10.4 2.2-14.7 6.2-2.8 2.2-2.8 2.2-5.6 2.1-2.2-.9-2.2-.9-3.2-1.9-.6-3.3-.5-5.3 1.4-8.1 9.6-11.5 24.7-13.2 37.6-5.9z" fill="#053b4f"/><path d="M364.4 239.5c3.2 2.3 5.4 4.2 7.6 7.5q.1 3.5 0 7l-4 2q-1-.7-2-1.5-1.3-.9-2.7-1.9-1.3-.9-2.6-1.9c-6.9-4.4-13.7-4.6-21.7-3.7-3.1 1.2-5.5 2.8-8 5-3.6 3-3.6 3-6.1 2.8-1.9-.8-1.9-.8-3.9-2.8-.6-2.7-.4-4.3 1-6.7 10.4-13.5 28.6-14.4 42.4-5.8z" fill="#053b4e"/><path d="M223.6 230.8c3.4.2 3.4.2 4.4 1.2q3.3.2 6.6.2c3.6 1.2 5.5 3.7 7.4 6.8.6 3.6.6 3.6.6 7.5q0 1 0 2.1 0 2.2 0 4.4 0 3.3 0 6.7 0 2.1 0 4.2c0 1.9 0 1.9-.1 3.9-.5 3.2-.5 3.2-2.4 5.1-2.6 1.4-4.2 1.6-7.1 1.1-3.2-3.2-3.4-5.9-3.5-10.3-.1-1.8-.1-1.8-.1-3.6q-.1-1.9-.1-3.9 0-1.8-.1-3.8-.1-4.7-.2-9.4-.9-.2-1.9-.4c-1.2-.2-1.2-.2-2.5-.5q-1.2-.2-2.4-.5c-2.2-.6-2.2-.6-4.2-2.6-.2-3-.2-3 0-6 2-2 2-2 5.6-2.2z" fill="#b24c00"/><path d="M601.8 460.4c5.9 3.1 11.4 8.5 14.1 14.7.6 3 .2 4.7-1.3 7.3q-.8.8-1.6 1.6c-3.2-.3-4.6-.6-6.8-3q-.8-1.1-1.6-2.4c-3.3-4.4-5.9-7-11.5-7.9-5.2-.3-8 1.1-12.1 4.3q-2.5 1.5-5 3c-2.5-1.1-2.5-1.1-5-3-.7-2.7-.7-2.7 0-6 6.7-10.8 19.2-12.9 30.8-8.6z" fill="#033d4e"/><path d="M707 473c9.6 7.2 9.6 7.2 10.4 12.4-.4 2.6-.4 2.6-2.2 5-2.2 1.6-2.2 1.6-4.2 1.4-2.6-1-3.3-2.3-4.8-4.6-3.6-5-7-7.6-13.1-8.8-7.5 1.4-11.9 6-16.1 12q-.5.8-1 1.6c-2.5-1-2.5-1-5-3-1-5.7.1-9.5 3.4-14.2 8.6-9.4 22.6-7.8 32.6-1.8z" fill="#033d4f"/><path d="M867 903q1 0 2 0 0 1 0 2l2.6.2c12.5 1.2 24.2 5.1 35.4 10.8-.2 1.9-.2 1.9-1 4-9.4 5.3-22.5 7.5-33 9q-1 .5-2 1 .1-1.6.1-3.2c.4-10.5.4-10.5-3.2-20.2-.9-1.6-.9-1.6-.9-3.6z" fill="#00575c"/><path d="M285 808c4.8.1 7.6 2.9 10.9 6.1q.8.7 1.6 1.5c11 10.5 17 20.3 20.5 35.4q0 1.5 0 3l-9 1-.2-1.9c-1.9-14.2-8.9-25.6-20.1-34.2q-1.3-1-2.6-1.9c-2.5-2.3-3-3.7-3.1-7q1-1 2-2z" fill="#b04a00"/><path d="M309 784c7.8 1 14.6 6.9 19.4 12.9 4.7 6.9 6.8 14.2 8.4 22.2q.1 1 .3 2c.9 4.7 1 9.1.9 13.9q-3.5.6-7 1c-2-2-1.6-5.6-1.9-8.3-1.7-14.6-4.3-23.7-15.8-33.6-2.1-1.9-3.8-3.7-5.3-6.1.3-2.2.3-2.2 1-4z" fill="#af4a00"/><path d="M327 759c3.6-.5 4.8-.1 7.8 2q1.5 1.4 3 2.8.8.8 1.6 1.5c14.3 13.9 19.6 31.3 22.6 50.7l-8-1c-1.5-4.9-2.4-9.5-3.2-14.6-2.5-14.3-9.8-26.8-21.6-35.5q-1.1-.9-2.2-1.9 0-2 0-4z" fill="#ae4900"/></svg>