<svg xmlns="http://www.w3.org/2000/svg" width="1024" height="1024" xmlns:v="https://vecta.io/nano"><path d="M139.9 460.7h4q5.4 0 10.8 0 5.9 0 11.7 0 10.4 0 20.7 0 15.3 0 30.7 0 28.9 0 57.9 0 22.4 0 44.8 0 3.2 0 6.4 0 4.9 0 9.7 0 45.1 0 90.1 0h3.4q8.6 0 17.3 0h3.4q3.5 0 6.9 0 53.8 0 107.6 0 60.5-.1 120.9-.1 6.5 0 12.9 0h3.2q24 0 47.9 0 27.3 0 54.5 0 15.3 0 30.5 0 10.2 0 20.4 0 5.8 0 11.6 0 6.3 0 12.5 0 1.8 0 3.6 0c12.4.1 22.5 2.6 31.7 11.3 8.2 8.7 10.3 17.8 10.2 29.5-.6 10.7-5.3 19.1-13 26.4-6.9 5.7-13.5 7.4-22.2 8.2q0 .9 0 1.8c-.6 30.9-3.9 61.8-9 92.2q-.3 1.7-.6 3.4c-8.1 48.9-20.5 101.5-55.5 138.6-1.6 1.7-3 3.4-4.5 5.2-4.9 5.7-10.8 10.2-16.8 14.8q-.8.6-1.7 1.3c-2.6 2-5.1 3.8-8 5.5-5 2.8-5 2.8-7.6 7.6-.1 3.3.3 6.3.7 9.6q.3 2.5.5 4.9.4 4.1.8 8.2c2.3 24 2.3 24-3.3 30.9-6 6.3-12.5 9.6-21.2 10.2-11.5.3-20.3-2.2-28.8-10.2-2.3-2.6-4.4-5.2-6.6-7.9-2.6-3.3-5.2-6.4-7.9-9.6q-6.4-7.5-12.5-15.2c-1-1.1-1-1.1-2-2.3q-.8-1-1.7-2.1c-3.1-2.5-4.9-2.4-8.8-2.4q-1 0-2 0-3.2-.1-6.5 0-2.4-.1-4.8-.1-6.5 0-13.1 0-7 0-14.1-.1-15.4 0-30.9 0-9.6 0-19.2-.1-26.7 0-53.4 0h-3.4q-3.5 0-6.9 0c-1.7-.1-1.7-.1-3.5-.1h-3.5q-27.8 0-55.7-.1-28.6-.1-57.2-.1-16.1 0-32.2-.1-13.7-.1-27.3 0-7 0-14 0-6.4-.1-12.8 0-2.3 0-4.6-.1c-8.6-.2-8.6-.2-16.3 3.5-2.2 2.5-4.2 5-6.1 7.8q-1.4 1.8-2.8 3.5-1.2 1.6-2.4 3.2c-22.4 28.8-22.4 28.8-36.8 32.3-10.5 1.2-18.5-.5-27.3-6.1-5.2-5.5-8-11.1-8.1-18.7.2-5 .6-10 1.1-14.9q.4-4.2.8-8.3c.3-3 .6-5.9 1.1-8.9.4-3.4.5-5.8-.6-9.1-3.4-3.6-7.1-6.2-11.3-8.9-44.7-29.1-66.3-83.6-77-133.6-8.4-41-14.5-83.6-13.7-125.5q-1.6 0-3.2.1c-9.3-.2-16.1-4.3-22.6-10.7-7.7-8.4-10.9-18.4-10.5-29.7 1-9.8 5.3-19.4 12.7-26.1 9.9-7.7 20.2-8.9 32.5-8.9z" fill="#fecc10"/><path d="M782 100q1.3.4 2.7.9c18.5 6.5 33.7 21.9 42.1 39.4 1.2 2.5 2.3 5 3.2 7.7q.5 1.4 1 2.9c3.9 13.2 3.5 26.4 3.5 40.1q-.1 5.4 0 10.9 0 9.4-.1 18.8 0 13.6 0 27.2 0 22.1-.1 44.2-.1 21.4-.1 42.9 0 1.3 0 2.7 0 6.6 0 13.3-.1 55-.2 110h-46v-10.9q-.1-49.5-.2-99 0-6.5-.1-13v-2.6q0-21-.1-41.9 0-21.4 0-42.9-.1-13.3-.1-26.5 0-9.1 0-18.2-.1-5.2-.1-10.4 0-5.7 0-11.4 0-1.7 0-3.3c-.1-9.3-1.5-17.8-7.5-25.1-7.3-7.1-16.6-10-26.5-11.2-9.8 1.2-15.9 6.1-22.5 13.1q-1.2 1.2-2.3 2.5-2.8 2.9-5.6 5.8.7 2.3 1.4 4.6.4 1.3.8 2.8.9 3 2 6.1c9.2 30.7.5 65.1-14.1 92.7-10.6 19.3-23.1 36.7-39.4 51.5-6.5 6-11.6 11.9-16 19.5-3.2 5.5-6.5 8.7-12.7 10.8q-2.6.2-5.2.3-1.3.1-2.7.1c-9.1-1.2-14.7-7.5-20.9-13.8q-2-2.1-4.1-4.2-2.9-2.9-5.8-5.9-5-5.1-10.1-10.2-2.6-2.7-5.3-5.4c-4.2-4.2-8.3-8.2-12.9-11.9q-2.5-2.5-5-5-.8-.8-1.6-1.6a91.29 91.29 0 0 1-4.4-4.4q0-1 0-2l-1.8-.8c-2.4-1.3-4-2.8-6-4.7q-1.1-1.1-2.2-2.2l-2.5-2.5q-1.2-1.2-2.6-2.5-3.5-3.5-6.9-7-2.2-2.2-4.4-4.3-7.7-7.6-15.3-15.3-7.1-7-14.2-14.1-6.1-6.1-12.2-12.2-3.6-3.6-7.3-7.2-4.1-4.1-8.1-8.1-1.2-1.2-2.5-2.4c-5-5.2-9.7-10.6-10.1-18.1.1-4.7 1.5-8.5 4.4-12.1 2.6-2.3 5.4-3.3 8.7-4.4 13.6-5 25.4-13.4 37.4-21.5 15.9-10.7 31.8-21.2 49.6-28.6q1.5-.6 3.1-1.3c29.9-11.3 65-12.7 94.9-.7 4.3 2 8.5 4.1 12.7 6.3q1.6.9 3.3 1.7c1 .5 1 .5 2.1 1.1 2.8-.1 4-1.8 5.9-3.8l1.4-1.6c23.1-24.2 55.2-35.3 87.6-23.7z" fill="#43bbdb"/><path d="M131 536h759l-1 27H132c-1.5-8.9-1-18-1-27z" fill="#fb9f06"/><path d="M782 100l2.7.9c18.5 6.5 33.7 21.9 42.1 39.4 1.2 2.5 2.3 5 3.2 7.7q.5 1.4 1 2.9c3.9 13.2 3.5 26.4 3.5 40.1q-.1 5.4 0 10.9 0 9.4-.1 18.8 0 13.6 0 27.2 0 22.1-.1 44.2-.1 21.4-.1 42.9 0 1.3 0 2.7 0 6.6 0 13.3-.1 55-.2 110h-46v-10.9q-.1-49.5-.2-99 0-6.5-.1-13 0-1.3 0-2.6 0-21-.1-41.9 0-21.4 0-42.9-.1-13.3-.1-26.5 0-9.1 0-18.2-.1-5.2-.1-10.4 0-5.7 0-11.4 0-1.7 0-3.3c-.1-9.3-1.5-17.8-7.5-25.1-7.3-7.1-16.6-10-26.5-11.2-9.7 1.2-15.9 6-22.5 12.8q-1.2 1.2-2.3 2.3c-4.2 3.9-4.2 3.9-5.8 9.1q.1 1.1.2 2.2c-2.5-2.5-2.9-4.7-4-8-7-13.2-19.4-28-34-33q.8-.1 1.7-.2c3.4-1.2 5.3-3.7 7.7-6.2 23.3-24 55.1-35.2 87.6-23.6z" fill="#1cafd4"/><path d="M531.8 316.3c2.4 1.9 3.3 2.7 4.2 5.7.6 7.6-1.3 14.4-3.1 21.7q-.5 2-1 3.9c-12.3 49.5-12.3 49.5-27.9 60.4-10.3 5.6-22 6.9-33.4 4.2-10-3.8-17.8-10.5-22.7-20-4-9.6-4.7-21.1-1.4-31.1 6.6-15.2 19.6-22.1 34.1-28.4q1.9-.9 3.8-1.7c40.6-17.8 40.6-17.8 47.4-14.8zM449 244c2.9 1.8 4.5 3 6 6 .3 5.2-.4 9.8-1.7 14.7q-.3 1.1-.5 2.2-.9 3.5-1.8 7-.3 1.2-.6 2.5c-2.6 10.1-5.3 20.2-8.6 30.2-.4 1.3-.4 1.3-.9 2.7-4.4 12.8-10.4 23.4-22.7 29.7-9.7 4.4-21.5 4.8-31.5 1.1-9.9-4.7-17.5-12.3-21.7-22.4-3.7-10.9-2.7-21.3 2-31.7 1.7-3 3.7-5.5 6-8q.9-1 1.8-2c4.3-4.2 8.9-7.1 14.2-9.7q1-.5 2.1-1c8.4-4.1 17-7.9 25.6-11.6q2.8-1.2 5.6-2.4 4.1-1.9 8.2-3.6 1.2-.6 2.5-1.2c5.3-2.2 10.2-3.4 16-2.5z" fill="#78d8e9"/></svg>