<svg xmlns="http://www.w3.org/2000/svg" width="1024" height="1024" xmlns:v="https://vecta.io/nano"><path d="M641.4 221.8c10.1 8.4 16.9 19 21.6 31.2q.5 1.3 1 2.6c5.6 16.4 2.4 37.2-4.6 52.6-7 13.5-18.4 24.8-28.7 35.8-4.1 4.3-7.9 8.8-11.6 13.4-2.1 2.6-4.3 5-6.5 7.4-15.6 16.8-15.6 16.8-20.8 38.3.4 6 2 10.2 6.5 14.3 6.7 5.7 15.8 5 24.1 5.2q2.1 0 4.2.1l26 .5q5.6 0 11.3.1 7.5.1 15.1.2 3.5.1 7 .1 1.6 0 3.3 0c12.1.2 22.9 2.6 32 11.1 8 8.5 10 17.4 9.9 28.7-.8 14-9.2 23.9-18.4 33.6-2.6 2.7-5 5.6-7.3 8.5-3.6 4.5-7.5 8.8-11.4 13-3 3.3-5.8 6.6-8.6 10-3.2 4-6.5 7.8-10 11.5-4.3 4.6-8.3 9.4-12.3 14.3-3.1 3.8-6.4 7.3-9.7 11a133.91 133.91 0 0 0-6.9 8.1c-3.7 4.6-7.5 8.9-11.5 13.1-3.8 4.1-7.3 8.4-10.9 12.8-3.1 3.8-6.4 7.3-9.7 11a133.91 133.91 0 0 0-6.9 8.1c-3.7 4.6-7.5 8.9-11.5 13.1-3.8 4.1-7.3 8.4-10.9 12.8-3.1 3.8-6.4 7.3-9.7 11a133.91 133.91 0 0 0-6.9 8.1c-3.3 4-6.6 7.8-10.1 11.6-4.3 4.6-8.4 9.4-12.3 14.4-2.2 2.6-4.4 5.1-6.7 7.6-3.1 3.4-6.1 6.9-8.9 10.4-3.9 4.8-8 9.3-12.1 13.8-2.4 2.7-4.7 5.5-7 8.3-3.8 4.8-7.9 9.3-12 13.8a133.91 133.91 0 0 0-6.9 8.1c-4.2 5.2-8.6 10-13 14.8q-4 4.4-7.9 8.8l-8.5 9.6q-2.9 3.2-5.8 6.5c-12.7 14.5-28.1 25.2-47.8 27.1-18.6 1-33.7-2.3-48.2-14.4-10.6-9.8-18.7-23.9-19.6-38.5q0-4.7 0-9.5-.1-1.6-.1-3.3c-.1-20.7 12-35.1 24.2-50.7l10.1-13.3q2-2.6 4-5.2 1-1.3 2-2.7 3.1-4 6.1-8 11.4-14.9 22.6-29.9 2.9-3.8 5.8-7.7 1.1-1.4 2.2-2.9 2.6-3.4 5.2-6.9c5-6.6 10-13.3 14.7-20.2q.6-.9 1.2-1.8c5.6-8.4 7.1-16.1 6.2-26.2-1.8-5.9-6-9.6-11-13-9.3-4.3-20.2-3.4-30.2-3.4q-4.8 0-9.7 0-10.3-.1-20.6-.1-12 0-23.9-.1-4.8 0-9.5 0c-14.7 0-26.9-.7-38.1-11.3-7.1-7.6-10.4-16.3-10.2-26.6 1.2-14.7 11.1-25.1 20.5-35.5l8.2-9.5q1.6-1.9 3.2-3.7l1.7-1.9q2.4-2.9 4.9-5.7 10.1-11.7 20.2-23.5 3.8-4.3 7.5-8.7 1.5-1.7 3-3.5l19.5-22.8q1.5-1.7 3-3.4 3.8-4.5 7.6-8.9l13.3-15.8c5.2-6.4 10.6-12.5 15.9-18.7 7-7.9 13.8-16 20.6-24q5-5.9 10-11.8.8-.9 1.5-1.8 3.9-4.5 7.7-8.9l13.3-15.8c5.2-6.4 10.6-12.5 15.9-18.7 6.2-7.1 12.4-14.3 18.4-21.7 3.6-4.4 7.3-8.6 11.1-12.7 2.2-2.5 4.2-4.9 6.1-7.5 28.5-35.8 78.5-44.4 115.5-16.2z" fill="#2cacdc"/></svg>