<svg xmlns="http://www.w3.org/2000/svg" width="1024" height="1024" xmlns:v="https://vecta.io/nano"><g fill-rule="evenodd"><path d="M881.5 542.5q-3 0-6 0-.5 38.3 1 76-2 11.8-12 18.5-5.4 2.6-10.5 5.5.6 106.1-88.5 162.5-33.6 18.7-72 20.5-185-2-370 0-97-12.8-138.5-101-9.3-23.3-14-48-10.5-66.2-23-132-27.4-2.2-44-24-3.5-5.6-4.5-12-3.1-34.9-1.5-70 .8-4.1 2.5-8-.2-.9-1-1 11.8-28.5 43-31.5 11-1.1 22 .5 2.5-.4 4.5-2 42.5-79 88-156 27.8-36.3 72.5-47.5 6.5-.5 13-1 173.5-1.5 347 1 60.9 13.5 89.5 68.5 38.1 68.4 76.5 136.5 19.7-.2 39 3 25.3 9.3 31.5 35.5 1 32.5 0 65-7.3 36.8-44.5 41z" fill="#012575"/><path d="M686.5 215.5q-2 0-4 0-171-2-342 0-3 0-6 0 2.2-1.2 5-1.5 172-1 344 0 1.9.3 3 1.5z" fill="#000453"/><path d="m682.5 215.5q-171 2-342 0 171-2 342 0z" fill="#30cbea"/><path d="M334.5 215.5q3 0 6 0 171 2 342 0 2 0 4 0 44.3 11.8 68.5 51 41.6 75.7 84 151 2.6 3.2 6.5 4.5 19.5.5 39 1 14.9 4.4 18.5 19.5 1 26 0 52-1.7 17-17.5 23-15.2.1-31-.5-.7-3.9-2-5.5-7.4-50.9-55-70 1.9-.5 0-1.5-7-1.5-14-3-56-1.2-102 .5-54.5 6-71 58-2.2 3.2-2.5 9-.7 6-.5 12-234.8-.5-469 1-12.3-4-17.5-16-2.4-27.4-1-55 .9-17.6 17.5-23.5 20.9-1.9 42-2 3.2-1.7 5.5-4.5 44.7-81.5 91-162 23-29.1 58.5-39z" fill="#2cbade"/><path d="M470.5 249.5q41.5-.3 83 .5.8.8 1.5 1.5 4.1 73.6 11.5 147-.5 2.5-1 5-53.4 1.7-107 .5-3-2.1-3-6 6.8-72.7 12.5-145.5 1.6-1.3 2.5-3z" fill="#91eaf1"/><path d="m603.5 249.5q77.2-13.8 116.5 53 25 44 50 88 1 5 0 10-1.3 1.3-2.5 2.5-74 1-148 0-3.4-17.6-5.5-35.5-6.1-52.5-12-105-1.4-6.8 1.5-13z" fill="#92eaf1"/><path d="M371.5 249.5q24.9-.5 49.5 1-8.7 75.5-18 151-1.3 1.3-2.5 2.5-72 1-144 0-1.3-1.3-2.5-2.5-1-6 0-12 28.7-51.5 59-102 22.2-30.2 58.5-38z" fill="#8ee9f0"/><path d="M797.5 441.5q-9.4-2.2-19-3.5-48.5-.8-97-.5 46-1.7 102-.5 7 1.5 14 3 1.9 1 0 1.5z" fill="#38dcf2"/><path d="M99.5 429.5q.8.1 1 1-1.7 3.9-2.5 8-1.6 35.1 1.5 70-2.1-3.6-2.5-8-1-32 0-64 1.1-3.6 2.5-7z" fill="#000352"/><path d="M610.5 495.5q-1.4 10.5-2 21-.2.9-1 1.5-234.5.8-469 .5 0-.5 0-1 234.2-1.5 469-1-.2-6 .5-12 .3-5.8 2.5-9z" fill="#31cbea"/><path d="M885.5 517.5q-15.9 1.7-32 .5-1.4-3.1-1-6.5 1.3 1.6 2 5.5 15.8.6 31 .5z" fill="#39e7f9"/><path d="M608.5 516.5q1.9 1 0 2.5-235.3 1.2-470-.5 234.5.3 469-.5.8-.6 1-1.5z" fill="#00024c"/><path d="M608.5 543.5q-.2-.9-1-1.5-109-.3-218-.5-109.5 0-218 2-2.2 2.9 1-3.5 217.5-1 435 0 2.7 1.6 1 3.5z" fill="#00156a"/><path d="M608.5 543.5q0 64 0 128-1-64.1-2-128.5-216.5-.8-433-.5.4 2.9-1 5 .4-2.4-1-4 108.5-2 218-2 109 .3 218 .5.8.6 1 1.5z" fill="#22dbf5"/><path d="M608.5 671.5q6.1 75.9 81 87.5 39.5 1 79 0 9.8-.5 19-3.5 1.4 1.9-.5 4-25.6 27.4-61.5 38.5-13.2 4.1-27 4.5-188.3-1-377-2-1.8 0-3 1-79.6-15.6-113.5-89-4.9-12.7-8-26-12.3-69.5-24.5-139 1.4-2.1 1-5 216.5-.3 433 .5 1 64.4 2 128.5z" fill="#1cabd6"/><path d="m881.5 542.5q-2.1 1.4-5 1 0 37.5 0 75-1.5-37.7-1-76 3 0 6 0z" fill="#00004e"/><path d="M828.5 547.5q12.4.5 24.5 0 .8 36.5.5 73-8.3-.5-16 1-4.5 0-9 0-2-37.5 0-74z" fill="#69e0e7"/><path d="M828.5 547.5q-2 36.5 0 74 0 6.5 0 13 .3 21-.5 42-5.1 40.5-42.5 56.5-7.9 2.1-16 3-43.5 1.4-87-1-43.7-10.8-49.5-55.5-1-83 0-166-.7-38.2 35.5-49.5 8.4-1.9 17-3 44-1 88 0 53.1 8.3 54.5 62.5.7 12 .5 24z" fill="#84e7ec"/><path d="M776.5 491.5q-15.2.3-31 0 0 32 0 64 25.5 0 51 0-.5-21.8 1-43 1.5 21.9 1 44-26.9-.5-53.5 1-.8-33.5-.5-67 16.1-.4 32 1z" fill="#000a5c"/><path d="M661.5 515.5q1.5 19.7 1 40 26.3-.5 52 1-26.5 0-53 0 0-20.5 0-41z" fill="#000153"/><path d="M715.5 551.5q-1.5-29.7-1-60-13.5-.2-27 .5-8.2 1.2-15 5.5 4.8-5.2 12-6.5 15.5-.7 31-.5 0 30.5 0 61z" fill="#000655"/><path d="M776.5 491.5q16 5 21 21-1.5 21.2-1 43-25.5 0-51 0 0-32 0-64 15.8.3 31 0z" fill="#002676"/><path d="M715.5 551.5q.4 2.9-1 5-25.7-1.5-52-1 .5-20.3-1-40 1-12 11-18 6.8-4.3 15-5.5 13.5-.7 27-.5-.5 30.3 1 60z" fill="#002777"/><use href="#B" fill="#07125c"/><path d="m662.5 587.5q26 0 52 0 0 25 0 50-26 0-52 0 0-25 0-50z" fill="#002777"/><path d="M828.5 621.5q4.5 0 9 0 3-.2 6 .5-7 .7-14 .5 1.4 21 .5 42-.3-15.3-1.5-30 0-6.5 0-13z" fill="#00055b"/><use href="#B" x="83" fill="#001063"/><path d="M745.5 587.5q25.5 0 51 0-.4 25 1 50-26 0-52 0 0-25 0-50z" fill="#002777"/><path d="M673.5 701.5q.1-.8 1-1 5.9 3.9 13 4.5 13.5.7 27 .5 0-18 0-36-26 0-52 0 .5 6.3-1 12 0-6.5 0-13 27 0 54 0 0 19 0 38-16 .3-32-.5-5.6-1.1-10-4.5z" fill="#000553"/><path d="M673.5 701.5q-9.8-7.6-12-20 1.5-5.7 1-12 26 0 52 0 0 18 0 36-13.5.2-27-.5-7.1-.6-13-4.5-.9.2-1 1z" fill="#002676"/><path d="M798.5 677.5q-.8 13.2-10 22.5-1.9 1.2-4 1.5-5.2 2.6-11 3.5-14 .7-28 .5 0-18 0-36 26 0 52 0-.5 4.3 1 8z" fill="#002776"/><path d="M798.5 677.5q-1.5-3.7-1-8-26 0-52 0 0 18 0 36 14 .2 28-.5 5.8-.9 11-3.5-4 4.2-10 4.5-15 .7-30 .5 0-19 0-38 27 0 54 0 0 4.5 0 9z" fill="#00054f"/><path d="M318.5 801.5q1.2-1 3-1 188.7 1 377 2-184.4 1.7-369 .5-5.5-.6-11-1.5z" fill="#1cb8e0"/><path d="m323.5 825.5q185-2 370 0-184.8 2-370 0z" fill="#000e68"/></g><defs ><path id="B" d="m661.5 586.5q27 0 54 0 0 26.5 0 53-27 0-54 0 0-26.5 0-53z"/></defs></svg>