<svg xmlns="http://www.w3.org/2000/svg" width="1024" height="1024" xmlns:v="https://vecta.io/nano"><path fill-rule="evenodd" d="M344.4 112.6c14.4 8.2 19.8 19.8 24.6 35.4v44h285c0-22.6-5.6-49.3 10.3-68.3 8.3-8.7 17.9-15.4 30.4-16 14.2-.3 26.7 2.5 37.3 12.6 12.9 14.2 14.6 31.6 14.3 50q-.1 2.7-.1 5.5 0 6.4-.1 12.8-.1 1.7-.1 3.4 16.4-.1 32.8-.1 8.4-.1 16.7-.1 8.2-.1 16.4-.1 3.1 0 6.3 0c14.3-.1 28-.5 41.1 6q1 .5 1.9 1c6.6 3.4 12.5 7.1 17.8 12.3 16.7 17.3 21.6 36.6 21.5 60q0 3.2 0 6.4 0 8.9 0 17.8 0 9.7 0 19.4 0 17.9 0 35.8-.1 17.9-.1 35.7 0 1.1 0 2.2 0 4.5 0 9 0 41 0 82-.1 38.8-.1 77.6v2.4q0 6 0 12 0 1.3 0 2.4 0 2.4 0 4.8 0 38.3-.1 76.5 0 11.2 0 22.3 0 23.6 0 47.2 0 8.8 0 17.6 0 9.1 0 18.2 0 3.3-.1 6.6 0 4.6 0 9.2 0 1.4 0 2.7c0 6.5-.2 12.6-1.8 18.9-6.8 20.9-17.9 37.8-37.3 48.9q-1.1.6-2.1 1.2c-15 8.6-31.7 8.8-48.5 8.7q-4.9 0-9.7 0-8.6 0-17.1 0-12.8 0-25.5 0-22.9.1-45.7 0-20.1 0-40.1 0h-2.7q-5.4 0-10.8 0-50.7.1-101.4 0-45.1 0-90.2 0-50.7.1-101.5 0-5.4 0-10.8 0h-2.7q-20.1 0-40.2 0-23 .1-45.9 0-12.9 0-25.7 0-8.7 0-17.3 0-4 0-8 0c-15.9.1-30.3.1-45.2-6.1-18-9.4-32.8-22.2-40.5-41.4q-.4-1-.8-2c-4.8-12.5-4.9-25.3-4.9-38.5q.1-3.2.1-6.4-.1-8.8-.1-17.7.1-9.6.1-19.3-.1-17.8 0-35.7 0-17.7 0-35.5 0-1.1 0-2.2 0-4.5 0-8.9 0-42 0-84 0-37.4 0-74.8 0-2.4 0-4.8 0-1.2 0-2.4 0-6 0-12 0-1.2 0-2.4 0-31.3 0-62.6 0-1.1 0-2.2 0-4.5 0-9 0-15.5 0-31.1 0-19.1 0-38.3.1-9.7.1-19.5 0-9.1 0-18.1 0-3.3 0-6.6 0-4.6 0-9.1 0-1.4 0-2.7c-.1-15.7 3.8-28.5 12.5-41.5q.6-.9 1.2-1.8c1.4-2 2.8-3.9 4.4-5.9l3-1q0-1 0-2c4.6-4.7 10-8.2 15.8-11.3q1-.5 2-1c12.7-6.7 25.6-7.1 39.6-7q3 0 6 0 8 0 15.9.1 8.2 0 16.4 0 15.9.1 31.9.2 1.7 0 3.4 0 0-6.8 0-13.6-.1-2.7-.1-5.5 0-4.1 0-8.2 0-1.3 0-2.6c0-8.1 1-15.4 3.2-23.2 3.6-11.3 9.8-19.8 20.3-25.6 1.3-.6 1.3-.6 2.6-1.3 12.8-6.6 29.7-6.1 42.4.6z" fill="#c5f7eb"/><path d="M347.7 114.8c12 8.6 17.7 18.9 21.3 33.2v44h285v-46c5.6-16.7 11.4-27 27-35q1-.5 2-1c9.4-4 23.3-3.5 32.8 0 12.7 5.9 21 13.7 26.4 26.8 4.3 12 4.2 23.5 4 36q0 2.8-.1 5.6 0 6.8-.1 13.6 1.7 0 3.5 0 16.3-.1 32.6-.2 8.4 0 16.8 0 8.1-.1 16.2-.1 3 0 6.1 0c14-.1 27.1.2 39.8 6.8l2 1c16.5 8.9 27.8 23.1 34.1 40.6 3.4 11.3 3.5 22.2 3.4 34q0 3.3 0 6.6 0 9.1 0 18.2 0 8.7 0 17.5 0 19.1 0 38.2 0 16.7 0 33.4v2.3q0 4.5 0 9 0 42.2 0 84.5-.1 37.5-.1 75 0 9.6.1 19.2 0 1.1 0 2.4 0 31.3-.1 62.7 0 3.4 0 6.7 0 2.3 0 4.5 0 16.7 0 33.4 0 19 0 38 0 9.7 0 19.4 0 8.8 0 17.7 0 3.2 0 6.4c0 14.3-.5 27.8-6.6 41q-.5 1-1 2.1c-2.6 5.7-5.8 10.8-9.8 15.7q-.9 1.1-1.8 2.3C869.7 844.4 851 853.8 833 856c-8.7.6-17.4.4-26 .4q-4 0-8 0-8.7 0-17.3 0-12.9 0-25.7 0-23 0-45.9 0-20.1 0-40.2 0-2.7 0-5.4 0-4.1 0-8.2 0-37.8.1-75.6.1-1.4 0-2.9 0-11.5-.1-23.1-.1-45.1 0-90.2.1-50.7 0-101.4 0-5.4 0-10.8 0-1.3 0-2.7 0-20.1 0-40.2 0-22.8 0-45.7 0-12.7 0-25.5 0-8.6 0-17.1 0-4.9 0-9.7 0c-16.3.1-30.9-.4-45.6-8.2q-1-.5-2.1-1c-17.3-9.3-29.6-24.7-36.1-43q-.4-1.1-.8-2.1c-2.7-8.1-2.9-16.2-2.9-24.6q0-1.3 0-2.7 0-4.6 0-9.1 0-3.3 0-6.6-.1-9.1-.1-18.1 0-9.8 0-19.5 0-22.5 0-44.9 0-11.1 0-22.2 0-38 0-76 0-2.4 0-4.8 0-2.4 0-4.7 0-4.8 0-9.6 0-1.2 0-2.4 0-38.6-.1-77.1 0-40.8 0-81.6 0-4.4 0-8.9 0-1.1 0-2.2 0-17.8-.1-35.5 0-17.8 0-35.6 0-9.7 0-19.3 0-8.9 0-17.7 0-3.2 0-6.4c-.1-22.7 3.9-42 19.4-59.7q1 0 2 0 0-1 0-2c5.1-5.2 11.3-9 17.8-12.3q.9-.5 1.9-1c13-6.4 26.5-6.1 40.7-6q3.1 0 6.1 0 8 0 16 .1 8.2 0 16.4.1 16.1 0 32.1.1v-3.4q-.1-6.2-.2-12.5 0-2.7 0-5.4c-.3-17.9 1-35.2 13-49.4 15.5-16 40.4-18 58.9-6.6zM150 353.1l-.2 216.7-.2 68.5v40.5q0 13.5 0 27.1-.1 15.6-.1 31.2.1 8 0 15.9 0 7.3 0 14.5 0 2.6 0 5.2c-.1 17.1 3.8 30.4 15.7 43.1 10.9 10.4 23.2 14.8 38 14.7h3.3q5.4 0 10.9 0 3.9 0 7.9 0 8.6 0 17.1 0 12.8 0 25.6 0 22.8 0 45.6 0 19.9 0 39.9 0 1.3 0 2.7 0 5.3 0 10.7 0 50.4 0 100.8-.1 44.8 0 89.6 0 2.9 0 5.7 0 1.5 0 2.9 0 7.2 0 14.3 0 1.4 0 2.9 0 37.4 0 74.8 0 4 0 8.1 0 2.6 0 5.3 0 18.6 0 37.3 0 24 0 47.9 0 12.7 0 25.4 0 8.5 0 17 0 4.8 0 9.6 0 5.3 0 10.5 0h3c14.5-.1 26.2-4.9 36.8-15 9.7-10.2 15.5-21.9 15.4-36.1q0-1.1.1-2.2 0-3.7-.1-7.4 0-2.7 0-5.4 0-7.4 0-14.8 0-8.1 0-16.2 0-15.7 0-31.4 0-18.2 0-36.3 0-48-.1-96l-.1-216.5H150z" fill="#0e3061"/><path d="M547.7 405.3c12.1 8.8 22.4 21.5 25 36.6q.1 1.5.3 3.1.8.2 1.6.3c14.5 3.7 27.1 12.2 38.4 21.7 1.3 1.1 1.3 1.1 2.6 2.1 30.7 26 41.5 65.6 45 104 3.6 39.2 15.3 70 38.2 102.2q2.7 3.9 5.3 7.8.7 1.2 1.6 2.5c4.1 7.4 4.1 15.1 3.3 23.4-2 7-5.9 12.1-12 16-7 3.8-13.6 4.2-21.4 4.2q-1.4 0-2.8 0-4.7.1-9.3.1-3.2 0-6.4.1-8.5.1-16.9.1-8.7.1-17.3.2-17 .2-33.9.3-.6 1.2-1.2 2.5-.8 1.6-1.7 3.3-.8 1.6-1.6 3.2c-9.3 18.1-26.4 34.2-45.5 41.1-9.1 2.8-17.3 3.6-26.8 3.5q-1.1 0-2.1 0c-11-.1-21-1.1-31.1-5.6q-1.5-.7-3.1-1.4c-10.2-5.1-18.7-12.7-25.9-21.6q-.9-1.1-1.9-2.2C434 736 434 736 434 729q-1.8 0-3.6 0-16.9.1-33.8.2-8.7 0-17.4.1-8.4.1-16.8.1-3.2 0-6.4 0-4.5.1-9 .1-1.3 0-2.6 0c-8.6-.1-16.5-2.8-22.9-8.7-4.9-5.9-8-13.4-7.8-21.1 1.2-10.2 7.1-19 12.9-27.3l6-8.9q.6-.8 1.2-1.7c4.5-6.7 8.6-13.6 12.2-20.8q.5-1 1.1-2.1c10.8-22 14.4-45.1 16.1-69.3 2.4-32.2 12.3-65.5 34.8-89.6q.9-1 1.8-1.9c13.9-14.9 28.3-25.5 47.2-33.1q1.5 0 3 0 .2-1.7.5-3.5c3.4-14.8 12.4-28 25-36.4 5-3 10-5.3 15.5-7.1q1.5-.5 3-1.1c17.6-4.9 38.6-1.4 53.7 8.4z" fill="#f9a614"/><path d="M193.7 217.9q1.3 0 2.7 0 4.4 0 8.8 0 3.1 0 6.1 0 8 0 16.1 0 8.2 0 16.4.1 16.1 0 32.2 0 0 1.3 0 2.6.1 4.8.3 9.6 0 2 0 4.1c.3 15.4 2.7 30.1 13.6 41.8 10.7 9.7 22.7 13.9 36.9 13.3 11.5-.9 22.5-6.2 30.4-14.5 14.2-16.8 11.2-34.9 11.8-56.9h285l1 33c4.4 14.1 9.6 25.2 22.7 32.5 2.8 1.3 5.5 2.5 8.3 3.5q1 .4 2 .7c11.5 3.6 24.1 1.5 34.6-4.1 2.2-1.4 4.3-2.9 6.4-4.6q.9-.7 1.9-1.4c8.6-7.7 13.5-20.2 14.4-31.4q.1-2 .1-4 0-1 .1-2.1.1-3.3.1-6.6.1-2.3.1-4.5.2-5.5.3-11 17.9-.2 35.8-.3 8.3 0 16.6-.1 8-.1 16-.1 3.1 0 6.1 0c14.1-.2 24.8.6 36.5 9.5q1.4 1 2.9 2.1c8.1 7 10.7 14.8 14.1 24.9v73H150c0-82.5 0-82.5 14.1-97.2 8.4-8.1 17.9-12 29.6-11.9z" fill="#53a0eb"/><path d="M547.7 405.3c12.1 8.8 22.4 21.5 25 36.6q.1 1.5.3 3.1.8.2 1.6.3c14.5 3.7 27.1 12.2 38.4 21.7 1.3 1.1 1.3 1.1 2.6 2.1 30.7 26 41.5 65.6 45 104 3.6 39.2 15.3 70 38.2 102.2q2.7 3.9 5.3 7.8.7 1.2 1.6 2.5c4.1 7.4 4.1 15.1 3.3 23.4-2 7-5.9 12.1-12 16-7 3.8-13.6 4.2-21.4 4.2q-1.4 0-2.8 0-4.7.1-9.3.1-3.2 0-6.4.1-8.5.1-16.9.1-8.7.1-17.3.2-17 .2-33.9.3-.6 1.2-1.2 2.5-.8 1.6-1.7 3.3-.8 1.6-1.6 3.2c-9.3 18.1-26.4 34.2-45.5 41.1-9.1 2.8-17.3 3.6-26.8 3.5q-1.1 0-2.1 0c-11-.1-21-1.1-31.1-5.6q-1.5-.7-3.1-1.4c-10.2-5.1-18.7-12.7-25.9-21.6q-.9-1.1-1.9-2.2C434 736 434 736 434 729q-1.8 0-3.6 0-16.9.1-33.8.2-8.7 0-17.4.1-8.4.1-16.8.1-3.2 0-6.4 0-4.5.1-9 .1-1.3 0-2.6 0c-8.6-.1-16.5-2.8-22.9-8.7-4.9-5.9-8-13.4-7.8-21.1 1.2-10.2 7.1-19 12.9-27.3l6-8.9q.6-.8 1.2-1.7c4.5-6.7 8.6-13.6 12.2-20.8q.5-1 1.1-2.1c10.8-22 14.4-45.1 16.1-69.3 2.4-32.2 12.3-65.5 34.8-89.6q.9-1 1.8-1.9c13.9-14.9 28.3-25.5 47.2-33.1q1.5 0 3 0 .2-1.7.5-3.5c3.4-14.8 12.4-28 25-36.4 5-3 10-5.3 15.5-7.1q1.5-.5 3-1.1c17.6-4.9 38.6-1.4 53.7 8.4zm-102 69.5q-1 .5-2 1c-25.4 13.5-41.9 37.8-50.5 64.7-2.8 9.9-3.6 19.9-4.3 30.1-3 43.5-16.4 83-41.9 118.4q-2.5 3.6-5.1 7.2-1.1 1.7-2.2 3.3c-1.8 2.1-1.8 2.1-1.7 3.5h347c-1.5-3.8-2.5-5.9-4.8-9q-.8-1.2-1.7-2.3-.9-1.3-1.8-2.5c-8-11.2-14.5-23-20.7-35.2q-.6-1.1-1.1-2.2c-13.2-25.6-19.2-54.5-20.4-83.1-1.4-32.2-14.8-58-37.5-80.7-18.7-16.9-38.8-22.3-63.4-22.4q-2.6 0-5.3 0-5.6 0-11.2 0-7.1 0-14.2-.1-5.6-.1-11.1-.1-2.6 0-5.2 0c-14.8-.2-27.7 2.5-40.9 9.4z" fill="#0f3064"/><path d="M714 137.9c5.7 5.9 6.6 12.3 6.5 20.2.1 1.5.1 1.5.1 3q0 4.8 0 9.6 0 3.4 0 6.8 0 7.1 0 14.1 0 9.1.1 18.1 0 7 0 13.9 0 3.4.1 6.7c.1 20.9.1 20.9-5.2 28.1-4.6 4.5-9.5 6.4-15.9 6.8-6-.4-10.9-2.6-15.4-6.6-5-5.9-5.9-13-5.8-20.5q0-1.4-.1-2.8 0-4.6 0-9.3 0-3.2 0-6.4 0-6.8 0-13.6 0-8.7 0-17.3 0-6.7 0-13.4 0-3.2-.1-6.4c-.1-22.3-.1-22.3 7.1-30.5 8.5-8.1 19.6-6.3 28.6-.5z" fill="#55a2ee"/><path d="M333.1 135.7c5.3 3.8 8.2 8 9.9 14.3.3 3.2.3 6.4.3 9.6q0 1.4 0 2.8 0 4.7 0 9.3 0 3.3 0 6.6 0 6.8 0 13.6 0 8.7.1 17.4 0 6.7 0 13.5 0 3.2 0 6.4 0 4.5 0 9v2.7c-.1 6.4-1 12.2-5.2 17.3-5.8 4.8-10.4 7.3-18.1 7.1-5.3-.8-9.5-3.3-13-7.3-2.7-3.9-4.3-6.6-4.4-11.4V244q0-1.4 0-2.9 0-1.5 0-3 0-5 0-10 0-3.5-.1-6.9 0-7.3 0-14.6 0-9.3 0-18.6-.1-7.1-.1-14.3 0-3.4 0-6.8 0-4.8 0-9.6 0-1.4 0-2.9c0-6.7 1.4-11 6-16.1 7.7-6 15.9-7.6 24.6-2.6z" fill="#55a2ef"/><path d="M465 729h94c-4.8 12.1-14.2 20.3-25.9 25.7-13.3 5.5-26.4 5.8-40.1 1.3-12.3-5.1-21.7-13.2-28-25q0-1 0-2z" fill="#f8a713"/><path d="M652.5 350.9q1.5 0 2.9 0 4.8 0 9.6 0 3.4 0 6.8 0 9.3 0 18.7 0 9.7 0 19.4 0 16.3 0 32.7 0 16.8 0 33.6 0h2.1q5.2 0 10.4 0 43.2.1 86.3.1c1.5 3 1.1 5.6 1.1 8.9q0 1.1 0 2.2 0 3.7 0 7.4 0 2.7 0 5.3 0 7.4-.1 14.7 0 7.9 0 15.8 0 13.7-.1 27.4 0 19.7-.1 39.5-.1 32.1-.2 64.2 0 31.2-.1 62.4 0 1.9 0 3.9-.1 9.6-.1 19.3-.2 80-.4 160-.5 0-1 0V353H637q0-.5 0-1c5.2-1.1 10.2-1.1 15.5-1.1z" fill="#1e3e6f"/><path d="M531 425c5.3 4 9.9 8.1 13 14q0 1 0 2l-64-1c5.7-10 11.9-15.1 22.8-18.6 9.4-1.8 19.8-1.2 28.2 3.6z" fill="#f8ad11"/></svg>