<svg xmlns="http://www.w3.org/2000/svg" width="1024" height="1024" xmlns:v="https://vecta.io/nano"><path d="M658.3 186.7q1.4 0 2.8 0 4.7 0 9.4 0 3.4 0 6.8 0 9.2 0 18.4 0 7.6 0 15.3 0 19.1 0 38.2 0 16.6 0 33.2 0 17-.1 34.1-.1 9.5 0 19.1 0 9 0 18 0 3.3 0 6.6 0 4.5 0 9 0 1.3 0 2.6 0c7.3.1 13.4 1.5 19.5 5.6 9.1 9.4 10.1 18.9 10.1 31.5-.2 9.7-1.9 17.7-8.8 24.9-5.1 4.4-9.9 5.9-16.6 6.4.1 1.4.1 1.4.1 2.9 1.1 41.8-19.6 82.9-47.9 112.8-4.7 4.9-9.6 9.5-14.7 14-6.2 5.5-6.2 5.5-8.9 13-.2 9.2 1.7 13.3 7.8 20 5.1 5.2 10.5 9.9 16.3 14.4 17.4 14 30.2 34.9 37.3 55.9q.3 1 .7 2c3.7 11.1 5.8 22.4 7.3 34q.1 1 .3 2.1c.6 4.3.8 8.5.8 12.9-.1 1.7-.1 1.7-.1 3.4q0 1.3 0 2.6 1.4-.1 2.9-.3c5.7.1 10.7 2.2 14.9 5.9 7.4 8.2 8.4 16.9 8.5 27.5v3c.1 9.1-1 17.4-7.4 24.3q-1 1.2-2.1 2.4c-8.9 7-18.7 6.8-29.4 6.7q-2.5 0-5 0-6.8 0-13.5-.1-7.1 0-14.2 0-13.3 0-26.7-.1-15.2-.1-30.4-.1-31.3-.1-62.6-.2v1.8q.2 21.4.3 42.7 0 10.4.1 20.7.1 10 .1 20 0 3.8 0 7.6c.3 23.1-2.7 41.5-19.2 58.9-13.3 12.9-29.4 18.5-47.8 18.4q-1.3 0-2.6 0-4.2 0-8.4 0-3 .1-6.1.1-8.4 0-16.7 0-9.1 0-18.1 0-20.8 0-41.6 0-10.3 0-20.6 0-35.2.1-70.4.1-2.2 0-4.4 0-1.1 0-2.2 0-5.6 0-11.1 0-1.1 0-2.2 0-35.7 0-71.4.1-37.8 0-75.6 0-4.1 0-8.3 0h-2q-16.5 0-32.9.1-16.5 0-33 0-8.9 0-17.9 0-8.2 0-16.4 0-2.9 0-5.9 0c-20.9.1-39.6-3.4-55-18.6-6.7-7.1-11.1-14.9-14.7-23.9-.5-1.3-.5-1.3-1.1-2.6-4.2-12.1-3.5-24.5-3.4-37.1q0-5.3 0-10.5-.1-10.2 0-20.5 0-8.3 0-16.6 0-1.2 0-2.4 0-2.5 0-4.9-.1-22.6 0-45.2 0-19.4 0-38.7-.1-22.5 0-45.1 0-2.4 0-4.8v-2.4q0-8.3 0-16.6-.1-10.1 0-20.3 0-5.1 0-10.3c-.1-22.8 1.1-42.1 17.6-59.5 10.6-9.2 23.2-11.9 37-11.6q1.4 0 2.9 0 3.5 0 7 .1 0-1-.1-2.1-.1-4.7-.2-9.4-.1-1.6-.1-3.3c-.1-7 .6-11.8 5.4-17.2 2.1-1.8 2.1-1.8 4.1-2.9l2-1.2c3.8-1.8 6.8-2 11-2.1q1.8 0 3.8 0 2 0 4.1 0c1 0 1 0 2.1-.1q5.5 0 11 0 5.6 0 11.3-.1 4.4 0 8.7 0 2.1 0 4.2-.1c8.1-.1 14.6.3 21.7 4.5q1.4.8 2.8 1.6c7 7.6 6.7 16.8 6.4 26.6-.2 3.8-.2 3.8-1.2 5.8q4.9-.1 9.9-.3 1.3 0 2.8-.1c11.5-.4 20.8-3.5 29.3-11.6 3.1-4.1 5.6-8.5 8-13 9.2-16.7 20.2-28.9 38.8-34.5 2.7-.6 5.3-.6 8.1-.6q1.8-.1 3.7-.1 2 0 4 0 2.1 0 4.2 0 6.9 0 13.9 0 2.3 0 4.7-.1 11.3 0 22.5 0 13 0 26-.1 10 0 20 0 6 0 12-.1 5.6 0 11.3 0 3 0 6 0c15.5.1 27.9 5 39.4 15.4 5.1 5.3 8.4 11.6 12 17.9 6.6 11.5 13.6 20.8 26.4 25.2 4.4 1.1 8.8 1.2 13.4 1.2h2.5q2.7 0 5.4 0 4.3.1 8.6.1 12.2.1 24.4.2 7.5 0 15 .1 2.8 0 5.7 0c12.5.1 23.8.2 35.2 6.1q1 .5 2.1 1.1c5.1 2.7 9 5.7 12.7 10.2l2.4 2.2c3 3.2 4.9 6.4 6.9 10.1a19.83 19.83 0 0 1 1.1 2q1.3 2.3 2.6 4.7c14.3-10.4 14.3-10.4 21.4-26.1.3-5.4-1.2-9.6-4.4-13.9-3.5-3.6-7.2-6.8-11-10-5.5-4.7-10.4-9.4-15-15-1.2-1.5-1.2-1.5-2.5-3-24.4-29.7-40.1-67.3-38.5-106-.9-.1-.9-.1-1.8-.1-7.4-.7-13.1-2.3-18.1-8.1-5.4-7.8-5.3-14.1-5.3-23.5-.1-1.7-.1-1.7-.1-3.5-.1-9.4 1.2-17.4 7.3-24.8 7.2-6.3 12.8-8.3 22.3-8.3z" fill="#a6c7ba"/><path d="M658.3 186.7q1.4 0 2.8 0 4.7 0 9.4 0 3.4 0 6.8 0 9.2 0 18.4 0 7.6 0 15.3 0 19.1 0 38.2 0 16.6 0 33.2 0 17-.1 34.1-.1 9.5 0 19.1 0 9 0 18 0 3.3 0 6.6 0 4.5 0 9 0 1.3 0 2.6 0c7.3.1 13.4 1.5 19.5 5.6 9.1 9.4 10.1 18.9 10.1 31.5-.2 9.7-1.9 17.7-8.8 24.9-5.1 4.4-9.9 5.9-16.6 6.4.1 1.4.1 1.4.1 2.9 1.1 41.8-19.6 82.9-47.9 112.8-4.7 4.9-9.6 9.5-14.7 14-6.2 5.5-6.2 5.5-8.9 13-.2 9.2 1.7 13.3 7.8 20 5.1 5.2 10.5 9.9 16.3 14.4 17.4 14 30.2 34.9 37.3 55.9q.3 1 .7 2c3.7 11.1 5.8 22.4 7.3 34q.1 1 .3 2.1c.6 4.3.8 8.5.8 12.9-.1 1.7-.1 1.7-.1 3.4q0 1.3 0 2.6 1.4-.1 2.9-.3c5.7.1 10.7 2.2 14.9 5.9 7.4 8.2 8.4 16.9 8.5 27.5v3c.1 9.1-1 17.4-7.4 24.3q-1 1.2-2.1 2.4c-8.9 7-18.7 6.8-29.4 6.7q-2.5 0-5 0-6.8 0-13.5-.1-7.1 0-14.2 0-13.3 0-26.7-.1-15.2-.1-30.4-.1-31.3-.1-62.6-.2v1.8q.2 21.4.3 42.7 0 10.4.1 20.7.1 10 .1 20 0 3.8 0 7.6c.3 23.1-2.7 41.5-19.2 58.9-13.3 12.9-29.4 18.5-47.8 18.4q-1.3 0-2.6 0-4.2 0-8.4 0-3 .1-6.1.1-8.4 0-16.7 0-9.1 0-18.1 0-20.8 0-41.6 0-10.3 0-20.6 0-35.2.1-70.4.1-2.2 0-4.4 0-1.1 0-2.2 0-5.6 0-11.1 0-1.1 0-2.2 0-35.7 0-71.4.1-37.8 0-75.6 0-4.1 0-8.3 0h-2q-16.5 0-32.9.1-16.5 0-33 0-8.9 0-17.9 0-8.2 0-16.4 0-2.9 0-5.9 0c-20.9.1-39.6-3.4-55-18.6-6.7-7.1-11.1-14.9-14.7-23.9-.5-1.3-.5-1.3-1.1-2.6-4.2-12.1-3.5-24.5-3.4-37.1q0-5.3 0-10.5-.1-10.2 0-20.5 0-8.3 0-16.6 0-1.2 0-2.4 0-2.5 0-4.9-.1-22.6 0-45.2 0-19.4 0-38.7-.1-22.5 0-45.1 0-2.4 0-4.8v-2.4q0-8.3 0-16.6-.1-10.1 0-20.3 0-5.1 0-10.3c-.1-22.8 1.1-42.1 17.6-59.5 10.6-9.2 23.2-11.9 37-11.6q1.4 0 2.9 0 3.5 0 7 .1 0-1-.1-2.1-.1-4.7-.2-9.4-.1-1.6-.1-3.3c-.1-7 .6-11.8 5.4-17.2 2.1-1.8 2.1-1.8 4.1-2.9l2-1.2c3.8-1.8 6.8-2 11-2.1q1.8 0 3.8 0 2 0 4.1 0c1 0 1 0 2.1-.1q5.5 0 11 0 5.6 0 11.3-.1 4.4 0 8.7 0 2.1 0 4.2-.1c8.1-.1 14.6.3 21.7 4.5q1.4.8 2.8 1.6c7 7.6 6.7 16.8 6.4 26.6-.2 3.8-.2 3.8-1.2 5.8q4.9-.1 9.9-.3 1.3 0 2.8-.1c11.5-.4 20.8-3.5 29.3-11.6 3.1-4.1 5.6-8.5 8-13 9.2-16.7 20.2-28.9 38.8-34.5 2.7-.6 5.3-.6 8.1-.6q1.8-.1 3.7-.1 2 0 4 0 2.1 0 4.2 0 6.9 0 13.9 0 2.3 0 4.7-.1 11.3 0 22.5 0 13 0 26-.1 10 0 20 0 6 0 12-.1 5.6 0 11.3 0 3 0 6 0c15.5.1 27.9 5 39.4 15.4 5.1 5.3 8.4 11.6 12 17.9 6.6 11.5 13.6 20.8 26.4 25.2 4.4 1.1 8.8 1.2 13.4 1.2h2.5q2.7 0 5.4 0 4.3.1 8.6.1 12.2.1 24.4.2 7.5 0 15 .1 2.8 0 5.7 0c12.5.1 23.8.2 35.2 6.1q1 .5 2.1 1.1c5.1 2.7 9 5.7 12.7 10.2l2.4 2.2c3 3.2 4.9 6.4 6.9 10.1a19.83 19.83 0 0 1 1.1 2q1.3 2.3 2.6 4.7c14.3-10.4 14.3-10.4 21.4-26.1.3-5.4-1.2-9.6-4.4-13.9-3.5-3.6-7.2-6.8-11-10-5.5-4.7-10.4-9.4-15-15-1.2-1.5-1.2-1.5-2.5-3-24.4-29.7-40.1-67.3-38.5-106-.9-.1-.9-.1-1.8-.1-7.4-.7-13.1-2.3-18.1-8.1-5.4-7.8-5.3-14.1-5.3-23.5-.1-1.7-.1-1.7-.1-3.5-.1-9.4 1.2-17.4 7.3-24.8 7.2-6.3 12.8-8.3 22.3-8.3zM338 365c-2.9 4.2-5.5 8.6-8 13-10.5 17.7-21.6 26.5-41 33q-2.8.1-5.6.1-1.8 0-3.6 0h-3.9q-2.1 0-4.1.1-4.5 0-8.9 0-7 0-14 0-2.4 0-4.9 0-1.2 0-2.4 0-16.3.1-32.7.1-11 0-22.1.1-5.8 0-11.6 0-5.5 0-11 .1-3 0-5.9-.1c-11.2.2-20.2 2.5-28.4 10.3-4.8 5.7-8 12.7-8 20.2q0 1.5 0 3.1 0 1.6 0 3.4-.1 1.7-.1 3.6 0 4.9 0 9.9 0 5.3 0 10.6 0 12.9 0 25.8 0 6.1-.1 12.2 0 20.2 0 40.4 0 5.2 0 10.5 0 1.3 0 2.6 0 21.1-.1 42.2 0 21.7 0 43.3 0 12.2-.1 24.4 0 10.3 0 20.7 0 5.3 0 10.5 0 5.8 0 11.5v3.4c.1 12.7 4.8 22.7 13.3 32 8 7.5 17.6 11.2 28.4 11.1h2.5q4.3 0 8.6 0 3.1.1 6.2.1 8.5 0 17 0 9.2 0 18.4 0 21.2 0 42.3 0 10.5 0 20.9 0 35.8.1 71.5.1 2.3 0 4.5 0 1.1 0 2.3 0 5.6 0 11.3 0 1.1 0 2.2 0 36.3 0 72.6.1 38.4 0 76.8 0 4.2 0 8.4 0 1.1 0 2.1 0 16.7 0 33.4.1 16.8 0 33.6 0 9.1 0 18.2 0 8.3 0 16.6 0 3 0 6 0c15.5.1 27.8-1.6 39.6-12.5 5.1-5.4 8.2-11.1 10.8-18q.5-1.2 1-2.5c1.4-4.9 1.3-9.5 1.2-14.6v-3.3q0-5.5 0-10.9 0-3.8 0-7.6 0-8.9-.1-17.9 0-10.1 0-20.3 0-21-.1-41.9-1.7 0-3.4 0-6.4-.1-12.7-.3-2.7 0-5.5 0c-24.6-.4-24.6-.4-31.8-6.8l-1.8-1.6c-6.3-8.1-6.4-16.3-6.4-26.2q0-2 0-4c0-9.7 1.6-16.8 8.3-24 4.2-2.7 8.5-3.9 13.3-5.1q1.1-.3 2.3-.6l1.7-.4q.1-1.6.1-3.2c1.3-31.3 7.6-65.3 29-89.6 2.5-3.1 3.4-5 3.2-9-1.7-9.3-6.6-18.6-14.3-24.2-8.8-5.1-15.5-7.1-25.6-7.1q-1.3 0-2.6-.1-2.8 0-5.6 0-4.5 0-8.9 0-12.6-.1-25.2-.1-7.7 0-15.5-.1-2.9 0-5.8 0c-18.3 0-32.6-3.2-46.3-16-7-7.3-12.3-15.6-17.3-24.3-3.2-5.6-6.6-10.9-12.4-14-1-.6-1-.6-2-1.1-8.8-3.7-16.7-4.6-26.2-4.6q-1.9 0-3.9 0-5.3 0-10.6 0-4.5 0-9 0-10.5-.1-21 0-10.8 0-21.6-.1-9.3 0-18.6 0-5.6 0-11.1 0-6.2 0-12.4 0-1.8 0-3.7 0c-12.6.1-21.3 4-29.7 13.5z" fill="#05464e"/><path d="M497 498l2.4 1.9c20.3 16.8 34.3 44.3 37.6 70.1 2.7 34.3-5.6 63.1-27.9 89.6q-1 1.2-2.1 2.4c-.8.9-.8.9-1.6 1.9-13.5 14.4-33.3 25.4-52.4 30.1q-1.1.3-2.3.6c-17.4 4.8-39.4 4.4-56.7-.6q-1.5-.4-3-.8c-18.4-5.5-34.3-16-48-29.2l-2-1.8c-19.6-18.2-30.2-46.5-31.3-72.7-.8-32.7 10.8-61.9 33.3-85.5 41.6-43.2 109.1-43.2 154-6z" fill="#f1a840"/><path d="M673 255h184c-3.5 48.4-22.3 85.9-59.3 118q-1 .9-2.1 1.8c-6.9 6-11.1 14-11.9 23.1-.3 10.3 1.7 20 8.4 28.1 5.7 6 12 11.3 18.4 16.4 26.4 21.5 40.1 50.6 44.1 84.2.5 6.4.4 12.9.4 19.4H674c0-35.7 9.4-69.1 34.6-95.1 5.2-5.1 10.8-9.4 16.7-13.6 9.6-6.9 16.9-14.6 19.7-26.3 1.3-11.9.1-22.7-7.1-32.6-3.3-4-7-7.3-10.9-10.7-24.8-22-45.7-51.3-51-84.7q-.4-2.1-.8-4.2-.5-2.3-.9-4.5-.2-1-.4-2c-1.1-6-.9-10.9-.9-17.3z" fill="#fddda9"/><path d="M459 445q1 .3 2.1.5c24.5 6.3 46.1 19.7 63.9 37.5q.7.7 1.5 1.5c15.5 15.4 26.3 34.5 33.3 55.1q.4 1.2.9 2.4c4.3 13.5 5.8 26.3 5.7 40.3v2.3c-.2 17.4-2.6 33-8.4 49.4q-.6 1.8-1.3 3.7c-5.5 14.6-13.3 27.7-23.7 39.3q-1 1.2-2.1 2.5c-25 29.1-61.2 44.2-98.9 47.5-36 2.2-72.9-9.1-100.4-32.9-2.9-2.6-5.8-5.3-8.6-8.1q-1.1-1-2.2-2c-19.9-19-32.4-45.3-37.8-72q-.3-1.1-.5-2.3c-1.8-8.5-1.9-17-1.9-25.7q0-1.2 0-2.4c.1-12 .9-23.1 4.4-34.6q.3-1.1.6-2.2c5.8-21 16.7-39.7 31.4-55.6 1.6-1.7 3.1-3.5 4.6-5.4 3.2-3.7 6.6-6.7 10.4-9.8q1.4-1.1 2.8-2.3c34.5-27.8 81.3-38.2 124.2-26.7zm-81 35l-3.2 1.4c-27 12.6-47.8 36.3-58.2 64-7.1 20.1-9.6 41.7-4.6 62.6q.2.9.5 1.9c5.2 21.5 16.2 39.2 31.5 55.1q.9 1 1.8 2c15.6 16.8 43.4 29.2 66.1 30.1q5.1.1 10.3.1 1.7 0 3.5 0c29.8.1 55.1-11.9 77.3-31.2q.9-.8 1.9-1.6c18.5-17.2 31.6-45.6 32.6-70.7q0-3.9 0-7.7 0-1 0-2c-.2-31.5-13.3-59.8-35.5-82-24.8-23-54.6-31.9-87.9-31.1-12.8.5-24.4 4-36.1 9.1z" fill="#fcdda7"/><path d="M422.2 420.7q1.1 0 2.2 0c40.5.2 78.5 15.1 108.6 42.3l2.9 2.5c6.5 5.7 11.9 11.7 17.1 18.5q1.2 1.5 2.4 3.1c21 27.6 30.8 60.2 30.8 94.7q.1 3.4.1 6.8c.1 10.4-1.1 20.2-3.3 30.4q-.3 1.4-.6 2.8c-6.6 29.7-21.5 55.3-42.4 77.2l-2.2 2.4c-26.3 27.4-66.7 43.9-104.5 44.8-32.4.5-32.4.5-47.3-3.2q-1.2-.3-2.4-.6c-29.7-7.5-53.5-22.6-75.6-43.4q-1.2-1.1-2.3-2.1c-16.6-15.8-28-36.6-35.7-57.9l-.8-2.3c-9.6-27.2-11.2-57.5-5.2-85.7q.2-1 .4-2.1c9-41.8 34.6-78.2 69.8-102.1 26.9-17.1 56-26.3 88-26.1zM330 476q-1.3 1.1-2.6 2.2c-6.2 5.4-11.3 11.3-16.4 17.8q-.9 1.1-1.8 2.1c-13.3 16.1-21.6 36.7-26.2 56.9q-.3 1.2-.6 2.4c-1.8 8.5-1.8 16.9-1.8 25.5q0 1.2 0 2.4c.1 12.3.9 23.8 4.4 35.7l.6 2.3C292 645.5 303.5 665 319 682q.7.8 1.4 1.5c23.3 25.6 58.3 41.7 92.8 43.6 13.5.5 26.5-.7 39.8-3.1q1.8-.3 3.6-.7c22.4-4.6 43-15.8 60.4-30.3.9-.8.9-.8 1.8-1.5 27.2-22.9 43.7-56.3 47.2-91.5.8-18 1.5-36.6-4-54q-.3-1.1-.6-2.2c-7.6-24.6-21.1-45.8-39.4-63.8l-2.5-2.5c-16.6-15.9-38.4-26.8-60.5-32.5q-1.1-.3-2.2-.6C412 432.7 364.5 446.1 330 476z" fill="#04454d"/><path d="M699 300h132c-8.9 29.5-27 53.4-51.3 72.4-5.4 4.7-7.3 10.9-8.1 17.9-.1 3.7-.1 7.3-.1 11q0 2 0 4 0 4.3 0 8.5.1 5.3 0 10.7 0 4.2.1 8.3 0 3 0 5.9c.1 12.6 2.7 22.3 11.6 31.5 4.9 4.7 10.2 8.5 15.8 12.3 6.4 4.3 12.2 9.3 18 14.5q1.2 1.1 2.5 2.2c10.2 9.6 17.2 21.9 22.5 34.8q.5 1.2 1 2.4c1.4 3.5 2 5.8 2 9.6H686c1.1-7.9 1.1-7.9 2.4-11.1q.4-1 .9-2.1.4-1 .9-2.1.5-1.1.9-2.3c7.9-18.2 20-30.9 35.9-42.4 20.4-14.2 20.4-14.2 31-36q.2-3 .2-6.1 0-1.8 0-3.7 0-2 0-4c0-1 0-1 .1-2q0-5.4 0-10.8 0-5.5.1-11.1 0-4.2 0-8.5 0-3 .1-6.1c0-10-1.5-19.4-8.6-27-3.1-2.8-6.4-5.4-9.7-8.1-17.2-14-30-29.5-38.2-50.2q-.5-1.2-.9-2.4c-1.4-3.7-2.1-5.9-2.1-10z" fill="#f39f23"/><path d="M497 498l2.4 1.9c20.3 16.8 34.3 44.3 37.6 70.1 2.7 34.3-5.6 63.1-27.9 89.6q-1 1.2-2.1 2.4c-.8.9-.8.9-1.6 1.9-13.5 14.4-33.3 25.4-52.4 30.1q-1.1.3-2.3.6c-17.4 4.8-39.4 4.4-56.7-.6q-1.5-.4-3-.8c-18.4-5.5-34.3-16-48-29.2l-2-1.8c-19.6-18.2-30.2-46.5-31.3-72.7-.8-32.7 10.8-61.9 33.3-85.5 41.6-43.2 109.1-43.2 154-6zm-102-3q-.9.3-1.9.7c-25.1 9.3-43.8 26.9-55.4 50.9-9.3 21.1-11.4 45.3-3.5 67.2 9 23.4 25.8 44.3 48.8 55.1 4.6 2 9.2 3.6 14 5.1q1.5.5 3 1c22.7 6.6 48.5 1.9 69-9 22-12.5 39.2-33.5 46-58 6-23.3 3-47.6-8.9-68.6-3.4-5.4-7-10.5-11.1-15.4l-1.6-2c-12.2-14.7-29.4-23.9-47.4-29q-1-.3-2-.6c-15.4-3.9-34.3-3.1-49 2.6z" fill="#04464f"/><path d="M660 563.6q1.3 0 2.8 0 4.6 0 9.3 0 3.4 0 6.7 0 9.1 0 18.2 0 9.6 0 19.1 0 17 0 34 0 15.4 0 30.9 0 17.9 0 35.8 0 9.5 0 18.9 0 8.9 0 17.9 0 3.2 0 6.5 0 4.5 0 8.9 0h2.7c5.9.1 5.9.1 8 1.8 2.8 3.6 1.8 9.2 1.7 13.5q.1 1.7.1 3.4v3.2q0 1.4 0 2.9c-.7 3.5-1.6 4.5-4.5 6.6-3 .6-6 .5-9 .5h-2.8q-4.7 0-9.4 0-3.3 0-6.6 0-9.1.1-18.1 0-9.5 0-19 0-16.9.1-33.8 0-15.4 0-30.7 0-17.9.1-35.7 0-9.4 0-18.9 0-8.8.1-17.7 0-3.2 0-6.5 0-4.4 0-8.9 0-1.3 0-2.6 0c-5.8 0-5.8 0-8.3-2.4-1.3-2.7-1.4-4.7-1.4-7.6q0-1.6 0-3.2 0-1.7 0-3.4 0-1.6 0-3.3 0-1.6 0-3.2 0-1.4 0-2.9c1.1-6.7 6.8-5.9 12.4-5.9zm-3.8-356.9h2.7q1.4 0 2.9 0 4.7 0 9.4 0 3.4 0 6.8 0 9.2 0 18.4 0 9.6 0 19.2 0 17.2 0 34.4 0 15.5.1 31.1 0 18.1 0 36.2 0 9.6 0 19.1 0 9 0 18 0 3.4 0 6.7 0 4.5 0 9 0 1.3 0 2.7 0c6 .1 6 .1 8.2 2.3.3 2.4.3 2.4.3 5.4q0 1.6 0 3.2 0 1.7-.1 3.4.1 1.7.1 3.4 0 1.6 0 3.2 0 1.5 0 3c-.3 2.4-.3 2.4-2.3 4.4l-8.9.3q-1.4 0-2.9 0-4.7 0-9.4 0-3.4 0-6.8 0-9.2 0-18.4 0-9.6 0-19.2 0-17.2 0-34.4 0-15.5-.1-31.1 0-18.1 0-36.2 0-9.6 0-19.1 0-9 0-18 0-3.4 0-6.7 0-4.5 0-9 0-1.3 0-2.7 0c-6-.1-6-.1-8.2-2.3-.3-2.4-.3-2.4-.3-5.4q0-1.6 0-3.2V221q0-1.7 0-3.4 0-1.6 0-3.2 0-1.5 0-3c.6-5.3 4.1-4.6 8.5-4.7z" fill="#458481"/><path d="M185 375q11.3-.1 22.6-.1 5.2 0 10.5-.1 6 0 12 0h3.8q1.8 0 3.5 0 1.6 0 3.2 0c2.4.2 2.4.2 4.4 2.2v16h-60v-18z" fill="#f0a641"/></svg>