<svg xmlns="http://www.w3.org/2000/svg" width="1024" height="1024" xmlns:v="https://vecta.io/nano"><path d="M139.3 79.5q1.6 0 3.3 0 1.8 0 3.6 0h3.9q5.2-.1 10.5 0 5.7 0 11.4-.1 11.1 0 22.3 0 9 0 18.1 0 1.2 0 2.6 0 2.6 0 5.2 0 24.5 0 49.1 0 22.4 0 44.9 0 23 0 46.1 0 2.6 0 5.2 0 1.3 0 2.6 0 9 0 18.1-.1 11 0 22 .1 5.6 0 11.3 0 6.1-.1 12.2 0l3.6-.1c7.9.1 7.9.1 11.9 3 2.4 3.5 2.3 5.6 1.8 9.7-.7 3.2-.7 3.2-1.7 6.4q-.6 1.7-1.1 3.5-1.2 3.7-2.4 7.3c-2.9 9.8-4.1 18.8-1.8 28.8q.8-.2 1.7-.4c4.4-.8 7.6-1 11.6 1.3 4.4 3.1 6.5 7.3 8.7 12.1 1.7-2.6 3-5 4.3-7.7 4.2-8.5 9.8-14.1 18.1-18.6 5.3-1.4 9.9-1.5 14.9.8 4.9 4.5 6.9 9 7.2 15.7-.5 12.4-5.8 23.4-13.5 32.8q1.3-.1 2.6-.1c7.8-.2 12.8-.1 18.8 5.2 2.3 4.1 2.4 7.4 1.6 11.9-5.9 12.1-22.8 19.8-35 24q-1.5 0-3 0 .8 1.4 1.6 2.8 3.3 5.5 6.4 11.2c.6 1 .6 1 1.2 2.1 3.9 8.3 2.9 20.5.4 29-4.7 12-12.3 22.3-20.6 31.9q-1.3 1.6-2.6 3.1c-8.8 10.7-18.6 20.2-28.4 29.9l17 1c-7.4 7.4-7.4 7.4-10 9-3-.6-3-.6-6-2-6.2-2.8-12.2-3.2-18.7-1.1-6.5 3-11.2 6.9-14.4 13.4-2.1 6.5-2.1 14.3.1 20.7 3.3 6 7.5 9.7 14 12q3 .6 6 1 .1 1.2.3 2.4c1.4 9.5 3.5 15.2 11 21.4 5.3 3.7 12.6 2.7 18.7 2.2 6-1.5 9.3-5 12.8-9.9 2.6-4.4 3.5-7.9 3.4-13q0-1.5 0-3.1a69.38 69.38 0 0 0-1.2-9q.8-.6 1.6-1.3 8.4-6.7 16.8-13.6 1.1-.9 2.2-1.8c3.4-2.8 6.7-5.6 10-8.5q.8-.7 1.6-1.4 2.2-1.9 4.3-3.8c2.5-1.6 2.5-1.6 5-1.5 2.5.9 2.5.9 5.4 2.4 5.9 2.8 13.2 2.5 19.5.9 6.8-3 11.4-8.9 14.6-15.4h195l2-11q.9-4.2 1.9-8.3.3-1.1.6-2.3.8-3.7 1.7-7.3.6-2.6 1.3-5.2 1.2-5.4 2.5-10.8 1.7-6.9 3.3-13.8 1.3-5.3 2.6-10.7.6-2.5 1.2-5c8-33.5 8-33.5 21.9-43.6 7.7-4.6 15.3-4.5 24-4-.1 1-.1 1-.1 2.1-.3 7.2.9 12.4 4.1 18.9q.5 1.1.9 2.2c1 2.1 1 2.1 4.1 2.8-3 2-3 2-6.4 2.8-5.9 2-8.7 5.9-11.6 11.2-.9 2.5-.9 2.5-1.5 5.3q-.4 1.5-.7 3.1-.4 1.7-.8 3.4-.5 1.8-.9 3.7-1.2 4.9-2.4 9.8-1.2 5.2-2.4 10.4-2.1 8.7-4.2 17.4-2.9 12.2-5.8 24.4-2 8.5-4.1 17-.4 2-.9 4-1.6 6.8-3.3 13.5-.3 1.7-.8 3.4L768 383q1.1.9 2.1 1.7c7.5 6.1 12.8 12.8 14.4 22.6.2 3.6.3 7.1.2 10.6q0 2 0 4 0 4-.1 8.1-.1 5.2 0 10.3-.1 5-.1 10 0 1.8 0 3.7c-.2 14.8-5 25.4-15.1 36.2-10.4 9.9-23.9 16.3-37.4 20.8-1.1 2.5-1.1 2.5-2 5.7q-.5 1.7-1 3.5-2.4 9.1-4.7 18.3-.5 2-1 4-1.3 5.4-2.6 10.7-2.1 8.5-4.2 16.9-.8 3.1-1.6 6.2-2.6 10.8-5.6 21.5c-4.8 17.6-2.6 28.9 3.1 46q.9 2.8 1.8 5.6 1.3 3.9 2.6 7.9c4 12.2 7.6 26.2 1.6 38.4-5.9 9.4-13.5 15.6-24.3 18.9-2.3.5-4.5.5-6.9.5h-2.9q-1.6 0-3.2 0-1.6 0-3.2 0-3.4 0-6.8 0-5.1 0-10.3 0-3.3 0-6.5 0-1.6 0-3.1 0c-5.2 0-10.1-.3-15.2-1.1q-3.3-.1-6.6-.1-1.9 0-3.7 0h-3.8q-1.9 0-3.8 0-1.9 0-3.7 0H611c-2.9 0-2.9 0-5.3.6-2.9.5-5.5.6-8.4.6h-3.5q-1.9 0-3.9 0-2 0-4 0-5.6 0-11.2 0-6 0-12.1 0-11.8 0-23.6 0-9.6 0-19.2 0-1.4 0-2.8 0-2.7 0-5.5 0-26 0-52.1 0-22.3 0-44.7 0-25.9 0-51.8 0-2.8 0-5.6 0-1.3 0-2.7 0-9.6 0-19.2 0-11.7 0-23.4 0-5.9 0-11.9 0-5.5 0-10.9 0-2.9 0-5.8 0-1.8 0-3.5 0h-3.1c-3-.1-5.8-.6-8.8-1.1q-3-.1-6-.1-1.7 0-3.4 0-1.8 0-3.5 0-1.8 0-3.5 0-1.7 0-3.4 0-1.6 0-3.1 0c-3.1 0-3.1 0-6.2.6-5.5.7-10.8.7-16.3.7q-1.8.1-3.6.1-3.8 0-7.6 0-3.8 0-7.7.1-5.6 0-11.1 0-1.7.1-3.5.1c-6.8 0-11.3-.8-17.1-4.5-5.2-5.5-6.5-9.8-6.3-17.2.6-5.4 2.9-8.5 6.9-12.2 4.4-2.9 8.3-2.7 13.4-2.7q1.3 0 2.5 0 4.3 0 8.5 0 3 0 6-.1 8.4 0 16.8 0 9 0 18 0 15.7 0 31.3 0 23.7-.1 47.4-.1 9.4 0 18.9 0 1.1 0 2.2 0 25.1-.1 50.2-.1h2.2q25.6 0 51.3-.1 1.1 0 2.2 0 5.6 0 11.1 0 1.1 0 2.3 0 2.2 0 4.4 0 36.6 0 73.3-.1 5.1 0 10.3 0 1 0 2.1 0 16.4 0 32.8 0 16.4 0 32.9-.1 8.9 0 17.9 0 8.1 0 16.3 0 3 0 5.9 0 4 0 8 0h2.4c3.7-.1 6.7-.1 9.8-2.3 2.3-4.6 1-9.9-.5-14.6-.4-1-.4-1-.7-2q-.3-1-.7-2.1-.7-2.2-1.5-4.4-1.1-3.4-2.2-6.7c-3.1-9.5-6.4-19.7-15.4-25.2-5.5-2.4-10.1-3.4-16.2-3.4q-1.1 0-2.3 0-4 0-7.9 0-2.9 0-5.7 0-7.8 0-15.7 0-8.4 0-16.9 0-14.6 0-29.3 0-21.2 0-42.4 0-34.4-.1-68.8-.1h-2.1q-15.7 0-31.3 0-16.7 0-33.4 0-1 0-2.1 0-35.3 0-70.6-.1-21.2 0-42.3 0-14.5 0-29 0-8.3 0-16.7 0-7.7 0-15.3 0-2.8 0-5.5 0c-18.3.1-35.6-1.9-49.5-15.1-9.8-11-13.4-23.9-16.3-38q-.4-2.2-.9-4.3-1.4-7-2.8-14-.5-2.3-.9-4.6-3.2-15.9-6.4-31.7-2.5-12.6-5-25.1-.3-1.5-.6-2.9-4.5-22.6-9-45.1-.3-1.5-.6-3-2.7-13.2-5.4-26.4-3.4-16.5-6.7-33-.4-2.2-.8-4.3-1.3-6.6-2.6-13.3-.3-1.5-.6-3.1c-3-16-3-16-.5-21.4 2.8-3.8 5.7-5 10.1-6.1 3.3-.2 6.6-.2 9.9-.1q1.3 0 2.6 0 3.3 0 6.5.1 0-1 0-2.1-.1-25.2-.1-50.4 0-12.2-.1-24.3 0-10.7 0-21.3 0-5.6 0-11.2 0-5.3 0-10.6 0-2.9 0-5.7c0-11.6 1.1-22.9 5.3-33.8q.4-1.2.9-2.5c1.7-4.8 3.6-9.5 5.5-14.3q.6-1.5 1.2-3.1 1.2-3 2.5-6c4.8-12.4 2.9-23.1-.7-35.5-4.3-15.1-4.3-15.1-3.5-21.2 2.9-3.7 4.7-4.5 9.3-4.5z" fill="#fbaa05"/><path d="M139.3 79.5q1.6 0 3.3 0 1.8 0 3.6 0 1.9 0 3.9 0 5.2-.1 10.5 0 5.7 0 11.4-.1 11.1 0 22.3 0 9 0 18.1 0 1.2 0 2.6 0 2.6 0 5.2 0 24.5 0 49.1 0 22.4 0 44.9 0 23 0 46.1 0 2.6 0 5.2 0 1.3 0 2.6 0 9 0 18.1-.1 11 0 22 .1 5.6 0 11.3 0 6.1-.1 12.2 0l3.6-.1c7.9.1 7.9.1 11.9 3 2.4 3.5 2.3 5.6 1.8 9.7-.7 3.2-.7 3.2-1.7 6.4q-.6 1.7-1.1 3.5-1.2 3.7-2.4 7.3c-2.9 9.8-4.1 18.8-1.8 28.8q.8-.2 1.7-.4c4.4-.8 7.6-1 11.6 1.3 4.4 3.1 6.5 7.3 8.7 12.1 1.7-2.6 3-5 4.3-7.7 4.2-8.5 9.8-14.1 18.1-18.6 5.3-1.4 9.9-1.5 14.9.8 4.9 4.5 6.9 9 7.2 15.7-.5 12.4-5.8 23.4-13.5 32.8q1.3-.1 2.6-.1c7.8-.2 12.8-.1 18.8 5.2 2.3 4.1 2.4 7.4 1.6 11.9-5.9 12.1-22.8 19.8-35 24q-1.5 0-3 0 .8 1.4 1.6 2.8 3.3 5.5 6.4 11.2c.6 1 .6 1 1.2 2.1 3.9 8.3 2.9 20.5.4 29-4.7 12-12.3 22.3-20.6 31.9q-1.3 1.6-2.6 3.1c-6.1 7.4-12.7 14.3-19.5 21.2q-1.2 1.2-2.5 2.5c-8.5 8.4-8.5 8.4-14.7 8.5q-1.1-.1-2.2-.1h-2.4q-3.9 0-7.8 0-2.8 0-5.6 0-7.7 0-15.4 0-8.3-.1-16.5-.1-19.6 0-39.2-.1-5.4 0-10.8 0-48.5-.2-97-.4-18.7-.1-37.4-.2-38.2-.2-76.4-.4-.1-26.2-.1-52.5 0-12.2-.1-24.3 0-10.7 0-21.3 0-5.6 0-11.2 0-5.3 0-10.6 0-2.9 0-5.7c0-11.6 1.1-22.9 5.3-33.8q.4-1.2.9-2.5c1.7-4.8 3.6-9.5 5.5-14.3q.6-1.5 1.2-3.1 1.2-3 2.5-6c4.8-12.4 2.9-23.1-.7-35.5-4.3-15.1-4.3-15.1-3.5-21.2 2.9-3.7 4.7-4.5 9.3-4.5z" fill="#fec209"/><path d="M576 136h72v9q1.5.2 3 .3c15.5 2.3 29.1 12 40 22.7 1 1 1 1 2.1 2 4.4 4.5 7.4 9.3 10.2 14.9q.5.9 1 1.9c4.7 9.7 6.1 19 6 29.6q0 1.9 0 3.7 0 5.8 0 11.7 0 3.6 0 7.2 0 13.3-.1 26.7L710 326H552l-2 6c-3.8 5-8.7 9.8-15 11-8.6.8-14.5.3-22-4-4.6.5-7.3 3.6-10.6 6.6q-1.9 1.6-3.8 3.3-.9.8-1.9 1.6c-3 2.6-6.1 5-9.2 7.5q-2.9 2.3-5.7 4.7c-.8.7-.8.7-1.7 1.4q-2.3 2-4.6 4C473 370 473 370 471 370a52.55 52.55 0 0 1 1 2.3c2.2 8.4 1.9 15.9-2.4 23.5-3.6 5-7.7 8.3-13.6 10.2-3.3.3-3.3.3-6.9.3q-1.8 0-3.6.1c-7.4-.8-11.2-4.7-15.8-10.1-4.1-5.5-4-10.8-3.7-17.3q-.8 0-1.7 0c-6.6-.3-10.7-2.3-15.3-7-5.3-6.2-5.7-12.5-5.4-20.5.9-7.8 4.3-12.1 10.3-17 6.4-4.6 12.5-5.5 20.1-4.5 2.5.9 4.7 2 6.9 3.3 2.1.9 2.1.9 4.4.2 3.6-2 6.3-4.4 9.3-7.1q1.9-1.6 3.8-3.2c.9-.8.9-.8 1.8-1.7l15.7-12.9q1.5-1.1 3-2.3 1.3-1.1 2.6-2.2 1.2-1 2.5-2.1 1.4-1.2 2.8-2.4c2.4-2.4 2.4-2.4 2.5-5.4q-.1-1.5-.2-3c-.3-5.8.3-9.6 3.9-14.2 4.1-4.3 8.2-8.3 14-10q3.5 0 7 0v-2.2q-.1-10.3-.2-20.6 0-5.3 0-10.6-.1-6.1-.1-12.2v-3.8c0-11.1 1.6-21.7 6.8-31.6q.5-1 1-2c10.6-19.7 29-32.1 49.7-39.2 2.8-.8 2.8-.8 4.8-.8v-8z" fill="#8bd6dd"/><path d="M627.9 350.8q1.3-.1 2.7-.1c25.4.1 50.6 1.8 75.4 7.3q1.1.2 2.2.5c21.1 4.6 43.8 11.7 60.8 25.5q1.2.9 2.4 1.8c6.9 5.6 11.7 12.6 13.1 21.5.2 3.6.3 7.1.2 10.6q0 2 0 4 0 4-.1 8.1-.1 5.2 0 10.3-.1 5-.1 10 0 1.8 0 3.7c-.2 14.8-5 25.4-15.1 36.2-21.6 20.5-55.7 27.8-84.2 31.5q-1.3.2-2.6.4c-8.5 1-17.1 1.5-25.6 1.9q0-1 0-2.1.1-10 .2-19.9 0-5.1 0-10.2.1-5.9.1-11.7v-3.7c0-6 0-10.3-3.3-15.4q0-1 0-2 1.4-.1 2.8-.2c17.9-1.4 35.6-2.8 53.2-6.8q1.4-.3 2.9-.7c14.5-3.3 28.4-7.4 41.1-15.3-4.2-3.7-8.5-5.8-13.6-7.9q-1.3-.5-2.6-1c-20.2-8.2-41-12.5-62.5-15.9q-1.1-.1-2.2-.3c-14.2-2.1-28.4-2.1-42.7-2.1q-5 0-9.9 0c-19.7-.1-39 1-58.2 4.9q-1 .2-2 .4c-11.1 2.2-21.8 5-32.3 8.9q-1 .4-2 .7c-8.6 3.2-16.9 7-25 11.3 21.9 17.2 55.4 19.7 82 23-.9 2.8-1.8 5.6-3.1 8.4-1 2.8-1.1 4.9-1.1 7.9q0 1.6 0 3.2 0 1.7 0 3.4v3.4q0 5.5.1 11 0 3.7 0 7.5 0 9.1.1 18.2c-8.5-.7-16.7-1.9-25-3.7q-1.9-.4-3.9-.8c-26.1-5.6-56.5-14.6-72.4-37.7-2.5-4.1-4.2-8.3-5.7-12.8q-.5-1.5-1-3-.2-2.8-.2-5.6 0-1.7 0-3.5 0-1.9 0-3.8-.1-1.9-.1-3.9 0-4.1 0-8.1 0-5.2-.1-10.4 0-5 0-10-.1-1.9-.1-3.8c0-11.2 3.1-18.3 10.8-26.4 37.2-33.8 99.1-36.7 146.6-36.8z" fill="#f15023"/><path d="M215.9 185.4q2.1 1.2 4.1 2.6 1.5 1 3 2 0 1 0 2 1 0 2 0c1.5 1.9 1.5 1.9 3.1 4.5q.7 1.2 1.6 2.5c1.3 3 1.3 3 2.3 11h85c.7-2.3 1.3-4.6 2-7 4.9-7.4 10.7-11.2 19-14 10.2-1 19.2.6 27.3 7.1 4.2 4 7.3 8.7 9.7 13.9q0 1.5 0 3 1 0 2 0 .3-1 .6-2.1c1.8-3.8 4.3-7 7.4-9.9q1 0 2 0 .5-1.5 1-3c9.7-9.5 21.8-13.3 35-13.3 20.8.3 37.1 10.8 51.9 24.7 4.5 4.8 8 9.9 11.1 15.6q.8 1.4 1.5 2.8c5 10.1 5.2 21.6 2.1 32.3-4.7 12-12.3 22.3-20.6 31.9q-1.3 1.6-2.6 3.1c-6.1 7.4-12.7 14.3-19.5 21.2q-1.2 1.2-2.5 2.5c-8.5 8.5-8.5 8.5-13.5 8.4q-1.2 0-2.5 0-1.3 0-2.7 0-1.5 0-2.9 0-4.8 0-9.5 0-3.3 0-6.6 0-8.7 0-17.3-.1-8.9 0-17.7 0-17.4 0-34.7-.1c.6-5.1 1.4-9.9 2.6-14.9l1-3.8q.5-1.8 1-3.8.5-2 1-3.9 1.2-4.8 2.4-9.6-.9-.1-1.8-.2c-8.7-.8-14.9-3.5-21.2-9.8-5-7.5-5-7.5-5-12h-85l-1 9c-3.1 7.4-9.2 13.1-16 17-9.6 3.9-18.5 4.4-28.3.4-9.2-4.9-15.2-12.4-18.3-22.3-2-10.3-.1-18.4 5.6-27.1 1.7-1.8 1.7-1.8 3-3-1.4-4-3.4-7.3-5.8-10.7-4.4-8.2-4.5-18.4-2.5-27.2 3.7-10.3 11-16.4 20.5-21.2 8.1-2.6 19.1-2.3 26.7 1.5z" fill="#f98e06"/><path d="M673.1 728.1c14.9 11.5 26.3 28.8 29.6 47.6 2.9 22.9-1.3 45.2-15.6 63.7q-2 2.3-4.1 4.6-1.2 1.3-2.3 2.6c-14.7 15.4-35 24.1-56.2 24.9-22.8.2-42.9-8.7-59.6-24.1-15.2-16-22.4-37.2-22.3-59 .6-21.4 9.5-39.3 24.4-54.4q.9-.9 1.9-1.9c28-26.5 73.8-25.4 104.2-4z" fill="#01a4bb"/><path d="M307.6 730.1c15.2 13.2 25.7 30.8 28.4 50.9 1.2 22.6-4.1 44.8-19.3 62.2-17.6 18.5-36.9 27.4-62.5 28.2-21.3-.1-40.5-9.5-55.9-23.9-17.2-17.8-23.1-39.8-22.7-64 .8-19.7 10.6-37.6 24.8-51.1 29.6-26.3 76.4-26.9 107.2-2.3z" fill="#00a4ba"/><path d="M623.4 407.7q4.9.1 9.8 0c18.2 0 35.9 1.6 53.9 4.6q1.9.3 3.9.7c22.1 3.9 43.1 10.3 63 21q0 1.5 0 3c-30.5 16.1-65.6 22.6-100 22q1 1.6 2 3.2c2.7 5.6 2.5 10.9 2.4 17v3.5q0 3.7 0 7.3-.1 5.6-.1 11.2 0 3.5-.1 7.1 0 1.7 0 3.4 0 1.5 0 3.1c0 1.4 0 1.4-.1 2.8-.1 2.4-.1 2.4-1.1 6.4l10-1c-1.1 14.1-1.1 14.1-6.4 19.4-4.7 2.9-8.3 3.8-13.9 3.7q-1.6 0-3.3 0-1.2-.1-2.4-.1.7 1.6 1.5 3.3c2.6 6.9 2.7 14.5 0 21.5-2.8 5.5-7.3 9.6-12.8 12.4-6.5 2-14.9 2.1-21.2-.8-6.3-3.8-10.1-9.1-12-16.1-1.7-8.3-.1-14.1 4.5-21.3a39.36 39.36 0 0 1 5-5q-.8 0-1.7-.1c-7.2-.5-12.4-2.5-18-7.1-4.7-5.7-8.4-11-8.5-18.6v-2.9q0-1.6 0-3.2-.1-1.6-.1-3.3 0-3.4 0-6.9 0-5.2-.1-10.5 0-3.3 0-6.7-.1-1.5-.1-3.1c0-6.8 1.3-11.7 4.5-17.6l1-2c-1.2 0-1.2 0-2.4-.1-27.1-1.3-57.8-6.4-80.6-21.9 3.1-3.3 6.6-5 10.6-6.8q1.2-.5 2.3-1.1c34.8-15.8 72.6-20.5 110.5-20.4z" fill="#faa804"/><path d="M139.3 79.5q1.6 0 3.3 0 1.8 0 3.6 0 1.9 0 3.9 0 5.2-.1 10.5 0 5.7 0 11.4-.1 11.1 0 22.3 0 9 0 18.1 0 1.2 0 2.6 0 2.6 0 5.2 0 24.5 0 49.1 0 22.4 0 44.9 0 23 0 46.1 0 2.6 0 5.2 0 1.3 0 2.6 0 9 0 18.1-.1 11 0 22 .1 5.6 0 11.3 0 6.1-.1 12.2 0l3.6-.1c8.8.1 8.8.1 11.9 3.1 2.3 3.4 2.6 5.7 1.8 9.6-1.2 4.5-2.6 8.9-4 13.4-3.3 10.8-5.2 20.3-4 31.6q-1-1-2-2 0-2 0-4H138l-2-16-3.1-12c-3.7-12.6-3.7-12.6-2.9-19 2.8-3.7 4.7-4.5 9.3-4.5z" fill="#fec10a"/><path d="M215.9 185.4q2.1 1.2 4.1 2.6 1.5 1 3 2 0 1 0 2 1 0 2 0c1.5 1.9 1.5 1.9 3.1 4.5q.7 1.2 1.6 2.5c1.3 3 1.3 3 2.3 11h85c.7-2.3 1.3-4.6 2-7 4.9-7.4 10.7-11.2 19-14 10.2-1 19.2.6 27.3 7.1 4.6 4.4 10.3 11.4 10.7 17.9a70.62 70.62 0 0 1-3.5 6.7q-1.1 2.1-2.3 4.2-.5 1-1.1 2.1c-10.9 20.3-17.4 43.8-23.1 66q-.5-1-1-2c-1.9-.3-1.9-.3-4.1-.4-7.6-.7-13.5-4.2-18.9-9.6-5-7.5-5-7.5-5-12h-85l-1 9c-3.1 7.4-9.2 13.1-16 17-9.6 3.9-18.5 4.4-28.3.4-9.2-4.9-15.2-12.4-18.3-22.3-2-10.3-.1-18.4 5.6-27.1 1.7-1.8 1.7-1.8 3-3-1.4-4-3.4-7.3-5.8-10.7-4.4-8.2-4.5-18.4-2.5-27.2 3.7-10.3 11-16.4 20.5-21.2 8.1-2.6 19.1-2.3 26.7 1.5z" fill="#fba307"/><path d="M651 202c3.6 2.8 6.8 5.8 10 9q.9.9 1.9 1.8c12 12.3 16.6 29.5 16.5 46.2-.5 18.1-7.5 33.3-20.4 46q-1 1.1-2.1 2.1c-13.5 13.2-31.7 17.3-50 17.1C590 323.3 574 316 562 304c-13.1-14.8-19.3-32.3-18.2-52 1.6-18.6 10-33.2 23.2-46 24.5-20.1 57.8-21.9 84-4z" fill="#01a4ba"/><path d="M810 204q-.1 1-.1 2.1c-.3 7.2.9 12.4 4.1 18.9a20.36 20.36 0 0 1 .9 2.2c1 2.1 1 2.1 4.1 2.8-3 2-3 2-6.4 2.8-5.9 2-8.7 5.9-11.6 11.2-.9 2.5-.9 2.5-1.5 5.3q-.4 1.5-.7 3.1-.4 1.7-.8 3.4c-.5 1.8-.5 1.8-.9 3.7q-1.2 4.9-2.4 9.8-1.2 5.2-2.4 10.4-2.4 9.8-4.7 19.6-2.6 11.1-5.3 22.2-4.1 17.3-8.3 34.6-.3 1.7-.8 3.4-2.6 11.2-5.2 22.5c-3.7-.7-6.1-1.5-9.2-3.6-28.3-17.4-62.3-22.5-94.8-25.4q-1.6-.1-3.2-.3c-52.4-4.2-111-1-158.8 22.3l-3.2 1.6C489.9 381.1 482 387 476 395c-2.2-4.4-3.2-7.3-3.5-12.3-.3-4.3-.7-8.4-1.5-12.7q.8-.6 1.6-1.3 8.4-6.7 16.8-13.6 1.1-.9 2.2-1.8c3.4-2.8 6.7-5.6 10-8.5q.8-.7 1.6-1.4 2.2-1.9 4.3-3.8c2.5-1.6 2.5-1.6 5-1.5 2.5.9 2.5.9 5.4 2.4 5.9 2.8 13.2 2.5 19.5.9 6.8-3 11.4-8.9 14.6-15.4h195l2-11q.9-4.2 1.9-8.3l.6-2.3q.8-3.7 1.7-7.3.6-2.6 1.3-5.2 1.2-5.4 2.5-10.8 1.7-6.9 3.3-13.8 1.3-5.3 2.6-10.7.6-2.5 1.2-5c8-33.5 8-33.5 21.9-43.6 7.7-4.6 15.3-4.5 24-4z" fill="#f9a705"/><path d="M525.6 268.6c4.7 2.9 8.4 7.2 10.4 12.4.2 2.6.2 5 .2 7.6v2.1c-.1 5-.1 5-1.2 7.3l3.6.6c6 1.5 9.9 4.9 13.1 10.2 2.5 6.1 2.6 13.4.5 19.6-3.8 6.5-10 12.4-17.2 14.6-8.5.9-14.6.2-22-4-4.6.5-7.3 3.6-10.6 6.6q-1.9 1.6-3.8 3.3-.9.8-1.9 1.6c-3 2.6-6.1 5-9.2 7.5q-2.9 2.3-5.7 4.7c-.8.7-.8.7-1.7 1.4q-2.3 2-4.6 4C473 370 473 370 471 370q.5 1.1 1 2.2c2.2 8.5 1.9 16-2.4 23.6-3.6 5-7.7 8.3-13.6 10.2-3.3.3-3.3.3-6.9.3q-1.8 0-3.6.1c-7.4-.8-11.2-4.7-15.8-10.1-4.1-5.5-4-10.8-3.7-17.3q-.8 0-1.7 0c-6.6-.3-10.7-2.3-15.3-7-5.3-6.2-5.7-12.5-5.4-20.5.9-7.8 4.3-12.1 10.3-17 6.4-4.6 12.5-5.5 20.1-4.5 2.5.9 4.7 2 6.9 3.3 2.1.9 2.1.9 4.4.2 3.6-2 6.3-4.4 9.3-7.1q1.9-1.6 3.8-3.2.9-.8 1.8-1.7l15.7-12.9q1.5-1.1 3-2.4 1.3-1 2.6-2.1l2.5-2.1q1.4-1.2 2.8-2.4c2.4-2.4 2.4-2.4 2.5-5.4q-.1-1.5-.2-3c-.3-5.8.3-9.6 3.9-14.2 8.7-9.2 20.1-14.1 32.6-8.4z" fill="#01a5bb"/><path d="M606.5 447.8h2.5q2.7 0 5.4 0 4.1-.1 8.2-.1 2.6 0 5.3 0 1.2 0 2.4-.1c7.7.1 13.6 2.6 19.7 7.4 4.9 5.5 8.1 9.6 8.1 17.1q0 1.6 0 3.2v3.4q0 1.8 0 3.6 0 3.7 0 7.4 0 5.6 0 11.3 0 3.5 0 7.1 0 1.7 0 3.4v3.2q0 1.4 0 2.8c-.1 2.5-.1 2.5-1.1 6.5l10-1c-1.1 14.1-1.1 14.1-6.4 19.4-4.7 2.9-8.3 3.8-13.9 3.7q-1.6 0-3.3 0-1.2-.1-2.4-.1.7 1.6 1.5 3.2c2.6 7 2.7 14.6 0 21.6-2.8 5.5-7.3 9.6-12.8 12.4-6.5 2-14.9 2.1-21.2-.8-6.3-3.8-10.1-9.1-12-16.1-1.7-8.3-.1-14.1 4.5-21.3a39.36 39.36 0 0 1 5-5q-.8 0-1.7-.1c-7.2-.5-12.4-2.5-18-7.2-4.7-5.6-8.4-10.9-8.5-18.5q0-1.4 0-2.9 0-1.6 0-3.2-.1-1.6-.1-3.3 0-3.4 0-6.9 0-5.2-.1-10.5 0-3.3 0-6.7-.1-1.5-.1-3.1c0-8.3 2.1-14 6.7-20.9 3.5-3.4 7.4-5.5 11.8-7.7 3.3-1.6 6.9-1.2 10.5-1.2z" fill="#fec209"/><path d="M777 397c3 1 3 1 4.7 4.1q.6 1.4 1.3 2.9.5 0 1 0 .1 11.5.2 23 0 5.3 0 10.6.1 6.2.1 12.3 0 1.9 0 3.8c0 15-4.7 25.6-14.9 36.5-21.6 20.5-55.7 27.8-84.2 31.6q-1.3.1-2.6.3c-8.5 1-17.1 1.5-25.6 1.9q0-1 0-2.1.1-10 .2-19.9 0-5.1 0-10.2.1-5.9.1-11.7v-3.7c0-6 0-10.3-3.3-15.4q0-1 0-2 1.4-.1 2.8-.2c17.9-1.4 35.6-2.8 53.2-6.8q1.4-.3 2.9-.7c17.4-4 32.4-9.4 47.2-19.4 2.9-1.9 2.9-1.9 5.2-2.9 2.2-1.3 2.7-2.6 3.7-5q1.5-1.9 3-3.8c4.6-6.6 5-15.3 5-23.2z" fill="#f75f27"/><path d="M500 375q.5 1 1 2-1 .7-2.1 1.4c-8.4 5.9-17.1 12.4-19.9 22.6-1.1 8.1.4 14.2 5 21 5.6 7.2 13.1 11.6 21 16l2.8 1.6c22.7 12.2 50 15.3 75.2 18.4-.9 2.8-1.8 5.6-3.1 8.4-1 2.8-1.1 4.9-1.1 7.9q0 1.6 0 3.2 0 1.7 0 3.4v3.4q0 5.5.1 11 0 3.7 0 7.5 0 9.1.1 18.2c-8.5-.7-16.7-1.9-25-3.7q-1.9-.4-3.9-.8c-26.1-5.6-56.5-14.6-72.4-37.7-2.5-4.1-4.2-8.3-5.7-12.8q-.5-1.5-1-3-.2-2.8-.2-5.6 0-1.7 0-3.5 0-1.9 0-3.8-.1-1.9-.1-3.9 0-4.1 0-8.1 0-5.2-.1-10.4 0-5 0-10-.1-1.9-.1-3.8c0-11.2 3.1-18.2 10.7-26.4 5.6-5 12.1-9.2 18.8-12.5z" fill="#f75f28"/><path d="M835.1 184.9q1.2 0 2.4-.1h2.7q1.4 0 2.8 0 4.6 0 9.3 0 3.2 0 6.4 0 6.7 0 13.5 0 8.6-.1 17.2-.1 6.7 0 13.3 0 3.2 0 6.4 0 4.5-.1 8.9-.1 1.3 0 2.6 0c9 .1 17.1 2 23.6 8.3 5.2 6.1 7.7 12.4 7.3 20.4-1.4 7.7-5.3 13.1-11 18.2-6.8 4.1-13.7 4.9-21.5 4.9q-1.4 0-2.8 0-4.7 0-9.4 0-3.3 0-6.5 0-6.9.1-13.7 0-8.8 0-17.5.1-6.8 0-13.5 0-3.3 0-6.5 0-4.5 0-9 0-1.3 0-2.7 0c-7.5-.1-14.3-2-20.2-6.8-5.5-6.8-8.6-12.4-8.5-21.3.8-7.1 4.9-13.7 10.3-18.4 5.1-3.2 10.1-5.1 16.1-5.1z" fill="#01a4ba"/><path d="M579.5 78.8q1.1 0 2.3 0 3.9 0 7.7 0 2.7 0 5.4 0 5.6 0 11.2 0 7.1-.1 14.3-.1 5.5 0 11 0 2.7 0 5.3 0 3.7-.1 7.4-.1 1.1 0 2.2 0c4.4.1 7.2.7 10.7 3.4 1.2 2.4 1.1 3.8 1.2 6.5v2.8q0 1.5 0 3 .1 1.6.1 3.2 0 3.2 0 6.5 0 5 .1 10 0 3.2 0 6.4.1 1.5.1 3 0 1.4 0 2.9 0 1.2 0 2.4c-.7 3.3-1.8 4.4-4.5 6.3-2.8.4-5.2.6-8 .5-1.2 0-1.2 0-2.4.1q-4 0-8 0-2.7 0-5.5 0-5.8 0-11.6 0-7.4 0-14.8 0-5.7 0-11.5 0-2.7 0-5.4.1-3.8 0-7.7-.1c-1.1 0-1.1 0-2.3.1-3.8-.1-5.7-.6-8.8-3-2.1-2.8-2.6-3.9-2.6-7.3q0-1.3-.1-2.7.1-1.4.1-2.9 0-1.4 0-2.9 0-3.1 0-6.2 0-4.8 0-9.5 0-3 0-6 0-1.5 0-2.9c.1-4.3.2-6.7 2.5-10.4 3.7-3.4 6.8-3.1 11.6-3.1z" fill="#01a5bb"/><path d="M501.3 125.5c4.9 4.5 6.9 9 7.2 15.7-.5 12.4-5.8 23.4-13.5 32.8q1.3-.1 2.6-.1c7.8-.2 12.8-.1 18.8 5.2 2.3 4.1 2.4 7.4 1.6 11.9-6.8 13.9-25.3 20.2-39 25q-.6-.7-1.2-1.5c-11.3-13.2-24.4-21.9-40.8-27.5-1.4-9-2.2-17.9-2.4-27q0-1.3-.1-2.6c0-6.7 1.5-11.9 5.9-17 2.3-2.2 4.3-3.3 7.5-4 5.4 1.1 9.5 3.3 12.7 7.9 1.2 2.2 2.4 4.4 3.4 6.7 1.7-2.6 3-5 4.2-7.7 4.3-8.5 9.9-14.1 18.2-18.6 5.3-1.4 9.9-1.5 14.9.8z" fill="#72b035"/><path d="M188.8 385.3q1 0 2 0 3.4 0 6.7 0 2.4 0 4.7 0 4.9 0 9.7 0 6.3 0 12.5-.1 4.8 0 9.6 0 2.3 0 4.6 0 3.3 0 6.5 0 1.8 0 3.7 0c4.6 1.1 5.6 2.9 8.2 6.8.8 2.9 1.3 5.3 1.6 8.3q.2 1.1.4 2.4.5 4.1 1 8.3.2 1.6.4 3.3c3.5 28.3 3.5 28.3.7 32.6-3.3 3.3-5.2 3.2-9.8 3.3q-1.8 0-3.7 0-1.9 0-3.9 0-1 0-2 .1-5.3 0-10.6 0-5.4 0-10.9.1-4.1 0-8.3 0-3 0-6 .1c-11.4 0-11.4 0-15.9-4.5-3.4-4.2-4.2-9.2-5.3-14.4q-.3-1.3-.6-2.7-.6-2.9-1.2-5.8-.9-4.4-1.8-8.7-.6-2.8-1.2-5.6-.3-1.3-.6-2.6c-2.7-12.9-2.7-12.9.3-17.9 3.2-3 4.9-2.9 9.2-3z" fill="#f0720a"/><path d="M810 204q-.1 1-.1 2.1c-.3 7.2.9 12.4 4.1 18.9a20.36 20.36 0 0 1 .9 2.2c1 2.1 1 2.1 4.1 2.8-3 2-3 2-6.4 2.8-5.9 2-8.7 5.9-11.6 11.2-.9 2.5-.9 2.5-1.5 5.3q-.4 1.5-.7 3.1l-.8 3.4q-.5 1.8-.9 3.7-1.2 4.9-2.4 9.8-1.2 5.2-2.4 10.4-2.4 9.8-4.7 19.6-2.6 11.1-5.3 22.2-4.1 17.3-8.3 34.6-.3 1.7-.8 3.4-2.6 11.2-5.2 22.5c-4.4-.7-6.6-2-10-5q.9-4.1 1.8-8.3l.6-2.4q1.5-6.9 3.4-13.7c1.7-7 2.7-13.6-.5-20.2-3.6-3.8-6.5-4.6-11.5-5q-1.4-.1-2.8-.3c-1 0-1 0-2-.1.6-5.6 1.6-10.9 2.9-16.3q.3-1.2.6-2.4.9-3.9 1.8-7.8.7-2.7 1.3-5.5 1.4-5.7 2.8-11.4 1.8-7.3 3.5-14.6 1.4-5.6 2.7-11.2.7-2.7 1.3-5.4c8.2-34.4 8.2-34.4 22.1-44.4 7.7-4.6 15.3-4.5 24-4z" fill="#fec10a"/><g fill="#f0720a"><path d="M309.4 385.2q2.3 0 4.6 0 4.8 0 9.6 0 6.1.1 12.3 0 4.7 0 9.4 0 2.3 0 4.5 0c13.3-.1 13.3-.1 16.6 3.1 2.7 4.7 2.3 10.3 2.2 15.5q0 1.7 0 3.4 0 3.6 0 7.2 0 5.5 0 11 0 3.5 0 6.9v3.4c-.1 7.5-.1 7.5-2.5 11.5-3.4 2.9-5.4 2.9-9.8 3q-1.8 0-3.7 0-8.2.1-16.5.2-4.3 0-8.7 0-5.3.1-10.5.1-3 0-6 .1c-10 0-10 0-13.7-2.9-3.5-4.3-3.6-8.6-4.1-13.9q-.2-1.2-.3-2.4-.3-2.6-.5-5.2-.4-3.9-.8-7.8-.6-4.9-1-9.9l-1-8.2q-.2-1.5-.4-3.1-.2-1.3-.4-2.7c.4-3 1.2-5.1 3.2-7.3 5.1-2.9 11.8-2 17.5-2zm-103.3 96.5q1.9-.1 3.9-.1 2 0 4.1 0 2.1 0 4.3 0 4.4-.1 8.9-.1 5.7 0 11.4-.1 4.4 0 8.8 0 2.1-.1 4.2-.1c10.7-.2 10.7-.2 14.2 1.8 3.7 3.8 4.2 9 4.7 14.1a23 23 0 0 0 .3 2.6q.3 2.8.6 5.6.5 4.2 1 8.4c2.8 24.1 2.8 24.1-.4 29.3-3.2 2.9-5.1 3-9.4 3.1q-1.6 0-3.3 0-7.6.1-15.1.2-4 0-8 0-5.8.1-11.5.1c-1.8.1-1.8.1-3.6.1-9.3 0-9.3 0-12.9-2.7-2.6-3.3-3.5-5.6-4.4-9.7q-.3-.9-.5-1.9-.7-3.2-1.4-6.3-.5-2.1-1-4.1-1.2-5.2-2.3-10.4-.7-3.2-1.4-6.3-.5-2.1-.9-4.1-.4-1.9-.8-3.7c-.9-4.9-1.5-9.2 1.4-13.4 3.5-2.3 5-2.3 9.1-2.3zm213.6-.4q2 0 4 0 4.2 0 8.5 0 5.4.1 10.8 0 4.2 0 8.3 0 3 0 6 0c9.9.1 9.9.1 13 2.9 1.8 3 2.3 4.3 2.1 7.8 0 1.6 0 1.6-.1 3.2q-.2 1.9-.3 3.8-.1 1.1-.2 2.3-.5 7.9-1.3 15.8-.4 4.3-.7 8.5-.3 2.7-.5 5.4l-.2 2.5c-.5 5-1.4 7.9-5.1 11.5-2.5 1.3-4.4 1.1-7.2 1.2h-3.3q-1.7 0-3.6 0-1.8.1-3.6.1-3.8 0-7.7 0-5.8 0-11.7.1-3.7 0-7.5 0-1.7.1-3.5.1c-8.1 0-8.1 0-12.1-2.4-2.7-3.2-2.9-5-3-9.1q0-1.6 0-3.2-.1-7.1-.2-14.3 0-3.8 0-7.6-.1-5.4-.1-10.9-.1-1.7-.1-3.4c0-4.6.1-7.7 2.3-11.8 5.4-2.9 10.9-2.5 17-2.5zm-100.1 0q1.8 0 3.7 0 3.9 0 7.7 0 6 0 11.9-.1 3.8 0 7.5 0h3.6c5.1.1 8 .1 12.2 3.1 3 4.7 2.5 10.2 2.4 15.5q0 1.7 0 3.4 0 3.6 0 7.2 0 5.5 0 11 0 3.5 0 6.9v3.4c-.1 7.5-.1 7.5-2.5 11.5-3.1 2.7-4.8 2.9-8.7 3q-1.5 0-3 0-1.5 0-3.1 0-1.6.1-3.3.1-3.4 0-6.8 0-5.2 0-10.4.1-3.4 0-6.7 0-1.5.1-3.1.1c-4.3 0-7.2-.1-11.1-2-4.1-5.3-4.3-12.5-5-19q-.1-1.2-.2-2.4-.3-2.5-.6-5-.4-3.7-.8-7.5-.7-6.8-1.3-13.6-.1-1.6-.3-3.2-.1-1.3-.1-2.7-.1-1-.2-2.1c2.5-8.8 10.8-7.7 18.2-7.7z"/><path d="M410.9 385.5l2.6.1 2.8.1q1.4 0 2.8.1 3.5 0 6.9.2.4.9.8 1.8c1.8 4.3 3.5 8.1 6.6 11.6.9 1 .9 1 1.7 2 5.1 4.4 11 4 17.5 3.9 5.6-.5 9.2-2 13.1-6.2 2.8-3.4 5-6.8 6.3-11.1 1.6 1 1.6 1 3 3-.3 6.7-.3 6.7-2 10-1.5 4.5-1.4 8.8-1.4 13.6q0 1.5-.1 3-.1 4.9-.1 9.7-.1 3.3-.1 6.6-.2 8-.3 16.1-12.4.1-24.8.2-5.7 0-11.5.1-5.5.1-11.1.1-2.1 0-4.2 0-3 .1-6 .1-1.6 0-3.4 0c-3.7-.6-5.3-1.9-8-4.5-1.2-2.5-1.2-4.2-1.2-7q0-1.6 0-3.2-.1-7.1-.2-14.3 0-3.8 0-7.6-.1-5.4-.1-10.9-.1-1.7-.1-3.4c0-7.8 0-7.8 2.8-11.8 2.9-1.9 4.3-2.4 7.7-2.3z"/></g><path d="M271 759c9.1 5.7 16.4 13.3 19 24 1.2 11.7-.7 21.7-8 31-6.8 7.4-14.2 11-24.2 11.6-11 .2-19.2-2.9-27.3-10.5-7.5-8.2-10-16.8-9.8-27.8.9-9.9 6.5-17.8 13.5-24.5 10.3-8.3 24.9-9.3 36.8-3.8z" fill="#8ed7de"/><path d="M642.2 761.7c8.2 6.8 14 14 15.2 24.9.3 11-1.4 19.2-8.5 27.8-6.4 6.7-14.3 10.6-23.6 11-10.5.2-18.1-1.9-26.3-9q-1-1.2-2-2.4l-2.1-2.3c-5.7-8.1-7.9-16.8-6.9-26.7 2.3-9.7 7.2-17.5 15.3-23.4 13.1-8 25.6-6.9 38.9.1z" fill="#8ed7dd"/><path d="M440 120l1 17q-1-1-2-2 0-2 0-4H138v-10q57.5-.2 115-.4 6.8 0 13.5 0 1.4 0 2.8 0 21.9-.1 43.7-.2 22.5-.1 44.9-.1 13.9-.1 27.7-.1 9.5-.1 19-.1 5.5 0 11 0 5.9 0 11.9-.1 1.7 0 3.5 0 1.6 0 3.2 0 1.3 0 2.7 0h3.1z" fill="#fba107"/><path d="M615.6 463.3q3.7 0 7.5 0 2.4 0 4.7.1 1.2 0 2.3 0c4.9.1 7.5 1.1 10.9 4.6 1.2 2.4 1.2 3.8 1.2 6.5q0 1.3 0 2.8.1 6.3.2 12.7 0 3.3 0 6.7.1 4.8.1 9.6.1 1.5.1 3c0 4.7 0 7-2.9 10.8-5.8 4.1-12.9 3.2-19.7 3.3q-2.3 0-4.6 0-3.4.1-6.7.1-1 .1-2.1.1c-5.6 0-7.8-1.8-11.6-5.6-1.4-2.8-1.1-5-1.1-8.1q.1-1.7.1-3.3 0-1.3 0-2.6 1 0 2 0 4.4-.2 8.8-.3 1.5 0 3.1-.1 1.5 0 3-.1 1.3 0 2.7-.1c2.8-.5 3.7-1.2 5.4-3.4.5-1.9.5-1.9.4-4q0-1 0-2.1c-.5-2.5-1.4-3.3-3.4-4.9-2.4-.5-2.4-.5-5.1-.5q-1.5-.1-3-.1-1.5-.1-3.1-.1-1.5 0-3.1-.1-3.9-.1-7.7-.2-.2-4-.4-8.1-.1-1.1-.1-2.2c-.1-4 .3-7.3 2.4-10.7 4.9-5.1 13.1-3.9 19.7-3.7z" fill="#f75f29"/><path d="M504 501c4.3 1.4 8.4 3 12.5 4.8 16.5 6.7 34 10.2 51.5 13.2.6 19.1.6 19.1-4.3 24.6-4.6 3.7-10 3.1-15.7 3q-1.7 0-3.5 0-3.7 0-7.3 0-5.6 0-11.2 0-3.6 0-7.1 0-1.7 0-3.4 0c-7.7-.1-7.7-.1-11.7-2.5-4.2-4.9-3-10.9-2.8-17.1a323.08 323.08 0 0 1 1.5-13.8q.2-1.8.4-3.6.6-4.3 1.1-8.6z" fill="#f0720a"/><path d="M621.1 252.6c3.9 3.3 7.7 6.8 9.9 11.5 1.3 2.5 3.3 3.8 5.5 5.6 3.7 3.3 4.7 7.1 4.9 11.8-.1 4.5-1.5 7.1-4.4 10.5-4.1 3.6-7.5 4.2-13 4.2-2.8-.3-5.3-1.3-8-2.2-3.8-.3-6.7-.1-10.4 1-5.7 1.6-10.5 2.1-15.9-.6-3.5-3.1-6.2-5.8-7.1-10.5-.3-5.6.9-9.6 4.4-13.9l4.4-3.6c2-1.8 3.2-3.7 4.7-6 2.9-4.6 5.7-7.4 10.7-9.7 5.4-1.2 9.4-.6 14.3 1.9z" fill="#fcf1df"/><path d="M777 397c3 1 3 1 4.6 3.9q.7 1.5 1.4 3.1.5 1 1 2 .1 2.5 0 5 0 1.6 0 3.2-.1 1.6-.1 3.4-.1 1.7-.1 3.5-.1 5.5-.2 11-.1 3.8-.2 7.5-.2 9.2-.4 18.4-.5 0-1 0l-1-37-7 11c-26.6 27-72.7 33.5-109 34q-3.5 0-7 0 0-1 0-2-1 0-2 0-1-2.5-2-5 1.4-.1 2.8-.2c17.9-1.4 35.6-2.8 53.2-6.8q1.4-.3 2.9-.7c17.4-4 32.4-9.4 47.2-19.4 2.9-1.9 2.9-1.9 5.2-2.9 2.2-1.3 2.7-2.6 3.7-5q1.5-1.9 3-3.8c4.6-6.6 5-15.3 5-23.2z" fill="#fa732e"/><path d="M500 375q.5 1 1 2-1 .7-2.1 1.4c-8.4 5.9-17.1 12.4-19.9 22.6-1.1 8.1.4 14.2 5 21 5.6 7.2 13.1 11.6 21 16l2.8 1.6c22.7 12.2 50 15.3 75.2 18.4q-.9 3-2 6c-14.3 7.1-44.5-4.2-58.5-8.8-18.2-6.2-38.6-15.5-47.9-33.5-2.8-6-3.7-12.3-1.6-18.7q1.5-1 3-2c.3-2.6.3-2.6 0-5q.9-.3 1.9-.7c2.3-1.1 2.3-1.1 2.9-3.5 1.5-3.5 3.5-5 6.4-7.3 2-1.6 2-1.6 4.4-4.2 2.6-2.5 5.1-3.8 8.4-5.3z" fill="#fb732e"/><path d="M671 677q1.5 1 3 2c-3.8 2.5-7.9 2.3-12.3 2.3q-1.3 0-2.6 0-4.3.1-8.7.1-3.2 0-6.4.1-8.9 0-17.8.1-5.8 0-11.5.1l-219.6.5h-3.2-12.7q-26.1 0-52.1 0-27.1 0-54.1 0-15.1 0-30.2 0-12.6.1-25.3 0-6.5 0-12.9.1-5.9 0-11.8-.1-2.1 0-4.3.1-2.9 0-5.7-.1h-3.3c-2.5-.2-2.5-.2-4.5-2.2 3.7-1.2 7.2-1.1 11-1.1q1.3 0 2.6 0 4.2-.1 8.4-.1 3 0 6.1 0 8.3 0 16.7 0 9.1 0 18.1 0 15.6 0 31.3-.1 22.6 0 45.3 0 10.5 0 21-.1h2.2q25.1 0 50.2 0 1.1 0 2.2-.1 17.9 0 35.7 0 16.7 0 33.4-.1 1.1 0 2.3 0 25 0 50.1 0h2.1q10.6-.1 21.1-.1 22.6 0 45.2 0 16.5-.1 32.9-.1 9 0 17.9 0 8.2 0 16.3 0 3 0 6 0 4-.1 8-.1 1.2 0 2.4 0c3.9.1 3.9.1 7.5-1.1z" fill="#feb70e"/><path d="M616 212c3.7 2.1 6.2 4.7 8.4 8.3 1.2 5.7 1.5 10.7-1 16.1-3.2 3.5-5.8 5.4-10.6 5.7-5.8-.3-8.8-1.9-12.8-6.1-2.3-3-2.4-6.1-2.3-9.8.7-5.1 3.2-8.9 6.5-12.7 4-2.1 7.3-2.5 11.8-1.5z" fill="#faf1e0"/><path d="M401.1 221.6c5 .5 7.7 2.3 11.6 5.2q2.3 1.5 4.5 3 1.2.8 2.4 1.6c4.9 3.3 10.1 6.4 15.2 9.5 7.6 4.8 7.6 4.8 10.2 8.1-.1 3.1-.1 3.1-1 6-3 2-3 2-5.2 1.9-4-1.3-7.3-3.5-10.9-5.7q-1.2-.7-2.4-1.5-2.5-1.5-4.9-3.1-4-2.4-7.9-4.9-2.6-1.6-5.1-3.2-1.2-.8-2.5-1.5-1.1-.7-2.3-1.5-1-.6-2-1.2c-1.8-1.3-3.4-2.6-4.8-4.3-.3-3.1-.3-3.1 0-6 2-2 2-2 5.1-2.4z" fill="#f0720a"/><path d="M404.2 281c4.1 1.4 7.1 3.9 10.5 6.6 1 .8 1 .8 2.1 1.6l14.1 11.1c2 1.7 2 1.7 4.1 3.1 1.7 1.2 1.7 1.2 4 3.6.1 3.7.1 3.7-1 7-3 2-3 2-5.4 1.9-3.1-1.1-4.9-2.5-7.4-4.7-5.4-4.6-11-8.8-16.6-13q-2-1.5-3.9-2.9-2.3-1.7-4.7-3.4-1-1-2-1.9c0-3.6 0-3.6 1-7 3-2 3-2 5.2-2z" fill="#ef720a"/><path d="M648 230c3.4 2.8 5.8 5 6.2 9.4.2 7.3-.8 11-5.9 16.4-3.6 1.9-7.2 2.6-11.3 2.2-3.3-2.4-5.7-5.1-7-9-.7-5.5.4-8.8 3.5-13.2 4.1-4.9 8.1-6.8 14.5-5.8z" fill="#f8f0df"/><path d="M582 230c4.9 2.7 8.5 6 11 11 .5 4.1.9 8.2-1 12-2.7 3.2-4.6 4.8-8.8 5.3-5.1-.5-8-3.1-11.5-6.8-3-4.4-3.2-8.2-2.7-13.5 3.2-5.9 6-8.8 13-8z" fill="#faf1e0"/><path d="M667 523c-.5 7.2-1.1 14.1-6.4 19.4-4.9 3-8.6 3.8-14.4 3.7q-1.7 0-3.5 0-1.3-.1-2.7-.1-.4-.9-.9-1.9c-1.3-2.5-2.5-3.1-5.1-4.1 2.8-1.4 5.6-2.7 8.4-3.9 5.1-2.2 8.6-4.4 11.5-9.3 2.1-2.8 2.1-2.8 5-3.7 2.7-.1 5.4-.2 8.1-.1z" fill="#f0720a"/><path d="M627.2 710.3l3.3.2q4.7.2 9.5.5 2.4.1 4.8.3 4.1.2 8.2.5 4.3.2 8.5.4l2.2.1q3.1.2 6.1.3c3.2.4 3.2.4 6.2 2.4q-6.9 0-13.7.1-2.3 0-4.7 0-3.3 0-6.7 0-1 0-2.1 0c-4.3 0-8.5-.5-12.8-1.1q-3.3-.1-6.6-.1h-3.7q-1.9 0-3.8 0-1.9 0-3.8 0-1.9 0-3.7 0H611c-2.9 0-2.9 0-5.1.6-4 .7-7.8.6-11.8.6q-1.3 0-2.7 0-4.4 0-8.8 0-3 0-6.1 0-8 0-16 0-8.2 0-16.4-.1-16 0-32.1 0 0-1.5 0-3c3 0 3 0 5.1.5 6.4 1.1 12.9.5 19.4 0 6.9-.5 13.8-.6 20.8-.6q1.7 0 3.6 0 5.6 0 11.2 0 3.9 0 7.7.1 8.4 0 16.7 0c4.2 0 7.9-.2 12-1 6.3-1.1 12.3-1.1 18.7-.7z" fill="#fdb502"/><path d="M255 710q2.7 0 5.4-.1 1.5 0 3.1 0c2.5.1 2.5.1 3.5 1.1 12.1 1.7 24.7 1.3 36.9 1.6q1.8 0 3.5 0 23.4.5 46.7.4 1.2 0 2.4 0 12 0 23.9-.1 4.5 0 8.9-.1 2.1 0 4.2 0 2.9 0 5.7 0 1.6 0 3.3 0c2.5.2 2.5.2 4.5 2.2q-25.9 0-51.7.1-12 0-24 0-10.5 0-21 0-5.5 0-11 0-6.2 0-12.4 0h-3.7q-1.7 0-3.4 0-1.5 0-3 0c-3-.1-5.8-.6-8.8-1.1q-2.5-.2-5-.3c-1.3-.1-1.3-.1-2.6-.1q-1.4-.1-2.8-.2-1.4 0-2.8-.1-3.4-.2-6.8-.3 0-.5 0-1l7-1q0-.5 0-1z" fill="#fdb201"/><path d="M368 308c4.9 1.2 8.9 4.5 12.9 7.4q2.1 1.4 4.2 2.9 1 .7 2 1.4 2.7 1.8 5.4 3.6 1.2.8 2.5 1.7 0 .5 0 1c-9 .9-16.6 1.6-23.9-4.4-2.5-2.1-4.8-4.3-7.1-6.6.2-2.5.2-2.5 1-5q1.5-1 3-2z" fill="#f1730a"/><path d="M616 522h7v22q-2.5.5-5 1c-2-2-2-2-2.2-4.2q0-1.3 0-2.6 0-1.4 0-2.8 0-1.5.1-3 0-1.5 0-3 0-3.7.1-7.4z" fill="#f89706"/><path d="M609.2 464.6q1 0 2.1 0 2.2 0 4.4.1 3.3 0 6.7 0c12 0 12 0 15.6 2.3q0 1 0 2-6.4 0-12.8.1-2.2 0-4.4 0c-14.8.1-14.8.1-21.8-1.1 2.7-3.8 5.7-3.4 10.2-3.4z" fill="#fa752c"/></svg>