<svg xmlns="http://www.w3.org/2000/svg" width="1024" height="1024" xmlns:v="https://vecta.io/nano"><path d="M179 128.6c15.7 10.5 30.5 22.4 45 34.4q.9.7 1.8 1.5c7.4 6.1 14.6 12.6 21.7 19.1q2.2 2 4.4 4c10.3 9.3 20.9 18.9 29.5 29.8 2.5 2.5 4.3 4.1 7.6 5.6 3.7-.4 7-1.7 10.5-2.9q3.1-1.1 6.2-2.1l3.2-1c15.3-4.9 31.1-7.1 47-8.7q4.3-.4 8.5-.9c46.7-5 95.3-1.5 141 8.6q1.7.3 3.4.7c5.1 1.1 9.6 2.3 14.2 4.7 6.7 3.3 6.7 3.3 14 2.6 8.4-5.8 15.1-13.6 21.7-21.2 3.8-4.4 7.9-8.1 12.3-11.8q2.7-2.4 5.3-4.9c4.4-4 8.9-7.8 13.6-11.6q3.5-2.8 6.9-5.7c21.5-18 44.4-34.7 69.2-47.8q.9-.5 1.8-1c16.7-8.9 34.2-15.7 53.1-10.4 5.6 2 9.8 4.4 14.1 8.4q.9.8 1.8 1.6c8.5 8.5 12.2 20.8 14.6 32.3l.4 2.3c2.9 15.5 2.4 31.6 2.4 47.2v3.1c0 15.6-.4 31-2.2 46.5q-.2 1.6-.4 3.2c-3.3 28.6-9.8 56.8-17.3 84.7-.3 1.2-.3 1.2-.7 2.5q-1 3.7-2 7.4-.3 1.2-.6 2.4c-1.1 3.8-2.2 7.5-3.5 11.3-.3 1-.3 1-.7 2.1q-1 2.9-2 5.8c-1.4 6.3.2 11.9 1.7 18.1 5.6 22.5 9.2 44.2 8.5 67.5q1.5 0 3.1 0 8-.1 15.9 0h3.6q5.8.1 11.6.2a48.2 48.2 0 0 0 3.8.1c6.8.2 11.5.5 17 4.7 2.5 3.8 2.5 5.5 2 10-2 3.7-3.5 5.7-7 8-10.4 1-21.4-.4-31.8-1q-2.5-.1-5-.3-6.1-.3-12.2-.7c-.1 1.9-.1 1.9-.1 3.8-1.5 38.4-1.5 38.4-8.9 53.2q1.6.3 3.3.7c10.4 2.3 20.8 4.8 31.2 7.6q2.3.6 4.7 1.3 3.6.9 7.1 1.9 1 .2 2.1.5c4.8 1.4 7.4 3.2 10.6 7 1.2 2.4 1 3.7.8 6.4-.2 1.2-.2 1.2-.3 2.4-.6 2.6-1.4 3.6-3.5 5.2-10 3.3-19.9-.7-29.4-3.8q-2.2-.7-4.4-1.4-1-.3-2.1-.7-1.1-.3-2.2-.6-1-.3-2-.7c-10.8-3.6-10.8-3.6-21.9-4.8q-.7 1.8-1.5 3.6c-13.7 33.3-32.9 60.1-58.5 85.4q.7.5 1.4 1.1c9.2 7.6 16.5 17 23.2 26.8q.7 1 1.4 2.1c2.2 3.2 4.3 6.4 6.1 10 2.7 5.1 5.1 9.6 10.9 11.7 3 .9 6.1 1.5 9.2 2.2 22.4 4.8 42.4 22 54.7 40.7 15.4 24.7 15.4 24.7 14.1 38.4 27.1-16 43.8-42.1 52-72 12.1-48.1 5.7-95.3-1.5-143.5-3.3-22.2-4.9-43.9-4.9-66.3q0-1.8 0-3.7c.1-19.4 1-38.3 4.4-57.5q.3-1.6.6-3.3c1.2-6.6 2.7-13.2 4.4-19.7q.3-1.3.7-2.6c9.9-37.6 30.1-74.1 64.5-94.4 20.3-11.6 42.3-19.2 65.7-13 13.7 4.5 25.5 13.3 32.3 26.3 5.8 12.6 5.3 27.8.8 40.7-7.1 16.5-18.6 25.3-33 35-22.7 15.6-31.1 34.3-36.6 60.8-1.1 6-1.6 11.7-1.6 17.8v2.5c-.2 29.7 2.8 58 7.7 87.3 6.2 36.4 10.1 73.8 4.5 110.6q-.2 1.4-.4 2.8c-7.4 49-27.4 93.8-68.2 123.9q-3.7 2.7-7.4 5.3-1.3.9-2.6 1.8c-5 3.3-10.4 5.5-16 7.5q-1.1.4-2.2.8c-7.5 2.6-13.6 3.5-21.4 1.1-1.8-.5-1.8-.5-3.6-1.1-3.2-1.1-3.2-1.1-4.9-2.1-5.4-2.3-12.2-1.7-18-1.8q-2.6 0-5.2-.1c-10-.9-10-.9-18.7 3.2-1.7 2.8-3.1 5.7-4.4 8.7-7.2 9.9-19.2 17.9-31 21-11.4.9-19.9-.5-29.7-6.2-2.3-1.1-2.3-1.1-4.4-.1q-.9.6-1.9 1.3-.8.6-1.7 1.1-.9.7-1.8 1.3c-10.8 6.7-23.3 8.8-35.8 6.1-9-2.4-16.9-5.9-23.7-12.5-.8.5-.8.5-1.5 1.1-9.4 5.7-20.5 5.2-31 3.2-13.4-4-24.5-12.7-31.7-24.6-.8-1.7-.8-1.7-.8-3.7q-59.8-.2-119.6-.2-7.1 0-14.2 0-1.4 0-2.8 0-22.8 0-45.5-.1-23.4 0-46.8 0-14.4 0-28.8-.1-9.9 0-19.8 0-5.7.1-11.4 0h-12.3q-1.8 0-3.7 0c-3.4 0-5.9.2-9.1 1.4-2.4 2.6-4 5.1-5.6 8.2-5.3 10.3-16.7 16.2-27.1 20.2-8.8 2.7-20 3.5-28.6-.3q-1.9-1-3.7-2.1-2-1-4-2-.9.7-1.8 1.4c-12.5 9.2-24.1 11.2-39.4 10-6.8-1-12.2-4.5-17.8-8.4q-1.7-1.1-3.4-2.3-1.3-.8-2.6-1.7-1.2 1.2-2.5 2.4c-6.3 5.9-16.9 5.2-24.9 5-10.7-.6-19.5-5.8-27.6-12.4q-.9-.7-1.9-1.5C56.6 826.3 51 808.2 49.9 792c-1.3-22.1 7-42.2 21.1-59q1-1.3 2.1-2.6c12.2-14.3 28.4-23.9 46-30.1q.9-.3 1.9-.7c2-.6 2-.6 4.3-1.1 4.6-1.2 7.1-2.4 9.8-6.4q1.4-2.4 2.7-4.8 1.5-2.6 3.1-5.1.7-1.3 1.5-2.7c2.4-3.8 5.1-7.5 7.8-11.1q.8-1 1.6-2c3.4-4.5 7-8.7 10.9-12.7 1.6-1.7 1.6-1.7 1.3-4.7-1.8-1.7-1.8-1.7-4.2-3.4-29.1-22.5-51.9-54.8-63.8-89.6q0-1 0-2c-13.7 3.3-27.2 7.2-40.4 12.1-7.5 2.7-14.6 4.1-22.6 2.9-3-1.7-3.4-2.8-5-6-.7-4.2-.4-6.3 1.6-10.1 2.9-3.5 4.5-4.1 8.8-5.2q2.1-.6 4.2-1.2 1.3-.3 2.5-.7l10.2-3q3-1 6-1.9 2-.6 4-1.2c7.8-2.4 15.6-4.5 23.7-5.7q-.5-1.9-1-3.8c-2.4-9.7-4.5-19.3-5.8-29.3q-.2-1.3-.4-2.7c-.6-4.9-.9-9.6-.8-14.5q0-1.6 0-3.3V478q-1 0-1.9 0-10 .2-20 .2-3.8 0-7.5.1-5.4.1-10.7.1c-1.7 0-1.7 0-3.4.1-7.7 0-7.7 0-11.7-2.4-2.8-3.3-3.2-5.7-3.1-10.1.3-2 .3-2 2.1-4.9 13.8-9.2 40.2-5.2 56.2-5.1q0-1.2-.1-2.5c-.1-9.2.6-18.2 1.8-27.4q.1-1 .3-2.1c1.5-12.3 3.6-24.4 6.5-36.5q.2-1.2.5-2.5.3-1.6.7-3.3c.4-4.6-.6-7.9-2-12.2q-.8-2.5-1.5-5-.4-1.3-.9-2.7C75.3 326.6 68.7 290.9 66 254q-.1-1.1-.2-2.2C62.6 210.1 60 153.3 86.3 118c26.2-30.2 65.7-7.2 92.7 10.6z" fill="#f98f00"/><path d="M179 128.6c15.7 10.5 30.5 22.4 45 34.4q.9.7 1.8 1.5c7.4 6.1 14.6 12.6 21.7 19.1q2.2 2 4.4 4c10.3 9.3 20.9 18.9 29.5 29.8 2.5 2.5 4.3 4.1 7.6 5.6 3.7-.4 7-1.7 10.5-2.9q3.1-1.1 6.2-2.1l3.2-1c15.3-4.9 31.1-7.1 47-8.7q4.3-.4 8.5-.9c46.7-5 95.3-1.5 141 8.6q1.7.3 3.4.7c5.1 1.1 9.6 2.3 14.2 4.7 6.7 3.3 6.7 3.3 14 2.6 8.4-5.8 15.1-13.6 21.7-21.2 3.8-4.4 7.9-8.1 12.3-11.8q2.7-2.4 5.3-4.9c4.4-4 8.9-7.8 13.6-11.6q3.5-2.8 6.9-5.7c21.5-18 44.4-34.7 69.2-47.8q.9-.5 1.8-1c16.7-8.9 34.2-15.7 53.1-10.4 5.6 2 9.8 4.4 14.1 8.4q.9.8 1.8 1.6c8.5 8.5 12.2 20.8 14.6 32.3l.4 2.3c2.9 15.5 2.4 31.6 2.4 47.2v3.1c0 15.6-.4 31-2.2 46.5q-.2 1.6-.4 3.2c-3.3 28.6-9.8 56.8-17.3 84.7-.3 1.2-.3 1.2-.7 2.5q-1 3.7-2 7.4-.3 1.2-.6 2.4c-1.1 3.8-2.2 7.5-3.5 11.3-.3 1-.3 1-.7 2.1q-1 2.9-2 5.8c-1.4 6.3.2 11.9 1.7 18.1 5.6 22.5 9.2 44.2 8.5 67.5q1.5 0 3.1 0 8-.1 15.9 0h3.6q5.8.1 11.6.2a48.2 48.2 0 0 0 3.8.1c6.8.2 11.5.5 17 4.7 2.5 3.8 2.5 5.5 2 10-2 3.7-3.5 5.7-7 8-10.4 1-21.4-.4-31.8-1q-2.5-.1-5-.3-6.1-.3-12.2-.7c-.1 1.9-.1 1.9-.1 3.8-1.5 38.4-1.5 38.4-8.9 53.2q1.6.3 3.3.7c10.4 2.3 20.8 4.8 31.2 7.6q2.3.6 4.7 1.3 3.6.9 7.1 1.9 1 .2 2.1.5c4.8 1.4 7.4 3.2 10.6 7 1.2 2.4 1 3.7.8 6.4-.2 1.2-.2 1.2-.3 2.4-.6 2.6-1.4 3.6-3.5 5.2-10 3.3-19.9-.7-29.4-3.8q-2.2-.7-4.4-1.4-1-.3-2.1-.7-1.1-.3-2.2-.6-1-.3-2-.7c-10.8-3.6-10.8-3.6-21.9-4.8q-.7 1.8-1.5 3.6c-13.7 33.3-32.9 60.1-58.5 85.4q.7.5 1.4 1.1c9.2 7.6 16.5 17 23.2 26.8q.7 1 1.4 2.1c2.2 3.2 4.3 6.4 6.1 10 2.7 5.1 5.1 9.6 10.9 11.7 3 .9 6.1 1.5 9.2 2.2 22.4 4.8 42.4 22 54.7 40.7 15.4 24.7 15.4 24.7 14.1 38.4 27.1-16 43.8-42.1 52-72 12.1-48.1 5.7-95.3-1.5-143.5-3.3-22.2-4.9-43.9-4.9-66.3q0-1.8 0-3.7c.1-19.4 1-38.3 4.4-57.5q.3-1.6.6-3.3c1.2-6.6 2.7-13.2 4.4-19.7q.3-1.3.7-2.6c9.9-37.6 30.1-74.1 64.5-94.4 20.3-11.6 42.3-19.2 65.7-13 13.7 4.5 25.5 13.3 32.3 26.3 5.8 12.6 5.3 27.8.8 40.7-7.1 16.5-18.6 25.3-33 35-22.7 15.6-31.1 34.3-36.6 60.8-1.1 6-1.6 11.7-1.6 17.8v2.5c-.2 29.7 2.8 58 7.7 87.3 6.2 36.4 10.1 73.8 4.5 110.6q-.2 1.4-.4 2.8c-7.4 49-27.4 93.8-68.2 123.9q-3.7 2.7-7.4 5.3-1.3.9-2.6 1.8c-5 3.3-10.4 5.5-16 7.5q-1.1.4-2.2.8c-7.5 2.6-13.6 3.5-21.4 1.1-1.8-.5-1.8-.5-3.6-1.1-3.2-1.1-3.2-1.1-4.9-2.1-5.4-2.3-12.2-1.7-18-1.8q-2.6 0-5.2-.1c-10-.9-10-.9-18.7 3.2-1.7 2.8-3.1 5.7-4.4 8.7-7.2 9.9-19.2 17.9-31 21-11.4.9-19.9-.5-29.7-6.2-2.3-1.1-2.3-1.1-4.4-.1q-.9.6-1.9 1.3-.8.6-1.7 1.1-.9.7-1.8 1.3c-10.8 6.7-23.3 8.8-35.8 6.1-9-2.4-16.9-5.9-23.7-12.5-.8.5-.8.5-1.5 1.1-9.4 5.7-20.5 5.2-31 3.2-13.8-4.1-25.2-13.2-32.2-25.7-9.1-17.9-11.9-41.1-6.4-60.6 10-27.3 29.4-49.5 56-61.8 12.7-5.8 25.9-9.4 40-9.3a14.08 14.08 0 0 1 2.1.1q2.5 0 5 0c-6.8-11.4-14.6-20.6-24-30-5.4 1.4-10.5 3.2-15.7 5.5-9.6 4.2-19.5 7.8-29.5 11.2q-2.5.8-4.9 1.6-3.4 1.2-6.9 2.4-1 .3-2.1.7c-5.1 1.6-11 3.1-16 .6-4.8-4.7-4.8-4.7-5.3-9.3.4-3.7 1-5.4 3.5-8.2 4.4-3.4 10.1-4.6 15.4-6.3q4-1.2 7.9-2.6 1-.3 2-.6c20-6.8 37.3-17.5 52.6-32q2-1.7 4.1-3.4c21.9-19.3 35.7-46.1 46.9-72.6-1.1 0-1.1 0-2.1-.1-9.7-.6-19.1-2.1-28.6-3.8q-4.1-.7-8.1-1.4-6.5-1.1-12.9-2.3-2.2-.4-4.5-.8-2.9-.5-5.8-1-1.5-.3-3.2-.6c-3.6-1.3-5.4-3.1-7.8-6-1.1-3.4-1.1-3.4-1-7 1.7-3 3.8-5.4 7-7 6.6-.4 13 .8 19.6 1.9q1.8.3 3.6.6 3.9.6 7.7 1.2 5.8 1 11.7 1.9 3.7.6 7.4 1.2 1.7.3 3.5.6L705 529c4.2-17.1 6.9-34.5 9-52l-2 1q-2.9.3-5.9.4-1.8.1-3.6.2-2 .2-3.9.3c-10.4.6-20.5 1.7-30.7 3.4-5 .9-9.9 1.4-14.9 1.7l-3.2.2c-9.1.2-9.1.2-13.8-3.2-2-4-1.5-8.7-1-13 2-3 3.7-3.7 7.1-4.5 9.8-1.6 19.7-2.7 29.6-3.8q4.6-.5 9.1-1c11.1-1.3 22-2 33.2-1.7-1.2-26-5.6-49.7-13.3-74.6q-.4-1.2-.7-2.4c-.3-1.2-.3-1.2-.7-2.4-.4-3.4.4-5.6 1.5-8.8q.6-1.9 1.2-3.8.3-1 .7-2c11.4-34.2 19.8-70.2 24.9-105.9q.4-3 .9-6.1c2.5-16.7 2.8-33.4 2.9-50.3.1-1.5.1-1.5.1-3.1.3-32.3.3-32.3-12.1-61.2-3.2-3.2-6-4.7-10.5-4.9-43.3 1.1-88.5 47.1-118.7 74.5q-3 2.7-6.1 5.4c-10.7 9.4-20.8 19.2-30.9 29.3q-1.1 1.1-2.2 2.3c-2 1.9-2 1.9-3.4 3.7-1.2 1.4-1.2 1.4-3.6 3.3-5.6 0-10.3-1.7-15.6-3.6-20-7-41.2-10.6-62.1-13.8l-2.6-.4q-7.8-1.2-15.7-2.2-1.4-.2-2.8-.4c-9-1-18.2-.7-27.2-.7q-4.4 0-8.9 0c-17.6 0-35 .6-52.5 3.2q-1.1.1-2.2.3c-20.6 2.9-41.1 7.2-61 13-4.6 1.2-8.7 1.8-13.4.6-2.3-1.6-2.3-1.6-4.6-3.8q-1.3-1.2-2.6-2.5-7.5-7.3-14.9-14.8c-8.8-9-8.8-9-18.1-17.4-2.8-2.4-5.5-4.9-8.1-7.4-4.8-4.5-9.8-8.7-14.9-12.8q-3.8-3.1-7.5-6.3c-6.9-5.9-14-11.6-21.3-17-.9-.7-.9-.7-1.8-1.3-17.3-13-34.7-25.2-55.2-32.7q-1.5-.6-3-1.1c-5.8-1.7-12.5-2.3-18.2 0-14.6 10.8-16.8 36.5-19.4 53-1.1 8.5-1.6 17-1.6 25.6-.1 1.8-.1 1.8-.1 3.6q0 5.7 0 11.5 0 1.9 0 3.9c0 19 .7 37.3 3.7 56a200.09 200.09 0 0 1 1.5 10.8c3.6 28 9.8 55.5 22.3 81 1 3.5.4 4.4-1.2 7.7-7.3 20.7-10.7 42.2-11.6 64.1 0 1.5 0 1.5-.1 3.2q-.2 3.8-.3 7.7 1.4.1 2.9.1c10.2.6 20.3 1.7 30.5 3.2q1.1.2 2.3.3c32.9 4.8 32.9 4.8 41.7 11.1 1.9 2.8 2.2 5 2 8.3-.6 3.1-2.1 4.9-4.4 7-6.9 2.3-13.2.6-20-1.3-9.5-2.4-19-3.8-28.6-5q-1-.1-2.1-.2-12.1-1.5-24.3-2.5.2 1.1.4 2.3c1.3 8.4 2.4 16.8 3.5 25.3.6 5.4 1.5 10.8 2.7 16.1.4 2.5.5 4.8.4 7.3q1.6-.4 3.2-.8c11-2.5 22.1-4.5 33.3-6.1q4.1-.5 8.2-1.2c26.3-3.8 26.3-3.8 32.6.2 2 3.5 2.7 5.8 2.7 9.9-1.6 3.8-3.5 6-7 8-3.2.8-6.4 1.1-9.7 1.5l-2.9.4q-4.6.5-9.1 1.1-6 .7-12 1.5-1.5.2-3 .4c-7.1.9-14.1 2.1-21.1 3.5-2.8.5-5.4.7-8.2.6 17.8 48.3 51.5 82.9 97.6 104.2a270.2 270.2 0 0 0 21 8.4l2.2.8q2.1.7 4.1 1.3c4.8 1.7 6.8 3.9 9.1 8.3.7 4 .2 5.6-1.7 9.2-3 3.7-4.5 4.6-9.1 5.1-6 0-11.4-2.7-16.8-4.9q-3.6-1.3-7.3-2.7-1.7-.7-3.6-1.4c-5.9-2.2-11.9-4.2-18-6.1-3.9-1.3-7.7-2.6-11.5-4.2-9.6 8.8-16.6 17.7-23 29q1.7-.1 3.4-.1c26.8-.6 53.6 7.8 73.6 26.1q.7.7 1.5 1.3c16 14.6 28.5 35.2 29.7 57.2.3 20.7-4.2 40.9-18.8 56.2-10.9 10.4-24.4 16.2-39.5 15.9-5.7-.3-10.1-1.7-14.9-4.6q-2-1-4-2-.9.7-1.8 1.4c-12.5 9.2-24.1 11.2-39.4 10-6.8-1-12.2-4.5-17.8-8.4q-1.7-1.1-3.4-2.3-1.3-.8-2.6-1.7-1.2 1.2-2.5 2.4c-6.3 5.9-16.9 5.2-24.9 5-10.7-.6-19.5-5.8-27.6-12.4q-.9-.7-1.9-1.5C56.6 826.3 51 808.2 49.9 792c-1.3-22.1 7-42.2 21.1-59q1-1.3 2.1-2.6c12.2-14.3 28.4-23.9 46-30.1q.9-.3 1.9-.7c2-.6 2-.6 4.3-1.1 4.6-1.2 7.1-2.4 9.8-6.4q1.4-2.4 2.7-4.8 1.5-2.6 3.1-5.1.7-1.3 1.5-2.7c2.4-3.8 5.1-7.5 7.9-11.1q.7-1 1.5-2c3.4-4.5 7-8.7 10.9-12.7 1.6-1.7 1.6-1.7 1.3-4.7-1.8-1.7-1.8-1.7-4.2-3.4-29.1-22.5-51.9-54.8-63.8-89.6q0-1 0-2c-13.7 3.3-27.2 7.2-40.4 12.1-7.5 2.7-14.6 4.1-22.6 2.9-3-1.7-3.4-2.8-5-6-.7-4.2-.4-6.3 1.6-10.1 2.9-3.5 4.5-4.1 8.8-5.2q2.1-.6 4.2-1.2 1.3-.3 2.5-.7l10.2-3q3-1 6-1.9 2-.6 4-1.2c7.8-2.4 15.6-4.5 23.7-5.7q-.5-1.9-1-3.8c-2.4-9.7-4.5-19.3-5.8-29.3q-.2-1.3-.4-2.7c-.6-4.9-.9-9.6-.8-14.5q0-1.6 0-3.3V478q-1 0-1.9 0-10 .2-20 .2-3.8 0-7.5.1-5.4.1-10.7.1c-1.7 0-1.7 0-3.4.1-7.7 0-7.7 0-11.7-2.4-2.8-3.3-3.2-5.7-3.1-10.1.3-2 .3-2 2.1-4.9 13.8-9.2 40.2-5.2 56.2-5.1q0-1.2-.1-2.5c-.1-9.2.6-18.2 1.8-27.4q.1-1 .3-2.1c1.5-12.3 3.6-24.4 6.5-36.5q.2-1.2.5-2.5.3-1.6.7-3.3c.4-4.6-.6-7.9-2-12.2q-.8-2.5-1.5-5-.4-1.3-.9-2.7C75.3 326.6 68.7 290.9 66 254q-.1-1.1-.2-2.2C62.6 210.1 60 153.3 86.3 118c26.2-30.2 65.7-7.2 92.7 10.6z" fill="#021f3f"/><path d="M972.2 327.5c5.9 4.6 9.1 9.7 10.2 17.1.4 9.6-2.5 19.1-8.7 26.5-5.4 5.9-11.1 10.2-18 14.1-24.7 14.3-37.5 39-44.7 65.8-1.3 5.6-2.2 11.3-3 17l-.6 3.2c-3.9 33.7 3 68.5 8.4 101.7q.2 1.4.5 2.9 1.1 7.2 2.3 14.4.5 2.7.9 5.4.2 1.2.4 2.4c1.5 9.1 2.3 18.1 2.3 27.3q0 1.5 0 2.9c.3 55-7.3 108.9-47.2 149.8-6.6 6.7-14.2 11.6-22 16.7q-2.9 1.9-5.8 3.9C818.6 818 818.6 818 812 818q0 1 0 2h-36l4-11q.2-2.6.5-5.4c.4-2.5.4-2.5 1.5-4.6 2.8-1.8 5.5-2.7 8.6-3.8 10.5-3.7 19.2-9.8 27.4-17.2q1.4-1.2 2.8-2.5c32.3-30.6 41.5-81.3 43.3-123.8.2-7.2.1-14.5-.1-21.7q0-1.2 0-2.4c-.5-21.1-4-42.2-6.8-63.1q-.2-1.8-.4-3.6-1.2-8.9-2.3-17.8-1.1-8.1-2.1-16.2-.4-2.7-.7-5.4c-1.7-12.4-2.1-24.7-2-37.2q0-1.4 0-2.9c0-14.3.5-28.3 3.3-42.4q.3-1.4.5-2.8c6.4-34 19.1-63.5 42.5-89.2q1.1-1.2 2.2-2.5c8.8-9.4 19.9-15.2 31.8-19.5q1.2-.5 2.5-1c12.8-4.2 28.4-4.1 39.7 3.5zM664.1 711.8c24.1-.6 52.6 5.6 70.9 22.2q1.3 1.1 2.6 2.3c12.5 11.8 24.2 28 24.7 45.7.3 16.1-5.1 29.4-16.1 41.4-5.1 4.8-11.2 8.8-18.5 9.1-5.2-.7-8.3-2.1-12-5.9-2.4-3.6-2.8-6.5-2.8-10.8 0-1.2 0-1.2.1-2.4q0-1.3 0-2.6 0-2.8.1-5.5 0-4.4.1-8.7 0-4.2.1-8.4 0-1.3 0-2.6c0-4.8 0-4.8-1.7-9.1-2.6-2.4-4.9-2.1-8.3-2-3.9.8-5.6 2.7-8.3 5.5-1.6 3.3-1.2 6.9-1.2 10.4q-.1 2.6-.1 5.2-.1 4.1-.1 8.2 0 4-.1 8 0 1.2 0 2.4c-.2 6.5-1.1 12.4-5.9 17.2-6.9 4.3-13.6 4.3-21.6 3.6-6.1-1.6-10.8-5.6-14-11-1.3-4.7-1.2-9.3-1.2-14.1q0-2.7 0-5.4-.1-4.2-.1-8.4-.1-4.1-.1-8.1 0-1.3 0-2.6c-.1-3.8-.2-5.8-2.4-8.9-3.3-2.2-5.4-2-9.2-1.5-3.7 2-5.7 3.5-8 7-.2 2.8-.3 5.6-.3 8.4q-.1 1.3-.1 2.5-.1 4-.1 8-.1 5.2-.2 10.4 0 1.2 0 2.4c-.1 5.4-.6 9.4-4.4 13.6-4 2.3-7.2 3.1-11.9 2.7-9.9-3.3-16.7-9.5-21.7-18.4-6.7-13.4-7.7-30.6-3.4-44.9 6.2-18.1 20.7-34.2 37.1-43.7q1.4-.8 2.7-1.6c11-5.9 23-8.9 35.4-9.6zM207 727q1.3.7 2.6 1.3c7.4 4.1 13.4 9.8 19.4 15.7q1.1 1.1 2.3 2.2c11.2 11.5 15.1 26.5 15.1 42.1-.3 13.8-5 24.1-14.3 34-6.2 5.9-12.4 9.2-21.1 9-3.7-.6-5.5-2.5-8-5.3-2.1-5.6-2.2-10.5-2.1-16.3q.1-2.7.1-5.4.1-4.2.2-8.4.1-4 .1-8.1.1-1.3.1-2.5c.1-4.6.1-4.6-2.2-8.3-3-1.4-4.9-1.5-8.2-1-4.4 2.3-6.9 4.5-9 9-.3 2.7-.4 5.1-.4 7.8q-.1 1.1-.1 2.3 0 3.6-.1 7.2c-.2 24.3-.2 24.3-5.1 29.6-6.8 4.3-13.9 5.3-21.7 3.6-5.7-1.8-10-3.9-13.2-9.1-1.7-4.2-1.8-7.7-1.8-12.3q0-1.3 0-2.6-.1-5.3-.1-10.7 0-4-.1-7.9 0-1.2 0-2.4c0-4.9-.7-8.3-3.4-12.5-2.9-2.3-2.9-2.3-6.3-1.9-4 1-6.5 2.4-9.7 4.9-1.1 2.3-1.1 3.6-1.1 6.1q0 1.3 0 2.6 0 1.3 0 2.7 0 2.9-.1 5.8 0 4.6 0 9.2 0 4.4 0 8.8 0 1.3 0 2.7c-.1 6.2-.1 6.2-2.1 8.8-3.7 3.1-6.7 4.7-11.6 4.6-9.3-1.2-17.3-6.9-23.3-13.9-8.3-10.9-13.1-22.5-11.8-36.4 3.1-20 16.2-37 32-49 30.1-19.9 73-23.3 105-6z" fill="#f88f00"/><path d="M445.2 487.6c5 4 9.4 8.8 10.1 15.2.2 12.9-3.3 21.9-12.3 31.2-2.4 2.1-4.9 4.1-7.5 6.1-2.4 1.8-4.7 3.7-7 5.7l-1.9 1.7c-2.6 2.4-3.6 4.2-4 7.7.5 5 2.4 7.9 5.4 11.8l1.4 1.8c7.2 8.2 19.1 13.4 29.8 14.4 15.2.8 28.7-1.2 40.4-11.6 3.6-3.8 5.7-8 7.8-12.7 2.6-5.3 5-10.2 10.6-12.9 3.4-.4 4.9.2 7.7 2.3 3.5 3.4 4.7 6.2 4.9 11.1-.7 11.6-7.8 20-15.9 27.8-15.8 13.5-38 20.3-58.7 18.8-17.4-2.3-33.2-9.8-44.8-23.1q-1.1-1.4-2.2-2.9-1.4 1.2-2.9 2.5-2 1.8-4.1 3.5-1.1.9-2.2 1.9c-15 12.7-33 19.9-52.8 18.3-20.2-2.2-37.8-12.5-51.1-27.7-6.1-8-7.7-16.6-6.9-26.5 1.5-4.2 2.3-5.5 6-8 7.1-.7 7.1-.7 10.1 1.5 2.4 3.2 3.5 6.5 4.7 10.2 3.8 10.7 9 17.9 19.2 23.3 13 6 28.6 5.5 42 1 8.3-3.5 17.4-9.2 22.3-17 1.5-4.2 1.4-8.3-.3-12.4-2.8-3.7-6.4-5.8-10.2-8.4-10.8-7.3-17.6-15.7-21.8-28.2-.8-7.9-1.1-14.7 4.1-21.1 18-17.6 59.2-18.6 80.1-5.3z" fill="#011f41"/><path d="M972.2 327.5c5.9 4.6 9.1 9.7 10.2 17.1.4 9.6-2.5 19.1-8.7 26.5-5.4 5.9-11.1 10.2-18 14.1-20.5 11.9-31.7 30.5-40.7 51.8q-1.3-.2-2.6-.5c-3.1-.5-6.1-.7-9.3-.9-16.4-.9-31.6-2.3-46.1-10.6.5-6.7 1.9-12.6 4.1-19q.4-1.4.9-2.8c7.4-21.2 18.9-39.6 34-56.2q1.1-1.2 2.2-2.5c8.8-9.4 19.9-15.2 31.8-19.5q1.2-.5 2.5-1c12.8-4.2 28.4-4.1 39.7 3.5z" fill="#f88f00"/><path d="M303.9 412.7c10.7 7.1 17.7 17.3 20.7 29.7 2 12.4-.2 23.8-6.9 34.3-7 9.5-16.4 15.3-27.7 18.3q-1.2.3-2.4.7c-12.7 1.5-24-.9-34.2-8.7-10.1-8.6-16.7-18.7-17.8-32.1-.6-11.8 2.2-21.4 9.4-30.9q1.1-1.5 2.2-3c14-16.3 38.6-18.7 56.7-8.3z" fill="#011f40"/><path d="M561.8 413.8c10.2 7.6 17.3 17.6 19.8 30.3 1.6 12.1-1.1 23.3-7.8 33.6-7.4 9.6-17.4 15.8-29.4 18-12.9 1.6-23.7-.9-34.1-8.7-9.9-8.5-16.5-19-17.6-32.2-.4-13.1 3.2-22.6 11.3-32.8.9-1.3.9-1.3 1.9-2.6 13.9-16 38.9-16.6 55.9-5.6z" fill="#012040"/><path d="M150 185c5 2.2 9.5 5 14 8l1.8 1.2c20.1 13.4 38.6 30.6 53.2 49.8q1.3 1.7 2.6 3.3c10.2 12.9 10.2 12.9 10.7 19.5-1.1 6.2-6.7 9.6-11.3 13.2-16.2 12.7-31.9 27.2-45.3 43-2.8 3.3-5.8 6.4-8.7 9.6-2.3 2.5-4.5 5-6.6 7.6-3.1 3.6-4.5 4.7-9.3 5.2-3.5 0-4.1-.4-7-2.8-2.7-3.4-3.1-4-3.2-8.5.8-6.9 5.6-11.2 10.1-16.1q1-1.2 2.1-2.4 3.4-3.8 6.9-7.6c.7-.8.7-.8 1.4-1.5 7.4-8.2 15.1-16.2 22.9-24q1.5-1.5 3-3.1c5.8-5.9 11.5-11.2 18.7-15.4-5.1-7.2-10.9-13.6-17-20q-1-1.1-2.1-2.2c-14-14.7-28.9-26.3-46.2-36.9-2.6-1.8-4.1-3.2-5.7-5.9-.5-4.8-.7-6.9 1.9-10.9 3.9-3.8 7.9-4.1 13.1-3.1zm536.8 4.3c5 3.8 5 3.8 5.7 6.8q0 1.1.1 2.3l.1 2.2c-1.3 4.4-5 6.4-8.7 8.6q-3.5 1.7-6.9 3.4C652.8 225.1 633.4 244 619 267c.9.6.9.6 1.7 1.3 4.5 3.4 8.6 6.9 12.6 11 1.7 1.7 3.5 3.3 5.3 4.8 8.1 7 15.7 14.7 22.7 22.9 2.2 2.5 4.5 5 6.8 7.5 12 13.3 12 13.3 11.9 20.5-1.6 3.6-2.7 4.8-6 7-3.9.6-6.4.9-9.9-1.1-4.8-4.1-8.9-8.9-13.2-13.6-8.7-9.6-17.9-19-27.9-27.3-7.6-6.4-15.1-12.9-22.3-19.6-1-.9-1-.9-2-1.9q-.9-.8-1.8-1.7-.8-.7-1.6-1.5c-2.2-2.3-2.3-3.6-2.7-6.9.1-5.7 3-9 6.4-13.4q.7-.9 1.4-1.8c6-7.6 12.1-15 18.7-22.1q2-2.3 3.9-4.7c1.7-2.1 3.3-3.7 5.4-5.5q1-.8 2.1-1.7c1.2-1.1 1.2-1.1 2.5-2.2q1.6-1.4 3.3-2.9c36.2-31.6 36.2-31.6 50.5-24.8z" fill="#021e41"/><path d="M856 424q1.4.6 2.9 1.2 2 .8 3.9 1.6.9.4 1.9.8c10.3 4.2 20 5.9 31.1 6.5q3.6.2 7.1.4a31.08 31.08 0 0 0 3.1.1c3.2.4 6 1.3 9 2.4q-.3 1-.5 2-1.2 4.5-2.4 9-.5 1.5-.9 3.1c-1.2 4.5-2.3 8.9-2.8 13.5-.4 3.4-.4 3.4-2.4 6.4-.4 2.2-.4 2.2-.4 4.7q-.1 1.3-.1 2.7c-.1 1.4-.1 1.4-.1 2.8q-.1 1.4-.1 2.8-.2 3.5-.3 7c-10.9 3.8-21.1 5.2-32.6 5.2-1.2.1-1.2.1-2.5.1-6.8-.1-13.3-1-19.9-2.3-.4-23.9.8-46.6 6-70z" fill="#d26600"/><path d="M864 609q.5 0 1 0l1 9c16 6.9 31 7.9 48 3q1.1-.5 2.1-1.1c1.9-.9 1.9-.9 5.9-.9q.1 8.7.1 17.3 0 3 .1 5.9c.2 31.5.2 31.5-3.2 41.8-19.5.8-37.1-2.7-54-13l-1 5q-.5 0-1 0 0-3.6-.1-7.1 0-1 0-2c0-2.9.1-5.6.6-8.5.7-4.7.6-9.3.6-14q0-1.6 0-3.1 0-4.8 0-9.7 0-3.3-.1-6.5 0-8.1 0-16.1z" fill="#f98f00"/><path d="M396.6 227.8q1.3 0 2.7 0 1.5 0 2.9 0h3q4.8 0 9.5.1 3.3 0 6.5 0 7.9 0 15.8.1-1.5 1-3 2c-.5 3-.5 3-.6 6.6q-.1 2-.2 4.1 0 1.1-.1 2.2c-.3 4.8-.9 9.5-1.5 14.3q-.7 5.3-1.2 10.6c-1.1 11-2.7 21.8-5.3 32.6q-.4 1.5-.8 3.1c-4.5 18.3-4.5 18.3-10.3 23.5-2.9 1.1-2.9 1.1-6 1-8-5.3-9.4-16.9-11.2-25.7q-.7-3.4-1.3-6.7-.2-1.1-.5-2.3c-2.3-12.4-4.1-24.9-5.4-37.5q-.2-1.2-.3-2.4c-.8-7.8-1.5-15.5-1.3-23.4 3-1.7 5.1-2.2 8.6-2.2z" fill="#d26600"/><path d="M914 562q1.5 8.8 2.9 17.6.5 3 1 6c1.9 11.1 3.6 22.1 4.1 33.4-17.4 6.8-34.2 8.4-52 2-2.9-1.4-2.9-1.4-5-3-.8-3.7-.8-3.7-1-7q-.5 0-1 0-.8-6.7-1.7-13.4-.2-2.3-.5-4.5c-1.2-9.4-2.2-18.7-2.8-28.1q1.1.2 2.2.5c15.3 2.8 31.5 0 46.5-3.1 2.5-.4 4.8-.5 7.3-.4z" fill="#d36600"/><path d="M365 231c-6.2 75.7-6.2 75.7-17 89-3 2-3 2-6.4 2-3.6-1-5.2-1.9-7.4-4.9-5-9-7.6-19.3-10.2-29.2q-.5-2-1-3.9-1.1-4-2.2-8.1-1.4-5.2-2.8-10.3-1.1-4-2.2-8-.7-2.9-1.5-5.7-.4-1.7-.9-3.5-.4-1.5-.8-3c-.6-2.4-.6-2.4-.6-4.4q-1-.5-2-1 6.9-1.4 13.8-2.9 2.4-.5 4.7-1c26.4-5.5 26.4-5.5 36.5-5.1z" fill="#d26600"/><path d="M472.5 232.6q1.6.2 3.2.5 1.7.2 3.4.5 1.7.3 3.4.6c10.6 1.7 21.1 4.1 31.5 6.8q-.7 1-1.4 2.1c-1.7 3.1-2.6 5.9-3.6 9.3-.5 1.8-.5 1.8-1.1 3.7q-.2 1-.5 2-1.2 4.2-2.4 8.4-.6 2.1-1.2 4.2-2.9 10.3-6 20.5-.4 1.5-.9 3.1c-5.7 18.9-5.7 18.9-11.9 23.5-3.4 1.4-5.3 1.9-9 1.2-5.9-4-7.4-10.3-9-17-2.5-12.5-3.5-25.2-4.7-37.9l-.2-2.1c-.9-9.7-1.3-19.3-1.1-29 4.1-.8 7.4-1 11.5-.4zM864 670q.7.4 1.5.8c17.8 9.1 33.8 11.6 53.5 13.2-.7 6.6-2 12.9-3.6 19.3q-.4 1.6-.8 3.2c-2.5 9.8-5.9 19.1-9.6 28.5-14.7 1.4-26.6-4.4-38-13q-1.4-1-2.9-2.1c-6.8-5-6.8-5-8-8.5-.1-4.6.7-8.8 1.7-13.3 1.6-7.8 2.9-15.5 3.7-23.4.5-2.7.5-2.7 2.5-4.7zm-28 87l1.6 2c2.9 3.6 6 7 9.2 10.4q.9 1 1.8 2c3.8 4 7.7 7.8 12 11.2 1.7 1.7 2 3.1 2.4 5.4q-1.4.9-2.9 1.9-.9.6-1.8 1.2-2.1 1.4-4.1 2.8-4.7 3.1-9.4 6.3C818.6 818 818.6 818 812 818q0 1 0 2h-36l4-11q.2-2.6.5-5.4c.4-2.5.4-2.5 1.5-4.6 2.8-1.8 5.5-2.7 8.6-3.8 18.8-6.6 34.9-21.6 45.4-38.2z" fill="#d36600"/><path d="M804 789q3.4 6.8 6.6 13.6.7 1.3 1.3 2.6.6 1.2 1.2 2.5.5 1.1 1.1 2.3c.8 2 .8 2 .8 5q1.5-.8 3-1.6 1.9-1 3.9-2l1.9-1c1.7-.9 3.5-1.6 5.2-2.4q1 .5 2 1-4.2 2.3-8.4 4.5-1.2.6-2.4 1.3-1.1.6-2.3 1.2-1 .6-2.1 1.2c-1.8.8-1.8.8-3.8.8q0 1 0 2h-36l4-11q.2-2.6.5-5.4c.4-2.4.4-2.4 1.5-4.6 3.8-2.4 7.8-3.6 12-5q2.9-1.4 5.8-2.8 1.2-.6 2.4-1.3.9-.4 1.8-.9z" fill="#f78f04"/></svg>