<svg xmlns="http://www.w3.org/2000/svg" width="1024" height="1024" xmlns:v="https://vecta.io/nano"><path d="M214.3 125.9q1.5 0 3.1 0 5.2 0 10.5 0 3.8 0 7.6 0 9.3-.1 18.6-.1 11.2 0 22.3 0 27 0 54 0 12.8 0 25.6 0 43.7 0 87.4 0 2.8 0 5.5 0 2.8 0 5.5 0 5.6 0 11.1 0h2.7q44.4 0 88.8-.1 46.9 0 93.8 0 5.2 0 10.3 0h2.6q20.4 0 40.8-.1 20.5 0 41 0 12.2 0 24.4 0 9.1 0 18.2 0 3.7 0 7.3 0c27.8-.1 52.1 4.5 73.6 23.4q1 .9 2.1 1.8c15.8 14.7 24.5 37.6 25.4 58.9v11.8q0 2.7 0 5.4 0 7.3 0 14.6 0 7.9 0 15.8.1 15.4 0 30.9 0 12.5 0 25.1 0 1.8 0 3.6 0 3.7 0 7.3.1 34.1 0 68.3 0 29.2 0 58.4.1 34 0 68 0 3.6 0 7.3 0 1.7 0 3.6 0 12.5 0 25 .1 15.4 0 30.7 0 7.7 0 15.5c.1 36.6-1.4 69.4-27.9 97.5-10.4 10-24.6 17.9-38.6 21.5l-2.2.6c-10.6 2.6-21.4 2.5-32.3 2.5q-2.3 0-4.6 0-5.1-.1-10.2-.1-8.2 0-16.4 0-10.4-.1-20.8-.1-20.5-.1-40.9-.1-3.2 0-6.5 0-6.5 0-13 0-16.7-.1-33.5-.1-1.7 0-3.4 0-27.2-.1-54.5-.2-27.9-.1-55.9-.1-17.3 0-34.5-.1-11.9-.1-23.7-.1-6.8 0-13.6 0-6.3-.1-12.5 0-2.3 0-4.5-.1c-9.5-.2-9.5-.2-17.7 4.2q-1.7 1.8-3.3 3.7-1.8 1.7-3.6 3.4c-2.3 2.4-4.4 4.7-6.5 7.2-4.2 4.9-8.8 9.4-13.3 13.9q-1.3 1.3-2.7 2.6-4.9 4.9-9.8 9.8-4.9 4.8-9.7 9.6-1.2 1.3-2.5 2.5c-3.6 3.6-7 7.1-10.3 10.9-4.2 4.9-8.9 9.5-13.6 14.1q-2.5 2.5-4.9 5-6.2 6.1-12.4 12.3-5.2 5.2-10.4 10.4-2.5 2.4-4.9 4.8c-4.8 4.8-9.4 9.6-13.8 14.7-2.7 3.1-5.7 6-8.6 8.9q-1 .9-1.9 1.9-4.1 4-8.1 8c-9.7 9.5-9.7 9.5-18.7 19.5-2.3 2.7-4.3 4.6-7.3 6.5-4.1.1-6.1-.3-9.4-2.8-2.9-4-2.7-7.8-2.7-12.6q0-1 0-2 0-3.2 0-6.5 0-2.3 0-4.6 0-5 0-10 0-7.9-.1-15.9 0-1.3 0-2.6 0-2.8 0-5.5 0-18.4-.1-36.8.1-12.5 0-24.9 0-6.6 0-13.1 0-6.2 0-12.4-.1-2.3 0-4.5 0-3.1-.1-6.2v-3.5c-.8-4.1-2.4-5.6-5.6-8.1-3-.5-5.4-.6-8.4-.6q-1.2 0-2.5 0-3.9 0-7.8 0c-16.1.1-32.4-.6-47.1-8-1-.5-1-.5-2.1-1.1-7.1-3.6-13.1-8.1-19.1-13.3q-1.2-1.1-2.5-2.1c-15.1-14.1-23.7-34.8-26.5-54.9q-.1-3.8-.1-7.6 0-1.2 0-2.3 0-3.8 0-7.6 0-2.7 0-5.5-.1-7.5-.1-15 0-8.2 0-16.3 0-17.7 0-35.5 0-11.1 0-22.2 0-30.7 0-61.4 0-2 0-4 0-2 0-4 0-4 0-8v-2q0-33.1-.1-66.2 0-32.9 0-65.9 0-18.5 0-37-.1-15.7-.1-31.5 0-8 0-16.1 0-7.3 0-14.7 0-2.6 0-5.3c-.1-23.8 6.5-44.7 22.4-62.9q.9-1 1.8-2.1c15.4-16.7 39.2-25.1 61.5-25z" fill="#26b7b9"/><path d="M331.1 224.6c15.7 8.2 30.7 17.8 44.9 28.4 1 .7 1 .7 2 1.5 8.1 6 16.1 12.1 24 18.5a83.68 83.68 0 0 0 3.1 2.4 66.17 66.17 0 0 1 3 2.5q1.4 1.1 2.8 2.2 1.1.9 2.1 1.9 0 1 0 2l1.8.8c2.2 1.2 3.5 2.4 5.2 4.2q.9-.3 1.8-.6 2.7-.8 5.4-1.6 2.6-.7 5.2-1.5C469.6 274 507.3 269.4 546 275q1.3.2 2.6.4c16.1 2.2 34 5.3 48.6 12.7 1.8 1.1 1.8 1.1 4.1 1 3.4-1.4 5.1-3.4 7.6-6 3.3-3.3 6.8-6 10.4-8.9 2.2-1.8 4.3-3.7 6.4-5.6 21.1-18.4 46.3-33.7 71.5-45.7q2.5-1.2 5-2.5c7.1-3.5 11.7-4.7 19.5-2.2 7.4 4 9.1 8.4 11.4 16.2 1.4 5.7 1.6 11.3 1.6 17.1q.1 1.9.1 3.8.1 5.8.2 11.7 0 1.8.1 3.7c.6 38.1-3.6 74.5-17.3 110.2-2.6 7.2-2 11.2 1.1 18q.6 1.3 1.2 2.6c7.3 16.3 13 34.5 12.9 52.5q-.8.1-1.7.2-8.8 1.3-17.5 2.6-3.3.4-6.6.9l-34.6 5.4q-1.3.2-2.7.4c-17.3 2.5-17.3 2.5-32.9 9.5-1.4 2.8-1.3 4.9-1 8 1.6 2.3 1.6 2.3 4 4 9 1 18.9-2 27.7-3.8 14-2.8 28-5.2 42.2-7.1l2.3-.4c7-.9 13.8-1.8 20.8-1.7-.2 8.8-1 17.1-2.9 25.7q-.3 1.1-.6 2.3c-.9 3.8-1.9 7.4-3.5 11-5.4-.5-10.7-1.3-16-2.4-18.4-3.4-37.6-4.8-56.3-4.9q-1.4 0-2.8 0c-5.7 0-5.7 0-10.9 2.3-1.4 2.8-1.3 4.9-1 8 3.1 3.8 5 4.9 10 5.4q2.6.2 5.2.4 2.8.3 5.7.5c1.5.1 1.5.1 3.1.3 43.4 3.5 43.4 3.5 55 7.4-1.5 5.7-4.3 10.2-7.4 15.1q-.8 1.2-1.6 2.5c-4.8 7.4-10.1 13.9-16 20.4q-1.7 2-3.4 4.1c-9 10.1-18.7 18.8-29.6 26.9q-1.3.9-2.6 1.9c-20.6 14.9-44 26.1-68.4 33.1q-1 .3-2.1.6c-8.8 2.5-17.8 4.3-26.8 6.1q-1.5.3-3.1.6-1.6.3-3.1.6-1.4.3-2.7.6c-7.8 1.2-15.5 1.7-23.4 1.7q-1.4 0-2.9 0c-38.2.2-38.2.2-55.9-3.2q-1.6-.3-3.3-.6c-38.3-6.8-75.4-20.5-105.7-45.4q-.9-.7-1.8-1.5c-19.3-16-36.2-34.5-48.6-56.5q-.5-1-1.1-2c-1.6-2.9-2.5-4.7-2.5-8q10.1-1 20.2-1.9 1.5-.2 3.1-.3c13.5-1.3 27-2.3 40.6-2.5q1.6 0 3.1 0 1.3 0 2.7 0c2.5-.3 4.1-1 6.3-2.3 2.1-2.7 2-4.1 1.9-7.6-.6-3.4-.6-3.4-2.8-5.1-4.5-1.9-8.7-1.8-13.6-1.7h-3.3c-21.7.3-43.7 2.6-65.2 5.4-3.2-11.3-6.1-22.2-6-34 17.6.7 35 2 52.4 4.5q1.2.2 2.3.3c6.7 1 13.3 2 19.9 3.3 3.7.8 7.1 1.2 10.8 1.2q1.5 0 3 .1c2.6-.2 2.6-.2 4.4-1.7 2-2.9 2.2-5.2 2.2-8.7-3.4-4.3-6.1-5.7-11.4-6.7q-2-.3-3.9-.7-2.2-.3-4.3-.7-2.2-.3-4.4-.7c-16.5-2.8-33.3-4.6-50-6.2l-3.6-.4q-8.7-.8-17.4-1.6c-.1-6.2.1-12.2 1.1-18.4q.2-1.1.4-2.3c2.5-13.4 6.7-26.3 12.2-38.7 2.5-5.7 4.1-9.8 2-15.7q-.9-2.3-1.8-4.6c-13-33.5-16.5-68.8-16.3-104.4q0-5.4-.1-10.8 0-4.3 0-8.6 0-2.9 0-5.9c0-9.3 1.5-17.6 6.3-25.7 11.3-9.9 23-3.1 34.3 2.7z" fill="#ea8f00"/><path d="M501.1 444.7l2.3-.1q2.4 0 4.8 0 3.7 0 7.3 0c12.6-.1 24 1.3 33.5 10.4 3.4 3.8 3.9 8.1 4.2 13.1-.5 7.4-4.8 13.1-10.2 17.9q-1.9 2-3.8 3.9c-3.8 3.8-7.7 7.3-12.2 10.1q-1 0-2 0c1.9 11.4 7 20.6 16.2 27.8 6.5 4.4 11.8 6.3 19.8 5.2 10.8-2.6 19.6-8.9 26-18q2-3.4 3.8-7c1.2-2.1 2.4-3.5 4.2-5 3.8-.6 5.5-.3 8.8 1.6 2.7 2.9 2.9 4.5 3.2 8.4-3.8 14-12.7 24.4-24.6 32.2-12.9 7.3-25.2 9.3-39.7 5.6-12.2-4.1-22.2-13.8-28.7-24.8q-1.1 1.3-2.3 2.6c-10.4 11.7-21.8 21.2-37.7 23.9-15.7.6-32.9-5.3-44.9-15.2-7-6.7-12.3-15.2-13.5-24.9.4-3.4.4-3.4 2.5-6.4 2.9-2 2.9-2 6.4-2.1 5.9 1.8 8.9 5.4 12.3 10.4 6.8 9.6 14.5 15.4 26.2 17.7 9.1.7 16.6.9 24-5q.9-.7 1.9-1.4c7-6.2 12-16.4 13.1-25.6q-1.6-.9-3.2-1.8c-10.3-6.5-19.7-14-24.1-25.6-1.1-5.5-1.4-10.3.2-15.7 6.6-9.2 15.2-12.2 26.2-12.2z" fill="#01384f"/><path d="M709 248c4.6 4.4 5.8 9.5 6.3 15.7q0 2.1 0 4.1 0 1.1 0 2.2 0 3.6 0 7.2 0 1.2 0 2.5c0 15.2-1.1 30.2-3.3 45.3q-.2 1.6-.5 3.2c-1.5 10.3-3.3 20.5-5.6 30.6q-.3 1-.5 2.1c-.8 3.2-1.6 5.3-3.4 8.1-3.1-1.3-4.7-2.6-6.6-5.3q-.7-.9-1.5-2-.7-1-1.5-2.1c-5.3-7.3-11.1-14-17.4-20.6q-1-1.1-2.1-2.3c-11.3-12-26.1-22.3-40.3-30.7q-1.3-1-2.6-2c0-4.5.7-5.3 3.8-8.3q.8-.8 1.6-1.6.9-.9 1.8-1.8c6.4-6.1 13.4-11.4 20.6-16.7q3.4-2.5 6.8-5c9.1-6.8 18.5-13 28.4-18.6q1.4-.8 2.9-1.7c8.2-4.4 8.2-4.4 13.1-2.3zm-391.5-2.4c5 .6 8.8 2.7 13.1 5.1q1.4.7 2.8 1.5c16.8 9.2 32.3 20.2 47.3 32q3.1 2.4 6.3 4.8 1.6 1.3 3.3 2.6a64 64 0 0 0 2.7 2.2c2.4 2.7 2.7 4.6 3 8.2q-.7.5-1.4.9-3.8 2.6-7.6 5.1-.9.6-1.8 1.2c-19.6 12.9-36 28-50.4 46.6q-1 1.4-2.1 2.8-.9 1.2-1.9 2.4c-1.8 2-3.3 3-5.8 4-4.4-9.9-7-19.9-9-30.6q-.2-1-.4-2-1.3-7.2-2.6-14.4l-.6-3.2c-2.3-13.7-2.7-27.4-2.8-41.4q0-1.3 0-2.6 0-3.7 0-7.4 0-1.1 0-2.3c.1-5.8 1.1-14.4 7.9-15.5z" fill="#c75e00"/><path d="M752.3 455.1c2.2 3.7 2.5 5.6 1.7 9.9-2 3.2-3.7 4.7-7.4 5.6-7.6 1.2-15.2 2.1-22.9 3-19.2 2.2-38.3 5.2-57.3 8.8-1.9.4-1.9.4-3.8.7q-3.4.7-6.9 1.4c-10.5 2-10.5 2-15.7 1.5-3.4-2.4-4.8-3.9-5.6-8 .6-3.1 1.3-4.8 3.7-6.9 4.6-2.7 9.8-3.9 14.9-5.1q1.1-.3 2.2-.5c20.4-4.8 41.2-7.2 61.9-10q1.4-.2 2.9-.4c26.6-3.6 26.6-3.6 32.3 0z" fill="#02384f"/><path d="M362.5 464.1l2.2.4c18.9 3.3 18.9 3.3 22.8 6.7 2 3.8 1.7 5.7.5 9.8-1.9 2.4-3.2 3.8-6.2 4.5-9.1-.1-17.8-1.8-26.7-3.4-13.5-2.4-26.8-4-40.4-4.8q-1.5-.1-3-.2-7.7-.5-15.4-.8-2.9-.2-5.8-.4c-1.3 0-1.3 0-2.7-.1-5.1-.3-8.1-.9-11.8-4.8-1.4-2.9-1.3-4.8-1-8 11.3-16.9 69.4-2 87.5 1.1z" fill="#02374f"/><path d="M725.6 510.1q1.1.1 2.1.3c12.7 2.3 12.7 2.3 18.3 5.6 2.3 3.5 2.5 4.9 2 9-1.8 2.7-3.1 4.5-6 6-5.8.2-11.1-.4-16.8-1.4q-2.6-.4-5.3-.9c-1.3-.2-1.3-.2-2.7-.5-19.3-3.3-38.4-5.5-57.9-6.8q-1.4-.1-2.8-.2-2.5-.2-5.1-.3c-5.1-.4-8.3-1.5-12.4-4.9-1.4-2.8-1.3-4.9-1-8 12.8-15.8 69.3-1.3 87.6 2.1z" fill="#03384f"/><path d="M367.5 502.6q1.5-.1 3.1-.1c4.9.1 8.5.2 12.4 3.5 2 3 2 3 1.9 6.4-1 3.9-1.8 5.2-4.9 7.6-2.4 1.2-4 1.1-6.8 1.2-15.5.3-30.9 1.3-46.3 2.7q-1.5.2-2.9.3-4.2.4-8.4.8-1.2.1-2.5.2c-5 .5-9.9 1.3-14.8 2.4-3.6.6-7.1.8-10.7.8q-1.1 0-2.1 0c-3.2.1-5 0-7.4-2.2-1.6-3.3-2.1-6.7-1.1-10.2 3.4-4.7 6.6-5.8 12-6.7q1.5-.2 3-.4 1.6-.2 3.2-.4c23.9-3.3 48.2-5.8 72.3-5.9z" fill="#02384e"/><path d="M439.5 409.5c7.7 5.7 15.4 13.3 18.5 22.5.5 3.5.2 5.5-1 8.8-2.4 2.7-4.4 3.2-8 3.4-3.6-.4-5.7-2.5-8-5.2q-1.7-2.5-3.4-5c-3.9-5.7-7.5-8.8-13.8-11.3-10-1.8-17.2-.8-25.8 4.6-4.2 2.9-7.5 6.3-11 10.1-5.2 5.3-5.2 5.3-9.4 5.4-3.6-.8-3.6-.8-6.6-2.8-1.2-3-1.3-5.8-1-9 1.5-3.4 3.6-6.1 6-9q.8-.9 1.5-1.9c14.9-16.4 42.7-22.1 62-10.6z" fill="#023850"/><path d="M610.4 404.6h2.8c14.7.3 23.8 6.8 33.8 17.2 3.9 4.3 6.2 8 6.5 13.9-.2 2.9-.3 4-1.9 6.4-4 1.4-7.5 1.8-11.6.9-3-2.2-5.3-4.9-7.6-7.8-7.4-8.9-7.4-8.9-18-12.7-12.5.1-19.7 2.7-28.4 11.5q-2.8 3.1-5.6 6.4c-2.2 2.5-3.4 2.6-6.8 3-3.6-.4-3.6-.4-6-2.5-2.1-3.8-2.3-5.6-1.6-9.9 6.1-12.1 16.7-20 29.2-24.7 5.1-1.6 9.9-1.8 15.2-1.7z" fill="#033751"/></svg>