<svg xmlns="http://www.w3.org/2000/svg" width="1024" height="1024" fill-rule="evenodd" xmlns:v="https://vecta.io/nano"><path d="M567.5 940.5q-1.7-1-4-1-45 5.1-90 1-3.8 0-7 1-220.3-28.4-333.5-218-90.4-165.9-36-347Q172.6 157.9 394.5 93q173.7-43.1 332 40Q891 228.1 936 413.5q42.4 213.9-96 381-109.3 122.3-272.5 146z" fill="#002971"/><path d="M488.5 111.5q193.2-6.5 325.5 133 128.7 152.1 91 349Q862.3 772.8 702.5 863q-152.2 78.9-316 28Q223.2 835.7 148 680.5q-77.2-173.3 1-346Q232.3 169.7 411.5 123q38.3-8.7 77-11.5z" fill="#0382db"/><path d="m488.5 158.5q168.4-5.6 284.5 115 124.1 144.7 79 331-36.2 120.2-137.5 193.5-142.3 94.5-307 48-182.4-61.9-237.5-246.5-42.1-183.4 79-326 97.4-103.6 239.5-115z" fill="#002971"/><path d="M529.5 191.5q-27-.3-54 1 29.2-4.5 59-1.5-2.5.7-5 .5z" fill="#010c59"/><path d="M529.5 191.5q27.9 2.2 55 9-24.5-4-50-6.5-33.5-.8-67 .5 4-1 8-2 27-1.3 54-1z" fill="#edf0ef"/><path d="M584.5 200.5Q743.7 240 809 390.5q12.3 30.6 17.5 63 2.3 26.5 4 53-1.6 15.2 0 30-.8 7.5-1 15-30.1 180.8-198 254.5-27.2 10.8-56 16.5-14.4.1-29 3.5-20.2 1.6-40.5 2.5-28.9-2.1-58.5-6-146.2-31.5-218-162-6.3-17.4-14.5-33-7-18.7-12.5-38-.4-1.8-2-2-4-15.8-6-32-1-21.5-2-43 1.2-22.5 2-45 0-1.5 0-3 .9.2 1.5 1 2.1-18.4 7-37 3.3-2.8 1.5-6.5 3.5-7.3 4-15.5 29.7-88.1 102-146.5 69.3-54.1 157-65.5 33.5-1.3 67-.5 25.5 2.5 50 6.5z" fill="#fefeea"/><path d="M517.5 224.5q7.3 4.5 9.5 13 .6 21.3.5 42-3 6-9 9-15.1 4.2-23-9-.2-21.7.5-44 1.7-6.4 7.5-9-.2-.9-1-1 0-1 1-1 7.2-1.9 14 0z" fill="#002971"/><path d="M502.5 225.5q.8.1 1 1-5.8 2.6-7.5 9-.7 22.3-.5 44-1.7-22.4-.5-45 1.7-6.3 7.5-9z" fill="#010b53"/><path d="M517.5 224.5q8 2.8 10.5 11 1.2 22-.5 44 .1-20.7-.5-42-2.2-8.5-9.5-13z" fill="#00074e"/><path d="M503.5 224.5q-1 0-1 1-5.8 2.7-7.5 9-1.2 22.6.5 45 7.9 13.2 23 9-18.6 7.9-25.5-12-1-20.5 0-41 1.9-4.4 3-9 .5.5 1 1 2.1-2.6 5-4 1.1.1 1.5 1z" fill="#e9ede9"/><path d="M701.5 309.5q12.9 1.8 17.5 14 4 12.5-4 23-7.2 8.7-15.5 16.5-68.7 63.7-135.5 129.5 8.7 39.5-23.5 63.5-45.3 23.4-76.5-16.5-11.9-20.3-6.5-43-58.8-44.1-115.5-91-10.6-17.5 4.5-31.5 13.5-9 27 0 12 10.5 25 19.5 31.7 24.1 63 49 10.6 8.6 22 16 26.9-14 54 0 38.7-37 77-74.5.9-.7 2-.5 36.1-33.9 71-69.5 6.9-3.1 14-4.5z" fill="#012970"/><path d="m701.5 309.5q-7.1 1.4-14 4.5-34.9 35.6-71 69.5 34.7-35.4 70-70.5 6.9-4.3 15-3.5z" fill="#02115a"/><path d="m398.5 393.5q2.9 1 5.5 0 0 3.2 3.5 5.5 25.7 19.8 53 40.5 1.3 1.2 1 3-31.3-24.9-63-49z" fill="#eef1f0"/><path d="M208.5 406.5q-.5 8.2-4 15.5 1.8 3.7-1.5 6.5-4.9 18.6-7 37-.6-.8-1.5-1 3.3-30.1 14-58z" fill="#ebefed"/><path d="M826.5 453.5q3.8 17.3 5 35 .4 24-1 48-1.6-14.8 0-30-1.7-26.5-4-53z" fill="#f1f3f1"/><path d="M753.5 492.5q18.5-.3 37 .5 8.2 2.5 11 10.5-4.4-6.6-12-9.5-18.3-.3-36-1.5z" fill="#000845"/><path d="M278.5 522.5q-3.7 2.1-8 3.5-20.1 1.4-40-1-3.7-2.2-6.5-5.5-.6.3-.5 1-2.9-2.2-3.5-6-2.6-13.1 8.5-20.5 21.9-2.4 44-1 16 7.5 10.5 24.5-1.5 3.2-4.5 5z" fill="#00296f"/><path d="M753.5 492.5q17.7 1.2 36 1.5 7.6 2.9 12 9.5 1.7 6.2.5 13-1.9 5.2-6.5 8-.1-.8-1-1-3.3 1.9-7 2.5-17.5 1-35 0-5.6-1.4-9.5-5.5-.6.3-.5 1-2.6-2.4-3.5-6-4.1-18.9 14.5-23z" fill="#002971"/><path d="M194.5 467.5q-.8 22.5-2 45 1 21.5 2 43-3.5-22.6-3-46 .3-11.5.5-23 .4-9.8 2.5-19z" fill="#f1f4f3"/><path d="M829.5 551.5q.2-7.5 1-15 1.4-24 1-48 1.9 6.1 2 20.5-.5 22.9-3.5 45.5-.7-1.4-.5-3z" fill="#03125b"/><path d="M278.5 522.5q-2.4 3.7-7 4.5-19.5 1-39 0-6-1.3-9-6.5-.1-.7.5-1 2.8 3.3 6.5 5.5 19.9 2.4 40 1 4.3-1.4 8-3.5z" fill="#010a4e"/><path d="M795.5 524.5q-2.8 1.6-6 2.5-19.5 1-39 0-4.9-1.7-8-5.5-.1-.7.5-1 3.9 4.1 9.5 5.5 17.5 1 35 0 3.7-.6 7-2.5.9.2 1 1z" fill="#00094c"/><path d="M200.5 587.5q1.6.2 2 2 5.5 19.3 12.5 38 8.2 15.6 14.5 33-19.5-34.4-29-73z" fill="#eff2ef"/><path d="M504.5 731.5q17-3.6 23.5 12 1 21 0 42-4.4 12.1-17.5 12-11.1-.9-15.5-11-1-22 0-44 2.4-7.6 9.5-11z" fill="#01286f"/><path d="M575.5 822.5q-23.9 5.2-48 7-24 .3-48-1-16.1-2.3-32-6 29.6 3.9 58.5 6 20.3-.9 40.5-2.5 14.6-3.4 29-3.5z" fill="#f1f3f1"/><path d="M479.5 828.5q24 1.3 48 1-12.5 1.8-43 .5-2.8-.3-5-1.5z" fill="#000955"/><path d="m567.5 940.5q-50.4 5.3-101 1 3.2-1 7-1 45 4.1 90-1 2.3 0 4 1z" fill="#0e155b"/></svg>