<svg xmlns="http://www.w3.org/2000/svg" width="1024" height="1024" fill-rule="evenodd" xmlns:v="https://vecta.io/nano"><path d="M636.5 134.5q-.7-.1-1 .5 17 5.7 33.5 12.5 1.1-.1 1.5-1 179.9 82.1 228.5 274 3.4 14.4 5.5 29-1 1.4-1 3.5 4.5 36.8 5 73.5Q894 740 713.5 852q-14.5 7.8-29 15.5-1.1-1.6-3-.5-13.3 6.4-27 12-18.9 6.7-36 12.5-11.2 3.7-23 6-.9-1-2.5-1-17.8 2.9-33.5 6-6.2 1.6-13 2-33.5-2-67 0-202.8-22.3-310.5-194-10.7-19.9-20.5-40 1.6-1.1.5-3-8.9-21.2-16-43-.6.3-.5 1-11-34.6-15-71 .6-13.2.5-27 .5.5 1 1 .5-1.5 1-3 1 1.8 1.5 0-1.7-1.4 0-2.5-1.5-.5-3-1 2.1-.6 3-2.5-1.5-.1-3.5-1-.5 2.5-1 5-.3-20.8-1.5-41Q135 270.6 317.5 164q30.5-16.2 63-27.5 3.1.5 6.5 1 .7-1.8 2.5-2.5 16.3-5.1 33-9-.9-.7-2-.5 109.2-24.9 216 9z" fill="#f86132"/><path d="M420.5 125.5q1.1-.2 2 .5-16.7 3.9-33 9-1.8.7-2.5 2.5-3.4-.5-6.5-1 19.6-6.9 40-11z" fill="#f84419"/><path d="M636.5 134.5q17.3 5.1 34 12-.4.9-1.5 1-16.5-6.8-33.5-12.5.3-.6 1-.5z" fill="#f73f13"/><path d="M433.5 198.5q49.7-4 62.5 44 3 49-44.5 60.5-47.5 3.6-59.5-42.5-4.1-38.6 29.5-57.5 6.1-2.4 12-4.5zm245 65q50.2-2.6 61.5 46 1.1 49.4-47.5 58.5-32.5 2.4-50.5-24.5-16.5-31.3 4-60 13.2-15.2 32.5-20zm-414 114q47.3-1.7 58.5 44 2.6 47.1-42.5 60.5-46.5 5-60.5-39.5-5.8-51.9 44.5-65zm237 53q50.6-4.8 63.5 44 2.2 49.9-46.5 60.5-44.5 1.4-56.5-41.5-5.3-47.5 39.5-63z" fill="#fecf00"/><path d="M904.5 449.5q5.4 38.3 4 77-.5-36.7-5-73.5 0-2.1 1-3.5z" fill="#f84016"/><path d="m750.5 508.5q44.2-1 57.5 41 6 51.3-43.5 64.5-38.1 3.3-55.5-30.5-14.5-43.5 23.5-68.5 8.9-4 18-6.5z" fill="#fecf00"/><path d="M115.5 482.5q1.2 20.2 1.5 41 .5-2.5 1-5 2 .9 3.5 1-.9 1.9-3 2.5 1.5.5 3 1-1.7 1.1 0 2.5-.5 1.8-1.5 0-.5 1.5-1 3-.5-.5-1-1 .1 13.8-.5 27-4-35.9-2-72z" fill="#fa5a2f"/><path d="m321.5 617.5q24.8-2.3 44 13 27.4 28.5 11.5 65-20.8 32.9-59.5 26.5-8.2-2.9-16-6.5-28.2-21.6-23-57 10.3-32.3 43-41z" fill="#fecf00"/><path d="m365.5 630.5q-19.2-15.3-44-13 18.7-4.2 37 6.5 4.3 2.6 7 6.5z" fill="#f6413e"/><path d="M148.5 670.5q-9.3-22-16-45-.1-.7.5-1 7.1 21.8 16 43 1.1 1.9-.5 3z" fill="#f74114"/><path d="M278.5 658.5q-5.2 35.4 23 57-16.1-9.2-22.5-27-1.7 2.2-2.5-.5 1.5-.6 2-2.5-.3-2.2-1.5-4-.5 1-1 2-1.5-.5-3-1-.9-4.6 1-1 .5-1.2 1.5-2 1.2-9 1.5-18 .1-3 1.5-3z" fill="#f74f3a"/><path d="M615.5 701.5q-21.4-22.3-52-17 28.9-7.6 51.5 15 .7.9.5 2z" fill="#f6433e"/><path d="m615.5 701.5q21.3 29.5 4.5 62-19.3 28.2-53.5 24.5-23.6-4.8-37-24.5-10.7-20.5-5-43 10.9-27.4 39-36 30.6-5.3 52 17z" fill="#fecf00"/><path d="M524.5 720.5q-5.7 22.5 5 43-6.1-7.3-7.5-17-1-10.5 0-21 .7-3.9 2.5-5z" fill="#f7403e"/><path d="M684.5 867.5q-31.8 15.3-66 24 17.1-5.8 36-12.5 13.7-5.6 27-12 1.9-1.1 3 .5z" fill="#f74015"/><path d="m595.5 897.5q-17.9 3.5-36 5 15.7-3.1 33.5-6 1.6 0 2.5 1z" fill="#f73407"/><path d="m479.5 904.5q33.5-2 67 0-33.5 1.9-67 0z" fill="#f74317"/></svg>