<svg xmlns="http://www.w3.org/2000/svg" width="1024" height="1024" xmlns:v="https://vecta.io/nano"><path d="M628 191q1.2.1 2.4.2c81.1 8.3 173.9 24.1 246.6 80.8q.8.7 1.6 1.3c14.4 12.1 25.7 28 29.4 46.7.4 4.9.4 9.9.4 14.8q0 2.2 0 4.4 0 5.9 0 11.8 0 6.2 0 12.4 0 10.4 0 20.8 0 12 0 24 0 10.3 0 20.7 0 6.1 0 12.3 0 5.8 0 11.6 0 2.1 0 4.2c0 12-1.4 23.4-7.1 34.1q-.5 1-1 2.1c-8.6 16.1-21.1 28.9-35.7 39.6q-2.1 1.6-4.3 3.3c-7.8 6-16.4 10.8-25 15.6q-3 1.7-6 3.4C774 585.9 692.4 607.1 629 605c.6-1.8.6-1.8 1.3-3.7q.4-1.2.8-2.5.9-2.7 1.9-5.3c4.3-11.3 3.6-22.9 3.5-34.8q0-3.6 0-7.1.1-7.4 0-14.8 0-9.5 0-18.9.1-7.3 0-14.7 0-3.4 0-6.9c.1-13-.4-24.8-4.5-37.3 3.1-1.5 6.4-1.5 9.8-1.8q2.4-.3 4.9-.5 1.3-.1 2.6-.3c69.1-6.6 136.9-21.4 198.9-53.5 1.8-.9 1.8-.9 4.8-1.9-48-50-138-64.9-203.9-74.5q-3.2-.5-6.3-1c-15.7-2.4-31.5-4.2-47.3-5.7q-1.3-.1-2.6-.2c-26.7-2.6-53.3-2.9-80-2.9H510c-31.2-.1-62 .8-93 4.3q-1.5.2-3 .3c-14.6 1.7-29.2 3.7-43.7 6q-1.5.2-2.9.5C304.6 337.9 217.2 353 171 401q1.1.4 2.2.8c2.8 1.2 5.5 2.5 8.2 3.9C247.5 438.5 320 451.6 393 458q-.4 1.2-.8 2.4-.6 1.6-1.1 3.2-.6 1.6-1.1 3.2c-2 6.4-2.2 12.5-2.2 19.2q0 1.5 0 3 0 4.9 0 9.8 0 1.6-.1 3.4 0 8.9 0 17.8 0 9.2-.1 18.3 0 7.1 0 14.2 0 3.4-.1 6.7c-.1 16.5 1 30.8 8.5 45.8-10.3.4-20.2-.8-30.4-2.1q-1.3-.1-2.6-.3c-56.4-7.2-114.5-20-165.1-46.6q-2.9-1.5-5.7-2.9c-27.8-14.3-54.9-34.8-69.4-63q-.5-.9-1-1.9c-5.4-10.6-6.2-21.5-6.2-33.3q0-2.2 0-4.4-.1-6-.1-11.9 0-5 0-10 0-11.8 0-23.6 0-12.1-.1-24.3 0-10.4 0-20.9 0-6.2 0-12.4-.1-5.9 0-11.7 0-2.2 0-4.3c-.2-19.8 7.6-35.8 20.6-50.4q.9-1 1.8-2c11.5-12.4 26.6-21.7 41.2-30l2.4-1.4c71.9-40.3 161-53.8 446.6-56.6z" fill="#fc5c20"/><path fill-rule="evenodd" d="M632 459q.5 1.3 1.1 2.6c4.7 12.6 4.6 24.7 4.6 38q0 3.6 0 7.1 0 7.4 0 14.8-.1 9.4 0 18.8 0 7.3 0 14.6 0 3.4 0 6.9c.1 23.5-4.4 41.4-20.9 58.8-4.8 4.7-10 8.1-15.8 11.4q-.9.6-1.9 1.2c-14.1 8.1-31.4 7.3-47.2 7.1q-3.2-.1-6.4-.1-7.7-.1-15.5-.2v25l10 2c13 4.2 23.2 11.7 33 21q.9.8 1.9 1.7c13.5 12.3 21.6 32.2 22.5 50.2.7 25.7-5.7 48.1-23.4 67.1-17 16.9-38.8 25.9-62.7 26.4-23.4-.1-44.7-10.2-61.3-26.3-15.9-16.1-23.4-37.5-23.6-59.8.4-24 9.6-45 26.7-61.9 11.3-10.7 25.4-18.2 40.9-20.4v-25l-9.1.1q-4.5 0-8.9.1-3.1 0-6.1 0c-24.7.3-45.2-3.8-63.7-21.5-17.5-18.3-19.7-38.2-19.6-62.3q0-3.4 0-6.9 0-7.1 0-14.3 0-9.1 0-18.2 0-7.1 0-14.1 0-3.4 0-6.8c0-13.2.3-24.7 5.4-37.1-1.8-.2-1.8-.2-3.5-.3q-3.3-.4-6.6-.7.1 0 .1 0 3.1.3 6.3.4c3.7 0 4.3 0 7.1-2.7 2.6-6 5.2-11.1 9.7-15.8 19.5-19 41.5-21.5 67.4-21.4q5.1 0 10.2 0 8.5 0 17.1.1 9.9 0 19.7 0 10.7 0 21.4.1 3.1 0 6.1 0 4.9 0 9.7 0 1.8 0 3.6 0 4.8 0 9.6.1c18 1.1 35.7 7.4 48.1 20.9 1 1.2 1 1.2 2 2.3 3.7 4.3 6.9 8.5 9.4 13.6l1.6 3.4q6.1-.3 12.3-.8-5.7.4-11.3.8zm-268.3-2.8l2.3.2q6.2.8 12.4 1.3 1.8.2 3.5.3c-29.6-3-60.3-6.8-90.5-12.9 24.3 4.9 48.7 8.4 72.3 11.1zm-72.3-11.1c-42.6-8.6-84.2-21.9-120.4-44.1 35.9 22 77.9 35.4 120.4 44.1zm351.9 13.1c72.8-5.4 145.3-22.4 209.7-57.2-64.6 34.9-136.9 51.5-209.7 57.2z" fill="#fece00"/><path d="M906 340q.5 0 1 0 .3 25.1.5 50.2.2 11.6.3 23.3.1 10.1.2 20.3.1 5.4.1 10.8.1 6 .1 12 .1 1.7.1 3.5c.1 10.9-1.8 21.3-7 31q-.5 1-1 2.1c-8.6 16.1-21.1 28.9-35.7 39.6q-2.1 1.6-4.3 3.3c-7.8 6-16.4 10.8-25 15.6q-3 1.7-6 3.4C774 585.9 692.4 607.1 629 605q.6-1.8 1.3-3.7.4-1.2.8-2.5.9-2.7 1.9-5.3c4.3-11.3 3.6-22.9 3.5-34.8q0-3.6 0-7.1.1-7.4 0-14.8 0-9.5 0-18.9.1-7.3 0-14.7 0-3.4 0-6.9c.1-13-.4-24.8-4.5-37.3 3.1-1.5 6.4-1.5 9.8-1.8q2.4-.3 4.9-.5 1.3-.1 2.6-.3c69.1-6.6 136.9-21.4 198.9-53.5 1.8-.9 1.8-.9 4.8-1.9q0-1 0-2 1.4-.5 2.8-1.1c22-9.5 39.4-28.8 48.2-50.9.8-2.3 1.4-4.6 2-7zm-789 2c1.9 2.8 2.8 5.2 4 8.3 2.7 6.6 6.5 12 10.8 17.7 1.7 2.3 3 4.4 4.2 7q1 0 2 0 0 1 0 2 .8.4 1.7.7c2.8 1.6 4.8 3.6 7.2 5.9 4.7 4.4 9.6 7.9 15.2 11.3 2.8 1.7 5.3 3.4 7.8 5.7 3.3 2.5 5.8 3.5 9.7 4.6 4.1 1.4 7.8 3.4 11.7 5.3C253.7 440.9 324.4 452 393 458l-.8 2.4q-.6 1.6-1.1 3.2-.6 1.6-1.1 3.2c-2 6.4-2.2 12.5-2.2 19.2q0 1.5 0 3 0 4.9 0 9.8 0 1.6-.1 3.4 0 8.9 0 17.8 0 9.2-.1 18.3 0 7.1 0 14.2 0 3.4-.1 6.7c-.1 16.5 1 30.8 8.5 45.8-10.3.4-20.2-.8-30.4-2.1q-1.3-.1-2.6-.3c-56.4-7.2-114.5-20-165.1-46.6q-2.9-1.5-5.7-2.9c-27.8-14.3-54.9-34.8-69.4-63-.5-.9-.5-.9-1-1.9-5.1-10-6.2-20.2-6-31.3q0-1.9 0-3.8 0-5.1.1-10.2.1-5.3.1-10.6.1-10.1.2-20.2.2-11.5.3-22.9.2-23.6.5-47.2z" fill="#fe731e"/><path d="M494 640h36v25l10 2c13 4.2 23.2 11.7 33 21q.9.8 1.9 1.7c13.5 12.3 21.6 32.2 22.5 50.2.7 25.7-5.7 48.1-23.4 67.1-17 16.9-38.8 25.9-62.7 26.4-23.4-.1-44.7-10.2-61.3-26.3-15.9-16.1-23.4-37.5-23.6-59.8.4-24 9.6-45 26.7-61.9 11.3-10.7 25.4-18.2 40.9-20.4v-25z" fill="#fecd00"/><path d="M463.9 460.5q1.7 0 3.5 0 5.6-.1 11.3 0 3.9 0 7.8 0 8.3-.1 16.5 0 9.6 0 19.1 0 9.1-.1 18.3 0 3.9 0 7.8 0 5.5-.1 10.9 0 1.6 0 3.2 0c9.8.1 17.7 2.8 24.9 9.6 6.5 7 7.9 13 8 22.5q0 1.2 0 2.6 0 4.2 0 8.5 0 1.5.1 3 0 7.7 0 15.5 0 8 .1 16 0 6.1 0 12.3 0 3 .1 5.9c.1 21.6.1 21.6-6.7 30.9-8.7 8.5-17.5 10-29.3 10q-1.7 0-3.4 0-5.6 0-11.2 0-4 0-7.9.1-8.2 0-16.4 0-9.4 0-18.9 0-9.1.1-18.3.1-3.8 0-7.7 0-5.4 0-10.8 0-1.6 0-3.2 0c-9.8-.1-17.8-2.7-25-9.5-6.7-7.8-7.4-15.6-7-25.6q0-1.8.1-3.6 0-4.4.2-8.8 1.2 0 2.5 0 11.6-.1 23.2-.2 6 0 11.9-.1 5.8 0 11.6-.1 2.1 0 4.3 0c13.5 0 13.5 0 25.1-6 4.8-5.4 5.9-10.8 5.8-17.7-.8-6.1-3.7-10.4-8.3-14.3-5.6-2.8-10.7-3.8-17-3.9q-.9 0-1.9 0-3.2-.1-6.3-.1-2.2 0-4.4-.1-5.8 0-11.6-.1-5.9-.1-11.8-.1-11.5-.2-23.1-.3-.2-6.2-.2-12.5l-.2-3.6c0-8.4 1.1-13.4 6.2-20.3.9-.9.9-.9 1.8-1.9q.9-.9 1.8-1.8c7.6-5.5 15.4-6.5 24.5-6.4z" fill="#fe6d1d"/><path d="M641.1 457.9q1.9.1 3.9.1 1.5 0 3 0 0 .5 0 1h-8q.4.9.8 1.7c6.1 14.5 6.7 27.9 6.6 43.4q0 3.3 0 6.5.1 6.7 0 13.4 0 8.5.1 17 0 6.7 0 13.3 0 3.1 0 6.3c.1 15.2-1.2 28.3-7.5 42.4l2.5-.4c6.9-1.2 13.5-1.9 20.5-1.6q0 .5 0 1-5.7.8-11.4 1.5-1.6.2-3.2.4c-6.5.9-12.8 1.3-19.4 1.1q.6-1.8 1.2-3.7.5-1.2.9-2.5.9-2.7 1.9-5.3c4.3-11.3 3.6-22.9 3.5-34.8q0-3.6 0-7.1.1-7.4 0-14.8 0-9.5 0-18.9.1-7.3 0-14.7 0-3.4 0-6.9c.1-13-.4-24.8-4.5-37.3 3-1.5 5.8-1.1 9.1-1.1z" fill="#f55518"/><path d="M277.4 501.6q1.2.3 2.4.5 2.4.6 4.9 1.1 3.7.8 7.4 1.6 2.3.5 4.7 1.1 1.1.2 2.2.4c5.3 1.2 10.2 3 13.4 7.7 1.1 3.7 1.2 7.2.6 11-2.1 3.6-4.1 5.5-8 7-8.4.3-17-2.1-25.1-3.8q-3.2-.7-6.4-1.4-2.1-.5-4.2-.9l-3.7-.8c-5.2-1.6-9.4-3.4-12.6-7.9-1.3-4-1.4-7.1 0-11.2 6.6-8.2 15.2-6.5 24.4-4.4z" fill="#f55819"/><path d="M494 640h35v13h-34l1 9h22q0 .5 0 1-5.4.5-10.9 1-1.5.1-3.1.3-1.5.1-3 .3l-2.8.2-4.2.2v-25z" fill="#feac00"/><path d="M529 640q.5 0 1 0v25l-19-1q0-.5 0-1h-15c-1-3-1-3-1-10h34v-13z" fill="#febe02"/></svg>