<svg xmlns="http://www.w3.org/2000/svg" width="1024" height="1024" xmlns:v="https://vecta.io/nano"><path d="M818.6 152.8q2.5 2.3 5 4.5c5.2 4.6 9.9 9.3 14.4 14.7q1.1 1.2 2.2 2.4c34.6 39.8 54.3 92.9 54.2 145.5v2.6c-.1 14.2-1.1 27.7-4.4 41.5l-.6 2.7c-8.8 36.2-28.5 69.7-58.4 92.3q-1.2 1-2.5 2c-22.1 16.7-47.5 25.1-73.5 33.7-45.5 15-85.3 35.8-108.4 79.7-13.8 27.4-15.4 56.9-16 87-1.2 61.6-19.5 118.3-63.1 163q-1.9 2.1-3.9 4.2c-39.3 41-99.5 61.5-155.2 62.8-77.1 1.2-152.2-32-207.4-85.4-9.9-9.6-19.6-19.1-28-30q-1.6-2-3.2-4c-42.2-52.7-65.6-116.3-73.8-183q-.2-1.4-.4-2.9C92 554.7 92.8 522.3 97 491q.2-1.7.4-3.4C101 459 107.8 431.4 117 404q.5-1.6 1.1-3.3C137.3 344 167.7 291.8 206 246q.7-.8 1.3-1.6c14.4-17.1 29.6-34 46.7-48.4q1.7-1.5 3.4-3c7.4-6.5 14.8-12.7 22.7-18.6q2-1.5 4-3c70.3-53 153.2-88.7 240.9-98.4q1.3-.2 2.7-.3c94.6-10.6 198.6 7.9 290.9 80.1z" fill="#f29816"/><path d="M818.6 152.8q2.5 2.3 5 4.5c5.2 4.6 9.9 9.3 14.4 14.7q1.1 1.2 2.2 2.4c34.6 39.8 54.3 92.9 54.2 145.5v2.6c-.1 14.2-1.1 27.7-4.4 41.5l-.6 2.7c-8.8 36.2-28.5 69.7-58.4 92.3q-1.2 1-2.5 2c-22.1 16.7-47.5 25.1-73.5 33.7-45.5 15-85.3 35.8-108.4 79.7-13.8 27.4-15.4 56.9-16 87-1.2 61.6-19.5 118.3-63.1 163q-1.9 2.1-3.9 4.2c-39.3 41-99.5 61.5-155.2 62.8-77.1 1.2-152.2-32-207.4-85.4-9.9-9.6-19.6-19.1-28-30q-1.6-2-3.2-4c-42.2-52.7-65.6-116.3-73.8-183q-.2-1.4-.4-2.9C92 554.7 92.8 522.3 97 491q.2-1.7.4-3.4C101 459 107.8 431.4 117 404q.5-1.6 1.1-3.3C137.3 344 167.7 291.8 206 246q.7-.8 1.3-1.6c14.4-17.1 29.6-34 46.7-48.4q1.7-1.5 3.4-3c7.4-6.5 14.8-12.7 22.7-18.6q2-1.5 4-3c70.3-53 153.2-88.7 240.9-98.4q1.3-.2 2.7-.3c94.6-10.6 198.6 7.9 290.9 80.1zM517 101q-1.8.2-3.6.5c-89 12.9-176.9 54.8-242.8 116.1q-3 2.8-6.2 5.5c-5 4.3-9.7 9-14.3 13.7q-2.3 2.2-4.5 4.4c-6.3 6.3-12.1 12.8-17.6 19.8q-1.3 1.6-2.6 3.1c-23.6 27.7-43.6 59-59.4 91.8q-1.7 3.5-3.5 7c-43.2 86-55.3 191.2-24.7 294.9 13.3 40 34.5 76.5 62.2 108.2q1.1 1.2 2.2 2.5c9.8 11.1 20.2 21.4 31.8 30.5q2.6 2.2 5.1 4.3c13.1 10.7 27.1 19.5 41.9 27.7q1.1.6 2.3 1.3c31.5 17.7 68.7 30.6 105.2 30.9 1.1.1 1.1.1 2.3.1 18.8.2 36.7-.5 55.2-4.3q1.6-.3 3.2-.6c44.7-9.3 83.9-32 111.8-68.4q1.1-1.4 2.2-2.8c21.2-27.3 35.5-61.2 39.4-95.6l.4-3.3c1.2-11.9 1.3-23.8 1.4-35.8.3-17.1 1-33.7 4.6-50.5q.3-1.2.5-2.5c6.8-30.4 23-58.3 44.5-80.5q1.1-1.1 2.2-2.3c26.7-27.6 63-39 98.4-51.4 41.4-14.5 76.6-33 97.2-73.8 6-12.5 10.6-25.9 13.2-39.5q.3-1.4.5-2.8c1.6-9 1.9-17.8 1.9-26.9V320c-.2-54.3-23.5-103.8-61.4-142-2.6-2.5-5.2-4.7-8-7q-1.3-1.1-2.6-2.2c-13.3-11.5-27.8-21-43.2-29.6q-2.9-1.6-5.9-3.3c-26.1-14.7-56.1-23.6-85.3-29.9q-1.3-.3-2.7-.6c-27.4-5.8-54.9-7.6-82.7-7.6q-1.7-.1-3.5-.1c-18.5.1-36.7.7-55.1 3.3zm-31.7 117.3c17.3 13.7 30.2 31.5 33.7 53.7 2.1 25.1-2.5 49.2-18.5 69.1-14.2 16.4-30.4 29-52.5 31.9-4.4.3-8.8.3-13.2.3q-1.8 0-3.6 0c-25.1-.3-42.8-8.9-60.6-26.7-16.8-17.8-22.5-40.4-21.9-64.4 1-23.5 12.7-44.3 29.5-60.3 30.6-26.3 74.8-26.9 107.1-3.6z" fill="#014779"/><path d="m391 617c16.6 13.2 29.3 31.8 32.8 53.1 2 24.7-0.8 48.7-16.9 68.5-15.5 17.8-35.8 31.3-59.9 33.4-22.9 1.2-44.2-5.6-61.6-20.9-2.5-2.3-5-4.7-7.4-7.1q-1.2-1.2-2.5-2.4c-16.2-16.9-21.1-37.7-20.8-60.6 0.8-24.6 12-46.2 29.5-63.2 29.7-25.8 76.2-22.2 106.8-0.8z" fill="#014679"/><path d="M723.4 208.8c16.3 14.1 29.8 35.4 31.6 57.2 1.3 23.1-4.7 46.6-20.3 64.1-2.5 2.7-5.1 5.3-7.7 7.9-1.2 1.3-1.2 1.3-2.5 2.5-16.8 16.2-37.6 21.1-60.3 20.8-18.2-.6-38.1-8.5-51.2-21.3q-1.1-1.1-2.3-2.2c-17.5-18.2-25.3-42.3-24.9-67.1.7-22 10.6-41.7 26.3-56.8 31.9-28.1 77.3-31.3 111.3-5.1z" fill="#01477a"/><path d="M334.1 406.6q1.9 1.7 3.9 3.4l1.7 1.3c11 8.4 18.7 21.3 24.3 33.7q.8 1.7 1.6 3.5c7.2 18.3 4.1 38.7-2.8 56.6-5.7 12.7-13 23.2-22.8 32.9q-.9 1-1.9 2c-13.4 13.3-34.7 17.3-52.9 17.4-22.7-.2-42.3-8.3-59-23.7-16.3-17.6-24.5-40.1-23.6-63.9 1.1-17.1 9.3-35.1 19.4-48.8q.8-1.2 1.7-2.3c25.3-31.3 79.2-35.9 110.4-12.1z" fill="#01477b"/><path d="M465.2 238.2c11.3 7.2 20.2 19.4 23.5 32.5 3.4 17.3 1.9 35.1-7.7 50.3-2.8 3.6-5.8 6.8-9 10l-2 2c-10.4 10-24.9 13.5-39.1 13.4-17.1-.6-30.4-8.2-41.9-20.4-6.6-7.4-9.3-15.6-12-25q-.3-1-.6-1.9c-3.1-16.7 1.8-32.1 10.6-46.1 17.9-25.9 52.3-29.8 78.2-14.8z" fill="#37b0e4"/><path d="M367.3 634.7c5.4 3.5 10.1 7.8 14.7 12.3q.9.8 1.7 1.7c10.3 11 13.9 25.9 13.6 40.6-1.4 17.9-9.4 31.3-22.8 42.8-13.6 10.3-30 12.9-46.6 10.6-13.5-2.7-26.4-9.9-34.7-21.1-10.2-16.4-13.6-31.9-9.6-50.9 3.3-14 10.6-25.4 22.7-33.5 18.9-11.3 41.2-13.5 60.9-2.5z" fill="#f9f9f4"/><path d="M706 230.4c11 8.6 17.9 23 20 36.6 1.3 18.6-3.6 35.9-15.9 50.2-11 10.8-26.9 16.6-42.1 17.2-15.8-.4-29.1-8.5-40-19.4q-1-1-2-2c-10.4-11-12.9-26.1-13.4-40.8.4-14.8 7.2-26.7 17.5-36.9 22-20.5 51.4-21.8 75.9-4.9z" fill="#6fba56"/><path d="M322.6 433c6.2 5.2 10.6 10.8 14.4 18a28.25 28.25 0 0 1 1.3 2.4c5.6 12.3 4.2 30.2-.3 42.6-5.6 13.8-17.4 24.4-31 30.3-15.2 5.7-30.1 5.4-45-1.3-14.4-7.4-24.7-19.5-30.3-34.6-1.1-3.8-1.5-7.4-1.7-11.4q-.1-1.4-.2-2.8c-.6-14.1 4.8-24.4 13.2-35.2q.9-1.2 1.8-2.3c19.4-24.3 54.8-23.5 77.8-5.7z" fill="#f29816"/><path d="M688 112c4.9.6 9.1 1.6 13.7 3.3 4.5 1.7 9.1 3.3 13.7 4.8 4.8 1.5 9.1 3.5 13.6 5.9q-.5 1-1 2c-1.2-.5-1.2-.5-2.5-.9q-4.6-1.8-9.3-3.6-2-.7-4-1.5l-24.2-9q0-.5 0-1z" fill="#10428a"/><path d="M778 155c4 1.4 6.8 3.3 10.1 6q1.4 1.2 2.8 2.4.8.6 1.5 1.3 3.3 2.8 6.7 5.5 3.4 2.9 6.9 5.8-1 1-2 2-.6-.6-1.2-1.3c-5.5-5.8-11.7-10.5-18.1-15.3q-1.1-.8-2.2-1.6-.9-.8-2-1.5C779 157 779 157 778 155z" fill="#14418a"/><path d="M865 346q.5 0 1 0c.5 9.1-1.9 17.5-5 26q1 .5 2 1-1.5.5-3 1-.5 1-1 2c-1.3-4 0-6.7 1.3-10.5 2.1-6.4 3.7-12.8 4.7-19.5z" fill="#174484"/><path d="M227 794c4.7 2.2 8.5 5.3 12.6 8.4q1.2.9 2.4 1.8 1.1.9 2.2 1.7 1 .8 2.1 1.6c1.7 1.5 1.7 1.5 3.7 4.5q-.8-.4-1.6-.9c-2.5-1.2-2.5-1.2-5.5-2-3.4-1.3-3.5-1.9-4.9-5.1q-2.5-1.5-5-3-.5-1.5-1-3-2-1-4-2-.5-1-1-2z" fill="#0c3f8b"/><path d="M154 698c4 3.6 6.2 8.4 8.8 13.1q.7 1.3 1.5 2.8.7 1.3 1.5 2.6.7 1.2 1.4 2.5.4 1 .8 2-.5 1-1 2-.6-.9-1.3-1.9c-1.8-2.2-3.1-3-5.7-4.1q.4-.8.7-1.6c.4-3.8-1.8-6.3-3.7-9.4-3-5.7-3-5.7-3-8z" fill="#103f8c"/><path d="M634 542q.5 1 1 2l-2 5q-1 0-2 0-.5 2.5-1 5-1 0-2 0-.4 1.3-.9 2.6-1.5 4.7-3.1 9.4-1 0-2 0c.6-3.6 1.5-6.3 3.3-9.4l1.3-2.4q.7-1.2 1.4-2.5.7-1.2 1.4-2.5c3.4-6 3.4-6 4.6-7.2z" fill="#0e4189"/><path d="M277 177q0 1.5 0 3c-4.3 4-4.3 4-7 4q-.4.9-.7 1.8c-1.5 2.6-3 3.7-5.4 5.5q-1.1.7-2.2 1.5-.8.6-1.7 1.2-1-.5-2-1c6.1-5.7 12.2-11.2 19-16z" fill="#0a366b"/><path d="M838 413q.5 1 1 2c-5.3 6.3-11.1 12.2-17 18q-1-.5-2-1 1.2-1.2 2.4-2.4c5.4-5.3 10.8-10.7 15.6-16.6z" fill="#033a93"/><path d="m230 535c3.4 1.6 6.2 3.6 9.3 5.9 4.4 3.2 8.7 5.8 13.7 8.1-3 1-3 1-5.4 0-6.2-3.4-12.4-7-17.6-12q0-1 0-2z" fill="#10408c"/><path d="M275 628c0 3.6-.8 4.5-2.9 7.4-2.2 3.1-3.8 6-5.1 9.6q-1 0-2 0c.5-4.5 2.3-7.1 5-10.8q1.1-1.4 2.2-2.9c1.8-2.3 1.8-2.3 2.8-3.3z" fill="#0c408b"/><path d="M659 513q1 .5 2 1l-2.6 2.5q-1.6 1.6-3.3 3.3-.8.8-1.7 1.6c-3.8 3.8-3.8 3.8-6.4 8.6q-1-1.5-2-3l14-14z" fill="#0d3f8a"/><path d="M823 196q2.5 2.5 5 5 .9.8 1.8 1.6c1.2 1.4 1.2 1.4 1.7 3.5q.2.9.5 1.9 1.5.5 3 1 .5 2.5 1 5c-5.1-4.7-9.2-10.2-13-16q0-1 0-2z" fill="#0b3e8e"/><path d="M113 418q.5 0 1 0c.6 6.5-1.4 11.2-4 17q-.5 0-1 0c.4-6.2 1.6-11.3 4-17z" fill="#0b3a6c"/><path d="M385 217q1 .5 2 1-3.2 2.7-6.3 5.4l-1.8 1.5q-.9.7-1.8 1.5-.8.7-1.6 1.4L371 231c1.5-3.8 3.9-6 7-8.7q1.3-1.2 2.7-2.4c2.3-1.9 2.3-1.9 4.3-2.9z" fill="#0c3e8e"/><path d="M186 312q2 0 4 0c-1.6 4.8-4.3 8.8-7 13-1-2-1-2-.7-4.1.7-1.9.7-1.9 2.7-2.9.7-3 .7-3 1-6z" fill="#07408b"/><path d="M376 280q.5 0 1 0c1.2 5.4 2.3 10.5 2 16q-1.5.5-3 1v-17z" fill="#32a7d8"/><path d="M340 164q1 .5 2 1c-10.4 7.5-10.4 7.5-16 10q0-1 0-2 2.5-1.5 5-3 .7-.7 1.4-1.5c2.3-2.2 4.7-3.3 7.6-4.5z" fill="#0f408c"/><path d="M413 644c3 2.5 3.9 5 5.2 8.7q.5 1.5 1 3 .4 1.1.8 2.3-2-.5-4-1c-1.1-4.3-2.2-8.6-3-13z" fill="#114288"/><path d="M126 469q.5 0 1 0-.2 2.9-.4 5.8-.1 1.5-.2 3.2c-.4 2.8-1 4.6-2.4 7-1-1-1-1-1.1-3.6q.1-1.2.1-2.4 1 0 2 0l-.1-3.3c.1-3.7.1-3.7 1.1-6.7z" fill="#043c8c"/><path d="M357 152h7c-3.6 3-7.7 5-12 7q0-2 0-4 2 0 4 0 .5-1.5 1-3z" fill="#0e4288"/><path d="M583 753c1.2 3.7.7 4.5-1 8q-1.9 3-4 6-.5-1-1-2l2.9-6.1q.9-1.7 1.8-3.3.6-1.3 1.3-2.6z" fill="#0e418a"/><path d="M176 286q1.5.5 3 1l-1.9 2.3c-2.2 2.7-2.2 2.7-4.1 5.7q-1 0-2 0c1.2-3.5 2.7-6.1 5-9z" fill="#083b6e"/><path d="m480 216c4.4 1.4 6.9 3.6 10 7q-2.5 0-5 0 0-1.5 0-3-1.5 0-3 0 0-1 0-2-1 0-2 0 0-1 0-2z" fill="#0e4187"/><path d="M811 183q1 0 2 0 0 1 0 2 .9.3 1.8.7c2.8 1.6 4.3 3.7 6.2 6.3q-.5 1-1 2-2-1.9-3.9-3.8-1.1-1.1-2.3-2.2c-1.8-2-1.8-2-2.8-5z" fill="#103f8c"/><path d="M398 136q-1.9 1-3.8 2.1-1.1.5-2.2 1.1c-2 .8-2 .8-5-.2q.5-1.5 1-3c6.6-1.1 6.6-1.1 10 0z" fill="#0f4288"/><path d="M465 112q0 1.5 0 3l-9 2q0-1.5 0-3c6.8-2 6.8-2 9-2z" fill="#e19619"/><path d="M331 541q2 .5 4 1c-3.5 3.1-6.5 4.7-11 6 1.8-2 1.8-2 4-4q1.5 0 3 0 0-1.5 0-3z" fill="#0c3f8b"/><path d="M836 215c1.9.2 1.9.2 4 1 1 2.3 1 2.3 1.8 5.1q.3 1.3.7 2.7.2 1.1.5 2.2c-2.4-2.2-3.8-4.3-5.2-7.2q-.5-1.1-1-2.2-.4-.8-.8-1.6z" fill="#0b408d"/><path d="M161 715c1.8.2 1.8.2 4 1 1.8 2.4 1.8 2.4 3 5q-.5 1-1 2-.6-.9-1.3-1.9c-1.8-2.2-3.1-3-5.7-4.1q.5-1 1-2z" fill="#074186"/><path d="M263 644q.5 1 1 2l-1.9 4.6q-.6 1.2-1.2 2.5-.4.9-.9 1.9-.5 0-1 0 0-3 0-6 1-.5 2-1l2-4z" fill="#ec9e12"/><path d="M354 259q1 1.5 2 3l-3 7q-1 0-2 0 .5-2.2.9-4.4.3-1.3.6-2.5c.5-2.1.5-2.1 1.5-3.1z" fill="#134384"/><path d="M838 413q.5 1 1 2l-6 7q-.5-1-1-2l6-7z" fill="#0c428b"/><path d="M332 171q.5 1.5 1 3c-2.3 1.6-2.3 1.6-5 3q-1.5-.5-3-1l7-5z" fill="#f2a00e"/><path d="M753 288q.5 0 1 0v12q-1.5 0-3 0l2-12z" fill="#df9818"/><path d="M347 524q2 1 4 2l-5 5 1-7z" fill="#194680"/><path d="M772 460q-2 2-4 4 0-1 0-2-2.5.5-5 1c1-2 1-2 3.9-3.2 3.1-.8 3.1-.8 5.1.2z" fill="#09408c"/><path d="m322 434c3.8 1.5 5.6 3.8 8 7-2.9-1.4-5.5-2.9-8-5q0-1 0-2z" fill="#e39b16"/></svg>