<svg xmlns="http://www.w3.org/2000/svg" width="1024" height="1024" fill-rule="evenodd" xmlns:v="https://vecta.io/nano"><path d="M837.5 199.5q58 8.6 82.5 62 2.7 7.4 4.5 15 1.7 5.8 2.5 12 1 221 0 442-1.4 17.1-8 33-7.7 14.8-17.5 28-17.9 18.4-42 28-16 5.8-33 6.5-322 1.2-644-.5-38.9-7.2-65-37-15.3-20.7-21-46 0-228.2 0-457 .2-6.6 2-13 13.5-43.5 54-64 .5 0 1 0 15.4-6.1 32-8.5 326-.8 652-.5z" fill="#023a4b"/><path d="m825.5 220.5q-318.5 1-637.5 2-2.6 0-4.5-1 321-1.5 642-1z" fill="#0093a2"/><path d="m825.5 220.5q59.6 3.3 77.5 60 3.2 17.3 2.5 35-394.5 0-789 0 0-10 0-20 5.6-52.4 55-71.5 6-1.4 12-2.5 1.9 1 4.5 1 319-1 637.5-2z" fill="#007f8e"/><path d="M116.5 295.5q0 10 0 20 394.5 0 789 0-394.7 1.5-790 1-.5-13.6 1-21z" fill="#002839"/><path d="M299.5 334.5q151.5-1 303.5-1 152.5-.2 304.5 1.5-303.9-.7-608-.5z" fill="#03424a"/><path d="m116.5 336.5q394.5 0 789 0 0 33.5 0 67-394.5 0-789 0 0-33.5 0-67z" fill="#fce43a"/><path d="m118.5 337.5q393 0 786 0 0 32 0 64-393 0-786 0 0-32 0-64z" fill="#fecd3d"/><path d="M905.5 426.5q-394 0-788 0 .5 150.3-1 300 0-150.5 0-301 394.8-.5 789 1z" fill="#0091a1"/><path d="M905.5 426.5q.3 152.5-.5 305-10.8 60.8-71.5 71.5-322.5 1-645 0-65.1-10.8-72-76.5 1.5-149.7 1-300 394 0 788 0z" fill="#007f8e"/><path d="M219.5 470.5q64.5-.6 129 1.5 33.3 9.3 39.5 43.5 1 57 0 114-7.1 36.6-43.5 44.5-65 1-130 0-34.4-7.9-41.5-42.5-1-59 0-118 9.2-37 46.5-43z" fill="#033a4b"/><path d="M242.5 491.5q-12 0-24 0-5.2.9-10 3 1.1-2.2 5-3.5 14.8-1.2 29 .5z" fill="#061d49"/><path d="M219.5 492.5q11 0 22 0 0 19.5 0 39-23.5 0-47 0 0-6 0-12 1.5-5.7 4-11.5 4.3-4.3 7.5-9.5 6.1-4.9 13.5-6zm119 0q26.8 3 23.5 29 .5-2.7 2-1 .5-2 1-4 .5.5 1 1 .7 7 .5 14-17.5-.3-35 .5-10.8.3-18.5 7.5-2.4 6-4.5 12 0 50 0 100-22 0-44 0 0-79.5 0-159 37 0 74 0z" fill="#fecd3d"/><path d="M218.5 491.5q0 1 1 1-7.4 1.1-13.5 6-3.2 5.2-7.5 9.5-2.5 5.8-4 11.5-.5 0-1 0 2-15.9 15-25 4.8-2.1 10-3z" fill="#f4e16c"/><path d="M338.5 492.5q0-.5 0-1 14.1.3 23 11 8.2 13.8 6 30 0 .5 0 1-22.1-.7-44 1.5-12.2 5.4-13 18.5-.5 0-1 0 .3-1.5-1-2 2.1-6 4.5-12 7.7-7.2 18.5-7.5 17.5-.8 35-.5.2-7-.5-14-.5-.5-1-1-.5 2-1 4-1.5-1.7-2 1 3.3-26-23.5-29z" fill="#ebd654"/><path d="M361.5 502.5q5.1 4.7 6.5 12 1.2 9.3-.5 18 2.2-16.2-6-30z" fill="#0a1b48"/><path d="M218.5 491.5q12 0 24 0 0 21 0 42-24.5 0-49 0 0-7 0-14 .5 0 1 0 0 6 0 12 23.5 0 47 0 0-19.5 0-39-11 0-22 0-1 0-1-1z" fill="#eae03d"/><path d="M193.5 553.5q0 17 0 34-2-8.2-2-17.5 0-9.1 1-18 25-1 50 0-24.8.3-49 1.5z" fill="#02244c"/><path d="M328.5 551.5q20-.5 40 1 1.7 18.9.5 38-.8.8-1.5 1.5-19.5 1-39 0-2-20.3 0-40.5z" fill="#192d4b"/><path d="m328.5 554.5q19 0 38 0 0 17.5 0 35-19 0-38 0 0-17.5 0-35z" fill="#fece3d"/><path d="M328.5 554.5q19.2-1.5 39-1 0 18.5 0 37-19.8.5-39-1 19 0 38 0 0-17.5 0-35-19 0-38 0z" fill="#fdf635"/><path d="M193.5 553.5q24.5 0 49 0 0 17.5 0 35-24.8.5-49-1 0-17 0-34z" fill="#fef836"/><path d="m194.5 554.5q23.5 0 47 0 0 16.5 0 33-23.5 0-47 0 0-16.5 0-33z" fill="#fecd3d"/><path d="M367.5 533.5q-19.2 1.2-39 1.5-10.3 2.3-15.5 11.5-2 52.9-2 106-.8-49.5-.5-99 .8-13.1 13-18.5 21.9-2.2 44-1.5z" fill="#032149"/><path d="M338.5 491.5q0 .5 0 1-37 0-74 0 0 79.5 0 159 22 0 44 0 0-50 0-100 1.3.5 1 2 0 49.5 0 99-23 0-46 0 0-80.5 0-161 37.5 0 75 0z" fill="#fdf937"/><path d="M223.5 652.5q0-.5 0-1 9 0 18 0 0-19.5 0-39-23.5 0-47 0 0 5.5 0 11-.5 0-1 0 0-6.5 0-13 24.5 0 49 0 0 21 0 42-9.5 0-19 0z" fill="#fce63b"/><path d="M223.5 651.5q-12.5-1.2-21.5-10-3.7-9.4-7.5-18 0-5.5 0-11 23.5 0 47 0 0 19.5 0 39-9 0-18 0zm143-25q-5.2 13-16 22.5-4.1 1.4-8 2.5-6 0-12 0 0-19.5 0-39 18 0 36 0 0 7 0 14z" fill="#fecd3d"/><path d="M367.5 610.5q-19.5 0-39 0 0 21 0 42-1.5-20.4-1-43 20.3-.5 40 1z" fill="#00114d"/><path d="M506.5 627.5q164-.3 328 .5 11.8 4.8 6.5 16.5-2.3 2.8-5.5 4.5-165 1-330 0-12.4-6-5-17.5 2.7-2.7 6-4z" fill="#003a4a"/><path d="M367.5 610.5q.5 8.3-1 16 0-7 0-14-18 0-36 0 0 19.5 0 39 6 0 12 0 0 .5 0 1-7 0-14 0 0-21 0-42 19.5 0 39 0z" fill="#f2da3c"/><path d="M366.5 626.5q-2.1 22.1-24 26 0-.5 0-1 3.9-1.1 8-2.5 10.8-9.5 16-22.5z" fill="#f3df6a"/><path d="M193.5 623.5q.5 0 1 0 3.8 8.6 7.5 18 9 8.8 21.5 10 0 .5 0 1-26.6-2.1-30-29z" fill="#f3e670"/><path d="M505.5 706.5q86-.3 172 .5 10.4 5.7 5.5 16.5-1.8 2.3-4.5 3.5-86.5 1-173 0-9.8-4-6.5-14.5 2.2-4.2 6.5-6z" fill="#00394a"/></svg>