<svg xmlns="http://www.w3.org/2000/svg" width="1024" height="1024" xmlns:v="https://vecta.io/nano"><path d="M399.2 122.5c18.1 5.8 36.1 11.1 54.8 14.5l3.3.6c17.4 3 34.5 3.8 52.1 3.8h3c12.4 0 24.4-.6 36.6-2.4q2.1-.3 4.2-.6c25.2-3.6 49.8-11.4 74.1-18.7C664.7 108.4 703 100.1 742 109q1.2.3 2.4.5c29.8 6.8 58.1 20.6 80.6 41.5q.8.7 1.6 1.5c12.7 11.9 22.6 25.5 31.4 40.5q.5.9 1.1 1.8c22.2 38.5 29.1 83.4 29.2 127.1v2.9c0 12.5-.6 24.8-2.1 37.2q-.4 3.7-.8 7.5c-5.7 49.4-22.6 98.4-47 141.4-23.4 41.6-32.6 89.6-38.3 136.4-2 15.7-4.7 31.1-7.7 46.6q-.6 3.2-1.2 6.4C782.9 743 771.7 785.4 751 824q-.5.9-1 1.8c-6.8 12.7-14.8 24.2-24.7 34.7-2.4 2.5-2.4 2.5-4.7 5.5-2.8 3.2-5.7 5.8-9.1 8.4q-.9.7-1.9 1.4C689.8 891 668.2 899.6 643 897c-16.2-2.8-30.6-13.4-40.2-26.4q-1.9-2.8-3.8-5.6-.8-1.1-1.5-2.2c-8.3-12.4-13.2-28.2-15.5-42.8q-.2-1.2-.4-2.4L579 800q-.1-.9-.2-1.9c-.8-6.3-1.1-12.6-1.3-19q-.1-3.5-.2-7-.2-5.4-.3-10.9c-.4-12.1-.9-24.2-2-36.3q-.1-1.3-.2-2.6c-3.1-31.8-13-66.1-35.8-89.3q-.8-.9-1.7-1.7c-7.5-7-17.6-11.8-27.9-11.6-13.3 1.5-23.2 9.3-31.7 19.1-29.4 37.4-30.4 87.2-32 132.5-1.1 29.6-1.1 29.6-2.9 40.4q-.2 1.1-.4 2.2c-4.1 22.6-11 44.6-26.4 62.1-1 1.2-1 1.2-2 2.3-7.9 8.6-18.6 15-30 17.7q-1 .3-2.1.5c-23.8 3.8-44.9-3.9-64-17.7-10.5-8.3-19.9-17.1-27.9-27.8q-1.2-1.5-2.4-3c-18.8-24.8-30.1-54.7-39.6-84q-.5-1.5-1-3c-12.8-39.6-19.5-81.8-25-122.9-6.6-49.5-19.2-93.3-42.6-137.5-3.3-6.2-6.4-12.3-9.4-18.6q-.6-1.2-1.1-2.4C157.1 454.7 149 427.9 143 401q-.3-1.4-.7-2.9c-5.6-24.4-7.8-48.4-7.7-73.4q0-5.8 0-11.6c0-15.3.8-30.1 3.4-45.1q.2-1 .4-2.1 1-5.7 2.3-11.4.4-1.7.8-3.4c8.5-35.8 25.2-68.3 50.5-95.1q1-1.1 2-2.2c55.4-58.6 135.2-53.6 205.2-31.3z" fill="#fefaed"/><path d="M399.2 122.5c18.1 5.8 36.1 11.1 54.8 14.5l3.3.6c17.4 3 34.5 3.8 52.1 3.8h3c12.4 0 24.4-.6 36.6-2.4q2.1-.3 4.2-.6c25.2-3.6 49.8-11.4 74.1-18.7C664.7 108.4 703 100.1 742 109q1.2.3 2.4.5c29.8 6.8 58.1 20.6 80.6 41.5q.8.7 1.6 1.5c12.7 11.9 22.6 25.5 31.4 40.5q.5.9 1.1 1.8c22.2 38.5 29.1 83.4 29.2 127.1v2.9c0 12.5-.6 24.8-2.1 37.2q-.4 3.7-.8 7.5c-5.7 49.4-22.6 98.4-47 141.4-23.4 41.6-32.6 89.6-38.3 136.4-2 15.7-4.7 31.1-7.7 46.6q-.6 3.2-1.2 6.4C782.9 743 771.7 785.4 751 824q-.5.9-1 1.8c-6.8 12.7-14.8 24.2-24.7 34.7-2.4 2.5-2.4 2.5-4.7 5.5-2.8 3.2-5.7 5.8-9.1 8.4q-.9.7-1.9 1.4C689.8 891 668.2 899.6 643 897c-16.2-2.8-30.6-13.4-40.2-26.4q-1.9-2.8-3.8-5.6-.8-1.1-1.5-2.2c-8.3-12.4-13.2-28.2-15.5-42.8q-.2-1.2-.4-2.4L579 800q-.1-.9-.2-1.9c-.8-6.3-1.1-12.6-1.3-19q-.1-3.5-.2-7-.2-5.4-.3-10.9c-.4-12.1-.9-24.2-2-36.3q-.1-1.3-.2-2.6c-3.1-31.8-13-66.1-35.8-89.3q-.8-.9-1.7-1.7c-7.5-7-17.6-11.8-27.9-11.6-13.3 1.5-23.2 9.3-31.7 19.1-29.4 37.4-30.4 87.2-32 132.5-1.1 29.6-1.1 29.6-2.9 40.4q-.2 1.1-.4 2.2c-4.1 22.6-11 44.6-26.4 62.1-1 1.2-1 1.2-2 2.3-7.9 8.6-18.6 15-30 17.7q-1 .3-2.1.5c-23.8 3.8-44.9-3.9-64-17.7-10.5-8.3-19.9-17.1-27.9-27.8q-1.2-1.5-2.4-3c-18.8-24.8-30.1-54.7-39.6-84q-.5-1.5-1-3c-12.8-39.6-19.5-81.8-25-122.9-6.6-49.5-19.2-93.3-42.6-137.5-3.3-6.2-6.4-12.3-9.4-18.6q-.6-1.2-1.1-2.4C157.1 454.7 149 427.9 143 401q-.3-1.4-.7-2.9c-5.6-24.4-7.8-48.4-7.7-73.4q0-5.8 0-11.6c0-15.3.8-30.1 3.4-45.1q.2-1 .4-2.1 1-5.7 2.3-11.4.4-1.7.8-3.4c8.5-35.8 25.2-68.3 50.5-95.1q1-1.1 2-2.2c55.4-58.6 135.2-53.6 205.2-31.3zM220 187c-40.8 45.8-46.1 107.8-43.8 166.4 2.8 47.6 22.1 93.7 43.3 135.6 13.9 27.3 25.8 55.1 32.8 85.1q.3 1.3.7 2.7c3.9 17.5 5.9 35.4 8.3 53.1 4.2 32 8.4 63.8 16.7 95.1q.4 1.8.9 3.6c6.1 23.8 14.3 47.3 25.1 69.4q.5 1.1 1.1 2.3c10.9 22 26.9 45.9 50.9 54.7 8 1.8 15.6 1.8 23-2 14.1-9.2 19.1-25.7 22.5-41.4 4.2-20.6 4.9-41.8 6.2-62.7 3.3-50.4 10.1-111.9 50.5-147.8 17.2-14.5 37.2-21.7 59.7-20.3 21.9 1.9 42.4 13.2 56.6 29.9 3.4 4.3 6.5 8.7 9.5 13.3 1 1.6 1 1.6 2.1 3.2 9.2 15.1 15.8 32.7 19.9 49.8q.5 2 1 3.9c1.9 7.6 3.4 15.2 4.6 22.9q.2 1.1.4 2.2c2.5 17.9 3.6 35.9 4.7 53.9 1.3 25.4 1.3 25.4 5.1 50.4q.3 1.2.5 2.5c3 13.8 7 28.9 18.8 38 7.8 4.9 14.9 6.4 23.9 4.6 22-5.9 36.4-24.3 47.4-43.1 2-3.4 3.8-6.8 5.6-10.3q.5-1 1.1-2.1c10.4-20.3 17.9-42 23.9-63.9q.4-1.5.8-3c4.6-16.5 8.1-33 10.8-49.8q.7-3.8 1.3-7.6c3-17.9 5.3-35.9 7.5-53.9 5.7-45.6 5.7-45.6 12.7-67.1l1.2-3.7c8.8-26.8 21.1-52 33.8-77.1 20-39.7 35.9-85.8 36.1-130.7q0-1.5 0-3.1 0-5 .1-9.9 0-1.7 0-3.5c-.1-16.3-.3-32.4-3.3-48.6q-.2-1.4-.5-2.8c-6.4-34.1-19.7-66.4-44.5-91.2q-1.2-1.2-2.4-2.4c-27.1-25.7-64.8-33.6-101.1-32.9-21 .8-40.3 6.5-60.3 12.6-87.9 26.7-167.6 25.8-255-1.6-55.1-17.3-117.4-17-160.2 27.3z" fill="#01285f"/><path d="M699 831c0 4.3-2.7 6.2-5.5 9.2-.8.8-.8.8-1.6 1.7q-1.9 2-3.9 4.1-1.5-.5-3-1l14-14z" fill="#07174c"/><path d="M779 545q1 .5 2 1 0 1 0 2-1 0-2 0-.2.9-.4 1.9-.2 1.2-.5 2.4-.2 1.2-.5 2.4c-.6 2.3-.6 2.3-2.6 5.3.5-5.7 1.5-9.9 4-15z" fill="#0d1b4c"/><path d="M625 889q2.5 0 5 0 0 1 0 2l7 2c-2.5.9-3.6 1.1-6.1.2q-1.1-.5-2.2-1.1-1-.6-2.1-1.2-.8-.4-1.6-.9 0-.5 0-1z" fill="#0b184b"/><path d="m389 843c0 3 0 3-2.4 5.6-2.6 2.4-2.6 2.4-4.6 3.4 1.6-3.8 4-6.2 7-9z" fill="#07184d"/><path d="M763 161c3.9 1.2 6.9 2.4 10 5q-2.2-.4-4.4-.8-1.3-.2-2.5-.5-1.1-.3-2.1-.7-.5-1.5-1-3z" fill="#f6f7f6"/></svg>