<svg xmlns="http://www.w3.org/2000/svg" width="1024" height="1024" xmlns:v="https://vecta.io/nano"><path fill-rule="evenodd" d="M307 53.9c11.8 6.4 16.4 14.4 21 27.1v49h368c0-26-5.6-45.5 7.8-65.6 6.5-6.9 14.2-11.9 23.8-12.7 11.5-.1 21 2 29.4 10.3 7.2 8 10.5 17 10.5 27.7q-.1 1.6-.1 3.1 0 5-.1 10-.1 3.4-.1 6.9 0 9.2-.2 18.5 0 .9 0 1.8 18.2 0 36.3 0 9.3-.1 18.5-.1 9.1 0 18.2 0 3.4 0 6.9 0 4.9 0 9.9 0 1.6 0 3.1 0c6.5 0 12.5.2 18.9 1.8 16.5 5.1 29.9 15.6 38.7 30.6.8 1.3.8 1.3 1.5 2.7 8.5 23.9 8.5 23.9 8.4 49.5q0 4.9 0 9.7 0 8.6 0 17.1 0 12.8 0 25.6 0 21.5 0 43-.1 21.5-.1 42.9v2.7q0 5.4 0 10.8 0 49.2 0 98.5-.1 46.6-.1 93.1 0 1.5 0 2.9 0 5.8 0 11.6 0 2.9 0 5.8 0 2.9 0 5.7 0 46 0 91.9 0 13.4 0 26.8 0 28.3 0 56.6 0 11.8 0 23.5 0 9.8-.1 19.5 0 4 0 8 0 5.5 0 11v3.3c.1 30.5-8.2 60.1-29.8 82.6-27.2 25.9-56.9 33.4-93.8 33.3q-3.8 0-7.5 0-9.3 0-18.7 0-12.4 0-24.9 0-21 0-42 0-20.8-.1-41.7-.1h-2.6q-5.3 0-10.6 0-48 0-96 0-45.4-.1-90.8-.1-1.4 0-2.8 0-5.7 0-11.3 0-2.8 0-5.6 0-2.8 0-5.7 0-44.7 0-89.5 0-13 0-26.1 0-27.6 0-55.2 0-11.5 0-22.9 0-9.5 0-19.1-.1-3.8 0-7.7 0-5.4 0-10.7 0h-3.2c-29.5.1-57.5-9.1-79-29.9-26-27.2-33.2-57.7-33.2-94.3q.1-3.4.1-6.8-.1-9.3-.1-18.7.1-10.2.1-20.4-.1-18.9 0-37.8 0-18.9 0-37.8 0-1.2 0-2.3 0-4.8 0-9.6 0-44.9 0-89.8 0-39.7 0-79.3 0-2.6 0-5.1 0-1.3 0-2.6 0-6.3 0-12.6 0-1.3 0-2.5 0-33.4 0-66.9 0-1.2 0-2.4 0-4.8 0-9.6 0-16.5 0-33l.5-159.2q.1-3.6.1-7.2.1-5.4.1-10.9.1-2 .1-3.9c.2-18.7 6.4-34.4 19.5-48.1 16.5-15.8 33.5-20.2 55.9-19.9q3.5 0 6.9 0 9 0 18.1.1 9.3.1 18.7.1 18.2.1 36.4.3h3.9q0-8.2 0-16.4-.1-3.4-.1-6.7 0-5 0-9.9 0-1.6 0-3.1c-.1-11.1 1-19.3 7.1-28.9 10.7-12.4 27.4-17.5 43-11.1z" fill="#fefee9"/><path d="M307 53.9c11.8 6.4 16.4 14.4 21 27.1v49h368V82c4.5-13.4 8.3-20.5 20.2-27.3 9.3-4.3 20-4.1 29.6-.7 9.2 4.3 15.5 11.6 19.4 20.9 1.4 3.8 1.9 7 1.9 11.1q0 1.4 0 2.9 0 1.6 0 3.2 0 1.6 0 3.3 0 5.2 0 10.4 0 3.5-.1 7 0 8.6 0 17.2 1.9 0 3.8 0 17.9-.1 35.8-.2 9.2 0 18.4 0 8.9-.1 17.8-.1 3.4 0 6.8 0c23.9-.2 41.1 3.6 59 20.6 18.7 19.2 18.7 42.5 18.7 67.6q0 4 0 8 0 8.6 0 17.2 0 12.9 0 25.7 0 23 0 45.9 0 20.1 0 40.2v2.7q0 5.4 0 10.9 0 50.8 0 101.5-.1 45.1 0 90.2 0 50.7 0 101.4 0 5.4 0 10.8 0 1.3 0 2.7 0 20.1 0 40.1 0 22.9 0 45.7 0 12.8 0 25.5 0 8.6 0 17.1 0 4.9 0 9.7c0 26.9-2 50-15.3 73.8q-.8 1.5-1.7 3c-14.2 23.8-39.2 40.6-65.8 47.5-14.6 3.1-29.3 2.8-44.1 2.8q-3.9 0-7.8 0-8.4 0-16.8 0-12.5 0-25.1 0-23.6 0-47.3 0-18.2 0-36.5 0-2.6 0-5.3 0-3.9 0-7.9 0-36.8 0-73.6 0-1.4 0-2.8 0-7.1 0-14.1 0-1.4 0-2.8 0-2.8 0-5.6 0-44 0-87.9 0-49.3.1-98.7.1-5.3 0-10.6 0H355q-19.5 0-39.1 0-22.2 0-44.5 0-12.4 0-24.8 0-9.3 0-18.6 0-3.8 0-7.5 0c-36.7.1-66.5-7.2-93.5-33.4-22.9-22.8-30.1-53.5-30.3-84.8q0-4.8.1-9.6 0-3.5-.1-7 0-9.6.1-19.2 0-9.3 0-18.5-.1-19.1 0-38.1 0-18.9 0-37.7 0-1.2 0-2.4 0-4.8 0-9.6 0-45 0-89.9 0-39.7 0-79.4 0-2.5 0-5.1 0-1.2 0-2.5 0-6.3 0-12.6 0-1.3 0-2.5 0-33.4 0-66.8 0-1.2 0-2.4 0-4.8 0-9.6 0-16.4 0-32.9l.2-113q0-3.4 0-6.7.1-18.4.2-36.9.1-4.7.1-9.4 0-6.2.1-12.4 0-1.7 0-3.5c.4-20.4 10.4-35.6 24.5-49.4 16.1-14.6 33.9-15.8 54.5-15.6q3.5 0 7 0 9.2.1 18.3.2 9.4 0 18.7.1 18.3 0 36.6.2 0-.8 0-1.7-.1-9-.1-17.9 0-3.3-.1-6.6 0-4.8 0-9.6 0-1.5 0-3c0-11.6 2.4-21.2 10.4-30 10.1-9.5 26.8-12.6 39.8-7.3zM117 280l-.2 277.4-.1 87.6v51.8q0 18.4 0 36.9 0 18.8 0 37.7 0 10.2-.1 20.4 0 9.2 0 18.5 0 3.3 0 6.7c-.1 30.1 5.9 56.3 27.8 78.4 5.7 5.4 11.8 9.7 18.6 13.6q1.4.8 2.8 1.6c13.3 7.2 27.9 9.6 42.9 9.5q1.6 0 3.2 0 5.4 0 10.8 0 3.9.1 7.8.1 9.6 0 19.2 0 11.5 0 22.9 0 27.8 0 55.6 0 13.1 0 26.3 0 45 .1 90 .1 2.8 0 5.7 0 1.4 0 2.8 0 7.1 0 14.2 0 1.4 0 2.8 0 45.7 0 91.3.1 48.3 0 96.6 0 5.3 0 10.6 0h2.7q21 0 42 .1 21.1 0 42.2 0 12.5 0 25 0 9.4 0 18.8 0 3.8 0 7.6 0c28.2.1 52.4-5.5 73.4-25.7 23-23.2 27.3-50.9 27.2-82.2q0-3.4 0-6.9 0-9.4-.1-18.9 0-9.3 0-18.6 0-18.8 0-37.7 0-25.5 0-51 0-61.4-.1-122.7L907 280H117z" fill="#119bb9"/><path d="M455.2 392.7c43.2 11.3 80.1 8.2 122.8-3.1 33.3-8.8 68-11.1 98.9 6.5 25.5 15.8 42.3 40.5 49.2 69.7 8.8 40.2-.5 77.3-19.2 112.9-15.6 29.7-18.7 57.8-19.8 90.9-1.5 43.2-3.5 89-23.1 128.4q-.8 1.7-1.7 3.5c-7.7 15.1-19 28.8-35.5 34.2-11.4 3-22 1.5-32.3-4-26.8-16.9-32.8-51.6-39.3-80.2-7.7-42.4-7.7-42.4-32.2-75.5-4.7-2.8-9.5-3.9-15-3-10.4 3-15.9 9.9-21 19.1-10.8 20.2-15.3 43.4-20.3 65.6-13.5 59.9-13.5 59.9-34.7 74.3q-2 1.1-4 2-1 .5-2.1 1c-10.3 3.8-24.3 3.8-34.4-.6-23.9-13.2-34.9-37.9-42.2-63.1-8.5-30.7-11.9-62.6-12.7-94.4q-.1-3.7-.3-7.4-.1-5.8-.3-11.5c-.8-29.4-5-52.7-19-78.7-7.3-13.7-14.2-27.2-17.7-42.5q-.3-1.2-.6-2.4-.9-3.7-1.7-7.4-.3-1.3-.6-2.6c-1.6-8.4-1.8-16.6-1.8-25.1q0-3.6 0-7.2c-.2-14.4 2.4-28.3 7.7-41.9q.4-1.1.8-2.3c4.6-11.6 10.8-21.5 18.9-30.9q.8-1 1.6-2c14-17.4 37.5-28.9 59.5-31.7 25.3-1.9 47.8 3 72.1 9.4z" fill="#ee6b00"/><path d="M98 261h828l.3 292.4.1 92.4v54.6q0 19.5 0 38.9.1 19.9.1 39.7-.1 11.8 0 23.6 0 8.8 0 17.5 0 3.5 0 7c.2 31.6-9 58.8-31.2 82-12.4 12-27.4 20.9-43.7 26.3-1.1.3-1.1.3-2.2.7-15.9 4.8-32.6 4.2-49 4.2q-3.9 0-7.8 0-8.4 0-16.8 0-12.5 0-25.1 0-23.6 0-47.3 0-18.2 0-36.5 0-2.6 0-5.3 0-3.9 0-7.9 0-36.8 0-73.6 0-1.4 0-2.8 0-7.1 0-14.1 0-1.4 0-2.8 0-2.8 0-5.6 0-44 0-87.9 0-49.3.1-98.7.1-5.3 0-10.6 0H355q-19.5 0-39.1 0-22.2 0-44.5 0-12.4 0-24.8 0-9.3 0-18.6 0-3.8 0-7.5 0c-36.7.1-66.5-7.2-93.5-33.4-17.2-17.1-29.1-42.6-29.1-67.1q0-1.4 0-2.8v-3q0-5 0-10.1 0-3.6 0-7.2 0-7.9 0-15.8 0-11.9 0-23.8 0-20 0-39.9 0-27 0-54 0-64.8 0-129.7L98 261zm19 19l-.2 277.4-.1 87.6v51.8q0 18.4 0 36.9 0 18.8 0 37.7 0 10.2-.1 20.4 0 9.2 0 18.5 0 3.3 0 6.7c-.1 30.1 5.9 56.3 27.8 78.4 5.7 5.4 11.8 9.7 18.6 13.6q1.4.8 2.8 1.6c13.3 7.2 27.9 9.6 42.9 9.5q1.6 0 3.2 0 5.4 0 10.8 0 3.9.1 7.8.1 9.6 0 19.2 0 11.5 0 22.9 0 27.8 0 55.6 0 13.1 0 26.3 0 45 .1 90 .1 2.8 0 5.7 0 1.4 0 2.8 0 7.1 0 14.2 0 1.4 0 2.8 0 45.7 0 91.3.1 48.3 0 96.6 0 5.3 0 10.6 0h2.7q21 0 42 .1 21.1 0 42.2 0 12.5 0 25 0 9.4 0 18.8 0 3.8 0 7.6 0c28.2.1 52.4-5.5 73.4-25.7 23-23.2 27.3-50.9 27.2-82.2q0-3.4 0-6.9 0-9.4-.1-18.9 0-9.3 0-18.6 0-18.8 0-37.7 0-25.5 0-51 0-61.4-.1-122.7L907 280H117z" fill="#002a53"/><path d="M307 53.9c10.2 5.6 16.3 13.2 20.2 24.1 1.3 4.7 1.4 9 1.3 13.8q0 1.5 0 3.1.1 5 0 10 0 3.5 0 7 .1 7.3 0 14.6 0 9.4 0 18.7.1 7.2 0 14.5 0 3.4 0 6.8.1 4.9 0 9.7 0 1.4 0 2.8c-.1 10.8-3.7 19.1-11.1 26.8-8.8 8-17.8 9.8-29.5 9.5-8.5-.7-15.8-4.4-21.9-10.3-7.1-8.6-9.5-17.4-9.4-28.4q0-1.5 0-3.1 0-4.9 0-9.8 0-3.5 0-6.9 0-7.2.1-14.4 0-9.2 0-18.4 0-7.2 0-14.3 0-3.4 0-6.8 0-4.7 0-9.5 0-1.4 0-2.8c.1-11.3 2.7-20.8 10.5-29.4 10.1-9.5 26.8-12.6 39.8-7.3z" fill="#002d56"/><path d="M750.2 56.3c8.7 6.2 14.5 14.1 16.8 24.7q.1 2.2.1 4.5.1 1.3.1 2.7 0 1.4 0 2.9 0 1.6 0 3.1 0 5.1 0 10.2 0 1.8.1 3.6 0 9.2 0 18.5 0 9.5.1 19 0 7.4 0 14.7 0 3.5.1 7 0 5 0 9.9 0 1.4 0 2.9c-.1 10.7-3.8 18.2-11.1 25.8-8.7 8.1-17.6 9.8-29.2 9.5-9.1-.5-15-4.4-21.8-10.3-10.1-12.6-9.3-24.8-9.1-40.4q0-3.7 0-7.4 0-7.7 0-15.5.1-9.9.1-19.8 0-7.6 0-15.3 0-3.6 0-7.3 0-5.1.1-10.2-.1-1.5-.1-3c.2-9.4 3.5-17.9 10.1-24.7 11.9-10.7 29.6-13.5 43.7-5.1z" fill="#002c56"/></svg>