<svg xmlns="http://www.w3.org/2000/svg" width="1024" height="1024" xmlns:v="https://vecta.io/nano"><path fill-rule="evenodd" d="M920 263l.1 294.7q0 65.3 0 130.6 0 27.2 0 54.3 0 20.1 0 40.2 0 12 0 24 0 7.9 0 15.9 0 3.7 0 7.3 0 5.1 0 10.1 0 1.6 0 3.1c.1 20.1-7.9 37.1-21.7 51.5-19.4 17.8-44.3 19.8-69.1 19.7q-5.2 0-10.4 0-9.1 0-18.2 0-13.6 0-27.3 0-22.9 0-45.8 0-22.9-.1-45.7-.1-1.4 0-2.8 0-5.8 0-11.6 0-52.4 0-104.9 0-49.6-.1-99.2-.1-1.6 0-3.1 0-6.2 0-12.4 0-3 0-6.1 0-3.1 0-6.1 0-48.9 0-97.8 0-14.3 0-28.6 0-30.2 0-60.4 0-12.5 0-25 0-10.4 0-20.8-.1-5.3 0-10.5 0-4.9 0-9.7 0-1.8 0-3.5 0c-20.5.1-38.9-6.1-53.9-20.5-17.9-18.4-22.1-40.6-22-65.5q0-3.5 0-7 0-8.7 0-17.4.1-11.8 0-23.5 0-19.9.1-39.7 0-19.4 0-38.8v-54.5l.1-92.3.3-291.9h816z" fill="#feefb2"/><path d="M627 307.9c4.2 1.5 5.7 3.3 8 7.1 0 6.5-2.6 9.6-6.8 14.1l-1.8 2q-2.7 3-5.4 5.9-1.6 1.7-3.1 3.4-3.7 4-7.4 8-2.2 2.4-4.4 4.7L593 367.2l-17.9 19.4q-1.2 1.3-2.4 2.7c-2.1 3.3-2.5 5.8-2.7 9.7 1.3 2.9 2.1 4.5 5 6 3 .6 5.1.6 7.7-1 6.7-5.5 12.1-12.5 17.6-19q3.1-3.7 6.3-7.3 3-3.5 5.9-7 4.5-5.2 9-10.4 3.8-4.5 7.6-8.9c18.8-22.1 18.8-22.1 23.7-22.8 3.2.4 3.2.4 6.1 3 1.6 2.3 2.2 3.8 3 6.7-1.2 4.9-3.7 7.2-7.2 10.9-2.9 3-5.4 6.1-7.9 9.4-4.2 5.4-8.4 10.6-12.8 15.9q-8.5 10.3-16.6 20.8-2.2 2.7-4.4 5.5-.7.9-1.5 1.9-1.4 1.7-2.8 3.5c-5.3 6.3-5.3 6.3-8.3 13.9.8 4 2.3 5.5 5.6 7.9 2.9 1 2.9 1 6 0 11.8-7 20.4-22.2 28.7-33 6.5-8.5 13.5-16.6 20.9-24.4q3.7-4.1 7.4-8.2 2.5-2.7 5-5.4l1.6-1.8c1.4-1.2 1.4-1.2 4.8-1.7 3.6.5 3.6.5 6.5 2.5 2.1 3 3.1 5.1 2.8 8.8-1.3 4-4.3 6.7-7.2 9.6-2.3 2.4-4.3 4.8-6.3 7.4q-4.1 5.1-8.4 10.1c-7.1 8-13.5 16.5-19.8 25.1q-.8 1.1-1.6 2.2c-5.7 7.8-11.3 15.5-16.5 23.6-11.8 17.9-24.7 32.4-46.3 38.1-11.8 2.4-23.1 1.8-34.6-1.9l-29.1 34.7c-1.9 2.3-1.9 2.3-4.7 4.9-1.8 2.1-2.2 3.1-2.2 5.9.4 2.9 1 5.8 1.6 8.7q.6 2.9 1.3 5.9.3 1.5.6 3c6.4 35-2.3 70.9-13.5 103.9q.9-1.2 1.8-2.4 13.3-17.3 27-34.3 4.7-5.9 9.3-11.9 2.3-2.9 4.6-5.8c5-6.1 9.8-12.2 14.4-18.7 19.4-27.5 19.4-27.5 29.9-30.9 4.3-.6 7.9-.5 11.9 1.3 3.6 3 4.9 4.7 6 9.5.7 8.7-4.7 15.1-9.8 21.6q-2 2.6-4 5.3-1.1 1.3-2.1 2.7c-3 3.9-5.9 7.9-8.7 11.9q-1.7 2.2-3.3 4.5-.7 1-1.5 2.1-10 13.9-20.5 27.5l-17.2 23.2q-4.4 6-8.8 11.9-1.7 2.4-3.5 4.7-3.5 4.8-7 9.6-8.7 11.7-17.2 23.6-6.7 9.2-13.6 18.1c-9 11.6-17.8 23.4-26 35.6-3.9 5.8-8 11.4-12.3 17-3.5 4.7-7 9.5-10.3 14.3q-.8 1-1.5 2.1-3.1 4.4-6.2 8.9c-14.5 20.8-14.5 20.8-23.5 25.1-7.1 1.2-12 .6-17.9-3.5-5.2-4.9-8.2-9.9-8.5-17.1.2-9.7 6-16.8 12.4-23.6 3.6-3.9 6.8-8.1 10.1-12.3-1.3.2-1.3.2-2.6.5-13.9 2.1-25.8-1.1-38.9-5.2-4.1-1.3-8.2-2-12.5-2.3q-1.4-.1-2.8-.2c-10.8-.4-20.8 2.2-31 5.4-17.3 5-35.6 4.9-52.2-2.2l-3.5-1.5c-30.5-14-52.6-42.3-67.5-71.5q-.6-1.1-1.2-2.2c-11.3-21.9-18.1-45.7-22.8-69.8q-.2-1.1-.4-2.2c-7.2-38.7-1-82.6 20.3-115.8 15.6-22.2 38-39 65.1-44 5-.5 9.9-.5 14.9-.5q1.1 0 2.1 0c21.7.2 40.7 7.1 61 14.5q0-1.1 0-2.2c0-5.2 0-10.3.5-15.5q.1-1.5.3-3.1.1-1.1.2-2.2-1.5.1-3.1.2c-23.8-.1-46.1-12.8-62.7-29-17.1-17.5-27.8-42.9-29.5-67.4.4-3.3 1.3-5.1 3.3-7.8 9.5-6.3 29.4-1 40 1 16.6 3.7 30.3 12 42 24q1 1 2 2c7.4 7.9 12.6 17.4 16.5 27.4l.8 2c1.4 4 2 7.4 1.7 11.6q1 0 2 0 .5-1.8 1-3.7c3.6-10.7 10.8-19.7 18-28.3l2.3-3.1c5.9-7.1 16.1-15.1 25.5-16.2 7.5-.3 7.5-.3 10 1.7 2.5 3.3 2.7 7.4 2.7 11.5-1 4.1-4.5 5.8-7.9 8q-2.2 1.5-4.4 3.1-1.1.7-2.2 1.5c-21.3 15.7-32.6 45-36.6 70.3q-.8 5.6-1.4 11.2 1.4-.5 2.8-1c35.5-12.1 35.5-12.1 51.2-13q1.2-.1 2.4-.1c30.4-1.5 56.7 10 79.2 30q3.8 3.5 7.4 7.1c9.5-9.3 9.5-9.3 18.4-19.2 1.9-2.1 4-3.9 6.1-5.9 3.1-3 3.1-3 3.6-7.3q-.5-1.8-1.1-3.6c-4.6-16.4-2.5-32.5 5.2-47.7 5.3-9.3 12-16.7 19.9-23.9 6.3-5.7 12.3-11.7 18.3-17.6q.8-.8 1.6-1.6c5.3-5.4 10.6-10.7 15.5-16.5 2.2-2.5 4.5-4.7 6.9-7 3.6-3.6 6.9-7.2 10.1-11.2 15.5-19.4 15.5-19.4 23.5-19.6z" fill="#fc8f04"/><path d="M306 62c9.2 5.8 15.5 13.7 19 24 .5 3.2.5 6.4.4 9.6q0 1.3 0 2.7-.1 4.1-.2 8.3 0 2.8 0 5.6-.1 6.9-.2 13.8h1.7q27.5-.5 55-1 3.4 0 6.8-.1c91.3-1.4 182.5-1.3 310.5.1q0-1.6-.1-3.2-.1-6-.1-12.1 0-2.5-.1-5.1c-.4-18.4-.4-18.4 4.3-26.6l1.8-3.2C711 66.9 717.4 62.2 727 59c11.8-.7 21.6-.4 31.2 7.3 7.4 6.8 13.1 15.5 14 25.7q0 3.3 0 6.6v2.3q0 3.8-.1 7.5 0 2.6 0 5.1 0 6.3-.1 12.5 1.5 0 3 0 14.2-.2 28.4-.3 7.3 0 14.6-.1c59.1-.7 59.1-.7 81.1 20.3 14.6 14.6 19.9 32 21.9 52.1v64H104c0-94.1 0-94.1 20.2-115.8 17.7-16.7 39-20.5 62.4-20.4q2.8 0 5.6 0 7.5 0 14.9.1 7.6 0 15.2 0 14.8 0 29.7.1 0-1.6-.1-3.2-.1-6-.1-12 0-2.6-.1-5.2c-.3-14.5 1-25.5 11.3-36.6 10.5-10.9 29.3-14.8 43-7z" fill="#10919b"/><path d="M770.6 378.5c18.5 12.2 28.3 31.3 32.9 52.5.5 3 .5 3 .7 6.7.5 3.5.5 3.5 3.5 5.2l3.5 1.4C829 452.2 842 465.9 849 484c7.7 22.3 4.5 45.4-5.6 66.4-4.7 8.9-10.1 16.7-17.4 23.6 1.4 3.6 3 6.9 4.9 10.3 9.4 18.8 9 39 2.9 58.8-8.4 25-27.6 43.9-50.8 55.9-6.5 3-13.1 5.4-19.8 7.6-17.2 5.8-31.4 12.5-45.2 24.4-.8.7-.8.7-1.6 1.3-5.2 4.5-10 9.2-14.5 14.4-2.5 3-5.1 5.8-7.8 8.6-3.7 4-7.2 8-10.6 12.3-8.1 10-17.4 18.5-27.5 26.4q-1.4 1.2-2.9 2.4c-20 16.1-49.4 33.4-75.9 32.9-3-.4-4.9-1.3-7.2-3.3-2.8-4.3-2.6-8-2-13 3.5-6.8 11.4-8.8 18.1-11.3 28.7-10.9 53.4-31.4 66.8-59.4q1.1-2.6 2.1-5.3.5-1.2 1-2.4c4-12 3.9-27.1-1.3-38.7-4.8-8.3-11-15.4-17.5-22.5-17.1-18.9-24.3-38.6-23.4-64 1.1-14.2 9.2-26.8 19.2-36.4 2.6-2.1 5.2-4.1 8-6-1.4-4.5-3.2-8.4-5.4-12.6-9.7-18.9-11.9-41.9-5.4-62.4 6.9-20.2 19.9-35.4 38.9-45.3 6.1-2.9 12-5.7 18.9-5.7q.1-.8.2-1.7c3.8-22.9 17.9-45.8 36.5-59.7 13.8-9.3 31.7-9.5 45.9-1.1z" fill="#004e53"/><path d="M627 307.9c4.2 1.5 5.7 3.3 8 7.1 0 6.5-2.6 9.6-6.8 14.1l-1.8 2q-2.7 3-5.4 5.9-1.6 1.7-3.1 3.4-3.7 4-7.4 8-2.2 2.4-4.4 4.7L593 367.2l-17.9 19.4q-1.2 1.3-2.4 2.7c-2.1 3.3-2.5 5.8-2.7 9.7 1.3 2.9 2.1 4.5 5 6 3 .6 5.1.6 7.7-1 6.7-5.5 12.1-12.5 17.6-19q3.1-3.7 6.3-7.3 3-3.5 5.9-7 4.5-5.2 9-10.4 3.8-4.5 7.6-8.9c18.8-22.1 18.8-22.1 23.7-22.8 3.2.4 3.2.4 6.1 3 1.6 2.3 2.2 3.8 3 6.7-1.2 4.9-3.7 7.2-7.2 10.9-2.9 3-5.4 6.1-7.9 9.4-4.2 5.4-8.4 10.6-12.8 15.9q-8.5 10.3-16.6 20.8-2.2 2.7-4.4 5.5-.7.9-1.5 1.9-1.4 1.7-2.8 3.5c-5.3 6.3-5.3 6.3-8.3 13.9.8 4 2.3 5.5 5.6 7.9 2.9 1 2.9 1 6 0 11.8-7 20.4-22.2 28.7-33 6.5-8.5 13.5-16.6 20.9-24.4q3.7-4.1 7.4-8.2 2.5-2.7 5-5.4l1.6-1.8c1.4-1.2 1.4-1.2 4.8-1.7 3.6.5 3.6.5 6.5 2.5 2.1 3 3.1 5.1 2.8 8.8-1.3 4-4.3 6.7-7.2 9.6-2.3 2.4-4.3 4.8-6.3 7.4q-4.1 5.1-8.4 10.1c-7.1 8-13.5 16.5-19.8 25.1q-.8 1.1-1.6 2.2c-5.7 7.8-11.3 15.5-16.5 23.6-11.8 17.9-24.7 32.4-46.3 38.1-11.8 2.4-23.1 1.8-34.6-1.9l-26.9 31.9c-4.7 5.9-9.6 11.6-14.5 17.3q-3.1 3.5-6.1 7-6.2 7.3-12.5 14.6-8.7 9.9-17 20.2-7.8 9.7-15.9 19.2-4.5 5.3-8.8 10.7c-3.1 3.7-6.2 7.1-9.6 10.5-1.7 1.6-3.2 3.3-4.8 5.1-3.4 4.1-7.1 7.9-10.8 11.8-4.2 4.5-8.3 9-12.1 13.8-4.4 5.5-9.2 11.3-16.5 12.2-8.5.2-13.1-1.1-19.3-7-6.8-7-12.8-14.7-18.8-22.5l-7.5-9.4q-5.5-6.8-10.8-13.8c-4.9-6.4-10-12.7-15.1-19q-.8-.9-1.5-1.8-1.5-1.8-3-3.4c-3.3-3.8-4.4-6.2-4.7-11.2.4-4.6 2.8-7.7 6-11.1 3.4-1.7 5.4-1.7 9.2-1.1 11.4 5.4 21.5 16.6 30.8 25q3 2.7 6.1 5.4 4.9 4.3 9.6 8.6l9.9 9q.9.8 1.8 1.6c1.9 1.5 3.7 2.4 5.8 3.4 4.9-5.3 9.7-10.6 14.3-16.2 8.4-10.4 17.8-20 27.3-29.4 3.4-3.3 6.6-6.8 9.7-10.5L454 538c.7-.7.7-.7 1.3-1.5 5.4-5.9 10.9-11.8 16.7-17.4 1.8-1.9 3.5-3.8 5.1-5.7 3.6-4.2 7.5-8 11.4-11.8 4.7-4.7 9-9.2 12.9-14.6 2.5-3.2 5.5-6 8.4-8.8 2.6-2.6 5-5.4 7.4-8.2 2-2.2 4.1-4.1 6.3-6.1 3.1-3 3.1-3 3.6-7.3q-.5-1.8-1.1-3.6c-4.6-16.4-2.5-32.5 5.2-47.7 5.3-9.3 12-16.7 19.9-23.9 6.3-5.7 12.3-11.7 18.3-17.6q.8-.8 1.6-1.6c5.3-5.4 10.6-10.7 15.5-16.5 2.2-2.5 4.5-4.7 6.9-7 3.6-3.6 6.9-7.2 10.1-11.2 15.5-19.4 15.5-19.4 23.5-19.6zm-25.1 235.4c3.6 3 4.9 4.7 6 9.5.7 8.7-4.7 15.1-9.8 21.6q-2 2.6-4 5.3-1.1 1.3-2.1 2.7c-3 3.9-5.9 7.9-8.7 11.9q-1.7 2.2-3.3 4.5l-1.5 2.1q-10 13.9-20.5 27.5l-17.2 23.2q-4.4 6-8.8 11.9-1.7 2.4-3.5 4.7-3.5 4.8-7 9.6-8.7 11.7-17.2 23.6-6.7 9.2-13.6 18.1c-9 11.6-17.8 23.4-26 35.6-3.9 5.8-8 11.4-12.3 17-3.5 4.7-7 9.5-10.3 14.3q-.8 1-1.5 2.1-3.1 4.4-6.2 8.9c-14.5 20.8-14.5 20.8-23.5 25.1-7.1 1.2-12 .6-17.9-3.5-5.2-4.9-8.2-9.9-8.5-17.1.2-9.7 5.9-16.6 12.2-23.4 2.8-3 5.3-6.2 7.8-9.4q.7-.9 1.4-1.9 1.4-1.8 2.8-3.6c7.9-10.1 16.2-19.8 24.7-29.5 6-6.9 12-13.9 17.6-21.1q1.5-2 3.1-3.9l20.5-26.9q7.4-9.9 15.1-19.5 3.4-4.4 6.8-8.7 1.4-1.8 2.8-3.5.6-.9 1.3-1.7 2.1-2.7 4.2-5.3.6-.9 1.3-1.7 1.4-1.8 2.8-3.6 3.4-4.3 6.8-8.7 8-10.2 16.1-20.2 4.7-5.9 9.3-11.9 2.3-2.9 4.6-5.8c5-6.1 9.8-12.2 14.4-18.7 25.8-36.6 25.8-36.6 41.8-29.6z" fill="#014d52"/><path d="M306 62c9 5.7 15.8 13.7 19 24 .6 4.6.6 9.2.6 13.9q0 2 .1 4 0 5.4 0 10.8.1 5.5.1 11.1.1 8.7.1 17.4.1 8.4.2 16.8.1 4.8.2 9.6 0 3.1.1 6.1c.1 12.5-2.7 23.1-11.4 32.3-.8.8-.8.8-1.6 1.7-7 6.9-16.8 9.8-26.5 10-9.7-.1-17.2-3.9-24.3-10.3-8.3-9.1-10.7-19-10.8-30.9q0-1.4 0-2.9 0-4.7 0-9.4 0-1.6-.1-3.2 0-8.5 0-17.1 0-8.8-.1-17.5 0-6.8 0-13.6 0-3.2-.1-6.5c-.1-16.7 1.1-28.5 13.2-41 10.4-9.7 28.6-12.5 41.3-5.3z" fill="#004e52"/><path d="M750.1 61c10.3 5.5 17.2 13.9 20.9 25q.2 2.8.2 5.6 0 1.8.1 3.6V99a53.4 53.4 0 0 0 .1 4q.1 6.4.2 12.9 0 2.2 0 4.4.2 10.9.3 21.8.1 8.6.3 17.2 0 5.1.1 10.2 0 2.2.1 4.4c.2 13.4-2.2 24.9-11.4 35.1-2.8 2.4-5.7 4.3-9 6l-2.2 1.2c-7.8 3.8-17.4 4.6-25.8 2.2-10.3-3.8-17.8-10.4-22.7-20.2-3.9-9.8-3-20.3-2.9-30.6q0-3.4 0-6.8 0-7.1 0-14.2 0-9 0-18.1 0-7 0-14 0-3.4 0-6.7 0-4.7.1-9.4 0-1.4-.1-2.8c.2-11.4 5.4-21 13.5-28.9 10.3-8.3 25.8-10.8 38.2-5.7z" fill="#004d52"/><path d="M284 343c16.6 3.7 30.3 12 42 24q1 1 2 2c7.4 7.9 12.6 17.4 16.5 27.4q.4 1 .8 2c1.4 4 2 7.4 1.7 11.6q1 0 2 0 .5-1.8 1-3.7c3.6-10.7 10.8-19.7 18-28.3q1.1-1.5 2.3-3.1c5.9-7.1 16.1-15.1 25.5-16.2 7.5-.3 7.5-.3 10 1.7 2.5 3.3 2.7 7.4 2.7 11.5-1 4.1-4.5 5.8-7.9 8q-2.2 1.5-4.4 3.1-1.1.7-2.2 1.5c-19 14-31.4 40.6-35.4 63.6-.9 6.6-1.7 13.2-2.2 19.9q-.1 1-.2 2-.3 2.9-.5 5.7c-.9 4.4-2.8 7.9-6.6 10.7-2.9.8-5.1 1-8.1.6-3.3-2.2-4.7-3.2-6-7q-.1-2.3-.1-4.7 0-1.4 0-2.8 0-1.4 0-2.9 0-1.5 0-3c0-6.9.3-13.7 1.1-20.6q-1.5.1-3.1.2c-23.8-.1-46.1-12.8-62.7-29-17.1-17.5-27.8-42.9-29.5-67.4.4-3.3 1.3-5.1 3.3-7.8 9.5-6.3 29.4-1 40 1z" fill="#024c52"/><path d="M745 437.4c5.5.3 5.5.3 7.7 1.8 5 7 .5 21.8-.5 30q-.3 2.2-.6 4.5-.5 4.5-1.1 9.1-.7 5.6-1.3 11.3c-1.1 9.5-2.3 18.9-3.8 28.3-1.5 9.2-2.1 18.3-2.4 27.6l1.8-2c12.8-14.1 25.7-27.5 41.3-38.6q2.7-2 5.4-4 1.5-1.1 3.1-2.3 1.3-.9 2.7-1.9c3.6-1.6 5.9-1.2 9.7-.2 2.5 2.8 2.5 2.8 4 6-.2 3-.5 4.5-2.7 6.6q-1 .7-2.1 1.4-1.2.8-2.4 1.6-1.2.8-2.5 1.6-2.7 1.7-5.3 3.4-1.3.9-2.6 1.8c-11.2 7.5-21.8 16.1-30.4 26.6q-1.2 1.4-2.4 2.9c-17.8 22.2-25.7 48.2-33.4 75.2q-.4 1.5-.9 3.1c-1.9 6.9-3.3 13.7-4.3 20.8 3.3-.6 4.9-1.6 7.2-4q.9-1 1.8-1.9c1-1 1-1 1.9-2 12.9-13.2 35.6-33.7 54.9-35.4 3.2.3 3.2.3 5.6 3 1.6 3.3 1.7 4.8 1.6 8.3q-1.4.8-2.9 1.5-3 1.6-6 3.2l-9 4.7c-35.2 18.1-59.1 52.5-76 87.3-2.6 5.4-5.4 10.8-8.2 16.1q-.8 1.4-1.5 2.9-2.2 4.1-4.4 8.3-.8 1.5-1.6 3.1-.8 1.5-1.6 3-.8 1.4-1.5 2.8C681 755 681 755 679 756c-3.7.4-5.6.2-8.9-1.6-2.1-2.4-2.1-2.4-2-5.6 1-4 2.4-7.2 4.5-10.7q1.1-2 2.2-4 .5-1 1.1-2c2.9-5.3 5.5-10.7 8.1-16.1q1.5-2.9 2.9-5.8c8.4-16.7 12.7-35.5 7.6-54-6.5-17.7-17.7-32.6-31.8-45-1.7-2.2-1.7-2.2-2.1-5.3.5-3.8 1.5-5.4 4.4-7.9 3.3-.8 3.3-.8 7 0 13.8 9.8 28.1 31.7 34 47q0 2 0 4 1 0 2 0 .1-.8.2-1.7c1.3-9.4 2.7-18.9 4.4-28.4q.1-1 .3-2.1.8-4.4 1.7-8.8c5.2-25.9-1.1-52.1-15.6-74-5.3-7.6-10.8-14.9-17.3-21.5-2.7-2.9-4.3-4.8-4.5-8.9.8-3.6.8-3.6 2.4-6.1 3.1-1.9 4.8-1.9 8.4-1.5 14.5 10.8 24.6 31.3 33 47q2 3.5 4 7c3.3-3.3 3.2-7.7 3.9-12.2.2-1.6.2-1.6.5-3.3 1.5-10 2.6-20 3.6-30q.1-1.2.2-2.5 1.4-13.3 2.5-26.6.5-5.6 1.1-11.3.3-4 .6-8.1.3-2.4.5-4.9c.1-1.1.1-1.1.1-2.3.5-4.9 1.8-9.9 7-11.4z" fill="#178988"/><path d="M263 359c5.9.6 11.1 1.8 16.8 3.7q1.1.4 2.3.8c11 3.8 20.2 8.7 28.9 16.5q1.1 1 2.2 1.9c11 10.4 15.8 24.5 18.8 39.1q0 2 0 4c-9.5-.9-18.2-2.1-27-6q-1.3-.5-2.5-1.1c-6.7-3-12-7.1-17.5-11.9q-.9-.8-1.9-1.6c-8.2-7.5-13-17.3-16.5-27.7q-.4-1-.8-2.2c-1.6-5.1-2.3-10.1-2.8-15.5z" fill="#1e8282"/></svg>