<svg xmlns="http://www.w3.org/2000/svg" width="1024" height="1024" xmlns:v="https://vecta.io/nano"><path fill-rule="evenodd" d="M709.7 107.8q1.2-.1 2.5-.1c33.8-.3 33.8-.3 49.8 4.3q1.1.3 2.1.6c22.5 6.2 43.5 16.2 61.9 30.4q1.4 1.1 2.9 2.2c31.5 24.9 55.8 64.7 60.7 105 3.9 43.8-3 89.1-31.7 124q-2.7 3.2-5.6 6.3-1.9 2.2-3.8 4.4c-5.7 6.5-11.8 11.8-18.5 17.1q-1.2 1-2.5 2.1c-6.4 5.3-13.2 9.7-20.5 13.9q-.9.5-1.9 1.1c-20.2 11.5-41.3 18.1-64.1 21.9q.6.6 1.2 1.3l18.2 19.8c1.9 2.3 4 4.5 6 6.7 3.2 3.6 6.2 7.2 9.2 10.9 2.5 3.1 5 6 7.9 8.8 3.7 3.6 6.9 7.6 10.1 11.6 2.4 2.9 4.9 5.7 7.4 8.4 4.1 4.5 8 9 11.8 13.8q2.2 2.7 4.4 5.3c14.7 17 24.5 38.5 24.2 61.1q0 1.7 0 3.4c-.5 24-9.7 41.7-26.8 58.5-3.4 3.1-6.9 6-10.6 8.9-3.5 2.9-6.9 5.8-10.3 8.8q-1.9 1.7-3.9 3.4-.9.8-1.9 1.6l-27.3 23.3q-3.2 2.8-6.5 5.5-1.6 1.4-3.2 2.8-4.1 3.4-8.2 6.9c-5 4.3-10 8.5-15.1 12.6-4.3 3.5-8.5 7.1-12.7 10.7q-7 6.1-14.3 11.8a357.31 357.31 0 0 0-9 7.5l-20.3 16.8q-7.5 6.1-14.9 12.4-6.8 5.8-13.8 11.3c-3.1 2.5-6.1 5-9.1 7.6q-6.7 5.7-13.7 11.2-5.4 4.4-10.9 8.9-1 .9-2.2 1.8-5.5 4.6-11 9.2-6.3 5.2-12.7 10.4-1.1.9-2.2 1.8c-14.6 11.7-28.5 18.8-46.8 23.2q-1.2.3-2.4.6c-22.7 3.4-44.2-2.7-62.7-15.8-9.5-7.5-17.9-16.3-25.5-25.8-2.8-3.5-5.8-7-8.8-10.4l-22-26c-4.1-5-8.4-10-12.7-14.9-6.9-7.9-13.7-16-20.3-24.1-3.5-4.3-7-8.5-10.6-12.6q-6.5-7.5-12.7-15.2-3.9-4.7-7.8-9.3-5.1-5.9-10-12L323 685l-15.4-18.4c-3.5-4.3-7-8.5-10.6-12.6q-6.5-7.5-12.7-15.2-3.9-4.7-7.8-9.3-5-5.9-9.9-11.9c-3.5-4.3-7-8.5-10.6-12.6q-6.5-7.5-12.7-15.2-3.8-4.6-7.7-9.2-.7-.8-1.4-1.6-3.5-4.1-7-8.2a605.14 605.14 0 0 1-17.7-21.9q-2.4-3-4.8-6c-18.2-22.6-26.1-48.2-23.2-77.3q.3-3 .7-6 .2-1.6.4-3.3c1.8-15.2 4.2-30.3 6.6-45.4q1-6.3 2-12.7 1.6-10.2 3.3-20.5 1.9-12.3 3.8-24.6 1.4-8.4 2.7-16.9.3-1.7.5-3.4l6.2-37.7q1.3-7.8 2.3-15.8c3.2-24 15.5-44.8 33.7-60.6 15.1-11.4 33.3-16.4 52.1-17.2q1.4-.1 2.8-.1c16.3-.7 32.6-1 48.9-1.3q4.4-.1 8.7-.2L461 198q1.6 0 3.2 0 8.7-.1 17.4-.2 2.5 0 5 0c30.6-.3 52.1 10.4 75.4 29.2q.4-1 .8-2.1 1.3-3.1 2.7-6.2 1.1-2.8 2.3-5.6c8.8-21.5 21.2-39.4 37.2-56.1q1.3-1.4 2.7-2.8c25.8-26.8 64.4-46.1 102-46.4zm-393.1 206c-7.3 6.3-12 15.8-12.9 25.4-.1 11.4 3.2 22.6 11.3 31.1 8.4 7.3 18.4 11.3 29.6 10.9 10.3-.9 19.7-4.5 26.8-12.3 8.7-10.5 11.6-20.2 10.6-33.9l-1-3c-2.5-7.8-6-13.4-12-19-16.2-13.3-36.3-11.3-52.4.8z" fill="#81c4fe"/><path d="M709.7 107.8q1.2-.1 2.5-.1c33.8-.3 33.8-.3 49.8 4.3q1.1.3 2.1.6c22.5 6.2 43.5 16.2 61.9 30.4q1.4 1.1 2.9 2.2c31.5 24.9 55.8 64.7 60.7 105 3.9 43.8-3 89.1-31.7 124q-2.7 3.2-5.6 6.3-1.9 2.2-3.8 4.4c-5.7 6.5-11.8 11.8-18.5 17.1q-1.2 1-2.5 2.1c-6.4 5.3-13.2 9.7-20.5 13.9q-.9.5-1.9 1.1c-20.2 11.5-41.3 18.1-64.1 21.9q.6.6 1.2 1.3l18.2 19.8c1.9 2.3 4 4.5 6 6.7 3.2 3.6 6.2 7.2 9.2 10.9 2.5 3.1 5 6 7.9 8.8 3.7 3.6 6.9 7.6 10.1 11.6 2.4 2.9 4.9 5.7 7.4 8.4 4.1 4.5 8 9 11.8 13.8q2.2 2.7 4.4 5.3c14.7 17 24.5 38.5 24.2 61.1q0 1.7 0 3.4c-.5 24-9.7 41.7-26.8 58.5-3.4 3.1-6.9 6-10.6 8.9-3.5 2.9-6.9 5.8-10.3 8.8q-1.9 1.7-3.9 3.4-.9.8-1.9 1.6l-27.3 23.3q-3.2 2.8-6.5 5.5-1.6 1.4-3.2 2.8-4.1 3.4-8.2 6.9c-5 4.3-10 8.5-15.1 12.6-4.3 3.5-8.5 7.1-12.7 10.7q-7 6.1-14.3 11.8a357.31 357.31 0 0 0-9 7.5l-20.3 16.8q-7.5 6.1-14.9 12.4-6.8 5.8-13.8 11.3c-3.1 2.5-6.1 5-9.1 7.6q-6.7 5.7-13.7 11.2-5.4 4.4-10.9 8.9-1 .9-2.2 1.8-5.5 4.6-11 9.2-6.3 5.2-12.7 10.4-1.1.9-2.2 1.8c-14.6 11.7-28.5 18.8-46.8 23.2q-1.2.3-2.4.6c-22.7 3.4-44.2-2.7-62.7-15.8-9.5-7.5-17.9-16.3-25.5-25.8-2.8-3.5-5.8-7-8.8-10.4l-22-26c-4.1-5-8.4-10-12.7-14.9-6.9-7.9-13.7-16-20.3-24.1-3.5-4.3-7-8.5-10.6-12.6q-6.5-7.5-12.7-15.2-3.9-4.7-7.8-9.3-5.1-5.9-10-12L323 685l-15.4-18.4c-3.5-4.3-7-8.5-10.6-12.6q-6.5-7.5-12.7-15.2-3.9-4.7-7.8-9.3-5-5.9-9.9-11.9c-3.5-4.3-7-8.5-10.6-12.6q-6.5-7.5-12.7-15.2-3.8-4.6-7.7-9.2-.7-.8-1.4-1.6-3.5-4.1-7-8.2a605.14 605.14 0 0 1-17.7-21.9q-2.4-3-4.8-6c-18.2-22.6-26.1-48.2-23.2-77.3q.3-3 .7-6 .2-1.6.4-3.3c1.8-15.2 4.2-30.3 6.6-45.4q1-6.3 2-12.7 1.6-10.2 3.3-20.5 1.9-12.3 3.8-24.6 1.4-8.4 2.7-16.9.3-1.7.5-3.4l6.2-37.7q1.3-7.8 2.3-15.8c3.2-24 15.5-44.8 33.7-60.6 15.1-11.4 33.3-16.4 52.1-17.2q1.4-.1 2.8-.1c16.3-.7 32.6-1 48.9-1.3q4.4-.1 8.7-.2L461 198q1.6 0 3.2 0 8.7-.1 17.4-.2 2.5 0 5 0c30.6-.3 52.1 10.4 75.4 29.2q.4-1 .8-2.1 1.3-3.1 2.7-6.2 1.1-2.8 2.3-5.6c8.8-21.5 21.2-39.4 37.2-56.1q1.3-1.4 2.7-2.8c25.8-26.8 64.4-46.1 102-46.4zM426 231.1q-19.6.1-39.3.3-3.5 0-7.1.1-23.2.2-46.5.5-4.6 0-9.3.1-7.3.1-14.7.2-2.6 0-5.3.1c-17.2.2-33.5 2.7-46.6 15.1-9 10.5-15.1 23.6-17.1 37.2q-1.1 7.5-2.5 15c-3.9 20.5-7.1 41.2-10.2 61.9q-.1.9-.3 2-1.2 8.8-2.5 17.6-2.4 16.3-5 32.7-.1 1.1-.3 2.2c-1.4 8.6-2.9 17-4.6 25.5-3.7 18.5-6.6 38.1-.7 56.4l1 3c4.5 12.2 12.8 22 21.6 31.4 2.9 3.2 5.6 6.5 8.2 9.9 4.6 5.7 9.4 11.2 14.2 16.7l18.7 22.2c2.7 3.3 5.5 6.6 8.4 9.9 3.3 3.9 6.7 7.8 9.9 11.9 4.7 5.9 9.6 11.5 14.5 17.2q9.7 11.4 19.2 23c3 3.7 6.1 7.3 9.2 11q4.3 5.1 8.5 10.2c3.4 4.2 6.9 8.3 10.5 12.4 4.5 5.3 8.9 10.7 13.2 16.2 3.3 4.3 6.9 8.4 10.6 12.4 2.7 3.1 5.2 6.3 7.7 9.5 3.4 4.4 6.8 8.6 10.6 12.6 3.7 3.9 7 8 10.3 12.2 5.5 7.1 11.3 13.8 17.1 20.5 6.6 7.5 13 15.2 19.3 23 3 3.7 6.1 7.3 9.2 11q4.3 5.1 8.5 10.2 2.3 2.8 4.6 5.6.7.8 1.4 1.7c11.2 13.7 22.8 23.4 40.6 27.3 9.4.6 18 0 27-3l3-1c8-3 13.7-7.4 20-13q3.2-2.8 6.5-5.5 1.7-1.4 3.3-2.8l11.4-9.4c3.1-2.5 6.1-5.1 9.1-7.7 5.1-4.3 10.2-8.4 15.5-12.5 4.6-3.6 9.1-7.4 13.6-11.2q4.7-4 9.5-7.8c7.8-6.2 15.2-12.7 22.6-19.2 6.3-5.4 12.6-10.6 19.2-15.7 5.1-4 10.1-8.3 15-12.6 4.2-3.6 8.4-7.1 12.8-10.6 3.6-2.9 7.1-5.9 10.6-8.9q5.1-4.3 10.3-8.5c4.9-4 9.7-8.1 14.4-12.2q5.3-4.5 10.6-8.8c4.5-3.6 8.8-7.3 13.1-11.1q7.7-6.7 15.7-13.2l13.6-11.5q2.8-2.4 5.6-4.8c8.1-6.6 14.6-15.5 16.6-26 1-11.3 1.1-23.3-3-34q-.5-1.4-1.1-2.9c-5.7-12.8-16.4-22.6-25.9-32.7-4.1-4.4-8-8.9-11.7-13.7-2.7-3.2-5.5-6.2-8.3-9.2-4.5-4.8-8.6-9.7-12.7-14.8-2.5-3-5.1-5.8-7.8-8.7a175.51 175.51 0 0 1-9.9-11.4c-4.4-5.5-9.1-10.5-13.8-15.6q-3.3-3.6-6.6-7.3-.8-.9-1.6-1.8c-1.6-1.9-1.6-1.9-3.2-4.2-5.1-7-10.7-8.1-18.7-9.7-14-2.8-27.3-9.2-39.7-16q-1-.6-2.1-1.2c-14.4-7.9-26.9-17.5-38.9-28.8q-.9-.8-1.8-1.6c-27.5-26.1-42.8-63-45.2-100.4q-.1-2.9-.1-5.8v-2.9q0-3 0-6c-.1-5.3-.4-8.5-4.2-12.3q-1.8-1.5-3.7-3-1.8-1.6-3.6-3.3-2.2-1.9-4.4-3.7c-1.4-1.2-1.4-1.2-2.9-2.4-13.8-11.3-29.3-18.2-47.3-17.9q-1.7 0-3.4 0-5.6 0-11.3.1-3 0-6.1 0-13.1 0-26.3.2-9.3 0-18.7.1z" fill="#003caf"/><path d="M808 169c3.4 2.9 6.7 5.9 10 9q1.2 1.1 2.5 2.3c23.1 22 37.9 55.3 38.8 87.2q0 3.4 0 6.7 0 1.7 0 3.5c-.1 9.7-1 18.9-3.3 28.3q-.2 1-.5 2.1c-5.4 22.6-17.1 41.8-32.5 58.9q-.7.8-1.4 1.6c-22.8 24.9-56.4 39.5-89.9 41.6-13.2.5-25.9.1-38.7-3.2q-1-.2-2-.5c-21.4-5.4-40.2-15.2-57-29.5q-1.2-1-2.5-2.1c-9.4-8.1-16.7-17.6-23.5-27.9-.8-1.1-.8-1.1-1.5-2.3-5-7.7-8.2-16.1-11.5-24.7q-.7-1.8-1.4-3.7c-11.3-30.9-9.3-66.7 4.3-96.5 6.8-14.4 15.5-27 26.1-38.8q.9-1.1 1.9-2.1c46.7-50 130.2-53.1 182.1-9.9z" fill="#feb900"/><g fill="#003cae"><path fill-rule="evenodd" d="M386.9 285.9c13.4 10.1 24.4 27.4 27.1 44.1 1.8 20.5-1 38.9-14.5 55.1-13.9 16-31.1 26.3-52.5 28.1-20.8 1.1-37.6-5.3-53.4-18.9-10.9-9.8-20.6-25.1-21.8-40-.9-22.2 1.8-40.2 16.7-57.6 7.2-7.8 15-13.2 24.3-18.2q1.1-.6 2.3-1.3c23.2-11.8 51-5 71.8 8.7zm-70.3 27.9c-7.3 6.3-12 15.8-12.9 25.4-.1 11.4 3.2 22.6 11.3 31.1 8.4 7.3 18.4 11.3 29.6 10.9 10.3-.9 19.7-4.5 26.8-12.3 8.7-10.5 11.6-20.2 10.6-33.9l-1-3c-2.5-7.8-6-13.4-12-19-16.2-13.3-36.3-11.3-52.4.8z"/><path d="M632.8 511c11.6 8.8 20.1 20.6 23.2 35 .9 12.3 1.1 24.5-4 36-.7 1.5-.7 1.5-1.3 3.1-6.4 13.9-17.6 24-31.7 29.9q-1.2.6-2.4 1.1c-11.9 5-27.8 5-40.2 1-15.8-6.8-28.5-17-35.7-32.9-6.1-16.1-6.6-32 .1-48.2 6.7-14.8 18.4-27.3 33.7-33.4 3.2-1 6.3-1.9 9.5-2.6l2.4-.6c16.8-2.8 32.7 1.9 46.4 11.6zm-192.4-34.7c11.1 10.6 18.3 24 18.9 39.4.3 21 .3 21-4.3 30.3q-.6 1.4-1.3 2.8c-8 16.1-22.2 26.3-38.8 32.3-18 4.1-34.3.7-49.9-8.4-12-8.3-20.5-22-24.4-36-2.1-12.4-1.6-25 3.4-36.7q.6-1.4 1.2-2.8c7.4-15.2 21.3-27.1 37.2-32.7 20.6-6 41.6-2.2 58 11.8zM516 385c4.5 2.2 7.3 4.9 10 9 .3 2.7.5 5 .4 7.6q-.1 1.2-.1 2.3c-.2 8.6-1.1 17.2-2 25.7q-.3 2.6-.6 5.2c-1.2 11.5-2.7 23.1-4.2 34.6-1.1 8.5-2.1 17.1-2.9 25.7-1.5 15.1-3.3 30.2-5.2 45.3q-.3 3.1-.7 6.2l-10.3 81.6q-.1 1.2-.3 2.4-.7 5.9-1.5 11.8-.3 2.2-.6 4.4-.1 1-.2 2.1-.9 6.6-1.7 13.2c-.1 1.5-.1 1.5-.3 3.1q-.4 2.8-.7 5.6c-1 8.4-2.1 16.8-9.1 22.2-4.9 3-10.4 2.7-16 2-3.5-1.6-5.4-3.9-7.1-7.3-4.3-13.2.7-31 2.4-44.3q.9-7.4 1.9-14.7.2-1.8.4-3.7l3.7-32.7c1.3-12.4 2.9-24.8 4.5-37.1l5.2-44.5 6.7-59.2q.4-3.6.9-7.3 1.6-14.1 3.4-28.2.2-1.6.4-3.2.5-4.3 1.1-8.5.1-1.1.3-2.3c.9-6.7 4-11.9 9.3-16.1 4.1-2 8.5-1.6 12.9-.9z"/></g><path d="M730.7 182.1c5.7 3.3 9.2 7.6 11.3 13.9.2 3.4.2 3.4.2 7.3q-.1 1-.1 2.1c-.1 7.7-.4 15.4-.7 23.1q-.1 2.2-.2 4.5-.2 4.7-.4 9.5-.2 6-.5 12-.2 4.6-.4 9.3 0 2.2-.1 4.5c-1 24.9-1 24.9-7.2 31.4-4.1 3.3-7.8 3.8-13 3.8-4.4-.8-7.6-3.3-10.6-6.5-4.7-8.1-3.3-19.6-3.5-28.6q-.1-2.2-.2-4.3-.1-4.4-.2-8.8-.2-4.5-.3-9-.4-11.8-.7-23.5-.1-6.3-.3-12.5-.1-3-.2-5.9 0-1.3-.1-2.6c-.1-6.1 1.7-10.1 5.5-14.8 6.4-6.5 13.1-7.4 21.7-4.9z" fill="#023bb1"/><path d="M412.6 497.5c7.5 4.8 12.1 12 14.4 20.5 1.4 7.6-1.2 14.5-5 21-5.5 6.5-11.5 10.4-19.9 11.3-8.3.4-13.5-1.3-19.8-6.6-5.8-6.9-9.9-14-9.6-23.3 1.1-8.7 5.5-15.4 12.1-20.9 7.5-5.1 19.5-5.6 27.8-2zM611 537c5.7 3.6 9.9 8.5 12 15 1.2 9.2.7 17.4-5 25-5.3 6-10.9 9.4-18.9 10.3-8.3.4-14.4-1.3-20.9-6.6-6.5-8-8.6-13.9-8.5-24.3.6-6.8 3.6-12.1 8.5-16.8 10.5-8 21.2-8.9 32.8-2.6z" fill="#82c4fe"/><path d="M732.3 330.6c4.4 2.5 7.4 5.8 9.7 10.4.7 7.4 1.2 14.4-3.5 20.4-4.7 4.9-8.3 5.9-15 6.1-5.8-.2-9-.9-13.5-4.5-5.2-6.7-5.9-12.7-5-21 2.1-5.7 5.7-9.1 11-12 5.5-1.8 10.9-1.8 16.3.6z" fill="#023bb1"/></svg>