<svg xmlns="http://www.w3.org/2000/svg" width="1024" height="1024" xmlns:v="https://vecta.io/nano"><path d="M480 131q1 .1 2 .3c29.6 4.3 60.1 11 86.6 25.4 4.6 2.4 7.5 2.6 12.4 1.3 2.5-1 2.5-1 4.9-2.3 20.5-9.8 44.2-10.2 65.5-2.9 17.3 6.5 33.4 15.3 47.6 27.2.8.7.8.7 1.6 1.3 12.3 10.1 23.8 20.9 35 32.2q2.6 2.5 5.1 5.1c5.1 5.1 10.2 10.2 14.9 15.8 2 2.3 4.1 4.5 6.2 6.7 27.3 30.1 52.7 65 51.3 107-2 40.9-21.4 88.6-51.2 117.2-12.5 11-27.9 17.5-44.7 17-15.1-1.6-24.8-10-34.2-21.3-1.7-2.3-3.4-4.6-5-7q-.5 0-1 0-.2 1.1-.4 2.2c-6.9 35-17.6 66.8-40.3 94.9-1.6 1.9-1.6 1.9-1.3 4.7 1.2 3.8 3 6.5 5.3 9.6 17.6 25.3 29.2 55.5 38.7 84.6q1 .1 2 .3c28.9 4.5 52.3 12.7 73.6 33.4q1.7 1.6 3.5 3.2c20.7 19.3 29.1 49.8 30.9 77.1q.1 5.5 0 11 1-.5 2-1 2.5-.2 4.9-.2 1.5 0 3.1 0 1.7 0 3.4 0 1.7 0 3.4 0 3.6 0 7.2 0 5.6-.1 11.1-.1 3.5 0 7 0 1.7 0 3.3-.1c6.6.1 11.4.5 16.5 5.1 1.6 3.4 1.7 6.6 1.1 10.3-2.3 4.5-4.5 6.8-9 9-2.9.3-2.9.3-6.2.2q-1.8 0-3.7 0-2-.1-4-.1-2.1 0-4.1 0l-17.5-.3c-16.7-1.3-16.7-1.3-31.7 3.8-2.1 2-3.3 3.9-4.9 6.4-5.8 9.1-19 13.2-28.9 16-11.9 2.3-24.1.5-35-5-4.3.2-6.7 1.4-10.1 3.9-11.9 7-25.6 7.4-38.6 4.2-6.3-2.1-11.8-5.4-17.3-9.1-3.9-.4-6.5.4-10.1 1.9-12.4 5.4-26.9 4.6-39.4-.2-9.2-4.4-20.8-11.3-25.5-20.7q-52.3-.3-104.6-.5-6.2 0-12.4 0-1.2-.1-2.5-.1-19.9 0-39.8-.2-20.4-.1-40.9-.1-12.6-.1-25.2-.2-8.6-.1-17.3 0-5 0-9.9-.1c-13.6-1-13.6-1-25.9 3.4-2.2 2.5-3.8 4.9-5.5 7.8-12.5 11.3-28.5 14.9-44.8 14.2-5.3-.5-10.2-2.4-15.2-4.2-4.5-1.3-4.5-1.3-8.8-.1q-2.1 1.3-4 2.7c-10.1 6.5-23.6 9.2-35.3 6.7-7.2-1.9-13.1-4.9-19.3-9-2.4-1.5-2.4-1.5-4.7-1.1q-.9.4-1.9.8-1.1.4-2.2.9-1.2.5-2.4 1c-13.6 5.5-25.8 5.1-39.4.1-9.5-4.3-16.7-10.8-24-18-.9-.8-.9-.8-1.8-1.7C77 800 77 800 77 798q-1.7 0-3.5.1-6.3.1-12.7.1-2.8 0-5.5.1-4 .1-8 .1-1.2 0-2.4.1c-5.7 0-10.2-1.2-14.9-4.5-2.1-3-2.9-5.3-3.6-8.9.8-4.4 3-7.4 6.6-10.1 6.8-2.9 14.1-2.2 21.4-2.1q2 0 4 0 4.8 0 9.6.1-.1-2-.1-4c-.7-28.6 8.4-55.1 27.1-77q1-1.2 2-2.4c20.1-23.3 48-35.6 78-39.6q.7-1.8 1.4-3.7c6.9-18.7 14.7-37 23.8-54.8q1.8-3.4 3.5-6.9c2.5-5.3 5.1-10.4 8.3-15.3q.7-1.2 1.5-2.5 1.5-2.4 3.1-4.8.7-1 1.4-2.2.7-.9 1.3-1.9c.9-1.9.9-1.9 0-3.9-1.3-2-2.6-3.8-4.1-5.7-21.1-26.9-33.7-58.8-40.2-92.3q-1 0-2 0c-1.3 1.6-1.3 1.6-2.7 3.6-8.6 11.7-19.8 19.7-34.3 22.4-15.9 1.8-29.7-2.1-42.5-11.9C63.4 444.6 45.8 398.3 42 360c-1.1-16.2-1.4-31.9 5-47q.4-1 .8-2c10-25 28.5-47.5 46.2-67.5q2.8-3.3 5.6-6.6c7.3-8.7 15-16.8 22.9-24.7q3.1-3 6.1-6.1c7.2-7.1 14.4-13.8 22.4-20.1q1.6-1.3 3.1-2.7c24.1-20.9 56-37.2 88.5-35.5 10.1.9 19.3 4.1 28.3 9 4.4 2.3 7.2 2.5 12.1 1.2 2.4-1.1 4.6-2.2 6.9-3.5 26.7-13.8 58.2-22.3 88.1-25.5 1.3-.1 1.3-.1 2.5-.3 33.1-3.8 66.6-2.5 99.5 2.3z" fill="#ec7e02"/><path d="M480 131q1 .1 2 .3c29.6 4.3 60.1 11 86.6 25.4 4.6 2.4 7.5 2.6 12.4 1.3 2.5-1 2.5-1 4.9-2.3 20.5-9.8 44.2-10.2 65.5-2.9 17.3 6.5 33.4 15.3 47.6 27.2.8.7.8.7 1.6 1.3 12.3 10.1 23.8 20.9 35 32.2q2.6 2.5 5.1 5.1c5.1 5.1 10.2 10.2 14.9 15.8 2 2.3 4.1 4.5 6.2 6.7 27.3 30.1 52.7 65 51.3 107-2 40.9-21.4 88.6-51.2 117.2-12.5 11-27.9 17.5-44.7 17-15.1-1.6-24.8-10-34.2-21.3-1.7-2.3-3.4-4.6-5-7q-.5 0-1 0-.2 1.1-.4 2.2c-6.9 35-17.6 66.8-40.3 94.9-1.6 1.9-1.6 1.9-1.3 4.7 1.2 3.8 3 6.5 5.3 9.6 17.6 25.3 29.2 55.5 38.7 84.6q1 .1 2 .3c28.9 4.5 52.3 12.7 73.6 33.4q1.7 1.6 3.5 3.2c20.7 19.3 29.1 49.8 30.9 77.1q.1 5.5 0 11 1-.5 2-1 2.5-.2 4.9-.2 1.5 0 3.1 0 1.7 0 3.4 0 1.7 0 3.4 0 3.6 0 7.2 0 5.6-.1 11.1-.1 3.5 0 7 0 1.7 0 3.3-.1c6.6.1 11.4.5 16.5 5.1 1.6 3.4 1.7 6.6 1.1 10.3-2.3 4.5-4.5 6.8-9 9-2.9.3-2.9.3-6.2.2q-1.8 0-3.7 0-2-.1-4-.1-2.1 0-4.1 0l-17.5-.3c-16.7-1.3-16.7-1.3-31.7 3.8-2.1 2-3.3 3.9-4.9 6.4-5.8 9.1-19 13.2-28.9 16-11.9 2.3-24.1.5-35-5-4.3.2-6.7 1.4-10.1 3.9-11.9 7-25.6 7.4-38.6 4.2-6.3-2.1-11.8-5.4-17.3-9.1-3.9-.4-6.5.4-10.1 1.9-12.4 5.4-26.9 4.6-39.4-.2-9.2-4.4-20.8-11.3-25.5-20.7q-52.3-.3-104.6-.5-6.2 0-12.4 0-1.2-.1-2.5-.1-19.9 0-39.8-.2-20.4-.1-40.9-.1-12.6-.1-25.2-.2-8.6-.1-17.3 0-5 0-9.9-.1c-13.6-1-13.6-1-25.9 3.4-2.2 2.5-3.8 4.9-5.5 7.8-12.5 11.3-28.5 14.9-44.8 14.2-5.3-.5-10.2-2.4-15.2-4.2-4.5-1.3-4.5-1.3-8.8-.1q-2.1 1.3-4 2.7c-10.1 6.5-23.6 9.2-35.3 6.7-7.2-1.9-13.1-4.9-19.3-9-2.4-1.5-2.4-1.5-4.7-1.1q-.9.4-1.9.8-1.1.4-2.2.9-1.2.5-2.4 1c-13.6 5.5-25.8 5.1-39.4.1-9.5-4.3-16.7-10.8-24-18-.9-.8-.9-.8-1.8-1.7C77 800 77 800 77 798q-1.7 0-3.5.1-6.3.1-12.7.1-2.8 0-5.5.1-4 .1-8 .1-1.2 0-2.4.1c-5.7 0-10.2-1.2-14.9-4.5-2.1-3-2.9-5.3-3.6-8.9.8-4.4 3-7.4 6.6-10.1 6.8-2.9 14.1-2.2 21.4-2.1q2 0 4 0 4.8 0 9.6.1-.1-2-.1-4c-.7-28.6 8.4-55.1 27.1-77q1-1.2 2-2.4c20.1-23.3 48-35.6 78-39.6q.7-1.8 1.4-3.7c6.9-18.7 14.7-37 23.8-54.8q1.8-3.4 3.5-6.9c2.5-5.3 5.1-10.4 8.3-15.3q.7-1.2 1.5-2.5 1.5-2.4 3.1-4.8.7-1 1.4-2.2.7-.9 1.3-1.9c.9-1.9.9-1.9 0-3.9-1.3-2-2.6-3.8-4.1-5.7-21.1-26.9-33.7-58.8-40.2-92.3q-1 0-2 0c-1.3 1.6-1.3 1.6-2.7 3.6-8.6 11.7-19.8 19.7-34.3 22.4-15.9 1.8-29.7-2.1-42.5-11.9C63.4 444.6 45.8 398.3 42 360c-1.1-16.2-1.4-31.9 5-47q.4-1 .8-2c10-25 28.5-47.5 46.2-67.5q2.8-3.3 5.6-6.6c7.3-8.7 15-16.8 22.9-24.7q3.1-3 6.1-6.1c7.2-7.1 14.4-13.8 22.4-20.1q1.6-1.3 3.1-2.7c24.1-20.9 56-37.2 88.5-35.5 10.1.9 19.3 4.1 28.3 9 4.4 2.3 7.2 2.5 12.1 1.2 2.4-1.1 4.6-2.2 6.9-3.5 26.7-13.8 58.2-22.3 88.1-25.5 1.3-.1 1.3-.1 2.5-.3 33.1-3.8 66.6-2.5 99.5 2.3zm-232.1 83c-28.9 31.6-40.2 72.5-45.9 114q-.2 1.3-.4 2.6-2.4 17.4-4.6 34.8-1 7.4-2.1 14.9c-3.3 22.3-1.6 44.5 2.1 66.7.2 1.5.2 1.5.5 3 4.5 26.8 12 52 29.2 73.3q2 2.6 3.9 5.2c9 11.8 18.9 21.8 30.6 30.7 4.8 3.7 9.1 7.4 11.8 12.8.4 4.2.5 6.3-1.9 9.9-2.7 2.7-4.4 3.3-8.2 3.5-8.6-.1-15.2-6.2-21.8-11-2-1.6-2-1.6-4.1-1.4-1.7 2.3-3.3 4.6-4.9 7.1q-.7 1.1-1.4 2.2c-8.7 13.8-16.4 28.4-22 43.7q-1.3 3.5-2.6 7-.9 2.5-1.9 5.1c-.5 1.2-.5 1.2-.9 2.5-1.4 3.8-2.7 7.4-3.3 11.4q1.9.2 3.8.5c32.5 4.3 60.7 18.6 81.2 44.7 13.2 18.3 18.6 38.8 18.1 61.1q0 3.2-.1 6.3 0 2.8-.1 5.7c-.2 2.6-.2 2.6 1.1 3.7q2 .1 4 .1 1.3 0 2.6 0 1.5 0 3 0h3.1q5.1 0 10.3 0 3.7 0 7.3 0 8 0 15.9 0 11.5 0 23 0 18.6 0 37.3 0 18.1 0 36.2 0 1.1 0 2.2 0 5.6 0 11.2 0 46.5-.1 92.9-.1 0-1.2 0-2.4-.1-4.6-.2-9.2 0-2.9-.1-5.9c-.2-26.9 11.2-52.3 29.9-71.6 19-18.8 44.2-29 70.4-32.9 1.3-3.6.7-5.6-.6-9.1q-.5-1.5-1.1-3-.6-1.5-1.2-3.2c-.7-1.6-.7-1.6-1.3-3.2-8.1-20.8-19.3-40.8-32.8-58.5-3.8 1.8-7.2 4.1-10.7 6.6-5 3.1-9.4 4.2-15.3 3.4-2.8-1.2-4.4-2.3-6.4-4.7-1-3.6-.7-6.8.4-10.3 3.4-5.8 9.2-9.7 14.3-13.8 6.3-5.1 11.3-11 16.3-17.3 1.8-2.2 3.7-4.4 5.7-6.5 10.6-12.1 20.9-27 25.7-42.4q.4-1.2.8-2.5c12.2-37.4 13.2-77.1 9-115.9-.8-7.3-1.3-14.6-1.7-21.9-3.5-53.1-17.6-105.4-56.1-143.7q-1.3-1.3-2.6-2.6c-11.1-10.6-24.9-18.3-38.4-25.4q-.9-.5-1.9-1c-28.6-15.1-61.3-22-93.1-26q-1.4-.2-2.9-.4c-74.2-9-158.4 7.3-211.2 63.4z" fill="#012e3c"/><path d="M837.1 498.2c9.7 7.6 17.8 16 24.7 26.3 1.9 2.8 3.3 4.6 6.2 6.5q1.7-2.1 3.3-4.1 1.1-1.4 2.2-2.8 2.6-3.2 5.1-6.5c6-8.1 12.2-14.6 20.4-20.6l2.3-1.7c14.6-9.7 32.7-13.1 49.9-9.9 14 3.4 26.4 13.3 34.1 25.4 8.8 14.9 11.2 32 7.1 48.8-3.7 12.3-8.8 23-16.4 33.4q-.6.8-1.2 1.6c-5 6.9-10.4 13.4-16.3 19.7-1.9 2-3.7 4.1-5.6 6.3-4.5 5.2-9.4 10-14.2 14.9q-2.4 2.4-4.8 4.7c-5.5 5.5-11 10.8-16.9 15.8q-2.3 2.1-4.6 4.3c-9 8-18.6 15.2-28.4 22.2q-1.1.8-2.1 1.5c-11.6 8.2-11.6 8.2-18.9 7-16-7.9-31.3-21.7-44.4-33.6q-2.1-1.9-4.2-3.7c-6.5-5.6-12.5-11.7-18.6-17.8q-2.8-2.8-5.6-5.6c-6-5.9-11.8-11.8-17.2-18.3q-.8-.9-1.6-1.9c-18.3-21.6-33-44.7-31.4-74.1 1.8-15.1 8.1-27.5 19-38q.9-.9 1.8-1.8c21.7-20.2 54.3-13.8 76.3 2z" fill="#00303c"/><path d="M663 184q1 .5 1.9 1c10.1 5.6 18.6 12.2 27.1 20q.9.8 1.8 1.6c7.6 6.9 14.9 14 22.2 21.3q1 1 2.1 2.1c3.9 3.9 7.6 7.9 11.2 12.1 2.6 2.9 5.4 5.7 8.2 8.4 4.7 4.7 9.2 9.4 13.5 14.5q1.2 1.3 2.4 2.7c17.6 19.9 37 45.8 37 73.3q0 1.7 0 3.5c-.3 21.2-5.6 40.1-14.5 59.3q-.5.9-.9 1.8c-9.2 19.6-21.6 42.9-42.2 52.5-6.5 2.1-13.8 2.2-20-.6-17.3-10.4-25.1-29.7-29.8-48.5-2.4-11.8-3.5-23.6-4.1-35.6C675 303.7 662.2 234.2 609 185q-1.7-1.4-3.4-2.8-1.3-1.1-2.6-2.2 0-1 0-2c22.2-11.5 39.3-5.4 60 6zm-411-8c-.3 3-.9 4-3.2 6q-1.4 1.1-2.8 2.2c-47.1 37.3-63.5 99.7-70.4 156.7-1.4 11.7-2.3 23.4-3.2 35.2-.8 10.5-2 20.6-4.4 30.9q-.3 1.3-.6 2.6c-4 17.5-12.2 36.5-27.9 46.7-7.1 3.5-15.1 4-22.8 2.1-6.1-2.7-11-7.8-15.7-12.4q-1-1-2.1-2.1c-13.6-14.3-21.5-34.2-27.8-52.6q-.4-1.2-.8-2.4c-4.1-12.6-5.8-25.2-5.8-38.4q0-3.1-.1-6.2c-.3-33.4 25.6-60.5 46.9-83.4q3.2-3.4 6.2-6.9c9-10.4 18.6-20.2 28.3-29.9q.8-.8 1.6-1.6c6-6.1 12.1-12 18.6-17.5 1.4-1.2 1.4-1.2 2.8-2.5 11.5-10 24.5-17.4 38.2-24l2.6-1.2c14.8-7 27.3-8.8 42.4-1.3z" fill="#ec7f02"/><path d="M420.8 357.8q3.3 0 6.6 0c22.2-.1 43.9 4.4 60.6 20 7.9 8.7 10.6 17.6 10.3 29.1-.7 11.9-7.5 21.9-16 29.8-9.6 7.7-27.8 19.3-40.3 19.3 1.4 15.8 4.8 29.7 16.6 41.1 5.7 4.5 13.4 7.9 20.8 7.4 11.1-2.3 25.9-7.5 33-16.6q.9-1.9 1.6-3.9c6.4-16.2 6.4-16.2 12-19 3.9-.8 7.3-1 10.9 1.1 2.1 1.7 3.8 3.4 5.1 5.9 1 12.9-5.1 24.5-12.9 34.4-11.2 12.2-28.8 20.9-45.3 21.8-17 .1-30.7-3-43.8-14.2q-1.3-1-2.7-2c-3.1-2.7-5.9-5.7-8.3-9q0-1 0-2c-4.1 2.2-7.2 4.9-10.5 8.2-13.2 12.4-28.5 19.6-46.8 19.3-17.9-.8-33-7.7-45.7-20.5q-.9-.8-1.7-1.7c-8.1-8.4-11.7-19.9-11.7-31.4.6-4.4 2.1-6 5.4-8.9 3.2-1.6 6.5-1.4 10-1 4.1 1.8 6.1 3.6 7.7 7.7q.7 2.1 1.3 4.3c3.2 10.7 7 15.8 16.7 21.3 9.8 5.3 20.5 6.4 31.3 4 11.1-4 19.9-12.4 24.8-22.9 2.6-5.9 3.3-10.8 3.3-17.2q-.1-1.7-.1-3.5 0-1.3 0-2.7-.9-.3-1.8-.7-2.9-1-5.7-2-3.7-1.4-7.4-2.7c-16.7-5.8-30.6-14.5-39.1-30.6-4.5-9.3-5.6-17.8-2.4-27.7 5.1-12.3 15.1-21.4 27.1-27 12.5-5 23.6-7.5 37.1-7.5z" fill="#01303e"/><path d="M180.9 673.6q3.9 0 7.9-.1c17.5-.1 32.5 3.7 48.2 11.5q1.6.8 3.2 1.6c19.7 10.7 32.9 29.2 40.1 50 1.8 6.1 1.9 11.8 2 18.1v2.8c.1 13.9-5.2 23.1-14.4 33.2-6.5 6.2-15.2 11.6-24.4 12-4.5-.4-7.1-1.8-10.5-4.7-1.7-3.4-1.1-7.2-1-10.9q0-2.7.1-5.5 0-4.3.1-8.6 0-4.2.1-8.3 0-1.3 0-2.6c0-6.7-1-12.3-5.4-17.6-4-2.1-7.5-2.3-11.9-1.5-3.5 2.1-4.7 3.1-6 7-.3 5.9-.1 11.8.5 17.6 1 10.4 1.6 20.6-5.2 29.3-5.8 6.1-14.3 9-22.6 9.5-8.2-.2-14.6-4.8-20.2-10.4-4.3-5.9-4.9-11-4.7-18q0-1.3 0-2.6.1-4 .2-8 .1-5.3.2-10.6 0-1.2.1-2.5c0-4.6-.3-7.5-3.3-11.3-3.6-2.5-6.6-2.2-10.8-1.6-3.6 1-5.1 2.5-7.2 5.6-1.1 6.1-1.2 12.1-1.2 18.3q-.1 2.9-.1 5.8-.1 4.6-.1 9.2 0 4.5-.1 9 0 1.3 0 2.7c-.2 6.4-.2 6.4-1.9 9.6-3 2.7-6.5 1.9-10.4 1.8-9.2-1.1-17.3-5.7-23.1-12.7-6.6-8.9-8.7-16.3-8.6-27.2q0-1.6 0-3.2c.2-9.2 1.8-16.9 5.5-25.3.4-1 .4-1 .9-2 11.7-26.2 30.6-44.9 57.1-56q1-.4 2-.8c8-3 16.4-2.7 24.9-2.6zm489.7 0q1 0 2.1 0c26.4 0 48.9 10.4 68 28.6 14.9 15.5 25.5 36.2 25.7 58-.3 11.2-2.3 20.1-9.4 28.8q-.7.9-1.5 1.9c-5.6 6.4-14.3 11.2-22.7 12.6-3.7.1-6.5.1-9.9-1.5-2.4-2.5-2.3-4.3-2.3-7.6q0-1.2.1-2.3 0-1.2 0-2.4.1-3.8.2-7.6c.9-19 .9-19-3.9-37.1-3.6-3.2-7.1-3.4-11.7-3.6-3.6.9-5 2.7-7.3 5.6-.6 3-.5 5.9-.4 9q0 1.2.1 2.6 0 4.1.2 8.2.1 4.1.2 8.2 0 2.6.1 5.1c.1 6.6-.9 12.1-5.2 17.3-7.7 6.6-13.7 9.3-24 9-7.2-1-12.4-4.2-17-9.8-6.9-9.8-5.7-21.2-4-32.6.8-10 .8-10-3-19-4.2-2.8-8-2.7-13-2-3.5 2.3-4.8 5-6 9a110.74 110.74 0 0 0-1.2 16.3q-.1 2.3-.1 4.6-.1 3.6-.2 7.2 0 3.5-.1 7 0 1.1 0 2.2c-.1 4-.6 7.2-2.4 10.7-4.5 3.2-9.8 2.7-15 2-11.6-3.5-22-13.3-28.1-23.7q-1-2.1-1.9-4.3-.5-1.1-.9-2.2c-5.6-15.4-1.5-32.5 4.9-46.9 10.6-22.2 29-37.7 51.9-46.2 12.4-4.3 24.6-5.1 37.7-5.1z" fill="#ec7f02"/><path d="M297.5 392.4c7.7 5 12.7 11.8 15.5 20.6 1.5 11.4-.4 22-5.7 32.3-7.3 8.5-15.1 14-26.3 15.7-14.3 1.1-25.6-.1-36.8-9.8-8-7.9-11.2-17.1-11.6-28.3.4-12.1 5.4-21.3 14.1-29.7 15.4-12.5 34.5-10.2 50.8-.8zm308.9.5c8.1 6.6 13.5 14.8 15.6 25.1.9 10.6-1 20.2-7.3 28.9-5.8 7-12.8 12.1-21.7 14.1-14.5.9-26.4-.4-38-10-8.5-7.7-12-15.6-12.6-26.9-.2-11.8 2.8-20.2 10.6-29.1 15.8-13.4 36.4-14 53.4-2.1z" fill="#e05a00"/><path d="M343.1 298.8c8.8 7 17 18.9 18.9 30.2.9 10.5.9 10.5-1.9 15.2-3.6 3-6.3 3.2-10.9 3.1-2.2-.3-2.2-.3-5-2.3-3.2-4.4-5.3-9-7.5-14-3.9-8.6-7.4-11.8-16-15.3-8.2-1.5-15.6-2-22.8 2.7-6.8 5.6-9.7 13.2-12.8 21.3-2.1 5.1-4 7.7-9.1 10.3-3.9.7-5.6.2-9.2-1.6-4.2-3.6-5.6-6.5-6.2-12 .6-13.6 8.9-26.3 18.4-35.4 18.2-14.8 44.8-15.3 64.1-2.2z" fill="#012f3e"/><path d="M574.4 301.7c9.4 7.7 15.3 18.7 16.9 30.6.3 5.7-1 10.1-4.3 14.7-2.4 2.3-3.9 3-7.2 3.1-3.6-.2-5.9-.4-8.9-2.7-2.4-3-3.3-6.1-4.3-9.6-2.8-9.1-6.3-15.2-14.7-19.8-6.6-3.4-14-4.5-21.2-2.3-9.2 4.3-12.7 11.7-16.9 20.4-2.8 5.5-5.2 9.1-10.8 11.9-6.3.6-6.3.6-9.4-1.9-3.7-4.9-3.1-10.1-2.6-16.1 2.7-12.5 9.4-24.5 20.1-31.6 20.6-12.6 43.8-10.6 63.3 3.3z" fill="#022f3e"/></svg>