<svg xmlns="http://www.w3.org/2000/svg" width="1024" height="1024" xmlns:v="https://vecta.io/nano"><path d="M653 210q1 .5 1.9 1c40.3 21.1 72.3 54.7 91.1 96q.5 1 1 2.1c7.7 17.1 13.4 35.1 18.7 53.1 7.1 23.9 16.5 45.1 39.3 57.8 29 15.5 63.9 20.3 96.3 22.7q1.3.1 2.5.2 6.2.5 12.5.9c19.2 1.4 39.9 3.6 54.7 17.2 11.7 13.5 12 30.1 11 47-5.7 52.4-44.1 104.6-83.5 137.8-4.3 3.4-8.8 6.6-13.2 9.8q-.9.6-1.9 1.2c-11.4 7.9-24.1 13.7-36.8 19.1q-1.1.5-2.1.9c-11.8 5.1-23.6 9.9-35.7 14.2q-2.8 1-5.5 2c-29.7 10.8-61 17.8-92.3 22q-1.8.3-3.7.5c-11.4 1.5-22.8 2.3-34.4 3.1q-3 .2-6 .4l-30.3 1.5c-20.7.8-38.3 7.6-52.8 22.7-7.6 9-11 19.5-13.8 30.8q-.2.9-.5 1.9c-1.7 7.1-2.3 14.3-3 21.6q-.1 1-.2 2.1c-.8 8.1-1.4 16.3-1.8 24.4l-.2 2.2q-.2 5.3-.5 10.6c-.6 12.1-1.7 24-10.5 32.9-6.7 5.1-14.5 5.8-22.6 5.7h-2.9q-4.8 0-9.5 0-1.7 0-3.4 0c-20.1-.1-39.9-1.2-59.9-3.4-1.5-.2-1.5-.2-3-.3-35.4-4-70.7-9.2-105.9-15.2q-4.4-.7-8.8-1.5c-45.7-7.6-91.4-17.5-136.2-29.4q-3.4-.9-6.8-1.8-6.2-1.6-12.3-3.3-2.3-.6-4.6-1.2c-27.2-7.2-27.2-7.2-34.7-19.4-2.7-7.2-.2-13.8 2.8-20.5 2.7-6 5.7-11.7 8.7-17.5q1-2 2-3.9 5.8-11.2 12-22.2c8.8-15.7 17-31.8 24.9-47.9q.9-1.9 1.9-3.8c5.4-11 10.3-22.3 15.1-33.6q1.1-2.4 2.2-4.9 1.5-3.5 2.9-7 .5-1.1 1-2.1c1.6-3.9 1.6-3.9 1.1-7.9-1.7-2.1-3.5-3.3-5.8-4.7-19.1-13.6-33.8-32.6-44.6-53.2q-1.1-2.1-2.3-4.2c-16.9-30.8-17.3-68.5-8.2-101.6q.3-1 .6-1.9-.7 1.6-1.5 3.3c-7.4 15.6-7.4 15.6-15.5 19.7-5.2.7-9.9.4-14.4-2.6-7.7-6.8-11.3-18-15.3-27.2-9.7-21.9-23.7-37.4-46.1-46.1q-3.5-1.4-7.1-2.6c-5.6-2-9.9-4.4-13.5-9.4-.8-2.8-.9-5.2-.9-8q0-1.6-.1-3.1c.6-4.4 2.3-6.9 5.4-10 4.4-3 9.3-5 14.1-7.3C70.5 365.8 78 362 85 356q1.3-1.1 2.6-2.1c11.4-9.7 16.9-21.7 22.8-35.1 9.2-21 9.2-21 18.6-24.8 5.7-.7 9.1-.1 13.9 3.1 4 3.7 6.2 8.6 8.7 13.4q1.4 2.9 2.9 5.8 1.9 3.7 3.8 7.4c8.7 17 18.8 29.8 35.7 39.3 2.1.7 2.1.7 4 1 .4-.7.4-.7.9-1.4 14.8-23.8 30.5-46.6 49.1-67.6q1.2-1.4 2.5-2.9c11.9-13.2 24.3-26.3 38.5-37.1q1.9-1.5 3.7-3c16.6-13.1 34.8-23.6 53.5-33.5q4.2-2.3 8.5-4.6c82.7-44.5 187.4-52 298.3-3.9z" fill="#fda800"/><path d="M441 209c8.3 7.1 12.3 16.4 13.2 27 .8 12.9-.8 25.2-3 37.9-4.6 26.9-6.5 53-6.5 80.3q0 1.9 0 3.7c-.1 23.4 1.3 46.6 4.1 69.7q.3 2.1.5 4.2c1.6 13.3 3.6 26.4 5.6 39.6a59.58 59.58 0 0 0 .5 3.9q.6 3.6 1.2 7.3c6.4 42.7 3.9 93.7-22.4 129.9-20.1 25.9-51.2 43.5-83.8 48-17.7 1.9-36.9 1.6-54.4-1.5q-1.3-.2-2.6-.5c-26.9-4.9-54.3-14.1-76.4-30.5-1.5-1-1.5-1-3-2.1-20-14.6-35.7-33.4-47.1-55.2q-1.1-2.1-2.3-4.2c-16.9-30.8-17.3-68.5-8.2-101.6q.3-1 .6-1.9-.7 1.6-1.5 3.3c-7.4 15.6-7.4 15.6-15.5 19.7-5.2.7-9.9.4-14.4-2.6-7.7-6.8-11.3-18-15.3-27.2-9.7-21.9-23.7-37.4-46.1-46.1q-3.5-1.4-7.1-2.6c-5.6-2-9.9-4.4-13.5-9.4-.8-2.8-.9-5.2-.9-8q0-1.6-.1-3.1c.6-4.4 2.3-6.9 5.4-10 4.4-3 9.3-5 14.1-7.3C70.5 365.8 78 362 85 356q1.3-1.1 2.6-2.1c11.4-9.7 16.9-21.7 22.8-35.1 9.2-21 9.2-21 18.6-24.8 5.7-.7 9.1-.1 13.9 3.1 4 3.7 6.2 8.6 8.7 13.4q1.4 2.9 2.9 5.8 1.9 3.7 3.8 7.4c8.7 17 18.8 29.8 35.7 39.3 2.1.7 2.1.7 4 1 .4-.7.4-.7.9-1.4 14.8-23.8 30.5-46.6 49.1-67.6q1.2-1.4 2.5-2.9c11.9-13.2 24.3-26.3 38.5-37.1q1.9-1.5 3.7-3c16.7-13.2 34.9-23.6 53.7-33.6q2.8-1.5 5.5-3c1.5-.8 1.5-.8 3-1.7 1.3-.7 1.3-.7 2.6-1.5 3.5-1.7 6.7-2.4 10.5-3.2q1.8-.7 3.7-1.4c4.3-1.7 8.7-2.8 13.3-3.7q1.1-.3 2.3-.5c18-4 37.7-4.8 53.7 5.6z" fill="#fa7109"/><path d="M241 88.7c8.6 4.5 11.7 12.5 15.3 21.1 11.9 27.8 22.9 43.1 50.7 55.8q3.1 1.4 6.2 2.9.9.4 1.9.8c4.7 2.3 7.6 5 9.9 9.7.5 5.9 1.1 12.4-2.4 17.5-3.8 3.6-8.9 5.4-13.6 7.5-10.7 4.9-20 10.3-29 18q-1 .9-2.1 1.8c-11.6 10.7-17.9 27.5-23.6 41.9-2.1 5.1-4.6 9.2-8.3 13.3q-.7.8-1.4 1.6c-2.9 3-5.5 3.8-9.5 4-6.6-.4-10.7-2.8-15-7.7-3.5-4.1-5.5-8.5-7.5-13.5q-1.2-2.6-2.4-5.3-.5-1.3-1.1-2.6c-10.8-24.5-25.8-38.3-50-48.6q-1.2-.5-2.5-1.1-2.3-1-4.6-1.9c-5.1-2.1-7.8-4.3-11-8.9-1.7-5-1.6-9.3.1-14.2 3.6-5.4 8.5-8.3 14.3-11.1q.9-.5 1.8-.9 4.9-2.4 9.8-4.6c23.8-11.1 35.5-29.9 45-53.6 7.1-17.7 7.1-17.7 15.5-21.8 4.4-1.4 9-1.7 13.5-.1z" fill="#fec309"/><path d="M138.9 294.7c6.6 3.5 9.4 9.3 12.7 15.8q1.4 2.9 2.9 5.8 1.9 3.7 3.8 7.4c8.7 17 18.8 29.8 35.7 39.3 2.8.9 2.8.9 5 1q0 1 0 2 .9.2 1.8.5c20.2 5.7 20.2 5.7 25.2 13.5 1.3 2.6 1.2 4.7 1.3 7.7a31.08 31.08 0 0 1 .1 3.1c-.5 4-1.8 7.1-4.4 10.2-2.5 1.6-4.6 2.8-7.3 3.9q-2.1 1.1-4.3 2.1-2.2 1-4.4 2c-10.2 4.8-19.3 9.7-28 17q-1 .8-2 1.5c-8 7-15.6 21.8-17.5 32.3-.5 2.2-.5 2.2-1.8 3.4-2.4 2.5-3.5 5.5-5 8.6-3 6.5-6.2 10.9-12.7 14.2-5.2.7-9.9.4-14.4-2.6-7.7-6.8-11.3-18-15.3-27.2-9.7-21.9-23.7-37.4-46.1-46.1q-3.5-1.4-7.1-2.6c-5.6-2-9.9-4.4-13.5-9.4-.8-2.8-.9-5.2-.9-8q0-1.6-.1-3.1c.6-4.4 2.3-6.9 5.4-10 4.4-3 9.3-5 14.1-7.2 8.4-4 15.9-7.8 22.9-13.8 1.3-1.1 1.3-1.1 2.6-2.1 11.4-9.7 16.9-21.7 22.8-35.1 13-29.6 13-29.6 28.5-24.1z" fill="#fec204"/><path d="M918.8 444.1q3 .2 6.1.5c14.9 1.3 29.8 4.4 42.1 13.4q1.2.8 2.5 1.6c9.2 8.8 12.6 21.2 13 33.5.2 26-8 48.9-19.5 71.9-19.4.8-40.8-11.5-55-24q-1.2-1.1-2.5-2.1c-17-15.9-26.2-41-27.7-63.8-.2-10.9 2-18.7 8.9-27.2 8.2-8.5 21.2-4.8 32.1-3.8z" fill="#923e00"/><path d="M671 573c9.1 4.6 15 14.3 20.9 22.2 22.7 30.4 64.6 44.2 100.7 49.9 7.3 1 14.4 1.2 21.8 1.2q1.9 0 3.8 0c15.5-.2 31.1-2.7 45-10 3.8-1.8 6.9-1.6 10.8-.3 6.4 4.1 9.1 9.3 10.9 16.6-1.3 4.8-3.8 6.1-7.9 8.7-1.5.8-1.5.8-3 1.7q-1.4.8-2.8 1.7c-8.1 4.5-16.1 6-25.2 7.3q-1.9.3-3.9.6c-21.9 2.3-44.6 1.1-66.1-3.6q-2.8-.6-5.6-1.1c-44.4-9.2-81.2-29.7-107.1-67.4-4-6.1-6.5-12.2-5.3-19.5 3.2-6 6.1-8.8 13-8z" fill="#8f3c00"/><path d="M693 391c2.8 2.2 4.4 3.8 6 7 1.2 9.5-1.2 16-6.9 23.5-9.3 11-23.6 22.6-38.1 25.5-17.4 1.3-34.3 2.5-49-8q-3-1.8-5.9-3.5c-9.2-6.1-18.5-13.8-22.1-24.5-.4-4.6-.6-8.7 1.3-13 2.2-2.6 3.9-3.9 7.2-4.4 7.7-.1 7.7-.1 11.3 2.2 1.9 2.8 3.8 5.7 5.6 8.6 6.1 9.9 14.3 14.9 25.6 17.6 2.9.3 5.9.3 8.8.3h2.4c10.5-.2 19.2-3 26.9-10.3 3.6-3.8 6.3-7.5 8.5-12.3 3.8-8 9.8-10.4 18.4-8.7z" fill="#903d00"/><path d="M859 670c-11.5 5.6-23.1 10.5-35 15q0-1 0-2 2.4-1 4.9-2 1.3-.6 2.7-1.1c2.4-.9 2.4-.9 4.4-.9q0-1 0-2 .9-.4 1.8-.9c2.4-1.1 2.4-1.1 5.2-3.1 2.3-.4 2.3-.4 4.7-.6q1.2-.1 2.4-.3 1 0 1.9-.1 0-1 0-2c3-.9 3.9-1 7 0z" fill="#fa9d0a"/><path d="M388 199q-.5 2-1 4-1.5 0-3 0 0 1 0 2-1.6.4-3.2.8-2 .5-4.1 1.1-1 .2-2.1.5c-3.3.9-5.7 1.7-8.6 3.6-2.2-.4-2.2-.4-4-1q4.6-2.2 9.2-4.4 1.3-.6 2.6-1.2 1.3-.6 2.6-1.2 1.1-.6 2.3-1.1c6.7-3.1 6.7-3.1 9.3-3.1z" fill="#fead0d"/><path d="M885 649l6 1q-1.9 2.1-4 4-1 0-2 0 0-2.5 0-5z" fill="#fa9903"/></svg>