<svg xmlns="http://www.w3.org/2000/svg" width="1024" height="1024" xmlns:v="https://vecta.io/nano"><path d="M280.5 48.3c3.6 1.8 7 3.7 10.5 5.7q2.1 1.1 4.2 2.3c21.7 12 42.1 26.6 62.3 40.9q4.1 2.9 8.2 5.8 1.5 1.1 3 2.1 3 2.1 6 4.1c4.4 3 8.5 5.9 12.4 9.5 4 3.6 7.5 6.4 12.9 7.3 9.3-.7 18.2-3.5 27-6.2 9.5-2.9 19.2-4.5 29-5.8q1.6-.2 3.2-.4c52.7-7 113.4-6.2 164.4 10.3q1.4.4 2.7.8 1.2.4 2.4.8c3.3.7 5.3.1 8.1-1.6q.9-.7 1.9-1.3 1-.8 2.1-1.6 1.1-.8 2.3-1.7 1.1-.9 2.4-1.7 6.1-4.5 12.1-9c12.3-9.1 24.8-17.9 37.4-26.6 1.1-.7 1.1-.7 2.1-1.5 14.7-10 29.9-19.1 45-28.3q1.3-.7 2.6-1.5 1.2-.7 2.4-1.4 1-.7 2.1-1.3c5.4-3 12-2.7 18.1-1.6 7.1 2.3 11.7 7.5 15.4 13.8 5 9.8 7.6 20 9.3 30.8q.3 1.6.5 3.2c1.5 10.2 1.9 20.1 1.8 30.4q0 1.3 0 2.6c-.2 37.9-4.7 75.7-12.8 112.7-1 5.7-1 5.7.5 11.1q.6.9 1.3 1.8c2.9 4.4 4.8 8.9 6.6 13.9q.5 1.4 1.1 2.8c8.3 22.6 14.2 46.2 13 70.5q.8 0 1.6-.1c7.5-.1 14.8.8 22.1 1.7 13 1.6 25.8 3 38.8 3.5 6.3.4 10.4 1.2 15.5 4.9 1.6 3.2 1.6 6.5 1 10-1.7 3-3.8 5.4-7 7-10.5.8-21.1-.8-31.5-1.9-13.5-1.5-26.9-2.6-40.5-3.1q-.1 1.7-.3 3.5c-1 12.8-2.9 27.8-8.7 39.5q.8.1 1.7.2c9.4 1.6 18.5 4.2 27.6 6.7q4.3 1.2 8.5 2.4c31 8.6 31 8.6 38.2 15.7.9 5 .5 6.9-1.8 11.5-1.9 2-3 2.5-5.8 2.9-7.3-.1-13.5-1.2-20.4-3.5q-1.5-.5-3.1-1-4.8-1.5-9.5-3.1-6.3-2-12.6-4-1.5-.5-3-1c-8.9-2.9-17.8-5.4-26.8-7.8q-.2.8-.5 1.6c-1.9 6.1-4.5 11.4-7.7 16.8-.7 1.3-.7 1.3-1.5 2.6-3.6 6.1-7.5 11.7-12.3 17-1 1.2-1 1.2-2.1 2.4-9.2 10.5-18.9 20-30.1 28.4-2.8 2.1-2.8 2.1-4.8 4.2l1.1 1.5q.7.9 1.4 1.9.7.9 1.4 1.9c1.1 1.7 1.1 1.7 1.1 3.7q1.6-.4 3.3-.9c16.5-4.1 31.2-4.3 47.7-.1q1 .2 2 .5c28.1 7 50.7 23.9 66 48.5 1 1.6 1 1.6 2.1 3.2 10.8 17.4 14.9 36.9 10.9 57.1-3.3 13.9-10.3 26.2-20 36.7q-1.2 1.3-2.4 2.7c-5.3 5.5-10.7 10-17.6 13.3q-1 0-2 0v3.8q.1 44.6.2 89.2 0 5.5 0 11v2.2q.1 17.7.1 35.3.1 18.2.1 36.4 0 10.2 0 20.4.1 9.6.1 19.2 0 3.5 0 7c.1 18.8-1.7 33.7-14.5 48.5-16.4 14.1-34 14.3-54.6 14.3q-3.3 0-6.6 0-9 0-18 0-9.8 0-19.5 0-19.1 0-38.2 0-15.5 0-31.1 0-4.4 0-8.9.1-1.1 0-2.3 0-31.2 0-62.5 0h-2.4q-5.9 0-11.9 0-1.2 0-2.4 0-2.4 0-4.8 0-37.3 0-74.6 0-41.9.1-83.9.1-4.5 0-8.9 0-1.1 0-2.3 0-17.7 0-35.4 0-17.8 0-35.6 0-9.6 0-19.2 0-8.9 0-17.7 0-3.2 0-6.4 0c-18.4.1-34.5-1.5-48.6-14.8-9.4-9.9-13.7-20.6-13.6-34.2q0-1.5 0-3 0-5.1.1-10.2 0-3.6 0-7.3 0-7.8 0-15.7 0-11.3 0-22.7 0-18.4.1-36.8 0-17.9 0-35.8 0-1.1 0-2.2 0-5.5 0-11.1.1-45.8.2-91.7-1.4-.4-2.8-.9c-12.8-4.4-24.7-17.6-31.2-29.1-9.4-20.1-13.9-42.9-6.8-64.6 5.4-15 14.1-27.6 24.8-39.4l1.8-2c13.1-14.2 32-22.8 50.2-28l3.3-1c15.1-3.8 30.4-3 45.3 1.1 3.5 1.1 3.5 1.1 7.4.9l4-8q-2-1-4-2c-8.7-5.9-16.4-12.8-24-20q-1.2-1.1-2.4-2.2C252 460 242.6 441.9 234 424c-6.7.7-13 2.1-19.5 3.8q-1.6.4-3.3.8-3.4.9-6.9 1.8-5.2 1.4-10.4 2.7c-14.8 3.7-14.8 3.7-29.5 8.2-3.8 1.1-7.5 1.6-11.4.7-3.1-2.1-3.1-2.1-5-5-.6-4-.1-6.6 2-10 6.2-4.9 13.2-7.3 20.7-9.3q1.5-.4 3.1-.8 4.5-1.2 9.1-2.3 3.5-1 7-1.9 6.6-1.7 13.2-3.4 2.6-.7 5.3-1.4 3.7-1 7.5-2 1.1-.3 2.2-.6c3.7-.9 7.1-1.5 10.9-1.3q-.7-1.7-1.4-3.4c-1.7-4.6-2.8-9.3-3.7-14.2-.3-1.3-.3-1.3-.5-2.6-1.5-7.6-2.2-15.1-2.4-22.8q-1 .5-2 1-3.1.2-6.2.2-1.9 0-3.9 0-1.1.1-2.2.1c-14.9.2-29.6 1.5-44.4 3.4q-1.1.2-2.2.3-2.8.4-5.7.8c-4.3.3-7.9 0-11.7-2-2.3-2.4-2.3-3.9-2.3-7.2.2-4 .4-5.3 2.8-8.7 4.4-3 8.3-4.1 13.6-4.7q1.7-.2 3.5-.3 1.8-.2 3.6-.4 1.9-.2 3.8-.4 3.9-.4 7.7-.7 4.8-.5 9.6-1c12.4-1.3 24.6-1.6 37-1.4q0-1 0-1.9c-.2-12.3 1.1-23.9 3.7-35.8q.4-1.8.8-3.7c3.2-14.4 7.3-27.5 14.7-40.3 3.1-5.6 3-9.2 1.8-15.3q-.5-2.8-.9-5.5-.6-3.2-1.2-6.4c-2.2-12.4-4.3-24.8-5.7-37.4q-.2-1.5-.3-2.9c-1.9-18-2.1-36.1-2.2-54.1q0-1.5 0-3c.1-28.3.9-60.6 21.3-82.7 8.5-6.2 17-7.1 26.5-2.7z" fill="#023557"/><path d="M761 69.7c5.1 3.4 6.5 10.4 7.7 16.1q.3 1.1.5 2.3.2 1.1.5 2.3c1.8 8.3 2.5 16.4 2.5 24.9q.1 1.7.1 3.4 0 5.4 0 10.8 0 1.8 0 3.7c0 29.7-2.5 58.7-8.3 87.8-5.6 24.1-5.6 24.1 1.9 46.7 13.3 21.2 17 49.7 16.1 74.3l-30.7 3-20.4 1.9q-1.8.2-3.6.4c-4.4.9-7.9 2.4-11.2 5.4-1.6 3.4-1.8 6.6-1.1 10.3 1.8 3.1 2.8 4.7 6.3 5.7 2.9.3 5 .1 7.8-.6 5.7-1.1 11.3-1.8 17-2.4q1.5-.2 3-.3 3.1-.4 6.3-.7 4.8-.5 9.6-1 3.1-.3 6.1-.7 1.5-.1 2.9-.3 1.4-.1 2.7-.3l2.4-.2c1.9-.2 1.9-.2 3.9-.2-.1 13-3.8 25.5-7 38-7.7-.7-15.1-2.3-22.6-4-9.9-2.3-19.4-4.2-29.6-4.3-1.2-.1-1.2-.1-2.4-.1-3.8 0-5.8-.1-8.9 2.2-2.2 3.2-2 5.4-1.5 9.2 2.3 3.5 4.8 4.4 8.7 5.3q2.9.5 5.9 1.1 3.2.6 6.4 1.2 1.7.4 3.4.7c6.2 1.2 12.3 2.6 18.5 3.9q1.7.4 3.5.8 1.7.4 3.3.8l3 .6c2.3.6 2.3.6 4.3 1.6-5.1 16.7-16.2 30.5-28 43-.9 1-.9 1-1.9 2-13.2 13.9-30 24.6-46.9 33.7-5.1 2.8-9 5.3-12.2 10.3-.4 3 .3 5 1 8 1.1 1.3 1.1 1.3 4.1 1.3 4.6-.3 7.9-1.7 12-3.7q2.1-.9 4.2-1.9.9-.4 1.9-.9c2.2-1 4.5-1.9 6.8-2.8 4 6.7 4 6.7 4 9-6 6.1-11.8 8.8-20.3 9.1q-3.2 0-6.5-.1-2.3 0-4.7 0-6.5.1-13 0-6.9 0-13.9.1-13.7 0-27.4 0-11.1-.1-22.3-.1-1.5 0-3.2 0-3.2 0-6.4 0-30.2.1-60.3 0-25.9-.1-51.8 0-30.1 0-60.1 0-3.2 0-6.4 0-1.6 0-3.2 0-11.1 0-22.2 0-13.6 0-27.1 0-6.9-.1-13.8-.1-6.4.1-12.7 0-2.3 0-4.6 0c-12.7.1-12.7.1-18.1-4.5l-3-3.4 3-9c5.7 1.8 11 4.2 16.5 6.8 3.7 1.3 6.5 1.6 10.5 1.2 2.6-2.2 2.9-3.6 3.5-6.9-.7-4-2.4-5.7-5.5-8.1-3.7-2.4-7.6-4.6-11.5-6.8-31.3-17.9-58.4-40.7-73.5-74.2q0-1.5 0-3c10.7-2.6 21.5-4.6 32.4-6.4 8.4-1.4 16.6-2.8 24.6-5.6 1.3-6.8 1.3-6.8-.8-13.1-4.5-3.9-9.2-3.4-15-3.1-8.4.8-16.7 3-24.9 4.8q-4.5 1-9.1 2-2.8.6-5.6 1.3-1.3.2-2.5.5-1.1.2-2.3.5-.9 0-1.8.1c-2.2-2.2-2.4-3.1-3-6q-.3-1.3-.5-2.5-.3-1.3-.6-2.7-.2-1.3-.5-2.7c-1.5-7.7-2.2-15.3-2.4-23.1q.8.1 1.6.2 11.2 1.4 22.4 2.8 1.1.1 2.2.3 7.1.8 14.1 1.7 2.4.2 4.7.5 3.4.4 6.7.8 1.9.3 3.9.5c3.9.2 7 .3 10.2-2.2 2.2-2.8 2.3-4.5 2-8-.4-3.2-.7-4.4-2.7-7.1-3-2.1-5.6-2.6-9.1-2.9q-1.3-.1-2.6-.1c-1.4-.1-1.4-.1-2.8-.3-16.9-1.3-33.8-3.8-50.6-6.2-.6-25.5 4.5-54.7 17.9-76.7 5.7-10 3.6-20.2 1.3-31-1.6-7.8-2.5-15.8-3.5-23.8q-.5-3.9-1-7.8-.3-2.5-.6-5.1-.2-1.1-.3-2.3c-1.4-11.5-2-22.9-2-34.5-.1-1.8-.1-1.8-.1-3.6q0-3.9 0-7.7 0-3.8-.1-7.6C254 86.4 254 86.4 268 70c5.5-1.3 9.8 1.7 14.4 4.4q1.1.6 2.2 1.2c7 4 13.7 8.5 20.4 13q5 3.4 10.1 6.8c16.4 10.9 32.7 21.9 48.7 33.5q3.4 2.5 6.9 5c2.7 1.9 5.4 4 8.1 6.1 9.2 7.3 17.1 8.7 28.7 7.4 5.5-.9 10.7-2.4 16-4 23.3-7.3 49.1-9.5 73.4-9.6q2-.1 4-.1 6.3 0 12.6 0 1.1 0 2.2 0c22.6-.1 44.9.7 67.3 4.3 1.6.2 1.6.2 3.2.5 9.2 1.4 18.1 3.3 27 5.6 15.6 4.3 15.6 4.3 31 1.3 2.8-1.9 5.4-3.8 8-6 3.4-2.7 7-5.2 10.6-7.7q2.3-1.7 4.6-3.4C724.3 87.2 724.3 87.2 753 72q1.6-.9 3.2-1.9c2.8-1.1 2.8-1.1 4.8-.4z" fill="#ed8a00"/><path d="M341 546h341q-1.6 4-3.2 8c-7.3 18.2-7.5 34.9-.5 53.3 5.7 12.5 14.9 21.7 27.7 26.9q4 1.5 8 2.8c3 1 3 1 4.3 3.1q.6 1.4 1.3 2.7.6 1.3 1.2 2.7.6 1.2 1.2 2.5 1 2 2 4-1.1 1.1-2.2 2.2-10.5 10.4-20.9 20.9-5.4 5.3-10.7 10.7-5.2 5.1-10.4 10.3-2 2-3.9 3.9-2.8 2.8-5.6 5.6-.8.8-1.6 1.6c-2.8 2.8-5.5 5.7-8.1 8.7-3.8 4.4-8 8.6-12.2 12.8q-1.2 1.2-2.5 2.5-2.7 2.7-5.4 5.3-4.2 4.3-8.5 8.5-9.7 9.8-19.5 19.5-9 9-18 17.9-4.9 4.9-9.8 9.8-2.5 2.6-5.1 5.1-1.2 1.2-2.3 2.3c-4.1 4.1-8 8.3-11.8 12.7s-8 8.5-12.1 12.7q-1.6 1.6-3.2 3.3C540 839 528 847.4 512.7 848.5c-16.5-.7-28.9-13.3-39.8-24.3q-1.7-1.7-3.4-3.4-3.6-3.5-7.1-7.1-4.5-4.5-9-9.1-4.4-4.3-8.7-8.7-.8-.8-1.6-1.6-2.4-2.4-4.7-4.7-1.3-1.4-2.7-2.7c-2-2.1-3.9-4.3-5.8-6.5-5.1-5.9-10.7-11.3-16.2-16.8q-1.8-1.8-3.7-3.7-5-5-10-10-5.2-5.2-10.4-10.4-9.9-9.9-19.8-19.7-11.2-11.3-22.5-22.5-23.1-23.2-46.3-46.3.5-.9.9-1.9c1.1-2.1 1.1-2.1 1.9-4.3 1.8-4 3.2-6.3 7.1-8.3q3.4-1.2 6.8-2.3c13.6-4.8 21.5-16.1 27.5-28.5 6.1-14.6 6.9-30.7 1.8-45.7-1.5-3.3-3.1-6.5-4.8-9.6-1.2-2.4-1.2-2.4-1.2-4.4zm290 228c4.7 3.9 9.2 8 13.5 12.4q.9.9 1.9 1.8 3 3.1 6.1 6.2 2.2 2.2 4.4 4.4 5.9 5.9 11.9 11.9 6.2 6.2 12.5 12.5 11.8 11.8 23.6 23.6 13.4 13.4 26.8 26.9 27.7 27.6 55.3 55.3c-6.6 3.9-13.8 4.3-21.2 4.3q-1.3 0-2.7 0-4.5 0-9 0-3.3 0-6.6 0-8.9 0-17.9 0-9.7 0-19.4 0-18.9 0-37.9 0-15.4 0-30.8 0-2.2 0-4.5 0-3.3 0-6.6 0-31 0-62.1 0H566q-6 0-11.9 0-1.2 0-2.4 0-2.3 0-4.7 0-37.1 0-74.1 0-41.6.1-83.2.1-4.5 0-8.9 0-1.1 0-2.2 0-16.5 0-33 0-18.8 0-37.5 0-9.6 0-19.2 0-8.7 0-17.5 0-3.2 0-6.3 0-4.3 0-8.6 0H254c-6.1-.1-11.3-1.4-17-3.4 5.7-6.9 12.1-13.2 18.4-19.5q1.9-1.9 3.8-3.8 5.1-5.1 10.2-10.2 5.4-5.4 10.7-10.8 9-9 18-18 10.4-10.3 20.8-20.7 8.9-9 17.9-17.9 5.3-5.4 10.6-10.7 5.1-5 10.1-10 1.8-1.8 3.6-3.7c11.2-11.2 11.2-11.2 17.3-16.3a149.1 149.1 0 0 0 8.1-7.8q.8-.8 1.6-1.7 2-1.9 3.9-3.9a22 22 0 0 1 7.1 4.9q.9.9 1.8 1.8l1.9 1.9q1 1 2 2.1 2.2 2.2 4.4 4.4 3.5 3.5 7 7 9.9 10 19.8 20 6 6.1 12.1 12.2 2.3 2.3 4.6 4.7c12.7 12.8 24.4 23.1 41.3 30q1.2.5 2.5 1.1c12.4 4.7 28.6 3 40.5-2.1q1.4-.6 2.8-1.2c14.6-7.2 26.1-21.5 37.4-32.9q3.9-3.9 7.9-7.9 2.6-2.5 5.1-5.1 1.2-1.1 2.4-2.3c4.1-4.2 8.1-8.4 11.8-12.9 1.6-1.7 3.3-3.2 5.1-4.7 3.2-2.6 5.8-5.5 8.5-8.7 4.1-4.6 8.6-8.9 13-13.3zm115.3-111q1.8.5 3.7 1 3.7.1 7.4.1 2 0 4 0a45.92 45.92 0 0 0 8.2-1c5.4-.8 9.7 2.4 14.2 5.1 3.8 2 7.8 2.4 12 2.9q1 .1 2.1.3 2.5.3 5.1.6.1 45.6.1 91.2 0 5.4 0 10.7 0 1.1 0 2.2 0 17.4.1 34.7 0 17.8 0 35.6 0 10 0 20 0 9.4 0 18.8 0 3.5 0 6.9.1 4.8 0 9.5 0 1.3.1 2.8 0 1.2-.1 2.5 0 1.1 0 2.2c-.2 1.9-.2 1.9-2.2 4.9q-.9-.9-1.9-1.9-8.8-8.8-17.6-17.7-4.6-4.5-9.1-9.1-4.4-4.4-8.8-8.8-1.6-1.6-3.3-3.3-2.4-2.4-4.7-4.7-1.3-1.4-2.7-2.7c-2.1-2.1-4.4-4.1-6.6-6-4.9-4.3-9.5-8.8-14-13.4q-1.4-1.4-2.9-2.8-3.8-3.9-7.6-7.7-4-4-8-8-7.6-7.6-15.1-15.2-8.6-8.6-17.3-17.2-17.7-17.8-35.4-35.5c4.7-5.6 9.7-10.9 14.8-16.1q1.3-1.3 2.6-2.6 11.9-12.1 23.9-24.1 8.8-8.9 17.6-17.8 6.1-6.3 12.4-12.6 3.7-3.7 7.4-7.5 4.1-4.1 8.2-8.3 1.2-1.2 2.5-2.5c6.2-6.1 6.2-6.1 10.9-5.5zM250 662q1.5.5 3.1.9c6.5 1.7 15.6 2.7 21.9.3 2.5-.9 4.3-1.3 7-1.2 3.9 2.2 6.8 5.4 9.8 8.6q1.5 1.4 2.9 2.8 3.8 3.9 7.6 7.8 4 4 8 8.1 7.6 7.6 15.1 15.3 8.6 8.8 17.2 17.5Q360.4 740 378 758c-1.6 4.2-4.7 7-7.9 10.1q-.9.9-1.8 1.9-3.1 3-6.2 6.1-2.2 2.2-4.3 4.4-6 5.9-12 11.9-6.2 6.2-12.5 12.5-11.8 11.8-23.6 23.6-13.5 13.4-26.9 26.8-25.8 25.7-51.5 51.4l-6.1 6.2C224 914 224 914 222 914V672l16-3c6.4-2.8 6.4-2.8 12-7z" fill="#f4dca5"/><path d="M296.8 531.6c5 4 9.8 8.4 14.5 12.8 1.5 1.5 3.1 2.9 4.7 4.3 6.9 6 11.2 15.8 14 24.3 1 15.6-1.4 26.9-12 39-5.6 5-5.6 5-9 5q-.3-1.8-.6-3.8c-1.9-8.8-7.6-18.1-14.4-24.2-3.5-2-5.9-2.4-10-2-3.7 1.8-3.7 1.8-6 5-.7 6.6 1.5 11 4.4 16.7q1.3 2.6 2.5 5.1.6 1.1 1.2 2.2c2.8 6 2.6 11.6.7 17.8-2.9 5.1-6 7.1-11.5 8.9-5.1 1.4-10.1 2.3-15.3 1.3-2.7-1.9-2.7-1.9-5-5q-.7-.8-1.5-1.7c-5.1-6-8.8-12.9-12.6-19.8-.7-1.2-.7-1.2-1.3-2.5q-.6-1.1-1.2-2.2c-2.2-2.8-4.4-3.6-7.8-4.2-3.5.5-5.1 2-7.6 4.4-2 2.7-2.5 5.4-2.4 8.8 1.5 8.5 6.3 16 10.9 23 1.5 2.2 1.5 2.2 2.5 4.2-7 2.9-13.8 3.1-20.9.4-15.4-6.9-25.5-15.7-31.9-31.6-5.1-13.8-3.1-31.3 2.6-44.6 4.6-10 11.6-17.5 19.2-25.2q.9-1 1.9-2.1c20.6-22.6 65.9-32.2 91.8-14.3zm461.8-7.9q1.5 0 3.2 0c24.5.4 45.8 10.1 63.2 27.3 13 14.6 21 33.1 20.3 52.8-1.4 14-7.9 26.7-18.3 36.2-10 7.8-21.2 12.3-34 11q-2-.4-4-1c1.4-2.8 2.9-5.5 4.6-8.2q.7-1.2 1.4-2.5 1.6-2.5 3.1-5c3.2-5.3 5.2-10 4.9-16.3-1.2-3.7-2.3-5.4-5.3-7.9-3.5-1.4-5.9-1.7-9.7-1.1-3.1 2.7-4.2 5.5-5.5 9.3-2 5.3-5.1 9.6-8.4 14.1q-.8 1-1.6 2.1c-6.8 8.8-6.8 8.8-11.8 10.1-8.3 0-16.1-2.4-22.5-8-3.2-9.3-1.7-18.1 2.4-26.8 1.3-2.6 2.7-5.2 4.2-7.7 2-3.5 3.1-6 2.2-10.1-2.2-2.8-3.5-3.8-7-5-5.1-.4-7.9 0-12 3-1.7 2.1-3.1 4.1-4.6 6.4-.5.9-.5.9-1.1 1.8-3.7 6-5.7 12-7.3 18.8-7-2.4-10.8-6.5-14.6-12.7q-.6-.9-1.2-1.9c-5.9-9.6-7.4-18-6.2-29.4 4.6-17.1 18.5-31.7 33-41 10.9-5.9 20.3-8.4 32.6-8.3z" fill="#ed8a00"/><path d="M542 332l3.7 1.2c7.3 2.5 13.6 5.4 17.7 12.2 2.4 10.9-1.5 22.3-7.4 31.6-7.9 10.4-17.3 17.5-30 21q-1 0-2 0c3.5 11 8.6 20.9 18 28 10 5.1 19.8 7.9 31 5.3 6.2-2.1 11.1-5 16-9.3q1-.8 2-1.7c7.5-6.8 12.3-16 16.2-25.4 1.6-3.8 3.3-6.4 6.8-8.9a18 18 0 0 1 8 0c2.8 1.8 4.5 3 6 6 2.7 12.6-4.9 24.6-11.2 35-9.6 14.7-23.7 24.3-40.8 28-3.9.4-7.8.5-11.7.5q-1.6 0-3.2 0c-8.8-.2-16-1.7-24.1-5.5q-1.5-.7-3-1.4c-5.8-2.9-10.8-6.6-15.8-10.9-2-1.6-3.9-2.7-6.2-3.7-.9.7-.9.7-1.8 1.5-18.1 15.1-36.9 21.1-60.2 19.5-13-1.8-24.2-8.6-34-17q-1-.9-2.1-1.7c-9.1-8.4-18.8-24.8-20.1-37.4-.2-5.2.9-7.9 4.2-11.9 3.5-1.8 7.2-1.6 11-1 4.8 3.8 6.4 9 8.6 14.6 5.3 12.6 14.1 22.6 26.4 28.4q.9.5 1.8 1c8.6 4 20.1 3.1 28.9.1 11.8-5.4 21.4-13.2 26.7-25.3l2.6-7.8q-1.6-.1-3.2-.2c-13.2-1.7-23.6-7.4-32.1-17.4-5.8-8-7.6-16.7-6.7-26.4 1.9-7.6 4.8-14.9 11.3-19.7 18.7-10.5 49-7.5 68.7-1.3z" fill="#01375a"/><path d="M633.4 623c4.9 3.8 10.2 8.8 11.6 15 .6 6.3-.6 11.6-4.2 16.8-1.9 2.1-3.8 4.2-5.8 6.2l-1.7 1.7c-11.5 11.8-11.5 11.8-17.1 16.6-5.2 4.5-10 9.3-14.8 14.1q-1.3 1.4-2.7 2.8-1.3 1.3-2.7 2.7l-2.4 2.4c-2 2.1-3.9 4.2-5.8 6.4-3.7 4.3-7.7 8.4-11.8 12.4q-1.1 1.2-2.3 2.4-3.7 3.7-7.5 7.5-1.2 1.3-2.6 2.6-6.7 6.8-13.6 13.6-7 7.1-14 14.1-5.4 5.5-10.8 10.9-2.6 2.6-5.1 5.2-3.7 3.6-7.3 7.2-1 1.1-2.1 2.2c-4.7 4.7-8.9 7.5-15.7 7.5q-.9 0-1.9.1c-5.9-1.1-10-4.8-14-9q-.9-.8-1.7-1.7-2.8-2.7-5.5-5.5-1.9-1.9-3.8-3.9-5.1-5-10.1-10.1-5.1-5.2-10.2-10.3-8.3-8.3-16.6-16.6l-11.5-11.5c-6.8-6.4-10.8-11.3-11.3-20.8.3-6.7 2.5-10.8 7.1-15.5 4.1-3.7 7.5-5.3 12.9-5.8 10.2.9 16.3 7.6 22.8 15 4.5 5 9.2 9.8 14 14.6q1.2 1.2 2.5 2.5 3.9 3.9 7.9 7.8 2.6 2.7 5.3 5.4 6.6 6.5 13.1 13c6.3-5.2 12-10.9 17.8-16.7q1.6-1.7 3.2-3.3 3.5-3.4 6.9-6.9 5.5-5.5 11-11 15.5-15.6 31-31.2 8.6-8.6 17.2-17.3 5.5-5.4 10.9-10.9 3.4-3.4 6.7-6.8 1.6-1.5 3.2-3.1 2.1-2.2 4.2-4.3 1.2-1.2 2.5-2.4c7.2-6.2 15.8-6.7 24.8-4.1z" fill="#013657"/><path d="M654.9 270.3c11.4 7.8 20.5 19.2 24.1 32.7.7 5.1.8 8.6-1.9 13.1-3 2.8-4.9 3.1-9 3.3q-1.3 0-2.6.1c-2.5-.5-2.5-.5-4.7-2.7-1.8-2.8-2.9-5.3-4-8.5-3.2-7.9-8.2-14.7-15.8-18.8-9.9-4.1-20.4-5-30.6-1.6-10.7 4.9-15.2 15-19.2 25.5-1.2 2.5-2 3.9-4.2 5.6-4.9 1.2-6.8 1.6-11.4-.6-3.9-3.6-4.4-6-5.2-11.2.2-11 9-23.3 16.3-31 19-18 46.4-18.9 68.2-5.9z" fill="#02355a"/><path d="M435 273c9 7.1 16.9 18.6 19 30 .5 4.4.5 7.8-1.2 11.9-2.9 3.4-5.3 4.9-9.8 5.5-3.9-.5-5.2-1.7-8-4.4-1.1-2.4-2.1-4.7-2.9-7.3-2.9-7.5-5.6-14.1-13.1-18.1q-2-.9-4-1.6-1.4-.5-2.8-1.1c-7.5-2.2-15.6-2.1-22.7 1.3q-2.3 1.3-4.5 2.8-1.5 1-3.1 2c-5.9 5.3-9.9 13.7-13.3 20.8-1.6 3.2-1.6 3.2-3.6 4.2-4.8.5-8.7.7-13-1.7-3.4-3.9-4.2-6.7-4-11.9 1.7-12.5 9.9-22.9 19.7-30.5 6.3-4.2 13.1-7.3 20.3-9.9q1-.4 2-.7c15.3-4.8 32.1 0 45 8.7z" fill="#02365a"/></svg>