<svg xmlns="http://www.w3.org/2000/svg" width="1024" height="1536" xmlns:v="https://vecta.io/nano"><path d="M577.3 308.6h2.1c21.5.1 43.3 2.3 63.1 10.9 8.1 3.4 12.8 3.5 21.2 1.4 20.4-4.7 42.4.6 59.8 11.4 2.9 1.8 5.7 3.7 8.5 5.7q1 .7 2 1.4c6.4 4.8 11.9 10.2 17.5 15.8q2.4 2.4 4.8 4.8 1.5 1.5 3 3a70.06 70.06 0 0 0 2.7 2.8c2 2.2 2 2.2 2 4.2q1 0 2 0 2.1 2.4 4.1 4.9c2.9 3.6 5.8 7.1 8.9 10.5 4.9 5.5 9 11.5 13 17.6q1 1.5 1.9 3c9.2 14.7 12.5 29.6 9.4 46.6-4.6 16.9-15.5 30.9-27.3 43.4q-1.1 1.2-2.1 2.4c-8.7 9.3-19.7 13.7-31.9 16.6q-2 0-4 0 0 .9 0 1.8c-.3 11.6-.5 22.4-5 33.2q-.4 1-.9 2.1c-5.7 14-12.7 24.9-23.1 35.9q-1.2 1.3-2.5 2.7c-7.3 7.8-17.7 18.1-28.5 20.3q.4 1.5.9 3 .5 1.9 1.1 3.8.6 1.9 1.1 3.8c.9 3.4.9 3.4.9 6.4.8-.5.8-.5 1.5-1.1 19.2-12.5 43.7-17.3 66.3-12.9 11.4 3.1 22.4 9.1 31.2 17q.9.8 1.8 1.6c9.4 8.6 15.3 20.2 17.3 32.7q.3 1.6.5 3.3.2 1.2.4 2.4 1.6 0 3.2 0 6.1-.1 12.2-.2 2.6 0 5.2 0c33.4-.5 33.4-.5 45 9.6 6.1 6.7 6.7 12.9 6.8 21.6-.6 9.2-4 18.3-6.8 27q-.4 1.5-.9 3-1.1 3.2-2.1 6.5-2.7 8.6-5.4 17.2c-.6 1.7-.6 1.7-1.1 3.5q-4.6 14.6-9.1 29.2-.3 1.2-.7 2.3-1.8 6-3.7 12-4.3 14.3-8.8 28.6-1.4 4.8-2.9 9.6-6.8 22.2-13.7 44.3-1.5 4.8-3 9.6-3 9.6-6 19.3-1.5 4.9-3 9.8c-8 25.7-15.7 48.4-40.5 62.3-17.3 9.1-36.6 10.1-55.7 10q-2.8 0-5.7 0-7.7 0-15.5 0-8.3 0-16.7-.1-14.5 0-29 0-21-.1-42-.1-34 0-68.1-.1-1 0-2.1 0-23.7 0-47.5-.1-1 0-2.1 0-5.1 0-10.3 0h-2.1q-2 0-4.1 0-34.9-.1-69.9-.1-21 0-41.9-.1-14.3 0-28.7 0-8.2 0-16.5 0-7.6-.1-15.2-.1-2.7 0-5.4 0c-10.6-.1-19.2.8-29.2 4.5l-2.3.4q-.8.3-1.7.6-.5 1.5-1 3c-3.4 3-3.4 3-6 3q-.4.9-.8 1.7c-1.2 2.3-1.2 2.3-2.5 4.3-4.6 7.7-4.8 15.3-3.7 24 1.9 6.1 5 10.9 10 15q.7.7 1.5 1.3c8.5 6.9 20.2 6.2 30.6 6.3l4 .2c7.1.2 7.1.2 13.4-2.5 2-2 3.7-4.1 5.5-6.3 16.1-13.4 37.3-19.5 58-18 14.7 1.7 32.6 5.9 42.3 17.9 3.5 4.1 6.7 7.5 12.2 8.6 3.1.2 6.2.3 9.4.3q1.8 0 3.8.1 5.4.1 10.8.1 3.9 0 7.8 0l43.5.1q1.7 0 3.4 0 15.3 0 30.6-.1 16.3 0 32.6 0 9.2.1 18.3 0 5.1 0 10.2 0 5.4.1 10.9 0 1.5 0 3.1.1c5.7-.2 8.5-.9 12.6-5q1.7-2 3.5-4.1c2.2-1.9 4.6-3.5 7-5.1q.9-.7 1.9-1.3c16.4-10.4 36.9-14.6 55.9-10.7 20.2 4.6 39 15.2 50.4 33 11.9 19.9 16.5 42.2 10.8 64.9-4.3 13.8-10.9 24.9-21 35.2q-.9.9-1.9 1.9c-14.4 13.6-33.1 19.5-52.5 19.4q-1.5 0-3.1.1c-17.4 0-33.1-6.5-46.5-17.4q-1.2-1-2.4-1.9c-14.4-12-23-30.7-25.3-49q-.2-2.6-.3-5.1-.1-1.5-.2-2.9c-.3-9.3 1.7-17.3 4.2-26.1.7-2.3 1.3-4.6 2-7H427l5 16a67.76 67.76 0 0 1 1 10q.1 1.6.2 3.2c.5 18.7-4.3 36-16.2 50.8q-1 1.2-2 2.5c-8.9 10.4-19.3 17.5-32 22.5-1.5.6-1.5.6-2.9 1.3-16.9 6-38.8 5.1-55.1-2.3q-.9-.4-1.9-.8c-18.7-8.5-33.9-24.4-41.3-43.6-6.8-20.3-5.4-41.2 3.2-60.6q-1.8.1-3.7.2c-13.5.4-29.9.1-40.6-9.5q-.8-.8-1.7-1.7c-1.1-1-1.1-1-2.3-2-9.4-8.6-15-20.5-15.9-33.3-.3-14 3.5-25.3 13.1-35.8C247.8 983 247.8 983 255 983q-5.7-25-11.9-50-2.5-9.9-4.9-19.8-.3-1.1-.5-2.1L226 862.5l-16.4-67.6q-.4-1.8-.8-3.5-2.1-8.5-4.2-17-3.8-15.3-7.5-30.6-.4-1.4-.7-2.8l-6.5-27q-.2-1.1-.5-2.1-1.1-4.8-2.1-9.5c-1.5-6.4-3.3-12.5-5.6-18.6-.8-3.3-.5-5.5.3-8.8 1.6-1.9 1.6-1.9 4-3q3.5-.1 7 0l-19.9-61q-.8-2.3-1.5-4.6-1.1-3.2-2.2-6.5-.6-1.7-1.2-3.6c-2.1-5.8-3.9-9.9-9.2-13.3-6.1-2.3-11.8-2.3-18.3-2.3q-3.3 0-6.6 0-5.2-.1-10.4-.1-5.1 0-10.1-.1-1.6 0-3.1.1c-9.2-.2-16.2-2.7-23-9-6.6-7.2-7-15.2-6.8-24.5.4-7.5 3.7-12.8 8.9-18 9.1-7 19.6-7.7 30.7-7.6q2 0 4 0 4.2-.1 8.4 0 5.3 0 10.6 0 4.2-.1 8.3 0 2.9 0 5.8-.1c13.1.2 25.6 3.5 35.6 12.3 9 9.6 12.7 22.6 16.6 34.8q.8 2.4 1.6 4.8 1.6 4.9 3.2 9.8 2.3 6.9 4.6 13.7c.3 1.1.3 1.1.7 2.2q.7 2.2 1.4 4.4 3.5 10.3 6.9 20.6.5 1.4.9 2.8 3 8.9 5.9 17.8.9 2.9 1.9 5.8 1.3 4 2.7 8.1l.8 2.4c1.1 3.6 1.8 6.3 1.8 10.1h99l3-9c1.1-2.5 2.2-4.9 3.4-7.3q.5-1 1.1-2c18-35 44.9-68 76.5-91.7-.4-1-.4-1-.9-2.1-1.2-3.2-2.2-6.5-3.1-9.9q-1.4.3-2.8.7c-22.6 4.9-45.2 3.7-65.2-8.7-5.5-3.8-10.5-8.1-15-13q-.8-.8-1.6-1.7c-12.1-12.8-15.9-29.8-15.6-47 .4-11.1 3.5-21.3 8.2-31.3q.5-1.2 1.1-2.4c6.7-14.3 16.2-27.2 25.9-39.6q.6-.8 1.3-1.7c4.1-5.1 8.3-10.1 13-14.6 1.7-1.7 3.3-3.5 4.8-5.3 20.6-23.7 49.9-47 81.9-51.4 5.4-.3 10.8-.2 16.2 0 9.5.4 16.9-1.7 25.2-6.3 11.7-6 24.1-10.2 36.8-13.5q1.1-.3 2.2-.6c13.1-3.2 26.4-4 39.9-4z" fill="#01285e"/><path d="M209.7 685.9q1 0 2.1 0 3.4 0 6.9 0 2.5 0 4.9 0 6.8 0 13.6 0 7.1 0 14.3 0 12.2 0 24.3 0 12.3 0 24.6 0 36.3-.1 72.6.1 7.8 0 15.7 0 11.5 0 23.1.1 5.2.1 10.3.1 5.5 0 11 .1h3.2c7.1.1 7.1.1 10.3 3.1 1.4 2.7 2.8 5.3 4.1 8.1 8 16.3 18.3 28.5 35.3 35.5 19.3 6.6 47.6 7.5 66.4-1.1 2-1.2 3.8-2.5 5.6-3.9l2.4-1.8c11.5-8.6 17.6-18.1 19.8-32.3q.2-1.6.4-3.3c.4-2.6.4-2.6 1.4-3.6 7.1-1 14.2-1.1 21.3-1.1q1.8 0 3.6 0 5.8 0 11.6 0 2 0 4 0 34.2 0 68.5 1.1l1.6 3.1q1 2 2.1 4 .5 1 1 2c6.8 12.9 17.6 22.3 31.2 27.3 14.6 4 31.7 2.9 45.2-3.9 2.7-1.7 5.3-3.5 7.9-5.5q1.2-.9 2.5-1.9c6.4-5.2 10.2-11.3 13.7-18.7.6-1.2.6-1.2 1.2-2.5q.5-1.1 1-2.2c2.5-2.6 5.1-2.3 8.6-2.7 4.9-.2 9.7-.2 14.6-.2q2 0 3.9 0c23.6-.1 23.6-.1 30.5 5.2 3.8 5.5 2.8 9.4 1.7 15.8-1.1 4.9-2.5 9.5-4.1 14.2q-.5 1.6-1 3.1-1.1 3.3-2.2 6.6-2.9 9-5.8 17.9-.6 1.8-1.2 3.7l-10.7 34.5q-8.7 28.7-17.7 57.3-.3 1-.6 2-2.9 9.1-5.8 18.3-4 12.8-8 25.7-.5 1.6-1 3.3-2 6.2-3.9 12.3-2.1 6.7-4.1 13.3-1.6 5.1-3.2 10.2-.8 2.5-1.6 5.1-.3 1.1-.7 2.2c-5.2 16.9-13.4 28.3-29 36.9-15.7 7.9-33.1 6.8-50.3 6.7q-2.8 0-5.7 0-7.7 0-15.4 0-8.4 0-16.7 0-14.5 0-29 0-20.9 0-41.8 0-33.9 0-67.8 0-32.9 0-65.9 0-1 0-2 0-10.2 0-20.5 0-85.5-.1-171-.1-.7-2.1-1.4-4.3-.4-1.1-.8-2.4c-1.1-3.2-1.9-6.5-2.7-9.8q-.3-1-.5-2.1-.8-3.4-1.7-6.8-.5-2.4-1.1-4.8-1.5-6.3-3.1-12.6-2.7-11.2-5.4-22.5-.3-1.2-.6-2.4l-7.2-28.6c-1.8-6.8-3.3-13.7-4.7-20.7-.9-4.2-1.8-8.2-3.3-12.2-1.8-5.2-2.7-10.4-3.7-15.7-1.4-7.1-3.2-14.1-5-21q-.6-2.4-1.2-4.8-1.2-4.8-2.4-9.6-2.7-10.8-5.4-21.6-.3-1-.6-2.1-3.5-14.3-6.9-28.6-2.4-10-4.8-19.9-.9-3.7-1.8-7.4-1.6-6.7-3.3-13.4-.6-2.9-1.3-5.7-.4-1.3-.7-2.6c-.9-3.9-1.7-7.4-1.4-11.4 3.4-1.1 6.1-1.1 9.7-1.1z" fill="#fec300"/><path d="M582 324q2.1 0 4.2.1c17.5.5 34.5 3.7 50.8 9.9q1.9.6 3.8 1.3c9.6 3.4 17.2 8.5 25.2 14.7q1.3.9 2.6 1.9 3.3 2.5 6.4 5.1.9.8 1.9 1.6c7 6.3 11.8 14.6 16.9 22.5q1.4 2.2 2.8 4.3c8.9 16.8 11.8 37.7 13.2 56.4.7 9.6 2.6 18.9 4.6 28.3q.3 1 .5 2.1l4.7 20.1c6.1 23.9 3.5 46.4-8.3 67.8-4 6.7-8.9 12.3-14.3 17.9q-1 1.1-2 2.2c-3.9 4.1-7.9 7.3-12.7 10.3-2.3 1.5-2.3 1.5-4.4 3.1-11.7 8.8-25.8 14.8-39.9 18.4q-1.2.3-2.5.6-8.7 2.3-17.5 4.4-.6 2.2-1.1 4.3-.3 1.2-.7 2.4c-.5 2.6-.5 2.6 1.8 5.3 5.8 2 11.7.1 17.6-1.1q1.6-.4 3.2-.7c6.9-1.5 13.3-3.4 19.8-6.4 2.4-.8 2.4-.8 4.6-.9 3.1 1.9 3.5 5.3 4.4 8.6q.3 1 .6 2.1c2.6 8.6 4.2 17.3 5.4 26.2q.2 1.4.4 2.8c.6 3.9 1 7.5 1 11.4-4 1.3-7.8 1.1-12 1.1h-2.7q-4.6 0-9.2 0-3.1 0-6.3 0-8.3 0-16.6 0-8.5 0-16.9-.1-16.7 0-33.3 0-.4-.9-.8-1.9-.6-1.2-1.1-2.4-.5-1.2-1.1-2.5c-4.8-10.7-11.4-18.5-21-25.2-1-.8-1-.8-2-1.5-13.7-10.1-33.4-13.4-50-10.9q-2.2.3-4.3.7l-2 .4c-5.3 1-9.9 2.5-13.7 6.3.3 2.9.7 5.3 2 8 4.8.2 9.1.1 13.9-1 14.3-3.1 31.3-.9 43.9 6.7 11.9 8.1 21.5 18.5 24.6 32.9 1.2 8.5.1 15.9-4.4 23.4-6.7 8.9-6.7 8.9-12 10q-.1-2-.1-4-.1-2.6-.2-5.2 0-1.3-.1-2.6c-.3-6.6-.3-6.6-3.6-12.2-2.8-1-5-.9-8-1q-1 .5-2 1 0 .9 0 1.8.1 4.1.1 8.1.1 1.4.1 2.8c.1 14.2.1 14.2-3.7 19.4-4 1.4-7.6.9-11.8.6l-2.5-.2q-3.1-.2-6.2-.5c-1.1-3.7-.7-5.5.4-9.2 2.2-7.9 1.9-15.7 1.6-23.8h-9q-.5 2-1 4-1 0-2 0c-.1 1.7-.1 1.7-.3 3.4-.8 8.4-1.8 15.9-5.7 23.6-8.4-1.3-16.7-5.8-22.2-12.4-3.8-5.2-6.9-10.8-10.2-16.4-6.2-11.4-6.2-11.4-16.6-18.2-8.1-1.2-16.3-1.2-24.5-1.3q-3.9 0-7.8 0-9.7-.1-19.4-.2-8.2-.1-16.4-.2-3.9 0-7.7-.1-2.4 0-4.8 0h-2.1c-3-.1-5.4-.2-8.3-1.2 2.2-7.7 5.7-14.4 9.7-21.4q.9-1.6 1.8-3.2c4-7.2 8.5-13.8 13.5-20.4l1.7-2.3c5.8-7.8 11.7-15.5 18.3-22.6 1.8-1.9 3.5-3.9 5.2-5.8 7.7-8.9 16.1-17.7 25.8-24.3 3.6 1.5 5.7 3.6 8.2 6.5q1.1 1.2 2.2 2.4c1.6 2.1 1.6 2.1 1.6 4.1l1.8.8c2.4 1.3 4.1 2.8 6.1 4.7 10.6 9.6 27.8 23.9 42.7 24.7 3.5.2 3.5.2 5.4-2.2.8-2.3.8-2.3 0-5-6.8-6.9-15.5-12-23.9-16.7-12.1-7.3-21-17-29.1-28.3q-1.9-2.4-3.8-4.9-.8-1-1.7-2.1-1.5-2-3.1-4c-1.4-1.8-1.4-1.8-3.4-5 .7-5.3 4.3-9.2 7.9-13 8.6-9.8 11.2-23.9 12.2-36.6q.2-1.6.3-3.2c.5-8 .7-16 .6-24v-3.1q0-7.9-.2-15.7c-.1-11.2.2-20.8 4.9-31.1 1.5-3.8 1.9-6.3 1.3-10.3-2-2.6-2-2.6-5-4-3.7-.3-3.7-.3-7 0q-.4 1.3-.8 2.6c-1.7 4.8-3.8 9.3-5.9 14-2.1 5.3-2.4 10.4-2.5 16.1v4q0 1.1 0 2.1 0 3.3-.1 6.7 0 9.4-.1 18.8 0 5.8-.1 11.6 0 2.1 0 4.3c-.1 14.4-1.4 29.5-11.6 40.6-4.8 4.5-9.7 7-15.9 9.2q-1 .4-2.1.7c-16 4.5-33.8.7-48-6.9-9-5.6-15.1-11.4-19.9-20.8q-1.1-1.8-2.3-3.6c-3.7-7.4-4-15.1-4-23.3q0-1.4-.1-2.8c0-11.4 3.8-19.9 9.5-29.5.8-1.6.8-1.6 1.7-3.1 4.6-7.9 9.6-15.4 15.2-22.7q1.1-1.5 2.3-3.1c6.5-8.9 13.9-16.8 21.5-24.6q2.2-2.3 4.4-4.6c10.1-10.7 20.4-19.8 32.8-27.7q1-.7 2.1-1.3c13.8-8.8 27.6-13.2 44-13 13 .2 23.5-1 35-7.6 22.7-12.9 51.1-18.1 76.9-17.1z" fill="#fd8d00"/><path fill-rule="evenodd" d="M607 1158c11.3 15.7 30.2 25.7 49 29 25.5 1.5 46.8-3 66.4-20.1 7.2-6.8 12.5-14.9 16.6-23.9 10.5-.5 20.6 1 31 2.6q1.3.2 2.7.4c66.5 10.2 66.5 10.2 82.3 25 1.6 3.1 1.4 5.5 1 9-2 2.6-2 2.6-5 5q-.7.6-1.5 1.2c-7 5-15.4 7.3-23.5 9.8q-1.3.4-2.7.8c-22.3 6.7-45.3 10-68.3 13.2q-1.3.2-2.6.4c-37.8 5.2-76 8.1-114.1 10.3q-1.2.1-2.4.2c-38.6 2.1-77.3 2.3-116 2.2q-9.2 0-18.5 0c-39.2.1-78.3-.4-117.5-2.7q-3.3-.2-6.7-.4c-27.8-1.6-55.5-3.9-83.2-7q-1.4-.2-2.7-.3c-18.4-2.1-36.6-4.6-54.7-7.8-1.1-.1-1.1-.1-2.1-.3-10-1.8-19.7-4-29.5-6.6q-1.3-.3-2.6-.7c-27.1-7-27.1-7-34.4-17.3-.9-3.4-.9-3.4 0-7 17.3-22.7 65.2-24.2 91.2-27.8 1.2-.2 1.2-.2 2.4-.3q3.4-.5 6.8-1 1.9-.2 3.9-.5c9.9-1 9.9-1 12.9 1.3 1.9 2.4 3.5 4.8 5 7.4 7.8 12.5 17.9 21.9 31.2 28.2q1.1.5 2.1 1c10.2 4.7 19.9 6.3 31.1 6.2q1.9 0 3.8 0c20.7-.4 38-8.4 52.9-22.7 11.7-12.2 18.2-27.1 20.2-43.2q-.3 5.1-1.1 10.4-.2 1.5-.4 3c6.5-1.7 6.5-1.7 13.4-1.5q1.1 0 2.2-.1l77.9-.5q11 0 22 0 23.8.1 47.5.1c0 9 0 9 14 28 0-1.7 0-2.6-.4-3.7q.2.4.4.7zm-174.8-49.4c-.6-11-2.9-19.9-6.2-30.6 4.7 15.2 6.5 28.7 5.5 43.6q.8-6.4.7-13zm171.8 44.1q-4.4-7.4-7.3-15.3c2.4 6.9 5.8 13.6 9.9 19.9-.4-1-1.2-2.2-2.6-4.6zm-7.3-15.3c-4.7-13.1-6.1-27.1-3.7-41.4-2.4 14.4-.9 28.3 3.7 41.4z" fill="#b5dffa"/><path d="M120.3 521.5q2 0 4 0 4.2-.1 8.4 0 5.3 0 10.6 0 4.2-.1 8.3 0 2.9 0 5.8-.1c13.1.2 25.6 3.5 35.6 12.3 9 9.6 12.7 22.6 16.6 34.8q.8 2.4 1.6 4.8 1.6 4.9 3.2 9.8 3 9.1 6 18.1 3.4 10.1 6.8 20.2 1.3 4.2 2.7 8.3 2.5 7.5 4.9 14.9 1 2.9 2 5.9 1.3 4 2.7 8.1.4 1.2.8 2.4c1.8 5.7 1.8 5.7.7 9q-2 0-4 .1-7.3.1-14.6.3-3.1 0-6.3.1-4.5.1-9.1.2h-2.8q-1.4.1-2.7.1-1.2 0-2.3 0c-2.2.2-4.1.6-6.2 1.2q-.5-1.7-1.1-3.4L173.1 611q-.8-2.3-1.5-4.6-1.1-3.2-2.2-6.5l-1.2-3.6c-2.1-5.8-3.9-9.9-9.2-13.3-6.1-2.3-11.8-2.3-18.3-2.3q-3.3 0-6.6 0-5.2-.1-10.4-.1-5.1 0-10.1-.1-1.6 0-3.1.1c-9.2-.2-16.2-2.7-23-9-6.6-7.2-7-15.2-6.8-24.5.4-7.5 3.7-12.8 8.9-18 9.1-7 19.6-7.7 30.7-7.6z" fill="#0064b3"/><path d="M326.1 741.3h2.6q4.3-.1 8.7 0 3 0 6 0 6.4 0 12.7.1 8.1.1 16.2 0 6.2 0 12.5.1 2.9 0 5.9 0 4.2 0 8.4.1 1.2 0 2.5 0c6 .1 10.2 1.3 14.7 5.5 2.3 3.9 2.8 7.5 3.3 12q.4 2.5.7 5.1l.4 2.5c.4 2.8.9 5.5 1.4 8.2 2 12.3 3.1 24.6 3.3 37q0 1.3.1 2.6c0 3.9-.2 6-2.3 9.4-4.3 4-7.9 4.4-13.7 4.4q-1.1 0-2.2 0-3.7 0-7.4 0-2.6 0-5.2 0-5.4 0-10.8 0-6.9 0-13.9.1-5.3 0-10.6 0-2.6 0-5.1 0c-19.2.1-19.2.1-26.5-4.9-10.4-11.9-12-30.5-14.8-45.5q-.3-1.3-.5-2.6c-4.2-21.9-4.2-21.9-2.5-27.4 4.7-5.6 8.9-6.9 16.1-6.7z" fill="#0064b6"/><path d="M479.5 741.7q1.2 0 2.5 0 4 0 8.1 0 2.8 0 5.6-.1 5.9 0 11.8 0 7.6 0 15.1 0 5.8-.1 11.7-.1 2.8 0 5.5 0 3.9 0 7.8 0 1.2 0 2.3 0c5.2 0 8.2 1.2 12.1 4.5 3.2 5.5 3.4 10.2 3.3 16.5q0 1.3 0 2.7 0 2.9 0 5.8-.1 4.3-.1 8.6c-.1 35.8-.1 35.8-4.2 43.4-5.6 4.9-10.7 5.2-17.9 5.2h-2.4q-3.9 0-7.8 0-2.7 0-5.5 0-5.7 0-11.4 0-7.3.1-14.6.1-5.7 0-11.3 0-2.7 0-5.4 0-3.8.1-7.6.1-1.1 0-2.2 0c-4.7-.1-7.9-.9-11.9-3.4-1.2-2.2-1.2-2.2-1.8-4.8q-.3-1.2-.7-2.4c-1.4-7.1-1.8-14.1-2.1-21.4q0-1.6-.1-3.2c-.3-7.8-.5-15.5-.3-23.2q0-1.2 0-2.4.1-4.1.2-8.1 0-1.3 0-2.6c.2-4 .5-7.1 2.9-10.4 5.4-4.7 11.6-4.8 18.4-4.8z" fill="#0063b6"/><path d="M225 355c5.7 4 10.4 9.1 14 15q0 1 0 2c3-2.8 5.4-5.5 7.7-8.9 4-5.6 9.9-9 16.3-11.1 10.8-.8 19.1.1 28.3 6.2 8 8.2 11.1 16.1 11.1 27.6-.4 15.5-10 27.5-20.4 38.2-.9.9-.9.9-1.7 1.8-4.9 5.1-10.1 9.3-15.8 13.4q-1.2.9-2.4 1.8c-15.1 11-15.1 11-21.6 10.5-9.6-2.1-17.9-8.5-25.5-14.5-1.4-1.1-1.4-1.1-2.9-2.2-14.2-11.5-27.1-24.7-32.1-42.8-.9-10.4-.8-20 5.9-28.4 10.3-11.2 24.9-16.2 39.1-8.6z" fill="#00295e"/><path d="M627.3 741.7q1.2 0 2.4 0 4 0 7.9 0 2.7 0 5.5 0 5.8 0 11.5 0 7.4.1 14.7 0 5.7 0 11.4 0 2.7 0 5.4 0 3.8 0 7.6 0 1.1 0 2.2 0c5.3.1 10.8.4 15 3.9 3.5 7.5 1.8 15.9.5 23.8q-.3 1.7-.6 3.5-.9 5.6-1.8 11.1-.3 1.8-.6 3.7-.9 5.4-1.8 10.9-.3 1.6-.6 3.3c-1.4 8-3.6 15.6-9.4 21.6-5.4 3.1-10.4 3.8-16.5 3.8q-1.1 0-2.3 0-3.7 0-7.5 0-2.6 0-5.2 0-5.5 0-11 0-7.1 0-14.1.1-5.4 0-10.8 0-2.6 0-5.2 0-3.6 0-7.3 0-1 0-2.1 0c-5.4-.1-8.5-1.5-12.4-5.1-1.8-3.4-1.6-6.8-1.5-10.6q0-1.2 0-2.5c.2-9.7 1.2-19.3 2.3-29q.6-4.6 1-9.2.4-3 .7-6 .2-1.4.3-2.8c.8-7 1.8-13.1 7-18.2 5.1-1.8 9.9-2.3 15.3-2.3zm-146 110.1h2.2q3.7 0 7.3 0 2.5 0 5 0 5.3 0 10.6 0 6.7-.1 13.5-.1 5.2 0 10.4 0 2.5 0 5 0 3.5-.1 7-.1h2.1c5.4.1 10.4 1.2 14.4 5.1 3.3 6.3 3.5 12.2 3.4 19.1q0 1.4 0 2.9c-.5 44-.5 44-4.5 49.8q-.6.9-1.3 1.9c-2.1 2.4-4.3 3.5-7.5 3.9q-1.1 0-2.2 0-1.3 0-2.6.1-1.4 0-2.8 0-1.5 0-2.9.1-4.8.1-9.5.1-3.2.1-6.4.1-7.9.2-15.7.3-3.8 0-7.5.1-5.7.1-11.3.1-1.6 0-3.2 0c-6.2 0-12 0-17.1-4-9.7-12.8-5.8-40.5-5.9-55.8q0-1.4 0-2.9c0-11.6 0-11.6 3.6-16.2 5.4-4.1 9.3-4.5 15.9-4.5z" fill="#0065b5"/><path d="M351 851.9h2.3q3.7 0 7.5.1 1.3 0 2.6 0 6.8.1 13.6.1 7 .1 14.1.1 5.4.1 10.8.1 2.6.1 5.2.1 3.6 0 7.2 0h2.1c4.8.1 7.2 1.2 10.6 4.6 10.4 17 8.8 46.4 9.2 65.6q0 1.2 0 2.3c-.4 4-2.3 5.5-5.2 8.1-4.4 1.8-8.2 2.3-13 2.3h-2q-3.3 0-6.6 0-2.3 0-4.6 0-4.9 0-9.7 0-6.2 0-12.4.1-4.7 0-9.5 0-2.3 0-4.6 0c-17.7.1-17.7.1-23.9-5.4-4.9-8.4-6.7-17.8-8.5-27.3q-.5-3-1.1-6c-6.6-34.8-6.6-34.8-2-41.9 5.4-3.3 11.7-2.9 17.9-2.9zm279.8-.1h2.2q5.8 0 11.6 0 5.9-.1 11.8-.1 4.7 0 9.3 0 2.1 0 4.3 0c14.3-.2 14.3-.2 20 3.3 3.5 4 3.3 7.9 3 13-.4 3.6-.9 7.1-1.4 10.7q-.2 1.5-.5 3.1-.4 3.2-.9 6.3-.7 4.9-1.4 9.7-.5 3.1-1 6.2-.2 1.4-.4 2.9c-3 19.9-3 19.9-10.5 25.7-3.8 1.8-7.3 1.9-11.4 1.9-1.3 0-1.3 0-2.6.1q-4.1 0-8.1.1-2.9 0-5.7.1-7.2.1-14.4.2-3.9 0-7.8.1-5.8.1-11.5.1-2.1 0-4.2.1-3 0-5.9 0-1.6 0-3.3.1c-4.6-.6-7.9-2.4-11.3-5.6-2.2-3.7-2.3-6.9-2.3-11.2q0-1.3.1-2.6c.2-10.1 1.5-20.2 2.8-30.2.1-1.3.1-1.3.3-2.6 2.6-21.3 2.6-21.3 8.4-28.8 8.9-4.2 21.1-2.6 30.8-2.6z" fill="#0164b5"/><path d="M676 335c20.4.5 36.4 6.6 52 20q1.2 1 2.3 2c9.4 8.2 18.4 16.8 25.8 26.7 1.9 2.3 4.1 4.1 6.4 5.9 2.6 2.4 4.5 5.2 6.4 8.2q1.3 1.8 2.6 3.7.7.9 1.3 1.9c1.5 2.1 3.2 4 4.9 6 8 10.1 12.7 23.8 11.3 36.6-3.8 13.4-10.5 24-20 34q-1.8 2.1-3.6 4.3c-7.5 8.5-14.8 13.8-26.4 14.7-2 0-2 0-3-1q-.4-2.2-.8-4.5c-.8-4.9-2.1-9.5-3.6-14.3-5.9-19.2-7.6-39.5-9.8-59.4-3.6-32-19.4-60.1-44.4-80.3-1.4-1.5-1.4-1.5-1.4-4.5z" fill="#fd8e00"/><path d="M655 496c11.5 8.7 11.5 8.7 12.3 13.8.4 10.6-3.4 25-10.3 33.2-4.7 2.7-9.8 3.8-15 5l-2 1c1.6 4.5 3.6 9.8 8 12 6.7.5 14.3 1.1 20-3 2.7-3.1 4.9-6.5 7-10q1.2-1.8 2.4-3.6.8-1.2 1.6-2.4c1-1 1-1 4.2-1.4 4.9.5 6.6 1.7 9.8 5.4 1.3 6.3-.6 10.2-4.1 15.5-6.4 8.3-16.2 16.4-26.9 17.8-13.1.3-25-2.2-36-9.3q-.4.9-.8 1.8c-5 9.2-17.2 14.1-26.6 17.4-4.2.9-8.1 1.1-12.5 1q-1.2 0-2.4 0c-13.8-.2-26.4-5-36.4-14.9-10.3-11.1-10.3-11.1-10.3-15.9 1.4-3.3 2.9-4.6 6-6.4 3.5-.6 3.5-.6 7 0 2.6 2.2 2.6 2.2 5 5 9.3 9.8 17.2 14.4 30.8 15.2 9.5-.1 19.5-4.3 26.1-11.2 2.9-3.6 4.4-6.4 5.1-11q-.9-.5-1.9-1.1c-11.7-6.7-19.5-14-24.1-26.9-1.2-5.9-1-11 1.9-16.3 3.4-4.5 7.4-7.7 12.1-10.7q1.2-.8 2.4-1.5c13-7 35.1-6.6 47.6 1.5z" fill="#022861"/><path d="M764.5 636.6c9.8 7.4 19.3 17.9 21.5 30.4 1 10-.5 19.8-6.9 27.8-5.4 6.3-10.4 10.9-18.1 14.2q-1.4.6-2.7 1.2c-2.3.8-2.3.8-6.3.8l.2-1.6c1.2-10.5.9-20.9.8-31.4-4.4-2.2-7.2-1.8-12-1q-.1 1.3-.2 2.7-.2 5-.5 10-.2 2.1-.3 4.3-.2 3.1-.4 6.1-.1 1.9-.2 3.8c-.4 3.1-.4 3.1-2.4 6.1-5.1 1.1-8-.3-12.4-2.9-11.9-8.1-16.4-17.9-20.6-31.1q-.5-1.5-1-3l-13-2q-1-6.3-2-12.7-.3-1.8-.6-3.6-.2-1.7-.5-3.5c-.3-1.6-.3-1.6-.5-3.2-.4-2.7-.5-5.3-.4-8 24-13 54.3-20 78.5-3.4z" fill="#fd8e00"/><path d="M366.6 1086.1c8.6 5.2 12.5 11.2 15.4 20.9 1.4 8.2-.9 15.5-5.6 22.3-4.4 5.4-9.4 9.4-16.4 10.7-10.7.7-17.4-.5-26-7-6.6-6.4-8.1-13.7-8.4-22.7.2-4.9.6-8.2 3.4-12.3q.6-1 1.3-2c8-11.8 23-16.2 36.3-9.9zm315.4.9c4.9 3.2 7.9 7.1 11 12q.8.8 1.7 1.7c3 3 2.5 7 2.6 10.9 0 6.4-.9 11-4.3 16.4q-.9 1.6-1.9 3.2c-5.1 5.6-13.7 8.6-21.1 9.3-6.9.2-13.5.2-19-4.5-7.5-7.7-10.2-14.5-10.4-25.1q0-1 0-2.1c0-6.7 2.4-11.2 7-15.9 9.2-9 22.8-11.4 34.4-5.9z" fill="#2281ca"/><path d="M573.4 457c3.7 1.4 5.9 3 8.6 6 .6 4.8.6 4.8-1 8-10.1 10.1-25.4 13.8-39.2 14.3-10.5-.7-21-4.5-29.2-11.3-1.6-2-1.6-2-2-5.5.4-3.5.4-3.5 1.3-5.9 2.8-2.1 5.1-2.3 8.5-2.1 3.2.6 5.5 1.9 8.4 3.4 7.9 4.3 15.1 5.1 23.9 3 6-1.9 11.5-4.7 16.4-8.6 1.9-1.3 1.9-1.3 4.3-1.3z" fill="#042661"/><path d="M687.1 441.5c3.7.3 5.5 1.2 8.4 3.6 2 3.8 2.2 5.7 1.5 9.9-4.1 8.5-12.8 13.5-21.3 16.9-12.5 3.5-23.6.8-34.9-4.8-2.8-1.7-4.8-3.7-6.8-6.1-.7-3-.7-3 0-6 3.1-3.5 4.7-4.8 9.3-5.6 4.7.8 8.5 2.5 12.7 4.6 4 2 8.7 1.5 13 1 5.5-1.9 9-4.8 12.6-9.4 2.8-3.5 2.8-3.5 5.5-4.1z" fill="#032761"/></svg>