<svg xmlns="http://www.w3.org/2000/svg" width="1024" height="1024" xmlns:v="https://vecta.io/nano"><path d="M505.2 228.7q7.5.1 15 0c34.6 0 69.2 1.1 103.7 4.6q1.6.1 3.2.3C692 240 759.9 250.1 819 279q1.3.6 2.6 1.3c16.6 8 31.2 17.8 44.4 30.7q.9.9 1.9 1.8c12.5 13.3 16.6 30.1 20.4 47.4q.5 2 .9 4 1 4.3 1.9 8.5 1.5 6.8 3.1 13.5c.2 1.1.2 1.1.5 2.3q.5 2.2 1 4.5.8 3.4 1.5 6.7 3.4 15.2 7 30.3l21.2 93.2q3.7 16.1 7.3 32.2 1.4 6.3 2.9 12.7 1.1 4.9 2.2 9.8 2.3 10.1 4.5 20.2.7 2.8 1.3 5.7c2.2 9.3 4.1 18.3 3.9 28q0 1.4 0 2.9c-.8 24.9-13.9 44.7-30.5 62.3l-2 2.2c-12.8 13.5-29 23.5-45 32.8q-1.1.7-2.3 1.3C821.3 759.9 767.1 772.4 715 782q-1 .2-2.1.4c-23.1 4.3-46.5 7-69.9 9.6q-1.1.1-2.2.2c-1.1.2-1.1.2-2.1.3q-.9.1-1.8.2c-37.1 3.9-74.2 4.6-111.4 4.6q-8.3-.1-16.5 0c-26.1 0-52-.5-78-2.2q-2.8-.2-5.7-.3-10.6-.7-21.3-1.5-1.6-.2-3.2-.3c-22.6-1.8-45-4.5-67.5-7.7q-4.8-.6-9.7-1.3C244.7 773 141.2 748.8 90 682c-13.9-19-20.2-40.5-16.7-64.1 2-11.9 4.9-23.6 7.7-35.3q1.7-7.4 3.3-14.8 2.5-11 5-21.9 4.7-20.2 9.2-40.5.4-1.5.7-3 1.4-6.2 2.7-12.3 2.4-10.7 4.8-21.4.4-1.5.7-3 .7-3.1 1.4-6.1 5.6-25 11.2-49.9 2-9.3 4.1-18.6 1.9-8.7 3.9-17.4 1.1-5.4 2.3-10.8.6-2.5 1.1-4.9c6.2-28.1 18.5-49 43-64.9 75.2-47.2 174.1-58.5 330.8-64.4z" fill="#fec800"/><path d="M507.3 267.8q1.2-.1 2.5-.1c28.8 0 57.5.8 86.2 3.3q1.5.1 3.1.3c27.1 2.3 54.1 5.6 80.9 10.7a50.62 50.62 0 0 0 3.8.7C785 302.5 785 302.5 808 336q.6.9 1.3 1.8c3.8 6.2 3.6 13.2 2.7 20.2-3.6 13-15.8 21.5-27 27.9-60.3 33.4-135.5 40.1-203 45.1q-1.1.1-2.2.2c-77.2 5.7-157.6 2.5-233.8-11.2q-1.1-.2-2.2-.4c-28.1-5.1-56.4-11.7-82.8-22.6q-1.1-.5-2.3-.9c-19.4-8-39.6-17.6-49.7-37.1-2.3-7-1.4-13.8 1.5-20.4 2.8-4.9 6.6-8.7 10.5-12.6l1.7-1.7c14.2-13.1 34.2-20.4 52.2-26.3q1.2-.4 2.4-.8c47.7-15.6 97.9-22.3 147.8-26.4q1.5-.1 3.1-.2c26.3-2.2 52.6-2.8 79.1-2.9z" fill="#fe9b00"/></svg>