<svg xmlns="http://www.w3.org/2000/svg" width="1024" height="1024" xmlns:v="https://vecta.io/nano"><path fill-rule="evenodd" d="M186.9 114.5q1.6 0 3.2 0 5.4 0 10.9 0 5 0 10 0 8.9 0 17.7 0 13.3 0 26.5 0 22.3 0 44.6 0 22.2.1 44.4.1 1.4 0 2.7 0 5.6 0 11.2 0 51 0 101.9 0 48.3.1 96.5.1 1.5 0 3 0 7.5 0 15 0 1.5 0 3 0 2.9 0 5.9 0 47.5 0 95 .1 13.9 0 27.7 0 29.4 0 58.7 0 12.2 0 24.3 0 10.1 0 20.3 0 4.1 0 8.2.1 5.7 0 11.4 0 1.7 0 3.4 0 1.6 0 3.2 0h2.9q2.3 0 4.5.1c4.3 2.1 7.3 4.9 9.9 8.9 1.9 5.2 1.3 10.2 0 15.6q-.2 1-.5 2l-9.1 33.1q-1.3 4.7-2.7 9.3-.4 1.5-.8 3c-2.5 8.5-4.3 15.8-2.7 24.6q.3 1.4.5 2.7c1.2 6.9 3.1 13 5.9 19.5q2 4.6 3.9 9.2c.4 1 .4 1 .9 2.1 6.1 15 12 30.1 17 45.6q1.2 4 2.6 8c14 42.5 23.7 85.7 30.1 130q.4 2.3.7 4.6c3.5 24.1 4.6 48.3 4.6 72.6q0 6 0 12 0 11.8 0 23.6 0 9.6 0 19.3 0 1.4 0 2.7 0 2.8 0 5.6 0 26.2 0 52.4 0 23.9 0 47.9.1 24.8.1 49.6 0 13.9 0 27.7 0 11.9 0 23.8 0 6.1 0 12.2 0 5.6 0 11.2 0 2 0 4.1 0 1.9 0 3.8c-.2 24.5-10.9 47.8-28.2 65.1-25.6 24.4-53.6 31.5-88.3 31.5q-3.6-.1-7.2-.1-9 .1-17.9.1-12-.1-24-.1-20.1.1-40.3 0-20.1 0-40.1 0-1.3 0-2.5 0-5.1 0-10.2 0-47.5 0-95 0-42.2 0-84.5 0-2.7 0-5.4 0-1.4 0-2.7 0-6.8 0-13.6 0h-2.7q-35.4 0-70.8 0h-2.5q-5.1 0-10.2 0-17.6 0-35.1 0-22.8 0-45.6 0-12-.1-24.1-.1-8.1 0-16.2 0-3.7 0-7.4 0-5.2 0-10.3 0h-3.1c-25.4.1-48.2-7.7-66.5-25.7-17.6-17.9-29.2-39.1-29.4-64.7q0-2.8 0-5.7 0-5.4 0-10.7 0-5.9 0-11.8 0-11.5.1-23 0-13.6 0-27.1 0-24.2 0-48.4.1-23.5.1-47 0-1.5 0-2.9 0-2.9 0-5.8 0-1.5 0-2.9 0-1.5 0-2.9 0-22.6 0-45.1 0-8.2 0-16.3 0-13 0-26 0-5.9 0-11.9c0-21.6.2-43.1 2-64.6q.2-1.8.4-3.5c6.8-72 24.9-142.1 52-209.1 5.7-14 17.9-35.4 12.1-50.5q-.8-2.1-1.6-4.2-.4-1.2-.9-2.3c-3.9-11.2-3.9-11.2-7.3-22.5q-1.4-4.6-2.8-9.2-1-3-1.9-6.1c-.5-1.5-.5-1.5-.9-3-1.1-3.3-2.2-6.7-2.9-10.2-.5-5.1-.3-9.1 2.7-13.4 5.1-5.7 8.7-7.1 16.2-7.1z" fill="#fec404"/><path d="M183.5 114.9q1.4 0 2.9 0 1.6 0 3.2 0 1.7 0 3.4 0 5.7 0 11.4 0 4.1-.1 8.2-.1 10.2 0 20.3 0 12.1 0 24.3 0 29.3 0 58.7 0 13.8 0 27.7 0 47.5-.1 95-.1 3 0 5.9 0 1.5 0 3 0 7.5 0 15 0h3q48.2 0 96.5-.1 50.9 0 101.9 0 5.6 0 11.2 0h2.7q22.2 0 44.4-.1 22.3 0 44.6 0 13.2 0 26.5 0 8.8 0 17.7 0 5 0 10 0 5.5 0 10.9 0 1.6 0 3.2 0c6 0 9.3.5 13.9 4.5 4.5 5 5.3 8.4 5 15q-.6 3.3-1.4 6.5-.5 1.8-.9 3.8-.6 2-1.1 4-.5 2.1-1 4.2c-2 7.6-4.1 15.1-6.4 22.6q-.4 1.1-.7 2.3-1.7 5.4-3.5 10.7c-3.2 9.9-3.1 17.8-1 27.9q.3 1.6.6 3.2c1.7 7.4 4.4 14 7.5 20.9 25.1 58 41.6 119.9 51.1 182.3l.4 2.6 3.5 26.7q.1 1.1.2 2.1c1.3 12.6 1.8 25.1 1.9 37.7q0 2.1 0 4.2 0 5.6 0 11.2 0 6.1 0 12.2.1 14.6.1 29.3 0 4.2 0 8.3 0 25.8 0 51.7 0 5.9.1 11.9 0 1.5 0 3 0 24 0 48 .1 24.7.1 49.4 0 13.9.1 27.7 0 11.8 0 23.6 0 6 0 12c.1 16.3-.1 31.5-5.6 47q-.3 1-.7 2c-8.6 23.9-28.9 44.1-51.5 55.3-15.1 7-30.9 9.9-47.5 9.8h-2.7q-4.5 0-8.9 0-3.1 0-6.2 0-8.2 0-16.3 0-8.3 0-16.6-.1-16.3 0-32.6 0-.5-1-1-2 1.5 0 3 0c8.7-.2 16.8-1.4 25.2-3.8l2.7-.8c5-1.5 8.8-3.3 13.1-6.4q1.8-.6 3.7-1.2c17.5-6.2 29.7-26.2 37.5-42 6.9-14.8 8.3-30.5 8.2-46.6q0-2.6 0-5.2 0-7.1 0-14.3 0-7.7 0-15.4 0-13.4 0-26.8 0-19.4.1-38.8 0-31.6 0-63.1v-3.8q.1-7.7.1-15.3 0-21 0-41.9v-3.8q0-31.4.1-62.9 0-19.3 0-38.6 0-13.3 0-26.6 0-7.6 0-15.2c-.1-152.7-.1-152.7 24.3-201.5H184c.7-6.5 1.3-10.6 3.5-16.3 1.2-6.1-.8-12.1-2.7-17.8q-.4-.9-.7-1.9-.7-2.1-1.4-4.2-1.9-5.5-3.8-11-.3-1.1-.7-2.2-3.6-10.8-6.9-21.7-.5-1.6-1-3.3c-2.1-6.8-3.6-12.8-1.2-19.8 3.6-5.4 7.8-8.9 14.4-8.9zm503.4 300.9c14.8 11.7 26.6 27 28.9 46.3q.1 2.4.2 4.9.1 1.5.2 3c.4 16.4-3.7 28.6-14.8 40.6-3.1 3.1-6.4 6-9.7 8.8q-.9.8-1.7 1.6 0 1 0 2 2.4 1.8 5 3.5c10 7.1 16.8 16.7 20 28.5 3.1 21 .7 41.2-12.3 58.7q-1.8 2.2-3.7 4.3-1 1.1-2 2.3c-9.6 10.5-21.3 15.5-35 18.7q-.9.3-1.9.5c-17.9 4-40.1.2-55.7-9.1-14.5-9.6-24.5-23.4-28.4-40.4q0-2.5 0-5H386l-2 10c-1.1 2.8-2.1 5.3-3.4 7.9q-.6 1-1.1 2c-8.6 16.2-23.4 27.1-40.4 33.1-7.2 2.1-14.3 2.3-21.7 2.3h-2.9c-19.5-.2-35.9-6.5-50.1-19.8-14.2-14.8-17.8-29-17.6-48.9.4-14.3 4-30 14.2-40.6 3.2-2.8 6.6-5.4 10-8-1.4-3.2-2.9-4.9-5.6-7.1-9.2-7.8-16.4-18.9-18.4-30.9-.8-13.1-1.7-26.9 4-39q.7-1.4 1.4-2.9c3.1-6.2 7-11.8 11.6-17.1q.9-1 1.8-2.1c11.4-12.3 29.1-20.5 45.9-21.3 12.4-.2 22.9.1 34.3 5.4l3 1.4c15.2 7.6 26.7 20.2 34 35.6l3 10h190c.7-2 1.3-4 2-6 8-18.7 21.8-34.6 40.5-43.2 2.2-.7 4.3-1.3 6.5-1.8q1.1-.3 2.3-.6c20-4.8 42.8.7 59.6 12.4z" fill="#f79800"/><path d="M183.5 114.9q1.4 0 2.9 0 1.6 0 3.2 0 1.7 0 3.4 0 5.7 0 11.4 0 4.1-.1 8.2-.1 10.2 0 20.3 0 12.1 0 24.3 0 29.3 0 58.7 0 13.8 0 27.7 0 47.5-.1 95-.1 3 0 5.9 0 1.5 0 3 0 7.5 0 15 0h3q48.2 0 96.5-.1 50.9 0 101.9 0 5.6 0 11.2 0h2.7q22.2 0 44.4-.1 22.3 0 44.6 0 13.2 0 26.5 0 8.8 0 17.7 0 5 0 10 0 5.5 0 10.9 0 1.6 0 3.2 0c6 0 9.3.5 13.9 4.5 4.5 5 5.3 8.4 5 15q-.6 3.3-1.4 6.5-.5 1.9-.9 3.8-.6 2-1.1 4-.2 1-.5 2.1c-2.9 11.6-6.2 23.1-9.5 34.5q-.4 1.2-.7 2.3-.9 3.2-1.9 6.4-.5 1.8-1.1 3.7c-.9 2.7-.9 2.7-1.9 3.7q-2.1.1-4.3.1-1.4 0-2.8 0h-3.1q-1.6 0-3.3 0-5.6 0-11.1 0-4 0-8 0-8.8 0-17.5 0-13 0-26 0-21.8 0-43.6 0-21.7 0-43.3 0-1.3 0-2.7 0-6.8 0-13.7 0-48.3 0-96.7 0-47 0-94 0-1.4 0-2.9 0-14.5 0-29.1 0-29.6-.1-59.2-.1-1.3 0-2.7 0-91 0-182 0-2.4-7.2-4.8-14.5-.9-2.4-1.7-4.9-5.6-16.6-10.8-33.3-.2-1-.6-2c-4.6-15.1-4.6-15.1-2-22.5 3.6-5.4 7.8-8.9 14.4-8.9z" fill="#fec304"/></svg>