<svg xmlns="http://www.w3.org/2000/svg" width="1024" height="1024" xmlns:v="https://vecta.io/nano"><path d="M606 242c10 7.9 19.4 17.5 25 29q0 1 0 2a20.08 20.08 0 0 0 2.5.1c9.2.6 18.3 1.7 27.5 3q1.1.1 2.2.3c43.4 6.2 87.7 16.5 127.7 34.6q3.2 1.5 6.4 2.9c42.5 18.8 65.8 47.1 82.5 89.5q.5 1.4 1.1 2.8 3.5 8.9 6.9 17.8 1.7 4.4 3.4 8.7c11.1 28.2 21.3 56.6 31.3 85.2q4.1 11.7 8.2 23.5.6 1.6 1.2 3.2 2.2 6.2 4.4 12.4l10.6 30.4q.4 1.2.8 2.6c7.8 23.1 6.6 45-3.7 67-4.1 8.1-9.1 15.1-15 22q-1 1.2-2.1 2.5c-16.3 18.7-36.2 31.7-57.9 43.5q-2.2 1.2-4.3 2.4C822 751 773.3 764.3 726 775c-1.9.4-1.9.4-3.8.9-34.1 7.6-68.6 12.3-103.2 16.1q-1.1.1-2.2.2c-33.4 3.7-66.6 5.1-100.1 5.1q-7-.1-13.9 0c-70.6.1-141.9-6.4-210.8-22.3q-1.5-.3-3.1-.7-11-2.5-21.9-5.3-1.8-.5-3.7-.9c-31.9-8.2-63.3-18.4-93.3-32.1q-1.5-.7-3-1.3C127 716.6 85.7 691 68 649c-7.4-20.3-6.8-40.7 0-61q.6-1.8 1.2-3.6c6.8-20.7 14.3-41.2 21.7-61.7q2.3-6.3 4.6-12.6L134 406.5q1.8-4.6 3.6-9.3 1.8-4.8 3.6-9.5.6-1.6 1.2-3.2c4.6-11.6 10.4-22 18.6-31.5q.9-1.1 1.8-2.2c5.8-7.1 12.9-12.4 20.2-17.8q.8-.6 1.7-1.3c40.2-29.3 91.1-42.4 139.3-52q1.9-.4 3.8-.8c5.1-1 10.2-1.9 15.3-2.5 7.3-.8 7.3-.8 13.3-4.7 2.1-2.8 3.8-5.7 5.6-8.7 12.5-16.1 30.4-26.1 50-31q1.3-.3 2.7-.7c21.2-4.7 44.4-.6 62.7 11.1 5.7 3.7 10.8 7.9 15.6 12.6q.6-.7 1.3-1.4C522.4 223.3 572 219.7 606 242z" fill="#fcc508"/><path d="M606 242c3.6 2.8 6.8 5.8 10 9q1.2 1.1 2.3 2.3c9.5 9.9 17.9 22.9 17.8 37q-.1 1.3-.1 2.7v2q1.3 0 2.7 0 5-.1 10-.1 2.1 0 4.3-.1c19.3-.2 35.6 4.2 51 16.2l1.7 1.9c6.7 7 14.3 8.5 23.4 10.5l13.2 3.2q1.3.3 2.6.6c26 6.4 59.5 20 74.3 43.6 5.7 10.1 8.6 18.6 6.1 30.3-5.7 19.3-22.2 31.8-39 41.2-49.3 26.6-107.9 37.8-162.9 44.3q-3.5.4-7 .9c-10.3 1.4-20.5 2.2-30.8 2.9q-4.1.3-8.3.5-6.8.5-13.7.9-2.5.2-5 .4c-17 1-34.1 1-51.2 1q-5 0-10 0c-30.1.1-60-1-90-4-1.2-.1-1.2-.1-2.5-.3-61.8-6.2-138.7-15.3-188.9-54.9q-1.3-1-2.6-2c-12.9-10-22.4-20.7-24.7-37.5-.7-10.1 3.9-19.8 10.3-27.3q1-1.1 2-2.2c1-1.2 1-1.2 2.1-2.4 4.7-5.1 9.7-9.1 15.5-12.7q.9-.6 1.8-1.1c14.2-8.6 28.8-14.2 44.5-19.1 10.3-3.2 18-6.3 26.1-13.7 14.1-9.8 27.7-13.2 44.6-13.1q1.3 0 2.7.1 3.4 0 6.7 0-.1-1.5-.2-3c.2-4.5 1.3-7.8 3-11.9l.8-2.2q1.2-3 2.4-5.9.4-1.1.9-2.3c8.8-20.2 29.1-34.4 48.7-42.5 21.7-7.9 46.3-7.5 67.4 1.9 9.4 4.4 17.6 10.7 25 17.9q.6-.7 1.3-1.4C522.4 223.3 572 219.7 606 242z" fill="#da8001"/><path d="M713 320c34.9 5.3 79.3 17.7 103 46 7 9.9 11.5 19.7 10 32-3.8 17.7-16.8 29.4-31.1 39.3-2.5 1.5-4.1 2.1-6.9 2.7q.7-1.7 1.5-3.4c1.7-4.7 2-8.9 2-13.8q0-1.3 0-2.6c-.4-13.8-7.6-23.9-17.3-33.3-12.4-10.9-26.8-17.3-43.2-18.9q-.3-1.9-.7-3.9c-2.9-15.9-7.5-28.6-16.3-42.1q-.5-1-1-2zm-436 7c-1.4 3.8-3.1 6.8-5.4 10.1-7.4 11.6-8.5 23.5-9.6 36.9q-1.2.2-2.5.4c-15.1 3.1-28.8 11-37.6 24.2q-1.5 2.6-2.9 5.4-.5 1.1-1.1 2.1c-3.4 8.2-2.9 19.4-.9 27.9-12.2-7.4-22.7-17.6-26.9-31.6-2.6-11.4-.8-20.8 5.4-30.9 1.8-2.3 3.6-4.4 5.5-6.5q1-1.2 2.1-2.4c7-7.6 15-12.6 23.9-17.6q.9-.5 1.8-1.1c9.3-5.3 19.3-8.9 29.4-12.4q1-.3 1.9-.7 2.8-1 5.6-1.9 1.7-.5 3.3-1.1c2.8-.8 5.1-1 8-.8z" fill="#be6a00"/><path d="M395 376.2c2.5 2.1 4.8 4.3 7 6.8q1 1 1.9 2.1c4.3 5.4 4.8 10.1 4.7 16.9-.7 3.6-2 5.4-4.6 8-2.8.8-2.8.8-6 0-3.3-2.9-5.8-6.4-8.5-9.9-5-6.3-11.5-10.4-19.5-11.3-7.3-.3-13.5 1.4-19.3 6-3 3-5.5 5.9-7.9 9.5-2 3-3.5 4.3-6.8 5.7-3.2-.1-4.6-.7-7.1-2.7-3-3.6-2.6-6.6-2.4-11.1 1.4-9.2 7.6-14.8 14.6-20.2 17.5-12.1 36.6-12.2 53.9.2zm158.2-36.3c6.5 4.8 12.7 11.1 14.8 19.1.4 4.1.7 8 0 12-2.6 2.6-3.6 3-7.3 3.2-5.2-1.7-7.4-5-10.7-9.2-5.3-5.7-11.1-10.4-19-11.4-9.8-.2-15.6 2-22.7 8.7-3 3.2-5.5 6.6-8 10.1-1.3 1.6-1.3 1.6-3.3 2.6-2.9.3-2.9.3-6 0-3.2-3.1-3.5-5.8-3.6-10.1.3-8.5 3.1-13.5 9.1-19.3 17.5-15 36.5-18.2 56.7-5.7z" fill="#bb6100"/><path d="M669 400c5.5 5.2 10 10.7 10.5 18.6-.1 3.5-.5 4.4-2.6 7.5-3.5 2.3-4.8 2.6-8.9 1.9-2.2-2-4-3.9-5.9-6.3-5.9-6.8-11.3-10.9-20.6-12-7.1-.2-11.9.9-17.5 5.3-3.4 3.4-6.6 7-9.4 10.9-1.2 1.7-1.2 1.7-3.6 4.1-3.6.6-5.8.8-8.9-1.3-2.5-3.8-2.5-7.3-2.1-11.7 3.5-10.2 10.5-18.5 20.1-23.5 17.3-7.7 33.8-5.2 48.9 6.5z" fill="#bb6000"/></svg>