<svg xmlns="http://www.w3.org/2000/svg" width="1024" height="1024" xmlns:v="https://vecta.io/nano"><path d="M524 337q1.1 0 2.3 0c23.8.4 48.5 6.9 70.1 16.9 6 2.7 9.3 1.7 15.4.1 4.4-1.2 8.6-1.3 13.1-1.2q1.2-.1 2.3-.1c8.7.1 16.2 2.1 24 5.8q1.1.5 2.2 1.1c12.3 6 22.2 14.5 32 23.9 1.7 1.6 3.4 3 5.1 4.5 5.8 5.1 11.2 10.6 16.7 16.1q2.8 2.8 5.6 5.6c6 5.9 11.8 11.9 17.2 18.3q2 2.2 4 4.4c4.1 4.6 7.7 9.4 11 14.6q1 1.6 2.1 3.2c5.3 8.5 8 16.9 9.9 26.8.3 1.5.3 1.5.7 3 2.9 27.3-21.4 71.1-38.1 92.2-6 6.7-11.9 12.2-21 13.1-9.9.4-16.6-.8-24-7.5-4.9-5-12.6-13.4-12.6-20.8q-1 0-2 0c-.2 1.9-.2 1.9-.3 3.9-.6 5.3-2 10.1-3.8 15.2q-.4 1.3-.9 2.7c-4 11.4-9.2 22.2-16.2 32.1-1.1 2.1-1.1 2.1 0 4.5s2.3 4.7 3.7 7l1.5 2.5q.8 1.3 1.6 2.7c5.9 10.1 10.8 20.6 15.4 31.4l1.2 2.9c.8 2.1.8 2.1.8 5.1l2.9-.8q1.8-.6 3.7-1.1 1.9-.6 3.8-1.1c20-5.4 42.6-1.7 60.7 8.2 15.6 9.5 26.3 23.2 31.4 40.7.5 2.1.5 2.1.5 5.1q.9 0 1.8 0 21.5-.1 43.1-.2 10.4 0 20.8 0 10-.1 20.1-.1 3.8 0 7.7 0 5.3 0 10.7 0c1.6-.1 1.6-.1 3.2-.1 11.9.1 20.7 3.4 29.6 11.4 9.4 10.8 10.4 20.8 10.4 34.6q0 2.5 0 5.1.1 6.8.1 13.6 0 5.8 0 11.5 0 13.5 0 27.1 0 13.9.1 27.8 0 12 0 24 0 7.1 0 14.2.1 6.8 0 13.5 0 2.4 0 4.9c.1 13.6-2.3 24.4-12 34.5-10.7 9-22.7 10.5-36.1 10.5h-3.8q-5.2 0-10.3 0-5.7 0-11.3 0-9.9 0-19.7 0-14.7 0-29.4 0-27.7 0-55.4 0-21.4 0-42.8 0-3.1 0-6.2 0-4.6 0-9.3 0-43 0-86.1 0-1.6 0-3.3 0-8.2 0-16.5 0-1.6 0-3.3 0-3.3 0-6.6 0-51.5 0-102.9 0-57.8.1-115.6.1-6.2 0-12.4 0-1.5 0-3 0-22.9 0-45.9 0-26 0-52.1 0-14.6 0-29.1 0-9.8 0-19.5 0-5.6 0-11.1 0-6 0-12 0-1.7 0-3.5 0c-13.1-.1-24.4-3.1-34.3-12.1-9.9-10.9-10.4-23.6-10.4-37.6q0-2.5 0-5-.1-6.7-.1-13.4 0-4.3 0-8.5 0-14.7 0-29.4 0-13.6-.1-27.3-.1-11.8-.1-23.6.1-7 0-14 0-6.6 0-13.2 0-2.4 0-4.8c-.1-12.4 1.6-23.4 10.5-32.7 9.9-8.6 18.7-11.1 31.5-11.1q1.7 0 3.5 0 5.6-.1 11.2-.1 3.8 0 7.7-.1 9.2 0 18.4-.1 10.4 0 20.9-.1 21.4-.2 42.9-.3.3-1.1.6-2.3.4-1.4.8-3 .4-1.4.8-2.9c5.2-18.2 18.5-30.4 34.6-39.4 6.8-3.3 13.8-5 21.2-6.4q1.5-.3 3-.6c14-2 28.3.4 42 3.6q.7-1.6 1.3-3.3c3.9-9.5 8.1-18.7 12.8-27.8q.8-1.4 1.5-2.9c3.1-5.9 6.6-11.5 10.4-17-1.5-3-3.1-5.6-5-8.3-9.5-14.8-15.2-31.6-19-48.7q-.6 1.1-1.2 2.3c-5.4 9.7-11.5 19.3-22 23.9-8.3 2.3-16.6 1.6-24.4-1.7-6.1-3.8-10.4-8.3-14.1-14.4q-.6-1.1-1.2-2.1c-8.9-14.8-16.4-30.1-23.1-45.9q-.4-1-.8-2c-7.3-17-12.8-34.6-6.5-52.9 5.9-14.3 14.9-25.9 25.3-37.2q1.6-1.8 3.2-3.7c8.4-9.6 17.2-18.8 26.2-27.8q.9-1 1.9-2c4.4-4.3 9-8.5 13.7-12.5q1.6-1.4 3.1-2.7c10.3-9 20.9-16.8 33.4-22.4q1-.4 2-.8c6.9-2.9 13.7-3.3 21.1-3.3q1.1-.1 2.4-.1c5 0 9.2.8 14.1 2.3 7.9 2 12.7-1.2 19.6-4.8 26.5-14 61.2-13.8 90.3-13.2z" fill="#032d40"/><path d="M154.2 733.7h3.3q5.5 0 10.9 0 3.8 0 7.6 0 8.9 0 17.8.1 10.2 0 20.4 0 20.9.1 41.8.2.5 1.2 1 2.5l1.3 3.2q.7 1.6 1.3 3.2c4.3 9.7 10.7 17.2 20.6 21.5 8 2.7 15.7 4.2 23.7 1.2 3-.9 4-.6 6.9.6q2.9 1.6 5.7 3.3c6.1 3.6 13.5 3.3 20.3 1.9 4.9-1.3 4.9-1.3 9.2-4 2.5-1.8 3.6-1.6 6.6-1.1 12.4 1.6 22.9.9 33.3-6.6 7.8-6.3 11-13.2 14.1-22.7q.5-1.5 1-3h219l5 13c6.4 9.9 14.4 16.9 26 19.7 4.9.5 9.8.6 14.7-.1 7.6-1.1 11.8.6 18.3 4.4 7.4 2.5 16.2 1.2 23.2-2q2-1 4-2.1c3.3-1.7 5-2.2 8.7-1q1.5.5 3.1 1.1c10.4 1.3 19.1-.8 27.6-6.8 7-5.9 10.7-11.8 13.5-20.5.6-1.6.6-1.6 1.1-3.2l.8-2.5q21.9-.1 43.7-.2 10.2 0 20.3-.1 9.8-.1 19.6-.1 3.8 0 7.5 0 5.3-.1 10.5-.1 1.5 0 3.1 0c7.9 0 13.9 1.8 20.1 6.7 6.8 8.6 6.8 16.3 6.7 26.7q0 2.4 0 4.9 0 6.5 0 13.1 0 6.8 0 13.7 0 11.5 0 23.1-.1 13.3-.1 26.6.1 12.8 0 25.6 0 5.5 0 10.9 0 6.5 0 12.9 0 2.3 0 4.7c.1 18.9.1 18.9-7.4 26.6-4.7 3.3-8.5 4.1-14.2 4.1q-1.6 0-3.3 0-1.7 0-3.5 0h-3.8q-5.2 0-10.5 0-5.7 0-11.3 0-11.3.1-22.6.1-13.5 0-27 0-32.7 0-65.3 0-15.5 0-30.9 0-52.8 0-105.7 0-3.3 0-6.6 0-3.3 0-6.7 0-6.6 0-13.3 0-1.7 0-3.3 0-53.7 0-107.4.1-56.7 0-113.4 0-6.2 0-12.4 0h-3.1q-24.7 0-49.4.1-24.8 0-49.6 0-14.7 0-29.5 0-9.8 0-19.6 0-5.6 0-11.3 0-6 0-12 0-1.8 0-3.6 0c-6.8 0-11.6-.5-16.7-5.3l-1.8-2q-.8-1-1.7-2.1c-4.3-5.8-4.6-11.7-4.7-18.8q0-.9 0-2 0-3.2 0-6.5 0-2.4 0-4.7-.1-7.7-.1-15.5 0-2.6 0-5.3 0-11.1 0-22.2-.1-15.8-.1-31.7-.1-11.1-.1-22.3 0-6.6-.1-13.3 0-6.3 0-12.5 0-2.3 0-4.6c-.1-10.1.7-18.5 8-26 7.2-4.3 12.5-5 20.8-4.9z" fill="#ede2be"/><path d="M508.7 353.7q3.6.1 7.3 0c14.7 0 28.7 1.7 43 5.1q1.7.3 3.4.7c8.9 2.2 17.3 4.8 25.6 8.5q1 .5 2.1.9c22.9 10.2 34.9 31.6 43.8 54.3 4.1 11.1 7.1 22.2 9.3 33.7q.2 1.3.5 2.6.7 4.2 1.3 8.5.3 1.8.5 3.7c1.8 13 1.8 26.1 1.8 39.2q0 5.7.1 11.4c0 12.3-.1 23.8-3.4 35.7q-.4 1.8-.9 3.6c-6.3 24.5-19.8 45-35.8 64.4-2 3.1-1.8 5.4-1.3 9 2.2 2.7 3.9 3 7.2 3.8 5.8-1.2 8.3-5.3 11.8-9.8 4.3 3.9 7 8 9.8 13.1q.6 1.2 1.3 2.4c3.1 5.8 5.9 11.7 8.5 17.8a25.57 25.57 0 0 0 1.1 2.4c3.1 7.5 3.1 7.5 2.3 11.3-1.5 1.5-1.5 1.5-3.5 2.8-14.3 9.9-20 22.7-24.5 39.2H402c-.7-2.3-1.3-4.6-2-7-4.4-14.3-12.6-27.6-26-35 .5-5.6 2-10.1 4.4-15.2q.5-1.2 1-2.4c4.7-10.2 10.4-20.1 16.6-29.4q1 0 2 0 1.6 2.2 3.1 4.5c2.5 3.4 2.5 3.4 6 5.2 2.9.1 5.3-.4 7.9-1.8 1.6-3.1 1.4-5.4 1-8.9-1.6-3-3.8-5.5-5.9-8.1q-1.8-2.2-3.6-4.5-.9-1.1-1.8-2.3c-10.6-13.5-19.1-29.4-24.6-45.7-.4-1.1-.4-1.1-.9-2.3-4.9-15.5-5.7-31-5.5-47.1q0-4.7 0-9.4c0-20.8 1.1-41.4 6.3-61.6q.3-1.2.6-2.4c6.1-23.7 17.1-46.1 34.4-63.6q.9-1 1.9-2.1c10.3-10.4 26.2-15.6 40.1-18.9q2-.5 4-1.1c15.8-4 31.5-5.2 47.7-5.2z" fill="#d87900"/><path d="M737.3 58.3c8.6 8 15 19.6 18.7 30.7q.8.1 1.7.1c38.9 3.2 38.9 3.2 52.3 17.9 8.3 10.4 14.9 24.7 14.3 38.2-1.3 10.8-4.6 20.2-9.8 29.8-2.3 4.6-2.9 7.2-1.3 12q.8 2.3 1.7 4.5c3.9 10.4 5.9 20.4 1.5 31.3-6.3 12.3-16.5 21.3-29.4 26.2-10.3 2.9-19.4 3.1-30 2-6-.6-10.4-1-15.4 2.7-2.1 1.8-4 3.7-6 5.7C726 269 712 279 698 280q-1.9.1-3.8.3c-16.7.8-29.9-4.4-43.2-14.3q-1.5-1.1-3.1-2.3c-5-3.9-9-7.8-12.6-13-1.9-2.5-3.5-3.7-6.3-4.7-3.5.2-3.5.2-7 1-16.7 3.3-32.4.7-47-8-6.8-5.3-11.1-13.7-13-22-.3-2.9-.4-5.7-.4-8.6q0-1.2 0-2.4c.1-6.3 1.4-11.5 3.6-17.4.9-2.8.9-3.9-.2-6.6q-1.3-2-2.8-4c-8.3-12.1-9.9-27.7-7.6-41.9 4.1-16.5 12.7-31.1 27.5-40.2 9.8-5.5 19.8-6.5 30.9-6.9 5.7-.2 5.7-.2 10.5-3.2q.7-1.4 1.5-2.8.9-1.5 1.8-3.1c.8-1.7.8-1.7 1.8-3.5C637 61.1 650.3 49.7 667 44c24.9-7.1 50.1-2.1 70.3 14.3z" fill="#ede2be"/><path d="M701 73l2.7 1.1c9.1 4.2 15.8 10.3 20.9 18.9 3.3 4.8 7 5.5 12.5 6.6 7.7 1.9 12.9 5.1 17.9 11.4 4.1 7.1 6 13.4 6.3 21.6.6 8.3 2.8 15.1 7 22.3 2.6 5.3 2.7 10.4 1.7 16.1-3.5 9.6-9.6 20.7-18.2 26.5-2 1.4-2 1.4-2.4 3.8q-.1 1.3-.2 2.6-.1 1.3-.2 2.6a20.09 20.09 0 0 0 1 6.5c7.5.8 11.9-1.6 18-6q1-1 2-2c2.5-.4 2.5-.4 5 0 1.4 1.7 1.4 1.7 2.6 3.9 2 3.1 2.8 4 6.4 4.8q3.2.2 6.5.3c2.5 0 2.5 0 3.5 1 .3 3.3.3 5.4-1.2 8.3-2.1 2-3 2.4-5.8 2.7l-3.2.4c-4-.4-4.9-1-7.9-3.5s-3-2.5-6.8-3q-2.7.9-5.3 2.1c-6 2.5-11.3 4.3-17.8 3-3.8-2.8-5.7-6-8-10q-.7 1-1.5 2c-7.8 10-17.2 19.3-30.5 21-15.4.9-26.2-1.1-39.7-8.7-4.9-2-8.5-.8-13.2 1.2-12.5 4.9-25 2.2-37-2.7-6.9-3.6-10.8-8.8-14.1-15.8-.9-3.6-.9-3.6-1-7-.1-1.2-.1-1.2-.1-2.4-.3-8.8 2.2-16.3 5.1-24.6l-1 2c-1.8-.2-1.8-.2-4-1-7.4-9.8-9.1-24.1-8-36 2-9.9 8-17.8 16.2-23.5 5.9-3.7 12.2-6.7 18.5-9.7 2.6-1.4 4.4-2.6 6.6-4.5 2.7-2.3 2.7-2.3 4.7-2.3q.3-.8.7-1.6c1.8-3.2 4.1-5.8 6.5-8.6 3.3-3.8 6.6-7.7 9.6-11.8 11.4-14.6 28.9-14.9 45.2-8z" fill="#032d3f"/><path d="M741 39c8.7 7 15.1 14.5 21 24q.7 1.1 1.4 2.3c1.7 2.8 2.6 4.4 2.6 7.7q1.6-.1 3.3-.1c18.8 0 37.9 7.6 51.4 20.5 4.6 4.7 8.2 9.8 11.3 15.6l1.2 2c4.7 8.8 7.4 18.1 7.8 28l.2 2.7c.5 13.2-3.8 25.2-9.1 37-1.9 5.7.1 10.2 2 15.7 3.8 13.4 2.6 25.8-3.4 38.3-10 17.9-26.3 29.5-45.7 35.3-5.6 1.3-11.3 1.1-17.1 1.1q-1.4 0-2.9 0-1.5 0-2.9 0-1.3 0-2.6 0c-2.5-.1-2.5-.1-5.2-.7q-1.1-.2-2.3-.4c-2.4 1.8-2.4 1.8-4.5 4.4-14 14.7-32.9 24-53.2 24.7-24 .5-45.8-7.5-63.3-24.1q-.5-.9-1.1-1.8c-1.5-2.3-2.6-3.7-4.9-5.2-4.4-.8-8.8-.8-13.2-.7-3.6.1-7.2.1-10.9 0q-1 0-2.1 0c-11.2-.3-21.4-4.1-30.8-10.3q-1-.6-2-1.3c-10.9-7.5-17.6-18.8-20.6-31.5-.7-3.9-.7-7.7-.6-11.6q0-1.2 0-2.5c0-5.2.6-10.1 1.8-15.2 1-4.8-.7-8.2-2.9-12.4-8.8-17.3-9.6-38.3-4.1-56.8 4.3-11.4 9.6-22.1 18.4-30.7q1 0 2 0 0-1 0-2c8.2-7.6 17.7-12 28-16q1.5-.6 3-1.2c3.1-.8 5.9-.9 9.1-1 6.7-.1 6.7-.1 12.5-3.1 3.1-3.9 5.2-8.3 7.4-12.7 10.9-16.9 30.1-26.9 49.1-31.4 24.3-4.9 51.5-1.5 71.9 13.4zM637.8 62.9c-5.5 6.4-9.7 13.4-13.5 20.9C623 86 623 86 621 88c-2.2.4-2.2.4-4.9.5q-1.4.1-3 .2-3.1.2-6.1.4c-14.4 1.1-27.2 5.9-37.2 16.7-11.9 14.6-17 30.5-15.8 49.2 1.3 9.2 3.8 18.7 10.4 25.5 2 3.1 1.6 4 1 7.4-.7 2.7-1.5 5.3-2.5 7.9-1.1 4.1-1.2 7.8-1.2 12q0 1.2 0 2.4c.1 5.7.6 10.7 3.3 15.8q.5 1 1.1 2.1c5.8 10.2 15.4 15.5 26.5 18.7 5 1.2 10 1.5 15.2 1.5q1 0 2.1 0c5 0 9.3-1 14.1-2.3 4.2.1 6.2.4 9.5 3.1 1.3 1.5 2.6 3 3.8 4.6 10.4 12.8 27.4 23.8 43.7 26.3 21.9 1.8 38-5.9 54.5-19.7 2.3-2 4.4-4.2 6.5-6.3 3.1-2.7 4.8-3.4 8.9-3.2q1.4 0 2.9 0 3.3.2 6.5.5c15.1 1.6 29.5-1 41.7-10.7 9.4-8.2 15.3-16 17-28.5.6-9.2-2.4-18.5-6.2-26.8-1.4-4-.2-6.6 1.7-10.3q.9-1.6 1.8-3.3c7-13.3 10-27.1 5.6-41.6-4.7-14.3-11.7-25.5-24.9-33.1-12.2-6.1-27.5-8-41-8q-1.9-3.8-3.7-7.6c-7.8-16.1-17.5-28.5-34.6-35.5-28.5-9.8-58.6-5.3-79.9 17z" fill="#022c3d"/><path d="M620 369c22-1.8 37.2 11 53 24.3 3.9 3.4 7.4 7.1 10.9 11 5.1 5.6 10.5 11.1 15.9 16.5q1 1 2.1 2 4.1 4.1 8.3 8.2c11.9 11.5 22.9 23.2 28.8 39q.5 1.4 1.1 2.9c4.9 16.7-3.3 33.3-10.9 47.8-2.1 4.1-4 8.3-5.9 12.5-11.8 26.9-11.8 26.9-22.3 34.8-4.4 1.5-8.5 2.2-12.8.2-14.9-11.2-20.7-36.6-23.9-53.9-.8-6.2-1.3-12.3-1.6-18.6-1.9-33.3-7.3-65.7-22.7-95.7q-.8-1.7-1.7-3.4c-4.4-8.6-9.6-17-16.6-23.8-1.7-1.8-1.7-1.8-1.7-3.8zm-217-1c-1.4 4.1-3.1 6.5-6.1 9.5-28 30.3-37.2 77.8-38.1 117.6-.6 24-5.3 52.8-22.5 70.9-3.5 3.1-6.2 3.7-10.7 3.6-7.1-1.6-12.2-8.7-16.2-14.4-4-6.7-7-14-10.1-21.1-2-4.5-4.2-8.9-6.4-13.3-2.9-5.5-5.4-11.2-7.8-16.9q-.5-1.1-.9-2.1c-4.5-10.9-5-23.3-.5-34.2 5.4-11 12.5-20.2 21.3-28.6q2.5-2.5 5-5 2.3-2.3 4.5-4.5 3.6-3.5 7.1-7 1.8-1.9 3.7-3.7 2.7-2.7 5.4-5.4l1.6-1.6c3.3-3.3 6.4-6.7 9.4-10.3 1.6-1.9 3.4-3.4 5.2-5 2.6-2.2 5.1-4.5 7.4-6.9 13.3-13.4 29.8-21.6 48.7-21.6z" fill="#aa5e00"/><path d="M849 796c1.9 1.6 1.9 1.6 3 4 .2 3.4.2 3.4-1 7-2.5 2.4-5.1 4.2-8 6 1.4 3.4 3.3 5.4 5.9 7.9 4.2 4.1 6.7 7.4 7.5 13.3-1.3 11.1-8 22.6-16.4 29.8q-1 .9-2 1.9c-10.5 9-22.2 13.3-35.9 13.3q-1.1.1-2.3.1c-6.5-.1-12.4-1.2-18.7-2.7-3-.6-4.4-.8-7.1.4-2.2 1.8-2.2 1.8-4.4 4-2.7 2.5-4.3 3.9-7.9 5.1-2.8-.1-4.4-.5-6.7-2.1-1.6-3.3-1.8-6.5-1-10 2-2.5 4.3-4.4 7-6q1 0 2 0-3.9-4-8-7.8c-12.5-12-12.5-12-13.2-19.3.4-11.6 8.4-21 16.2-28.9q1.2-1.4 2.4-2.8c11-9.6 25.5-13.6 39.8-13.5 8.4.7 17.1 2.6 24.6 6.6 2.9 1.9 2.9 1.9 5.1 1.5 2.6-1 4.2-2.4 6.2-4.3 4.3-4.1 7-5.1 12.9-3.5z" fill="#022b3e"/><path d="M719 684q1.4.6 2.8 1.3c13.4 6.6 22.2 16.6 27.4 30.4 2.9 8.6 2.6 17.6-1.4 25.7-3.2 5.4-6.6 8.9-12.8 10.6-4.8.6-7.9.7-12-2-.3-2.4-.3-2.4-.2-5.3q0-1.5.1-3.2.1-3.3.2-6.6.1-1.6.1-3.2 0-1.5.1-3c-.4-3.2-1.4-5.1-3.3-7.7-1.9-.7-1.9-.7-4-.5q-1 0-2.1 0c-2.5.6-3.3 1.4-4.9 3.5-.5 2.5-.5 2.5-.4 5.4 0 1.5 0 1.5-.1 3.2q0 1.6 0 3.3 0 3.2-.1 6.5 0 1.4 0 2.9c-.6 4.1-2.3 6.7-5.4 9.5-4.5 2.7-8.9 2.7-14 2.2-4.7-1.5-6.8-3.5-9.2-7.8-1.6-4.5-1.4-9.2-1.4-13.9q0-3.1 0-6.2 0-1.4 0-2.8c-.2-2.3-.2-2.3-1.7-4.1-2.8-2-5.4-1.6-8.7-1.2-1.8 1.1-1.8 1.1-3 3-.5 2.9-.5 2.9-.5 6.2 0 1.8 0 1.8-.1 3.6q0 1.9 0 3.8-.1 3.8-.2 7.5v3.4c-.2 2.5-.2 2.5-1.2 3.5-7.2.8-12.2.3-18-4-4.7-3.9-7.5-8.1-9-14-1.4-14.5 1.6-24.9 10.7-36.1 7.8-8.6 19-14.4 30.3-16.9q1.1-.3 2.3-.5c12.5-2.3 28.3-2.3 39.7 3.5zm-355 5l2.3 1.6c9.7 7.2 17.4 16.2 19.7 28.4.7 10.5-.2 19.6-7 28-4.7 3.5-8.2 5.1-14 5.2h-2.6c-2.4-.2-2.4-.2-5.4-2.2-.4-2.6-.4-2.6-.4-5.8q0-1.7-.1-3.5 0-1.8 0-3.6 0-3.6-.1-7.2 0-1.6 0-3.2c-.2-2.7-.2-2.7-1.7-4.5-2.9-2-5.3-1.6-8.7-1.2-3 3-3.4 5.3-3.4 9.4 0 1.6 0 1.6-.1 3.2q0 1.6 0 3.3c-.1 13.4-.1 13.4-3.5 18.1-4.2 3-9.1 2.5-14 2-5.4-1.9-8.5-4.9-11-10q-.2-2.4-.2-4.9v-2.9q-.1-3.1-.1-6.1c-.1-5.8-.1-5.8-2.6-10.8-2.9-1.8-4.7-1.8-8.1-1.3-2 1-2 1-3 3-1.3 6.5-1 12.8-.8 19.4q0 1.2.1 2.5v2.2q-.1 1-.3 1.9c-4.1 2.7-7.2 2.8-12 2-5.8-2.5-10.4-6.2-12.9-12.2-3.4-9.7-3.1-19.3.9-28.8 1.8-3.5 3.8-6.8 6-10q.6-.9 1.2-1.9c17.5-23.3 58.8-26.2 81.8-10.1z" fill="#d97a00"/><path d="M531 540c4.9 3.5 9.3 7.5 12 13 1.1 7.8-1.3 15-5.7 21.5-4.2 5-8.4 8.1-14.4 10.7-2.1 1.6-2.1 1.6-2.2 3.8 0 2 .2 4 .3 6q1.4.5 2.9 1c14.5 5.4 27.5 12.9 35.1 27 .6 4.5.5 6.3-2.1 9.9-3.4 2.5-4.8 2.6-8.9 2.1-2.3-1.9-2.3-1.9-4.4-4.4q-1-1.2-2.1-2.4C540 626 540 626 540 624q-.9-.4-1.7-.8c-2.4-1.2-4.5-2.6-6.7-4.1q-1.2-.8-2.4-1.6-2.5-1.7-4.9-3.4c-9.3-3.2-18.7-1.2-27.3 2.9-7.9 4.1-14.8 9.2-20.6 16-2.4 2-2.4 2-6 2.1-3.7-1.2-5.3-1.8-7.4-5.1-.8-4.1-.9-6.4 1.2-10 6.8-8.4 15.9-13.8 25.6-18.4q1-.5 2.1-1.1c4.4-2 8.3-3.1 13.1-3.5-1-4.6-1.7-7.1-5.6-9.8q-3.2-1.7-6.4-3.4c-4.4-2.6-7.1-5.7-10-9.8q-.7-1-1.5-2.1c-4-6.2-4.8-12.6-4.5-19.9 1.6-5.9 5.9-9 11-12 13.8-6.5 29.5-8.1 43 0z" fill="#012d42"/><path d="M378 799c2.2 3.3 2.3 4.5 2.4 8.3l.1 3.1q.1 1.6.1 3.3l.1 3.3q.2 4 .3 8l1.6-.9q3.8-2.1 7.5-4.1 1.3-.7 2.6-1.4c8.1-4.4 8.1-4.4 13.3-3.6 2.7 1.7 3.7 3 4.6 6.1.3 2.6.3 4.4-.6 6.9-3 2.7-6.4 4.3-10 6q-3.1 1.7-6.1 3.4-2.5 1.3-4.9 2.6c3.8 3.1 8 5.3 12.2 7.6 7.7 4.3 7.7 4.3 8.8 5.4.4 3.1.5 5.9 0 9-2.1 2.6-2.1 2.6-5 4-6.4-.2-11-2.9-16.4-6.1q-1.3-.7-2.5-1.4-3.1-1.7-6.1-3.5v2.2q.1 5.1.1 10.1.1 1.8.1 3.5v3.4 3.2c-.2 2.6-.2 2.6-2.2 5.6-2.5.4-2.5.4-5.5.3h-3c-2.5-.3-2.5-.3-4.5-2.3-.2-2.7-.2-2.7-.2-6.1q0-1.8 0-3.7 0-1.9.1-3.8 0-1.9 0-3.9 0-4.8.1-9.5l-1.4 1q-3.3 2.2-6.6 4.4-1.1.8-2.3 1.6c-5 3.3-8.6 4.9-14.7 5-3-1.4-3-1.4-5-4-.9-5.4-.9-5.4 0-8 4-3.9 8.4-6.6 13.3-9.3 4.1-2 4.1-2 7.7-4.7q-.9-.5-1.8-1-4.1-2.2-8.1-4.4-1.4-.7-2.9-1.5-1.3-.7-2.7-1.5-1.3-.7-2.6-1.4C336 829 336 829 335 827c-.5-4.4-.5-6.3 2.1-9.9 3.6-2.6 4.6-2.7 8.9-2.1 3.4 1.6 6.6 3.5 9.9 5.5l2.6 1.6q3.3 1.9 6.5 3.9 0-1.1 0-2.1-.1-4.8-.2-9.7 0-1.6-.1-3.3 0-1.6 0-3.3 0-1.4 0-2.9c.4-3.1 1.2-4.5 3.3-6.7 3.6-1.8 6.4-.5 10 1z" fill="#022b3d"/><path d="M237 798c1.7 1.2 1.7 1.2 3 3 .3 2.6.3 2.6.3 5.8v3.4q-.1 1.7-.1 3.5l-.1 3.6q0 4.3-.1 8.7c.8-.4.8-.4 1.5-.9q3.5-2 7.1-4 1.2-.7 2.4-1.5c4.7-2.6 8.5-4.5 14-4.6 2.9 2 2.9 2 5 5 .6 3.6.6 3.6 0 7-3.3 4.3-8 6.3-12.8 8.8-1.1.6-1.1.6-2.4 1.2q-2.9 1.5-5.8 3c4.9 3.3 9.7 6.4 14.9 9 3.5 1.9 4.9 2.6 6.9 6.1.2 3.4 0 5-1.8 7.9-2.9 2.4-4.3 3-8.1 2.9-4.9-1.1-8.6-3.3-12.8-6q-1.2-.7-2.4-1.4-2.9-1.7-5.7-3.5v2.2q.1 5.1.1 10.1.1 1.8.1 3.5v3.4 3.2c-.2 2.6-.2 2.6-2.2 5.6-2.3.4-2.3.4-4.9.4h-2.7c-2.9-.5-3.6-1-5.4-3.4-.3-2.7-.3-2.7-.3-6q0-1.7 0-3.5.1-1.8.1-3.7c0-1.8 0-1.8.1-3.7q0-4.6.1-9.1-.8.5-1.6 1-3.5 2.2-7 4.4-1.2.8-2.5 1.6c-7.8 4.9-7.8 4.9-12.9 5-2.3-1.1-4.2-2.2-6-4-.7-3.1-.8-5.9 0-9 2.6-2.7 5.7-4.3 9-6q3-1.6 6-3.3 1.4-.7 2.8-1.4c2.3-1.1 2.3-1.1 3.2-3.3q-1-.4-2.1-.8c-3.5-1.4-6.8-3.3-10.1-5.2q-.9-.5-1.9-1.1c-2.6-1.5-4.8-2.8-6.9-4.9-.7-6.8-.7-6.8 1.4-10.6 4-2.2 7.3-1.4 11.6-.4 3.2 1.4 6.1 3.2 9.1 5.1q1.1.7 2.3 1.4 2.8 1.7 5.6 3.5 0-1.1-.1-2.2-.1-5-.2-10-.1-1.8-.1-3.6c-.2-8.5-.2-8.5 2.7-12 3.7-1.6 5.9-1.3 9.7-.2z" fill="#022b3e"/><path d="M514 797.5c2.9.7 4.1 2.2 6 4.5.5 2.6.5 2.6.6 5.4q.1 1.6.1 3.1 0 1.6.1 3.2 0 1.7 0 3.3.1 4 .2 8 .7-.5 1.4-.9 3.3-2.1 6.7-4.1 1.1-.7 2.2-1.4c4.8-2.9 8-4.3 13.7-3.6 2.4 1 2.4 1 4 3 .9 2.7 1.6 5.2 1 8-3.7 3.6-8.3 6.1-12.7 8.8q-1 .6-2 1.2c-5.1 3-5.1 3-7.3 3 3.5 4 7.5 6.2 12.1 8.6q2.2 1.2 4.3 2.4 1 .5 2 1c1.6 1 1.6 1 3.6 3 .5 3.3.5 3.3 0 7-2.6 3-2.6 3-6 5-6.3-.1-10.4-2.7-15.4-6.1q-1.1-.7-2.3-1.4-2.6-1.7-5.3-3.5 0 1.1 0 2.1-.2 4.8-.3 9.6 0 1.7-.1 3.4 0 1.6-.1 3.3c0 1.4 0 1.4-.1 2.9-.5 3.1-1.3 4.5-3.4 6.7-2.1.5-2.1.5-4.4.5q-1.2 0-2.3 0c-3.2-.7-4.3-2-6.3-4.5-.5-2.7-.5-2.7-.4-5.6v-3.3q.1-1.6.1-3.4.1-1.6.1-3.4.1-4.1.2-8.3-1.1.6-2.3 1.2-2.8 1.6-5.7 3.1-2.8 1.6-5.5 3.2c-5.7 3.5-5.7 3.5-9.9 3.5-2.7-1-4-1.5-5.6-4-1-3.3-1.3-5.2 0-8.4 2.8-3.6 6-5.2 10-7.2q2.2-1.2 4.3-2.3 1-.5 1.9-1c1.9-1.2 3.3-2.5 4.8-4.1-1-.4-1-.4-2.1-.8-3.5-1.4-6.7-3.2-10-5.1q-1-.5-1.9-1c-3.4-1.9-6.1-3.6-8-7.1.1-3.5.7-5.5 2.5-8.4 3.3-2.1 5.2-1.7 9-1.2 4.3 1 7.8 3.3 11.6 5.7q1.1.7 2.3 1.4 2.8 1.7 5.6 3.5 0-1.1 0-2.2-.1-5.1-.2-10.1 0-1.8-.1-3.5 0-1.7 0-3.4 0-1.6 0-3.2c.3-2.6.3-2.6 1.6-4.4 2.4-1.7 4.8-1.6 7.7-1.7z" fill="#032c3e"/><path d="M656 798c1.7 1.2 1.7 1.2 3 3 .3 2.6.3 2.6.3 5.8v3.4q-.1 1.7-.1 3.5l-.1 3.6q0 4.3-.1 8.7.8-.5 1.6-1 3.8-2.3 7.5-4.5 1.3-.8 2.6-1.6c8.1-4.8 8.1-4.8 13.3-3.9 2.9 1.4 2.9 1.4 5 4 1 3.3 1.2 5.8 0 9-3 2.7-6.4 4.3-10 6q-2.5 1.4-5 2.9c-3.7 2.1-3.7 2.1-6 2.1q0 1 0 2 1 .4 2.1.8c3.5 1.4 6.7 3.2 10 5.1q1 .6 1.9 1.1c6 3.4 6 3.4 8 6 .6 3.9.3 5.5-1.9 8.8-2.4 2.5-3.3 3.1-6.7 3.6-4.7-.5-7.7-2.7-11.6-5.3q-2.1-1.4-4.2-2.8-.9-.6-1.9-1.3c-1.8-1.2-1.8-1.2-4.7-2v2.2q.1 5.1.1 10.1.1 1.8.1 3.5v3.4 3.2c-.2 2.6-.2 2.6-2.2 5.6-2.3.4-2.3.4-4.9.4h-2.7c-2.9-.5-3.6-1-5.4-3.4-.3-2.7-.3-2.7-.3-6q0-1.7 0-3.5.1-1.8.1-3.7c0-1.8 0-1.8.1-3.7q0-4.6.1-9.1-1.4.8-2.8 1.6l-9.3 5.3q-1.9 1.1-3.8 2.3c-4.8 2.8-4.8 2.8-7.8 2.8-3-1.3-4.4-2.3-6.3-5-.5-3.5-.5-3.5 0-7 3.3-4.3 8.1-6.6 12.8-9.3l2.4-1.3q2.9-1.7 5.8-3.4-.9-.5-1.8-1-4.1-2.2-8.1-4.5-1.4-.8-2.9-1.5c-6.7-3.9-6.7-3.9-8.1-7.1-.6-3.8-.2-5.7 1.8-9 3.4-2.1 5-2.1 8.9-1.5 4.1 1.1 7.6 3.4 11.2 5.7q1.2.7 2.3 1.4 2.9 1.7 5.7 3.5 0-1.1-.1-2.1-.1-4.8-.2-9.6 0-1.7-.1-3.4 0-1.6 0-3.3 0-1.4-.1-2.9c.6-3.4 1.9-4.6 4.5-6.7 2.9-1.5 4.9-.8 8 0z" fill="#022b3d"/><path d="M817 814c-.5 3.9-2.1 5.3-5.1 7.8l-2.2 1.8q-.8.7-1.7 1.4-.8-.4-1.7-.9c-5-2.3-8.7-3.8-14.3-3.1-4.7 1.7-7.2 3.9-10 8-1.9 5.8-1.8 12 .5 17.7q.7 1.1 1.5 2.3l-9 8c-4-2-6.6-4.2-9.9-7.1-2-1.9-2-1.9-4.2-3.4-1.9-1.4-3.4-2.6-4.9-4.5-.5-5.4.8-8.2 4-12.5 14.4-16.9 35.7-26.2 57-15.5z" fill="#ede4c1"/><path d="M579 476c5.8 3 9.9 8.9 12 15 1 5.9.9 11.2-2.1 16.5-3.4 4.6-6.8 7-12.5 7.9-6.8.4-11.3-.9-16.4-5.4-3.7-3.8-4.3-6.8-4.5-11.9.3-6.7 1.7-11.3 6.5-16.1 5.5-5 9.4-7.3 17-6z" fill="#012c42"/><path d="M450 476c6.1 3 9.5 7.8 12.3 13.8 1.3 5.8 1.9 11.6-.9 17-2.5 3.7-5.2 6.5-9.4 8.2-5.6.9-10.3.8-15.4-1.6-5.5-5.1-8.3-8.6-8.9-16.1.1-6.9 3.5-13.4 8.3-18.3 4.3-3.6 8.6-3.8 14-3z" fill="#022c42"/><path d="M464 437c2.4 1.5 2.4 1.5 4 4 .8 4.2 1 6.4-1.3 10.1-1.8 2.1-3.7 4-5.7 5.9q-.8.8-1.7 1.6c-10.6 8.7-26.4 16.2-40.3 15.4-3.4-2-4.7-3.2-6.1-6.9.1-4.1 1.2-5.2 4.1-8.1 2.6-1 4.9-1.8 7.6-2.5 10.5-3 18.1-6.8 26.2-14.4 4.5-4.2 6.8-5.9 13.2-5.1z" fill="#042d43"/><path d="M831.2 824.2q1.9.9 3.8 1.8 0 1 0 2 .9.4 1.8.8c3.9 2.1 3.9 2.1 5.2 4.2.4 6.8-2.3 10.4-6.6 15.5-8.2 8.7-17.7 17.1-30.3 17.7q-2.3 0-4.5 0-1.2 0-2.4 0c-6.9 0-6.9 0-10.2-2.2 4.6-5.9 4.6-5.9 8-7q1.6.1 3.3.1c5.2-.2 8.2-1.6 11.8-5.3 2.2-3.3 2.4-5.2 2.6-9.1.6-5.3 1.6-7.8 5.6-11.3q2.3-1.7 4.7-3.4l2.8-2.6c2.2-1.4 2.2-1.4 4.4-1.2z" fill="#ece3c0"/><path d="M560 436.6c3.5.7 5.2 3.3 7.2 6 6.6 7.9 15.8 13.5 26.2 14.7a16.2 16.2 0 0 1 2.2.1c3.1.3 4.3.5 7 2.2 2 3.4 1.9 5.6 1.4 9.4-2 2.9-3.3 3.8-6.7 4.7-3.9.4-7.3-.3-11.1-1.3q-1-.3-2.1-.6c-13.3-3.6-25.1-11.4-33.1-22.8-1.4-4.3-1.5-5.9.4-9.9 3-2.4 4.9-2.6 8.6-2.5z" fill="#022d42"/><path d="M638.8 291.3c3.6 2.8 5.9 5.2 6.8 9.8 0 10.1 0 10.1-2.7 13.5-4.6 3.7-7.9 5.4-13.9 5.4-4.5-.8-7.8-2.8-11-6-3.1-4.5-4-8.7-3-14 5.2-10 13.5-13.3 23.8-8.8z" fill="#022c3d"/><path d="M621.3 126.3q.8.4 1.7.7-.3 1.4-.5 2.8c-.8 5.8-.5 11.7-.3 17.5.1 7.8-1.6 12.3-6.9 18.1q-.9 1-1.9 2.1-.7.7-1.4 1.5c-1.9-.3-1.9-.3-4-1-1.2-2.4-2.1-4.5-3-7q-.6-1.4-1.2-2.7c-1.6-6.7-1.9-12.9 1.3-19.1 2.6-4.3 5.9-7.2 9.9-10.2q1.1-1 2.2-1.9c1.8-1.1 1.8-1.1 4.1-.8z" fill="#f3f3ea"/><path d="M617.2 200.8l2.3-.1c3.3.4 5.6 1.7 8.5 3.3 9.1 5.3 9.1 5.3 19.2 7.7 3.8.3 3.8.3 5.9 2.2.9 2.1.9 2.1-.1 5.1-1.7 1.1-1.7 1.1-3.8 2.1q-1 .5-2.1 1c-6.5 2.7-12.6 2.7-19.1.3-5.9-2.6-10.9-5.8-15-10.8-1.3-3.4-1.3-6.1-1-9.6 1.6-1.6 3-1.2 5.2-1.3z" fill="#ede2be"/><path d="M727 211c-5.1 7.9-9.6 13.5-18.8 16.6-9.4 1.7-20.4 1.1-29.2-2.6-2.3-1.6-2.3-1.6-4-3 .6-2 .6-2 2-4 2.9-.5 2.9-.5 6.5-.5 5.8-.2 9.9-1.2 15.1-3.5 7.7-3.2 20.4-5.7 28.4-3z" fill="#f0f1e8"/><path d="M602 319c3.1 1.6 5.2 3.1 7.4 5.8.9 3.5.7 6.7-.4 10.2-2.2 2.6-3.9 4.5-7 6-5 .2-8.2-.3-12.1-3.6-2.3-4-3.1-6.8-1.9-11.4 3.6-6.1 7.1-7.6 14-7z" fill="#042b3c"/><path d="M691.3 80c2 1.1 2 1.1 4.7 3-9.6 6.4-20.9 6.6-32 6 1.7-3.8 3.6-5.6 7-8q1.3-.9 2.6-1.8c5.7-2 12.1-1.6 17.7.8z" fill="#ede2be"/><path d="M641 170c7.8 1.5 13.3 8 18 14-.8 1.9-.8 1.9-2 4-4.7 1.5-8.5 1.1-13-1-3.5-5.1-3.4-11.1-3-17z" fill="#f3f4ec"/><path d="M737 183q1.5.5 3 1c-.2 7.2-.2 7.2-3.6 10.8-4.7 3.3-9.5 5.7-15.4 5.2.6-3.8 2.2-5.5 5-8.1 2.9-2.7 2.9-2.7 5-5.9q2.5-1.1 5-2 .5-.5 1-1z" fill="#f2f3ec"/><path d="M650 111q0 1 0 2-1.9 1.4-3.8 2.6c-4.4 3.3-6.1 6.1-7.2 11.4-.3 2.4-.4 4.8-.6 7.2-.8 5.4-2.7 10.6-4.4 15.8-3.5-5.2-3-11.9-2-18 2.4-8.2 6.9-15.1 14-20 2-1 2-1 4-1z" fill="#eff0ea"/><path d="M754 163c3.7 1.4 3.7 1.4 4.9 3.7.2 4.7-1.3 8.4-3.9 12.2-1 1.1-1 1.1-2 2.1q-1 0-2 0-.1-3.7-.2-7.3 0-1-.1-2.1c0-5.2 0-5.2 1.8-7.6q.7-.5 1.5-1z" fill="#f9f8f3"/><path d="M738 156q1 0 2 0c.8 6.1.4 10.2-3.1 15.3-3 3.8-5.9 6.9-9.9 9.7q-1 0-2 0c1.4-6.6 2.8-11.5 7.5-16.4 2.4-2.6 3.9-5.5 5.5-8.6z" fill="#f3f3ed"/><path d="M688 147c-.1 3.3-.1 3.3-1 7-3.5 2-5.9 3-10 3l1-7q1.9-.8 3.9-1.5l2.2-.8c1.9-.7 1.9-.7 3.9-.7z" fill="#edf0ea"/><path d="M650 111q0 1 0 2-1.9 1.4-3.8 2.6c-5.6 4.1-6.6 8.4-7.9 14.9q-.1 1.2-.3 2.5-1.5 0-3 0c-1.5-4.3-.2-6.7 1.7-10.7 2.8-5 6.9-11.3 13.3-11.3z" fill="#dfe5e1"/><path d="M664 195q.6 3 1 6c-1 1-1 1-3 1.1q-1.1 0-2.4 0-1.2 0-2.4 0c-2.2-.1-2.2-.1-5.2-1.1q.5-1.5 1-3c2-.9 2-.9 4.4-1.7q1.2-.4 2.5-.7c2.1-.6 2.1-.6 4.1-.6z" fill="#e8ece8"/><path d="M705 93c3.4 2 3.4 2 6 4-1.7 2.1-2.6 2.9-5.3 3.5-4-.7-6.6-3-9.7-5.5 3.5-2.4 4.8-2.5 9-2z" fill="#e8ede9"/><path d="M709 158q-.5.8-.9 1.6c-1.3 2.8-1.7 5.4-2.1 8.4q-4.5 1.5-9 3c.6-3.6 2-5.5 4.4-8.2q1-1 1.9-2.1c2-2 2.9-2.7 5.7-2.7z" fill="#ede2be"/><path d="M695 124q2.5.5 5 1c-.6 3.3-1.6 5.5-4 8q-2 0-4 0c.6-3.3 1.4-6 3-9z" fill="#f1f3ee"/><path d="M710 136q1.5 0 3 0c.8 2.1.8 2.1 1 5-2.3 4.4-4.6 6.8-9 9q.5-2.5 1-5 1 0 2 0l2-9z" fill="#4a6673"/><path d="M724 150q1.5.5 3 1c-2.4 4.8-2.4 4.8-4 7-2.8.9-2.8.9-5 1-.4-2.3-.4-2.3 0-5 2.8-2.4 2.8-2.4 6-4z" fill="#e8ece9"/><path d="M736 112c2.6 0 2.6 0 6 1 6 6.1 6 6.1 6 10-3.8-.5-5.3-2-7.7-4.9q-.9-1.1-1.8-2.2C737 114 737 114 736 112z" fill="#e9ecea"/><path d="M635 209c4.8.9 4.8.9 7 2q2.2.2 4.4.3c4.3.4 4.3.4 6.7 2.6.9 2.1.9 2.1-.1 5.1-2.1.7-2.1.7-4 1q.5-3 1-6-.9-.1-1.8-.1c-5-.4-8.7-1.3-13.2-3.9q0-.5 0-1z" fill="#f8faf6"/><path d="M619 176q.5 0 1 0v14q-1.5-.5-3-1c-1.2-5.4-.9-8.2 2-13z" fill="#edf1f0"/><path d="M709 112q.5 2 1 4h-10q0-1.5 0-3c3.4-2.1 5.2-2 9-1z" fill="#eaefeb"/><path d="M752 168c5 5 5 5 5 8-1.8 2.8-1.8 2.8-4 5q-1 0-2 0l1-13z" fill="#ede2be"/><path d="M738 156q1 0 2 0v8q-1 0-2 0-.5 1.5-1 3-1.5-1-3-2 1 0 2 0-.1-1.4-.1-2.8c.1-3.2.1-3.2 2.1-6.2z" fill="#f6f6f1"/><path d="M733 131l4 2-2 10q-1 0-2 0v-12z" fill="#edf2ef"/><path d="M702.2 199.4l1.8.6c-2.5 3.1-3.7 3.9-7.8 4.7l-3.2.3c6-6.2 6-6.2 9.2-5.6z" fill="#f4f6f3"/><path d="M629 168q1 .5 2 1v11q-1.5-1-3-2c-.3-1.9-.3-1.9-.3-4l.1-2.1c.2-1.9.2-1.9 1.2-3.9z" fill="#ebf0ee"/><path d="M680.4 99.8h2.5c2.1.2 2.1.2 4.1 2.2-1.6 1.6-3.2 1.2-5.4 1.2h-2.5c-2.1-.2-2.1-.2-4.1-2.2 1.6-1.6 3.2-1.2 5.4-1.2z" fill="#f2f5f2"/><path d="M735 161q.5 2 1 4-1 0-2 0 .5-2 1-4zm3 3q1 0 2 0-.5 2-1 4-2.5 0-5 0-.5 1-1 2-1.5-.5-3-1 2-2 4-4 1.5.5 3 1 .5-1 1-2z" fill="#e5e9e6"/><path d="M652 151q1.5 0 3 0v9c-2-1.2-2-1.2-4-3-.3-2.6-.3-2.6 0-5q.5-.5 1-1z" fill="#edf1ee"/><path d="M631 179q.5 0 1 0c.1 5.8.1 5.8-1 8q-1.5 0-3 0-1-2.5-2-5 1-.2 1.9-.4l2.1-.6q.5-1 1-2zm123-16c3.8 1.5 3.8 1.5 4.8 3.8.2 2.6-.2 4.7-.8 7.2-1.5-2.6-2-3.9-2-7q-1 0-2 0 0-2 0-4zm-34-58c4.7 1.5 4.7 1.5 6.3 4.1q.4.9.7 1.9c-3.2-.4-4.6-.6-6.8-3.1L719 106q.5-.5 1-1zm-31 78q2.5 0 5 0-.5 2-1 4-2.5.5-5 1 .5-2.5 1-5z" fill="#ede2be"/></svg>