<svg xmlns="http://www.w3.org/2000/svg" width="1024" height="1024" xmlns:v="https://vecta.io/nano"><path d="M401 157q1.6.9 3.3 1.8c17.6 9.8 32.3 24.4 44.7 40.2.7.9.7.9 1.4 1.7 18.4 23.5 35.1 50.8 44.6 79.3l34 1q.5-3 1-6c.8-2.2.8-2.2 1.7-4.3q.5-1.1 1.1-2.3.5-1.3 1.1-2.5.6-1.3 1.3-2.7 1.9-4.1 3.8-8.2.6-1.3 1.2-2.6c6-12.7 12.9-24.7 20.8-36.4q.6-1 1.3-2c5.9-8.6 12.4-16.6 19.3-24.4q1.9-2.2 3.9-4.5c14.9-16.9 33.8-28.9 55.5-35.1q1.6-.5 3.2-1c23.7-5.9 49.9-3.4 70.8 9 3.6 2.4 6.8 5.1 10 8l2.5 2.3c16 15.2 26.5 35.5 27.5 57.7q0 1 .1 2c1.2 26.4-6.8 49.4-24.7 69-8 8.4-16.5 15.3-26.1 21.7-3.3 1.9-3.3 1.9-4.3 4.3q1.9 0 3.8 0 17.9-.3 35.8-.4 9.2 0 18.3-.1 8.9-.1 17.8-.2 3.4 0 6.7 0c14.6-.3 25.9.1 37.3 10.1 9.2 9 14.4 22 14.6 34.8q0 1.2 0 2.3 0 1.2 0 2.5.1 3.9.1 7.9 0 2.8 0 5.6 0 5.9 0 11.7 0 7.5.1 14.9.1 5.8.1 11.5 0 2.8 0 5.5c.1 14.3-1.3 26.9-11.6 37.9-6.3 6.4-13.7 11.9-23 12q-3 0-6 0 0 1 0 2.1.1 60.7.2 121.4 0 7.3 0 14.6v3q.1 23.5.1 47 .1 24.1.1 48.2 0 14.9 0 29.8.1 10.2.1 20.4-.1 5.9 0 11.8 0 5.4 0 10.8 0 2.9 0 5.7c-.1 17.3-6.6 30.1-18.5 42.2q-.8.9-1.7 1.8c-9.2 8.5-21.2 12.5-33.6 12.5h-2.4q-4 0-8 0-2.9 0-5.8 0-8 0-16 0-8.6 0-17.2 0-16.8 0-33.7 0-13.7 0-27.4 0-1.9 0-3.9 0-4 0-7.9 0-26.6 0-53.2 0h-2.1q-5.3 0-10.6 0-1 0-2.1 0-2.1 0-4.2 0-32.9 0-65.9 0-37 .1-74 .1-19.5 0-39.1 0-16.7 0-33.4 0-8.5 0-17 0-7.8 0-15.6 0-2.8 0-5.6 0c-19.6.1-35.7-2.9-50.4-17-12.1-13-15.5-27.4-15.4-44.7q0-2 0-4 0-5.5 0-11 0-5.9 0-11.8 0-10.2 0-20.5 0-14.8 0-29.6 0-24 0-48.1.1-23.3.1-46.6v-2.9q0-7.2 0-14.5 0-59.8.1-119.7-1.9 0-3.8 0c-9.8.1-17.5-5.6-24.3-12-11.5-11.8-11.6-24.6-11.5-40.2q0-3 0-6.1 0-6.4 0-12.8 0-8.2 0-16.3 0-6.3 0-12.7 0-3 0-6c0-16.4 2-26.9 13.7-39.1 10.1-9.7 22.3-13.1 36.1-13.1q1.3 0 2.6 0 4.2-.1 8.5-.1 2.9 0 5.9 0 7.8-.1 15.6-.1 12.4-.1 24.9-.2 4.4-.1 8.7-.1 2.7 0 5.3 0 1.3 0 2.5 0c4 0 4 0 7.8-1.2q-1.3-.9-2.6-1.8c-23.3-16.1-43.1-37.3-49.3-65.8-2.5-13.9-3-30 1.9-43.4q.6-1.7 1.2-3.5c2.6-7.3 6-13.9 10.1-20.4q.6-1.1 1.3-2.2c1.1-1.7 2.2-3.3 3.4-4.9q1 0 2 0c.4-.9.4-.9.9-1.8 6.5-12.5 22-21.7 34.8-26.2 24.9-7.3 52.4-5.2 75.3 7z" fill="#0136a5"/><path d="M584 479l90.4-.1H703h16.8q5.6 0 11.3 0 7.2 0 14.4 0 2.6 0 5.3 0 3.5 0 7.1 0h2.1c4.8 0 4.8 0 7 1.1q.1 60.3.2 120.6 0 7.1 0 14.2 0 1.4 0 2.9.1 22.9.1 45.9.1 23.5.1 47.1 0 14.5 0 29 .1 10 .1 20-.1 5.7 0 11.5 0 6.2 0 12.4 0 1.8 0 3.7c-.1 10.3-2.2 19.4-9.4 27-44.6 37.3-116 8.7-174.1 8.7V479zm-320.2-.1q1.1 0 2.2 0 1 0 2.2 0 3.7 0 7.4 0 2.7 0 5.4 0 7.3 0 14.6 0 6.8 0 13.6 0 19.9 0 39.9 0l89.9.1v344c-163.5 0-163.5 0-173-9-8.7-9.7-8.2-22.5-8.1-34.8v-3.9q0-5.3 0-10.6 0-5.7 0-11.5 0-11.2 0-22.4 0-9.1 0-18.2 0-1.3 0-2.6 0-2.7 0-5.3 0-24.7 0-49.4 0-21.2 0-42.4 0-24.6 0-49.2 0-2.6 0-5.2 0-1.3 0-2.6 0-9.1 0-18.3 0-11 0-22.1 0-5.7 0-11.3 0-6.2 0-12.3 0-1.8 0-3.6 0-1.7 0-3.3 0-1.4 0-2.9c.2-4 2.4-3.2 5.9-3.2z" fill="#90cbfe"/><path d="M467 479h89v345c-72 0-72 0-89-1V479z" fill="#fe9b00"/><path d="M584 350l74-.1q22.6-.1 45.2-.1 16.4-.1 32.9-.1 8.7 0 17.5 0 8.2 0 16.4 0 3 0 6-.1 4.1 0 8.2 0 1.2 0 2.4 0c5.8.1 10.6 1.1 15.1 4.8 4.4 5.6 4.4 10.1 4.5 17q0 1.1 0 2.2 0 3.6 0 7.2 0 2.5 0 5.1 0 5.2 0 10.5.1 6.7.1 13.5 0 5.2 0 10.4 0 2.5 0 4.9.1 3.5.1 7v4c-.6 5.8-1.4 10.1-6 14-4.3 2.3-7.4 2.3-12.2 2.3q-1.3 0-2.7 0-4.3 0-8.7 0-3.2 0-6.3 0-8.6 0-17.1-.1-8.9 0-17.9 0-16.9 0-33.8-.1-22.8-.1-45.7-.1-36-.1-72-.2V350z" fill="#90cbfe"/><path d="M241.9 349.6h2.6q4.3 0 8.5.1 3.1 0 6.1 0 8.3 0 16.6 0 8.7 0 17.3 0 16.4 0 32.8.1 22.2 0 44.4.1 34.9 0 69.8.1v101l-76.2.2q-23.3.1-46.6.2-16.9.1-33.9.1-9 0-18 0-8.4.1-16.9.1-3.1 0-6.2 0-4.2 0-8.4 0-1.3 0-2.5 0c-4.3 0-5.8-.2-9.3-3-3.3-4.2-3.2-7.4-3.2-12.5q0-1.3 0-2.5-.1-4.1-.1-8.2 0-1.4 0-2.8 0-7.4-.1-14.7 0-7.7-.1-15.3 0-5.8 0-11.7 0-2.8-.1-5.6 0-3.9 0-7.8 0-1.2 0-2.4c0-4.5.8-7.6 4-10.9 5.6-4.2 12.8-4.6 19.5-4.6z" fill="#91cbfe"/><path d="M704.4 184.8c11 9.1 19.2 22 21.6 36.2 1.1 13.2 1.2 26.6-4 39q-.6 1.6-1.3 3.2c-3.4 7.4-7.9 13.1-13.7 18.8l-2.1 2.1c-23 21.6-55.5 31.1-85.9 35.9q-1.8.3-3.7.6c-6.1.7-12.2.5-18.3.5q-1.9 0-3.8-.1-4.6 0-9.2 0c4.3-4.7 9.1-7.9 14.4-11.3q1.4-.9 2.8-1.9 4.4-2.9 8.9-5.7c13.8-9 27.4-18.1 40.9-27.7q4.3-3 8.6-6c3.2-2.2 5-3.8 6.4-7.4.6-3.2.6-5.1-1.3-7.9-3.5-4.4-3.5-4.4-8.6-6.3-5.5-.2-9.3.7-14 3.6q-1 .6-2 1.2c-7.8 4.7-15.4 9.7-23 14.7-10.2 6.8-20.6 13.4-31.1 19.8q-4.7 3-9.5 6-3.1 1.9-6.2 3.9c-1.5.9-1.5.9-3 1.9q-1.3.8-2.7 1.7c-1.2.7-1.2.7-2.4 1.5-2.6 1.1-3.6.9-6.2-.1-.2-5.5.5-10.1 2-15.3q.3-1.2.7-2.4c2.6-8.8 6.3-17.1 10.3-25.3q.5-1 1-2c16.1-32.8 42.5-66.1 77.8-78.9 19.7-5.7 39.8-4.8 56.6 7.7zm-302.7 7.3c12.4 10.6 23.8 22.6 33.3 35.9.6.8.6.8 1.2 1.7 14 19.5 32.1 47.2 30.8 72.3-3.7-.6-6.3-1.6-9.5-3.6q-1.2-.7-2.5-1.6c-1.4-.8-1.4-.8-2.7-1.7-1.5-.9-1.5-.9-2.9-1.8q-10.5-6.6-21-13.4c-6-4-12.1-7.8-18.2-11.7q-7.7-4.9-15.3-9.8c-13.7-9.8-13.7-9.8-29.9-11.4-3.1 1.2-3.9 1.8-5.8 4.7-1.5 4.2-1.5 6.1-.2 10.3 5.2 8.2 14 13 21.9 18.2q2.2 1.4 4.4 2.9 4.6 2.9 9.1 5.9 6.8 4.4 13.5 8.9 8.1 5.3 16.2 10.6.9.6 1.8 1.2 4.2 2.7 8.5 5.3 1.5 1 3 1.9c1.3.8 1.3.8 2.7 1.6q.9.7 1.9 1.5 0 1.5 0 3c-10.1.2-19.9-.3-30-1.6q-1-.2-2-.3c-35.4-4.7-73.7-17.4-97.7-45.1-10.4-13.7-17.1-30.6-15.3-48 3-18.4 9.9-32.5 25-44 26-17.2 56.2-10.4 79.7 8.1z" fill="#fd9b00"/><path d="M473.6 349.9h2.5q1.2 0 2.6 0 4.2 0 8.4 0 2.9 0 5.8 0 6.2 0 12.3 0 7.9 0 15.7 0 6.1 0 12.1 0 2.9 0 5.8 0 4.1 0 8.1 0 1.2 0 2.5 0c5.5 0 5.5 0 6.6 1.1q.1 4.7.1 9.4 0 1.5 0 3 0 4.9 0 9.8 0 3.4 0 6.8 0 8.9 0 17.9 0 10.7-.1 21.5 0 16.3 0 32.6h-89v-35.9q-.1-10.9-.1-21.9 0-8.8 0-17.6 0-3.4 0-6.8 0-4.7 0-9.4 0-1.4 0-2.9c0-7.6 0-7.6 6.7-7.6z" fill="#fe9a00"/><path d="M509.4 308.1q1.9 0 3.9-.1c6.1.1 10.6.2 15.4 4.3q1.7 1.9 3.3 3.7 2 1.7 4 3.4 1.5 1.3 3 2.6 0 .5 0 1h-56l6-7q1.2-1.9 2.5-3.9c4.5-5.2 11.5-4.1 17.9-4z" fill="#fb9c02"/></svg>