<svg xmlns="http://www.w3.org/2000/svg" width="1024" height="1024" xmlns:v="https://vecta.io/nano"><path fill-rule="evenodd" d="M604.1 93.1q1.4 1 2.9 1.9c9.6 6.3 19.3 13.5 26.9 22.3 1.6 1.9 3.1 3.7 4.9 5.5 3.5 3.4 6.6 6.8 9.5 10.8a35.34 35.34 0 0 0 1.7 2.4c8.4 11.2 15.1 22.6 20.9 35.3q.5 1.1 1 2.1c1.5 3.2 2.8 6.4 3.7 9.9.2 1.3.2 1.3.5 2.4q.3 1.3.5 2.5l.4 1.8q38.2.2 76.4.3 18.6.1 37.2.2 16.3 0 32.6.1 8.6.1 17.2.1 8.2 0 16.5.1 3 0 6.1 0 4.2 0 8.4 0h2.6c6.4 0 9.2.5 14.4 4.6 4.4 4.5 6.1 8.1 6.2 14.4-.1 1.2-.1 1.2-.1 2.5q0 2.7 0 5.5 0 4.2 0 8.5 0 2.8 0 5.6 0 1.3 0 2.7c.1 6.7-.6 10.8-4.5 16.4-2.7 2.4-4.7 3.8-8.3 4.4q-1.2.1-2.4.2-1.2.1-2.4.2-1 .1-1.9.2.1 30.5.3 61.1.1 14.8.1 29.6.1 13.1.1 26.1.1 6.9.1 13.8 0 6.6.1 13.2 0 2.4 0 4.8 0 3.4 0 6.8 0 1 0 2c0 3.7 0 3.7.3 6.6 8.8 13.1 17.1 26.7 25.1 40.3q1.4 2.4 2.9 4.7c3 3.5 5.7 6.4 6.3 11.1.6 11 .5 23.4-7.3 32.2q-1 .8-2 1.7c-3.7 5.1-7.8 8.4-13 12l-12 5-1 220c4.5-.7 8.2-1.2 12.7-1.2q1.2 0 2.4 0c4 0 7.7-.2 11.5 1q1.2.6 2.4 1.2 2.6 1.2 5.2 2.4.9.4 1.8.9c3.8 1.7 7 3.5 9.7 6.7q1.2 1.5 2.3 3c1.6 1.9 3.1 3.7 4.5 5.7 7 10.7 8.1 21.9 6 34.3q-.3 1-.5 2c12.4 0 24 5.3 32.9 13.7 8.1 8.8 11.3 17.7 11.4 29.5q0 1.2-.1 2.4c.2 11.2-2.8 21.1-9.8 30-10.8 11.7-23.3 15.6-38.8 16.3q-1.3.1-2.6.1c7.3 7.5 12.2 14.4 12.5 25.1-.3 8.2-2 14.2-7.7 20.2-6.1 5.9-11.2 7.3-19.6 7.4q-3-.1-6-.1-5.7.1-11.3.1-6.2-.1-12.4 0-10.9 0-21.8 0-16.3-.1-32.7 0-29.1 0-58.2 0-25.7 0-51.3 0h-3.4q-6.9 0-13.8 0-64.7 0-129.3 0-57.6-.1-115.1-.1-64.8.1-129.6.1-6.9 0-13.8 0-1.7 0-3.4 0-25.7 0-51.3 0-29.3 0-58.6 0-16.5-.1-32.9 0-11 0-22 0-6.3-.1-12.6-.1-5.8.1-11.6.1-2.1-.1-4.2-.1-2 0-3.9.1c-8.8-.1-15-1.7-21.3-8q-.9-1.4-1.7-2.7c-2-2.9-3.1-4.7-4-8-.7-7-1.7-16.5 2-22.7q.7-.9 1.3-1.8c.7-.9.7-.9 1.3-1.8q.8-1 1.5-1.9 1.4-2 2.7-3.9c1.1-1.5 1.1-1.5 2.2-2.9-14.8.6-25.3-1.4-37-11q0-1 0-2-1 0-2 0c-3.7-4.8-6.5-9.4-8.8-15-4.5-12.2-3.3-26.3 1.8-38 4.9-9.4 13.5-17.7 23.6-21.3q2-.5 3.8-.9c4-1.1 7.5-1.8 11.6-1.9q1.5 0 3 .1c-1.7-4.2-2.2-7.8-2.2-12.3q0-1.2 0-2.3c0-3.7.1-7.4.6-11.1 3.1-11.4 11.3-21 21.3-27q1.1-.7 2.3-1.3c9.5-5.1 20.4-4.9 31-4q1.5.5 3 1V527c-8.2-1.2-14.2-3.8-21.1-8.4-8.8-7-13.8-16.7-15.9-27.6-1-7.6-1.4-13.9 3.3-20.3 3.7-4.4 6.7-8.8 9.6-13.7 2.5-4.4 5.1-8.7 8.3-12.7 15.3-18.7 18.4-33.6 17.9-57.5q-.2-6.7-.1-13.5 0-12.7-.2-25.4-.2-14.6-.3-29.2-.1-31.3-.5-62.7-1.9 0-3.8 0c-5.1.1-7.9-.9-11.8-4.2-4.3-4.9-5.7-9-5.8-15.3.1-1.3.1-1.3.1-2.5q0-2.6 0-5.2 0-4.1.1-8.2 0-2.7 0-5.4 0-1.3 0-2.6c0-6.6.3-10.6 4.5-16 4.6-4.2 8.8-6 15-6.1h2.3q4.1 0 8.1 0 3 0 5.9 0 8.1 0 16.1.1 8.6 0 17.1 0 16.2 0 32.3.1 18.5.1 37.1.1 38.3.1 76.6.2 1.6 0 3.2 0c9.7-32.8 9.7-32.8 31.3-60.7q.7-.9 1.4-1.8c23.3-30.1 60.9-52 98.1-59.1q1.1-.2 2.2-.4c43.7-8.2 87.5.3 125.1 24.1z" fill="#89dad3"/><path d="M148 527q.5 0 1 0 .2 40.8.4 81.6.1 18.9.2 37.9.1 16.6.1 33.2.1 8.7.1 17.4L150 842h433l-.2-174.5v-24.7q0-8.3 0-16.5 0-9.6 0-19.1 0-4.9 0-9.8-.1-5.2 0-10.5 0-1.5-.1-3c.1-5.4.4-9.9 2.3-14.9 5.1-4.9 8.8-5.1 15.6-5.1q1.4 0 2.8 0 4.5-.1 9.1-.1 3.3 0 6.5 0 8.9 0 17.8 0 5.6 0 11.1 0 17.4 0 34.8 0 1.9 0 4 0h2q15 0 30.1-.1 17.5 0 35 0 9.3 0 18.5 0 8.7-.1 17.4-.1 3.2 0 6.4 0 4.4 0 8.8 0h2.5c4.9 0 8.4.6 12.6 3.4 2.1 3.2 2.2 4 2.2 7.6q.1 1.4.1 2.9-.1 1.6-.1 3.2v3.4q0 5.6 0 11.2 0 4 0 8 0 8.7 0 17.4 0 12.5 0 25.1 0 20.3 0 40.6-.1 19.8-.1 39.6v2.4q0 6.1 0 12.2 0 50.7-.1 101.4h51v-95c17.4-2.2 30-1.8 45 8 5.5 5.1 9.5 11.4 13 18q.5.9 1 1.8c3.8 7.9 3 20 1 28.2 1.1.1 1.1.1 2.3.3 14.7 2.1 26.6 7.6 35.7 19.7 7.2 10.1 7 23.1 6 35-2.2 11.9-9.2 22.1-19 29-10.4 6.2-20.1 7.4-32 8q.7.7 1.4 1.4c6.6 7.2 10.8 13.6 11.2 23.6-.4 9.3-2.9 16-9.6 22.5-4.5 3.4-8.4 4.9-14 4.9q-1.8 0-3.6 0-1.9 0-3.9 0-2.1 0-4.2 0-5.8 0-11.6 0-6.3 0-12.6 0-11 0-22.1 0-16.4 0-32.8.1-31 0-62 0-24 0-47.9 0-6.9 0-13.8 0H697q-48.1.1-96.3.1-1.8 0-3.7 0-9.2 0-18.4 0h-3.7q-3.7 0-7.4 0-57.6 0-115.2 0-64.6.1-129.3.1-6.9 0-13.7 0-1.7 0-3.5 0-27.3 0-54.6 0-27.5.1-55 0-16.3 0-32.6.1-10.9 0-21.8 0-6.2-.1-12.4 0-5.7 0-11.3 0-3 0-6 0c-8.2-.1-13.7-1.7-20.1-6.8-2.3-2.4-2.3-2.4-3.6-4.7q-.6-1.1-1.3-2.2c-2.3-4.4-2.3-8.5-2.3-13.4q-.1-1.1-.1-2.2c-.1-7.8 2.8-13.2 7.5-19.4q1.1-1.5 2.2-2.9.8-1.1 1.6-2.2-1.3.1-2.7.1c-13.8.3-23.5-2.2-34.3-11.1q0-1 0-2-1 0-2 0c-9-9.2-11.3-20.9-11.3-33.3.1-9.3 2.3-18.4 8.3-25.7l1.5-1.9c8-9.8 17.2-13.9 29.5-16.1q3.5-.1 7 0l-1-2.5c-1.1-4-1.3-7.7-1.3-11.8v-2.3c.1-5.6.8-10.3 3.3-15.4l1.6-3.4c6.4-10.4 15.2-17.6 26.6-21.8 4.8-1 9.2-1.1 14.1-1q1.3 0 2.7 0c6.6.1 6.6.1 10 1.2V527z" fill="#fea200"/><path d="M683 484q1 0 2 0l.4 2.7c2.3 12.9 7.7 22.7 18.6 30.3 4.6 2.6 9.2 4.9 14 7q1 .4 2 .9c6.8 2.6 13.4 2.6 20.7 2.5q1.9 0 3.8-.1c17.6-.3 34.7-4.5 47.7-17.3 7.1-7.9 9.5-15.8 11.8-26 2.1 3.1 2.5 5 3.2 8.6 2.9 12 12.6 20.3 22.7 26.6 9.8 5.7 19.3 8 30.5 7.9h2.6q1.2 0 2.4 0 1.1 0 2.3 0c2.8-.1 5.5-.6 8.3-1.1l-1 221q-1 0-2 0v95h-51l-.1-24.9q-.1-39.5-.2-78.9-.1-6.1-.1-12.2v-2.5q0-19.8-.1-39.5-.1-20.3-.1-40.5-.1-12.5-.1-25.1 0-8.5-.1-17.1 0-4.9 0-9.9 0-5.4 0-10.7v-3.2q-.1-1.4-.1-2.9 0-1.2 0-2.5c0-2.3 0-2.3-1.1-5.1-5-2.3-9.7-2.3-15.1-2.3q-1.4 0-2.8 0-4.5 0-9.1 0-3.2 0-6.5 0-8.9 0-17.7 0-7.4 0-14.8-.1-17.5 0-35 0-18 0-36 0-15.5-.1-31-.1-9.2 0-18.4 0-8.7 0-17.4 0-3.2 0-6.4 0-4.3 0-8.7 0-1.2 0-2.5 0c-5.3 0-8.6.7-12.6 4.5-2.5 5.8-2.3 11.8-2.3 17.9q0 1.7 0 3.3 0 5.5 0 11 0 4 0 8-.1 9.6-.1 19.2 0 11.2-.1 22.3-.1 29.4-.1 58.7L583 842H150l-1.1-148.2q0-8.9 0-17.8 0-16.6 0-33.2 0-19 0-38 .1-38.9.1-77.8 1.5-.1 3.1-.2 2-.1 4-.2 1 0 2-.1c13.9-.8 25.6-7.3 35-17.3 6.3-7.2 7.3-15 8.9-24.2q.5 0 1 0 .2 1.2.4 2.5c1.6 7.9 3.9 13.9 8.6 20.5q1.1 1.6 2.2 3.2c8.8 8.9 19.7 14.8 32.2 15.1 16.5.1 29.7-3.6 42-15.2 6.8-7.1 9.1-13.5 10.6-23.1q1 0 2 0a25.04 25.04 0 0 0 .7 2.6c3.7 12.7 8.6 21.3 20.3 28.2 12.7 6.5 27 8.8 41.1 5.4 13.7-4.5 22.9-12.7 29.7-25.1 2.3-4.8 2.9-8.9 3.2-14.1q1 0 2 0l.2 2.5c1.4 11.6 6 19 14.8 26.5 11.2 8.7 22.9 12.1 37 11 12.6-2.3 24.1-6.5 32-17 4.1-6.9 7.6-14.3 10-22q1 0 2 0l.8 3.1c3.4 12.4 8.6 23.2 20.2 29.9 12.6 6.4 25.3 9.7 39.3 5.9 12.5-4.5 22.4-12.1 28.6-24A109.74 109.74 0 0 0 588 487q.5 0 1 0 .3 1.6.6 3.3c3.4 13.2 10.5 21.8 21.8 29 12.1 7 23.7 8.5 37.5 6.1 10.8-3 22.4-11.8 28.6-21 3.5-6.3 4.4-13.4 5.5-20.4z" fill="#feba00"/><path d="M626.2 109.7c22.4 20 42.7 47.9 50.8 77.3q0 1.5 0 3h3.2q38.3.1 76.7.2 18.5 0 37.1.1 16.1 0 32.3.1 8.5 0 17.1 0 8.1 0 16.1 0 3 .1 5.9 0 4.1 0 8.1.1h2.4c6 .1 9.5 2 13.7 6.1 4.2 5.4 4.6 8.6 4.6 15.3q.1 1.3.1 2.7 0 2.9 0 5.7 0 4.3.1 8.6 0 2.8 0 5.5.1 1.3.1 2.6c0 5.8-1.1 9.2-4.5 14-5.7 4.4-9.9 5.1-16.9 5.1q-1.2 0-2.4 0-4.1 0-8.2 0-2.9 0-5.9 0-7.9 0-15.9 0-8.3 0-16.6 0-15.8 0-31.5 0-17.9 0-35.8 0-36.9-.1-73.8-.1-.1 1.1-.2 2.3-.1 1.4-.3 3l-.2 2.9c-3.4 35.2-22.7 67.4-46.3 92.8q-1.1 1.2-2.2 2.4c-11.8 12.4-26 21.4-40.8 29.6q-1.5.8-3.1 1.7c-12.3 6.5-26.2 11.6-39.9 14.3l-3.9.8c-24.5 4.8-51.9 4-76.1-1.8q-1.3-.3-2.5-.6c-33.3-7.9-64.7-28.2-86.5-54.4q-1.1-1.2-2.3-2.5C357 321.6 342.4 288.1 341 255q-1.5.1-3.1.2c-10.8.7-21.6 1-32.5 1q-2.7 0-5.4 0-7.2 0-14.5 0-4.5 0-9 0-14.2 0-28.4 0-16.3 0-32.7.1-12.6 0-25.3 0-7.5 0-15.1 0-7.1.1-14.2.1-2.6 0-5.2 0-3.5 0-7 0-1.1 0-2.1 0c-5.4-.1-9.4-1.5-13.4-5.1q-.7-.9-1.4-1.8-.7-.9-1.5-1.8c-2.8-4-2.4-8.5-2.4-13.3q-.1-1.2-.1-2.5 0-2.7 0-5.4 0-4.1-.1-8.2 0-2.6 0-5.2-.1-1.2-.1-2.4c0-6.4 1.7-10.6 6.1-15.4 5.3-4.1 9.1-4.4 15.5-4.4q1.3 0 2.6 0 4.2 0 8.5 0 3 0 6 0 8.3 0 16.5 0 8.6 0 17.2 0 16.3 0 32.6 0 18.6 0 37.1 0 38.2.1 76.4.1.3-1.1.6-2.3.4-1.4.8-3 .4-1.4.8-2.9C359.9 142 393 107.5 429 87.1c16.7-9.2 35.1-16 54-19.1q1.9-.3 3.8-.6c50.6-7.4 101.1 9 139.4 42.3z" fill="#0095c5"/><path d="M153.2 419.2q3.3 0 6.6 0 1.9 0 3.8 0 5.1 0 10.3 0 5.6 0 11.2-.1 9.8 0 19.6 0 14.6 0 29.2-.1 27.5-.1 55.1-.1 3.1 0 6.1 0 1.5 0 3.1 0 16.7 0 33.4 0 50.5-.1 101-.1h3.3q8.2 0 16.4 0 3.3 0 6.5 0 1.7 0 3.3 0 51.2 0 102.4-.2 57.5-.2 115-.2 6.1 0 12.2 0 1.5 0 3.1 0 24.3 0 48.6-.1 24.4-.1 48.8 0 14.5 0 29-.1 9.7 0 19.4 0 5.5.1 11 0c21.3-.3 21.3-.3 26.4 3.2 3.6 3.7 5.3 7.8 7 12.6q1.4 2.5 3 4.8 1.3 2.2 2.6 4.3 1.4 2.3 2.8 4.6a25.29 25.29 0 0 0 1.3 2.2q2.8 4.6 5.6 9.2.9 1.5 1.9 3.1c1.7 2.8 1.7 2.8 3.6 5 5.6 6.7 5.1 14.3 4.4 22.7-1 9.6-5 17.6-12.2 24.1q-1.3 1.2-2.7 2.4c-13.2 10.7-27.7 13.2-44.3 11.6-15.5-3-31.3-11.9-40.5-25.1-3-5.2-4.5-10-5.5-15.9q-.4 1.4-.8 2.7c-4.7 14.1-12.3 23.6-25.3 31.1-17 8.4-40.7 11.4-59 5.4-3.1-1.2-6-2.6-8.9-4.2q-1.5-.8-3.1-1.6c-9.8-5.7-18.3-14.4-21.9-25.4-.6-3.7-.9-7.3-1-11q-1 0-2 0c0 1 0 1-.1 2.1-.6 10.9-3.6 19.5-11.9 26.9-13.8 11-26.1 15.8-44 14-9.3-2.2-16.7-7-24-13q-1-.8-2-1.6c-6.3-5.5-11.4-15.1-13-23.4l-.6 2.2c-3.8 12.8-11.2 23.1-22.8 29.7-11.4 6-23.1 8.2-35.8 5.4-2.7-1-5.2-2-7.8-3.3q-1.2-.6-2.4-1.1c-10.6-5.5-18.3-13.5-22.7-24.7-1.3-3.9-1.9-7-1.9-11.2q-1 0-2 0-.3 1.5-.6 3.1c-3.2 12.4-10 23.8-21.1 30.5-11.8 5.8-25.5 8.8-38.5 5.2q-2.4-.8-4.8-1.8-1.2-.5-2.4-.9c-10.7-4.7-20.2-13.8-25.6-24.1-1-3-1.1-5-1.1-8.2q.1-1.3.1-2.7V485q-1 0-2 0 .2 1.8.4 3.7c.1 8.6-5.9 17.6-11.7 23.8-12.3 11.2-25.5 14.6-41.8 13.9-13.3-.9-25.1-7.5-34.2-17.2-4.9-6.3-7.3-13.3-7.7-21.2q-1 0-2 0 0 .9-.1 1.9c-.8 12-6.4 19-15.3 26.8-4.1 3.3-8.7 5.4-13.6 7.3q-1.2.5-2.5 1c-11 3.7-25.5 3.9-36.1-.7-4-2.2-7.8-4.6-11.4-7.3q-1.2-.9-2.5-1.9c-2.7-2.3-4.6-4.6-6.6-7.5q-1-1.3-2-2.7c-3.4-5.1-5.4-10.1-6.9-15.9q-.1 1-.2 2.1c-1.1 7.3-3.1 12.2-7.8 17.9q-.9 1.1-1.9 2.3c-8.2 9-20.3 15.4-32.6 16-15 .3-24.8-2.5-36.1-12.7q-1.2-1.3-2.4-2.6-.7-.8-1.5-1.6c-7.1-8.4-9.7-19.6-9.4-30.5 1.2-7.3 6.8-13 11.2-18.7 2.7-3.6 5-7.4 7.3-11.3 4.9-8.2 10.1-16 15.4-23.9q.7-1.6 1.4-3.2c3-3.2 3.5-3.3 7.8-3.6z" fill="#fef0c6"/><path d="M398.1 563.8q2 0 4 0 1.9 0 3.9 0 15.3-.1 30.6-.1 17 0 34 0 9.4 0 18.9 0 8.7-.1 17.4-.1 3.2 0 6.4 0 4.4 0 8.7 0 1.3 0 2.6 0c4.5 0 7.9.2 11.4 3.4 2.9 5.1 3.4 10.4 3.4 16.2v2.4q0 4 0 7.9 0 2.8 0 5.7 0 7.6 0 15.3 0 6.4 0 12.9.1 15.1 0 30.2 0 15.6.1 31.2 0 13.4 0 26.8 0 8.1 0 16.1 0 7.5 0 15 0 2.8 0 5.5 0 3.8 0 7.6 0 1 0 2.2c0 5.4-1.5 11-5.5 15q-2.7.1-5.3.1-1.8 0-3.6 0-1.9 0-3.9 0-2 .1-4.1.1-5.7 0-11.4 0-6.1 0-12.3 0-14.8 0-29.6 0-7 0-14 .1-23.1 0-46.3 0-6 0-12.1 0-1.4 0-3 0-24.2 0-48.5.1-24.8 0-49.7 0-14 0-28 .1-11.8 0-23.7 0-6.1 0-12.2 0-5.5 0-11.1 0-3 0-5.9 0-1.8 0-3.6 0h-3.1c-3.3-.6-4.5-1.8-6.6-4.5-1.9-5-2.3-9.8-2.3-15.1q0-1.2 0-2.4 0-4 0-7.9 0-2.9 0-5.7 0-7.7 0-15.4 0-6.4 0-12.8 0-15.2 0-30.4 0-15.6 0-31.2-.1-13.5-.1-26.9 0-8 0-16 0-7.6 0-15.1 0-2.8 0-5.5 0-3.8 0-7.6 0-1.1 0-2.2c.1-4.7.9-7.9 3.4-11.8 3.7-2.5 5.6-2.3 10-2.3q1.1 0 2.2 0 3.6-.1 7.3-.1 2.6 0 5.3-.1 7.3 0 14.5-.1 4.7 0 9.4-.1l152.4-.5z" fill="#79d4d4"/><path d="M135.3 745.8q1.3 0 2.7 0c6.6.1 6.6.1 10 1.2v147h727V747c16.4-2.7 28.9-1.2 43 8 5.5 5.1 9.5 11.4 13 18l1 1.8c3.8 7.9 3 20 1 28.2 1.1.1 1.1.1 2.3.3 14.7 2.1 26.6 7.6 35.7 19.7 7.2 10.1 7 23.1 6 35-2.2 11.9-9.2 22.1-19 29-10.4 6.2-20.1 7.4-32 8q.7.7 1.4 1.4c6.6 7.2 10.8 13.6 11.2 23.6-.4 9.3-2.9 16-9.6 22.5-4.5 3.4-8.4 4.9-14 4.9q-1.8 0-3.6 0-1.9 0-3.9 0-2.1 0-4.2 0-5.8 0-11.6 0-6.3 0-12.6 0-11 0-22.1 0-16.4 0-32.8.1-31 0-62 0-24 0-47.9 0-6.9 0-13.8 0H697q-48.1.1-96.3.1-1.8 0-3.7 0-9.2 0-18.4 0h-3.7q-3.7 0-7.4 0-57.6 0-115.2 0-64.6.1-129.3.1-6.9 0-13.7 0-1.7 0-3.5 0-27.3 0-54.6 0-27.5.1-55 0-16.3 0-32.6.1-10.9 0-21.8 0-6.2-.1-12.4 0-5.7 0-11.3 0-3 0-6 0c-8.2-.1-13.7-1.7-20.1-6.8-2.3-2.4-2.3-2.4-3.6-4.7q-.6-1.1-1.3-2.2c-2.3-4.4-2.3-8.5-2.4-13.3q0-1.2 0-2.3c-.1-7.8 2.8-13.2 7.5-19.4q1.1-1.5 2.2-2.9.8-1.1 1.6-2.2-1.3.1-2.7.1c-13.8.3-23.5-2.2-34.3-11.1q0-1 0-2-1 0-2 0c-9-9.2-11.3-20.9-11.3-33.3.1-9.3 2.3-18.4 8.3-25.7q.7-.9 1.5-1.9c8-9.8 17.2-13.9 29.5-16.1q3.5-.1 7 0-.5-1.2-1-2.5c-1.1-4-1.3-7.7-1.3-11.8v-2.3c.1-5.6.8-10.3 3.3-15.4q.8-1.7 1.6-3.4c6.4-10.4 15.2-17.6 26.6-21.8 4.8-1 9.2-1.1 14-1z" fill="#febc00"/><path d="M148 527q.5 0 1 0 .2 40.8.4 81.6.1 18.9.2 37.9.1 16.6.1 33.2.1 8.7.1 17.4L150 842h433l-.2-174.5v-24.7q0-8.3 0-16.5 0-9.6 0-19.1 0-4.9 0-9.8-.1-5.2 0-10.5 0-1.5-.1-3c.1-5.4.4-9.9 2.3-14.9 5.1-4.9 8.8-5.1 15.6-5.1q1.4 0 2.8 0 4.5-.1 9.1-.1 3.3 0 6.5 0 8.9 0 17.8 0 5.6 0 11.1 0 17.4 0 34.8 0 1.9 0 4 0h2q15 0 30.1-.1 17.5 0 35 0 9.3 0 18.5 0 8.7-.1 17.4-.1 3.2 0 6.4 0 4.4 0 8.8 0h2.5c4.9 0 8.4.6 12.6 3.4 2.1 3.2 2.2 4 2.2 7.6q.1 1.4.1 2.9-.1 1.6-.1 3.2v3.4q0 5.6 0 11.2 0 4 0 8 0 8.7 0 17.4 0 12.5 0 25.1 0 20.3 0 40.6-.1 19.8-.1 39.6v2.4q0 6.1 0 12.2 0 50.7-.1 101.4h51v-95q1 0 2 0v147h-82l-1-301-181-1v302H148V527z" fill="#f48600"/><path d="M909 474q.5 0 1 0c.4 14 .6 26.6-9.4 37.6q-1.3 1.2-2.6 2.4-1.3 1.2-2.7 2.4c-13.2 10.7-27.7 13.2-44.3 11.6-15.5-3-31.3-11.9-40.5-25.1-3-5.2-4.5-10-5.5-15.9q-.4 1.4-.8 2.7c-4.7 14.1-12.3 23.6-25.3 31.1-17 8.4-40.7 11.4-59 5.4-3.1-1.2-6-2.6-8.9-4.2q-1.5-.8-3.1-1.6c-9.8-5.7-18.3-14.4-21.9-25.4-.6-3.7-.9-7.3-1-11q-1 0-2 0c0 1 0 1-.1 2.1-.6 10.9-3.6 19.5-11.9 26.9-13.8 11-26.1 15.8-44 14-9.3-2.2-16.7-7-24-13q-1-.8-2-1.6c-6.3-5.5-11.4-15.1-13-23.4l-.6 2.2c-3.8 12.8-11.2 23.1-22.8 29.7-11.4 6-23.1 8.2-35.8 5.4-2.7-1-5.2-2-7.8-3.3q-1.2-.6-2.4-1.1c-10.6-5.5-18.3-13.5-22.7-24.7-1.3-3.9-1.9-7-1.9-11.2q-1 0-2 0-.3 1.5-.6 3.1c-3.2 12.4-10 23.8-21.1 30.5-11.8 5.8-25.5 8.8-38.5 5.2q-2.4-.8-4.8-1.8-1.2-.5-2.4-.9c-10.7-4.7-20.2-13.8-25.6-24.1-1-3-1.1-5-1.1-8.2q.1-1.3.1-2.7V485q-1 0-2 0 .2 1.8.4 3.7c.1 8.6-5.9 17.6-11.7 23.8-12.3 11.2-25.5 14.6-41.8 13.9-13.3-.9-25.1-7.5-34.2-17.2-4.9-6.3-7.3-13.3-7.7-21.2q-1 0-2 0 0 .9-.1 1.9c-.8 12-6.4 19-15.3 26.8-4.1 3.3-8.7 5.4-13.6 7.3q-1.2.5-2.5 1c-11 3.7-25.5 3.9-36.1-.7-4-2.2-7.8-4.6-11.4-7.3q-1.2-.9-2.5-1.9c-2.7-2.3-4.6-4.6-6.6-7.5q-1-1.3-2-2.7c-3.4-5.1-5.4-10.1-6.9-15.9q-.1 1-.2 2.1c-1.1 7.3-3.1 12.2-7.8 17.9q-.9 1.1-1.9 2.3c-8.2 9-20.3 15.4-32.6 16-15 .3-24.8-2.5-36.1-12.7q-1.2-1.3-2.4-2.6-.7-.8-1.5-1.6c-8.4-10.1-9.1-21.9-8.5-34.4 3.1-1 5.1-1.1 8.3-1.1h3.4 3.7 3.9q5.4 0 10.9 0 5.9 0 11.8 0 10.4 0 20.8.1 15.4 0 30.8 0 26 0 52 .1 25.7 0 51.5.1h3.2q8.1 0 16.3 0 57.6.1 115.2.2 55.9 0 111.8.1h3.5q19 0 37.9.1 33.6 0 67.2.1h3.3q48.1 0 96.2.1 4.6 0 9.2 0 27.2.1 54.4.1 10.2 0 20.5 0 5.8.1 11.7.1 25.2 0 50.5 0 0-1 0-2z" fill="#fee9ad"/><path d="M225.5 584.8q1.3-.1 2.7-.1 1.5 0 3 .1 1.5 0 3.1 0 5.2-.1 10.5 0 3.7 0 7.4 0 9 0 18 0 7.3 0 14.6 0L444 586q-1.4 1.7-2.9 3.4l-1.6 1.9c-2.3 2.6-4.8 5-7.3 7.4-1.8 1.9-3.6 3.9-5.3 5.9-4.1 4.7-8.4 9.1-12.9 13.4q-1.2 1.3-2.5 2.6-5.3 5.3-10.7 10.6-3.9 3.9-7.8 7.8c-1.2 1.1-1.2 1.1-2.4 2.4-4.2 4.1-8.1 8.3-11.9 12.7-2.8 3.2-5.9 6.2-8.9 9.2q-1 1-2 2-4.2 4.1-8.4 8.3-3.1 3.1-6.2 6.1-.9.9-1.9 1.9a195.91 195.91 0 0 0-10.7 11.6c-1.8 2.1-3.7 4-5.6 5.9q-1.1 1-2.1 2-1 1.1-2.1 2.1c-4.2 4.1-8.2 8.2-11.8 12.8q-2.5 2.5-5 5-1.7 1.6-3.3 3.3-.9.8-1.8 1.7c-4.9 4.9-9.7 9.8-14.2 15.1-2.8 3.2-5.9 6.1-8.9 9-1.9 1.8-1.9 1.8-2.8 3.9q1.6 0 3.2 0 21.3-.3 42.5-.5 1.7 0 3.5 0 46.4-.5 92.7-.6h4l86.1.1V586q1 0 2 0 .1 32.6.1 65.2 0 15.2.1 30.3 0 13.2 0 26.4 0 7 0 14 0 6.5 0 13.1 0 2.4 0 4.8.1 3.3 0 6.6v3.7c-.2 2.9-.2 2.9-2.2 4.9-2.1.3-2.1.3-4.8.3H507q-1.7 0-3.4 0-1.8 0-3.7 0-5 0-10 0-5.4 0-10.9 0-10.6 0-21.2 0-8.6 0-17.3 0h-2.4q-2.5 0-5 0-23.4 0-46.8 0-20.1-.1-40.1 0-23.3 0-46.6 0-2.5 0-5 0-1.2 0-2.5 0-8.6 0-17.2 0-10.5 0-21 0-5.4 0-10.7 0-5.8 0-11.7 0-1.7 0-3.4 0-1.5 0-3.1 0-1.4 0-2.7 0c-2.3-.3-2.3-.3-5.3-2.3-.4-2.8-.4-2.8-.4-6.5q0-1.1 0-2.1 0-3.4.1-6.9 0-2.4 0-4.9 0-6.6 0-13.3 0-7 0-14 0-13.2.1-26.4 0-15 0-30 .1-31 .2-61.9c3-1.7 5.1-2.2 8.5-2.2z" fill="#8bd7d6"/><path d="M398.1 563.8q2 0 4 0 1.9 0 3.9 0 15.3-.1 30.6-.1 17 0 34 0 9.4 0 18.9 0 8.7-.1 17.4-.1 3.2 0 6.4 0 4.4 0 8.7 0 1.3 0 2.6 0c4.5 0 7.9.2 11.4 3.4 2.9 5.1 3.4 10.4 3.4 16.2v2.4q0 4 0 7.9 0 2.8 0 5.7 0 7.6 0 15.3 0 6.4 0 12.9.1 15.1 0 30.2 0 15.6.1 31.2 0 13.4 0 26.8 0 8.1 0 16.1 0 7.5 0 15 0 2.8 0 5.5 0 3.8 0 7.6 0 1 0 2.2c0 5.4-1.5 11-5.5 15q-2.7.1-5.3.1-1.8 0-3.6 0-1.9 0-3.9 0-2 .1-4.1.1-5.7 0-11.4 0-6.1 0-12.3 0-14.8 0-29.6 0-7 0-14 .1-23.1 0-46.3 0-6 0-12.1 0-1.4 0-3 0-24.2 0-48.5.1-24.8 0-49.7 0-14 0-28 .1-11.8 0-23.7 0-6.1 0-12.2 0-5.5 0-11.1 0-3 0-5.9 0-1.8 0-3.6 0h-3.1c-3.3-.6-4.5-1.8-6.6-4.5-1.9-5-2.3-9.8-2.3-15.1q0-1.2 0-2.4 0-4 0-7.9 0-2.9 0-5.7 0-7.7 0-15.4 0-6.4 0-12.8 0-15.2 0-30.4 0-15.6 0-31.2-.1-13.5-.1-26.9 0-8 0-16 0-7.6 0-15.1 0-2.8 0-5.5 0-3.8 0-7.6 0-1.1 0-2.2c.1-4.7.9-7.9 3.4-11.8 3.7-2.5 5.6-2.3 10-2.3q1.1 0 2.2 0 3.6-.1 7.3-.1 2.6 0 5.3-.1 7.3 0 14.5-.1 4.7 0 9.4-.1l152.4-.5zM217 587q-.1 32.4-.2 64.8 0 15.1 0 30.1-.1 13.1-.1 26.3 0 6.9 0 13.8 0 6.6 0 13.1 0 2.4-.1 4.8 0 3.3 0 6.6 0 1.8 0 3.7.2 1.4.4 2.8c3.3 2.2 4.2 2.3 8 2.3q1.5 0 3.1 0 1.7 0 3.4 0 1.8 0 3.7 0 5 0 10.1 0 5.4 0 10.8 0 10.6 0 21.2 0 8.7 0 17.3 0 1.2 0 2.5 0 2.5 0 5 0 23.3 0 46.7 0 20.1-.1 40.2 0 23.3 0 46.6 0 2.5 0 4.9 0 1.2 0 2.5 0 8.6 0 17.2 0 10.5 0 21.1 0 5.3 0 10.7 0 5.8 0 11.6 0 1.7 0 3.4 0 1.6 0 3.2 0 1.3 0 2.7 0c2.3-.1 2.3-.1 4.1-2.3.3-3 .3-3 .2-6.6.1-1 .1-1 .1-2q0-3.5-.1-6.9 0-2.5 0-5 .1-6.7 0-13.4 0-7 0-14 0-11.8 0-23.5 0-13.7 0-27.3 0-13.1 0-26.2 0-5.5 0-11.1 0-6.6-.1-13.2 0-2.4 0-4.8 0-3.3 0-6.6 0-1.8 0-3.7c.2-2.6.2-2.6-1.1-3.7q-2.4-.1-4.7-.1-1.6 0-3.1 0h-3.5q-1.8 0-3.6 0-5.1 0-10.1 0-5.4 0-10.8-.1-10.7 0-21.3 0-8.6 0-17.2 0-24.5 0-48.9 0-1.3 0-2.7 0-1.3 0-2.7 0-21.4 0-42.8 0-21.9 0-43.9 0-12.3 0-24.7 0-10.5-.1-21 0-5.3 0-10.7-.1-5.8 0-11.6.1c-1.7-.1-1.7-.1-3.5-.1-1.5 0-1.5 0-3.1.1q-1.3 0-2.7 0c-2.6.2-4.2.9-6.4 2.2z" fill="#0194c6"/><path d="M346 189l2 3q-1 0-2 0-1.6 9-3 18c-.2 1-.2 1-.3 2.1-2.3 14.2-1.9 28.5-1.7 42.9-11.9.8-23.7 1.2-35.6 1.2q-2.7 0-5.4 0-7.2 0-14.5 0-4.5 0-9 0-14.2 0-28.4 0-16.3 0-32.7.1-12.6 0-25.3 0-7.5 0-15.1 0-7.1.1-14.2.1-2.6 0-5.2 0-3.5 0-7 0-1.1 0-2.1 0c-5.4-.1-9.4-1.5-13.4-5.1q-.7-.9-1.4-1.8-.7-.9-1.5-1.8c-2.8-4-2.4-8.5-2.4-13.3q-.1-1.2-.1-2.5 0-2.7 0-5.4 0-4.1-.1-8.2 0-2.6 0-5.2-.1-1.2-.1-2.4c0-6.4 1.7-10.6 6.1-15.4 5.3-4.1 9.1-4.4 15.5-4.4q1.3 0 2.6 0 4.2 0 8.5 0 3 0 6 0 8.3 0 16.5 0 8.6 0 17.2 0 16.3 0 32.6 0 18.6 0 37.1 0 38.2.1 76.4.1 0-1 0-2z" fill="#039bd5"/><path d="M675 184c2 3 2 3 2 6h3.2q38.3.1 76.7.2 18.5 0 37.1.1 16.1 0 32.3.1 8.5 0 17.1 0 8.1 0 16.1 0 3 .1 5.9 0 4.1 0 8.1.1h2.4c6 .1 9.5 2 13.7 6.1 4.2 5.4 4.6 8.6 4.6 15.3q.1 1.3.1 2.7 0 2.9 0 5.7 0 4.3.1 8.6 0 2.8 0 5.5.1 1.3.1 2.6c0 5.8-1.1 9.2-4.5 14-5.6 4.3-9.7 5.1-16.6 5.1H871q-3.9 0-7.9 0-2.8 0-5.6 0-7.7 0-15.4 0-8 0-16 0-13.5 0-27 0-15.6 0-31.2 0-13.4 0-26.8 0-8 0-16 0-7.5 0-15 0-2.8 0-5.6 0-3.7 0-7.5 0h-2.2c-4 0-7.8-.3-11.8-1.1q0-1.3 0-2.6c.3-17 .4-33.6-3-50.4q-.2-1.2-.5-2.5-.2-1.2-.5-2.5-.2-1.1-.4-2.3c-.3-.8-.3-.8-.6-1.7q-1-.5-2-1c-.6-2.6-.7-5.3-1-8z" fill="#049cd5"/><path d="M217 587h153c-4.6 5.3-9.1 10.2-14.1 15.1-2.1 2-4 4.2-5.9 6.4-4.8 5.5-10 10.6-15.2 15.8q-1.6 1.6-3.3 3.2-4.2 4.3-8.4 8.5-4.3 4.3-8.6 8.5-7.5 7.6-15.1 15.1-1.2 1.2-2.4 2.4-1.3 1.3-2.6 2.6a221.38 221.38 0 0 0-6.7 7c-9.7 10.6-19.9 20.7-30.2 30.8q-1.9 1.9-3.8 3.8-.9.9-1.8 1.8c-3.8 3.8-7.3 7.6-10.7 11.8q-.6.6-1.2 1.2-1 0-2 0-.4 1-.8 1.9C236 725 236 725 233 726q0 1 0 2c-1.5 1.5-1.5 1.5-3.6 3.2-2.9 2.4-5.4 4.9-7.8 7.7q-1.3 1.5-2.6 3.1-.5 0-1 0l-1-155z" fill="#79d4d3"/><path d="M918 755c5.5 5.1 9.5 11.4 13 18q.5.9 1 1.8c3.8 7.9 3 20 1 28.2q1.1.1 2.3.3c14.7 2.1 26.6 7.6 35.7 19.7 7.2 10.1 7 23.1 6 35-2.2 11.9-9.2 22.1-19 29-25 15-54.3 6.4-83 6V747c16.4-2.7 28.9-1.2 43 8zm-782.7-9.2q1.3 0 2.7 0c6.6.1 6.6.1 10 1.2v147c-73.6 0-73.6 0-83.7-7.1q-1.5-1-3.1-2.1L59 883q0-1 0-2-1 0-2 0c-9-9.2-11.3-20.9-11.3-33.3.1-9.3 2.3-18.4 8.3-25.7q.7-.9 1.5-1.9c8-9.8 17.2-13.9 29.5-16.1q3.5-.1 7 0-.5-1.2-1-2.5c-1.1-4-1.3-7.7-1.3-11.8v-2.3c.1-5.6.8-10.3 3.3-15.4q.8-1.7 1.6-3.4c6.4-10.4 15.2-17.6 26.6-21.8 4.8-1 9.2-1.1 14-1z" fill="#64b500"/><path d="M437 112c5.1-.8 7.7.1 12 3.1 5.7 4.3 10.5 9.1 15.1 14.6 8.3 9.5 18.1 17.5 28.2 25q2.6 2 5.1 4.1c5.9 4.6 11.7 9 18 13 5.2 3.2 9.5 6.6 13.6 11.2q2.5 2.5 5 5 1.2 1.2 2.4 2.5c7 7.4 7 7.4 15.6 12.5 2.9-.1 4.6-.8 7.2-2 7-2.4 16.3-2.1 23 1 8.5 4.8 15.1 11.4 18.3 20.8 1.5 6.2 1.8 12.1.8 18.3-.6 5.5.5 9.4 3.7 13.9 4 3.8 8.4 6.9 13 10 .5 2.7.2 5.2 0 8-1 1-1 1-3.9 1.2-5.1 0-9.9-1.6-14.8-3q-1.4-.4-2.8-.8c-7-2-7-2-9.5-4-2.4-1.7-3.4-1.7-6.3-1.6q-1.2 0-2.4 0-1.3.1-2.5.1c-10.5.4-18.7-.8-26.8-7.9-6.7-7.6-8.8-14.1-9.4-23.9-.5-7.3-2.2-12.6-7.3-17.9-8.4-5.6-15.9-6.9-25.8-7.8-3.5-.4-3.5-.4-4.5-1.4.1-7.8 2.7-12.6 7-19l2-3q-3.1 1.7-6.2 3.3c-1.8.9-1.8.9-3.6 1.9-3.1 1.7-3.1 1.7-5.5 3.5-1.7 1.3-1.7 1.3-3.8 1.2-4.4-2.1-5.9-7-7.8-11.2-5.2-10.8-13.3-19.6-21.2-28.5-26.4-30.6-26.4-30.6-25.9-42.2z" fill="#fbc603"/><path d="M484 193c2.6 1.8 4.7 4 6.9 6.3q.9.8 1.8 1.7.9.9 1.7 1.8.8.7 1.6 1.6c1 1.6 1 1.6.7 3.7-.9 2.3-2 3.5-3.8 5.2q-.9.9-1.8 1.8-4.2 3.8-8.5 7.5-1.3 1.2-2.6 2.4-.2 2.9-.3 5.9c-.9 11.7-4.9 20.9-13.6 28.9-6.8 5.4-13.4 8-22.1 7.2q-1.5-.1-3-.3c-8.1-1-8.1-1-11.8-3.8q-1.1-1.4-2.2-2.9-1.8-1.9-3.6-3.8c-7.1-8.3-8.8-15.9-8.7-26.7.4-4.7 1.5-7.7 4.3-11.5q.7-1 1.5-2.1c4.9-6.3 11-9.4 18.5-11.9q2.9 0 5.8.2l3.6.2q3.6.1 7.3.3c6.9.2 10.7-.3 16-5.1q2.2-2.3 4.3-4.6c3.3-2.2 4.1-2.7 8-2z" fill="#fbc604"/><path d="M522 312c2.2 2.2 4.1 4.6 6 7 3.1 3.6 6.2 7.2 9.6 10.6 6.5 6.5 12.4 13.1 12.9 22.8-.3 6.1-2 12.6-6 17.4-4.4 3.9-8.9 4.6-14.7 4.6-3.6-.5-6.6-2-9.8-3.5-5.2-2.4-8.4-3.7-13.9-1.8q-1 .4-2.1.9c-13.1 5.4-13.1 5.4-21.2 2.8-4.8-2-6.9-4.8-9.1-9.5-1.9-8.5-.9-14.5 3.3-22.2 3.8-5.9 8.3-10.9 13-16.1q.9-1 1.8-2 2.8-3.1 5.6-6.2.9-1 1.8-2 .9-.9 1.7-1.9.8-.8 1.5-1.6c5.5-4.5 14.2-2.9 19.6.7z" fill="#fdc501"/><path d="M822 842h51v51h-51v-51z" fill="#fa9100"/><path d="M581 107l2 2c-.2 5.5-2.6 9-5.6 13.3q-.7 1-1.4 2a224.82 224.82 0 0 1-11 14.7c-5.9 7.3-11.8 14.6-17.3 22.3q-.6.8-1.2 1.7-2.9 4.1-5.7 8.3c-1.1 1.5-1.1 1.5-2.1 3-.9 1.3-.9 1.3-1.8 2.7-2.3 2.4-3.7 2.7-6.9 3q-.5-.8-1-1.6c-3.4-5-6.5-7.7-12.1-10.1-1.9-1.3-1.9-1.3-3-3.6.1-3.9 2.3-5.8 4.9-8.5q.8-.8 1.5-1.6c3.8-3.8 7.7-7.1 12-10.3 4.1-3.5 7.9-7.4 11.7-11.2 3.5-3.7 7.2-7.2 11.1-10.5a199.83 199.83 0 0 0 6.8-6.2C574.7 105 574.7 105 581 107z" fill="#fbc603"/><path d="M497 259c3.2 1.7 5.4 3.4 8 6 2.1-.3 2.1-.3 4-1q-1 .5-2 1l1 3q1.5-.5 3-1 0-1 0-2 3 1 6 2l-.5 2.1c-1.7 9.3-1.1 18.5 3.5 26.9 2.5 3.2 5.1 4.7 9 6 3.8 0 5.8-.9 9-3 2.2-2.4 2.2-2.4 4-5q.9-1.1 1.8-2.3.6-.8 1.2-1.7c-.5 4.9-1.7 7.4-5 11q2 0 4 0 0-1.5 0-3 2.5-.5 5-1-.6.7-1.2 1.4-.8.9-1.7 1.9-.8.9-1.6 1.8c-3.8 4.8-3.7 8.2-3 14.2.7 3.7 1.9 5.9 4.5 8.7 3.1 1.9 3.1 1.9 6 3-3.7 1.2-7.1 1.6-11 2q.5 1.5 1 3 1 0 2 0 .5 2 1 4c-8.1-6.6-15.3-14.2-21.7-22.4-2.9-3.3-4.9-4.4-9.2-4.8-5.1-.2-9.1.5-13.1 3.9-.9 1.1-.9 1.1-1.9 2.1q-1 1.1-2.1 2.3-1 1.1-2.1 2.3-2.2 2.3-4.3 4.7-.9 1-1.9 2-2.3 2.5-4.7 4.9 0-1 0-2-1 0-2 0 0-1 0-2l-6 1q0 1 0 2-1.5 0-3 0c1.2-3.7 3.3-5.3 6-8 2.9-4.7 2.5-9.7 2-15-1.6-5.4-4.9-7.7-9.4-10.8q-.8-.6-1.6-1.2 0-.5 0-1 3 0 6 0 0 1.5 0 3 1 .5 2 1l-1-7a37.11 37.11 0 0 1 4.9 5.6c2.4 2.7 3.6 3.6 7.1 4.4 5.1-.1 8.8-.6 12.7-4.2 4.3-5.8 6-13.2 5.7-20.4-.9-5.6-2.9-10-7-13.9-4.2-2.6-7.5-2.9-12.4-2.5-2.9.9-2.9.9-5 2q0-1 0-2c4.6-2.6 8.9-2.7 14-2z" fill="#0393c8"/><path d="M461 221c3.7 3.5 5 7 6 12-.2 5.7-2.5 11.3-6.4 15.6-4.1 3.5-7.6 5.2-12.9 5.7-6.1-.5-10.7-1.9-15-6.4-3.7-4.8-5.8-10-5.6-16.1 2-6.3 4.4-10 9.9-13.8 9.3-3.5 15.8-2.2 24 3z" fill="#0194c7"/><path d="M758.3 727.9c5 3 8.8 6.4 10.7 12.1.9 8 .6 13.7-4.3 20.2-4.6 4.8-8.1 5.6-14.6 6.1-4.7-.1-7.3-1.6-11.1-4.3-5.4-6-5.6-11.2-5.4-18.9.3-5.5 2.5-9.3 6.4-13.1 5.2-3.9 12.2-4.6 18.3-2.1z" fill="#ec7100"/><path d="M578.4 214.2c5 3.4 8.5 7 10.6 12.8-.2 3.3-.2 3.3-1 7q-.1 1.1-.2 2.2c-.9 6-3.2 8.7-7.9 12.5-4.4 3.1-8.7 2.7-13.9 2.3-5.2-1.8-7.9-4.6-11-9-2.5-6.3-2.7-12.3-2-19 1.9-4.4 4.5-7.1 8.9-9.3 5.5-1.8 11.1-1.4 16.5.5z" fill="#0194c7"/><path d="M496 260c5.8 3.2 9.2 6.4 11.4 12.7 2.1 8.2.5 15.9-3.4 23.3-3 3.9-6.2 6.2-11.1 7.1-4.3-.1-6.3-.7-9.9-3.1-6.4-6.7-6.7-13.9-6.4-22.7.3-5.7 2.5-10.2 6.4-14.3 4.2-3 7.9-3.9 13-3z" fill="#fcc503"/><path d="M534 260c5.1 2.6 8 5.4 10.1 10.7 2.3 8.3 1.9 17.6-2.1 25.3-2.9 3.5-5.5 5.9-10 7-4.9 0-7.9-1.8-11.4-5-5.3-6.5-6.3-14.7-6.1-22.9.9-5.9 3.4-10.2 7.8-14.2 3.9-1.3 7.5-1.6 11.7-.9zm-60 38c4.2 2.8 6.3 5.2 8 10 .7 5.9.8 11.5-2.6 16.5-3.7 4-7.6 6.2-13 7-6.7-1-11-3.4-15.4-8.5-4.3-6.3-4.8-12.5-4-20 1.8-4.1 3.3-5.6 7.1-7.9 6.7-2.5 14-.8 19.9 2.9z" fill="#fbc503"/><path d="M572.2 294c4 3.8 4.3 8.1 4.5 13.4-.2 5.9-.9 9.7-4.9 14q-.9.8-1.8 1.6-.8.8-1.6 1.6c-4.1 3.5-8.3 4.4-13.7 4.7-5.5-.6-9-3.4-12.6-7.4-2.2-5.8-3.2-11.5-.6-17.2 7.9-8.5 18.5-16.5 30.7-10.7z" fill="#fcc503"/></svg>