<svg xmlns="http://www.w3.org/2000/svg" width="1024" height="1024" fill-rule="evenodd" xmlns:v="https://vecta.io/nano"><path d="M345.5 132.5q13.5-2.6 20.5 9 74.8 133.8 152 266 14.1 39.3 20.5 80.5 56.3 25 112.5 50.5 60.1-70 147.5-39.5 68.1 33.4 71 109.5-3.8 74.9-71 107.5-67.1 26.6-125-16-48.4-42.4-43-106.5-52.8-23.3-106-44.5-4.3 3.3-8.5 6.5-1 48 0 96 61.1 16.6 86 75 21.2 62.2-16 116-41.1 49.2-105.5 45.5-76.7-9.7-102.5-82.5-20.9-81.4 44.5-133.5 14.8-10 31.5-16.5 1-47.5 0-95-.7-2.1-2.5-3.5-19.9-14.4-39-30-20.8-20.3-40.5-41.5-91.6-112.1-182-225-10.7-12.6-3-27 12.4-9.7 25.5-.5 94 70.5 185.5 144.5-31.9-110.6-62-222-4.2-15.5 9.5-23zm337.5 459q-7.9 40.3 22.5 67.5 43.6 32.4 88 1 34.7-32.2 20.5-77.5-22.4-45.6-73.5-43-42.7 10.4-57.5 52zM452.5 712q-41 32.5-24.5 82.5 20.7 47.7 72.5 42.5 63.1-15.6 57.5-80.5-16.7-59.5-78.5-56-14.4 3.2-27 11.5zM466 489.5q-5.4 15.1 6.5 25.5 22.4 8.9 30.5-13.5-1.2-22-23.5-22-8.2 2.9-13.5 10z" fill="#33c0e8"/><path d="M636.5 104.5q19.9-2 37 8.5 84.8 61.1 169 123 15.2 16.1 4.5 35.5-10.2 13.1-26.5 9.5-65.3-44.9-129-92-15-8.2-26.5 4.5-5.2 13.4 5.5 22.5 55.5 39.5 111 79 10.4 8.1 20.5 16.5 7.4 18-6.5 31.5-9.4 6.3-20 3-6.4-2.9-12-7-60.9-46-124-89-26.8-3.7-21.5 22.5 66.8 51 135.5 99.5 11.2 14.6 1.5 30.5-13.5 14.3-30.5 4.5-63.6-47.1-128-93-28.1-2.5-20.5 24.5 2.3 2.3 4.5 4.5 66.7 48.2 132.5 97.5 8.8 23.2-13.5 33.5-10.8 2.1-20-4-62.4-44.9-124-91-8.7-6.3-18-1-7.4 8.1-13 17.5-23.9-41.9-49-83 67.1-95.7 133.5-192 11.5-12.1 27.5-16zm-283 378q16.5 16.3 31.5 34 14 14.5 29 28 .8 2.7-1 5-82 121-164 242-27.7 29.4-63.5 10.5-33.8-24.3-17.5-62.5 93.7-127.9 185.5-257z" fill="#feda0e"/></svg>