<svg xmlns="http://www.w3.org/2000/svg" width="1024" height="1024" xmlns:v="https://vecta.io/nano"><path fill-rule="evenodd" d="M301.3 57.8C313.9 63.6 318 71.9 323 85v46h378c0-27.8-5.4-41.9 7-62 6.5-7.6 13.7-12.5 23.7-13.3 12.2-.2 20.3 2.2 29.4 10.4 7.5 7.6 10.2 17.4 10.2 27.9q0 1.4 0 2.8 0 4.6-.1 9.2 0 3.2 0 6.3-.1 7.4-.2 14.7v4q17.2-.1 34.4-.1 8.8 0 17.6 0 8.5-.1 17.1-.1 3.3 0 6.6 0 4.7 0 9.4 0 1.5 0 2.9 0c18.3-.2 36.3 6.7 49.7 19.5 18 19 20.8 39 20.7 64.2q0 4.9 0 9.8 0 8.6 0 17.3 0 12.9 0 25.8 0 21.8 0 43.5-.1 21.7-.1 43.3v2.7q0 5.5 0 11 0 49.7 0 99.5-.1 47.1-.1 94.1 0 1.5 0 3 0 5.8 0 11.7 0 2.9 0 5.8 0 2.9 0 5.8 0 46.4 0 92.8 0 13.5 0 27.1 0 28.6 0 57.2 0 11.9 0 23.7 0 9.9-.1 19.8 0 4 0 8.1 0 5.5 0 11.1 0 1.7 0 3.3c.1 26.5-9 50.7-27.5 69.9-25.9 24.5-52.9 31.8-87.9 31.7q-4.9 0-9.8 0-8.6 0-17.2 0-12.9 0-25.7 0-23 0-46 0-20.3 0-40.5 0-1.4 0-2.7 0-5.5 0-10.9 0-51.1 0-102.2 0-45.4-.1-90.9-.1-11.6 0-23.3.1-1.4 0-2.9 0-38.1 0-76.2-.1-4.1 0-8.2 0-2.7 0-5.4 0-20.2 0-40.5 0-23.1 0-46.2 0-13 0-25.9 0-8.7 0-17.5 0-4 0-8 0c-17.5 0-35.6.6-52.2-5.8q-1-.5-2-.9c-15.2-6.3-33.6-17-41.7-32q-.4-.9-.8-1.7-1 0-2 0c-5.1-7.7-9.6-15.5-13-24.1q-.4-1.2-.9-2.4c-5.1-13.2-5.4-26.7-5.4-40.7q0-2.9 0-5.8 0-8 0-16.1 0-8.8 0-17.5-.1-16.3-.1-32.6 0-16.3 0-32.6 0-1.1 0-2.1-.1-5.2-.1-10.4 0-36.9-.1-73.8 0-35.4-.1-70.7 0-2.2 0-4.4 0-9.7 0-19.5-.1-56-.2-112 0-1.1 0-2.1 0-18 0-36.1-.1-45.8-.2-91.7 0-16.9-.1-33.8 0-12.4 0-24.9-.1-8.1-.1-16.2 0-3.6 0-7.3c-.2-24.8 2.2-45.7 20.3-64.2 17.2-16.5 36.8-20.6 59.7-20.4q3.2 0 6.4 0 8.5 0 16.9.1 8.7.1 17.4.1 17 .1 34 .2 1.8 0 3.6 0-.1-8.4-.1-16.8 0-3.4 0-6.8-.1-5.1-.1-10.1 0-1.6 0-3.2 0-4.4 0-8.7c.6-7.7 5.2-15.5 10.7-20.8q1.3-.8 2.5-1.6c10.2-7.6 23.2-9.6 35.3-5.2z" fill="#fefee4"/><path d="M308.7 61.9c7.9 6.6 11.1 13.5 14.3 23.1v46h378V85c4.5-12.4 9.3-21.7 21.6-27.5 7.7-2.7 17.1-3 24.8-.3C758.3 62.7 766 69.1 770 81c.8 3.3 1.1 6.3 1.1 9.7q0 1.3 0 2.7 0 1.5 0 2.9 0 1.5 0 3 0 4.8 0 9.5 0 3.2-.1 6.4 0 7.9 0 15.8 1.8 0 3.6 0 17.1-.1 34.1-.2 8.8 0 17.5 0 8.5-.1 16.9-.1 3.3 0 6.5 0c21.6-.2 21.6-.2 31.4 3.3q1.2.4 2.3.8c2 .7 3.9 1.5 5.8 2.4q1 .4 2.1.9c6 2.8 10.9 6.4 15.8 10.9q1.1 1 2.2 2c12.1 11.5 18.9 27.1 20 43.8q.1 4.3.1 8.7v3.3q0 5.6 0 11.1 0 4 0 8 0 8.8 0 17.5 0 13 0 26 0 24.5 0 49 0 19 0 37.9 0 2.8 0 5.5 0 4.1 0 8.2 0 38.2 0 76.3 0 1.5 0 2.9 0 7.3 0 14.6 0 1.4 0 2.9 0 3 0 5.9 0 45.5 0 91.1.1 51.2.1 102.4 0 5.4 0 10.9 0 1.3 0 2.7 0 20.3 0 40.6 0 23 0 46.1 0 12.9 0 25.8 0 8.6 0 17.3 0 4.9 0 9.8c.1 32.6-7.2 60-30.3 84-5 4.8-10.4 8.9-16.1 12.7q-1.2.8-2.4 1.6c-21.6 13.9-45.7 15-70.7 14.9q-4 0-8 0-8.7 0-17.5 0-12.9 0-25.9 0-23.1 0-46.2 0-20.3 0-40.5 0h-2.7q-5.5 0-11 0-51.1 0-102.3 0-45.5-.1-90.9-.1-11.6 0-23.3.1-1.4 0-2.9 0-38 0-76-.1-4.1 0-8.2 0-2.7 0-5.4 0-20.2 0-40.5 0-23 0-46 0-12.8 0-25.7 0-8.6 0-17.2 0-4.9 0-9.8 0c-34.4.1-34.4.1-50.1-6.5q-1.2-.5-2.3-.9c-14.9-6.3-31.2-17.6-40.5-31q0-1 0-2-1 0-2 0c-1.5-2.2-2.9-4.3-4.2-6.6-.7-1-.7-1-1.3-2-9-15.6-13.7-32.1-13.6-50q0-1.3 0-2.5-.1-4.2-.1-8.3 0-3 0-6 0-8.3 0-16.5 0-8.9 0-17.8-.1-15.5-.1-31 0-16.4 0-32.7 0-1.1-.1-2.1 0-4.2 0-8.3 0-38.1-.1-76.1-.1-34.3-.1-68.7 0-3.2 0-6.5-.1-9.7-.1-19.5 0-5.4 0-10.8 0-1 0-2.1-.1-48.6-.2-97.1 0-3.1 0-6.1 0-18 0-36-.1-45.3-.2-90.6-.1-16.7-.1-33.4-.1-12.3-.1-24.6-.1-8.8-.1-17.7 0-3.5 0-7c-.2-15.5.6-30.2 8-44.3q.5-.9 1-1.9c9-16.6 24.7-27.1 42.4-32.8 6.4-1.8 12.4-2.3 19-2.2q1.4 0 2.9 0 4.7 0 9.4 0 3.3 0 6.6 0 8.6 0 17.1.1 8.8 0 17.6 0 17.2 0 34.4.1 0-.9 0-1.8-.2-9.1-.2-18.2 0-3.3-.1-6.7-.1-4.9-.1-9.8 0-1.5-.1-3c0-9.6 2.9-18.4 9.5-25.5 13.2-11.6 31.8-14.6 46.7-4.1zM114 272l-.2 282.1-.1 89.1v52.6q0 18.8 0 37.6 0 19.1 0 38.3 0 10.4-.1 20.8 0 9.4 0 18.8 0 3.3 0 6.7c-.1 27.9 5.7 51.8 25.7 72.4 15.8 14.9 35.4 22.9 57.1 22.9q1.6 0 3.3 0 5.6 0 11.2 0 4 0 8 0 8.8 0 17.5 0 13.1 0 26.1 0 24.6 0 49.2 0 19.1 0 38.1 0 2.7 0 5.5 0 4.1 0 8.2 0 38.3 0 76.6 0 1.4 0 2.9 0 7.3 0 14.6 0 1.5 0 3 0 2.9 0 5.8 0 45.7 0 91.5 0 51.3.1 102.7.1 5.5 0 10.9 0 1.4 0 2.8 0 20.3 0 40.7 0 23.1 0 46.3 0 12.9 0 25.9 0 8.6 0 17.3 0 4.9 0 9.8 0c26.4.1 48.2-3.4 68.7-21.4q1.1-1 2.3-2c6.6-6.2 11.1-13.3 15.7-21 .6-1.1.6-1.1 1.3-2.2 6.2-11.4 7.9-23.9 7.8-36.7q0-1.4 0-2.9 0-4.9 0-9.7 0-3.5 0-7.1 0-8.6 0-17.3 0-10.5 0-21 0-19.4 0-38.7 0-26.1 0-52.2 0-62.9 0-125.7L910 272H114z" fill="#1ea0bc"/><path d="M631 355q1.2.6 2.5 1.2c18 9.6 28.4 27.7 34.8 46.5 3.8 17 1.7 35.3-6.6 50.8-3.5 5.4-7.7 10.3-11.8 15.2-4.7 5.7-3.5 14.3-2.9 21.3.8 3.4 2.1 6 4 9q.6 1.1 1.3 2.3c5.8 9.6 14.8 15.7 25.6 18.5 11.9.9 21.3-.7 31.1-7.8q1.5-1.1 3.1-2.2c7.1-6.1 11.4-16 12.2-25.2.2-10.4-1.5-17.1-7.3-25.6-11.9-17.6-17.9-33.5-14-55 3.1-12.7 9.1-24.4 18-34l1.6-1.8c10.7-11.9 27.9-20 43.7-21.4q3.4-.1 6.9-.1 1.2 0 2.5 0c19.4.4 36.4 7.9 50.5 21 14.7 15.7 21.6 36.2 21.1 57.4-.9 18.6-10.7 37.5-24.2 50.2-12.9 10.5-29.1 18.3-46.1 18.8-8 .2-12.5 2.1-18 7.9-8 9.2-12.7 20-12.3 32.2.3 2.8.3 2.8.8 5.6.6 3.8.8 7.5.8 11.3q.1 1 .1 2.1c0 3.5-.3 5.6-2.2 8.7-4.3 4.1-7.9 4.4-13.6 4.4q-1.2 0-2.3 0-2.4 0-4.8 0-3.9 0-7.7 0-10.9.1-21.7.1-6.7 0-13.4 0-2.5.1-5 .1-3.6-.1-7.1 0-1.1 0-2.1 0c-4.8 0-7.2 1.2-10.5 4.5-1.7 3.5-1.4 7.2-1 11 1.3 3.2 2.1 4.5 5.2 6.1 3.3 1.1 6.2 1.2 9.7 1.2q1 0 2 0 2.2 0 4.4 0 3.4 0 6.9 0 9.8.1 19.6.2 6.1 0 12.1 0 2.3.1 4.5.1 3.3 0 6.5 0h3.6c4.6.5 8.7 1.8 12.2 4.9 4.5 6 5 10.1 4.3 17.5-2.3 4.9-5.3 7.3-10 10-3.5.5-3.5.5-7.4.5q-1 0-2.1 0-2.3 0-4.7 0-3.6 0-7.3 0-6.4.1-12.9.1-10.3 0-20.6 0-3.6 0-7.2 0-2.2 0-4.4 0-1.9 0-3.9 0c-3.9.4-6.2 1.3-9.5 3.4-2.2 3.8-3 6.2-3 10.6 1.2 4.1 2.8 5.7 6 8.4 3 1.5 5.7 1.1 9 1.1q1.1 0 2.2.1 2.4 0 4.7 0 3.8 0 7.5 0 10.6.1 21.2.1 6.5 0 13 .1 2.5 0 4.9 0 3.5 0 7 .1 1.9 0 3.9 0c5.6.8 8.6 3.2 12 7.6 2.3 4.5 2.5 9 1.6 13.9-1.7 4.3-3.6 7.2-7.6 9.6-3.9 1.6-6.6 1.8-10.7 1.8h-2.1q-2.3 0-4.6 0-3.6 0-7.2 0-8.9.1-17.9.1-7.6 0-15.2.1-3.5 0-7 0-2.2 0-4.4 0-1.9 0-3.8 0c-3.9.4-6.3 1.4-9.5 3.4-2.8 4.2-2.7 8-2 13 1.8 2.9 2.9 4.5 6 6q3.6.2 7.2.2a16.2 16.2 0 0 0 2.2.1q2.5 0 4.9.1 3.8 0 7.7.1 10.9.2 21.8.4 6.6.1 13.3.3 2.5 0 5.1 0 3.5.1 7.1.2 1 0 2.1 0c4.9.1 7.8 1.5 11.6 4.6 3.5 4.5 3.6 8.5 3.4 14.1-.6 4.2-2.1 7.1-5.4 9.9-4.7 2.8-8.1 3.4-13.5 3.4q-1.1 0-2.2 0-3.5 0-7.1 0-2.5.1-5 .1-6.5 0-13.1.1-10.5 0-20.9.1-3.7 0-7.4 0-2.2 0-4.4 0-2 0-4 0c-3.3.3-5.5.7-8.4 2.3-2.3 5.3-2.3 9.5-1 15 1.9 2.4 3.3 3.7 6 5q3.4.1 6.8.2 1 0 2.1 0 2.3 0 4.6 0 3.6 0 7.2.1 10.3 0 20.6.1 6.3 0 12.6.1 2.4 0 4.8 0c15.7.1 15.7.1 22.3 3.5 4.7 4.8 5.4 9 5.3 15.5-.6 4.8-3.3 7.5-6.6 10.7-5.8 3.8-11.8 4.1-18.5 4.1q-1.3 0-2.6 0-4.2 0-8.4 0-2.9 0-5.9 0-6.1 0-12.3 0-7.9 0-15.7.1-6.1 0-12.2 0-2.9 0-5.8 0c-25.6.1-25.6.1-35.3-9.4-10.4-12.1-8.4-29.4-8.4-44.3q0-3.7 0-7.3 0-8 0-15.9 0-11.4 0-22.9-.1-18.6-.1-37.2v-2.3q0-9 0-18 0-7.9 0-15.8 0-1.1 0-2.3 0-18.6-.1-37.1 0-11.4 0-22.9 0-8.7 0-17.5 0-3.6 0-7.2 0-4.9 0-9.8 0-1.4 0-2.8c-.1-6.9-1-13.3-5-19-5.7-4.9-10.7-6-18-6.8-19.2-2.7-34.5-9.1-48.4-22.9-.9-.9-.9-.9-1.9-1.8-3.9-4.1-6.7-8.7-9.4-13.6q-.4-.9-.9-1.9c-4-7.6-6.3-15.3-7.1-23.9q-.1-1.2-.3-2.5c-1.6-18.9 4.9-38.6 16.4-53.6 22.8-26.7 57.6-34.2 89.2-18.7z" fill="#f26d01"/><path d="M455 366c5.6 3.8 10.5 8.5 12.7 15 4.1 24.6-15.1 54.1-24.9 76.1q-1.1 2.7-2.3 5.3-5.2 11.8-10.5 23.6-.5 1.1-1 2.2-18.6 41.5-37.7 82.7-.8 1.8-1.7 3.7-1.5 3.3-3 6.6-.7 1.4-1.4 2.9-.6 1.3-1.1 2.5c-2.9 6-2.9 6-2.1 12.4 1.4 2.8 3.1 5.4 4.8 8.1q.7 1.1 1.4 2.3c4.5 7.2 9.1 14.2 13.7 21.2q.8 1.2 1.6 2.5.8 1 1.5 2.1c1 1.8 1 1.8 1 3.8 1.2 0 1.2 0 2.4-.1 29.6-.8 29.6-.8 43.6 5.1q.9.4 1.9.8c13.6 5.7 23.4 14.4 32.1 26.2a13.93 13.93 0 0 0 1.5 1.9c11.6 17.1 14 38.5 10.5 58.4-2.9 11.6-8.9 22.9-17 31.7q-1.1 1.2-2.2 2.5c-12.4 13.2-29.9 22-48.2 22.7-22.4.4-40.8-6.3-57.4-21.4-13.1-14.1-21.1-33.8-21.6-52.9.5-12.5 3.1-26.8 10-37.4 2.8-5.1 2-11.4.9-16.9-2.8-9.4-8.3-16.8-14.9-23.8q-.8-.9-1.6-1.8c-2.2-2.2-3.8-3.9-7-4.2-4.3.3-7.4 1.6-10.8 4.2-2.5 1.9-4.2 3-7.2 4-1.1 1.9-1.1 1.9-2 4q-1.4 2-2.9 3.9c-3.8 5.7-5.5 11.6-7.1 18.1q-.4 1.2-.7 2.5c-1.3 6.4 1 10.9 3.9 16.6 9.1 18.3 8.9 38.7 2.8 58-6.6 17.5-20.1 32.9-37 40.9-9.9 4.3-19.4 6.4-30.2 6.3q-1.4 0-2.8 0c-18-.3-34.1-6.4-47.6-18.6q-1.2-1.3-2.4-2.7-1-1-2-2c-13.4-13.7-19.3-31.7-19.4-50.6.2-18.6 5.7-35.5 18.4-49.4q1.1-1.2 2.2-2.5c11.5-12.2 27.2-20.7 43.8-23.5 3.3-.1 6.5.1 9.7.2 9.6.6 9.6.6 18.3-2.6 3.6-3.8 5.7-8.4 7.8-13.1 2.1-4.4 4.9-8.3 7.6-12.3q1.6-2.5 3.3-5.1 2.5-3.8 5-7.7 2.4-3.8 4.9-7.6.8-1.2 1.7-2.5 4.3-6.7 8.7-13.4 17.9-27.8 36.3-55.3 11.2-16.8 22.2-33.6 7.5-11.5 15.1-22.8 4.1-6.2 8.2-12.3 1.7-2.7 3.5-5.4.9-1.4 1.9-2.8 2.7-4.1 5.5-8.2.8-1.3 1.8-2.7 1.7-2.7 3.5-5.3 4.6-6.8 9.1-13.6 1.8-2.8 3.6-5.5 2.3-3.4 4.5-6.7 3.2-4.8 6.4-9.5 1-1.6 2.1-3.2c16.1-23.8 16.1-23.8 26.3-22z" fill="#f26d00"/><path d="M96 253l832 1 1.2 270.2q0 9.9 0 19.9 0 27.9 0 55.8 0 1.8 0 3.5 0 1.7 0 3.5 0 3.5 0 7 0 1.7 0 3.5 0 28.6.1 57.3 0 30 0 59.9 0 16.7 0 33.3.1 13.9.1 27.9 0 7.1 0 14.1 0 6.5 0 13 0 2.3 0 4.7c.1 29.2-10 54.6-30.3 75.7-5 4.8-10.4 8.9-16.1 12.7q-1.2.8-2.4 1.6c-21.6 13.9-45.7 15-70.7 14.9q-4 0-8 0-8.7 0-17.5 0-12.9 0-25.9 0-23.1 0-46.2 0-20.3 0-40.5 0h-2.7q-5.5 0-11 0-51.1 0-102.3 0-45.5-.1-90.9-.1-11.6 0-23.3.1-1.4 0-2.9 0-38 0-76-.1-4.1 0-8.2 0-2.7 0-5.4 0-20.2 0-40.5 0-23 0-46 0-12.8 0-25.7 0-8.6 0-17.2 0-4.9 0-9.8 0c-34.4.1-34.4.1-50.1-6.5q-1.2-.5-2.3-.9c-14.9-6.3-31.2-17.6-40.5-31q0-1 0-2-1 0-2 0c-1.5-2.2-2.9-4.3-4.2-6.6-.7-1-.7-1-1.3-2-9.3-16.2-13.7-33.1-13.6-51.7q0-1.5 0-3.1 0-5 0-10 0-3.7 0-7.3 0-8 0-15.9 0-12 0-23.9 0-20.1 0-40.1 0-27.1 0-54.2 0-65.1 0-130.3L96 253zm18 19l-.2 282.1-.1 89.1v52.6q0 18.8 0 37.6 0 19.1 0 38.3 0 10.4-.1 20.8 0 9.4 0 18.8 0 3.3 0 6.7c-.1 27.9 5.7 51.8 25.7 72.4 15.8 14.9 35.4 22.9 57.1 22.9q1.6 0 3.3 0 5.6 0 11.2 0 4 0 8 0 8.8 0 17.5 0 13.1 0 26.1 0 24.6 0 49.2 0 19.1 0 38.1 0 2.7 0 5.5 0 4.1 0 8.2 0 38.3 0 76.6 0 1.4 0 2.9 0 7.3 0 14.6 0 1.5 0 3 0 2.9 0 5.8 0 45.7 0 91.5 0 51.3.1 102.7.1 5.5 0 10.9 0 1.4 0 2.8 0 20.3 0 40.7 0 23.1 0 46.3 0 12.9 0 25.9 0 8.6 0 17.3 0 4.9 0 9.8 0c26.4.1 48.2-3.4 68.7-21.4q1.1-1 2.3-2c6.6-6.2 11.1-13.3 15.7-21 .6-1.1.6-1.1 1.3-2.2 6.2-11.4 7.9-23.9 7.8-36.7q0-1.4 0-2.9 0-4.9 0-9.7 0-3.5 0-7.1 0-8.6 0-17.3 0-10.5 0-21 0-19.4 0-38.7 0-26.1 0-52.2 0-62.9 0-125.7L910 272H114z" fill="#072e5d"/><path d="M477 660c3.2 3.5 6.2 7.2 9 11 .7 1 .7 1 1.5 2 11.6 17 14 38.4 10.5 58.3-2.9 11.6-8.9 22.9-17 31.7q-1.1 1.2-2.2 2.5c-12.4 13.2-29.9 22-48.2 22.7-22.4.4-40.8-6.3-57.4-21.4-13.1-14.1-21.1-33.8-21.6-52.9.6-14.8 4.5-29.3 12.4-41.9q1 0 2 0 0-1 0-2 1 0 2 0 .4-.9.8-1.8c7.7-14.2 27.5-23.3 42.2-28.2 25-2.8 47.2 2.6 66 20z" fill="#f36d01"/><path d="M221.3 365.6q1.1 0 2.2-.1c7.4 1.5 11.1 8.9 14.9 14.7q1.2 1.8 2.3 3.6 1.3 1.9 2.5 3.7 6.9 10.5 13.5 21.2l8.9 13.8c4.6 6.7 9 13.5 13.5 20.3q.6.9 1.2 1.9 3.7 5.7 7.5 11.5 1.7 2.6 3.5 5.3 9.4 14.3 18.7 28.6 1 1.5 2 3 1.8 2.9 3.7 5.8l8.7 13.1q.8 1.2 1.6 2.3 1.5 2.2 3 4.3c2.1 3 3.1 4.7 2.6 8.4-1.9 3.6-4 6.9-6.3 10.2q-1.4 2-2.7 4-.7 1-1.4 2-2.3 3.5-4.5 7L290 591c-3-2.6-4.2-5.4-5.8-8.9l-1.6-3.7q-.9-1.9-1.7-3.8-.9-2-1.8-4-1.7-4-3.5-7.9-2.6-6-5.3-11.9-5.4-11.8-10.3-23.7c-2.2-5.4-4.6-10.7-7.1-15.9l-11.5-25.3q-.6-1.3-1.2-2.6L219 435q-.4-1-.9-2.1-2.7-6.4-5.4-12.8-.9-2-1.7-4-1.2-2.9-2.4-5.7-.7-1.6-1.4-3.2c-2.4-6.4-3.6-12-3.6-18.7q0-1.1 0-2.2c-.1-6.4 1.8-10.5 6.3-15.3q.8-.7 1.7-1.4.9-.7 1.8-1.4c2.7-2 4.6-2.4 7.8-2.6z" fill="#f26e00"/><path d="M755.1 61.2c7.9 5.2 13 12.7 15.4 21.9.7 4 .7 8 .7 12.1V98q0 4.6 0 9.1 0 3.2 0 6.4 0 6.7 0 13.3.1 8.6.1 17.1 0 6.6 0 13.1 0 3.2 0 6.3.1 4.4.1 8.8 0 1.3 0 2.6c-.1 9.9-2.9 18.7-9.4 26.3-7.6 7.5-16.3 11.1-26.9 11.6-9.1-.3-16.7-3-23.5-9.2-6-6.6-10.7-15.5-10.7-24.5-.1-1.2-.1-1.2-.1-2.5q0-1.3 0-2.7 0-1.4 0-2.8 0-4.7 0-9.3 0-1.6-.1-3.3 0-8.4 0-16.9 0-8.7-.1-17.4 0-6.7 0-13.4 0-3.2-.1-6.4c-.1-21.5-.1-21.5 4.5-30.2.8-1.6.8-1.6 1.7-3.2 12.8-15.6 30.4-19.7 48.4-9.6zm-446.4.7c5.9 4.9 9.6 10 12.3 17.1l1 2.6c1.2 4.3 1.3 8.2 1.3 12.6q0 1.4 0 2.8 0 4.5 0 8.9 0 3.2 0 6.3 0 6.6 0 13.2 0 8.4.1 16.8 0 6.5 0 12.9 0 3.1 0 6.2c.1 28.9.1 28.9-10.4 40.7-8.1 7.6-17.3 10.4-28.3 10.3-9.2-1-17.2-5.4-23.4-12.1-6.4-8-8.9-16.3-8.8-26.4q0-1.5 0-3-.1-4.8 0-9.5 0-3.4 0-6.7-.1-7 0-14 0-8.9 0-17.8-.1-6.9 0-13.8 0-3.3 0-6.5-.1-4.6 0-9.3 0-1.3 0-2.7c.1-9 3.3-17.8 9.5-24.5 13.2-11.6 31.8-14.6 46.7-4.1z" fill="#04436e"/><path d="M454 682c9 9.1 13.4 18.8 13.6 31.6-.2 12.2-4 22.3-12.4 31.3-9 8.5-20.2 12.7-32.5 12.4-12.5-1.4-23.8-7.4-31.7-17.3-7.3-11.2-10-22.1-7.3-35.4 1.9-7 4.4-12.3 9.3-17.6q.9-1 1.7-2.1c15.7-17.1 41.8-18 59.3-2.9zm-183.2-2.8q2.1 1.8 4.2 3.8l2.2 2c7.5 7.7 11.4 17.5 11.9 28.2-.4 13.2-4.6 23-13.7 32.5-7.9 7.4-17.7 11.2-28.5 11.6-13.2-1.1-23.8-5.4-32.9-15.3-7.4-10.2-11-21.3-10-34 2.1-11.7 8.8-21.6 18-29 15.4-9.6 33.5-11.1 48.7.2zM626 389c8.6 8.5 13.3 18.7 13.6 30.9-.1 12-4.9 22.2-13.2 30.7-8.7 8.1-19.7 12-31.5 11.7-12.4-1.3-22.3-7.6-30.2-17-6.8-9-9.7-20.1-8.3-31.3 2.5-11.8 8.4-21.3 18-28.4 17.1-10.7 36.1-9.6 51.6 3.4zm176 0c10.1 10.5 13.5 20.7 13.2 35-.4 11.9-6.5 20.8-15 28.9-9.3 7.6-19.5 9.9-31.2 9.1-8.9-1.5-17.1-6.2-24-12q0-1 0-2-1 0-2 0c-8-10.8-11.3-22.7-10-36 2.9-11.7 9.3-21.4 19.6-27.8 16.7-8.7 34.8-7.7 49.4 4.8z" fill="#fefee3"/><path d="M378 595c3.9 3.5 6.3 7.5 8.9 12 4.8 8 9.9 15.9 15 23.6a54.46 54.46 0 0 1 1.6 2.5q.8 1 1.5 2.1c1 1.8 1 1.8 1 3.8h26q0 .5 0 1-.9 0-1.8 0-4.1.1-8.1.2c-1.4.1-1.4.1-2.8.1-6.7.2-11.4 1.7-17.3 4.7q-2 .9-4 1.8c-11.4 5.4-20.7 11.8-28.7 21.8-.6.7-.6.7-1.3 1.4q-1 0-2 0 0 1 0 2-1 0-2 0-.1-1.4-.2-2.8c-1.3-13.7-6.3-23.1-15.8-33l-1.8-1.8c-4-3.9-6.6-5.2-12.2-5.4l2-1q0-1 0-2 1.5-.6 3-1.3c9.6-4.1 19.1-9 27-15.7q1.1-.9 2.2-1.9c3.9-3.1 3.9-3.1 6.8-7.1q1 0 2 0 .5-2.5 1-5z" fill="#e45600"/><path d="M340 572c5.7 1.9 9.3 5.7 12 11 .5 5.3.7 9.6-1.7 14.4-3.3 3.7-6.6 7.3-11.7 7.8-8 .2-11.8-1-18-6.2-2.6-4.8-2.8-9.6-2.6-15 1.6-5.3 4.7-7.8 9-11 3.9-2 8.7-1.3 13-1z" fill="#da4000"/><path d="M674.3 678.8q1.5.1 3 .1 4.9 0 9.7.1 1.6 0 3.2 0 10.8.2 21.7.5 3.3.1 6.5.1 7.8.2 15.6.4 0 .5 0 1h-2.7q-12.7.1-25.3.2-6.5.1-13 .1-6.3.1-12.6.2-2.4 0-4.7 0-3.4 0-6.8.1-1.8 0-3.8 0c-3.3.4-4.1.9-6.1 3.4q-1 0-2 0c.9-2.5 1.6-3.8 3.9-5.1 4.5-1.3 8.7-1.1 13.4-1.1z" fill="#fefef6"/><path d="M324 537c1.5 2.6 2 3.9 2 7q-1 1-2 2-1 0-2 0c-.3-5.6-.3-5.6 2-9z" fill="#fef4da"/><path d="M291 588q.5 1 1 2 1 .5 2 1-.5 2-1 4l-6-3q.5-1.5 1-3 1 .5 2 1 .5-1 1-2z" fill="#fdf2d6"/><path d="M300 574q3 0 6 0c-.7 1.9-.7 1.9-2 4-2.6.8-2.6.8-5 1q.5-2.5 1-5z" fill="#fef4da"/><path d="M288 601q1 .5 2 1c-1.2 3.4-2.3 5.6-5 8q-1-.5-2-1l5-8z" fill="#ec5302"/><path d="M368 480q.5 1.5 1 3c-1.2 1.8-1.2 1.8-2.9 3.7q-.9.9-1.8 1.9-.6.7-1.3 1.4c0-3.4.5-4.1 2.5-6.7q.7-.9 1.4-1.9.5-.7 1.1-1.4z" fill="#f25a03"/><path d="M556 360q.5 1.5 1 3l-5 4q-1-1-2-2l6-5z" fill="#f3660e"/><path d="M463 732q1.5 0 3 0c-1.5 4.7-1.5 4.7-4.1 6.3l-1.9.7 3-7z" fill="#f4680c"/><path d="M332 531q1 .5 2 1c-1.9 2-3.6 3.4-6 5q0-1 0-2-1-.5-2-1 1.5 0 3 0 0-1 0-2 1.5-.5 3-1z" fill="#fef6dd"/><path d="M810 440q1 .5 2 1c-1.4 3.2-2 4-5 6 0-3.5.8-4.4 3-7z" fill="#f4670e"/></svg>