<svg xmlns="http://www.w3.org/2000/svg" width="1024" height="1024" xmlns:v="https://vecta.io/nano"><path d="M339 130c3.2 3.1 5.6 5.8 7 10v40h326v-38c4.5-9.1 4.5-9.1 8.5-12.4 1.1-1 1.1-1 2.3-2 4.8-3.4 10.5-3 16.2-2.6 6 1.1 9.5 4 13.5 8.6 3.9 6.2 4.9 11.9 4.8 19.1q0 1.1 0 2.3 0 3.8-.1 7.5 0 2.5-.1 5.1 0 6.2-.1 12.4 1.3 0 2.7 0c40.5-.4 77 2.5 107.7 32.2 6.7 6.9 12 14.3 16.6 22.8q.9 1.6 1.9 3.3c3.3 6.4 5.9 12.6 8 19.4q.3 1.1.6 2.1c2.3 8.4 2.7 16.9 2.6 25.6q0 1.3 0 2.7 0 4.4 0 8.8 0 3.2 0 6.3 0 6.9 0 13.7 0 10.8 0 21.7 0 1.8 0 3.7 0 3.7 0 7.5.1 25.1.1 50.3 0 17 0 34.1 0 8.9 0 17.9 0 8.5 0 17 0 3.1 0 6.1c-.1 11.7.9 21.4 5.4 32.3 5.4 13.8 2.8 30.7-1.6 44.5-.8 1.6-.8 1.6-1.5 3.3-2.5 6.4-1.9 13.4-1.9 20.2q0 2.4 0 4.7 0 5.1 0 10.2 0 8 0 16-.1 17.1-.1 34.1 0 18.4-.1 36.7 0 8 0 15.9 0 5 0 10 0 2.3 0 4.6c.1 30.2-10.9 56.5-31.9 78.2-4.8 4.6-9.8 8.5-15.5 12.1q-1.3.9-2.6 1.7c-6 3.8-12.1 6.6-18.7 9q-1 .5-2.1.9c-14.5 5.2-28.8 5.8-44 5.7q-2.8 0-5.7 0-7.4 0-14.9-.1-7.6 0-15.2-.1-14.9 0-29.8-.1-.2.9-.4 1.8c-.9 4.2-1.8 8.2-3.4 12.1q-.6 1.3-1.1 2.5l-1.2 2.7q-.6 1.3-1.2 2.7c-8 18.2-18.4 34.4-32.2 48.7q-2.3 2.4-4.6 4.7c-7.6 8-15.8 14.6-24.9 20.8q-.9.6-1.8 1.2c-8.6 6-17.5 10.7-27.2 14.8q-1 .4-2.1.9C537.4 945 491.4 947 451 932c-31.7-12.7-60-31.7-81-59q-1-1.3-2-2.6c-10.7-14.1-27-37-27-55.4q-1.6 0-3.2 0-15.2.1-30.3.2-7.8 0-15.6 0-7.6.1-15.1.1-2.9 0-5.7 0c-15.3.1-30.3-.8-44.7-6.4q-1.2-.5-2.4-.9c-12.6-5-24.3-12.5-34-22q0-1 0-2-.9-.3-1.7-.7c-12.9-7.3-22.3-29.7-26-43.1-2.1-7.7-3.4-15.1-3.4-23.2v-2q0-3.3 0-6.6 0-2.4 0-4.8 0-5.1 0-10.3 0-8.1-.1-16.3 0-1.3 0-2.7 0-2.9 0-5.7 0-18.9-.1-37.9.1-12.8 0-25.5 0-6.8 0-13.6 0-6.3 0-12.7-.1-2.3 0-4.6c0-10.5-1.7-18.7-5.7-28.3-1.9-5.8-2.4-11.4-2.4-17.5q0-1.3 0-2.6c.2-9.4 1.8-18.6 5.9-27 1.9-4.4 1.9-8.4 1.9-13q0-1.4 0-2.8 0-4.5 0-9 0-3.2 0-6.4 0-7 0-13.9 0-11.1 0-22.1.1-23.4.1-46.8 0-25.2.1-50.4 0-10.9 0-21.9 0-6.8 0-13.6 0-3.2 0-6.3c0-11.4.4-21.7 3.4-32.7q.4-1.7.9-3.4c4.7-17.8 15.7-32.4 28.1-45.6q.8-.9 1.7-1.9c17.1-18.3 44.2-28.2 68.8-29.2 6.5-.1 13-.1 19.4 0q3 0 5.9 0 7.1 0 14.2.1-.2-.9-.5-1.8c-1.1-5-.7-10.2-.7-15.3q-.1-3.2-.1-6.4c-.1-9.9.6-17.4 7.6-25 9.1-8 21.8-8.5 31.7-1.5z" fill="#012c77"/><path d="M592 292q1.5.8 3.1 1.6c32.9 18.3 55.9 48.1 66.6 84 13.4 47.6 8.3 97-15.9 140.3-4.5 7.8-10.1 14.2-16.4 20.6-2 2.1-3.8 4.3-5.6 6.5-5.7 6.4-12.5 11.5-19.2 16.7-1.7 1.4-1.7 1.4-3.6 3.3.2 2.9.6 4.5 2.5 6.8 5.1 2.4 9.6 1.8 14.8.2 5.2-2 10-4 14.7-7a29.64 29.64 0 0 0 .9 1.5q1.9 3.4 3.9 6.8.7 1.2 1.4 2.4.6 1.1 1.3 2.3.6 1 1.2 2.1c1.3 1.9 2.5 3.4 4.3 4.9 18.6.6 39.5-15.9 54-26q.8-.6 1.7-1.2c19.2-13.3 34.4-27.5 46.8-47.4q.9-1.5 1.9-3 1.7-2.8 3.5-5.7c4.3-7 9.3-13.5 17.1-16.7 3.5-.1 7 0 10.5.3 4 .1 6.7-.1 10.1-2.3 6.2-3.7 13.5-2.9 20.4-1.3 13.1 4.4 23.8 13.2 30 25.5 5.2 10.9 5.8 23.5 2.1 35-5 12.8-11.8 21.9-21.1 31.8q-1.2 1.2-2.3 2.5c-3 3-6.1 5.9-9.4 8.6-4.7 4.2-9.1 8.6-13.5 13.1q-1.3 1.3-2.6 2.6-4.1 4.1-8.2 8.2-5.4 5.4-10.7 10.8-1.3 1.2-2.5 2.5c-4.2 4.2-8.5 8.3-13 12.2-3.1 2.7-6.1 5.5-9.1 8.4-5.2 4.9-10.5 9.5-16.1 14-2.7 2.2-5.3 4.6-7.9 7a206.06 206.06 0 0 1-12.6 10.5c-4.8 3.7-9.4 7.5-13.8 11.5q-1.5 1.3-3 2.6c-3.1 3.3-3.1 3.3-4.3 7.5.5 2.3 1.3 4.5 2 6.7 2.2 7.6 3.2 15.6 4.4 23.4q.3 1.4.5 2.8c2.6 16.4 4.8 32.8 6.6 49.3.7 5.6 1.6 11.2 2.5 16.8h-28q.2-3 .5-6.1c2.2-33.3.2-66.3-14.5-96.9q-.4-.9-.8-1.8c-11.8-25.1-28.6-47.8-51.2-64.2q-1.4-1.1-2.9-2.2c-37.9-27-85-38.2-131-31.3q-9.1 1.6-18.1 3.5-1.2.3-2.5.5c-21.4 4.6-42.1 16.6-59.5 29.5q-1.5 1.1-3 2.2c-13.6 10.6-25.5 23.4-35 37.8q-1.1 1.6-2.2 3.3c-19.1 30-28 61.7-27.9 97.2q0 2 0 4 0 1.9 0 3.9v3.5c.2 5.7.7 11.4 1.1 17.1h-28c.6-12.6 2.4-24.9 4.3-37.3q.8-5.4 1.6-10.8c1.7-12.2 3.6-24.3 5.8-36.4.7-4.1 1.5-8.2 2-12.4q.1-1.1.3-2.1c0-3.7-1.7-6.3-4-9-2.5-2.3-5.2-4.3-7.9-6.3q-2.3-1.6-4.6-3.4c-1.2-.8-1.2-.8-2.3-1.7-3.2-2.3-6.2-4.8-9.1-7.4q-.8-.6-1.6-1.3c-4.1-3.5-8.1-7.1-12-10.7-2.7-2.4-5.4-4.6-8.2-6.8-3.8-3.1-7.3-6.3-10.7-9.7-1.6-1.7-3.3-3.2-5.1-4.8-13.3-11.4-26.4-23.6-37.8-36.9-4.7-5.4-9.9-10.5-15.4-15.2-16.3-14.1-31.8-30-33.5-52.6-.4-12.4 3-22.8 11-32.4 9.3-9.7 20-16.8 33.7-17.3q1.2 0 2.3 0c1.1 0 1.1 0 2.2-.1 3.8.1 5.8.5 9 2.6 3.8 2.5 6.6 2.3 10.9 2 6.3-.2 10.2-.2 15.1 4 5.7 5.8 10.1 12.5 14.5 19.3 21.1 32.6 57 65.8 95.5 76.7 2.9.4 5 .3 8 0 2.3-1.8 2.3-1.8 3.7-4.4q.8-1.4 1.7-2.8l1.6-2.8c.8-1.3.8-1.3 1.5-2.7q1.8-3.1 3.5-6.3c3.1.6 5.1 1.6 7.6 3.4 5.8 3.6 11.9 6.1 18.8 5.4 3.7-.6 3.7-.6 6.6-2.8.8-2.3.8-2.3 0-5-3.3-4.4-7.8-7.7-12.1-11.1-15.3-12.3-27.3-26.8-36.9-43.9-.8-1.5-.8-1.5-1.7-3-21.2-39.9-21.5-88.3-9.3-130.9 6.3-20.1 14.7-40.4 29-56.1q1.3-1.5 2.6-3c26.4-30.5 68.5-44.5 107.7-47.7 33.4-2.3 67.3 4.7 96.7 20.7z" fill="#fda50a"/><path d="M263.8 199.8q1.6 0 3.2 0 5.1 0 10.2.1 3.5 0 6.9 0 8.5 0 16.9.1l.1 2.1q.1 4.7.3 9.4 0 1.6.1 3.3c.3 8.4.6 16.6 6.5 23.2 6.9 4.9 13.7 6.2 22 5 6-1.8 9.4-5 13-10 4.9-9.9 2.6-22 3-33h326l1 27c3.9 7.8 6.2 11.8 14 15.4 7.5 1.5 13.4.3 20-3.4 4.3-3.8 7.7-8.2 8.3-14q.1-1.7.1-3.5.1-1.9.1-3.8.1-1.9.1-4 .1-1.9.1-3.9.2-4.9.3-9.8 8.2 0 16.4-.1 2.8 0 5.5 0c30.5-.1 51.6 4.2 74.2 25.9 12.3 12.7 21.8 27.6 24.9 45.2.3 1.3.3 1.3.5 2.7.6 3.8.6 7.6.6 11.5q0 1.2 0 2.5 0 4 0 8.1 0 2.9 0 5.8 0 7.9 0 15.8 0 8.2 0 16.5 0 15.6 0 31.3 0 17.8 0 35.6-.1 36.6-.1 73.2c-4-1.6-7.7-3.4-11.6-5.4-12-6.2-24.8-9-38.2-5.2-2.8.9-2.8.9-5.2 2.6q-3.2.2-6.3.2c-11.7.8-21.8 5.3-29.7 14-4.2 5-7.7 10.4-11.2 15.9-16.1 25.6-37.6 43-63.6 58.1q-1.6 1-3.4 2-1.6.9-3.2 1.8-1.4.9-2.9 1.7c-2.6 1.3-4.8 1.9-7.7 2.3q-1.8-2.6-3.6-5.2-1-1.4-2.1-2.9c-1.3-2.9-1.3-2.9-.7-5.5 1.4-2.5 3-4.5 4.9-6.7 9.7-11.8 16.3-25.4 21.5-39.7l.8-2.2c5-13.9 7.7-28.2 10.2-42.8 3.3 1.6 6.2 3.5 9.1 5.8 7.3 4.7 16.5 4.1 24.9 3.2 10.7-3 18.4-11.8 24.5-20.7q.8-1.2 1.7-2.4 2.4-3.4 4.8-6.9c.6-.9.6-.9 1.2-1.7 13.1-18.7 25.7-41.2 27.8-64.3q.1-1 .2-2.1c.3-6.3-1.3-11.3-4.2-16.9q-.4-.9-.8-1.8c-3.7-7.2-10.1-10-17.1-13.5q-1.9-.9-3.8-1.9-3.8-2-7.6-3.9l-15.6-8.1q-1.4-.7-2.8-1.4c-12.7-6.7-25.3-13.5-37.7-20.7-6.7-3.8-13.7-7.3-20.7-10.8q-3-1.5-6.1-3c-10.3-5.1-21.7-7.3-32.9-3.7-2.6.9-5.1 1.9-7.7 2.9-3.8 1.1-4.8.8-8.2-1.1q-2.8-1.6-5.6-3.3c-19-11.7-40.5-20.3-62.4-24.7q-1.9-.4-3.8-.8c-25.9-5.1-54.6-3.7-80.2 1.8q-1.1.2-2.3.5c-13.7 3-26.6 8.4-39.3 14.3q-1.4.6-2.7 1.3c-4.9 2.3-9.1 4.8-13.4 8.1-2.7 2-5.1 3.5-8.3 4.8-4.1-.6-7.4-1.9-11.2-3.6-10.2-4.2-21-1.3-30.8 2.6-4.7 2.2-9.3 4.6-13.9 7q-1.9 1-3.8 2L304 312l-30.3 16.1c-23 10.4-23 10.4-37.1 30.2-4.7 20.3 8.2 45 18.3 61.9 4.5 7.1 9.2 14 14.1 20.8a54.57 54.57 0 0 1 2.1 3c3.8 5.3 3.8 5.3 8.1 10.2 1.8 1.8 1.8 1.8 1.8 3.8q.8.4 1.7.8c3.1 1.6 6.1 3.3 9.1 5.1 6.9 3.5 16.6 3.3 24 1.3 3.4-1.5 6.5-3.3 9.6-5.5 2.6-1.7 2.6-1.7 5.6-1.7q.2 1 .3 1.9c3.9 21.2 8.7 41.9 18.7 61.1q.6 1.2 1.3 2.5c4 7.8 9.3 15 15.3 21.4 2.4 3.1 2.4 3.1 2.2 5.5-.9 2.9-2.1 4.9-3.9 7.4q-.8 1.2-1.6 2.4-.7.9-1.3 1.8c-3.5-.6-6.2-1.4-9.3-3.3q-1.1-.6-2.3-1.3-1.3-.8-2.5-1.5c-1.3-.8-1.3-.8-2.6-1.5q-3.7-2.2-7.3-4.4l-3.1-1.9c-14.3-8.8-28.2-19.2-38.9-32.1q-.9-1-1.8-2.1c-4.5-5.3-8.1-10.9-11.7-16.9-7.1-11.8-15.3-25.4-29.5-29-3.5-.3-7-.4-10.5-.5-4.9-.2-8.6-1.1-13.2-3.1-10.4-4.5-21.8-3.3-32.3.6-4.3 1.9-8.5 4.1-12.6 6.3-3.4 1.7-3.4 1.7-6.4 2.7q-.1-38.3-.2-76.6 0-17.8-.1-35.6-.1-15.5-.1-31 0-8.2 0-16.4-.1-7.8-.1-15.5 0-2.8 0-5.7c-.2-26.4 8-48.4 26.3-67.9 16.8-17.1 36-25.7 60-25.5z" fill="#fdfefe"/><path d="M501.4 610.9c44.4-1.5 85.4 13.8 118.2 43.8 19.7 18.5 33.3 42.6 41.4 68.3q.4 1.4.9 2.8c6.4 22.4 6.6 49.6 1.1 72.2q-.2 1.1-.5 2.2c-9.9 41.7-35.5 76.6-71.6 99.4-9 5.6-18 9.9-27.9 13.4-1 .3-1 .3-2 .7-38.4 13.4-82.1 12-119-5.7-10.8-5.4-20.7-11.4-30-19-.8-.7-.8-.7-1.7-1.3-6.7-5.5-12.8-11-18.3-17.7q-1.7-1.8-3.4-3.7c-14.9-17.2-25-37.8-31.4-59.6q-.4-1.4-.9-2.9c-3.5-12.5-4.6-24.2-4.6-37.1q0-3.7-.1-7.5c0-10.1.9-19.3 3.4-29.2l.6-2.5c8.6-34.7 30.3-65.8 59.4-86.5q.9-.6 1.8-1.3c24.5-17.8 54.4-27.6 84.6-28.8z" fill="#29c1aa"/><path d="M836 586q1 0 2 0 .1 25.4.2 50.8 0 11.7 0 23.5.1 10.3.1 20.6 0 5.4 0 10.9c.1 21.3-.4 39.9-10.3 59.2q-.7 1.4-1.4 2.9c-10.9 19.1-30 31.7-50.6 38.1l-2.4.8c-9.3 2.7-18.3 2.5-27.8 2.4q-2.5 0-4.9-.1-6 0-11.9-.1c-1.1-7.7-2.1-15.4-2.9-23.1a872.3 872.3 0 0 0-8.7-60.2q-.3-1.6-.5-3.2-.3-1.4-.5-2.9c-.4-2.6-.6-5-.4-7.6 1.8-1.9 3.5-3.4 5.6-5q1.8-1.4 3.5-2.9 1-.8 2-1.5l9.6-8.2q.9-.8 1.9-1.7 6.7-5.8 13.2-11.7 2.9-2.6 5.9-5.2c4.7-4 9.1-8.3 13.7-12.5q5.4-5.1 10.9-10.1c4.2-3.7 8.2-7.6 12.1-11.6 2-2 4-3.8 6.2-5.7 5.2-4.5 10-9.4 14.9-14.2q2.4-2.4 4.7-4.8c5.1-5 10-10.1 14.5-15.6q.6-.6 1.3-1.3z" fill="#fdfefe"/><path d="M178 585q1 0 2 0c1.4 1.6 1.4 1.6 3 3.9 4.1 5.3 8.6 10 13.4 14.7q1.3 1.3 2.6 2.7 2.8 2.7 5.6 5.5 4.2 4.2 8.5 8.5 2.7 2.7 5.4 5.4 1.2 1.2 2.5 2.5c4.3 4.3 8.7 8.4 13.4 12.4 1.9 1.7 3.8 3.5 5.6 5.4 3.1 3.1 6.2 6 9.5 8.8q3.1 2.7 6.1 5.5a17.04 17.04 0 0 0 1.9 1.9q1.9 1.8 3.9 3.7c3.8 3.6 7.8 6.8 12.1 9.8q.7.7 1.5 1.3 0 1 0 2 .9.4 1.8.8c2.3 1.2 4.2 2.5 6.2 4.2q0 1 0 2 .8.4 1.7.8c2.6 1.3 4.8 2.9 7.1 4.7q1.1.9 2.4 1.8.9.9 1.8 1.7 0 1 0 2l4 2c-1.1 8.4-2.5 16.7-4 25.1-4.3 23.5-6.6 47.1-9 70.9q-7 .1-14 .2-2.4 0-4.8.1c-25.5.6-47.1-7-65.9-24.5-14.5-14.1-24.2-34.9-24.5-55.2q0-3.7 0-7.3 0-2 0-4.1 0-5.4 0-10.9 0-5.7 0-11.4 0-10.8.1-21.6 0-12.4 0-24.7 0-25.3.1-50.6z" fill="#fefefe"/><path d="M544 428c3.7 3.8 4.9 6.5 5.3 11.8-.2 6.4-3.2 10.8-7.7 15.2-5.5 4.3-11.7 7.6-17.8 11-1.6.9-3.2 2-4.8 3-.6 3.7-.4 5.4 1.7 8.5 7.7 8.4 18.5 12.6 29.7 13.4 15.9.5 27.1-6 39.1-16 5.8-4.7 5.8-4.7 9.8-5.6 3.4.9 5.2 2.3 7.7 4.7 1.9 3.8.9 8 0 12-3.9 8.9-12.3 15.7-20.8 20-9.4 4.8-13 8.9-16.6 18.9-6.4 17.6-20.6 30.8-37.1 39.1-7.3 3-13.8 3.3-21.7 3.3q-1.6 0-3.2.1c-18.5 0-30-6.8-42.7-19.5-6.5-6.9-12-15-15.5-23.8-4-10-8.8-14.1-18.4-19.1-8.7-5.6-16.6-11.9-20-22-.6-4.3-.7-7.8 1.6-11.6 3.6-2.1 5.2-2.3 9.4-1.4 3.6 2.7 6.8 5.9 10 9 8.2 7.2 18 11.7 29 12q1.1.1 2.2.2c11.3.4 22.4-4.5 30.8-11.8l2-2.4q.9-1 1.9-2.1c1.3-1.8 1.3-1.8.9-3.9-1.1-2.7-2.3-3.2-5-4.6q-1.2-.6-2.6-1.3l-2.7-1.4c-16.8-8.6-16.8-8.6-21.5-15.7-.9-5.5-.9-10.6 2.4-15.3 7.3-8.5 18.5-12.8 29.5-13.6 16.4-.6 30.9-.7 45.1 8.9z" fill="#012d79"/><path d="M592.8 689.4c4.4 3.2 7.2 7.2 8.2 12.6.2 2.1.2 2.1.3 4.4v2.2c-.7 5.4-3.9 9.4-7.3 13.5l-2.4 2.8q-1.3 1.6-2.6 3.1-1.4 1.6-2.7 3.2-2.1 2.5-4.2 5-4.3 5.1-8.5 10.2L560 762.5q-4.2 4.9-8.4 9.9l-22 25.5q-1.7 1.9-3.3 3.9-.9.9-1.7 1.9-4.6 5.3-9 10.9c-3.7 4.5-7.6 8.7-11.7 12.9q-.9.9-1.8 1.8c-4.8 4.9-9.8 8.1-17 8.3-11.8-.6-20.6-12.5-28.1-20.6q-1.6-1.8-3.2-3.7c-4.9-5.7-10.4-11-15.8-16.3-6.6-6.5-13.1-12.9-19-20q-1.2-1.4-2.4-2.8c-3.6-4.8-3.1-10.4-2.6-16.2 1.8-6.7 6.2-10.5 12-14 2.9-1 4.8-1.2 7.8-1.2q1.3-.1 2.5-.1c5.6.7 9.6 3.8 13.6 7.5q1.2 1.1 2.4 2.2c2.1 2 3.9 4 5.8 6.2 4.5 5.1 9.3 9.9 14.1 14.8q2.4 2.3 4.8 4.7 1.5 1.5 3 3.1a70.06 70.06 0 0 1 2.8 2.7c2 2.1 2 2.1 4.2 3.1q.4-.8.7-1.7c1.5-2.7 3.3-4.6 5.4-6.9 6.9-7.6 13.4-15.5 19.5-23.8l1.4-1.6q1 0 2 0 .4-.8.7-1.7c1.5-2.7 3.3-4.6 5.4-6.9 4.8-5.3 9.4-10.8 13.9-16.4q3.8-4.7 7.6-9.3 1.5-1.9 3-3.7 5.4-6.5 10.8-13.1 1.5-1.8 3-3.6c9.3-11.2 18.6-16.4 32.4-8.9z" fill="#fdfefe"/><path d="M373.4 299.8q1.6.1 3.2.1 1.2 0 2.4.1c-.6.6-.6.6-1.1 1.3-9.8 11.3-18 23.4-24.9 36.7q-.5 1-1.1 2c-11.5 22.5-18 47.5-22.5 72.2-2.3 12.5-6.7 25.7-16.2 34.4-4.3 1.9-7.6 2.5-12.2 1.4-3.1-1.9-5.5-4.3-8-7q-.9-1-1.9-2c-6.1-6.5-11.2-13.7-16.1-21q-.6-.9-1.2-1.8c-9.2-14-22.2-36.9-18.8-54.2 2.2-5.4 6.2-7.1 11.3-9.6q2.5-1.3 5.1-2.6l2.8-1.4 14.1-7.3q1.4-.7 2.9-1.5l20-10.7c7.7-4.3 15.6-8.3 23.5-12.2 6.6-3.3 13-6.8 19.3-10.4 11.9-6.7 11.9-6.7 19.4-6.5z" fill="#fda002"/><path d="M638 300c13.6-1.1 24.2 5.5 35.7 11.8l11 5.8q12.8 6.7 25.5 13.5l2 1 23.5 12.9c3.2 1.9 6.4 3.5 9.7 5.1q1.1.6 2.2 1.1 2.1 1 4.2 2c4.1 2 6.8 3.9 9.2 7.8 3.8 16.7-8 38.5-16.6 52.3-2.4 3.6-4.9 7.2-7.4 10.7q-.9 1.3-1.9 2.7c-1.3 1.8-2.7 3.6-4.1 5.3q-1 0-2 0-.4.9-.8 1.7c-1.3 2.5-2.8 4.3-4.6 6.4l-1.8 2q-.9.9-1.8 1.9-.7.8-1.5 1.7c-2.9 2.5-6.7 2.4-10.5 2.3-5.5-1.7-8.9-5.3-12-10-6.3-12.2-8.8-25.9-11.4-39.3-6.7-34.1-18.5-67.7-43.2-93.1-3.4-3.4-3.4-3.4-3.4-5.6z" fill="#fda003"/><path d="M607 376c6.1 4.4 10.8 9.1 14 16q.6 1.2 1.3 2.4c1.4 5 1.3 9.6-.6 14.5-1.7 3.1-1.7 3.1-3.5 4.6-3.4.8-5.8.4-9.2-.5-3.8-3.4-5.6-8.1-7.7-12.7-2.1-3.6-4.4-5-8.3-6.3q-2.7-.2-5.3-.3-1.4-.1-2.8-.1c-5.2.7-8.1 3.4-11.3 7.3-1.2 1.6-1.2 1.6-2.3 3.2-4 5.7-4 5.7-7.3 7.9-4.2.5-6.3.4-9.9-1.8-3.1-4.7-2.9-8.8-2.1-14.2 2.6-8.5 8.9-15.1 16.6-19.4 12.1-6.3 26.1-7 38.4-.6zm-158.8-.8c7.9 5.5 13.9 13.2 15.8 22.8.5 4.3.7 8.4-2 12-3.7 2.5-5.6 2.5-10 2-4.4-2.8-6.3-5.9-8.6-10.6-2-4.4-2-4.4-5.2-7.8-2.9-.8-5.6-.9-8.6-.9q-1.7 0-3.4-.1c-3.6.4-5.4 1.3-8.2 3.4-1 1.6-2.1 3.3-3 5-1.1 2.2-2.4 4.3-3.7 6.4q-.6 1-1.2 2C409 411 409 411 408 412c-7.1.6-7.1.6-10.9-1.9-3.5-3.6-3.5-6.4-3.4-11.3.9-7.7 5.5-13.9 11.1-19 12.3-9.7 29.5-12.4 43.4-4.6z" fill="#032c7a"/><path d="M507 510c2.6 1.5 4.8 2.8 7 5 1.9.5 1.9.5 4 .7q1.2.1 2.4.3 1.3.1 2.6.3c7.2 1 14 2.2 20 6.7 2 3 2 3 2.1 5.8-1.6 4.6-4.1 6.6-8.1 9.2-8.9 4.4-17.8 6.4-27.8 6.3q-1.3 0-2.6 0c-10.9-.2-21-2.2-29.6-9.3-1.8-2.5-1.8-2.5-3-5 .9-4.6 3.3-6.4 7-9 8.1-3.4 16.3-4.7 25-5q0-1.2-.1-2.4c.1-2.6.1-2.6 1.1-3.6z" fill="#fb546d"/><path d="M805 67q1 0 2 0 .3 1 .6 2.1c2.9 9.4 8.2 16.7 16.8 21.8 5 2.5 10.3 4.3 15.6 6.1q0 1 0 2c-1.5.5-1.5.5-3 1.1-10.7 4-20.4 8.3-26 18.9-2.1 6.2-3.3 12.5-4 19q-1.5 0-3 0-.3-1.4-.5-2.8C801.5 125 799 116 791 109c-6.2-3.9-13.2-6.4-20-9q0-1.5 0-3 1.8-.6 3.7-1.3c11.6-4.2 19.8-7.4 25.7-18.9q1.3-2.9 2.6-5.8 1-2 2-4z" fill="#52bee2"/><path d="M61 544q1 .5 2 1 .7 2.8 1.2 5.6c2 8.5 6.9 13.3 13.8 18.4q3.1 1.5 6.3 2.8 1.6.6 3.3 1.2 1.2.5 2.4 1c-1.3 2.6-3.1 3.1-5.7 4.3-9.2 4.2-16 8.6-19.7 18.5q-1.5 4.5-2.6 9.2-1 0-2 0l-.8-2.7c-2.8-9-6.2-17.5-15-22.3-3-1.4-6.1-2.7-9.4-3.8C32 576 32 576 31 574q1.5-.5 3-1.1c12.7-4.6 12.7-4.6 21.2-14.6q.9-2.2 1.8-4.3.6-1.3 1.1-2.7 1.5-3.7 2.9-7.3z" fill="#53bee2"/><path d="M237.8 528.9c3.5 1.8 6.4 3.6 8.2 7.1.9 7.5-1.5 12.1-6 18-5 5.5-9.7 7.6-17.2 8.3-8.6.5-8.6.5-11.7-1.5-4.4-5.2-4.5-10.4-4.1-16.8.8-5.8 2.1-10.4 6-15 7.5-5.5 16.9-3.7 24.8-.1zm564.8-1.2c5.4 5.1 7.4 11.3 7.7 18.7-.1 5.4-1.1 10.5-5.1 14.3-4.8 2.8-11.1 1.8-16.5.9-6.9-2-11.3-7.9-15.1-13.8-1.9-3.5-3.6-6.7-2.6-10.8 6.3-10.4 20.6-14.5 31.6-9.3z" fill="#022c7a"/><path d="M163 857q1 0 2 0 .1.8.2 1.7c1.1 6.1 2.8 10.4 7.8 14.3 3.2 1.6 6.5 2.9 10 4q0 1 0 2-2.4 1.2-4.8 2.4-1.3.7-2.7 1.4C173 884 173 884 170 885c-1.8 2.9-2.9 6.1-4.1 9.3q-.6 1.3-1.1 2.7-.4 1-.8 2c-2-1-2-1-2.7-3.1q-.3-1.3-.7-2.7c-1.6-5.4-3-8.7-8.1-11.6q-3.7-1.9-7.5-3.6c1.3-2.7 2.6-2.8 5.3-3.9 5-2.1 5-2.1 8.7-6.1.9-2.6 1.7-5.2 2.4-7.9.6-2.1.6-2.1 1.6-3.1z" fill="#4abcdf"/><path d="M941 295c2.2 2.2 3 4 4.3 6.9 2.2 4.5 4.1 6.8 8.7 9.1l3.4 1.8q1.3.6 2.6 1.2c-1.3 2.5-2.2 2.7-4.7 3.8-8.1 3.9-10.5 10.2-13.3 18.2q-1 0-2 0-.3-1.1-.7-2.2c-3-8.8-6.2-13.9-14.3-18.8 1.6-1.6 3.1-3.1 4.9-4.5 5.5-4.4 8.4-9 11.1-15.5z" fill="#4cbde0"/><path d="M78 192q1 0 2 0 .1.9.3 1.8c1 5.8 2.3 9.1 6.7 13.2 2.3 1.3 4.5 2.1 7 3q0 1 0 2c-1.7 1.3-1.7 1.3-3.9 2.6q-1 .7-2.2 1.4c-1.9 1-1.9 1-3.9 1-2.1 3.8-3.5 7.9-5 12-2-1-2-1-2.7-2.8q-.4-1.2-.7-2.3c-2.6-6.3-7.8-8.8-13.6-11.9l1-3c1.7-.8 1.7-.8 3.8-1.4 4.1-1.4 6-2.8 8.2-6.6 1.1-3 2.1-5.9 3-9z" fill="#4bbbdf"/><path d="M237.4 88c3.5 1.3 5.3 3.3 7.9 6.1q1.3 1.3 2.7 2.7l2 2.2c-1.5 3.6-3.6 5.9-6.4 8.7-1.1 1.2-1.1 1.2-2.3 2.4-3.6 3-3.6 3-6.3 2.9-2.2-1.7-3.9-3.2-5.8-5.2l-1.5-1.5c-3-3-3.7-3.9-3.7-8.3 1.6-1.8 1.6-1.8 3.8-3.6 3-2.4 3-2.4 5.6-5.2 1.6-1.2 1.6-1.2 4-1.2z" fill="#4dbde0"/><path d="M248 500c2.3 3.4 2.5 5.4 2.9 9.4q.2 1.7.3 3.5c-.2 3.1-.2 3.1-2.1 5.4-4.4 3.5-8.7 3.3-14.1 2.7-2.6-1.6-2.6-1.6-4-4-.6-4.2-.3-6.4 1.6-10.2 4.5-5.3 8.3-7.8 15.4-6.8z" fill="#042c7a"/><path d="M772.5 499.3c5.4.2 8.8 3.5 12.5 7.2 2 2.5 2.7 3.7 2.9 6.9-.9 3.6-.9 3.6-2.3 5.5-5.3 2.2-9.8 2.8-15.1.7-2.5-1.6-2.5-1.6-3.5-2.6q-.2-3.4-.2-6.9 0-1.8 0-3.8c.3-4.7 1-6 5.7-7.1z" fill="#042a7b"/><path d="M215.4 497.6c2.6.4 2.6.4 4.9 2.3 2.4 4.4 2.6 8.2 1.7 13.1-2 3.1-2 3.1-5 5-6.3.9-10.7-.5-16-4-2.1-2-2.1-2-3-4 .3-3 .8-3.8 3-6 3.4-.2 5.8-.1 9 1q.2-1.2.4-2.4c.8-3.3 1.5-4.4 5-5z" fill="#002f77"/><path d="M801.1 497.6c2.9.4 2.9.4 4.9 2.4v5q.9-.3 1.9-.5 1.2-.4 2.4-.7 1.2-.3 2.4-.7c2.3-.1 2.3-.1 4.1 1.2 1.2 1.7 1.2 1.7 1.8 4.1-.9 3.9-3.4 5.5-6.6 7.6-4 2.2-7.5 2.6-12 2-2.9-1.8-2.9-1.8-5-5-.7-4.7-1.1-9.1 1.3-13.3 1.7-1.7 1.7-1.7 4.8-2.1z" fill="#04297a"/><path d="M908 786q1 0 2 0 .3.9.6 1.8c2.5 6.8 6.1 9.7 12.4 13.2q-.9.7-1.8 1.3c-7.5 5.4-7.5 5.4-11.2 13.7-3-1-3-1-4-2.7q-.5-1-.9-2.1c-1.6-3.4-3.1-5.8-6.1-8.2q-1.5-.5-3-1 0-1 0-2 1.6-.7 3.2-1.4c5-2.8 6.7-7.5 8.8-12.6z" fill="#4bbdde"/><path d="M951 475c2.9 1.8 4.5 3 6 6 0 4.3-.3 7.9-2.6 11.6-3.4 2-6.5 2.2-10.4 1.4-3.3-1.9-5.3-3.3-6.8-6.9-.8-4.1-.3-5.8 1.7-9.6 3.4-3.5 7.5-3.5 12.1-2.5z" fill="#3dbdbf"/><path d="M733 899c4 .5 6 2.5 8.8 5.3q1.2 1.2 2.5 2.4c1.7 2.3 1.7 2.3 1.6 4.4-1.4 2.9-3.6 4.7-5.9 6.9q-1 1.2-2.1 2.4c-1.9 1.6-1.9 1.6-3.7 1.5-3-1.2-4.7-3.1-7-5.5q-1.1-1.2-2.4-2.5-.9-.9-1.8-1.9c1.5-3.5 3.6-6 6.1-8.8q1.1-1.1 2.2-2.4c.9-.9.9-.9 1.7-1.8z" fill="#4cbdde"/><path d="M822.8 517.3q1.1.3 2.2.7.5 2.5 1 5 1.4-.3 2.8-.6c3.2-.4 3.2-.4 6.2 1.6.6 3.9.1 5.8-1.7 9.3-2.5 2.9-3.6 3.9-7.3 4.7-6-.3-6-.3-8.7-2.1-1.9-2.8-1.7-5-1.7-8.3q-.1-1.7-.1-3.5c.7-4.4 2.5-7.3 7.3-6.8z" fill="#072b7a"/><path d="M194.9 518.8c3.1.2 3.1.2 4.8 1.4 1.8 2.5 1.7 4.2 1.6 7.2q0 1.5 0 2.9c-.3 2.8-.8 4.4-2.3 6.7-3.5 2.4-4.8 2.5-9 2-3.1-1.7-5.3-3.1-7.4-5.9-.8-2.8-.8-5.2-.6-8.1 1-1 1-1 4.6-1.1q1.7.1 3.4.1.2-1 .4-1.9c.9-3.2 1.1-3.1 4.5-3.3z" fill="#052b7c"/><path d="M951 669c2.4.9 2.4.9 4 3 1 3.1 1.3 5.8 1 9-2.9 3.7-5.1 5.8-9.8 6.4-3.2-.4-3.2-.4-6.1-2.4-2.3-3.3-2.9-5.1-2.6-9.1 1.8-7.2 7.3-7.7 13.5-6.9z" fill="#2cbfaf"/><path d="M63 342c2 2 2 2 3.4 4.9 2.2 4.2 4.1 6.6 8.6 8.1q0 1 0 2-3 2-6 4-1.3 1.4-2.6 2.8C64 366 64 366 62 366.2c-3-1.8-4.8-4.5-7-7.2-2.1-1.4-2.1-1.4-4-2q0-1 0-2 1.3-.8 2.6-1.6c4.4-2.7 6.8-7 9.4-11.4z" fill="#4bbcdf"/><path d="M368.5 63.4c3.5.6 3.5.6 6.4 2.6 2.3 3.3 2.9 5.1 2.6 9.1-.9 3.4-2.6 4.9-5.5 6.9-4 .7-5.4.4-8.8-1.9-2.8-2.7-3.1-3.5-3.6-7.4.4-3.7.4-3.7 2.5-6.6 2.9-2.1 2.9-2.1 6.4-2.7z" fill="#3cbdbd"/><path d="M584 130c2.9 2.1 2.9 2.1 5 5 .7 4.1.4 6.2-1.5 9.9-2.9 2.4-4.8 2.8-8.5 2.6-3.5-.9-5-2.6-7-5.5-.7-4-.4-5.4 1.9-8.8 3.3-3.4 5.4-3.7 10.1-3.2z" fill="#3dbcbe"/><path d="M306 928c2.6 1.6 2.6 1.6 4 4 .7 4.4.5 6.3-2.1 9.9-2.9 2.1-2.9 2.1-6.4 2.7-4.5-.8-5.9-1.9-8.5-5.6-.6-3.9-.6-6 1.4-9.4 3.8-2.4 7.3-2.4 11.6-1.6z" fill="#3abcbd"/><path d="M78 722c2.6 1.4 2.6 1.4 4 4 .3 4.2 0 7.8-2.7 11.1-3.1 1.2-5 1.4-8.3.9-2.9-2.1-2.9-2.1-5-5-.6-4-.6-6 1.5-9.4 3.5-2.2 6.4-2.4 10.5-1.6z" fill="#40bcd8"/><path d="M909 159c2.6.9 3.7 1.6 5.3 3.7 1 3.4.6 5.9-.3 9.3-2.4 2.8-3.8 3-7.5 3.4-3.5-.4-3.5-.4-5.9-1.9-2.2-3.5-2.4-6.5-1.6-10.5 2.7-4.2 5.2-4.6 10-4z" fill="#4bbcdf"/><path d="M215.4 497.6c2.6.4 2.6.4 4.9 2.3 2.4 4.4 2.6 8.2 1.7 13.1-2 3.1-2 3.1-5 5-6.3.9-10.7-.5-16-4-2.1-2-2.1-2-3-4 .3-3 .8-3.8 3-6 3.4-.2 5.8-.1 9 1q.2-1.2.4-2.4c.8-3.3 1.5-4.4 5-5zm3.6 5.4q-.5 1.5-1 3-3 0-6 0 0 1.5 0 3-.7-.7-1.5-1.5c-3.6-2.2-6.3-1.7-10.5-1.5-.4 2.3-.4 2.3 0 5 3.9 3.9 7.8 5.9 13.3 6.1 1.3 0 1.3 0 2.7-.1q1-2.5 2-5 1 0 2 0v-9q-.5 0-1 0z" fill="#06287c"/><path d="M219 500c3.2 3.2 3.4 3.6 3.5 7.9-.1 3.7-.4 5-2.5 8.2-3.8 2.4-6.7 2.8-11 1.9-3.9-1.4-7.1-3.1-10.1-6-.9-2-.9-2-.6-4.3.4-.8.4-.8.7-1.7q.5 0 1 0 .2 1.4.5 2.8c1.8 3.9 3.5 4.8 7.4 6.5 2.8.9 5.2 1 8.1.7q1-2 2-4 1 0 2 0l-1-12z" fill="#102183"/><path d="M46 569q0 1 0 2-1.1.4-2.3.8c-2.6 1.1-4.5 2.4-6.7 4.2l9 4c-2 1-2 1-4.8.1l-3.3-1.4q-1.6-.7-3.2-1.4C32 576 32 576 31 574q3.2-1.3 6.4-2.5 1.7-.7 3.6-1.4c3-1.1 3-1.1 5-1.1z" fill="#40b8df"/><path d="M262 640c3.5 1.5 6 3.6 8.8 6.2 3.8 3.5 7.7 7 11.8 10.3 1.4 1.5 1.4 1.5 1.4 4.5q-.6-.6-1.1-1.2c-4.5-4.6-9.3-8.6-14.3-12.6-2.6-2.2-4.6-4.5-6.6-7.2z" fill="#edb209"/><path d="M802 124q2 2 4 4 1-1 2-2l-1 12q-1.5 0-3 0l-2-14z" fill="#3cb6dd"/><path d="M690 425c2.9 1.5 3.1 3.5 4.3 6.6 2.2 5.5 4.8 9.9 8.7 14.4-6.4-3-9.4-8.7-12-15q0-1 0-2-1 0-2 0 .5-2 1-4z" fill="#0b1e86"/><path d="M57 594q2 1.5 4 3 1.5-1 3-2l-2 11q-1 0-2 0-.8-2.2-1.5-4.3-.4-1.2-.8-2.4C57 597 57 597 57 594z" fill="#3db6dd"/><path d="M844 541c1.3 3.9.2 6.1-1 10q-1 0-2 0-.3 1.3-.7 2.7c-1.5 3.7-3.3 5.6-6.3 8.3 1.7-4.6 3.9-8.9 6.1-13.3q.6-1.1 1.2-2.3 1.3-2.7 2.7-5.4z" fill="#091f86"/><path d="M335 793q1 2 2 4l-30-1q0-.5 0-1h28q0-1 0-2z" fill="#153171"/><path d="M234 521q1.5.5 3 1-1 0-2 0 .5 1.5 1 3l-2 3-16-2q0-.5 0-1h14q1-2 2-4z" fill="#f8ad02"/><path d="M401 652q1 .5 2 1-.6.6-1.3 1.3c-4.5 4.3-8.6 8.9-12.7 13.7q-1-.5-2-1l14-15z" fill="#2dd1af"/><path d="M61 544q1 .5 2 1c.4 2.3.4 2.3.6 5.1q.1 1.3.3 2.7 0 1.1.1 2.2-.5-2-1-4c-2 .3-2 .3-4 1q-.5 1-1 2c.5-3.7 1.1-6.7 3-10z" fill="#3fb7de"/><path d="M844 523q1 .5 2 1c.2 6.1 0 11.2-2 17q-.5 0-1 0 0-3.1-.1-6.2 0-1.7 0-3.5c.1-2.9.4-5.5 1.1-8.3z" fill="#f9aa02"/><path d="M246 500q0 1 0 2-1.5.6-3.1 1.3c-3.4 1.4-6.6 3-9.9 4.7 2-5.7 7-8.7 13-8z" fill="#042286"/><path d="M638 300h10q0 .5 0 1-3 1-6 2l5 5q-.5 1-1 2-2-1.9-4-3.9l-2.3-2.2C638 302 638 302 638 300z" fill="#f2b005"/><path d="M380 572q1.5.5 3 1 0 1.5 0 3-2.5 1.6-5 3l-2 3q-1-.5-2-1l6-9z" fill="#f5ae0b"/><path d="M248 629c3.5 1.5 6 3.6 8.8 6.1 1.1 1.1 1.1 1.1 2.4 2.2q.9.8 1.8 1.7-1 1-2 2c-3.9-3.8-7.5-7.8-11-12z" fill="#0c1e87"/><path d="M676 496c1.4 4.1.2 5.8-1.4 9.7q-.7 1.7-1.5 3.6-.5 1.3-1.1 2.7-1-.5-2-1 .5-2.5 1-5 1 0 2 0l3-10z" fill="#091b67"/><path d="M519 468l3 2q-.3 1.1-.6 2.2c-.5 3.2.2 4.9 1.6 7.8-4.9-4.2-4.9-4.2-5.4-8.3.4-2.7.4-2.7 1.4-3.7z" fill="#ecae0e"/><path d="M726 437q1 .5 2 1c-3.1 3.9-6 7-10 10q-1-.5-2-1l10-10z" fill="#072085"/><path d="M420 393q1 .5 2 1c-1.3 2.9-2.7 4.9-5 7q-1.5-.5-3-1l6-7z" fill="#f4ac0d"/><path d="M803 779c-1 2.7-1.5 3.8-4.2 5q-1.2.4-2.4.8l-2.5.7-1.9.5c6.7-7 6.7-7 11-7z" fill="#061e6a"/><path d="M802 497c3.3.6 4.9 1.5 7 4q.5 1 1 2 1 .5 2 1-3 .5-6 1l-.9-2.9c-.9-3.2-.9-3.2-3.1-5.1z" fill="#e7a50d"/><path d="M750 476q1 0 2 0c-1.4 3.2-2.9 5-5.6 7.3-1 .7-1 .7-1.9 1.5q-.8.6-1.5 1.2c1.8-3.9 4.1-6.8 7-10z" fill="#081f6b"/><path d="M734 427q.5 2 1 4-1 .4-1.9.8c-2.4 1.1-2.4 1.1-3.1 4.2q-1 0-2 0 .5-2 1-4 1 0 2 0l.9-1.9c1.1-2.1 1.1-2.1 2.1-3.1z" fill="#072383"/><path d="M746 641c4 0 4 0 6 1q-2.4 2.6-5 5-1 0-2 0 .5-3 1-6z" fill="#faad03"/><path d="M216 195q-3 1-6 2 0 1.5 0 3-3 .5-6 1c7.2-7.6 7.2-7.6 12-6z" fill="#071d69"/><path d="M943 327c1.3 3.8.4 5.4-1 9q-1 0-2 0l-1-7q1.5 0 3 0 .5-1 1-2z" fill="#3bb7dd"/><path d="M177 876l6 1q0 1 0 2c-4.6 2.1-4.6 2.1-8 1q1-.5 2-1 0-1.5 0-3z" fill="#39b5dc"/><path d="M699 536q1 .5 2 1c-3.2 3.5-5.2 5.6-10 6 2.6-2.6 4.9-4.9 8-7z" fill="#071c68"/><path d="M825 516q-.5 1-1 2l-2.9.4c-3.2.3-3.2.3-5 2.7q-.5.9-1.1 1.9 0-2.5 0-5c3.4-2.1 6.1-2.2 10-2z" fill="#f7ad02"/><path d="M415 489q1.5.5 3 1 0 1 0 2 1.5.5 3 1 .5 1.5 1 3-1.5 0-3 0c-4-4.3-4-4.3-4-7z" fill="#11277e"/><path d="M473 277l-4 2q0-1 0-2l-7 1c3.5-3.5 6.9-3.6 11-1z" fill="#f5b20b"/><path d="M799 592q1 .5 2 1c-1.4 3.2-2 4-5 6 .8-4.8.8-4.8 3-7z" fill="#eda308"/><path d="M548 553q1 1.5 2 3l-6 4q-.5-1.5-1-3l5-4z" fill="#f4af0c"/><path d="M262 640c3.8 1.7 6.2 4 9 7-3 0-3 0-4.6-1.5q-.8-1-1.6-2-.8-1-1.6-2-.6-.7-1.2-1.5z" fill="#e4aa0c"/><path d="M243 521c-2.4 1.9-4.1 3-7 4q-.5-1.5-1-3c2.7-1.4 5-1.1 8-1zm-9 4q1 0 2 0-.5 1-1 2-.5-1-1-2z" fill="#e19110"/><path d="M365 317q1 2 2 4l-5 3c0-3.5.8-4.4 3-7z" fill="#082384"/></svg>