<svg xmlns="http://www.w3.org/2000/svg" width="1024" height="1536" xmlns:v="https://vecta.io/nano"><path d="M331.1 113.6c7.4 4.6 14.2 9.8 20.9 15.4q1.7 1.4 3.4 2.9c12.3 10.2 23.8 21.2 35.1 32.5q1.1 1.1 2.2 2.2c4.1 4 7.9 8.2 11.6 12.5 2.6 3 5.4 5.8 8.1 8.7a241.37 241.37 0 0 1 13.2 15.3l11.1 12.9q.8.9 1.6 1.8.7.8 1.4 1.7c1.3 1.5 1.3 1.5 3.3 4.5q8.5-.8 17-1.7 2.8-.2 5.7-.5 4.2-.4 8.4-.8 1.2-.2 2.5-.3l2.5-.2q1.2-.1 2.4-.3 2.6-.2 5.1-.5c7.5-.8 14.9-1 22.5-1q1 0 2.1 0c15.6-.1 31 1.4 46.4 3.1q2.4.2 4.8.5c3.5.3 6.9.7 10.3 1.3 2.8.4 5.4.7 8.3.4 2.7-2.1 3.7-3.2 5.4-6q1.4-2 2.8-3.9l1.3-2.1c2.5-3.4 5.2-6.5 8-9.6q.8-1 1.7-1.9c4.3-5 8.7-9.8 13.2-14.6q3-3.3 5.9-6.7c8.7-9.9 17.6-19.6 27.5-28.2 2.3-2.1 4.5-4.3 6.6-6.5 4.4-4.4 9-8.3 13.9-12.1q2.9-2.4 5.8-4.7c15.2-12.4 36.5-28.4 57.3-27.2 5.5 1.1 9 3.9 12.8 7.8 3.9 5.9 6.5 12 8.4 18.8q.3 1.2.6 2.3c4.9 19 6 39 6 58.5q0 2.1 0 4.2 0 4.4 0 8.8 0 4.4 0 8.8c.1 21.1-.7 42.2-2.2 63.3q-.1 1.4-.2 2.8-.5 7.3-1.2 14.6-.1 1.1-.2 2.1c-1.6 18.5-3.3 37.2-6.4 55.5-2 15.6 2.8 28.2 8.7 42.4 2.6 6.3 5 12.7 7.4 19.2q.6 1.6 1.2 3.3 1.9 5 3.7 10.1.6 1.7 1.3 3.5c4.7 12.7 9.2 25.6 13.3 38.5q.5 1.5 1.1 3.1c2.8 9.1 4.3 18.7-.3 27.4-5.7 9.8-12 18.8-19 27.7q-2.3 3-4.7 6.1-10.9 14.1-22.3 28-1.9 2.3-3.8 4.7-6.7 8.1-13.5 16.2-5.5 6.4-10.8 13c-1.7 2.1-3.4 3.9-5.2 5.8-.7.8-.7.8-1.4 1.5q-2.1 2.2-4.1 4.3c-1.8 3.7-1.7 4-.4 7.7q.4 1.3.9 2.7.4 1.4.9 2.8.9 2.7 1.7 5.4 1 2.9 2 5.8 1 3.2 2.1 6.4.6 1.7 1.1 3.4c20.9 63.5 41.3 130.3 41.3 197.7q0 1.2 0 2.4c0 14.4-.7 28.6-2.2 42.9a15.87 15.87 0 0 0 2 .7c22.6 9.7 35.1 29.1 45.2 50.5q1 2.3 2.2 4.5c8.8 17.9 11.6 37.8 14.6 57.3q2.1-2.3 4.2-4.7 1.2-1.3 2.4-2.6c15-17.1 24.5-37.7 29-59.8q.5-2.4 1.1-4.8c7.1-33.7-3.8-72.7-22.2-101.1q-1.1-1.7-2.3-3.4c-2.3-3.7-3.8-6.2-3.5-10.6.9-4.1 3-6.4 6.3-9 4.2-2.1 8.5-1.5 12.8-.1 12.7 5 22.4 12.7 32.2 22.1q1.2 1 2.3 2.1c30.8 28.7 45.2 78.8 46.8 119.7.4 18.7-1.7 36-6.1 54.2q-.3 1.1-.5 2.2c-6.7 28.1-20.7 53.1-39.5 74.8-1 1.2-1 1.2-2 2.3q-2.5 2.9-5 5.7c-1.2 1.4-1.2 1.4-2.5 2.8-24.4 27.3-56.9 47.4-92.5 56.2q-1 0-2 0-.4.8-.7 1.6c-1.6 3-3.5 5.5-5.4 8.1q-1.1 1.5-2.2 3-.8 1.2-1.7 2.3 1.1.2 2.2.4c12.7 2.8 25.1 11.1 34.8 19.6q1 .8 2 1.7c9.5 8.9 17.2 24 18.2 36.9q.1 4.6.1 9.2a31.08 31.08 0 0 0 .1 3.1c0 12.7-4 23.2-12.4 32.8-12.4 11.6-30.4 14.5-46.7 14.4q-1.5 0-3 0-3.2 0-6.4 0-4.8 0-9.7 0-3.1 0-6.2 0h-2.9q-1.4 0-2.8 0h-2.4c-1.9-.1-1.9-.1-3.9-1.1q-.3 1.4-.6 2.9c-2.3 8-8.8 16.1-15.4 21.1-11.2 5.9-22.8 6.3-35.2 6.3q-2.3 0-4.7.1-4.9 0-9.8 0-6.3 0-12.5 0-4.9.1-9.8.1-2.3 0-4.6 0c-16.5.1-31.4-3.7-43.8-15.3-7.3-8-13.6-19.1-13.6-30.2H452l-1 9c-3.6 13.9-13.2 23-25.1 30.3-10.5 5.7-21.7 6.2-33.4 6.2q-2.4 0-4.7 0-5 0-9.9 0-6.3 0-12.6.1-4.9 0-9.8 0-2.3 0-4.6 0c-12.6.2-25.8-1.1-36-9.2-6-6.1-10.4-13.2-12.9-21.4q-1 .5-2 1-2.3.2-4.6.2-1.4 0-2.8 0-1.6 0-3.2 0-1.6.1-3.2.1-3.4 0-6.8 0-5.2 0-10.3.1c-18.2.1-35.3-1.4-50.5-12.7-9-9.3-13.1-20.4-13.2-33.3q.1-1.7.1-3.3 0-1.7 0-3.5c.2-8.2 1-15.1 4.5-22.6l1.5-3.3c9.8-19.7 26.9-30.3 46.4-39 2.1-.7 2.1-.7 5.1-.7q-1.1-1.5-2.3-3c-15.9-20.9-29.2-43.1-37.7-68q-.3-1-.7-2c-16.1-46.4-15.5-104 5.6-148.7 9.7-19.9 21.6-38.4 41.3-49.6 2.5-1.5 4.1-2.5 5.8-4.7.2-2 .2-2-.3-4.1-.7-4.8-.9-9.4-.9-14.2q-.1-1.3-.1-2.7c-.2-24.6 1-48.6 4.3-73 .2-1.1.2-1.1.3-2.3 6.7-48.9 20.8-96.1 35.9-143q.5-1.5 1-3 2.2-7.1 4.7-14.1.4-1.2.8-2.5.8-2.3 1.7-4.6c1.7-4.8 1.7-4.8.6-9.5-1.8-2.5-1.8-2.5-4-5.1q-1.2-1.4-2.5-2.9-1.2-1.5-2.5-3-2.2-2.7-4.4-5.4-4.9-6-10-11.9c-4.3-5-8.4-10.2-12.4-15.4-3.2-4.1-6.5-8-10-11.9-6.3-7.3-11.9-14.9-17.6-22.6q-3.8-5.1-7.8-10.1c-8.8-11.1-17.1-23-15.8-37.7.7-3.6 1.7-7 2.7-10.4l1-3.1c7.9-25.7 17.2-50.9 26.9-76q.9-2.4 1.9-4.9c1.2-3.3 2.5-6.5 3.9-9.7 5.9-14.2 1.9-31.2.2-46-2.1-19-4.1-38.1-5.4-57.2q-.1-1.2-.2-2.5-.5-8.1-1-16.2-.1-1.2-.1-2.4c-.8-13.3-1.1-26.5-1-39.8q0-1.5 0-3c.1-58.8.1-58.8 8.1-83.8.4-1.5.4-1.5.9-3 2.6-8.3 7-14.4 14.4-19.1 15.7-3.9 29.6 4 42.8 11.7z" fill="#fd8800"/><path d="M331.1 113.6c7.4 4.6 14.2 9.8 20.9 15.4q1.7 1.4 3.4 2.9c12.3 10.2 23.8 21.2 35.1 32.5q1.1 1.1 2.2 2.2c4.1 4 7.9 8.2 11.6 12.5 2.6 3 5.4 5.8 8.1 8.7a241.37 241.37 0 0 1 13.2 15.3l11.1 12.9q.8.9 1.6 1.8.7.8 1.4 1.7c1.3 1.5 1.3 1.5 3.3 4.5q8.5-.8 17-1.7 2.8-.2 5.7-.5 4.2-.4 8.4-.8 1.2-.2 2.5-.3l2.5-.2q1.2-.1 2.4-.3 2.6-.2 5.1-.5c7.5-.8 14.9-1 22.5-1q1 0 2.1 0c15.6-.1 31 1.4 46.4 3.1q2.4.2 4.8.5c3.5.3 6.9.7 10.3 1.3 2.8.4 5.4.7 8.3.4 2.7-2.1 3.7-3.2 5.4-6q1.4-2 2.8-3.9l1.3-2.1c2.5-3.4 5.2-6.5 8-9.6q.8-1 1.7-1.9c4.3-5 8.7-9.8 13.2-14.6q3-3.3 5.9-6.7c8.7-9.9 17.6-19.6 27.5-28.2 2.3-2.1 4.5-4.3 6.6-6.5 4.4-4.4 9-8.3 13.9-12.1q2.9-2.4 5.8-4.7c15.2-12.4 36.5-28.4 57.3-27.2 5.5 1.1 9 3.9 12.8 7.8 3.9 5.9 6.5 12 8.4 18.8q.3 1.2.6 2.3c4.9 19 6 39 6 58.5q0 2.1 0 4.2 0 4.4 0 8.8 0 4.4 0 8.8c.1 21.1-.7 42.2-2.2 63.3q-.1 1.4-.2 2.8-.5 7.3-1.2 14.6-.1 1.1-.2 2.1c-1.6 18.5-3.3 37.2-6.4 55.5-2 15.6 2.8 28.2 8.7 42.4 2.6 6.3 5 12.7 7.4 19.2q.6 1.6 1.2 3.3 1.9 5 3.7 10.1.6 1.7 1.3 3.5c4.7 12.7 9.2 25.6 13.3 38.5q.5 1.5 1.1 3.1c2.8 9.1 4.3 18.7-.3 27.4-5.7 9.8-12 18.8-19 27.7q-2.3 3-4.7 6.1-10.9 14.1-22.3 28-1.9 2.3-3.8 4.7-6.7 8.1-13.5 16.2-5.5 6.4-10.8 13c-1.7 2.1-3.4 3.9-5.2 5.8-.7.8-.7.8-1.4 1.5q-2.1 2.2-4.1 4.3c-1.8 3.7-1.7 4-.4 7.7q.4 1.3.9 2.7.4 1.4.9 2.8.9 2.7 1.7 5.4 1 2.9 2 5.8 1 3.2 2.1 6.4.6 1.7 1.1 3.4c20.9 63.5 41.3 130.3 41.3 197.7q0 1.2 0 2.4c0 14.4-.7 28.6-2.2 42.9a15.87 15.87 0 0 0 2 .7c22.6 9.7 35.1 29.1 45.2 50.5q1 2.3 2.2 4.5c8.8 17.9 11.6 37.8 14.6 57.3q2.1-2.3 4.2-4.7 1.2-1.3 2.4-2.6c15-17.1 24.5-37.7 29-59.8q.5-2.4 1.1-4.8c7.1-33.7-3.8-72.7-22.2-101.1q-1.1-1.7-2.3-3.4c-2.3-3.7-3.8-6.2-3.5-10.6.9-4.1 3-6.4 6.3-9 4.2-2.1 8.5-1.5 12.8-.1 12.7 5 22.4 12.7 32.2 22.1q1.2 1 2.3 2.1c30.8 28.7 45.2 78.8 46.8 119.7.4 18.7-1.7 36-6.1 54.2q-.3 1.1-.5 2.2c-6.7 28.1-20.7 53.1-39.5 74.8-1 1.2-1 1.2-2 2.3q-2.5 2.9-5 5.7c-1.2 1.4-1.2 1.4-2.5 2.8-24.4 27.3-56.9 47.4-92.5 56.2q-1 0-2 0-.4.8-.7 1.6c-1.6 3-3.5 5.5-5.4 8.1q-1.1 1.5-2.2 3-.8 1.2-1.7 2.3 1.1.2 2.2.4c12.7 2.8 25.1 11.1 34.8 19.6q1 .8 2 1.7c9.5 8.9 17.2 24 18.2 36.9q.1 4.6.1 9.2a31.08 31.08 0 0 0 .1 3.1c0 12.7-4 23.2-12.4 32.8-12.4 11.6-30.4 14.5-46.7 14.4q-1.5 0-3 0-3.2 0-6.4 0-4.8 0-9.7 0-3.1 0-6.2 0h-2.9q-1.4 0-2.8 0h-2.4c-1.9-.1-1.9-.1-3.9-1.1q-.3 1.4-.6 2.9c-2.3 8-8.8 16.1-15.4 21.1-11.2 5.9-22.8 6.3-35.2 6.3q-2.3 0-4.7.1-4.9 0-9.8 0-6.3 0-12.5 0-4.9.1-9.8.1-2.3 0-4.6 0c-16.5.1-31.4-3.7-43.8-15.3-7.3-8-13.6-19.1-13.6-30.2H452l-1 9c-3.6 13.9-13.2 23-25.1 30.3-10.5 5.7-21.7 6.2-33.4 6.2q-2.4 0-4.7 0-5 0-9.9 0-6.3 0-12.6.1-4.9 0-9.8 0-2.3 0-4.6 0c-12.6.2-25.8-1.1-36-9.2-6-6.1-10.4-13.2-12.9-21.4q-1 .5-2 1-2.3.2-4.6.2-1.4 0-2.8 0-1.6 0-3.2 0-1.6.1-3.2.1-3.4 0-6.8 0-5.2 0-10.3.1c-18.2.1-35.3-1.4-50.5-12.7-9-9.3-13.1-20.4-13.2-33.3q.1-1.7.1-3.3 0-1.7 0-3.5c.2-8.2 1-15.1 4.5-22.6l1.5-3.3c9.8-19.7 26.9-30.3 46.4-39 2.1-.7 2.1-.7 5.1-.7q-1.1-1.5-2.3-3c-15.9-20.9-29.2-43.1-37.7-68q-.3-1-.7-2c-16.1-46.4-15.5-104 5.6-148.7 9.7-19.9 21.6-38.4 41.3-49.6 2.5-1.5 4.1-2.5 5.8-4.7.2-2 .2-2-.3-4.1-.7-4.8-.9-9.4-.9-14.2q-.1-1.3-.1-2.7c-.2-24.6 1-48.6 4.3-73 .2-1.1.2-1.1.3-2.3 6.7-48.9 20.8-96.1 35.9-143q.5-1.5 1-3 2.2-7.1 4.7-14.1.4-1.2.8-2.5.8-2.3 1.7-4.6c1.7-4.8 1.7-4.8.6-9.5-1.8-2.5-1.8-2.5-4-5.1q-1.2-1.4-2.5-2.9-1.2-1.5-2.5-3-2.2-2.7-4.4-5.4-4.9-6-10-11.9c-4.3-5-8.4-10.2-12.4-15.4-3.2-4.1-6.5-8-10-11.9-6.3-7.3-11.9-14.9-17.6-22.6q-3.8-5.1-7.8-10.1c-8.8-11.1-17.1-23-15.8-37.7.7-3.6 1.7-7 2.7-10.4l1-3.1c7.9-25.7 17.2-50.9 26.9-76q.9-2.4 1.9-4.9c1.2-3.3 2.5-6.5 3.9-9.7 5.9-14.2 1.9-31.2.2-46-2.1-19-4.1-38.1-5.4-57.2q-.1-1.2-.2-2.5-.5-8.1-1-16.2-.1-1.2-.1-2.4c-.8-13.3-1.1-26.5-1-39.8q0-1.5 0-3c.1-58.8.1-58.8 8.1-83.8.4-1.5.4-1.5.9-3 2.6-8.3 7-14.4 14.4-19.1 15.7-3.9 29.6 4 42.8 11.7zM296 122c-12.2 24.2-10.4 56-10.3 82.3q0 2 0 4c.1 42.7 3.7 84.7 9 127q.7 6.2 1.5 12.3.2 2 .4 4c1.9 17.2-4.4 32.3-10.4 48.1q-2.3 6.1-4.6 12.2-1.1 3.1-2.3 6.1-4.9 13.3-9.7 26.7-.8 2.2-1.6 4.4-2.2 6-4.3 12-.7 2-1.4 3.9-1.1 3-2.2 6.1-.6 1.7-1.2 3.5c-2 7.6-.7 12.8 3.1 19.4 9.5 14.5 20.8 27.8 31.8 41.1q3.7 4.5 7.4 9.1c3.5 4.4 7.1 8.7 10.7 13q4.1 4.8 8 9.7c3.8 4.8 7.7 9.3 11.6 13.9q5.7 6.6 11.3 13.5 2.4 2.9 4.8 5.7c6.1 6.9 11.5 13.6 11.6 23.1q-.1 1.4-.2 2.9c-2.6 1-4.4 1.3-7 .2q-2.1-1.1-4.1-2.3c-2-1.1-2-1.1-4.9-.9-26.3 72.4-47.8 146.5-48.3 224.1q0 1.7 0 3.4c.1 19.8 3.6 39.1 7.2 58.5q.7 4.1 1.4 8.2 1.2 6.4 2.4 12.8 3.8 21.2 7.5 42.4 1.1 6.4 2.2 12.7 3.5 19.7 7 39.3l14.6 82.4q3.9 21.3 7.8 42.7.6 3.8 1.3 7.6 1 5.2 1.9 10.5.3 1.6.6 3.2c.9 5.1 1.7 10.1 2.4 15.2q.2 1.5.4 3c.4 4.6.6 7.7-2.3 11.4q-2.6 2.2-5.3 4.3c-12.3 10-21.6 26.8-24.8 42.3-.9 8.4.4 18.1 5.5 25 3.9 4 9.1 5.7 14.5 7q2 0 4 0 .1-1.3.1-2.6.3-4.8.6-9.6.1-2 .2-4.1c1.2-23.1 1.2-23.1 7.1-29.7 2.7-.8 5.2-.8 8-1 2.4 4.6 2.4 9 2 14q-.5.5-1 1c-1.1 7.7-1.1 15.5-1.1 23.2q0 1.3 0 2.6c-.4 3.9-.4 3.9 1.1 7.2q2.2.1 4.4.1 1.3 0 2.7 0h2.8q1.4 0 2.9 0 1.3 0 2.7 0 1.2 0 2.5 0c2.1 0 2.1 0 4-1.1q0-.9 0-1.8.2-4 .3-8.1 0-1.3.1-2.8c.6-15.3.6-15.3 4.6-19.3q.5-2.4.9-4.8c.7-3.6 1.5-6.8 3.1-10.2 3.4-.2 3.4-.2 7 0 4.7 7 1.7 18.6 1 26.7-.6 6.8-1.1 13.5-1 20.3 8.8.7 17.3-.8 24.4-6.4 13.4-13.7 10-36.8 10-54.6q0-5.8 0-11.7 0-10.1 0-20.2 0-14.7 0-29.3 0-23.8 0-47.6 0-1.4 0-2.8 0-15.9 0-31.8 0-5.7 0-11.5v-2.9q0-23.7.1-47.4 0-14.6 0-29.3 0-10 0-20 0-5.7 0-11.5 0-6.2 0-12.5 0-1.8 0-3.7v-3.4-2.9c.7-3.3 1.8-4.5 4.5-6.5 3.2-.5 5-.7 8 0 2.7 2.2 4.5 3.9 6 7q.1 2.5.1 5 0 1.6.1 3.2 0 1.8 0 3.6 0 1.9 0 3.8 0 5.2 0 10.4 0 5.6 0 11.2.1 9.8.1 19.5 0 14.1.1 28.1 0 22.8.1 45.7.1 22.1.1 44.3 0 1.4 0 2.8.1 6.8.1 13.7.1 56.8.3 113.7h118v-27.9q.1-44.2.2-88.4 0-6.9.1-13.7 0-1.4 0-2.8 0-22.1.1-44.3 0-22.7 0-45.4.1-14 .1-28 0-9.6 0-19.2.1-5.6.1-11.1 0-6 0-12v-3.6q0-1.6 0-3.2 0-1.4 0-2.8c.5-3.2 1.5-5 3.4-7.6 3.8-2.5 5.6-2.5 10-2 2.6 2.2 4.5 3.9 6 7q.1 2.6.1 5.1 0 1.7 0 3.3v3.7q0 1.9 0 3.9.1 5.4.1 10.7 0 5.8 0 11.5 0 10 0 20 0 15.8.1 31.6 0 5.5 0 10.9 0 1.3 0 2.7 0 15.4 0 30.8 0 1.4 0 2.9.1 22.8.1 45.5 0 23.5.1 46.9 0 14.4 0 28.8 0 9.9.1 19.8 0 5.7 0 11.4c-1.4 27.3-1.4 27.3 8.9 51.3 7.6 6.7 15.7 8.5 25.5 8.2q-.1-1.5-.2-3.1-.3-6-.6-12-.3-4.6-.6-9.3-.2-3.2-.4-6.4-.1-1.6-.2-3.1c-.2-4.3-.3-7.3 1.3-11.3 1.7-1.8 1.7-1.8 4.9-2.1q1.4.1 2.8.3c2.6 4.4 3.6 8.5 4.5 13.4.5 2.7.5 2.7 1.5 5.4 1 3.2 1.4 5.9 1.6 9.2q.1 1.7.2 3.4.1 1.7.3 3.4.2 3.4.4 6.8.1 1.5.2 3.1c.1 2.3.1 2.3 1.3 3.3q2.5.1 4.9.1 1.5 0 3 0 1.6 0 3.2 0 1.5 0 3.1-.1 3.9 0 7.8 0-.1-6.5-.3-13-.1-2.2-.1-4.4-.1-3.2-.2-6.3c0-1.9 0-1.9-.1-3.9-.3-3.2-1-5.5-2.3-8.4 0-2.1 0-2.1.2-4.1q.2-.9.3-1.9c.6-2.2 1.4-4 2.5-6 8.1 2.1 8.1 2.1 10.9 5 3.3 9.2 3.6 19.1 4.2 28.7q.2 1.9.3 3.9.3 4.7.6 9.4c7.3-.8 12.8-2 18.3-7.2 5.6-9.3 6.4-19.9 3.8-30.4-1.2-3.6-2.6-7-4.1-10.4q-.7-1.6-1.5-3.3c-4.3-8.8-11.1-19.3-19.4-25-3.1-2.2-4.9-3.5-5.6-7.3-.1-7.4 1.1-14.7 2.4-22q.4-1.9.7-3.9 1.2-6.7 2.4-13.5.5-2.6.9-5.3 2.2-12 4.4-24 3.3-18.4 6.6-36.8c.1-1 .1-1 .3-2q2-11 3.9-22 3.1-17.7 6.4-35.4l5.6-31.8q2.3-14.2 4.8-28.3.2-1.1.4-2.1 1.1-6.5 2.3-12.9.7-4.3 1.5-8.6.4-2.1.7-4.2 1-5.4 1.9-10.7 1.7-9.8 3.5-19.6c4.7-25.4 7.2-49.8 7.2-75.7q0-1.8 0-3.7c0-19-1-37.2-4.4-55.9q-.3-1.9-.7-3.9c-1.8-10.6-3.9-21-6.2-31.5q-.2-1.2-.5-2.4c-2.6-11.8-5.2-23.6-8.6-35.2q-.4-1.4-.8-2.9c-5-17.6-10.7-34.9-16.6-52.2q-.6-1.6-1.1-3.2-1.6-4.6-3.1-9.1-.5-1.3-1-2.7-.4-1.3-.8-2.6-.4-1.1-.8-2.2c-.8-2.1-1.8-4.1-2.8-6.1-4.1.5-4.1.5-8 2-2.6 1.3-5.1 1.6-8 2-.9-9 1.9-15.6 7.4-22.8 3.2-3.9 6.6-7.6 9.9-11.4 2.6-2.8 5-5.7 7.4-8.6q.7-.7 1.4-1.6c3.6-4.2 7.1-8.5 10.6-12.8 2.5-3.1 5.1-6.1 7.7-9.1 4.3-5.1 8.4-10.2 12.5-15.5 3-3.9 6.2-7.7 9.5-11.5 4.8-5.7 9.4-11.6 13.9-17.5 3.1-4.1 6.2-8 9.6-11.9 5.8-7.1 11.5-15.6 11.3-25-.4-4.3-1.8-8.1-3.2-12.1q-.5-1.4-1-2.9-1.6-4.5-3.2-9.1-1.1-3.2-2.2-6.4c-7-20.2-14.4-40.3-22.1-60.3-.6-1.5-.6-1.5-1.1-3q-1-2.6-2-5.1c-5-12.9-4.5-23.6-2.8-37.2q.4-3.1.8-6.1.3-2.2.6-4.3c5.1-40.4 8.2-80.2 8.3-120.9v-2.3c2.8-45.2 2.8-45.2-9.3-86.6-2.5-1.2-3.8-1.1-6.5-.4-19 8-34.9 21-49.9 35q-2.1 1.9-4.2 3.8c-6.2 5.3-12 11-17.7 16.8q-2.6 2.6-5.2 5.2c-5.7 5.7-11.3 11.5-16.5 17.6q-2.4 2.7-4.9 5.3c-4.1 4.5-7.9 9.1-11.7 13.8l-8 9.5c-3.8 4.5-7.5 8.9-11 13.6L591 245q-.6.9-1.3 1.7c-3.5 2.6-7.6 1.5-11.7.9l-14.3-2.6c-17.5-3.2-34.8-4.4-52.6-4.3-1.4.1-1.4.1-2.8.1-19.4 0-37.8 1.3-56.9 5.5-10.8 2.4-10.8 2.4-15.4 1.7-2.6-2.1-2.6-2.1-5-5q-1.4-1.6-2.8-3.2-1.5-1.7-3-3.4l-1.5-1.9q-4.8-5.6-9.4-11.3c-3.6-4.4-7.3-8.7-11.2-12.9q-2.7-3-5.4-6.1c-3.6-4.1-7.3-8.1-11-12.1q-3.9-4.2-7.6-8.4c-4.4-4.8-8.8-9.5-13.9-13.7-3-2.7-5.7-5.5-8.5-8.4A187.99 187.99 0 0 0 339 146q-1.5-1.2-3-2.5c-18.3-14.9-18.3-14.9-40-21.5z" fill="#022c3d"/><path d="M296 122c19.6 2.7 36.7 18.4 51 31a53.63 53.63 0 0 1 2.6 2.3c5.3 4.6 10.2 9.5 15.1 14.5 2.6 2.6 5.3 5.1 8.1 7.5 3.2 2.6 5.8 5.6 8.5 8.7 1.6 1.9 3.4 3.7 5.2 5.5 3 3 5.8 6.1 8.6 9.3 2.2 2.5 4.5 5 6.8 7.5 4.1 4.5 7.9 9.1 11.7 13.8 2.7 3.3 5.4 6.5 8.2 9.6 2.8 3.4 5.6 6.8 8.1 10.4 2.6 3.6 2.6 3.6 6.1 5.9 6.4.5 12.3-1 18.6-2.4 38.9-8 80.5-6.7 119.3 1.1 7 1.4 7 1.4 14.1 1.3 2.5-1.7 2.5-1.7 4.4-4.3q1.1-1.4 2.3-2.8 1.1-1.4 2.3-2.9 1.1-1.3 2.3-2.7 3.4-4.1 6.7-8.3c15.6-19.4 32.4-37.5 50-55.1q.7-.8 1.5-1.5c5.6-5.7 11.4-11.2 17.5-16.4q1.5-1.3 3-2.7c11.1-9.5 22.6-18.4 35.7-25q1-.5 1.9-1A35.49 35.49 0 0 1 727 122c11.5 19.9 10.1 49.1 10.2 71.4q0 2.1 0 4.2c.2 46.4-2.6 91.4-8.5 137.3q-.3 2.1-.5 4.3-.5 3.9-1.1 7.8c-1.1 9.3-2.1 17.3.9 26.3a15.87 15.87 0 0 1 .7 2c2.7 8.2 5.8 16.3 8.8 24.3q2.7 7.1 5.3 14.2.6 1.4 1.1 2.9l13.9 38.8q1.6 4.7 3.3 9.3.8 2.4 1.7 4.8.3 1 .7 2c2 5.9 2.4 10.9.3 16.9-3.6 6.8-7.3 12.8-12.4 18.7-2.6 3.1-5.1 6.3-7.6 9.5q-6.3 8-12.7 15.9l-1.6 2A117.14 117.14 0 0 1 720 545q0-1.1 0-2.1c.6-27-2.1-49.8-21.4-70.5-14.1-12.9-30-17.1-48.7-16.8-11.8.5-22 5.4-32.4 10.4q-4.2 2-8.5 4-1 .5-2 .9c-15.2 7-31.6 5.7-48 5.1q-.2 1-.3 2c-2.7 14.3-9.9 25.2-21.7 33.9-4.4 2.9-9 5.2-14 7.1-.7 6.7 1.3 11.4 5 17 6 7.2 13.6 10.5 22.8 11.4 14.1.6 26.7-3.3 37.6-12.4 5.2-4.9 8.7-10.1 12-16.5 1.7-2.7 2.6-3.5 5.6-4.5 3.3-.4 5.8-.7 8.7 1.1 3.7 2.9 5.1 4.7 5.7 9.3-.2 10.6-8.8 19.3-15.9 26.2-12.2 11.3-27.9 18.3-44.5 19.4l-2.2.2c-15.3.5-30.9-5.6-42.3-15.7q-1.8-1.7-3.5-3.5-1.3 1.2-2.6 2.5c-12.2 10.3-28.2 17-44.2 16.8-20.9-1.8-38.7-10.9-52.4-26.9-3.1-4.2-5.5-8.7-7.8-13.4q-.5-1-1-2c-.6-7.1-.6-7.1 1.7-10.9 3.4-3.1 5.2-4 9.7-4.5 3.6.4 3.6.4 6.2 2.3 1.9 2.5 3.2 4.6 4.6 7.3 6.6 12.3 16.9 19.7 30 24 10.2 2.8 18.9 1.8 28.8-2.2q3-2 6-4 1.5-.5 3-1c1.1-1.8 1.1-1.8 2-4q.6-1.2 1.3-2.4c2.3-4.5 4.3-8.4 4.7-13.6l-2.4-.6c-13.4-5.1-24.6-15-30.8-27.9-2.1-4.9-3.1-9.3-3.8-14.5q-1.2.1-2.5.2c-21.1 1.1-36.9-1.4-56.5-10.2q-4.1-1.7-8.2-3.5-2.4-1-4.7-2c-8.4-3.7-15.8-4.8-25-4.8q-1.4 0-2.8-.1c-15.1 0-29.3 6.7-40.2 17.1-15.8 15.8-22.1 35.4-22.2 57.3 0 5.7.3 11.3 1.1 17-4.1-3.9-7.6-8.1-11.1-12.4q-.9-1.1-1.7-2.2-2.6-3.2-5.2-6.4-.7-.9-1.5-1.8c-5.6-7.1-11.1-14.2-16.4-21.5q-.8-1.1-1.7-2.2c-5-6.9-9.5-13.7-8.4-22.5.9-3.8 2.2-7.4 3.4-11.1q.6-1.7 1.2-3.4c7.5-21.9 15.7-43.5 23.9-65.1q1-2.8 2.1-5.6 1.2-3.3 2.4-6.5c5.7-15.1 6.6-27.5 4.8-43.4q-.2-1.7-.4-3.4-.6-5.3-1.3-10.7-.4-3.5-.8-7.1l-2.9-24.2c-1.5-11.2-2.3-22.4-3-33.8l-.2-3.2c-6.5-109.1-6.5-109.1 8.8-138.5z" fill="#fd8800"/><path d="M392 459q1 .4 2 .8 3.5 1.5 6.9 3 1.2.5 2.5 1 1.2.5 2.5 1 1.2.6 2.5 1.1 2.6 1.1 5.1 2.2c17 7.7 33.1 8.1 51.5 7.9q.4 1.3.8 2.7.5 1.7 1.1 3.5.5 1.7 1 3.5c5.1 15.4 16.8 24.6 30.8 31.7q1.6.8 3.3 1.6c-.2 8.4-2.9 13.4-8.3 19.7-8.4 7.2-17.5 10.8-28.8 10.2-13-1.6-25.5-7.7-33.9-17.9-3.1-4.2-5.7-8.5-8.3-13-1.4-3.1-1.4-3.1-3.7-4-5-.4-8-.1-12 3-2.5 3.8-2.7 6.6-2 11 5.5 16.2 20 27.9 34.9 35.2 14.7 6.7 30.7 7.5 46.1 2.8 9.5-3.7 17.9-8.5 25-16q1.3 1.2 2.6 2.5c12.8 10.9 29.5 17.7 46.4 16.5 19.1-2.7 37.6-9.4 50-25 7.7-10.5 7.7-10.5 9-23-1.8-2.8-3-4.5-6-6-4.3-.2-7.4-.4-11 2-1.4 2.3-1.4 2.3-2.6 5-6.3 12.1-16.8 19.9-29.5 24.4-10.2 2.8-21.5 3.3-31.4-.9-7.2-4.2-12.8-9.5-16-17.2-.7-3.1-.6-6.1-.5-9.3l2.9-1.4c13.3-6.6 24-14.6 30.1-28.6 1.4-4.3 2.7-8.6 4-13q1.3 0 2.6 0c17.6.1 33.2-.4 49.4-8q1-.5 2-.9 3.7-1.8 7.4-3.5c18.1-8.6 37-12.6 56.5-5.9 18.2 7.7 31.4 21.4 39.1 39.6 4 10.9 5.2 21.3 5.2 32.8q0 1.4 0 2.9c0 7.7-.5 13.8-6.1 19.6-3.8 3.9-7.3 8.1-10.6 12.4-3.9 5.1-8 9.9-12.3 14.6-3.1 3.4-5.9 6.9-8.7 10.4-1.8 2.2-3.7 4.3-5.6 6.4-10.6 11.3-10.6 11.3-13.9 25.9q.2 2.6.4 5.1c4.4 74.5-10.4 139.8-53.3 202q-1.6 2.3-3.2 4.7c-4.6 6.8-9.5 13.4-14.6 20-7.2 9.3-14 18.9-20.7 28.6q-2.3 3.3-4.6 6.6c-12 16.5-22.7 33.7-32.3 51.7-3.7 6.9-7.5 13.8-12.4 20q-.8 1.1-1.7 2.2c-2.8 3.1-5.2 4.2-9.3 4.5-3.3-.1-4.8-.4-7.5-2.3-2.1-2.4-4-4.8-5.8-7.4q-.8-1.2-1.7-2.3c-3.8-5.8-7.1-12-10.4-18.1a453 453 0 0 0-29.5-46.7q-1.9-2.6-3.8-5.3c-5-7.2-10.3-14.2-15.6-21.1-5.7-7.4-11.3-14.9-16.7-22.6q-2.3-3.3-4.7-6.7c-7-9.8-13.6-19.7-19.6-30.2q-.9-1.5-1.9-3.1c-24.2-40.4-37.6-87.7-37.3-134.7q0-4.4 0-8.8c0-15.7 0-15.7.6-23.4q.1-1.5.2-3 .2-2.7.4-5.5c.5-8-1.6-14.8-6.6-21.1q-1.5-1.6-3-3.2-1.6-1.8-3.2-3.6-.8-.9-1.6-1.8a296.78 296.78 0 0 1-7.3-8.5l-1.4-1.6-10.6-12.9q-3.2-3.9-6.4-7.7-2.1-2.5-4.2-5-2.5-2.9-5.1-5.8c-8.6-9.9-8.3-20.7-7.6-33.3 1.5-19.6 9.2-36.1 23-50q.9-.9 1.8-1.9c4.2-4.1 9-6.8 14.2-9.4q1-.5 2-1c14.9-7.3 33.8-7.1 49-.7z" fill="#feefc2"/><path d="M209 1243q.5 1 1 2 .6 1.3 1.3 2.7.6 1.3 1.2 2.6c5.4 9.8 15.5 15.2 26 18.5 12.6 3.2 25.4 2.5 38.4 2.4q3.6 0 7.3-.1 8.9 0 17.8-.1a66.96 66.96 0 0 1 1.4 2.7q.9 1.7 1.9 3.5l1.8 3.5c5.6 9.7 12.1 14.6 22.6 17.9 7.6 2 15.1 1.9 22.9 1.8q2.4 0 4.8 0 4.9.1 9.9 0 6.3 0 12.6.1 5 0 9.9 0 2.3 0 4.6 0c15.9.1 28.7-3.7 41.9-12.7 9.2-9.3 12.9-19.2 15.7-31.8h119l6 18c7.6 12.9 18 20.4 32.2 25.1 6.8 1.6 13.9 1.2 20.8 1.2q2.4 0 4.7.1 4.9 0 9.8 0 6.3 0 12.5 0 4.9.1 9.7.1 2.3 0 4.6 0c13.6.1 27.3-.8 37.8-10.4 3.8-4.2 6.7-8.3 9.2-13.4q.7-1.6 1.5-3.3l1.2-2.4q.8 0 1.7 0 9 .1 18 .2 3.3 0 6.7 0c19.8.3 41 .1 56.6-14.2 3.9-3.9 6.7-7.9 9-13 5.3-.5 9.1 1.1 13.7 3.5q1 .5 2.1 1.1c18.4 9.7 18.4 9.7 22.2 19.4.9 4.7 0 7.5-2.4 11.5-20.8 28.4-75 33.3-107.2 38.4-18.1 2.8-36.2 5-54.4 7.1q-1.2.1-2.4.3-29.4 3.3-58.8 5.3l-2.6.2q-10.1.7-20.2 1.2-2.2.1-4.5.3c-26.8 1.4-53.6 2-80.5 2q-4.4-.1-8.9-.1c-31 0-62.1-.4-93.1-2.2q-1.4-.1-2.8-.2c-187.3-10.5-187.3-10.5-233.2-45.8q-1.4-1-2.9-2.1c-3.9-3.5-5.3-6.4-5.7-11.7.2-6.3 3.1-10 7.6-14.2 6-4.7 12.8-8 19.5-11.4q1-.6 2.1-1.1c3-1.5 5-2.5 8.4-2.5z" fill="#feeab3"/><path d="M743 903c5 1.3 8.3 3.5 11.9 7q.8.7 1.6 1.5c4.6 4.4 8.3 9 11.5 14.5q.6 1 1.1 2c9.6 16.4 16 33.7 18.6 52.6q.4 2.8.8 5.7c1.3 9 1.9 17.7 1.8 26.8q0 1 0 2.1c0 11.8-1.1 23.2-3.3 34.8q-.4 2.5-.9 5.1c-6.3 35.4-23.2 70.5-52.1 92.9q-1.9 1.2-3.7 2.3-1 .5-2 1.1-1.9 1.1-3.8 2.2c-2.5 1.4-4.3 2.6-5.1 5.4-.2 2.4-.2 2.4.6 6 3.7 3.6 8 3.3 12.9 3.4 17.6.6 35 8.9 48.1 20.6q.9.8 1.9 1.6c7.2 6.7 11.6 15 14.1 24.4q.3 1.3.7 2.6c1 7.9 0 14.3-3.7 21.4-2.9 3.4-5.7 5.6-10 7q-.1-1-.2-2-.3-4.7-.7-9.3-.1-1.6-.2-3.2c-.9-11.5-1.8-21.1-9.3-30.2-2.6-2.1-5.1-1.9-8.4-1.8-2.5.4-2.5.4-4.8 3.1-1.9 4.7-1.3 8 .5 12.7 1.2 2 1.2 2 4.1 3.7.4 2.5.6 4.7.7 7.2q0 1 .1 2.1c.3 7.2.3 14.5.2 21.7-3 1-5 1.1-8.2 1.1q-1.3-.1-2.7-.1H753c-.1-1.2-.1-1.2-.1-2.4q-.4-5.5-.7-10.9-.1-1.9-.2-3.8c-.9-13.2-.9-13.2-6.2-25.1-3.2-2.1-5.1-2.5-8.9-2.3-3.5.9-4.9 2.5-6.9 5.5-.5 7.1 1 13.6 2.6 20.5 1.2 5.6 1.6 10.7 1.4 16.5h-9q-.6-1.9-1.1-3.9c-3.1-9.8-6.6-19.2-11.4-28.4q-.7-1.2-1.3-2.5c-4.1-7.5-8.8-14.2-15.2-19.8-3.1-3.6-3.4-6-3.3-10.7 1-9.4 3.1-18.7 4.9-28 1.4-7.4 2.6-14.9 3.8-22.3l10-57.7q1.9-10.1 3.6-20.2.3-1.4.5-2.9.6-2.8 1.1-5.6 3.7-21.2 7.5-42.4 3.8-20.9 7.5-41.9.4-2.5.8-5 2-11.1 3.9-22.1.8-4.8 1.6-9.5.4-2.2.8-4.4.5-3 1-6.1.3-1.7.6-3.4c.7-3.2 1.6-6.2 2.7-9.2z" fill="#fc8900"/><path d="M280 903c3 13.1 5.6 26.3 7.9 39.5q.6 3.3 1.2 6.5l10.6 60.4q5.4 30.8 10.9 61.5.3 1.7.6 3.4 2.7 15 5.4 30l10.5 59.9q.4 2.3.8 4.6c3.4 19.3 3.4 19.3.9 23-.8.7-.8.7-1.7 1.3-14.4 13-21.9 31.7-27.1 49.9q-1 3-2 6h-9c-.2-6.7.5-12.6 2-19.1 2.6-10 2.6-10 .6-19.8-1.4-2.2-1.4-2.2-3.6-3.1-5.9-.7-5.9-.7-10.9 2.2-8.1 10.7-6.5 28.9-7.1 41.8h-13c-.2-7.7.1-15.3.8-23q0-1.2.1-2.5c.5-5.1 1.6-7.6 5.1-11.5.6-4.8.4-7.1-1.5-11.5-2.4-2.9-2.4-2.9-6.4-3.2-3.3.3-4.2.8-6.9 2.8-4.1 5.5-5.7 11.2-6.8 17.8q-.2 1.1-.4 2.2c-1.2 7.6-1.7 15.2-2 22.9-7.2-2.3-7.2-2.3-9.9-4.8-4.3-8.5-4.9-19.2-2.5-28.4 4.5-12.9 14.9-24.5 26.8-31.2q2.8-1.4 5.6-2.6 1.9-.9 3.9-1.8c10.7-5 20.4-8.7 32.5-8.1 2.8-.1 4.3-.6 6.6-2.1 1.7-3.4 1.8-5.2 1-9-2.5-2.1-5.1-3.6-7.9-5.2-10.3-6.1-18.9-14.7-26-24.2q-.7-1.1-1.5-2.1c-5.2-7.2-9.6-14.7-13.6-22.5q-.5-.9-.9-1.8c-22.3-43.2-27.2-98.1-12.5-144.4q1.1-3.4 2.4-6.8.4-1 .8-2.1c5-13.3 19.1-44.9 36.2-44.9z" fill="#fb8900"/><path d="M546 453c12.4 10.9 12.4 10.9 13.3 17.4.2 13.5-5.3 25.3-14.4 35.3-6.1 5.7-14.1 10.4-21.9 13.3-.7 6.7 1.3 11.4 5 17 6 7.2 13.6 10.5 22.8 11.4 14.1.6 26.7-3.3 37.6-12.4 5.2-4.9 8.7-10.1 12-16.5 1.7-2.7 2.6-3.5 5.6-4.5 3.3-.4 5.8-.7 8.7 1.1 3.7 2.9 5.1 4.7 5.7 9.3-.2 10.6-8.8 19.3-15.9 26.2-12.2 11.3-27.9 18.3-44.5 19.4q-1.1.1-2.2.2c-15.3.5-30.9-5.6-42.3-15.7q-1.8-1.7-3.5-3.5-1.3 1.2-2.6 2.5c-12.2 10.3-28.2 17-44.2 16.8-20.9-1.8-38.7-10.9-52.4-26.9-3.1-4.2-5.5-8.7-7.8-13.4q-.5-1-1-2c-.6-7.1-.6-7.1 1.7-10.9 3.4-3.1 5.2-4 9.7-4.5 3.6.4 3.6.4 6.2 2.3 1.9 2.5 3.2 4.6 4.6 7.3 6.6 12.3 16.9 19.7 30 24 10.2 2.8 18.9 1.8 28.8-2.2q3-2 6-4 1.5-.5 3-1c1.1-1.8 1.1-1.8 2-4 .6-1.2.6-1.2 1.3-2.4 2.3-4.5 4.3-8.4 4.7-13.6q-1.2-.3-2.4-.6c-13.3-5.1-24.7-14.9-30.8-27.9-1-2.5-1.9-5-2.8-7.5q-.6-1.8-1.3-3.6c-1.1-5.4-.7-9.4 1.8-14.3 17.6-21.6 55.5-29.2 79.5-12.1z" fill="#012c3d"/><path d="M857 835c4.4 3.4 7.7 6.9 10.9 11.4.6 1 .6 1 1.3 1.9 19.7 28.8 29 63.8 29 98.5q.1 3.4.1 6.8c.1 13.9-2 27.2-5.9 40.6q-.4 1.3-.8 2.7c-6.5 21.5-16.9 41.4-30.6 59.1q-.6.8-1.2 1.6c-16.2 20.7-36.7 36.2-59.8 48.4q-1.6.8-3.2 1.7c-4.9 2.6-4.9 2.6-6.8 3.3q-1-.5-2-1 .5-1 1.1-2.1c11.5-22.2 19.2-48.4 20.2-73.4q.1-1.6.2-3.3.1-3.1.1-6.3c.1-2.9.3-5.2 1.4-7.9 3-2.7 6.4-4.2 10-6 27.7-21.2 43.6-59.3 48.1-92.9 3.3-29.2-2.7-55.5-12.1-83.1z" fill="#fc8900"/><path d="M713 165c7.6 49.2 6.4 103.3-13 150q-1 1-2 2-.9-1.1-1.9-2.3c-9.6-11.5-19.4-23.2-31.1-32.7q-1.4-1.2-2.8-2.4c-11.3-9.6-23.4-17.2-36.2-24.6 1.9-16.5 20.8-33.8 32-45q1.4-1.6 2.7-3.3l2.3-2.7q1 0 2 0 0-1 0-2c1.5-1.5 1.5-1.5 3.6-3.2 2.7-2.3 5.2-4.6 7.7-7.2 4.6-4.6 9.6-8.6 14.7-12.6l1.7-1.3q2.5-2 5.1-4 1.5-1.2 3.1-2.4c8.7-6.3 8.7-6.3 12.1-6.3z" fill="#e66c00"/><path d="M387.6 1187.9q5.7 0 11.4.1 1.4 0 2.8 0c10.6.5 20.5 5.1 30.2 9q.1 10.2.2 20.4 0 3.5 0 7c.4 37.3.4 37.3-7.6 46.2-7.3 6.6-15 8.8-24.7 8.5q-1 0-1.9-.1.2-2.6.3-5.2.1-2.3.3-4.6.3-5.8.7-11.5c1.9-13.4 1.9-13.4-1.3-25.7-3.6-.3-3.6-.3-7 0-2.1 4.5-3.2 8-3.7 12.9-.5 3.6-1.9 6.8-3.3 10.1-1 2.9-1.2 4.9-1.3 7.9-.1 1.4-.1 1.4-.1 2.8q-.1 1.5-.2 3c0 1.5 0 1.5-.1 3q-.2 3.6-.3 7.3c-2.4 1.2-3.9 1.1-6.5 1.1q-1.4 0-2.7 0h-2.9-2.8-2.7q-1.2 0-2.5 0c-1.9-.1-1.9-.1-2.9-1.1q-.2-4.4-.1-8.8 0-1.2 0-2.5c.1-19.7.1-19.7 2.1-21.7.4-5 .4-9.4-2-14-3 0-5.2.1-8 1-6.9 8.8-6.5 20.9-7.1 31.6q-.2 2.1-.3 4.2-.3 5.1-.6 10.2c-7.7-.8-12.9-2.3-18.8-7.5-4.4-5.9-5.9-14.9-5.5-22.1 2.7-19.3 16-39.3 31.5-51 11.1-7.4 24.2-10.2 37.4-10.5zM672 1198c15.1 11.6 26.6 28.3 31 47 .9 9.6.8 19.7-5.3 27.7-4.7 4.5-11.3 6.3-17.7 6.3q-.1-1.2-.2-2.4-.3-5.5-.7-10.9-.1-1.9-.2-3.8c-.3-14.4-.3-14.4-5.9-26.9-2.9-1.3-5.9-2.2-9-3-2.9 5.6-3.3 8.8-2 15q.5 1 1 2 .2 3.5.3 7 0 1 .1 2.1.1 3.2.2 6.5 0 2.3.1 4.5.2 5.4.3 10.9-5.5 0-10.9.1h-3.2-3-2.8c-2.1-.1-2.1-.1-3.1-1.1q-.3-2.6-.4-5.3-.1-1.6-.3-3.3-.2-3.4-.4-6.9c-.4-6.4-1.4-11.5-3.9-17.5q-.6-2.6-1.1-5.3c-.5-3.2-1.3-5.8-2.9-8.7-2.9-.4-2.9-.4-6 0-3 3.2-3.2 6-3.1 10.1q.1 3 .3 6.1.1 1.6.2 3.2.2 3.2.4 6.5.3 4.3.5 8.7.3 6.2.7 12.4c-9.3.3-17-1.2-24.4-7.3-8.8-8.5-9.5-19.6-9.8-31.3l.1-19.3q0-3.3 0-6.7 0-8.2.1-16.4c24.5-12.8 56.6-15.4 81 0z" fill="#fdeec3"/><path d="M312 165c4.5 1.5 7.8 4 11.4 6.9q.9.7 1.9 1.5 2.9 2.3 5.7 4.6.9.7 1.8 1.5c8.7 7.2 16.8 14.9 24.7 23 2.7 2.7 5.4 5.5 8.2 8.1 7.9 7.7 14.5 16.6 21.2 25.3q.9 1.1 1.8 2.3.8 1 1.6 2.1.7.9 1.4 1.9c2.5 3.5 4 6.4 3.3 10.8-1.8 1.7-1.8 1.7-4.2 3.3l-2.8 1.8q-1.5 1-3 1.9c-12.2 7.8-22.9 16.9-33.5 26.8-2.1 1.8-4.2 3.6-6.4 5.3-7.2 6.3-14 14.7-18.9 22.9q-.6 1-1.2 2-1 0-2 0c-10.7-30-16.8-60.6-16.4-92.6q0-5.1 0-10.2c.1-33.6.1-33.6 5.4-49.2z" fill="#e66c00"/><path d="M449 640c3 .7 5.9 1.7 8.8 2.8q2.3.8 4.7 1.7 1.2.4 2.4.8c34.9 11.8 78.2 7.4 112.5-4.5 3.7-1.2 6.6-1.1 10.6-.8q1.5 1 3 2c.7 3.5.6 5.8-1.1 9-12.4 15.8-37.1 21.3-56 24.3-15.5 1.8-31.5 1.3-46.9-1.3q-1.8-.3-3.6-.6c-16.1-3-31.8-9.6-43.4-21.4-2.5-3.7-2.4-5.7-2-10 3.8-2.5 6.7-2.5 11-2z" fill="#f0d49b"/><path d="M435.4 393.2c9.6 6.8 16.8 14.6 20.6 25.8.7 5.6 1.1 10.4-2.1 15.2-3.5 2.2-5.8 2.8-9.9 2.8-4.3-1.8-5.9-4-8-8-3.8-6.9-8.4-13-16-16-8.2-.9-14.9-.2-22 4q-1 .5-1.9 1.1c-6 3.8-9.1 9.2-11.6 15.7-1.7 3.7-2.7 4.7-6.5 6.2-4.6.7-6.4.4-10.3-2.2-2.7-2.8-3.9-4.1-4.7-7.8.8-11.8 8-22.1 16-30.5 15.7-13.1 38.7-17.7 56.4-6.3zm174.9-5.6q1.3 0 2.8 0c14.2.3 24.6 5.7 34.5 15.9 5.9 6.8 12.7 16.3 13.1 25.6-.8 4.6-1.7 7.4-5.4 10.2-4.6 1.4-8.1 1.2-12.4-.7-3.4-3.1-4.9-6.1-6.7-10.3-1.2-2.3-2.4-3.5-4.2-5.3q0-1 0-2-.9-.4-1.7-.8c-3-1.5-5.7-3.3-8.4-5.1-5.2-3-11.1-2.6-16.9-2.1-6.7 1.8-11.1 6.5-15 12-1.1 2-2.2 4.1-3.1 6.2-1 2.1-2.1 3.3-3.9 4.8-4.9 1.2-6.8 1.6-11.4-.6-2.8-2.6-3.9-3.6-4.6-7.4-.5-10.5 4.7-18.5 11.3-26.3 9.1-9.6 18.8-14.3 32-14.1z" fill="#022d3f"/><path d="M620.8 327.3c6.1 4.7 11.4 10.3 12.6 18.2q0 1.2 0 2.5l.2 2.5c-.9 3.8-2.5 5.1-5.6 7.5-3.3.7-6.6.7-9.9.7q-1.5 0-2.9 0-3.1 0-6.1 0-4.6-.1-9.3 0-2.9 0-5.9 0-1.3 0-2.8 0c-4.5-.1-6.5-.2-10.2-3-2.5-3.5-2.9-5.4-2.9-9.7 1.3-8.3 6.3-14.6 13-19.5 8.9-4.8 21.1-4.3 29.8.8z" fill="#feeec3"/><path d="M431.7 326.5c6.4 4.2 11.2 10.3 13.3 17.5.5 5.1 0 7.9-3 12-2.4 2.4-2.9 2.3-6.2 2.3q-1.3 0-2.6.1-1.4 0-2.8 0-1.5 0-3 0-3 0-6.1 0-4.6.1-9.3.1-3 .1-6 .1-1.3 0-2.8 0c-4.6 0-6.6-.1-10.3-3-2.7-3.7-2.7-6.2-2.4-10.7 1.4-7.8 6.1-13.3 12.5-17.7 8.7-5 19.7-4.9 28.7-.7z" fill="#feefc3"/></svg>