<svg xmlns="http://www.w3.org/2000/svg" width="1024" height="1536" xmlns:v="https://vecta.io/nano"><path d="M633 239q0 1.1 0 2.2c.2 17.6.2 17.6 2.7 35q.2 1.1.4 2.1c2.9 12.4 8.8 23.9 14.8 35.1 6.2 11.5 11.9 22.8 15.1 35.6q.3 1.1.5 2.2c1.7 7.1 1.9 14.2 2.1 21.4.1 1.8.1 1.8.1 3.6q.2 4.4.3 8.8c2.8-2.8 5.6-5.6 8.1-8.6 16.1-18.4 16.1-18.4 27.3-20.3 7.3-.5 12.7 1.8 18.3 6.3 10.3 9.9 13.3 23.9 13.6 37.7.1 24-7.3 47.1-24 64.7-9.1 8.6-17.9 11.6-30.3 11.4-2.7-.2-5.3-.6-8-1.2q-.3.8-.5 1.6c-7.5 23.3-18.7 47.3-34.7 66-6.3 8.6-5 26.1-4.7 36.5-.5 19.1-13.1 35.2-26.1 47.9-1.3 1.3-1.3 1.3-2.6 2.7-18 17.2-42.8 24.1-67.1 23.8q-3.7-.1-7.4 0c-13-.1-24.6-2.1-36.9-6.5q.5 1.5 1.1 3 .6 2 1.3 4.1.4.9.7 2c5.2 15.3 4.4 31.6-2.6 46-5.6 10.5-12.6 17.2-24 21.1-9.5 2.1-19.1.7-27.5-4.2q.1 1.7.2 3.4c-.1 26.2-15 53.1-31.2 72.6q-.8 1-1.6 2.1c-11.2 14.3-30.6 22.1-47.4 27.9q-1.7.6-3.5 1.2c-17.5 5.6-35.4 6.1-53.7 6.2q-1.3 0-2.7 0c-16 .1-31.9-1.2-47.2-6.1q-1.2-.4-2.5-.8c-13.2-4.2-25.2-10.3-36.4-18.5q-1.3-.9-2.6-1.9c-7-5.3-12.7-11.5-18.4-18.1q-1-1.2-2.1-2.4c-12.5-15.8-20.4-36.4-22.3-56.4-.6-3.3-1.4-4.8-3.6-7.2q-1.2 1.2-2.5 2.4c-14.9 14.2-29.1 22.1-50.1 21.8-11.7-.4-21.6-4.5-30.1-12.5-10.2-10.9-12.5-23-12.9-37.5.8-10.4 7.7-20.5 12.7-29.5q1-1.9 2-3.7 2-3.8 4-7.5c11.4-21 21.7-42.4 30.6-64.6 5.8-14.5 12.7-28.5 22.3-40.9l1.7-2.3c10.6-13 27.6-23.4 44.3-25.7 12.3-.6 22.3 0 33.2 6.2 2.1 1.1 2.1 1.1 5.8.8 2.3-1.6 2.3-1.6 4.6-3.9 4.9-4.1 9.9-7.3 15.5-10.4q1.1-.6 2.2-1.2c30.2-16.4 70.5-17 103.2-7.7q7.3 2.1 14.4 4.6c2.2.7 2.2.7 5.1.6q-.9-1.7-1.8-3.5c-4.4-8.7-7.7-16.8-9.6-26.5-1.1-6.1-1.1-6.1-4.8-10.7-2.5-.7-2.5-.7-5.1-1-6.9-.8-13.2-6.2-17.7-11.3q-.8-.8-1.6-1.5c-6.2-6.5-10-14.3-13.4-22.5q-.4-1-.8-2c-4.5-11.5-4.7-23.3-4.7-35.4q0-1.2 0-2.4c0-13.5.7-27.8 10.4-38.2 4.2-4 8-7 14-7 5.1.3 8.1 1.7 12.1 5 2 3.5 3.4 7.2 4.8 11 1.7 4.2 1.7 4.2 5 7 2.1.6 2.1.6 5.2 1q-.1-1.1-.2-2.2c-.4-7 .4-12.6 2.7-19.2l.8-2.3c2.7-7.8 6.2-15.2 9.9-22.6 11.5-23.4 21.9-47.5 24.1-73.8.3-3.7.7-6.7 2.7-9.9 3.1 1.1 5.8 2.5 8.5 4.3 26.4 16.6 61.2 19.1 91.5 18.9h3c15.1 0 30-.3 45-2.2q1.5-.2 3-.4c23.9-3.2 49-9.2 69.5-22.3 2.5-1.3 2.5-1.3 6.5-1.3zM175 782q1 0 2 0l.1 2.2c.4 5.9 1.5 10.3 3.9 15.8q.3 2.7.6 5.4c2 13 10.2 24.6 19.4 33.6q.8.9 1.7 1.8c19.8 21.6 51.3 28.8 79.3 30.2 22.7.9 45.8 1.5 68-4q1.2-.3 2.5-.6c20.1-4.8 39.9-12.6 55.5-26.4q1.3-1.1 2.6-2.2c4.9-4.2 8.8-8.3 12.1-13.9 1.3-1.9 2.7-3.3 4.3-4.9 3.5 11.4 6.5 22.8 8.9 34.4q.2 1.2.5 2.5c3.9 19.3 6.6 38.9 9.3 58.5q.1 1.3.3 2.7c1.4 10.8 2.2 21.5 2.6 32.4a53.4 53.4 0 0 0 .1 4c.4 14.9.5 29.9.4 44.8q0 3.6 0 7.2 0 34.9-.6 69.8l-.6 71.6q0 3.9 0 7.8 0 6.1 0 12.2 0 2.3 0 4.6 0 3.1 0 6.2 0 1.7 0 3.5c0 2.9 0 2.9 1.1 5.8 2 1 2 1 4.4 1.7 11.7 4.5 17.1 11.7 22.1 22.7 3.6 8.8 3 15.9-.5 24.6q-1 2-2 4-48.9 0-97.8.1-5.8 0-11.7 0-1.1 0-2.3 0-18.6 0-37.1 0-19.2 0-38.4 0-10.7 0-21.4 0c-29.7 0-59.3-.1-89-.4q-4.5-.1-9-.1-6.2-.1-12.4-.2-1.8 0-3.7 0c-15-.3-27.2-2.3-39.7-10.6q-1.1-.8-2.3-1.5c-21.2-14.2-33.8-35.9-38.9-60.6-1.8-9.1-3.4-18-3.2-27.3.6-11.3.6-11.3-3.7-21.2-2.7-2.8-5.7-5.2-8.7-7.7-22.6-20-32.2-57-35.7-85.5-.2-3-.2-5.9-.2-8.9q0-1.2 0-2.5 0-2.7 0-5.3-.1-4-.1-8c-.1-14.4 1.8-27.6 6.1-41.4l.8-2.6c6.4-20.4 16.8-38.2 31.3-54q.8-.9 1.7-1.9A91.29 91.29 0 0 1 62 896q1 0 2 0 0-1 0-2c5-4.4 9.3-6.5 16-6 3.3 1.4 5.7 3.3 8 6 .2 10.3-4.7 20.7-9.4 29.7-3 5.9-5.1 12.1-7.2 18.5l-1.2 3.4c-4.7 14.2-6.8 27.8-6.6 42.7q0 1.2 0 2.3c0 11.6.7 22.4 4.4 33.4q.3 1 .7 2c2.9 8.5 6.7 15.9 12.3 23 2.1-2.1 2.9-3.7 4.1-6.3q.6-1.4 1.3-2.8c.7-1.5.7-1.5 1.3-3 6.2-13 13.1-25.4 20.3-37.9q.9-1.6 1.8-3.2 8.5-14.7 17.2-29.2.5-.9 1.1-1.8 2.3-3.9 4.8-7.6c2.9-4.4 5.3-8.3 4.9-13.7-1.5-4.7-4.6-8.4-7.5-12.2-12-16.4-12.2-38.3-10-57.7.7-4.4 2.1-8.5 3.7-12.6q.4-1.1.8-2.3c6.2-17.3 14.8-31.4 26.2-45.7q1.8-2.3 3.6-4.7c2.5-3.2 5.1-6.2 7.9-9.2 4.7-5.2 9.3-10.8 12.5-17.1z" fill="#de8800"/><path d="M634 564c54.7-1.3 113.7 24.7 154 61q2.2 1.8 4.3 3.7c12.2 10.8 24.5 24.5 31.7 39.3 0 2 0 2-1.8 4.3q-1.3 1.3-2.6 2.5-1.4 1.3-2.9 2.7-1.3 1.2-2.7 2.5-1 .9-2 1.8c-1.9 1.8-4 3.5-6 5.2l-1.6 1.4q-2.7 2.3-5.5 4.6-.8.8-1.7 1.5c-3.1 2.6-4.5 3.5-8.7 3.5-4.4-1.2-8.8-2.6-13.1-4.1-11.6-3.8-23.2-4.2-35.4-4.2q-3.8 0-7.7-.1c-9.5 0-18.5.6-27.9 2.3-4.9 1-9.4 1.4-14.4 1.1-2.2-2-3.4-3.6-5-6-14.9-22.4-38-41-62-53-3.7-.1-6.5-.2-10 1-1.1 1.8-1.1 1.8-2 4q-.5 1-1 2.1c-8.5 19.9-9.1 43.9-9.6 65.3v2.1q-.2 9.7-.3 19.4-.1 5.4-.2 10.8-.1 2.9-.1 5.9c-.2 8.1-1.7 13.5-5.8 20.4q-1.3 3.2-2.5 6.4-.6 1.7-1.2 3.5-.7 1.7-1.3 3.5-.6 1.9-1.3 3.7c-3.5 9.9-6.3 19.8-8.7 29.9q1.6.2 3.2.4c36.1 4.5 36.1 4.5 49.8 13.6 2.6 3.4 2.2 6.9 2 11-7.4-.5-13.7-2.4-20.7-4.9-11.8-4.1-22.8-6.7-35.3-8.1l1 26 9-1q3.5-.1 7-.1 1.9 0 3.9 0h3.9q1.9 0 3.9 0c22.5 0 22.5 0 28.3 4.1 1 2 1 2 1 4-1.8 2.5-3 3-6 4q-3 .2-5.9.3-1.8.1-3.7.1l-3.8.2q-2 0-4 .1-15.8.5-31.6.3c5.2 20.5 14 39.6 29.4 54.4 1.6 1.6 3 3.3 4.4 5.1 3.7 4.4 8.4 7.4 13.2 10.5q1.2.8 2.4 1.7c29.7 20 64.4 25.8 99.5 25.6q1.3-.1 2.6-.1c12.9 0 25.7-.3 38.5-2.2q1-.1 2.1-.3c36.4-5 73.2-25.5 96.9-53.7 2-2.9 3.6-5.8 5-9q-1.2-.1-2.5-.2c-3.5-.8-3.5-.8-7-2.6-5.2-2.7-10.7-4.3-16.3-6.1q-3.4-1-6.7-2.1l-3.4-1q-4.2-1.3-8.3-2.7c-8.6-2.8-17.1-5.2-25.9-6.9-4.6-.9-8.6-2.1-11.9-5.4-.3-2.4-.3-2.4 0-5 7-4.7 18.7-1.9 26.6-.5 21.5 4.4 42.2 12.3 62.4 20.5q.3-1 .5-2c2.5-9.4 5.5-18.7 8.5-28q-1.7.1-3.6.1c-4.1 0-7.6-.8-11.6-2-17.2-4.8-33.8-4.5-51.4-3.5-18.3 1.1-18.3 1.1-22.4-1.6.2-3.6.9-4.9 3.5-7.6 4-3.2 8-3.4 13-3.7q1.4-.1 2.9-.2c19.4-1.3 38.8-2.1 57.6 3.5q2.1.6 4.2 1.2 4.9 1.3 9.8 2.8.6 2.5 1.2 5 .5 1.7.9 3.4.9 3.5 1.7 7c4.2 18.2 10.7 35.8 17.3 53.2 11.1 29.3 20.5 60.4 10.9 91.4q-1 0-2 0l-1-2.7c-6.4-15.7-18.3-33.6-34-41.3-11.5-4.1-23.6-6.8-35.1-1.5-6.9 3.4-13.2 7.4-18.9 12.5q-1.1 1-2.3 2-1.1 1-2.3 2.1-2.2 1.9-4.4 3.9-.9.8-1.8 1.6c-27.9 23-79.1 26.1-113.5 22.9-5.9-.7-11.8-1.5-17.7-2.5q-1.2-.2-2.5-.4c-21.7-3.8-42.9-12.3-59.4-27.1-2.6-2.7-2.6-2.7-6.1-3.5-6.9 18.2-9.1 37.3-11.7 56.6q-.1 1.2-.3 2.4c-1.9 14.5-3.2 28.8-3.3 43.4q0 1 0 2c0 16.1 1.4 32 2.8 48 1.2 15.4 1.6 30.8 1.7 46.3q0 2.4 0 4.9 0 3.4 0 6.8 0 1.1.1 2.1c-.1 4-.5 7-2.3 10.5-2.4 1.8-2.4 1.8-5.2 3.4-10.1 6.1-16.9 14.3-20.8 25.6-.4 6.8.4 13.2 1 20H474c1-5 1-5 2.1-8.3 2.6-10.3-.7-18.1-5.5-27.3-4.9-8.2-12.1-12.1-20.9-15.4-1.7-1-1.7-1-2.7-4q-.1-3.2-.1-6.3 0-1 0-2 0-3.2 0-6.5 0-2.3 0-4.6 0-6.2 0-12.5 0-3.9 0-7.8 0-35.5.6-71 .6-35.1.6-70.2 0-3.5 0-7c.1-15.5 0-31-.5-46.5q-.1-1.8-.1-3.7c-.4-9.3-1.2-18.6-2.5-27.8q-.8-5.8-1.6-11.6c-2.6-19.2-5.5-38.4-9.6-57.4q-.2-1.2-.5-2.4c-1.8-14.4-1.8-14.4-7.3-26.7q-.5.9-1 1.9c-12.5 22.2-37.8 35.6-61.6 42.4-19.7 5.4-38.3 8.1-58.7 8h-3c-15 0-29.9-.4-44.7-3.3q-1.3-.2-2.5-.5c-18.1-3.7-34.7-11.2-48.5-23.5q-.8-.7-1.6-1.4c-11.5-10-20.2-22.6-23.4-37.6q-.3-1.2-.6-2.4-.2-.9-.4-1.8c-.8-3.6-.8-3.6-2-6.1-2.3-6.2-2.1-13.7.1-19.8 1.2-2.4 2.5-4.7 3.9-6.9 1.9.3 1.9.3 4 1 1.2 1.7 1.2 1.7 2.2 3.9 3.1 6 7.4 10.9 11.8 16.1q1 1.2 2.1 2.5c19.9 23.8 52.8 35.6 82.9 38.5 3.1.2 6.1.2 9.2.2q1.3 0 2.6 0 4.2 0 8.3.1 1.4 0 2.9 0c34.8-.1 70.9-6.4 97.7-30.7q1.1-1.3 2.3-2.6.9-.9 1.8-1.8c19-20.3 30.9-49.6 33.2-77.2l3.6 1.4c10.4 3.4 20.4 3.7 30.5-.8 10.7-5.9 16.8-16.1 20.9-27.3 3.2-12.6 1.8-28.1-3.1-40-.9-2.3-.9-2.3-.9-5.3q1.8.4 3.6.8 1.3.3 2.6.6 2.9.6 5.7 1.4c9.3 2.2 18 2.7 27.5 2.6q3.6 0 7.3.1c27.5.1 50.8-10.3 70.3-29.5q1.3-1.3 2.7-2.6c10.9-11.1 19.4-27.7 19.5-43.4q0-2.9-.2-5.8c0-2.7.2-4.7 1-7.2z" fill="#007878"/><path d="M991.6 834.2c3.3 2.4 5.6 5.1 7.4 8.8 1.7 13.3-6.5 22.9-13.7 33.1-11.8 16.7-16.5 32.8-14 53.1 2.1 12.2 8 23.3 13.3 34.4 13 27.1 21.8 53.8 21.8 84.2q0 1.1 0 2.2c0 13.7-1.8 26.7-5.4 40q-.3 1.1-.6 2.3c-1.2 4.6-2.7 9.2-4.4 13.7q-.4 1.2-.8 2.3c-9 24.6-23.7 48.6-42.5 66.9-5.3 5.3-8.4 9.7-10.9 16.9-6.5 17.8-22.2 33.5-39.1 41.7q-2.8 1.1-5.7 2.2-1.4.5-2.8 1.1c-12.7 4-25.7 3.4-38.9 3.4q-5.4-.1-10.8 0-9.4 0-18.7-.1-13.5 0-27.1 0-21.9 0-43.9-.1-21.3-.1-42.6-.1-1.3 0-2.6 0-6.6 0-13.2 0-54.7-.1-109.4-.2c-1.5-4.4-2.5-8.4-3-13q-.2-1.8-.4-3.7c.1-9.3 6.9-17.6 13-24.1 3.5-3.2 7.3-5.8 11.4-8.2 3-1.6 3-1.6 3.7-3.7.4-3.1.4-6.1.5-9.3q0-1 0-2.1 0-3.5 0-6.9 0-1.2 0-2.4c0-21.3-1.2-42.5-3.1-63.7-2.2-26.2-1.5-51.8 1.9-77.9q.1-1 .3-2.1c5.6-43.6 5.6-43.6 12.7-56.9 3.5 1.5 5.9 3.6 8.7 6.1 32.3 26.6 79.2 30.7 119.3 27.1 8.4-.8 16.4-2.3 24.6-4.5q4.2-1.2 8.5-2.2c18.9-5 33-10.9 47.4-24.2 8.9-8 20.6-16.6 33-17.1 13 1 23.6 4 33.5 12.8q1.1.9 2.1 1.9c13.8 12.9 22 27.6 23.1 46.5q.1 5 .1 10 0 1.8 0 3.6c-.2 12.2-2 22.3-7.4 33.3-1.1 3.4-.9 5.2.1 8.7 1.4 2.4 2.8 4.7 4.3 6.9 4.5 7 8.5 14.1 12.3 21.4a30.74 30.74 0 0 0 1.6 3.1c3.7 7.2 3.7 7.2 4.8 10.6q1 0 2 0 .4-1 .7-1.9a140.92 140.92 0 0 1 4.5-9.6c13.9-28.6 14.6-56.6 9.8-87.5q-.2-1.1-.3-2.3c-2.2-13.3-8-25.6-13.3-38-12.4-29.3-24.4-60.8-12.3-92.6 7.9-17.9 21.5-36.8 40.1-44.4 6.8-1.2 13.7-1.7 20.4.5zM620.8 632.5c10.2 2.3 19.9 11.3 28.2 17.5q.9.6 1.7 1.3c13.5 9.9 26.5 21.4 35.3 35.7 1.7 3.1 1.7 3.1 4 5 5.8.3 11.1-.4 16.8-1.5 10-1.7 19.9-2 30.1-1.9h2.7c15.6 0 31.1.7 45.4 7.7 2.7 1 4.1 1.2 7 .7 2.7-1.6 5-3.6 7.4-5.6q1-.9 2.1-1.8c5.5-4.6 10.7-9.4 15.8-14.4 15.3-14.4 32.1-26.3 50.7-36.2q1.3-.7 2.7-1.5c5.3-2.6 8.6-3.1 14.3-1.5 5.9 3.8 9 8.7 10.6 15.6.6 4.9.6 9.7.6 14.7v3.2c-.1 8.5-.8 16.8-1.9 25.3q-.5 3.6-.8 7.2c-.2 1.3-.2 1.3-.3 2.6q-.3 2.3-.5 4.7c-.6 5.5-.6 5.5-1.7 7.7q-.4 3.1-.7 6.1c-.9 7.1-2.3 14-3.8 21l-3.9 19.3-.4 2.7c-.5 7.7 1.4 14.6 3.7 21.8 5.2 18 6.6 34.4 6.1 53.1-6-1.1-11.9-2.4-17.7-4.1-17.8-4.9-37.6-3.6-55.9-2.2q-1.3.1-2.7.2c-5 .5-8.1 1.3-11.7 5.1-.9 2.6-.9 2.6-1 5 6.4 3.2 16.5.9 23.6.5 18.6-1.1 36.4-1 54.3 4.9 3.3 1 6.6 1.3 10.1 1.6-1.2 7.2-3.1 13.8-5.6 20.6l-1 2.8q-1.2 3.3-2.4 6.6c-4.4-.6-7.8-1.7-11.8-3.6-10.7-4.8-22-8-33.2-11.4q-1.2-.4-2.4-.7c-12.2-3.7-29-8.5-41.6-4.3.5 2.9.5 2.9 2 6 5.3 2.8 10.6 3.9 16.4 5 10.2 2.2 20 5.2 29.9 8.6 1 .3 1 .3 2.1.7 7.2 2.4 14.4 4.9 21.5 7.8 3.3 1.4 6.7 2.6 10.1 3.9-3 15-23.8 29.2-35.6 37.4-22.5 14.9-48.5 25.1-75.4 27.6q-1.4.1-2.9.3c-9.4.7-18.8.9-28.2.9q-3.8 0-7.7 0c-15.7.1-31.3-1-46.6-4.8q-1.5-.3-3.1-.7c-10.7-2.8-20.6-6.9-30.5-11.7q-1-.5-2-.9c-26.1-12.7-45.8-35.2-57.3-61.7q-.5-1.1-1.1-2.4c-.5-1.1-.5-1.1-1-2.3-.4-1-.4-1-.8-2.1-1.1-3.8-1.4-7.7-1.8-11.6q.9 0 1.8-.1 9.4-.2 18.9-.6 3.5-.1 7-.2 5-.2 10.1-.4 1.6 0 3.2-.1c7-.2 7-.2 13-3.6-.2-1.9-.2-1.9-1-4-9.3-5.9-25.6-3.1-36.2-3.1q-2.8 0-5.5.1-6.7 0-13.3 0c-1.1-8.5-1.1-8.5-1.1-12.7q0-1.2 0-2.4 0-1.2 0-2.4 0-1.2.1-2.5 0-3 0-6c14.8-.5 28.6 4.7 42.5 9.3l3.1 1q1.4.4 2.8.9c2.5.8 5 1.3 7.6 1.8q-.4-2.2-.8-4.3-.2-1.2-.5-2.4c-.8-2.7-1.5-3.6-3.7-5.3-15.4-7.5-33.4-9.8-50-13 .6-6 1.8-11.4 3.6-17.2q.3-1.3.7-2.6c2.1-6.6 4.4-13 6.8-19.5q.5-1.2 1-2.5c2.6-6.7 2.6-6.7 3.9-8.8 3.8-6.5 3.6-12.9 3.7-20.3q0-2 .1-4.1.1-6.5.2-13c.3-17.2.7-34.1 2.8-51.2.2-1.9.2-1.9.5-3.8 3.4-25.7 3.4-25.7 10.7-34 2.9-1.9 4.4-2.6 7.8-2.5z" fill="#de8800"/><path d="M666.6 187.3c25.1 24 45.5 61.4 46.5 96.5q.1 5.6.1 11.2 0 3.5 0 7c.1 8.3-.4 15.9-2.2 24q-.4 2.1-.8 4.1-.5 2.9-1.1 5.8c-.6 3.3-1.1 6.5-1.4 9.9-.3 3.2-.6 6.1-1.7 9.2-2.1 1.7-4 2.4-6.6 3.2-6.9 2.3-12 8.3-17.1 13.2q-.8.8-1.6 1.7c-2.8 2.7-5.2 5.5-7.4 8.7-2.3 3.2-2.3 3.2-5.3 4.2q0-1.1 0-2.2c-.5-28.4-6.7-49.5-20.1-74.2-12.4-23.1-15.5-44.6-14.9-70.6-4.8 1.7-8.8 3.3-13 6.2-42 25.3-112.1 27.3-159 17.8q-1.3-.2-2.6-.5c-10.6-2-20.6-5.1-30.7-8.9-1.4-.6-1.4-.6-2.8-1.1-5.5-2.2-10.3-4.9-15.1-8.3-1.7-1.4-1.7-1.4-3.8-1.2q-.2 1.1-.4 2.2-.5 3.2-1 6.4-.6 3.1-1 6.2c-3.5 23.6-12.5 45-22.7 66.4-11.1 22.9-11.1 22.9-14.9 47.8-2.8.3-2.8.3-6 0-1.6-2.1-1.6-2.1-3-5-.9-1.6-.9-1.6-1.9-3.2-5.1-8.9-8.3-17.7-10.1-27.8q-.2-1.2-.4-2.5c-6.4-36.8-.8-72.7 17.4-105.5q.8-1.6 1.7-3.2c6.5-11.8 15.1-22 24.3-31.8q1-1.1 2.1-2.2c65.3-68.1 188.6-72.3 276.5-3.5zM610 1102c1.9 21.2 3.1 42.3 3.2 63.7q0 2.4 0 4.9 0 3.4 0 6.8 0 1.1.1 2.1c-.1 4-.5 7-2.3 10.5-2.4 1.8-2.4 1.8-5.2 3.4-10.1 6.1-16.9 14.3-20.8 25.6-.4 6.8.4 13.2 1 20H474c1-5 1-5 2.1-8.3 2.6-10.3-.7-18.1-5.5-27.3-4.9-8.2-12.1-12.1-20.8-15.4-1.8-1-1.8-1-2.8-4q-.1-3.7-.1-7.3 0-1.2 0-2.3 0-3.7 0-7.4 0-2.6 0-5.1 0-5.4 0-10.8 0-6.9 0-13.8 0-5.3 0-10.6 0-2.6 0-5.1 0-3.6 0-7.1 0-1.1 0-2.1c0-3.3.1-6.3 1.1-9.4 8.7.9 17.3 1.9 26 3.2 19.6 2.9 39.1 3 59 2.8q2.9 0 5.8 0c18.9-.2 37.2-2.1 55.9-4.8q1-.2 2.1-.3l13.2-1.9z" fill="#003b55"/><path d="M217 524q1.1.5 2.3.9c4 1.9 5.9 2.9 7.7 7.1q-.7.7-1.5 1.4c-29 27.9-33.7 71.2-37.5 109.1q-.9 8.4-1.8 16.9-.5 4.5-.9 8.9c-2.3 22.4-2.3 22.4-6.8 32.8-2.6 6.3-4.5 12.2-5.5 18.9q-1.3.3-2.6.7c-3.9 1.5-6.2 3.6-9.1 6.5-13.4 12.8-27.5 18.3-45.9 18-11.7-.4-21.6-4.5-30.2-12.4-10.1-11-12.4-23.1-12.8-37.5.8-10.5 7.7-20.6 12.7-29.6q1-1.9 2-3.7 2-3.8 4-7.5c11.4-21 21.7-42.4 30.6-64.6 5.8-14.5 12.7-28.5 22.3-40.9q.8-1.1 1.7-2.2c16-19.9 46.5-33.4 71.3-22.8z" fill="#ab4500"/><path d="M393 522c6.2-.3 11 .5 16.8 2.6q1.1.4 2.3.8c11.5 4.1 20.2 10.2 28.9 18.6q1 .9 2.1 1.9c9.6 8.8 19.8 24.1 21.9 37.1q1 .1 2 .3c3.2.8 6.2 1.9 9.3 3.1 35 13.6 72.3 11.6 106.7-3.3 18-8.2 41.5-22.2 51-40.1q1 .5 2 1-.1 1.1-.2 2.2-.8 10.1-1.4 20.1 0 1.1-.1 2.3c-.2 3.5-.3 7-.2 10.5-.5 19.1-13.2 35.2-26.1 47.9q-1.3 1.3-2.6 2.7c-18 17.2-42.8 24.1-67.1 23.8q-3.7-.1-7.4 0c-13-.1-24.6-2.1-36.9-6.5q.5 1.5 1.1 3 .6 2 1.3 4.1.4.9.7 2c5.2 15.3 4.4 31.6-2.6 46-5.6 10.5-12.6 17.2-24 21.1-10 2.2-18.5.2-27.5-4.2 0-1 0-1-.1-2-.6-20.4-2.4-40-6-60.1-1.3-7.3-2.4-14.5-3.3-21.8-4.8-36.9-12.4-75.2-36.3-104.7-2.2-2.7-3.8-4.9-4.3-8.4z" fill="#ad4600"/><path d="M879 837q2.1.6 4.2 1.2 4.9 1.3 9.8 2.8.6 2.5 1.2 5 .5 1.7.9 3.4.9 3.5 1.7 7c4.2 18.2 10.7 35.8 17.3 53.2 11.1 29.3 20.5 60.4 10.9 91.4q-1 0-2 0-.5-1.3-1-2.7c-6.4-15.7-18.3-33.6-34-41.3-11.5-4.1-23.6-6.8-35.1-1.5-6.9 3.4-13.2 7.4-18.9 12.5q-1.1 1-2.3 2-1.1 1-2.3 2.1-2.2 1.9-4.4 3.9-.9.8-1.8 1.6c-27.9 23-79.1 26.1-113.5 22.9-5.9-.7-11.8-1.5-17.7-2.5q-1.2-.2-2.5-.4c-22-3.8-48.7-12.9-63.5-30.6-5.9-9.3-7.2-19.1-7.1-29.9q0-1.3.1-2.6 0-3.3 0-6.5c4.5.5 6.9 2.2 10.5 4.9 29 21.1 65.4 26.6 100.4 26.3q1.3 0 2.6 0c12.9 0 25.7-.3 38.5-2.2q1-.1 2.1-.3c36.4-5 73.2-25.5 96.9-53.7 2-2.9 3.6-5.8 5-9q-1.2-.1-2.5-.3c-3.5-.7-3.5-.7-7-2.5-5.2-2.7-10.7-4.3-16.3-6.1q-3.4-1-6.7-2.1-1.7-.5-3.4-1-4.2-1.3-8.3-2.7c-8.6-2.8-17.1-5.2-25.9-6.9-4.6-.9-8.6-2.1-11.9-5.4-.3-2.4-.3-2.4 0-5 7-4.7 18.7-1.9 26.6-.5 21.5 4.4 42.2 12.3 62.4 20.5.3-1 .3-1 .5-2 2.5-9.4 5.5-18.7 8.5-28q-1.7.1-3.6.1c-4.1 0-7.6-.8-11.6-2-17.2-4.8-33.8-4.5-51.4-3.5-18.3 1.1-18.3 1.1-22.4-1.6.2-3.6.9-4.9 3.5-7.6 4-3.2 8-3.4 13-3.7q1.4-.1 2.9-.2c19.4-1.3 38.8-2.1 57.6 3.5zm-697-68c1.9.3 1.9.3 4 1 1.2 1.7 1.2 1.7 2.2 3.9 3.1 6 7.4 10.9 11.8 16.1 1 1.3 1 1.3 2.1 2.5 19.9 23.8 52.8 35.6 82.9 38.5 3.1.2 6.1.2 9.2.2q1.3 0 2.6 0 4.2 0 8.3 0 1.4.1 2.9.1c34.8-.1 70.9-6.4 97.7-30.7q1.1-1.3 2.3-2.6c.9-1 .9-1 1.9-2 4.6-5 8.5-10.2 12.1-16 2.6 1 3.8 1.5 5 4q.3 1.2.7 2.4c.3 1.1.3 1.1.7 2.3q.3 1.1.6 2.3c.3.9.3.9.6 1.9 2.3 11.3.1 21.9-5.7 31.7-18.7 27.7-52.6 39.3-83.9 45.4-11.8 2.2-23.4 2.4-35.3 2.3h-3c-15 0-29.9-.4-44.7-3.3q-1.3-.2-2.5-.5c-18.1-3.7-34.7-11.2-48.5-23.5q-.8-.7-1.6-1.4c-11.5-10-20.2-22.6-23.4-37.6q-.3-1.2-.6-2.4-.2-.9-.4-1.8c-.8-3.6-.8-3.6-2-6.1-2.3-6.2-2.1-13.7.1-19.8 1.2-2.4 2.5-4.7 3.9-6.9z" fill="#013a55"/><path d="M888 956c4.1 2.3 7.5 4.9 11 8q1.1.9 2.1 1.9c13.8 12.9 22.1 27.7 23.1 46.6q.1 5.2 0 10.5v3.6c0 4.9-.1 9.6-1.2 14.4q-1-.5-2-1-.4 1.3-.9 2.7c-4.3 12.9-10.4 26.7-23.1 33.3-3 1-5.6 1.1-8.8 1.1q-1.1-.1-2.4-.1-.9 0-1.8 0c-.8-1.7-.8-1.7-1-4 1.6-2.5 1.6-2.5 4.1-5.5 4.7-5.8 8.9-11.7 13-17.9q.8-1.3 1.7-2.6c2.8-4.3 4.9-7.7 5.2-13l-4-1q-.6 1.1-1.2 2.1c-8.6 15.2-18.4 31.8-34.8 39.3-8.1 1.7-12.8.7-19.8-3.7-2.3-1.8-3.8-3.3-5.2-5.7 0-4 0-4 1.4-5.4l1.9-1.3c5.5-3.8 10.6-8 15.7-12.3q1.4-1.2 2.9-2.4c9.2-8 20.3-18.8 24.1-30.6-4.3.3-6.3 1.9-9.2 5.1q-.6.8-1.4 1.7-.7.7-1.4 1.5-3.2 3.6-6.1 7.4c-1.7 2-3.3 3.7-5.3 5.4q-4 3.3-7.7 6.8c-14 13.3-14 13.3-22.1 16.3-4.2-.3-5.9-2.3-8.8-5.2-2.7-4.6-3.2-8.8-2-14 2.4-4.1 5.4-7.7 8.5-11.3q2.3-2.6 4.4-5.3c4.7-5.6 9.6-11 14.8-16.1 5.1-4.9 9.8-10.1 13.3-16.3q0-2 0-4c-3.6-.3-3.6-.3-6.8 1.3q-.9.8-1.7 1.7-1 .9-1.9 1.9-1 1-2 2.1c-1 1-1 1-2 2.1-4.8 5-9.4 10.1-13.8 15.4-14 16.8-14 16.8-18.9 18-3.2.2-5.6-.3-8.4-1.8-2.5-4.6-2.4-8.6-1.5-13.7 3.6-10.5 10.2-18.4 17.6-26.5 1.8-1.9 3.5-3.9 5.1-5.9 3-3.4 6.2-6.2 9.7-9.1 1.9-1.5 1.9-1.5 2.6-4.5l-5-1c13.4-14.7 32.2-16.1 50-9z" fill="#de8800"/><path d="M879 837q2.1.6 4.2 1.2 4.9 1.3 9.8 2.8.6 2.5 1.2 5 .5 1.7.9 3.4.9 3.5 1.7 7c4.2 18.2 10.7 35.8 17.3 53.2 11.1 29.3 20.5 60.4 10.9 91.4q-1 0-2 0-.5-1.3-1-2.7c-6.4-15.7-18.3-33.5-34-41.3-7.5-2.7-14.3-4.3-22.3-3.7-5.1.4-9 .7-13.1-2.8-5.8-5.8-10-12.2-10.8-20.6.2-1.9.2-1.9 2.7-4.6q1.7-1.2 3.6-2.4 1.9-1.4 3.8-2.8c1-.8 1-.8 2.1-1.5 8.5-6.7 16.5-14.6 21-24.6q-1.2-.1-2.5-.3c-3.5-.7-3.5-.7-7-2.5-5.2-2.7-10.7-4.3-16.3-6.1q-3.4-1-6.7-2.1-1.7-.5-3.4-1-4.2-1.3-8.3-2.7c-8.6-2.8-17.1-5.2-25.9-6.9-4.6-.9-8.6-2.1-11.9-5.4-.3-2.4-.3-2.4 0-5 7-4.7 18.7-1.9 26.6-.5 21.5 4.4 42.2 12.3 62.4 20.5.3-1 .3-1 .5-2 2.5-9.4 5.5-18.7 8.5-28q-1.7.1-3.6.1c-4.1 0-7.6-.8-11.6-2-17.2-4.8-33.8-4.5-51.4-3.5-18.3 1.1-18.3 1.1-22.4-1.6.2-3.6.9-4.9 3.5-7.6 4-3.2 8-3.4 13-3.7q1.4-.1 2.9-.2c19.4-1.3 38.8-2.1 57.6 3.5z" fill="#007878"/><path d="M397 992q2.5.5 5 1c1.4 5.2.4 8.8-1.5 13.7l-.8 2.3q-.9 2.3-1.8 4.7-1.6 4.2-3.2 8.5-.8 2.2-1.6 4.3-3.2 8.7-6.3 17.5c-.5 1.2-.5 1.2-.9 2.4q-1.8 4.9-3.5 9.8-1.3 3.4-2.5 6.9-.4 1-.8 2.1-.3 1-.7 2-.3.8-.6 1.7a50.54 50.54 0 0 1-2.4 5.3c-1.7 4-1.8 7.8-1.7 12.1v2.4q.1 4 .2 7.9 0 2.8 0 5.6.1 5.8.2 11.7.1 7.4.2 14.8c.2 20.1.5 40.2 2.7 60.3q.2 1.9.4 3.9.6 4.4 1.3 8.7c.2 1.5.2 1.5.5 3.1 1.8 10.4 4.9 20.4 8.2 30.5.6 1.8.6 1.8.6 2.8h-24l-3.5-9c-2.7-6.8-5.5-13.4-8.8-19.9q-.4-1-.9-2c-3.3-6.8-3.3-6.8-9.2-11-4.6-1.9-6.9-5.4-8.8-9.8l-3.3-10q-.5-1.7-1.1-3.4-1.8-5.4-3.4-10.9-.3-1-.6-2c-4.4-13.7-6.2-27.6-8-41.9q-.4-3.6-.9-7.2-1.1-8.9-2.1-17.7-.5-4.3-1.1-8.7c-2.6-21.1-4.3-42.2-5.3-63.5q-.1-1.7-.2-3.5-.4-8.7-.8-17.5c1.9-.6 1.9-.6 4-1 5.2 4.3 5.4 8.5 6 15 .1 1.2.1 1.2.3 2.4a496.71 496.71 0 0 1 1.2 17.2c.4 9 1.3 17.9 2.3 26.8q.2 2.4.5 4.8.7 6.5 1.4 13 .5 4.3.9 8.5.8 7.4 1.6 14.7.4 2.8.7 5.6c1.3 12.1 3 24 5.1 36 7.9-7.7 13.2-15.7 17.9-25.6q.9-1.8 1.7-3.5c13.3-28.5 24-57.8 33.9-87.5q3.7-11.1 7.8-22 .5-1.4 1.1-2.8c1.3-3.5 2.5-6.5 4.6-9.6z" fill="#b14b00"/><path d="M633 553q.5 0 1 0c1 32.5 1 32.5-5 45q-.7 1.7-1.4 3.5c-4.5 10.4-11.6 17.7-19.6 25.5q-1.3 1.3-2.6 2.7c-18 17.2-42.8 24.1-67.1 23.8q-3.7-.1-7.4 0c-9.7-.1-18.5-1-27.9-3.5q-1.4-.4-2.9-.8c-9.9-2.8-15.6-12.2-20.4-20.7-4.5-8.2-8.7-17.1-8.7-26.5 5.6 1.5 11.1 3 16.6 4.8 13.6 4.5 26.3 6.5 40.6 6.5q1.6 0 3.3 0c12.5-.1 23.9-2.3 35.7-6.4q1.8-.6 3.6-1.2c16.4-5.7 29.8-13.8 43.2-24.7q.9-.7 1.8-1.5c3.8-3.1 7-6.4 10-10.3 4.1-5.1 4.1-5.1 6.2-7.2.5-2.2.5-2.2.6-4.6q.1-1.2.3-2.5c0-.9 0-.9.1-1.9z" fill="#de8800"/><path d="M837 964q3 1 6 2c-.3 4.6-3.8 6.8-7 9.6-8.7 7.7-16 16.4-22 26.4q-.7 1.2-1.5 2.4c-3.4 6-4.9 11.7-3.5 18.6 2.1 2.9 2.9 3 6.7 3.6 5.7-.3 8.6-3.6 12.3-7.6 3-3.4 5.9-6.8 8.8-10.3 4.5-5.2 9.1-10.3 13.9-15.3q1.8-2 3.7-4 1-1.1 2-2.2.9-.9 1.8-1.9c2.4-1.7 4-1.5 6.8-1.3.9 2 .9 2 1 5-4.3 8-12 15.1-18.5 21.4-3.7 3.6-6.9 7.6-10.1 11.6-1.7 2.1-3.4 4.2-5.2 6.2-5.9 6.8-5.9 6.8-8.1 15.2.5 4.4 2 7.3 4.9 10.6 2.8 2.2 2.8 2.2 5.6 2 7.6-2.2 13.1-7.4 18.4-13 3.7-3.7 7.7-7.1 11.7-10.4 4.7-3.8 8.4-8.2 12.1-12.9 2.3-2.8 4.6-5.3 7.2-7.7 2.3.2 2.3.2 4 1-.5 4.7-2.6 7.6-5.5 11.2q-.7.8-1.4 1.7c-9.7 12.3-20.7 22.5-33.1 32.1q-1.1.9-2.2 1.7c-1.8 1.3-1.8 1.3-3.8 1.3 1.4 5.1 3.1 7.5 7.6 10.4 6 3.3 10.4 3.7 16.9 1.9 15.1-5.4 23.5-20.3 31.5-33.3q1.5-2.3 2.9-4.7 1.1-1.6 2.1-3.3 2 .5 4 1c.8 2 .8 2 1 5-1.3 2.7-2.7 5-4.3 7.4q-.7 1.1-1.4 2.1c-5.2 8-10.5 16-16.6 23.2-2 2.2-2 2.2-1.7 5.3 7.6.5 13.2-.7 19.4-5.4 8.2-7.4 12.4-17.6 15.6-27.9 1-2.7 1-2.7 3-3.7 1 3.1 1 4.9-.1 7.9q-.4 1.1-.8 2.3c-.5 1.1-.5 1.1-.9 2.2q-.4 1.2-.8 2.3-2.1 5.7-4.4 11.3-.5 1.5-1 3-1.9 3.1-4 6-.6.9-1.3 1.8c-3.7 4.9-7.7 7.7-13.7 9.2-11 1.1-11 1.1-15.4-1.3-1.6-1.7-1.6-1.7-1.6-4.7q-1 .5-2 1.1c-7 3.3-12.8 4.4-20.4 4.6-9.6.3-23.1.8-30.6 7.3-15.2 16.4-22.7 37.3-22.3 59.7.6 13.6 5.5 28.5 15.3 38.3 4.5 2.8 9.6 2.8 14.8 3.3 3.2.7 3.2.7 5.1 2 1.8 2.8 1.4 5.5 1.1 8.7-2 2-2 2-4.7 2.4-3.6-.4-5.5-1.4-8.5-3.4-7.6-4.1-21.2-3-29.4-.9-8.1 3-13.8 8.1-17.4 15.9-2.5 6.2-4.9 12.4-6 19h-7c-.6-13.5 1.8-22.8 11-33 7.2-6.6 14.6-9.7 24-12q2-.5 4-1-.8-1.8-1.6-3.6-1.1-2.4-2.2-4.8-.5-1.2-1.1-2.4c-8.7-19.4-12.1-42.8-4.4-63.3q1.1-2.4 2.3-4.9.7-1.5 1.4-3.1c6.5-13.1 16.5-24.9 30.6-29.9q2.9-.6 5.8-1.1 1.5-.3 3-.5 1.1-.2 2.2-.4c-3.9-7.7-3.9-7.7-10.6-12.4l-3.4-.6c-5.1-3.1-8.7-8.2-10.6-13.9-.5-2.8-.5-5.5-.5-8.4q.1-1.6.1-3.2 0-1.2 0-2.5-1.6-.1-3.2-.2c-5.3-1.1-7.3-3.7-10.4-8-2.7-5.4-2.4-11.9-1.4-17.8 3-8 8.1-14.9 13.4-21.6 1.8-2.3 1.8-2.3 1.9-4.9 1.1-3.9 4.2-5.6 7.4-7.9 4.8-3.6 9.1-7.3 13.3-11.6z" fill="#b75300"/><path d="M217 853q.8.4 1.6.8 3.6 1.8 7.3 3.5 1.2.6 2.5 1.2c5.7 2.8 11.4 4.8 17.6 6.5q-1 .5-2 1l1 2.2c7.4 15.9 7.4 15.9 6 23.8-3.2 7.7-7.8 13.8-15 18q-1 0-2 0 .1 1.8.1 3.7.1 2.4.1 4.9.1 1.2.2 2.4c.1 6.7-1.6 10.6-6 15.9-6.1 5.2-13.3 8.2-21.4 9.1l-.2 1.8c-.6 4.6-1.5 7.5-5.3 10.5-11 7.2-23 9.4-35.9 7.1-8.3-2.3-14.7-6.3-21.6-11.4q-1-.6-2-1.2c-1.7-1.1-1.7-1.1-4-3.8-.8-4-1-7.9-1-12q1.3 1.2 2.7 2.4c3.4 3 7 5.7 10.7 8.3q1.5 1.1 3.1 2.2c6.9 4.4 13.9 5.6 21.9 5.5q1.3 0 2.5 0c7.2-.1 13.9-1.2 19.1-6.4 0-2 0-2-1-4-1.9-1.3-1.9-1.3-4.4-2.3-12.7-5.9-24.2-15.9-33.9-26-1.8-1.8-1.8-1.8-4.3-3.6-6.6-5.7-13-15.1-13.7-24 .3-3.1.3-3.1 1.3-4.1 4.4-.5 4.4-.5 6.5 1.1 2.5 3.1 4 6.9 5.7 10.5 8 16.6 27.4 27.4 42.8 36.4q1 .6 2 1.2c5.5 2.2 12.9 1.5 18.4-.4 3.8-1.9 6.1-3.3 8.6-6.8.8-5.1.6-7-2-11.4-3.1-4.2-7-6.2-11.6-8.5q-2.4-1.3-4.8-2.6-1.2-.7-2.4-1.3c-14.4-7.9-26.7-18.7-37.2-31.2q-1-1.1-1.9-2.3c-4-4.9-4-4.9-4.4-8.3.3-2.4.3-2.4 2.3-4.4 2.8-.5 2.8-.5 6 0 2.2 2.1 3.9 4 5.8 6.4q1.5 2 3.1 3.9.8 1 1.6 1.9c7.4 8.7 16.9 14.9 26.5 20.8q1.2.8 2.5 1.5 3.9 2.4 7.9 4.7 1.2.7 2.5 1.5c5 2.8 8.5 3.8 14.2 3 3.6-1.3 4.9-3.6 6.9-6.7 1.8-5.5 1.4-9.6-.9-14.8-4.9-9.1-12.5-15.8-20.2-22.4-1-.9-1-.9-1.9-1.8q0-1 0-2z" fill="#b55000"/><path d="M724.4 822.3q1 .1 2.1.3c4.4.8 7.3 2.2 10.5 5.4.7 4 .4 6.2-1.4 9.9-2.8 3.7-6.3 6.9-9.7 10.1-3.2 3.3-3.1 5.6-3.3 10.1.1 6.3 1 10.4 5.4 14.9 3.8 3.2 7.8 4.7 12.8 4.4 8.2-1.4 14.3-5.6 20.7-10.7 2.6-1.8 4.3-2.4 7.5-2.7 2.3 1.1 2.3 1.1 4 3 .4 3.4.5 5.3-1.5 8.1-10.2 8.6-23.5 17.9-37.4 17.2-9.7-1.3-17.1-6-25.1-11.3q-1.1.7-2.3 1.5-1.4 1-2.9 1.9-1.5 1-3 2c-6.5 3.7-14.5 3.8-21.8 2.6-5.7-1.8-10.9-4.8-16-8q-1.3-.8-2.7-1.7c-6.2-4.4-11.7-10.6-15.3-17.3.3-4.3.3-4.3 2-6 5.6-.9 10-.5 14.8 2.6 2.8 2.1 5 4.3 7.3 7 3.7 4.6 7.7 7 13.6 7.7 5.5.2 9.7 0 14.3-3.3 5.8-6 7.2-11 8-19q-1.5-.5-3-1c-1.8-2.4-1.8-2.4-3.6-5.4l-1.9-2.9c-2.5-4.4-2.9-7.7-2.5-12.7 1.7-3.5 3-5.5 6.5-7.4 8.1-1.4 15.9-.7 23.9.7z" fill="#033a55"/><path fill-rule="evenodd" d="M349 661c3.9 3.4 6.8 6.1 7.4 11.4-.2 7.2-2.7 15.9-7.6 21.2-3.5 2.8-7.3 5.1-11.2 7.5-2.6 1.9-3.6 2.8-4.6 5.9-.3 5.9 1.2 10.4 5 15 6.3 5.8 12 6.5 20.4 6.3 11-.9 20.6-6.5 27.7-14.9 4.4-5.7 7.7-12 10.9-18.4 4.8.8 4.8.8 6.8 2.6 1.8 3.6 2 6.6 1.2 10.4-3.3 8.5-12.7 19.8-21 24-1 2.5-1.9 5-2.8 7.6q-.8 2.4-1.6 4.7-.4 1.2-.8 2.4c-7.6 21.6-17.2 41.3-38.7 51.7-11.6 4.8-27.1 6.2-39 1.6-15.1-7.2-24.9-18.3-34.1-32q-.7-1-1.4-2c-6.5-9.8-11.6-19.6-15.5-30.7-1.2-2.5-2.4-3.9-4.4-5.9-4.4-4.8-8-9.9-11.6-15.2q-.9-1.3-1.8-2.5c-.8-1.2-.8-1.2-1.6-2.5-.8-1-.8-1-1.5-2.1-1.2-2.1-1.8-3.8-2.2-6.1 5-4.7 5-4.7 9-5.8 4.5 1.2 6.3 4.2 9 7.8 10.2 13.4 19.8 25 37.6 27.7 9.4 1 17.5.2 25.6-5.2 3.8-3.1 6.4-5.8 7.1-10.9q.1-1.3.1-2.5 0-1.3.1-2.6c-.8-4-2.9-6.3-6.1-8.7q-2.8-1.9-5.7-3.7c-14.5-9.4-14.5-9.4-16.7-15.1-.7-5.1-.6-9.6 1.4-14.3 14.9-15.3 42.2-15.6 60.6-6.7zm-37 79c.3 3.2.9 4.8 2.9 7.4q1.2 1.2 2.4 2.3c2.8 2.7 5.1 4.8 8.7 6.3q1-.7 1.9-1.4 1.3-.9 2.5-1.9c3.1-2.3 5.1-4 6.6-7.7-3.9-1.1-7.5-2.7-11.1-4.6-2.3-1.2-4.6-2.3-7-3.1-2.5-.4-2.5-.4-6.9 2.7z" fill="#023a55"/><path d="M150.8 1001.7c5.7.1 10.7.9 16.1 2.5q1.2.3 2.4.7c22.3 6.6 40.4 25.2 51.7 45.1 13.5 25.3 17.2 63.7 9 91q-.3 1.1-.7 2.3c-5 16.2-12 31.2-22.3 44.7q1.6-.1 3.2-.1c14.4.1 26.1 4.6 36.5 14.6 9 9.9 12.8 20.2 12.4 33.5q0 1-.1 2h-9q-.1-1.4-.3-2.9c-1.1-11-3.7-20.1-11.7-28.1-10.5-7.9-21.2-9.1-34-9.1q-1.1 0-2.3 0c-3.7-.4-3.7-.4-6.7 1.1-2 .2-2 .2-4.4.3h-2.4c-2.7-.4-3.6-1.1-5.2-3.3.1-2 .1-2 1-4 2.1-2 4.1-3 6.8-4.2 16.2-9.2 25.4-36.7 30.2-53.8.9-4.6 1.2-9.2 1.2-13.9q0-1.1 0-2.3 0-2.4 0-4.8 0-3.5 0-7.1c.1-27.2-6.4-51.5-25.7-71.6-12.3-12.2-25-17.9-41.5-22.3q-1.3-.3-2.7-.7-1.1-.3-2.4-.6c-1.9-.7-1.9-.7-3.9-2.7.4-3.3 1.3-5.7 4.8-6.3z" fill="#b55000"/><path d="M710 1081q2.5-.1 5 0c1.6 1.6 1.2 3.2 1.2 5.4-.1 5.5-.9 10.7-1.9 16a589.94 589.94 0 0 0-4.2 26.1c-1.7 11.5-3.9 22.8-6.6 34.1q-.7 3.2-1.3 6.4c-1.4 6.7-3.1 13.3-7.2 19q-2 1-4 2c-1.1 1.9-1.1 1.9-2 4q-1.8 2.3-3.8 4.6c-6.5 8.1-10.5 16.4-13.2 26.4q-1.1 3.6-2.2 7.1-.5 1.7-1 3.4l-.8 2.5h-11q.6-2.2 1.2-4.5.9-3 1.7-6l.8-3c2.5-9.2 4.8-18.5 6.8-27.8l.6-2.9c.4-1.5.4-1.5.7-3q.3-1.3.5-2.6.4-1.6.7-3.2.2-1.2.5-2.4c1.4-6.9 1.9-13.6 2-20.6q0-1.7 0-3.4.1-3.5.1-7 0-3.6.1-7.1c.4-15.2-.7-27-7.8-40.6-3-6.2-5.8-13.1-3.9-19.9q2.5 0 5 0c2.8 5.3 5.3 10.7 7.4 16.3 2.6 6.7 5.5 13.2 8.6 19.7q.7 1.4 1.4 2.8c4 7.8 9.1 14.4 14.6 21.2 2.4-2.4 2.5-3.6 3-7q.3-1.4.5-3 1.1-6.7 1.9-13.5.4-2.9.8-5.8.6-4.5 1.2-9.1.6-4.4 1.2-8.8.1-1.3.3-2.7c.6-4.6 1.4-8.8 3.1-13.1z" fill="#b34e00"/><path d="M874.3 665.1q1.2.1 2.5.2c2.2.7 2.2.7 4.2 3.7 4.3 16.6-1.7 35.4-5.3 51.6-.7 3.2-1.3 6.4-1.8 9.7-1.1 6.1-2.4 11.9-4.9 17.7-4.4-1.6-6.8-5-9.7-8.5q-1.6-1.9-3.2-3.8-.8-1-1.6-1.9C846.3 724 838 716.5 827 710c.6-3.2 1.5-4.9 3.7-7.2q.8-.8 1.7-1.7l1.7-1.9q1.8-1.8 3.6-3.8.9-.9 1.8-1.8 2.5-2.7 4.9-5.5c3.5-4.1 7.3-8 11.2-11.9l1.9-1.9c10.1-10.1 10.1-10.1 16.8-9.2z" fill="#b44e00"/><path d="M458 478c3.6 2.7 6.8 5.9 10 9 15.2 13.8 33.8 20.7 54.2 20.3 18.4-.9 36.7-11.3 48.9-24.6 1.9-1.7 1.9-1.7 5-1.6 2.9.9 2.9.9 5.9 2.9-.9 9.3-8.3 14.7-15.1 20.4-6.2 5-12.3 8.9-19.9 11.6q-1.4.5-2.9 1.1c-23.6 8.5-50.9 7.6-73.7-2.9-9.5-5.2-22.9-14.4-26.4-25.2-.1-3.6-.1-3.6 1-7 4.1-3.8 7.5-5.2 13-4z" fill="#023955"/><path d="M623.2 656.6c11.1 1.1 18.6 11.7 25.4 19.7 12.1 15.1 12.1 15.1 13.4 22.7q-1.3.6-2.6 1.2c-17.3 8.2-32 20.2-45.4 33.8q-1.5-.5-3-1c-.1-10.1.2-20.2.9-30.3q0-1 .1-2.1c2.7-43 2.7-43 11.2-44z" fill="#b34e00"/><path d="M612.5 320.8c7.4 5.1 14.7 10.3 17.5 19.2.6 3.8.3 5.4-1.4 8.8-3 2.6-4.9 3.5-8.8 3.8-4.7-1-8.1-3.9-12-6.6-10.1-7.2-20.5-10.2-32.8-10.1q-1.2 0-2.4 0c-4 0-7.7.2-11.6 1.1q-3.1.2-6.1.2-1.6 0-3.2 0c-2.7-.2-2.7-.2-5.7-2.2-.9-4.2-.3-8.2 1.1-12.2 14.6-21.2 46.9-13.8 65.4-2.1z" fill="#023a55"/><path fill-rule="evenodd" d="M311 742.1q.8.4 1.5.8c.4 1.6 1.1 2.8 2.4 4.5q1.2 1.2 2.4 2.3c2.8 2.7 5.1 4.8 8.7 6.3q1-.7 1.9-1.4 1.3-.9 2.5-1.9c3.1-2.3 5.1-4 6.6-7.7h11l1.4 13.6q.3 1.9.5 3.8c.8 9.3.8 9.3-1.3 13a35.14 35.14 0 0 1-5.6 4.6q-1 .7-2.1 1.5c-8.7 6.1-17.6 6.3-27.9 4.5-5.4-1.7-10.3-3.9-15-7-.7-2.4-.7-2.4-1.2-5.4q-.2-1.6-.5-3.3-.2-1.7-.5-3.5-.3-1.7-.5-3.4c-.9-5.5-1.7-10.8-1.3-16.4 2-2 5.7-1.9 8.5-2.4 2.5-.5 2.5-.5 4.6-1.7 1.9-.9 1.9-.9 3.9-.8zm5.5 4.7c2.4 2.9 4.8 5.6 7.5 8.2 4.9-1.5 8.4-4.4 12-8q.5-1 1-2c-3.9-1.1-7.5-2.7-11.1-4.6-2.3-1.2-4.6-2.3-7-3.1-2.5-.4-2.5-.4-6.9 2.7.1 1.1.3 2 .5 2.9 1.6 1 2.6 2.2 4 3.9z" fill="#dd7440"/><path d="M477 316.2c4.3 3.4 6.7 6.8 7.6 12.2-.7 4.2-2 6-4.6 9.2-3 2.1-5.4 2.2-9 2.4-3.5-.8-3.5-.8-7.2-1.9-12.6-3.7-21.9-2.4-33.8 2.9q-2.9 1.6-5.8 3.3c-4.9 2.9-9.5 4.1-15.2 2.7-2.4-1.6-2.9-2.5-3.4-5.3.6-3.7 2.2-5.4 4.6-8.1q1.2-1.5 2.5-3 1.1-1.3 2.3-2.6 1.2-1.6 2.4-3.2c14.2-14.9 41.7-19.5 59.6-8.6z" fill="#023955"/><path d="M238 1050c2.4.7 2.4.7 5 2 1 2.2 1 2.2 1.6 5.2q.3 1.7.7 3.5.4 2.2.7 4.3.2 1.2.4 2.5l3.1 20.6q.9 6.1 1.8 12.2.2 1.5.4 3 1.9 12.8 3.9 25.5.6 3.3 1.1 6.5c4.9 32.1 11.4 63.5 24.1 93.5 1.2 3.1 1.8 5.9 2.2 9.2h-10c-9.9-25.8-9.9-25.8-13-38q-.3-1.3-.7-2.6c-2-7.7-3.6-15.5-5.1-23.4q-.2-1-.4-2c-3.1-16-5.8-32.1-8.4-48.2q-.4-3-.9-5.9-1.7-10.3-3.3-20.6-.5-3.4-1-6.9c-1.7-10.4-3.4-20.8-4.1-31.3q0-1.1-.1-2.1c-.1-2-.1-2 0-5q1-1 2-2z" fill="#b55000"/><path d="M499 385q1.9.2 3.8.4l2.2.2c2 .4 2 .4 5 2.4-.4 7.9-2.8 13.9-6 21-7 15.6-7 15.6-6 32.3 1.7 3.8 4 5.9 7.7 7.9 6 2 11.7.1 17.3-2.2 3.7-.2 3.7-.2 7 0 2 2 2 2 2.5 4.8-.6 3.6-1.6 5-4.5 7.1-8.6 4.7-18.3 5.2-27.7 2.9-7.9-2.8-14.2-8.6-18.4-15.7-5.4-12.8 3.3-32.1 8.2-44.1 2.5-6.1 5.1-11.6 8.9-17z" fill="#033955"/><path d="M784 1082q2.5.4 5 1c.3 8-.9 15.6-2.2 23.5q-.3 2.1-.7 4.2-2.3 14-5.2 28c-1.1 5.3-2.1 10.7-3 16-2.9 17.7-7.4 34.3-12.9 51.3q-.5 1.6-1 3.2-2.6 7.8-5.2 15.6-1.6 4.7-3.2 9.4c-.6 1.8-.6 1.8-1.6 3.8h-9c.6-5 2.2-9.1 4.2-13.6 4-9.5 6.8-19.1 9.5-29q.7-2.5 1.4-5 2-7.2 3.9-14.4.3-1.1.6-2.1c2.1-7.8 4.1-15.6 5.8-23.5q.3-1.4.7-2.9c3.3-15.6 6.1-31.3 8-47.1 1.9-15.4 1.9-15.4 4.9-18.4z" fill="#b85300"/><path d="M819.6 861.5c17 3.5 33.5 9.3 49.6 15.5q2.8 1 5.6 2l2.7 1q1.2.4 2.4.9c2.6 1.3 3.7 2.6 5.1 5.1-.2 3.7-.2 3.7-1 7-3.8 1.9-7.9 1.5-12 1-2.5-1-2.5-1-5.1-2.3-5.8-2.7-11.7-4.7-17.9-6.6q-3.3-1.1-6.6-2.1l-3.3-1q-4.2-1.3-8.3-2.7c-8.6-2.8-17.1-5.2-25.9-6.9-4.6-.9-8.6-2.1-11.9-5.4-.3-2.4-.3-2.4 0-5 7-4.7 18.7-1.9 26.6-.5z" fill="#043955"/><path d="M468 372q.8.6 1.7 1.1c4.4 3.3 7.7 7.5 8.6 13 .2 3-.2 5.6-1.2 8.4-2.9 2.1-5.1 2.2-8.6 2.1-4-1-6.8-3.3-10.1-5.8-5.7-4.2-11.4-5.6-18.4-4.8-5.3 2.4-9.4 5.8-13.8 9.6-2.7 1.7-4.1 2-7.2 1.4-2.8-2.7-3.5-5-3.6-8.8.2-4.6 1.1-7.3 4.4-10.5 12.6-9.4 34-15.4 48.2-5.7z" fill="#033a55"/><path d="M604.2 376.9c5.6 4.1 8.7 8 9.8 14.9.3 3.3-.2 5.4-2 8.2-3 1.2-3.9 1.6-7 1-3.6-2.4-6.7-5.2-10-8-4.4-3-8.4-3.7-13.7-3.6-5.1.9-9.4 3.4-14.1 5.7-5.3 2.7-10.2 4.5-16.2 2.9q-1-1-2-2c0-6.4 2.6-10.5 7-15 13.7-11.4 32.7-13.2 48.2-4.1z" fill="#043a55"/><path d="M669 772c6.6 5.6 11.2 12.6 12.5 21.3-.7 3.6-1.6 5.3-4.5 7.7-3.3.4-3.3.4-7-1-2-2.1-3.6-4.3-5.3-6.7-3-4.1-6.9-7.8-12-8.7-7.9-.5-12.9 1.5-19.4 5.6-3.1 1.9-4.9 2.8-8.6 2.7-3.2-1.1-5.2-2.6-7.7-4.9.4-5.3 2.1-8.5 6-12 13.7-9.8 30.9-13.5 46-4z" fill="#033a56"/><path d="M879 837q2 .6 4 1.2 4.5 1.3 9 2.8l1 10c-6.1 3-13.1.3-19.2-1.4-16.4-4.6-32.6-4-49.4-3-18.3 1.1-18.3 1.1-22.4-1.6.2-3.6.9-4.9 3.5-7.6 4-3.2 8-3.4 13-3.7q1.4-.1 2.9-.2c19.4-1.3 38.8-2.2 57.6 3.5z" fill="#043956"/><path d="M386.7 610.5c7.2 4.6 15.4 11.8 19.3 19.5.2 3 .2 3 0 6-2 2-2 2-5.3 2.4-4.6-.5-5.6-1.7-8.6-5.2-5.8-6.1-10.7-9.3-19.3-9.6-4.2.2-7.3.9-10.8 3.4q-2.1 2.9-4 6c-3.7 2.5-5.6 2.4-10 2-1.9-1.1-1.9-1.1-3-3-1.1-5.9 1-9.8 4.1-14.6 8.7-10.9 25.3-12.7 37.6-6.9z" fill="#033956"/><path d="M809.3 779.2c8 3.7 14.7 8.6 18 17.1-.3 2.7-.3 2.7-1.8 5.1-3.5 2.2-5.5 2.2-9.5 1.6-2.4-2.1-2.4-2.1-5-5-6-6-10.8-8.9-19.5-9.3-7.5.2-11.2 2.9-16.4 8-5.3 4.9-5.3 4.9-9.6 5-3.5-.7-3.5-.7-5.5-2.7-.3-2.8-.3-4.4 1.1-6.9 13.9-15.9 28.1-20.3 48.2-12.9z" fill="#033957"/><path d="M602.8 848.9h3.9c22.5 0 22.5 0 28.3 4.1 1 2 1 2 1 4-1.8 2.5-3 3-6 4q-2.3.2-4.7.3-1.4 0-2.9.1-1.5 0-3.1.1-3.2.1-6.5.2-5.1.2-10.3.3-4.9.2-9.9.4-1.5 0-3.1.1c-5.6.2-10.9.8-16.4 2.1-3 .6-5.9.7-9 .7-1.7 0-1.7 0-3.3.1-2.8-.4-2.8-.4-4.7-1.8-1.1-1.6-1.1-1.6-1-4.1 1.2-3.2 2-3.8 4.9-5.5 3-.9 6.1-1.5 9.2-2.1q1.2-.3 2.5-.5c10.4-2.1 20.5-2.6 31.1-2.5z" fill="#023955"/><path d="M274.3 612.1c5.5 3.8 9.2 8.7 11.7 14.9.3 3.2.3 3.2 0 6q-1 1-2 2c-3.4-.1-3.4-.1-7-1-.9-1.2-.9-1.2-1.9-2.4-4.2-5.2-11.2-7-17.6-8.3-9.4 1.9-16.3 6.8-22.5 13.9-2 1.8-2 1.8-4.6 2.2l-2.4-.4c-2.4-3.5-2.5-4.8-2-9 4.6-8.7 12.6-15.4 21.7-19.1 8.1-2.2 19.1-2.7 26.6 1.2z" fill="#033956"/><path d="M594.1 814c34.2 7 34.2 7 39.2 13.7 1 3.2.8 6.1.7 9.3-7.4-.5-13.7-2.4-20.7-4.9-12.8-4.4-25-7.3-38.6-8.3-5.4-.4-9.8-1.5-14.7-3.8-2-3-2-3-1.8-5.1 3.8-9 28.6-2.3 35.9-.9z" fill="#033955"/><path d="M717 381q1 1 2 2c-.1 2.4-.1 2.4-1 5l-5 3.9c-3.3 2.8-4.8 4.3-5.8 8.5q-.1 3.8-.2 7.6c-.1 11.3-2.8 23.8-11 32-4.6-.6-4.6-.6-6-2 .3-4.8 1.2-8.7 2.9-13.1 3.2-8.5 4.7-17.4 6.1-26.4.9-5.7 2.1-9.7 6.4-13.8 4-2.7 6.6-4.2 11.6-3.7z" fill="#b14b00"/><path d="M332.4 1203.7c2.6.3 2.6.3 4.3 2.2q.7 1.3 1.5 2.7l1.5 2.5c4.4 9.6 3.3 15.5 3.3 26.9l130 1q0 .5 0 1H219q0-.5 0-1h116c-2.1-10.8-2.1-10.8-4.7-21.5-1.1-4.3-1.7-8-1.3-12.5 1-1 1-1 3.4-1.3z" fill="#ae5600"/><path d="M273 747q2.4.1 4.7.3 1.4.2 2.9.3 1.4.2 3 .3 1.5.2 3 .3 3.7.4 7.4.8 1 5.8 2 11.7.3 1.6.6 3.3l.5 3.3q.3 1.4.5 2.9c.4 2.7.5 5.2.4 7.8-5.1-1.5-8.5-4.6-12.4-8.1q-1-.8-2.1-1.7c-5.6-5.1-11-9.9-11.9-17.7.4-2.5.4-2.5 1.4-3.5z" fill="#0d1b31"/><path d="M939 1108q.5 1 1 2 2 0 4 0c6.4 15.3 10.2 28.8 10.2 45.6q0 1.6 0 3.3c0 12.8 0 12.8-3.7 16.7q-.7.7-1.5 1.4c-1.2 2.6-1.2 2.6-2 5q-1-.5-2-1 .2-1.2.4-2.5c3.4-21.2 1.5-43.4-5.5-63.8-.9-2.7-.9-2.7-.9-6.7z" fill="#c46400"/><path d="M368 743c-.3 6.9-1.4 12.1-5 18-.7 1.1-.7 1.1-1.4 2.3-1.6 1.7-1.6 1.7-4.5 3.1-3.4 1.8-4.9 3.5-7.1 6.6-3.5-3.5-2.1-13.1-2.1-17.8q0-5.1.1-10.2c6.7-1.3 13.1-2.3 20-2z" fill="#0d1b32"/><path d="M80 1049c1.6 1.1 1.6 1.1 3 3-.2 5.6-2.1 10.6-3.9 15.9q-.4 1.1-.8 2.3-1.5 4.5-3.1 9.1c-3.5 10-4.7 19.7-5.4 30.3-.4 5.4-1.1 10.3-2.8 15.4-7.8-15.6-1.7-38.1 3.3-54 2.7-7.6 6.2-14.8 9.7-22z" fill="#c46200"/><path d="M212.7 1208.3c4.6 1 6 3.2 8.6 7 4.5 7.2 7.2 14.4 8.7 22.7h-12q-.8-2.1-1.6-4.2c-2.1-5.2-4.6-10.1-7.2-15-1.3-2.9-1.6-4.7-1.2-7.8 2-2 2-2 4.7-2.7z" fill="#b55000"/><path d="M300 1201c2.3.1 2.3.1 5 1 1.6 2.1 2.8 3.9 4.1 6.2q.5.9 1 1.9c4.6 8.6 7.7 18 6.9 27.9h-8q-.4-1.8-.9-3.7c-2.2-9.1-4.6-17.4-9.1-25.7-1-2.6-1-2.6-.7-4.9.7-1.7.7-1.7 1.7-2.7z" fill="#be5b00"/><path d="M800.9 1212.8c3.1.2 3.1.2 6.1 2.2-.5 6.1-1.8 10.6-4.6 16-.5 1-.5 1-1 2.1q-1.2 2.4-2.4 4.9h-11c.8-6.9 4-24.6 12.9-25.2z" fill="#b55100"/><path d="M452 1203c3.2-.4 4.6-.3 7.3 1.6 4.2 5.9 2.8 14.9 2.8 21.8q0 1.7-.1 3.4 0 4.1 0 8.2h-8q0-1.1-.1-2.2-.2-5.1-.3-10.1-.1-1.8-.2-3.5 0-1.7-.1-3.4 0-1.6-.1-3.2c-.1-2.7-.1-2.7-1.2-5.6q-.1-3.5 0-7z" fill="#ba5700"/><path d="M722.7 1203.8l2.3.2c1.1 3.9 1 5.9-.8 9.6-3.3 7.8-5.2 16-6.2 24.4h-8c0-8.1 1-15 3.9-22.6q.4-1 .8-2.1c3.6-9.1 3.6-9.1 8-9.5z" fill="#bf5d00"/><path d="M423 1204c3.3-.3 3.3-.3 7 0 4.5 3.8 6.1 9.3 7 15 .3 6.3.2 12.7 0 19h-7q0-1.5 0-3.1c-.3-8.2-1.1-14.7-4.8-22.3-1.3-2.8-1.8-5.5-2.2-8.6z" fill="#b95500"/><path d="M699 1207c1.6 4 .3 7.6-.8 11.6-1.7 6.4-3.1 12.8-4.2 19.4h-7c-.5-10.6-.3-22 6-31 2.5-1.2 3.4-.8 6 0z" fill="#be5b00"/></svg>