<svg xmlns="http://www.w3.org/2000/svg" width="1024" height="1024" xmlns:v="https://vecta.io/nano"><path fill-rule="evenodd" d="M191 122.6c12.1 4.5 21.5 11.9 31 20.4q.8.7 1.6 1.4c12.6 11.2 24 23.4 34.4 36.6q1.1 1.4 2.3 2.9c9.4 12 18.6 24.3 26.5 37.2 1.1 1.8 1.1 1.8 2.2 2.9 6.2-.6 12.4-1.8 18.5-3q2.7-.5 5.4-1.1 1.2-.2 2.4-.4c7.3-1.3 14.4-1.7 21.8-1.7q1.6 0 3.2 0 3.4 0 6.7 0 5.1-.1 10.1-.1c14.2-.1 27.1 1.2 41 4.5q1.9.4 3.9.8 1 .2 2.1.4c2.9.3 5.2.2 7.5-1.6 2-2.2 3.7-4.4 5.4-6.8q1.3-1.8 2.6-3.5 2.3-3.1 4.6-6.1c8.2-11 16.9-21.6 26.3-31.7 3.1-3.3 6-6.7 8.9-10.2 1.6-1.5 1.6-1.5 3.6-1.5.4-.9.4-.9.7-1.7 1.6-2.8 3.4-4.4 5.8-6.5l7.9-7c13.2-12.3 30-26.3 48.9-26 4.4.3 6.3 1.6 9.1 4.8 20.6 27.2 13.8 75.1 9.6 106.4-4.4 31.1-13.2 63-32.6 88.3-2.2 4.2-2.2 8.2-.8 12.6.8 2.1 1.8 4 2.8 6q.5 1.1 1 2.2c3.2 6.3 6.6 12.5 10.2 18.6 2.8 4.9 4.8 9.8 6.4 15.3q-1.2.1-2.3.1-1.5.2-3.1.3-1.5.1-3 .2c-2.8.2-2.8.2-4.6 2.4q0 3 0 6l14 1c0 6-.2 8.5-2.4 13.7q-.6 1.7-1.3 3.4C528 405 528 405 526 408c-2.1.7-2.1.7-4.6 1.1-3 .4-3 .4-5.4 1.9-.4 2.9-.4 2.9 0 6 1.9 1.9 1.9 1.9 4 3q-.5 1.3-1 2.7c-.9 3-1.2 5.2-1 8.3q1 .5 2 1-.2 1.9-.8 3.5l76.7 55.3c0 1.2-.3 2.3-.9 4-6.8 14.4-11.7 29.4-14.6 45.1q-.2 1-.4 2.1c-1.9 10.6-2.2 21.1-2.2 31.9q0 1.1 0 2.2 0 3.3 0 6.5 0 1.1 0 2.1c.1 3.7.2 7.2.7 10.9q.2 1.7.5 3.4.2 1.6.5 3.1.2 1.6.4 3.1.6 3.6 1.1 7.1c1.2 7.9 2.3 15.8 3 23.7q-2 1-4 2 0-1 0-2c-4.5-17.6-12.3-36.7-25.9-49.2q-1.1-.9-2.1-1.8c-6.6-5.9-13.4-10-21.3-13.7q-1.4-.7-2.7-1.3c-1-37.5-7.7-72.4-19.9-107.9q-1.1-3-2.1-6l-.8-2.5q-.6-1.8-1.2-3.6c2.4-1.6 4.7-3.2 7-5 3.6-3.1 6.7-5.6 8.2-9.5l76.7 55.3c-.1-.8-.4-1.7-.9-2.8-2-1.8-2-1.8-4-3 1.1-2.9 1.8-4.8 4-7-1.5-2.9-2.8-4.8-5.3-6.8-13.1-10.7-24.6-32.9-26.5-49.5q-.1-1.8-.2-3.7 1.8-.2 3.6-.4 2.4-.2 4.8-.5 1.2-.1 2.4-.2c4.6-.4 4.6-.4 8.2-2.9 0-2.1 0-2.1-1-4-3.6-2.5-7.5-2.4-11.8-2.6q-1-.1-2.1-.1-2.5-.2-5.1-.3 0-2.9-.1-5.7V398c.1-2.5.4-4.6 1.1-7 3.6.4 7 1 10.5 2.1 3.7.9 6.7 1.1 10.5.9q0-3 0-6c-5.9-3.2-11.6-5.2-18-7 .3-6 1.1-10.8 3.7-16.2 5.3-11.4 4.2-21.4 3-33.7-.9-8.9-1-17.7-1-26.6.1-1.2.1-1.2.1-2.3.2-44.2.2-44.2 8.4-55.1 3.6-2.7 5.4-2.7 9.8-2.1 2.7 1 5 2 7.4 3.3q1.1.5 2.1 1c7.5 4 14.1 9 20.7 14.3 2.6 2 5.3 4 7.9 5.9 9.3 6.9 18.4 14.4 26.1 23.1 2.5 1.9 4.7 2.1 7.8 2.4q.1.8.2 1.7c1.5 10.9 3 21.7 5.8 32.3q2.5 0 5 0c2.9-5.1 4-9.9 5.1-15.6q.2-1.3.5-2.7 1.7-8.8 2.9-17.7.3-1 .5-2c2.8-1.4 5-1.1 8.1-1.1q1.7.1 3.3.1h2.6q0 1 .1 2c-.5 26.4-.5 26.4 8.9 50 2.8.3 2.8.3 6-1 10.8-11.8 16.6-34.6 19-50q2.3-.1 4.6-.1 1.3-.1 2.6-.1c3.2.2 5.8 1.1 8.8 2.2q-.4 1.6-.9 3.3c-2.7 10.8-3.6 20.6-3.1 31.7 2.2 1 2.2 1 5 1 5-3.7 7.4-8.9 10.1-14.4q.7-1.2 1.3-2.5c2.4-4.6 4.6-9.3 6.6-14.1q.8.2 1.6.5c3.3.7 6 .8 9.4.5 2.5-1.8 2.5-1.8 4.6-4.3 5.9-6.4 12.4-11.6 19.4-16.7q.9-.6 1.7-1.3c13.3-9.6 33.3-23.6 50.3-23.1 2 .4 2 .4 4.6 2.9q.7 1.2 1.4 2.5c-.6-4.2-1.6-8-3-12q1-1 2-2c2.4 0 2.4 0 5 1 10.5 12.6 7.8 35.4 6.5 50.7-2.1 20.5-4.4 42.9-11.6 62.3-1.7 5.8-.8 11.4.2 17.2q.2 1 .3 2 .6 3.1 1.1 6.2.4 2.2.7 4.3.9 5.1 1.8 10.3 1.2.1 2.5.2 5.6.6 11.1 1.1 1.9.2 3.9.4l3.8.4q1.7.1 3.4.3c3.6.7 6.2 1.7 9.3 3.6 1 2.5 1 2.5 1 5q-1 1.5-2 3c-10.7 1.9-23.3-.9-34-2l-2 20q2.8.7 5.6 1.5 3.6.9 7.3 1.9 1.8.4 3.7.9 1.7.5 3.5 1 1.6.4 3.3.8c2.6.9 2.6.9 4.6 2.9.3 3 .3 3 0 6-3.9 2.6-6.6 1.8-11 1-3.7-.8-7.3-1.7-11-2.6q-1.4-.3-2.9-.7-3.6-.8-7.1-1.7-.7 1.5-1.5 3.1c-10.6 21.6-22.3 38.9-42.6 52.6-1.8 1.2-1.8 1.2-2.9 2.3-.3 18.8 16.9 36.9 27.4 51.1q1.8 2.5 3.6 4.9l1.6 2.2c7.8 10.5 14.4 21.3 20.4 32.8a32.97 32.97 0 0 0 1 1.9c13.5 25 22.6 52.1 27 80.1q.2 1 .3 2c1.2 8.3.8 16.7.8 25.1q0 2.4-.1 4.9 0 6 0 12 1.2-3.6 2.4-7.1.4-1 .7-2.1c12.3-36.6-3.5-75.1-17.3-108.7-11.6-28-21.1-62.8-8.9-92.2 3.6-8.4 7.9-16.1 14.1-22.9q1-1.1 2-2.3c9.3-10 20.9-17.2 34.7-18 12-.4 20.7.3 30.2 8.1 5.2 5 7.2 9.4 7.5 16.5-.4 14-9.5 23-19 32.2-8 7.9-12.5 14.4-12.8 25.8q0 1.8-.1 3.8c.7 12.5 7.1 25.4 11.5 37 5.6 14.8 10.7 29.4 14 44.9q.2 1.1.5 2.3c8.9 42 1.7 83.3-21.1 119.5-9.8 15.1-23.1 30-39.4 38.2 4.5 2.1 9.1 4.1 13.7 5.9 19.5 7.8 19.5 7.8 25.4 16.1 1.1 3.8.9 6.2-.1 10-7.6 13.5-31.6 18.7-45.6 22.8-32.7 9-66.3 13-99.9 16.9q-3.3.4-6.6.8c-33.3 4-66.8 6.8-100.3 8.4q-2.6.1-5.2.2c-41 2-82 2.2-123.1 2.1q-9.1 0-18.3 0c-37.3 0-74.6 0-111.9-1.1q-4.8-.2-9.6-.3-9-.3-18.1-.6-1.6-.1-3.2-.1c-65.5-2.6-131.5-7.4-196.2-18.1q-1.2-.2-2.4-.4C98.2 840 98.2 840 83.1 819.9c-1.7-3-2.5-4.4-2.1-7.9 6.2-11.5 22.5-15.8 34-20q0-.8 0-1.7c.5-13 8.5-25.3 17.8-34q2.1-1.7 4.2-3.3c-.8-4.4-1.9-8.7-3-13q2-1 4-2c-.3-6-2.5-9.9-5.4-15.1-3.5-6.4-5.8-12.9-6.3-20.2-.4-3.2-1.1-6.3-1.8-9.5-1.6-7.5-2-14.8-1.9-22.6q0-3.1-.1-6.2c-.1-25.3 11.2-49.4 28.6-67.6A55.34 55.34 0 0 1 170 585q1 .5 2 1c.6 2.1.6 2.1 1 4l1.9-1.5c2.1-1.5 2.1-1.5 4.1-1.5 1.2-2.4 1.1-3.8 1-6.5q0-1.4 0-2.9 0-1.6-.1-3.2c-.1-15.8 1-31.6 2.1-47.4q1 0 2 0 .3-1.3.6-2.6C197.1 473 197.1 473 205 457c2-1 2-1 5-.9 3.1.2 3.1.2 5-2.1-.1-3.1-.5-4.5-2.8-6.7q-1.2-.7-2.4-1.5-1.3-.9-2.7-1.8l-3.1-2c-14.9-9.9-31.8-22.4-36.5-40.6-2.2-7-8.1-9.7-14.2-13.2-3.3-2.2-3.3-2.2-5-4.1-.5-3.5 1.4-6.1 3.2-9q.6-1.1 1.2-2.1c3.5-6 7.4-11.7 11.3-17.4 4.4-6.6 8.6-13.1 12.4-20q.5-1.1 1.1-2.1c2.1-4 3.2-7 2.5-11.5-1.4-2.9-1.4-2.9-3.5-5.8-12.4-19.2-19.7-41.7-23.5-64.2q-.2-1.2-.5-2.5c-3.3-16.9-3.9-33.4-3.9-50.6q0-1.5-.1-3.1c0-16.6.6-33.5 6.3-49.3q.3-1.1.7-2.2c6.3-17.4 16.4-27.6 35.5-21.7zm368.8 619.2q-.9 1.3-1.7 2.4c-1.9 2.9-3.6 5.7-5.1 8.8 4.5 3.6 8.3 7.2 11.7 11.9q.9 1.1 1.7 2.3c1.8 2.1 2.8 2.6 5.6 2.8 3-2 3.6-2.8 5-6-3.3-4.4-6.3-9-9.1-13.7-2.2-3.6-4.3-7-6.9-10.3l-1.2 1.8z" fill="#032e4d"/><path d="M191 122.6c12.1 4.5 21.5 11.9 31 20.4q.8.7 1.6 1.4c12.6 11.2 24 23.4 34.4 36.6q1.1 1.4 2.3 2.9c9.4 12 18.6 24.3 26.5 37.2 1.1 1.8 1.1 1.8 2.2 2.9 6.2-.6 12.4-1.8 18.5-3q2.7-.5 5.4-1.1 1.2-.2 2.4-.4c7.3-1.3 14.4-1.7 21.8-1.7q1.6 0 3.2 0 3.4 0 6.7 0 5.1-.1 10.1-.1c14.2-.1 27.1 1.2 41 4.5q1.9.4 3.9.8 1 .2 2.1.4c2.9.3 5.2.2 7.5-1.6 2-2.2 3.7-4.4 5.4-6.8q1.3-1.8 2.6-3.5 2.3-3.1 4.6-6.1c8.2-11 16.9-21.6 26.3-31.7 3.1-3.3 6-6.7 8.9-10.2 1.6-1.5 1.6-1.5 3.6-1.5.4-.9.4-.9.7-1.7 1.6-2.8 3.4-4.4 5.8-6.5l7.9-7c13.2-12.3 30-26.3 48.9-26 4.4.3 6.3 1.6 9.1 4.8 20.6 27.2 13.8 75.1 9.6 106.4-4.4 31.1-13.2 63-32.6 88.3-2.2 4.2-2.2 8.2-.8 12.6.8 2.1 1.8 4 2.8 6q.5 1.1 1 2.2c3.2 6.3 6.6 12.5 10.2 18.6 2.8 4.9 4.8 9.8 6.4 15.3q-1.2.1-2.3.1-1.5.2-3.1.3-1.5.1-3 .2c-2.8.2-2.8.2-4.6 2.4q0 3 0 6l14 1c0 6-.2 8.5-2.4 13.7q-.6 1.7-1.3 3.4C528 405 528 405 526 408c-2.1.7-2.1.7-4.6 1.1-3 .4-3 .4-5.4 1.9-.3 3-.3 3 0 6q1.5 1 3 2c-5.7 12.2-18.7 20.4-29.5 27.7-1.1.7-1.1.7-2.2 1.5q-.9.6-1.9 1.3c-1.7 1.5-1.7 1.5-1.7 4.1 0 2.4 0 2.4 1.3 3.4q2.3.1 4.6.1c1.2-.1 1.2-.1 2.5-.1q.9 0 1.9 0c7.7 17.6 13 36.1 17.4 54.8q.3 1.5.7 3 1 4.6 1.9 9.2.3 1.5.6 3c2 11.6 1.8 23.3 1.8 35.1q0 1.6 0 3.3c-.1 17.6-1 34.4-4.4 51.6-.3 1.7-.3 1.7-.7 3.5-4.3 23.2-11.2 45.7-17.9 68.3-6.9 23.3-13.3 47-17.4 71l-.4 2.3c-.7 4.3-.6 7.1 1.4 10.9q.5 1 1 2.1 1.1 2 2.1 3.9c3.3 7.3 3.2 19 .9 26.6-3.1 5.4-7.3 8.9-12.7 11.9-2.6.6-3.9.2-6.3-.5q.1-2 .1-4c.3-9.7.5-18.1-4.1-27q-3 0-6 0 .1.9.2 1.8c.7 6.4 1 12.7 1 19.1q0 1.4 0 2.9 0 1.3 0 2.7 0 1.2 0 2.4c-.2 2.1-.2 2.1-2.2 5.1-2.8 1.1-5.5 1.1-8.5 1.1q-1.3 0-2.6 0-1.3 0-2.6 0c-1.4 0-1.4 0-2.7-.1q-3.3 0-6.6 0 0-1.4-.1-2.8-.1-5.1-.2-10.3-.1-2.2-.1-4.4-.1-3.2-.2-6.4c0-2 0-2-.1-3.9-.1-3.4-.1-3.4-2.3-6.2-3.1-.3-3.1-.3-6 0q0 1.2 0 2.4.1 5.4.1 10.7.1 1.9.1 3.8 0 1.8 0 3.6 0 1.6 0 3.3c-.2 3.4-1 6.1-2.2 9.2-9-1.1-15.8-3.2-21.9-10.1-10.2-14.2-2.1-48.1-.5-65.2q.4-4.5.8-9 1.1-12.8 2.4-25.7.3-2.9.6-5.9.5-5.3 1-10.6.2-1.6.3-3.1c.7-5.9 2-10.9 4.4-16.3 1.2-2.8 1.4-5.1.9-8.1-1.4-1.9-1.4-1.9-3-3q-.4 1.1-.8 2.3c-1.2 2.8-2.6 4.4-4.6 6.7-3.6 5-4.4 9.4-5.2 15.4-.1 1.4-.1 1.4-.3 2.8-1.3 9.8-2.3 19.7-3.4 29.6q-.4 4.6-.9 9.1-1.6 15.2-2.9 30.4-.1 1.4-.3 2.8-.8 10.4-1.3 20.9c-.1 3.7-.4 7.3-1.3 11q-3.8.7-7.6 1.4-1 .2-2.1.4-3.1.6-6.3 1.2-1.6.3-3.2.6c-19.3 2.1-41.6 2-59.8-5.6q0-1.5 0-3.1c-.4-22.1-1.3-43.9-3.4-65.9-.8-7.9-1.4-15.8-2-23.7q-.2-2.8-.4-5.6-.2-2.7-.3-5.4c-.3-6.1-1.7-9.6-5.8-14.2-.6-.8-.6-.8-1.3-1.6q-1.9-2.3-3.8-4.5-1.5-2-3-4c-1.4 1.2-1.4 1.2-1.4 4.5 0 3.6.8 5.4 2.8 8.3 3.8 6.6 3.8 13.9 4.3 21.3q.2 2.4.3 4.8.4 4.8.7 9.6.4 6 .9 11.9c1.4 16.7 1.6 33.3 1.6 50a35.28 35.28 0 0 1 .1 3.3q0 4.8 0 9.6 0 1.4 0 2.8c-.1 8.3-.5 16.2-6.4 22.4-6.1 4.8-13.3 6-20.9 6.5-.9-3.8-1.1-7.3-1.1-11.2v-3.5q0-1.8 0-3.6 0-1.8.1-3.7 0-4.5 0-9-3 0-6 0c-1.6 4.3-2.2 7.7-2.2 12.3q0 1.7 0 3.5 0 1.7.1 3.6 0 1.8 0 3.7 0 4.4.1 8.9-4.4.1-8.8.2c-1.2 0-1.2 0-2.5.1-3.5 0-6 0-9.2-1.5-3.1-3.8-2.7-8.5-2.7-13.2q0-1.7 0-3.3c.2-3.4 1.1-6.1 2.2-9.3.2-3.3.2-3.3 0-6q-3 0-6 0-1 2.1-1.9 4.3-.6 1.1-1.1 2.3c-3.4 8.2-2.1 16.9-1 25.4-6.3-1.1-12.2-2.2-16.2-7.7-4.6-7.7-5.1-16.3-3.2-25 1.8-5.3 4-7.8 8.3-11.4 2.6-2.6 4-4.6 4.3-8.3-.8-26.1-9.3-53.7-15.7-78.9-7.6-30.2-15.1-60.3-18.3-91.3q-.2-2.3-.5-4.6c-5.3-44.3 2.6-94.8 22.3-134.8 2-1 2-1 5-.9 3.1.2 3.1.2 5-2.1-.1-3.1-.5-4.5-2.8-6.7q-1.2-.7-2.4-1.5-1.3-.9-2.7-1.8-1.5-1-3.1-2c-14.9-9.9-31.8-22.4-36.5-40.6-2.2-7-8.1-9.7-14.2-13.2-3.3-2.2-3.3-2.2-5-4.1-.5-3.5 1.4-6.1 3.2-9q.6-1.1 1.2-2.1c3.5-6 7.4-11.7 11.3-17.4 4.4-6.6 8.6-13.1 12.4-20 .5-1.1.5-1.1 1.1-2.1 2.1-4 3.2-7 2.5-11.5-1.4-2.9-1.4-2.9-3.5-5.8-12.4-19.2-19.7-41.7-23.5-64.2q-.2-1.2-.5-2.5c-3.3-16.9-3.9-33.4-3.9-50.6q0-1.5-.1-3.1c0-16.6.6-33.5 6.2-49.3q.4-1.1.8-2.2c6.3-17.4 16.4-27.6 35.5-21.7z" fill="#fce0b4"/><path d="M590 245c2.7 1 5 2 7.4 3.3q1.1.5 2.1 1c7.5 4 14.1 9 20.7 14.3 2.6 2 5.3 4 7.9 5.9 9.3 6.9 18.4 14.4 26.1 23.1 2.5 1.9 4.7 2.1 7.8 2.4q.1.8.2 1.7c1.5 10.9 3 21.7 5.8 32.3q2.5 0 5 0c2.9-5.1 4-9.9 5.1-15.6q.2-1.3.5-2.7 1.7-8.8 2.9-17.7.3-1 .5-2c2.8-1.4 5-1.1 8.1-1.1q1.7.1 3.3.1h2.6q0 1 .1 2c-.5 26.4-.5 26.4 8.9 50 2.8.3 2.8.3 6-1 10.8-11.8 16.6-34.6 19-50q2.3-.1 4.6-.1 1.3-.1 2.6-.1c3.2.2 5.8 1.1 8.8 2.2q-.4 1.6-.9 3.3c-2.7 10.8-3.6 20.6-3.1 31.7 2.2 1 2.2 1 5 1 5-3.7 7.4-8.9 10.1-14.4q.7-1.2 1.3-2.5c2.4-4.6 4.6-9.3 6.6-14.1q.8.2 1.6.5c3.3.7 6 .8 9.4.5 2.5-1.8 2.5-1.8 4.6-4.3 5.9-6.4 12.4-11.6 19.4-16.7q.9-.6 1.7-1.3c13.3-9.7 33.4-23.7 50.4-23.1 1.9.4 1.9.4 3.9 2.2 11.9 26.7-.9 79.3-10.1 106-1.9 7-.4 13.3 1.1 20.2q.6 2.6 1.1 5.2.3 1.1.5 2.3c.5 3.1.4 6.3.4 9.5l-23 3c-.7 2.3-1.3 4.6-2 7l25 1c-.7 6.5-1.3 11.8-3 18q-.8-.2-1.6-.4c-8.2-2-16.1-1.8-24.4-1.6v7q.9.2 1.8.4 4 .7 8 1.5 1.4.3 2.8.6 1.4.3 2.7.5 1.3.3 2.5.5c2.2.5 2.2.5 5.2 1.5-1.8 12.8-11.9 24.5-20 34q-.9 1-1.8 2.1c-15.4 16.7-39.3 27.2-61.3 31.4-2.1.4-2.1.4-3.9 2.5-.2 2.6-.2 2.6 0 5 11.8.9 22-1.7 32.7-6.7 3.3-1.3 3.3-1.3 5.6-1.3 2.6 1.5 2.8 3.4 3.5 6.3 3.1 10.2 8.4 19.4 15.2 27.7q-.5 1-1 2-2-2-4-4-.9 1-1.9 2.1c-10.7 11.2-22 18-36.4 23.2q-1.3.4-2.5.9-1.1.4-2.2.8c-2.5 1.3-3.6 2.6-5 5 .2 3.4.6 4.6 3 7 16.4 5.7 33 .3 48.1-6.8 4.9-2.5 9.2-5.3 13.3-8.9 1.6-1.3 1.6-1.3 3.6-1.3 1.2 1.4 1.2 1.4 2.5 3.3q.7 1 1.4 2.1.7 1.1 1.5 2.2.7 1.1 1.4 2.2 2.1 3.1 4.2 6.2.6.9 1.2 1.9 1.4 2 2.8 4.1c-5.2 11.4-16.1 17.7-26.6 23.6-2.3 1.2-2.3 1.2-3.4 2.4-.4 2.4-.4 2.4 0 5 3 2.9 5.2 3.4 9.3 3.4 10.3-.3 20.4-2.4 29.7-6.6 2-.8 2-.8 5-.8 22.5 47.8 30.4 103.2 13 154-6.7 18.2-16.8 39.1-35 47.8-12.4 5.5-25.4 8.9-39 9.2-2-3.3-2.2-5.8-2.2-9.6v-2.9c.2-2.5.2-2.5 1.2-4.5q.1-3.5 0-7-2.5-.5-5-1c-6 8.5-5.7 16-4 26q-3.2.1-6.4.2-1.7 0-3.6.1c-1.5-.2-1.5-.2-3-.3-2.4-3.5-2.3-5.2-2.3-9.4q0-1.6-.1-3.4c.4-3.5 1.5-5.3 3.4-8.2.3-3.2.3-3.2 0-6q-2.5-.5-5-1c-6.2 7.9-7.3 15.1-8 25-3.3-1.8-4.9-2.8-7-6-1.3-7.6 1.2-14.6 5.3-21 5-6.3 11.9-11 19.7-13 3.4-.3 6.8-.4 10.2-.4q1.4 0 2.8 0c7.1.1 12.6 1.5 19 4.4 3.4.9 3.4.9 6 1 1.2-1 1.2-1 1.1-2.8q0-1.1 0-2.3-.1-1.9-.1-3.9-2.5-1-5-2-1.7-.8-3.5-1.5c-6.2-2.4-12.8-2.1-19.4-2.2-7.2-.4-7.2-.4-9.6-2.8-1.2-2.2-1.9-4.2-2.5-6.5q-.3-1.1-.6-2.2c-.6-2.3-1.1-4.6-1.6-6.9q-.2-1.1-.5-2.3c-5.1-24.1-1.9-49.2 10.7-70.6 2.2-3.1 4.5-6.1 7-9 1.1-1.5 1.1-1.5 2.2-3.1 6.7-7.8 15.7-12.1 25-15.8 2.7-.8 2.7-.8 3.8-2.1.3-2.5.3-2.5 0-5q-1-1-2-2c-13.3 0-24.3 8.3-33.4 17.3-16.9 18.1-26.5 43.9-25.9 68.7.9 12.7 2.4 25.2 6.8 37.2 1.6 4.5 1.6 4.5.5 7.8-2 1.3-2 1.3-4.6 2.7-7.4 4.3-13 9.9-17.4 17.3-1.6-4.8-.5-9.5.1-14.4l.4-3.7c2.8-23.7 7.2-47.3 12.1-70.7l.6-2.7c2.1-9.9 4.3-19.7 7.1-29.4 1-4.2 1-7.8.7-12.1-2.3-.8-2.3-.8-5-1-8.2 5.8-9.1 26.6-11 36q-.9.1-1.8.1-4.1.4-8.3.7-1.4.1-2.8.2c-8.7.7-8.7.7-16.1 5q-.1 2.5 0 5c4.7 2.7 9 3.8 14.2 4.6 7.6 1.3 7.6 1.3 9.8 2.4-.6 8.8-2.3 17.4-4 26q-1.7.1-3.5.1-2.3.2-4.6.3c-1.1 0-1.1 0-2.2.1-4.9.2-9.1 1-13.7 2.5q0 3 0 6c4.4 2.4 8.4 3.7 13.4 4.7q1.8.4 3.7.7 1.5.3 2.9.6.5-1.5 1-3c-.7 10.8-1.7 21.6-2.9 32.3q-.3 2.8-.6 5.6c-2.4 24.5-2.4 24.5-10.5 32-4.3 3.1-7.8 3.6-13 3.1-1-2.9-1.1-4.8-1.1-7.9q0-1.4 0-2.8 0-1.5 0-3 0-1.5.1-3 0-3.6 0-7.3-2.5 0-5 0c-3.4 5.4-3.5 10.2-3.7 16.4q0 1.4-.1 2.8-.1 3.4-.2 6.8c-7.4.4-7.4.4-10-1.1-1.5-2.8-1.4-5.1-1.3-8.3q0-1.6 0-3.4c.3-3.1 1.1-5.3 2.3-8.2.2-3.2.2-3.2 0-6-3.4.6-3.4.6-7 2-2.7 4.4-3.8 8.9-4.7 13.9l-.4 2.1q-.4 2.5-.9 5c-4.9-3.7-4.9-3.7-6-6-1-8.2.5-14.1 5-21q2-2.2 4-4.3c5.3-6.5 5.7-13.4 6.4-21.4q.3-2.3.5-4.6.6-6.1 1.2-12.2.5-5 1-10.1 1.5-15.7 2.9-31.4.2-1.9.3-3.8.9-10.3 1.7-20.6l.2-2.4c.8-11.4.9-22.8.8-34.2-2.9-.2-2.9-.2-6 0-2.3 2.3-2.3 3-2.6 6.2q-.1 1.3-.2 2.6l-.2 2.9q-.1 1.6-.3 3.2-.6 8.3-1.1 16.5c-1 16.4-2.4 32.7-4 49l-.4 3.1q-1 10.8-2.2 21.5-.2 1.6-.4 3.3-.5 5-1.1 9.9-.1 1.5-.3 3.1c-.6 4.9-1.1 8.7-4.2 12.7q-.7.9-1.4 1.8-1.8 2.1-3.6 4.2-.5 0-1 0 0-1-.1-2.1c-1-39.6-2.7-78.6-8.9-117.9q-.2-1.4-.4-2.8c-1.1-9-1.1-9-4.6-17.2-2.5-.3-2.5-.3-5 0-1.4 1.2-1.4 1.2-1.2 4.6.1 6.4 1.2 12.6 2.2 18.9 1.9 12.2 3.5 24.4 4.7 36.6q.2 1.8.4 3.6.5 5.1.9 10.3.1 1.7.3 3.5c.9 12 .9 24 .9 36.1q0 5.4 0 10.8 0 3.6 0 7.1 0 1.6.1 3.2c-.1 21.2-.1 21.2-6.7 28.7-3.4 3.4-6 5.5-10.9 5.9-2.7-.3-2.7-.3-3.7-1.3q-.1-2.3-.1-4.7v-2.9-3q0-1.5.1-3 0-3.7 0-7.4-3 0-6 0c-2.8 5.5-3.4 9.7-3.1 15.9q.1 4 .1 8.1c-1 1-1 1-2.8 1.1q-3.1-.1-6.2-.1c-4.9-7.7-3.1-16.3-2-25-1.9-.6-1.9-.6-4-1-3 2-3.9 4.7-5 8a102.34 102.34 0 0 0-.6 7.8q-.1 1-.1 2.1-.2 2.6-.3 5.1c-5.8-1.8-5.8-1.8-7.9-3.6-2.7-5.8-1.4-11.4.7-17.2 3.3-7.3 8.6-12.6 14.2-18.2 2.1-2.1 1.3-6.7 1.3-9.6 0-28.8-6.8-57.2-12.7-85.3q-3-14.4-5.9-28.9-.3-1.5-.7-3.1c-4.9-24.3-9.2-48.1-9.2-73q0-3.6 0-7.2c-.1-13.4 1.3-26.3 4.4-39.4q.4-1.3.7-2.7c2.7-10.8 6.9-20.9 12.1-30.8 3.8 1.4 7.3 3.2 10.8 5.1 5.1 2.6 8.5 3.6 14.2 2.9v-8q-1.8-.5-3.6-1c-11.7-3.9-21.9-11.4-31.4-19-1.2-.9-1.2-.9-2.4-1.9-14.8-12.3-28.2-34.1-30.4-53.4q-.1-1.8-.2-3.7 1.8-.2 3.6-.4 2.4-.2 4.8-.5 1.2-.1 2.4-.2c4.6-.4 4.6-.4 8.2-2.9 0-2.1 0-2.1-1-4-3.6-2.5-7.5-2.4-11.8-2.6-1-.1-1-.1-2.1-.1q-2.5-.2-5.1-.3 0-2.9-.1-5.8 0-1.5 0-3.2c.1-2.5.4-4.6 1.1-7 3.6.4 7 1 10.5 2.1 3.7.9 6.7 1.1 10.5.9q0-3 0-6c-5.9-3.2-11.6-5.2-18-7 .3-6 1.1-10.8 3.7-16.2 5.3-11.4 4.2-21.4 3-33.7-.9-8.9-1-17.7-1-26.6q.1-1.2.1-2.3c.2-44.2.2-44.2 8.4-55.1 3.6-2.7 5.4-2.7 9.8-2.1z" fill="#849c92"/><path d="M857 245c2.4 0 2.4 0 5 1 10.5 12.6 7.8 35.4 6.5 50.7-2.1 20.5-4.4 42.9-11.6 62.3-1.7 5.8-.8 11.4.2 17.2a13.8 13.8 0 0 1 .3 2q.6 3.1 1.1 6.2.4 2.2.7 4.3.9 5.1 1.8 10.3l2.5.2q5.6.6 11.1 1.1l3.9.4q1.9.2 3.8.4 1.7.1 3.4.3c3.6.7 6.2 1.7 9.3 3.6 1 2.5 1 2.5 1 5q-1 1.5-2 3c-10.7 1.9-23.3-.9-34-2l-2 20q2.8.7 5.6 1.5 3.6.9 7.3 1.9a40.02 40.02 0 0 0 3.7.9q1.7.5 3.5 1 1.6.4 3.3.8c2.6.9 2.6.9 4.6 2.9.3 3 .3 3 0 6-3.9 2.6-6.6 1.8-11 1-3.7-.8-7.3-1.7-11-2.6q-1.4-.3-2.9-.7-3.6-.8-7.1-1.7l-1.5 3.1c-10.6 21.6-22.3 38.9-42.6 52.6-1.8 1.2-1.8 1.2-2.9 2.3-.3 18.8 16.9 36.9 27.4 51.1q1.8 2.5 3.6 4.9.8 1.1 1.6 2.2c7.8 10.5 14.4 21.3 20.4 32.8q.5 1 1 1.9c13.5 25 22.6 52.1 27 80.1a13.8 13.8 0 0 1 .3 2c1.2 8.3.8 16.7.8 25.1q0 2.4-.1 4.9 0 6 0 12 1.2-3.6 2.4-7.1.4-1 .7-2.1c12.3-36.6-3.5-75.1-17.3-108.7-11.6-28-21.1-62.8-8.9-92.2 3.6-8.4 7.9-16.1 14.1-22.9 1-1.1 1-1.1 2-2.3 9.3-10 20.9-17.2 34.7-18 12-.4 20.7.3 30.2 8.1 5.2 5 7.2 9.4 7.5 16.5-.4 14-9.5 23-19 32.2-8 7.9-12.5 14.4-12.8 25.8q0 1.8-.1 3.8c.7 12.5 7.1 25.4 11.5 37 5.6 14.8 10.7 29.4 14 44.9q.2 1.1.5 2.3c8.9 42 1.7 83.3-21.1 119.5-8.3 12.7-18.5 23.9-30.8 32.8q-.8.7-1.7 1.3c-3.3 2.3-5.9 3.7-9.9 4.1q-.5 1.5-1 3c-2.8 1.5-2.8 1.5-6.4 2.9q-.9.4-1.9.8c-3.8 1.6-7.6 2.9-11.4 4.1-4.3 1.5-6.8 3.3-10 6.5-18.7 17.8-51.5 22-76.4 21.8-11-.3-19.8-1.4-28.1-9.2-2.6-2.8-4.7-5.7-6.8-8.9q-.5.9-1.1 1.8c-5.5 8.6-11 14-21.2 16.8-13.6 3-31.7 3.5-44.1-3.3-5.9-3.9-9.4-8.6-11.6-15.3q-.5.8-1.1 1.5c-6.2 7.9-14.9 12.7-24.8 14.3-29.9 2.4-29.9 2.4-40.9-5.9-4.4-2.6-8.2-2.5-13.2-2.5-13.6-.2-13.6-.2-18.7-4.8-2.3-2.6-2.3-2.6-3.6-4.5-2.6-1.7-4.9-1-7.8-.5q-2.1.4-4.1 1c-2.2.5-3.7.1-5.8-.6-.6-1.8-.6-1.8-1-4q1-1.5 2-3 .5 0 1 0-.1-4.8-.2-9.5-.1-1.3-.1-2.7c-.2-5.9-1.1-11-4.7-15.8-2.6-1.2-2.6-1.2-5-1q-.5.5-1 1c.1 2 .1 2 .4 4.4q.1 1.2.2 2.4c.4 2.4.4 2.4 1.4 5.2q.2 2.7.2 5.4 0 1.4 0 2.8c-.2 3-.9 5.1-2.2 7.8-3 1.5-5.8 1.1-9.1 1.1q-1.9-.1-3.9-.1h-3q0-.9 0-1.9-.2-4.4-.3-8.7c0-1.5 0-1.5-.1-3.1-.2-5.5-.6-9.6-3.6-14.3q-2.5.5-5 1v2.2q0 4.8.1 9.7 0 1.7 0 3.4v3.3 3c-.1 2.4-.1 2.4-1.1 4.4q-2.8.1-5.6.1-1.6.1-3.2.1c-3.4-.2-6-1-9.2-2.2q0-1.3 0-2.7c-.4-8.4-1.7-15.7-4.4-23.7-1.8-5.1-1.8-5.1-.9-7.9 6.3-8.2 16.9-11.8 26.8-13.4 13-1.5 26 .4 36.5 8.7 5 4.7 9.1 9.4 11 16-.2 2.4-.2 2.4-1 5q-.6 2.3-1.1 4.7-.3 1.1-.6 2.3c-.5 2.1-.5 2.1.7 4q.9-.2 1.8-.5c2.2-.5 2.2-.5 5.2-.5q.3-1.3.7-2.7c1.5-3.9 3.2-5.5 6.3-8.3q1-1 2-1.9c8.8-8.4 16.1-10.6 28.2-10.3 2.8.2 2.8.2 3.8 1.2q1-1 2-2c3.6-.1 3.6-.1 7 0l1-8q.5 0 1 0c1.4 12 1.4 12-1.8 16.6q-2.3 2.2-4.8 4.2c-5.6 5.1-9.8 12.9-10.6 20.4-.3 3.9-.3 6 2 9.2 2 1.5 4 2.5 6.2 3.6q-.1-1.5-.1-3c-.5-13.8-.5-13.8 4.1-20 2.6-1.1 2.6-1.1 5-1q1 1 2 2c0 1.8 0 1.8-.4 4-1.4 10.3-1.4 10.3 1.4 20h8q-.1-1.7-.1-3.4c-.5-14.9-.5-14.9 4.1-21.6q3-.1 6 0c1 1 1 1 1.1 3q0 1.3 0 2.7 0 1.4 0 2.9 0 1.4 0 3 0 1.5-.1 3 0 3.7 0 7.4c4.4.3 6.7.1 10.2-2.7q1-.7 2-1.5c8.1-8 7-21 7.1-31.6q0-6.9 0-13.8 0-1.8 0-3.6c-.1-34.3-3.2-68.3-8.9-102.1-.4-2.5-.6-4.9-.6-7.4q0-1.2 0-2.3c.2-2 .2-2 2.2-4 2.4-.4 2.4-.4 5 0 2.8 2.9 3.6 5.5 4.2 9.5q.3 1.6.6 3.3.3 1.8.6 3.7.4 1.9.7 3.8c2.6 16.1 4.4 32.4 5.9 48.7q.1 1.3.3 2.7c.6 7.8 1 15.6 1.2 23.4q.1 1.9.2 3.9.1 5.1.3 10.2.2 5.2.3 10.4.4 10.2.7 20.4c5.5-5.2 7.1-9.6 8-17q.2-1.4.4-2.9.5-4.8 1-9.6.2-1.7.4-3.6.6-5.6 1.2-11.2.4-3.7.8-7.4 1.1-10.7 2.2-21.3.2-1.5.3-3c1.2-11.9 2.1-23.8 2.8-35.7q.4-8.2.9-16.3.1-1.4.2-2.9c.4-5.6.4-5.6 2.1-7.8 1.7-1.3 1.7-1.3 4.8-1.1q1.4.4 2.9.8c1.5 3 1.1 6.2 1.1 9.5q0 1.2 0 2.3c-.1 16.5-1.7 32.9-3.1 49.2l-.2 2.1q-1.4 15.9-3 31.9-.5 5-.9 10-.6 6-1.2 12-.3 2.3-.5 4.5c-.7 8.7-2.1 14.9-8.2 21.4-4.8 5.1-7.3 10.9-7.6 17.9.2 3.8.5 5.1 2.6 8.4q1 .9 2 1.8.2-.8.3-1.7c3.6-16.8 3.6-16.8 7.7-20.3 3.2-.2 3.2-.2 6 0 1.3 5.4 1.3 5.4 0 8.3-1.2 3.3-1.3 5.9-1.2 9.4q-.1 1.7-.1 3.4c0 3 0 3 2.3 4.9 2.7.6 5.3.7 8 1v-1.7q-.1-4-.2-7.9 0-1.4-.1-2.8c0-5.3.3-9 3.3-13.6 1-1 1-1 3.5-1.1 2.5.1 2.5.1 3.5 1.1q.1 2.7.1 5.3 0 1.7 0 3.3 0 1.7 0 3.5 0 1.7-.1 3.4 0 4.3 0 8.5 2.2-.4 4.3-.9 1.3-.2 2.5-.5c2.6-.7 4.2-1.8 6.2-3.6q1 0 2 0 .4-1 .8-2.1c1.2-2.9 1.2-2.9 2.7-5.8 2.1-5.1 2.5-10.4 3.1-15.9l.4-3.4q.6-5.3 1.2-10.6.4-3.6.8-7.2.8-6.6 1.5-13.2c.1-1.3.1-1.3.3-2.7.2-2.1.2-2.1.2-4.1q-1.9-.2-3.9-.3c-5.8-.7-12.9-1.5-17.1-5.7-.1-2.9-.1-2.9 1-6 5.4-3 9.8-3.4 15.9-3.2q1.2 0 2.4.1 2.8 0 5.7.1c.1-.9.1-.9.1-1.8.7-8.2 2.3-16.2 3.9-24.2q-1.8-.3-3.7-.6-2.5-.3-4.9-.7-1.2-.2-2.5-.4c-10.2-1.6-10.2-1.6-13.9-5.3-.4-2.3-.4-2.3 0-5 3.6-4.5 8.3-4.9 13.6-5.7 5.5-.5 10.9-.5 16.4-.3l.4-3.8c.6-5.6 1.7-11 3-16.4q.3-1.5.6-3c2.1-9.1 2.1-9.1 5-12.8 2.5-.9 2.5-.9 5-1q1.5 1 3 2c.6 7.1-.8 13.2-2.7 20-3.2 12.4-5.9 24.8-8.4 37.3l-.6 3.3c-2.8 14-5.4 28-7.4 42.2q-.1 1-.3 2.1c-1.2 8.7-2 17.4-2.6 26.1 1-1.2 1-1.2 2.1-2.4 6-6.8 11.7-12.5 19.9-16.6q-.3-1-.6-1.9c-9.1-32.9-10.2-62.7 5.3-93.8 9-15.6 23.8-30.2 41.3-35.3 5.2-.5 5.2-.5 7.9 1.2 1.5 2.5 1.6 3.9 1.1 6.8-2.9 2.7-6.1 3.9-9.7 5.3-7.8 3.2-13.6 7.6-19.3 13.7q-.8.9-1.6 1.7c-15.9 17.4-21.4 41.1-20.5 64.1.7 12 3.6 23.1 8.1 34.2q1 .1 2 .1 4.4.3 8.9.7 1.5 0 3 .1c8 .6 15.1 2.3 21.7 7 1.9 2.8 1.8 4.7 1.4 8.1q-1 1-2 2c-2.9-.2-5.4-.7-8.1-2-6.5-2.9-12.5-3.4-19.5-3.5q-1.3 0-2.7-.1c-9.5.1-18 3.9-24.7 10.6-4.3 5.9-7 11.2-7.4 18.4q0 1.1-.1 2.3c.8 3.4 2.9 5 5.5 7.3q.1-1.4.3-2.8c2-16.6 2-16.6 8.7-22.2 4.4.4 4.4.4 6 2 .3 3.4.4 5.4-1.5 8.3-1.9 3.3-1.8 5.6-1.7 9.4q0 1.7 0 3.4c0 2.8 0 2.8 1.2 4.9 3 .5 3 .5 6.6.6q1.7.1 3.6.3 1.4 0 2.8.1-.5-1.4-1-2.9c-2.1-7.7-1.3-14 2-21.1 1.4-1.7 1.4-1.7 3-3 4.4.4 4.4.4 6 2 .2 6.5.2 6.5-1 9q-.1 2.7-.1 5.4v3c0 2.7 0 2.7 1.1 5.6 17.9-.1 38.1-5.8 51.6-17.7 26-28 31.8-71.6 30.6-108-1.5-28.7-9-58.7-22.2-84.3q-1 .5-2.1 1c-11.3 5.1-24.4 8.8-36.9 7-3.2-1.7-3.2-1.7-5-4-.6-2.5-.6-2.5 0-5 3.6-3.3 7.6-5.5 11.8-7.7 6-3.3 10.8-7 15.2-12.3q.9-.9 1.8-1.9c1.5-2 1.5-2 .8-4.3-2.3-4.1-5-7.7-7.7-11.5q-1.7-2.3-3.3-4.6-.8-1-1.5-2C828 561 828 561 828 559c-1.1.9-1.1.9-2.3 1.7-16 11.6-34.5 20.4-54.7 18.3-4.8-1-8.9-2.1-12-6 0-2.9 0-2.9 1-6 4.2-4.2 9.1-5.7 14.5-7.7 13.6-5.2 23.6-12.6 33.5-23.3l4 3q-.9-1.2-1.8-2.4c-6.7-9.4-12.5-19.2-15.2-30.6-4 .7-7.5 1.9-11.3 3.4-9.6 3.8-17.3 5.3-27.7 4.6-1-1-1-1-1.2-3.4.2-2.6.2-2.6 1.5-4.2 1.9-1.6 3.2-2 5.6-2.5q1.1-.3 2.3-.6c1.2-.3 1.2-.3 2.5-.5 9.3-2.3 17.7-5.5 26.3-9.8.9-.5.9-.5 1.8-.9 22.9-11.7 38.3-30.7 48.2-54.1q-1-.2-2-.3c-7.1-1.3-14-2.9-21-4.7-.7-2.3-.7-2.3-1-5 1-1.8 1-1.8 3-3 7.8-.9 15.5-.1 23 2q.7-2.8 1.4-5.7l.8-3.2q1-4 1.8-8.1-1 0-2.1 0-4.6 0-9.3.1-1.6 0-3.2 0-1.6 0-3.2 0-1.4 0-2.9 0c-2.3-.1-2.3-.1-4.3-1.1-.1-2.9-.1-2.9 0-6 2.3-2.3 2.9-2.3 6-2.6q1.1-.2 2.3-.3 1.3-.1 2.5-.2 1.2-.2 2.5-.3a113.15 113.15 0 0 1 11.7-.6q-1-5.6-1.9-11.2-.3-1.6-.6-3.3-.3-1.5-.5-3.1c-.3-1.4-.3-1.4-.5-2.8q-.5-2.4-1-4.7c-1.5-5.8-.1-11 1.8-16.5 8.1-26.1 11-54.2 10.7-81.4q0-4.1-.1-8.2 0-1.8 0-3.6c.1-2.9.5-5.4 1.1-8.2-.5-2.5-.5-2.5-1.4-4.8-.5-1.2-.5-1.2-.9-2.4q-.3-.9-.7-1.8 1-1 2-2z" fill="#012e4c"/><path d="M115 793q.5.9.9 1.8c4.6 8.7 10.5 15.1 20 18.1 17.5 4.6 36.5 4.8 54.1.8 3-.7 3-.7 7-.7q1.7 2.5 3.4 5.1c7.1 8.7 19.5 10.6 30.1 11.7 19.5 1.5 44.1 2.3 60.4-10.2 5.2-4.9 6.6-10.8 8.1-17.6q.8.2 1.6.3 2.6.5 5.1 1 3.4.7 6.8 1.5c9.3 1.9 18.3 2.6 27.8 2.5q3.4 0 6.7 0c8.4 0 16.4-.6 24.6-1.9 3.5-.4 6.9-.5 10.4-.4q.4 1 .7 2c3.7 9.7 7.9 14.5 17.3 19 8.2 3 16.3 4.8 25 5q1.1 0 2.3.1c17.6.5 40.2 1 54.8-10.5 2.1-2.8 4-5.6 5.9-8.6q1.8.2 3.6.4.9.2 2 .3 2.8.4 5.5.8c4.1.5 8.1.7 12.2.7q1.1 0 2.3 0 2.5 0 5 0 3.7.1 7.4.1c8.7.1 16.5-.4 25-2.6 3-.7 5.9-1.3 9-1.7 1.8 1.1 1.8 1.1 3.4 2.8 4.5 4.7 10.1 6.3 16.5 6.5q3.8.1 7.7.1c5.7.1 9 1.1 13.6 4.4 9.9 6.7 27 5.3 38.4 3.7 10.8-2.4 18.7-6.6 25.4-15.5 2 2 2 2 3.3 5.3 2.8 6.6 7.8 9.7 14.1 12.7 4 1.5 7.4 1.9 11.6 2q.9 0 1.9.1c13.7.5 28.4.7 39.1-9.1 2.2-2.5 4.1-5.2 6-8q1.5-2 3-4 .8 1.8 1.6 3.6c3.9 7.7 10.4 11.7 18.4 14.4 3.5.7 6.9.9 10.4 1q1.5.1 3 .1c12.1.2 23.8-1.7 35.6-4.1q1.4-.3 2.8-.6c13.7-2.7 27.9-6.6 37.9-16.9 6.5-6.5 15.6-8.7 24.1-11.6 2.4-.9 2.4-.9 5-2.7 3.2-1.7 4.7-1.2 8.2-.2 28.3 9.1 28.3 9.1 36 20 1.3 3.3 1.6 6.5.3 9.9-3.4 5.4-8.7 8.2-14.3 11.1q-1.2.6-2.5 1.3c-39.2 18.9-86.3 22.4-129 27.4q-3.3.4-6.6.8c-33.3 4-66.8 6.8-100.3 8.4q-2.6.1-5.2.2c-41 2-82 2.2-123.1 2.1q-9.1 0-18.3 0c-37.3 0-74.6 0-111.9-1.1q-4.8-.2-9.6-.3-9-.3-18.1-.6-1.6-.1-3.2-.1c-65.5-2.6-131.5-7.4-196.2-18.1q-1.2-.2-2.4-.4C98.2 840 98.2 840 83.1 819.9c-1.7-3-2.5-4.4-2.1-7.9 5.7-10.5 19.3-14.6 29.9-18.4 2.1-.6 2.1-.6 4.1-.6z" fill="#ebd093"/><path d="M191 122.6c12.1 4.5 21.5 11.9 31 20.4q.8.7 1.6 1.4c12.6 11.2 24 23.4 34.4 36.6q1.1 1.4 2.3 2.9c9.4 12 18.6 24.3 26.5 37.2 1.1 1.8 1.1 1.8 2.2 2.9 7.2-.6 14.2-2.2 21.2-3.6 5.4-1.1 10.3-1.6 15.8-1.4 11.3 27.9 13.7 55.1 9 85l-.6 3.9c-3.1 18.7-12.5 38-28.1 49.3-11 7.5-21.5 11.6-34.7 12.7-18.9 1.7-33.3 11-45.6 25.1-11 13.8-17.6 29.4-23 46-7-4.3-13-9.3-19-15q-1.1-1-2.2-2c-6.7-6.4-12-13.5-14.3-22.6-2.2-7-8.1-9.7-14.2-13.2-3.3-2.2-3.3-2.2-5-4.1-.5-3.5 1.4-6.1 3.2-9q.6-1.1 1.2-2.1c3.5-6 7.4-11.7 11.3-17.4 4.4-6.6 8.6-13.1 12.4-20 .5-1.1.5-1.1 1.1-2.1 2.1-4 3.2-7 2.5-11.5-1.4-2.9-1.4-2.9-3.5-5.8-12.4-19.2-19.7-41.7-23.5-64.2q-.2-1.2-.5-2.5c-3.3-16.9-3.9-33.4-3.9-50.6q0-1.5-.1-3.1c0-16.6.6-33.5 6.3-49.3q.3-1.1.7-2.2c6.3-17.4 16.4-27.6 35.5-21.7z" fill="#f3970a"/><path fill-rule="evenodd" d="M216.2 123.1c10.4 7.5 19.6 16.6 28.7 25.7q.7.7 1.5 1.5C293 197.1 293 197.1 293 212q.9-.2 1.9-.3 4.3-.8 8.6-1.6 1.4-.2 2.9-.5c15-2.7 29.5-4 44.7-3.9h2.6c13.3 0 26.2.9 39.3 3.3q2 .3 4 .6 4 .7 8 1.4.5-.7 1.1-1.5c15.4-21.3 32.1-40.7 50.6-59.4q2.1-2.1 4.2-4.2c6.1-6.1 12.4-11.6 19.1-16.9q2.2-1.8 4.3-3.6c14.2-11 29.5-17.4 47.7-15.4 3.4 1.1 5.5 2.5 8 5q.9.8 1.8 1.6c16.7 16.8 16.4 46.8 16.4 68.8q0 1.2 0 2.5 0 1.3 0 2.7c-.1 44.2-7.9 93.3-33.1 130.8-2.2 3.4-2.8 5.5-2.1 9.6 1 2.7 2.1 5.2 3.4 7.7q.5 1.1 1 2.3c3.2 6.4 6.6 12.5 10.1 18.7 3 5.3 5.5 10.6 7.5 16.3l10 1c.2-1.1.2-1.1.5-2.2 1.3-5.6 2.8-10.6 5.2-15.7 3.7-8.6 2.6-16.7 1.6-25.7-3-27-7-69.8 9.7-93.4 3.7-3.9 6.9-6.8 12.4-7.3 12.4.3 22.7 7.6 32.6 14.3q.9.6 1.8 1.2c12.9 8.8 25.9 18.3 36.1 30.2 2.4 2.6 3.8 3.6 7.3 4 3.8-.4 7.5-1.1 11.2-1.9 28.9-5.7 60-3 88.3 4q1.3.3 2.7.6 1.1.3 2.3.6c2.7.4 4.7 0 7.3-.7 1.9-1.6 1.9-1.6 3.7-3.8 14.8-15.4 45.4-37.2 67.4-38.4q1.7 0 3.5 0 1.7 0 3.4 0c3 .2 3 .2 6 2.2q-1 1.5-2 3c.5 1.9.5 1.9 1.4 3.9 1.5 3.4 1.9 5.5.6 9.1q-2-3-4-6c-9.2-1.6-17 3-25 7q-1.2.6-2.4 1.2c-17.7 8.7-34.1 19.7-47.8 34.1-2.8 2.7-2.8 2.7-6.4 3.1l-3.4-.4q-2 0-4 0-.4.9-.8 1.8-1.9 4.1-3.8 8.2-.7 1.4-1.3 2.8c-2.7 5.8-5.6 11.6-10.1 16.2-3.2 1.1-3.2 1.1-6 1-2.5-2.5-2.3-4-2.3-7.5q0-1.1 0-2.2 0-1.1 0-2.3c.1-8.5 1.6-16.9 4.3-25l-15-2c-.2 2.2-.2 2.2-.3 4.4-.6 5.5-2 10.5-3.8 15.7-.4 1.4-.4 1.4-.9 2.8-2.1 5.8-4.4 11.5-7.1 17.1q-.5 1-1 1.9c-2.1 4.1-4.4 7.1-7.9 10.1-2.6.2-2.6.2-5-1-9.2-9.7-8.2-28.1-8.1-40.6q0-1.6.1-3.3 0-4.1 0-8.1l-14 1q-.1 1.6-.3 3.3c-.8 8.2-1.8 16.1-3.6 24.1q-.3 1-.5 2.1c-.9 3.8-2 6.6-4.6 9.5q-2.5-.5-5-1c-3.8-11.2-6.5-22.2-6-34q-1.3.2-2.7.3c-4.4-.4-5.5-2-8.5-5.2q-1.4-1.6-2.9-3.1c-.7-.8-.7-.8-1.5-1.6-3.3-3.3-7-6.2-10.7-9.1q-2.9-2.3-5.9-4.6c-20-16.9-20-16.9-43.7-26.3-3.8.7-4.7 1.6-7.1 4.6-6.5 17.1-6.2 36.5-6.2 54.5q-.1 1.2-.1 2.3c0 9.4.4 18.6 1.4 27.9 1.5 14.4-.4 24.8-6.2 38.1-1.1 2.7-1.6 5.3-1.9 8.2q.9.1 1.9.3c5.7 1 11.4 2.1 16.1 5.7 1.2 2.6 1.2 2.6 1 5-1.3 1.7-1.3 1.7-3 3-6.4.6-13.1-2.1-19-4l-1 16 9.4-.3c4.4 0 7.1.6 10.6 3.3 1 2 1 2 1 4-1.5 1.9-2.5 2.9-4.9 3.4-1 .1-1 .1-2.1.1-1.1.1-1.1.1-2.3.1q-1.2.1-2.4.1-1.2 0-2.4.1-3 .1-5.9.2c4.3 19.1 12.8 42.6 29.3 54.6 2.7 2.4 2.7 2.4 3.8 4.5-.1 1.9-.1 1.9-2 4.1q-1.1.9-2.1 1.8c1.1 3.3 2.5 4.6 5 7q-.2.8-.5 1.5c-2.3-2.3-4.6-4.6-7.1-6.8-20.4-17.9-30.1-39.3-37-65q-.2-.9-.4-1.7-3.1-.1-6.3-.1c-1.2-.1-1.2-.1-2.5-.1q-1.3 0-2.5-.1-1.3 0-2.5 0c-4.7-.1-4.7-.1-10.7 7.8-3.1 4.2-6.3 7.9-9.7 11.4.7-1.2 1.3-2.7 2.2-4.9q-1.5-.5-3-1c-.2-4.1.6-7.2 2-11q-1-.6-2-1.1c-2-1.9-2-1.9-2.6-4.9.6-3 .6-3 2.7-4.8 2.9-1.2 2.9-1.2 5.9-1.4 3.2-.5 3.2-.5 4.6-3.2q.6-1.5 1.1-3 .6-1.6 1.3-3.3c1.3-4.4 2.3-8.8 3-13.3q-1.5 0-3 0c-2 0-2 0-3.9.1q-2 0-3.9 0c-3.2-.1-3.2-.1-4.2-1.1-.5-5.3-.5-5.3 1.2-7.7 2.5-1.8 4.4-1.6 7.5-1.5q1.5.1 3 .1 1.1 0 2.3.1c-4.4-9.8-9.1-19.3-14.5-28.7-9.2-16.1-9.2-16.1-7.5-23.3 1.5-3.2 3.4-5.9 5.4-8.8 29.1-43.8 38.9-109.2 29.6-160.6-2.1-10.3-4.5-21.8-12-29.6-4.7-3-9.7-2.7-15-2-14.4 4.2-26 13.2-37 23q-1.4 1.2-2.8 2.5-2.5 2.2-5 4.5-3.7 3.3-7.5 6.5c-15.6 13.9-28.6 30.9-41.1 47.4q-3.6 4.8-7.2 9.5c-1.2 1.5-1.2 1.5-2.4 3.1-1 1.2-1 1.2-2 2.5q-.6.9-1.3 1.9c-3.5 2.3-7.9 1.4-11.9.7q-3.4-.7-6.8-1.5-2.3-.6-4.6-1.1-.9-.3-2-.5c-7.1-1.4-14-1.7-21.2-1.7q-1.6-.1-3.2-.1-5 0-9.9 0-1.7 0-3.4 0c-18.9 0-36.6 1-54.7 6.3-2.7.4-2.7.4-5 0-2.9-3.3-5.2-6.8-7.6-10.4-4.9-7.4-10.1-14.5-15.4-21.6q-.6-.8-1.3-1.7c-19.8-26.5-46-61.2-79.7-69.3-5.4-.6-10.3-.7-15.3 1.4-17.1 16.6-19.8 42.9-20.1 65.5q0 4.7 0 9.4 0 1.6 0 3.3c0 39.1 5.9 85 29.7 117.5 2 3.5 2.3 4.9 1.7 8.9-1.1 3-2.6 5.8-4.1 8.6-.7 1.2-.7 1.2-1.4 2.5-4 7.4-8.7 14.4-13.4 21.4-3.5 5.1-6.9 10.2-10.1 15.6-1 1.6-1 1.6-1.9 3.2-1.3 2.6-1.3 2.6-.7 4.8 2.3 2.8 5.4 4.3 8.5 6.1 6.3 3.8 8.8 6.7 11.1 13.8 3.8 8.2 8.7 14.5 15 21l1.7 1.9c5.3 5.7 11.8 9.8 18.3 14.1q2.8 2 5.7 3.9 1.2.9 2.4 1.7c1.9 1.4 1.9 1.4 3.9 3.4-.3 3.3-.6 4.6-3 7-3.6.1-3.6.1-7 0a354.72 354.72 0 0 0-13.9 41.1q-.3 1.1-.5 2.1c-2.5 9.2-4.7 18.5-6.6 27.8q-1.5-.5-3-1 0 1.3 0 2.6c.1 6.8 0 13.6-.5 20.3-.9 14-.6 28.1-.5 42.1q-.5 0-1 0-.5-2.5-1-5c-2.5.8-2.5.8-5 2q-.5 1.5-1 3-1-3-2-6c-19.8 6.7-30.5 23.4-39.7 41.3-5.9 13.2-8 26.5-7.8 40.9q0 1 0 2.1c.1 11.6 1.2 22.6 4 33.9q.6 2.3 1 4.6c1.6 7.6 5.6 14.6 9.3 21.3 1.3 3.2 1.4 5.5 1.2 8.9q-2 .5-4 1-.5 2-1 4c-8.4-13-14.7-26.9-18.5-42q-.7-2.8-1.5-5.5c-4.5-19.2-4.2-42.8 2-61.5q.3-1 .6-1.9c7.5-22 21.4-45.2 42.4-56.1q2.9-1.4 5.8-2.7 1.5-.6 3-1.3l2.2-1q0-1.2 0-2.4c.3-28.9 5.2-55.1 14-82.6q.4-1.1.7-2.3 5.6-17.4 11.3-34.7-1.4-1.2-2.9-2.5-1.9-1.6-3.8-3.2-.9-.8-1.9-1.6c-23.2-19.9-23.2-19.9-29.1-32.9-2.5-5.4-4.5-8.3-9.7-11.3C138 392 138 392 136 386c-.7-9.8 6.2-17.4 11.8-24.9 6.2-8.7 11.7-17.9 16.8-27.3q.5-.9 1.1-1.8c1.8-3.5 2.9-6.1 2.3-10-1-1.7-1-1.7-2.5-3.2-15.6-19.7-20.2-49.9-24.5-73.8q-.3-1.5-.5-3c-5-28.3-6.1-62.1 1.5-90q.3-1.1.6-2.1c3.7-13.5 9.6-29.8 22.1-37.3 17.3-8.2 36.9.8 51.5 10.5zm374.9 383.3c-3.8 9.8-6.9 19.3-9.1 29.6 3.2-14.6 8.4-28.2 14.2-42q.4-1 .8-2-.2-.2-.5-.5c-1.6 5-3.5 10-5.4 14.9zm-9.7 32.6c-2.4 11.7-2.7 23.6-2.7 35.4 0-11.8.3-23.6 2.6-35.2q.4-1.6.7-3.2-.3 1.5-.6 3zm-76.2-90.8q.9-.7 1.9-1.5-1 .8-1.9 1.6-1.1.9-2.2 1.7 1.1-.9 2.2-1.8zm3-2.4q1.4-1.1 2.9-2.3c4.1-3.2 5.4-4.2 6.7-6.6-3.3 3.4-6.9 6.6-10.7 9.8q.5-.4 1.1-.9zM540 407h12c.9-6.7 1.1-13.2 1-20h-9c-1.5 6.6-2.8 13.3-4 20z" fill="#012f4d"/><path d="M531.8 121.9c14.2 13.4 15.9 37.2 16.5 55.5.8 48.2-5.6 103.5-35.9 142.9-2.2 4.2-2.2 8.2-.8 12.6.8 2.1 1.8 4 2.8 6q.5 1.1 1 2.2c3.2 6.3 6.6 12.5 10.2 18.6 2.8 4.9 4.8 9.8 6.4 15.3q-1.2.1-2.3.1c-1.5.2-1.5.2-3.1.3q-1.5.1-3 .2c-2.8.2-2.8.2-4.6 2.4q0 3 0 6l14 1c0 6-.2 8.5-2.4 13.7q-.6 1.7-1.3 3.4C528 405 528 405 526 408c-2.1.7-2.1.7-4.6 1.1-3 .4-3 .4-5.4 1.9-.3 3-.3 3 0 6q1.5 1 3 2c-4.5 9.6-13.3 16.4-22 22q-.3-.9-.6-1.8c-9.2-28.4-21.2-52.7-48.2-67.6-4.5-2.3-8.2-3.8-13.3-4.1q-1.4-.1-2.9-.2-1.5-.1-3-.2c-19.2-1.5-36.2-5.4-49.8-20-14-16.4-19.3-39.4-19.4-60.6q0-1.2 0-2.4 0-2.5 0-5.1-.1-3.7-.1-7.5c-.1-15.2 2.2-28.7 7.5-43q.5-1.5 1.1-3.1 1.3-3.7 2.7-7.4c8.5.4 16.3 1.6 24.6 3.6 4.9 1.2 9.3 1.8 14.4 1.4 2-1.1 2-1.1 3.3-3q.8-1.1 1.7-2.2 1-1.4 2-2.8 1.3-1.8 2.6-3.5 2.3-3.1 4.6-6.1c8.2-11 16.9-21.6 26.3-31.7 3.1-3.3 6-6.7 8.9-10.2 1.6-1.5 1.6-1.5 3.6-1.5q.4-.9.7-1.7c1.6-2.8 3.4-4.4 5.8-6.5l7.9-7c13.1-12.3 34.8-31.4 54.4-24.9z" fill="#f3970a"/><path d="M182 527q1.5.5 3 1-.2 1.6-.4 3.3c-1.4 11.2-1.9 22.2-1.9 33.5.1 1.3.1 1.3.1 2.5 0 12.7.3 25.2 2.2 37.7q.2 1.7.5 3.4c4.7 30.6 12.1 60.7 19.8 90.7 4.3 16.8 7.8 33.7 10.7 50.9q.3 1.5.6 3.1c2.4 14 2.4 14 .1 18.2-1.8 1.8-1.8 1.8-3.7 3.2-4.4 3.4-6.3 9.4-8 14.5-.7 8.2-.4 15.8 4 23 4.3 3.9 9.5 5.4 15 7q-.2-.8-.4-1.6c-2.4-9.5-2.5-18.2 1.4-27.4 1.4-2.3 1.4-2.3 3-4 3.1-.3 3.1-.3 6 0q.5.5 1 1c-.1 2-.1 2-.4 4.4q-.1 1.2-.2 2.4c-.4 2.2-.4 2.2-1.4 5.2q-.2 3.2-.2 6.3 0 1.7 0 3.4c.2 3.4.9 6.1 2.2 9.3 2.2 1.1 3.6 1.2 6.1 1.3q1.2.1 2.5.1l2.5.2q1.3 0 2.6.1 3.1.2 6.3.3-.5-1-1-2c-.3-3.9-.2-7.8-.2-11.7-.1-1.6-.1-1.6-.1-3.3 0-6.1.3-10.6 3.3-16q3-.1 6 0c1 1 1 1 1.1 4q0 1.9 0 3.9v2.1q0 3.3 0 6.6 0 2.2-.1 4.4 0 5.5 0 11 3.6-.9 7.1-1.8c1.1-.2 1.1-.2 2.2-.5 5.3-1.3 9.5-3.6 13.5-7.4 3.4-6.4 3.5-13.9 3.5-21.1 0-1.4 0-1.4.1-2.8q0-4.7 0-9.3v-3.3c0-18.8-1-37.5-2.3-56.3q-.1-1.9-.2-3.8-.4-5.4-.8-10.8-.1-1.6-.3-3.2c-.7-11.7-.7-11.7-4.9-22.3-2.4-4.3-2.4-6.6-1.9-11.4q1-1 2-2 3.2 3.9 6.4 7.9a37.22 37.22 0 0 1 1.9 2.2q.9 1.1 1.8 2.2.8 1 1.6 2c2.8 3.7 2.8 7.6 3.3 12q.1 1.3.2 2.6c1 9.7 1.7 19.4 2.4 29.1q.3 5.3.7 10.6.1 1.3.2 2.6.4 6.1 1.1 12.3c.8 8.7.8 17.4 1 26.2q0 2.8.1 5.6.2 6.9.3 13.7 4.5 1 9.1 1.9 1.2.3 2.5.6c22 4.7 44.4 3 66.4-.5q0-.8 0-1.7c.6-17.3 2-34.5 3.7-51.7q.4-4.1.8-8.2 1.2-12.7 2.5-25.4.2-1.8.4-3.7.5-5.2 1.1-10.3.2-1.5.3-3.1c1-8.5 3.5-14.3 8.4-21.3q1.1-1.6 2.2-3.2.8-1.2 1.6-2.4c3 1 3 1 4 3 .5 4-.2 6.6-1.9 10.2-2.9 7.1-3.4 14.4-4 21.9q-.3 2.4-.5 4.8-.5 5.5-1 11-.6 6.5-1.3 13-.9 9.3-1.7 18.6-.3 3.6-.7 7.3c-1.2 13-2.1 26-2.2 39.1-.1 1.7-.1 1.7-.1 3.4 0 6.4.3 11.4 4.9 16.3l1.5 1.1c3 2.3 3 2.3 4.5 4 2.2 1.9 4.7 2.5 7.5 3.3q-1 1-2 2 3-.5 6-1-.7 1.4-1.5 2.9c-1.6 2.7-1.6 2.7-1.5 4.1-9.3.1-15.9-1.8-23-8-4.2-4.7-6.2-8.7-7-15q-1.8.3-3.6.7c-12.1 2-24 2.6-36.3 2.7h-2.2c-14.1.1-27.5-1.8-40.9-6.4-.2 1.8-.2 1.8-.3 3.6-1 7.4-4.3 11.8-9.9 16.5-18 12.3-47 11-67.6 7.7-9.5-2.3-18.8-6.1-24.2-14.8q0-1 0-2-1.3.3-2.6.6-1.7.4-3.5.8l-3.4.8c-19.2 4.2-44.3 4.6-61.5-6.2q-1.4-.8-2.8-1.7c-4.3-4.5-7.8-9-8.6-15.4.4-13.1 7.6-24.5 16.4-33.9 1.9-1.8 3.9-3.4 6-5-.8-4.4-1.9-8.7-3-13l4-2c-.3-6-2.5-9.9-5.4-15.1-3.5-6.4-5.8-12.9-6.3-20.2-.4-3.2-1.1-6.3-1.8-9.5-1.6-7.5-2-14.8-1.9-22.6q0-3.1-.1-6.2c-.1-25.3 11.2-49.4 28.6-67.6A55.34 55.34 0 0 1 170 585l2 1c.6 2.1.6 2.1 1 4q.9-.7 1.9-1.5c2.1-1.5 2.1-1.5 4.1-1.5 1.2-2.4 1.1-3.8 1-6.5q0-1.4 0-2.9 0-1.6-.1-3.2c-.1-15.8 1-31.6 2.1-47.4z" fill="#042b4a"/><path d="M501 479c6 9 7.8 21.7 10.2 32.1.4 1.6.4 1.6.7 3.2 3.7 16.1 4.5 31.4 4.5 47.8q0 1.6 0 3.3c-.1 17.6-1 34.4-4.4 51.6q-.3 1.7-.7 3.5c-4.3 23.2-11.2 45.7-17.9 68.3-6.9 23.3-13.3 47-17.4 71l-.4 2.3c-.7 4.3-.6 7.1 1.4 10.9q.5 1 1 2.1 1.1 2 2.1 3.9c3.3 7.3 3.2 19 .9 26.6-3.1 5.4-7.3 8.9-12.8 11.9-2.5.6-3.8.2-6.2-.5q.1-2 .1-4c.3-9.7.5-18.1-4.1-27q-3 0-6 0 .1.9.2 1.8c.7 6.4 1 12.7 1 19.1q0 1.4 0 2.9 0 1.3 0 2.7 0 1.2 0 2.4c-.2 2.1-.2 2.1-2.2 5.1-2.8 1.1-5.5 1.1-8.5 1.1q-1.3 0-2.6 0-1.3 0-2.7 0c-1.3 0-1.3 0-2.6-.1q-3.3 0-6.6 0c0-1.4 0-1.4-.1-2.8q-.1-5.1-.2-10.3-.1-2.2-.1-4.4-.1-3.2-.2-6.4 0-1.9-.1-3.9c-.1-3.4-.1-3.4-2.3-6.2-3.1-.3-3.1-.3-6 0q0 1.2 0 2.4.1 5.4.1 10.7.1 1.9.1 3.8 0 1.8 0 3.6 0 1.6 0 3.3c-.2 3.4-1 6.1-2.2 9.2-9-1.1-15.8-3.2-21.9-10.1-10.2-14.2-2.1-48.1-.5-65.2q.4-4.5.8-9 1.1-12.8 2.4-25.7.3-2.9.6-5.9.5-5.3 1-10.6.2-1.6.3-3.1c.7-5.9 2-10.9 4.4-16.3 1.2-2.8 1.3-5.1.9-8.1q-.6-1.1-1.3-2.2c-.7-2.8-.7-2.8.8-6.2q1.2-2 2.4-3.9c3.4-5.6 6.4-11.2 8.9-17.2q.4-1 .9-2 .4-1 .8-2c1.7-3.9 3.5-7.7 5.5-11.5q1 0 2 0l4 8c21.7-10.8 36.3-46.3 43.8-68 3.8-11.8 6.1-23.8 8.2-36q1 0 2 0c2.6 4.3 4.6 8.2 6 13 3-.7 3-.7 4.1-2.5 6.3-13.9 6.9-30.1 7.5-45.1 0-1.6 0-1.6.1-3.3q.2-4.1.3-8.1zm-310 20q.5 0 1 0 .1.9.1 1.8.4 4.1.7 8.1.1 1.4.2 2.8c.5 6 1.4 11.8 4 17.3q1 .5 2 1l1.4-3q1-1.9 1.9-3.9.5-.9.9-1.9c1.7-3.4 2.6-5.1 5.8-7.2q.1 1.1.2 2.2c3.1 31.7 9 60.9 28.8 86.8q1.5-.5 3-1c1.7-3.5 1.7-3.5 3-7q1 0 2 0 .3.8.5 1.6c4 12 8.5 23.3 14.5 34.4q.5.9 1 1.8c4.2 7.9 8.9 15.1 14.4 22.1 3.7 4.9 4.8 7.8 4.3 13.9 0 3.5.7 5.1 2.7 8 3.8 6.6 3.8 13.9 4.3 21.3q.2 2.4.3 4.8.4 4.8.7 9.6.4 6 .9 11.9c1.4 16.7 1.6 33.3 1.6 50q.1 1.6.1 3.3 0 4.8 0 9.6v2.8c-.1 8.3-.5 16.2-6.4 22.4-6.1 4.8-13.3 6-20.9 6.5-.9-3.8-1.1-7.3-1.1-11.2v-3.5-3.6q0-1.8.1-3.7 0-4.5 0-9-3 0-6 0c-1.6 4.3-2.2 7.7-2.2 12.3q0 1.7 0 3.5 0 1.7.1 3.6 0 1.8 0 3.7 0 4.4.1 8.9-4.4.1-8.8.2c-1.2 0-1.2 0-2.5.1-3.5 0-6 0-9.2-1.5-3.1-3.8-2.7-8.5-2.7-13.2q0-1.7 0-3.3c.2-3.4 1.1-6.1 2.2-9.3.2-3.3.2-3.3 0-6q-3 0-6 0-1 2.1-1.9 4.3-.6 1.1-1.1 2.3c-3.4 8.2-2.1 16.9-1 25.4-6.3-1.1-12.2-2.2-16.2-7.7-4.6-7.7-5.1-16.3-3.2-25 1.8-5.3 4-7.8 8.3-11.4 2.6-2.6 4-4.6 4.3-8.3-.8-26.1-9.3-53.7-15.7-78.9-7.6-30.2-15.1-60.3-18.3-91.3q-.2-2.3-.5-4.6c-3.7-31.4 0-62.6 8.3-92.8z" fill="#f3970a"/><path d="M822 638c1.9 1.2 1.9 1.2 3 3 .4 2.5.4 2.5 0 5-2.9 2.7-6.1 3.9-9.8 5.3-7.7 3.2-13.5 7.6-19.2 13.7q-.8.9-1.6 1.7c-15.9 17.4-21.4 41.1-20.5 64.1.7 12 3.6 23.1 8.1 34.2q1 .1 2 .1 4.4.3 8.9.7 1.5 0 3 .1c8 .6 15.1 2.3 21.7 7 1.9 2.8 1.8 4.7 1.4 8.1q-1 1-2 2c-2.9-.2-5.4-.7-8.1-2-6.5-2.9-12.5-3.4-19.5-3.5q-1.3 0-2.7-.1c-9.5.1-18 3.9-24.7 10.6-4.3 5.9-7 11.2-7.4 18.4q0 1.1-.1 2.3c.8 3.4 2.9 5 5.5 7.3.1-1.4.1-1.4.3-2.8 2-16.6 2-16.6 8.7-22.2 4.4.4 4.4.4 6 2 .3 3.4.4 5.4-1.5 8.3-1.9 3.3-1.8 5.6-1.7 9.4q0 1.7 0 3.4c0 2.8 0 2.8 1.2 4.9 3 .5 3 .5 6.6.6q1.7.1 3.6.3a26.2 26.2 0 0 1 2.8.1q.5-1.5 1-3 0 2 0 4l-10 2q.5 2 1 4-.5 1-1 2c17.7-.5 34.9-3.7 52-8q0 1 0 2c-51 14-51 14-72 4.4-6.1-3.6-10.1-8.6-14-14.4q-.5.9-1.1 1.8c-5.5 8.6-11 14-21.2 16.8-13.6 3-31.7 3.5-44.1-3.3-5.9-3.9-9.4-8.6-11.6-15.3q-.5.8-1.1 1.5c-6.2 7.9-14.9 12.7-24.8 14.3-29.9 2.4-29.9 2.4-40.9-5.9-4.4-2.6-8.2-2.5-13.2-2.5-13.6-.2-13.6-.2-18.7-4.8-2.3-2.6-2.3-2.6-3.6-4.5-2.6-1.7-4.9-1-7.8-.5q-2.1.4-4.2 1c-2.1.5-3.6.1-5.7-.6-.6-1.8-.6-1.8-1-4q1-1.5 2-3 .5 0 1 0-.1-4.8-.2-9.5-.1-1.3-.1-2.7c-.2-5.9-1.1-11-4.7-15.8-2.6-1.2-2.6-1.2-5-1q-.5.5-1 1c.1 2 .1 2 .4 4.4l.2 2.4c.4 2.4.4 2.4 1.4 5.2q.2 2.7.2 5.4 0 1.4 0 2.8c-.2 3-.9 5.1-2.2 7.8-3 1.5-5.8 1.1-9.1 1.1q-1.9-.1-3.9-.1h-3q0-.9 0-1.9-.2-4.4-.3-8.7c0-1.5 0-1.5-.1-3.1-.2-5.5-.6-9.6-3.6-14.3q-2.5.5-5 1v2.2q0 4.8.1 9.7 0 1.7 0 3.4v3.3 3c-.1 2.4-.1 2.4-1.1 4.4q-2.8.1-5.6.1-1.6.1-3.2.1c-3.4-.2-6-1-9.2-2.2q0-1.3 0-2.7c-.4-8.4-1.7-15.7-4.4-23.7-1.8-5.1-1.8-5.1-.9-7.9 6.3-8.2 16.9-11.8 26.8-13.4 13-1.5 26 .4 36.5 8.7 5 4.7 9.1 9.4 11 16-.2 2.4-.2 2.4-1 5q-.6 2.3-1.1 4.7l-.6 2.3c-.5 2.1-.5 2.1.7 4q.9-.2 1.8-.5c2.2-.5 2.2-.5 5.2-.5q.3-1.3.7-2.7c1.5-3.9 3.2-5.5 6.3-8.3 1-1 1-1 2-1.9 8.8-8.4 16.1-10.6 28.2-10.3 2.8.2 2.8.2 3.8 1.2q1-1 2-2c3.6-.1 3.6-.1 7 0l1-8q.5 0 1 0c1.4 12 1.4 12-1.8 16.6q-2.3 2.2-4.8 4.2c-5.6 5.1-9.8 12.9-10.7 20.4-.2 3.9-.2 6 2 9.2 2.1 1.5 4.1 2.5 6.3 3.6q-.1-1.5-.1-3c-.5-13.8-.5-13.8 4.1-20 2.6-1.1 2.6-1.1 5-1q1 1 2 2c0 1.8 0 1.8-.4 4-1.4 10.3-1.4 10.3 1.4 20h8q-.1-1.7-.1-3.4c-.5-14.9-.5-14.9 4.1-21.6q3-.1 6 0c1 1 1 1 1.1 3q0 1.3 0 2.7 0 1.4 0 2.9 0 1.4 0 3 0 1.5-.1 3 0 3.7 0 7.4c4.4.3 6.7.1 10.2-2.7q1-.7 2-1.5c8.1-8 7-21 7.1-31.6q0-6.9 0-13.8 0-1.8 0-3.6c-.1-34.3-3.2-68.3-8.9-102.1-.4-2.5-.6-4.9-.6-7.4q0-1.2 0-2.3c.2-2 .2-2 2.2-4 2.4-.4 2.4-.4 5 0 2.8 2.9 3.6 5.5 4.2 9.5l.6 3.3q.3 1.8.6 3.7a50.62 50.62 0 0 1 .7 3.8c2.6 16.1 4.4 32.4 5.9 48.7q.1 1.3.3 2.7c.6 7.8 1 15.6 1.2 23.4q.1 1.9.2 3.9.1 5.1.3 10.2.2 5.2.3 10.4.4 10.2.7 20.4c5.5-5.2 7.1-9.6 8-17q.2-1.4.4-2.9.5-4.8 1-9.6.2-1.7.4-3.6.6-5.6 1.2-11.2.4-3.7.8-7.4 1.1-10.7 2.2-21.3.2-1.5.3-3c1.2-11.9 2.1-23.8 2.8-35.7q.4-8.2.9-16.3.1-1.4.2-2.9c.4-5.6.4-5.6 2.1-7.8 1.7-1.3 1.7-1.3 4.8-1.1q1.4.4 2.9.8c1.5 3 1.1 6.2 1.1 9.5q0 1.2 0 2.3c-.1 16.5-1.7 32.9-3.1 49.2l-.2 2.1q-1.4 15.9-3 31.9-.5 5-.9 10-.6 6-1.2 12-.3 2.3-.5 4.5c-.7 8.7-2.1 14.9-8.2 21.4-4.8 5.1-7.3 10.9-7.6 17.9.2 3.8.5 5.1 2.6 8.4q1 .9 2 1.8.2-.8.3-1.7c3.6-16.8 3.6-16.8 7.7-20.3 3.2-.2 3.2-.2 6 0 1.3 5.4 1.3 5.4 0 8.3-1.2 3.3-1.3 5.9-1.3 9.4q0 1.7 0 3.4c0 3 0 3 2.3 4.9 2.7.6 5.3.7 8 1v-1.7q-.1-4-.2-7.9 0-1.4-.1-2.8c0-5.3.3-9 3.3-13.6 1-1 1-1 3.5-1.1 2.5.1 2.5.1 3.5 1.1q.1 2.7.1 5.3 0 1.7 0 3.3 0 1.7 0 3.5 0 1.7-.1 3.4 0 4.3 0 8.5 2.2-.4 4.3-.9c1.3-.2 1.3-.2 2.5-.5 2.6-.7 4.2-1.8 6.2-3.6q1 0 2 0 .4-1 .8-2.1c1.2-2.9 1.2-2.9 2.7-5.8 2.1-5.1 2.5-10.4 3.1-15.9l.4-3.4q.6-5.3 1.2-10.6.4-3.6.8-7.2.8-6.6 1.5-13.2.1-1.3.3-2.7c.2-2.1.2-2.1.2-4.1q-1.9-.2-3.9-.3c-5.8-.7-12.9-1.5-17.1-5.7-.1-2.9-.1-2.9 1-6 5.4-3 9.8-3.4 15.9-3.2 1.2 0 1.2 0 2.4.1q2.8 0 5.7.1c.1-.9.1-.9.1-1.8.7-8.2 2.3-16.2 3.9-24.2q-1.8-.3-3.7-.6-2.5-.3-4.9-.7-1.2-.2-2.5-.4c-10.2-1.6-10.2-1.6-13.9-5.3-.4-2.3-.4-2.3 0-5 3.6-4.5 8.3-4.9 13.6-5.7 5.5-.5 10.9-.5 16.4-.3q.2-1.9.4-3.8c.6-5.6 1.7-11 3-16.4q.3-1.5.6-3c2.1-9.1 2.1-9.1 5-12.8 2.5-.9 2.5-.9 5-1q1.5 1 3 2c.6 7.1-.8 13.2-2.7 20-3.2 12.4-5.9 24.8-8.4 37.3l-.6 3.3c-2.8 14-5.4 28-7.4 42.2-.1 1.1-.1 1.1-.3 2.1-1.2 8.7-2 17.4-2.6 26.1 1-1.2 1-1.2 2.1-2.4 6-6.8 11.7-12.5 19.9-16.6l-.6-1.9c-9.1-32.9-10.2-62.7 5.3-93.8 8.7-15.2 28.1-37.4 47.3-35.3z" fill="#032b48"/><path d="M216.2 123.1c10.4 7.5 19.6 16.6 28.7 25.7q.7.7 1.5 1.5C293 197.1 293 197.1 293 212q.9-.2 1.9-.3 4.3-.8 8.6-1.6 1.4-.2 2.9-.5c15-2.7 29.5-4 44.7-3.9h2.6c13.3 0 26.2.9 39.3 3.3q2 .3 4 .6 4 .7 8 1.4.5-.7 1.1-1.5c15.4-21.3 32.1-40.7 50.6-59.4q2.1-2.1 4.2-4.2c6.1-6.1 12.4-11.6 19.1-16.9q2.2-1.8 4.3-3.6c14.2-11 29.5-17.4 47.7-15.4 3.4 1.1 5.5 2.5 8 5q.9.8 1.8 1.6c16.7 16.8 16.4 46.8 16.4 68.8q0 1.2 0 2.5 0 1.3 0 2.7c-.1 27.2-2.5 55.4-11.2 81.4q-.8-.3-1.7-.6c-2.8-.5-4.6-.3-7.3.6-1.7 2-1.7 2-3 4q1.7-8.9 3.8-17.7c9-38.3 17.7-91.7-1.3-128.2-2.4-3.8-4.2-6.5-8.5-8.1-12.9-2-24.7 5-35 12-4.5 3.4-8.8 7.2-13 11q-1.4 1.2-2.8 2.5-2.5 2.2-5 4.5-3.7 3.3-7.5 6.5c-15.6 13.9-28.6 30.9-41.1 47.4q-3.6 4.8-7.2 9.5c-1.2 1.5-1.2 1.5-2.4 3.1-1 1.2-1 1.2-2 2.5q-.6.9-1.3 1.9c-3.5 2.3-7.9 1.4-11.9.7q-3.4-.7-6.8-1.5-2.3-.6-4.6-1.1-.9-.3-2-.5c-7.1-1.4-14-1.7-21.2-1.7q-1.6-.1-3.2-.1-5 0-9.9 0-1.7 0-3.4 0c-18.9 0-36.6 1-54.7 6.3-2.7.4-2.7.4-5 0-2.9-3.3-5.2-6.8-7.6-10.4-4.9-7.4-10.1-14.5-15.4-21.6q-.6-.8-1.3-1.7c-19.8-26.5-46-61.2-79.7-69.3-5.4-.6-10.3-.7-15.3 1.4-17.1 16.6-19.8 42.9-20.1 65.5q0 4.7 0 9.4 0 1.6 0 3.3c0 39.1 5.9 85 29.7 117.5 2 3.5 2.3 4.9 1.7 8.9-1.1 3-2.6 5.8-4.1 8.6-.7 1.2-.7 1.2-1.4 2.5-4 7.4-8.7 14.4-13.4 21.4-3.5 5.1-6.9 10.2-10.1 15.6-1 1.6-1 1.6-1.9 3.2-1.3 2.6-1.3 2.6-.7 4.8 2.3 2.8 5.4 4.3 8.5 6.1 6.3 3.8 8.8 6.7 11.1 13.8 3.8 8.2 8.7 14.5 15 21l1.7 1.9c5.3 5.7 11.8 9.8 18.3 14.1q2.8 2 5.7 3.9 1.2.9 2.4 1.7c1.9 1.4 1.9 1.4 3.9 3.4-.3 3.3-.6 4.6-3 7-3.6.1-3.6.1-7 0a354.72 354.72 0 0 0-13.9 41.1q-.3 1.1-.5 2.1c-2.5 9.2-4.7 18.5-6.6 27.8q-1.5-.5-3-1 0 1.3 0 2.6c.1 6.8 0 13.6-.5 20.3-.9 14-.6 28.1-.5 42.1q-.5 0-1 0-.5-2.5-1-5c-2.5.8-2.5.8-5 2q-.5 1.5-1 3-1-3-2-6c-19.8 6.7-30.5 23.4-39.7 41.3-5.9 13.2-8 26.5-7.8 40.9q0 1 0 2.1c.1 11.6 1.2 22.6 4 33.9q.6 2.3 1 4.6c1.6 7.6 5.6 14.6 9.3 21.3 1.3 3.2 1.4 5.5 1.2 8.9q-2 .5-4 1-.5 2-1 4c-8.4-13-14.7-26.9-18.5-42q-.7-2.8-1.5-5.5c-4.5-19.2-4.2-42.8 2-61.5q.3-1 .6-1.9c7.5-22 21.4-45.2 42.4-56.1q2.9-1.4 5.8-2.7 1.5-.6 3-1.3l2.2-1q0-1.2 0-2.4c.3-28.9 5.2-55.1 14-82.6q.4-1.1.7-2.3 5.6-17.4 11.3-34.7-1.4-1.2-2.9-2.5-1.9-1.6-3.8-3.2-.9-.8-1.9-1.6c-23.2-19.9-23.2-19.9-29.1-32.9-2.5-5.4-4.5-8.3-9.7-11.3C138 392 138 392 136 386c-.7-9.8 6.2-17.4 11.8-24.9 6.2-8.7 11.7-17.9 16.8-27.3q.5-.9 1.1-1.8c1.8-3.5 2.9-6.1 2.3-10-1-1.7-1-1.7-2.5-3.2-15.6-19.7-20.2-49.9-24.5-73.8q-.3-1.5-.5-3c-5-28.3-6.1-62.1 1.5-90q.3-1.1.6-2.1c3.7-13.5 9.6-29.8 22.1-37.3 17.3-8.2 36.9.8 51.5 10.5z" fill="#023050"/><path d="M927.8 463.7q1.1 0 2.3 0c1.9.3 1.9.3 3.9 2.3h-10l2 2q0 1 0 2l8 3c-3.3 1.1-3.8.8-7 0-6-.4-11.4-.4-17 2q.8-.2 1.6-.5c8-1.7 17.3-1.6 24.7 2.3 3.1 2.2 5 4.8 6.7 8.2 1 5.8.4 10.1-2.9 15-5.5 7-11.4 13.4-17.8 19.5-7.5 7.4-10.4 15.5-10.6 25.8q-.1 1.9-.1 3.9c.7 14.7 7.7 29.5 12.8 43.1 16.8 45.8 24.9 92.4 3.9 138.4-6 12.4-13.7 23.4-23.3 33.3q-1.1 1.2-2.3 2.5c-8.3 8.9-19.2 16.9-30.7 21.5q-1.5 0-3 0c1.5-5.2 3.4-9.9 5.8-14.6 3.6-7.3 6.2-14.4 8.2-22.3 1.9-7.3 4.1-12.6 9-18.5 11.5-14.8 15.8-35.2 15-53.6l-.2 3.3q-.1 2.2-.2 4.4-.1 1.1-.2 2.2c-.2 3.8-.5 7.4-1.4 11.1q-1-1.5-2-3-.9 1-1.8 2c-2.2 2-2.2 2-5.2 2l-2 9c-1.1-4.5-.6-6.6.4-11.1 7.2-34.5-6.7-68.4-19.6-99.8-11.6-28-21.1-62.8-8.9-92.2 3.6-8.4 7.9-16.1 14.1-22.9q1-1.1 2-2.3c13.3-14.2 27-18.2 45.8-18z" fill="#01304e"/><path d="M375.5 356.9c4.8 4.1 7.3 7.4 7.8 13.7-.1 7.9-4.2 14-9.4 19.6-5 4.8-10.7 8.5-16.9 11.8 2.4 2.6 4.8 4.1 7.9 5.6q1.3.7 2.6 1.3c8.5 3.7 21.4 3.8 30.1.5 2.3-1.1 2.3-1.1 4.4-2.4 1-.6 1-.6 2-1.1 5.4-3.6 9.2-8.5 13.1-13.6 3.3-4.2 3.3-4.2 6.6-4.8 2.3.5 2.3.5 4.2 2.1 1.6 3.4 1.3 5.9.1 9.4-4.1 8.7-10.4 17.1-18.5 22.3-4.3 2.9-5.6 6.5-7.4 11.3-7.1 17.1-18.1 32.1-34.9 40.5-10.1 4.1-22.7 4.8-33.1 1.4-18.4-8-30.6-22.6-38-40.7-3.3-8-7.2-12.6-14.1-17.8-6.3-5.5-12.3-12.5-14.1-20.9.1-3.1.1-3.1 1.7-5.6 2.4-1.5 2.4-1.5 4.8-1.4 3.5 1.2 4.7 3.1 7 6 6.6 8.5 12.2 14.4 22.6 17.9 10.3.6 19.6.7 29-4q1.1-.5 2.2-1.1c3.5-1.8 3.5-1.8 5.8-4.9q-1.2-.3-2.4-.6c-8.9-3.6-17.7-11.5-22.6-19.7-1.7-6.2-2.4-12.7.6-18.6 12.2-15.7 42.6-15 58.9-6.2z" fill="#022d49"/><path d="M170 585q1 .5 2 1c.5 2.5.5 2.5.8 5.8q.2 1.9.4 3.8.1 1 .3 2.1c2.6 24.4 7.4 48.2 13.3 72.1q.3 1 .6 2.1 2.6 10.7 5.3 21.3c11.6 45.6 11.6 45.6 11.3 58.8-1.7-.5-1.7-.5-3.5-1.1q-2.3-.6-4.6-1.3-1.2-.4-2.3-.7c-7.7-2.3-14.8-3.1-22.9-3.1q-1.3 0-2.6 0c-6.3 0-12 .8-18.1 2.2-9.4-11.7-16.6-25-21.4-39.2q-.4-1-.7-2c-3.8-12-5.4-23.7-5.3-36.2q0-3.1-.1-6.2c-.1-25.3 11.2-49.4 28.6-67.6A55.34 55.34 0 0 1 170 585z" fill="#f3980a"/><path d="M391 679c1.1 3.4.9 5.3.4 8.8q-.2 1.9-.5 3.8-.1 1-.2 2.1c-2.2 16.7-3.8 33.5-5.4 50.2-.1 1.8-.1 1.8-.3 3.5-1.1 11.9-2.2 23.8-2.7 35.7-.1 3.8-.4 7.3-1.3 10.9q-3.8.7-7.6 1.4l-2.1.4q-3.1.6-6.3 1.2-1.6.3-3.2.6c-19.3 2.1-41.6 2-59.8-5.6v-3.1c-.4-22.1-1.3-43.9-3.4-65.9l-1.8-20.6q-.1-1.6-.2-3.1c-.5-5.8-.7-11.5-.6-17.3 3.5 3.4 6.9 7 10.2 10.6 14.7 16.3 14.7 16.3 32.8 28.4 4.3-.1 7.5-2.2 11.1-4.5q1.6-.9 3.2-1.9c9.2-6.1 17.1-13.7 24.9-21.6q2.2-2.2 4.4-4.4c4.8-4.4 4.8-4.4 8.4-9.6z" fill="#f3970a"/><path d="M189 144c15.2 7.7 27.6 22.9 38 36q1.4 1.8 2.9 3.5c5.2 6.3 10.1 12.8 14.7 19.6q.6.9 1.2 1.8c7.1 10.9 7.1 10.9 6.9 17.7-2.3 8.4-12.5 15.1-18.8 20.8-12.1 11-21.4 23.5-30.7 36.9q-2 2.9-4.2 5.7c-2.9-.1-5.2-.3-7.5-2.2-1.6-1.8-3.1-3.8-4.5-5.8q-.8-1.1-1.7-2.3c-16-24.7-17.6-55.4-17.8-83.8q0-1.5 0-3.1c-.2-15.1.2-29.6 8.5-42.8 4-3.6 8-3.6 13-2z" fill="#fcc15a"/><path d="M527 583c8.9 1.1 17.5 9.2 23 16 7.9 11 13.7 22.5 17.9 35.4q.3 1 .6 2c1.4 4.3 2 8.1 1.5 12.6-1.6 2.7-1.6 2.7-3.7 5.3-11.6 15-15.4 35.2-13 53.9 1.3 8.8 1.3 8.8 3.5 17.5.4 5.1-4.8 9.5-7.8 13.3q-.8 1.3-1.6 2.6c-1.7 2.4-2.9 3.9-5.4 5.4-3.3.1-6.1-.5-9.3-1.3-13.7-2.7-28.6-.7-41 5.5-1.7.8-1.7.8-3.7.8 1.8-9.6 3.9-19 6.3-28.4q.3-1 .5-1.9c4-15.5 8.5-30.8 13.1-46.1 5.6-18.8 10.8-37.6 13.9-57q.3-1.9.6-3.8c1.3-8.5 2.4-17 3.2-25.6.4-3.2.4-3.2 1.4-6.2z" fill="#f3990a"/><path d="M524 144c4.8 4 6 10 7 16 .6 7.5.5 15.1.4 22.6q0 1.6 0 3.2c0 15.8-.8 30.8-4.4 46.2q-.5 2.2-.9 4.5c-3.5 15.8-9.8 37.3-22.1 48.5q-2.5.6-5 1-.6-.9-1.1-1.8c-10.2-15.6-10.2-15.6-21.9-30.2l-2.6-3c-6.6-7.4-13.6-14.8-21.7-20.7-2-1.4-2-1.4-4.7-4.3-1.4-13.4 14.4-29.6 22.4-39.6A322.39 322.39 0 0 1 485 169q.8-.9 1.6-1.7C512 140.7 512 140.7 524 144z" fill="#fcc159"/><path d="M931 614c3.8 6.7 5.2 14.6 6.7 22.1q.3 1.5.6 3.1c7.6 37.2 1.8 75.8-19.2 107.7-4.2 6.2-8.9 11.7-14.1 17.1q-1.1 1.2-2.3 2.5c-8.3 8.9-19.2 16.9-30.7 21.5q-1.5 0-3 0c1.5-5.2 3.4-9.9 5.8-14.6 3.6-7.3 6.2-14.4 8.2-22.3 1.9-7.3 4.1-12.6 9-18.5 14.6-18.8 17.4-45.9 14.5-69-2.2-14.7-6.3-29.9-11.8-43.7-.7-1.9-.7-1.9-.7-4.9 28.1-7.4 28.1-7.4 37-1z" fill="#869e93"/><path d="M921 465c9.8-.7 17.2-.7 25 6 4.4 4.2 7.5 8.3 8.3 14.5.2 11.3-3.8 19.3-11.3 27.5l-7.6 7.5c-8 7.9-12.5 14.4-12.8 25.8 0 1.8 0 1.8-.1 3.8.7 12.5 7.1 25.4 11.5 37 5.6 14.8 10.7 29.4 14 44.9q.2 1.1.5 2.3c8.9 42 1.7 83.3-21.1 119.5-8.3 12.7-18.5 23.9-30.8 32.8q-.8.7-1.7 1.3c-3.3 2.3-5.9 3.7-9.9 4.1q-.5 1.5-1 3c-2.8 1.5-2.8 1.5-6.4 2.9q-.9.4-1.9.8c-3.8 1.6-7.6 2.9-11.4 4.1-4.3 1.5-6.8 3.3-10 6.5-7.4 7.2-18.8 13.7-29.3 13.7q-2.8.5-5.6 1.1-1.7.3-3.3.6-1.7.4-3.5.7-3.3.7-6.7 1.4l-3 .6c-4.4.9-8.7 1.7-13.2 1.7q-1.1 0-2.3 0-1.1 0-2.3 0-1.1 0-2.3-.1-2.9 0-5.8 0 0-3 0-6-1.5-.5-3-1l13-1-2-3c-2.3-7.7-1.3-14.8 2-22 1.4-1.7 1.4-1.7 3-3 4.4.4 4.4.4 6 2 .2 6.5.2 6.5-1 9q-.1 2.7-.1 5.4 0 1.5 0 3c0 2.7 0 2.7 1.1 5.6 18.1-.1 38.7-5.8 52.1-18.5 3.3-3.6 5.8-7.1 7.9-11.5q1 0 2 0 .9-1 1.8-2.1c2.2-1.9 2.2-1.9 5.3-1.9 2.9 1 2.9 1 4.3 3.1q.3.9.6 1.9c2.9-.7 2.9-.7 4.3-2.3 2.3-2.3 5-3.8 7.8-5.4 16.5-10 29.1-22.8 38.9-39.3q.5-.9 1.1-1.9c19.9-34.1 22.5-74 12.8-112-5.2-19.3-12.1-38.2-19-56.9-4.9-13.1-8.2-27.7-2.2-41 3.4-5.8 7.2-10.2 12-14.8 11.8-11.1 11.8-11.1 17.1-25.8-.5-4.5-1.6-7.3-4.8-10.6-7.1-5.1-15.6-4.8-24-4-2.6.6-4.9 1.4-7.3 2.4-1.7.6-1.7.6-4.7-.4 8.5-3.5 15.7-5.8 25-5q1 0 2 0c-1-.4-1-.4-1.9-.8-2.1-1.2-2.1-1.2-3.1-4.2q-1.5-1-3-2z" fill="#012e4b"/><path d="M470.1 765.5c6.1 4.8 10.2 12 11.9 19.5.7 8.2 1.2 16.7-3 24-3.6 3.9-7.7 7.8-13 9q-2-.4-4-1 .1-2 .1-4c.3-9.7.5-18.1-4.1-27q-3 0-6 0 .1.9.2 1.8c.7 6.4 1 12.7 1 19.1q0 1.4 0 2.9 0 1.3 0 2.7 0 1.2 0 2.4c-.2 2.1-.2 2.1-2.2 5.1-2.8 1.1-5.5 1.1-8.5 1.1q-1.3 0-2.6 0h-2.7c-1.3 0-1.3 0-2.6-.1q-3.3 0-6.6 0c0-1.4 0-1.4-.1-2.8q-.1-5.1-.2-10.3-.1-2.2-.1-4.4-.1-3.2-.2-6.4 0-1.9-.1-3.9c-.1-3.4-.1-3.4-2.3-6.2-3.1-.3-3.1-.3-6 0q0 1.2 0 2.4.1 5.4.1 10.7.1 1.9.1 3.8 0 1.8 0 3.6 0 1.6 0 3.3c-.2 3.4-1 6.1-2.2 9.2-9-1.1-15.8-3.2-21.9-10.1-4.2-5.8-3.5-12.2-3.6-19.1q-.1-1.8-.2-3.6c-.1-5.9 0-10.2 3.8-14.8 18.4-17.6 53.7-20 75-6.9z" fill="#fbe2b7"/><path d="M285 770.5q1 .7 2 1.5 1.1.7 2.2 1.5c2.9 4.1 2.3 8.3 2.2 13.2q0 1.4 0 2.9c-.1 8.4-.5 16.6-6.5 22.9-6.1 4.8-13.3 6-20.9 6.5-.9-3.8-1.1-7.3-1.1-11.2q0-1.7 0-3.5v-3.6q0-1.8.1-3.7 0-4.5 0-9-3 0-6 0c-1.6 4.3-2.2 7.7-2.2 12.3v3.5q0 1.7.1 3.6 0 1.8 0 3.7 0 4.4.1 8.9-4.4.1-8.8.2c-1.2 0-1.2 0-2.5.1-3.5 0-6 0-9.2-1.5-3.1-3.8-2.7-8.5-2.7-13.2q0-1.7 0-3.3c.2-3.4 1.1-6.1 2.2-9.3.2-3.3.2-3.3 0-6q-3 0-6 0-1 2.1-1.9 4.3-.6 1.1-1.1 2.3c-3.4 8.2-2.1 16.9-1 25.4-6.3-1.1-12.2-2.2-16.2-7.7-4.6-7.7-5.1-16.3-3.2-25 3.4-9.9 10.9-16.9 19.7-22.1 18.6-8.1 43.9-4.4 60.7 6.3z" fill="#fbe1b7"/><path d="M586 648c2 3 2.5 4.6 3.2 8q.4 1.6.7 3.1.4 1.7.7 3.4.4 1.8.8 3.6 1.2 5.7 2.3 11.4.5 1.9.9 3.9c12.3 59.3 12.3 59.3 12.4 80.6q-1.1-.2-2.3-.5c-4.9-.9-9.3-.9-14.1.4-3.6.1-3.6.1-6.4-2.3q-1.4-1.7-2.6-3.5-.7-1-1.5-1.9C572.9 744 565 730.8 565 718q1.1-.1 2.2-.1c5.7-.4 9.9-.9 14.8-3.9.4-4.4.4-4.4-1.6-8.2-5.5-4.5-10.9-8-17.4-10.8-.5-14.7 4.1-28 14-39 6.1-6.6 6.1-6.6 9-8z" fill="#879e93"/><path d="M550 763c5 4.7 9.1 9.4 11 16-.2 2.9-1 5-2 7.7-1.3 4.4-1.7 8.7-2 13.3-6.6 3-6.6 3-10 3q0-1.9-.1-3.9-.1-2.5-.1-5.1-.1-1.3-.1-2.5c-.2-5.8-1.2-10.8-4.7-15.5-2.6-1.2-2.6-1.2-5-1l-1 1c.1 2 .1 2 .4 4.4q.1 1.2.2 2.4c.4 2.4.4 2.4 1.4 5.2q.2 2.7.2 5.4 0 1.4 0 2.8c-.2 3-.9 5.1-2.2 7.8-3 1.5-5.8 1.1-9.1 1.1q-1.9-.1-3.9-.1h-3q0-.9 0-1.9-.2-4.4-.3-8.7c0-1.5 0-1.5-.1-3.1-.2-5.5-.6-9.6-3.6-14.3q-2.5.5-5 1v2.2q0 4.8.1 9.7 0 1.7 0 3.4v3.3 3c-.1 2.4-.1 2.4-1.1 4.4q-2.8.1-5.6.1c-1.6.1-1.6.1-3.2.1-3.4-.2-6-1-9.2-2.2q0-1.3 0-2.7c-.4-8.4-1.7-15.7-4.4-23.7-1.8-5.1-1.8-5.1-.9-7.9 6.3-8.2 16.9-11.8 26.8-13.4 13-1.5 26 .4 36.5 8.7zm-348.8-.6c1.8 1.6 1.8 1.6 2.7 3.5.1 3-1 4.4-2.6 6.9-6.4 10.1-6.9 18.5-7.3 30.2-4.8 1.3-8.9 2.3-14 2q-.1-3.3-.1-6.6-.1-1.9-.1-3.8c.2-3.6 1-6.2 2.2-9.6q.1-3.5 0-7-2.5-.5-5-1c-5.1 5.9-5.3 13-5.6 20.4q-.1 1.3-.1 2.5-.2 3.1-.3 6.1h-16c-3.2-6.4-4.3-10.5-2.3-17.4q.8-2.2 1.6-4.5c.9-2.8.9-5.2.7-8.1q-2.5-.5-5-1c-5 7-6.3 12.5-6.1 20.9q0 1.1 0 2.4 0 2.8.1 5.7c-6.9-1.2-12.1-2.7-16.9-8.2-2-5.3-.9-9.6 1-14.8 6.2-13.4 15.7-19.8 29.2-24.9 14.4-3.9 31.3-1.3 43.9 6.3z" fill="#f9e1b8"/><path d="M850 268c2.2 2.2 1.4 6.4 1.4 9.4-.4 22.7-7 46.6-15.4 67.6q-2 0-4 0c-2-2.3-2-2.3-4.2-5.4-8.5-11.9-19.4-21.6-32.4-28.3-1.4-1.3-1.4-1.3-2.4-3.6 0-2.7 0-2.7 1.8-5.2q1.4-1.3 2.8-2.6.7-.7 1.5-1.5c12-11.2 33.5-31.3 50.9-30.4z" fill="#376467"/><path d="M617 762q.5 0 1 0c1.4 12 1.4 12-1.8 16.6q-2.3 2.2-4.8 4.2c-5.6 5.1-9.8 12.9-10.7 20.4-.2 3.9-.2 6 2 9.2 2.1 1.5 4.1 2.5 6.3 3.6q-.1-1.5-.1-3c-.5-13.8-.5-13.8 4.1-20 2.6-1.1 2.6-1.1 5-1l2 2c0 1.8 0 1.8-.4 4-1 7.5-1.5 14.8 1.4 22l3 1-1 2q-1 0-2 0l-.4 1.9q-.3 1.1-.6 2.1c-5.3 2.6-11.1.6-16.5-1-2.5-1-2.5-1-5.2-3.1-4.5-2.6-8.2-2.5-13.3-2.5-13.6-.2-13.6-.2-18.7-4.8-2.3-2.6-2.3-2.6-3.6-4.5-2.6-1.7-4.9-1-7.8-.5q-2.1.4-4.2 1c-2.1.5-3.6.1-5.7-.6-.6-1.8-.6-1.8-1-4q1-1.5 2-3 .5 0 1 0 1.5-1 3-2 3-1.1 6-2l1-7q1 1 2 2c2-.3 2-.3 4-1q1.5 0 3 0 .3-1.3.7-2.7c1.5-3.9 3.2-5.5 6.3-8.3q1-1 2-1.9c8.8-8.4 16.1-10.6 28.2-10.3 2.8.2 2.8.2 3.8 1.2q1-1 2-2c3.6-.1 3.6-.1 7 0l1-8z" fill="#032a47"/><path d="M936.3 476.8c3.1 2.2 5 4.8 6.7 8.2 1 5.8.4 10.1-2.9 15-6.2 7.9-13.1 15.2-20.3 22.2-1.9 1.7-1.9 1.7-2.8 3.8-6.2-1.5-12.2-3.4-18.2-5.5-7.6-2.6-14.8-4.7-22.8-5.5 1.6-12.9 9.7-23.9 19.4-32 11.6-8.7 27.3-13.4 40.9-6.2z" fill="#869e93"/><path d="M594 260l7.1 4.3q1 .7 2 1.3c6.9 4.9 12.9 10.5 18.9 16.4q1.1 1 2.2 2c3.9 3.9 8.3 8.1 10.8 13 0 2 0 2-1 4-2.6 1.7-2.6 1.7-6.1 3.5-5.8 3.1-11.1 6.7-16.4 10.7q-1 .7-2 1.5c-7.7 5.7-7.7 5.7-14.4 12.6q-1 1.3-2.1 2.7-2.5-.5-5-1c-2.4-8.6-3.8-17-4.7-25.8q-.2-1.9-.4-3.8c-.7-8.1-1.2-16.2-1.2-24.4q0-1.4 0-2.9c0-5.3.5-9.3 3.5-14 3-1.9 5.4-.8 8.8-.1z" fill="#376468"/><path d="M708.7 404.1c3 2.5 3.2 3.2 3.6 7.1-.4 4.5-1.4 6.4-4.3 9.8-3.7 2.8-7.5 3.9-12 5 .5 4.9 1.6 7.5 5 11 5.7 4.1 11.2 4 18 3 4.9-2 8.8-5 12.8-8.4 2.2-1.6 2.2-1.6 4.9-1.5 2.3.9 2.3.9 4.3 2.9.1 5.3-2.4 8.3-5.8 12-8.1 7.3-15.3 9.3-25.9 9.2-5.9-.4-10.1-2-14.6-6-1.3-1.1-1.3-1.1-2.7-2.2-2.9.3-5 1.5-7.4 3.1-7.1 3.6-15.5 2.7-22.9.8-6.6-2.3-13.3-6.8-16.7-12.9.3-6.3.3-6.3 2-8 3.1-.4 4.6-.3 7.3 1.5q1.1.9 2.2 1.9c4.1 3.5 7.4 5.4 12.8 5.9 5.7-.5 10-1.7 14.1-5.7 1.6-2.6 2.1-4.6 2.6-7.6q-.9-.4-1.8-.9c-5.3-2.7-9.1-5-12.2-10.1-.8-3.1-.6-4.6 0-8 9.2-10 25.7-9 36.7-1.9z" fill="#022c49"/><path d="M377.5 440.3q1.8 1.3 3.5 2.7c-2.7 7.6-7.9 13.3-15.1 16.9-10 4.5-19 5.7-29.5 2.1-8.6-3.6-16.2-10.2-21.4-18 .1-2 .1-2 1-4 3.4-2.2 7.2-3.5 11-5q1.1-.5 2.3-1c15.3-5.7 34.7-2.5 48.2 6.3z" fill="#da766e"/><path d="M911 547q.2 1.5.5 3c1.5 8.6 3.5 16.7 6.5 25 1 3 1 3 1 6-1.6 0-1.6 0-3.3.1-9.3.3-17.9 1.3-26.9 3.8-2.2.6-2.2.6-5.8 1.1-4.3-3.1-4.8-8.4-6.1-13.3q-.4-1.4-.8-2.9c-2.1-8-3.1-15.6-3.1-23.8 11.5-6.6 26.3-3 38 1z" fill="#869e93"/><path d="M808 536c5.4 4.3 9.4 8.8 13.4 14.4q.8 1.1 1.7 2.2 1.9 2.7 3.9 5.4c-8 11.2-25.9 17.5-38.9 20.5-8.6 1.4-18.2 1.8-26.1-2.5-1.7-1.4-1.7-1.4-3-3 0-2.9 0-2.9 1-6 4.2-4.2 9.1-5.7 14.5-7.7 13.6-5.2 23.6-12.6 33.5-23.3z" fill="#366367"/><path d="M691 289q6.5 0 13.1-.1 2.2 0 4.4 0c8.5 0 17 .1 25.5 1.1q-2 .5-4 1-.1.9-.1 1.8c-.5 6.5-1.9 12.2-4 18.3q-.4 1.4-.9 2.8c-2.1 5.8-4.4 11.5-7.1 17.1q-.5 1-1 1.9c-2.1 4.1-4.4 7.1-7.9 10.1-2.6.2-2.6.2-5-1-9.2-9.7-8.2-28.1-8.1-40.6q0-1.6.1-3.3 0-4.1 0-8.1-2.5 0-5 0 0-.5 0-1z" fill="#386568"/><path d="M919 580c3.1 4.6 4.6 9.8 6.4 15q1.1 3 2.1 5.9.7 1.9 1.4 3.8.6 1.7 1.2 3.4c.9 2.9.9 2.9.9 5.9q-1.7-.5-3.4-1c-11-2.7-23.9-.6-34.6 3q-2.4-5.6-4.8-11.3-.8-1.9-1.6-3.9-1.1-2.7-2.3-5.5-.7-1.7-1.4-3.4c-.9-2.9-1-4.1.1-6.9 9.3-2.4 18.4-4.3 28-4.9l2.3-.2c2.2-.1 2.2-.1 5.7.1z" fill="#3a6669"/><path d="M431 300q.9.6 1.9 1.2c5.7 4.2 8.9 10.2 11.1 16.8a60.15 60.15 0 0 1 0 12c-3.3.7-3.3.7-7 1-2.8-2.1-3.8-4.6-5.2-7.8-2.8-6-6.9-9.3-12.8-12.2-4.8-.6-9.5-.8-13.7 1.7-4.1 3.4-6.4 8.1-8.8 12.7-1.5 2.6-1.5 2.6-3.5 4.6-2.5-.2-2.5-.2-5-1-2.5-3.8-2.8-6.6-2-11 3.5-9.1 9.7-16.9 18.8-21 8.9-2.7 18.3-1.9 26.2 3z" fill="#042a50"/><path d="M875 514c14.2 1.3 28 6.2 41 12-2 6-2 6-3.1 8.8-1.1 4-1.5 8-1.9 12.2q-2.4-.5-4.8-.9l-2.6-.6c-2.6-.5-2.6-.5-4.5-1.1-2.9-.6-5.7-.6-8.7-.6q-1.7 0-3.5 0c-4.8.3-9.3 1.2-13.9 2.2q-.1-5.5-.1-10.9-.1-1.6-.1-3.1c0-6.4.6-11.9 2.2-18z" fill="#386568"/><path d="M292.7 296.8c8.4 4.3 14.1 11.5 17.3 20.2.7 4 1.1 7.4-1.2 10.8-1.8 1.2-1.8 1.2-4.3 1.2-3.4-1.4-3.9-3-5.4-6.3-3-5.8-5.7-9.6-12.1-11.7-5.7-.6-10.2-.3-15 3-3.7 3.6-6.8 7.3-9.1 11.9-1.9 3.1-1.9 3.1-5 4.2-2.9-.1-2.9-.1-5.9-2.1-1.2-5.7-.2-11.1 2.7-16.1 8.5-12.6 22.8-20.7 38-15.1z" fill="#062b4f"/><path d="M769 656c1 1 1 1 1.2 4.9-.1 5.3-1.2 9.9-2.6 15-3.3 12.3-5.9 24.7-8.5 37.1q-.3 1.5-.6 3-1.8 8.5-3.5 17-.5 0-1 0c.7-9.1 2.3-18 4-27q-1.5 0-3 0 0 1.5 0 3l-3 1-1-1c-.7 2.6-1.3 5.3-2 8q-.5 0-1 0v-7q-1.8-.3-3.7-.6-2.5-.3-4.9-.7l-2.5-.4c-10.2-1.6-10.2-1.6-13.9-5.3-.4-2.3-.4-2.3 0-5 3.6-4.5 8.3-4.9 13.6-5.7 5.5-.5 10.9-.5 16.4-.3q.2-1.9.4-3.8c.6-5.6 1.7-11 3-16.5q.3-1.4.6-2.9c2-9 2-9 5-12.8 2.7-1.3 4.2-.7 7 0z" fill="#032946"/><path d="M775 671q.5 1 1 2-1.2 3-2.7 5.8c-12.1 25.6-13.6 54.5-4.5 81.4q.3 1 .7 2c1.6 4.5 1.6 4.5.5 7.8-2 1.3-2 1.3-4.6 2.7-7.4 4.3-13 9.9-17.4 17.3-1.6-4.8-.5-9.5.1-14.4q.2-1.8.4-3.7c2.8-23.9 7.3-47.5 12.2-71.1q.3-1.4.6-2.8.8-4 1.6-8 .3-1.1.5-2.3c1.2-5.4 2.8-10.5 4.6-15.7.9 3.1 1 4.9 0 8q1.5 0 3 0 .4-1.4.9-2.8c1.1-3.2 1.1-3.2 3.1-6.2z" fill="#8ba295"/><path d="M777 374c5.3 3.9 10.1 8 13 14 .4 2.4.4 2.4.3 4.7q0 1.1 0 2.3c-.3 2-.3 2-2.3 4-2.8.7-2.8.7-6 0-1.8-2.1-3.1-4.4-4.6-6.7-3-4.9-6.9-7.1-12.4-8.3-6.9-1-11.4 0-16.9 4.1-3.3 3-5.7 6.3-8.1 9.9q-3-.5-6-1c-1.2-3.9-1.1-6.3.6-9.9 4.8-8.7 10.8-13.9 20.5-16.7 7.7-1.6 14.9.2 21.9 3.6z" fill="#022c48"/><path d="M650.8 370.6c5.3 5.7 8.7 11.7 9.4 19.5-.2 1.9-.2 1.9-2.2 4.9-2.4.5-2.4.5-5 0-2-2.2-2-2.2-3.8-5.2-3.4-5-6.3-8.8-12.2-10.8-6.1-1-11.7-.5-17.2 2.5-2.9 2.4-5 5.5-7.1 8.7-1.7 1.8-1.7 1.8-4.3 2.2-2.4-.4-2.4-.4-4.4-2.4-.8-5 .7-8 3.5-12 11.3-14.9 27.3-16.8 43.3-7.4z" fill="#022a47"/><path d="M842 583q1 0 2 0 3.1 5.4 6.1 10.8.9 1.5 1.8 3 .8 1.5 1.7 3 .7 1.3 1.5 2.7c.9 2.5.9 2.5.2 4.8-4.4 6-15.8 6.9-22.5 8.2-13.2 1.9-13.2 1.9-19.1-1.2-1.7-2.3-1.7-2.3-2.3-4.8.9-3.5 2.7-4.4 5.6-6.5q3.4-1.9 6.8-3.8c6.8-3.7 12.3-8 16.8-14.4q.7-.9 1.4-1.8z" fill="#3a6669"/><path d="M606 773c-1.5 3.4-3.5 6.1-5.8 9-6.3 8.6-9.9 17.3-10.2 28-3.4.2-3.4.2-7 0-2.1-3.1-2.3-3.9-2.3-7.4q0-1.2 0-2.3c.3-2.5 1.1-4.1 2.3-6.3.2-2.7.2-2.7 0-5q-2.5-.5-5-1c-4.8 5.6-5.2 11.8-6 19-3.9-.9-3.9-.9-5-2q-.2-2.8-.3-5.7 0-1.5 0-3.1c.8-8.1 6.7-13.9 12.3-19.2 8-5.6 17.8-8.7 27-4z" fill="#8ca396"/><path d="M562 659q4 3 8 6l-4 11.8c-1.1 3.7-1.7 7.3-2.1 11.1q-.2 1-.3 2.1-.3 2.5-.6 5 1.1.1 2.2.3c6.6 1.6 13.7 7.3 17.8 12.7.3 3.3.3 3.3 0 6-6 4.3-10.7 4.5-18 4q-1-3-2-6-.5 0-1 0c-1.2-7.7-1.1-15.3-1-23l-5-2c-.9 2.8-1.1 4.6-1.1 7.5q0 1.4 0 2.7 0 1.4 0 2.9 0 1.3 0 2.7c0 6.1.4 12.1 1.1 18.2-4.9-4.9-4.1-15.4-4.3-22 .3-13.8 2.7-28.3 10.3-40z" fill="#042749"/><path d="M746 293c6.6 1.2 12.7 2.8 19 5-1.9 6.3-4.3 12-7.4 17.8q-.6 1-1.2 2.2c-2.1 4-4.3 7.7-7.4 11-3.1.9-3.1.9-6 1-2.5-2.5-2.3-4-2.3-7.5q0-1.1 0-2.2 0-1.1 0-2.3c.1-8.2.7-18.1 5.3-25zm-64-2c-.8 9.2-1.9 18.3-3.9 27.4q-.3 1-.5 2.1c-.9 3.8-2 6.6-4.6 9.5q-2.5-.5-5-1c-3.8-11.2-6.5-22.2-6-34 3.5-1.5 6.8-2.5 10.6-3.1q1.3-.3 2.8-.5c2.6-.4 2.6-.4 6.6-.4z" fill="#366467"/><path d="M182 527q1.5.5 3 1-.2 1.6-.4 3.3c-1.4 11.2-1.9 22.2-1.9 33.5q.1 1.3.1 2.5c.1 28.1 4.3 55.4 10.7 82.6.5 3.1.6 6 .5 9.1-2-3-2.5-4.7-3.2-8.2q-.3-1.6-.6-3.2-.3-1.6-.6-3.3-.4-1.7-.7-3.5-.7-3.3-1.3-6.7-1.2-6.1-2.4-12.2L184 616q-3 0-6 0v11c-1.9-3.7-2.5-6.1-3.1-10.1q-.2-1.7-.5-3.6c-.3-1.8-.3-1.8-.5-3.7q-.3-1.8-.6-3.7c-1.6-11.4-1.6-11.4-1.3-15.9 2.4-1.9 3.9-3 7-3 1.2-2.4 1.1-3.8 1-6.5q0-1.4 0-2.9 0-1.6-.1-3.2c-.1-15.8 1-31.6 2.1-47.4z" fill="#062d4e"/><path d="M753 692l-4 20q-.5-1-1-2a213.54 213.54 0 0 0-11.1-1.8c-5-.7-10.2-1.5-13.9-5.2-.4-2.3-.4-2.3 0-5 3.6-4.5 8.3-4.9 13.6-5.7 5.5-.5 10.9-.4 16.4-.3z" fill="#356367"/><path d="M516 579q.5 0 1 0l1 9q1-1 2-2c2.5 1.6 4.2 2.7 6 5 .6 3.1.2 6-.3 9.2l-.3 2.7c-1.4 10-3.2 20-5.2 29.9q-.3 1.4-.5 2.8c-.7 2.4-.7 2.4-2.7 5.4q.2-1.9.4-3.8.9-7.9 1.7-15.8.1-1.3.2-2.7.4-3.4.7-6.7-1.2.7-2.4 1.5C515 615 515 615 513 615q-.2 1.9-.4 3.9c-.5 5-1.5 9.8-2.7 14.7q-.2 1.2-.5 2.4-.7 3-1.4 6-.5 0-1 0c.6-7.8 1.9-15.4 3.4-23.1 2.4-13.2 4.2-26.5 5.6-39.9z" fill="#082753"/><path d="M402 663c3 1 3 1 4 3 .4 4.8-.5 7.8-3 12l-2 1c-.6 2.2-.6 2.2-.9 4.9q-.1 1.5-.3 3-.2 1.6-.4 3.2-.2 1.5-.4 3.1-.5 3.9-1 7.8l-3 1q1 1.5 2 3c.1 3.2.1 3.2 0 6l-6 1-1 9q-.5 0-1 0c-.2-6.7.2-12.9 1.4-19.5.5-2.7.8-5.5 1.1-8.2q.1-1.3.2-2.6.2-2.5.4-4.9c.7-7.3 2.9-12.7 7.1-18.7l1.6-2.4q.6-.8 1.2-1.7z" fill="#02304a"/><path d="M563 695c7.6 1 15.3 6.9 20 13 .3 3.3.3 3.3 0 6-5.9 4.2-10.8 4.8-18 4-2.6-2.6-2-8.5-2.1-12q0-1.9 0-3.9 0-1.1.1-2.1 0-2.5 0-5z" fill="#376468"/><path d="M735.9 735.8q1.2 0 2.4.1 2.8 0 5.7.1-.4 3.5-.9 6.9-.2 2-.5 3.9-.3 1.6-.6 3.2c-5.4 2.7-13.5-.5-18.9-2.2-2.1-.8-2.1-.8-4.1-2.8-.1-2.9-.1-2.9 1-6 5.4-3 9.8-3.4 15.9-3.2z" fill="#346266"/></svg>