<svg xmlns="http://www.w3.org/2000/svg" width="1024" height="1024" xmlns:v="https://vecta.io/nano"><path d="M485 96c4.1 1.4 4.5 3.4 6.5 7.2 9.1 16.6 22.5 31.5 37.5 42.8q1.2.9 2.4 1.8c6.6 4.9 13.4 9.3 20.5 13.5q1.6.9 3.2 1.9 9.2 5.4 18.4 10.6c26.7 15 44.6 31 53.5 61.2q.5 1.7 1 3.4 1 3.3 2 6.6c2.4 0 2.4 0 5-1 1.6-2.3 2.9-4.5 4.3-6.9 4.8-8.7 10.7-18.3 20.6-21.8 8.5-1.3 16.5-1.2 24 3.2 6.8 4.9 10.4 11.2 12.1 19.5 2 18-2.2 35.6-13.3 50-7.1 8.2-15.7 16.1-26.7 18-12.9.9-12.9.9-19-2-.1 1.2-.1 1.2-.3 2.5-.8 4.1-2.4 7.5-4.3 11.1q-.6 1.1-1.1 2.2c-11.7 22.6-11.7 22.6-20.3 31.2q-.1 4.3-.1 8.6 0 1.2 0 2.4c0 4.8.4 9.3 1.1 14 1.2 17.5-.8 36.1-12.5 50.1-2.7 3.1-5.6 6-8.5 8.9q-1.1 1.1-2.3 2.3c-15.9 15-36.8 20.6-58.2 20-15.9-.8-30.6-7.7-41.5-19.3-10.1-12-14.5-28.4-14-44q-1.7-.5-3.5-1c-11.8-4-22.3-10-31.9-17.9-2.6-2.2-2.6-2.2-5.6-4.1 7.1 21.4 14.3 41.2 27 60 14 20.9 14 20.9 12 35-3.4 10.1-9.5 17.8-18.9 22.9-8.6 3.8-18.9 6.2-28.1 3.1a49.48 49.48 0 0 1 .1 3.9c.5 24-5.7 47.1-22.8 64.8q-1.1 1.1-2.3 2.3c-1.1 1.2-1.1 1.2-2.3 2.3-14.6 14-35 22.2-54.7 25.7q-1.5.3-3 .5c-9.5 1.5-18.7 1.9-28.2 1.9q-1.1 0-2.3 0c-11.9-.1-23.1-.8-34.5-4.4l-2.2-.6c-28.7-8.8-58.6-26.8-73.9-53.4-5.3-9.9-8.9-20.2-11.9-31q-.6.8-1.2 1.5c-7.7 9.3-17.2 15.5-29.3 16.9-14.1.6-26-4-36.5-13.4-6.2-6.5-9-13.6-9.5-22.6.6-15.3 8.4-28.7 15-42.2q9.6-19.5 17.5-39.8c11.4-29.5 28-57.1 57.4-71.6 7.4-2.9 16.5-3.1 24-.6 3.8 1.9 6.5 3.9 9.6 6.8 3.7-1.4 7.3-3.1 10.8-4.8 33.1-16.1 69.2-15.9 103.6-4 4.1 1.5 7.8 3.5 11.6 5.8q.5-1.5 1-3c7.4-5.9 16-6 25-5 7.8 1.8 14.4 5.7 21 10l-1.5-2.5c-25.8-43.1-21.9-91.8-12.5-139.5q.3-1.9.7-3.8c1.8-4.4 4.3-6 8.1-8.5q2.1-1.4 4.1-2.9 1-.7 2.1-1.4c5.2-3.6 10.1-7.5 15-11.4q.8-.6 1.6-1.2c24.8-20 44.3-42.8 59.4-70.8z" fill="#e58000"/><path d="M198 570l.2 2.1c1.6 11.3 7 19.7 15.8 26.9 17.4 12.6 36.2 20.3 57.2 24.8q1.5.3 3 .6c38.6 7.8 87.4 5.7 121.1-16.2 6.5-4.5 11.6-9.5 15.7-16.2q1 0 2 0c10.1 32.9 15.4 66.5 18.6 100.8q.1 1 .2 2c1.7 18.1 2.3 36.1 2.4 54.3q.1 5.2.1 10.3.1 14.7.2 29.4c.1 28.1.5 56.1 2.5 84.2l3.1 1.2q2.1.8 4.1 1.6 1 .4 2.1.8c8.6 3.4 14.5 8.8 18.6 17.2 2.9 7.2 2.4 14.6 2.1 22.2-3.2 1.8-5.5 2.3-9.1 2.3h-3.1q-1.7 0-3.5 0h-3.7q-5 0-10 0-5.5 0-10.9 0-10.6 0-21.3 0-8.6 0-17.3 0-24.6.1-49.2.1h-2.6-2.7q-21.5 0-43 0-22 .1-44.1.1-12.4 0-24.7 0-10.6 0-21.1 0-5.4 0-10.8 0c-23.8.1-43.9-1.2-61.9-18.5-13.8-14.4-21.1-32.7-25-52l-.6-2.6c-1.5-8-1.7-15.9-1.6-24q0-3.3 0-6.6c0-6.7.3-13.2 1.2-19.8q-.8-.3-1.6-.7c-3.1-1.7-5.6-4-8.1-6.4q-.8-.7-1.7-1.5C74 770.8 62.7 751.1 57 729q-.5-1.8-1-3.7c-7.1-33-1-68.1 16.9-96.6 7-10.7 16.6-21.8 28.1-27.7q1.2-.6 2.4-1.3c4.9-1.3 10.4-1.9 14.9.6 1.7 1.7 1.7 1.7 2 5.4-1.3 7.6-5.7 14.5-9.3 21.3-15.4 29.1-20.5 62.2-10.8 94.1 3.4 10.2 8.6 21.8 17.8 27.9q.4-1.3.8-2.5c5.8-16.4 15.9-32.4 27.2-45.5q1.1-1.2 2.2-2.5c13.6-15.4 13.6-15.4 17.8-17.5q-.6-1.7-1.2-3.4c-1.6-4.9-3-9.8-4.4-14.8-.4-1.1-.4-1.1-.7-2.3-5.4-19.7-4.2-40.4 5.5-58.5 6-9.8 20.2-32 32.8-32z" fill="#e07c00"/><path fill-rule="evenodd" d="M454.9 384.8q.7.3 1.3.7-3.7-2.1-7.3-4.4 2.9 1.9 6 3.6zm2.1 1.2q1.2.7 2.4 1.3-1.6-.9-3.2-1.7.4.2.8.4zm12.8 4.7c2.8 1.1 2.8 1.1 5.2 3.4 2.4 6.5 2.8 13.5 3.6 20.4 1.6 11.9 8.9 22.5 18.2 30 16.5 11.6 35.6 13.9 55.1 10.4 6.7-1.5 12.9-3.8 19.1-6.8q1.4-.6 2.8-1.3c8-3.9 14-9.5 20.2-15.7l2.1-2.1c11.6-12.2 15.3-29.6 15.9-45.9 51.2-1.3 101.3 23.9 137.8 58.6 10.3 10 18.9 20.7 27.2 32.4-.6 1.9-.6 1.9-2 4-4.4 1.2-7.1.9-11.4-.7-25-8.1-55-10.1-80.3-2.1-3.4.8-5.1 1.1-8.3-.2-1.9-1.9-1.9-1.9-3.7-4.4-4.2-5.5-8.6-10.6-13.3-15.6q-1.3-1.4-2.7-2.9c-8.6-9-20.9-21.9-33.5-24.6-2.3-.1-2.3-.1-5.8.5-3.6 3.6-4.9 7-6.1 11.8l-1 3.5c-2.8 13.1-3.2 26.2-3.1 39.5q0 4.2 0 8.5c0 9 .2 17.9 1.2 26.9 0 4.1-1.6 6.8-3.5 10.4-2.1 4.8-3.4 9.8-4.7 14.9q-.4 1.4-.8 2.9c-1.7 6.5-2.6 12.9-3 19.6q1.5-.1 3-.1c9.3.2 21 3.5 29 8.1 1.8 2 1.8 2 3 4-.2 3.4-.6 4.6-3 7-3.4-.2-5.5-1.3-8.5-2.9-4.8-2.4-9.8-3.6-15-4.9l-2.8-.6q-3.3-.8-6.7-1.6l.4 3.3q.3 2.2.6 4.4.1 1.1.3 2.2c.5 3.7.8 7.3.7 11.1q.9-.2 1.8-.4c6.1-1.3 12-2.2 18.2-2.6q1.4-.1 2.9-.2c7.2-.4 7.2-.4 9.9 1.3 1.4 1.4 1.4 1.4 3.2 3.9-1.9 3.9-1.9 3.9-3 5q-2.5.3-4.9.5-1.5.1-3.1.2-3.2.2-6.3.5c-5.2.4-9.9.8-14.7 2.8 10 27.9 28.4 48.2 55.1 61 34.1 15.8 71.5 17.1 107.9 10 1.2-.2 1.2-.2 2.4-.5 25.2-4.9 50.7-19.4 65.6-40.5 7.6-11.4 13.4-24.3 15-38l-3.6-.4c-2.8-.3-5.7-.6-8.5-1.1-8-1.3-15.8-1.7-23.9-1.8q-1.5 0-3 0c-5.4 0-9.8.6-15 2.3-4.5-.5-4.5-.5-6-2-.4-2.3-.4-2.3 0-5 5.8-5.8 11.9-5.2 19.7-5.2h2.1q3.1 0 6.2 0c8.5-.1 16.6.7 25 2.2q2.8.4 5.6.8c3 .4 4.1.9 6.3 3.1 18.8 28 29.4 63.2 35.1 96.1l.6 3.7c1.9 11.1 2.6 22.1 2.4 33.3q-.4-.8-.8-1.6c-13.2-25.3-37.5-39.2-62.2-51.4q-.2 1.1-.3 2.2c-2.6 10.9-13.1 18.7-22 24.3-36.4 22.3-86.2 25-127.1 15.2-19.1-4.8-36-13.1-49.6-27.7-3.7 9.1-5.3 18.4-7 28q-.2 1-.4 2.1c-4.4 26.4-1.8 54.2 1.1 80.6.3 3.5.3 6.9.3 10.3-54.1 16.1-134.5 25.3-187-1v-2.7q-.1-13.1-.3-26.2-.1-6.7-.1-13.4c-.3-28.5-1-57-4.4-85.3-.1-1.1-.1-1.1-.3-2.2-2.9-24.9-6.4-50.3-14.2-74.2-2.4-7.5-2.9-13.7-2.6-21.4.1-6.1-1-11.1-3.1-16.9-1.8-5.1-1.8-5.1-2-7.7 1.5-2.9 1.5-2.9 3.6-6.1q1.2-1.8 2.3-3.5.5-.9 1.1-1.7c8-13 10.9-28.1 11.6-43.1q0-1.4.1-2.8.2-3.4.3-6.8 1.3.1 2.7.1c12.4.3 24-1.5 33.5-10.1 6.4-6.8 9.9-13 10.3-22.4-.4-10.9-5.3-18.2-11.3-26.9s-10.9-17.6-15.1-26.7c2.9-1 2.9-1 5.8-2.3 6.9-3.1 13.6-5.6 21-7.3l2.1-.4q0-1 0-2c-5.3-2-10.6-4.3-15.6-6.8 3.3 1.5 6.5 2.5 10.4 3.4zm-36.1-17.5c-.3-1.1-.5-1.6-.7-2.1.2.5.4 1 .7 1.9l4.9 14.8q-2.6-7.1-4.9-14.6zm12.3 32.9q0 0 .1 0c-2.8-6-5.2-12.1-7.5-18.3 2.2 6.2 4.6 12.3 7.4 18.3zm-13-35c-.2-.5-.5-1-1-2 .5 1 .8 1.5 1 2zm15.9 10.1q-4.2-2.8-8.1-6c2.6 2.2 5.3 4.2 8.1 6z" fill="#00878f"/><path d="M952.3 579.3c3.4 2.1 5 3.6 6.3 7.5 2.1 10.9-5.2 20.4-10.7 29.1-8 13.3-8.4 26.8-4.8 41.6 2.6 9.7 6.9 18.5 11.3 27.4 21.4 44.2 31.1 88.8 15.5 136.6-12.2 35-36.7 64-70 80.7-6.5 3.1-13.2 5.6-19.9 8.1q-2.6.9-5.3 2c-9.1 3.4-17.5 5-27.3 5.1q-1.6 0-3.2.1-5.4.1-10.8.1-2.9.1-5.9.1l-123.8.5q-13.9 0-27.9 0-13.6 0-27.2 0-8.1 0-16.1 0-7.5.1-15 0-2.7 0-5.5.1-3.7 0-7.5-.1c-1 .1-1 .1-2.2.1-3.6-.1-5.2-.2-8.3-2.3-.4-2.8-.5-5.2-.5-8v-2.3c.3-8.2 2.7-14.3 8.7-20.1 4.8-3.7 10.6-5.7 16.4-7.3 2.6-1.1 2.6-1.1 3.3-3.8 1-8.5 1.4-16.8 1.4-25.3q0-1 0-2.1c0-14.5-1.3-28.8-2.9-43.3l-2.1-21.2q0-1.1-.1-2.1c-2.9-30.5-3.7-64.2 6.8-93.5l2-2 1.5 1.7c14.1 15 33.5 23.2 53.5 27.3q1.1.2 2.2.5c24.2 4.6 51.7 4.8 75.8-.5q1-.2 2.1-.4c21.8-4.6 46.6-13.7 59.8-32.7 1.7-2.9 2.9-5.8 4.1-8.9 4.7 1.4 8.9 3.3 13.1 5.6q1 .6 2 1.1c18.9 10.3 42 26.1 48.9 47.6 2.1 9.2 1.8 18.9-.4 28.1-.7 3.3-.9 4.9.5 8q1.8 2.4 3.8 4.8c15.3 20.2 19.4 48.2 20.1 72.8 18.1-17.7 24.2-43.7 24.4-68.3-.2-29.1-11.3-55.6-23.1-81.7-4.4-9.8-8.5-19.6-11.3-30q-.5-1.8-1-3.6c-3.6-14.6-5-33.7 2-47.4q.6-1.3 1.3-2.6c7.3-13.3 18.3-23.4 32.9-27.7 5-1.2 8.3-1.3 13.1.6z" fill="#e07c00"/><path d="M359 335q1.5 0 3 0 2 2 4 4 2.5 1.9 5.1 3.6c22.2 16 32.3 38.9 36.9 65 1.4 8.5 2 17.1 2.7 25.6 1.2 14.1 5.1 26.8 10 39.9q1.2 3.2 2.4 6.5.5 1.4 1 2.8c6 18 1.5 39.9-6.1 56.6-4.5 9.1-9.7 16.8-17 24q-1.1 1.1-2.3 2.3c-14.6 14-35 22.2-54.7 25.7q-1.5.3-3 .5c-9.5 1.5-18.7 1.9-28.2 1.9q-1.1 0-2.3 0c-11.9-.1-23.1-.8-34.5-4.4l-2.2-.6c-28.7-8.8-58.6-26.8-73.9-53.4-5.3-9.9-8.9-20.2-11.9-31q-.6.8-1.2 1.5c-7.7 9.3-17.2 15.5-29.3 16.9-14.1.6-26-4-36.5-13.4-6.2-6.5-9-13.6-9.5-22.6.6-15.3 8.4-28.7 15-42.2q9.6-19.5 17.5-39.8c11.4-29.5 28-57.1 57.4-71.6 7.4-2.9 16.5-3.1 24-.6 3.8 1.9 6.5 3.9 9.6 6.8 3.7-1.4 7.3-3.1 10.8-4.8 33.4-16.2 80.4-19.4 113.2.8z" fill="#e47f00"/><path d="M523.4 38.8q1.2 0 2.4 0 2.5 0 5 0 3.8-.1 7.5-.1c33-.2 65.4 11.5 91.7 31.3q.9.7 1.9 1.4c6 4.6 11.8 9.2 17.1 14.6 3.3-1.1 3.9-1.8 6-4.4 14.4-16.9 32.8-27.7 55-30.6 4.4-.3 8.8-.3 13.2-.3q1.8 0 3.6 0c25.5.3 47.7 9.4 66.3 27.1 24.9 25.8 29.5 58.9 32.6 93.2 1.9 20.2 4.2 43.3 17.9 59.3 1.4 1.7 1.4 1.7 1.4 3.7q.9.4 1.7.8c2.3 1.2 4.3 2.6 6.4 4.1 8.6 5.8 17.9 8 28.2 8.7q1.9.1 3.8.2 1.4.1 2.9.2c-.5 4.2-1.3 7-3.7 10.5q-.8 1.1-1.5 2.2c-12.1 16-30.3 26.4-50.1 29.7-2.6.3-5.1.5-7.7.6q-1.7.1-3.6.2c-22.1.7-42.6-6.6-59.4-21.2q-2.5-2.5-5-5-.8-.8-1.7-1.5c-22.8-20.8-29-56.7-33.9-85.4-2.2-12.1-6.2-22.7-15.4-31.1q-.8-.7-1.6-1.5c-5.8-4.8-12.2-6.6-19.4-8.5q.5 1.6 1 3.3.7 2.2 1.4 4.4.3 1 .6 2.1c3.8 12.5 4.4 24.9 4.4 37.8v2.4c0 12.1-.9 23.4-4.4 35q-1.1-.6-2.1-1.3c-8.7-4.9-16.3-6.3-26.1-4.3-9.1 3.3-14.3 11.4-18.9 19.4-5.3 9-5.3 9-8.6 10.1q-1.2 0-2.3.1c-2.1-4.6-3.7-9.2-5-14.1-3.9-14-9.7-24.5-20-34.9-1.1-1.1-1.1-1.1-2.2-2.3-10.2-9.7-22.9-16.2-35.1-23.1-32.2-18-62.5-39.2-79.7-73-.9-1.8-.9-1.8-3-2.6-.4 1-.4 1-.7 2-12 28.3-37.2 53.8-61.3 72q-1.5 1.2-3.1 2.4-1.6 1.3-3.3 2.6-.8.6-1.6 1.3c-2.8 2.1-5.6 4.1-8.6 5.9q-.9.6-1.8 1.1-2.4 1.5-4.9 2.9c-7.3 7.6-7 22.9-8.4 33.1q-.3 2.4-.7 4.8-.8 6-1.6 11.9-1.5 0-3 0c-15.4-29-18.3-60.3-8.8-91.8 5-15.6 12.4-30.4 22.8-43.2q.6-.8 1.3-1.6Q406 93.6 411 88q.9-1.1 1.9-2.1c27-28.9 71.2-46.9 110.5-47.1z" fill="#00324f"/><path d="M621.8 426.4c4.7 1.2 8.3 3.8 12.2 6.6q1.5 1.1 3.1 2.2c14 10.4 27.2 23 36.6 37.7 2.2 2.5 2.2 2.5 6.1 2q2.1-.4 4.2-.9 1.8-.4 3.6-.7 1.7-.4 3.4-.8c24.3-5.5 52-3.9 75.4 4.9 3.3.8 5.4.5 8.6-.4 2.2-1.7 2.2-1.7 4.2-4 4.9-5.2 10.2-9.6 15.8-14q1.6-1.3 3.3-2.6c31.8-25.6 31.8-25.6 45.3-24.9 2.4.5 2.4.5 5.5 2.5 13.3 20.6 4.4 61.1-.4 83.6-3 13.4-3 13.4-4.7 18.4-.4 6.2.6 11.2 2.4 17.1 2.4 7.8 3.7 15.1 3.7 23.4q0 1.9 0 3.8c-.1 3.7-.5 7.1-1.1 10.7q-.9-.2-1.7-.4c-11.8-2.4-23.1-4-35.1-3.9q-3.1 0-6.2-.1c-9.4 0-9.4 0-18 3.4-1.3 1.1-1.3 1.1-1.1 3.6.1 1.2.1 1.2.1 2.4 3.2 1 4.8 1.1 8 0 4.9-1.4 9.7-1.3 14.8-1.3h3c8.3.1 16.2 1.1 24.3 2.6a47.15 47.15 0 0 0 9.9.7c-.6 5.8-1.7 10.9-3.7 16.3q-.4 1.1-.8 2.3c-3.7 9.9-8.7 18.2-15.5 26.4q-.6.9-1.3 1.7c-18.3 23.7-51.5 33.6-79.8 37.4-37 4.4-79-1.4-109.6-24.1l-7.3-6c-.9-.7-.9-.7-1.8-1.3-13.7-10.6-23.7-28.4-28.2-44.7 7.2-2.5 14.4-2.7 22-3q1.5-.1 3-.2 1.4-.1 2.8-.2c2.4-.4 2.4-.4 3.5-2.6q.4-1 .7-2c-1.3-2.2-1.3-2.2-4-4-9.8-1.6-21.1.9-31 2-1.2-7.1-2.3-13.8-2-21 10.3 1.2 21.2 3.1 30 9 2.2-.3 2.2-.3 4-1 .9-2.3.9-2.3 1-5-7.2-9.1-23.1-10.3-34-12-.4-8 .6-14.8 2.7-22.5l.8-3.1c1.4-5.1 2.9-9.8 5.4-14.5 2-3.9 2.2-6.5 1.7-10.9-.7-8.8-.8-17.7-.8-26.5q0-4.3 0-8.5c-.1-38.6-.1-38.6 8.5-50.9 2.9-2.2 4.8-3 8.5-2.7z" fill="#e37f00"/><path d="M952.3 579.3c3.4 2.1 5 3.6 6.3 7.5 2.1 10.9-5.2 20.4-10.7 29.1-8 13.3-8.4 26.8-4.8 41.6 2.6 9.7 6.9 18.5 11.3 27.4 21.4 44.2 31.1 88.8 15.5 136.6-12.2 35-36.7 64-70 80.7-6.5 3.1-13.2 5.6-19.9 8.1q-2.6.9-5.3 2c-8.5 3.2-16.3 5-25.4 4.8q-1.3 0-2.5 0-4 0-8.1-.1-2.8-.1-5.6-.1-7.3-.1-14.7-.2-7.5-.1-15-.2-14.7-.3-29.4-.5l1-10-2 10h-8c-2.8-10.8-2.8-10.8-1.1-15.7 4.9-7.6 12.2-13.2 21.1-15.3 4.5-.4 8.9-.4 13.4-.3h3.5c6.9 0 13.4.6 20.1 2.3.7-2.3 1.3-4.6 2-7l-3.2-.6c-9.5-1.8-16.1-4-21.8-12.4-8-14-8.9-28.6-4.9-44.1 2.7-9.3 7.3-17.9 13.9-24.9 1.4.7 1.4.7 2.8 1.5 8 3.4 17 1.5 25.2-.5q0 1 0 2 2 1 4 2 1.1.6 2.3 1.1c6.8 2.2 13.3.9 19.7-2.1 9.9-6.2 16.5-14.5 21.9-24.7q.6-1.1 1.2-2.2c2.6-5 3.9-9.4 3.9-15.1 17.8 23.1 24.2 51.3 25 80 18.1-17.7 24.2-43.7 24.4-68.3-.2-29.1-11.3-55.6-23.1-81.7-4.4-9.8-8.5-19.6-11.3-30q-.5-1.8-1-3.6c-3.6-14.6-5-33.7 2-47.4q.6-1.3 1.3-2.6c7.3-13.3 18.3-23.4 32.9-27.7 5-1.2 8.3-1.3 13.1.6z" fill="#df7c00"/><path d="M434 806l2.1.6q2.9.8 5.9 1.6 2.7.7 5.3 1.5c52.4 14.5 110.5 12 163-.6 3.6-.9 7.1-1.6 10.7-2.1q.5 2.9.9 5.8.3 1.5.6 3.2c1.4 9.9 1.7 19.8 1.7 29.9q0 3.1 0 6.2c.1 8.3 0 16.8-2.2 24.9-2.5 2.1-2.5 2.1-6 3-8.2 2.9-15.1 5.9-19.4 13.9-1.7 4.4-2 8.7-2.2 13.4q-.1 1.1-.1 2.3-.2 2.7-.3 5.4-24 0-47.9.1-11.1 0-22.2 0-9.7 0-19.4 0-5.2 0-10.3 0-5.7 0-11.5 0h-3.4-3.1q-1.4 0-2.8 0c-2.3-.1-4.2-.5-6.4-1.1q0-1.2 0-2.4c-.5-9.9-2.3-19.9-9.1-27.6-3.8-3.4-8.2-5.1-12.9-6.9-3.1-1.2-6-2.6-9-4.1-1.5-22.4-2.3-44.6-2-67z" fill="#00314e"/><path d="M229 334c2.2 1.6 4 3.2 6 5-1.6 3.6-3.9 6.6-6.3 9.8-14.8 20.8-17.8 50.1-20.9 74.8q-.5 3.9-1 7.7-1.1 9.2-2.3 18.4c-2.9 23.6-6.9 48.2-26 64.4-9.7 7.4-20.5 9-32.5 7.9-11.8-2.7-23-8.7-29.9-18.9-5.4-9.7-5.4-19.5-2.5-30 3.2-10.1 8.3-19.4 12.9-28.9q9.6-19.5 17.5-39.8c11.4-29.5 28-57.1 57.4-71.6 8.8-3.4 19.2-3.1 27.6 1.2z" fill="#ae5000"/><path d="M807.8 585.8q3.1 0 6.2 0c8.5-.1 16.6.7 25 2.2q2.8.4 5.6.8c3 .4 4.1.9 6.3 3.1 18.8 28 29.4 63.2 35.1 96.1l.6 3.7c1.9 11.1 2.6 22.1 2.4 33.3q-.4-.8-.8-1.6C875 698.1 850.7 684.2 826 672q-.2 1.1-.3 2.2c-2.6 10.9-13.1 18.7-22 24.3-36.4 22.3-86.2 25-127.1 15.2-19.5-4.9-40.9-14.2-52.7-31.3-3.6-6.1-3.4-11.8-3.3-18.7q0-1.6 0-3.2c.1-8.6.1-8.6 2.4-12.5 3.6 1 5.8 2.6 8.5 5.1 27.6 24.8 69.9 30.7 105.5 28.9 8.8-.8 17.4-2.3 26-4q1.2-.2 2.4-.5c25.2-4.9 50.7-19.4 65.6-40.5 7.6-11.4 13.4-24.3 15-38q-1.8-.2-3.6-.4c-2.8-.3-5.7-.6-8.5-1.1-8-1.3-15.8-1.7-23.9-1.8q-1.5 0-3 0c-5.4 0-9.8.6-15 2.3-4.5-.5-4.5-.5-6-2-.4-2.3-.4-2.3 0-5 6.3-6.3 13.5-5.2 21.8-5.2zM203 541c3.8 1.3 4.6 2.8 7 5.9 19.8 24.7 49.7 37.8 80 44.1q1.1.3 2.3.5c19.5 3.4 42.6 1.1 61.7-3.5q1.1-.3 2.1-.5c19.4-5 36.2-16.2 49.9-30.5 6.7 8 7.4 18.5 7.4 28.6-1.1 8.6-7.2 14.8-13.6 20.3-13.5 9.9-28.6 15.3-44.8 19.1q-1.1.3-2.2.5c-12.5 2.9-25.2 2.8-37.9 2.8q-1.3 0-2.6 0c-16.2.1-32-1-47.7-4.9q-1.6-.4-3.2-.8c-22.7-5.8-47.4-17-60.3-37.5-2.8-5.4-3.3-9.1-3.1-15.1-19.9 13-34.5 29.8-39.6 53.6-2.5 14.7-1.6 35.1 5.7 48.5.9 1.9.9 1.9-.1 4.9q-1-2-2-4-1 0-2 0c-10.6-12.3-15.8-27.9-15.4-44 2.1-21.3 14.2-39.8 27.4-56q.7-.9 1.5-1.8c20.1-24.8 20.1-24.8 29.5-30.2z" fill="#01304f"/><path d="M346.4 446.7c2.9 2.4 4.3 4.5 4.9 8.3.5 6.5-1.6 11.6-5.3 17-4.3 4.7-9.3 8.2-15 11q-1 0-2 0c.3 6.3.6 11.1 5 16 8.4 6.3 16.8 7 27 6 6.4-1.7 12.3-5.1 15.7-10.8q.7-1.6 1.4-3.1c1.8-3.9 3.7-7.5 5.9-11.1 3.4.3 3.4.3 7 1 2.5 3.7 2.2 5.2 1.6 9.5-1.7 7.3-5.9 14.6-11.6 19.5q-2.8 1.5-5.6 3c-6.3 3.8-7.5 8.6-9.3 15.2-3.7 12.9-12.8 24.6-24.1 31.8-9.3 5-18.3 6.4-28.6 3.8-18.8-6.3-30.5-21.4-39.1-38.5-1.4-2.9-2.3-5-2.3-8.3q-1.2-.3-2.5-.6c-10.2-4-18.1-12.6-22.5-22.5-1.7-4.6-2.7-8.1-2-12.9 2-2 2-2 4.9-2.4 3.1.4 3.1.4 5.2 2.3a51.1 51.1 0 0 1 3.7 7.4c3.2 7.4 7.9 12.7 15.3 16 7.8 2.9 18.2 3.3 25.9.1 2.1-1.1 2.1-1.1 4-2.4q.9-.6 1.9-1.2c5.8-4.2 8.3-10.4 11.1-16.8q-1.3-.2-2.7-.3c-7.6-1.6-13.7-6.2-18-12.6-6.5-11-6.5-11-5.3-17.1 3.7-6.3 9.2-8.7 16-11 12.7-2.9 28.2-4.3 39.4 3.7z" fill="#02304f"/><path d="M395.2 330.6c12.4 6.3 21.1 13.4 29.2 24.5q.6.9 1.3 1.8c2.5 3.6 4 6.9 5.3 11.1q1 .5 2 1 1.3 3.1 2.3 6.3.7 2 1.4 3.9.3 1.1.7 2.2c6.1 17.8 13 33.9 23.6 49.6 14 20.9 14 20.9 12 35-3.4 10.1-9.5 17.8-18.9 22.9-8.6 3.8-18.9 6.2-28.1 3.1-1.1-2.4-1.1-2.4-2.1-5.6l-1.2-3.5q-.5-1.9-1.1-3.8-1.2-3.6-2.3-7.2-.6-1.7-1.2-3.5-1.5-4.7-3.3-9.3c-3.9-10.6-4.9-21.4-5.7-32.5-2.3-31-9.9-58.9-33.8-80-3.5-2.8-7.1-5.5-10.9-7.9-2.4-1.7-2.4-1.7-3.4-4.7q1.9-1.2 3.8-2.4 1.1-.7 2.2-1.4c7.9-4.7 20.1-3 28.2.4z" fill="#ad4f00"/><path d="M390.7 741.3q1.1.4 2.3.7c1 5 .9 8.7-.4 13.7l-1 3.8q-.5 2-1 4.1-.3 1-.6 2c-3.9 14.7-8.5 29.1-15.1 42.9-4.5 10.8-.2 26 1.4 37.5.1 1.2.1 1.2.3 2.5 4.4 34 4.4 34 11.4 67.5h-41v-13c-2.5-8.7-6.8-15.4-14.3-20.6-5.7-3.1-11.7-4.5-18.1-5.8-2.6-.6-2.6-.6-3.6-1.6q-.5-3.4-.8-6.7l-.2-2.2q-.4-3.6-.7-7.2-.3-2.5-.6-5.1-.5-5.5-1.1-11-.9-8.9-1.9-17.9l-5.3-52.1q-.3-2.9-.6-5.7c-1.5-15.8-1.5-15.8-.8-23.1 2-2 2-2 4.5-2.3 1.2.1 1.2.1 2.5.3 2.4 3.6 2.5 5.8 2.9 10.1q.1 1.1.2 2.2.4 3.6.7 7.1.3 2.6.5 5.1.7 6.7 1.4 13.5.6 6.6 1.3 13.3l3.9 40.1q.2 2.2.4 4.4.3 4.1.7 8.1c.5 6.6 1.4 12.8 3 19.1 35.7-26.2 53-73.8 62.5-115.7 2-8.6 2-8.6 7.2-8z" fill="#a74d00"/><path d="M818.5 721q1.3.5 2.5 1c.7 2.3.7 2.3 1 5-1.2 2-1.2 2-3.1 3.9q-.9 1-1.9 2-1 1.1-2 2.1-1.6 1.8-3.1 3.7c-3.2 3.8-6.8 7.2-10.4 10.7-8.9 8.3-8.9 8.3-12.9 19.4.3 2.5.7 4.7 1.4 7.2 5.3 1.2 8.8 1.6 13.6-1.1 10.8-7.2 21-17.3 28.7-27.7 2.2-2.9 3.4-4.1 7-5.1 1.3-.1 1.3-.1 2.7-.1 1 1 1 1 1.4 3.6-.6 4.9-3.1 7.4-6.2 11q-.9 1.1-1.8 2.1-2.7 3.2-5.4 6.3-.8.9-1.6 1.8c-8.1 9.2-8.1 9.2-12.7 12.8-3.1 2.2-3.1 2.2-3.3 6 .6 3.6.9 4.3 3.6 6.4 4.1 1.1 7.7.6 11.5-1.2 12.8-8.3 20.3-22.3 28.2-34.9 1.3-1.9 1.3-1.9 3.3-3.9 4.6.6 4.6.6 6 2-.3 6.5-2.9 11.2-6.1 16.8q-.7 1.3-1.5 2.7c-3.2 5.7-6.6 10.8-11 15.6-1.8 2.1-1.8 2.1-1.4 5.9 7.8.7 12.7-.5 19-5q1-.7 2-1.4c9.1-7.2 15.8-18.3 21-28.6 1.6 1 1.6 1 3 3-2.4 14.7-12.1 27.8-23.5 37-6.7 4.8-13.2 6.7-21.5 6-3.3-1.4-6-3-9-5q0-1 0-2-.9.3-1.8.7c-7.7 2.5-15.7 4.1-23.4.8q-1.4-.7-2.8-1.5c-11.7 15.9-16.6 30.8-14.8 50.7 1.4 8.8 5.9 17.7 12.4 23.8 5.5 3.5 12.1 4.9 18.4 6.5.1 2.9.1 2.9 0 6q-1 1-2 2c-1.9-.2-1.9-.2-4.3-.9-6.4-1.4-12.6-1.5-19.2-1.5q-1.7 0-3.5 0c-9.9-.1-18.2 1.8-25.5 8.8-6.4 6.9-5.9 12.4-5.5 21.6h-25l3-9c3.4-12.9 5.1-26.3 7.3-39.4q.2-1.8.5-3.7l6.3-39.9q.2-1.6.5-3.3 1.1-7.7 2.2-15.5.4-2.8.8-5.6.2-1.2.3-2.5c.6-3.7 1-6 3.1-9.1 3-.3 3-.3 6 0 2 2 2 2 2 4.4-.7 7.1-1.6 14.2-2.9 21.2q-.2 1.7-.5 3.3-.6 3.5-1.2 6.9-1.5 9.1-3 18.1-.3 1.8-.6 3.6-2.6 15.1-5 30.2-.4 2.4-.7 4.8-.6 3.4-1.1 6.7l-.6 3.7c-.5 3.2-.5 3.2-.4 7.1q.6-1 1.2-1.9c6.5-9.9 14.5-16.5 25.8-20.1 4-.6 7.9-.9 12-1l-1.4-2c-10.1-15-12.1-30.6-8.9-48.4 2.8-11.9 8.2-21.8 16.7-30.7 2.1-2.5 2.6-4.6 2.6-7.9q-1.5.5-3 1c-5.9.8-10.4.1-15.3-3.3-4.6-4.5-5.9-10-6.3-16.2.3-6.3 2.7-9.8 6.6-14.5l2.4-3c6-7.3 12.4-14.2 19-20.9q1.1-1.2 2.3-2.5c5.5-5.6 5.5-5.6 9.8-5.6z" fill="#a54c00"/><path d="M609 368l2 8q.5 0 1 0c.8 19.7-1.4 38-15.3 53.3q-2.8 2.9-5.7 5.7-1.1 1.1-2.3 2.3c-15.9 15-36.8 20.6-58.2 20-15.9-.8-30.6-7.7-41.5-19.3-8.4-10-11.6-20.1-12-33q.8 1.1 1.6 2.3c6.3 7.1 17.4 10.9 26.8 11.6 30.7 1.1 58.2-7.3 81.2-28.4 5.8-5.4 11.2-11.1 15.9-17.7 3.9-4.8 3.9-4.8 6.5-4.8z" fill="#e57f00"/><path d="M807.8 585.8q3.1 0 6.2 0c8.5-.1 16.6.7 25 2.2q2.8.4 5.6.8c3 .4 4.1.9 6.3 3.1 18.8 28 29.4 63.2 35.1 96.1q.3 1.8.6 3.7c1.9 11.1 2.6 22.1 2.4 33.3l-.8-1.6c-11.4-21.8-31.1-35.1-52.2-46.3-3-1.6-6-3.4-9-5.1q0-1.7 0-3.6 0-2.3.1-4.7v-2.5c0-4.5-.3-8.8-1-13.3-.4-3-.4-4.4 1.1-7q1.8-2.2 3.7-4.3c7.5-9.4 15.1-25.4 15.1-37.6q-1.8-.2-3.6-.4c-2.8-.3-5.7-.6-8.5-1.1-8-1.3-15.8-1.7-23.9-1.8q-1.5 0-3 0c-5.4 0-9.8.6-15 2.3-4.5-.5-4.5-.5-6-2-.4-2.3-.4-2.3 0-5 6.3-6.3 13.5-5.2 21.8-5.2z" fill="#008790"/><path d="M194 730.5c15.7 3.4 28.7 13.1 37.9 26.1a178.93 178.93 0 0 1 6.4 11.2q.5.9 1 1.8c5.9 12 7.5 25.5 9.3 38.6q.9 6.8 1.9 13.6.2 1.3.4 2.7c4.2 29.1 11 58.2 20.9 85.9 1.2 3.6 1.2 3.6 1.2 5.6h-19q-.1-2.6-.2-5.4c-.7-8.3-3.4-14.7-9.5-20.5-14-11.1-30.8-9.8-47.6-8.1q-1.3 0-2.7 0c-2-2-2-2-2.2-4.5.2-2.5.2-2.5 2.2-4.5 2.4-.7 4.7-1.3 7.1-1.8 10.1-2.6 16.9-6.6 22.9-15.2 11.8-20.8 14.5-47.6 9-70.7-2.9-9.9-6.6-18.1-13-26.3q-.7-.9-1.4-1.9c-7-9.1-18.6-14.7-29.6-17.1q-2.2-.2-4.5-.2-1.2-.1-2.5-.1-2.6-.1-5.3-.2-1.2-.1-2.5-.1c-1.1-.1-1.1-.1-2.3-.1-1.9-.3-1.9-.3-3.9-2.3-.3-3-.3-3 0-6 7-4.7 18-2.1 26-.5z" fill="#a64c00"/><path d="M663.1 775.2c1.9.8 1.9.8 3.9 2.8.7 2.1.7 2.1 1.2 4.8l.7 3q.4 1.7.7 3.3c5.4 23.4 13.3 46.1 25.4 66.9 1.9-7.7 2.9-15.4 3.9-23.2q.2-2 .5-4.1.5-4.2 1.1-8.4 1.3-10.4 2.6-20.9.3-1.8.5-3.8.2-1.7.5-3.5.2-1.6.4-3.2c.5-3.1 1.4-5.9 2.5-8.9 2.9-.6 2.9-.6 6-1 2 2 2 2 2.3 4.3-.1 7.9-.9 15.4-2.2 23.2q-.3 1.8-.5 3.8-.8 5-1.6 9.9-1.4 8.9-2.7 17.8-.3 1.9-.6 3.8-2.2 13.8-3.7 27.7c-.5 4.7-1.2 9-3 13.5-.9.1-.9.1-1.9.3-9.6 1.5-15.3 5.3-21.7 12.6-3.2 4.6-3.6 8.4-3.5 13.9q0 3.1.1 6.2h-19q.6-2 1.1-4c4.5-15.8 8.2-31.7 11.8-47.8l.8-3.3q1.1-4.7 2.1-9.5.4-1.4.7-2.9c1.6-7.3 2.1-12.7-.5-19.9q-.6-1.8-1.3-3.7-.3-.9-.7-1.9c-3.5-10.1-6.8-20.1-9.1-30.6q-.3-1.3-.6-2.7c-1.7-7.8-1.7-7.8-1.3-11.7 1.6-2.4 2.2-3.1 5.1-2.8z" fill="#a64d00"/><path d="M189 605.9c4.7.8 7.1 3.7 10.4 6.9 11.5 10 26.7 15.7 40.8 20.8 6.1 2.3 10.8 5.1 14.2 10.8 1.2 5.4 1.6 9.6-1.3 14.4-3.3 4-7.4 5.4-12.1 7.2q-2 1-4 2l.2 1.9c.3 4.7.4 8.2-2.6 12-6.9 7-17.2 8.3-26.6 8.4-8 0-14.7-.8-22-4.3q-1.3-.6-2.7-1.2c-6.6-3.6-11.6-8.3-15.3-14.8-.9-3.2-1-5.7-1-9 2.2-.8 2.2-.8 5-1 2.4 2.1 2.4 2.1 4.8 5.1 6.8 8 13.7 12.3 24.2 13.9 3.3.2 6.5.3 9.8.4q1.2 0 2.5 0c5.1 0 9.8-.5 13.7-4.4q.1-2.5 0-5c-5-2-10-3.6-15.2-5-9.3-2.7-17.6-5.7-25.8-11q-.9-.6-1.8-1.2c-5.7-4.1-11.3-11.2-13.1-18q0-1.4-.1-2.8c2-2 2-2 4.3-2.5 4 .7 5.8 3.5 8.3 6.5 9.8 11.2 22.1 18.8 37.1 20.8q2.1.1 4.3.2 1.4.1 2.7.1c5.5.2 10.2-.1 15.3-2.1l2-2c-.3-3.6-.3-3.6-1-7-6.5-2.6-13-5-19.7-7.1-13.4-4.3-24.3-9.7-34.3-19.9q-.9-.8-1.7-1.7c-2.4-2.6-3.3-4.1-3.7-7.6.5-3.8.5-3.7 4.4-3.8z" fill="#a64c00"/><path d="M607 354q.5 0 1 0c1 5.2 1.5 10.2-1.1 15-3.5 5.1-7.7 9.5-11.9 14q-1.5 1.6-3 3.3c-18.3 19.8-45 32.6-71.9 33.9-12.8.3-27.5 0-37.8-8.6q-1.7-1.8-3.3-3.6-1.5-.5-3-1-.3-2.2-.6-4.3-.1-1.2-.3-2.4c-.1-2.3-.1-2.3.9-5.3 5.4.4 10.4 1.1 15.6 2.6 15.6 3.7 33 2.3 48.4-1.6q1-.2 2-.5c24.5-6.4 47.9-20.3 63.9-40.2q.5-.6 1.1-1.3z" fill="#bc5b00"/><path d="M720.2 577.8c3 2 4.6 3.3 5.4 6.9-1.5 8.5-9 13.6-15.6 18.3.8 4.9 2.5 7.4 6 11 4.9 3.1 10.4 2.7 16 2 5.1-1.7 9.4-4.3 13.4-7.9 2.6-2.1 2.6-2.1 4.8-2 1.8.9 1.8.9 3.8 2.9.2 3.4-.5 5.4-2.6 8-6.8 6.6-15.6 11.1-25.2 11.5-9.7-.6-16.8-5.4-24.2-11.5q-1.3 1.1-2.6 2.3c-5.4 4.5-10.7 6.3-17.7 6-10.4-1.3-18.6-6.5-25.3-14.4-1.6-3.2-1.8-5.3-1.4-8.9 1-1 1-1 3.6-1.6 4.6.8 6.2 3.2 9.3 6.6 4.5 4.4 9 6.2 15.2 6.4 4.3-.1 7.3-1 10.9-3.4 2.4-3.6 2.7-4.8 2-9-1.6-1.9-3.4-3.6-5.2-5.3-3.8-3.7-5-7.3-5.2-12.4 0-2.7.1-3.9 1.7-6 7.5-5.8 25-3.2 32.9.5z" fill="#042d50"/><path d="M836 452c2.9 2.4 3 4.1 3.4 7.8q0 2.3 0 4.6 0 1.2-.1 2.5c-.4 17.2-2.7 36.1-9.3 52.1l-2 1q-2.5-2.5-5-5-1.4-1.3-2.8-2.7C818 510 818 510 818 508l-1.8-.8c-2.3-1.2-3.9-2.6-5.8-4.3-4.1-3.8-8.5-6.8-13.2-9.9-2.6-2.4-3-3.5-3.2-7 1.1-1.9 1.1-1.9 2.9-3.8q1-1 2-2.1 1-1 2.1-2.1 1-1 2-2.1c24.2-25.7 24.2-25.7 33-23.9z" fill="#a94e00"/><path d="M203 541c3.7 1.2 4.7 2.9 7 6-1.4 3-3 5.5-4.9 8.1-2.4 3.4-3.5 6.2-4.4 10.2-1.2 4.3-1.2 4.3-3.5 6.1q-2.2 1.1-4.5 2.2c-16.1 8.7-27.8 27.5-33.1 44.3-3.9 16.4-3.7 39.1 4.5 54.2.9 1.9.9 1.9-.1 4.9q-1-2-2-4-1 0-2 0c-10.6-12.3-15.8-27.9-15.4-44 2.1-21.3 14.2-39.8 27.4-56q.7-.9 1.5-1.8c20.1-24.8 20.1-24.8 29.5-30.2z" fill="#018994"/><path d="M625.8 447.3c12.5 2.7 22.5 19.1 29.1 29.1 1.4 3.3 1.3 6 1.1 9.6q-1.5.8-3.1 1.7c-7.9 4.3-15.3 8.8-22.4 14.5-2.2 1.5-4.1 2.7-6.5 3.8-5.6-4.9-5.3-13.4-5.8-20.4-.2-4.6-.3-9.2-.3-13.8q0-1.2 0-2.5c0-14.3 0-14.3 2.8-19.4 2.3-1.9 2.3-1.9 5.1-2.6z" fill="#a94e00"/><path d="M306 522c6.7 2.5 11.8 6.2 17 11q.2-.9.3-1.8c1.3-4.1 5.2-6.2 8.6-8.5 4.3-1.4 8.1-1.7 12.2.3 2.8 2.1 4.6 3.7 5.5 7.1.3 5.7-1.3 10.4-4.6 14.9-5 5.5-10.4 9.5-17.9 10.3-10.7.4-18.5-1.7-26.6-8.7-3.8-3.6-7-6.9-7.9-12.1 0-6.9 0-6.9 2.3-10.1 3.7-2.5 6.7-3.1 11.1-2.4z" fill="#e37121"/><path d="M568 197c4.9 3.7 9.7 7.8 13 13-.2 3.7-.4 5.4-3 8-5.4-.1-8.6-1.8-12.9-4.7-10-6.1-23.9-6.9-35.1-4.3-1.1.3-1.1.3-2.1.5-2.4.6-4.5.9-6.9.5-1.8-1.1-1.8-1.1-3-3-.6-3.1-.5-5 1-7.8 11.4-15.1 34.6-10.1 49-2.2z" fill="#032e50"/><path d="M452 317c3 .2 4.5.5 6.6 2.6l1.5 2.1c5.6 6.8 13.4 10.4 21.9 12.3 16.4 1.6 28.6-1.3 42-11q2-1.7 3.9-3.5c2.7-2.5 2.7-2.5 6-2.4 2.1.9 2.1.9 3.1 1.9.6 2.6.6 2.6 0 6-7.5 10.4-20.4 17-32.7 19.6-16.5 2.1-31.6.5-45.3-9.6-4.1-3.5-8-6.9-10-12 .4-3 .8-3.8 3-6z" fill="#052c50"/><path d="M465.1 190.6c4.7 3.9 4.7 3.9 5.2 7.4-.1 5.8-.1 5.8-2.3 8-4.5-.2-8.2-1-12.4-2.6-12.2-3.7-23.9-1.5-35.6 2.6-6 1.6-6 1.6-8.9-.1-1.6-2.7-1.8-3.8-1.1-6.9 4.9-7.5 15.1-12.4 23.5-14.7 11.6-1.5 21.8-.4 31.6 6.3z" fill="#022e50"/><path d="M783 542c5.6 4 11 8.8 14 15 .4 3.3.4 3.3 0 6-2 2-2 2-4.7 2.6-4.3-.8-5.6-2.6-8.5-5.8-3.8-3.8-8.4-6.3-13.8-6.8q-1.6-.2-3.2-.4c-8.3.8-14.6 5.7-20.7 11.1-2.1 1.3-2.1 1.3-4.7 1.2-2.4-.9-2.4-.9-4.4-3.9-.1-5.4 2.4-8.3 5.9-12 11.8-11.1 25.3-14.1 40.1-7z" fill="#042d50"/><path d="M667.8 534.6c7.5 3.9 14 8.9 18.2 16.4 1.1 3.8 1.1 3.8 1 7-1.1 1.9-1.1 1.9-3 3-2.4.3-2.4.3-5 0-2-1.6-2-1.6-3.8-3.8-5.8-6-10.2-8.4-18.6-8.8-7.7.2-12.3 3.3-17.6 8.6-3.1.3-5.2.5-7.9-1.1-1.1-1.9-1.1-1.9-1.2-4.6 2.6-7.7 9-12.7 16.1-16.3 6.9-3.2 14.7-3.3 21.8-.4z" fill="#032e50"/><path d="M279 407c5.6 3.7 9.9 8.6 12 15-.3 3.4-.6 4.6-3 7-3.6.5-5.4.5-8.3-1.7l-2.2-2.2c-5.3-5-9.8-6.7-17.1-6.5-6.3 1-11.6 4.5-16.2 8.8-2.9 2.6-2.9 2.6-6 2.7-2.2-1.1-2.2-1.1-4.2-4.1.3-6.3 4.3-10.6 8.8-14.6q2-1.8 4.2-3.4.9-.7 1.7-1.3c8.3-5.2 22-4.2 30.3.3z" fill="#032d50"/><path d="M375.7 404.7c6 3.4 11.1 8.1 14.3 14.3.5 3 .4 4.3-1.1 6.9-1.9 1.1-1.9 1.1-4.6 1.2-3.2-1.1-4.3-1.8-6.7-4-4.8-4.3-9.5-6.5-16-6.2-6.3 1-10.9 4.9-15.7 8.8-1.9 1.3-1.9 1.3-4.5 1.2-2.4-.9-2.4-.9-4.4-3.9 0-5.4 1.6-9 4.9-13.1 9.6-9 22-10.6 33.8-5.2z" fill="#022e4f"/><path d="M480 245c5.9.9 5.9.9 7 2 .4 4.7-.3 7.1-2.9 11q-1 1.4-2 2.9-1 1.5-2.1 3.1-2.4 3.7-4.8 7.4c-.6.8-.6.8-1.2 1.7-3.8 5.8-3.8 5.8-4.9 12.5 1.3 3.3 2.7 3.9 5.9 5.4 3.5.3 3.5.3 7.2.1q3.4-.2 6.8-.1 1 1 2 2c-.4 3.6-.4 3.6-1 7-6.7 3-13.8 2.9-20.9.9-5.3-2.1-7.6-5.3-10.5-10.2-2-8.8 1.9-16.4 6.4-23.7 4.8-7.4 9.9-14.7 15-22z" fill="#092852"/><path d="M559 238c5.2 3 9.3 6.5 12 12 .4 3.8.4 3.8 0 7-2 2-2 2-4.6 2.6-4.6-.8-6.2-3.3-9.3-6.6-4-3.8-8.2-4.8-13.6-5.4-5.5.6-9.9 2-14.1 5.6-3 2.3-4.7 2.3-8.4 1.8-2-2-2-2-2.4-4.8.5-4.2 2.2-6.5 5.4-9.2 11.2-6.6 22.8-8.5 35-3z" fill="#042d50"/><path d="M675 236c3.1 2.2 3.1 2.2 5 5 .4 2.7.4 2.7 0 5-2.5 2.5-3.4 2.2-6.8 2.3-4 .3-5 .5-8.1 3.2-4.7 7-5.5 14.4-5.8 22.7-.3 2.8-.3 2.8-2.3 5.8-3.4.5-3.4.5-7 0-4.7-5.8-3.7-13-3-20 2.4-9.6 7.8-17.4 15.9-23.1 4.2-1.2 7.8-1.7 12.1-.9z" fill="#a64d00"/><path d="M619.4 592.7c6.6-.3 6.6-.3 9.4 1.4 1.4 1.4 1.4 1.4 3.2 3.9-1.9 3.9-1.9 3.9-3 5q-2.1.2-4.2.4c-12.3.8-24.1 2.4-36.1 4.9-10.4 2.2-10.4 2.2-15.7 1.7-2-2-2-2-2.4-4.4.4-2.6.4-2.6 2.3-4.1 4.3-2.1 8.6-3 13.3-4.1q1.4-.3 2.9-.6c10.1-2.2 20-3.2 30.3-4.1z" fill="#032d4b"/><path d="M452.2 233.4c3.9 2.7 7 5.2 8.8 9.6.4 3 .4 4.3-1.2 6.9-1.8 1.1-1.8 1.1-4 1.2-3.4-1.3-5.5-3.3-8.1-5.7-4.3-3.6-8.7-3.9-14.1-3.8-4.3.7-7.2 2.8-10.6 5.4-3 2-3 2-5.1 1.7-1.9-.7-1.9-.7-3.9-2.7-.1-3.7.2-6 2.6-8.9 10.2-9.5 23.5-11.1 35.6-3.7z" fill="#042c51"/><path d="M807.8 585.8q3.1 0 6.2 0c11.8-.1 22.9 1.1 34 5.2.1 2.9.1 2.9 0 6q-1 1-2 2c-4.1-.3-8.1-.8-12.1-1.5-8-1.3-15.8-1.7-23.9-1.8q-1.5 0-3 0c-5.4 0-9.8.6-15 2.3-4.5-.5-4.5-.5-6-2-.4-2.3-.4-2.3 0-5 6.3-6.3 13.5-5.2 21.8-5.2z" fill="#042a4f"/><path d="M585.4 564.7c13.7.1 29.6 2 41.6 9.3 1.8 2 1.8 2 3 4-.2 3.4-.6 4.6-3 7-3.3-.2-5.3-1.2-8.2-2.8-13.3-6.8-29.1-7.1-43.6-8-2.2-.2-2.2-.2-4.2-1.2q-.1-3.5 0-7c2.8-2.8 10.8-1.3 14.4-1.3z" fill="#032b4c"/><path d="M319 891c2.6-.5 2.6-.5 6 0 4 3.5 6.7 7.3 9 12v14h129q0 .5 0 1H165q0-.5 0-1h160c.3-8.1.3-8.1-2.4-14.4q-.6-1.3-1.3-2.5c-1.3-2.2-1.3-2.2-3.3-4.1.4-2.6.4-2.6 1-5z" fill="#9f5605"/><path d="M783 606c5 .5 9.8 1.7 14.6 3.1q1 .4 2.1.7 2.2.7 4.4 1.3 3.4 1 6.7 2c7.3 2.2 14.4 4.4 21.2 7.9 1.3 2.6 1.3 2.6 1 5-1 1.9-1 1.9-3 3-4.8-.5-9.1-1.5-13.7-3q-1.8-.5-3.7-1.1-2-.7-3.9-1.3-1.9-.6-3.9-1.2-3.7-1.2-7.4-2.3-5.7-1.8-11.4-3.2c-2.6-1.2-3.6-2.5-5-4.9.4-4.4.4-4.4 2-6z" fill="#052b50"/><path d="M242 838q.5 0 1 0 .3 1.6.7 3.3 1.3 6 2.6 12.1.6 2.6 1.1 5.2.8 3.8 1.7 7.5.2 1.2.5 2.4 1.5 7.3 3.4 14.5-1.4-.8-2.8-1.6c-8.3-4.6-16-8-25.2-10.4q1.2-1.4 2.5-2.9c6.6-8.9 10.8-19.8 14.5-30.1z" fill="#e27d00"/><path d="M917 840c1 21.2-6.4 43.6-19.5 60.4-2.3 2.4-3.5 3.4-6.7 4.4-2.8.8-3.7 1.1-5.8 3.2 0-3 0-3 2.1-5.2q1.4-1.4 2.9-2.8c14.7-14.3 19.3-35.6 21.7-55.2.3-1.8.3-1.8 1.3-3.8 3-1 3-1 4-1z" fill="#a14a00"/><path d="M463 274l6 2q-.2 1-.5 2.1c-.6 3.4-.9 6.4-.5 9.9 3.5 3.7 6.3 4.5 11.1 4.7q1.1 0 2.2 0 1.1.1 2.3.1 2.7.1 5.4.2 0 3 0 6c-5.1 2.6-13.1 1.6-18.6.5-5.2-1.8-8-4.6-10.4-9.5q-.2-3.5-.2-7-.1-1.9-.1-3.8.1-1.6.3-3.2 1.5-1 3-2z" fill="#01324b"/><path d="M441.3 887.6c3.3.5 4.5 1.9 6.5 4.6 5.1 7.8 6.4 14.5 6.2 23.8h-10l-.2-4.9c-.4-5.4-2.1-9.1-4.7-13.9-1.4-2.8-1.6-5.1-1.1-8.2 1-1 1-1 3.2-1.4z" fill="#a54c00"/><path d="M417.3 887.9c4.3 1.8 5.7 5.1 7.7 9.1a32.97 32.97 0 0 0 1 1.9c2.4 5.6 2.3 11.1 2 17.1h-9q0-1 0-2.1c-.4-6.4-1.6-11-4.9-16.6-1.3-2.7-1.4-4.4-1.1-7.3 2-2 2-2 4.3-2.1z" fill="#a44b00"/><path d="M293 537q.7 1 1.4 2c5.9 6.9 12 11.9 20.6 15-1.3 1.5-1.3 1.5-3 3q-1.5 0-3 0 .5 1.5 1 3c7.2 3.2 16.6 3.3 24.1 1.1q2.5-1.1 5-2.3.9-.4 1.9-.8 1 .5 2 1-2.3 1.2-4.7 2.4l-2.6 1.4c-7.8 3.5-16.7 2.9-24.7.2-8.2-3.7-19.4-9.3-23-18q1 0 2 0 0 1 0 2c2-.7 4-1.3 6-2q-.7-.9-1.5-1.8C293 541 293 541 293 537z" fill="#072a53"/><path d="M319 891c2.6-.5 2.6-.5 6 0 3.7 3.3 7.3 7.3 9 12 .2 3.5.2 3.5.1 7.3q0 1.8 0 3.8-.1 1.4-.1 2.9h-9q.2-1.9.3-3.9c0-5.8-2.3-10.2-5.3-15.1q-1-1-2-2c.4-2.6.4-2.6 1-5z" fill="#a74d00"/><path d="M205 891c2.8 0 4.5.5 6.6 2.4 5.7 6.4 7.8 12.1 7.5 20.7q0 .9-.1 1.9h-9q-.1-1.9-.1-3.9c-.5-5.2-2.7-8.5-5.7-12.7-1.5-3-1.2-4.3-.2-7.4q.5-.5 1-1z" fill="#a44b00"/><path d="M298 890c2.9.1 3.9.9 6 2.9 5 7.6 6.5 14.1 6 23.1h-9q-.2-1.3-.3-2.6c-.9-6.1-1.7-11-4.7-16.4-.3-2.8-.3-2.8 0-5q1-1 2-2z" fill="#a54c00"/><path d="M231.4 891.7c2.6.3 2.6.3 4.3 1.8 5.2 7.5 7.9 13.3 7.3 22.5h-8c-.3-1.9-.3-1.9-.7-3.9-1-4.6-2.8-8.1-5.3-12-1.2-2.5-1.3-4.3-1-7.1 1-1 1-1 3.4-1.3z" fill="#a44b00"/><path d="M611 891q2.5.5 5 1c.7 1.7.7 1.7 1 4-1.2 2.2-1.2 2.2-2.9 4.6-3.3 5.1-4.1 9.4-4.1 15.4h-8c-.4-8.6.5-15.4 6.2-22.1q1.4-1.5 2.8-2.9z" fill="#a34a00"/><path d="M786.3 893.7q1.3.1 2.7.3c.8 2.1.8 2.1 1 5q-1.4 2.1-2.9 4.1c-2.2 3.9-2.5 8.5-3.1 12.9h-10c.5-7.7 2.9-21.4 12.3-22.3zm-149.4-2.1q1 .2 2.1.4c.7 2.2.7 2.2 1 5-1.4 2.4-1.4 2.4-3.3 4.7-3.6 4.8-4.8 8.4-5.7 14.3h-7c-.6-8.1.4-13.4 5.4-19.8 2.4-2.6 3.9-4.1 7.5-4.6z" fill="#a44b00"/><path d="M114 749q2 .5 4 1-7.5 22.5-15 45-2-.5-4-1c1.5-8.1 4.1-15.8 6.7-23.6q1.2-3.4 2.3-6.8.7-2.2 1.5-4.4.3-1 .6-2.1c1.1-3 2.1-5.4 3.9-8.1z" fill="#a34a00"/><path d="M694.8 893.2q1.1.4 2.2.8c.7 1.8.7 1.8 1 4-1.2 1.8-1.2 1.8-2.9 3.6-3.7 4.6-4.1 8.7-4.1 14.4h-8c-.7-8.9.9-14.1 6.4-21.1 2.6-1.9 2.6-1.9 5.4-1.7z" fill="#a64d00"/><path d="M807.7 892.8l2.3.2c.8 2.6.8 2.6 1 6-1.4 2.3-3.1 4-5 6-1.1 2.3-1.3 4.1-1.6 6.6q-.1 1.2-.2 2.5-.1.9-.2 1.9h-7c-.6-8.1-.4-13.7 5-20 2.6-3 2.6-3 5.7-3.2z" fill="#a24a00"/><path d="M716.2 892.4l1.8.6c.7 2.2.7 2.2 1 5q-.9 1.1-1.9 2.3c-2.5 3.2-2.9 5.5-3.4 9.5q-.2 1.7-.4 3.5-.1 1.3-.3 2.7h-7c-.6-8.5-.5-15.2 5-22 3-2 3-2 5.2-1.6z" fill="#a34a00"/></svg>