<svg xmlns="http://www.w3.org/2000/svg" width="1024" height="1536" xmlns:v="https://vecta.io/nano"><path d="M528 260q1.3.4 2.6.7c12.8 3.8 24.9 9 36.1 16.4 4.6 2.6 8.2 1.6 13.3.5 22.9-4.1 45.2 2 64.3 14.8 2.6 1.8 5.2 3.7 7.7 5.6l2.6 2c14.7 11.4 28.8 24.8 40.3 39.4 2.1 2.6 4.3 5 6.5 7.4 5.5 6.1 10.6 12.6 15.6 19.2q.9 1.2 1.8 2.4c19.1 24.8 36.2 49.1 31.9 81.9-4.7 28.3-19.1 55.3-37.7 76.7q-.8.9-1.7 1.9c-8.7 9.4-21.6 18.4-34.7 19.3-12.5.3-20.3-2.7-29.6-11.2q-1.6-2-3-4-.5 1.8-1 3.6c-6.3 23.1-16.8 42-32 60.4q.7 1.3 1.3 2.6 3.4 6.7 6.7 13.4l1.4 2.8c33.2 67.1 48.9 136.5 50.6 211.2l3 1.2c10 4 17.9 8.8 26 15.8 1 .8 1 .8 2 1.7 21.1 19.5 30.9 48.8 35 76.3 20.6-19.6 27-49.9 30-77q.2-1.7.4-3.4c2.9-29.5-.2-58.9-10.5-86.7-2-5.5-2.9-10.3-.7-16.1 2.3-3.6 5-5.9 8.8-7.8 11.2-.9 21 4.2 29.5 11 26.2 22.9 42.2 56.2 48.5 90q.2 1.1.4 2.3c9.6 49.4-1.7 103-29.4 144.9-25.4 37.4-62 64.5-104.9 78.7-2.9.8-2.9.8-4.1 2.1q1.1.4 2.2.8c18.6 7.4 30.7 18.6 39.4 36.5 5.6 13 8.8 29.7 3.8 43.5-4.8 9.4-11.7 15-21.6 18.3-3.9 1.1-7.8 2-11.8 2.9q-1.9.5-3.9.9c-11.4 2.4-23 2.4-34.7 2.4-1.2-.1-1.2-.1-2.5-.1-8.7 0-17.3-.1-25.9-1.2q-.3 1.4-.6 2.9c-2.6 9.2-10.7 16.1-18.4 21.1-31.1 16.3-70.3 15.2-103.5 6.1-13.9-4.5-25.5-13-32.5-26.1-3.1-7.6-5.1-14.9-6-23q-1 0-1.9 0-10.2.1-20.4.2-3.8 0-7.6 0c-15.7.2-30.7-.4-46.1-3.2-.1 1.2-.1 1.2-.1 2.5-.9 14.9-6 27.9-17.1 38.4-14.2 10.7-30.7 13.7-47.8 16.1l-2.9.4c-25.8 2.9-53.4.3-74.9-15.5-6.1-5-10.1-10.6-13.2-17.9q0-1 0-2c-1.2.2-1.2.2-2.5.5-3.9.6-7.8.7-11.8.7q-1.2.1-2.4.1c-56.3.5-56.3.5-71.6-14.3-8.9-10.8-8.8-23.7-7.7-37 2.5-15 10.3-28.4 21-39q.8-.8 1.6-1.7c6.9-6.7 17.4-10.9 26.4-14.3-.5-.8-.5-.8-1.1-1.6-29.6-41.9-50.9-87.3-42.4-140 2.4-12.1 6.1-24.3 11.5-35.4q.4-.9.9-1.8c11.9-24.3 29.9-44.7 56-53.6 2.1-.6 2.1-.6 4.1-.6q0-1.5 0-3c-1.2-78.9 16.3-154.6 52-225q-.8-.8-1.6-1.7C273 578.9 264 558.6 257 536c-2.8 0-3.6 1.3-5.6 3.3-8.4 7.4-16.4 9.3-27.4 9-15.5-1.3-27.2-13.2-37-24.3-3.3-4.2-6.2-8.5-9-13q-.6-.9-1.1-1.8c-16.2-26.3-25.6-57.7-19.8-88.6 4.6-17.7 14.2-33.7 26.2-47.2 4-4.5 7.6-9.1 11.2-13.9 5.9-7.8 12.1-15.2 18.5-22.5q1-1.1 2-2.3 2.5-2.9 5-5.7 1-1.1 2-2.3c15.5-17.5 32.5-33 53.8-43.1q.9-.5 2-1c9.6-4.4 18.7-6.1 29.2-5.9h3c5.1 0 9.6.4 14.6 1.6 6.4 1.3 10.4-1 15.9-4.1 20-10.4 41.3-16.5 63.5-20.2q1.4-.2 2.7-.5c39.3-6.8 83.1-4.4 121.3 6.5z" fill="#f08400"/><path d="M528 260q1.3.4 2.6.7c12.8 3.8 24.9 9 36.1 16.4 4.6 2.6 8.2 1.6 13.3.5 22.9-4.1 45.2 2 64.3 14.8 2.6 1.8 5.2 3.7 7.7 5.6l2.6 2c14.7 11.4 28.8 24.8 40.3 39.4 2.1 2.6 4.3 5 6.5 7.4 5.5 6.1 10.6 12.6 15.6 19.2q.9 1.2 1.8 2.4c19.1 24.8 36.2 49.1 31.9 81.9-4.7 28.3-19.1 55.3-37.7 76.7q-.8.9-1.7 1.9c-8.7 9.4-21.6 18.4-34.7 19.3-12.5.3-20.3-2.7-29.6-11.2q-1.6-2-3-4-.5 1.8-1 3.6c-6.3 23.1-16.8 42-32 60.4q.7 1.3 1.3 2.6 3.4 6.7 6.7 13.4l1.4 2.8c33.2 67.1 48.9 136.5 50.6 211.2l3 1.2c10 4 17.9 8.8 26 15.8 1 .8 1 .8 2 1.7 21.1 19.5 30.9 48.8 35 76.3 20.6-19.6 27-49.9 30-77q.2-1.7.4-3.4c2.9-29.5-.2-58.9-10.5-86.7-2-5.5-2.9-10.3-.7-16.1 2.3-3.6 5-5.9 8.8-7.8 11.2-.9 21 4.2 29.5 11 26.2 22.9 42.2 56.2 48.5 90q.2 1.1.4 2.3c9.6 49.4-1.7 103-29.4 144.9-25.4 37.4-62 64.5-104.9 78.7-2.9.8-2.9.8-4.1 2.1q1.1.4 2.2.8c18.6 7.4 30.7 18.6 39.4 36.5 5.6 13 8.8 29.7 3.8 43.5-4.8 9.4-11.7 15-21.6 18.3-3.9 1.1-7.8 2-11.8 2.9q-1.9.5-3.9.9c-11.4 2.4-23 2.4-34.7 2.4-1.2-.1-1.2-.1-2.5-.1-8.7 0-17.3-.1-25.9-1.2q-.3 1.4-.6 2.9c-2.6 9.2-10.7 16.1-18.4 21.1-31.1 16.3-70.3 15.2-103.5 6.1-13.9-4.5-25.5-13-32.5-26.1-3.1-7.6-5.1-14.9-6-23q-1 0-1.9 0-10.2.1-20.4.2-3.8 0-7.6 0c-15.7.2-30.7-.4-46.1-3.2-.1 1.2-.1 1.2-.1 2.5-.9 14.9-6 27.9-17.1 38.4-14.2 10.7-30.7 13.7-47.8 16.1l-2.9.4c-25.8 2.9-53.4.3-74.9-15.5-6.1-5-10.1-10.6-13.2-17.9q0-1 0-2c-1.2.2-1.2.2-2.5.5-3.9.6-7.8.7-11.8.7q-1.2.1-2.4.1c-56.3.5-56.3.5-71.6-14.3-8.9-10.8-8.8-23.7-7.7-37 2.5-15 10.3-28.4 21-39q.8-.8 1.6-1.7c6.9-6.7 17.4-10.9 26.4-14.3-.5-.8-.5-.8-1.1-1.6-29.6-41.9-50.9-87.3-42.4-140 2.4-12.1 6.1-24.3 11.5-35.4q.4-.9.9-1.8c11.9-24.3 29.9-44.7 56-53.6 2.1-.6 2.1-.6 4.1-.6q0-1.5 0-3c-1.2-78.9 16.3-154.6 52-225q-.8-.8-1.6-1.7C273 578.9 264 558.6 257 536c-2.8 0-3.6 1.3-5.6 3.3-8.4 7.4-16.4 9.3-27.4 9-15.5-1.3-27.2-13.2-37-24.3-3.3-4.2-6.2-8.5-9-13q-.6-.9-1.1-1.8c-16.2-26.3-25.6-57.7-19.8-88.6 4.6-17.7 14.2-33.7 26.2-47.2 4-4.5 7.6-9.1 11.2-13.9 5.9-7.8 12.1-15.2 18.5-22.5q1-1.1 2-2.3 2.5-2.9 5-5.7 1-1.1 2-2.3c15.5-17.5 32.5-33 53.8-43.1q.9-.5 2-1c9.6-4.4 18.7-6.1 29.2-5.9h3c5.1 0 9.6.4 14.6 1.6 6.4 1.3 10.4-1 15.9-4.1 20-10.4 41.3-16.5 63.5-20.2q1.4-.2 2.7-.5c39.3-6.8 83.1-4.4 121.3 6.5zm-199 46q-1.4 1.2-2.8 2.5c-44.5 42.2-52.2 115.4-54.6 173.6-.8 36.4 9.6 74.2 34.6 101.3 4.8 4.9 9.9 9.3 15.4 13.5 3.1 2.7 5 5.3 5.9 9.4 0 4.1 0 6-2.6 9.3-3.7 1.8-5.8 2-9.9 1.4-3.3-2-3.3-2-6-4q-1 0-2 0c-49 87-55.2 188.2-38 290.3 1.1 6 2 11.9 2.9 17.9q1 6.9 2.1 13.8.3 1.9.6 3.9c4.4 28.1 9.6 56.1 14.8 84.1q1.3 6.5 2.5 13 .8 4.2 1.5 8.4.4 1.8.7 3.7 2 10.7 4.2 21.5c3.6 18.3 3.6 18.3.1 25.8-1.8 2-3.7 3.9-5.7 5.8-12.7 12.4-18.8 30-19 47.4 0 9.8 0 9.8 4.8 18.1 4.7 4.2 9.4 7.2 15.7 7.9l3.8.4q0-.9 0-1.8c1.1-37.8 1.1-37.8 8-47.2 2.7-1.7 3.8-2 7-1.9 3.8 1.2 5 2.4 7 5.9.4 4.4-.2 6.8-2.5 10.5-2.8 5.9-3 11.2-3 17.6q0 1.4 0 2.8c.1 6.8.6 14 5.4 19.1 6.8 3.1 16.2.7 23.1-1 2.1-2.1 1.3-7 1.4-10q.1-2.8.3-5.6.1-4.4.3-8.8.1-4.3.3-8.6c0-1.3 0-1.3.1-2.6.2-5.7 1-11.2 3.6-16.4 3.5-2.3 4.9-2.4 9-2 4.6 2.3 4.6 2.3 6 5 .2 1.8.2 1.8.2 4.1q0 1 0 2.1c-.2 2.4-.6 4.5-1.2 6.8-1.4 5.9-1.3 11.8-1.2 17.8q0 1.7 0 3.4c0 6.5 0 6.5 1.2 12.8 9.4-1.2 17.4-4.3 23.4-11.9 2.7-3.8 4.2-7.7 5.6-12.1q.3-.9.6-1.8c2-10.4.3-21.8-1-32.2-1.6-13.3-2.5-26.5-3.1-39.8l-.2-3.6-3.7-98.8q-.4-10.2-.7-20.5-.4-11.2-.8-22.5-.1-4.7-.3-9.4-.4-12.4-.7-24.8-.1-3.5-.2-7-.1-4.4-.2-8.9-.1-1.3-.1-2.6c0-3.6 0-5.6 2.3-8.6 3.4-2.4 5.8-2.7 9.9-3 3.5.8 5 2.8 7.2 5.5.7 3.1.7 3.1.7 6.7q0 1 0 2.1.1 3.3.1 6.7 0 2.4.1 4.8.1 5.3.1 10.6l.4 26q.1 3.1.1 6.2l2.3 76.1q.2 5.1.4 10.3c1.1 32.2 2.8 64.3 4.8 96.5q3.8.7 7.7 1.5l2.2.4c11.9 2.2 23.6 2.3 35.7 2.3q4.3 0 8.7 0 2.8 0 5.6 0 1.3 0 2.6.1c6.3-.1 12.3-1 18.5-2.3q.8-10.3 1.6-20.7.3-3.5.5-6.9c2.5-31.4 4.1-62.9 5.3-94.4q.1-3.5.3-7 1.6-40.4 2.8-80.9.1-5.3.3-10.6.2-6.4.3-12.8.1-2.8.1-5.7 0-1.2 0-2.6c.2-4.2.4-5.9 3.1-9.4 3.5-2.6 5.4-2.6 9.7-2 4.6 2.2 4.6 2.2 6 5v7.7q-.1 1.2-.1 2.4-.1 4.2-.2 8.3 0 1.5-.1 3l-2.7 84.1q-.3 7.8-.6 15.5l-3.8 92.3q-.1 1.8-.2 3.6c-.6 11.7-1.2 23.3-2.9 34.9-.6 5-.8 10-.8 15.1q0 1.4 0 2.8c-.1 8.4 1.8 15.8 7.5 22.1 7.2 6.5 15.4 9 24.9 10.2 2.3-12.4 3-24.2.5-36.6-.7-3.3-.9-6.1-.5-9.4 1.9-2.4 3.3-3.7 6-5 3.1-.1 6 .2 9 1 3.3 3.8 4.1 8.2 4.2 13.2q0 1.2 0 2.4v2.6q.1 2.8.1 5.5.1 4.4.2 8.7 0 4.2.1 8.4v2.6q.1 1.2.1 2.4 0 1.1 0 2.2c.2 2.4.2 2.4 2.3 6h24c2.7-6.7 3.2-12.1 3.2-19.2q0-1.3 0-2.5c0-6.5-.3-13.3-3.8-18.9-2.1-3.7-1.9-6.1-1.4-10.4 1.4-2.5 1.4-2.5 4-4 3.1-.5 5.9-.7 9 0 3.6 2.8 5 5.8 6.6 10.1q.6 1.5 1.3 3.1c2.7 8.9 3.4 17.7 3.7 27q.1 1.6.1 3.2.2 3.8.3 7.6c6.7-1.9 11.9-3.6 15.8-9.8q.7-1.6 1.5-3.1.7-1.6 1.5-3.1c5.7-13.8 1.8-31-3.4-44.3-3.1-6.7-7.2-11.5-12.4-16.7-5.5-6-7.2-10.2-7.1-18.2.2-4.5 1-8.9 1.8-13.4q.3-1.4.5-3l4.8-24.4c6.4-31.9 11.7-64 17.3-96q.9-5.1 1.8-10.2l13-78.4q.3-2 .6-4c10.8-78.8-7.9-173.2-51.7-240.4-1.5 1.2-1.5 1.2-2.9 2.5-3.7 2.6-6.6 3.2-11.1 2.9-2-.4-2-.4-4.5-1.9-2-3.4-3.1-6.6-2.5-10.5 3.3-6.2 8.7-10.7 13.7-15.6 7.5-7.3 14-14.3 19.3-23.4 1-1.7 1-1.7 2.1-3.4 13.3-23.1 18.3-49.7 18.2-76.1q0-1 0-2.1c-.2-59.7-10.6-131.4-53-176.5-18.8-18.1-44.3-27-69.5-32.2q-1-.2-2.1-.5c-15.8-2.9-31.7-3.6-47.6-3.5h-2.9c-41 .1-91.1 5.5-123.2 34.3z" fill="#023544"/><path d="M750 1139c11.8 5.4 23 12 29 24 .8 5.7.7 10.7-2.3 15.7-12.5 16.3-35.9 22.6-54.7 28.3q-1.3.4-2.6.8c-41 12.2-84.6 17.4-127.1 21q-3.7.3-7.4.7c-14.6 1.3-29.2 2.1-43.8 2.6-1.7.1-1.7.1-3.5.1-25.3.9-50.7 1.1-76.1 1.1q-9.1-.1-18.3 0c-29.1 0-58.1-.5-87.2-2.3q-1.9-.1-3.8-.2-10.7-.7-21.3-1.6-1.6-.1-3.2-.2c-151-12.1-151-12.1-184.7-48-3.5-4.4-4.5-8-4.4-13.8 1.4-7.7 8.4-13.8 14.4-18.2 7.8-5 7.8-5 12-5 1.3 1.6 1.3 1.6 2.7 3.7 8.3 11.4 23.1 13.2 36.3 15.3 10.5 1.6 21.1 1.3 31.7 1.2q3.1 0 6.2-.1 7.6 0 15.1-.1a66.96 66.96 0 0 1 1.4 2.7q.9 1.7 1.8 3.5.9 1.7 1.8 3.5c7.4 12.4 22 18.6 35.5 22.2 17.4 4.4 35.8 4.2 53.5 1.4q3.2-.5 6.5-.9c16-2.3 33.1-7.2 43.5-20.4 7.4-10.8 10.1-21.2 12-34q3 .2 6 .4 1.7.2 3.4.3 3.5.3 7 .8c5.8.7 11.6.6 17.4.6h3.6q5.8-.1 11.5-.1 7.6 0 15.3-.1 1.7 0 3.5 0h3.3 2.8c2.2.1 2.2.1 3.2 1.1q.4 2.7.7 5.3c2.4 14.5 9.4 27 21.3 35.7 24.9 15.7 63.8 16.5 91.8 10.5 16-3.7 32.8-9.3 42.1-23.7 1.7-2.8 2.9-5.7 4.1-8.8q.8 0 1.7 0c35.4 1.1 35.4 1.1 70.3-4q1-.2 2.1-.5c9.6-2.3 17.3-6.1 22.9-14.5q1.5-3 3-6z" fill="#fdd88b"/><path d="m793.8 540.3c7.3 4.9 13.4 10.7 17.2 18.7q0 1.5 0 3c2.2-2.1 3.9-4.3 5.7-6.7 5.4-7.2 11.4-11.6 19.3-15.6q1-0.5 2-1c11.6-5.7 26-6.9 38.6-3.6 12.8 4.7 21.6 15 27.2 27.1 6.2 14.7 3.6 30-1.8 44.5-5.7 12.7-16.5 23.3-26.3 33q-2.5 2.4-5 5c-5.9 5.8-11.8 11.2-18.3 16.4-2.5 2-4.9 4.1-7.2 6.3-4.5 4.1-9.2 7.8-14.1 11.6-4.3 3.3-8.3 6.8-12.1 10.6-2 1.4-2 1.4-4.4 1.9-3.8-0.7-5.3-2.6-8-5.3-4.3-4.2-8.7-8-13.5-11.6-6.2-4.8-12-10-17.7-15.5q-3.5-3.2-7.2-6.4c-17-14.8-33.1-30.7-42.2-51.7-0.5-1.2-0.5-1.2-1.1-2.4-4-10.5-3.8-25.9 0.8-36.2 7.3-13.5 15.7-23.4 30.7-28.6 13.4-3 25.7-0.5 37.4 6.5z" fill="#003845"/><path d="M668 847c14.1 4.4 24.3 15.8 32 28l2 3.2c3.7 6.2 6.8 12.4 9.3 19.2q.4.9.7 1.9c4.4 12.7 5.5 25.7 5.4 39q0 1.1 0 2.2c-.1 11.4-.8 22.4-3.4 33.5q-.3 1.3-.6 2.7c-6 26.2-15.8 49.8-33.4 70.3q-1 1.3-2.1 2.5c-4.2 4.6-7.7 6.6-13.8 7.8-2.5.6-2.5.6-4.1 3.7-.6 5.6-.6 5.6 1.7 10.6 2.1 2.6 2.1 2.6 5 2.9q1.5-.1 3.1-.2 1.7-.1 3.4-.2 1.8-.1 3.6-.2c17-.4 28.3 3.4 41.2 15.1 10.4 10.8 15.5 22.7 15.2 37.7-.4 5.8-1.9 8.8-5.8 13.2-2.8 2.3-5 2.3-8.6 2.2q-1.4 0-2.7 0-1.1-.1-2.1-.1-.1-.8-.1-1.7c-.8-17.1-.8-17.1-7.2-32.5-3.3-2.2-4.8-2.5-8.7-1.8-3.3 2.1-5.9 4.1-7 8 .3 4.4 1.3 6.6 4 10 1.9 4.7 2.2 8.9 2.1 13.9l-.1 7.1h-15c-.1-2.7-.1-2.7-.3-5.4q-.2-3.6-.5-7.1 0-1.8-.1-3.6c-.6-8.3-1.5-14.6-7.9-20.5-4-1.8-6-1.7-10.2-.4-2.6 2.2-2.9 3.6-3.4 6.9.4 3.5 1.5 5.2 3.4 8.1 2 6.7 1.3 14.2 0 21-1 1-1 1-3.3 1.1H657q-1.4 0-2.8 0c-2.2-.1-2.2-.1-3.2-1.1q-.5-2.9-.9-5.8c-2.8-19.4-10-37.3-24.1-51.2q-.5-.5-1-1c.1-8.5 2-16.9 3.7-25.2q.4-1.7.8-3.6 1.8-8.8 3.7-17.7 4.1-19.4 7.5-38.9 1.1-6.6 2.2-13.1.6-3.5 1.3-7 3-17.5 6.2-34.9 5.1-28.4 10-56.8.6-3.4 1.2-6.7l5-31.8c.4-2.3.4-2.3 1.4-3.3zm-427-1q.1 1 .3 2.1c2.5 18.3 5.4 36.6 8.5 54.9q.9 5.3 1.8 10.7 1.3 7.7 2.6 15.5 1.9 11.4 3.8 22.9l15.1 83.4q2 9.8 3.9 19.7.5 2.8 1.1 5.6 1 5.1 1.9 10.2l.4 2c2.2 11.3 2.2 11.3.9 15.1-1.2 1.6-1.2 1.6-4.1 4.3q-1.6 1.6-3.1 3.2-.8.8-1.6 1.7c-10.5 12-15.2 28.8-17.1 44.3-.4 2.4-.4 2.4-1.4 3.4q-3.5.1-7 0c-.7-18.2-.7-18.2 3.2-25.2 1.4-3.2.8-5.6-.2-8.8-2.3-2.8-3.8-3-7.4-3.5-4.6.6-5.8 1.9-8.6 5.5-5.4 8-5.2 19.4-5.8 28.7-.2 2.3-.2 2.3-1.2 3.3q-3 .1-6 .1-1.6 0-3.3 0c-2.7-.1-2.7-.1-3.7-1.1-.6-8.8-1.1-16.5 4-24q.5-.5 1-1c-.1-5.8-.1-5.8-3.1-10.4-3.5-1.9-5.9-2.6-9.9-2.6-7.1 5.9-8.1 14.6-9 23.3q-.6 6.3-1 12.7c-5.4-.7-8.8-1.4-13-5-4.4-7.3-3.6-14.8-1.9-22.9 4-14.5 13-25.6 25.9-33.1 13.9-7.1 13.9-7.1 22-7.1q1.5-.1 2.9-.1 3 0 6-.1c6.1-.1 6.1-.1 11.3-3.1 2-2.5 2-2.5 2.4-5.6-.7-3.7-2-5.2-4.6-8-2.7-1.4-2.7-1.4-5.7-2.4-6-2.3-9.9-5-14.3-9.6q-1.1-1.1-2.1-2.1c-27.7-29.1-39.8-69.2-39.1-108.6.8-28.5 12.2-56.2 32.9-75.9 5.7-4.9 14.5-12.4 22.3-12.4z" fill="#f08500"/><path d="M593 298c23.9.8 44 12.6 60.5 29.4 1.7 1.8 3.6 3.4 5.5 5 3.3 2.9 6.1 5.9 8.9 9.2 2.2 2.5 4.4 4.9 6.7 7.2 6.4 6.9 12.3 14 18 21.4 1.9 2.5 3.9 4.9 5.8 7.3 31.3 38.4 31.3 38.4 31.1 61.9v2.9c-.4 16-5.7 29.9-13.5 43.7q-.6 1-1.1 2c-7.8 13.6-18.6 31.9-33.9 38-5 1.3-9.4 1.6-14.3-.4-9.6-5.8-12-17.4-14.7-27.6q-.3-1-.6-2c-2.9-10.9-4.1-21.8-5.3-32.9-1.3-13.4-3.1-26.8-5.1-40.1q-.2-1.5-.4-3c-5.6-37.3-15.5-78.5-38.6-109q-1.2-1.7-2.5-3.3-2.4-3.2-4.8-6.4C593 299 593 299 593 298zm-286 1c-2.4 4.5-5.1 8.5-8.2 12.5-29.9 39.4-37.6 88.5-43.5 136.4q-.3 1.8-.5 3.7-1.1 9.3-2.2 18.5c-1.2 10.3-2.5 20.6-4.7 30.7l-.4 2.3c-2.2 9.8-5.9 16.6-13.9 22.7-4 1.8-7.3 1.9-11.5.6-18.7-8.2-29.8-30.2-37.2-48.1-2.2-5.7-4.1-11.5-5.9-17.3q-.5-1.8-1.1-3.6c-5.1-19.3-.4-35.6 9.1-52.4 5.1-8.4 11-16.2 17-24q.6-.8 1.3-1.7c5.6-7.3 11.4-14.4 17.4-21.3q4.3-4.9 8.3-10.1c4.6-5.7 9.5-11.1 14.6-16.4q1.8-2 3.6-3.9C264 312 284.9 298.5 307 299z" fill="#f08400"/><path d="M488 447.8c7.1 5.3 13.9 12.2 15.3 21.4.8 10.3.5 19.5-6.3 27.8-8.2 9.4-20.9 15.5-33 18q-1.5 0-3 0c3.9 19.1 3.9 19.1 17 33 6.6 3.4 15.7 3.2 22.8 1.2 8.1-3.4 12.2-8.3 16.1-16 2.6-4.9 5.7-9 11.2-10.9 3.1-.1 5.1.2 7.8 2 2.3 2.3 3.8 4.4 4.5 7.7-.4 9.5-7 19.5-13.4 26.2-11.7 10.3-25.1 14.4-40.4 14.1-12.4-1.1-23.7-6.6-32.3-15.6a18.27 18.27 0 0 1-3.3-6.7q-1 1-2 2-.7.7-1.4 1.4-1.7 1.7-3.2 3.5c-7.4 8.1-18.8 14.3-29.8 15.3-18 .8-29.9-1.7-43.6-14-5.9-6.2-11.6-15.3-12.3-23.9.5-4.8 2-6 5.3-9.3 2.9-1.4 4.8-1.4 8-1 3.8 2.9 5.8 6.3 8.3 10.4 5 7.9 11.4 14.2 20.7 16.6 8.9 1 16.3-.1 23.6-5.3 8.6-8.1 11.6-20.5 13.4-31.7q-1.5-.2-3.1-.4c-11.7-1.9-23.1-8.4-30.4-17.7-5.4-8-8.4-15.7-7.1-25.3 2.2-9.6 8-17.5 16.3-22.8 20.9-11.8 53.5-12.5 74.3-.1z" fill="#013645"/><path d="M782 762c5.8 1.1 8.8 4.9 12.1 9.6 3.2 4.7 6.1 9.5 8.9 14.4q.7 1.1 1.3 2.3c21.1 36.7 27 84.5 16.3 125.4-13.8 49-43.7 86.5-87.9 111.5-13.9 7.8-13.9 7.8-18.7 7.8 1.2-4.1 2.8-7.8 4.7-11.6 4.5-9.1 7.8-18.3 10.6-28q.7-2.5 1.5-4.9c1.5-5.2 2.4-10.1 2.9-15.5 1.8-22.1 1.8-22.1 8.1-27.6 2.4-1.8 4.9-3.5 7.5-5.1 23-16.6 33.7-58.9 38.3-84.9 1-6.5 1.6-12.8 1.6-19.4q0-1.3 0-2.6 0-4 .1-8.1 0-1.4 0-2.8c-.1-13.4-.4-26.4-3.3-39.5q-.3-1.2-.5-2.4-1.3-5.6-2.7-11.2c-.8-3.4-.8-3.4-.8-7.4z" fill="#f08500"/><path d="M574.7 472.8c6.2 3.3 10.5 7.6 13.4 14 1.2 4.2 1.4 8 1.5 12.3q0 1.1 0 2.3c-.1 6.6-2.2 11.7-6.5 16.8-7.3 6.3-13.4 8.4-23.1 8.1-9.9-1.1-17.2-6.4-23.4-14.1-4-6.3-3.4-14.1-2.6-21.2.9-3.1 2.1-5.4 4-8q.6-.9 1.2-1.8c8.5-11.7 22.9-14.2 35.5-8.5z" fill="#e26100"/><path d="M355.6 476.7c6.6 5.3 9.4 11.3 10.8 19.7.4 7.9-2.7 14.9-7.7 20.9-4.5 4.8-9.9 9.2-16.7 9.7-1.8.2-1.8.2-3.6.3-6.6-.1-13.5-2.6-18.8-6.5-6.9-7.3-10.1-14.9-9.9-25 .8-7.4 4.8-13.9 10.3-18.8 11.7-7.8 23.5-8.1 35.6-.3z" fill="#e26200"/><path d="M555.1 391.3q2 1.3 3.9 2.7 1 .7 2 1.5c8.8 7 16.2 18.7 18.5 29.8.3 3.9-.4 5.6-2.9 8.6-4 3.2-6.4 3.6-11.6 3.1-4.4-3.2-5.9-6.9-7.9-11.7-3.5-7.5-9.3-13.7-17.1-16.8-5.6-1.5-11-1.3-16.3 1.1-5.5 3.2-8.3 7.5-11.1 13-2.4 4.3-4.4 6.9-8.6 9.4-3.9.1-6.1-.4-9.4-2.5-2.4-3.8-3-7-2.6-11.5 3.1-11 9.5-20.6 19-27 13.6-7.5 30.6-7.6 44.1.2zm-160 4.3c6.8 6.2 12.1 14.4 12.6 23.8-.2 3.8-.7 4.6-3.1 7.7-3.8 2.8-5.8 3.5-10.6 2.9-5.8-3.4-7.8-8.2-10.4-14.3-2.2-3.6-4.5-5-8.5-6.4-7.4-1.1-15.8-1.7-22.4 2.4-4.6 3.6-7.5 7.7-10.1 12.9-2.4 4.4-5.1 7.9-9.6 10.4-4.2.7-6.1.5-9.9-1.6-2.9-3.3-3.2-5-3.1-9.4 3.3-12.3 11.1-24.1 21.9-30.8 16.5-8.7 37.9-9.5 53.2 2.4z" fill="#023546"/></svg>