<svg xmlns="http://www.w3.org/2000/svg" width="1024" height="1221" xmlns:v="https://vecta.io/nano"><path d="M932 456c4.1 3.6 7 7.5 8 13-.1 8.6-3.6 15.9-9.8 21.9q-1 1-2 2c-16.6 16-28.7 38.2-29.7 61.4q0 3.9 0 7.7 0 1 0 2c.1 12.2 1.6 23.4 5.5 35l.8 2.5c6 17 14.9 32.9 23.8 48.6 23.7 42 44.3 90.3 44.6 139.4q0 1.3 0 2.6c.3 37.2.3 37.2-3.2 53.9q-.3 1.5-.6 3.1c-6.2 29.1-16.9 56.5-34.4 80.9q-.6.9-1.3 1.8c-5.5 7.7-11.7 14.8-18.2 21.7q-1.5 1.5-3 3.1c-17.6 19-44.5 38.6-70.4 43.9-6.9 1.9-9.2 6.2-12.6 12.2q-1.2 2.1-2.3 4.3c-4.6 7.9-10.6 14.8-17.2 21q-1.2 1.2-2.4 2.4c-8.9 8.7-18.4 16.1-29.6 21.6q1.1 0 2.3 0 27.3.3 54.6.6 13.2.2 26.5.3 11.5.1 23 .3 6.1.1 12.2.1 5.8.1 11.5.1 2.1.1 4.2.1c10.7.1 21.4.6 30 7.6 6.1 6.7 8.1 14.9 8 23.6-.8 9-4.5 16.5-11.3 22.3-5.1 3.3-10.1 5.1-16.2 5.1h-2.5q-1.4 0-2.8 0-1.5 0-3 0-5 0-10 0-3.6 0-7.1 0-7.9 0-15.7 0-11.7 0-23.4 0-21 0-41.9 0-18.6 0-37.2 0h-2.5q-5 0-10 0-47.5 0-95 0-40.1 0-80.1 0c-84 0-168.1 0-271.4-.1q-11.8 0-23.6 0-52.7-.1-105.3-.2-4 0-8 0-1.9 0-3.9 0-13.6-.1-27.1-.1-16.1 0-32.3-.1-8.1 0-16.2 0-7.3 0-14.6 0-2.7-.1-5.3 0c-17.4 0-17.4 0-25.1-6.5-6.9-8.1-8.5-14.6-8.3-25.3 1-7.8 4.4-14.3 10.4-19.6q1.5-1.1 3.1-2.2c1.5 2 3 4 4.3 6.1 10.8 18.2 37.6 23.9 56.7 28.9 87.7 21.1 194.3 21.4 288-1l2.5-.6c19.6-5 41.1-12.4 53.5-29.1 2.7-8.8 1-17.3-1-26.1q-.4-1.4-.7-2.9c-1.8-7.5-3.9-15-6.1-22.5l-1-3.4q-2-6.9-4.1-13.8c-3.9-13.1-7.3-24.7-6.1-38.6q.2-3.1.4-6.2.1-2.2.2-4.4c.6-9.9.5-19.8.5-29.8q0-5 0-10.1c0-11.4-.1-22.7-.7-34.1-.5-8.5-.5-16.9-.4-25.4q-1-.2-1.9-.4c-7.9-2-14.9-5.1-22.1-8.6q0 1.8 0 3.6c.2 19.6-1 39-2.9 58.5q-.1 1-.2 2-.3 3-.6 6-.3 4-.5 7.9-.2 1.9-.3 3.9-.1 1.7-.1 3.4c-.4 2.7-.4 2.7-2.4 4.7q-.8-.3-1.7-.5c-11.7-3.6-23-6.5-35.3-7.5q.5.8 1 1.6c8 14.7 8.6 29.1 8 45.4-15.2 2.8-30.5 4.7-45.9 6.2q-1.3.1-2.6.2c-23.3 2.3-46.4 2.8-69.8 2.9h-2.3c-43.8 0-86.5-2.6-129.4-11.3-1-31.3-1-31.3 8.1-42.2 8.3-8.1 17.1-12.8 28.9-12.8q.4-1.1.8-2.2c4.2-10.1 12.8-19.8 22.9-24.2 6.9-1.8 13.9-1.8 20.2 1.6 3.6 2.3 6.9 4.9 10.1 7.8q.4-1.1.7-2.2c3.6-7.8 11.8-14 19.3-17.8 7.5-2.5 15.2-2.2 22.4 1.1 7.9 4.6 13.2 10.2 18.2 17.9 1.2 2.1 1.2 2.1 3.4 3q.4-.9.8-1.8c2.6-4.8 7.9-8.8 13-10.7 6.9-1.5 13.8-1.2 20.2 1.5q-.8-10.5-1.5-20.9-.3-3.5-.6-7.1c-1.5-21.6-3.7-43.1-7.7-64.4q-.2-1-.4-2-2.7-14.7-6-29.2-.3-1.6-.7-3.2c-2-8.6-5.4-15.8-9.7-23.4-8.5-15-15.7-30.2-20.4-46.8l-.8-2.6c-2.2-8.5-3.4-17.1-4.4-25.8-.1-1.2-.1-1.2-.3-2.3-2-18.1-1.9-36.1-1.5-54.3 3.5 1.7 6.8 3.7 10.2 5.7 18.6 10.7 39.9 17.4 61.5 17.5q1.3 0 2.6 0c45.9.3 89.1-7.8 130.7-28.2q1.1-.6 2.3-1.1c16.3-7.9 30.2-17.9 43.2-30.5q1.6-1.4 3.1-2.9c8.3-7.8 15.3-15.9 21.4-25.5q.6-.8 1.1-1.7c6.8-10.6 11.1-21.8 12.9-34.3 4.4 1.4 8.4 3.1 12.6 5.2q.9.5 1.8.9 3 1.5 6 3 2 1.1 4.1 2.1 4 2 8 4 5 2.6 10 5.1 1.8.8 3.5 1.7 6 3 11.9 5.9c28.2 13.9 56 29.2 81.1 48.1q.8.6 1.7 1.2a552.14 552.14 0 0 1 59.9 52.4q4.2 4.3 8.5 8.5c5.8 5.6 10.9 11.6 15.9 17.9q1.1 1.4 2.3 2.9c41.9 53 60.2 115.7 67.7 182.1q.2 1.4.3 2.8c1.1 11.7.8 23.4.8 35q0 3.4-.1 6.8 0 8.2 0 16.4c5.2-5 10.2-10 14.4-15.9q.7-1 1.4-1.9c5.4-7.7 9.9-15.9 14.2-24.2q.5-1.1 1.1-2.2c21.4-42.1 21.3-88.1 7.1-132.5-7-21.4-16.3-41.7-26.2-61.9-27.8-56.7-27.8-56.7-32-84.4q-.3-1.7-.5-3.4c-4.2-34.2 2.5-67.9 22.9-96q2.3-2.9 4.6-5.6.6-.7 1.3-1.5c13.4-15.9 41.1-39.1 62.7-25.5z" fill="#e57d00"/><path d="M561.6 199.2c5.5 4 8.8 11.1 10.1 17.7 2 13.9 1.3 27.5-.3 41.4q-.1 1.2-.2 2.3c-3.8 33.2-10 66.4-20.4 98.1-2.6 8.2-2 13.8 1.5 21.6 4.7 10.4 7.1 20.7 8.4 32q.2 1.6.4 3.2c.6 4.8 1.1 9.6.9 14.5q-1.6-.2-3.3-.5c-27.1-3.3-54.8 1.7-81.3 6.9q-1.5.3-3 .6c-15 3-15 3-29.4 8q-.6 3.5-1 7 .5.5 1 1c7.1-.6 14.2-1.7 21.3-2.8q3.6-.6 7.2-1.1 5.6-.8 11.1-1.6c25.5-3.9 50.6-5.9 76.4-6.5q-.2 3.1-.4 6.1-.2 1.7-.3 3.5c-.3 3.2-.6 6.3-1.3 9.4l-2.4.8c-2.7.9-2.7.9-3.5 3-1.9 5.6-3.1 11.4-4.1 17.2-3.3 1.1-3.8 1-6.9-.1l-2.3-.8c-1.2-.5-1.2-.5-2.4-.9q-2.4-.8-4.7-1.7c-1-.3-1-.3-2.1-.7-7.1-2.2-14.2-3.2-21.6-3.9q-1.4-.1-2.8-.2-3-.3-6-.6-4.4-.4-8.8-.8c-9.7-.9-19.3-1.5-29-1.5q-1.3-.1-2.6-.1c-5.5.1-10.7.2-14.8 4.3-.2 3.1-.2 3.1 0 6 4.9 1.7 9.2 3.1 14.4 3.2 12.5.3 24.8 1.2 37.1 2.6q1 .1 2.1.2c15 1.7 29.1 5.4 43.4 10-6.7 12.8-14 23.6-24 34l-2.2 2.4c-10.4 11-23.3 18.3-36.5 25.4q-3.3 1.8-6.6 3.6c-21.3 11.9-45.1 18.4-69.1 22.9q-1.1.2-2.3.5c-15.4 2.6-30.9 3.5-46.4 3.5q-4-.1-7.9 0c-10.5 0-20.6-.7-31-2.3q-1.3-.2-2.7-.4-3.4-.6-6.8-1.3c-1.2-.2-1.2-.2-2.5-.5-7-1.5-13.8-3.3-20.7-5.3q-1.5-.4-3-.9c-6-1.7-11.6-3.9-17.3-6.6q-2-.9-4-1.8c-36.3-16.3-60.4-44.1-75-81.2q0-1.5 0-3c11.5-2 23-2.9 34.7-3.1q4.2-.1 8.5-.2 3.2 0 6.3 0 2-.1 4-.1c1.8 0 1.8 0 3.6-.1 3-.2 3-.2 4.8-2.3 1.4-2.9 1.3-5.1 1.1-8.2-17.1-3.8-33.6-1.9-50.7.6q-1.8.2-3.7.5-1.7.3-3.4.5c-3.4.4-6.7.5-10.2.4-2.7-10.7-3.6-21-4-32 17.9-1.2 35.8 3.1 53.1 7.1 6.9 1.6 13.8 3.1 20.9 2.9 1-2.2 1-2.2 1-5-8.8-10.8-27.9-11.4-41-13q-1-.1-2-.2-16-2-32-3.8a108.08 108.08 0 0 1 1.2-19.7c.3-1.3.3-1.3.5-2.6 2.5-15.3 6.6-32.6 15.3-45.7-.3-6.1-1.6-11.8-3-17.7-6.9-29.7-9.5-59.4-9.4-90q0-1.8 0-3.7c0-36.2 0-36.2 7.4-46.6 3.7-3.5 6.7-3.7 11.7-3.6 7 1.3 13.1 5.1 19.3 8.6q1.8 1 3.6 2c20.7 11.4 39.3 25.9 57.4 41q1.1.9 2.3 1.9c3.2 2.7 6 5.4 8.7 8.5q.8.9 1.7 1.8 1.6 1.8 3.2 3.7c1.6 1.8 2.9 3 5.1 4.1 3.5 0 6.6-1 10-2q2.5-.6 5-1.2 3.8-1 7.5-1.9c15.9-4 31.7-4.2 48-4.2q5.1 0 10.2-.1c19.1 0 36.1 2.2 54.3 8.2q1.5.5 3 1l2.6.8c2.9.5 4 0 6.4-1.6q2.6-2.5 5.1-5.1c4.4-4.5 9.1-8.6 14-12.6 2.5-2 5-4.1 7.4-6.2 14.1-12.2 29.6-22.4 45.5-32.1q1.1-.7 2.3-1.4c30-18.3 30-18.3 40.3-13.4z" fill="#e67e00"/><path d="M792.2 96.6q1 0 2.1 0c13.6 0 26.5 1.9 39.7 5.4q1.1.3 2.2.6c35.7 9.8 65.9 34.8 84.2 66.5 5.7 10.2 10.1 20.7 13.6 31.9l.8 2.4c7.5 23.5 7.7 55 .2 78.6q-.4 1.2-.7 2.4c-11.9 36.6-34.8 67.1-69 85.4-35.7 18.2-79.7 23.6-118 11.2-14-4.9-27.3-11.2-39.3-20q-1.6-1.1-3.2-2.3c-28.1-20.6-45.8-52-53.8-85.7q-.3-1.1-.6-2.3c-1.7-8.1-1.7-16.2-1.7-24.5q0-3.6-.1-7.2c0-10.3 1.1-19.9 3.4-30q.3-1.2.6-2.5c5.6-23.2 17.2-45 33.4-62.5q.8-.9 1.6-1.7c27.1-29.1 64.8-45.7 104.6-45.7z" fill="#38b8a7"/><path fill-rule="evenodd" d="M452.2 922.4v3.3l-.2 19.7c1-30.1-.1-60.3-2-90.4 1.4 22.5 2.2 44.9 2.2 67.4zm-.7 34.1q-.1 2.2-.3 4.4-.2 3.9-.5 7.8-.1 1.6-.1 3.2.7-9.7 1.1-19.3-.1 2-.2 3.9zm7.3 52.9q2.1 7.5 4.3 14.9c.5 1.8.5 1.8 1.1 3.6 1.9 6.8 3.7 13.6 5.3 20.4q.2 1.1.5 2.1c1.5 7.1 2.9 15.6-.4 22.4l-2.6 3.2q-.9 1.1-1.7 2.1c-15.8 17.5-43.4 23-65.3 27.9q-1 .2-2 .5c-12.1 2.8-24.1 4.6-36.4 5.9q-4.3.4-8.6.9c-10.3 1.2-20.6 2.2-31 2.7q-1.6.1-3.2.2c-192.2 9.1-192.2 9.1-245.3-33.6-5.2-5-8.7-10.2-9-17.6 1.3-25 10-50 17.5-73.7l5.3-17.8q.5-1.6 1-3.3.5-1.6.9-3.2c.5-1.5.5-1.5.9-3.1q.9-2.9 1.7-5.8.4-1.3.8-2.7.4-1.1.7-2.3c2.5-7.3 8.6-13 15.3-16.4 7.4-3.1 14.7-5.2 22.5-6.9l3.3-.8c6.8-1.6 13.6-2.6 20.6-3l-2.2 2c-9.4 9.5-11.2 21.3-11.5 34.2q0 1.6-.1 3.2-.1 3.8-.2 7.6l3.8.4c4.4.5 8.7 1.2 13.1 2 19.8 3.5 39.7 5.5 59.8 6.7q1.1 0 2.2.1c15.6.9 31.2 1.1 46.8 1.1q5.5-.1 11.1 0c25.9 0 51.7-1 77.4-4q3.3-.4 6.6-.8c7-.8 14-1.8 20.9-3.1 2.8-.5 5.5-.6 8.3-.4-.3-17.3-1.9-32.4-10-48 9.9 0 18.8 2.3 28.2 4.9q1.5.4 2.9.8 1.3.4 2.7.8c2.3.6 2.3.6 5.2.5.1-1.7.1-1.7.3-3.3q.4-6.2.9-12.4.2-2.7.4-5.4.3-3.8.6-7.7.1-1.2.2-2.4.3-4 .8-8.1-.5 4.2-.8 8.4l-.2 2.5q-.3 4.1-.6 8.2-.2 2.8-.4 5.6-.6 8.3-1.2 16.6c6.6 3.3 13.2 6.4 19 11 2.2 2.4 2.9 4 3.2 7.3.6 8.9 2.8 17.2 7.8 24.7q.3-3.6.6-7.1c0 12.9 4.5 25.1 8.2 37.5zm-35.3-117.9q.4-3.8.7-7.7-.3 3.9-.7 7.7-.2 1.6-.3 3.2.1-1.6.3-3.2zm28.5 53.9q-.1 3.6-.3 7.2.2-3.6.3-7.2zm-27.8-61.6q.2-3.3.3-6.6-.1 3.3-.3 6.6z" fill="#055a5a"/><path d="M471 1062l274.9.4q7.5 0 15 .1 36.4.2 72.8.4 10 .1 20.1.2 13.1.1 26.3.2 6.9 0 13.8.1 6.3 0 12.7.1 2.3 0 4.6 0c11 .1 22.1.3 31.1 7.6 6.1 6.7 8.1 14.9 8 23.6-.8 9-4.5 16.5-11.3 22.3-5.1 3.3-10.1 5.1-16.2 5.1q-1.3 0-2.5 0-1.4 0-2.8 0-1.5 0-3 0-5 0-10 0-3.6 0-7.1 0-7.9 0-15.7 0-11.7 0-23.4 0-21 0-41.9 0-18.6 0-37.2 0h-2.5q-5 0-10 0-47.5 0-95 0-40.1 0-80.1 0c-84 0-168.1 0-271.4-.1q-11.8 0-23.6 0-52.7-.1-105.3-.2-4 0-8 0-1.9 0-3.9 0-13.6-.1-27.1-.1-16.1 0-32.3-.1-8.1 0-16.2 0-7.3 0-14.6 0-2.7-.1-5.3 0c-17.4 0-17.4 0-25.1-6.5-6.9-8.1-8.5-14.6-8.3-25.3 1-7.8 4.4-14.3 10.4-19.6 1.5-1.1 1.5-1.1 3.1-2.2 1.5 2 3 4 4.3 6.1 10.8 18.2 37.6 23.9 56.7 28.9 87.7 21.1 194.3 21.4 288-1q1.2-.3 2.5-.6c18.9-4.9 42.5-12.2 53.4-29.5 1.2-3.3 1.6-6.4 2.1-9.9z" fill="#ebc579"/><path d="M864 152c5.7 31.1 11.3 67.8 3 99-.3 1-.3 1-.5 2.1-6.1 23.5-15.7 46.9-37.5 59.9-19.5 11.3-39.9 13.8-62 9-4.1-1.2-8-2.6-12-4q-4.5-1.5-9-3c-.6.7-.6.7-1.1 1.4q-2.5 3.1-5.1 6.3-.9 1.1-1.7 2.2c-6.4 7.8-6.4 7.8-10.1 11.1-3.4-.1-4.6-.6-7-3-.1-6.2 3.7-9.7 7.5-14.1q1.8-2.1 3.6-4.2.8-.9 1.6-1.9c1.4-1.9 1.9-3.5 2.3-5.8q-.7-.6-1.5-1.1c-11.8-9.6-19.1-25-21.1-40-2.1-22.8 3.4-46.4 17.7-64.6 28.5-33.4 90.7-49.9 132.9-49.3z" fill="#076662"/><path d="M274.4 882.1c7.9 4.6 13.2 10.2 18.2 17.9 1.2 2.1 1.2 2.1 3.4 3l.8-1.8c2.6-4.8 7.9-8.8 13.1-10.7 7.3-1.7 15.2-1.5 21.9 2 8.7 5.8 16.7 13.9 21.2 23.5q1.3-.1 2.7-.2c8.5-.4 14.8.3 21.3 6.2 1.3 2.2 1.3 2.2 2 4q1 0 2 0c9.2 16.2 10.7 30.8 10 49-15.2 2.8-30.5 4.7-45.9 6.2q-1.3.1-2.6.2c-23.3 2.3-46.4 2.8-69.8 2.8-1.2.1-1.2.1-2.3.1-43.8 0-86.5-2.6-129.4-11.3-1-31.3-1-31.3 8.1-42.2 8.3-8.1 17.1-12.8 28.9-12.8q.4-1.1.8-2.2c4.2-10.1 12.8-19.8 22.9-24.2 6.9-1.8 13.9-1.8 20.2 1.6 3.6 2.3 6.9 4.9 10.1 7.8q.4-1.1.7-2.2c3.6-7.8 11.8-14 19.3-17.8 7.5-2.5 15.2-2.2 22.4 1.1z" fill="#b84f00"/><path d="M555 460c4.8.8 4.8.8 7 3 2.2 8.5 3.6 17.2 4 26q0 1.1.1 2.1c1.1 27.5-7.9 49.4-26.3 69.8q-2.1 2.3-4.3 4.5-1.5 1.6-3.1 3.3c-13.9 14.8-29.3 26.1-47.4 35.3q-1 .5-2 1c-19.6 10.2-41.1 17-62.4 22.4q-2.8.6-5.5 1.4c-18.5 4.8-37.2 5.5-56.2 5.6q-1.3 0-2.6 0c-28.3.2-60.7-6.6-82-26.6-7.5-7.9-11.4-15-11.4-25.9q0-1.8 0-3.7c.1-3.2.1-3.2 1.1-6.2 4.9.6 9.4 2.1 14.1 3.8 24 8.2 48.1 11.4 73.5 11.5q1.3 0 2.7 0c57.1-.1 119.4-15.8 161.7-56.3q1.1-1 2.3-2.1c9.6-9.1 16.3-20.4 22.7-31.9-25.3-9-51.3-12.1-78.1-12.6C448 484 448 484 444 480c-.5-3.6-.5-5.3 1.7-8.3 4.8-3.6 10.9-2.9 16.7-2.9q1.4 0 2.8 0c9.6.1 19 .8 28.6 1.6q4.3.4 8.6.7c12.3 1.1 23.8 3.3 35.6 6.9q1.7.5 3.4 1 3.3 1 6.6 2 .3-1.5.5-3.1.4-2 .8-4c.1-1 .1-1 .3-2 .9-4.9 2.4-8 5.4-11.9z" fill="#0d313b"/><path d="M312 755c3.6 2.7 6.3 5.4 9.1 8.9 12.9 16.2 27.8 30.4 44.3 42.9q2.2 1.7 4.5 3.5c15.4 11.9 32.4 21.3 49.6 30.4 2.6 1.3 5 2.8 7.5 4.3-1 23.9-2.3 47.7-4.7 71.4a372.08 372.08 0 0 0-.9 14.9c-.4 2.7-.4 2.7-2.4 4.7q-.8-.2-1.7-.5-3.8-1.2-7.7-2.3-1.5-.4-2.9-.9a125 125 0 0 0-18-3.7c-6-.9-9.9-2.3-14-6.9-2.4-2.3-4.6-3.5-7.7-4.7-3.4.1-3.4.1-6.9.6-3.7.1-3.7.1-7.1-.6-2.7-2.7-4.3-5.4-6.2-8.8-2.7-4.8-6.6-9.5-11.5-12.1-3-1.7-4.9-3-6.1-6.4-.3-2.9-.5-5.8-.7-8.7l-.2-3.3q-.3-5.3-.5-10.5-.4-6.8-.9-13.7-.1-1.6-.2-3.4c-1.1-16.9-3.4-33.7-6.5-50.4q-.4-2.1-.8-4.2c-1.9-10.5-4.2-21-6.7-31.5q-.3-1.5-.7-3.2-.3-1.3-.7-2.7-.1-1.1-.3-2.1.5-.5 1-1z" fill="#df7700"/><path d="M155 927q-1.3.9-2.7 1.9c-6.2 5.1-9 13.4-10.3 21.1-.4 4-.5 8-.6 12q-.1 1.6-.1 3.2-.2 3.9-.3 7.8l3.8.4c4.4.5 8.7 1.2 13.1 2 19.8 3.5 39.7 5.5 59.8 6.7q1.1 0 2.2.1c15.6.9 31.2 1.1 46.8 1.1q5.5-.1 11.1 0c25.9 0 51.7-1 77.4-4.1q3.3-.3 6.6-.7c7-.8 14-1.8 20.9-3.1 2.8-.5 5.5-.6 8.3-.4-.3-17.3-1.9-32.4-10-48 19.9.1 43.9 6.4 59 20 3.6 4 3.5 8.2 3.3 13.4-.6 5.3-3.6 8.2-7.5 11.5-20.8 14.7-49.2 18.9-73.8 22.1-1.9.2-1.9.2-3.8.5-10.2 1.3-20.3 2.1-30.6 2.6q-1.2.1-2.5.2c-44.8 2.1-90.4 2.3-135.1-1.3q-2-.1-4-.3c-73.2-5.4-73.2-5.4-90.1-23.8-3.5-4.2-4.3-8.1-4.2-13.6 1.1-7.8 6.1-14.7 12.3-19.3 11.1-7.1 37.9-16.2 51-12z" fill="#14877d"/><path d="M724.4 712.6c2.1 3.1 2.2 4.8 1.6 8.4-3 3.8-5.3 4.6-10 5.3-1.7.2-1.7.2-3.5.5q-1.9.3-3.8.6c-10.7 1.7-20 3.7-29.7 8.6q-1.6.8-3.3 1.6c-28.5 14.3-44.9 39.3-54.9 68.8-15.1 46.9-15 94.6 7.3 139.3 6.2 12 13.4 21.8 22.9 31.3q2.8.4 5.6.6 1.8.2 3.6.4 1.9.2 3.8.4c8.4.8 16.8 1.7 25.1 3.2 1.1.1 1.1.1 2.1.3 3.1.6 4.6.9 6.8 3.1.4 2.9.4 2.9 0 6-2.3 2.4-3.5 3-6.9 3.1l-3.3-.4c-1.9-.1-1.9-.1-3.9-.3l-3.9-.4c-32.3-2.9-71.6-4.5-98.8 16.1-5.4 4.9-10.1 9.9-14.2 15.9q-.8 1.1-1.6 2.3c-6.8 10.5-9.7 22.4-11.4 34.7h-11c-1.1-18.1 6.7-36.2 18-50q.9-1.2 1.9-2.4c16.3-19.3 37.7-27.2 62.1-30.6 3.7-.2 7.3-.3 11 0q-.8-.9-1.7-1.9c-13.7-16.2-23.4-35.7-30.2-55.8q-.4-1.1-.9-2.3c-4.7-14.6-5.8-29.6-5.6-44.8q0-1.2 0-2.5c.2-45.8 11.3-92.3 44.2-125.9 17.5-17.3 38.8-27.1 62.6-32.6q1.4-.3 2.9-.7c12.7-2.8 12.7-2.8 17.1.1z" fill="#b74d00"/><path d="M548 230c2.7 2.8 3.4 4.7 3.4 8.6q0 1.3 0 2.7-.1 1.4-.1 2.8v3c-.2 9.1-1 17.9-2.3 26.9q-.2 1.3-.4 2.6c-1.9 12.9-4.4 25.8-7.1 38.6q-.2 1-.4 2.1c-5.2 24.8-5.2 24.8-9.1 28.7-3.4-.1-5.3-1.9-7.5-4.3-2.6-2.9-4.9-6-7.3-9A225.8 225.8 0 0 0 506 320q-1.2-1.3-2.5-2.7c-9.2-9.5-19.7-17-30.9-24.2-1.6-1.1-1.6-1.1-3.6-3.1.2-4.4 1.9-6.4 5.1-9.4q1.2-1.1 2.5-2.4 4-3.6 8.1-7.2a199.83 199.83 0 0 0 6.8-6.2c42.2-39.7 42.2-39.7 56.5-34.8z" fill="#b74e00"/><path d="M373 435c2.2 3.3 2.3 4.9 1.7 8.8-3.1 10.2-13.6 16.4-22.3 21.1-2.4 1.1-2.4 1.1-4.4 1.1.2 8.8 1.2 15.5 6 23q1 1.7 2.1 3.4c6.6 6 16.7 8 25.4 7.9 7.4-.8 13.3-3.9 18-9.7 2.5-4.3 4-8.9 5.5-13.6 1-3 1-3 3-5 2.5.2 2.5.2 5 1 3.4 5.1 2.5 11 2 17-.8 3.4-2.1 6.1-4 9q-.6 1-1.3 2c-5.6 7.7-15.1 13-24.5 14.4-13.7 1.2-25.7.1-36.7-8.8-3.4-3.2-5.5-6.4-7.5-10.6q-.6.9-1.3 1.8-.8 1.1-1.7 2.2-.7 1-1.5 2c-5.1 6.3-11.4 10.4-19.5 12-10.7 1-19.1-1.7-27.7-8-7.6-6.5-13.3-13.8-14.4-23.9.1-2.5.7-4 2.1-6.1 2.9-1 2.9-1 6-1 3.3 2.7 4.8 5.5 6.5 9.4 4 7.6 10.7 10 18.5 12.6 5.8.4 9.9.1 15-3 7.1-8.3 8.3-16.4 9-27q-1.2-.3-2.4-.6c-9.5-3.7-18.7-10.7-22.9-20.2-1.4-4.4-1.6-8.6-.7-13.2 3.6-4.8 8.3-6.2 14.1-7.5 18.5-2.4 36.9-.7 52.9 9.5z" fill="#0d303c"/><path d="M587.1 725.4c2.9.6 2.9.6 4.6 2.2 5.6 10-.3 27.8-2.3 38.3q-.6 2.9-1.1 5.9-1.1 5.9-2.3 11.8-2 10.9-4 21.8c-.4 1.9-.4 1.9-.7 3.9q-2.2 11.9-4.2 23.8c-8.5 49.7-19.4 98.6-34.1 146.9q-.5 1.7-1 3.4l-15.4 48.9q-.4 1.4-.9 2.9-1.3 4.1-2.7 8.3-.4 1.2-.8 2.5-2.5 8-5.2 16h-9c3.1-14.6 6.5-29.2 10.1-43.7q.3-1 .5-2 2.6-10.4 5.4-20.8l5.7-22.4q.2-1.1.5-2.1c7.7-31.8 14.5-63.8 21.3-95.8q1.7-8 3.4-15.9c.4-1.6.4-1.6.7-3.3q2.3-10.7 4.7-21.5l12.1-57.7q.2-1.4.5-2.7c1.6-8.4 3.1-16.8 4.3-25.3l.6-3.7q.4-3.3.8-6.6c1.6-11.8 1.6-11.8 8.5-13.1z" fill="#b74d00"/><path d="M204 226c6 .4 9.5 2.2 14.4 5.8q1 .7 2.1 1.4 3.2 2.4 6.5 4.8 1.1.8 2.2 1.6c9.6 7.1 18.8 14.6 27.8 22.4q1.1.9 2.2 1.9 1.9 1.7 3.8 3.4 2.3 2 4.7 4 1.4 1.1 2.8 2.3 1.3 1.1 2.6 2.2c1.9 2.2 1.9 2.2 2.5 4.7-.8 3.4-2.2 4.3-4.9 6.4-1.4 1-1.4 1-2.8 2.1a313.37 313.37 0 0 1-11.3 7.3c-7.2 4.6-13.2 10.2-19.2 16.3-3.3 3.4-6.8 6.5-10.4 9.6-3.4 3.1-6.6 6.4-9.8 9.7-3.3 3.1-4.5 4.1-9.2 4.1-1.8-3.2-2.5-6-3-9.6q-.2-1.6-.4-3.3-.3-1.8-.5-3.6-.6-3.7-1.1-7.3-.2-1.9-.5-3.7-.7-4.7-1.4-9.3-.2-1.3-.4-2.7-.4-2.3-.7-4.7c-1.7-10.9-2.2-21.8-2.2-32.9q0-3.2 0-6.3c-.1-9.9 0-18.5 6.2-26.6z" fill="#b84e00"/><path d="M312 755c3.6 2.7 6.3 5.4 9.1 8.9 12.9 16.2 27.8 30.4 44.3 42.9q2.2 1.7 4.5 3.5c15.4 11.9 32.4 21.3 49.6 30.4 2.6 1.3 5 2.8 7.5 4.3l-1 21q-.5 0-1 0 0-3 0-6-.8-.2-1.6-.5c-6.1-1.9-11.4-4.4-17-7.5-1.3-.7-1.3-.7-2.6-1.5-28-15.8-54.1-38.1-73.8-63.5q-1.4-1.8-2.8-3.6-1.5-1.8-3-3.7-.7-.9-1.4-1.8c-4.2-5.3-7.8-10.3-9.8-16.9q-.6-1.1-1.2-2.2-.4-.9-.8-1.8.5-1 1-2z" fill="#b84d00"/><path d="M569 433c0 2.3 0 2.3-1 5-6.9 4.5-13 4.5-21.1 4.6q-3.9 0-7.9.1c-1 .1-1 .1-2 .1-18 .5-36 3.1-53.9 5.7-1 .2-1 .2-2.1.3-8.9 1.3-17.7 2.9-26.5 4.6-3.3.6-6.2.9-9.5.6-2-2-2-2-2.1-5.4 1.1-3.6 1.1-3.6 4.2-5.6 6.4-3 13.5-4.1 20.4-5.5q2.2-.5 4.4-.9c78.5-16 78.5-16 97.1-3.6z" fill="#0f2f3c"/><path d="M458.3 380.2c6.6 4.9 11.2 10.9 13.7 18.8.7 5.1.1 8.8-3 13-4-.2-6.2-.9-9-3.8q-1.5-1.7-2.9-3.4c-6.4-7.5-12.5-13.2-22.7-14-9.1-.3-14.5 1.2-21.2 7.3q-2.6 2.5-5.2 4.9-2.9 2.6-5.8 5.1-1.3 1.2-2.7 2.3c-2.5 1.6-2.5 1.6-5.2 1.5-2.3-.9-2.3-.9-4.3-3.9-1.1-7.5 1.6-12 6-18 .7-.9.7-.9 1.4-1.9 14.2-16.5 43.1-19.4 60.8-7.9zm-164.7-.8c7.5 5 11.6 11.1 14.4 19.6.3 4.3.4 7-1.2 11-1.8 2-1.8 2-4.1 2.4-3.7-.6-4.8-2.1-7.1-4.9q-1.2-1.4-2.4-2.8c-1.8-2.3-3.5-4.6-5.1-7-3.9-5.4-9.9-7.6-16.1-9.7-7.5-.8-13.6.2-19.5 5q-3.8 3.4-7.5 7-1.9 1.8-3.9 3.5-.7.7-1.5 1.4c-1.9 1.3-3.3 1.8-5.6 2.1-2.3-1.6-2.3-1.6-4-4-.8-7.3 2.9-12.3 7-18 4.9-5.4 10.3-9.3 17-12q1.4-.6 2.7-1.2c13.1-3.1 25.5 1 36.9 7.6z" fill="#0d2f3d"/><path d="M225.6 467.9q1.1 0 2.3 0c14.4 0 14.4 0 18.7 2.8 1.4 2.3 1.4 2.3 1.3 5.4-.9 3-1.4 4-3.9 5.9-2.8.4-2.8.4-6.2.4-1.9.1-1.9.1-3.9.1q-1 0-2 0-5.3.1-10.6.3-1.1 0-2.2 0c-16.9.5-33.4 2.5-50.1 5.4-23.1 4-23.1 4-28 .8.2-2.3.2-2.3 1-5 3.6-2.6 7.2-3.8 11.5-4.9q1-.2 1.9-.5 3.1-.8 6.2-1.5l2.2-.6c13.9-3.4 27.9-5.8 42.2-7.5q1.3-.2 2.6-.3c5.7-.6 11.3-.9 17-.8z" fill="#0d303c"/><path d="M150.4 428.7q1.3 0 2.7 0c18.2-.2 36.1.2 54.2 2.6q1.2.1 2.4.3c31.6 4.2 31.6 4.2 40.4 12.3 1.2 2.8.8 4.3-.1 7.1l-1 1c-6-.2-11.9-1.4-17.8-2.4q-1.2-.2-2.4-.4c-4.3-.7-8.4-1.6-12.6-2.7-12.7-3.3-26-4.5-39.1-5.4-8.4-.7-16.7-1.7-25-3.1q-1.4-.2-3-.5-1.3-.2-2.7-.5l-2.4-.4c-2-.6-2-.6-4-2.6q0-2 0-4c3.3-1.6 6.9-1.2 10.4-1.3z" fill="#0e313c"/><path d="M385 934c11.2 1.2 21.4 4.4 32 8q1.6.5 3.2 1.1c5.2 1.9 10.5 4.2 13.8 8.9.2 3.6.2 3.6-1 7-9.7 8.9-28.8 15-42 15 0-1.9 0-1.9-.1-3.8-.3-11.3-1.7-21.4-4.9-32.2q-.5-2-1-4z" fill="#0d3139"/><path d="M147 935q-.4 1.1-.8 2.3-.6 1.4-1.1 3-.6 1.4-1.1 2.9c-1.4 4.1-2.1 7.7-2.3 12-.1 1.5-.1 1.5-.1 3q-.1 1.5-.2 3.1c0 1.5 0 1.5-.1 3.1q-.2 3.8-.3 7.6c-25.8-5.8-25.8-5.8-35-15-.1-3.4.1-5.9 2.3-8.6 9.6-7.9 26.3-13.8 38.7-13.4z" fill="#0e3139"/><path d="M438 753c2.4.3 2.4.3 5 1 2 3.1 2.3 4.1 2.6 7.6q.1 1.4.2 2.8.1 1.5.2 3.1.1 1.6.3 3.2l2.1 34.1q.3 5.2.6 10.4c.8 13.3 1.2 26.5 1 39.8-2.6-.7-5.3-1.3-8-2q-.1-1.5-.2-3c-.5-9.5-1.3-18.9-2.2-28.4q-1.7-17.6-2.8-35.2c-.1-1-.1-1-.1-2a397.61 397.61 0 0 1-.9-21.7q0-1.8 0-3.7c.2-3 .2-3 2.2-6z" fill="#b74d00"/><path d="M228.9 930.1c6.8 3.1 11.9 6.6 16.1 12.9 1.2 3.5 1.2 6.3 1 10q-1 1-2 2c-3.8-.3-5.9-2.4-8.6-5-4.6-4.4-7.8-5.4-14.1-5.3-3.6.5-5.6 1.9-8.3 4.3-1.9 3.1-1.9 3.1-3 6q-2.5.1-5 0c-1.6-1.6-1.2-3.4-1.3-5.7.1-5.6 1.1-9.1 5.1-13.1 6.4-5.8 11.5-9.3 20.1-6.1zm85.7 1.6c7.1 2.6 12.7 6.3 16.8 12.7 1.7 3.9 2.1 6.4 1.6 10.6q-1 1-2 2-2 0-4 0-.8-1.6-1.6-3.3c-2.3-3.9-4.9-6.4-9.4-7.7-5.9-.7-11.1-.9-16.6 1.7-2.4 2.3-4.4 4.6-6.4 7.3-3.9-.9-3.9-.9-5-2-.4-4.5-.5-7 1.5-11.1 7.3-8.6 13.6-13.2 25.1-10.2z" fill="#8d3a00"/><path d="M350 1114q0 .5 0 1-.8.1-1.7.2-3.8.3-7.7.7-1.3.1-2.7.2l-2.5.3-2.4.2c-2.2.3-2.2.3-4 2.4l25 1q0 .5 0 1H71q0-.5 0-1 1.2 0 2.4 0 28.8-.1 57.7-.3 13.9-.1 27.9-.1 12.1-.1 24.3-.1 6.4-.1 12.9-.1 6 0 12.1-.1 2.2 0 4.4 0 3.1 0 6.1 0 1.7 0 3.4 0c3-.1 3-.1 5.8-2.3q0-.5 0-1h2.2q10.7 0 21.3.1 5.4 0 10.9 0c23.8 0 47.7-.1 71.5-1.9 5.3-.3 10.7-.3 16.1-.2z" fill="#f4e598"/><path d="M641 1019c1 1 1 1 1.3 3.3-.3 2.7-.3 2.7-2.2 4.6q-1.3.8-2.7 1.7c-9.2 7-13.9 16.5-15.8 27.8q-.4 2.8-.6 5.6h-11c-.9-14.5 6.4-25.9 15.6-36.5 4.2-4.8 8.8-8.8 15.4-6.5z" fill="#b74c00"/><path d="M602 1018c1 1 1 1 1.6 3.6-.6 3.4-.6 3.4-2.4 4.9l-2.3 1.5c-10.7 7.7-13.3 21.8-15.9 34h-9c1.2-14.4 5.1-31.4 16.4-41.4 4.3-3.3 6.2-3.7 11.6-2.6z" fill="#b64b00"/><path d="M740 305c0 3.9-1.3 5-3.6 8.1q-1 1.5-2.2 3-3.8 5-7.9 9.9c-1.3 2-1.9 3.6-2.3 6l5 2q-.5 1-1 2c-4.8-.8-4.8-.8-7-3 0-6.1 3.5-9.6 7.3-14q.8-1 1.7-2.1 2.5-2.9 5-5.9 2.5-3 5-6z" fill="#082e33"/></svg>