<svg xmlns="http://www.w3.org/2000/svg" width="1024" height="1024" xmlns:v="https://vecta.io/nano"><path d="M477.6 245.9l2.4 2.1q1.2 1.1 2.5 2.1c9.4 8.4 18.4 17.3 26.5 26.9 1 1.2 1 1.2 3.2 1.4 4.2-.6 5.8-3.4 8.2-6.5q1.6-2 3.2-3.9.9-1 1.7-2c8.8-10.3 18.8-19 29.7-27q1.6-1.2 3.2-2.4c34-24.2 73.5-37 115.2-36.9q3.9 0 7.7-.1c11 0 21.2 1.1 31.9 3.4q1.1.2 2.2.5c24.6 5.2 49 14.2 69.8 28.5q.8.6 1.7 1.1c20 13.7 38.1 30.2 52.3 49.9q.6.9 1.3 1.7c31.6 44.1 44.5 101.2 36.1 154.8-12.2 68.6-54 114.3-101.6 161.8q-5.1 5.1-10.1 10.2-8.5 8.5-17 16.9-9.8 9.8-19.6 19.6-8.4 8.5-16.9 16.9-5 5.1-10.1 10.1-4.7 4.7-9.4 9.4-1.7 1.8-3.4 3.5c-9.8 9.7-9.8 9.7-14.3 13.5-4.1 3.5-7.6 7.5-11.3 11.4-5.6 6.2-11.4 12.1-17.3 17.9q-1.8 1.9-3.6 3.7-4.9 4.9-9.7 9.7-3.1 3.1-6.1 6.1-9.6 9.6-19.1 19.2-11 11-22 22-8.5 8.6-17.1 17.1-5.1 5.1-10.1 10.2-4.8 4.8-9.6 9.6-1.7 1.7-3.5 3.4c-18.3 18.5-18.3 18.5-29.7 19.6-16.8.1-24.1-8.4-35.4-19.7q-4.4-4.4-8.8-8.7-2.3-2.4-4.6-4.7-4.9-4.9-9.8-9.8-6.2-6.2-12.5-12.4-4.8-4.9-9.6-9.7-2.3-2.3-4.6-4.6-3.2-3.2-6.4-6.4-1-.9-1.9-1.9c-3-3-5.8-6-8.5-9.1-3.8-4.3-7.7-8.4-11.8-12.4q-1.2-1.2-2.4-2.4-3.8-3.9-7.7-7.7-2.8-2.8-5.6-5.6-6.8-6.8-13.5-13.6-5.6-5.5-11.1-11-.7-.8-1.6-1.6-1.6-1.6-3.1-3.2-15-14.9-30-29.9-12.8-12.8-25.6-25.6-14.9-14.9-29.8-29.9-1.6-1.5-3.2-3.1-.8-.8-1.6-1.6-5.5-5.5-11-11-6.7-6.7-13.4-13.4-3.4-3.5-6.8-6.9-3.8-3.7-7.5-7.4c-1-1.1-1-1.1-2.1-2.2-4-3.9-8-7.7-12.3-11.3-17.4-15.2-30.6-36.5-41.7-56.5q-.5-.9-1.1-1.9c-9-16.4-15.1-34.4-19.3-52.6-.4-1.5-.4-1.5-.7-3-3.1-14-4.2-27.9-4.2-42.2q.1-3.4 0-6.8c0-54.6 23.5-104.7 61.3-143.5 17.2-17.1 37.2-29.7 59-40q1.6-.8 3.3-1.6c68-30.9 151.5-18.7 208.3 29.5z" fill="#fe4a43"/><path d="M554.3 338c5.6-.1 9 .8 13.7 4 4.3 4.3 5.9 8.6 6.2 14.6q0 2.2 0 4.4-.1 1.2-.1 2.5 0 3 0 6-.1 6-.2 12.1-.2 13.5-.4 27.1-.1 6.5-.1 13-.2 12.6-.4 25.3 1.8 0 3.7 0 17.2-.1 34.3-.2 8.8 0 17.7 0 8.5-.1 17-.1 3.3 0 6.5 0 4.6 0 9.1 0 1.4-.1 2.7-.1c5.1.1 8.6.6 13 3.4 1.6 1.7 1.6 1.7 2.8 3.4q.6.9 1.2 1.8c1.7 3.2 2.1 6.2 2.1 9.8q0 1.2 0 2.4 0 1.3 0 2.7 0 1.3 0 2.7 0 4.6-.1 9.1 0 1.6 0 3.2-.1 8.2-.1 16.4-.1 8.5-.1 17-.1 6.5-.1 13-.1 3.2-.1 6.3 0 4.4 0 8.7 0 1.3 0 2.6c-.1 5.8-1.3 9.2-4.6 13.9-4.6 3.7-8.3 5.1-14.1 5.1h-2.5q-1.3 0-2.7 0-1.4 0-2.8 0-4.6 0-9.3 0-3.2 0-6.4 0-8.5 0-17 0-8.6 0-17.3-.1-16.9 0-33.9 0 0 1 0 2.1.5 24 .8 48 .2 9.1.3 18.1.1 6.3.2 12.5 0 2.2.1 4.3c.1 7.8-.1 13.4-4.4 20-5.1 5.1-10.7 6.2-17.6 6.3q-1.3 0-2.6 0-1.4 0-2.8 0-4.5 0-8.9 0-3.2 0-6.3 0-6.5 0-13.1 0-8.4 0-16.7.1-6.5 0-13 0-3 0-6.1 0-4.4 0-8.7 0-1.3 0-2.6 0c-5.7-.1-9.9-1.1-14.4-4.9q-.7-.9-1.4-1.7-.8-.8-1.5-1.6c-3.6-6-3.6-12.8-3.4-19.6q0-1.3 0-2.7 0-4.4.1-8.8.1-3.1.1-6.2.1-8 .2-16.1.1-8.2.2-16.5.3-16.1.5-32.3h-3.6q-16.5.1-33.1.2-8.6 0-17.1 0-8.2.1-16.5.1-3.1 0-6.3 0-4.4 0-8.8 0c-1.3.1-1.3.1-2.6.1-6.3-.1-12-1-17.1-5.1q-.6-.8-1.3-1.7-.7-.9-1.5-1.8c-1.9-3.1-2.2-6.2-2.2-9.8q0-1.2-.1-2.4 0-1.3 0-2.6 0-1.3 0-2.7 0-4.5 0-9 0-3.1 0-6.3 0-6.5 0-13.1-.1-8.4-.1-16.8 0-6.4 0-12.9 0-3.1 0-6.2-.1-4.3-.1-8.6v-2.6c.1-5.9.9-10.9 4.9-15.5 5.9-4.4 5.9-4.4 10.5-4.4q1.2 0 2.5 0h2.8q1.5 0 2.9 0 4.8 0 9.7 0 3.3 0 6.6 0 8.8 0 17.5 0 9 0 17.9.1 17.6 0 35.1 0v-3.6q-.1-17-.2-34 0-8.8 0-17.5-.1-8.4-.1-16.9 0-3.2 0-6.4 0-4.5 0-9-.1-1.3-.1-2.7c.1-5.8.9-10.1 4.9-14.5 5.4-4.2 9.3-4.6 15.9-4.6q1.3 0 2.6 0 4.2-.1 8.5-.1 2.9 0 5.9-.1 7.8-.1 15.6-.1 7.9-.1 15.8-.2 11.6-.1 23.2-.2 1.2 0 2.4 0 2.2-.1 4.5-.1 2.2 0 4.4 0z" fill="#fefaf3"/></svg>