<svg xmlns="http://www.w3.org/2000/svg" width="1024" height="1024" xmlns:v="https://vecta.io/nano"><path d="M512.9 98.8q1.3 0 2.6 0c82.4.2 162 26.4 228.5 75.2q1 .7 2 1.4c6.4 4.8 12.6 9.8 18.5 15.3q2 1.9 4.2 3.7c5.8 5 11.2 10.4 16.7 15.8q2.3 2.3 4.7 4.6c6.4 6.4 12.3 13.1 17.9 20.2q1.3 1.6 2.7 3.2c10.1 11.9 18.8 24.7 27.3 37.8q1 1.5 2 3c37.7 59.4 56.5 130.2 56.4 200.3v3.5c-.1 19.4-1 38.1-4.4 57.2q-.3 1.8-.6 3.7c-8.3 46.2-25.3 90.2-49.4 130.3q-.7 1.2-1.5 2.5c-7 11.6-14.7 22.6-22.9 33.4q-2.2 2.9-4.4 6-.6.8-1.3 1.7-1.6 2.2-3.2 4.4c-.9 1-.9 1-1.7 2q-1 0-2 0-.3.8-.7 1.6c-6.2 11.3-17.4 20.7-26.4 29.8q-.8.7-1.6 1.5c-6.7 6.9-13.8 13.1-21.3 19.1q-2.5 2.1-5 4.2c-53.5 43.4-117.9 70.1-186 79.8-1.5.2-1.5.2-3 .5-61.8 9.3-124.8-1.2-183.3-21.8q-1-.3-2-.7-2.7-.9-5.4-1.9c-1.6-.5-1.6-.5-3.3-1.1q-1.7-.6-3.5-1.3c-4.4-.9-6.3-.1-10.4 1.7-1 .5-1 .5-2 .9q-3.1 1.4-6.3 2.8-2.2 1-4.4 2-4.6 2-9.1 4l-18.5 8q-12.2 5.2-24.4 10.5-1.8.8-3.6 1.6-1 .4-1.9.8l-39.6 16.9q-2.6 1.1-5.1 2.2l-2.4 1q-7 3-13.9 5.9-1.4.7-3 1.3-2.5 1.2-5.1 2.3c-7 3-12.7 4.7-20.3 2.3-6.1-3.3-11.3-7.1-13.5-13.9-.9-9 1.2-17.1 3.5-25.7q.5-2.1 1.1-4.2 1.1-4.4 2.3-8.7 2.4-9.4 4.7-18.8.5-2 1-4 3.3-13 6.3-26.2c2.3-10.2 4.9-20.4 7.5-30.6q1-3.8 1.9-7.7c1.8-7 3.6-14 5.9-20.9 3-8.6 3-8.6 2-17.4-2.8-4.7-6.5-8.6-10.2-12.5-3.6-4.1-6.5-8.6-9.5-13.1q-.9-1.3-1.9-2.8c-33.3-49.6-56.7-104.9-63.7-164.6q-.2-1.1-.3-2.2c-1.3-11.5-2.4-23-2.6-34.6q0-1.5-.1-3c-2.2-93.3 30.8-190.9 94.9-259.7 1.9-1.9 3.6-3.9 5.3-5.9 4.4-5.1 9.2-9.8 13.9-14.5q1.3-1.3 2.6-2.7C257.9 191 257.9 191 261 191q0-1 0-2c1.4-1.3 1.4-1.3 3.5-2.9l2.5-1.9q1.5-1.1 3-2.2 1.8-1.4 3.6-2.8c8.9-6.8 18-13.2 27.4-19.2q1.5-1 3.1-2c18.4-11.6 37.9-21.2 57.9-30 1.3-.6 1.3-.6 2.5-1.1 31-13.7 64.5-20.5 97.8-25.2 1.7-.3 1.7-.3 3.4-.5 15.7-2.1 31.4-2.4 47.2-2.4z" fill="#f8a61e"/><path d="M512.9 98.8q1.3 0 2.6 0c82.4.2 162 26.4 228.5 75.2q1 .7 2 1.4c6.4 4.8 12.6 9.8 18.5 15.3q2 1.9 4.2 3.7c5.8 5 11.2 10.4 16.7 15.8q2.3 2.3 4.7 4.6c6.4 6.4 12.3 13.1 17.9 20.2q1.3 1.6 2.7 3.2c10.1 11.9 18.8 24.7 27.3 37.8q1 1.5 2 3c37.7 59.4 56.5 130.2 56.4 200.3v3.5c-.1 19.4-1 38.1-4.4 57.2q-.3 1.8-.6 3.7c-8.3 46.2-25.3 90.2-49.4 130.3q-.7 1.2-1.5 2.5c-7 11.6-14.7 22.6-22.9 33.4q-2.2 2.9-4.4 6-.6.8-1.3 1.7-1.6 2.2-3.2 4.4c-.9 1-.9 1-1.7 2q-1 0-2 0-.3.8-.7 1.6c-6.2 11.3-17.4 20.7-26.4 29.8q-.8.7-1.6 1.5c-6.7 6.9-13.8 13.1-21.3 19.1q-2.5 2.1-5 4.2c-53.5 43.4-117.9 70.1-186 79.8-1.5.2-1.5.2-3 .5-61.8 9.3-124.8-1.2-183.3-21.8q-1-.3-2-.7-2.7-.9-5.4-1.9c-1.6-.5-1.6-.5-3.3-1.1q-1.7-.6-3.5-1.3c-4.4-.9-6.3-.1-10.4 1.7-1 .5-1 .5-2 .9q-3.1 1.4-6.3 2.8-2.2 1-4.4 2-4.6 2-9.1 4l-18.5 8q-12.2 5.2-24.4 10.5-1.8.8-3.6 1.6-1 .4-1.9.8l-39.6 16.9q-2.6 1.1-5.1 2.2l-2.4 1q-7 3-13.9 5.9-1.4.7-3 1.3-2.5 1.2-5.1 2.3c-7 3-12.7 4.7-20.3 2.3-6.1-3.3-11.3-7.1-13.5-13.9-.9-9 1.2-17.1 3.5-25.7q.5-2.1 1.1-4.2 1.1-4.4 2.3-8.7 2.4-9.4 4.7-18.8.5-2 1-4 3.3-13 6.3-26.2c2.3-10.2 4.9-20.4 7.5-30.6q1-3.8 1.9-7.7c1.8-7 3.6-14 5.9-20.9 3-8.6 3-8.6 2-17.4-2.8-4.7-6.5-8.6-10.2-12.5-3.6-4.1-6.5-8.6-9.5-13.1q-.9-1.3-1.9-2.8c-33.3-49.6-56.7-104.9-63.7-164.6q-.2-1.1-.3-2.2c-1.3-11.5-2.4-23-2.6-34.6q0-1.5-.1-3c-2.2-93.3 30.8-190.9 94.9-259.7 1.9-1.9 3.6-3.9 5.3-5.9 4.4-5.1 9.2-9.8 13.9-14.5q1.3-1.3 2.6-2.7C257.9 191 257.9 191 261 191q0-1 0-2c1.4-1.3 1.4-1.3 3.5-2.9l2.5-1.9q1.5-1.1 3-2.2 1.8-1.4 3.6-2.8c8.9-6.8 18-13.2 27.4-19.2q1.5-1 3.1-2c18.4-11.6 37.9-21.2 57.9-30 1.3-.6 1.3-.6 2.5-1.1 31-13.7 64.5-20.5 97.8-25.2 1.7-.3 1.7-.3 3.4-.5 15.7-2.1 31.4-2.4 47.2-2.4zM470 137q-1.8.2-3.7.5c-37.9 4.8-73.8 15.3-108.3 31.5q-1.3.6-2.7 1.3c-18.5 8.7-36 19.4-52.3 31.7q-1.1.8-2.1 1.6c-8.8 6.7-17.3 13.5-25.4 21q-3.2 3.1-6.6 6c-7.6 6.5-14.5 13.7-20.9 21.4q-.7.8-1.4 1.6C227.1 277 211.7 301.8 198 329l-1.2 2.4c-7.4 14.4-12.7 29.4-17.8 44.6q-.4 1.2-.8 2.5c-5.3 16-8.2 32.8-10.9 49.4q-.1 1-.3 2-.5 3.6-1 7.1-.3 1.9-.5 3.8c-1.6 12.1-1.9 24-1.8 36.2q0 1.5 0 3c0 14.6.6 28.9 2.9 43.4q.6 3.7 1.1 7.5c2.5 18.7 7.1 37.3 13.3 55.1q.4 1.1.8 2.2c15.1 43.4 38.8 83.8 69.4 118.2 2.2 2.5 3.7 4.4 4.8 7.6-.4 2.4-.4 2.4-1.1 5.2q-.4 1.7-.9 3.3-.4 1.8-.9 3.6-.7 2.9-1.5 5.7-.8 3.1-1.6 6.2-1.6 6.3-3.3 12.7-.5 2.2-1.1 4.3-.2 1.1-.5 2.2-.9 3.3-1.7 6.7l-11.1 44q-1.3 5.2-2.6 10.3-.8 3.1-1.6 6.3-1.6 6.7-3.4 13.5-.3 1.1-.6 2.2-.8 2.9-1.5 5.8c-.6 2.8-.6 4.3.4 7q.8-.3 1.6-.7 19-8.3 38-16.4 18.5-7.9 36.9-15.9 25-10.8 50.1-21.5 2.6-1.2 5.3-2.4c5.1-2.2 7.8-2.4 13-.4q3.3 1.4 6.6 2.9c85.4 36.7 180.2 37 272 2.4 20.6-8.3 40.3-19.3 58.5-32q1.5-1 3.1-2.1c8.3-5.6 16.1-11.6 23.9-17.9q.8-.6 1.6-1.3c5.1-4 9.9-8.1 14.4-12.7q1.5-1.5 3.1-3.1c5.2-5.1 10.4-10.2 15.1-15.8 2.2-2.6 4.6-5.1 6.9-7.5 6.3-6.8 11.8-14.1 17.3-21.5q2.2-2.9 4.3-5.6c52.7-68.7 74.8-161.3 63.7-246.7q-.6-4.4-1.4-8.8-.2-1.5-.5-3.1c-10.3-62.7-37.9-124.5-81.2-171.4q-2.8-3.1-5.6-6.3c-3.7-4.3-7.6-8.3-11.6-12.3q-1-1-2.1-2c-19.3-19.3-41.5-35.2-65-48.9q-1.1-.6-2.2-1.3C662 165 633.1 153.7 603 146q-1.5-.4-3-.8c-15.6-3.9-31-6.7-47-8.2q-1.5-.2-3-.3c-26.5-2.7-53.6-3.1-80 .3z" fill="#094779"/><path d="M631.6 267c24.1 21.9 40.4 50.4 42.6 83.4.7 15.7-1.4 30.3-5.2 45.6q-.3 1.1-.6 2.2c-6.8 25.7-24.1 47.3-42.4 65.8q-1.1 1.1-2.1 2.2c-13.2 13.4-13.2 13.4-18.7 18.1-20.7 17.9-42.1 38.8-47.2 66.7q-.4 2-.8 4c-1.2 6.4-2.2 12.8-2.9 19.3-1.3 12.1-4.5 23.8-14 32-6.7 3.4-13.7 6.2-21.3 6.7q-1.2.1-2.5.2c-11.9.5-26.7-2.1-36.5-9.2-8.6-8.4-11.9-21.3-12.1-33.1.1-15.9 2.4-32 8.1-46.9q.6-1.8 1.3-3.6c6.4-17.1 15.2-32.3 26.7-46.4q.7-.8 1.4-1.7c12-14.9 25.6-28.4 39.2-41.8 5.3-5.3 10.5-10.7 15.4-16.5 1.2-1.3 1.2-1.3 2.4-2.7 14.5-17.1 22.9-36.7 21.6-59.3-1.5-10.4-5.4-20.6-13-28q0-1 0-2l-1.8-.8c-2.3-1.3-4.1-2.7-6.1-4.5-17.1-13.4-39.1-16-60.1-14.7-14.3 1.7-29.4 9.3-40 19-1.2 1.1-1.2 1.1-2.4 2.1-12 11.2-18.9 25-25.4 39.8-4.3 9.6-8.8 16.9-18.5 21.8-17.6 6.4-37.7-3.9-53.7-10.7-6.5-3.4-10.7-9.1-13-16-1.2-11.3 1.5-19.9 6-30q.5-1.1 1-2.3c5-11.4 10.7-21.7 18-31.7q1.1-1.6 2.3-3.3c24.5-33.5 62-54.5 102.8-60.9 52.9-7.4 110.6.9 151.5 37.2zm-82.8 382.3c9.7 10.4 13.6 23.2 13.3 37.3-.7 13-5.8 25-14.9 34.4-9.1 8.1-20.1 13.2-32.2 14q-1.1.1-2.3.2c-13.3.5-26.3-4.4-36.1-13.4-10.7-11.7-15.2-25.8-14.9-41.4.9-9.8 4.7-18.4 10.3-26.4q.7-.9 1.3-1.9c7.2-9.4 19.5-15.2 31-16.9 16.4-1.2 32.3 2.7 44.5 14.1z" fill="#09477a"/><path d="M469 543q1 0 2 0-.9 11.5-2 23-.5 0-1 0l-.4-3.3c-.4-2.6-.9-5.1-1.6-7.7q1 0 2 0l1-12z" fill="#e1a71c"/><path d="M244 761q.5 0 1 0 0 2.7.1 5.3 0 1.5 0 3c-.1 2.7-.1 2.7-1.1 5.7q-1.5 0-3 0l3-14z" fill="#e5a71e"/><path d="M815 649q.5 1 1 2l-1.9 4.6q-.6 1.2-1.2 2.5-.4.9-.9 1.9-1.5-.5-3-1l6-10z" fill="#0d3d85"/><path d="M146 364q1 1.5 2 3c-.8 3.1-.8 3.1-2 6l-2 1q-.5 1-1 2c.9-8.6.9-8.6 3-12z" fill="#0b3367"/><path d="M188 351c1.3 4.1.7 6.4-1.1 10.3q-.4.8-.9 1.7-1 0-2 0 2-6 4-12z" fill="#e9ad18"/><path d="M428 248c-.6 1.9-.6 1.9-2 4-3.1 1.3-3.1 1.3-6 2 1-2.5 1.7-3.8 4-5.3 2-.7 2-.7 4-.7z" fill="#0f3f81"/><path d="M854 399q.5 0 1 0v9l-2 1-1-7q1 0 2 0 0-1.5 0-3z" fill="#1b477a"/><path d="M402 806q4 2 8 4c-3.8 1.3-5.4.4-9-1q.5-1.5 1-3z" fill="#e9a71a"/><path d="M186 600c2 3 2.9 5.6 4 9q-1.5 0-3 0l-1-9z" fill="#1c447e"/></svg>