<svg xmlns="http://www.w3.org/2000/svg" width="1024" height="1024" xmlns:v="https://vecta.io/nano"><path d="M525 79c12.4 8.9 22 22.5 31.3 34.5q3.4 4.5 7 8.9c5.6 6.9 11 13.9 16.2 21.1q5.7 7.8 11.5 15.4c7 9 13.6 18.1 19.9 27.6l6.9 9.7c4.6 6.3 9 12.8 13.4 19.3q2.5 3.7 5.1 7.5.6.9 1.2 1.8 4.3 6.3 8.6 12.6c8.5 12.4 16.7 25 24.9 37.6q1 1.6 2 3.2c20.9 32.2 40.5 65.2 59 98.8l1.7 3.1c40.6 73.8 81.2 157.8 80.7 243.9q0 4.7 0 9.5a231.75 231.75 0 0 1-6.7 55.6c-.4 1.9-.4 1.9-.9 3.9-2.6 10.6-5.7 20.8-9.8 31q-.5 1.3-1 2.5c-10.8 27-25.2 51.6-43 74.5q-1.1 1.4-2.1 2.8c-13.8 17.6-30.1 34.8-47.9 48.2-1.4 1.1-1.4 1.1-2.8 2.3-14.7 11.6-30.6 21.9-47.2 30.7q-.9.5-1.9 1c-33.4 17.7-70.6 27.9-108.1 32q-1.3.1-2.6.3c-9.1.9-18.2.9-27.4.9q-1.2 0-2.5 0c-12.3 0-24.3-.3-36.5-2.2-1.5-.2-1.5-.2-3.1-.5-58.5-8.9-114.9-33.2-158.7-73.5q-2.9-2.7-6-5.3c-8.7-7.6-16.8-15.9-24-25l-7-8.3c-32.8-39.5-53.2-87.6-62-138-.1-1-.1-1-.3-2-12.7-78.9 17.1-159.1 50.6-229.2q2.2-4.7 4.4-9.4c14.4-30.4 30.9-59.8 48.1-88.8q.8-1.3 1.6-2.7l20.9-33.9q2.2-3.5 4.4-7c11-17.6 22.6-34.7 34.1-52q5-7.4 9.9-14.8c7.5-11.4 15.2-22.6 23.1-33.6q.8-1.1 1.5-2.2l23.7-32.4q2.6-3.5 5.2-7.1c12.8-17.4 25.8-34.7 39.6-51.3q.8-.9 1.6-1.9C505.7 69 505.7 69 525 79z" fill="#1093ef"/><path d="M525 79c12.4 8.9 22 22.5 31.3 34.5q3.4 4.5 7 8.9c5.6 6.9 11 13.9 16.2 21.1q5.7 7.8 11.5 15.4c7 9 13.6 18.1 19.9 27.6l6.9 9.7c4.6 6.3 9 12.8 13.4 19.3q2.5 3.7 5.1 7.5.6.9 1.2 1.8 4.3 6.3 8.6 12.6c8.5 12.4 16.7 25 24.9 37.6q1 1.6 2 3.2c20.9 32.2 40.5 65.2 59 98.8l1.7 3.1c40.6 73.8 81.2 157.8 80.7 243.9q0 4.7 0 9.5a231.75 231.75 0 0 1-6.7 55.6c-.4 1.9-.4 1.9-.9 3.9-2.6 10.6-5.7 20.8-9.8 31q-.5 1.3-1 2.5c-10.8 27-25.2 51.6-43 74.5q-1.1 1.4-2.1 2.8c-13.8 17.6-30.1 34.8-47.9 48.2-1.4 1.1-1.4 1.1-2.8 2.3-14.7 11.6-30.6 21.9-47.2 30.7q-.9.5-1.9 1c-33.4 17.7-70.6 27.9-108.1 32q-1.3.1-2.6.3c-9.1.9-18.2.9-27.4.9q-1.2 0-2.5 0c-12.3 0-24.3-.3-36.5-2.2-1.5-.2-1.5-.2-3.1-.5-58.5-8.9-114.9-33.2-158.7-73.5q-2.9-2.7-6-5.3c-8.7-7.6-16.8-15.9-24-25l-7-8.3c-32.8-39.5-53.2-87.6-62-138-.1-1-.1-1-.3-2-12.7-78.9 17.1-159.1 50.6-229.2q2.2-4.7 4.4-9.4c14.4-30.4 30.9-59.8 48.1-88.8q.8-1.3 1.6-2.7l20.9-33.9q2.2-3.5 4.4-7c11-17.6 22.6-34.7 34.1-52q5-7.4 9.9-14.8c7.5-11.4 15.2-22.6 23.1-33.6q.8-1.1 1.5-2.2l23.7-32.4q2.6-3.5 5.2-7.1c12.8-17.4 25.8-34.7 39.6-51.3q.8-.9 1.6-1.9C505.7 69 505.7 69 525 79zm-13 62q-2.6 3.3-5.1 6.7-1.6 2.2-3.3 4.4-.8 1.2-1.7 2.4l-9.8 12.8c-10.1 13.3-20 26.7-29.6 40.4q-5.4 7.6-10.9 15.2c-6.1 8.4-12 16.9-17.9 25.5q-2.7 4.1-5.5 8.2C374.2 335.5 322.3 417.8 265 583c-.2 1.4-.2 1.4-.5 2.8-7.9 47.4-1.2 94.9 19.5 138.2q.5 1.1 1.1 2.3c11 22.8 26.4 43.5 43.9 61.7q1 1 2 2.1c8.9 9.2 17.8 18 28.2 25.5q2.9 2.3 5.9 4.5C380.7 832 398 841.3 416 849c1 .4 1 .4 2 .9 29.6 12.7 62 18.3 94.1 18.4q1.1 0 2.1 0c52.4-.1 104.7-17 146.8-48.3q.9-.7 1.8-1.4c8.9-6.6 17.2-13.9 25.2-21.6q.9-.8 1.8-1.7c7.6-7.4 14.7-14.9 21.2-23.3q1.2-1.4 2.3-2.9C736.9 739.5 752.5 705 760 668q.3-1.4.6-2.8c2.5-12.9 2.6-25.8 2.6-38.9q.1-1.4.1-2.8c-.1-14.1-.6-27.7-3.3-41.5q-.2-1.3-.5-2.7c-12.2-65.1-43.7-127.6-76.3-184.7-2.6-4.5-5.1-9-7.5-13.6-11.1-20.6-23.5-40.3-36.3-59.8q-4.5-6.9-8.8-13.9c-4.1-6.5-8.3-12.9-12.6-19.3q-1.6-2.5-3.3-4.9-17.7-26.7-36.1-52.8-2.3-3.3-4.7-6.7c-14-19.9-28.2-39.8-43.2-59q-3.3-4.4-6.6-8.8-1-1.4-2.1-2.8-2-2.8-4.1-5.6-.9-1.2-1.9-2.5l-1.7-2.3q-.6-.8-1.3-1.6-.5 0-1 0z" fill="#00225f"/><path d="M473 108q1 0 2 0c-.3 1.9-.3 1.9-1 4q-2 1-4 2l-2 4-2 1c1.7-4 4.1-7.7 7-11z" fill="#071751"/></svg>