<svg xmlns="http://www.w3.org/2000/svg" width="1024" height="1024" fill-rule="evenodd" fill="#094a76" xmlns:v="https://vecta.io/nano"><path d="M348.1 212.6q3.1 0 6.2-.1c10.6-.1 21.2 1.1 29.1 8.7a22.91 22.91 0 0 1 2.3 2.1c5 6 8.1 13.1 10.9 20.4q.5 1.2.9 2.4 1.6 4.1 3.2 8.1 1.1 2.8 2.2 5.7 3 7.5 5.9 15 3 7.6 5.9 15.2 4.6 11.7 9.2 23.4 6.9 17.6 13.8 35.3 2.1 5.2 4.1 10.4l1.5 3.7q1.3 3.4 2.6 6.8 3.9 9.9 7.9 19.8l11.7 29.7 17.8 45.1q6.7 16.6 13.3 33.3.4 1 .8 2.1 2.4 6.1 4.8 12.2 3.7 9.6 7.5 19.1.4 1 .8 2.1 5.2 13.1 10.4 26.1l18.3 46.2q1.7 4.4 3.4 8.8.8 1.9 1.6 3.9.4.9.7 1.9 2.4 6 4.8 12.1 2.1 5.4 4.3 10.8c3.9 9.6 5.9 17.3 2.4 27.3-4.6 10-12.2 15.4-22.2 19.4-6.3 2.1-12.8 1.9-19.4 1.8q-3.3 0-6.5.1c-11.2.1-21.2-1.4-29.5-9.5-8-9-11.6-20.9-15.8-32q-1.3-3.3-2.6-6.7L439 587H249c-3.1 7.3-6 14.6-8.8 22q-1.1 2.8-2.1 5.6-.6 1.5-1.1 2.9-2.8 7.6-5.7 15.1-.5 1.5-1.1 3-1.1 2.8-2.2 5.7-1 2.6-1.9 5.1-2.6 6.9-5.3 13.8-.6 1.7-1.2 3.3c-3.9 10-8.9 19.6-18.8 24.6-7.7 3.1-14.9 3.5-23.1 3.4q-3.2 0-6.5 0c-11.9.1-22.5-1.6-31.3-10.2-4.4-5.3-7.5-11.4-7.9-18.3q-.1-.9-.1-1.9c-.3-6.4 1.2-11.2 3.7-17q.6-1.4 1.1-2.8 1.3-3.1 2.5-6.1 2.6-6.4 5.2-12.9 1.4-3.3 2.7-6.6c4.3-10.6 8.4-21.3 12.4-32q2-5.1 3.9-10.3.5-1.2 1-2.5l12.2-31.4q3.9-9.9 7.8-19.8.4-1.1.9-2.1 5.7-14.5 11.3-29l17.5-44.8q8.7-22.4 17.5-44.7 6.9-17.9 13.9-35.6 5.9-15.1 11.8-30.2 2.7-6.8 5.4-13.6l10.5-27q7-18.1 14.6-36 1-2.3 2-4.6c12.2-29 12.2-29 26.7-35.2 10.2-3.6 20.9-4.4 31.6-4.3zM339 341.9q-.4 1.1-.8 2.2-.9 2.4-1.9 4.7-2.6 6.8-5.2 13.6-.6 1.5-1.2 2.9-6.5 16.9-13.2 33.8l-22 56.1q-4.3 11.4-8.8 22.6-1.1 2.7-2.2 5.4-2.1 5.3-4.2 10.5-.9 2.4-1.9 4.8-.5 1.2-.9 2.3-.8 2-1.7 4.1c-1 3.1-1 3.1 0 5.1q25.5 0 51.1.1 12.4 0 24.8 0 10.9 0 21.8 0 5.8 0 11.5 0 5.5 0 11.1 0 2 0 4 0 2 0 3.9 0 1.8 0 3.5 0h3c2.3-.1 2.3-.1 3.3-1.1-2.7-7.6-5.6-15.1-8.6-22.6q-2.4-6.1-4.7-12.1-.6-1.3-1.1-2.7-6.4-16.1-12.8-32.4L345 336q-1.5 0-3 0c-1.1 1.1-1.1 1.1-3 5.9zm373.5-28.1q1.1 0 2.3 0 2.3 0 4.6 0 3.6-.1 7.1-.1 2.3 0 4.6 0 1 0 2.1-.1c5.9.1 9.9 1.5 14.1 5.6 3.6 5.7 4 11.6 4.1 18.1 0 1.2 0 1.2.1 2.4q.1 3.6.1 7.2.1 2.5.1 5 .2 6 .3 12.1.9 0 1.9 0 22.4.1 44.9.2 10.9.1 21.7.1 9.5.1 19 .1 5 .1 10 .1 5.6 0 11.3.1 1.6 0 3.3 0c7 0 15.1.3 20.8 5 6.2 6.5 7.6 14.2 7.5 22.8q0 1.2 0 2.4c0 8.4-2.1 15.2-7.4 21.7-6.3 4.8-13.1 4.9-20.6 4.8q-1.5 0-3 0-4.7 0-9.4-.1-3.2 0-6.4-.1-7.8 0-15.6-.1-.5 1.4-1 2.9c-15.3 43.8-33.8 85.6-63 122.1 3.9 4.8 8 9 12.9 12.9 1 .9 1 .9 2 1.7 18.3 14.4 38.3 26.3 59.2 36.3q1.4.8 3 1.5 2.8 1.4 5.7 2.7c6.7 3.2 11.1 6.8 14.5 13.5 2.5 9 .2 16.1-4.2 24.1-4.3 6.9-8.9 13.2-17.1 15.3-21.5 3.9-47.6-17.6-64.7-28.5q-4.4-2.8-8.8-5.5c-14.7-9.1-28.5-19.6-41.5-31-3.4 1.5-5.6 3.4-8.2 5.9-23.1 21.1-51.6 36.1-78.7 51.5q-1.4.8-2.9 1.6c-1.3.8-1.3.8-2.6 1.5q-1.2.7-2.3 1.3c-7.5 3.9-14.8 4.5-23.1 2.5-9-3.7-13.9-12.4-17.9-20.9-2.6-6.7-3.1-12.7-.5-19.4 3.4-5.8 6.9-8.8 13-11.6q2.1-1 4.3-2c1.1-.6 1.1-.6 2.3-1.1 5.1-2.5 10-5.2 14.9-7.9q1.5-.8 3-1.6c17.9-9.7 34.5-21.4 49.7-34.8l2.6-2.2q2.7-2.4 5.4-4.8c-2.1-3.7-4.4-7.1-6.9-10.5-7.4-10.1-13.9-20.7-20.1-31.5q-.7-1.2-1.5-2.5C624 444 624 444 624 421q-.9 0-1.9 0-9.7.1-19.4.2-3.6 0-7.2 0-5.2.1-10.5.1h-3.2c-6.9 0-14.1-.2-19.6-4.9-6.5-6.6-7.7-15-7.6-23.9q0-1.2 0-2.4c0-6.9 1.5-13.1 5.2-19 7.4-7.2 17.2-6.2 26.8-6.2h3.5q5.7 0 11.4 0 3.9 0 7.9 0 9.3 0 18.7 0 10.6 0 21.2 0 21.9.1 43.7.1v-3.3q-.1-6-.2-12.1 0-2.6 0-5.2-.1-3.8-.1-7.5 0-1.2 0-2.4c0-5.7.7-11.6 4.7-16.1 4.9-4.2 8.9-4.6 15.1-4.6zm-29.3 116.5l1.4 3.5q1.3 3 2.5 5.9c.5 1.1.5 1.1.9 2.1 4.5 10.7 9.1 21.3 14.9 31.4q.6.9 1.1 1.8 6.3 11.1 13.4 21.7.7 1.1 1.4 2.2 1.3 2 2.7 4c2.5 3.1 2.9 3.5 6.5 4.1 6.1-8.3 11.5-16.9 16.7-25.7q.6-1.2 1.3-2.3c6.2-10.5 11.1-21.6 16-32.8q.5-1.2 1-2.4 1.5-3.5 3-7c.5-1.1.5-1.1.9-2.2 2-4.6 3.3-8.6 4.1-13.6h-90c1 6 1 6 2.2 9.3z"/></svg>