<svg xmlns="http://www.w3.org/2000/svg" width="1024" height="1024" xmlns:v="https://vecta.io/nano"><path d="M707 152q.8.7 1.7 1.4c14 11.4 27.3 24.2 38.3 38.6q1.2 1.5 2.4 3c10 12.6 18.6 26.1 26.6 40q1 1.6 2 3.3c36.6 65.2 40.8 144.4 21.8 215.5-6.3 22.5-15.1 44-24.8 65.2q-.4.9-.9 1.9c-11.1 24.6-23 48.9-36 72.6q-3.3 5.8-6.5 11.8c-7.3 13.7-14.8 27.2-22.7 40.5q-3 5.1-6 10.2l-27 44.9q-4.5 7.3-8.9 14.6-17.9 29.4-36.1 58.5-2.9 4.6-5.8 9.2-9.2 14.8-18.5 29.6-5.1 8-10.1 16.1l-17.8 27.9q-5.3 8.1-10.5 16.4-11 17.5-22.2 34.8-1.1 1.7-2.2 3.4-3.1 4.9-6.4 9.8-.9 1.5-1.9 3c-4.5 6.8-9 12.5-16.5 15.8-7.4.9-14 .6-20-4-7.9-6.9-12.9-16.5-18.3-25.3-2.8-4.6-5.7-9-8.6-13.5q-1.7-2.8-3.5-5.6-.9-1.4-1.8-2.8-2.7-4.2-5.4-8.5l-16-25-15.9-24.9q-3.7-5.9-7.5-11.9-1.5-2.4-3-4.8-3-4.6-5.9-9.3l-47.2-75.8q-4.5-7.4-9.1-14.8l-25.4-42q-4-6.8-8-13.5C307 631 291.6 603.2 277 574.9q-3.5-6.9-7.2-13.6c-4.8-9-9.1-18.1-13.4-27.3q-1.4-3-2.8-5.9C215.8 448.3 199.9 362.2 230 277c11.2-30.5 27.3-58.9 48-84 .6-.8.6-.8 1.3-1.6 10.8-13.2 22.7-25.9 36.1-36.4 2.8-2.2 5.5-4.5 8.2-6.8 7.7-6.4 16-11.8 24.4-17.2q1-.6 2-1.3c92.3-58.2 212.2-59.8 357 22.3z" fill="#00aec7"/><path d="M646.8 232.1q2.6 2.4 5.2 4.9.9.8 1.8 1.7c13.9 13.2 25.8 27.5 35.2 44.3a25.29 25.29 0 0 0 1.3 2.2c9.8 17.6 17.2 35.8 21.3 55.6q.6 3 1.2 6c2.3 11.3 2.7 22.4 2.6 33.9q0 1.4 0 2.8c-.4 56.7-22.9 106.3-63 146.1-34 31.9-81.9 53-128.7 53.7q-1.3 0-2.7 0c-57.5.7-110.2-17.6-152-58.3q-2.7-2.9-5.2-5.9-1.9-2.2-3.8-4.2c-23-24.4-37.7-56.4-45-88.9q-.3-1.1-.6-2.2c-3.1-13-3.8-26-3.7-39.3q0-1.2 0-2.4c.2-55.8 22.2-105.6 61.7-144.8 10.1-9.8 21.7-17.9 33.6-25.3q.9-.6 1.8-1.1c73.8-45.5 174.3-35.6 239 21.2z" fill="#a0dcdd"/><path d="M511.7 351.6h3.1c14.2-.1 24.5 6 34.8 15.4 4.7 4.9 7.9 10.4 11.2 16.3 7 12 15.6 21.2 26.8 29.3 10.4 7.4 18.4 16.2 21.1 29.2 1.7 13.5-.5 26.1-8.7 37.2-8.3 10-18.8 15.7-31.7 17.3-2.7.2-5.4.3-8.1.3q-1.5 0-3 0c-10.3-.2-19.4-3.2-29-6.8-12.3-4.2-26.6-2.3-38.4 2.5-8.4 3.3-15.6 4.2-24.6 4.3q-1.6 0-3.2 0c-12.5-.2-23.1-5.6-32.3-13.8-6.2-6.4-9.7-13.2-11.7-21.8q-.3-.9-.6-1.9c-2.4-11.5.2-23 6.4-32.9 4.3-6 9.2-11.1 15.5-15.1 12.3-7.9 18.9-17.2 25.1-30.1 7.1-13.9 18.3-22 32.3-28.2 5-1.2 9.9-1.2 15-1.2z" fill="#fe9f00"/><path d="M577.2 243.8c6.7 4.3 11.4 11.8 13.4 19.4 4.3 21.1 1.2 42.7-10 61.1-5.8 8.3-13.5 15.4-23.6 17.7-7.1.9-13.4 1-19.3-3.4-10.9-10.3-15-24.8-15.9-39.4-.4-15.1 3.5-27.9 13.5-39.4 11.3-11.9 24.5-23.7 41.9-16zm-102 4.6c13.4 7.5 23 20.9 27.3 35.4 3.1 14.8 1.5 31.3-6.3 44.1-4.5 6.2-9.7 10.8-17.2 13.1-9.4 1.3-17.1-1.7-24.7-7.1-12.8-10.7-17.2-27-19.3-42.9-.8-12.2-.7-25.9 7-36 9.1-9.9 20.9-11.5 33.2-6.6zm168.3 64.1c5.8 3.5 9.3 9.3 11.5 15.5.4 3.7.4 7.3.4 11q0 1.5 0 3.1c-.2 8-1.2 14.5-4.4 21.9l-.8 2.2c-2.7 6.3-7.5 11-12.2 15.8q-.8.8-1.6 1.7c-8.2 7.8-19.8 12.8-31.1 12.6-5.4-.7-9.7-3.4-13.5-7.2-7.5-9.7-7.9-22.5-6.8-34.1 2.7-16.3 12-26.4 25-36 10.1-6.7 21.4-11.8 33.5-6.5zm-235.4 2.9c4.8 2.7 8.8 5.9 12.9 9.6a34.67 34.67 0 0 0 2.9 2.5c7.7 7.3 14.4 16 15.3 27 .8 26.5.8 26.5-6.9 35.5-5.9 5.6-12.2 6.5-20.2 6.3-10.7-1.1-20.8-8.1-28.1-15.7-10-13-16.1-31.3-14-47.6 1.8-7.4 4.4-13.6 10.7-18.2 8.8-5.3 18.5-3.5 27.4.6z" fill="#fe9e01"/></svg>