<svg xmlns="http://www.w3.org/2000/svg" width="1024" height="1024" xmlns:v="https://vecta.io/nano"><g fill-rule="evenodd"><path d="M558 92q1.5.3 3 .5c47 8.4 89.5 29.5 124 62.5q.9.8 1.8 1.7c13.9 13.1 25.4 27.9 35.2 44.3q.6 1 1.2 2c28.6 48.3 34 98.2 33.9 153.2q0 5.6-.1 11.1 0 10.9 0 21.7 1 0 2.1 0 1.3 0 2.7 0 1.3 0 2.6 0c23.7.4 45.1 13.7 61.1 30.1 15 17.2 23.2 38.5 23 61.3q0 2 0 4.1 0 5.6 0 11.2 0 6.1 0 12.2.1 11.8 0 23.7 0 9.7 0 19.4 0 1.3 0 2.7 0 2.8 0 5.6.1 26.3 0 52.5 0 22.5 0 45 .1 26.1 0 52.3 0 2.8 0 5.5 0 1.4 0 2.8 0 9.7 0 19.3.1 11.8 0 23.5 0 6 0 12c.1 32.2-4.5 58.9-27.7 83-10.4 10.5-22.3 17.9-36.1 23.2q-.9.3-1.8.7c-8.2 2.9-16.4 4.2-25.1 4.2q-1.3 0-2.6 0-4.4 0-8.7 0-3.2 0-6.4 0-8.6 0-17.3 0-9.4 0-18.8 0-18.3 0-36.7 0-14.9 0-29.8 0-4.3 0-8.6.1-1 0-2.1 0-30.1 0-60.1 0-1.1 0-2.3 0-5.7 0-11.5 0-1.1 0-2.3 0-2.3 0-4.6 0-35.8 0-71.7 0-40.3.1-80.6.1-4.2 0-8.5 0-1.1 0-2.2 0-17 0-34 0-17.1 0-34.2 0-9.3 0-18.5 0-8.5 0-17 0-3.1 0-6.1 0c-28 .2-50.5-9.3-70.9-28.9-18.6-19.1-26.6-44.2-26.6-70.4q0-2 0-4.1 0-5.5 0-11 0-6 0-12 0-11.7 0-23.4 0-9.5 0-19 0-1.4 0-2.8 0-2.7 0-5.5 0-25.8 0-51.6 0-23.6 0-47.2-.1-24.3-.1-48.5 0-13.6 0-27.2 0-11.6 0-23.2 0-5.9 0-11.8 0-5.4 0-10.8 0-2.9 0-5.8c.2-25.3 11.2-47.7 28.7-65.7 12.7-12 27.9-20 45-24q1-.2 2.1-.5c4-.8 7.8-1.2 11.9-1.1q1.3 0 2.7 0 1 0 2 0 0-1.4 0-2.8-.1-13.4-.1-26.7 0-6.8-.1-13.7 0-6.6 0-13.2 0-2.5 0-5c-.1-16.7 1-33.3 4.8-49.7q.4-1.6.7-3.4c7-29.1 18.4-57.8 35.7-82.5q.6-.9 1.3-1.9c13.2-18.8 28.4-36.2 46.7-50.1q.8-.6 1.6-1.3C391.7 113.3 430.8 97.3 472 91q1.1-.2 2.3-.4c27.1-3.9 56.8-3.3 83.7 1.4zM412 227c-44 44-44 44-44 162h288c0-31.9 4.4-66.3-4-98-10.8-34.7-34.8-65.7-66.8-83.3q-1.6-.9-3.2-1.7c-55.3-31-123.5-21.2-170 21z" fill="#f49818"/><path d="M558 92q1.5.3 3 .5c47 8.4 89.5 29.5 124 62.5q.9.8 1.8 1.7c13.9 13.1 25.4 27.9 35.2 44.3q.6 1 1.2 2c28.6 48.3 34 98.2 33.9 153.2q0 5.6-.1 11.1 0 10.9 0 21.7 1 0 2.1 0 1.3 0 2.7 0 1.3 0 2.6 0c23.7.4 45.1 13.7 61.1 30.1 15 17.2 23.2 38.5 23 61.3q0 2 0 4.1 0 5.6 0 11.2 0 6.1 0 12.2.1 11.8 0 23.7 0 9.7 0 19.4 0 1.3 0 2.7 0 2.8 0 5.6.1 26.3 0 52.5 0 22.5 0 45 .1 26.1 0 52.3 0 2.8 0 5.5 0 1.4 0 2.8 0 9.7 0 19.3.1 11.8 0 23.5 0 6 0 12c.1 32.2-4.5 58.9-27.7 83-10.4 10.5-22.3 17.9-36.1 23.2q-.9.3-1.8.7c-8.2 2.9-16.4 4.2-25.1 4.2q-1.3 0-2.6 0-4.4 0-8.7 0-3.2 0-6.4 0-8.6 0-17.3 0-9.4 0-18.8 0-18.3 0-36.7 0-14.9 0-29.8 0-4.3 0-8.6.1-1 0-2.1 0-30.1 0-60.1 0-1.1 0-2.3 0-5.7 0-11.5 0-1.1 0-2.3 0-2.3 0-4.6 0-35.8 0-71.7 0-40.3.1-80.6.1-4.2 0-8.5 0-1.1 0-2.2 0-17 0-34 0-17.1 0-34.2 0-9.3 0-18.5 0-8.5 0-17 0-3.1 0-6.1 0c-28 .2-50.5-9.3-70.9-28.9-18.6-19.1-26.6-44.2-26.6-70.4q0-2 0-4.1 0-5.5 0-11 0-6 0-12 0-11.7 0-23.4 0-9.5 0-19 0-1.4 0-2.8 0-2.7 0-5.5 0-25.8 0-51.6 0-23.6 0-47.2-.1-24.3-.1-48.5 0-13.6 0-27.2 0-11.6 0-23.2 0-5.9 0-11.8 0-5.4 0-10.8 0-2.9 0-5.8c.2-25.3 11.2-47.7 28.7-65.7 12.7-12 27.9-20 45-24q1-.2 2.1-.5c4-.8 7.8-1.2 11.9-1.1q1.3 0 2.7 0 1 0 2 0 0-1.4 0-2.8-.1-13.4-.1-26.7 0-6.8-.1-13.7 0-6.6 0-13.2 0-2.5 0-5c-.1-16.7 1-33.3 4.8-49.7q.4-1.6.7-3.4c7-29.1 18.4-57.8 35.7-82.5q.6-.9 1.3-1.9c13.2-18.8 28.4-36.2 46.7-50.1q.8-.6 1.6-1.3C391.7 113.3 430.8 97.3 472 91q1.1-.2 2.3-.4c27.1-3.9 56.8-3.3 83.7 1.4zM216.6 440c-11 15.3-16.1 30.7-16 49.6q0 1.9 0 3.9 0 5.4 0 10.7 0 5.8 0 11.6 0 11.4 0 22.7 0 9.3 0 18.5 0 1.3 0 2.7 0 2.7 0 5.3-.1 25.1 0 50.2 0 22.9-.1 45.8 0 23.5 0 47.1 0 13.2 0 26.4 0 11.3 0 22.5 0 5.7 0 11.5c-.1 25.6 1.5 47.5 19.5 67.5q.8.9 1.7 1.9c9.8 10.7 25 18.1 39.5 19.3q3.4.1 6.8.1h2.6q4.3 0 8.6 0 3.2 0 6.3 0 8.6 0 17.2 0 9.3 0 18.6 0 18.1 0 36.3 0 14.8 0 29.6 0 4.2 0 8.5.1h2.1q29.8 0 59.5 0h2.3q5.7 0 11.4 0 1.1 0 2.2 0 2.3 0 4.6 0 35.5 0 71 0 39.9.1 79.8.1 4.3 0 8.6 0h2.1q16.8 0 33.7 0 16.9 0 33.9 0 9.1 0 18.3 0 8.4 0 16.8 0 3.1 0 6.1 0c21.2.1 39-4.4 54.9-19.5 5.6-5.7 9.7-11.8 13.4-18.9l1-1.8c5.1-10.5 6-21.6 6-33.1q0-2 0-4.1 0-5.5 0-10.9 0-6 0-11.9.1-11.6.1-23.2 0-9.5 0-18.9 0-2.7 0-5.5 0-1.3 0-2.7 0-25.7 0-51.3 0-23.4 0-46.8.1-24.1.1-48.2 0-13.5 0-27 .1-11.5 0-23 0-5.9 0-11.7c.2-26.5-3.2-46.3-21.8-66.3-11-10.8-25.4-17-40.8-17h-2.6q-4.4 0-8.8 0-3.2 0-6.4 0-8.7 0-17.4 0-9.5 0-18.9 0-19.5-.1-39.1-.1h-2.1q-1.1 0-2.2 0-11.8 0-23.5 0-35.7 0-71.3 0h-2.3q-4.6 0-9.3 0-3.4 0-6.9 0-1.2 0-2.3 0-36.1 0-72.2-.1-40.5 0-81.1-.1-4.3 0-8.6 0-1.1 0-2.2 0-17.1 0-34.2 0-17.2 0-34.4 0-9.4 0-18.7 0-8.5-.1-17.1 0-3 0-6.1 0c-22.8-.2-41.9 6.1-56.7 24.6zM412 227c-44 44-44 44-44 162h288c0-31.9 4.4-66.3-4-98-10.8-34.7-34.8-65.7-66.8-83.3q-1.6-.9-3.2-1.7c-55.3-31-123.5-21.2-170 21z" fill="#053d74"/></g><path d="M510.8 481.6q3.1 0 6.1-.1c25.5-.1 47.6 12.4 65.7 29.7 19 19.5 27.1 42.9 26.9 69.8-.8 28.1-12.7 50.3-32.5 70q-1.1.6-2.2 1.3c-2.1 1.6-2.1 1.6-2.1 4.3 1 10.3 2.7 20.6 4.5 30.9q.8 4.7 1.6 9.4 2 12.4 4.2 24.7 1 6.3 2.1 12.6.4 2.3.8 4.6c4.4 25.3 4.4 25.3.7 33-1.1 1.5-1.1 1.5-2.6 3.2q-1 1.2-2 2.5c-5.5 6.4-10.4 11.3-19 12.5-3.4.2-6.7.2-10.1.2q-1.5 0-3 0-5.1 0-10.1 0-1.7 0-3.4.1-9.1 0-18.2 0-9.4 0-18.7.1-7.2 0-14.5 0-3.4 0-6.9.1-4.8 0-9.6 0h-2.9c-7.6-.1-13.2-2-18.7-7.3q-1.4-1.5-2.7-3.1-.7-.7-1.4-1.5c-6.7-7.5-7.4-13.9-7-23.5.5-6.4 1.7-12.7 2.8-19q.4-2.4.8-4.8 1-6.4 2.1-12.7.7-4 1.4-8 2.2-12.8 4.5-25.6l.4-2.3q1-5.6 2.1-11.3.2-1.1.4-2.2.6-3 1.3-6c.4-2.9.5-4.5-.6-7.2a137.49 137.49 0 0 0-5.4-5.4c-20.3-19.6-31-45.8-32-73.9.5-25.3 11.6-48.9 29.4-66.7q1.1-1.1 2.2-2.3c17.8-17 41-26.3 65.6-26.1z" fill="#026baa"/><path d="M653.8 164.5q3.8 3.5 7.6 7l5.7 5.1c3.8 3.2 6.8 6.6 9.9 10.4l1.4 1.6c34.8 40.7 51.9 90.6 51.7 144q0 2.5 0 5 0 6.5 0 13 0 7.8-.1 15.7 0 11.8 0 23.7h-48v-17.1q-.1-5.4-.1-10.8-.1-8.6-.1-17.2c-.1-47.8-9.2-89.4-41.8-125.9q-1-1.2-2-2.3c-3.9-4.8-8.2-8.8-13-12.7q-1.4-1.2-2.9-2.3C600 183.9 574.6 173 547 167c-1.1-.2-1.1-.2-2.2-.5-37.3-8.1-77.9-1.1-111.8 15.5q-1 .5-2 .9c-14.6 7.1-27.3 16.9-39 28.1q-1.1 1-2.1 2c-28.2 26.5-45.9 67.4-47.3 105.9q-.1 5.9-.1 11.8 0 2.5-.1 5.1 0 6.6-.1 13.2 0 8-.1 16-.1 12-.2 24h-47l-.1-27.4q-.1-8.4-.1-16.8c-.3-40.2-.3-40.2 3.2-56.8.2-1.1.2-1.1.5-2.3 7.3-35.7 23.7-69.2 47.5-96.7 1.1-1.2 1.1-1.2 2.1-2.5 10.1-11.4 20.7-21.4 32.9-30.5q1.2-.9 2.5-1.9C413.3 132.5 447.8 121 484 116q1.9-.3 3.9-.6c58.4-6.1 121.1 10.5 165.9 49.1z" fill="#f8ebd6"/><path d="M510.8 481.6q3.1 0 6.1-.1c25.5-.1 47.6 12.4 65.7 29.7 19 19.5 27.1 42.9 26.9 69.8-.8 28.1-12.7 50.3-32.5 70q-1.1.6-2.2 1.3c-2.1 1.6-2.1 1.6-2.1 4.3 1 10.3 2.7 20.6 4.5 30.9q.8 4.7 1.6 9.4 2 12.4 4.2 24.7 1 6.3 2.1 12.6.4 2.3.8 4.6c4.4 25.3 4.4 25.3.7 33-1.1 1.5-1.1 1.5-2.6 3.2q-1 1.2-2 2.5c-5.5 6.4-10.4 11.3-19 12.5-3.4.2-6.7.2-10.1.2q-1.5 0-3 0-5.1 0-10.1 0-1.7 0-3.4.1-9.1 0-18.2 0-9.4 0-18.7.1-7.2 0-14.5 0-3.4 0-6.9.1-4.8 0-9.6 0h-2.9c-7.6-.1-13.2-2-18.7-7.3q-1.4-1.5-2.7-3.1-.7-.7-1.4-1.5c-6.7-7.5-7.4-13.9-7-23.5.5-6.4 1.7-12.7 2.8-19q.4-2.4.8-4.8 1-6.4 2.1-12.7.7-4 1.4-8 2.2-12.8 4.5-25.6l.4-2.3q1-5.6 2.1-11.3.2-1.1.4-2.2.6-3 1.3-6c.4-2.9.5-4.5-.6-7.2a137.49 137.49 0 0 0-5.4-5.4c-20.3-19.6-31-45.8-32-73.9.5-25.3 11.6-48.9 29.4-66.7q1.1-1.1 2.2-2.3c17.8-17 41-26.3 65.6-26.1zm-52.6 49.1c-8.2 9.6-13.1 20.1-16.2 32.3q-.3 1-.5 1.9c-3.7 16.3 1.1 35.1 9.3 49.1 6.5 10.2 13.9 19.1 24.2 25.6 2 1.4 2 1.4 4 4.4 2.1 16.5-2.6 34.1-5.8 50.1-2.4 11.6-4.4 23.2-6.3 34.8q-1 5.4-1.9 10.8-.6 3.5-1.2 6.9-.2 1.6-.5 3.3-.3 1.5-.5 3-.3 1.3-.5 2.6c-.4 2.9-.4 2.9-.3 7.5h100c-.7-9.2-.7-9.2-1.9-18.4q-.3-1.5-.6-3.1-.2-1.5-.5-3.1-.3-1.6-.5-3.3c-.8-5.2-.8-5.2-2.5-10.1q-.5-2.7-.9-5.3-.2-1.6-.5-3.3c-.2-1.7-.2-1.7-.5-3.5l-4.2-25.4q-1.7-8.7-3.2-17.5-.6-2.9-1.1-5.8c-3-17.4-3-17.4.4-23.2q2-1 4-2c17.1-12.3 26.4-28.1 32-48q.5-1.5 1-3c1.9-20.2-2.4-37.9-14.7-54.1-9.8-11.7-22.3-21.2-37.3-24.9q-1.1-.3-2.2-.6c-26.5-6.5-52.2 3.2-70.6 22.3z" fill="#043e75"/><path d="M440 733q.5 0 1 0c-.4 6.4-1.1 12.8-2.1 19.2a83.33 83.33 0 0 0-.9 15.8q1 0 2 0 .4 1.3.8 2.7c1.6 4.3 3.7 7.2 7.5 10q.8.6 1.7 1.3 0 1 0 2c6.7 2.7 12.6 3.4 19.7 3.4h3.2q5.1 0 10.2 0 3.5 0 7.1 0 7.4 0 14.9 0 9.5 0 19 0 7.4 0 14.7 0 3.5 0 7 0 4.9 0 9.8 0 1.5 0 3 0c5.3 0 8.7-.7 13.4-3.4q1 .5 2 1c-7.1 5.1-12.6 5.2-21.1 5.2h-3q-5.1 0-10.1 0-1.7 0-3.4.1-9.1 0-18.2 0-9.4 0-18.7.1-7.2 0-14.5 0-3.4 0-6.9.1-4.8 0-9.6 0h-2.9c-7.6-.1-13.2-2-18.7-7.3q-1.4-1.5-2.7-3.1-.7-.7-1.4-1.5c-6.7-7.5-7.5-13.6-7-23.4.6-7.4 1.9-15.2 4.2-22.2z" fill="#032984"/><path d="M728 310q.5 0 1 0c1 4.2 1.1 8.2 1.1 12.5q0 1 0 2.2 0 3.6 0 7.2 0 2.5 0 5 0 6.6 0 13.2 0 7.9-.1 15.9 0 12 0 24h-48v-72q.5 0 1 0v70h45v-78z" fill="#bec8c8"/><path d="M440 733q.5 0 1 0c-.4 6.4-1.1 12.8-2.1 19.2a83.33 83.33 0 0 0-.9 15.8q1 0 2 0 .4 1.3.8 2.7c1.6 4.3 3.7 7.2 7.5 10q.8.6 1.7 1.3 0 1 0 2c8.3 3.4 16.2 3.7 25 4-5.1 3.4-11 2.5-17 2-8.2-1.7-14-9.7-19-16-6.7-11-2.6-26.1 0-38q.5-1.5 1-3z" fill="#0f2e86"/><path d="M420 615c3 1 3 1 4.5 3.8q.9 1.7 1.7 3.6c5.3 11 12.9 22.6 22.8 30.1 1.7 1.3 1.7 1.3 4 4.5 0 4.5-1 8.6-2 13q-.6 2.9-1.1 5.8-.5 2.1-.9 4.2-.5 0-1 0 0-4.1-.1-8.3 0-1.1 0-2.3v-2.3-2.1c.1-2.1.6-4 1.1-6-.3-4-2.5-5.7-5.4-8.4-10.6-10.3-17.4-22.3-23.6-35.6z" fill="#f0b40a"/><path d="M581 720c3.1 4.6 3.4 9.8 4.3 15.2q.5 3 1 6c3.8 22.6 3.8 22.6.2 29.7q-.7 1-1.5 2.1-.5 0-1 0 0-2.5 0-5 1 0 2 0c.4-9.1-.9-17.8-2.5-26.8q-.5-3.1-1.1-6.2-.4-2.8-.9-5.6c-.5-3.2-.6-6.2-.5-9.4z" fill="#163385"/><path d="M427 624c2.7 2.4 4.6 4.9 6.5 7.9 2.9 4.4 6.1 8.4 9.6 12.3q.7.9 1.5 1.8c2.3 2.7 4.6 5.2 7.3 7.6 2.1 2.4 2.1 2.4 2.4 5.3q-.3 1.4-.5 2.9-.2 1.5-.4 3-.2 1.1-.4 2.2-.5 0-1 0 .2-.9.5-1.7c.4-3.2.3-5.2-.5-8.3-2.4-2.9-4.9-5.3-7.6-7.9-4.2-3.9-7.8-7.9-11.1-12.5q-.6-.9-1.2-1.8c-2.4-3.4-4-6.7-5.1-10.8z" fill="#0c2a8d"/><path d="M446 507q1 .5 2 1-.7.7-1.4 1.3c-3.9 3.7-6.3 6.9-8.6 11.7q-2.5 2.5-5 5c-4.3 5.6-7.4 11.5-10 18-1.2-2.8-1-3.9.1-6.8 6.3-11.3 13.4-21.4 22.9-30.2z" fill="#0e2d89"/><path d="M568 500c9.7 4.4 21 15.6 26 25q-.5 1.5-1 3-.8-1.1-1.6-2.2c-9.2-12.7-9.2-12.7-21.2-22.5q-1.1-.6-2.2-1.3 0-1 0-2z" fill="#072691"/><path d="M501 482q6.8-.1 13.6-.1l3.8-.1c6.3 0 11.7 0 17.6 2.2q0 .5 0 1l-2.8-.2q-16.1-1-32.2-1.8 0-.5 0-1z" fill="#082990"/><path d="M601 218c3 1.4 5.3 3 7.8 5.2q4.2 3.8 8.4 7.4c3 2.6 5.5 5.2 7.8 8.4q-.5 1-1 2-11.5-11.5-23-23z" fill="#172856"/><path d="M450 657q1.5 0 3 0c-1.1 7.7-2.4 15.4-4 23q-.5 0-1 0 0-4.1-.1-8.3 0-1.1 0-2.3 0-1.1 0-2.3 0-1 0-2.1c.2-2.9.8-5.4 2.1-8z" fill="#f4ab0c"/><path d="M212 444c1 3 1 3-.6 6.6q-1.1 2.1-2.2 4.2c-2.5 4.7-4.7 9.1-6.2 14.2-1.6-4-.4-6.8.9-10.8q.6-1.7 1.2-3.5.4-1.3.9-2.7 1 0 2 0c.4-1.1.4-1.1.9-2.3 1.1-2.7 1.1-2.7 3.1-5.7z" fill="#112e8b"/><path d="M773 418c7.4.3 12.9 2.9 19 7q.5 1 1 2-1-.4-2.1-.9c-3.2-1.2-6.4-2.2-9.7-3.2-1.8-.6-1.8-.6-3.5-1.1q-1.3-.4-2.7-.8 0-1 0-2-1-.5-2-1z" fill="#f0aa0d"/><path d="M451 664l3 2c.3 2.2.3 2.2.2 4.6q-.1 1.2-.1 2.5 0 .9-.1 1.9-1 0-2 0-1 2-2 4c-.1-5.1 0-9.9 1-15z" fill="#133a7d"/><path d="M472 638c3.9 1.3 5.9 2.4 8 6 .3 3 .3 3 .2 6.3q-.1 1.6-.1 3.2 0 1.2-.1 2.5-.5 0-1 0 0-1-.1-2c-.3-5.5-.7-9-4.9-13q-1-.5-2-1 0-1 0-2z" fill="#043567"/><path d="M443 712q1 .5 2 1c-.6 4.7-1.2 9.3-2 14q-1-.5-2-1 .2-2.4.4-4.8.2-1.3.3-2.6c.3-2.3.7-4.4 1.3-6.6z" fill="#1e397e"/><path d="M587 757q.5 0 1 0c.6 11.9.6 11.9-3 16q-.5 0-1 0 0-2.5 0-5 1 0 2 0l1-11z" fill="#0b2890"/><path d="M584 514c3.6 3.5 7 7 10 11q-.5 1.5-1 3-2.3-2.9-4.5-5.9-.6-.8-1.3-1.7c-3.2-4.2-3.2-4.2-3.2-6.4z" fill="#112e8c"/><path d="M484 481l2.2.5c2.7.5 5.1.6 7.8.5-3 2-4.7 2.5-8.2 3.1q-1.3.3-2.7.5-1 .2-2.1.4 1.5-2.5 3-5z" fill="#f3aa0c"/><path d="m596 627c3 1 3 1 4 3-3 2-3 2-6 2q-1 2-2 4c0-4 1.7-5.8 4-9z" fill="#f5aa0c"/><path d="M450 657q1.5 0 3 0l-2 11q-.5 0-1 0-.3-2.2-.6-4.4-.1-1.2-.3-2.4c-.1-2.2-.1-2.2.9-4.2z" fill="#e8a411"/><path d="M438 733q.5 0 1 0c.3 7.4.3 7.4-2 11q0-1 0-2-1 0-2 0 .5-2 1-4 1 0 2 0 0-2.5 0-5z" fill="#f5a90c"/><path d="M579 697l-1 12q-.5 0-1 0l-1-11c2-1 2-1 3-1z" fill="#18436e"/><path d="M477 115q-.5 1.5-1 3h-6q-1-1-2-2c3-1.5 5.7-1.1 9-1z" fill="#07356a"/><path d="M787 849q1 .5 2 1-1.9 1.3-3.8 2.5l-2.2 1.4c-2 1.1-2 1.1-5 1.1q0-1 0-2 2.2-1 4.4-2.1l2.4-1.1q1.1-.4 2.2-.8z" fill="#0b2d90"/><path d="M484 116c2.8-.2 2.8-.2 6 0q1.5 1.5 3 3h-9q0-1.5 0-3z" fill="#dfddcd"/><path d="M417 556q1 .5 2 1 0 3 0 6-1 0-2 0c-1.1-4.8-1.1-4.8 0-7z" fill="#0e3b7a"/><path d="M537 485l6 1q0 1 0 2-3 0-6 0 0-1.5 0-3z" fill="#073481"/><path d="M723 277c2 3 2 3 2 6q-1.5 0-3 0-.5-2.5-1-5 1-.5 2-1z" fill="#e6e4d6"/></svg>