<svg xmlns="http://www.w3.org/2000/svg" width="1024" height="1024" xmlns:v="https://vecta.io/nano"><path fill-rule="evenodd" d="M566 94q1 .3 2.1.7c17.6 5.4 33.4 14 47.9 25.3q1.4 1.1 2.9 2.2c31.8 25.2 50.9 61.8 55.6 101.9.8 8.2.6 16.4.6 24.6q0 2.7 0 5.4 0 7.1 0 14.1 0 7.3-.1 14.5 0 14.1 0 28.3.9 0 1.8 0 4 0 8.1 0 1.3 0 2.8 0c27.3-.1 51.9 3.2 72.4 23 16.2 16.4 22.4 37.3 22.4 59.9q0 2.8 0 5.5 0 3 0 6.1 0 8-.1 16.1 0 8.5 0 17 0 14.3 0 28.5-.1 18.3-.1 36.6 0 15.7-.1 31.5 0 3.3 0 6.7 0 9.6 0 19.2 0 2.9 0 5.8c0 9.8-.1 19.4-1.2 29.1q1.3-.1 2.7-.1c21.6-.5 40.6 4.8 57.3 19.1 16.2 17.6 22.3 37.1 22.3 60.8v3.7q0 4.9 0 9.9 0 5.2 0 10.4 0 8.8 0 17.5-.1 10.1 0 20.2 0 8.7 0 17.4 0 5.2 0 10.4c0 24.4-.3 46.3-15.3 66.7q-.7.9-1.4 1.9c-11.5 14.8-30.2 22-48.2 24.6-4.7.6-9.4.6-14.1.6h-2.9q-4.9 0-9.7 0-3.4 0-6.9 0-9.6.1-19.2.1-9.2 0-18.5 0-24.8 0-49.6 0-11.8 0-23.5 0-40.2 0-80.4 0-2.6 0-5.1 0-2.5 0-5 0-5.1 0-10.2 0h-2.5q-40.8 0-81.6.1-43.1 0-86.3 0-4.7 0-9.5 0h-2.3q-18.8 0-37.5.1-18.9 0-37.7 0-10.3 0-20.5 0-9.3 0-18.7 0-3.3 0-6.7 0c-22.1.1-43.2-1.9-61-16.4-1.3-1-1.3-1-2.6-2.1-14-11.9-22.9-28.1-24.8-46.5-.1-3.6-.1-7.2-.1-10.8q0-2.1 0-4.1-.1-5.5 0-11 0-5.8 0-11.6-.1-9.7 0-19.4 0-11.2 0-22.4-.1-9.7 0-19.4 0-5.7 0-11.5-.1-5.4 0-10.8 0-2.9 0-5.8c.1-20 7.9-37.7 21.8-52 16.8-16 37.4-20.1 59.7-19.6q-.1-.8-.2-1.7c-1.1-9.6-1-19.3-1-28.9q0-3 0-6 0-8 0-16 0-5 0-10.1 0-15.7 0-31.4 0-18.1-.1-36.2 0-14.1 0-28.1 0-8.4 0-16.8-.1-7.8-.1-15.7 0-2.9 0-5.8c-.1-24.7 5.3-46.9 22.8-65.2 5.1-4.9 10.4-8.7 16.6-12.1q1.4-.8 2.9-1.7c10.4-5.5 20.4-7.4 32-8.5q1.3-.1 2.7-.2c10.1-.9 20.3-.7 30.4-.6v-2.9q-.1-13.8-.2-27.6 0-7.1 0-14.2c-.3-41.4-.3-41.4 3.2-58.3.3-1.7.3-1.7.7-3.4.6-2.5 1.3-5 2-7.5q.4-1.3.8-2.6c12.3-39.6 40.5-69.9 76.5-89.5 1.3-.8 1.3-.8 2.7-1.6C473.6 82.3 524.5 80.5 566 94zm-137.4 72.9C397 199.3 397 199.3 397 312h230c0-33.4 2.9-67.4-4-100-5.1-15.6-16-39-31.2-47.2q-.9-.4-1.8-.8 0-1 0-2-1.5-1-3-2c-46.8-34.2-115.6-35.5-158.4 6.9z" fill="#0f4070"/><path d="M319.8 358.7h2q3.4 0 6.7 0 2.5 0 4.9 0 6.7 0 13.4 0 7.3 0 14.5 0 14.2 0 28.3 0 11.6 0 23.1 0h3.3q3.3 0 6.7 0 31.2 0 62.5 0 28.5 0 57.1 0 29.4-.1 58.7-.1 16.5 0 32.9 0 14.1 0 28.1 0 7.2 0 14.3 0 6.6 0 13.1 0 2.4 0 4.8 0c13.1 0 23.7 1.4 33.8 10.4 6.1 7.2 8.3 14.5 8.3 23.9q0 1.1 0 2.3 0 3.8 0 7.6 0 2.8 0 5.5 0 7.4 0 14.9 0 6.2 0 12.4 0 14.7 0 29.3 0 15.1 0 30.3.1 12.9.1 25.9 0 7.8 0 15.5 0 7.3 0 14.6 0 2.7 0 5.4c0 12.2-.2 22.7-9 32.2-9.7 9.3-20.9 9.8-33.7 9.7q-2.5 0-4.9 0-6.7 0-13.4 0-7.3 0-14.5 0-14.2 0-28.4 0-16.5 0-33 0-29.5 0-59 0-28.6-.1-57.2-.1-31.2.1-62.4 0-3.3 0-6.6 0-1.6 0-3.3 0-11.5 0-23 0-14.1 0-28.1 0-7.2 0-14.3 0-6.6 0-13.1 0-2.4 0-4.8 0c-11.9 0-21.6-.9-30.7-9.4-9.6-10.3-9.4-21.9-9.4-35.2q0-2.8 0-5.6-.1-7.5-.1-14.9 0-6.3 0-12.6 0-14.8 0-29.6 0-15.2-.1-30.5 0-13.1 0-26.2 0-7.8 0-15.6-.1-7.4 0-14.7 0-2.7 0-5.4c-.1-9.5 0-17.6 5.6-25.7q1.1-1.6 2.2-3.3c6.8-6.6 15-10.9 24.6-11z" fill="#a4d2fb"/><path d="M237.1 643.4q1.4 0 2.9 0 4.9-.1 9.7 0 3.6 0 7.1 0 8.6-.1 17.3 0 10.4 0 20.8 0 20.3-.1 40.6 0 17.8 0 35.6 0 1.2 0 2.4 0 4.8 0 9.6 0 44.9 0 89.8 0 39.9 0 79.9 0 10.2 0 20.4 0 1.3 0 2.6 0 33.3 0 66.7 0 3.6 0 7.2 0 2.3 0 4.7 0 17.8 0 35.6 0 20.2 0 40.4 0 10.3.1 20.6.1 9.5-.1 18.9 0 3.4 0 6.9 0 4.6 0 9.2 0 1.4 0 2.7 0c8.4.1 15.5 3 21.7 8.7 4.7 5.4 7.7 12.5 7.7 19.6q0 1.5 0 3 0 1.7 0 3.3a42.08 42.08 0 0 1 .1 3.5q0 5.7 0 11.4 0 4 0 8 0 8.3 0 16.6 0 9.6 0 19.2 0 8.3 0 16.6 0 4.9 0 9.8.1 5.5 0 11 .1 1.6.1 3.3c-.1 10.3-1.8 18.8-9.2 26.5-8.3 7.6-16.4 9.2-27.4 9.1q-1.4 0-2.8 0-4.8 0-9.6 0-3.4 0-6.9 0-9.5 0-18.9 0-9.2 0-18.4.1-21.1 0-42.1 0-16.3 0-32.6 0-4.7 0-9.4 0h-2.3q-32.8 0-65.5 0-1.2 0-2.5 0-6.3 0-12.5 0-1.3 0-2.5 0-2.6 0-5.1 0-39.1 0-78.2 0-44 0-87.9 0-4.7 0-9.4 0-1.1 0-2.3 0-18.6 0-37.1 0-18.7.1-37.4 0-10.1 0-20.2.1-9.3 0-18.5-.1-3.4 0-6.7.1-4.6 0-9.1-.1c-1.3.1-1.3.1-2.6.1-10.8-.1-19.1-2.4-27-10-7.9-8.8-8.3-17.4-8.4-28.7q0-1.6 0-3.4 0-5.6 0-11.2 0-4 0-7.9 0-7.2 0-14.3 0-10.5-.1-21.1 0-9.1 0-18.2 0-3.9 0-7.8-.1-5.4-.1-10.8 0-1.6 0-3.2c.1-8.5 1-17.1 7-23.5q.9-1 1.8-2.1c7-5.6 13.8-7.8 22.7-7.7z" fill="#c7e3fb"/><path d="M552.7 411.3c10.1 8.1 17 17.5 21.3 29.7q.5 1.2 1 2.4c4.8 13 3.4 31.2-2 43.6q-.7 1.5-1.3 3.1c-4.4 9.5-12.1 22.2-22 27-2.8 1.4-4.6 2.6-6.7 4.9-1.1 4.9-.9 9.8-.7 14.8.6 15.9.6 15.9-4.7 22.5-1.9 2-3.7 3.7-6 5.1q-1.1.7-2.2 1.4c-9.5 4.6-21.5 4.9-31.5 1.5-8.6-3.7-12.4-8.8-15.9-17.3-1-3.3-1-6.2-.9-9.6.7-11.8.7-11.8-3.3-22.3-2.9-1.6-5.7-2.8-8.8-4.1-12.3-9.6-21.3-25.5-23.7-40.8-1.9-18.8 1.1-36 13.1-51.3 5.8-6.7 11.8-11.7 19.6-15.9q1.2-.7 2.4-1.4c22.2-12.5 52.4-8.2 72.3 6.7z" fill="#0e406f"/><path d="M517 679c3.7 2.1 5.5 4.1 7 8 .2 2.9.2 2.9.2 6.3q0 1.8 0 3.6 0 1.9-.1 3.9 0 1.8 0 3.8 0 4.7-.1 9.4c4.4-1.4 8.7-2.8 12.8-4.7 11.1-5.1 11.1-5.1 16.3-3.5 4.2 2 6.6 4.2 8.9 8.2.7 4 1 6.3-1 9.8-4.3 5.2-9.1 7.6-15.4 10.1q-1.4.6-2.8 1.2-3.4 1.5-6.8 2.9c1.4 4 3.3 6.8 6 10.1 4.4 5.2 6.5 8.7 6.4 15.6-.8 4.6-3.7 7-7.3 9.7-3.2.9-5.8.9-9.1.6-5-2.8-7.9-6-11.1-10.5-2.8-3.7-5.5-7.3-8.9-10.5q-.6.8-1.2 1.6-2.7 3.6-5.5 7.2-.9 1.3-1.9 2.5-.9 1.2-1.8 2.5-.9 1.1-1.7 2.2c-2.7 2.8-5.4 4.7-9.2 5.4-4.6-.1-8.1-.1-11.7-3.4-3-5.1-3.4-8.3-2-14 1.6-3.1 3.6-5.9 5.6-8.7q1.5-2.3 3-4.5.7-1 1.4-2c1.2-1.9 1.2-1.9 1-4.8q-.9-.3-1.8-.6-3.9-1.5-7.9-3-1.3-.5-2.8-1c-6.5-2.5-10.3-5-13.5-11.4-.8-6.7-.8-6.7 1.2-10 2.5-3 4.1-4.8 7.8-6 6.3-.4 11 .7 16.9 2.9q1.1.5 2.3.9c5.3 1.9 5.3 1.9 7.8 3.2q0-1 0-2-.1-4.6-.2-9.1 0-1.6-.1-3.2c0-7 .6-11.5 5.3-17.1 4.6-2.5 8.9-2.4 14-1.6zm-144-1c3.9 2.3 6.6 4.7 8 9q.1 3.1.1 6.2 0 1.8 0 3.7v3.8q0 1.9-.1 3.8 0 4.8 0 9.5 1.4-.5 2.8-1.1 3.4-1.3 6.8-2.6 2.9-1.1 5.7-2.3c4.9-2 9.5-3.2 14.7-2 3.4 2.1 6.2 4.4 8 8 .3 2 .3 2 .4 4.3 0 1.2 0 1.2.1 2.3-.8 3.6-2.7 5-5.5 7.4-3.3 1.9-3.3 1.9-6.9 3.6q-1.7.9-3.5 1.8-5.3 2.4-10.6 4.6c1.4 3.3 3.5 6 5.7 8.8 7.8 10 7.8 10 7 17.1-1.4 4.3-3.9 6.8-7.6 9.5-3.2.9-5.8.9-9.1.6-5.2-2.9-8.4-6.5-11.9-11.1q-.7-1-1.5-1.9c-3.6-4.7-3.6-4.7-3.6-7q-1 0-2 0 0-1 0-2-1 0-2 0-.3 1-.7 2.1c-1.7 3.8-4 6.8-6.5 10q-.7 1-1.5 1.9c-3.8 4.9-7.4 7.6-13.8 8.4-4.2-.5-6.3-1.8-9.5-4.4-2.4-3.6-2.8-5.6-2.7-9.9 1.3-5.6 4.9-10 8.3-14.6 2.2-3 3.4-5.9 4.4-9.5q-1.8-.3-3.8-.6c-8.3-1.9-16.2-5.3-21.2-12.4-1.6-3.3-1.7-6.5-1-10 2.1-3.3 4.5-6.2 8-8 7-.9 12.6.9 19.1 3.5q1.3.5 2.6 1 3.2 1.2 6.3 2.5 0-1.2-.1-2.5-.2-5.6-.3-11.2-.1-1.9-.1-3.9c-.2-9.3-.2-9.3 1.8-12.4 4.4-3.8 10-5.1 15.7-4z" fill="#0e3e6e"/><path d="M657 678c3.3 1.3 6.2 2.7 8.2 5.7 1.1 3 1.1 5.6 1.2 8.8l.1 3.8q.1 1.9.1 3.9l.1 4q.2 4.9.3 9.8 2.4-.9 4.7-1.9 1.4-.5 2.7-1l6.7-3.3c5.4-2.7 9.7-3.4 15.7-1.7 4.6 2.8 6.5 5.7 8.1 10.9.1 4.3-1.4 7.3-4.2 10.5-2 1.7-3.7 2.6-6.1 3.5q-1.2.6-2.5 1.1-1.3.5-2.7 1.1c-1.3.5-1.3.5-2.6 1.1-6.5 2.7-6.5 2.7-8.8 2.7 2 5.8 5.1 9.9 9.2 14.6 2.7 3.6 4.2 6.8 3.7 11.4-.7 3.9-2 6.2-4.9 9-4 2.3-7.5 2.5-12 2-4.7-2.7-7.6-5.6-10.7-10q-1.1-1.5-2.2-3.1-1.9-2.6-3.7-5.3-.7-.8-1.4-1.6-1.5 0-3 0c-1.8 2.2-3.3 4.4-4.9 6.7-8.6 12.7-8.6 12.7-16 14.2-4.8.2-8.1-2-11.5-5-2.2-4.1-2.4-7.4-1.6-11.9 1.6-3.4 3.7-6.3 6-9.4q1.7-2.3 3.4-4.7.7-1 1.5-2c1.4-2 1.4-2 1.1-4.9q-1.6-.6-3.3-1.1c-17.7-6.4-17.7-6.4-21.6-13.3-1.8-5.9-1.8-5.9-1.1-9.6 2.5-3.8 4.7-6.6 9-8 5.8-.5 10 .8 15.3 3 5.2 2.2 5.2 2.2 10.7 3q0-1 .1-2 .1-4.6.3-9.2 0-1.6.1-3.2 0-1.5.1-3.1 0-1.4.1-2.8c.5-4.6 1.8-7.2 4.9-10.5 3.6-2.7 7.1-3.1 11.4-2.2z" fill="#0f3e6e"/><path d="M381 686q.5 1.5 1 3 1 0 2 0v22q2.5 0 5 0c-3.1 2.6-3.7 3-8 3v-28z" fill="#c0d8eb"/><path d="M666 685c2.3 3.4 2.2 4.7 2.2 8.8q0 1.6 0 3.4 0 1.7-.1 3.5 0 1.7 0 3.6 0 4.3-.1 8.7 1 .5 2 1-1.5.5-3 1c-1-1-1-1-1.1-3.8q0-1.8 0-3.6 0-2 0-4 0-2.1 0-4.2 0-2.1.1-4.1 0-5.2 0-10.3z" fill="#d9f1fb"/><path d="M355 684q.5 0 1 0v28q-2-1-4-2 1 0 2 0 0-1.1 0-2.2 0-4.8-.1-9.7v-3.4q0-1.6 0-3.3 0-1.4 0-3c.1-2.4.1-2.4 1.1-4.4z" fill="#ddf3fd"/><path d="M837 840q1 .5 2 1c-5.4 4.4-10.5 8.3-17 11q-1.5-.5-3-1 1.3-.6 2.6-1.2 1.6-.7 3.3-1.6 1.6-.7 3.3-1.5c2.8-1.7 3.7-2.6 4.8-5.7q1.5 0 3 0 .5-.5 1-1z" fill="#09255a"/><path d="M366 170c.9 3 1 3.9 0 7q-1 0-2 0-1 3-2 6c-1-3-1-3 0-5.5q.7-1.3 1.4-2.7.7-1.3 1.5-2.7.5-1 1.1-2.1z" fill="#0c2a5e"/><path d="M478 705q0 .5 0 1l-3.4.9c-3.6.8-3.6.8-5.6 3.1q-1.5-1-3-2c4.1-3 7-3.3 12-3z" fill="#072459"/></svg>