<svg xmlns="http://www.w3.org/2000/svg" width="1024" height="1024" xmlns:v="https://vecta.io/nano"><path fill-rule="evenodd" d="M152.5 204.4q5.8 0 11.6 0 10.2-.1 20.4 0 15.2 0 30.4 0 25.6 0 51.3 0 25.5 0 51 0 1.6 0 3.2 0 6.4 0 12.8 0 60.4.1 120.7.1 53.8.1 107.5.1 1.7 0 3.4 0 5.2 0 10.4 0 6.9 0 13.7 0 1.8 0 3.5 0 53 0 106 0 17.6 0 35.2 0 1.6 0 3.2 0 1.6 0 3.2 0 30.5 0 61 .1 15.3 0 30.6 0 10.3 0 20.6 0 5.9 0 11.8 0 5.4 0 10.8 0 2 0 3.9 0c20.4 0 42.2 5 57.5 19.5l1.8 1.8q2 1.9 4 3.9c15.5 16 20.8 38.1 20.6 59.9q0 2.7 0 5.4 0 7.4 0 14.9 0 8.2 0 16.4 0 16 0 32-.1 18.8-.1 37.6 0 34.5-.1 69 0 32.6 0 65.2 0 1 0 2-.1 8.1-.1 16.2 0 35 0 70 0 5.6 0 11.3 0 19.9-.1 39.8 0 8.3 0 16.5 0 7.7 0 15.3 0 2.8 0 5.6 0 3.8-.1 7.7v2.3c.1 12.4-2.4 23.1-7.7 34.2-8.2 16.1-22.8 32-40.5 37.9q-1.5.5-2.9.9c-21.5 4.6-21.5 4.6-43.5 4.5q-5.8 0-11.6 0-10.1 0-20.3 0-15.2 0-30.4 0-25.6 0-51.2 0-25.4 0-50.9 0h-3.2q-6.4 0-12.9 0-60.2 0-120.5-.1-53.7 0-107.3 0-3.5 0-6.9 0-1.8 0-3.5 0-8.5 0-17.1 0h-3.4q-45 0-89.9 0h-3.2q-6.5-.1-12.9-.1-22.3 0-44.6 0-28.9 0-57.8 0-15.3 0-30.6 0-10.3 0-20.6 0-5.9 0-11.7 0-5.4 0-10.8 0h-3.9c-21.4 0-40.3-5.5-55.9-20.7-18.5-18.9-24.9-40.1-24.8-66.1q0-2.7 0-5.4 0-7.5 0-15.1 0-8.2 0-16.4 0-16.1 0-32.3 0-18.9 0-37.8 0-35.8.1-71.6 0-31.8 0-63.6 0-2 0-4.1 0-1 0-2 0-5.1 0-10.2 0-1 0-2 0-25.7 0-51.5 0-3.8 0-7.6 0-2 0-3.8 0-13.3 0-26.5 0-16.3 0-32.6 0-8.3 0-16.6 0-7.7 0-15.4 0-2.8 0-5.6l.1-14.5c.8-17.2 9.1-34 21.6-45.7q1.3-1.1 2.6-2.2c20-17.8 40.7-20.8 66.5-20.6z" fill="#a7dbfe"/><path d="M131.4 204.9q1.6 0 3.3 0h3.7 3.9q5.5 0 10.9 0 5.8 0 11.7 0 11.7-.1 23.4-.1 14 0 27.9 0 33.8 0 67.6 0 16 0 32 0 54.7 0 109.4 0 3.5 0 6.9 0 3.4 0 6.9 0 6.9 0 13.8 0h3.5q55.5 0 111-.1 58.8 0 117.5 0 6.4 0 12.9 0h3.2q25.5 0 51-.1 25.7 0 51.4 0 15.2 0 30.5 0 10.2 0 20.4 0 5.8 0 11.6 0 6.3 0 12.5 0 1.8 0 3.6 0c22.5.1 43.2 8.6 59.1 24.4q1.2 1.1 2.4 2.3c15.7 16 19.4 39.5 19.2 61.1q0 2.8 0 5.6 0 7.6 0 15.3 0 8.2 0 16.5 0 16.1 0 32.3-.1 18.8 0 37.7-.1 34.6-.1 69.2-.1 31.5-.1 63.1v2q0 3.1 0 6.1 0 4 0 8.1 0 1 0 2 0 32.1 0 64.2 0 11.2 0 22.5 0 17.8-.1 35.7 0 8.1 0 16.3 0 7.4 0 14.9 0 2.7 0 5.4c0 23.2-4.8 43.9-21.5 61-1.4 1.3-1.4 1.3-2.8 2.7q-1.1 1.1-2.3 2.3c-12.6 11.9-30 18.8-47.3 18.8q-1.7 0-3.4 0-1.8 0-3.6 0-2 0-4 0-5.4 0-10.8 0-5.8 0-11.7 0-11.7.1-23.3.1-14 0-27.9 0-33.8 0-67.5 0-16 0-31.9 0-54.7 0-109.3 0-3.4 0-6.9 0-3.4 0-6.8 0-6.9 0-13.8 0-1.7 0-3.5 0-55.4 0-110.9.1-58.6 0-117.2 0-6.5 0-12.9 0h-3.2q-25.5 0-51 .1-25.6 0-51.2 0-15.3 0-30.5 0-10.2 0-20.4 0-5.7 0-11.5 0-6.3 0-12.5 0-1.8 0-3.6 0c-21.1-.1-38.3-7.5-53.7-21.9-15.1-15.7-23.6-34.4-23.5-56.4q0-1.2 0-2.4 0-3.8 0-7.7-.1-2.8-.1-5.6 0-7.7 0-15.4 0-8.4 0-16.7 0-20.1 0-40.2 0-9.4-.1-18.9 0-31.5 0-62.9 0-2.1 0-4.1 0-1 0-2 0-5.1 0-10.2 0-1.1 0-2.1 0-32.9-.1-65.7 0-34.8 0-69.6 0-18.9-.1-37.9 0-16.1 0-32.2 0-8.3 0-16.5 0-7.5 0-15.1 0-2.7 0-5.4c-.1-20.8 4.3-39.9 19.2-55.2q1.1-1.2 2.3-2.3 1.1-1.1 2.3-2.3C95.9 215.5 108 210 122 206q.9-.3 1.9-.5c2.5-.6 4.9-.6 7.5-.6zM98 248c-8 9.8-12.3 20.1-12.3 32.9q0 1.2 0 2.3 0 3.8 0 7.6 0 2.8 0 5.6 0 7.5 0 15.1 0 8.2 0 16.3 0 16.1 0 32.1 0 13 0 26-.1 36.9-.1 73.8 0 1 0 2 0 2.1 0 4.1 0 31.2 0 62.5-.1 35.2-.1 70.4 0 18.6 0 37.2 0 15.8 0 31.7 0 8.1 0 16.1 0 7.4 0 14.9 0 2.6 0 5.3c-.1 19.1 3.5 35.5 17.1 49.8 10.2 9.7 22.9 15.4 37 15.4q1.6 0 3.3 0 1.8 0 3.6 0 1.9 0 3.9 0 5.4.1 10.7.1 5.8 0 11.7 0 11.5 0 23 0 13.9 0 27.7 0 33.4.1 66.8.1 11.1 0 22.2 0 58.8 0 117.7 0 13.6 0 27.2.1 1.7 0 3.4 0 55 0 109.9 0 56.4.1 112.9.1 8 0 16 0 1.5 0 3.1 0 25.3 0 50.5.1 25.4 0 50.8 0 15.1 0 30.2 0 10.1 0 20.1 0 5.8 0 11.5 0c20.8.1 39.3-.1 55.6-14.8 13.8-14.1 15.9-30.1 15.9-48.9q0-2.7 0-5.5 0-7.7 0-15.3 0-8.2 0-16.4 0-16.1 0-32.2 0-13.1 0-26.2 0-1.9 0-3.8 0-3.8 0-7.6 0-34.5 0-68.9-.1-31.5 0-63 0-35.4 0-70.7 0-3.8 0-7.6 0-1.8 0-3.7 0-13.1 0-26.2 0-15.9 0-31.8 0-8.2 0-16.3 0-7.5 0-14.9 0-2.7 0-5.4c0-17.4-2.4-31.1-15-44.2-14.7-14.1-32.4-17.4-52-17.3h-3.9q-5.3 0-10.5 0-5.8 0-11.5-.1-11.4 0-22.8 0-13.6 0-27.3 0-32.9 0-65.9 0-15.5 0-31.1 0-53.4-.1-106.8-.1-3.3 0-6.7 0-1.6 0-3.3 0-8.5 0-16.9 0-1.6 0-3.4 0-54.1 0-108.3-.1-57.3 0-114.5 0-6.3 0-12.6 0-1.5 0-3.1 0-24.9 0-49.8-.1-25.1 0-50.1 0-14.9 0-29.8 0-9.9 0-19.8 0-5.7 0-11.4 0c-24.2-.1-45.1.8-62.8 19.5z" fill="#0d3b7d"/><path d="M757 288q1 .3 2.1.5c34.1 8.7 65 29.4 83.9 59.5 19 32.1 25.9 70.1 16.9 106.7-6.8 25.4-19.7 46.6-37.9 65.3q-.9 1-1.8 2c-21.9 23.7-57.3 36.6-88.8 38.1-37.2 1.4-71.5-10.3-98.9-35.7-1.2-1.2-1.2-1.2-2.5-2.4q-1.3-1.2-2.7-2.5c-23.6-22.6-38.8-56.1-39.6-88.9q0-3.9 0-7.8 0-1 0-2.1c0-10.5.6-20.5 3.3-30.7q.3-1 .5-2c5.6-20.8 15.2-39.8 29.5-56q1-1.2 2.1-2.5c18-20.9 42.4-34.5 68.9-41.5 1-.3 1-.3 2-.5 19.4-5.1 43.7-4.5 63 .5z" fill="#539fea"/><path d="M303.5 501.7q5.8 0 11.5 0 5.6 0 11.2 0 2.7 0 5.3 0c29 0 57.7 6.2 80.5 25.3q1.7 1.4 3.4 2.7c20.3 16.6 34.9 39.7 40.6 65.3.2 1.1.2 1.1.5 2.1 1.8 8.7 1.8 17.3 1.8 26.2q0 2.4.1 4.9 0 5.2 0 10.3 0 6.6 0 13.2.1 5.1.1 10.2 0 2.5 0 4.9 0 3.4 0 6.8 0 1.9 0 3.9c-.7 5.1-3.1 8.1-6.7 11.7-7.3 4.7-14.6 5.2-23.1 5.2q-1.7 0-3.4 0-5.5 0-11 0-4 0-8 0-9.7.1-19.4.1-7.8 0-15.7 0-2.3 0-4.5 0h-2.3q-21.4 0-42.7 0-19.6 0-39.1 0-20.1.1-40.1.1-11.3 0-22.5 0-9.6.1-19.2 0-4.9 0-9.8 0-5.3.1-10.6 0-1.5 0-3.1.1c-7.5-.1-14.3-2-20-7.3-4-4.6-4.5-7.8-4.5-13.7q0-1.1 0-2.2-.1-3.8-.1-7.5 0-1.3 0-2.6 0-6.9-.1-13.7 0-5.6 0-11.2-.1-6.8-.1-13.6 0-2.6-.1-5.1c-.2-16.4 2.8-31.8 10.2-46.5q.6-1.3 1.2-2.6c4.5-8.7 10-16.3 16.2-23.7q.7-.8 1.3-1.6c19.6-23.9 48.5-38.1 79-41.1 14.3-1.1 28.8-.7 43.2-.6z" fill="#529fea"/><path d="M363.1 322.5c16.3 13.8 26.8 33.3 29.9 54.5 1 14.2 1.1 28.5-4 42l-1.2 3.2c-8.7 22.4-25 38.6-46.6 48.8-20.1 8.8-45.5 10.8-66.2 3-23.9-9.9-41.5-26.9-51.7-50.6-8.4-22.1-8.3-47.7.8-69.5 9.8-21.9 27-37.5 48.9-46.9 31.2-10.8 64.3-5.2 90.1 15.5z" fill="#539fea"/><path d="M303.5 501.7q5.8 0 11.5 0 5.6 0 11.2 0 2.7 0 5.3 0c29 0 57.7 6.2 80.5 25.3q1.7 1.4 3.4 2.7c20.3 16.6 34.9 39.7 40.6 65.3.2 1.1.2 1.1.5 2.1 1.8 8.7 1.8 17.3 1.8 26.2q0 2.4.1 4.9 0 5.2 0 10.3 0 6.6 0 13.2.1 5.1.1 10.2 0 2.5 0 4.9 0 3.4 0 6.8 0 1.9 0 3.9c-.7 5.1-3.1 8.1-6.7 11.7-7.3 4.7-14.6 5.2-23.1 5.2q-1.7 0-3.4 0-5.5 0-11 0-4 0-8 0-9.7.1-19.4.1-7.8 0-15.7 0-2.3 0-4.5 0h-2.3q-21.4 0-42.7 0-19.6 0-39.1 0-20.1.1-40.1.1-11.3 0-22.5 0-9.6.1-19.2 0-4.9 0-9.8 0-5.3.1-10.6 0-1.5 0-3.1.1c-7.5-.1-14.3-2-20-7.3-4-4.6-4.5-7.8-4.5-13.7q0-1.1 0-2.2-.1-3.8-.1-7.5 0-1.3 0-2.6 0-6.9-.1-13.7 0-5.6 0-11.2-.1-6.8-.1-13.6 0-2.6-.1-5.1c-.2-16.4 2.8-31.8 10.2-46.5q.6-1.3 1.2-2.6c4.5-8.7 10-16.3 16.2-23.7q.7-.8 1.3-1.6c19.6-23.9 48.5-38.1 79-41.1 14.3-1.1 28.8-.7 43.2-.6zm-105.8 60.2c-14.3 17.6-20.9 38-20.8 60.4q0 1.9 0 3.9 0 4 0 8.1 0 5.1 0 10.3 0 4.9 0 9.9 0 1.8 0 3.7 0 1.7 0 3.5 0 1.5 0 3c-.2 2.3-.2 2.3 1.1 3.3q2.1.1 4.1.1h2.7q1.5 0 3 0h3.2q5.3 0 10.6 0 3.8 0 7.6 0 8.1 0 16.3 0 11.8 0 23.6 0 19.2 0 38.4 0 18.6 0 37.2 0 1.1 0 2.3 0 5.7 0 11.5 0 47.8-.1 95.5-.1.2-11.2.2-22.4 0-3.8.1-7.6c.4-32.1-4.6-58.5-27.5-82.3-18.1-17.9-44.2-28.8-69.7-28.9h-2.3q-3.8 0-7.5 0-1.3 0-2.6-.1-6.9 0-13.7 0-7 0-14-.1-5.5 0-10.9 0-2.6 0-5.2-.1c-31.8-.3-62.3 10.6-83.2 35.4z" fill="#0e3d7e"/><path d="M757 288q1 .3 2.1.5c34.1 8.7 65 29.4 83.9 59.5 19 32.1 25.9 70.1 16.9 106.7-6.8 25.4-19.7 46.6-37.9 65.3q-.9 1-1.8 2c-21.9 23.7-57.3 36.6-88.8 38.1-37.2 1.4-71.5-10.3-98.9-35.7-1.2-1.2-1.2-1.2-2.5-2.4q-1.3-1.2-2.7-2.5c-23.6-22.6-38.8-56.1-39.6-88.9q0-3.9 0-7.8 0-1 0-2.1c0-10.5.6-20.5 3.3-30.7q.3-1 .5-2c5.6-20.8 15.2-39.8 29.5-56q1-1.2 2.1-2.5c18-20.9 42.4-34.5 68.9-41.5 1-.3 1-.3 2-.5 19.4-5.1 43.7-4.5 63 .5zm-67 27q-1 .3-2 .7c-29.3 10.4-51.6 30.9-65.7 58.6-1.6 3.5-3 7.1-4.3 10.7q-.4 1-.7 1.9c-9.7 26.1-5.9 58 5.5 82.8 5.1 10.4 11.2 19.7 19.2 28.2 2 2.1 2 2.1 4.4 5.2 15.1 16.9 37.1 25 58.6 29.9.9.3.9.3 1.8.5 14.5 3.1 34.2 1.5 48.2-2.5q1-.3 2-.6c15.3-4.5 29-11.9 41-22.4q1.2-1 2.5-2.1c11-9.4 18.9-20.1 25.5-32.9q.7-1.3 1.4-2.7c7.1-14.6 11-31.1 10.9-47.3q0-1.6 0-3.3c-.4-31.3-12.6-57-34.6-79-14.2-13.4-31.2-21.4-49.7-26.7q-1.7-.5-3.5-1.1c-18.1-4.7-42.9-4.1-60.5 2.1zm-326.9 7.5c16.3 13.8 26.8 33.3 29.9 54.5 1 14.2 1.1 28.5-4 42l-1.2 3.2c-8.7 22.4-25 38.6-46.6 48.8-20.1 8.8-45.5 10.8-66.2 3-23.9-9.9-41.5-26.9-51.7-50.6-8.4-22.1-8.3-47.7.8-69.5 9.8-21.9 27-37.5 48.9-46.9 31.2-10.8 64.3-5.2 90.1 15.5zm-107.6 26.4c-13.1 16.7-15.3 33.3-13.5 54.1 1.1 5.8 3.2 10.8 6 16q.8 1.5 1.5 3c7.9 13.7 21 25 36.3 29.4q1.1.3 2.2.6 1.1.3 2.2.6c17.5 4.3 34.8.6 50.1-8.5 10.5-6.9 18.1-16.3 23.4-27.5.5-1 .5-1 .9-1.9 6.5-14.1 6.5-32.2 1.4-46.7-3.8-9.4-8.7-16.9-16-24q-.9-.9-1.8-1.9c-12.2-11.9-29.8-15.4-46.1-15.4-18.2.3-34.6 8.5-46.6 22.2z" fill="#0d3c7d"/><path d="M551.2 622.9q1.7 0 3.3 0h3.7 3.8q5.3-.1 10.7-.1 5.7 0 11.4 0 12.5 0 25 0 7.9 0 15.7 0 21.6 0 43.2 0 1.4 0 2.8 0 1.4 0 2.8 0 2.8 0 5.7 0 1.3 0 2.8 0 22.6 0 45.2-.1 23.2 0 46.4 0 13 0 26.1 0 11.1-.1 22.2-.1 5.6 0 11.3 0 6.1 0 12.3 0h3.6q1.6 0 3.3 0 1.4 0 2.9 0c4.2.6 6.8 2.7 9.9 5.5 2.4 4 2.6 7.4 1.7 11.9-2.1 3.8-5 6.4-9 8-2.5.3-2.5.3-5.4.3h-3.3q-1.7 0-3.6 0h-3.9q-5.3 0-10.6 0-5.7 0-11.4 0-11.2 0-22.4 0-9.2 0-18.3 0h-2.6q-2.6 0-5.2 0-24.7 0-49.4 0-22.6 0-45.3 0-23.2.1-46.4.1-13 0-26 0-11.1 0-22.2 0-5.7 0-11.3 0-6.1 0-12.3 0-1.8 0-3.6 0-1.6 0-3.3 0-1.4 0-2.9 0c-3.1-.5-5-1.6-7.6-3.4q-1.1-.7-2.3-1.5c-2.4-3.6-2.4-6.6-2.2-10.8.8-4.5 2.9-6 6.5-8.7 3-1 5.1-1.1 8.2-1.1z" fill="#0d3a7c"/><path d="M726 332c3.9 2.1 6.7 4.2 9 8 .4 3 .4 3 .3 6.6v2q0 3.2 0 6.4 0 2.3 0 4.5 0 5.9-.1 11.8 0 6.1-.1 12.1 0 11.8-.1 23.6 1 0 2.1 0 10.7-.2 21.5-.2 4 0 8-.1 5.8-.1 11.6-.1 1.7 0 3.6-.1c6.3 0 10.5.1 15.2 4.5 3 4.5 2.8 8.8 2 14-1.7 3.2-3.8 5.4-7 7q-3.3.2-6.6.2-1.1 0-2.1 0-3.4 0-6.8 0-1.2 0-2.4.1-6.1 0-12.3 0-6.3 0-12.6.1-4.9 0-9.8 0-2.3 0-4.7.1-3.3 0-6.5 0-1.9 0-3.8 0c-5.2-.8-8-3.2-11.7-6.7-2.2-3.7-2.3-6.9-2.2-11q0-1.2 0-2.5-.1-4 0-8 0-2.8 0-5.6-.1-5.8 0-11.7 0-7.5 0-15-.1-5.8 0-11.5 0-2.8 0-5.6-.1-3.8 0-7.7 0-1.1 0-2.3c0-4.9 1-7.4 4.5-10.9 3.5-2.5 6.8-2.4 11-2z" fill="#0d3c7e"/><path d="M781 295q2.1.4 4.2.8 1.1.2 2.3.4c3.1 1 5 2.7 7.5 4.8q2.6 1.7 5.3 3.3c11.7 7.4 22 16.7 31.7 26.7l-1 2q-1.2-1.3-2.5-2.6c-14.1-14.7-29.4-25-47.5-34.4q0-.5 0-1z" fill="#c2e9f6"/><path d="M105 241q1.5 1 3 2l-10 10q-1-1.5-2-3l9-9z" fill="#b0dff9"/><path d="M720 333q0 1 0 2-1 .4-1.9.9c-2.3.9-2.3.9-3.1 3.1q-1 0-2 0 0 1 0 2-1 0-2 0c1.6-5 3.5-8 9-8z" fill="#093173"/><path d="M588 407q1.5.5 3 1v7q-1.5-.5-3-1v-7z" fill="#164385"/></svg>