<svg xmlns="http://www.w3.org/2000/svg" width="1024" height="1024" xmlns:v="https://vecta.io/nano"><path d="M435.1 164.6q2.7 0 5.4 0 7.5 0 15 0 8 0 16.1 0 15.7 0 31.5 0 12.8 0 25.7 0h3.7q3.7 0 7.4 0 34.8-.1 69.6 0 31.8 0 63.6-.1 32.7 0 65.3 0 18.4 0 36.7 0 15.6 0 31.2 0 8 0 16 0 7.2 0 14.5 0 2.7 0 5.3 0c20-.1 37.7 4.3 52.3 18.7 3.4 3.7 6.2 7.4 8.6 11.8l1.4 2.4c5.8 10.9 7.8 22.1 7.7 34.3v3q0 4.9 0 9.8 0 3.6 0 7.1.1 8.8.1 17.5 0 10.5 0 21 0 25.4 0 50.8 0 12 0 24 0 41.1 0 82.2 0 2.6 0 5.1 0 2.6 0 5.2 0 5.2 0 10.4 0 1.3 0 2.6 0 41.7.1 83.4 0 44.1 0 88.2 0 4.8 0 9.6 0 1.2 0 2.5 0 19.1.1 38.3 0 19.3 0 38.6 0 11.4 0 22.9 0 8.5 0 17.1 0 3.4 0 6.9c.1 23.8-3.3 43.1-20.1 61.3-11.8 11.2-26.7 17-42.9 16.9h-2.2q-3.8 0-7.6 0-2.7 0-5.4 0-7.5.1-14.9.1-8.1 0-16.2 0-17.6 0-35.2 0-11 0-22 0-30.5 0-60.9 0h-4q-1.9 0-3.9 0-4 0-7.9 0-2 0-4 0-31.8 0-63.7.1-32.7 0-65.3 0-18.4 0-36.7 0-15.7.1-31.3.1-8 0-15.9 0-7.3 0-14.6 0-2.7 0-5.3 0c-20.7.1-37.3-5.6-52.4-20.3-13.8-14.8-18.2-34.5-18.1-54.1v-3q0-4.8 0-9.7 0-3.5 0-7 0-9.4 0-18.9 0-8.9 0-17.7 0-17.6 0-35.2 0-17.1 0-34.2 0-1 0-2.1 0-5.3 0-10.6.1-43.8.1-87.6h-93l.3 45.5v6.5q0 2.2 0 4.3 0 3.3 0 6.6a44.48 44.48 0 0 1 .1 3.7c-.5 4.4-1.7 8-5.2 10.9-4.5 2.1-8.1 3.3-13.2 2.5-5.4-2.6-9.1-7-13.2-11.3-2.2-2.1-4.3-4.1-6.6-6-5-4.3-9.6-9-14.2-13.7-3.9-4-8-7.8-12.3-11.5-2.6-2.3-5-4.8-7.5-7.3-1.9-1.9-3.9-3.7-5.9-5.4-5.3-4.6-10.1-9.5-14.9-14.5-4.1-4-8.2-7.9-12.5-11.6-3.1-2.8-6-5.7-8.9-8.7-4.3-4.3-8.6-8.5-13.3-12.5-1.8-1.6-3.5-3.3-5.2-5-2.3-2.3-4.5-4.4-7-6.5-4.3-3.7-8.3-7.7-12.4-11.6l-2-2c-4-4-6.8-7-7.3-12.8.5-7.3 3-10.7 8.2-15.6q1-1 2-2c3.1-3.3 6.3-6.3 9.7-9.2 5.2-4.6 10-9.5 14.8-14.5 1-1 1-1 2.1-2q.9-1 1.8-1.9c1.6-1.4 1.6-1.4 3.6-1.4q0-1 0-2c1.2-1.2 1.2-1.2 3.1-2.7 4.3-3.7 8.4-7.7 12.4-11.8 4.4-4.4 8.7-8.7 13.5-12.7 3.3-2.9 6.4-6.1 9.4-9.3 2.7-2.7 5.5-5.3 8.4-7.8 4.8-4.1 9.2-8.7 13.7-13.2 5-5.1 10.1-10.1 15.5-14.7 4.6-4.1 8.7-8.5 13-12.9q1.1-1.1 2.2-2.2.9-1 1.9-2c4.6-4.1 9-4.2 15-4.1 4.4.6 6 2 8.9 5.4 2.4 3.6 2.2 6.8 2.2 11.1q0 1 0 2.1 0 3.5 0 6.9 0 2.2 0 4.3 0 7.9-.1 15.8L269 435h93l-.2-45.9q0-14.5 0-28.9-.1-22.9-.2-45.8-.1-16.6-.1-33.3 0-8.8 0-17.6-.1-8.4-.1-16.7 0-3 0-6.1c-.2-21.5 3.7-40.3 18-57.1 7.2-7.2 15.8-12.5 25.6-15.6q1.2-.4 2.5-.8c9.2-2.6 18.1-2.6 27.6-2.6z" fill="#fa8a86"/><path d="M435.1 164.6q2.7 0 5.4 0 7.5 0 15 0 8 0 16.1 0 15.7 0 31.5 0 12.8 0 25.7 0h3.7q3.7 0 7.4 0 34.8-.1 69.6 0 31.8 0 63.6-.1 32.7 0 65.3 0 18.4 0 36.7 0 15.6 0 31.2 0 8 0 16 0 7.2 0 14.5 0 2.7 0 5.3 0c20-.1 37.7 4.3 52.3 18.7 3.4 3.7 6.2 7.4 8.6 11.8l1.4 2.4c5.8 10.9 7.8 22.1 7.7 34.3v3q0 4.9 0 9.8 0 3.6 0 7.1.1 8.8.1 17.5 0 10.5 0 21 0 25.4 0 50.8 0 12 0 24 0 41.1 0 82.2 0 2.6 0 5.1 0 2.6 0 5.2 0 5.2 0 10.4 0 1.3 0 2.6 0 41.7.1 83.4 0 44.1 0 88.2 0 4.8 0 9.6 0 1.2 0 2.5 0 19.1.1 38.3 0 19.3 0 38.6 0 11.4 0 22.9 0 8.5 0 17.1 0 3.4 0 6.9c.1 23.8-3.3 43.1-20.1 61.3-11.8 11.2-26.7 17-42.9 16.9h-2.2q-3.8 0-7.6 0-2.7 0-5.4 0-7.5.1-14.9.1-8.1 0-16.2 0-17.6 0-35.2 0-11 0-22 0-30.5 0-60.9 0h-4q-1.9 0-3.9 0-4 0-7.9 0-2 0-4 0-31.8 0-63.7.1-32.7 0-65.3 0-18.4 0-36.7 0-15.7.1-31.3.1-8 0-15.9 0-7.3 0-14.6 0-2.7 0-5.3 0c-20.7.1-37.3-5.6-52.4-20.3-13.8-14.8-18.2-34.5-18.1-54.1v-3q0-4.8 0-9.7 0-3.5 0-7 0-9.4 0-18.9 0-8.9 0-17.7 0-17.6 0-35.2 0-17.1 0-34.2 0-1 0-2.1 0-5.3 0-10.6.1-43.8.1-87.6h-93l.3 45.5v6.5q0 2.2 0 4.3 0 3.3 0 6.6a44.48 44.48 0 0 1 .1 3.7c-.5 4.4-1.7 8-5.2 10.9-4.5 2.1-8.1 3.3-13.2 2.5-5.4-2.6-9.1-7-13.2-11.3-2.2-2.1-4.3-4.1-6.6-6-5-4.3-9.6-9-14.2-13.7-3.9-4-8-7.8-12.3-11.5-2.6-2.3-5-4.8-7.5-7.3-1.9-1.9-3.9-3.7-5.9-5.4-5.3-4.6-10.1-9.5-14.9-14.5-4.1-4-8.2-7.9-12.5-11.6-3.1-2.8-6-5.7-8.9-8.7-4.3-4.3-8.6-8.5-13.3-12.5-1.8-1.6-3.5-3.3-5.2-5-2.3-2.3-4.5-4.4-7-6.5-4.3-3.7-8.3-7.7-12.4-11.6l-2-2c-4-4-6.8-7-7.3-12.8.5-7.3 3-10.7 8.2-15.6q1-1 2-2c3.1-3.3 6.3-6.3 9.7-9.2 5.2-4.6 10-9.5 14.8-14.5 1-1 1-1 2.1-2q.9-1 1.8-1.9c1.6-1.4 1.6-1.4 3.6-1.4q0-1 0-2c1.2-1.2 1.2-1.2 3.1-2.7 4.3-3.7 8.4-7.7 12.4-11.8 4.4-4.4 8.7-8.7 13.5-12.7 3.3-2.9 6.4-6.1 9.4-9.3 2.7-2.7 5.5-5.3 8.4-7.8 4.8-4.1 9.2-8.7 13.7-13.2 5-5.1 10.1-10.1 15.5-14.7 4.6-4.1 8.7-8.5 13-12.9q1.1-1.1 2.2-2.2.9-1 1.9-2c4.6-4.1 9-4.2 15-4.1 4.4.6 6 2 8.9 5.4 2.4 3.6 2.2 6.8 2.2 11.1q0 1 0 2.1 0 3.5 0 6.9 0 2.2 0 4.3 0 7.9-.1 15.8L269 435h93l-.2-45.9q0-14.5 0-28.9-.1-22.9-.2-45.8-.1-16.6-.1-33.3 0-8.8 0-17.6-.1-8.4-.1-16.7 0-3 0-6.1c-.2-21.5 3.7-40.3 18-57.1 7.2-7.2 15.8-12.5 25.6-15.6q1.2-.4 2.5-.8c9.2-2.6 18.1-2.6 27.6-2.6zM394.4 208c-5.4 7.9-6.9 16.7-6.8 26.1q0 1.4 0 2.9 0 4.8 0 9.7 0 3.5 0 7 0 8.6 0 17.3 0 10.3 0 20.7 0 20.3 0 40.5 0 17.8 0 35.5 0 1.2 0 2.4 0 4.8 0 9.6 0 44.8.1 89.6 0 39.8 0 79.7 0 2.5 0 5.1 0 1.2 0 2.5 0 6.4 0 12.8 0 1.2 0 2.5 0 33.3 0 66.6 0 3.5 0 7.1 0 2.4 0 4.8 0 16.5 0 33.1 0 21.3 0 42.7 0 10.3 0 20.6 0 9.4 0 18.8 0 3.4 0 6.8c-.2 25.8-.2 25.8 12.7 47.5 8.1 7.7 17.3 10.3 28.4 10.4h2.2q3.7 0 7.4 0 2.7 0 5.4 0 7.4 0 14.8 0 7.9 0 15.9 0 15.6 0 31.2 0 12.7 0 25.4 0 35.9.1 71.9.1 1.9 0 3.9 0 1.9 0 3.9 0 31.5 0 62.9 0 32.4.1 64.7.1 18.1 0 36.2 0 15.5 0 30.9 0 7.9 0 15.8 0 7.2 0 14.4 0 2.6 0 5.2 0c14.3.1 24.3-2.3 35-12.3 6.4-6.6 10.2-16.1 10.2-25.4q0-1.2 0-2.5v-2.7q0-1.4 0-2.9 0-4.9 0-9.8.1-3.6.1-7.1 0-8.7 0-17.5 0-10.4 0-20.9 0-25.2 0-50.5 0-11.9 0-23.9.1-40.9.1-81.8 0-2.6 0-5.1 0-1.3 0-2.6 0-6.4 0-12.9 0-1.3 0-2.6 0-41.5.1-83 0-43.9 0-87.8 0-4.8 0-9.6 0-1.2 0-2.4 0-19.1.1-38.2 0-19.2 0-38.4 0-10.4 0-20.8 0-9.5 0-19 0-3.4 0-6.9c.3-22.2.3-22.2-10.5-40.9-8.1-7.9-13.9-12.2-25.3-12.1q-1.1 0-2.3 0-3.7-.1-7.5-.1-2.7 0-5.4 0-7.5 0-15 0-6.4 0-12.8 0-21.1-.1-42.2-.1-5.5 0-11 0-34.2-.1-68.3-.1-7.9 0-15.8 0-2 0-4 0-31.8 0-63.7-.1-32.7-.1-65.4-.1-18.3 0-36.7-.1-15.6 0-31.2 0-8 0-16 0-7.3-.1-14.6 0-2.6 0-5.3-.1c-16.4-.1-28.4 4.6-39.1 17.8z" fill="#0e2a6c"/><path d="M241 397l2 1v1.9q-.2 9.7-.2 19.5 0 3.6-.1 7.3-.1 5.2-.1 10.5 0 1.6-.1 3.2c0 6.5.6 10.4 4.5 15.6 4.4 3.4 7.8 5.1 13.4 5.2h2.7q1.5 0 3 0 1.5 0 3.1 0 5.1.1 10.3.1 3.5 0 7.1.1 9.4.1 18.7.1 11.3.1 22.5.2 17.1.2 34.2.3v67l-22.9.1q-7.2 0-14.4.1-11.4 0-22.8.1-9.2 0-18.4.1-3.5 0-7 0-4.9 0-9.9.1-1.4-.1-2.9-.1c-6.9.1-12.4 1.5-17.6 6.3-3.5 5.9-3.8 11.1-3.8 17.8 0 1.6 0 1.6-.1 3.3q0 5.1 0 10.2 0 3.5-.1 7-.1 8.5-.1 17c-8.4-6.2-8.4-6.2-12-9.8-1-1-1-1-2-2.1q-1-1-2-2c-4.6-4.7-9.2-9.2-14.2-13.5-2.4-2.1-4.6-4.3-6.8-6.6a113.82 113.82 0 0 0-8.8-8.2c-4.6-4-8.8-8.4-13.1-12.7-3.6-3.6-7.3-7.1-11.2-10.4-3.3-2.9-6.4-6.1-9.5-9.3-2-2-4.1-3.9-6.3-5.8-5.7-4.8-10.8-10.3-16.1-15.6 4.4-5.4 9.2-10.1 14.3-14.9 4.7-4.3 9.3-8.6 13.8-13.2 2.4-2.4 4.9-4.8 7.5-7 5.1-4.3 9.7-9.2 14.3-13.9q.9-1 1.9-2 .9-.8 1.7-1.7c1.5-1.3 1.5-1.3 3.5-1.3q0-1 0-2c1.4-1.3 1.4-1.3 3.3-2.9 4.5-3.9 8.7-8 12.8-12.3 2.1-2.1 4.4-4.1 6.7-6.1 4.6-4 8.9-8.3 13.2-12.6q1.2-1.2 2.3-2.4 2.9-2.8 5.7-5.7z" fill="#4f96e5"/><path d="M558 428c11.4 9.1 20.3 20.2 22.7 35 1.6 17.2.4 34.5-11 48.6-7.8 9.1-7.8 9.1-12.7 12.4-.4 2.1-.4 2.1-.4 4.5v2.9q0 1.5.1 3.1-.1 3.3-.1 6.5 0 5.1 0 10.3c.1 16.3 0 28.3-11.5 40.9-6.5 5.7-12.4 6.2-20.8 6.1-7-.6-10.8-3.5-15.5-8.6-8.2-9.7-10.1-19.5-9.9-32q0-2.9 0-5.8 0-4.5 0-9.1.1-4.4 0-8.8.1-1.3.1-2.7c-.1-3.9-.2-6.3-2.8-9.4-2-1.7-4.1-3.3-6.2-4.9-11.9-14.1-17.1-31-15.7-49.3 2-13.8 7.6-26.9 18.7-35.7 19.2-12.9 44.8-18.3 65-4z" fill="#0e2b6e"/></svg>