<svg xmlns="http://www.w3.org/2000/svg" width="1024" height="1024" xmlns:v="https://vecta.io/nano"><path d="M184.6 71.6q2.2 0 4.4 0 6 0 12.1 0 6.5 0 13 0 12.8 0 25.6 0 10.4 0 20.8 0h3q3 0 6 0 28.2-.1 56.4 0 25.7 0 51.5-.1 26.5 0 53 0 14.8 0 29.7 0 12.7 0 25.3 0 6.5 0 12.9 0 5.9 0 11.8 0 2.2 0 4.3 0c11.3-.1 20.4 1.5 28.8 9.4 6.6 7.7 7.9 15.8 8 25.6q0 1.3 0 2.6 0 4.1 0 8.3 0 2.9 0 5.9 0 6.1 0 12.2.1 7.8.1 15.6 0 6 0 12 0 2.9 0 5.8.1 4 .1 8.1 0 1.1 0 2.4c-.1 7.9-2.4 16.3-7.4 22.6-6.2 5.8-12.7 9.2-21.3 9.1q-1.3 0-2.7-.1-1 0-2 0 .1 6.2.3 12.4 0 2.1 0 4.2c.2 12.8.2 12.8 5.8 24.1 4 3.2 8.3 5.1 12.9 7.3 24.7 11.7 44.1 28.6 53.7 54.9 1.3 4 2.4 8 3.3 12.1q.2.9.5 1.9c2.1 8.8 1.8 17.7 1.8 26.7q0 2.8 0 5.6 0 7.8 0 15.6 0 8.4 0 16.8 0 16.5 0 33 0 13.3 0 26.7 0 1.9 0 3.9 0 3.9 0 7.7 0 26 0 52 0 1 0 2.1 0 5.1 0 10.3 0 1 0 2 0 2.1 0 4.2 0 32.1 0 64.3.1 36.2.1 72.3 0 19.2 0 38.3 0 16.3 0 32.6 0 8.3 0 16.6 0 7.7 0 15.3 0 2.7 0 5.5c0 13.9-.5 28.1-6.7 40.9-.4 1-.4 1-.9 2-5.3 11.2-12.2 19.9-20.8 28.7q-1.2 1.3-2.4 2.5c-2.9 2.8-5.9 5.1-9.1 7.4q-.9.7-1.8 1.3c-7 4.9-14.4 8.7-22.7 10.8l137 1q0-1 0-2-1-.3-2.1-.7c-3.6-1.6-6-3.6-8.9-6.3q0-1 0-2-1.5-.5-3-1c-10.4-12.2-15.6-26.5-15.4-42.4q0-1.5.1-3.1c.3-15.5 5.5-30 16.3-41.5 3.5-3.2 7.2-6.2 11-9q1.3-1 2.6-2c4.9-2.9 10.1-4.9 15.4-7q1.8-.7 3.6-1.4 3.8-1.6 7.5-3.1 5.7-2.2 11.4-4.5 19-7.7 38.2-15.2 1.8-.7 3.6-1.4 1.6-.7 3.3-1.3 1.5-.6 3-1.2 2.7-1 5.4-1.9c3.5 8.2 6.7 16.6 9.8 25q1.9 5.4 3.9 10.9l.8 2.2 9.1 24.6q1.6 4.4 3.2 8.7l.8 2.2q3.9 10.5 7.8 21 1 2.8 2.1 5.6c2.4 6.6 4.6 13.1 6.5 19.8q-8 3.1-16.1 6.3-2.7 1-5.4 2.1-16.6 6.5-33.2 12.9-1.8.7-3.6 1.4-4.4 1.6-8.7 3.3h2.6q31.8.2 63.5.3 15.4.1 30.7.2 13.4.1 26.8.1 7.1.1 14.2.1 6.6 0 13.3.1 2.5 0 4.9 0 3.4 0 6.7 0 1.9.1 3.8.1c6.8.2 11.1.7 16 5.4 4.7 5.4 5.1 10.9 4.8 17.8-.5 4.5-1.4 6.4-4.3 9.9-9.1 6.7-18.5 6.1-29.4 6.1q-2 0-4.1 0-5.7 0-11.3 0-6.2 0-12.4 0-10.8 0-21.6 0-16.1 0-32.2.1-30.4 0-60.8 0-23.5 0-46.9 0-6.8 0-13.5 0h-3.4q-47.3 0-94.5 0-1.8 0-3.6 0-9 0-18.1 0-1.7 0-3.6 0-3.6 0-7.2 0-56.5 0-112.9 0-63.3 0-126.7 0-6.8 0-13.5 0h-3.4q-26.8 0-53.6 0-26.9.1-53.8 0-16 0-32 .1-10.7 0-21.3 0-6.1-.1-12.2 0-5.5 0-11.1 0-2.9 0-5.8 0c-20.4-.1-20.4-.1-27.4-7-3.6-5-6-11.7-5.5-17.9.9-2.7 2.1-4.7 3.7-7.1q.7-1.1 1.5-2.3c1.9-2.3 3.6-3.8 6.5-4.4 8.1-.8 16.2-.7 24.4-.7q2.3 0 4.7 0 6 0 12.1 0 6.3 0 12.5.1 12.2 0 24.4 0 0-1 0-2-1.3-.2-2.7-.3c-17.7-3.5-34.7-20.5-44.6-34.9-12.3-19-16.3-38.8-16.2-61.3q0-2.8 0-5.7 0-7.7 0-15.5 0-8.4 0-16.7 0-16.4 0-32.8 0-19.1 0-38.2 0-35.2 0-70.3.1-32 .1-64.1 0-8.2-.1-16.4 0-1 0-2 0-26.8.1-53.6 0-3.9 0-7.7 0-1.9 0-3.8 0-13.4 0-26.7 0-16.2 0-32.4 0-8.3 0-16.5 0-7.6 0-15.2 0-2.7 0-5.5c-.1-28.9 9.1-52.6 29.3-73.7 8.2-7.9 17.6-13.2 27.6-18.5 10.9-5.9 10.9-5.9 17.6-16 1.6-6 1.1-12.5 1-18.6q0-2 0-4 0-4.8-.1-9.6-1.2-.1-2.5-.2-1.6-.1-3.2-.2-1.6-.1-3.2-.2c-8.1-1-14.8-5.3-20.1-11.4-5.1-7.9-6.1-15.1-6.2-24.4v-2.5q0-4.1 0-8.1v-2.9q0-7.4 0-14.7-.1-7.6-.1-15.3 0-5.8 0-11.7 0-2.8 0-5.6c-.1-13.3-.1-24.5 9.3-34.8 8.5-8.5 18.2-8.4 29.6-8.4z" fill="#00909b"/><path d="M183.7 346.4q2.3 0 4.5 0 6.2-.1 12.4 0 6.7 0 13.3 0 13.1 0 26.2 0 15.2 0 30.4 0 27.1 0 54.2.1 26.4 0 52.7 0 28.7 0 57.3 0h3.1q3 0 6.1 0 10.6 0 21.2 0 12.9 0 25.8.1 6.6 0 13.2 0 6 0 12.1 0 2.2 0 4.3 0c15.6-.1 15.6-.1 21.7 5.3q.8 1.1 1.7 2.1.8 1 1.7 2.1c2.6 3.6 2.5 6.8 2.5 11.2q0 1.9 0 3.9 0 2.3 0 4.5 0 2.3 0 4.6.1 6.5.1 12.9 0 6.9 0 13.9 0 15.1 0 30.3 0 9.5 0 18.9 0 26.2 0 52.4 0 1.7 0 3.4 0 1.7 0 3.4 0 3.4 0 6.8 0 1.7 0 3.5 0 27.4.1 54.7 0 28.2 0 56.3 0 15.8 0 31.5.1 13.5.1 26.9 0 6.9 0 13.8 0 6.2 0 12.5 0 2.3 0 4.6c.1 15.9.1 15.9-5.1 21.9q-.9.7-1.8 1.4-.9.7-1.8 1.4c-3.5 2.4-6.6 2.3-10.7 2.3q-1.9 0-3.8 0-2.2 0-4.3 0-2.2 0-4.5 0-6.1.1-12.3.1-6.7 0-13.3 0-14.6 0-29.1 0-9.1 0-18.2 0-25.1 0-50.3 0-1.6 0-3.2 0-1.6 0-3.3 0-3.3 0-6.5 0-1.6 0-3.3 0-26.3 0-52.6.1-26.9 0-53.9 0-15.2 0-30.3 0-12.9.1-25.8.1-6.6 0-13.2 0-6 0-12 0-2.2 0-4.4 0c-17.3.1-17.3.1-23.9-5.1q-.6-.9-1.3-1.8-.7-.9-1.4-1.8c-2.3-3.6-2.2-6.8-2.2-11q0-.9 0-1.9-.1-3.3-.1-6.5 0-2.4 0-4.7 0-6.5 0-13 0-6.9 0-13.9-.1-16.8-.1-33.7 0-4.7 0-9.5 0-29.5 0-59 0-6.8-.1-13.6 0-1.7 0-3.5 0-27.5 0-55-.1-28.3-.1-56.5 0-15.9-.1-31.8 0-13.5 0-27 0-6.9 0-13.8 0-6.3 0-12.6 0-2.3 0-4.6c-.2-14.2-.2-14.2 4-19.5 7.3-7.3 14.3-7.3 24.3-7.2z" fill="#fdeecd"/><path d="M184.6 71.6q2.2 0 4.4 0 6 0 12.1 0 6.5 0 13 0 12.8 0 25.6 0 10.4 0 20.8 0h3q3 0 6 0 28.2-.1 56.4 0 25.7 0 51.5-.1 26.5 0 53 0 14.8 0 29.7 0 12.7 0 25.3 0 6.5 0 12.9 0 5.9 0 11.8 0 2.2 0 4.3 0c11.3-.1 20.4 1.5 28.8 9.4 6.6 7.7 7.9 15.8 8 25.6q0 1.3 0 2.6 0 4.1 0 8.3 0 2.9 0 5.9 0 6.1 0 12.2.1 7.8.1 15.6 0 6 0 12 0 2.9 0 5.8.1 4 .1 8.1 0 1.1 0 2.4c-.1 7.9-2.4 16.3-7.4 22.6-12.5 11.8-29.3 10.2-45.3 10.1q-2.1 0-4.1 0-5.6 0-11.2 0-6.1 0-12.1 0-11.9 0-23.7 0-9.7 0-19.3 0-1.3 0-2.8 0-2.7 0-5.5 0-26.2 0-52.3 0-22.4 0-44.8 0-26 0-52.1 0-2.7 0-5.5 0-1.4 0-2.8 0-9.6 0-19.2 0-11.7 0-23.4 0-6 0-12 0-5.5 0-10.9 0-2.9 0-5.8 0c-26.6 0-26.6 0-37.4-10-6.8-7.9-7.9-16.5-8-26.5v-2.5q0-4.1 0-8.1v-2.9q0-7.4 0-14.7-.1-7.6-.1-15.3 0-5.8 0-11.7 0-2.8 0-5.6c-.1-13.3-.1-24.5 9.3-34.8 8.5-8.5 18.2-8.4 29.6-8.4z" fill="#f5910c"/><path d="M760 727c3.2 1.6 3.3 4.2 4.5 7.5q.3 1 .7 2 .8 2.3 1.6 4.5 2.2 6.1 4.4 12.3.4 1.3.9 2.6l11 30q2.1 5.4 4.1 10.8.5 1.3 1 2.7 4.2 11.4 8.4 22.8 1 2.7 2 5.4A258.91 258.91 0 0 1 805 847q-8 3.1-16.1 6.3-2.7 1-5.4 2.1-16.6 6.5-33.2 12.9-1.8.7-3.6 1.4-4.4 1.6-8.7 3.3h2.6q31.8.2 63.5.3 15.4.1 30.7.2 13.4.1 26.8.1 7.1.1 14.2.1 6.6 0 13.3.1 2.5 0 4.9 0 3.4 0 6.7 0a48.2 48.2 0 0 0 3.8.1c6.8.2 11.1.7 16 5.4 4.7 5.4 5.1 10.9 4.8 17.8-.5 4.5-1.4 6.4-4.3 9.9-9.1 6.7-18.5 6.1-29.4 6.1q-2 0-4.1 0-5.7 0-11.3 0-6.2 0-12.4 0-10.8 0-21.6 0-16.1 0-32.2.1-30.4 0-60.8 0-23.5 0-46.9 0-6.8 0-13.5 0h-3.4q-47.3 0-94.5 0-1.8 0-3.6 0-9 0-18.1 0-1.7 0-3.6 0-3.6 0-7.2 0-56.5 0-112.9 0-63.3 0-126.7 0-6.8 0-13.5 0h-3.4q-26.8 0-53.6 0-26.9.1-53.8 0-16 0-32 .1-10.7 0-21.3 0-6.1-.1-12.2 0-5.5 0-11.1 0-2.9 0-5.8 0c-20.4-.1-20.4-.1-27.4-7-3.6-5-6-11.7-5.5-17.9.9-2.7 2.1-4.7 3.7-7.1l1.5-2.3c1.9-2.4 3.6-3.8 6.7-4.4 6-.5 12-.7 18-.7q1.5 0 3 0 4.9 0 9.7 0 3.6 0 7.1 0 8.7 0 17.4 0 10.4 0 20.9 0 19.2 0 38.4 0 19.1 0 38.1 0h2.4q6 0 12 0 42.6 0 85.2 0 41.4 0 82.7 0h2.6q12.8 0 25.6 0 26.1.1 52.2.1h2.4q80.1 0 160.2 0 0-1 0-2-1-.3-2.1-.7c-3.6-1.6-6-3.6-8.9-6.3q0-1 0-2-1.5-.5-3-1c-10.4-12.2-15.6-26.5-15.4-42.4q0-1.5.1-3.1c.3-15.5 5.5-30 16.3-41.5 3.5-3.2 7.2-6.2 11-9q1.3-1 2.6-2c4.9-2.9 10.1-4.9 15.4-7q1.8-.7 3.6-1.4 3.8-1.6 7.5-3.1 5.7-2.2 11.4-4.5 20.9-8.4 41.9-16.6 1.6-.7 3.3-1.3 1.5-.6 3-1.2c2.3-.9 2.3-.9 4.3-1.9z" fill="#f9e9ca"/><path d="M858 516l5 5q.9.9 1.8 1.7c4.5 4.7 7.7 9.6 10.6 15.3q.5 1 1 2c6.8 14 7.2 33.1 2.5 47.8-6.2 17.6-20.4 30.2-34.9 41.2-5.7 4.5-11.2 9.1-16.6 14.1-4.1 3.7-8.3 7.3-12.7 10.7-3.3 2.6-6.4 5.4-9.6 8.1q-3.6 3.1-7.1 6.1-.8.7-1.7 1.4-2.2 1.9-4.5 3.9-1.3 1-2.6 2.2C787 677 787 677 784 677c-1.8-1.9-1.8-1.9-3.9-4.6-1.2-1.5-1.2-1.5-2.4-3.1q-.7-.8-1.3-1.6l-7.3-8.6q-1.5-1.8-3.1-3.6l-1.5-1.7q-5.6-6.6-11.1-13.2-2.8-3.2-5.5-6.5-1.4-1.6-2.8-3.2-3.4-4.1-6.9-8.2c-4.3-5-8.5-10-12.6-15.1-3.7-4.5-7.5-8.9-11.3-13.3-4.3-4.9-8.5-9.9-12.3-15.3 19.7-18.2 19.7-18.2 25-20q0-1 0-2c1.7-1.6 1.7-1.6 4.2-3.4q6.2-4.9 12.2-10 7.3-6.2 14.8-12.3 3.8-3.2 7.6-6.4c26.9-23.1 62-33.4 92.2-8.9z" fill="#f28f08"/><path d="M870.4 687.7c2.3-.1 4.4.1 6.6.3q1.8.2 3.8.4c15.5 2 28.3 8.2 39.2 19.6l1.9 1.9c11.1 11.6 14.9 27.5 15.4 43.1-.4 16.6-7 32.3-18.4 44.2-9 8.3-19 13.6-30.3 17.7q-3.5 1.3-7 2.6-1.7.7-3.4 1.3l-13.1 5.2c-9 3.6-18 7-27.1 10.3-5.4 1.9-10.7 4-16 6.1q-1.4.6-2.8 1.2-2.6 1.1-5.1 2.2-1.1.4-2.3.9-.9.4-1.9.8c-2.4.6-3.6.5-5.9-.5-1.2-2-1.2-2-2.1-4.8q-.6-1.4-1.2-3-.5-1.6-1.1-3.2-.5-1.5-1.1-3-1.8-5-3.5-10l-11.2-30.9q-2-5.6-4.1-11.2-2.9-7.7-5.8-15.5-2.6-7.1-5.2-14.2-1.1-2.8-2.1-5.5-1.4-3.9-2.9-7.8-.4-1.1-.9-2.3L761 728c1.5-3 3.5-3.1 6.6-4.2q1.8-.6 3.5-1.3 1.9-.6 3.8-1.3c7.6-2.7 15.1-5.6 22.4-9 4.9-2.2 9.8-4 14.8-5.9 6.9-2.6 13.8-5.2 20.6-8.1 12.6-5.3 24.1-9 37.7-10.5z" fill="#00757f"/><path d="M701.9 580c2.8 1.3 4.3 3 6.3 5.4q1.2 1.3 2.4 2.7 4.5 5.4 9 10.9 4.1 5 8.3 9.9 7.9 9.2 15.7 18.5 3.5 4 6.9 8.1 4.1 4.9 8.2 9.7 8 9.5 16.2 19 1.3 1.6 2.7 3.2 1.4 1.6 2.9 3.3c3.5 4.1 3.5 4.1 3.5 6.3q1 .5 2 1l-3 2.5-21.4 17.6q-5 4.3-10.1 8.4c-5.2 4.2-10.3 8.6-15.5 12.9q-1.5 1.3-3 2.6-.8.7-1.6 1.4c-4.2 3.6-4.2 3.6-6.4 3.6q0 1 0 2c-15.4 13.7-33.7 18-53.7 17.2-16.2-1.3-32-8.7-42.7-21-5-6.3-8.7-12.7-11.6-20.2q-.6-1.6-1.2-3.2c-1-3.6-1.5-7.1-1.8-10.8-.1-1.6-.1-1.6-.3-3.3C613 672 617 655.3 627 643q1-1.3 2.1-2.6c5.3-6.2 11.4-11.3 17.9-16.4q2.7-2.2 5.3-4.4 5.3-4.3 10.7-8.5c6.1-4.8 12.1-9.7 17.9-14.7 4.6-4 9.2-7.8 13.9-11.6 2.2-1.7 2.2-1.7 3.8-3.6 1.4-1.2 1.4-1.2 3.3-1.2z" fill="#00747f"/><path d="M760 727c3.2 1.6 3.3 4.2 4.5 7.5l.7 2q.8 2.3 1.6 4.5 2.2 6.1 4.4 12.3.4 1.3.9 2.6l11 30q2.1 5.4 4.1 10.8.5 1.3 1 2.7 4.2 11.4 8.4 22.8 1 2.7 2 5.4A258.91 258.91 0 0 1 805 847q-9.4 3.7-18.9 7.4l-2.8 1.1-37.1 14.3q-8.8 3.4-17.4 7.1c-18.3 7.4-36.5 6.8-54.6-.6q-2.6-1.1-5.2-2.3 0-1 0-2c-1.1-.3-1.1-.3-2.1-.7-3.6-1.6-6-3.6-8.9-6.3q0-1 0-2-1.5-.5-3-1c-10.4-12.2-15.6-26.5-15.4-42.4q0-1.5.1-3.1c.3-15.5 5.5-30 16.3-41.5 3.5-3.2 7.2-6.2 11-9q1.3-1 2.6-2c4.9-2.9 10.1-4.9 15.4-7q1.8-.7 3.6-1.4 3.8-1.6 7.5-3.1 5.7-2.2 11.4-4.5 20.9-8.4 41.9-16.6 1.6-.7 3.3-1.3l3-1.2c2.3-.9 2.3-.9 4.3-1.9z" fill="#f28f08"/><path d="M376.8 488.1c7 6 10.9 13.4 15 21.5 5 9.6 10.8 14.8 20.6 19.3 1.3.6 1.3.6 2.5 1.2q3.1 1.5 6.1 2.9 0 1 0 2 1.5.5 3 1c1.5 2.1 1.5 2.1 3.1 4.7q.7 1.3 1.5 2.6c4.7 9.1 5.3 20.5 2.3 30.3-3 6.2-7 11.5-11.9 16.4q-1.1 1.1-2.3 2.2c-9.9 6.4-21.2 7.4-32.7 5.8-4-1-7.7-2.7-11.4-4.4-11.7-5.3-22.7-7.7-35-3q-4.4 1.7-8.8 3.7c-6 2.7-11.3 4.1-18 4.1q-1.1 0-2.3 0c-9.6-.2-18.1-3.3-25.2-10-8.1-8.5-12.2-17.4-11.9-29.1.6-10.6 4.8-19.2 12.6-26.3 3.4-2.2 6.9-3.9 10.6-5.6 13-6.1 17.4-13.6 23.7-26.3 4.4-8.4 9.6-14.3 18.4-18l2.8-1.2c13.6-5.1 25.7-1.3 37.3 6.2z" fill="#f38d07"/><path d="M197.1 210.9q1.7 0 3.5 0 1.8 0 3.7 0 1.9 0 4 0 5.4 0 10.9 0 5.9 0 11.8 0 11.5 0 23.1 0 9.4 0 18.8 0h2.7q2.7 0 5.4 0 25.4 0 50.9 0 21.8 0 43.6 0 25.4 0 50.8 0 2.7 0 5.4 0 1.3 0 2.7 0 9.3 0 18.7 0 11.4 0 22.9 0 5.8 0 11.6 0 6.3 0 12.6 0 1.9 0 3.8 0 1.6 0 3.4 0h2.9c2.7.1 2.7.1 7.7 1.1l-1 26H183l-1-26c10.1-1.1 10.1-1.1 15.1-1.1z" fill="#006476"/><path d="M212.8 635.9l3-.1q1.7 0 3.4 0h3.6q4.9 0 9.9 0 5.3 0 10.6 0 12.9-.1 25.7-.1 3.7 0 7.3 0 22.5 0 45 0 5.3 0 10.5-.1 1.3 0 2.6 0 21 0 42 0 21.6-.1 43.2-.1 12.1 0 24.2-.1 10.3 0 20.7 0 5.2 0 10.5 0 5.7 0 11.4 0 1.7 0 3.4-.1c7.4.1 7.4.1 11.4 3.1 2.7 3.9 3.2 6.9 2.8 11.6-.9 3-1.9 4.4-4 7-5.6 2.7-11.4 2.3-17.4 2.3h-3.5q-4.8 0-9.6 0-5.2 0-10.4 0-10.2 0-20.3 0-8.3 0-16.5 0h-2.4q-2.4 0-4.7 0-22.4 0-44.8 0-20.4 0-40.9 0-21 .1-42 .1-11.8 0-23.6 0-10.1 0-20.1 0-5.1 0-10.3 0-5.5 0-11.1 0-1.6 0-3.2 0c-5.5 0-9.5-.3-14.2-3.4-2.8-2.9-3.4-5-3.4-8.9.1-3.7.3-5 2.3-8.2 3.1-2.8 4.7-3 8.9-3zm.8 50h2.5 2.6q4.4-.1 8.7-.1 3.1 0 6.2 0 8.5 0 16.9 0 5.3 0 10.6 0 16.5 0 33 0 19.1 0 38.2-.1 14.8 0 29.5 0 8.8 0 17.6 0 8.3-.1 16.6-.1 3 0 6.1 0 4.1 0 8.3 0 1.2 0 2.4 0c5.7.1 8.9 1.3 13 5.1 1.8 3.4 1.7 6.6 1.2 10.3-1.4 3.4-2.5 4.7-5.6 6.6-4.2 1.7-7.5 1.8-12 1.8q-1.3 0-2.6 0-4.3 0-8.6 0-3.1 0-6.1 0-8.4 0-16.7 0-7 0-14 0-16.4.1-32.9 0-16.9 0-33.9.1-14.6 0-29.1 0-8.7 0-17.4 0-8.2 0-16.4 0-3 0-6 0-4.1 0-8.2 0h-2.4c-5 0-7.6-.9-11.1-4.5-2.6-4-2.9-8.3-2-13 2.4-3 2.4-3 5-5 1.8-1.8 4.2-1.1 6.6-1.1z" fill="#008c99"/><path d="M408.4 393.4c8.5 8.6 12.6 17.2 13 29.3-.3 16-6.2 29.9-17.4 41.3-6.3 4.6-12.2 6.5-20 6-5.4-1.9-10.3-3.9-13.1-9.1-2.8-6.4-4.1-12.9-4.9-19.9q-.1-1.1-.3-2.2c-.7-13.5 5-28.1 13.7-38.2 8.2-8.5 17.2-12 29-7.2zm-86-.5c11.1 6.8 16.8 17 20.6 29.1.7 3 .9 5.9 1 9q.1 1.3.2 2.7c.5 11.6-2.4 23.5-10.2 32.3-4.7 3.6-9.8 4.5-15.6 4.4-7.7-1.3-13.9-9.5-18.4-15.4-8.7-13.7-10.8-26.9-9-43 1.7-7.6 6.4-13.8 13-18 5.4-3.3 12.6-3.3 18.4-1.1zm143.9 51.5c6.6 6.3 10.8 11.6 11.1 20.9-.1 14.4-6 26.2-15.8 36.6-5.1 4.8-9.1 7.1-16.3 7.7-6.4-.2-12-3-17.3-6.6-4.7-5.2-6.5-10.6-6.3-17.6 2-15.3 10.5-29.6 22.5-39.1 6.7-4.4 14.7-5.1 22.1-1.9zM257 443c14.1 4.8 20.6 15.3 27 28 3.1 7 4.1 14.4 3 22-2.3 5.5-6.2 10.6-11.6 13.3q-1.4.5-2.8.9c-1.3.6-1.3.6-2.7 1.1-7.2 1.8-11.7-.2-18.1-3.6-9.5-5.8-14.6-18-17.7-28.4-2-8.2-2.2-15.7 1.7-23.4 1.7-2.7 3.7-4.8 6.2-6.9q.9-.8 1.8-1.6c4.1-2.7 8.5-2.1 13.2-1.4z" fill="#f38d07"/><path d="M359.8 94.7c4.1.4 5.4 1.3 8.2 4.3.5 3 .7 5.4.6 8.3q0 1.3 0 2.6 0 4.1 0 8.2 0 2.9 0 5.8-.1 6-.1 12-.1 7.8-.1 15.5 0 5.9 0 11.9 0 2.8 0 5.7-.1 4-.1 7.9 0 1.2 0 2.4c-.1 5.5-.1 5.5-2.3 7.7-2 .3-2 .3-4.4.4q-1.1 0-2.3.1c-3.3-.7-4.3-1.9-6.3-4.5-.4-2.7-.5-5.1-.5-7.8q0-1.2 0-2.4 0-3.8 0-7.7 0-2.7 0-5.4 0-5.6 0-11.3.1-7.2 0-14.4 0-5.6.1-11.2 0-2.6 0-5.3 0-3.7 0-7.4v-2.3c.1-5.4.9-12.4 7.1-13.1zm-112.3.8q1.2 0 2.3 0c2.2.5 2.2.5 3.8 2 2 3.5 1.8 6.7 1.8 10.6q0 1.2 0 2.5 0 4 0 8.1 0 2.8 0 5.6 0 5.8 0 11.7 0 7.6 0 15.1 0 5.8 0 11.6 0 2.8 0 5.5 0 3.9 0 7.8v2.3c-.1 5.2-.1 5.2-1.8 7.7-3 1.9-6.2 1.5-9.6 1-2.2-1.5-2.8-2.6-4-5q-.2-3.8-.2-7.7 0-1.2 0-2.4 0-3.9 0-7.9 0-2.7 0-5.5 0-5.7 0-11.5-.1-7.3-.1-14.7 0-5.7 0-11.3 0-2.7 0-5.5-.1-3.8-.1-7.6 0-1.1 0-2.2c0-3.2.2-5.4 1.8-8.2 2.1-2 3.2-2 6.1-2z" fill="#cc5600"/><path d="M522 96c1.7 1.1 1.7 1.1 3 3 .3 2.7.4 5.2.4 7.9q0 1.2 0 2.4 0 4 0 8 0 2.8 0 5.5 0 5.9 0 11.7 0 7.4 0 14.9 0 5.7 0 11.4 0 2.8 0 5.5 0 3.8 0 7.7v2.3c0 3.1-.2 5.4-1.7 8.1-2.7 2.6-5.1 2.6-8.7 2.6-2.7-1.5-2.7-1.5-5-4-.5-2.8-.7-5.1-.6-7.9q0-1.2 0-2.4 0-4 0-7.9 0-2.7 0-5.5.1-5.7.1-11.4.1-7.4.1-14.7 0-5.7 0-11.3 0-2.7 0-5.4.1-3.8.1-7.6 0-1.1 0-2.2c0-3.7.2-6.6 2.3-9.7 3.4-2.5 6-2.1 10-1zm-334.7-1.4c3.7.4 3.7.4 5.9 2.4 2.3 3.7 2.4 6.8 2.3 11q0 1.2 0 2.4 0 4 0 7.9 0 2.7 0 5.5 0 5.7 0 11.4-.1 7.3 0 14.7 0 5.6-.1 11.2 0 2.7 0 5.4 0 3.8 0 7.6 0 1.1 0 2.3c0 3.1-.2 5.3-1.8 8.1-1.6 1.5-1.6 1.5-3.5 2-5.6-.2-5.6-.2-8-1.8-2.5-3.9-2.3-7.8-2.3-12.2q0-1.2 0-2.3 0-3.8 0-7.6 0-2.6 0-5.3 0-5.5 0-11-.1-7.1-.1-14.1 0-5.5 0-10.9 0-2.6 0-5.2-.1-3.7-.1-7.3 0-1.1 0-2.2c.1-5.9 1.4-11.3 7.7-12z" fill="#cd5800"/><path d="M471 95.6h2.1c2.6.6 3.3 1.2 4.9 3.4.3 2.7.4 5.2.4 8q0 1.2 0 2.5 0 4 0 8 0 2.8 0 5.6 0 5.9 0 11.8 0 7.5 0 15.1 0 5.8 0 11.6 0 2.7 0 5.5 0 3.9 0 7.8v2.3c0 3.2-.2 5.5-1.8 8.3-1.6 1.5-1.6 1.5-3.5 2q-1.1-.1-2.1-.1-1 0-2.1-.1c-1.9-.3-1.9-.3-4.9-2.3-.3-2.8-.4-5.3-.4-8.1q0-1.2 0-2.5 0-4.2 0-8.3 0-2.9 0-5.8 0-6 0-12 0-7.8 0-15.5 0-6 0-11.9 0-2.9 0-5.7 0-4 0-8 0-1.2 0-2.4c.1-5.3.1-5.3 1.8-7.8 2-1.2 3.3-1.4 5.6-1.4z" fill="#cb5600"/><path d="M305.6 95.1c4.6 1.2 4.6 1.2 6.4 3.9.3 2.7.4 5.2.4 7.9q0 1.2 0 2.4 0 4 0 8 0 2.8 0 5.5 0 5.9-.1 11.7 0 7.4 0 14.9 0 5.7 0 11.4 0 2.8 0 5.5 0 3.8 0 7.7v2.3c-.1 3.7-.2 6.5-2.3 9.7q-2.4.1-4.9.1-1.3.1-2.7.1c-2.4-.2-2.4-.2-4.4-2.2l-.3-8q0-1.2 0-2.5 0-4.1 0-8.1 0-2.9-.1-5.7 0-6 0-11.9 0-7.7 0-15.3-.1-5.9-.1-11.8 0-2.8 0-5.6 0-3.9 0-7.9 0-1.1 0-2.3c0-3.5.2-5.5 2.3-8.4 2.2-1.5 2.2-1.5 5.8-1.4zm108.3.6q1 0 2.1 0 1 0 2.1 0c1.9.3 1.9.3 3.9 2.3l.3 8.1v2.5q0 4.2 0 8.3 0 2.9.1 5.8 0 6 0 12 0 7.8 0 15.5.1 6 .1 11.9 0 2.9 0 5.7 0 4 0 8 0 1.2 0 2.4c0 5.3 0 5.3-2.3 7.8-3 1.4-5 1.5-8.2 1-2.2-1.5-2.2-1.5-4-4-.4-2.7-.5-5-.5-7.7q0-1.2 0-2.4 0-3.8 0-7.6 0-2.7 0-5.3 0-5.6.1-11.2 0-7.2 0-14.3 0-5.5.1-11 0-2.6 0-5.3 0-3.7 0-7.4v-2.1c.1-4.7.3-12.1 6.2-13z" fill="#cb5500"/></svg>