<svg xmlns="http://www.w3.org/2000/svg" width="1024" height="1024" xmlns:v="https://vecta.io/nano"><path d="M181.7 79.5h3.9q5.2-.1 10.4 0 5.4 0 10.9 0 9.1-.1 18.3 0 10.5 0 21.1 0 9.1-.1 18.2 0 5.4 0 10.8 0 6.1-.1 12.1 0 1.8 0 3.6 0c6.1 0 10.4.1 15 4.5 3.4 4.4 4.5 7.3 4.6 12.9q.1 2 .1 3.9 0 2.1 0 4.1.1 2 .1 4.1.1 5 .2 10h3.8q44.5.1 88.9.2 5.5 0 11 0 1.1 0 2.2 0 17.6.1 35.3.1 18.1 0 36.2.1 10.2 0 20.4 0 9.5 0 19.1 0 3.5.1 7 0 4.8 0 9.6.1 1.4 0 2.8 0c9.9.1 17.7 3.5 24.8 10.3 4 4.6 5.9 9.1 5.9 15.2q1.9-.2 3.9-.3c6.4 0 11.9 2.5 16.7 6.7 5.2 5.8 6.8 11.7 6.8 19.3q0 1.1.1 2.2 0 3.6 0 7.2 0 2.5.1 5 0 6.6.1 13.1 0 6.8.1 13.5.1 13.1.2 26.3 1.2.5 2.5 1 1.6.7 3.3 1.4 1.6.7 3.2 1.3c18.4 7.9 33.8 22.8 48.4 36q.7.7 1.5 1.4c2.3 2.1 4.2 4.1 6.1 6.5 1.9 2.5 3.1 4 6 5.4 4.1-.4 7.5-1.3 11.4-2.6 11.5-3.8 23.7-3.8 35.7-3.7q1.1 0 2.3 0c19 .1 36.4 2.7 54.6 8.3q.7-.7 1.5-1.5c4.6-4.7 9.4-9.2 14.5-13.5q.8-.7 1.6-1.4c41.7-34.8 41.7-34.8 61.2-37 4.6.6 7.8 1.9 11 5.3 12.2 21.2-1.1 64.9-5.3 88.1q-.2 1-.4 2.1c-.8 4.5-1.8 8.9-2.9 13.4-1.2 5.5-1.4 10-.2 15.5q.2 1.1.5 2.3.5 2.4 1 4.7c6.3 28.9 3.2 61.4-12.6 86.8-22.3 33.1-57.4 47.1-95.1 54.7-7.1 1.2-14.1 1.7-21.3 1.7q-1.3.1-2.7.1c-35.9.3-35.9.3-52.8-4.3q-1.1-.3-2.3-.6c-24.6-6.2-52.4-18.7-67.8-39.5q-.8-1.1-1.7-2.2-.6-.9-1.2-1.7 0 1.7 0 3.5-.1 41.8-.2 83.5 0 5.1 0 10.3 0 1 0 2.1-.1 16.5-.1 33.1 0 17-.1 34 0 9.5 0 19 0 9 0 18-.1 3.3 0 6.6 0 4.5-.1 9 0 1.3 0 2.6c-.1 7.2-1.9 13.9-6.3 19.7-.9.8-.9.8-1.9 1.5l-1.8 1.6c-8.2 4.9-16.3 4.9-25.6 4.8q-2.2 0-4.3 0-5.7 0-11.4 0-6 0-11.9 0-11.3 0-22.6-.1-12.9 0-25.8 0-26.4-.1-52.9-.2l1-17 7.2-1.2c12.2-2.2 21.7-6.3 30.8-14.8 1-1 1-1 2.1-2 11.4-11.6 16.3-26.7 16.3-42.6-.4-15.5-6.4-28.9-17-40.1-12.5-11.9-27.7-16.7-44.7-16.7-12.6.3-23.7 4.9-33.7 12.4l-2.1 1.5c-10.1 8-16.1 19.4-19.9 31.5q-.3.9-.6 1.9c-3 16.3 1.4 32.1 10.3 45.8 8.6 11.5 19.9 17.8 33.3 22.3-.6 6.9-1.9 12.1-4 19H175l3.2-15.5c5.4-24.6 6.1-49.4 6.8-74.5q1.4-.3 2.8-.7c26.3-6.7 49.4-19.5 64-43.2 9.7-16.5 9.7-16.5 13.4-34.9q0-1.1 0-2.2c-.1-2.2-.1-2.2-1.2-5 .3-2.1.3-2.1.9-4.5l.6-2.8q.3-1.5.7-3.1c4.5-20.6 6.8-41.3 8.5-62.3q.1-1.2.2-2.4c.7-8.5 1.2-17 1.3-25.5q0-1.1 0-2.2c0-14.5-5.1-27.5-15-38.1-4.7-4.4-10.1-7.4-16.1-9.5-3.1-1.6-3.1-1.6-4.3-5-1.4-3.4-1.7-3.6-5.3-5.3q-2.1-.6-4.2-1.1l-2.1-.6q-3.1-.8-6.2-1.6-1-.3-2.1-.6c-5.7-1.5-11-2.3-16.9-1.4-3.8 2.7-6 5.5-7 10-.1 4.7.3 8 3.1 11.9 3.5 2.5 6.7 3.9 10.9 5.1l2.1.6c7.5 2 16.9 3.3 23.9-.6 5.3 0 9.2 3.6 13 7 8.1 8.3 10.5 19 10.5 30.3q0 1.9-.1 3.8 0 1 0 2c-.2 23.8-2.6 47.6-6.9 71q-.8 4.5-1.5 9-.5 2.8-.9 5.7l-.4 2.7c-1 5.4-2.1 7.2-6.7 10.5-1.6 3.2-1.6 3.2-2.9 6.9-4.1 11.1-9.3 21.2-17.1 30.1-.9 1-.9 1-1.7 2-11.3 12.5-28.9 19.1-45.4 20.1-20.5.9-38.8-3.9-54.5-17.7-9.2-9.1-15.9-19.8-21.4-31.5-1.6-3.4-2.8-5.8-5.6-8.5-2.9-3-3.6-5.3-4.7-9.3q-.4-1.8-.9-3.6c-1.6-6.9-2-13.3-2.1-20.4q0-1.6 0-3.3-.2-14.9-.2-29.8-.1-10-.2-20-.2-9.7-.2-19.4 0-3.7-.1-7.4-.1-5.2 0-10.3-.1-1.5-.1-3.1c.1-6.8.1-6.8 3-9.7 2.3-1.6 4.6-2.9 7.1-4.1q1-.6 2.1-1.2c2.9-1.2 4.9-.5 7.9.2q.9.5 1.9 1.1c6.2 2.8 15-.4 21.5-1.9q1-.2 2-.4c5.6-1.4 8.7-4 11.9-8.7 1.5-4.6 1.2-8.6-.9-12.9-2.3-3.4-4.4-5-8.4-6.2-6.3.1-12.3 1.7-18.3 3.4q-1.1.3-2.3.6c-7.8 2.2-7.8 2.2-13.2 7.9-3 4.1-6.4 5.5-11.2 7.1q-1 0-2 0-.1-48.5-.2-97 0-5.8 0-11.5 0-1.1 0-2.3-.1-18.5-.1-36.9-.1-19-.1-37.9 0-11.7 0-23.4-.1-9-.1-18 0-3.6 0-7.3 0-5 0-10.1 0-1.4 0-2.9c0-7 1.6-12.2 6.1-17.7q.8-.6 1.6-1.3.8-.7 1.6-1.4c7.1-4.3 13.6-4.8 21.7-4.8q1.6 0 3.3-.1 5.1 0 10.2-.1 3.5 0 7-.1 8.5-.1 17-.2 0-1.2 0-2.4.1-3.2.1-6.4.1-3.4.1-6.8c.2-7.1 1.1-13.7 5.8-19.4 6.3-4.7 12-4.6 19.7-4.5z" fill="#56bdbe"/><path d="M967 475c1.8 3.6 1.7 7.1 1 11-2.3 4-5.4 7.3-8.6 10.7-10.2 11.2-15.3 26.9-14.7 41.8 1.4 15.3 7.4 29 13.7 42.8 21.9 48.8 33.3 102.9 14.6 154.7-9.6 24.6-27.4 49-51.8 60.3-6.6 2.7-6.6 2.7-9.2 2.7q-.3 1.2-.6 2.4c-3.4 8.5-10.2 16.2-18.6 20-6.6 2.7-12.7 4.7-19.9 4.7q-1.5 0-3.1 0-1.6 0-3.3 0h-3.6q-4.9.1-9.8.1-5.3 0-10.6 0-11.6 0-23.2 0-7.2 0-14.5 0-20 0-40 0h-2.6q-1.3 0-2.6 0-2.6 0-5.2 0h-2.6q-20.9 0-41.8.1-21.5 0-43 0-12 0-24.1 0-10.3.1-20.5.1-5.3 0-10.5 0-5.7 0-11.4 0-1.6 0-3.3 0c-9.3-.1-9.3-.1-13.2-3.4-3.5-3.7-4.3-6.7-4.5-11.7.5-12.3 6-21.3 14.8-29.6 7.4-5.9 15.6-7.2 24.8-8.2 3-.2 3-.2 4.9-2.5.3-3.1.3-3.1.3-6.8v-2.1q0-3.4-.1-6.8 0-1.2 0-2.4c0-16-.9-31.9-2.2-47.9-.1-1.8-.1-1.8-.3-3.6-1.6-19.7-4.1-39.3-6.6-58.9-2.1-15.7-3.4-31.3-3.5-47.2q0-1.3-.1-2.7c0-15.9 1.4-31.5 3.4-47.2q.2-1.6.4-3.3.6-4.5 1.2-9.1.2-1.3.4-2.7c.7-5.2 1.7-10.2 3.1-15.3q1.7 1.3 3.5 2.6 1.1.9 2.3 1.7 2 1.5 3.9 3.1c31.3 25.4 77.2 29.5 115.7 26.1 28.7-3.1 58-11.9 80.6-30.5q1.2-1 2.4-1.9c3.6-3.1 6.8-6.2 9.6-10.1 5.5 6.2 7.8 12.6 10.1 20.5 4.1 13.9 4.1 13.9 12.2 25.6q1.2 1.2 2.4 2.5 2.8 2.9 5.7 5.7c33.1 32.8 46.7 82.4 55.6 126.7a23.81 23.81 0 0 1 .5 2.6c2.7 13.7 3.2 27.5 3.5 41.4 15.1-21.8 18-47.5 14-73.3-.6-2.9-1.3-5.8-2-8.7q-.4-1.5-.8-3.1c-4.5-18.1-10.4-35.5-17.2-52.9-22.8-59-22.8-59-11.2-87 4-8.9 9.2-16.2 16.2-23q1-1 2-2c10.5-9.9 25.3-14 38-6z" fill="#f49500"/><path fill-rule="evenodd" d="M140.9 374.7c3.4 3.7 4.9 6.8 5.5 11.7-.6 5.1-2.3 8.8-6.2 12.2-2.4 1.5-4.3 2.2-7 2.8q-1.3.3-2.7.6-1.4.4-2.9.7-1.4.3-2.8.7c-11.7 2.7-11.7 2.7-16.8 0-3.8-1.8-5-1.7-9-.4-3.7 1.6-7 3.3-10 6-.5 1.2-.8 2.5-1 3.7q0-1.4 0-2.7-1 0-2 0c-2 2-3.7 4.3-5.4 6.6-11.3 17.2-11.3 17.2 1.6 79.7q2.4 11.4 4.3 22.9.3 1.4.5 2.8.5 0 1 0v-67.7q0 1 0 2 .2 9.9.2 19.7 0 7.7 0 15.3.1 3.6.1 7.2c-.5 23-.5 23 6.7 44.5q1.2.9 2.4 1.8c3.3 2.8 4.7 5.8 6.5 9.8 9.5 19.9 21.9 34.5 43.1 42.4 18.2 5.7 39.4 4.7 56.5-3.8 5.5-2.9 10.8-6 15.5-10.2.9-.7.9-.7 1.7-1.5 10.7-9.6 16.5-24.3 21.9-37.3 1.2-2.8 2-4.4 4.4-6.2q1 0 2 0 .1-.9.2-1.9a120.98 120.98 0 0 1 2.1-14.7c2.3-10.7 3.7-21.5 4.9-32.3q.1-1.1.2-2.3c1.7-14.8 2.8-29.5 2.9-44.4q.1-2 .1-4c.1-10.9-1.5-21-8.6-29.6-3.2-3.2-6.7-6-10.8-7.8-2.1.2-2.1.2-4 1-7.9 2.6-16.6 1.2-24.5-.7q-1-.3-2-.5c-5.6-1.5-9.1-3.8-12.4-8.4-1.5-4.7-1.3-8.6-.1-13.4 2.1-3.3 3.7-4.8 7-7 7.7-1 15 .6 22.4 2.7q1.4.4 2.9.7c5.5 1.6 9.3 2.9 12.7 7.6q0 2 0 4 .8.2 1.6.4c11.4 3.3 20.9 10.9 26.9 21.2 4.7 9.5 6.7 19.1 6.7 29.7-.1 1.2-.1 1.2-.1 2.4 0 8.5-.6 17.1-1.4 25.6q0 1.2-.2 2.5c-1.7 21.7-4.6 43-9 64.3q-.3 1.6-.6 3.1-.3 1.4-.6 2.8c-.2 1-.2 1-.3 2q.5.5 1 1c1.7 16.3-9.6 35.6-19.5 48.1q-2.2 2.5-4.5 4.9-1.2 1.3-2.4 2.6c-13.8 14.4-31.3 23-50.6 27.4q-2 0-4 0 0 1 0 2c.4 30.2-1.3 59-10 88q1.2 0 2.5 0c-3.1.3-3.8 1.6-5.8 6.3q-.4 1.2-.9 2.3c-6.9 17-12.4 31.7-11.9 50.3 1 18.7 10.2 37.6 24 50.3q1.1.9 2.1 1.8c14.7 13.3 31.4 19.8 50.4 24.7 38.3 9.4 82.3 5.5 116.6-14.7 34-21.1 53.1-57.9 62.5-95.7q.4-1.7.8-3.3.4-1.6.8-3.1c.3-1.6.3-1.6.7-3.1.7-2.8 1.2-5.5 1.5-8.3q.1-1.4.2-2.7.3-2.4.5-4.8.5 0 1 0l1-7q.7-3.2 1.6-6.4l.8-3.2.6-2.4q-1.8-.3-3.7-.6c-13.5-3-24.8-13-32.2-24.2-8-12.8-11.5-28.3-8.7-43.3 4.2-17 14.8-30.5 29.4-40 9.1-5.4 18.9-8.3 29.6-8.1q1.1 0 2.2 0c16.5.3 30.4 6.7 42.5 17.8 11.6 12.1 16.6 27.9 16.4 44.4-.7 17.6-9.3 31.4-21.9 43.2-10.2 8.8-22.3 13-35.6 12.8q.1 1.2.1 2.4c1.3 38.4-18 85.3-41.1 115.6q-1 1.3-2 2.7c-23.3 29.8-55 47.5-92 54.3q-1.4.3-2.8.5c-9.3 1.7-18.3 1.9-27.7 1.8q-1.2 0-2.4 0c-34.7-.1-71.4-7.8-98.1-31.3q-1.2-1-2.4-2C155 826.3 142 802.4 140 778c-1.3-19.2 2.6-35.9 9.7-53.6 1.2-3.1 2.3-6.2 3.3-9.4q-.8 0-1.7 0-8.9.2-17.8.3-3.3 0-6.7.1-4.8.1-9.5.1-1.5 0-3 .1c-7.6 0-14-2-19.9-7-6.5-7.1-6.8-15.2-6.7-24.3q0-1.7 0-3.5 0-3.7 0-7.4 0-6 0-11.9 0-16.8.1-33.6 0-9.3 0-18.6 0-4.9 0-9.8c.2-19.9.2-19.9-7.8-37.5-2.2-4.3-3.1-7.9-2.8-12.7.1-7.1-1.8-13.4-3.7-20.1q-1.6-5.7-3.1-11.3-.3-1.1-.6-2.3c-5-18.3-8.7-36.7-10.8-55.6q-.1-1.2-.3-2.5C57.3 444.9 56.2 431 61 419q.4-1 .8-2.1c5.9-13.7 18.9-21.9 32.1-27.3 4.3-1.9 6-3.5 8.1-7.6 3.3-3.9 7.3-4.6 12-6q1.8-.5 3.6-1.1c15.7-4.7 15.7-4.7 23.3-.2zm-53.1 45v3.2l.1 10.6q0 3.6 0 7.3 0 6.8.1 13.5 0-20.8 0-41.6c-.3 2.2-.3 4.5-.2 7zM419 715H177.5c1-.1 2.3-.1 4-.1h2.9q1.5 0 3 0 5.1 0 10.1 0 3.6 0 7.2 0 7.8 0 15.6 0 11.2 0 22.5 0 18.3 0 36.5 0 17.8 0 35.5 0 1.1 0 2.2 0 5.5 0 11 0 45.5.1 91 .1z" fill="#003454"/><path d="M618 243c17 8.8 31.3 22 45.4 34.8q.7.6 1.5 1.3c2.3 2.1 4.2 4.1 6.1 6.5 1.9 2.5 3.1 4 6 5.4 4.1-.4 7.5-1.3 11.4-2.6 11.5-3.8 23.7-3.8 35.7-3.7q1.1 0 2.3 0c19 .1 36.4 2.7 54.6 8.3q.7-.7 1.5-1.5c4.6-4.7 9.4-9.2 14.5-13.5q.8-.7 1.6-1.4c41.7-34.8 41.7-34.8 61.2-37 4.6.6 7.8 1.9 11 5.3 12.2 21.2-1.1 64.9-5.3 88.1q-.2 1-.4 2.1c-.8 4.5-1.8 8.9-2.9 13.4-1.2 5.5-1.4 10-.2 15.5.2 1.1.2 1.1.5 2.3q.5 2.4 1 4.7c6.3 28.9 3.2 61.4-12.6 86.8-22.3 33.1-57.4 47.1-95.1 54.7-7.1 1.2-14.1 1.7-21.3 1.7q-1.3.1-2.7.1c-35.9.3-35.9.3-52.8-4.3q-1.1-.3-2.3-.6c-20.3-5.1-39.4-14.2-55.7-27.4-1.2-.9-1.2-.9-2.4-1.9-13.9-11.5-22.8-27.2-28.6-44.1q0-1.5 0-3c4.6-.8 9-1.1 13.7-1q1.9 0 3.8.1 3.8 0 7.7.1 1.8 0 3.7.1 1.7 0 3.4 0 1.3-.1 2.7-.3c2.3-2.7 2.3-2.7 1.6-5.2q-.3-.9-.6-1.8c-5.7-1.9-10.7-2.3-16.7-2.2q-1.3 0-2.6 0A214.74 214.74 0 0 0 587 424c-1.1-7.4-2.4-15.8 0-23 12.1 1.9 23.5 6.1 34.5 11.2 2.7.9 3.9.8 6.5-.2.5-2.8.5-2.8 0-6-4.7-3.8-9.8-5.6-15.5-7.6-1.3-.4-1.3-.4-2.7-.9-7.1-2.4-14.3-4.2-21.8-5.5.5-11.1 3.2-21.8 6.7-32.3 2.8-9.1 1.1-18.5-.5-27.7-3.2-19.8-5.5-39.3-5.6-59.4v-2.3c-.1-10.1-.1-20.7 5.4-29.5 7.2-6.6 16.6-1.4 24 2.2z" fill="#f39500"/><path d="M181.7 79.5h3.9q5.2-.1 10.4 0 5.4 0 10.9 0 9.1-.1 18.3 0 10.5 0 21.1 0 9.1-.1 18.2 0 5.4 0 10.8 0 6.1-.1 12.1 0 1.8 0 3.6 0c6.1 0 10.4.1 15 4.5 3.4 4.4 4.5 7.3 4.6 12.9q.1 2 .1 3.9 0 2.1 0 4.1.1 2 .1 4.1.1 5 .2 10h3.8q44.5.1 88.9.2 5.5 0 11 0 1.1 0 2.2 0 17.6.1 35.3.1 18.1 0 36.2.1 10.2 0 20.4 0 9.5 0 19.1 0 3.5.1 7 0 4.8 0 9.6.1 1.4 0 2.8 0c9.9.1 17.7 3.5 24.8 10.3 4 4.6 5.9 9.1 5.9 15.2h-2.6q-76 0-152.1.1-9.1 0-18.2.1-1.8 0-3.7 0-29.4 0-58.8 0-30.2 0-60.4.1-18.7 0-37.3 0-12.8 0-25.5 0-7.4 0-14.8 0-6.7 0-13.5.1-2.4 0-4.9-.1c-13-.1-13-.1-24.2 5.7-3.5 5-4.6 8.7-4.5 14.8q0 1.1 0 2.3 0 3.7 0 7.5 0 2.8 0 5.5-.1 7.5 0 15.1 0 8.1-.1 16.2 0 14.1 0 28.2 0 20.4-.1 40.7 0 33 0 66.1 0 32.1-.1 64.1 0 2 0 4 0 10 0 19.9-.1 82.3-.2 164.6-2.4-.4-4.7-.9-1.4-.2-2.7-.5c-3.8-.9-7.1-2.4-10.5-4.2-1.1-.5-1.1-.5-2.1-1-17.2-9.1-27.9-24.2-36-41.5-1.6-3.4-2.8-5.8-5.6-8.5-2.9-3-3.6-5.3-4.7-9.3q-.4-1.8-.9-3.6c-1.6-6.9-2-13.3-2.1-20.4q0-1.6 0-3.3-.2-14.9-.2-29.8-.1-10-.2-20-.2-9.7-.2-19.4 0-3.7-.1-7.4-.1-5.2 0-10.3-.1-1.5-.1-3.1c.1-6.8.1-6.8 3-9.7 2.3-1.6 4.6-2.9 7.1-4.1q1-.6 2.1-1.2c2.9-1.2 4.9-.5 7.9.2q.9.5 1.9 1.1c6.2 2.8 15-.4 21.5-1.9q1-.2 2-.4c5.6-1.4 8.7-4 11.9-8.7 1.5-4.6 1.2-8.6-.9-12.9-2.3-3.4-4.4-5-8.4-6.2-6.3.1-12.3 1.7-18.3 3.4q-1.1.3-2.3.6c-7.8 2.2-7.8 2.2-13.2 7.9-3 4.1-6.4 5.5-11.2 7.1q-1 0-2 0-.1-48.5-.2-97 0-5.8 0-11.5 0-1.1 0-2.3-.1-18.5-.1-36.9-.1-19-.1-37.9 0-11.7 0-23.4-.1-9-.1-18 0-3.6 0-7.3 0-5 0-10.1 0-1.4 0-2.9c0-7 1.6-12.2 6.1-17.7q.8-.6 1.6-1.3.8-.7 1.6-1.4c7.1-4.3 13.6-4.8 21.7-4.8q1.6 0 3.3-.1 5.1 0 10.2-.1 3.5 0 7-.1 8.5-.1 17-.2 0-1.2 0-2.4.1-3.2.1-6.4.1-3.4.1-6.8c.2-7.1 1.1-13.7 5.8-19.4 6.3-4.7 12-4.6 19.7-4.5z" fill="#008c9b"/><path d="M417.7 457.1c6.1 5.1 10.3 11.2 14.4 17.9 5.9 9.4 12.7 17.1 20.8 24.6 6.4 6.3 9.2 14.7 9.4 23.4 0 10-2.4 17.9-9.4 25.3-7.4 6.6-13.9 8.1-23.7 8.1-4.7-.3-8.9-1.8-13.3-3.4-14.5-5.1-28.2-4.3-42.7.2-10.3 3.2-19.5 2.8-29.2-2.2-6.7-4.5-11.1-10.6-13.5-18.3-2.2-10.9-.7-21.4 4.8-31 4-5.6 9.2-9.8 14.4-14.2 7.2-6 13-12.6 18.4-20.3 6.4-8.9 14.4-13.4 25.1-16 9.2-.8 16.9.4 24.5 5.9z" fill="#fde2b3"/><path d="M832 478c2.5.3 2.5.3 5 1 2.1 4.2 1.4 9.5 1.4 14.1q.1 1.7.2 3.4c.1 6.7-.5 10.8-5 15.9L832 514q-1.3 1.3-2.6 2.6c-35.3 29.5-83.1 36.7-127.7 32.9-29.2-3-62.3-13.2-82.7-35.5-1.1-3.4-1.1-6-1.1-9.6q0-2 0-4 0-2 0-4.1 0-2.1.1-4.1 0-5.1 0-10.2c4.8 0 6.4 1.6 9.9 4.4 22.7 16.9 54.3 26.7 82.5 26.8h2.7q2.9 0 5.7 0 4.3.1 8.5.1c16.2.1 32.1-1.5 47.7-6q1.3-.4 2.7-.8c19.6-5.7 39.6-13.8 54.3-28.5z" fill="#013355"/><path d="M88 578q3 3.7 5.9 7.4 3.1 3.8 6.1 7.6.7.9 1.5 1.9c14.9 18.5 38.7 27 61.5 30.1.2 20 .2 40.2-2.3 60.1q-.1 1.3-.2 2.5c-1.3 9.3-4 18.4-6.5 27.4q-10 .2-20 .3-3.3 0-6.7.1-4.9.1-9.8.1c-1.5 0-1.5 0-3 .1-7.7 0-14.2-1.9-20.1-7-6.5-7.1-6.8-15.3-6.7-24.3v-3.5q0-5.7 0-11.4 0-3.9 0-7.9 0-9.3.1-18.6 0-10.6 0-21.3.1-21.8.2-43.6zm376.9 26.8c9.5 7.3 15.5 17.3 17.1 29.2 1.2 12.8-2.7 23.9-10.5 34-7.5 8.4-18.5 12.3-29.5 13.3-12.5.4-22.5-3.3-32-11.3-8.2-7.7-13-17.1-13.4-28.4-.3-12.7 2.7-21 10.7-31 15.4-16.1 39.3-18.4 57.6-5.8z" fill="#008d9b"/><path d="M661.1 635.9l2.9.1c3.3 5.7 4.6 11.8 6.1 18.2 5.9 23.5 14.1 45.7 23.9 67.8 3.7-13.3 5.9-26.8 8.1-40.4q.8-4.8 1.6-9.6.5-3 1-6 .6-4 1.3-8 .2-1.4.5-2.8.2-1.4.4-2.8.2-1.2.4-2.4c.7-2 .7-2 3.7-4 4.5.5 4.5.5 6 2 .4 7.8-.9 14.9-2.4 22.6q-.8 4.4-1.6 8.8-.2 1.2-.5 2.4l-3.9 21.9q-.7 3.7-1.3 7.4-1 5.4-1.9 10.9c-2.2 12.8-4.6 25.6-7.5 38.3q-.3 1.7-.7 3.3c-1.8 8.1-3.9 13.3-11.1 18q-1.3.9-2.6 1.8-2.9 1.9-5.9 3.7c-6.5 4.7-9.9 12.2-11.6 19.9q-.1 2.1-.1 4.1 0 1.1 0 2.3 0 1.2 0 2.4 0 1.1.1 2.4 0 2.9 0 5.8l-8 1c-4.9-11.3-.9-22.3 3.2-33.2 3.2-8.5 5.3-16.9 6.8-25.8l.4-2.1c2.1-12.1 3.9-24.3 5.5-36.5q.2-1.3.4-2.5.5-3.5.9-7.1.2-1 .3-2.1c.8-6.3.1-11.8-2.3-17.7q-.5-1.4-1-2.9l-1.2-3c-3.5-9.6-6.7-19.2-9.5-29q-.6-2.1-1.2-4.2c-2.1-7.3-4-14.2-3.3-21.9 1-1 1-1 4.1-1.1z" fill="#c95900"/><path d="M716.8 399.7q1.2.1 2.4.1c5.8.6 8.8 1.9 12.8 6.2 1.3 6.9-2 12-5.7 17.6-3.1 3.3-6.6 5.8-10.3 8.4.4 5.3 1.3 8.2 5 12 5.1 2.5 12.4 1.6 17.8.4 5.8-2 9-4.8 12.5-9.8 1.7-1.6 1.7-1.6 4.3-1.9 2.4.3 2.4.3 4.3 1.4 1.1 1.9 1.1 1.9 1.1 5.2-1.8 6.5-5.2 9.4-10.7 12.9-9 5.1-18.8 7.9-29 5-4.7-1.7-8.6-3.7-12.3-7.2-2.4 1-4.8 1.9-7.2 3.1-8.1 3.8-16.5 4.4-25.2 1.9-7.1-2.8-12.6-6-16.9-12.4q-.8-1.1-1.6-2.3c-1.3-2.7-1.4-4.4-1.1-7.3 1.2-1.8 1.2-1.8 3-3 2.3-.4 2.3-.4 5 0 2.4 2.3 2.4 2.3 4.8 5.3 4.7 5.5 8 7.9 15.2 9 5.4.4 9.6-1.4 14-4.3 2-1.8 2.9-2.6 3.6-5.2-.8-3.8-2.9-5.3-5.7-7.8-4.8-5-9.9-11.9-9.9-19 1.4-4.2 3.4-5.5 7-8 7.2-2.4 15.3-.9 22.8-.3z" fill="#043056"/><path d="M423.3 283.4c5.6 4.5 9 9.9 10.1 17.1.2 2.7.2 5.3.2 7.9-.1 1.4-.1 1.4-.1 2.8-.2 8.5-2 14.8-8.3 20.7-7.5 4.9-14.2 6-23.2 5.1-5.5-1.2-10.4-3.7-14-8-6-9.8-7.4-19.5-5.3-30.8 2-7.6 7-12.7 13.3-17.2a29.69 29.69 0 0 1 27.3 2.4z" fill="#013050"/><path d="M213 200h17l2.8 7q1.4 3.3 2.7 6.6.9 2.3 1.9 4.7 1.3 3.3 2.7 6.6.4 1 .8 2.1c1.2 3.2 1.2 3.2 3.1 6l12-33h18v56h-12l-1-33-13 33h-9c-5.1-10.4-8.9-21.2-13-32l-1 32h-12v-56zm117 0c32.9 0 32.9 0 41.3 8 5.7 6.7 7.1 13.9 7 22.5-.6 7-2.7 13.1-7.4 18.4-12.8 10.1-24.4 7.1-40.9 7.1v-56z" fill="#012f4f"/><path d="M859 639c2 2 2 2 2.1 4.9-1.1 3.1-1.1 3.1-4.5 5.1q-2.2.9-4.4 1.8c-8.1 3.5-14.5 7.5-21.2 13.2-1.3 1.1-1.3 1.1-2.7 2.2-15.5 13.4-24.1 30.3-29.3 49.8q-.3.9-.5 1.8c-1.1 5.1-.8 10.5-.8 15.6q-.1 1.8-.1 3.7c-.1 13.5 3.1 25.4 12.7 35.2 3.3 2.1 6.7 3.4 10.4 4.7 2.3 1 3.6 2.1 5.3 4q-1 2-2 4-1.6 0-3.2 0-5.8-.1-11.7-.2-2.5 0-5 0c-11.7-.2-22.4-.2-32.1 7.2-4.3 4.3-7.8 8.2-8.3 14.4q0 1.9.1 3.9-.1 1.9-.1 3.9c.3 3.9 1.1 7 2.3 10.8h-8c-5-7.5-5-15.3-4-24 1.2-3.5 2.8-6.1 5-9 1.1-1.6 1.1-1.6 2.3-3.2 10.4-10.7 23.3-13.3 37.7-14.8q-.6-.8-1.2-1.6c-10.7-15.3-13.4-34.5-10.1-52.8 4.1-20.1 12.7-39.8 27.3-54.6q1 0 2 0l1-3c9.8-9.2 26.7-24.1 41-23z" fill="#c95900"/><path d="M492 281c32.5 0 32.5 0 40.5 7.3 5.8 6.5 6.8 14 6.7 22.5-.5 7.2-2.4 13.4-7.4 18.7-11.3 9.2-26 6.5-39.8 6.5v-55z" fill="#012f4f"/><path d="M382.1 382c7.8 4 12 10.7 14.7 18.8 2.9 10.6 1.9 21.8-3.5 31.4-3.4 5.4-7.2 8.8-13.3 10.8-6 .6-10.1-.6-15-4-8.1-7-12.4-17.4-13.2-27.9-.3-9.5 1.1-17.6 7.1-25.1 6.7-7 14.6-7.6 23.2-4z" fill="#fde2b3"/><path d="M442 382c5.8 2.9 8.9 6.8 11.8 12.5 3.6 10.6 1.5 23.7-3.3 33.6-4 6.8-8.8 12.3-16.5 14.9-5 .5-8.9.6-13.4-1.7-6.1-5.4-9.5-11.6-10.1-19.8-.3-14.2 2.3-23.8 12.1-34.4 6-5.2 11.7-6.1 19.4-5.1z" fill="#fde2b4"/><path d="M853.3 265c2.4 1.4 2.8 2.4 3.7 5 2.6 21.9-3.5 52-12 72-2.9-2.8-5.4-5.6-7.8-8.8q-1.1-1.3-2.1-2.6-1.9-2.3-3.7-4.7c-7.4-9-17.6-15.7-27.4-21.9 1.8-9.7 12.9-16.1 20.3-21.7q2.3-1.7 4.6-3.5c5-3.8 10.1-7.2 15.5-10.4q.9-.5 1.8-1.1c2.4-1.3 4.3-2.3 7.1-2.3z" fill="#cd5f00"/><path d="M234 281l14.1-.3 4.4-.1c11.9-.1 11.9-.1 17.5 4.4 3.8 3.8 5.3 7.8 5.5 13.1-.3 5.1-1.3 8.9-5.2 12.5q-1 .8-1.9 1.6-1 .8-1.9 1.6c-.8.6-.8.6-1.5 1.2q.5.7 1 1.5 2.2 3.4 4.4 6.8.7 1.1 1.5 2.3.7 1.1 1.5 2.3.7 1 1.4 2.1c1.2 1.9 2.2 3.9 3.2 6-4.7 1.2-9.5 2.1-14 0-3.4-3.6-5.7-7.8-8-12.2q-.7-1.2-1.4-2.5-.6-1.2-1.2-2.4c-1.5-2.5-1.5-2.5-6.4-2.9v20h-13v-55z" fill="#002e4e"/><path d="M442 281l13.5-.3 4.2-.1c7.3 0 12.2.3 18.3 4.4 4.5 5.5 5.6 9.9 5 17-1.8 5.3-4.2 9-9 12q-1 0-2 0 .6.9 1.2 1.8 2.7 4 5.3 8.1a46.13 46.13 0 0 0 1.9 2.8c.9 1.4.9 1.4 1.8 2.7q.8 1.3 1.6 2.5c1.2 2.1 1.2 2.1 1.2 4.1-4.5.6-8.5.8-13 0-3.3-2.8-5-6.2-7-10q-1.5-2.3-2.9-4.5c-2.1-3.2-2.1-3.2-2.1-5.5q-3 0-6 0v20h-12v-55z" fill="#012e4e"/><path d="M801 636c1 5 1 8.3-.8 13.1q-.3.9-.6 1.9-1.3 3.5-2.6 7-.6 1.5-1.2 3.1-6 16-12.1 31.8c-14.7 38.3-27.1 77.7-38.3 117.1-1.5 5.2-3.1 10.1-5.4 15h-10q.6-1.9 1.3-3.9l4.9-15.4q.9-3.1 1.8-6.1.5-1.5.9-3.2c6.2-20.4 12.7-40.7 19.6-60.9q2-6 4-12c7.3-21.7 15-43.2 23.2-64.5q2-5 3.7-10 .3-1 .7-2 .9-2.6 1.7-5.2c2.1-5 3.8-6.2 9.2-5.8z" fill="#c95800"/><path d="M611 264.3c8.8.6 16.6 8.8 22.7 14.5 2 2 4.2 3.8 6.4 5.6 4.6 4.1 9.4 8.5 12.9 13.6.1 2.1.1 2.1-1 4-2.2 1.4-2.2 1.4-4.9 2.7-12.9 6.7-25.3 18-33.1 30.3-2.2-3.3-2.6-5.4-3.2-9.3q-.3-1.8-.7-3.8-.3-2-.6-4-.3-2.1-.7-4.2c-6.4-40-6.4-40-2.5-47.1 1.7-1.6 1.7-1.6 4.7-2.3z" fill="#cd5f00"/><path d="m330.1 419.5c9.9 3.4 15.6 11 20.2 20.1 2.9 7 3.7 13.9 2.7 21.4-2.1 4.5-4.9 7.2-9 10-6 2-11.3 1.6-17.1-1-9.4-5.2-13.6-13-16.9-23-1.8-7.5-2.1-14.5 1.8-21.3 4.7-6.5 10.8-8 18.3-6.2z" fill="#fce2b4"/><path d="M484 430.2c4.4 3.6 6.6 6.7 7.3 12.5.2 11.2-2.5 21-10.3 29.3-5.2 5.2-9.4 8-16.9 8.4-4.8-.1-7.5-1.2-11.1-4.4-4.4-5.1-4.3-10-4.3-16.5.8-10.2 5.8-18.5 13.3-25.3 6.5-5.2 14.2-8.8 22-4z" fill="#fce2b3"/><path d="M479 200h15q3.6 9.5 7.1 19.1 1.2 3.2 2.4 6.5 1.8 4.7 3.5 9.4.5 1.4 1.1 2.9c2.2 5.9 4.1 12 5.9 18.1h-14c-3-8.6-3-8.6-3-12l-20 1-4 11h-13l19-56z" fill="#012e4e"/><path d="M284 200h38v11h-25v11h23v11h-23v12h26v11h-39v-56z" fill="#013555"/><path d="M284 281h37v10h-25v12h24v11h-23v11h25v11h-38v-55z" fill="#022f4f"/><path d="M433.1 198.6q1-.1 2-.1c7.1.2 12.8 2.6 17.9 7.5 2.6 3.7 4 6.4 4 11q-2.1.5-4.3 1-1.1.3-2.3.6c-2.4.4-2.4.4-6.4.4q-.9-1.7-1.8-3.4c-1.2-2.2-2-3.5-4.1-5-4.5-1.2-7.2-1.1-11.4 1.1-3.3 2.8-4.4 4.9-4.9 9.2-.1 2.2-.1 4.4-.1 6.5q0 1.1-.1 2.3c0 5.6 1.2 9.8 5.1 14.2 4.1 2 8.3 1.6 12.6.5 2.5-2 3.4-4.5 4.7-7.4l13 2c-1.9 7.6-4.4 11.7-11 16-6.8 3-15.3 3.2-22.3.8-7.1-3.2-11.4-6.8-14.7-13.8-3.5-9.6-3.1-20.1.7-29.5 2.9-5.7 6.8-10.2 12.7-12.8 3.5-.9 7-1.1 10.7-1.1z" fill="#012e4e"/><path d="M369 283c3.5 3.1 6.2 6.7 8 11q0 2 0 4c-3 .9-5.6 1.1-8.8 1.1q-1.1-.1-2.4-.1-.9 0-1.8 0-.6-1.4-1.2-2.9c-1.5-3.1-1.5-3.1-3.5-4.5-4.3-1.2-7.9-1.1-12 .5-4.2 3.5-5.1 6.9-5.6 12.2-.3 7.4.1 12.5 4.3 18.7 4 2.7 7.3 2.8 12 2 2.8-2.2 4.4-3.9 6-7 4.5-.1 8.6-.1 13 1-1.4 6.5-3.7 10.3-8.8 14.6-6.6 4.2-13.6 4-21.2 3.4-6.8-1.9-12.4-6.2-16.4-12-4.3-8.7-4.2-21-1.7-30.2 3.1-6.9 8.2-11.7 15.1-14.8 8.9-2.1 17-1.7 25 3z" fill="#012f4f"/><path d="M520 200h12v45h25v11h-37v-56z" fill="#002c4c"/><path d="M447.8 624.6c4.3 2.8 6.6 6.6 8.2 11.4.4 5.6.2 9.2-3 14-4.1 4-7.3 6.2-13.1 6.4-6.4 0-10.2-2.2-14.9-6.4-3.6-3.8-3.7-8.2-3.5-13.2.9-4.9 3.7-7.8 7.5-10.8 6.1-3.6 12.3-4.7 18.7-1.4z" fill="#003152"/><path d="M790 364c6.1 4 10.3 9.2 13 16 .4 3.4.4 3.4 0 6-2 2-2 2-4.9 2.4-3.1-.4-3.1-.4-5.2-2.4-1-1.4-1-1.4-1.9-2.8-3.8-5.1-6.8-8.1-13-10.2-5.5-.5-10.3-.8-15.4 1.6-3.1 2.9-5.9 6.1-8.6 9.4-2.1 2.5-2.1 2.5-4 4-4.3-.3-4.3-.3-6-2-.7-5.4.4-8.6 3.4-13 10.9-13.5 27-17.1 42.6-9zm-119.8-3.2c6.6 4.4 12.8 9.7 15.8 17.2-.3 3.4-.3 3.4-1 6-2.7.8-2.7.8-6 1-2.4-2-2.4-2-5-5-5.7-5.5-9.8-8.6-17.8-9.4-6.3.3-11.2 2.3-15.6 6.9q-2.3 2.7-4.5 5.5c-2.1 2-2.1 2-4.7 2.4-2.4-.4-2.4-.4-4.4-2.4-.8-5.5.5-8.7 3.5-13.1 8.8-11.1 26.6-15.4 39.7-9.1z" fill="#052e57"/><path d="M413.7 291.1c3.4 2.8 5.9 5.7 6.7 10.1.1 2.4.1 4.8.1 7.3q0 1.2 0 2.5c0 5.5-.8 8.7-4.5 13-4.2 2.8-8 2.6-13 2-4.2-2.3-5.6-4.5-7-9-.3-3-.3-5.9-.3-8.9q0-1.2-.1-2.4c0-5 .7-8.4 3.4-12.7 4.5-3.8 9.3-4.1 14.7-1.9z" fill="#5ac2c2"/><path d="M386 200h13v56h-13v-56z" fill="#002c4e"/><path d="M343 210c13 0 13 0 17.4 4.4 4.5 5.2 4.9 9.2 4.8 15.8-.4 5-2 8.3-5.2 12.2-5.3 4.3-9.5 2.6-17 2.6v-35z" fill="#5ac2c3"/><path d="M612.9 397.5q1.2.4 2.5.9c5 1.8 9.8 3.8 13.6 7.6.2 2.9.2 2.9 0 6q-1 1-2 2c-5.1-.3-9.4-2.3-14-4.3-13.5-5.8-26.3-9.1-41-8.5-5.5.1-5.5.1-8-1.5-1-1.7-1-1.7-1-4.8 1-2.9 1-2.9 3.2-4.1 14.5-4.3 32.9 1.9 46.7 6.7z" fill="#042e55"/><path d="M504 291c12 0 12 0 17 3 4.9 6.2 5.6 11.4 5 19-.9 4.4-2.3 7.2-5.4 10.5C517 325 517 325 504 325v-34z" fill="#5bc2c3"/><path d="M609.5 421.8q1.2-.1 2.5-.1c11.8.1 11.8.1 16 4.3-.3 3.3-.6 4.6-3 7-2.5.2-2.5.2-5.7.1-1.8 0-1.8 0-3.6-.1q-1.8 0-3.8-.1c-14.1-.1-26.4 1.2-39.8 5.5-3.2.9-5.8.9-9.1.6q-1-1-2-2c.2-2.7.5-4.4 2.3-6.6 1.9-1.6 3.3-2.1 5.6-2.7q1.2-.3 2.4-.6c1.2-.3 1.2-.3 2.4-.7q1.3-.3 2.6-.6c11.1-2.7 21.9-4 33.2-4.1z" fill="#032e55"/><path d="M803.6 428.6c13.2.3 33.4 3.6 43.8 12.4 1.6 2 1.6 2 1.4 4.7-.8 2.3-.8 2.3-1.8 3.3-6.4-.1-12.1-1.8-18.1-3.9-9.5-3.4-17.8-5.4-28-5.6-5.4-.2-5.4-.2-7.9-1.9-1.4-2.3-1.3-3.9-1-6.6 3.2-3.2 7.3-2.4 11.6-2.4z" fill="#062d57"/><path d="M834.8 402.8l3.4-.1h3.3q1.5 0 3-.1c2.5.4 2.5.4 4.4 1.8 1.1 1.6 1.1 1.6.9 4.2-.8 2.4-.8 2.4-2.8 4.4-2.5.3-2.5.3-5.7.3q-1.8 0-3.6 0l-3.8.1c-9.9.2-18.9 1-28.5 3.7-9.3 2.5-9.3 2.5-12.4.8-1-1.9-1-1.9-.9-4.4 1.1-3.2 2-3.8 4.9-5.5 2.9-.9 5.8-1.5 8.8-2.1q1.2-.3 2.4-.5c8.9-1.9 17.4-2.6 26.6-2.7z" fill="#072959"/><path d="M684 725c2.5 2.3 4.1 4.6 5.8 7.6q.6 1.1 1.3 2.3c2.3 7.8-.7 16.8-2.4 24.5l-.6 2.9c-1.5 6.6-3 9.7-8.7 13.5-2.4 1.2-2.4 1.2-4.4 1.2q.4-2.2.7-4.4.3-1.4.5-2.9.6-3.2 1.1-6.4 1.4-8.6 2.8-17.1.3-1.6.6-3.3.5-3.1 1-6.2.2-1.4.5-2.9.2-1.2.4-2.5c.4-2.1.9-4.2 1.4-6.3z" fill="#f59800"/><path d="M157 625q3 0 6 0c.2 20.4.2 40.9-2.4 61.1q-.2 1.5-.4 2.9c-.9 6.6-.9 6.6-3.2 10v-74z" fill="#62cecd"/><path d="M714 794c-.3 4.5-.8 6.9-3.6 10.4-4.2 6.1-2.8 14.5-2.4 21.6h-8c-3.5-5.6-2.5-12.7-2-19 2.3-8.2 7.1-13.9 16-13z" fill="#ca5900"/><path d="M688.9 793.1q1.1.5 2.1.9c-.4 5.5-1.8 8.6-5 13-1.2 3.6-1.1 6.9-1.1 10.7q0 1 .1 2.1 0 2.6 0 5.2l-8 1c-3.5-5.9-2.8-13.4-1.3-19.9 2.1-6.1 6-13.3 13.2-13z" fill="#c95800"/><path d="M601 792c-.4 3.5-1 6-2.6 9.2-3.5 7.8-1.2 16.8.6 24.8h-10q.5-1 1-2-.5-1-.9-2.1c-1.4-3.7-1.5-7.3-1.5-11.2q0-1.1 0-2.3c.2-6.9 1.5-11.3 6.3-16.5 2.7-1.2 4.3-.8 7.1.1z" fill="#ca5900"/><path d="M617.8 792.7q1.1.1 2.2.3c1.3 4.4 1.3 4.4 0 7q-.7 1-1.4 2c-4.5 7.4-3.1 15.9-1.6 24h-8c-3.2-7.1-4.5-13.9-2.3-21.5 2.2-5.3 4.9-11.1 11.1-11.8z" fill="#cb5a00"/><path d="M808 795c.8 2 .8 2 1 5-1.1 2.2-2.4 4.1-3.8 6.1-2.6 4-2.3 8-2.3 12.6q0 1 .1 2.1 0 2.6 0 5.2h-8c-3.2-5.3-2.7-11.1-2-17 2.4-7.3 6.3-15 15-14z" fill="#ca5900"/><path d="M639.3 792.7q1.3.1 2.7.3c.4 3.9 0 6.3-2 9.6-2.4 4.7-2.5 8.7-2.2 13.9v2.5q.1 3 .2 6h-8c-2.6-8.9-3.4-16.6.9-25 3.9-6.9 3.9-6.9 8.4-7.3zm145.1.8l2.6.5c.7 5.3-.9 7.9-3.8 12.1-2.5 4-2.3 7.9-2.3 12.7.1 1.7.1 1.7.1 3.5q0 1.3 0 2.7h-8c-3.1-6-2.7-12.2-.9-18.6 2.2-5.9 5.8-11.9 12.3-12.9z" fill="#c95800"/><path d="M247 291c9.6-.4 9.6-.4 14 3 1 1 1 1 1.3 4.3-.3 3.7-.3 3.7-1.6 6.1-4.4 2.6-8.7 1.8-13.7 1.6v-15z" fill="#5fc8c8"/><path d="M455 291c9.1-.6 9.1-.6 13.2 2.1 1.8 2.9 1.8 2.9 1.9 6.5-1.2 3.8-1.8 4.5-5.1 6.4-2.6.3-2.6.3-5.3.2q-2.3-.1-4.7-.2v-15z" fill="#60c9c8"/><path d="M486 215c2.1 3.2 3.4 6.4 4.6 10.1q.4.9.7 1.9c1.7 4.7 1.7 4.7 1.7 7h-13c1.7-6.5 3.5-12.8 6-19z" fill="#63cccb"/></svg>