<svg xmlns="http://www.w3.org/2000/svg" width="1024" height="1024" xmlns:v="https://vecta.io/nano"><path d="M713.7 158q3.3 1.4 6.5 2.8c16.6 6.8 32.9 15.5 43.8 30.2 1.9 5.6 2 11.6-.5 17.1-4.1 7.1-9.3 13.7-17.5 15.9-4.4.4-8.8.4-13.2.4q-3 0-6.1 0-3.2 0-6.5 0-6.8 0-13.5 0-15.7.1-31.3.1-14.3 0-28.6.1-6.8 0-13.5 0-3.2 0-6.4 0-3.8 0-7.7 0h-3.5-3c-3.2.5-5.1 1.5-7.7 3.4-2 2.9-2.3 5.2-2.3 8.6q0 1.4 0 2.8 0 1.4 0 3 0 3.1-.1 6.2 0 4.9-.1 9.9 0 4.7-.1 9.5 0 1.4 0 2.9c-.1 9.6-2.5 16.6-8.4 24.1q1.8.1 3.6.2c34.8 4.1 66.4 27.5 89.1 53.1 1.3 1.7 1.3 1.7 1.3 3.7q1 0 2 0c1.9 2.4 3.7 4.8 5.4 7.3q.8 1.1 1.6 2.3c8.8 12.7 16.6 25.9 22 40.4q.4 1 .8 2.1 1.2 3.3 2.4 6.7a15.87 15.87 0 0 0 .7 2c4.3 12.9 5.6 26.2 5.5 39.7q0 2.2 0 4.5 0 6 0 12 0 6.5 0 13.1 0 12.7 0 25.4 0 10.4 0 20.8 0 1.4 0 3 0 3 0 6 .1 28.1 0 56.3 0 25.7.1 51.4 0 26.4 0 52.9 0 14.8 0 29.6 0 12.6 0 25.3 0 6.4 0 12.8 0 5.9 0 11.8 0 2.1 0 4.3c.2 19.9-5.5 37.6-19.5 52.3-11.4 10.7-25.6 17.1-41.3 17.1q-1.9 0-3.8 0-2.1 0-4.1 0-2.2.1-4.4.1-6.1 0-12.2 0-6.5 0-13.1 0-15.8 0-31.6 0-7.4 0-14.8.1-24.8 0-49.6 0-6.4 0-12.8 0-1.6 0-3.2 0-25.9 0-51.7.1-26.6 0-53.1 0-14.9 0-29.8.1-12.7 0-25.4 0-6.5 0-12.9 0-6 0-11.9 0-2.1 0-4.3 0c-17.3.1-32-5.1-44.7-17.1-14.7-15.2-19.8-32.2-19.7-53.1q0-2.1 0-4.3 0-5.9 0-11.8 0-6.3 0-12.7 0-12.4 0-24.8 0-14.5 0-29 0-25.9.1-51.8 0-25.1 0-50.1 0-27.4 0-54.7 0-3 0-5.9 0-1.4 0-2.9 0-10.1 0-20.2 0-12.3 0-24.6 0-6.3 0-12.5c0-46.9 9.5-89.8 41.3-126 1.1-1.2 1.1-1.2 2.1-2.5q3.4-3.8 6.9-7.5 1.3-1.4 2.7-2.9c20.5-21.5 48.2-36.5 77.3-42.1.2-2.3.2-2.3-2.3-4.6-7.2-8.5-6.2-19.5-6.1-30q0-2.5 0-5.1-.1-5.4 0-10.8 0-6.8-.1-13.7 0-5.3 0-10.6 0-2.5 0-5c-.1-14.6 1.6-28.9 8.2-42q.5-1.1 1-2.1c3.4-6.7 7.6-12.4 12.3-18.1.8-1 .8-1 1.5-2 14.2-17.9 35.7-27.1 57.5-31q1.5-.3 3.1-.6c78.1-8.7 172.2 6.2 243.6 38.6z" fill="#9ae9e3"/><path d="M478.9 429.5q2.2 0 4.5 0 4.7 0 9.4 0 6 .1 12 0 4.7 0 9.4.1 2.2 0 4.4 0c11.9-.1 20.6.8 29.5 9.2 5.3 6 7 12.4 7.1 20.2v3.7a53.4 53.4 0 0 1 .1 4q0 2 0 4.1.1 7.5.2 15.1.1 6.4.2 12.8 0 3 .1 6v3.7q0 1.5 0 3.2c-.1 2.4-.1 2.4 1.2 3.4q2.6.2 5.3.2h3.4q1.9 0 3.8 0 3.9.1 7.8.1 6.1.1 12.3.1 5.9 0 11.9.1h3.7c9.3.2 17 1.2 24.1 7.6q1.2 1.1 2.4 2.2c6.9 8.3 6.9 17 6.8 27.3q0 2.3 0 4.6 0 4.7 0 9.4-.1 6 0 12.1 0 4.6-.1 9.3 0 2.2 0 4.4c.1 12.1-.6 21.7-9.2 30.7-5.9 5.2-12.2 7-20 7.1q-1.7 0-3.5.1h-3.8q-1.9 0-3.9.1-5.1.1-10.2.1-5.2.1-10.4.2-10.2.2-20.4.3c-1.3 2.6-1.1 4.6-1.1 7.6q-.1 1.7-.1 3.5v3.8q0 3 0 6-.1 7.4-.1 14.7 0 4.2-.1 8.3 0 3.9 0 7.8c-.2 9.8-1.5 18.3-8.3 25.7-4 3.7-8.2 5.7-13.3 7.6q-1 .5-2 1-3.1.2-6.3.2-1 0-2 0-3.2 0-6.4 0c-1.1 0-1.1 0-2.2.1q-5.9 0-11.7 0-6 0-12 .1-4.6 0-9.3 0-2.2 0-4.4.1c-10.4.1-19.1-.9-28-6.6-6.4-6.9-9.8-13.6-9.9-22.9q0-1.8 0-3.7v-4q-.1-2-.1-4-.1-8.7-.2-17.3 0-5.3-.1-10.6 0-3 0-6-.1-1.8-.1-3.6v-3.3c-.1-2.7-.1-2.7-2.3-4.5-2.5-.3-2.5-.3-5.5-.3q-1.7 0-3.5 0h-3.8q-2.9 0-5.9 0-7.3-.1-14.5-.1-4.1 0-8.2 0-3.8-.1-7.6 0c-10.4-.2-17.6-2.6-25.3-9.7-5.3-6-6.8-12.6-6.9-20.5v-1.9q0-3.2 0-6.4 0-2.3 0-4.5 0-4.8 0-9.5-.1-6-.1-12 0-4.6 0-9.3 0-2.2 0-4.4c-.1-11.9.7-20.6 9.1-29.5 5.9-5.2 12.3-7 20.1-7.1 1.7 0 1.7 0 3.5-.1q1.9 0 3.9 0 1.9 0 3.9-.1 5.2-.1 10.4-.1 5.3-.1 10.6-.2 10.4-.2 20.8-.3c1.3-2.7 1.1-4.7 1.1-7.7q.1-1.7.1-3.6v-3.9q0-2 0-4 .1-8.6.1-17.1 0-5.2.1-10.4 0-3 0-5.9c.1-9.2 1.4-18.1 8.2-24.8 9.1-8 19.7-8.2 31.3-8.1z" fill="#f04a2e"/><path d="M713.7 158q3.3 1.4 6.5 2.8c16.6 6.8 32.9 15.5 43.8 30.2 1.9 5.6 2 11.6-.5 17.1-4.1 7.1-9.3 13.7-17.5 15.9-4.4.4-8.8.4-13.2.4q-3 0-6.1 0-3.2 0-6.5 0-6.8 0-13.5 0-15.7.1-31.3.1-14.3 0-28.6.1-6.8 0-13.5 0-3.2 0-6.4 0-3.8 0-7.7 0h-3.5-3c-3.2.5-5.1 1.5-7.7 3.4-2 2.9-2.3 5.2-2.3 8.6q0 1.4 0 2.8 0 1.4 0 3 0 3.1-.1 6.2 0 4.9-.1 9.9 0 4.7-.1 9.5 0 1.4 0 2.9c-.1 8.9-1.8 17.6-8.4 24.1-3 .7-5 1-8 .9q-1.2 0-2.5 0-4 .1-8 0-2.9 0-5.8.1-7.9 0-15.8 0-6.5 0-13.1 0-15.5 0-31 0-15.9-.1-31.9 0-13.7.1-27.4 0-8.2 0-16.4.1-7.7 0-15.4-.1-2.9 0-5.7 0c-14.2.2-14.2.2-18.6-2.7a24.66 24.66 0 0 1-4.4-6.3q-.5-1-1.1-2.1c-3.4-7.3-2.4-16.5-2.3-24.5q0-2.5 0-5.1-.1-5.4 0-10.8 0-6.8-.1-13.7 0-5.3 0-10.6 0-2.5 0-5c-.1-14.6 1.6-28.9 8.2-42q.5-1.1 1-2.1c3.4-6.7 7.6-12.4 12.3-18.1.8-1 .8-1 1.5-2 14.2-17.9 35.7-27.1 57.5-31q1.5-.3 3.1-.6c78.1-8.7 172.2 6.2 243.6 38.6z" fill="#16b4de"/><path d="M478.9 429.5q2.2 0 4.5 0 4.7 0 9.4 0 6 .1 12 0 4.7 0 9.4.1 2.2 0 4.4 0c11.9-.1 20.6.8 29.5 9.2 5.3 6 7 12.4 7.1 20.2v3.7a53.4 53.4 0 0 1 .1 4q0 2 0 4.1.1 7.5.2 15.1.1 6.4.2 12.8 0 3 .1 6v3.7q0 1.5 0 3.2c-.1 2.4-.1 2.4 1.2 3.4q2.6.2 5.3.2h3.4q1.9 0 3.8 0 3.9.1 7.8.1 6.1.1 12.3.1 5.9 0 11.9.1h3.7c9.3.2 17 1.2 24.1 7.6q1.2 1.1 2.4 2.2c6.9 8.3 6.9 17 6.8 27.3q0 2.3 0 4.6 0 4.7 0 9.4-.1 6 0 12.1 0 4.6-.1 9.3 0 2.2 0 4.4c.1 12.1-.6 21.7-9.2 30.7-5.9 5.2-12.2 7-20 7.1q-1.7 0-3.5.1h-3.8q-1.9 0-3.9.1-5.1.1-10.2.1-5.2.1-10.4.2-10.2.2-20.4.3c-1.3 2.6-1.1 4.6-1.1 7.6q-.1 1.7-.1 3.5v3.8q0 3 0 6-.1 7.4-.1 14.7 0 4.2-.1 8.3 0 3.9 0 7.8c-.2 9.8-1.5 18.3-8.3 25.7-4 3.7-8.2 5.7-13.3 7.6q-1 .5-2 1-3.1.2-6.3.2-1 0-2 0-3.2 0-6.4 0c-1.1 0-1.1 0-2.2.1q-5.9 0-11.7 0-6 0-12 .1-4.6 0-9.3 0-2.2 0-4.4.1c-10.4.1-19.1-.9-28-6.6-6.4-6.9-9.8-13.6-9.9-22.9q0-1.8 0-3.7v-4q-.1-2-.1-4-.1-8.7-.2-17.3 0-5.3-.1-10.6 0-3 0-6-.1-1.8-.1-3.6v-3.3c-.1-2.7-.1-2.7-2.3-4.5-2.5-.3-2.5-.3-5.5-.3q-1.7 0-3.5 0h-3.8q-2.9 0-5.9 0-7.3-.1-14.5-.1-4.1 0-8.2 0-3.8-.1-7.6 0c-10.4-.2-17.6-2.6-25.3-9.7-5.3-6-6.8-12.6-6.9-20.5v-1.9q0-3.2 0-6.4 0-2.3 0-4.5 0-4.8 0-9.5-.1-6-.1-12 0-4.6 0-9.3 0-2.2 0-4.4c-.1-11.9.7-20.6 9.1-29.5 5.9-5.2 12.3-7 20.1-7.1 1.7 0 1.7 0 3.5-.1q1.9 0 3.9 0 1.9 0 3.9-.1 5.2-.1 10.4-.1 5.3-.1 10.6-.2 10.4-.2 20.8-.3c1.3-2.7 1.1-4.7 1.1-7.7q.1-1.7.1-3.6v-3.9q0-2 0-4 .1-8.6.1-17.1 0-5.2.1-10.4 0-3 0-5.9c.1-9.2 1.4-18.1 8.2-24.8 9.1-8 19.7-8.2 31.3-8.1zM453 438q0 1 0 2-1.5.5-3 1c-1.6 2-1.6 2-3.1 4.4q-.8 1.2-1.6 2.4c-2.3 3.9-2.4 7-2.5 11.4q0 1.9 0 3.8 0 1.1 0 2.1-.1 3.2-.1 6.4-.1 9.1-.2 18.2 0 5.5-.1 11.1 0 2.1 0 4.2-.1 3-.1 5.9 0 1.7 0 3.4c-.3 2.7-.3 2.7-2.3 4.7-2.5.3-2.5.3-5.7.3h-3.6-3.9q-2 0-4.1 0-8.5.1-17.1.1-5.2 0-10.4 0-3 .1-5.9 0c-6.9.1-13.6.3-19.3 4.6q-1.1 2-2 4-.9.4-1.9.9c-3.2 1.7-4.4 4-6.1 7.1-.9 4.1-1.1 8-1.1 12.1q-.1 1.8-.1 3.6 0 1.9 0 3.9 0 2 0 4 0 4.2 0 8.4 0 5.3 0 10.6 0 4.2 0 8.3 0 2.9-.1 5.8c0 13.8 0 13.8 6 25.7q.9 1.2 1.9 2.5c6.5 5.8 13.3 5.5 21.7 5.5q3.1 0 6.2 0 8.9 0 17.7 0 5.5 0 10.9.1 3.1 0 6.1 0 1.9 0 3.8 0 1.6 0 3.3 0c2.7.5 2.7.5 4.6 2.1 1.4 3 1.5 5.2 1.5 8.5q0 1.9 0 3.8 0 .9 0 1.9 0 3.1 0 6.3.1 6.6.1 13.2 0 7.6.1 15.2 0 3.1 0 6.1c0 6.8.4 12.2 3.4 18.4q1 0 2 0 0 1 0 2 1 0 2 0 0 .9.1 1.8c1.2 2.9 3.1 3.8 5.8 5.4 4.7 1.8 9.6 1.9 14.5 1.9q1.9.1 3.8.1 2.1 0 4.1 0 2.1 0 4.2 0 4.4 0 8.9 0 5.6 0 11.2 0 4.4 0 8.7 0 2.1 0 4.2 0c14.2.2 14.2.2 26.5-6.2 8.2-8.5 8.4-15.7 8.4-27.1q.1-2.1.1-4.1 0-5.4.1-10.8 0-8.6.1-17.3 0-3 0-6 0-1.8 0-3.7 0-1.6 0-3.2c.3-2.8.8-4.5 2.3-6.8 2.6-1.3 4.4-1.1 7.3-1.1 1.6-.1 1.6-.1 3.3-.1q1.8 0 3.7 0 3.8 0 7.6 0 6-.1 12-.1 5.8-.1 11.6-.1 1.8 0 3.6 0c8.6-.1 16.6-1.4 23.6-6.6q.9-1.1 1.8-2.1.9-1 1.8-2.1c5-8.5 5.1-17.4 5.1-27q0-2.1 0-4.1 0-4.2 0-8.4 0-5.4 0-10.8 0-4.2 0-8.4 0-2.9 0-5.9c-.1-10.9-2.2-19.7-9.4-28.2-12.8-8.4-35.2-5.3-49.9-5.6q-3.3 0-6.5-.1-7.8-.2-15.6-.3 0-1.2 0-2.5.1-11.6.2-23.2 0-5.9 0-11.9.1-5.7.1-11.5 0-2.2 0-4.4 0-3 0-6.1.1-1.7.1-3.5c-.1-2.9-.1-2.9-1.8-4.7q-.8-.6-1.6-1.2c-2.3-2.2-4.3-4.4-6.2-7-4-4.8-9.1-6.7-15.2-7.4-4.1-.1-8.1-.2-12.2-.1q-2.3 0-4.6 0-4.7-.1-9.4 0-6 0-12.1 0-4.6-.1-9.3 0-2.2 0-4.4 0c-8.6-.1-15.9.5-23.6 4.5z" fill="#fe2c02"/></svg>