<svg xmlns="http://www.w3.org/2000/svg" width="1024" height="1024" xmlns:v="https://vecta.io/nano"><path d="M511.3 152.7q1.3 0 2.6 0c13.1.3 23.5 5.4 33.1 14.3 6.5 7.9 11 16.5 15.1 25.9q1.8 4.2 3.7 8.5 1 2.2 2 4.5l11.2 24.5q1.8 3.8 3.5 7.6 4.9 10.6 9.8 21.2L615 309q.8 0 1.7 0c22.4.3 38.9 4.9 55.3 21q1 1 2.1 2c12.9 13.2 17.4 30.7 17.2 48.7-.4 17.1-7.1 31.3-19.3 43.3q-1.5 1.5-3 3c2.4 8.2 6.1 15.7 9.9 23.3q1.7 3.5 3.4 7.1 2.3 4.7 4.6 9.4c9.7 19.6 19 39.5 28.2 59.3q1.2 2.6 2.4 5.2c8 17.1 14.2 31.8 7.8 50.7-5.1 12-14.3 20.8-26.2 25.8-6 2.3-11.6 2.7-17.9 2.6h-2.9c-12.1-.3-21-3.7-30.3-11.4q-1.1-1.2-2.2-2.5c-3.8-3.4-7.7-4.6-12.6-6.1q-1.4-.4-2.8-.9c-13.7-4.2-27.4-6.9-41.6-9.2q-1-.1-2-.3c-17.6-2.8-34.8-3.2-52.6-3.2q-1.7 0-3.4 0c-51.6.1-100.9 8.9-148.4 29.8-3.4 1.4-3.4 1.4-5.4 1.4q.9 1.1 1.8 2.1c9 10.8 16 22.7 23.3 34.7q4.2 6.9 8.5 13.8.7 1.3 1.5 2.6 6.1 9.7 12.2 19.5 8.9 14.2 17.7 28.6 5 8.2 10.2 16.3 1 1.6 2 3.2 1.9 3 3.8 6c9.6 15.1 15.7 31.1 11.9 49-3.3 13.7-9.6 25.6-21.8 33.4-7.5 4.4-15.4 8.1-24.1 8.8q-1.3.1-2.6.2c-16.2.6-30.1-5.8-42-16.5-6.1-6.8-10.8-14.8-15.6-22.6q-1.7-2.8-3.4-5.6-.9-1.4-1.7-2.8-3.8-6-7.6-12-6.8-10.8-13.6-21.7-12.2-19.5-24.6-38.9-7.3-11.6-14.6-23.2-1.9-3.1-3.8-6.1c-3.1-4.7-5.9-9.5-8.4-14.5-4-8.7-4-8.7-11.4-14.1-5.4-.9-10.7-.6-16.1-.3-11.9.3-27.8-5.8-36.6-13.7-3.1-1.9-5.5-.9-9-.2-21 1.2-38.9-4.4-55-18q-1-.8-2-1.6c-11.5-10.5-19.2-27.2-20.2-42.7-.3-20.5 6.1-36.9 19.7-52.1 2.5-2.6 2.5-2.6 4.8-3.9 2.9-3 2.2-6.9 2.1-10.9.6-21.4 9.7-37.1 24.9-52 14-12.6 33-19.4 50-26.8 43.3-19.1 83.2-43.8 118.7-75q1.4-1.2 2.8-2.5c6.7-6 13.1-12.3 19.5-18.7 1.3-1.3 1.3-1.3 2.6-2.5 4.9-5 9.6-10 14.1-15.3l1.4-1.6c6.8-7.9 13.4-16 19.6-24.4q.7-1 1.5-2c12.5-16.9 23.9-34.6 34.5-52.8 1.8-3.2 3.7-6.3 5.8-9.4 5.7-8.7 6.9-15.5 7-25.9 0-11.2 3.9-19.5 11.2-27.9q.7-.9 1.5-1.8c8.6-9.6 21.2-13.6 33.8-13.5z" fill="#013a89"/><path d="M475 236c2.3 2.9 4 5.8 5.6 9.1q.8 1.6 1.5 3.2a53.86 53.86 0 0 0 1.7 3.4q.8 1.8 1.7 3.6l13.8 29.8q7.2 16 14.7 31.9 7.8 16.5 15.3 33.1 8.4 18.5 17 37 .6 1.3 1.2 2.6 2.5 5.3 4.9 10.5 9.1 19.8 18.2 39.5 4 8.6 8 17.3 2.3 4.9 4.6 9.9.5 1.2 1.1 2.4 8.2 17.8 16.3 35.7l17.2 37q2.1 4.5 4.2 9 .4.9.9 1.9 1.3 2.7 2.5 5.4.8 1.6 1.5 3.2c1.1 2.5 1.1 2.5 1.1 4.5q-1.7-.4-3.5-.8c-29.6-6.4-58.8-9.7-89.1-9.5q-4.1 0-8.2 0c-46.5-.1-90.2 7.9-134 23.2q-4.6 1.6-9.2 3.1c-5.8-11.4-11.2-22.8-16.6-34.4q-1.1-2.6-2.3-5.2-8.8-19.1-17.5-38.2-6.2-13.8-12.5-27.6-1-2.1-2-4.3-4.7-10.3-9.4-20.6-2.2-4.8-4.5-9.6-1.5-3.4-3.1-6.8-.9-2.1-1.9-4.2-.4-.9-.8-1.9-1.2-2.6-2.4-5.2c-.4-.9-.4-.9-.9-1.9-1.2-2.5-2.1-4.5-2-7.4 1.7-3.2 5.1-4.6 8.1-6.3q2.2-1.4 4.4-2.7 1.1-.7 2.2-1.4c17.6-10.9 34.1-24.5 49.2-38.5 2.2-2.1 4.5-4.1 6.8-6.1 4.6-4 8.9-8.3 13.3-12.6q1.1-1.2 2.3-2.3c4.7-4.8 9.2-9.7 13.6-14.8q1.5-1.7 3.1-3.5c8.1-9.1 15.6-18.7 22.9-28.5q.8-1.1 1.6-2.2c12.3-16.6 23.3-33.9 34-51.6l1.7-2.8q.7-1.2 1.5-2.5c1.2-1.9 1.2-1.9 2.2-2.9z" fill="#fea104"/><path d="M289 426q1.1 2.5 2.3 5 1 2.2 2.1 4.5 2.9 6.4 5.9 12.9 6.2 13.3 12.4 26.7l21.7 47.4 19.5 42.5q1.1 2.3 2.1 4.6 2.4 5.2 4.9 10.4l1.6 3.5 1.5 3.1c1 2.4 1 2.4 1 4.4q-1.6.8-3.3 1.6-12.1 5.7-24.2 11.5-2.9 1.3-5.8 2.7-7.2 3.4-14.3 7c-21.6 10.7-45.3 16.8-69.1 9.5-21-8.1-28.9-28-38.1-47q-1.3-2.7-2.6-5.5-3.2-6.7-6.4-13.4-1.6-3.3-3.2-6.6-2.6-5.3-5.1-10.6-.7-1.5-1.4-3c-7-15.1-9.4-31.2-3.5-47.2 10.8-24.4 36-33.9 58.9-44.1l22.8-10.4q1.3-.6 2.5-1.2c4.8-2.2 9.4-4.7 14-7.4 1.8-.9 1.8-.9 3.8-.9z" fill="#fe810f"/><path d="M527.8 180.1c8.2 6.3 11.7 17.2 15.7 26.4q2.7 6.1 5.4 12.2.5 1.2 1.1 2.4 4.4 10.1 9.1 20.1 6.1 13.1 12 26.3l25.7 55.8q2.9 6.2 5.8 12.5 8.1 17.5 16.3 35 .4.9.9 1.8 4.9 10.6 9.9 21.2l19.5 42.2q8.1 17.9 16.4 35.8.6 1.3 1.3 2.7 5.8 12.5 11.6 25.1 8.7 18.5 17.2 37.1 1 2.3 2.1 4.7 1.5 3.3 3.1 6.6.4 1 .9 2c3.6 7.9 4.8 16 2.6 24.5-2.9 6.2-7.9 10.6-14.1 13.4-7.8 2.5-15.6 1.8-23-1.5-12.9-7.6-17.8-23.9-23.4-37-4.2-9.8-8.9-19.4-13.5-29.1q-10.7-22.6-21-45.3-5.8-12.9-11.8-25.7-7.4-16.1-14.8-32.1-18-39.3-36.2-78.6-.6-1.2-1.2-2.5-6-13-12.1-26l-24.9-54.3q-4.6-10.2-9.4-20.3-.5-1-1-2.1-2.3-4.9-4.6-9.8-.8-1.7-1.7-3.5-.7-1.5-1.4-3.1c-3.6-8.4-5.5-18.6-2.4-27.5 1.2-2.1 2.5-3.8 4.1-5.5q.8-.8 1.6-1.7c10-9.6 22.8-9.2 34.2-2.2z" fill="#fd810f"/><path d="M356 622c12.5 6.8 19.1 21.3 26.1 33.1 3.4 5.8 7 11.4 10.7 17l19.7 31.4q6.2 10 12.4 19.9.8 1.2 1.5 2.3 4.1 6.6 8.4 13.1.9 1.5 1.9 3 1.8 2.8 3.7 5.6c6.5 10.2 10.6 21 8.1 33.2-2.5 8.9-7 15.1-14.5 20.4-8.2 4.4-18.3 4.1-27.2 2.1-10.8-4-17-13.7-22.6-23.3q-1-1.7-2-3.4-1.6-2.7-3.1-5.3l-10.3-16.5q-1.8-2.7-3.5-5.4-.8-1.3-1.7-2.6-3.9-6.2-7.7-12.3-.8-1.1-1.5-2.3-1.5-2.4-2.9-4.7-3-4.7-6-9.4-1.5-2.4-3-4.8-3.7-5.8-7.4-11.7-9.3-14.7-18.6-29.6-6.5-10.5-13.4-20.8c-3.1-4.8-3.1-4.8-3.1-7q1.3-.5 2.6-1c7.3-2.8 14.3-5.9 21.3-9.3q1.1-.6 2.3-1.2 4.6-2.3 9.2-4.6 3.4-1.8 6.9-3.5c1-.5 1-.5 2.1-1.1 4.3-2.1 7-2.7 11.6-1.3z" fill="#0064c6"/><path d="M859 234c3.8 1.9 6.3 4.2 7.8 8.2.7 3.9.4 6.3-1.1 9.9-6.9 7.4-16.4 12.4-24.9 17.7l-22.6 14.7-19.9 13q-6 3.9-11.9 7.8-1.3.8-2.5 1.6-6.8 4.4-13.6 8.8l-28.1 18.2q-1.2.7-2.4 1.5c-5.4 3.4-8.3 5-14.8 4.6-4.5-1.9-6.7-4.7-9-9-.7-4.7-.1-7.5 2.6-11.4 2.8-3.1 6.4-5.1 9.9-7.2q2.6-1.5 5.1-3.1 1.4-.8 2.7-1.7c4.3-2.6 8.6-5.4 12.8-8.2q2.5-1.6 5.1-3.2 1.2-.8 2.4-1.7 5.5-3.5 10.9-7 13-8.4 26-16.8 5-3.3 10-6.6 2.5-1.6 5-3.2 6.4-4.2 12.8-8.3 2.6-1.7 5.2-3.4l2.5-1.7q8.5-5.4 16.8-11.1c4.1-2.6 8.4-3.3 13.2-2.4zm-128-82c3.6 1.6 6.2 3.4 8 7 .8 8-1.4 13.3-4.8 20.4q-1.2 2.7-2.5 5.4-1.3 2.9-2.7 5.9l-10 21.9q-1.8 4.1-3.6 8.1-6.2 13.6-12.2 27.3-1.7 3.9-3.4 7.8-1.1 2.5-2.2 5-1.4 3.4-3 6.9-.4 1-.8 2c-2.2 4.9-4.6 7.3-8.8 10.3-4.3 1.3-6.9 1.4-10.8-.7-3.1-2.2-3.9-2.9-5.2-6.3-1-6.5.6-11.6 3.4-17.4q.5-1.1 1.1-2.3 1.7-3.8 3.5-7.6 1.2-2.7 2.5-5.4 2.5-5.5 5-10.9l9.8-21.9 15.1-33.5q1.2-2.7 2.4-5.4c8.4-18 8.4-18 19.2-16.6zm29.3 233.1q1.3.1 2.6.3 4.4.6 8.8 1.2 3.1.4 6.1.8 4.9.6 9.8 1.2 12.6 1.7 25.2 3.3 5.5.7 11 1.4 3.6.4 7.2.9 5 .6 10.1 1.3 1.4.2 3 .4c14.4 1.8 14.4 1.8 18.9 5.7 2.5 4.3 3 7.5 2 12.4-1.7 3.4-2.8 5.4-6.2 7.2-3.5 1-6.1.9-9.7.6q-1.1-.1-2.1-.2c-9.7-.7-19.3-2-28.9-3.3q-3.1-.3-6.2-.7-6.5-.9-12.9-1.7-8.3-1.1-16.6-2.1-6.4-.8-12.7-1.6-3.1-.4-6.1-.8-4.3-.5-8.5-1.1-1.3-.1-2.6-.3c-7.4-1-12.4-2.2-17.5-8-1.6-3.2-1.5-6.5-1-10 5.7-11 15.7-8.4 26.3-6.9z" fill="#fea105"/><path d="M625 332c13.8 1.2 24.1 4.9 33.7 15.1 9.3 12 11.2 24.1 10.3 38.9-1.2 7.8-5.1 14.3-9 21q-1 0-2 0l-23.3-50.1q-.4-1-.9-2.1-2.9-6.4-5.8-12.8c-.4-.9-.4-.9-.9-1.9-1.2-2.9-2.1-4.9-2.1-8.1z" fill="#fc6221"/><path d="M167 541q1 0 2 0 1.8 3.8 3.7 7.6 1.6 3.4 3.2 6.7 4.1 8.6 8.2 17.2l16 32.6q.5 1.1 1.1 2.3.5 1 1.1 2c.7 1.6.7 1.6.7 2.6-11 .7-20.5-3-29-10-8.6-8-14.7-18.2-15.2-30.1-.2-8.7-.2-16.1 4.2-23.9q.6-1.1 1.2-2.2 1.3-2.4 2.8-4.8z" fill="#fba105"/></svg>