<svg xmlns="http://www.w3.org/2000/svg" width="1024" height="1024" xmlns:v="https://vecta.io/nano"><path d="M728 102c4.4 2.7 8.2 5.8 11.9 9.4q.9.8 1.7 1.5 1.8 1.7 3.6 3.4 2.7 2.6 5.5 5.1 7.6 7.1 15.2 14.3l16.1 14.8c10.4 9.3 20.5 19 30.7 28.5q7.8 7.4 15.6 14.7 7.2 6.7 14.3 13.4 8.3 7.8 16.6 15.5 6.2 5.7 12.4 11.5 9.6 9 19.4 17.9 3 2.7 6 5.5 1.5 1.4 3 2.8l19.5 17.8q1.5 1.4 3 2.8 3.8 3.5 7.6 7l12.9 11.6c4.9 4.3 9.8 8.7 14.5 13.1q2.1 1.9 4.1 3.8c7 6.7 12 13.5 12.6 23.4-.1 7.8-3.7 14.7-9.2 20.2-5.1 3.3-10.2 5.1-16.3 5.2q-1.5.1-3 .1-3.3.1-6.5.2-1.5.1-3.1.1-1.4.1-2.8.1c-2.5.1-2.5.1-4.3 2.3-.3 2.9-.4 5.7-.4 8.6-.1 1.3-.1 1.3-.1 2.7l-.4 28q0 6.7-.2 13.3-.2 8-.2 16.1 0 3-.1 6.1c-.7 10.5-.7 10.5 2.7 20 3.4 3.5 7.4 5.8 11.7 8.2 2.7 2.2 5.2 4.6 7.6 7.1q1 1 1.9 1.9c19.1 19.9 28.6 44 28.7 71.5q0 2 0 4 0 5.6 0 11.1 0 3.4 0 6.9 0 10.8 0 21.7 0 12.5.1 24.9 0 9.7 0 19.4 0 5.8 0 11.5.1 5.4.1 10.9 0 2.9 0 5.8c-.1 15.4-4.5 31.2-15.5 42.6-13.8 12.3-28.6 15-46.7 14.9q-1.9 0-3.8 0-5 0-10-.1-5.2 0-10.3 0-10.1 0-20.1-.1v-3q.1-5.5.2-11.1 0-2.4 0-4.7c.5-30.9-9.9-56.5-31.4-78.7-5.8-5.9-11.7-11.2-18.8-15.5q-.8-.5-1.7-1.1c-24.2-15-53-20.3-81.1-14.5-29.6 7.2-54.9 24.7-71.2 50.6-10.7 17.6-15.5 35.9-16.7 56.3q-.1 1-.2 2.1c-.3 6.7.4 12.8.9 19.6H362v-30c-.9-11-3.3-20.7-7-31q-.6-1.6-1.2-3.3c-9.7-25.3-31.5-45.3-55.7-56.8-26-11.4-55.3-12.7-82-2.8-3.1 1.2-6.1 2.5-9.1 3.9q-.9.4-1.8.8C178 618.3 157.6 641.1 147 669c-5.1 14.8-6.4 30.5-5.5 46.1a29.08 29.08 0 0 0 .1 2.9q.2 3.5.4 7-10.3.2-20.5.2-3.5 0-7 .1c-20.2.3-38.1-.5-53.8-15-13-14.1-15.9-31.6-15.8-50.1q0-1.9 0-3.8 0-5.3 0-10.5 0-5.5 0-11.1 0-9.4 0-18.7 0-9.5 0-19l.5-83.8q0-1.1.1-2.2c.3-14.7 1.7-29.2 3.2-43.7l3-32.8q.1-1.3.2-2.7 1-10.6 1.9-21.3l4.6-52q.3-2.9.6-5.8c2.4-25.4 12.2-44.6 31.8-60.9 17.3-13.7 35.8-19.3 57.7-19.1q2.3 0 4.6 0 5.1 0 10.2 0 8.2.1 16.4.1 10.5 0 20.9.1 20.4 0 40.9 0 3.2 0 6.4 0 4.9 0 9.8 0 18.4.1 36.8.1 1.7 0 3.4 0 27.3 0 54.6.1 28 .1 56 .1 17.3 0 34.5.1 11.9.1 23.7 0 6.8 0 13.6.1 6.3.1 12.5 0 2.3 0 4.6 0c7.5.2 13.2-.6 19.1-5.7q3.2-3.1 6.1-6.3c2-2.2 4.2-4 6.3-5.9 4.7-4.2 9.3-8.5 13.9-12.8q4.5-4.2 9.1-8.2c4.2-3.7 8.3-7.5 12.4-11.4l25.5-23.5 13.2-12.2 15.6-14.3 12.9-11.8q2.2-2 4.4-4.1 8.4-7.6 16.7-15.4 7.4-6.9 14.9-13.6 3.6-3.3 7.3-6.7 1.6-1.5 3.3-3.1 4-3.6 7.8-7.3C697.7 99.9 712.3 94 728 102z" fill="#fed300"/><path d="M728 102c4.4 2.7 8.2 5.8 11.9 9.4q.9.8 1.7 1.5 1.8 1.7 3.6 3.4 2.7 2.6 5.5 5.1 7.6 7.1 15.2 14.3l16.1 14.8c10.4 9.3 20.5 19 30.7 28.5q7.8 7.4 15.6 14.7 7.2 6.7 14.3 13.4 8.3 7.8 16.6 15.5 6.2 5.7 12.4 11.5 9.6 9 19.4 17.9 3 2.7 6 5.5 1.5 1.4 3 2.8l19.5 17.8q1.5 1.4 3 2.8 3.8 3.5 7.6 7l12.9 11.6c4.9 4.3 9.8 8.7 14.5 13.1q2.1 1.9 4.1 3.8c7 6.7 12 13.5 12.6 23.4-.1 7.8-3.7 14.7-9.2 20.2-5.1 3.3-10.2 5.1-16.3 5.2q-1.5.1-3 .1-3.3.1-6.5.2-1.5.1-3.1.1-1.4.1-2.8.1c-2.5.1-2.5.1-4.3 2.3a132.28 132.28 0 0 0-.3 8.9q0 1.3 0 2.7-.1 4.6-.1 9.2 0 3.1-.1 6.3 0 8.3-.1 16.6-.1 8.5-.1 17-.2 16.6-.3 33.3c-3.6-1.4-6.4-2.9-9.5-5.2-5.7-4-11.7-7.4-17.8-10.7q-3.3-1.9-6.6-3.7-5.2-2.9-10.5-5.8c-7.4-4-13.6-8.6-19.6-14.6q-1.1-1-2.1-2.1c-3.9-3.7-7.5-7.7-11.1-11.8-2-2.3-4.1-4.6-6.2-6.9-3.1-3.4-6-6.9-8.9-10.5-4.4-5.5-9.1-10.6-13.9-15.7-3.4-3.6-6.6-7.3-9.8-11q-.9-1-1.8-2c-.8-.9-.8-.9-1.6-1.9q-.8-.8-1.5-1.7C806 357 806 357 806 355q-1 0-2 0-2.1-2.3-4-4.8c-3.2-4-6.5-7.9-10-11.7-3.4-3.7-6.6-7.4-9.7-11.2-3-3.8-6.2-7.3-9.6-10.6-1.8-1.8-3.4-3.7-5-5.6-6.9-7.9-14.9-14.4-23.7-20.1q-1.1-.7-2.2-1.5c-5.2-3.4-10.7-5.9-16.4-8.2-1-.4-1-.4-2-.9-13.9-5.4-28.7-5.8-43.4-5.8q-2.8 0-5.5-.1-7.4 0-14.8 0-7.7 0-15.5-.1-14.6 0-29.3-.1-16.6 0-33.3-.1-34.3-.1-68.6-.2c1.6-3.5 3.4-5.5 6.4-8.1 1.3-1.1 1.3-1.1 2.7-2.4q1.4-1.2 2.9-2.5 2.9-2.6 5.8-5.3.8-.7 1.5-1.4 4.1-3.7 8.1-7.4c.8-.8.8-.8 1.7-1.6q1.6-1.5 3.2-3 4.2-3.9 8.6-7.7c4.2-3.7 8.3-7.5 12.3-11.3l25.5-23.5 13.3-12.3 15.6-14.3 12.9-11.8q2.2-2 4.4-4.1 8.4-7.6 16.7-15.4 7.4-6.9 14.9-13.6 3.6-3.3 7.3-6.7 1.6-1.5 3.3-3.1 4-3.6 7.8-7.3C697.7 99.9 712.3 94 728 102z" fill="#fd7b0a"/><path d="M764.6 593.6q1 0 2 0c10.6.1 20.3.9 30.4 4.4q.9.3 1.9.6c28.6 9.7 52.8 31.7 66.5 58.5 7.4 15.2 10 30.4 9.8 47.3q.1 1.8.1 3.6c-.1 11.4-.9 22.7-4.9 33.4q-.4 1.1-.8 2.2c-6.2 16.1-15.6 30.8-28.6 42.4q-1 0-2 0-.5 1.5-1 3c-24.8 20.6-57.2 29.6-89 27-28.5-4-56.2-18.6-73.7-41.8-17.3-23.7-25.8-50.8-22.3-80.2q.1-1.1.3-2.3c3.5-29.2 19.3-56.8 42.5-75.1 13.3-9.9 28.2-16.5 44.2-20.6q1.1-.3 2.2-.6c7.4-1.7 14.8-1.8 22.4-1.8zm-442.2 24.6c21.8 17.6 37.1 43.1 40.1 71.3 2.9 29.7-1.8 58-20.5 81.8q-2 2.4-4 4.7l-1.8 2.2c-17.9 21.5-46.3 33.8-73.5 37.5-29.2 2.5-57.6-3.7-80.8-22.5q-2.4-2.1-4.9-4.2-1.2-1-2.5-1.9c-4.5-3.8-7.9-8.5-11.5-13.1-.9-1.2-.9-1.2-1.9-2.4-17.3-23.5-23.7-53-19.9-81.8 3.1-20.2 10.7-39.6 24.8-54.8q1.1-1.2 2.2-2.5c39.5-45.4 107.1-51.3 154.2-14.3zm310.8-286.4q1.1 0 2.3 0 3.6-.1 7.3-.1 1.2 0 2.5 0 6.7-.1 13.4-.1 5.5 0 10.9-.1 6.7-.1 13.3-.1 2.5 0 5.1-.1c14.1-.2 27.8 2.1 39 11.7 3.1 3.2 5.9 6.6 8.7 10.1 2.3 2.9 4.8 5.7 7.3 8.4a163.29 163.29 0 0 1 9.4 10.9c3.4 4.2 7 8.2 10.7 12.2 4.1 4.4 8 8.9 11.8 13.7 3.1 3.9 6.3 7.7 9.6 11.4q4.7 5.5 9.3 11.2c3.2 4 6.6 7.6 10.3 11.2 1.8 1.8 3.4 3.6 5 5.5 2.3 2.7 4.8 5.3 7.3 7.8q.9.9 1.9 1.8 1.8 1.8 3.7 3.6c6.5 6.3 10.1 12.3 10.3 21.4-.2 7.9-2.3 13.4-7.6 19.3-6.1 5.5-12.2 6.6-20.2 6.6-1.1.1-1.1.1-2.3.1q-3.8 0-7.6 0-2.7 0-5.5 0-8.9 0-17.9 0-3.1 0-6.2.1-14.5 0-29 0-16.7 0-33.5.1-12.9 0-25.9 0-7.7 0-15.4.1-7.3 0-14.6 0-2.6 0-5.3 0-3.7 0-7.3 0-1 0-2.1 0c-6.2-.1-11.2-2.2-15.9-6.1-6.8-8.4-8.6-15.9-8.5-26.7q0-1.7 0-3.6 0-4.9 0-9.8 0-5.1 0-10.2 0-8.6 0-17.3.1-9.9.1-19.8-.1-9.6 0-19.2 0-4.1 0-8.2 0-5.6 0-11.3 0-1.7 0-3.4c.1-9 1.6-16.8 7.4-23.9 6-5.2 10.3-7.1 18.2-7.2z" fill="#0da4ac"/><path d="M351 652h315c-1.5 4.5-3.1 8.7-4.9 13-7.9 19.3-8.7 39.5-7.1 60H362v-30c-1.1-13.4-4.3-26.2-10.3-38.3-.7-1.7-.7-1.7-.7-4.7z" fill="#fc7d09"/><path d="M358.3 440.7q1.6 0 3.2 0c11 .2 22.4.4 31.5 7.3 1.6 1.7 1.6 1.7 2.8 3.4q.8 1.1 1.5 2.1 1.9 2.8 3.7 5.5c8.6 12.8 18.8 24.1 31.2 33.4 6.2 5.8 10.5 12.8 11 21.4.3 12-1.3 20.6-9.2 30.2-6.6 6.8-15.1 11-24.6 11.4-11-.4-21.8-3.6-32.2-6.7-15.1-4.4-28.4-2.1-43.2 2.3-12.2 3.6-26.1 7.6-38 1.3-10.4-6.7-18-14.2-21.6-26.3-1.8-8.7-.5-18.1 4.3-25.6 4.4-6.2 9.7-10.9 15.6-15.6 9.1-7.4 15.8-15.7 22.2-25.4 9-13.9 9-13.9 17.5-16.4 8.1-1.7 16-2.4 24.3-2.3z" fill="#fe7b0b"/><path d="M863 652h117c0 42.6 0 42.6-15.1 58.3-13.8 12.3-28.6 15-46.7 14.9q-1.9 0-3.8 0-5 0-10-.1-5.2 0-10.3 0-10.1 0-20.1-.1 0-1.5 0-3 .1-5.5.2-11.1 0-2.4 0-4.7c.3-14.1-.8-27.7-6.3-40.8q-.7-2-1.5-3.9-.7-1.7-1.4-3.5-1-3-2-6z" fill="#fb7d09"/><path d="M791.7 666.3c10.1 7.5 17.2 18.2 19.3 30.7 1.1 14.7-1.3 25.1-10 37-8.5 9.1-19.2 16.3-32 17q-1.1.1-2.2.2c-13.7.5-25.3-4.3-35.4-13.4-7-6.9-13.2-17.7-13.4-27.7q0-1.1 0-2.1-.1-1.1-.2-2.3c-.6-11.7 4-22.6 11.2-31.7 16.6-18.4 42.2-21 62.7-7.7z" fill="#48cecc"/><path d="M250.1 657.8c12.5-.5 24 4.3 33.7 12 6.5 6.4 11.1 14.4 13.2 23.2.3 1.1.3 1.1.5 2.3 2.2 12.7.4 25.2-6.7 36-7.9 10.4-17.7 17.2-30.6 19.3q-2.1.2-4.2.4-1 .1-2.1.2c-12.9.5-25.8-4.7-35.3-13.4-10.6-11.9-13.3-24.2-12.6-39.8.4-2.9 1.1-5.2 2-8q.3-1.1.7-2.3c4.1-11.9 12.3-20 23.3-25.7 5.9-2.8 11.7-3.7 18.1-4.2z" fill="#49cecc"/><path d="M46 652h108c-1.3 4-2.5 7.2-4.4 10.9-7.4 16.2-9.2 34.6-8.1 52.2q0 1.4.1 2.9.2 3.5.4 7-10.3.2-20.5.2-3.5 0-7 .1c-20.2.3-38.1-.5-53.8-15C44.8 693.1 46 675.4 46 652z" fill="#fb7d09"/><path d="M336.3 350.6c8.5 7.3 15.4 17 16.7 28.4 1 13.9-.9 25.9-10 37-4.7 5-10.2 7.7-16.9 8.4q-2 .1-4 0-1.1 0-2.2 0c-5.5-.1-9.4-1.1-13.9-4.4q-1.3-.8-2.6-1.6c-10.1-9.9-15.5-23.6-15.8-37.7 0-10.9.6-20.8 8.6-29.2 11.7-9.6 27.8-9.8 40.1-.9zm83.7-2.2c3.5 2.8 5.8 5.7 8 9.6q.6 1 1.3 2.1c5 10.3 3.9 24.4.7 35.1-4.8 13-10.6 21.4-23 27.8-6.5 2.2-15.2 2.2-21.8.1-7.6-3.9-13.5-11-16.1-19-3.4-14.7-2.8-29.2 4.6-42.6 10-14.9 29.7-23 46.3-13.1zm61 52.6c6.8 4.5 10.9 10.1 13 18 1.9 13.6-1.4 24.8-9.3 35.9-8.6 10.8-20.2 18.6-34 20.6-6.8.3-11.4-.5-16.8-4.7-5.3-5.1-8.9-10.6-9.2-18.1q0-2.4 0-4.9 0-1.3 0-2.6c.1-6.1.7-11.5 3.3-17.2q.5-1.1 1-2.2c5.9-11.9 16.2-21.3 28.5-26.2 8-2.7 16-2.8 23.5 1.4zm-211.7 3.4l5.7 4.6q.9.7 1.8 1.4c8.8 8 14.8 19.9 15.5 31.7.3 10.4-.3 18.9-7.7 26.8-5.9 5.3-10.6 6.7-18.5 6.4-4.9-.5-8.8-2.1-13.1-4.3q-1.2-.6-2.5-1.2c-13.2-7.1-21.1-19.4-25.7-33.4-2.2-9.1-1.2-18.5 3.5-26.7 10.6-15 26.5-14.3 41-5.3z" fill="#fc7c0a"/><path d="M933.3 572.9q1.6 0 3.2 0 1.7 0 3.4 0 1.7 0 3.4 0 5.5 0 11 0 3.7 0 7.5.1 9.1 0 18.2 0v46q-10.4.1-20.8.2-3.5 0-7 .1-5.1.1-10.2.1-1.5 0-3.1.1c-7.9 0-16-1.1-22.1-6.4-5.7-6-7.2-11.6-7-19.7.5-6.2 3.1-11.7 7.8-15.9 5.1-3.8 9.4-4.6 15.7-4.6z" fill="#fb7e08"/><path d="M707 334c12.2 1.8 20.5 8.5 28 18q-.5 1-1 2-1.2-1.3-2.5-2.7-1.6-1.7-3.3-3.4-.8-.8-1.6-1.7c-1.7-1.9-1.7-1.9-4.6-4.2-2.2.3-2.2.3-4 1q0-1.5 0-3-.9-.4-1.9-.8-1.2-.5-2.5-1.1-1.2-.5-2.4-1C709 336 709 336 707 334z" fill="#0f9ec1"/><path d="M874 719l6 1q-1.5.5-3 1 0 1 0 2h34q0 .5 0 1l-37 1q0-3 0-6z" fill="#fb8411"/><path d="M240 594l8 1q-1 .2-1.9.4-1.1.3-2.1.6-.5 1-1 2-2 0-4 0-.5 1-1 2 0-1 0-2-1 .2-2.1.5-1.4.3-2.8.6-1.3.3-2.7.6c-2.4.3-2.4.3-4.4-.7 4.6-1.6 9.2-2.9 14-4q0-.5 0-1z" fill="#17a6a4"/><path d="M794 423c5.6 4.5 10.3 9.5 15 15q-2 .5-4 1-.4-1.1-.7-2.2c-1.5-3.3-3.3-5-5.9-7.5q-2.3-2.1-4.4-4.3 0-1 0-2z" fill="#129fc1"/><path d="M669 648q.5 1 1 2l-2.4 4.9c-1.4 2.7-2.6 5.2-3.6 8.1l-2 1c.3-6.3 3.7-10.9 7-16z" fill="#0da5bc"/><path d="M351 652l6 2c.2 2.4.2 2.4 0 5q-1.5 1-3 2c-3-5.6-3-5.6-3-9z" fill="#ee7f12"/><path d="M809 439q1.7 1.4 3.4 2.8.9.8 1.9 1.6c1.7 1.6 1.7 1.6 3.7 4.6-2.3-1-4.1-2.1-6.1-3.6-1.8-1.6-1.8-1.6-3.9-1.4q.5-2 1-4z" fill="#039cca"/><path d="M874 719l6 1q-1.5.5-3 1 .5 1.5 1 3-2 .5-4 1 0-3 0-6z" fill="#df7d1e"/></svg>