<svg xmlns="http://www.w3.org/2000/svg" width="1024" height="1024" xmlns:v="https://vecta.io/nano"><path d="M665.5 109.9c28.7 24 36.9 61.9 40 97.6 1 11.4 1 22.9 1.2 34.3q0 1.3.1 2.7 0 2.4 0 4.9c.1 4.9.5 9.7 1.2 14.6q.5-.7 1-1.3c20.4-27.2 43.6-56.7 79.1-63.1 20.3-2.7 38.7 1.5 55.3 13.3q1.9 1.5 3.6 3.1 1.1.9 2.2 1.9c18.2 16.9 26 42.2 26.9 66.4.4 18.8-.5 37.1-3.1 55.7q-.2 1.5-.4 3.1c-8.2 58.9-25.8 116.7-41.5 173.9l-12.5 46.6q-6.6 24.7-13.3 49.4c-16.6 60.5-22.5 117.4-23.9 179.9q-.4 15-.9 29.9-.1 1.6-.1 3.2c-.7 16.6-3.5 31.9-16.2 43.7-12.1 9.7-28.2 13.4-43.4 13.4h-2.1q-3.4 0-6.9 0-2.5 0-5 0-6.9.1-13.7.1-7.5 0-14.9 0-16.2 0-32.4 0-10.2 0-20.3 0-28.1 0-56.2 0h-3.6q-1.8 0-3.6 0-3.7 0-7.3 0-1.8 0-3.7 0-29.3 0-58.6.1-30.1 0-60.2 0-16.9 0-33.8 0-14.4.1-28.8.1-7.4 0-14.7 0-6.7 0-13.5 0-2.4 0-4.8 0c-18.6.1-37.1-2.9-50.8-16.5-11.7-12.5-14-27.4-14.1-44q-.1-3.2-.1-6.5-.1-5.1-.2-10.2c-.6-48.2-13.2-79.6-47.3-113.2-3.6-3.5-7.4-6.9-11.2-10.3-3.9-3.4-7.5-7-11.1-10.6-1.1-1.2-1.1-1.2-2.3-2.3-4.7-4.8-9.2-9.7-13.6-14.8q-1.3-1.5-2.7-3c-10.7-12.4-20.1-25.8-28.3-40l-2-3.4c-17.5-30.8-25.7-70.7-16.4-105.5 3.7-12.4 9.5-24.8 17.4-35.1 2 3.5 3 7.2 4.2 11.1 4.8 15.1 14 25.8 28 33.1 14.9 7.3 30.4 7.5 45.9 2.5 11.9-4.3 21.4-13 27.6-24 10.6-22.7 6.8-49 2.7-72.9-.4-2.9-.5-5.8-.4-8.8 33.8-1 62.9 5.7 88.2 28.9 21.8 20.6 35 47.2 48.1 73.8q1.1 2.2 2.2 4.5 2.2 4.5 4.4 8.9c5.7 11.7 11.9 23.6 23.5 30.3 6.4 1.5 12 1.2 17.8-2 4.7-3.6 7-8.6 7.8-14.4 2.5-34.7-15.7-69.3-37.6-95-3-3.5-6.2-6.8-9.5-10-1.9-2-1.9-2-1.9-4l-1.8-.8c-2.2-1.2-3.4-2.3-5.1-4.1-6.9-7.2-15.3-13-23.2-19-35.3-26.7-61.2-54.6-67.6-100-1-7.4-1.5-14.7-1.5-22.1q0-1.4 0-2.9 0-2.9 0-5.9-.1-4.4-.1-8.8c-.1-16.9 1.1-34.2 6.1-50.5q.4-1.2.8-2.6c2.2-7.1 4.9-13.7 8.4-20.3q.7-1.4 1.4-2.9c3.5-6.7 7.7-12.4 12.6-18.1q.9-1.1 1.8-2.3c7.8-9.2 17-16 27.8-21.1q1-.5 2-1c10.5-4.7 20.2-6.1 31.6-6h3.9c20.5.4 39.1 7.2 54.9 20.4q1.4 1.2 2.9 2.4c17.7 15.2 28.5 34.9 37.1 56.3 1.6 3.8 3.3 7.6 5 11.3q1 0 2 0l4.3-17.7c7.1-31.7 17.1-64.3 38.7-89.3q1-1.2 2.1-2.5c29.7-34.9 80.3-40.5 116.4-12.6z" fill="#5ed1ce"/><path d="M243 288c3.9 2.1 6.4 4.5 8.1 8.6 1 3.9 1.2 7.5 1.2 11.4q0 2.4.1 4.8 0 1.3 0 2.5c.4 34.5 4.8 68.5 10.8 102.5q.2 1.3.5 2.8.2 1.3.5 2.6.2 1.2.4 2.5.5 3.1 1.1 6.1c3.3 20.4 4.3 45.3-7.7 63.2-9.7 12.5-21.6 21.1-37.4 23.7-16.1 1.8-31.3-1.8-44.2-11.7-11-9.3-18.4-20.8-21.4-35-1.1-14.7-.3-28.9 4-43q.4-1.5.9-3c4.7-15.7 10.7-30.5 17.8-45.3q1.8-3.8 3.6-7.6c11.6-25.4 26-49.5 40.9-73q.6-1 1.3-2.1c4.9-7.7 10.3-11.6 19.5-10z" fill="#f8684b"/><path d="M690 400.2c11.8 11 11.8 11 12.2 19.6-.4 5.2-1.9 9-5.8 12.6-5 3.3-9.5 3.4-15.4 2.6-4.9-2.3-8.4-6.4-12.1-10.2-21.5-21.9-54.6-34.7-84.9-35-30.7-.1-56.5 7.5-81.5 25.4-4.2 3-7.5 3.3-12.5 2.8-4.9-1.7-8.6-4.4-11-9-1.4-4.8-1.7-9.3.2-14 11.4-19.1 41.4-29.7 61.7-35.1 53.8-13.4 108.4 4.4 149.1 40.3z" fill="#30a5ce"/><path d="M227.6 387.4c2.4.6 2.4.6 4.2 2.4 2.3 4.2 2.3 8 2.4 12.8q0 1 0 2 0 3.3 0 6.6 0 2.2 0 4.5 0 4.8 0 9.6.1 6.1.1 12.2 0 4.7 0 9.4 0 2.2 0 4.5c.1 8 .1 15.2-3.3 22.6-3.7 2.5-5.6 2.5-10 2-4.2-2.8-4.9-6.2-6-11q-.3-3.6-.3-7.3 0-1 0-2 0-3.3 0-6.6 0-1.2 0-2.3c0-13.4 1-26.6 3.3-39.8q.2-1.1.4-2.2c2.8-15.9 2.8-15.9 9.2-17.4z" fill="#3b412c"/></svg>