<svg xmlns="http://www.w3.org/2000/svg" width="1024" height="1024" xmlns:v="https://vecta.io/nano"><path d="M707.9 87.5q1 0 2.1 0c6 .2 9.7 1.5 14 5.5q.9.7 1.7 1.5c4.3 4 7.6 8.5 11 13.3q4.2 5.8 8.5 11.6.7 1.1 1.5 2.1c5.1 7 5.1 7 12.9 10 5.9-.3 11.2-2.9 16.5-5.2q3.4-1.4 6.7-2.7 1.6-.7 3.3-1.4c11.6-4.8 22.3-9.1 34.8-4.3 5.8 3 10.7 7.5 13.4 13.6 1.5 5.2 1.9 10.7 2.4 16.1q.8 6.9 1.7 13.8a26.6 26.6 0 0 0 .3 2.8c.9 6.8 2.3 13.6 7.1 18.8 2.9 1.4 5.6 1.9 8.8 2.4q1 .2 2.1.4c4.6.8 9.2 1.5 13.9 2.1q1.7.3 3.4.5 3.4.5 6.9 1c10 1.4 17.8 4.3 24.1 12.6 4.5 7.7 5.4 16.3 3.3 25-1 3-2.1 5.9-3.3 8.8q-.6 1.6-1.2 3.2c-2.9 7.3-6.3 14.1-10.4 20.8-1.9 4.3-1.9 6.5-1.4 11.2 2.4 4.7 5.7 7.9 9.8 11.1q.8.7 1.6 1.4c5.2 4.3 10.6 8.3 16 12.2 7.9 5.7 12.9 11.9 15.6 21.3 1.1 8.6-2 15.1-7.1 21.7-7.4 8.9-17.2 15.3-26.6 21.9-7.8 5.2-7.8 5.2-11.3 13.4 1.4 8.3 4.5 16 7.6 23.9q1.1 2.9 2.2 5.9 1.1 2.7 2.1 5.3c2.8 7.4 3.4 15.7 1.5 23.4-3.5 7.8-10.4 12.3-17.9 15.6-4 1.5-8 2.3-12.1 3q-1.3.3-2.7.5c-5.2 1-10.5 1.8-15.8 2.3-7.3.9-13.7 2.8-18.9 8.2-2.4 3.4-3.1 6.5-3.8 10.5l-.4 2.2q-.7 3.5-1.4 7c-5.1 27.3-5.1 27.3-14.4 35.2-7.5 4.9-16.3 5-25 4-6.7-1.6-12.9-4.5-19.2-7.3q-1.4-.6-2.8-1.2-2.7-1.2-5.5-2.5c-5.3-2.4-10.5-4.4-16.5-4-2.6 1.1-2.6 1.1-4.3 3.1q-1 1-2 2a94.88 94.88 0 0 0-5.7 6.9q-1.1.9-2.3 1.8c-4.5 3.6-8 8.2-11.7 12.5-7.5 8.8-13.3 13-24.9 14.1-8.9-.3-16.1-5.1-22.1-11.4q-3.4-4-6.6-8.1c-3.2-3.9-6.6-7.6-10-11.3-2.2-2.3-4.2-4.7-6.2-7.1-2.5-2.8-4.6-5.1-8.2-6.5-4.6.5-8.9 1.9-13.2 3.5q-1 .3-2.1.7-3.1 1.1-6.3 2.3-3.2 1.2-6.4 2.3-2.9 1-5.8 2.1c-9.4 3.3-19.6 3.9-28.8-.5-7.2-4.1-12-9.3-14.4-17.4-.7-4.5-1.1-9.1-1.5-13.7-1-16.5-1-16.5-7.5-31.3-6.8-5-14.7-6.1-22.8-7.1-28.1-3.9-28.1-3.9-35.8-14-4.4-6.8-5.3-12.7-4.4-20.9 1.4-4.7 3.2-9.2 5-13.7 1.9-4.4 3.6-8.8 5.3-13.2q.5-1.3 1.1-2.7c3.7-9.2 3.7-9.2 2.7-18.8q-.8-.8-1.5-1.7-.9-1-1.7-2c-2.5-2.5-5.1-4.9-7.9-7.2-2.6-2.2-5-4.7-7.4-7.1-1.8-1.8-1.8-1.8-4.5-3.9q-1.1-.8-2.1-1.7 0-1 0-2-.9-.4-1.8-.8c-5.6-3.1-9.8-8.9-11.8-15-1.6-8.2-.7-15 3.9-22.2 8.2-11.7 21.2-20.1 33.3-27.3 2.9-2.1 4.6-3.6 6.4-6.7.4-6.1-1.7-11.9-3.7-17.5q-.4-1.1-.8-2.3-1.2-3.6-2.5-7.2-.4-1.2-.9-2.4l-3.2-9.1c-3.4-9.7-4.1-17.1-.2-26.9 3.6-7.2 8.4-11.2 15.8-14.4 7.3-2.5 15-3 22.7-3.8q3.8-.5 7.7-.9 2.3-.3 4.7-.5c5.2-.6 9.6-1.9 14.4-4 3.7-4.9 3.8-10.9 4.4-16.9 3.8-31.5 3.8-31.5 13.8-40 8.1-5.6 15-7.2 24.8-6.1 7.9 2.1 15.2 5.6 22.6 9.1a37.78 37.78 0 0 0 3.5 1.7q3.5 1.7 6.9 3.4l3.3 1.6q1.4.7 2.9 1.4c3.6 1 5.4.3 8.8-1.2 3.9-2.6 6.7-6 9.8-9.5 4.3-4.9 9-9.4 13.7-14q2.1-2.1 4.2-4.2c6.7-6.7 12.5-10.9 22.2-10.8z" fill="#fdbd00"/><path d="M456.8 352.9c2.5 1.9 4.9 3.9 7.2 6.1q.8.7 1.7 1.5c7.9 8.1 12 20.3 15.6 30.8q.9 2.7 1.8 5.3.5 1.4 1 2.7 2.2 6.3 4.4 12.6l14.8 43.5.8 2.7c1.6 5.3 2.4 10.4 2.9 15.9q1.8.4 3.7.8c16.8 3.8 30.1 11.1 42.3 23.2q1.3 1.2 2.7 2.5c9.9 10.8 15.5 22.4 19.3 36.5q.3.9.5 1.8c4.3 20.1-.2 41.9-10.5 59.2-5.3 8.2-11.5 14.8-19 21q.2.8.5 1.7l7 26.8 11 42.6q.5 1.7.9 3.5c1.4 5 2.7 9.9 4.3 14.8 3.6 12 3.2 24.6-2.4 36-5 8.9-5 8.9-8.3 11.6q-1 0-2 0 0 1 0 2c-12 9.7-24.8 13.3-40 12-12.4-1.7-23.8-8.7-32.6-17.6-10.8-10.7-30.5-15.2-44.4-20.4-1.1-.4-1.1-.4-2.3-.9-4.2-1.5-8.4-2.9-12.7-4.1q-1.3-.4-2.7-.8c-27-7.8-54.2-13-82.3-15.2q-1.3-.1-2.6-.2c-9.9-.8-19.9-.9-30-.9q-1.7 0-3.6 0-1.7 0-3.4 0-1.5 0-3.1 0c-4.1.1-8.2.6-12.3 1.1q4.4 8.7 8.9 17.3 1.4 3 2.9 5.9l16.4 31.6q7 13.3 13.9 26.7 1.5 2.8 3 5.7 2.2 4.2 4.3 8.5l1.4 2.6c2.2 4.2 3.8 7.9 4.2 12.7a26.6 26.6 0 0 0 .3 2.8c.3 9.5-2 18.1-8.6 25.2-6.4 6.1-15.2 8.2-23.5 10.4q-1.7.5-3.4.9-3.3.9-6.7 1.8-4.2 1.2-8.4 2.5c-12.6 3.7-26.3 6.6-38.7.5-1-.5-1-.5-2-1.1q-1.6-.8-3.2-1.6c-9.5-8.1-14-20.7-19-31.8q-1.3-2.8-2.5-5.6-3.7-8-7.3-16c-.5-1.1-.5-1.1-1-2.1l-16-36.5q-1.7-3.9-3.4-7.8c-2.4-5.4-4.7-10.8-6.6-16.4-2.3-7.7-2.3-7.7-7.8-13.1-4.6-1.4-9.2-1.6-13.9-1.9-13.5-1.4-27.3-10.4-37.3-19.2q0-1 0-2-.9-.4-1.8-.8c-12-6.7-16.8-25.2-20.3-37.4-17-61.3-17-61.3-1.2-89.9 3-4.8 6-9.1 10.3-12.9q.9-.8 1.7-1.6c10.4-9.6 22-13.7 35.1-18q4.8-1.6 9.5-3.1 7.9-2.7 15.8-5.3c30.9-10.3 30.9-10.3 60.9-23q1.1-.5 2.2-1 7-3.4 13.8-7 1.1-.6 2.2-1.2c20.3-10.8 39.1-23.9 56.8-38.8l3-2.4c8.1-6.7 15.5-13.9 22.9-21.3q.8-.8 1.5-1.6c5.8-5.7 11.4-11.5 16.6-17.7.8-.9.8-.9 1.5-1.8 9.5-11.1 17.6-22.9 25.5-35.2q.7-1.1 1.4-2.2c2.4-3.7 4.2-7 5.5-11.2 4.8-13.9 13.2-23.2 26.3-29.7 12.3-4.9 25.8-2.2 36.6 5z" fill="#0137ac"/><path d="M707.9 87.5q1 0 2.1 0c6 .2 9.7 1.5 14 5.5q.9.7 1.7 1.5c4.3 4 7.6 8.5 11 13.3q4.2 5.8 8.5 11.6.7 1.1 1.5 2.1c5.1 7 5.1 7 12.9 10 5.9-.3 11.2-2.9 16.5-5.2q3.4-1.4 6.7-2.7 1.6-.7 3.3-1.4c11.6-4.8 22.3-9.1 34.8-4.3 5.8 3 10.7 7.5 13.4 13.6 1.5 5.2 1.9 10.7 2.4 16.1q.8 6.9 1.7 13.8a26.6 26.6 0 0 0 .3 2.8c.9 6.8 2.3 13.6 7.1 18.8 2.9 1.4 5.6 1.9 8.8 2.4q1 .2 2.1.4c4.6.8 9.2 1.5 13.9 2.1q1.7.3 3.4.5 3.4.5 6.9 1c10 1.4 17.8 4.3 24.1 12.6 4.5 7.7 5.4 16.3 3.3 25-1 3-2.1 5.9-3.3 8.8q-.6 1.6-1.2 3.2c-2.9 7.3-6.3 14.1-10.4 20.8-1.9 4.3-1.9 6.5-1.4 11.2 2.4 4.7 5.7 7.9 9.8 11.1q.8.7 1.6 1.4c5.2 4.3 10.6 8.3 16 12.2 7.9 5.7 12.9 11.9 15.6 21.3 1.1 8.6-2 15.1-7.1 21.7-7.4 8.9-17.2 15.3-26.6 21.9-7.8 5.2-7.8 5.2-11.3 13.4 1.4 8.3 4.5 16 7.6 23.9q1.1 2.9 2.2 5.9 1.1 2.7 2.1 5.3c2.8 7.4 3.4 15.7 1.5 23.4-3.5 7.8-10.4 12.3-17.9 15.6-4 1.5-8 2.3-12.1 3q-1.3.3-2.7.5c-5.2 1-10.5 1.8-15.8 2.3-7.3.9-13.7 2.8-18.9 8.2-2.4 3.4-3.1 6.5-3.8 10.5l-.4 2.2q-.7 3.5-1.4 7c-5.1 27.3-5.1 27.3-14.4 35.2-7.5 4.9-16.3 5-25 4-6.7-1.6-12.9-4.5-19.2-7.3q-1.4-.6-2.8-1.2-2.7-1.2-5.5-2.5c-5.3-2.4-10.5-4.4-16.5-4-2.6 1.1-2.6 1.1-4.3 3.1q-1 1-2 2a94.88 94.88 0 0 0-5.7 6.9q-1.1.9-2.3 1.8c-4.5 3.6-8 8.2-11.7 12.5-7.5 8.8-13.3 13-24.9 14.1-8.9-.3-16.1-5.1-22.1-11.4q-3.4-4-6.6-8.1c-3.2-3.9-6.6-7.6-10-11.3-2.2-2.3-4.2-4.7-6.2-7.1-2.5-2.8-4.6-5.1-8.2-6.5-4.6.5-8.9 1.9-13.2 3.5q-1 .3-2.1.7-3.1 1.1-6.3 2.3-3.2 1.2-6.4 2.3-2.9 1-5.8 2.1c-9.4 3.3-19.6 3.9-28.8-.5-7.2-4.1-12-9.3-14.4-17.4-.7-4.5-1.1-9.1-1.5-13.7-1-16.5-1-16.5-7.5-31.3-6.8-5-14.7-6.1-22.8-7.1-28.1-3.9-28.1-3.9-35.8-14-4.4-6.8-5.3-12.7-4.4-20.9 1.4-4.7 3.2-9.2 5-13.7 1.9-4.4 3.6-8.8 5.3-13.2q.5-1.3 1.1-2.7c3.7-9.2 3.7-9.2 2.7-18.8q-.8-.8-1.5-1.7-.9-1-1.7-2c-2.5-2.5-5.1-4.9-7.9-7.2-2.6-2.2-5-4.7-7.4-7.1-1.8-1.8-1.8-1.8-4.5-3.9q-1.1-.8-2.1-1.7 0-1 0-2-.9-.4-1.8-.8c-5.6-3.1-9.8-8.9-11.8-15-1.6-8.2-.7-15 3.9-22.2 8.2-11.7 21.2-20.1 33.3-27.3 2.9-2.1 4.6-3.6 6.4-6.7.4-6.1-1.7-11.9-3.7-17.5q-.4-1.1-.8-2.3-1.2-3.6-2.5-7.2-.4-1.2-.9-2.4l-3.2-9.1c-3.4-9.7-4.1-17.1-.2-26.9 3.6-7.2 8.4-11.2 15.8-14.4 7.3-2.5 15-3 22.7-3.8q3.8-.5 7.7-.9 2.3-.3 4.7-.5c5.2-.6 9.6-1.9 14.4-4 3.7-4.9 3.8-10.9 4.4-16.9 3.8-31.5 3.8-31.5 13.8-40 8.1-5.6 15-7.2 24.8-6.1 7.9 2.1 15.2 5.6 22.6 9.1a37.78 37.78 0 0 0 3.5 1.7q3.5 1.7 6.9 3.4l3.3 1.6q1.4.7 2.9 1.4c3.6 1 5.4.3 8.8-1.2 3.9-2.6 6.7-6 9.8-9.5 4.3-4.9 9-9.4 13.7-14q2.1-2.1 4.2-4.2c6.7-6.7 12.5-10.9 22.2-10.8zm-4.3 28.6q-1.4 1.5-2.8 2.9-.7.8-1.5 1.5c-2.6 2.7-5.1 5.4-7.5 8.2-21.9 25.4-21.9 25.4-33.3 26.5-14.3.4-26.4-5.7-38.9-11.9q-2.7-1.4-5.4-2.7-1.6-.8-3.3-1.6c-3.2-1.1-4.7-1-7.9 0q-.8 3.3-1.7 6.7-.3 1-.5 2.1-1.6 6.3-3 12.6c-4.1 18.4-4.1 18.4-8.8 25.6l-1.7 2.7C574.9 201.1 558.5 203 542 205q-3.4.4-6.8.9-2.8.3-5.6.7c-2.5.1-2.5.1-3.6 1.4.4 7 2.1 12.6 4.8 19 12.3 31.5 12.3 31.5 7.2 44.9-3.7 7.5-10.6 12.1-17 17.1q-2.8 2.2-5.5 4.5L496 309c1.4 4.6 3.9 7.3 7.3 10.6l1.4 1.4c2.3 2.1 4.5 4.2 6.9 6.1 2.2 1.8 4 3.5 5.8 5.7 2.2 2.7 4.6 5.1 7.2 7.5 6.3 6.2 10.5 14.6 10.8 23.4-.1 8.1-2.5 15-5.1 22.5q-.7 1.9-1.4 3.9c-2.2 6.4-4.6 12.8-7.2 19-.8 1.9-.8 1.9-.7 3.9q1.5.3 3.1.7 5.7 1.3 11.4 2.7 2.5.6 4.9 1.2c15.2 3.4 31.5 7.7 40.6 21.4 5.3 9.5 7.4 18.5 8.8 29.1q.4 3.1.8 6.2.4 2.8.8 5.6c.5 2.8 1.2 4.7 2.6 7.1a97.69 97.69 0 0 0 14.1-2.8c.9-.3.9-.3 1.9-.5q3.1-.9 6.1-1.7 3.1-.8 6.1-1.7 2.8-.7 5.6-1.5c8.8-2.3 19.7-3.9 28.3 0 8.2 5.2 14.6 12.9 20.9 20.2q1.7 2 3.5 4 .8.9 1.7 1.9c6.7 7.7 6.7 7.7 13.8 15.1 6.7-3 11.2-9.2 15.9-14.6 2.7-3.1 5.5-6.1 8.2-9.1q.8-.8 1.5-1.6c7.6-8.2 14-14.3 25.5-15.8 10.8-.4 20.1 3.8 29.7 8.2q.9.4 1.9.8 4.5 2.1 9.1 4.3 1.6.7 3.4 1.5 1.5.8 3 1.5c2.8 1 2.8 1 5.5.4 3.4-2.4 3.7-5.6 4.3-9.5q.3-1.1.5-2.4.7-3.8 1.4-7.6c2.1-11.3 4.2-21 10.1-31.1q.5-1.1 1.1-2.2c1.2-2.4 2.5-2.8 4.9-3.8q2-1.4 4.1-2.9c9.9-6.6 21.6-8.5 33.1-10.9q2.3-.4 4.6-.9 5.6-1.2 11.2-2.3c-.5-4.6-1.1-8.9-2.5-13.4q-.4-1.4-.9-2.8-.4-1.5-.9-3-.5-1.5-1-3.1-1.9-6.4-4.1-12.8c-3-9.4-4-16.2.1-25.4 4.5-8.6 11-13.9 18.5-19.6 5.6-4.3 10.9-8.9 16.2-13.6q1.6-1.3 3.3-2.7c1.5-1.1 2.9-2.3 4.3-3.6q0-1.5 0-3c-1.9-1.9-1.9-1.9-4.4-3.7l-2.7-2.1q-1.4-1.1-2.9-2.2-4-3.3-8-6.5c-1.9-1.7-1.9-1.7-4-1.5q0-1 0-2c-1.8-1.5-1.8-1.5-4-3.1-7.1-5.4-14.3-11.7-16-20.9-1.4-10 1.4-18.2 5-27.4l5.9-15.9q.7-1.6 1.3-3.2.6-1.6 1.1-3.1.6-1.4 1.1-2.8c.7-2.9.4-4.8-.4-7.6q-3.4-.7-6.9-1.3-1-.2-2.1-.4-5.8-1.1-11.6-2c-14.9-2.2-28.3-6.1-38-18.3-8.5-12.5-9.6-27.8-11.4-42.4q-.2-1.4-.4-2.9-.1-1.3-.3-2.6c-.2-2.1-.2-2.1-1.3-4.1-7.5 1.4-14 3.9-21 6.9-26.5 11.4-26.5 11.4-39.2 7-9.5-4.9-15.4-12.5-21.8-20.9-8.4-11.5-8.4-11.5-18-22-2.3-.2-2.3-.2-4.4 2.1z" fill="#0136ad"/><path d="M395 430q.5 0 1 0 .2 1.6.4 3.2c2.1 14.2 5.2 27.9 8.6 41.8.3 1.4.3 1.4.7 2.9 2.3 9.3 4.7 18.5 7.3 27.7 1.1 3.7 2 7.5 2.8 11.3 1.8 7.7 4 15.3 6.2 22.9l7.8 27.5c.3 1.1.3 1.1.7 2.3q1.3 4.7 2.6 9.4 2.1 7.8 4.3 15.5 1.2 4.3 2.4 8.6.2 1 .6 2.1 4 14.7 8 29.4 1.8 6.6 3.7 13.3.4 1.6.9 3.3l12.2 42.7c2.2 7 4.1 14 5.8 21.1-6.3-2-12.5-4.4-18.6-6.9-51.9-20.9-107.9-25.6-163.4-25.1q-.5-1.7-1-3.5-9.4-34.3-19-68.6-.9-3.5-1.9-6.9l-14.8-51.8c-.4-2.8-.1-4.6.7-7.2 1.7-1.4 1.7-1.4 4-2.4q1.2-.7 2.5-1.3 1.3-.6 2.8-1.3c26.6-13.3 50.7-30.7 73.3-50.1q2.9-2.5 5.8-4.8c7.1-5.7 13.5-11.7 19.9-18.2q1.4-1.4 2.8-2.8c4.6-4.7 9.1-9.4 13.4-14.4 2.1-2.4 4.3-4.8 6.6-7.3 2.9-3.1 5.7-6.3 8.5-9.6q1.2-1.4 2.4-2.8z" fill="#8bccfe"/><path d="M440.1 374.1c6.1 4 9.1 9.6 12 16q.5 1.3 1.1 2.6c6 13.9 10.5 28.5 15.1 43q1 3.3 2.1 6.7c5.1 15.6 9.3 31 12.1 47.2 3.2 17.2 8.2 34 12.9 50.8q2.3 8.2 4.5 16.4.8 2.6 1.5 5.3 1 3.7 2 7.4c2.6 9.6 5.4 19.1 8.4 28.6 4.3 14 8.3 28.1 12.2 42.2q1.1 4.2 2.3 8.4c4.3 15.3 8.4 30.6 11.8 46.2 1.1 4.8 2.3 9.4 3.9 14.1 1.8 8.7 3 19.6-1.7 27.5-3.5 4.2-8.1 6.2-13.3 7.5-5.5.5-9.2-.2-14-3-10.3-9.8-14.6-26.8-18.9-40q-.8-2.4-1.5-4.7c-3.8-11.5-7.3-23.1-10.6-34.8-1.7-6.1-3.5-12.1-5.5-18.1-2.2-6.5-4.1-13-5.9-19.5q-.9-3.3-1.8-6.6-.5-1.6-.9-3.2-4.2-14.8-8.5-29.6-6-20.4-11.3-41-.4-1.5-.8-3.1l-14.7-58q-.3-1-.5-2l-10.5-42.2q-.3-1.5-.7-3.1c-8.9-37.3-8.9-37.3-1.6-51.6 5.1-8.2 10.9-12.9 20.8-9.4z" fill="#8bcdfe"/><path d="M227 557q1.1 3.1 2.1 6.2l.5 2q.6 2 1.2 4 .9 3.1 1.8 6.1c1.7 5.8 3.4 11.6 4.8 17.4 2.4 9.9 5.4 19.5 8.3 29.2 3 10.1 5.9 20.2 8.4 30.4q1.4 5.5 2.8 11 .5 1.7.9 3.5 1 3.5 1.9 7 .5 1.7.9 3.5.4 1.5.8 3c.6 2.7.6 2.7.6 6.7q-1.5.2-3.1.4c-18.7 2.9-36.8 7.5-54.6 13.9-14.8 5.2-29 6.8-43.9.6-2.2-1.2-4.3-2.4-6.4-3.9l-2-1.4c-11.6-8.9-15.6-23.1-19-36.6q-.8-3.1-1.6-6.1-2.2-8.9-4.4-17.9-.3-1.2-.6-2.4c-1.2-5.1-1.7-9.9-1.6-15.1q0-1.1 0-2.2c.2-11.6 3.2-19.6 11.5-27.9 3.8-3.1 7.9-4.9 12.4-6.7q1.1-.5 2.3-1c7.9-3.1 16-5.9 24.1-8.5q2.4-.8 4.7-1.5 4.7-1.6 9.5-3.2 5.8-1.9 11.6-3.8 4.3-1.4 8.7-2.8 2-.7 4.1-1.4 2.8-.9 5.6-1.8 1.6-.6 3.2-1.1c2.5-.6 2.5-.6 4.5.4z" fill="#369ffe"/><path d="M747.7 262c5.5 4.8 6.1 13.5 7.2 20.4q2.2 13.3 4.8 26.5.3 1.6.6 3.3.3 1.5.6 3 .3 1.4.6 2.8c.3 2 .3 2 1.5 3q.3-1.3.6-2.5l9-39.4q.3-1.1.5-2.2c1.7-6.3 4.4-12.2 9.9-15.9 4.2-.5 6.2-.6 9.7 1.9 6.3 8.5 7.9 19.3 9.9 29.5q.5 2.2.9 4.4L808 320q1 0 2 0 .2-1.4.4-2.9c1.1-7.7 2.8-15.4 4.3-23.1q.6-3.1 1.2-6.1.9-4.5 1.8-8.9.2-1.4.5-2.8c1.4-6.6 3-11.3 8.8-15.2 4.8-.4 8.2.4 12 3.4 3.5 4.6 3.5 9 3 14.6-.8 4.2-1.7 8.3-2.7 12.4q-1.4 5.7-2.7 11.4-.3 1.3-.6 2.6l-5.1 23.2q-.4 1.9-.8 3.8-1.6 7.6-3.2 15.3-1.1 5.4-2.3 10.8-.3 1.6-.6 3.3-.4 1.5-.7 3-.3 1.4-.5 2.7c-1.4 4.6-2.9 7-7.1 9.4-5 1.5-7.7 1.1-12.3-1.3-7-7.7-8.5-21.3-11-31.2q-.6-2.4-1.2-4.7c-1.6-6.1-3.1-12.1-4.4-18.2-.4-3.3-.4-3.3-1.8-4.5q-1.6 5.8-3.1 11.7-.6 2-1.1 4.1l-7.2 28.1c-1.4 6.2-3.3 12.1-8.6 16.1-3.9 1.1-6.3 1.2-10.2 0-6.1-4.4-7.6-10.9-8.8-17.9l-.6-2.7q-.8-4.2-1.6-8.5-.6-3-1.1-6-.9-4.7-1.8-9.3-2.2-11.1-4.5-22.2-1-4.6-1.9-9.1-.6-3-1.2-5.9-.9-4.1-1.7-8.2-.3-1.1-.6-2.4c-1.2-6-2-13.2 1.1-18.7 4.2-5.4 9.2-6.5 15.6-4.1z" fill="#0236af"/><path d="M258 715c1.6 1.8 1.6 1.8 3 4.3l1.5 2.8q.7 1.4 1.5 2.9l1.4 2.7q2.2 4.3 4.3 8.5.8 1.6 1.6 3.2 2.5 5 5 10c8.3 16.9 16.8 33.7 25.8 50.3q2.3 4.2 4.5 8.4 1 1.7 1.9 3.4c3.4 6.5 5.6 11.1 4.5 18.5-2.1 2.8-4.2 3.6-7.5 4.5q-1.4.3-2.8.7c-1.4.4-1.4.4-2.9.7q-1.5.4-3 .8-3 .8-6 1.6-3.7.9-7.5 2c-13.7 3.7-13.7 3.7-20.3 2.7-5-3.9-6.9-8.6-9.2-14.3q-1.3-3.1-2.6-6.3-.8-1.7-1.5-3.5c-2.9-6.8-6-13.4-9-20.1q-10.2-22.4-20-45-1.3-3-2.5-5.9-1.8-4.1-3.6-8.2l-1-2.4c-1.7-3.8-3-7.2-3.6-11.3q8.2-2.1 16.4-4.2 2.8-.7 5.6-1.5 4.1-1 8.1-2c1.2-.3 1.2-.3 2.5-.7q1.2-.3 2.4-.6 1-.2 2-.5 1-.2 2-.5 1-.3 1.9-.6c2.6-.5 4.5-.7 7.1-.4z" fill="#36a0fe"/><path d="M580 261c9.8 4.3 14.4 18.4 19 27.5 5.3 10.3 11.2 20.4 17 30.5q0-1 0-2 .2-10.2.3-20.4.1-3.8.1-7.7.1-5.4.2-10.9 0-1.7 0-3.5.1-1.5.1-3.2 0-1.4 0-2.8c.3-2.6.9-4.3 2.3-6.5 2.9-1.5 5.6-1.2 8.9-1.3q1.8 0 3.7 0c3.8.3 4.9.5 7.4 3.3.6 3.2.5 6.4.5 9.7q0 1.4 0 3 .1 4.9 0 9.8 0 3.5 0 6.9.1 7.2 0 14.4 0 9.2 0 18.4.1 7.1 0 14.2 0 3.4 0 6.8.1 4.7 0 9.5 0 1.4 0 2.8c0 6-1.1 10.5-4.5 15.5-2.9 2.6-4.4 3-8.3 3.1-7.9-2.4-11.7-7.5-15.5-14.6-2.4-4.6-4.6-9.4-6.9-14.1q-.7-1.5-1.4-3-1.4-2.9-2.7-5.8c-3.6-7.8-7.9-15.2-12.2-22.6q0 1 0 2.1-.1 10.6-.2 21.2 0 3.9-.1 7.9 0 5.7-.1 11.4v3.6q0 1.6-.1 3.3 0 1.4 0 2.9c-.6 3.3-1.9 4.5-4.5 6.6-2 .5-2 .5-4 .5q-1.2 0-2.3-.1h-2.3q-1.2 0-2.4 0c-5.7-.1-5.7-.1-8-2.4-.3-1.9-.3-1.9-.3-4.2q0-1.3 0-2.6 0-1.5 0-3 0-1.5 0-3 0-5.1 0-10.2 0-3.5 0-7 0-7.3 0-14.7 0-9.4-.1-18.8 0-7.3 0-14.5 0-3.5 0-7 0-4.8 0-9.7 0-1.4 0-2.9c0-5.2.5-8.9 3.4-13.4 3.9-3.4 8-3.8 13-3z" fill="#0236af"/><path d="M706.8 259.9q1.3 0 2.6 0 1.2-.1 2.5-.1c2.1.2 2.1.2 5.2 2 2.8 4.6 3.3 8.9 2.9 14.2-1.2 2.9-2.8 4.8-5 7-7.4 1.2-15 1.3-22.5 1.6q-1.9 0-3.9.1-4.8.2-9.6.3l-1 23c2.4-.1 4.8-.1 7.3-.2q3.5 0 7-.1 2.4 0 4.9-.1 3.5-.1 7-.1 1.1 0 2.2-.1c3.7 0 5.3.3 8 2.9 2.6 4.4 2.9 7.7 2.6 12.7-1.6 4-2.4 5.6-6 8-7 1.3-13.9 1.1-21 1.1-1.7 0-1.7 0-3.5-.1q-4.3 0-8.5 0l1 22 8.2-.1q3.9 0 7.9 0 2.7 0 5.4-.1 4 0 7.9 0 1.2 0 2.5 0c3.9 0 5.8 0 9.1 2.2 1.2 3.5 1.2 6.3 1.3 9.9a48.2 48.2 0 0 1 .1 3.8c-.5 4-1.3 4.8-4.4 7.3-2.6.5-2.6.5-5.6.5-1.7 0-1.7 0-3.4.1-1.9-.1-1.9-.1-3.7-.1q-1.9 0-3.8 0-4 0-7.9 0-5.1 0-10.2 0-4.8.1-9.7 0-1.8 0-3.7.1-1.6-.1-3.4-.1-1.5 0-3 0c-3.3-.6-4.5-1.9-6.6-4.5-.9-2.7-1.1-4.3-1.1-7.1q0-1.3 0-2.5 0-1.4 0-2.8-.1-1.4-.1-2.9 0-4.8 0-9.6 0-3.4 0-6.7 0-7 0-14 0-8.9 0-17.9 0-6.8 0-13.7 0-3.3 0-6.6-.1-4.7 0-9.3-.1-1.3-.1-2.7c.1-5.1.4-9.5 2.3-14.2 2.6-2 5-2.3 8.2-2.3q1.3 0 2.6-.1 1.3 0 2.6 0c1.4 0 1.4 0 2.8-.1q4.5-.1 8.9-.1 3-.1 5.9-.1l13.5-.3q2.6 0 5.3-.1z" fill="#0235af"/><path d="M622.2 565.6c7.1 2 14.2 3.7 21.3 5.3q1.7.4 3.4.8 7 1.6 14 3.2 5.2 1.1 10.4 2.3 1.5.4 3.1.7c17.9 4.1 17.9 4.1 22.6 9.1 2 4.4 2.5 8.2 2 13-2.1 3.8-4.1 7-8 9-7.5 1.7-13.8 0-21.3-1.8q-1.9-.4-3.9-.9-5.6-1.3-11.2-2.7-4.1-1-8.3-2-7.4-1.8-14.9-3.6-3-.7-5.9-1.5-4.2-1-8.4-2-1.2-.3-2.5-.7c-6.4-1.6-12.4-3.4-16.7-8.9-1.8-3.8-1.5-7.8-.9-11.9 1.2-3.5 2.3-5.4 5-7.9 6.8-2.5 13.4-1.4 20.2.5z" fill="#0236ab"/><path d="M619.4 645.6q9.3 7.2 18.9 14.1c5.6 4 11.2 8.1 16.6 12.3q.9.6 1.8 1.3c4 3.2 6.8 6 7.7 11.2 0 5.6-.4 9.2-4.4 13.5-3.9 2.7-7.7 3.8-12.4 3.7-6-1.6-10.8-5.9-15.6-9.7q-.9-.7-1.8-1.4-3.7-3-7.4-5.9c-4.5-3.7-9.1-7.2-13.7-10.6l-16.9-12.9q-1-.8-2.1-1.6c-4.3-3.5-6.4-6.3-8.1-11.6.1-5 2-8.1 5-12 11-10.3 23.5 2.5 32.4 9.6z" fill="#0136ac"/><path d="M515 506c12.8 5.3 22.9 13.1 28.3 26.2 5.1 13.2 4.8 31.1-.1 44.3-1.6 3.3-3.2 6.4-5.2 9.5-1.7-2.6-2.5-4.2-3.3-7.2q-.4-1.2-.8-2.5-.4-1.3-.8-2.7-.4-1.4-.8-2.9-.9-3-1.7-6.1-1.3-4.5-2.6-9c-3.4-11.8-6.6-23.6-9.5-35.5q-1.1-4.7-2.3-9.3-.6-2.4-1.2-4.8z" fill="#37a1fd"/></svg>