<svg xmlns="http://www.w3.org/2000/svg" width="1024" height="1024" xmlns:v="https://vecta.io/nano"><path fill-rule="evenodd" d="M164.2 161l7.9 4c14.2 7 27.6 15.2 40.9 23.7q1.3.9 2.6 1.7c2.2 1.4 4.2 3 6.2 4.6 3 2.3 3 2.3 6.2 2q1.5-.5 3-1 1.8-.5 3.6-1.1 2.1-.6 4.1-1.2c15-4.5 29.6-7.4 45.3-7.7q1.4 0 2.9-.1c23.8-.6 45.9 1.8 68.4 10 4 1.2 5.7 1.1 9.7.1 2.6-1.4 2.6-1.4 5.2-3.2q1.4-1 2.9-2 1.5-1.1 3.1-2.2c10.3-7 20.8-13.6 31.8-19.6q1.1-.6 2.3-1.3c22.3-12.4 55.3-30.7 81.7-26.7 4.1 2.1 5.9 3.9 8 8q.6.9 1.1 1.9c2.2 5.3 2.1 11.3 2.1 17q0 1.1 0 2.3c.1 17.1-.2 33.9-3.2 50.8l-.6 3.5c-5.9 33.2-15.2 68.7-31.5 98.5-1.5 3.3-1.1 6.7-1 10.3v2.2q0 2.8.1 5.5 1-.2 2.1-.5c3.3-.6 6.4-.6 9.7-.6q1.7.1 3.5.1h2.7q-.1-1.6-.1-3.2c-.6-17.4 2.8-32.6 14.5-46.1 3.7-3.9 7.4-7.5 11.6-10.7q.8-.6 1.6-1.3c11.4-8 25.3-9.4 38.8-9.3q2.3 0 4.7 0 6.5-.1 12.9 0 7 0 14 0 13.7 0 27.3 0 16 0 31.9 0 28.4 0 56.9.1 27.5 0 55.1 0 30 0 60.1 0 1.6 0 3.2 0 3.2 0 6.4 0 11.1 0 22.2 0 13.5 0 27 .1 6.9 0 13.8 0 6.3 0 12.7 0 2.2 0 4.5 0c19-.1 35.8 3.7 49.8 17.1 15.8 15.9 18.3 34.9 18.3 56.3q-.1 7-.1 14-.1 3.9-.1 7.7 0 7.3-.1 14.5-.1 14.2-.2 28.4 0 2.3 0 4.5 0 3.4 0 6.8-.1 12.8-.2 25.6v2.3q-.1 18.9-.2 37.9-.2 19.4-.3 38.9 0 12-.1 24-.1 9.2-.1 18.4 0 3.7-.1 7.5c-.8 14.4-.8 14.4 5.1 26.9 2.3 2.1 4.7 3.8 7.2 5.6 2.4 2.6 4.6 5.4 6.7 8.2q.8 1.1 1.6 2.2c13.3 17.9 20.7 40.4 21.7 62.6l.2 2.9c.7 26.5-7.5 53.5-24.2 74.1-1 1.3-1 1.3-1.9 2.6C971.5 779 947.7 792 923 798c-1.5.4-1.5.4-3 .7-29.7 6.2-60-2-85-18.3-6.9-4.7-13.7-9.9-19-16.4q0-1 0-2-.8.2-1.7.5c-2.4.5-4.5.6-6.9.6q-1.4 0-2.9 0h-3.1q-1.6 0-3.3 0-5.5.1-11 .1-3.9 0-7.8 0-10.8 0-21.5 0-6.7 0-13.4 0-18.5 0-37.1 0h-2.4-2.4q-2.4 0-4.8 0h-2.4q-19.4 0-38.7.1-19.9 0-39.8 0-11.2 0-22.3 0-9.5.1-19 .1-4.9 0-9.7 0c-22 .1-42.3-.3-59.8-15.4q-1-.8-2-1.7c-6.2-5.6-10.7-12.6-14-20.3q-.6-1.4-1.3-2.9c-5-13.4-4.4-27.2-4.3-41.4q0-5.8 0-11.5 0-9.9.1-19.9 0-14.3 0-28.7 0-23.2.1-46.5.1-22.6.1-45.3 0-1.3 0-2.8 0-7 0-14 .1-58 .3-116l-1.9-.4q-12.5-2.8-25.1-5.6-.1 1.4-.2 2.9c-.7 4.9-2.9 8.9-5.2 13.2q-.7 1.3-1.4 2.6c-4.1 7.4-8.7 13.9-14.2 20.3q-.7.8-1.4 1.6C425 444.1 412.4 454.3 398 462q-1 0-2 0 .2 1.6.4 3.3c2.5 23.3 4 46.4 3.9 69.8v3.4c-.1 17.2-.2 34.5-2.6 51.6q-.4 3.1-.8 6.1-.2 1.6-.4 3.3-.8 5.8-1.5 11.7-.1 1-.2 2.1-.2 1-.3 2.1c-1.5 12.9-3.2 25.8-5.2 38.6-1.9 12.6-3.1 25.2-4.1 38q-.2 3-.5 6c-.6 8.3-1.2 16.5-1.4 24.7q-.1 2.2-.3 4.4c-.3 4.9-.4 9.2 1 13.9 3.6 3.4 7.5 5 12 7 6.4 5 12.6 12.9 14 21 .7 7.6 0 14.4-4 21-6.7 7.8-14.9 11.4-25 12.2-11.5.3-21.7-2.3-31-9.2q0-1 0-2-1 0-2 0 0 1 0 2c-10.1 9.1-19.7 11.7-33 11.3-11.3-.8-22.8-4.6-31.2-12.4-3.6-2.4-5.8-2.4-10.1-2.5q-1 0-2-.1-3.3 0-6.5 0-2.2-.1-4.4-.1-5.4-.1-10.8-.2-.4.9-.9 1.8c-3.4 6.7-8.3 9.6-15.1 12.2-6.7 1.9-13 2.3-19.9 2.3q-1.5 0-3.1 0-3.3 0-6.5 0-4.9-.1-9.8 0c-16.7 0-33.5-.4-49.8-4.7q-1.3-.3-2.6-.6c-4.4-1.1-8.6-2.4-12.8-4.1-4.9-2-9.8-2.6-15.1-3.2C88 789.4 60.7 781.3 40 764q-1.1-.9-2.2-1.7C17.1 745 5.9 719 3.2 692.6c-.6-8.5 0-17.1.8-25.6l.2-2.3c1.4-16.6 7.7-32.2 13.1-47.7 7.2-19.1 7.2-19.1 10.7-39q.1-1.2.2-2.4c1.2-21.6-4.7-39.4-13.4-58.8-2.3-5.2-2.5-10.2-1.1-15.5 1.8-3.1 3.2-4.5 6.3-6.3 9.1-1.8 16.5 3.3 24 8 17.2 11.7 26.5 28 31 48 5 26.7-1.9 51.6-10.2 76.6-8.2 24.6-15.7 53-4 77.7 2.8 5.3 6.2 10.1 10.2 14.7l-.2-2.9c-3.5-48.7 5.4-95.3 35.2-135.1q.6-.8 1.2-1.6c5.5-7.4 11.3-14.5 17.3-21.5q2.3-2.6 4.5-5.3 1.9-2.3 4-4.6 1 0 2 0 .4-.9.8-1.7c1.3-2.5 2.9-4.4 4.7-6.5q.9-1.1 1.8-2.2c1.7-1.6 1.7-1.6 3.7-1.6q.4-.8.8-1.7c1.4-2.6 3.1-4.7 5-6.9 11.7-14.2 21.5-29.2 30.2-45.4q.5-1 1.1-1.9c3.4-6.3 5.7-12 6.9-19.1-1.1-.6-1.1-.6-2.1-1.1-12.3-6.9-24.2-15.7-33.9-25.9q0-1 0-2-1.5-.5-3-1c-1.8-2.2-3.5-4.4-5.2-6.7q-.7-1-1.5-2c-16.3-23-16.3-23-16.3-32.3q-11.1 2.5-22.2 5-1.8.4-3.6.8l-3.3.8q-1.5.3-3.1.7c-2.7.7-5.2 1.6-7.8 2.7-3.1.5-5.9.6-9 0-2.6-2.1-2.6-2.1-4-5-.1-3.1-.1-3.1 1-6 11.9-8.5 29.7-9.9 43.7-12.5 2.3-.4 2.3-.4 4.3-1.5l-.4-2.1-.6-2.8q-.3-1.3-.6-2.7c-.3-3-.4-5.7-.4-8.6q0-1.4 0-2.7 0-1.1 0-2.1-.8 0-1.7 0-8.8-.1-17.7-.3-3.3 0-6.6 0-4.7-.1-9.4-.2-1.5 0-3 0c-8.9-.2-8.9-.2-12.6-3.5-1.7-5.8-1.7-5.8 0-8.8 5.9-3.5 12-3.5 18.7-3.4q1.3 0 2.7 0 4.3 0 8.5.1 3 0 5.9 0 7.1 0 14.2.1c-.1-12.5-.1-12.5-4.6-23.9q-1.1-2.1-2.2-4.1-.6-1-1.1-2c-12.4-23.2-18.6-50.5-24.1-76q-.3-1.5-.7-3c-4.2-20.4-5.9-41.5-5.1-62.2q0-1.3.1-2.6c.5-8.7 2.1-17.1 8.7-23.2 18.8-9 55.5 9.9 72.2 19zm310.7 194.4q-1.4.3-2.8.6-2.6.5-5.1 1c-1.9 6.6-2.9 13.1-3 20 1 1 1 1 2.9 1.5q1.3.2 2.6.5a20.48 20.48 0 0 1 2.4.5q1.6.3 3.2.6l9.9 1.9v-27c-7 0-7 0-10.1.4z" fill="#02205d"/><path d="M291.5 200.6q3.8 0 7.7 0c10.9 0 21.1 1.1 31.8 3.4q1.3.3 2.7.6 3 .7 6 1.5l2.3.6c24.9 7.5 47.1 20.5 66 38.3l2.6 2.4c26.2 24.8 39.7 59.4 43.4 94.6q0 1 0 2l-25 1v10c3.2 2.2 4.3 2.3 8.1 2.4 1.5.1 1.5.1 3 .1q1.5.1 3.1.1a31.08 31.08 0 0 0 3.1.1q3.9.2 7.7.3c-.5 4.5-1 8.7-2.6 13l-.8 2.3q-.3.8-.6 1.7-1.7.1-3.4.1c-13.3-.1-13.3-.1-24.6 4.9-.5 4.1-.5 4.1 1.2 7.7 2.3 1.7 3.7 1.7 6.5 1.8q1.3.1 2.7.1a26.2 26.2 0 0 0 2.8.1q1.4 0 2.8.1 3.5.1 7 .2c-4.1 13.4-12.6 23.9-22 34q-.7.8-1.4 1.6c-15.6 17.1-35.9 29.3-57.4 37.5-2.4.8-2.4.8-4.2 2.9-.4 3.5-.4 3.5 0 7 2.8 2.3 2.8 2.3 5.6 1.8 3.7-.9 7.4-2 11.1-3.2 2.3-.6 2.3-.6 5.3-.6 2.9 21.3 4.3 42.3 4.3 63.8q-.1 5.5 0 11c0 21.6-1.8 42.9-4.7 64.4q-.6 4.4-1.1 8.8-.8 6.3-1.7 12.6-1.8 14.4-3.7 28.9-.5 4.4-1.1 8.9c-2.3 18.5-4.4 37-4.3 55.7q0 3.6-.1 7.2 0 2.4 0 4.7 0 1 0 2.1c.1 5.1 1.1 8.5 3.4 12.9 2.9 2 2.9 2 6.2 3.4 7.1 3.5 11.2 7.4 15.3 14 .8 4 .6 7.7-.5 11.6-2.3 3.1-2.3 3.1-5 5-2.7.1-2.7.1-5 0q0-1 0-2c-.3-4.6-.5-7.3-3.3-11.1-2.5-2-2.5-2-5.3-2.4-2.4.4-2.4.4-4.2 1.6-1.9 3-1.5 5.4-1.2 8.9.9 3.3.9 3.3 2 6-5.1-.5-8.1-1.7-12-5-4.4-5.4-7.3-11.5-10-17.9-2-3.2-3.7-4.5-6.7-6.7-2.6-2.3-4.1-3.7-5.1-7.1-.2-3.3-.1-6.4.1-9.7q.1-1.8.1-3.8.2-5.2.5-10.5.2-4.8.4-9.6c.8-20.5 2-41.1 3.7-61.6.7-8.2 1.1-16.4 1.1-24.7q.1-1.2.1-2.4c0-4.2 0-4.2-1.2-8h-8c-3.5 5.6-3.7 11-4.1 17.6q-.1 1.7-.2 3.5-.4 5.9-.7 11.9-.1 1.1-.1 2.3-.6 10.9-1.2 21.9c-.3 6.3-.7 12.7-1.2 19-.9 9.9-1.1 19.9-1.3 29.8-.1 4.5-.4 9-.6 13.5-.7 15.1 1 25.1 9.4 37.8 1.3 2.1 1.8 4.2 2 6.7-4.8 4-4.8 4-7 4q0-1-.1-2c-.3-5.6-.7-9.8-4.9-14-3.6-.6-5.8-.6-9 1.1-2.1 4-.2 8.3 1.1 12.3q.4 1.3.9 2.6c-8.6.7-16.5-1.2-23.3-6.9-5.9-6.5-7.1-12.5-6.9-21.2.2-3.2.5-6.3.9-9.5 1.8-13.5 1.6-27 1.6-40.5q0-3 0-6 0-9.4 0-18.8 0-9.7 0-19.3.1-8.4.1-16.7 0-5 0-9.9 0-5.5 0-11 0-1.7 0-3.3 0-1.5 0-3.1 0-1.3 0-2.6c-.2-2.3-.2-2.3-1.7-4-1.9-1.6-1.9-1.6-5.3-1q-1.7.4-3.4.8c-1.2 2.4-1.1 3.8-1.1 6.5q0 1.4-.1 2.9 0 1.5 0 3.1 0 1.7 0 3.3 0 3.6 0 7.2 0 5.7-.1 11.4 0 16.3-.1 32.5 0 9.9-.1 19.8 0 3.8 0 7.6c0 14.7-.8 29-3.2 43.6-.6 4.4-.9 8.9-1 13.5l-.3 8.6h-19q-1-2.8-2.1-5.6c-3.4-8.2-7.3-11.5-15.3-14.8q-2.3-.8-4.6-1.6c.8-6 2.1-11.7 3.5-17.5 7.9-32.3.1-67-16.5-95.3-7.6-12.2-17.3-21.5-28.8-30q-1-.7-2.1-1.5c-4.9-3.5-8.1-4.4-14.1-3.7-2.1 1-2.1 1-3 3-.5 2.9-.5 2.9 0 6 1.9 2 1.9 2 4.5 3.5q1.4.9 2.8 1.8 1.3.8 2.7 1.7c21.6 15 34.6 35.7 41 61q.2 1 .5 2c4.2 17.2 5.9 43.7-2.5 60-9 8.7-29.8 7-41.4 7.8-2.6.2-5.1.6-7.6 1.2l-1 9c2.7 1.4 4.9 1.1 8 1.1q1.8 0 3.7 0 1.9 0 3.9 0 2 0 4 0c6.9 0 13.7-.2 20.5-.9 8.1-.6 14.1 1.4 20.9 5.7 4.5 4.7 5.3 8.9 5.2 15.1-.2 2-.2 2-1.2 4-2.6.6-2.6.6-5 1q-.2-.9-.3-1.8c-1-4.6-1.8-8.4-4.7-12.2-2.3-1.1-3.6-1.1-6.1-1.1-1.9.1-1.9.1-3.9.1v10q1.5.5 3 1 0 3 0 6-8.4.1-16.8.1-2.9 0-5.7.1c-53.8.4-53.8.4-72.5-13.2q-1.4-1-2.9-1.9c-9.8-6.9-16.7-14-22.3-24.6l-1.6-2.9c-17-32.8-15.5-73.3-5.1-107.9 9-28.2 25.7-51.5 45.6-73.2q2.9-3.2 5.7-6.4 3.7-4.3 7.5-8.4c5.7-6 11-12.2 16.1-18.7q.7-.9 1.5-1.9c14.5-18.3 26.2-37.8 33.5-60.1q.5-1.5 1-3c4.8 1.4 9.6 2.8 14.2 4.7 3.8 1.5 6.8 1.4 10.8.3 1.5-2.9 1.5-4.8 1-8-4.3-4.2-9.7-5.3-15.4-6.8-8.9-3-16.7-8-24.4-13.3q-1.4-.9-2.9-2c-7.8-5.4-14.7-11.1-21.3-17.9q-1.2-1.1-2.4-2.3c-7-7.2-19.6-22.2-19.6-32.7q1.7.1 3.5.1 2.3 0 4.6.1 1.2 0 2.3.1c5 0 8.2-.6 12.6-3.3v-8c-5.6-2.3-10.9-2.4-16.9-2.6-1.4-.1-1.4-.1-2.9-.1q-3.6-.2-7.2-.3c-3.6-6.5-4.6-11.6-5-19q.9 0 1.9 0 4.2.1 8.4.2 1.5 0 3 .1h2.8q1.3 0 2.6 0c2.4-.1 2.4-.1 4.1-1.6 1.8-2.6 1.5-4.6 1.2-7.7-1.7-3.3-1.7-3.3-5-3.7q-1.8-.2-3.6-.4-1.8-.2-3.6-.5-1.9-.2-3.8-.4-4-.5-8-1c2-21.6 6.6-39.9 17-59q1-1.9 2-3.7c4.2-7.8 9.1-14.6 15-21.3q1-1.2 2.1-2.4 3.4-3.9 6.9-7.6.8-.8 1.5-1.7c8.1-8.6 16.2-15.4 26.5-21.3q2-1.2 3.9-2.3c11.7-6.8 23.4-12.1 36.3-15.9q1.2-.3 2.5-.7c14.4-4.1 28.8-5.6 43.8-5.5z" fill="#feb918"/><path d="M552.3 283.7q2.4 0 4.7 0 6.4 0 12.9 0 6.9 0 13.9 0 13.6 0 27.2 0 11.1 0 22.1 0 1.6 0 3.2 0 3.2 0 6.4 0 30 0 60 0 27.5 0 54.9 0 28.2-.1 56.4-.1 15.8 0 31.6 0 13.5 0 26.9 0 6.9 0 13.8 0 6.3 0 12.6 0 2.2 0 4.5 0c16.3-.1 29.3 2.8 41.5 14.1 11.1 12 13.3 25.2 13.2 41v3.2q0 5.3 0 10.6 0 3.8 0 7.6 0 8.2 0 16.3 0 11.9 0 23.7 0 19.1 0 38.3 0 18.6 0 37.2v2.4q0 5.7 0 11.5-.1 47.7-.1 95.5-.8-.4-1.6-.8-3.7-1.8-7.4-3.5-1.2-.6-2.5-1.2c-9.8-4.7-20.3-9.1-31.4-9-3.2-.8-4.9-3.1-7.1-5.5q-1.8-1.9-3.6-3.8-2-2.1-4-4.2-1-1.1-2.1-2.3-15-16-29.7-32.4c-4.7-5.3-4.7-5.3-9.7-10.3-1.9-2-1.9-2-1.9-4q-.9-.4-1.7-.8c-3-1.5-5.7-3.3-8.4-5.1-5.2-3.1-11.2-2.6-16.9-1.4-10.5 3.1-17.4 11.4-24.8 18.9q-1.7 1.8-3.4 3.5-3.2 3.2-6.3 6.3c-1.2 1.3-1.2 1.3-2.5 2.6-.9.9-.9.9-1.7 1.8-1.3 1.2-1.3 1.2-3.3 1.2q-1 2-2 4c-7.9-3.3-13.9-11.7-19.3-18.1-2.4-2.6-4.9-5-7.4-7.5-1.3-1.4-1.3-1.4-1.3-3.4l-1.8-.8c-2.3-1.3-3.4-2.4-5.1-4.4-3.4-4-7-7.9-10.6-11.8q-.9-1-1.8-1.9-2.9-3.1-5.7-6.1-3.8-4.1-7.6-8.1-1-1-1.9-2.1-6.5-6.8-12.9-13.8c-4.8-5.3-9.7-10.5-14.7-15.7l-9.3-10.1c-7.5-8.5-7.5-8.5-16.6-15.2q-1-.6-2.1-1.2c-8.7-4.4-19.5-4-28.9-2.2-10.8 3.7-19 14.2-26.8 22q-2.1 2.2-4.3 4.3c-4.6 4.6-9.1 9.3-13.3 14.3-3.1 3.5-6.4 6.6-9.7 9.9-2.9 2.8-5.6 5.7-8.2 8.7-4.9 5.7-10.3 10.9-15.7 16.1q-1.2 1.2-2.4 2.4-1.1 1.1-2.2 2.2c-1.9 2-3.7 4-5.5 6.1-4.7 5.4-9.8 10.4-14.8 15.5q-1.6 1.5-3.2 3.1-3.2 3.2-6.5 6.5-4.1 4.2-8.3 8.3-3.2 3.2-6.4 6.5-1.6 1.5-3.1 3-2.1 2.2-4.3 4.3-1.2 1.2-2.4 2.5C500 554 500 554 499 554V401h8c2.7-1.4 3.6-2.2 4.9-4.9.3-2.5.3-2.5-1.9-6.1l-11-4v-32l12-1 3-2c.3-3.6.3-3.6 0-7-5.1-2.5-9.3-3.5-15-4-.3-16.4 1.1-30.6 13-43 12.3-11.2 24.1-13.3 40.3-13.3z" fill="#fefee1"/><path d="M659.9 428.9c5 3 9.1 6.7 13.2 10.9q.9.9 1.8 1.9c3.5 3.6 6.9 7.3 10.2 11.2 3.2 3.5 6.6 6.8 10 10.2 3.6 3.5 6.8 7.1 10.1 10.8 3.1 3.6 6.3 6.9 9.5 10.3q8.4 8.8 16.5 17.8 5 5.4 10 10.8c.9.9.9.9 1.8 1.9q4.3 4.6 8.7 9c2.4 2.3 4.6 4.7 6.7 7.2 3.1 3.6 6.3 6.8 9.6 10 2.5 2.6 4.7 5.3 7 8.1l-1.8 1.8q-8.2 8.2-16.5 16.4-4.2 4.3-8.5 8.5-4.1 4.1-8.2 8.2-1.5 1.5-3.1 3.1-2.2 2.2-4.4 4.3-1.2 1.3-2.5 2.6c-2.9 3.1-4.3 5-4.2 9.2-.2 3.7-.2 3.7 1.2 4.9 3.4.6 5.9.8 8.8-1.3q1-.8 1.9-1.7 1.1-1 2.1-1.9 5.5-5.3 10.8-10.6 1.2-1.3 2.5-2.6 2.7-2.6 5.3-5.3 4.2-4.2 8.4-8.4 11.9-12 23.9-24 6.6-6.7 13.2-13.3 3.5-3.5 7-7.1 3.8-3.9 7.7-7.8c1.2-1.1 1.2-1.1 2.3-2.3 4.8-4.7 8.7-8.3 15.5-9.1 7.7.9 12.2 5.7 17.1 11.1.9 1 .9 1 1.7 2q5.1 5.5 10 11.3l7.2 7.9q1.4 1.5 2.8 3.1 2.7 2.8 5.3 5.7c4.5 4.9 8.6 9.9 12.5 15.3q-1.7.1-3.4.3c-10.8.9-20.4 3-30.6 6.7q-1.6.6-3.2 1.2c-21.4 8.3-38.9 24.1-51.8 42.8q-.8 1.2-1.6 2.4c-16.3 25.4-20.5 58.9-14.5 88.2 1.1 4.8 2.6 9.4 4.3 14.1q.4 1 .8 2.1c2 5.2 4.5 10.1 7.1 15q.6 1 1.2 2.1 1.3 2.6 2.7 5.1-49.1.1-98.2.1-5.8 0-11.6 0-1.1 0-2.3 0-18.7 0-37.4.1-19.1 0-38.3 0-11.8 0-23.7 0-9 0-18.1 0-3.7 0-7.5 0c-12.8.1-25.2-.1-37.9-2.2q0-1 0-2c-1-.3-1-.3-2-.7-10.7-4.7-19.1-12.7-23.9-23.5-3.6-9.4-4.6-18.9-4.7-28.9q-.1-1.9-.1-3.8-.2-6.1-.3-12.1 0-1.1 0-2.1-.1-9.9-.2-19.8-.1-12.6-.5-25.1-.2-8.9-.2-17.8 0-5.2-.2-10.5c-.8-22.8-.8-22.8 6.2-31.5 3.9-4.1 8.1-7.7 12.6-11.2 3.5-3 6.4-6.5 9.3-10q1.9-2 3.9-4c1-1 1-1 2.1-2q2-2 4-4c3.2-3.2 6.4-6.4 9.3-9.8 5.2-6.1 11-11.6 16.7-17.2q2.3-2.2 4.5-4.5 1.3-1.3 2.7-2.6c2.2-2.2 4.2-4.4 6.1-6.7 3.7-4.3 7.6-8.2 11.6-12.1q1.1-1.1 2.2-2.2 4.6-4.6 9.2-9.2 3.4-3.4 6.8-6.8 1-1 2.1-2a217.5 217.5 0 0 0 11.3-12.2c1.8-2.1 3.7-4 5.6-5.9q1-1 2.1-2 .9-.9 1.8-1.8 1.2-1.3 2.5-2.6c8-7.7 18.4-17.3 30.4-11.5z" fill="#d0f7fe"/><path d="M960.1 604c18.4 15.4 30.5 34.7 35.9 58a36.14 36.14 0 0 0 .7 2.7c5.4 25.7.1 52.2-13.7 74.3-16.4 24.2-39.4 38.8-67.7 45.1-24.7 4.7-52.4-.3-73.5-13.8-18.3-13.1-31.1-28.1-38.7-49.5q-.4-1.2-.8-2.4c-8.7-25.7-6-55.2 5.7-79.4 13-25 35.2-43.8 62-52.4 30.6-9.2 65.2-2.8 90.1 17.4z" fill="#004580"/><path d="M861 333q1.3.4 2.6.8c15.2 5 27.3 15 34.9 29.1 7.2 15.1 7.7 31.5 2.8 47.5-5.2 14.4-15.7 26-29.2 33.2-15.6 7-31 8.1-47.1 2.4-13.6-5.3-23.4-13.6-31-26-.7-1.1-.7-1.1-1.4-2.3-5.6-9.8-7.6-22.5-6.6-33.7q.1-1.3.2-2.7c1.7-15.9 11.1-29 23.1-39.1 14.6-10.8 34.1-14.9 51.7-9.2z" fill="#d0f7fe"/><path d="M100 154c35.9 3.6 82 28.7 110 51-3.1 3.8-6.2 5.7-10.6 7.8-6.7 3.1-11.9 7.3-17.4 12.2q-1.5 1.3-3 2.6c-4.4 4-8.8 8.1-13 12.4-.9.8-.9.8-1.8 1.7-17 15.9-29.6 38.4-37.2 60.3-2.3-2.3-2.8-3.8-3.9-6.8q-.6-1.5-1.1-3-.6-1.7-1.2-3.3l-1.2-3.4c-9-25.6-15.5-51.7-19.6-78.5l-.4-2.3c-1.5-10.3-1.8-20.5-1.8-30.9q-.1-1.9-.1-3.9 0-1.8 0-3.6v-3.2c.3-3.3 1.1-6 2.3-9.1zm387 1c7 11.1 2.9 30.9 1.4 43.2q-.2 1.1-.3 2.2c-3.6 29.5-11.3 58-20.9 86q-.4 1.1-.7 2.2-1.1 3-2.1 6.1-.7 1.7-1.3 3.5C462 301 462 301 460 303q-.3-1-.7-2c-14.3-40.2-41.4-69.6-77.1-91.6q-2.6-1.7-5.2-3.4c1.2-3.6 2-3.9 5.1-5.8q1.3-.7 2.6-1.5 1.5-.9 2.9-1.7 1.5-.9 3-1.8c9.5-5.4 19.3-10.2 29.3-14.8q4.9-2.3 9.9-4.6c44.3-21.1 44.3-21.1 57.2-20.8z" fill="#fdba18"/><path d="M898.1 620.8c5.5-.3 8.6.5 12.9 4.2 1.3 2.6 1.1 4.6 1.1 7.5q0 1.7 0 3.4 0 1.8 0 3.7 0 1.7 0 3.4c0 9.4-.5 18.7-1.1 28q1.6 0 3.2.1 6 .1 12.1.2 2.5.1 5.1.1c22.7.4 22.7.4 29.7 4.4 3.1 5.3 2.9 11.2 1.9 17.2-2.2 3.4-3.2 4.7-7 6q-2.2.1-4.5.1h-2.7q-1.4 0-2.9 0h-3.1q-4.7 0-9.5 0-3.2 0-6.5-.1-7.9 0-15.8 0 0 .8 0 1.7.2 8.8.3 17.7 0 3.3.1 6.6.1 4.7.1 9.4 0 1.5.1 3c0 4.7 0 6.9-3 10.7-3.9 2.8-6.1 3.1-10.9 3.3q-1.7 0-3.4.1c-4.5-.7-5.6-1.9-8.3-5.5-.7-3.7-.6-7.3-.5-11q0-1.6 0-3.2.1-5.1.2-10.1 0-3.4.1-6.9 0-8.4.2-16.8-.8 0-1.7 0-8.6.2-17.3.3-3.2 0-6.4.1-4.6.1-9.3.1-1.4 0-2.9.1c-4.7 0-6.7-.1-10.5-3-3.3-4.5-3.5-9.1-2.9-14.6 1.6-4.2 3.1-6.7 7-9 2.7-.9 4.3-1.1 7.1-1.1q1.2 0 2.5 0h2.7 2.7q4.3 0 8.7 0 2.9 0 5.9.1 7.2 0 14.4 0 0-2-.1-4-.1-7.2-.2-14.5 0-3.2-.1-6.3-.1-4.6-.1-9.1 0-1.4-.1-2.8c0-4.6.1-6.6 3-10.4 3.4-2.5 5.6-2.7 9.7-3.1z" fill="#fcfde3"/><path d="M29 513c10.7 2.5 18.5 9.1 24.5 18.2 10.2 18.6 12.1 43.5 6.6 63.9q-1 3.4-2.1 6.9-1.2 3.8-2.3 7.6-.7 2.1-1.3 4.2-.3 1.1-.7 2.2-1 3.3-2 6.5c-5.6 18.3-9.9 36.1-9.9 55.3q-.1 1.8-.1 3.6c-.1 10.9 2 20.1 7.1 29.7q.5 1 1 2.1c2.9 5.4 6.1 10.3 10.2 14.8q1 1.1 2 2.2a79.27 79.27 0 0 0 12 10.4c6.1 4.4 9.6 8.3 12.6 15.4 2 4.3 4.8 7.9 7.8 11.6 1.5 2.3 2 3.8 2.6 6.4-25-5.2-46.3-15.2-62-36-16.5-25.2-21.5-52.5-15.6-82.1 2.7-11.1 7-21.7 10.9-32.4 2.5-7.1 5-14.2 7.2-21.5.3-1.1.3-1.1.7-2.3 7.7-26 4.5-51.1-5.6-75.7-1.5-3.6-2.6-7.2-3.6-11z" fill="#fbbb18"/><path d="M861 333q1.3.4 2.6.8c15.2 5 27.3 15 34.9 29.1 7.2 15.1 7.7 31.5 2.8 47.5-5.2 14.4-15.7 26-29.2 33.2-15.6 7-31 8.1-47.1 2.4-13.6-5.3-23.4-13.6-31-26-.7-1.1-.7-1.1-1.4-2.3-5.6-9.8-7.6-22.5-6.6-33.7q.1-1.3.2-2.7c1.7-15.9 11.1-29 23.1-39.1 14.6-10.8 34.1-14.9 51.7-9.2zm-50.4 28c-8.5 10.6-10.7 21.6-9.6 35 1.7 8.4 4.8 15.2 10 22q1.1 1.6 2.3 3.2c8.8 9.2 19.8 12.9 32.4 13.2 13.3-.4 24.3-5.4 33.5-15.1 8.7-11.2 11.4-24.4 9.8-38.3-2.9-11.7-9.3-20.9-19-28-19.9-12-43.3-8.9-59.4 8z" fill="#021f58"/><path d="M311 351c3 2.5 4.8 4.4 5.3 8.3.4 5.5.2 8.9-3.5 13.2-2.5 2.4-5 4.6-7.8 6.5q-1 0-2 0c-1.1 4.9-1.1 4.9.1 9.8 4.3 5.1 10.1 6.9 16.6 7.6 9.8-.4 16.7-5 23.6-11.6 3.5-2.3 5.6-2.3 9.7-1.8 2.6 2.2 2.9 3.5 3.3 6.9-.5 4.8-3.1 6.6-6.5 9.8-10.9 8.9-20.9 12.1-34.8 11.3-8.6-1-16.3-4.7-23-10q0 1 0 2-2.8 1.5-5.7 2.9c-1.6.9-1.6.9-3.2 1.7-9.1 4.1-21.5 3.7-30.8.4-7.4-3.3-14.9-7.8-20.3-14-1.4-3.7-1.3-5.1.1-8.8 1.9-2.2 1.9-2.2 4.3-3.2 4.9 0 8.6 3.7 12.5 6.5 7.3 5.1 13 7.5 22.1 6.5 7.4-1.4 7.4-1.4 13-6 .6-2.3.6-2.3.7-4.7q.1-1.2.2-2.4 0-1 .1-1.9-.9-.4-1.8-.8c-2.4-1.3-3.5-2.5-5.1-4.6-2.5-3-4.7-4.7-8.1-6.6-2-3-2-3-1.9-6.4 1.1-4.4 2.4-5.8 5.9-8.6 11.2-5.7 25.5-8 37-2z" fill="#032064"/><path d="M400 319q1.2.8 2.4 1.7c2.2 3.1 2 5.5 2 9.2-.5 2.7-1.1 3.6-3.4 5.1-3.6.5-5.4.3-8.5-1.5q-1.2-.9-2.4-1.9c-7.9-5.8-15.5-6.5-25.1-5.6-6.5 1.6-10.4 6.2-14.7 11.1-2.8 2.3-4.8 2.6-8.3 2.9-2.3-2.1-3.8-3.9-4.3-7.1.3-5.5 2.2-9.1 6-13 16.6-13.5 39.2-13.1 56.3-.9z" fill="#051f5e"/><path d="M240.1 317.2c8.4 7.3 8.4 7.3 9.2 12.8 0 3 0 5.4-1.4 8-3.4 1.8-5.1 1.7-8.9 1-2.2-2.1-4-4.4-5.9-6.7-3.9-4.3-9.5-6.9-15.3-7.5-8.9-.3-14.6 2.7-21.9 7.5-3.5 2.2-4.6 2.7-8.9 2.7-3-1-3-1-5-3-.6-3.5-.6-5.9 1.2-9.1 13.2-16.4 40.3-17.5 56.9-5.7z" fill="#031e60"/><path d="M804 749q-49.4.1-98.8.1-5.9 0-11.7 0-1.1 0-2.3 0-18.8 0-37.7.1-19.2 0-38.5 0-11.9 0-23.9 0-9.1 0-18.2 0-3.8 0-7.5 0-5.1.1-10.2 0-1.5 0-3 .1c-1.4 0-1.4 0-2.8-.1H547c-2-.2-2-.2-5-2.2q49.4-.3 98.8-.5 5.9-.1 11.7-.1h2.3q18.8-.1 37.7-.2 19.2-.1 38.5-.2 11.9-.1 23.9-.1 9.1-.1 18.2-.1 3.8 0 7.5-.1 5.1 0 10.2 0 1.5 0 3-.1 1.4 0 2.8 0 1.2 0 2.4 0c2.5.5 3.4 1.5 5 3.4z" fill="#b2cfde"/><path d="M499 401l8 1q0 .5 0 1-3 0-6 0l1 146q1 .5 2 1l-5 4V401z" fill="#f6f7e8"/><path d="M277 616q1 .5 2 1l-1 116q-1.5-.5-3-1v-11q.5 0 1 0l1-105z" fill="#f2ba15"/><path d="M326 762c3.6 3.3 5.3 7.1 7.3 11.4q.6 1.2 1.2 2.4.5 1.1 1.1 2.2.4 1 .9 2c.5 2 .5 2-.2 4.2-1.7 2.4-3.5 2.9-6.3 3.8q0-1-.1-2c-.4-7.1-1.8-10.9-6.9-16 2.4.6 4.7 1.2 7 2q-.4-.8-.9-1.7c-.5-1.1-.5-1.1-1.1-2.2q-.6-1-1.1-2.2c-.9-1.9-.9-1.9-.9-3.9z" fill="#efc217"/><path d="M513 342q2 1 4 2c-.4 6-.4 6-1 8-4 3-4 3-15 4v30q-1 0-2 0v-32l12-1q1.5-1 3-2c.4-4.7.4-4.7-1-9z" fill="#f5f7e9"/><path d="M547 506l1 2c-2.2 3-4.6 5.6-7.4 8-5.7 4.8-10.9 10.2-16.1 15.4q-1.5 1.6-3.1 3.1-3.7 3.8-7.4 7.5c0-3 0-3 1.3-4.6q.8-.9 1.7-1.8 1-1 2-2 1.1-1 2.2-2.1 1.1-1.1 2.2-2.2 3.6-3.5 7.1-7 2.4-2.4 4.8-4.7 5.8-5.8 11.7-11.6z" fill="#010b45"/><path d="M389 214c12.1 4.5 26.9 15 33.3 26.3q.4.8.7 1.7c-1.9-.7-1.9-.7-4-2q-1-2.5-2-5c-2.1-1.4-3.6-1.9-6-2.3-2-.7-2-.7-3.7-3.5-2.7-3.7-5.1-5-9.2-7-2.5-1.4-4.2-3-6.1-5.2q-.9-.9-1.7-1.8-.7-.6-1.3-1.2z" fill="#0c1570"/><path d="M451 334c2 2 2 2 3 10h-24q.5-1 1-2l19-1 1-7z" fill="#facb13"/><path d="M283 350q-.5 1.5-1 3c-2.2 1.1-2.2 1.1-5 2l-3.3 1.1q-1.3.5-2.7.9c-.4 3.1-.6 5.9 0 9 2 2.2 4.3 3.6 7 5q-.5 1-1 2c-7.5-4.7-7.5-4.7-9.3-9.5.4-4.5 1.2-6.2 4.3-9.5 3.4-1.9 7-4 11-4z" fill="#0c125d"/><path d="M669 418c10 2.8 17.9 13.8 25 21q1 1 2 2-1.5.5-3 1-.7-.7-1.3-1.5-3.1-3.3-6.2-6.6-1-1.2-2.1-2.3c-4-4.4-8.1-8.1-12.9-11.5q-.8-.5-1.5-1.1 0-.5 0-1z" fill="#f1f4ec"/><path d="M272 763q.5 0 1 0l1 12h-19q.5-2 1-4 0 1 0 2h16v-10z" fill="#e0c019"/><path d="M140 304c1.1 3.3.9 5-.3 8.3-2.3 7-3.4 14.4-4.7 21.7q-.5 0-1 0c-.4-7.7.1-13.8 3-21q.9-2.5 1.7-5.1.6-1.9 1.3-3.9z" fill="#12196c"/><path d="M357 776l2.1 2.3c2.9 2.7 5.4 4.1 8.9 5.7l-1-7q1-.5 2-1l3 11c-5.9-.6-9.9-2.6-13.9-7.1-1.1-1.9-1.1-1.9-1.1-3.9z" fill="#ecc615"/><path d="M340 205q1.1.3 2.2.7c7.3 2.1 7.3 2.1 14.8 2.3q0 1.5 0 3 2 1 4 2l-2 1q-2.9-1.1-5.6-2.3c-4.8-2.1-9.3-3.6-14.4-4.7q.5-1 1-2z" fill="#121c6c"/><path d="M130 288c1.4 3.7.6 5.7-.9 9.3q-.6 1.3-1.2 2.7-.4 1-.9 2c-2-2-2-2-2.2-5.5.2-3.5.2-3.5 1.2-5.5q2 0 4 0 0-1.5 0-3z" fill="#f7c614"/><path d="M60 583q.5 0 1 0c.2 5.2-.5 9.4-2 14.4q-.6 1.9-1.1 3.8-.5 1.4-.9 2.8c-1.2-3.6-.8-5.7-.2-9.4q.3-1.6.5-3.4c.6-2.9 1.5-5.5 2.7-8.2z" fill="#f5ca14"/><path d="M909 743q1 1 2 2c-4.8 4.9-6.6 6.2-13.4 6.3q-1.8 0-3.5 0c-3.1-.3-3.1-.3-5-1.8-.5-.8-.5-.8-1.1-1.5q1 .2 1.9.5c5.7.9 11.5.9 17.1-.5q.2-1 .4-1.9c.6-2.1.6-2.1 1.6-3.1z" fill="#f3f6ee"/><path d="M500 321q.5 0 1 0v17q2 0 4 0 0 1 0 2-3 0-6 0c-.1-6.4.2-12.6 1-19z" fill="#f3f4ee"/><path d="M143 390l18 1q0 .5 0 1h-16q1.5 2.5 3 5 0 1 0 2-1 0-2 0c-3-5.6-3-5.6-3-9z" fill="#f5d60d"/><path d="M155 345c3 1 3 1 4 3 .4 3.5.4 5.4-1.6 8.4-3.2 2.1-5.6 1.9-9.4 1.6q.5-1 1-2h7c1-4.4 1-6.9-1-11z" fill="#0e145a"/><path d="M498 317c1.8 3.1 2.2 5.2 2.1 8.8q0 1.1 0 2.4-.1.9-.1 1.8-.5 0-1 0-.5 3-1 6-.5 0-1 0 0-3.9-.1-7.8 0-1.1 0-2.2c0-3.3.1-5.9 1.1-9z" fill="#0d2d68"/><path d="M135 281c.9 3 1 3.9 0 7q-1 0-2 0l-2 12q-1.5 0-3 0c1.8-6.6 4.1-12.8 7-19z" fill="#0e145c"/><path d="M140 564q0 1.5 0 3-1.5 1.5-3 3l-.9 2.5c-1.4 3.2-2.9 4.1-6.1 5.5q-1-.5-2-1l12-13z" fill="#f9cd10"/><path d="M374 458q0 1.5 0 3l-2.6 1q-1.6.7-3.3 1.4l-3.3 1.3c-2.9 1.1-2.9 1.1-4.8 3.3.2-1.8.2-1.8 1-4 2.2-1.4 2.2-1.4 4.9-2.7q1.3-.6 2.7-1.2c2.4-1.1 2.4-1.1 5.4-2.1z" fill="#0c155e"/><path d="M497 294q1 .5 2 1c-.8 1.9-.8 1.9-2 4q-1.5.5-3 1c-1 2.3-1 2.3-1.7 5.1q-.4 1.3-.7 2.7-.3 1.1-.6 2.2-1-.5-2-1c1.5-5.8 4.6-10.2 8-15z" fill="#071951"/><path d="M96 622q1.5.5 3 1l-7 19c-1.1-3.2-1-3.9 0-7q.3-1.1.7-2.3.4-1.2.7-2.4l.8-2.4q.9-3 1.8-5.9z" fill="#0a1168"/><path d="M234 313c6.2 1.6 10.2 4.5 13.9 9.7q.6 1.1 1.1 2.3-.5 1-1 2c-.8-.9-.8-.9-1.5-1.8-3.9-4.5-7.4-8.1-12.5-11.2q0-.5 0-1z" fill="#edc914"/><path d="M283 350q-.5 1.5-1 3c-2.3 1.1-2.3 1.1-5 2q-1 .6-2.1 1.2c-1.9.8-1.9.8-4.9-.2q1.9-1.2 3.8-2.4 1.1-.7 2.2-1.4c2.3-1.4 4.3-2.2 7-2.2z" fill="#0e1c57"/><path d="M409 436c0 3 0 3-1 5q-1 0-2 0-.5 1.5-1 3l-7 2c3.5-3.6 7.1-6.8 11-10z" fill="#08165b"/><path d="M223 646c2.8 2.5 4.2 5.1 5.8 8.5.6 1.4.6 1.4 1.3 2.9.9 2.6.9 2.6-.1 5.6q-1.5 0-3 0 0-1 0-2 1 0 2 0-.6-1.4-1.3-2.8-.8-1.7-1.7-3.6-.8-1.7-1.7-3.6c-1.3-3-1.3-3-1.3-5z" fill="#0d1468"/><path d="M203 472c1.2 3.9.5 6.2-1 10q-1 0-2 0-1 2-2 4c.5-5.3 2.5-9.4 5-14z" fill="#f8c913"/><path d="M888 564l5 5h-13c2.9-1.9 4.6-2.5 8-3q0-1 0-2z" fill="#e6f7f9"/><path d="M282 613c3.6.1 3.6.1 7 1 1.4 2.1 1.4 2.1 2 4q-1 0-2 0-.5-1-1-2h-9q1.5-1.5 3-3z" fill="#0a155a"/><path d="M887 404q1 .5 2 1 0 1 0 2-1 0-2 0-.4 1.3-.8 2.6c-1.3 3.6-3 6.3-5.2 9.4q-1-.5-2-1 .6-1 1.2-2 .8-1.4 1.7-2.8.8-1.3 1.6-2.6c1.3-2.2 2.4-4.3 3.5-6.6z" fill="#061444"/><path d="M205 209q.5 1 1 2l-2.8 1.3c-3.1 1.5-3.1 1.5-5.4 3.5q-.9.6-1.8 1.2-1.5-.5-3-1c3.8-3.4 7.3-5.2 12-7z" fill="#0a1760"/><path d="M100 154q3.5.4 7 1-1 1-2 2-1.5 0-3 0 0 1.5 0 3-1 0-2 0-.6-2.5-1-5 .5-.5 1-1z" fill="#e4b61c"/><path d="M869 543c7.5 6.2 7.5 6.2 10 10q-1.5 0-3 0 0-1 0-2-1.5-.5-3-1c-4-4.5-4-4.5-4-7z" fill="#d8edf3"/><path d="M60 632c2 3 2 3 1.8 5.3q-.4 1.2-.7 2.4-.3 1.2-.6 2.4c-.2 1-.2 1-.5 1.9-2-3-2-3-1.8-5.3l.7-2.4q.3-1.2.6-2.4.2-1 .5-1.9z" fill="#0f2862"/><path d="M147 290q1 0 2 0 0 2 0 4l-2 1q-1.1 3.5-2 7-1-.5-2-1 .7-2.2 1.4-4.4.4-1.2.8-2.4c.8-2.2.8-2.2 1.8-4.2z" fill="#e6c017"/><path d="M193 233q.5 1.5 1 3c-3.3 2.2-6.4 4.3-10 6q1.4-1.7 2.8-3.4.8-.9 1.6-1.9c1.6-1.7 1.6-1.7 4.6-3.7z" fill="#f3cd11"/><path d="M484 221q1.5 1.5 3 3l-3 9q-1 0-2 0l2-12z" fill="#0f1857"/><path d="M24.2 494.9l3.8.1q0 .5 0 1h-7q0 1 0 2l-5 3c.3-1.9.3-1.9 1-4 3.1-2.1 3.7-2.2 7.2-2.1z" fill="#03114a"/><path d="M275 721q.5 0 1 0c1.3 4.1 2.3 7.7 2 12q-1.5-.5-3-1v-11z" fill="#e8ad1c"/><path d="M386 575q.5 0 1 0v12q-1.5 0-3 0 0-2.5 0-5 .5 0 1 0l1-7z" fill="#0b2357"/><path d="M756 531c3.2 1.4 5 2.9 7.3 5.6a13.93 13.93 0 0 0 1.5 1.9l1.2 1.5c-3 0-3 0-4.8-1.7q-.9-1.1-1.9-2.2-.9-1.1-1.9-2.3C756 532 756 532 756 531z" fill="#d5e9f1"/><path d="M190 445q2.2 1.2 4.4 2.4l2.5 1.3c2.1 1.3 2.1 1.3 3.1 3.3-4.2-.7-7.4-2.9-11-5q.5-1 1-2z" fill="#0a135a"/><path d="M891 427q.5 1.5 1 3l-6 5q-1-.5-2-1l7-7z" fill="#e0e4db"/><path d="M161 386q1.5 1 3 2c-3.1 1.5-6.3 1.1-9.6 1.1q-1.1 0-2.2-.1-2.6 0-5.2 0 0-.5 0-1 1.4-.1 2.8-.2l3.6-.2 3.7-.3c2.8 0 2.8 0 3.9-1.3z" fill="#062654"/><path d="m423 241c4 2.9 6.4 5.8 9 10-4.3-1.6-6.3-4.4-9-8q0-1 0-2z" fill="#212468"/><path d="M318 771c6.5-.4 6.5-.4 8.9 1.5q.6.7 1.1 1.5-.5 1-1 2-.6-.8-1.2-1.6-.9-.7-1.8-1.4c-2.7.2-2.7.2-5 1q-.5-1.5-1-3z" fill="#0b115d"/><path d="M218 745q1.5.5 3 1-2 2-4 4-2-1-4-2 1-.5 1.9-.9c2-.9 2-.9 3.1-2.1z" fill="#101e58"/><path d="M855 449c-5.1 2.8-8.2 3.2-14 2q0-.5 0-1c4.8-1 9.2-1.1 14-1z" fill="#fcfdf2"/><path d="M688 435c3.4 1.4 5.5 3.3 8 6q-1.5.5-3 1-2.6-2.4-5-5 0-1 0-2z" fill="#dfe4dd"/><path d="M334 800q.5 1 1 2c-4 1.1-7 .8-11 0q0-.5 0-1c3.4-.8 6.5-1.1 10-1z" fill="#0b2664"/><path d="m693 463c3.4 1.4 5 3 7 6-3 0-3 0-5.2-1.9-1.8-2.1-1.8-2.1-1.8-4.1z" fill="#c0dae5"/><path d="M700 447c1.9.2 1.9.2 4 1 1.3 2.6 1.3 2.6 2 5-3 0-3 0-4.7-1.3-1.3-1.7-1.3-1.7-1.3-4.7z" fill="#dee2db"/><path d="M345 402q.5 1.5 1 3c-2.6 2.6-4.5 2.5-8 3 2.3-2.3 4.3-4.2 7-6z" fill="#f7c812"/><path d="M92 766c2.8 2.5 4.5 4.2 5 8l-5-2q.5-1 1-2c-.4-2.1-.4-2.1-1-4z" fill="#f5d112"/><path d="M91 650q1 2 2 4-1 0-2 0 0 1.5 0 3-1 0-2 0 0-3 0-6 1-.5 2-1z" fill="#f5bf14"/><path d="M84 622q.5 0 1 0 0 3 0 6-1 0-2 0 0 1 0 2-1 0-2 0c1.9-6.9 1.9-6.9 3-8z" fill="#0c1d57"/><path d="M803 540q.5 1 1 2l-4 5q-1.5-.5-3-1l6-6z" fill="#d6edf4"/><path d="M428 347l4 2q-1.5 2.5-3 5-.5 0-1 0v-7z" fill="#05125d"/><path d="M122 292q1 1.5 2 3-1 2-2 4c-2-3.8-2-3.8-2-6q1-.5 2-1z" fill="#091a5b"/><path d="M535 286q-.5 1-1 2-3.5.6-7 1-.5-1-1-2c5.6-2.1 5.6-2.1 9-1z" fill="#e6eae1"/></svg>