<svg xmlns="http://www.w3.org/2000/svg" width="1024" height="1024" xmlns:v="https://vecta.io/nano"><path fill-rule="evenodd" d="M199.5 113.7q5.1 0 10.1 0 8.9 0 17.9 0 13.3 0 26.6 0 23.8 0 47.6 0 21 0 41.9 0 1.4 0 2.8 0 5.7 0 11.3 0 52.9 0 105.8 0 47 .1 94 0 53 0 106 0 5.6 0 11.3 0 1.4 0 2.8 0 20.9 0 41.9 0 23.9 0 47.9 0 13.4 0 26.8 0 9 0 18 0 4.2 0 8.4 0c10.8 0 21.8-.3 32.7.7 26.5 2.9 53.4 13.3 70.9 34.3.9 1.2.9 1.2 1.8 2.3 18.4 20.7 25.5 47.1 25.4 74.3q0 2.3 0 4.5 0 6.3 0 12.6 0 6.8 0 13.7 0 13.4 0 26.8 0 15.8 0 31.6 0 28.2-.1 56.3 0 27.4 0 54.7 0 30 0 59.9 0 3.2 0 6.4 0 1.6 0 3.2 0 11 0 22.1 0 13.5 0 27.1 0 6.9 0 13.9 0 6.4 0 12.8 0 2.4 0 4.7c0 5.5 0 10.9-.3 16.4-2.5 29.3-12.6 57.5-35.6 77q-1.2 1-2.4 2c-9.3 8.1-20.1 14.4-31.7 18.6l-2.2.8c-28.6 6.3-28.6 6.3-58.1 6q-6.7 0-13.4 0-11.7 0-23.4 0-17 0-34.1 0-27.6.1-55.3.1h-3.3q-13.4 0-26.9 0-11.8 0-23.6 0-1.7 0-3.3 0-27.8 0-55.6.1-17.1 0-34.1 0-11.9 0-23.7 0-6.8 0-13.6 0-6.3 0-12.6 0-2.3 0-4.6 0-2.1 0-4.3 0-2 0-3.9 0c-3.6 0-5.6-.1-8.6 1.8q-.9.8-1.7 1.6l-1.6 1.4q-.8.7-1.6 1.3-.9.9-1.8 1.6c-5.6 5-11.2 9.8-17.1 14.3q-6.9 5.4-13.6 11-9.7 8.4-19.7 16.3l-12.1 9.9-28.3 23.5q-7 5.5-13.7 11.2c-3 2.6-6 5.1-9.1 7.6l-11.9 9.7-21.1 17.6q-4.4 3.6-8.9 7.3-9.2 7.6-18.4 15.1-2.5 2.1-5.1 4.2l-15.9 12.9-6.7 5.5c-5.8 5-11.7 11.8-19.4 13.6-5.6.5-11.9 1.2-16.7-2.2q-.9-.8-1.8-1.5c-4.2-3.4-6.3-7.3-6.9-12.8q0-1.9 0-3.9 0-3.4 0-6.9.1-2.5.1-5 0-6.9 0-13.7 0-7.3 0-14.6 0-13.8.1-27.6 0-15.8 0-31.7.1-32.7.2-65.4 0-1.4 0-2.7-8.8.1-17.6.1-3.6.1-7.2.1h-24.1c-29.4-1.5-55.6-14.3-75.7-35.6L98 659c-9.7-10.3-16.5-23.5-20.7-36.9q-.4-1.4-.8-2.7c-4.1-13.7-4.8-28.4-4.8-42.7q0-2.3 0-4.5 0-6.3 0-12.6 0-6.8 0-13.6 0-13.4 0-26.8 0-11 0-22 0-1.6 0-3.2 0-3.2 0-6.4 0-29.7 0-59.5.1-25.7 0-51.3 0-29.9 0-59.8 0-3.2 0-6.4 0-1.6 0-3.1 0-11.1 0-22.1 0-13.5 0-27.1 0-6.9 0-13.8 0-6.4 0-12.8 0-2.4 0-4.7c0-12.4.5-24.7 3.9-36.7q.4-1 .7-1.9c4.6-15.2 12.7-30.4 24.4-41.3l2.3-2.1c27.2-26.4 59.9-31.3 96.5-31.3z" fill="#0388eb"/><path d="M187.9 113.9q1.7 0 3.5 0 5.7 0 11.4 0 4.2 0 8.3 0 10.2-.1 20.4-.1 12.2 0 24.5 0 29.5 0 59 0 14 0 28 0 47.9 0 95.8 0 3 0 6 0 3 0 6 0 6 0 12.1 0 1.5 0 3 0 48.5 0 97.1-.1 51.4 0 102.7 0 5.7 0 11.3 0h2.8q22.3 0 44.7-.1 22.4 0 44.9 0 13.3 0 26.6 0 8.9 0 17.8 0 5.1 0 10.2 0c33.2-.1 63.7 3.7 90 25.4q1.1.9 2.2 1.7c20.9 17.3 31.9 43.9 34.8 70.3.3 5.3.3 10.7.3 16q0 2.4 0 4.7 0 6.4 0 12.8 0 7 0 13.9 0 13.6 0 27.1 0 11.1 0 22.1 0 1.6 0 3.2 0 3.2 0 6.4 0 29.9 0 59.9 0 27.4 0 54.7.1 28.1.1 56.3 0 15.8 0 31.5 0 13.5 0 26.9 0 6.9 0 13.7c.1 35.6-1.6 69.2-25.4 97.8q-1.1 1.3-2.2 2.7c-18.3 21.1-44.4 32.4-71.8 35.3-5.3.2-10.5.2-15.7.2q-2.4 0-4.7 0-5 0-9.9 0-8.2-.1-16.3-.1-10.2 0-20.5-.1-20.1 0-40.3 0-3.2 0-6.4 0-4.8 0-9.6 0-18.1-.1-36.2-.1-1.7 0-3.4 0-26.8 0-53.7-.1-27.6-.1-55.2-.1-17 0-34-.1-11.7-.1-23.3 0-6.7 0-13.5-.1c-21-1.2-21-1.2-39.1 7.2-1.8 2.1-3.5 4.2-5.2 6.3-2.2 1.9-4.6 3.7-6.9 5.4-5 3.9-9.9 7.9-14.6 12.1-5.3 4.7-10.7 9.1-16.3 13.4-4.8 3.8-9.5 7.7-14.2 11.8-5.2 4.5-10.6 8.9-16 13.3q-5.5 4.5-11 9c-1 .8-1 .8-1.9 1.6l-23.6 19.6c-3.9 3.3-7.9 6.5-11.9 9.7-3.1 2.5-6.1 5-9.1 7.6q-6.7 5.7-13.7 11.2l-17.5 14.4q-5.6 4.6-11.2 9.2-1 .9-2.1 1.8-7.2 5.9-14.5 11.8-2.6 2.2-5.2 4.3-7.5 6.2-15.2 12.2-.8.7-1.6 1.3c-7 5.4-12.8 6-21.5 5.3-5.5-1.7-8.8-5.4-12-10-1.2-3.5-1.1-6.3-1.1-10v-2.2q0-3.6 0-7.2 0-2.6 0-5.2 0-7 0-14 0-7.4 0-14.7 0-13.9 0-27.9 0-15.8 0-31.6.1-32.6.1-65.2-.9 0-1.8 0-9.7.1-19.4.2-3.6 0-7.1 0c-32.2.4-63.3-4.2-87.7-27.2q-.8-.7-1.6-1.4c-14.8-13.6-24.6-30.1-30.2-49.4l-.6-2c-3.6-13.4-3.9-27.8-3.9-41.7q0-2.3 0-4.7 0-6.4 0-12.8 0-6.9 0-13.8 0-13.5 0-27 0-11 0-22 0-1.6 0-3.2 0-3.2 0-6.4 0-29.9 0-59.7 0-27.3 0-54.6-.1-28-.1-56.1 0-15.7 0-31.5 0-13.4 0-26.8 0-6.8 0-13.6 0-6.3 0-12.5 0-2.3 0-4.5c-.1-30.7 9.4-58.2 31-80.4 23.1-23 53.4-31.1 85.3-31zM153 156q-1.1.4-2.2.8c-15.5 6.4-27.5 17.7-34.7 32.8-5.7 13.9-6.3 26.8-6.2 41.7q0 2.3 0 4.6 0 6.3 0 12.6 0 6.7-.1 13.5 0 13.3 0 26.6 0 10.8 0 21.6 0 30.6 0 61.2 0 1.7 0 3.4 0 1.6 0 3.3 0 26.8 0 53.5 0 27.6 0 55.1 0 15.4 0 30.8-.1 13.2 0 26.3 0 6.7-.1 13.4c-.7 44.5-.7 44.5 21.3 81.8q.9.9 1.8 1.9c4.1 4 8.8 6.7 13.9 9.3q1 .5 2 1c10.6 5.3 21.3 6.2 33 6.2q3.6 0 7.2 0 10.2 0 20.4 0 6.3 0 12.6.1 3.5 0 7 0c9 0 17.2.6 24.5 6.4q.8 1 1.6 2 .8.9 1.6 1.9c3 4.7 3.7 9.2 3.7 14.7q0 1.9 0 3.8 0 2.1 0 4.2 0 2.3 0 4.5.1 6.1.1 12.1 0 6.3.1 12.6 0 12 .1 24 0 13.6.1 27.2.2 28.1.3 56.1 1.9-1.4 3.8-2.8c1-.8 1-.8 2.1-1.6 8.5-6.4 16.8-13.1 24.8-20.1 4-3.5 8.1-6.8 12.3-10 5.5-4.2 10.7-8.6 16-13.2q6.4-5.5 13-10.8 5.7-4.7 11.5-9.5 9.7-8 19.5-16 2.8-2.2 5.5-4.5 4-3.3 8-6.6 4.3-3.4 8.5-6.9c1-.8 1-.8 1.9-1.6l23.6-19.6q4.9-4.2 10-8.3 6-4.9 11.9-9.9.8-.7 1.6-1.4 4.2-3.5 8.3-7.1c14.1-12.1 23.7-19.6 42.8-19.5q2.3 0 4.6 0 6.4 0 12.8 0 6.9 0 13.8 0 11.9 0 23.9 0 17.3 0 34.6 0 28.1 0 56.2 0 1.7 0 3.4 0 18.7 0 37.5 0 6.8 0 13.6 0h3.3q28 0 56-.1 17.2 0 34.5 0 11.8 0 23.7 0 6.8 0 13.6 0c27.9.1 55 .1 76.7-20.3 15.9-16.9 18.9-37.5 18.8-59.7q0-2.3 0-4.7.1-6.5.1-12.9 0-7 0-14 0-15.2 0-30.5 0-9.5 0-19 0-26.4 0-52.8v-3.4q0-1.7 0-3.4 0-3.4 0-6.9v-3.4q0-27.5.1-55.1 0-28.3 0-56.6 0-15.9 0-31.7.1-13.6.1-27.1 0-6.9 0-13.8 0-6.3 0-12.6 0-2.3 0-4.6c.1-14.1-1.5-27.4-8.4-40-.7-1.4-.7-1.4-1.5-2.8-8.6-14.7-22.4-23.5-38.5-28.2-8.4-1.7-16.7-2.3-25.3-2.3q-1.7 0-3.5 0-4.8 0-9.6 0-5.3 0-10.6 0-9.2 0-18.4 0-13.7 0-27.3 0-25.9 0-51.8 0-20 0-39.9 0-5.8 0-11.5-.1-1.5 0-2.9 0-40.3 0-80.5 0-1.5 0-3 0-7.7 0-15.4 0h-3.1q-3.1 0-6.2 0-48 0-96 0-54-.1-107.9-.1-5.8 0-11.5 0h-2.9q-22.8 0-45.6 0-22.9 0-45.8 0-13.6 0-27.2 0-9.1 0-18.2 0-5.2 0-10.3 0c-19.2-.3-19.2-.3-37.6 4.5z" fill="#012376"/><path d="M246 389.7q1.4 0 2.8 0 4.5 0 9.1 0 3.2 0 6.5 0 9.1 0 18.1 0 9.8 0 19.5 0 19.2 0 38.3 0 15.5 0 31 0 4.5 0 9-.1 1.1 0 2.2 0 31.3 0 62.6 0h2.3q6 0 12 0 1.2 0 2.4 0 2.4 0 4.8 0 37.3 0 74.7 0 41.9-.1 83.9-.1 4.5 0 8.9 0 1.1 0 2.2 0 17.8 0 35.5 0 17.8 0 35.6 0 9.7 0 19.3 0 8.9 0 17.7 0 3.2 0 6.4 0c22.5-.1 22.5-.1 30.6 6.5 4.6 5.8 7.1 10 6.9 17.5-.9 7.3-3.7 12.8-9.4 17.3-5.3 3.3-9.8 3.5-15.9 3.5h-2.8q-4.6 0-9.2 0-3.3 0-6.6 0-9.2 0-18.3 0-8.9 0-17.7 0-23.8.1-47.5.1-11.2 0-22.4 0-38.5.1-76.9.1-2.4 0-4.8 0-2.4 0-4.8 0-4.9 0-9.7 0-1.2 0-2.5 0-39 0-78 .1-41.2 0-82.4 0-4.5 0-9.1 0-1.1 0-2.2 0-18 .1-35.9.1-18 0-36 0-9.8 0-19.6 0-8.9.1-17.8 0-3.3 0-6.5.1c-19.5.1-19.5.1-25.8-5.3-.8-.7-.8-.7-1.5-1.5q-1.2-1.3-2.4-2.6c-3.9-6-4.4-11.4-3.6-18.4 1.8-6.6 6.4-11.3 12-15 5.1-2.1 9.6-2.3 15-2.3z" fill="#002276"/><path d="M240.9 262.9q1 0 2.1 0 3.6 0 7.2 0 2.6-.1 5.1-.1 7.2 0 14.3 0 7.6 0 15.3 0 18.5 0 37 0 8.8 0 17.5-.1 29 0 57.9 0 7.6 0 15.1 0 1.8 0 3.8 0 30.2 0 60.5-.1 31.1 0 62.2 0 17.5 0 34.9-.1 14.9 0 29.8 0 7.6 0 15.1 0 7 0 13.9 0 2.5 0 5.1 0c16.9-.1 16.9-.1 24.3 6.2q.7.9 1.4 1.7c.7.9.7.9 1.4 1.7 3.7 5.7 4 11.3 3.2 17.9-2.1 7.1-5.6 11.1-11.9 14.9-4.1 2.1-7.4 2.2-11.9 2.2q-1.1 0-2.2 0-3.5 0-7.1 0-2.5.1-5.1.1-7.1 0-14.1 0-7.6 0-15.2 0-18.4 0-36.8 0-8.7 0-17.3.1-28.8 0-57.6 0-7.4 0-14.9 0-1.8 0-3.7 0-30.1 0-60.2.1-30.9 0-61.7 0-17.4 0-34.7.1-14.8 0-29.5 0-7.5 0-15.1 0-6.9 0-13.8 0-2.5 0-5 0c-9.9.1-16.9-.2-24.9-6.7-5-6.1-7-11.2-6.7-19.1 1.1-7.4 4.9-11.6 10.5-16.4 3.8-2.6 7.3-2.4 11.8-2.4zm-.3 255.8h3.4 3.8q1.9 0 4 0 5.4 0 10.9 0 5.9 0 11.8 0 11.5 0 23.1 0 9.4 0 18.8 0 26.6-.1 53.2-.1h2.9 2.9q23.3 0 46.6 0 23.9-.1 47.8-.1 13.4 0 26.9 0 11.4 0 22.8 0 5.9 0 11.7 0 6.3 0 12.6 0h3.8c8 0 13.4 1.1 19.6 6.4 4.9 5.8 7.3 10.3 7 18-.7 6.6-3.4 10.9-8 15.6-7.3 5.1-14.7 4.9-23.3 4.9q-1.9 0-4 0-5.4 0-10.8 0-5.9 0-11.8 0-11.5.1-23 .1-9.3 0-18.7 0-2.7 0-5.3 0-1.4 0-2.8 0-25.3 0-50.6 0-23.2 0-46.4 0-23.8.1-47.6.1-13.4 0-26.7 0-11.4.1-22.8 0-5.8 0-11.6 0-6.3.1-12.6 0c-1.8 0-1.8 0-3.7.1-8.4-.1-14.5-1.8-20.7-7.8q-.6-1-1.3-2-.7-.9-1.4-1.9c-3.1-5.6-3.2-13.2-1.5-19.3 2.7-5.8 6.9-10.1 12.7-12.8 2.9-1 5.2-1.2 8.3-1.2z" fill="#002275"/><path d="M228 394q1 .5 2 1-.7.7-1.4 1.3c-5.6 5.7-7.3 11-8.6 18.7q-.5 0-1 0c-.5-7.1.7-12.1 5.4-17.6 1.1-1.2 2.4-2.3 3.6-3.4z" fill="#001465"/><path d="M230 265q1 .5 2 1-1.1 1-2.2 2.1c-2.8 2.8-5.3 5.8-7.8 8.9q-.5-1.5-1-3c1.4-2 1.4-2 3.3-4.1q1-1.1 1.9-2.2c1.8-1.7 1.8-1.7 3.8-2.7z" fill="#001565"/><path d="M452 669q1 .5 2 1l-8 8q-1.5-.5-3-1l9-8z" fill="#001566"/><path d="M115 194c1.2 3.5.7 5.5 0 9q-1 0-2 0c.9-7.9.9-7.9 2-9z" fill="#0591f2"/><path d="M79 182q1 .5 2 1 0 1 0 2-1 0-2 0-.5 3-1 6-1 0-2 0l3-9z" fill="#0b1a67"/></svg>