<svg xmlns="http://www.w3.org/2000/svg" width="1024" height="1024" xmlns:v="https://vecta.io/nano"><path d="M582 97.2c8.4 7.6 14.5 16 20 25.8.8 1.5.8 1.5 1.7 2.9 8.3 15.7 10.5 31.6 12.3 49.1q1.1.4 2.3.9c36.6 14.1 70 31.2 99.2 57.8q2.4 2.2 4.9 4.3c17.7 15.5 32.1 34.1 44.6 54q.6 1 1.2 2c20.4 32.8 32.4 68.8 37.8 107 .3 1.7.3 1.7.5 3.4.7 5.6.7 11.1.7 16.7q0 1.7 0 3.6 0 4.8 0 9.7.1 5.1.1 10.3.1 17.4.2 34.8 0 9.7.1 19.3 0 5.1 0 10.2c.1 19.6.4 38.9 5.1 58q.4 1.6.8 3.3c9.7 39.6 30.5 73.5 55.7 105 17.1 21.4 30.1 43.4 27.8 71.7-2.7 20.3-12.5 36.8-28 50-21.1 15.9-46.7 18.2-72.2 18.1q-2.6 0-5.2 0-7 0-14 0-7.3 0-14.6 0-13.8 0-27.7 0-15.7 0-31.5 0-32.4-.1-64.8-.1-.1 1.5-.2 3.1-.1 2.1-.3 4.1 0 1-.1 2.1c-1.3 21.2-11.2 44.1-24.4 60.7q-1 0-2 0-1 2.5-2 5-1 0-2 0-.3.8-.7 1.7C595.6 912.6 566 925.6 544 932c-11.1 3.1-22.2 3.3-33.6 3.4h-2.1c-33 .3-61.1-13.8-85.3-35.4l-2.2-2c-16.8-15.7-27.1-37.5-32.6-59.5q-.3-1.3-.6-2.6c-1.1-4.9-1.8-9.7-2.2-14.7l-.2-3.5-.2-2.7q-1.3 0-2.7 0-32.6.1-65.2.1-15.7 0-31.5.1-13.7 0-27.5 0-7.2 0-14.5 0-6.9 0-13.7 0-2.5 0-5 0c-29.3.2-56.2-4-77.9-25.2-11.1-11.4-19-28.1-20-44l-.2-2.1c-.5-12.7 2.6-25.6 8.2-36.9l1.5-3.1c5.9-11.5 13.7-21.6 21.5-31.7 10.7-13.9 20.4-28 29-43.2q.7-1.2 1.3-2.4c18.4-32.4 27.9-67.9 27.8-105.1 0-1.8 0-1.8.1-3.6q0-3.8 0-7.6 0-6.1 0-12.1 0-2.1 0-4.2 0-1.1 0-2.1.1-14.1.1-28.2 0-9.5.1-19.1 0-5 0-10c0-40.2 8.3-78 25.5-114.3q1-2.2 2.1-4.4c10.3-22.4 24.8-42.4 41-60.9q.7-.8 1.4-1.5c32.5-37 76.2-63 122.6-78.5.1-1.7.1-1.7.3-3.4 1-10.3 2.6-19.8 5.7-29.6q.5-1.6 1-3.3c5.4-15.3 15.5-30.7 28-41.1q1.9-1.6 3.8-3.3c39.2-37 95.9-30.8 134.2 2.9z" fill="#fec61a"/><path d="M582 97.2c8.4 7.6 14.5 16 20 25.8.8 1.5.8 1.5 1.7 2.9 8.3 15.7 10.5 31.6 12.3 49.1q1.1.4 2.3.9c36.6 14.1 70 31.2 99.2 57.8q2.4 2.2 4.9 4.3c17.7 15.5 32.1 34.1 44.6 54q.6 1 1.2 2c20.4 32.8 32.4 68.8 37.8 107 .3 1.7.3 1.7.5 3.4.7 5.6.7 11.1.7 16.7q0 1.7 0 3.6 0 4.8 0 9.7.1 5.1.1 10.3.1 17.4.2 34.8 0 9.7.1 19.3 0 5.1 0 10.2c.1 19.6.4 38.9 5.1 58q.4 1.6.8 3.3c9.7 39.6 30.5 73.5 55.7 105 17.1 21.4 30.1 43.4 27.8 71.7-2.7 20.3-12.5 36.8-28 50-21.1 15.9-46.7 18.2-72.2 18.1q-2.6 0-5.2 0-7 0-14 0-7.3 0-14.6 0-13.8 0-27.7 0-15.7 0-31.5 0-32.4-.1-64.8-.1-.1 1.5-.2 3.1-.1 2.1-.3 4.1 0 1-.1 2.1c-1.3 21.2-11.2 44.1-24.4 60.7q-1 0-2 0-1 2.5-2 5-1 0-2 0-.3.8-.7 1.7C595.6 912.6 566 925.6 544 932c-11.1 3.1-22.2 3.3-33.6 3.4h-2.1c-33 .3-61.1-13.8-85.3-35.4l-2.2-2c-16.8-15.7-27.1-37.5-32.6-59.5q-.3-1.3-.6-2.6c-1.1-4.9-1.8-9.7-2.2-14.7l-.2-3.5-.2-2.7q-1.3 0-2.7 0-32.6.1-65.2.1-15.7 0-31.5.1-13.7 0-27.5 0-7.2 0-14.5 0-6.9 0-13.7 0-2.5 0-5 0c-29.3.2-56.2-4-77.9-25.2-11.1-11.4-19-28.1-20-44l-.2-2.1c-.5-12.7 2.6-25.6 8.2-36.9l1.5-3.1c5.9-11.5 13.7-21.6 21.5-31.7 10.7-13.9 20.4-28 29-43.2q.7-1.2 1.3-2.4c18.4-32.4 27.9-67.9 27.8-105.1 0-1.8 0-1.8.1-3.6q0-3.8 0-7.6 0-6.1 0-12.1 0-2.1 0-4.2 0-1.1 0-2.1.1-14.1.1-28.2 0-9.5.1-19.1 0-5 0-10c0-40.2 8.3-78 25.5-114.3q1-2.2 2.1-4.4c10.3-22.4 24.8-42.4 41-60.9q.7-.8 1.4-1.5c32.5-37 76.2-63 122.6-78.5.1-1.7.1-1.7.3-3.4 1-10.3 2.6-19.8 5.7-29.6q.5-1.6 1-3.3c5.4-15.3 15.5-30.7 28-41.1q1.9-1.6 3.8-3.3c39.2-37 95.9-30.8 134.2 2.9zM343 255q-.8.6-1.6 1.3C328 267 315.4 279.2 305 293q-.6.8-1.3 1.6c-31.8 41.5-48.7 90.5-48.9 142.8v3.5q0 3.8 0 7.5-.1 6-.1 11.9-.1 17-.2 33.9 0 9.4-.1 18.8 0 5 0 9.9c-.1 18.7-.7 36.7-5.1 54.9q-.4 1.7-.8 3.3c-10.9 44.7-34.7 83-63 118.7-10.4 13.2-19.6 27.5-18.9 45 1.3 7.9 5 14.8 11.4 19.8 16.9 12 36.7 10.7 56.6 10.7q3.7 0 7.4 0 8.1 0 16.2 0 12 0 24 0 21.4 0 42.9 0 18.7 0 37.5 0 1.3 0 2.5 0 5.1 0 10.2 0 47.4 0 94.9 0 42.1-.1 84.2 0 47.4 0 94.7 0 5.1 0 10.2 0h2.5q18.7 0 37.5 0 21.3 0 42.7 0 11.9 0 23.8 0 8.9 0 17.9 0 3.6 0 7.2 0c30.1.8 30.1.8 56.1-12.3 6.4-7 10.2-15.4 10-25-2.4-18.7-12.8-31.4-24.5-45.4-10.6-12.9-19.5-26.9-28-41.2q-1.4-2.2-2.8-4.5c-7.9-12.8-13.3-26.8-18.7-40.9q-.5-1.3-1-2.6c-6.8-18-10.1-37.3-12-56.4q-.1-1.1-.2-2.3c-.8-7-1-14-1-21v-3.6q0-3.8 0-7.6 0-6-.1-12.1 0-17.2-.1-34.4 0-9.6-.1-19.1 0-5 0-10.1c-.1-19.8-1.4-38.9-6.2-58.3q-.4-1.6-.8-3.2c-7.7-30.4-22.6-59.1-42.5-83.3q-.7-.8-1.4-1.7C706.7 277 694.8 264.4 681 254c-.9-.6-.9-.6-1.7-1.3-47.5-36.1-106.2-55.3-165.7-55q-1.4 0-2.8 0c-61 .2-120.1 18.9-167.8 57.3z" fill="#01216c"/><path d="M425 815h174c-.7 6.5-1.3 12.1-3.1 18.3q-.4 1.1-.7 2.2c-3.6 11.4-9.6 20.5-17.2 29.5-.8 1.1-.8 1.1-1.6 2.3q-.7.8-1.4 1.7-1 0-2 0-.5 1.5-1 3c-12.4 11.4-27.6 19.4-44 23q-1.2.3-2.4.5c-13.6 2.5-28.7 1.3-41.6-3.5q-1.8-.6-3.6-1.3c-22.3-8.8-38.9-25.3-49.1-46.7-4.2-9.8-6.3-18.3-6.3-29z" fill="#fec71a"/><path d="M546.7 121.3c13.2 9.8 22.7 22.4 26.3 38.7q0 2 0 4-7.6-.8-15.1-1.7-1.6-.2-3.3-.4-3.3-.4-6.7-.8c-29.7-3.5-60.1-3.4-89.6 2.5-2.3.4-2.3.4-6.3.4.8-13.4 8.1-25.3 17-35q1 0 2 0 0-1 0-2c6.2-5.4 13.4-9.1 21-12l2.4-1c17.1-5.7 37.4-2.5 52.3 7.3z" fill="#fdc81b"/><path d="M454 153q1 1 2 2l-1 6q2.5 0 5 0 .5 1 1 2l-9 1c.9-7.6.9-7.6 2-11z" fill="#ecca1b"/><path d="M219 653q.5 1 1 2c-1.1 2.2-1.1 2.2-2.8 4.8-1.8 2.9-3.4 5.6-4.8 8.8-1.4 2.4-1.4 2.4-3.5 3.1-.9.1-.9.1-1.9.3 3.7-6.6 7.5-13 12-19z" fill="#f7dc10"/><path d="M201 680q1 0 2 0c-2.4 5-5 9.1-9 13q-.5 1-1 2-1 0-2 0c1.6-3.5 3.7-6.6 6-9.8q1-1.4 2.1-2.9l1.9-2.3z" fill="#f3d613"/><path d="M594 838c.6 1.8.6 1.8 1 4l-2 3q-.2 1.3-.5 2.6c-.5 2.4-.5 2.4-2.5 4.4q-1 0-2 0c1.5-5 3.6-9.4 6-14z" fill="#091374"/><path d="M556 202c7.8-.1 7.8-.1 10 1q0 1 0 2l-7 1q0-1.5 0-3-1.5-.5-3-1z" fill="#f8d316"/><path d="M802 647c2.6 1 3.8 1.6 5.2 4.1q.5 1.2 1 2.4.5 1.2 1 2.4l.8 2.1q.5 1 1 2c-3.8-1.3-4.2-2.5-6.2-5.9q-.8-1.4-1.6-2.8C802 649 802 649 802 647z" fill="#041175"/><path d="M201 600q.5 0 1 0v8q-1.5 1-3 2c-1.4-4.2.2-6.1 2-10z" fill="#0d2166"/><path d="M550 125c4.3 1.7 6.9 4.7 10 8q-.5 1-1 2-2.3-1.9-4.5-3.9-1.2-1-2.5-2.2-1-.9-2-1.9 0-1 0-2z" fill="#f0d615"/><path d="M559 881q1 .5 2 1l-5 6q-1.5-1.5-3-3l6-4z" fill="#051772"/><path d="M222 647c1.2 3.5.7 5.5 0 9q-1.5.5-3 1c-.4-4.3.6-6.5 3-10z" fill="#f7ce18"/><path d="M751 344c3 3 4.9 5.5 5.2 9.8q-.1 1.1-.2 2.2c-2.6-1.3-2.7-2.2-3.6-4.9q-.4-1-.8-2.1c-.6-2-.6-2-.6-5z" fill="#081076"/><path d="M540 118l8 4q0 .5 0 1c-4.5.4-4.5.4-6.8-1.4-1.2-1.6-1.2-1.6-1.2-3.6z" fill="#efd318"/></svg>