<svg xmlns="http://www.w3.org/2000/svg" width="1024" height="1024" xmlns:v="https://vecta.io/nano"><path d="M567 147.8q1 0 2.1 0 3.3 0 6.7 0 2.3 0 4.7 0 6.1 0 12.3.1 6.3 0 12.6 0 12.3 0 24.6.1 0 .9 0 1.8.1 4.1.3 8.3 0 1.4 0 2.8c.2 6.2.8 10.2 4.7 15.1 5.3 3.7 10.2 4.6 16.6 4.5q1.2 0 2.5 0 4.1 0 8.2 0 3 0 6 0 8 .1 16 0 8.5 0 16.9 0 14.1.1 28.3 0 16.3 0 32.6 0 14.1.1 28.1 0 8.4 0 16.8 0 7.9.1 15.7 0 2.9 0 5.8 0 4 0 7.9 0 1.2 0 2.3 0c5.5 0 9.8-1.4 14.3-4.5 3.5-4.4 5.1-7.9 5.3-13.4q.1-1.2.1-2.4.1-1.4.2-2.9.1-2.5.2-5 .1-1.2.1-2.4.1-1 .1-1.9l37.9.2q2.8.1 5.6.1 4.1 0 8.2.1 1.2 0 2.5 0c6.3.2 11.7 1.7 16.4 6.1 4.4 5 4.5 9.2 4.5 15.7v2.5q0 4.3 0 8.6 0 3.1 0 6.2.1 8.5.1 17 0 9.2 0 18.4 0 21.1 0 42.3 0 10.4 0 20.8 0 35.8 0 71.5 0 2.3 0 4.5 0 2.2 0 4.5 0 4.5 0 9 0 1.1 0 2.3 0 36.3.1 72.5 0 38.4 0 76.7 0 4.2 0 8.5 0 1 0 2 0 16.7.1 33.4 0 16.8 0 33.6 0 9 0 18.1 0 8.4 0 16.7 0 3 0 6 0 4.1 0 8.2 0 1.1 0 2.3c-.1 5.7-1.3 9.7-4.9 14q-.9.7-1.7 1.4-.8.7-1.6 1.4c-8.2 5.2-16.5 4.8-25.9 4.8q-2.4 0-4.7.1-6.5 0-12.9 0-6.8 0-13.5.1-12.7 0-25.5.1-14.5 0-29 .1-29.9.1-59.7.2l1.9 3.3q1.2 2.2 2.4 4.4.6 1 1.3 2.1c3 5.3 5.7 10.7 8 16.3q.6 1.3 1.1 2.6c15.9 38.5 20.6 80.8 5.3 120.3 21.5-5.1 38.4-13.4 51.3-32.1 8.9-14.9 12.4-31 9.3-48.2-1.7-6.5-4.5-12.5-7.4-18.5-2.4-5.1-3.3-9.6-2.2-15.2 2.2-4.4 4.4-7.1 9-9 7.8-1.1 13.7 1.8 19.9 6.5 9.4 8.5 13.8 20.6 17.1 32.5q.4 1.3.8 2.6c5.4 23.6.1 50-12.3 70.5-7.8 12.2-18.5 23.7-30.5 31.9q-1 0-2 0 0 1 0 2 1.8-.1 3.7-.1c6 0 11.7.9 17.5 1.9q1.6.3 3.3.6 4.8.8 9.5 1.6l2.3.4c9.3 1.6 21.4 4 28.1 11.1 1.6 2.5 1.6 2.5 1.9 5.4-3.2 7.9-11.3 11.5-18.7 14.7-27.6 10.8-57.5 14.5-86.6 18.4q-1.1.1-2.2.3c-22 2.9-44.2 4.6-66.3 6.3l-2 .2c-35.8 2.8-71.6 4.6-107.4 5.8q-1.4.1-2.8.1c-49.4 1.7-98.9 1.7-148.3 1.3q-1.2 0-2.4 0c-32.8-.3-65.6-1.3-98.4-2.8q-4.9-.3-9.8-.5C139 905 139 905 105.5 875.7c-1.7-1.9-2.2-3.1-2.5-5.7 3.1-6.9 9.3-10 16-12.7 11.1-3.9 23.3-6 35-7.3q.1-1 .3-2.1c1.6-11.1 5.7-19.9 14.7-26.9 6.7-4 12.2-6.1 20-6-1.3-16.7-2.9-33.4-5.2-50q-.2-1.1-.4-2.2-1.4-9.9-2.8-19.7-1.4-9.6-2.8-19.2-.7-4.6-1.4-9.2c-2.9-19.9-4.8-39.7-4.6-59.8q0-1.1 0-2.3c0-9.5.3-19.1 1.1-28.6.2-1.4.2-1.4.3-2.8.4-3.7.8-7.3 1.5-10.9.5-3.1.9-5.3.3-8.3-2.8-3.6-6.4-6.2-10-9-10.7-10.4-17.9-23.1-23-37q0-1 0-2c1.1-.2 1.1-.2 2.3-.3q5.1-.8 10.3-1.5c1.7-.3 1.7-.3 3.5-.5 6.1-.9 11.4-1.9 16.9-4.7q.1-2.5 0-5c-1.2-1.4-1.2-1.4-4.4-1.2-5 .1-9.8.9-14.7 1.7-5.4.9-10.5 1.7-15.9 1.5-1.3-4.9-1.1-9.8-1.1-14.8q0-1.3.1-2.7 0-3.2 0-6.5c3.7.7 7.2 1.6 10.7 2.8q1.6.6 3.3 1.1 3.4 1.2 6.7 2.3c5.6 1.8 10.4 3.3 16.3 2.8l-1-7q-1.2-.4-2.4-.8-4.4-1.4-8.8-2.9-2.8-.9-5.6-1.8c-5.8-2-11.6-3.9-17.2-6.5q.4-1.3.8-2.7.6-1.7 1.1-3.6.6-1.7 1.1-3.5.5-1.6 1-3.2.4-1 .8-2c.3-3.2-1.1-5.5-2.4-8.4-6.8-16.1-10.4-33.2-12.4-50.6q-.2-1.7-.4-3.4c-1.4-14.1-2.8-31.9 4.4-44.6 2.3-2.3 2.9-2.3 6-2.3 5.3.1 9.5 1.5 14.3 3.5q1.3.6 2.6 1.1c18.1 7.8 34.4 19.5 49.8 31.6q1.7 1.3 3.4 2.5a56.64 56.64 0 0 1 2.8 2.3c4.5 1.9 7.5.6 12.1-.7q2.4-.5 4.9-1 1.2-.3 2.5-.5 1.3-.3 2.5-.6 1.3-.2 2.6-.5c22.2-4.5 45.2-2.9 66.9 3.1 4.3.8 6.7.1 10.2-2.3q1.5-1.1 3-2.3 1.7-1.4 3.4-2.7 1-.8 1.9-1.6c45.1-35.4 45.1-35.4 65-34.9 2.1.3 2.1.3 4.5 1.9 3.4 5.1 3.9 10 3.9 15.9v2.2q0 3.5 0 6.9 0 1.2 0 2.4c0 12.3-.7 24-3.3 36q-.3 1.5-.6 3c-2.7 12.2-5.8 24.1-10.2 35.8q-.6 1.6-1.2 3.2l-.8 2c-.3 3.4 1.1 6.4 2.2 9.5 1.5 4 2.6 7.2 2.6 11.5q-1.3.3-2.7.7-5 1.3-10 2.6-2.1.5-4.3 1.1-3.1.7-6.1 1.6c-1.9.4-1.9.4-3.8.9-2.9 1-4.4 1.6-6.1 4.1.2 2.7.2 2.7 1 5 7 .6 13.1-1.5 19.8-3.5q3.4-1 6.8-2 1.5-.4 3-.9c2.4-.6 2.4-.6 4.4-.6q0 4 .1 8.1 0 1.1 0 2.2c0 4.7-.3 9.1-1.1 13.7q-1.1-.2-2.3-.4-5.1-.8-10.2-1.6-1.8-.3-3.6-.6c-6-.9-11.8-1.6-17.9-1.4q-.5 2.5-1 5c3.5 2.3 6.3 3.5 10.3 4.1q1.5.3 3.1.5 1.5.3 3.1.5 3.1.5 6.2 1 1.3.2 2.7.5 3.8.6 7.6 1.4c-4.4 13.6-10.8 26.5-21.5 36.2-2.8 2.5-2.8 2.5-2.4 5.1 4.5 12.9 21.5 22.4 32.5 29.3 12.3 7.7 22.4 17 32.4 27.4q.1-1.4.1-2.8c1-23.6 3-46.8 5.9-70.2 3.2 1.5 5.3 3.1 7.8 5.6 15 13.5 36.9 19.4 56.2 23.4q1 .2 2.1.5c25.6 5.4 57.7 5.7 82.9-1.5q1.4-.4 2.9-.8c28.8-8.3 53.9-23 73.1-46.2q.7-.8 1.4-1.7c4.7-6.4 3.2-16.1 2.1-23.5-.4-2.3-.9-4.5-1.5-6.8q1.3.7 2.6 1.5c6.6 2.8 14.4 2.6 21.2.7 12.7-5.6 20.6-19.2 25.6-31.6 7.2-21.2 3.3-41.5-4.4-61.9-1-2.7-1-2.7-1-4.7q1 0 2.1 0 24.9-.1 49.7-.2 12.1 0 24.1-.1 10.5 0 21-.1 5.6 0 11.1 0 6.2 0 12.5-.1 1.8.1 3.6.1c10.4-.2 19.5-2.3 27.2-9.6 6-7 7.8-13.6 7.8-22.7q0-1 0-2 .1-3.3.1-6.6 0-2.4 0-4.8 0-6.4 0-12.9 0-4 0-8 0-12.6 0-25.3 0-14.5.1-29.1 0-11.2 0-22.5 0-6.7 0-13.4.1-6.3.1-12.6 0-2.4 0-4.7c.5-12.3.5-12.3-4.8-22.9-5-4.4-9.3-4.7-15.5-4.8-1.2 0-1.2 0-2.4-.1q-3.7-.1-7.4-.2-2.5 0-5-.1-6.2-.2-12.3-.3-.1-1.5-.1-3.1-.1-2.1-.2-4.2c0-1 0-1-.1-2-.2-4.1-.6-6.8-3.6-9.7-2.2-.6-2.2-.6-4.5-.5q-1.2 0-2.3 0c-2.8.4-2.8.4-5.2 4.5l-1 15H690l-1-15c-2.4-4.1-2.4-4.1-5.2-4.5q-1.1 0-2.3.1-1.2 0-2.3 0c-2.9.5-3.5 1-5.2 3.4-.4 2.8-.6 5.4-.7 8.2q0 1.1-.1 2.3-.1 2.7-.2 5.5-1.7 0-3.5 0-6.6.1-13.2.2-2.8 0-5.6 0-4.1 0-8.2.1-1.2 0-2.5 0c-6 .1-10.5 1.6-15 5.7-1.8 3-2.3 5.2-2.3 8.6q0 1.4 0 2.8v3.1 3.2q-.1 5.3-.1 10.5 0 3.7-.1 7.3 0 9.7-.1 19.3-.1 9.8-.1 19.6-.2 19.3-.3 38.6-1.2.2-2.4.4-1.3.3-2.6.6-.5 1-1 2c-3.6-1.3-6.9-3-10.3-4.8-17.5-9.1-35.9-12.6-55.4-14.7q-1.2-.2-2.4-.3l-1.9-.2q-.1-33.5-.2-67 0-15.5-.1-31.1-.1-13.5-.1-27.1 0-7.1 0-14.3-.1-6.8-.1-13.5 0-2.5 0-5 0-3.4 0-6.7 0-1.9 0-3.9c.7-5.1 3.2-8.2 6.9-11.7 4.9-3.3 8.7-3.9 14.6-3.9z" fill="#fa9300"/><path fill-rule="evenodd" d="M545 163q.5 0 1 0v169h9c21.4 2 43 8 61 20q.5-1.5 1-3 2.5 0 5 0 0-.8 0-1.7-.1-20.3-.2-40.6 0-9.9-.1-19.7-.1-9.5-.1-18.9 0-3.7 0-7.3-.1-5-.1-10.1 0-1.5 0-3c0-5.8.6-9.2 4.5-13.7 5.5-4.1 9.7-4.6 16.4-4.4q1.3 0 2.7 0 4.2.1 8.3.1 2.9.1 5.7.1 7 .1 13.9.2-.1-1.7-.1-3.4-.1-2.2-.1-4.4-.1-1-.2-2.2c0-3.6.1-5.6 2.3-8.5 2.4-1.7 3.7-2.1 6.6-2.1q1.1 0 2.3 0c2.2.6 2.2.6 6.2 5.6v15h108v-15c4-5 4-5 6.2-5.7q1.1.1 2.3.1 1.1 0 2.3-.1c3.3 1 4.3 2.8 6.2 5.7.3 2.8.4 5.1.3 7.8q-.1 1-.1 2.1-.1 2.6-.2 5.1 1.5 0 3.1 0 5.8-.1 11.5-.2 2.5 0 5 0 3.6-.1 7.2-.1h2.2c4.8 0 8 .8 12 3.3 5.6 5.8 7.2 10.8 7.3 18.8q0 1 0 2 0 3.3 0 6.6 0 2.4 0 4.8 0 6.4 0 12.8 0 5.4 0 10.8 0 12.7 0 25.4 0 13 0 26.1.1 11.3.1 22.5 0 6.7 0 13.4 0 6.3 0 12.7 0 2.3 0 4.6c0 11.7-.8 21.3-9 30.3-9 8.6-19 9.8-30.9 9.7q-2 0-4 0-5.3 0-10.7-.1-5.6 0-11.2 0-10.5 0-21.1-.1-12-.1-24-.1-24.8-.1-49.5-.2.6 1.6 1.3 3.3.8 2.2 1.6 4.4.4 1.1.8 2.2c7.7 20.3 9.8 41.3.8 61.6-5.4 10.6-13.6 23.6-25.3 28-7.8 1.7-15.2 1.5-22.2-2.5q.5 1.8 1 3.6c1.8 8.6 3 18-1.6 26-19.1 25.7-48.1 40.9-78.4 49.4q-1.2.4-2.5.7c-27.1 7.4-60.4 5.4-87.5-.7q-1.2-.3-2.5-.6c-19.2-4.3-38.1-11.9-52.5-25.5-1.6-1.7-1.8-1.9-3.2-2.5q.3-5 .3-10.1c-.2-7.3.1-13.2 3.5-19.8.5-.9.5-.9 1-1.9q.9-1.9 1.9-3.7l1.5-2.9-2-3c-5.4-7.2-9.6-14.7-13.5-22.9-.8-1.5-.8-1.5-1.5-3.1q-1 0-2 0-2 2-4 4c-7.5 4.6-15 8.7-24 7l-6-2c-2.4.8-4.8 1.5-7.3 2.3-20.4 6.4-20.4 6.4-26.7 5.7-2-2-2-2-2.1-4.9 1.1-3.1 1.1-3.1 4-4.6 5-1.9 10.1-3.3 15.3-4.7l3-.8q1.4-.4 2.8-.8 1.3-.3 2.6-.7c2.4-.5 2.4-.5 6.4-.5q-.5-1.8-1.1-3.6-.6-2.3-1.3-4.7-.4-1.1-.7-2.3c-.4-1.1-.4-1.1-.7-2.3q-.3-1-.6-2.1-.3-1-.6-2-.3-1-.6-2.1c-.6-3.1.9-5.3 2.2-8.2 6.5-15.2 9.9-32.3 12.4-48.7q.3-1.9.6-3.8c.5-4.5.3-8.9 0-13.4-1.4-27.8-1.4-27.8 4.9-35.2 2.4-2.3 5-4.3 7.7-6.3 2.6-1.9 4.7-4.3 6.9-6.7 10.3-10.2 24-19.6 38.9-20.8 2 .2 2 .2 5 2.2q.7-.5 1.4-1.1c25.5-18 53.9-19.9 84.6-19.9V163zM432 580q0 1.9.1 3.8c0 5.7-.8 11.2-1.5 16.9-1.5 13-2.3 26-3 39.1.8-15.1 1.9-30.2 3.8-45.2.6-4.8 1.1-9.5 1.4-14.2q-.3-.2-.8-.4zm-4.4 59.8q-.3 7.1-.6 14.2.3-7.1.6-14.2zm-69.1-88.7q-1.2-.2-2.4-.4l2.4.4z" fill="#01314b"/><path d="M567 147.8q1 0 2.1 0 3.3 0 6.7 0 2.3 0 4.7 0 6.1 0 12.3.1 6.3 0 12.6 0 12.3 0 24.6.1 0 .9 0 1.8.1 4.1.3 8.3 0 1.4 0 2.8c.2 6.2.8 10.2 4.7 15.1 5.3 3.7 10.2 4.6 16.6 4.5q1.2 0 2.5 0 4.1 0 8.2 0 3 0 6 0 8 .1 16 0 8.5 0 16.9 0 14.1.1 28.3 0 16.3 0 32.6 0 14.1.1 28.1 0 8.4 0 16.8 0 7.9.1 15.7 0 2.9 0 5.8 0 4 0 7.9 0 1.2 0 2.3 0c5.5 0 9.8-1.4 14.3-4.5 3.5-4.4 5.1-7.9 5.3-13.4q.1-1.2.1-2.4l.2-2.9q.1-2.5.2-5 .1-1.2.1-2.4.1-1 .1-1.9l37.9.2q2.8.1 5.6.1 4.1 0 8.2.1 1.2 0 2.5 0c6.3.2 11.7 1.7 16.4 6.1 4.4 5 4.5 9.2 4.5 15.7q0 1.2 0 2.5 0 4.3 0 8.6 0 3.1 0 6.2.1 8.5.1 17 0 9.2 0 18.4 0 21.1 0 42.3 0 10.4 0 20.8 0 35.8 0 71.5 0 2.3 0 4.5 0 2.2 0 4.5 0 4.5 0 9v2.3q0 36.3.1 72.5 0 38.4 0 76.7 0 4.2 0 8.5 0 1 0 2 0 16.7.1 33.4 0 16.8 0 33.6 0 9 0 18.1 0 8.4 0 16.7 0 3 0 6 0 4.1 0 8.2 0 1.1 0 2.3c-.1 5.7-1.2 9.8-5.1 14-.9.7-.9.7-1.7 1.4q-.9.8-1.8 1.5c-4.2 3-7.3 3.6-12.6 3.6-1 0-1 0-2 .1q-3.4 0-6.9 0-2.4 0-4.9.1-8 .1-16 .1-1.4 0-2.8 0-12.9.1-25.8.2-16.5 0-33.1.3-11.6.1-23.2.1-6.9 0-13.8.1-6.6.1-13.1.1-2.4 0-4.8.1c-4.8.1-9.2 0-13.8-1.5-3.6-3.6-5.8-7.5-8-12q-1.5-2.1-3-4.2-.7-.9-1.4-1.8-.7-.9-1.4-1.9c-.8-1-.8-1-1.5-2-7.8-10.2-15.7-20.3-24.1-30q-3.6-4.2-7-8.5c-3.4-4.2-6.9-8.3-10.5-12.4-5.9-6.9-11.5-14-17.1-21.2q-2-2.5-3.9-5-1.9-2.5-3.7-4.9c-2.3-3.1-2.3-3.1-4.8-5.7-6.5-7.4-6.2-13.6-5.7-22.9.2-5.1-.6-9.6-1.9-14.5q1.3.7 2.6 1.5c6.6 2.8 14.4 2.6 21.2.7 12.7-5.6 20.6-19.2 25.6-31.6 7.2-21.2 3.3-41.5-4.4-61.9-1-2.7-1-2.7-1-4.7h2.1q24.9-.1 49.7-.2 12.1 0 24.1-.1 10.5 0 21-.1 5.6 0 11.1 0 6.2 0 12.5-.1 1.8.1 3.6.1c10.4-.2 19.5-2.3 27.2-9.6 6-7 7.8-13.6 7.8-22.7q0-1 0-2 .1-3.3.1-6.6 0-2.4 0-4.8 0-6.4 0-12.9 0-4 0-8 0-12.6 0-25.3 0-14.5.1-29.1 0-11.2 0-22.5 0-6.7 0-13.4.1-6.3.1-12.6 0-2.4 0-4.7c.5-12.3.5-12.3-4.8-22.9-5-4.4-9.3-4.7-15.5-4.8-1.2 0-1.2 0-2.4-.1q-3.7-.1-7.4-.2-2.5 0-5-.1-6.2-.2-12.3-.3-.1-1.5-.1-3.1-.1-2.1-.2-4.2 0-1-.1-2c-.2-4.1-.6-6.8-3.6-9.7-2.2-.6-2.2-.6-4.5-.5q-1.2 0-2.3 0c-2.8.4-2.8.4-5.2 4.5l-1 15H690l-1-15c-2.4-4.1-2.4-4.1-5.2-4.5q-1.1 0-2.3.1-1.2 0-2.3 0c-2.9.5-3.5 1-5.2 3.4-.4 2.8-.6 5.4-.7 8.2q0 1.1-.1 2.3-.1 2.7-.2 5.5-1.7 0-3.5 0-6.6.1-13.2.2-2.8 0-5.6 0-4.1 0-8.2.1-1.2 0-2.5 0c-6 .1-10.5 1.6-15 5.7-1.8 3-2.3 5.2-2.3 8.6q0 1.4 0 2.8 0 1.5 0 3.1 0 1.5 0 3.2-.1 5.3-.1 10.5 0 3.7-.1 7.3 0 9.7-.1 19.3-.1 9.8-.1 19.6-.2 19.3-.3 38.6-1.2.2-2.4.4-1.3.3-2.6.6-.5 1-1 2c-3.6-1.3-6.9-3-10.3-4.8-17.5-9.1-35.9-12.6-55.4-14.7q-1.2-.2-2.4-.3l-1.9-.2q-.1-33.5-.2-67 0-15.5-.1-31.1-.1-13.5-.1-27.1 0-7.1 0-14.3-.1-6.8-.1-13.5 0-2.5 0-5 0-3.4 0-6.7 0-1.9 0-3.9c.7-5.1 3.2-8.2 6.9-11.7 4.9-3.3 8.7-3.9 14.6-3.9z" fill="#fdebc8"/><path d="M660 556q4.3 5.4 8.6 10.9c12.6 16.5 25.7 32.6 39.2 48.3l15 18.4q3.5 4.5 7.1 8.9c5.9 7.3 11.5 14.7 16.8 22.3a26.1 26.1 0 0 1 1.9 2.7q.9 1.2 1.8 2.5.7 1 1.5 2.2c1.1 1.8 1.1 1.8 1.1 3.8h163q0 .5 0 1l-161 1 9 16c1.6 3.4 3.2 6.6 4.6 10.1q.6 1.3 1.1 2.6c15.9 38.5 20.6 80.8 5.3 120.3 21.5-5.1 38.4-13.4 51.3-32.1 8.9-14.9 12.4-31 9.3-48.2-1.7-6.5-4.5-12.5-7.4-18.5-2.4-5.1-3.3-9.6-2.2-15.2 2.2-4.4 4.4-7.1 9-9 7.8-1.1 13.7 1.8 19.9 6.5 9.4 8.5 13.8 20.6 17.1 32.5l.8 2.6c5.4 23.6.1 50-12.3 70.5-7.8 12.2-18.5 23.7-30.5 31.9q-1 0-2 0 0 1 0 2c-23 13.1-45.5 19.9-71.9 13.6-5.4-1-8.9 1.2-13.7 3.5-6 2.3-12.3 2.1-18.6 2.2q-1.5 0-3.1.1-5.1.1-10.2.2H707l-59.2.5q-3.1 0-6.2 0-5.9 0-11.7 0-1.8 0-3.6 0-1.6 0-3.2 0-1.4 0-2.9 0c-2.2-.1-2.2-.1-4.2-1.1q-2.2-.1-4.5-.1-1.4 0-2.8 0h-3.1q-1.5 0-3.1 0-3.3 0-6.6 0-5 0-10 0-3.2 0-6.4 0-1.5 0-3 0-1.4 0-2.9 0h-2.5c-2.3 0-2.3 0-5.1 1.1q-2.6.1-5.2.1h-3.2q-1.7 0-3.4 0-1.8 0-3.6 0-3.7 0-7.4 0-5.6 0-11.3 0-3.6 0-7.2 0-1.7 0-3.5 0-1.5 0-3.2 0-1.3 0-2.8 0c-2.2-.1-2.2-.1-4.2-1.1q-2.1-.1-4.3-.1-1.3 0-2.7 0-1.5 0-3 0-1.5 0-3.1 0-3.4.1-6.8.1-5.3 0-10.7 0-15.2.1-30.4.2-9.3 0-18.6 0-3.6.1-7.1.1-5 0-9.9 0-1.5 0-3 .1c-4.9-.1-8.4-.1-12.4-3.4-4.4-6.6-5-14.3-4-22 2.6-11.7 8.4-19.9 18-27 3.7-2.2 6.6-4 11-4 .7-4.5 1.1-8.8 1.1-13.4q.1-1.8.1-3.7 0-2 0-4 0-2.2 0-4.4 0-4.6 0-9.2.1-7.4.1-14.8.1-21 .2-42.1 0-11.6.1-23.2 0-6.1 0-12.2c.1-17.6.4-35.1 1.4-52.6q0-1.2.1-2.4c.6-11.8 1.6-23.6 3-35.4q.3-2.3.6-4.7.6-5.4 1.3-10.9c3.2 1.5 5.3 3.1 7.8 5.6 15 13.5 36.9 19.4 56.2 23.4q1 .2 2.1.5c25.6 5.4 57.7 5.7 82.9-1.5q1.4-.4 2.9-.8c28.4-8.2 61-24.4 76.1-51.2z" fill="#d26b00"/><path d="M355.7 112q1.1 1 2.3 2l2.5 2.1c25.9 22.6 42.8 53.3 49.5 86.9.3 1.7.3 1.7.7 3.4 5.6 33.7-.7 68.2-15.7 98.6q-.8 1.5-1.5 3.1C379.1 335.8 356 357.9 329 373q-1.6.9-3.3 1.9c-18.3 9.7-40.1 16.2-60.9 16.3q-1.1 0-2.3 0-2.5 0-4.9 0-3.6.1-7.3.1c-40 .3-77.8-16.8-106.3-44.3q-1.3-1.2-2.6-2.5c-29.4-28.2-44.8-69.6-45.7-109.9-.3-42.2 15.9-82.1 45.2-112.5A148.1 148.1 0 0 1 172 98q1-.6 2.1-1.2c17.2-10 36.2-16.9 55.9-19.8q1.8-.3 3.6-.6c44-5.3 88 7.4 122.1 35.6z" fill="#ed6012"/><path d="M391 383c3.9 2.6 4.8 5.6 6 10q.3 3.8.3 7.5v2.2q0 3.5 0 6.9 0 1.2 0 2.4c0 12.3-.7 24-3.3 36q-.3 1.5-.6 3c-2.7 12.2-5.8 24.1-10.2 35.8q-.6 1.6-1.2 3.2-.4 1-.8 2c-.3 3.4 1.1 6.4 2.2 9.5 1.5 4 2.6 7.2 2.6 11.5q-1.3.3-2.7.7-5 1.3-10 2.6-2.1.5-4.3 1.1-3.1.7-6.1 1.6-1.9.4-3.8.9c-2.9 1-4.4 1.6-6.1 4.1.2 2.7.2 2.7 1 5 7 .6 13.1-1.5 19.8-3.5q3.4-1 6.8-2 1.5-.4 3-.9c2.4-.6 2.4-.6 4.4-.6q0 4 .1 8.1 0 1.1 0 2.2c0 4.7-.3 9.1-1.1 13.7q-1.1-.2-2.3-.4-5.1-.8-10.2-1.6-1.8-.3-3.6-.6c-6-.9-11.8-1.6-17.9-1.4q-.5 2.5-1 5c3.5 2.3 6.3 3.5 10.3 4.1q1.5.3 3.1.5 1.5.3 3.1.5 3.1.5 6.2 1a31.35 31.35 0 0 1 2.7.5q3.8.6 7.6 1.4c-4.4 13.6-10.8 26.5-21.5 36.3-2.8 2.4-2.8 2.4-2.5 5.5.9 2.3.9 2.3 3 4.2-.7 6.5-6.7 11-11.4 14.9-25.8 19.8-55.3 26.6-87.4 26.4q-1.2 0-2.5 0c-12.1 0-23.9-.2-35.7-3.3l-2.3-.6c-11.8-3.2-23-7.6-33.7-13.4q-1.1-.6-2.3-1.2c-10.3-5.8-10.3-5.8-13.7-9.8-.7-3.3-.4-5.8.1-9.2.2-2.9.2-2.9-1.9-5.2-2.7-2.3-5.4-4.4-8.2-6.6-10.7-10.4-17.9-23.1-23-37q0-1 0-2c1.1-.2 1.1-.2 2.3-.3q5.1-.8 10.3-1.5c1.7-.3 1.7-.3 3.5-.5 6.1-.9 11.4-1.9 16.9-4.7q.1-2.5 0-5c-1.2-1.4-1.2-1.4-4.4-1.2-5 .1-9.8.9-14.7 1.7-5.4.9-10.5 1.7-15.9 1.5-1.3-4.9-1.1-9.8-1.1-14.8 0-1.3 0-1.3.1-2.7q0-3.2 0-6.5c3.7.7 7.2 1.6 10.7 2.8q1.6.6 3.3 1.1 3.4 1.2 6.7 2.3c5.6 1.8 10.4 3.3 16.3 2.8l-1-7q-1.2-.4-2.4-.8-4.4-1.4-8.8-2.9-2.8-.9-5.6-1.8c-5.8-2-11.6-3.9-17.2-6.5q.4-1.3.8-2.7c.6-1.8.6-1.8 1.1-3.5q.6-1.8 1.1-3.6.5-1.6 1-3.2.4-1 .8-2c.3-3.2-1.1-5.5-2.4-8.4-6.8-16.1-10.4-33.2-12.4-50.6q-.2-1.7-.4-3.4c-1.4-14.1-2.8-31.9 4.4-44.6 2.3-2.3 2.9-2.3 6-2.3 5.3.1 9.5 1.5 14.3 3.6q1.3.5 2.6 1c18.1 7.8 34.4 19.5 49.8 31.6q1.7 1.3 3.4 2.5a56.64 56.64 0 0 1 2.8 2.3c4.5 1.9 7.5.6 12.1-.7q2.4-.5 4.9-1c1.2-.3 1.2-.3 2.5-.5l2.5-.6q1.3-.2 2.6-.5c22.2-4.5 45.2-2.9 66.9 3.1 4.3.8 6.7.1 10.2-2.3 1.5-1.1 1.5-1.1 3-2.3q1.7-1.4 3.4-2.7 1-.8 1.9-1.6C371.6 380 371.6 380 391 383z" fill="#fa9400"/><path d="M545 163q.5 0 1 0v169h9c17.9 1.7 34.8 6.3 50.9 14.1q1 .4 2.1.9c4 2.1 6.1 3.9 8 8 2.3 4.3 4.8 8.1 7.8 12 8.2 11.3 13.9 23.4 17.2 37q.3 1.1.5 2.2c1.6 7.7 1.7 15.2 1.6 23q0 3.5 0 7-.1 10-.2 19.9-.1 6.2-.1 12.3 0 2.3-.1 4.6c-.2 17.6 1.5 35.7 12.1 50.2 1.2 1.8 1.2 1.8 1.2 3.8q-1 0-2 0-.3 1-.6 2c-2 4.4-5.1 7.5-8.4 11q-.9 1-1.7 2c-20.9 22.5-58.3 33.8-88.1 35.3-4.8.2-9.6.2-14.5.1q-1.2 0-2.5 0c-13.4 0-26.2-.9-39.2-4.4q-1.1-.3-2.2-.6c-19.5-5.2-37.5-14.1-52.8-27.4q-1-.9-2.1-1.8c-6.1-5.5-10-12.3-13.9-19.5q-1.3-2.2-2.6-4.4c-1.5-2.9-2.7-5.1-2-8.4q.5-1.1.9-2.2.4-1.1.8-2.4.5-1.1.9-2.3c5.8-16.8 6.7-34.2 7.9-51.8q.7-9.3 1.5-18.7.2-3.2.5-6.4c.5-7.1 1.3-14.1 2.6-21.1q.1-1.1.3-2.1c2.9-15.5 9.6-28.5 18.3-41.5 2.2-3.2 2.2-3.2 1.6-6.5.3-2.9.3-2.9 1.8-4.4 25.1-17.6 54.6-19.5 84.5-19.5V163z" fill="#d26c00"/><path fill-rule="evenodd" d="M772.1 79.9c10.2 7 16.4 15.5 20.9 27.1q.4 2.4.6 4.7.1 1.2.2 2.5l.2 1.8q.8 0 1.7 0 9-.2 17.9-.2 3.3 0 6.6-.1 4.8-.1 9.6-.1 1.5 0 3-.1c6.4 0 11.8.8 17.2 4.5q1.4 1.8 2.7 3.7c2 2.6 3 3.2 6.2 3.9 3.7.3 7.4.3 11.2.2q2 0 4.1.1 5.4 0 10.9-.1h17.4q3 0 6 0c13.2 0 22.2 2.9 33.3 10 10.5 10.5 12.7 22.5 12.7 36.7q0 2.9 0 5.7 0 3.1 0 6.2 0 8.5 0 17 0 9.2 0 18.3 0 15.9 0 31.8 0 16.6 0 33.3v2.1q0 4.2 0 8.4 0 39.5-.1 78.9 0 35.1 0 70.1 0 2.3 0 4.5 0 1.1 0 2.3 0 5.6 0 11.2 0 1.1 0 2.2 0 29.3 0 58.6 0 1-.1 2.1 0 4.2 0 8.4 0 14.5 0 29.1 0 18.8 0 37.6 0 9 0 18.1 0 8.3 0 16.6 0 3 0 6 0 4 0 8.1 0 1.2 0 2.4c-.1 12.1-4.1 22.3-12.4 31.3-7.7 7.4-17.7 11.3-28.3 11.3q-2 0-4 0-2.2 0-4.4 0-2.3 0-4.6 0-6.2 0-12.5 0-6.5 0-13.1 0-12.4 0-24.8 0-14.1 0-28.2 0-29-.1-58-.1-1.9-3.6-3.9-7.3c-.5-1-.5-1-1.1-2q-.5-1-1.1-2-.4-.9-.9-1.9-1.6-2.9-3-5.8 1.2 0 2.5 0 30.2-.1 60.3-.2 14.6 0 29.2-.1 12.8 0 25.5-.1 6.7 0 13.4 0 6.4 0 12.7 0 2.4-.1 4.7 0c13.8.1 13.8.1 25.7-6.4 4.7-5.2 5.1-9.5 5.1-16.4q0-1.2 0-2.5 0-4.3 0-8.6 0-3.1 0-6.2.1-8.5.1-17 0-9.2 0-18.4 0-21.1 0-42.3 0-10.4 0-20.8 0-35.8 0-71.5 0-2.3 0-4.5 0-2.2 0-4.5 0-4.5 0-9 0-1.1 0-2.3 0-36.3.1-72.5 0-38.4 0-76.7 0-4.2 0-8.5v-2q0-16.7.1-33.4 0-16.8 0-33.6 0-9 0-18.1 0-8.4 0-16.7 0-3 0-6 0-4.1 0-8.2v-2.3c-.1-4.8-.9-8.1-3.4-12.2-5.9-5.6-11.2-6.3-19-6.4h-2.7q-4.2-.1-8.4-.2-5.5-.1-11-.2-1.4 0-2.8 0c-9-.2-18.1-.7-27.1-1.2q0 .9 0 1.8.1 2.4.2 4.9.1 2.5.2 5.1c0 5.9-1.1 10.3-4.4 15.2-5.5 5.4-10.7 6.3-18.2 6.3q-1.2 0-2.5 0-4.1 0-8.3 0-3 0-5.9 0-8.1 0-16.1 0-6.8 0-13.5.1-15.9 0-31.7 0-16.4 0-32.8 0-14 .1-28.1.1-8.4 0-16.8 0-7.9 0-15.8 0-2.9 0-5.8 0-3.9 0-7.9 0-1.1 0-2.3 0c-5.5 0-9.7-1.5-14.3-4.5-3.9-4.1-5.1-7.3-5.1-12.9v-2.8-3q0-1.5.1-3 0-3.6 0-7.3-13.5.1-27 .2-6.2 0-12.5.1-6 0-12.1.1-2.3 0-4.6 0c-11.5 0-11.5 0-21.8 4.6-5 5.2-6.2 9.9-6.3 17q0 1.1 0 2.1 0 3.5 0 7 0 2.5 0 5-.1 6.8-.1 13.5 0 7.1-.1 14.2 0 13.4-.1 26.8 0 15.3-.1 30.6-.2 31.4-.3 62.8h-19q-.1-33.8-.2-67.5 0-15.7-.1-31.4-.1-13.7-.1-27.3 0-7.3 0-14.5-.1-6.8-.1-13.7 0-2.4 0-4.9c-.1-14.2 2.3-24.3 12.5-34.7 10.2-8.6 20.6-10.6 33.6-10.4q3.6 0 7.2 0 10.4 0 20.7.1 6.3.1 12.7.1 2.4 0 4.8 0c8.4.5 8.4.5 16.1-2.3 1.5-1.8 1.5-1.8 2.7-3.7 2.3-3.3 5.4-4.7 9.2-5.8 3.9-.5 7.8-.5 11.7-.4q1.7 0 3.3 0 5.3.1 10.5.1 3.6.1 7.1.1 8.7.1 17.4.2.1-.9.2-1.9.1-1.2.2-2.4.2-1.2.3-2.5c1.3-9.7 8.8-19.9 16.4-25.8 18.2-12.5 40.6-15.3 60-3.5zM732 108c-2.7 2.9-3.9 4.8-4.3 8.8-.1 6.8.7 10 5.3 15.2 3.4 2.9 6 4.3 10.4 4.5 6.2-.3 10.7-2.6 15.1-7 2.2-5.1 2-10 1.5-15.5-2.6-5.1-5.8-8-10.9-10.3-6.9-2.4-11.7-.1-17.1 4.3z" fill="#003a55"/><path d="M849.3 851.8l3.3.6q4.7.8 9.4 1.6l2.3.4c9.3 1.6 21.4 4 28.1 11.1 1.6 2.5 1.6 2.5 1.9 5.4-3.2 7.9-11.3 11.5-18.7 14.7-27.6 10.8-57.5 14.5-86.6 18.4q-1.1.1-2.2.3c-22 2.9-44.2 4.6-66.3 6.3q-1 .1-2 .2c-35.8 2.8-71.6 4.6-107.4 5.8q-1.4.1-2.8.1c-49.4 1.7-98.9 1.7-148.3 1.3h-2.4c-32.8-.3-65.6-1.3-98.4-2.8q-4.9-.3-9.8-.5C139 905 139 905 105.5 875.7c-1.7-1.9-2.2-3.1-2.5-5.7 3.1-6.9 9.3-10 16-12.7 5.1-1.8 10.4-2.9 15.7-4.1 1.4-.3 1.4-.3 2.9-.7 6-1.2 11.4-1.7 17.4-1.5a14.81 14.81 0 0 1 .3 1.9c1 5 2 8.4 5.7 12.1 6.2 3.1 14.8 2.1 21.6 2.1h2.9q3.1 0 6.2 0 4.7 0 9.4 0 3 0 6 0 1.4 0 2.8 0 1.3 0 2.7 0 1.1 0 2.3 0c2.1-.1 4-.6 6.1-1.1q3.5-.1 7.1-.1 1 0 2.1 0 2.1 0 4.2 0 3.3 0 6.6 0 2.1 0 4.2 0h3.8c3 .1 3 .1 5 1.1q2.5.1 5 .1 1.5 0 3.1 0h3.4q1.7 0 3.4 0 3.7 0 7.3 0 5.6 0 11.1 0 3.6 0 7.1 0 1.7 0 3.4 0 1.5 0 3.1 0 1.4 0 2.8 0c2.5 0 2.5 0 5.3-1.1q4.3-.2 8.5-.3 1.3 0 2.7 0 4.3-.1 8.6-.1 1.5 0 3-.1 7.8-.1 15.6-.2 8.1-.1 16.1-.2 6.2-.1 12.4-.2 3 0 6-.1 4.2 0 8.3-.1 1.2 0 2.5 0c5.8 0 5.8 0 8.7 1.8 4.1 2.4 8.3 1.9 13 1.8q1.5 0 3.1 0 5.2 0 10.3 0 3.6-.1 7.2-.1 9.4 0 18.8-.1 15.1 0 30.2-.1 5.3 0 10.6 0 3.2-.1 6.4-.1 1.5 0 3 0 1.4 0 2.7 0 1.2 0 2.4 0c1.9.1 1.9.1 3.9 1.1q2.5.1 5 .1 1.6 0 3.2 0 1.7 0 3.5 0 1.7 0 3.5 0 3.7 0 7.4 0 5.7 0 11.4 0 3.6 0 7.2 0 1.7 0 3.4 0h3.2q1.4 0 2.8 0c2.6 0 2.6 0 5.4-1.1q2.3-.1 4.6-.1 1.4 0 2.9 0h3 3.1q3.3 0 6.6 0 5 0 10.1 0 3.1 0 6.3 0 1.5 0 3.1 0h2.8q1.2 0 2.5 0c2 .1 2 .1 4 1.1q2.5.1 5.1.1 1.6 0 3.2 0 1.8 0 3.6 0 1.8 0 3.7 0 5 0 10.1 0 3.1 0 6.2 0l56.9-.4q3.5-.1 7-.1 4.8-.1 9.7-.2 1.4 0 2.8 0c7-.2 14.3-.4 20-4.6 4.2-2.7 8.1-1.5 12.7-.5 1.5.4 1.5.4 3 .7 19.9 3.9 41.4-.5 58.5-11.4 8.7-5.2 19.4-2.4 28.8-.8z" fill="#f8d391"/><path d="M644 265h196l1.2 92.6q.1 6.9.1 13.8 0 5.5 0 10.9 0 2.6 0 5.1.1 3.5.1 7v4c-.5 4.8-1.9 8.2-5.4 11.4-3.5 2.1-6.5 2.3-10.5 2.4q-1.7.1-3.5.1-1.9 0-3.8.1-2 0-4.1.1l-36.8.5q-12.3.1-24.7.3-10.8.3-21.6.3-5.7.1-11.4.2c-23.1.7-23.1.7-28.9-3.5-3.7-3.9-5.9-8.3-7.8-13.3-3.4-7.7-10.7-14-16.5-20q-.8-.8-1.6-1.6c-6.4-6.4-13.3-10.9-20.8-16.4v-94z" fill="#fdebc9"/><path d="M263.3 130.1c4.4 2.5 7 4.6 9.7 8.9q.6 2.3 1.2 4.6c.8 2.9 1.3 4.1 3.9 5.7q2.6.9 5.2 1.8C296 155.5 304 166.6 310 178c4.5 10 5.4 20.6 6.4 31.4 1.8 18.4 5.9 39.8 20.6 52.6q2.5 1.5 5 3c3.9 4.6 5.4 9 5 15-1.6 5.3-4.3 9.1-9 12-4.4 1.7-8 2.3-12.7 2.3q-.9 0-1.9 0-3.2 0-6.5 0-2.3 0-4.6 0-6.3.1-12.5.1-4 0-7.9 0-13.7 0-27.4 0-12.8 0-25.5.1-11 .1-22 .1-6.5-.1-13.1 0-6.1 0-12.3 0-2.2 0-4.5 0c-15.1.2-15.1.2-21.1-5.6-3.3-3.8-4.7-7.9-4.4-13 .7-3.8 2.1-6.9 4.4-10q2.5-1.7 5-3.3c14.6-12.6 19.6-35.4 21-53.6 1.6-20.5 6.2-37.7 22-52.1 4.5-3.4 8.8-6.4 14.2-7.9 2.9-.8 2.9-.8 4.1-3.3q.4-1.3.8-2.6c2.4-7 6.6-10.4 12.9-14.2 6.1-2 11.4-1.6 17.2 1.1z" fill="#fb9300"/><path d="M681.5 209.4q1.1 0 2.3 0c2.2.6 2.2.6 6.2 5.6v15h108v-15c4-5 4-5 6.2-5.7q1.1.1 2.3.1 1.1 0 2.3-.1c3.3 1 4.3 2.8 6.2 5.7.3 2.8.4 5.1.3 7.8q-.1 1-.1 2.1-.1 2.6-.2 5.1 1.5 0 3.1 0 5.8-.1 11.5-.2 2.5 0 5 0 3.6-.1 7.2-.1 1.1 0 2.2 0c4.8 0 8 .8 12 3.3 5.6 5.8 7.2 10.8 7.3 18.8q0 1 0 2 0 3.3 0 6.6 0 2.4 0 4.8 0 6.4 0 12.8 0 5.4 0 10.8 0 12.7 0 25.4 0 13 0 26.1.1 11.3.1 22.5 0 6.7 0 13.4 0 6.3 0 12.7 0 2.3 0 4.6c0 11.7-.8 21.3-9 30.3-7.9 7.5-16.7 9.7-27.3 9.6q-1.9 0-3.7 0-2-.1-4-.1-5.4 0-10.8-.1-5.6-.1-11.2-.1-10.7-.1-21.3-.3-12.1-.1-24.3-.2-24.9-.3-49.8-.6l-8-18c32-.9 64-1.1 96.1-1.1q1.5 0 3 0 19 .1 37.9.1 0-1 0-2 1.4-.6 2.8-1.1c3.7-2.2 4.6-4 6.2-7.9q1 0 2 0-.2-21.9-.3-43.8-.1-10.2-.2-20.3-.1-9.9-.2-19.7 0-3.7 0-7.5 0-5.3-.1-10.5 0-1.5 0-3c-.1-11.1-.7-22.1-1.2-33.2H644l-1 94q-2-1-4-2-2.7-1.3-5.4-2.5-1.4-.6-2.8-1.3L623 349q-.3-21.2-.6-42.3-.1-9.9-.3-19.7-.1-9.5-.2-18.9-.1-3.7-.1-7.3-.1-5-.2-10.1 0-1.5 0-3c-.1-5.8.5-9.2 4.4-13.7 5.5-4.1 9.7-4.6 16.4-4.4q1.3 0 2.7 0 4.2.1 8.3.1 2.9.1 5.7.1 7 .1 13.9.2-.1-1.7-.1-3.4-.1-2.2-.1-4.4-.1-1-.2-2.2c0-3.6.1-5.6 2.3-8.5 2.4-1.7 3.7-2.1 6.6-2.1z" fill="#003a55"/><path fill-rule="evenodd" d="M456 351c2.4 1.6 2.4 1.6 4 4-.2 5.8-3.1 9.7-6.2 14.4-11.3 17.9-14.9 35.8-16.8 56.6q-.3 2.7-.5 5.4-1.3 13.4-2.2 26.8c-2.5 34.6-2.5 34.6-8.2 48-1.2 2.9-2 5-1.8 7.5q-.1-.3-.3-.7-1 0-2 0-2 2-4 4c-7.5 4.6-15 8.7-24 7l-6-2c-2.4.8-4.8 1.5-7.3 2.3-20.4 6.4-20.4 6.4-26.7 5.7-2-2-2-2-2.1-4.9 1.1-3.1 1.1-3.1 4-4.6 5-1.9 10.1-3.3 15.3-4.7l3-.8 2.8-.8q1.3-.3 2.6-.7c2.4-.5 2.4-.5 6.4-.5q-.5-1.8-1.1-3.6-.6-2.3-1.3-4.7-.4-1.1-.7-2.3-.4-1.1-.7-2.3l-.6-2.1q-.3-1-.6-2-.3-1-.6-2.1c-.6-3.1.9-5.3 2.2-8.2 6.5-15.2 9.9-32.3 12.4-48.7q.3-1.9.6-3.8c.5-4.5.3-8.9 0-13.4-1.4-27.8-1.4-27.8 4.9-35.2 2.4-2.3 5-4.3 7.7-6.3 2.6-1.9 4.7-4.3 6.9-6.7 9.9-9.8 26.1-22.1 40.9-20.6zm-30.8 166q1 2 2.2 3.9.5 1.1 1.1 2.1c3.1 5.6 6.6 10.9 10.5 16-5.4-7.2-9.6-14.7-13.5-22.9-.6-1.2-.7-1.5-1.2-2.4.1 1 .4 2.1.9 3.3zm15.8 25q-.7 1.4-1.5 2.9l1.5-2.9zm-82.5 9.1q-1.2-.2-2.4-.4l2.4.4z" fill="#01334e"/><path d="M741.3 283.6q1.4 0 2.8 0c11.7.3 21.3 3.6 30.9 10.4q1 .7 2.1 1.4c9.3 7.3 17 20 18.9 31.6 1.6 17.5-1.1 31.5-12 45.6-9.1 10.8-22 17.6-36 19.4-16.4 1.3-30.8-3.7-43.4-14.3-10.4-10-16.5-23.3-16.9-37.8-.3-16.8 5-29.2 16.5-41.6q15.6-15 37.1-14.7z" fill="#013954"/><path d="M538.5 445.6q1.6 0 3.2 0c9.3 0 17.9 1.4 25.3 7.4 4.5 5.1 5.4 8.2 5.3 15-.8 7.5-5 13.5-10.4 18.5-5.2 4.1-10.3 6-16.9 6.5 2.1 8.8 4.2 15.8 12 21 7.1 4.3 13.8 5.1 22 4 8.3-2.2 14.8-6.1 20-13 1.5-2.6 2.8-5.2 4-7.9 1-2.1 1-2.1 3-4.1 3 .2 5.3.6 7.9 2.1 1.5 2.6 1.3 4.7.8 7.6-2.7 9.1-9.5 17.1-17.5 22-3 1.6-6.1 3-9.2 4.3q-1.2.5-2.4 1c-9.4 3.4-20.6 3.5-30 .1-6.1-3-10.8-7.3-15.6-12.1q-1-1-2-2-1.1 1.5-2.3 3.1c-5.6 6.4-14 12.2-22.7 13.1-9.6.5-18.3.3-27-4.2q-1.3-.7-2.6-1.3c-10.1-5.6-17.8-13.4-21.4-24.7.2-3.2.2-3.2 1-6 3-2 3-2 5.9-2.6 3.1.6 3.1.6 4.4 2.1 1.3 2.1 2.5 4.3 3.7 6.5 4.8 7.8 10.8 11.5 18.9 15.4 9.5 1.9 17.7.6 25.9-4.5 6.8-5.2 8.8-11.9 10.2-19.9q-.8-.1-1.7-.2c-8.7-1.5-14.6-6.2-20-13-4-5.7-5.2-11.9-4.3-18.8 1.8-5.5 5.2-8.9 10-12 7.3-3.2 14.6-3.5 22.5-3.4z" fill="#021c30"/><path d="M557 703c1.6 1.6 1.2 3.1 1.2 5.3-.1 6-.9 11.7-1.9 17.6-.3 1.7-.3 1.7-.5 3.4q-.9 5.3-1.8 10.7l-.6 3.4c-2.5 15.6-5.8 31.1-9.5 46.5-2.1 8.7-4.1 17.5-5.5 26.5-.6 3-1 5.1-3.1 7.5-2.7 1.3-5.3 2.4-8.1 3.5-9.7 4-14.5 8-19.2 17.6-2.9 7.7-2.6 14.3 0 22l9 1q0 .5 0 1H409c-3.4-10.2-1.4-23.5 3-33q1.9-2.6 4-5 3 .5 6 1c1.1 4 .9 6.1-.9 9.9-3.5 8.4-4.3 17.3-2.1 26.1h16q-.5-1.5-1-3c-.5-11.7-.4-22 6.9-31.5 2.6-1.9 4-2 7.1-1.5l2 2c-.2 4.4-1.2 7.4-3.1 11.4-3.1 7.2-2.2 14.9-1.9 22.6q4.6-.2 9.1-.4c1.3 0 1.3 0 2.6-.1 4.8-.2 8.9-.6 13.3-2.5 4.7-5.7 5.3-14.1 6-21.2l.2-2.4q.4-3.9.8-7.7.1-1.4.3-2.7c2.5-26.5 3.6-52.9 4-79.4v-2.2q.2-10.6.3-21.3 0-4.9.1-9.9 0-1.8 0-3.6 0-1.7 0-3.4 0-1.4 0-2.9c.3-2.3.3-2.3 2.3-4.3 3-.2 3-.2 6 0 2.8 2.8 2.3 4.3 2.3 8.2q0 1.9 0 4 0 2.1 0 4.3 0 2.3 0 4.5 0 6.1 0 12.2 0 3.7 0 7.5c0 26.4-.7 52.6-3.1 78.9q-.3 3.5-.6 7-.5 6.1-1.1 12.1c-.2 1.7-.2 1.7-.3 3.4-.8 6.9-2.2 13.3-4.2 19.9l15 1q-1-3-2-6c-1.4-12.7 2-22.5 9.7-32.5 3.8-4.2 8.8-8.7 14.5-10 2.9-.7 4.5-1.5 6.8-3.5 2.3-5.7 3.2-11.5 4.2-17.5q.5-2.6 1-5.2 1-5.2 1.9-10.5c1-5.2 2.1-10.3 3.3-15.5 3.3-14.3 5.5-28.7 7.5-43.2q.2-1.3.4-2.5.3-2.3.6-4.6c.7-4.7 1.9-8.7 4.1-13 2.7-1.3 4.2-.7 7 0z" fill="#a94c00"/><path d="M698 687c2 3 2 3 1.8 5.6-.8 2.4-.8 2.4-2.8 4.4l-7.4 1.8c-16.3 3.8-28.9 12.4-38.1 26.6-11.2 19-15.8 39.8-10.5 61.6 2.8 9.9 7.5 20.7 16 27 3.2 1.3 6.4 2 9.8 2.7q2.5.6 5.1 1.2 1.1.3 2.2.5c1.9.6 1.9.6 3.9 2.6.3 3 .3 3 0 6-3.9 2.6-6.6 1.9-11 1q-1.8-.5-3.6-1c-11.2-2.8-25.7-2.9-36 2.5-8.2 5.2-13.3 11-16.4 20.5-.6 4.4-.9 8.6 0 13l4 5h-43l5-10c1.2-3.5 1.2-3.5 1.9-7q.2-.9.4-1.9.4-2 .9-4 1.2-5.7 2.5-11.3.3-1.1.5-2.3c2.3-9.6 4.8-19.1 7.4-28.6q1.4-5.3 2.9-10.5.3-1.2.6-2.5c3.6-13 6.8-26 9.7-39.2q.3-1 .5-2.1 1.2-5.3 2.3-10.6c.5-1.9.5-1.9.9-3.9q.3-1.7.7-3.4c.8-2.7.8-2.7 2.8-4.7 3-.2 3-.2 6 0q1 1 2 2c-.3 9.9-3 19.6-5.2 29.2q-.6 2.7-1.2 5.4c-3.4 14.9-7 29.6-11.3 44.2q-.9 3.1-1.7 6.1-.5 1.5-.9 3.1c-2.9 10.3-5.1 20.7-7.3 31.2-1.4 6.5-2.8 12.7-5.4 18.8l15 1-1-2c-1-13.4.3-23.8 9.3-34.4 9-9.3 19.9-14.4 32.7-16.6q-.5-.7-1.1-1.4c-12.4-17.3-15.1-38.3-12.6-59.1 3.4-20.4 13.9-40.2 30.3-53.1q.9-.7 1.9-1.4c5.2-3.9 10.4-6.8 16.5-9l2.5-1c6-2 12.2-3.1 18.5-2z" fill="#a94d00"/><path d="M406 689c1 1 1 1 1.4 3.8-.4 3.2-.4 3.2-2.6 5.2q-4 2.9-8.1 5.7c-17.7 12.8-27.8 34-31.2 55.2-.3 2.7-.4 5.4-.5 8.1q-.1 1.6-.2 3.3c-.4 15.2 2.6 30.4 12.4 42.4 1.8 2.3 1.8 2.3 1.7 5-.9 2.3-.9 2.3-2.9 4.3q-3.2.3-6.5.4c-9.1.5-17.8 3.1-24.5 9.6-5.2 6.5-9.3 12.3-9.4 20.9 0 1.5 0 1.5-.1 3 .4 4 .4 4 4.5 10.1h-28q0-1 0-2 .9-.9 1.9-1.7c3.6-3.9 4.3-8.8 5-14q.3-1.7.5-3.4.3-1.9.6-3.8c4.3-28.1 10.6-55.9 16.9-83.6q.4-1.8.9-3.6c1.3-5.8 2.7-11.5 5.2-16.9 3.2-1 3.2-1 6-1 3 3.4 3 3.4 3 6.1-.2 1.2-.2 1.2-.5 2.4-.3 1.5-.3 1.5-.7 3q-.4 1.7-.8 3.5-.5 2.2-1 4.3-1.5 6.4-3 12.7l-14 64q.6-.7 1.2-1.4c6.8-8.1 14.6-14.4 24.8-17.6 3.3-.1 3.3-.1 6 0q-.6-1.1-1.2-2.2c-10.5-21.1-12.9-47.3-5.5-69.8 7.7-22 21-39.9 41-52 3.1-1.1 4.6-1.1 7.7 0z" fill="#d56c00"/><path d="M823.2 596.9c8 4.6 12.9 12.1 18.2 19.4l1.3 1.7c4.4 6.3 6.4 11.4 5.3 19-2.5 5.1-6.6 9.6-11.9 11.8-5 .5-9 .3-13.8-1.3-8.7-2.8-16.4-2-25 .9-5 1.3-8.9.3-13.5-2-4.2-3.6-7.3-7.1-8.1-12.8.4-12.2 10-20.8 18.3-28.6q1.3-1.3 2.6-2.6c7.8-7.7 16.3-10.1 26.6-5.5z" fill="#013954"/><path d="M230 724c3 .2 3 .2 6 1 2 3 2.3 3.8 2.5 7.3q.1 1.3.2 2.6 0 1.4.1 2.9.1 1.5.2 3.1.3 5 .6 10 .1 1.7.2 3.4c1.4 26.2 1.9 52.5 2.2 78.7q.7-.8 1.4-1.6.9-1.1 1.9-2.2.9-1.1 1.9-2.1c6.2-7 13.1-10.7 21.8-14.1q1 0 2 0c.1-1 .1-1 .1-2 .7-9.7 2.2-19.3 3.6-28.9q.2-1.3.5-2.6 1.4-9.3 2.8-18.5.2-1.2.4-2.4 1.1-7.4 2.3-14.9.3-1.8.7-3.7.2-1.7.5-3.5.3-1.4.5-2.9c.6-2.5 1.2-4.4 2.6-6.6 2.9-.9 2.9-.9 6-1 1.7 1.2 1.7 1.2 3 3 1 9.3-2.6 20.4-4.3 29.6-3 16.9-5.7 33.7-7.5 50.8q-.2 1.9-.4 3.8c-.2 1.6-.2 1.6-.3 3.3-.5 2.5-.5 2.5-2.5 4.5q-2.7.9-5.5 1.7c-10.6 3.5-19.4 8.7-24.8 18.7-2.4 5.4-3.8 10.7-2.7 16.6l3 7h-24l4-7c1.2-3.9 1.1-7.7 1.1-11.8q.1-1 .1-2 0-3.3 0-6.6 0-2.4 0-4.7 0-5 0-9.9 0-5 0-9.9c.1-19.3-.2-38.5-1.5-57.8-.5-7.2-.8-14.5-.9-21.7q0-1.1 0-2.2c0-1.8.1-3.6.2-5.4q1-1 2-2z" fill="#d66c00"/><path d="M742.2 472.4q1.9 0 3.8-.1 2.1.1 4.2.1 2.2 0 4.3-.1 6 0 11.9.1 6.3 0 12.5 0 10.4 0 20.9 0 12 0 24.1 0 11.6 0 23.2 0 5 0 9.9 0 5.9 0 11.7.1 2.1 0 4.2 0 3-.1 5.9 0h3.3c3.6.6 5.3 1.9 7.9 4.5.6 3.4.6 3.4 0 7-2.5 3.1-4 4.8-7.9 5.6q-1.7 0-3.3 0-1.9.1-3.8.1-2.1 0-4.2-.1-2.2.1-4.3.1-6 0-11.9 0-6.3 0-12.5 0-10.4 0-20.9 0-12-.1-24.1 0-10.4 0-20.7 0-6.2 0-12.4 0-5.9 0-11.7 0-2.1-.1-4.2 0-3 0-5.9-.1-1.6 0-3.3 0c-3.9-.8-5.4-2.5-7.9-5.6-.6-3-.6-3 0-6 3.5-4.3 5.7-5.6 11.2-5.6z" fill="#00334e"/><path d="M741.2 512.4q1.9 0 3.8-.1 2.1.1 4.3.1 2.2 0 4.4-.1 6 0 12.1.1 6.3 0 12.6 0 10.6 0 21.2 0 12.3 0 24.5 0 11.8 0 23.6 0 5 0 10 0 5.9 0 11.9.1 2.1 0 4.3 0 3-.1 5.9 0h3.4c3.5.6 4.7 1.7 6.8 4.5.7 4.1.5 6.1-1.7 9.7-4.5 4.2-11.6 3-17.4 2.9q-2.2 0-4.3.1-5.9 0-11.8-.1-6.2 0-12.4 0-10.4 0-20.7 0-12 0-24 0-11.6 0-23.1 0-4.9 0-9.8 0-5.8 0-11.6-.1-2.1 0-4.2 0-2.9.1-5.8 0-1.6 0-3.3 0c-3.6-.6-5.3-1.9-7.9-4.5-1.1-3.4-1.1-3.4-1-7 2.8-4.7 4.8-5.6 10.2-5.6z" fill="#00354f"/><path d="M359 595c4.7 5.4 4.7 5.4 5 9-10.2 17.5-36.5 28.7-55.2 33.8-14.4 3.7-28.7 4.6-43.5 4.5h-2.6c-12.1 0-23.9-.2-35.7-3.3q-1.1-.3-2.3-.6c-18.6-5-34.3-13.1-49.7-24.4l1-11q1.8 1 3.6 2 1.3.7 2.5 1.4 3.1 1.7 6.1 3.5c19.9 11.9 42.9 18.1 66.2 18.3q1.2.1 2.4.1c16.7.1 32.9.2 49.2-4.3q1.3-.4 2.6-.7c16.8-4.7 32.2-11.9 45.3-23.6 2.1-1.7 2.1-1.7 5.1-2.7q0-1 0-2z" fill="#c35f00"/><path d="M267.4 519.8q1.1-.1 2.2-.1c6-.1 10.8 1 15.4 5.1 1.5 3.4 1 5.6 0 9.2-3.4 5.3-7.2 7.6-13 10-.5 5.3.7 7.9 4 12 5.7 5.3 10.7 6.4 18.4 6.2 6.1-.5 8.8-3.4 12.7-7.9q.9-1.2 1.9-2.4c2-1.9 2-1.9 4.6-2.3 2.4.4 2.4.4 4.4 2.4.8 5-.7 8-3.5 12-5.2 6.7-11.3 10.1-19.5 12-6.9.8-12.9.6-19-3-2.1-1.8-4.2-3.6-6.2-5.6-1.8-1.7-1.8-1.7-4.8-1.4-1.8 1.2-1.8 1.2-3.6 2.8-7.5 5.8-15.1 7.1-24.4 6.2-8.7-1.5-15-5.6-20.9-11.9-2.4-3.5-3-5.9-3.1-10.1 2-2 2-2 4.4-2.4 3.5.5 4.6 2 7 4.7 5 5.3 8.2 7.4 15.5 8.1 6.4-.3 12.7-2.7 17.1-7.4 2-4.4 3-8.2 3-13-1.8-1.6-1.8-1.6-4.2-2.9-4.9-3-8-5.9-9.4-11.7.8-3 2.3-4.4 4.7-6.4 4.9-2.6 10.9-2.2 16.3-2.2z" fill="#033253"/><path d="M379 406c3.4 3.4 3.1 7.5 3.2 12.1-.1 5.9-.8 11.5-1.8 17.3q-.3 1.5-.6 3.1c-2.1 12-5 24.3-9.8 35.5q-1 0-2 0-1.8-2.3-3.4-4.8c-9.2-12.8-20-23.1-33.6-31.2 3.4-4.7 7.5-8.3 12-12q.8-.7 1.6-1.4c6.9-5.9 13.8-11.2 22-15.4q1-.5 2-1c3.6-1.7 6.5-2.8 10.4-2.2zm-225.1 2.2c11.8 3.3 22.1 13 31.5 20.5q3.5 2.8 7 5.5 1 .8 2.1 1.7.8.5 1.5 1.1c-1.2 3.5-1.7 3.7-4.8 5.5-10.7 6.9-19.5 15.3-27.2 25.5q-.9 1.2-1.9 2.5-2.1 2.7-4.1 5.5c-2.3-3.4-3.3-6.7-4.4-10.6q-.3-1.1-.6-2.2c-3.9-13.8-7.1-27.6-7.3-41.9q-.1-1.2-.1-2.5c-.1-6.1-.1-6.1 2.2-9.4 2.2-1.4 2.2-1.4 6.1-1.2z" fill="#db7100"/><path d="M227 294h55c0 9.8-1.5 15.8-7.9 23.2-7.5 7-14.6 8.4-24.8 8.1-8.1-.8-12.5-4.8-17.6-10.9-4.9-6.8-4.7-11.6-4.7-20.4z" fill="#013955"/><path d="M839 550c4 2.3 6.5 4.6 8 9 .9 7.7.2 13.4-4.2 19.9-3.3 4-6.1 6.6-11.3 7.5-4.2.2-6.8 0-10.5-2.1-4.1-4.7-4.4-9.4-4.3-15.4.7-6.5 3.8-12.3 8.3-16.9 4.5-2.7 8.9-2.9 14-2z" fill="#033751"/><path d="M496.7 407.4c5.9 4.1 10.2 9.6 12.3 16.6.3 3 .5 6 0 9-2 2-2 2-4.9 2.4-3.1-.4-3.1-.4-4.7-2.4q-.7-1.5-1.4-3c-3.4-6.5-3.4-6.5-9-11-4.9-.6-6.9-.6-11.2 1.9-3.3 3.1-5 7-6.8 11-1 2.1-1 2.1-2 3.1-4 .3-5.6.3-9-2-1.3-7.6 1.9-13.7 6-20 8.6-9.7 19.1-12.1 30.7-5.6z" fill="#032f4e"/><path d="M605.3 406.5c7.4 4.4 11.5 10.9 14.1 18.9.8 3.3.9 5.5-.4 8.6-2.3 1.9-3.6 2-6.6 1.9-4.3-1.6-5.5-5-7.3-9-1.6-3.2-2.8-5.3-6.1-6.9-3.9-1-6.3-1.2-10.1-.1-4.4 3.2-6.8 7.4-8.8 12.3-1.1 1.8-1.1 1.8-4.5 2.7-3.6.1-3.6.1-5.6-.8-1.9-4-.7-8.1.7-12.1 3-6.9 8.2-12.1 14.6-16 6.6-1.8 13.6-2.3 20 .5z" fill="#042f4e"/><path d="M797 549c5.5 2.7 8.3 6.7 11 12 1.2 3.6 1.2 6.6 1.3 10.4q0 1.9 0 3.9c-.3 3.9-1 5.7-3.3 8.7-4.3 2.9-8 2.6-13 2-5.9-2.6-8.5-7.3-11-13-1.9-6.1-2.1-12.8.7-18.5 4.4-4.8 7.7-6.3 14.3-5.5z" fill="#023751"/><path d="M863 580c3 1.7 5.4 3.8 7 7 .7 7.1.4 13.1-4 19-4.1 4.2-7.4 6.2-13.3 6.4-4.2 0-5.3-.1-8.8-2.8-3.5-4.8-3.5-8.8-2.9-14.6 2.1-6.9 6.1-10.3 11.9-14.3 3.4-1.1 6.6-1.4 10.1-.7z" fill="#023651"/><path d="M743 303c2.4 2.4 3 3.7 3.3 7.1q0 1.8 0 3.6 0 2 0 4-.1 2-.1 4.1 0 2-.1 4.1 0 5-.1 10.1.8 0 1.7 0 3.8-.1 7.5-.2l2.7-.1c6.4 0 6.4 0 9.7 1.6 1.4 1.7 1.4 1.7 1.9 4.7-.5 3-.5 3-2.2 4.7-4.5 2.5-9.7 1.8-14.7 1.8q-1.7 0-3.5.1-1.6 0-3.3 0-1.5 0-3 0c-4-.9-5.4-2.3-7.8-5.6-.5-3-.7-5.5-.6-8.5q0-1.2 0-2.4 0-2.6.1-5.1 0-3.9 0-7.8 0-2.5 0-5 0-1.2 0-2.3c.1-5.4.1-5.4 1.9-7.9 2.4-1.5 3.8-1.5 6.6-1z" fill="#f9edcf"/><path d="M772 576c5.4 3.2 9.3 7.9 11 14 1.3 11.1 1.3 11.1-1.9 15.8-2.8 2.9-4.4 3.4-8.3 3.5-4.7-.1-7.2-1.1-10.8-4.3-4.3-5.1-6.1-9.1-6.2-15.9-.1-1.5-.1-1.5-.1-3.1.5-4.4 2.1-7 5.5-9.9 3.8-1.5 6.9-1.4 10.8-.1z" fill="#023650"/><path d="M331.1 487.8c5.1 3.2 8.8 6.3 10.9 12.2.3 2.8.2 5.1 0 8-2 2-2 2-4.3 2.5-3.4-.6-4.4-2.2-6.4-4.8-2.3-3.1-4.9-6-8.3-7.7-4.7-.4-9.3-.6-13.8.9-2.2 2.1-3.5 4.1-5.1 6.7-2.7 4.3-2.7 4.3-6.4 5.6-2.7-.2-2.7-.2-4.7-2.2-1-4.9-.4-9 2.1-13.3 8.2-11.6 23.4-14.6 36-7.9z" fill="#043053"/><path d="M228 489c4.4 3.3 8.9 6.8 11 12 .3 3.7.3 3.7 0 7-2 2-2 2-4.3 2.6-4.3-.9-6.1-4.2-8.7-7.6-3.8-4.2-5.8-4.8-11.3-5.3-5.1.4-8.9 1.3-12.4 5.2-1.5 2-2.9 4-4.3 6.1-1 1-1 1-3.4 1.2-2.6-.2-2.6-.2-4.5-1.3-1.1-1.9-1.1-1.9-1.2-5.1 1.8-6.5 5.4-11 11-14.7 9.7-5.4 18.7-5.7 28.1-.1z" fill="#053252"/><path d="M528.7 836.2c2.3.8 2.3.8 3.3 1.8.7 4.4-.4 7-2.5 10.8-3.8 7.1-2.8 12.4-1.5 20.2l13-1q-.5-1.5-1-3c-.8-9.2-.1-17 5.2-24.8 1.2-1.4 1.2-1.4 3.8-3.2 2.8.2 2.8.2 5 1 .3 3.7.1 5.8-1.5 9.1-2 4.4-1.8 8.6-1.7 13.3q0 1.3.1 2.5 0 3.1.1 6.1h13q0 .5 0 1h-45c-3-10.5-2.8-17.3 1.5-27.4 3.8-6.7 3.8-6.7 8.2-6.4z" fill="#a84b00"/><path d="M113 502c9.2.3 18.4 4.3 27.1 7.3q2.2.7 4.4 1.4 3.2 1.2 6.5 2.3 6 2 12.1 4 1.2.4 2.5.8 2.3.7 4.5 1.4c3.6 1.1 4.7 1.5 6.9 4.8-.4 2.7-.4 2.7-1 5-5.4 1.1-8.8.8-14-1q-.9-.3-1.9-.6-3-1.1-6-2.1-2.1-.7-4.1-1.4-9.5-3.3-19-6.9-5-1.8-10-3.7l-2.6-1q-3.2-1.1-6.4-2.3c-.6-2.9-.6-2.9-1-6q1-1 2-2zm61 38c2 2 2 2 2.4 4.4-.4 2.6-.4 2.6-2.5 4.2-3.3 1.6-6 2.2-9.6 2.8q-1 .2-2 .4-3.7.6-7.3 1.2-1.5.2-3 .5c-29.6 4.9-29.6 4.9-38 4.5-2-2-2-2-2.3-4.4.4-3.1.9-3.7 3.3-5.6 2.2-.7 2.2-.7 4.9-1.1 1.5-.2 1.5-.2 3-.5q1.6-.2 3.3-.4l3.3-.6q3.6-.5 7.1-1 5.3-.9 10.7-1.7 3.4-.5 6.9-1.1c1.6-.2 1.6-.2 3.2-.5 5.6-.8 10.9-1.5 16.6-1.1z" fill="#043453"/><path d="M569.6 147.8q1.7 0 3.4 0h3.8q2.1 0 4.2 0 2.1 0 4.2 0 5.6 0 11.1.1 5.7 0 11.4 0 11.2 0 22.3.1 0 .9 0 1.8.1 4.1.2 8.3.1 1.4.1 2.8c.2 6.2.8 10.2 4.7 15.1 5.4 3.7 10.3 4.6 16.7 4.5q1.2 0 2.5 0 4.2.1 8.3 0 3 .1 6 .1 8.2 0 16.3 0 8.5 0 17 .1 16.1 0 32.2 0 18.3.1 36.6.1 37.7.1 75.4.2c-3.7 2.5-6.5 2.3-10.8 2.3h-2.4q-4.1 0-8.2 0-2.9 0-5.8 0-7.9 0-15.8 0-6.6 0-13.1.1-15.6 0-31.2 0-16 0-32.1 0-13.7.1-27.5.1-8.2 0-16.5 0-7.7 0-15.5 0-2.8 0-5.6 0c-21.4.1-21.4.1-28.8-6.5q-.6-1-1.3-2.1-.6-1-1.3-2c-4.2-7.5-2.1-12.6-2.1-22.9h-63c2-2 2-2 4.6-2.2z" fill="#fcfbe8"/><path d="M436 98c2.4 1.1 2.4 1.1 4 3 .6 3.4.6 3.4 0 7-4.1 4.9-9.4 8.2-14.6 11.7q-1.3.9-2.6 1.7c-10.5 7.2-10.5 7.2-16.8 6.6-1.9-1-1.9-1-3-3-.7-3.4-1-4.8 0-8 2.5-3 5.8-4.9 9-7q2.2-1.5 4.4-3.1 2.4-1.7 4.8-3.3 1.1-.9 2.3-1.7c4.3-2.9 7.2-4.7 12.5-3.9z" fill="#f79700"/><path d="M356.6 540.9c4.1 0 8 .6 12.1 1.3l2.1.4q3.4.6 6.8 1.2 2.2.4 4.4.8 5.4 1 10.9 2 2.1.4 4.3.8 3.1.6 6.3 1.2a45.69 45.69 0 0 1 3.6.7c2.9.7 2.9.7 4.9 2.7.2 2.5.2 2.5 0 5-2 2-2 2-5.1 2.2-4.3-.2-8.5-.9-12.8-1.7q-1.2-.2-2.5-.4-3.9-.7-7.9-1.5-2.7-.5-5.3-.9-6.2-1.2-12.3-2.3-2.7-.5-5.5-1-1.3-.2-2.6-.4-1.1-.2-2.2-.4c-2.3-.8-3.3-1.7-4.8-3.6.5-4.8.6-5.9 5.6-6.1z" fill="#033553"/><path d="M399.1 61.7c1.9.3 1.9.3 3.9 1.4 1.6 2.9 1.4 4.6 1 7.9-1.7 3.7-3.7 7.1-5.8 10.5q-.8 1.4-1.6 2.8c-7.2 12.3-7.2 12.3-9.6 14.7-6.2.5-6.2.5-8.9-1.1-1.6-2.7-1.9-4.8-2.1-7.9 1.1-2.9 1.1-2.9 2.9-5.9q.9-1.7 1.8-3.4 1-1.7 2-3.4 1-1.7 2-3.4c7.2-12.5 7.2-12.5 14.4-12.2z" fill="#f79800"/><path d="M455.6 146.6c1.8 3.1 2 4.8 1.4 8.4-2.3 3.3-4.5 4.3-8.3 5q-2.6.4-5.2.8-1.3.1-2.7.3c-18 2.3-18 2.3-22.6-1.2-1.5-3.6-1.5-5.3-.2-8.9 2.8-2.6 5.1-3.5 8.9-3.9q1.4-.2 2.8-.4 1.5-.2 3-.4 1.4-.2 2.9-.4c15.7-2 15.7-2 20 .7z" fill="#f89600"/><path d="M780.2 826.4q1.4.3 2.8.6c-2.8 13.6-8.2 25-18 35q-1 0-2 0 0 1 0 2c-4.3.2-7.2.1-11-2q1.3-1.5 2.6-3.1.8-.9 1.7-1.9 1.6-1.9 3.2-3.7c6.2-6.9 10.5-14.5 13.5-23.3 1.7-3.5 3.4-4.1 7.2-3.6z" fill="#bc5a00"/><path d="M361.6 831.1c2.4.9 2.4.9 4.4 2.9-.2 4.2-2.1 7.5-4.1 11.1-3.4 7-1.9 13.8.1 20.9h-10c-2.9-7.6-3.5-16.2-1-24.1 5.3-11 5.3-11 10.6-10.8z" fill="#d46a00"/><path d="M269.5 832.8c2.5.2 2.5.2 4.5 2.2-.2 3.9-.9 6.7-2.6 10.3-3.3 7.1-1.6 15.4.6 22.7q-2.2.1-4.4.2-1.2 0-2.4.1-1.1-.2-2.2-.3c-4.4-6.6-3.7-15.3-3-23 3.9-11.7 3.9-11.7 9.5-12.2z" fill="#d36a00"/><path d="M632 837c4.7.7 4.7.7 6 2-.3 3.5-.8 6.5-2 9.8-1.1 3.5-1.2 6.3-1.2 9.9q0 1.7 0 3.4c.1 3 .1 3 1.2 5.9l12 1q0 .5 0 1h-28q0-.5 0-1 3 0 6 0-.5-.9-1-1.9c-2.5-7.8-1.1-15.6 2-23.1 1.4-2.6 2.9-4.9 5-7z" fill="#a94a00"/><path d="M200.2 833.3l2.8.7c1.2 3.5 1.1 4.8-.5 8.2-1.8 4-1.9 7.5-1.7 11.9q0 1.1 0 2.1c0 3.7.3 7.2 1.2 10.8h-10c-2.6-11-3.7-20.8 2-31 2.4-3.1 2.4-3.1 6.2-2.7z" fill="#d56c00"/><path d="M178.7 832.3c1.1.4 1.1.4 2.3.7 1.4 3.7.6 5.6-.9 9.1-3.4 8.7-2.4 16-.1 24.9h-9c-4-8.9-3.9-16.7-1-26 4-9.2 4-9.2 8.7-8.7z" fill="#d46a00"/><path d="M656 837q2.5.5 5 1c1 2.6 1.3 4.4.2 7q-1.1 2-2.2 4c-3.2 6.2-2.8 14.4-1 21h-9c-2.8-6.4-3.2-13.8-1.3-20.6 2-4.8 4.8-8.6 8.3-12.4z" fill="#a84c00"/><path d="M295 834c.3 3.8-.1 6.6-1.5 10.1-2.8 7.8-2.4 16.2.5 23.9h-10c-3.3-7.1-3.2-15.1-1-22.5 4.9-12.1 4.9-12.1 12-11.5z" fill="#d46a00"/></svg>