<svg xmlns="http://www.w3.org/2000/svg" width="1024" height="1536" xmlns:v="https://vecta.io/nano"><path d="M639 371.2c1.8 1.6 3.1 3.3 4.6 5.2 3.5 3.7 8.4 3.4 13.2 3.8 9.7.9 17.9 6.1 24.4 13.2 5.1 6.3 9.7 12.6 13.8 19.6l1 1.8c9 15.1 13.9 31.5 18.6 48.4 4.5 15.9 10.6 30.4 18.2 45.2q.7 1.2 1.3 2.5 3.3 6.4 6.7 12.7c12.9 24.4 20.4 50 13.2 77.4-5.1 16.4-15.5 29.2-30.3 37.6-15.3 7.9-34.6 13.6-51.8 9.7-3.8-.4-4.9.6-7.8 2.9-3 2.3-5.7 4.2-9.3 5.7-4.3 2-6.5 5.1-9.2 8.9-1.7 2.3-3.5 4.2-5.6 6.2l.8 1.8c6.2 13.5 11.6 26.8 15.2 41.2q.3 1 .5 2.1c2.5 9.7 2.8 19.3 2.8 29.3q0 1.8 0 3.6c0 6.9-.6 13.3-2.3 20 1 0 1 0 2-.1 6.7-.1 13 .5 19.6 1.8q1.4.3 2.8.5c32.2 6.4 32.2 6.4 44.4 16.2 7.8 6.2 17.2 7 26.7 8.6q2.8.5 5.6 1 5.7 1 11.4 2l22 4q3 .6 6.1 1.1 5.2.9 10.4 1.9 1.3.2 2.7.5c4.7.9 7.7 2 11.4 5.2q1.3 1.1 2.6 2.2 3.9 3.6 7.6 7.4c1.7 1.7 3.4 3.2 5.2 4.8 6 5.1 11.7 10.6 17.5 16q3.8 3.6 7.5 7.1 10.2 9.5 20.4 19 5.5 5.3 11.2 10.4 2.1 2 4.3 4 2.5 2.3 5.1 4.6c5.8 5.4 5.8 5.4 6.5 9.8q0 1.5 0 3c-2.8 2.4-5 3.5-8.6 4.1q-1.3.3-2.8.6-1.5.3-3 .5c-1.6.4-1.6.4-3.3.7q-4.6.9-9.2 1.7-5.7 1.1-11.4 2.2l-37.1 6.9q-1.1.2-2.2.4c-2.9.5-5.5.9-8.4.9q0 1.3 0 2.7.1 32.7.2 65.3 0 15.8.1 31.6.1 13.8.1 27.6 0 7.3 0 14.5.1 6.9.1 13.8 0 2.5 0 5c.1 10 0 17.4-7 25.3-7.4 5.6-19.6 6.1-28.5 7.9q-3.7.7-7.4 1.5-2.9.6-5.9 1.1-9 1.9-18.1 3.7l-2 .4q-14.4 2.9-28.8 6.2c-12.7 2.8-25.4 5.3-38.1 7.8-27.2 5.4-54.1 11.3-81 17.4q-13.8 3.1-27.6 6.1l-53.1 11.6-59.7 13-18.1 4.1q-1.6.4-3.2.8-2.7.6-5.5 1.3-1.1.3-2.3.6-1 .2-2 .5c-5.8.6-11.3-1.3-16.7-3.3q-1.1-.4-2.2-.8-2.3-.8-4.6-1.6-6.2-2.3-12.4-4.5-1.3-.4-2.6-.9c-8.7-3.1-17.4-6-26.1-8.8l-33.3-11.5q-15.5-5.5-31-10.7c-27.6-9.1-55-18.8-82.3-28.5q-10-3.5-20.1-7-1-.3-2-.7-4.6-1.6-9.3-3.1c-23.4-8-23.4-8-27.6-16.4q-.2-3.9-.2-7.8 0-1.2 0-2.5-.1-4-.1-8.1 0-2.9 0-5.8-.1-6.1-.1-12.2-.2-14.3-.3-28.6 0-3.1-.1-6.3-.2-25.8-.8-51.6L164 916q-1.8-.4-3.7-.8c-5.9-1.3-11.7-2.9-17.4-4.6q-1.7-.5-3.5-.9-3.6-1.1-7.2-2.1-5.4-1.6-10.9-3.1-3.5-1-7-2-1.7-.5-3.3-.9-3.1-.9-6.1-1.8-2.9-.8-5.8-1.6-1.3-.3-2.7-.7c-1.2-.3-1.2-.3-2.4-.7-2.3-.9-3.5-1.8-5-3.8.1-5 1.7-7.4 5.1-10.9q1.3-1.3 2.5-2.6 1.2-1.2 2.4-2.5 1.7-1.9 3.3-3.7.8-1 1.7-2 2.4-2.8 4.8-5.6 1.5-1.8 3.1-3.6.8-.9 1.5-1.8 4.6-5.3 9.3-10.5c3-3.3 5.8-6.6 8.6-10 4.1-5.1 8.4-9.9 12.9-14.6 3.2-3.5 6.3-6.9 9.2-10.6 3.8-4.8 7.9-9.3 12-13.7q1-1 1.9-2 .9-1 1.8-1.9.7-.8 1.5-1.7c2.6-2.4 4.8-2.5 8.2-2.5 4.5.4 8.8 1.3 13.1 2.2q1.5.3 3 .6 3.5.7 7.1 1.4l-2-3.3c-15.2-25-22-54.3-15-83.3 4.4-15.3 10.8-28.2 21-40.4q1.1-1.4 2.3-2.9c2.7-3.3 5.7-5.8 9.1-8.4q.8-.7 1.6-1.4c3.9-3 7.1-4 12-4.3 2.1 3.5 2 5.9 1.1 9.7q-.7 2.7-1.4 5.4c-1.9 7.4-3.5 14.3-3.7 21.9q0 .9-.1 1.9c-.8 23.5 3.6 44.4 18.1 63.1q.7 1 1.4 2c4.9 6.4 12 11.4 18.6 16q1 0 2 0 .8-1.6 1.6-3.2c8.7-16.5 19.8-31.5 32.7-44.9l7.4-8.1c4.8-5.3 9.9-10.4 15-15.5q1.2-1.1 2.4-2.3 4.8-4.8 9.7-9.5 3.6-3.5 7.1-7.1 1.1-1 2.2-2.1c12.2-12.1 16.3-25.7 17.9-42.3l-1.7 1.1c-16 10.1-33.7 13.6-52.4 10.3-19.1-4.6-35.7-15.2-46.9-31.4-9.8-16.1-13.2-33.2-10-51.9 3.7-15.1 12.7-27.6 21.2-40.3 11.8-17.9 21.5-36.4 30-56.1 14.1-32.6 31.6-64.4 66-79 6.7-2.6 12.6-4 19.8-3.7q1 .5 2 1 .3-.8.7-1.7c5.3-9.2 18.3-16 27.3-21.3q.9-.6 1.9-1.1c61.2-36 161.5-38.7 218.1 7.3z" fill="#662600"/><path d="M507.2 346.8q1.5-.1 3-.1 4.9 0 9.7 0h3.4c18.2 0 35.7 1 53.7 4.3l2.5.4c15.9 2.9 32.5 10 45.5 19.6q1.2.9 2.5 1.8c24.9 18.9 38.4 48.3 42.9 78.6 1.1 8.7 1.8 17.3 2 26.1.8 21.2 5.6 38.4 14.4 57.7 9.3 21.1 12.5 45.8 4.2 67.8-7.9 18.8-20.6 37-38.7 47.1q-1.1.9-2.3 1.9a34.2 34.2 0 0 0 .1 3.2c-.2 7.1-6.2 12-11.1 16.8q.4.9.8 1.8c6.2 13.5 11.6 26.8 15.2 41.2.3 1 .3 1 .5 2.1 2.5 9.7 2.8 19.3 2.8 29.3q0 1.8 0 3.6c0 6.9-.6 13.3-2.3 20 1 0 1 0 2-.1 6.7-.1 13 .5 19.6 1.8a27.41 27.41 0 0 0 2.8.5c17.9 3.6 37.4 8.5 51.6 20.8q0 1 0 2c.8.3.8.3 1.7.7 2.3 1.3 2.3 1.3 4.2 3.7 4.3 3.6 8.4 4.1 13.7 5.1q4.4.9 8.8 1.8 9.3 1.9 18.6 3.7c-2.9 1.9-4 2.3-7.2 2.9q-1.3.1-2.5.3l-2.6.4q-1.3.2-2.6.4c-4.4.7-8.6 1.2-13.1 1l3 8q1.9-.3 3.8-.6 7.2-1.2 14.3-2.3 3.1-.5 6.1-1 9.9-1.7 19.8-3.1 1.1-.2 2.2-.3c9.4-1.4 9.4-1.4 14.4 1.1q1.3 1.3 2.7 2.7.8.7 1.6 1.5 1.7 1.6 3.3 3.2 2.9 2.8 5.8 5.6 4.2 3.8 8.3 7.7 4.3 4.1 8.8 8.1c4.8 4.2 9.5 8.6 14.2 13q6.8 6.4 13.7 12.8 4.6 4.2 9.2 8.5 1 1 2.1 2 2.1 2 4.1 3.9c3.8 3.6 7.6 6.9 11.6 10.2-2.7 1.5-5.1 2.4-8.1 2.9q-1.2.3-2.5.5-1.3.2-2.6.5-1.4.2-2.9.5-4.6.9-9.2 1.7-3.3.6-6.5 1.2l-46.6 8.2-54.1 9.6q-1.5.3-3.1.6-1.5.3-3.1.6-15.6 2.9-31.2 5.6-49.1 8.8-98.1 18l-68 12.5q-10.3 1.8-20.6 3.7-4.1.8-8.1 1.5-2.6.5-5.1.9-3.5.7-6.9 1.3-2 .3-3.9.7c-2.9.4-5.5.8-8.4.5-2.1-2.2-2.1-2.2-4.2-5.4q-.7-.9-1.3-1.9-1.4-2.1-2.8-4.2-2.9-4.2-5.7-8.4-4.5-6.5-8.9-13-4.9-7.3-9.8-14.5-6.8-9.7-13.5-19.5-3.9-5.8-7.8-11.5c-5.2-7.4-10.2-14.9-15-22.6 12 4.2 21.4 16.2 29.9 25.2 9.2 9.6 18.7 17.5 31.5 21.7l3.4 1.2c18.5 5.2 37.1 1.1 53.6-7.9 11.4-6.6 19-16.3 23-28.8 2.1-8.1 2.4-16.1 2.6-24.4 7.1-1.7 14.2-3.3 21.3-4.7q1.9-.4 3.9-.7c9.3-1.4 17.1-.5 24.9 5.1q7.9 6.3 14.3 14.2c9.8 11.9 25.5 20 40.6 22.1 17.8 1.5 35-1.5 49.4-12.9 9.1-8.5 14.9-20.1 15.9-32.6 0-5-.2-9.6-1.3-14.5q0 .8.1 1.7c-.2 7-2.2 13-4.8 19.5q-.5 1.2-1 2.5c-2.3 5.8-5.3 10.5-9.3 15.3-1.3-2.5-.7-3.3 0-6 .8-7-.6-12.8-4-19-1.6-2-3.1-3.4-5-5-.1 2-.1 2 .7 3.7 2.2 6 2.6 11.7 2.7 18q0 1.3 0 2.5c0 5-.5 8.6-3.4 12.8-8.5 5.9-17.8 8.4-28 8q.4-.8.9-1.7c3.8-8.1 5-17.3 2.3-26-1.4-2.8-3-5.1-5.2-7.3q.2 1.5.5 3c1.3 10.7 1.9 21.4-3.5 31q-.5.5-1 1c-19.2-.9-33.1-11.2-45.6-25q-.7-.8-1.5-1.7c-8.2-9-16.7-16.2-29.5-16.9-10 .3-20 3-29.7 5.1-2.7.5-5.1.6-7.7.5q-.5-1.1-1-2.2c-11.2-23.4-28.6-39.7-53-48.8-8.5-2.8-17.2-4.7-25.9-6.4-14.2-2.8-26-5.5-38.1-13.6q.7 1.8 1.5 3.7.4 1 .8 2.1c4.6 6.1 12.1 8.3 19.2 10.1q1.3.4 2.7.8l18.2 4.6c21.5 5.3 39.9 12.6 55.6 28.7l2.3 2.3c11.4 11.9 14.4 25.6 14.1 41.5-.5 10.4-5.5 19.7-13.1 26.8q-2.1 1.8-4.3 3.4c.3-.8.3-.8.7-1.7 3.6-10.4 3.7-20.8-.5-31-1.4-2.8-3.1-5.1-5.2-7.3q.3 1 .7 2c3.8 13.2 4.4 28.4-1.7 41-4.1 5.7-11.4 7.1-17.9 8.7-4.7.5-9.4.4-14.1.3q.5-1 1.1-2 .6-1.4 1.3-2.8l1.4-2.6c3.2-6.9 3.3-14.6 1.3-21.8-2.5-6.7-5.3-10.7-11.1-14.8.8 1.5.8 1.5 1.5 3 5.2 10.5 7.8 19.5 4.6 31.3a82.91 82.91 0 0 1-4.1 9.7c-12.3 1.1-23.3-5.6-32.5-13-5.7-5-10.7-10.4-15.7-15.9-10.7-11.8-20.8-21.7-36.5-25.6q-1.2-.3-2.5-.6c-9.4-2.4-19-4.5-28.5-6.6q-4-.9-8-1.8-2.5-.5-4.9-1-2.2-.5-4.4-1a56 56 0 0 0-5.9-1.2c-3.1-1.3-3.1-1.3-4.6-4.1q-.4-1.8-.8-3.6-.2-1-.5-2c-1.8-8.4-2.6-17-3.4-25.5q-.3-2.5-.6-5-.6-6.1-1.2-12.1-.5 1.9-1 3.8c-.3 1-.3 1-.5 2.1-3.2 14.3 1.5 29.4 5.5 43.1-8.2-.5-15.8-2.3-23.7-4.3q-2-.5-3.9-1-5.3-1.3-10.6-2.6-8.6-2.3-17.3-4.4-3.2-.9-6.4-1.7-12.3-3.1-24.5-6-1.3-.3-2.7-.6-5.9-1.5-11.9-2.8-2-.5-4.1-1-1.7-.4-3.4-.8-1.2-.4-2.5-.8c-3-5.9 2.9-19.1 4.9-25.3 5.2-15.5 13.6-30.1 24.1-42.7q.6-.8 1.3-1.6 4.7-5.8 9.7-11.4c1-1.2 1-1.2 2.1-2.4 5.9-6.5 12-12.7 18.2-18.8q1.2-1.2 2.5-2.5 5.2-5.1 10.5-10.2c16.9-16.5 31.3-32.7 31.8-57.6.1-8 1.2-11.9 6.6-17.8 24-29.1 20.8-74.8 17.6-109.8q-.5-5.1-1.2-10.2c-3.4-29.1-.2-57.8 9.6-85.5 2.9-8.6 2-17-1.7-25.2q-.5-2-1-4c24.6-25 59.4-35.3 93-41q1.3-.3 2.7-.5c4.5-.7 9-.7 13.5-.7z" fill="#feca05"/><path d="M437 873c3.1 3.1 5 5.3 7.3 8.9q5.8 8.7 11.7 17.4 1 1.4 1.9 2.9 8 11.6 16.1 23.2 7 10 13.9 20.2 2.7 4 5.4 8 1.6 2.3 3.2 4.7 2 2.9 4.1 5.8 1 1.6 2.2 3.2c2.9 3.5 5.5 6.2 10.2 7 8.4.4 16.7-1.7 24.9-3.3q2.5-.5 5-.9 3.9-.8 7.9-1.5l30.9-5.7q5.2-1 10.4-1.9 1.3-.2 2.6-.5 9-1.6 18-3.3 20.3-3.8 40.5-7.3 31.8-5.7 63.4-11.6 22.9-4.3 45.9-8.5 12.6-2.2 25.1-4.6 1.2-.2 2.3-.5 5.2-1 10.4-2 1.8-.3 3.7-.7 1.5-.3 3.1-.6c3-.4 5.9-.4 8.9-.4q.1 33.3.2 66.5 0 15.5.1 30.9.1 13.5.1 26.9 0 7.2 0 14.3.1 6.7.1 13.4 0 2.5 0 4.9 0 3.4 0 6.8 0 1.8 0 3.8c-.6 4.4-1.9 6.8-4.5 10.5-2.9 1.4-2.9 1.4-6.4 2.2q-1 .2-2 .4-3.3.7-6.6 1.4-2.5.5-5 1.1-8.2 1.7-16.5 3.3-5.6 1.2-11.2 2.3-1.4.3-2.8.6-9.7 1.9-19.4 4.1-13.6 3-27.2 5.7-1 .2-2 .4-9.2 1.8-18.4 3.7l-47.7 10q-16.9 3.7-33.7 7.3-5.7 1.2-11.3 2.4l-2.9.6-112.8 24.7q-2.9.6-5.9 1.3-9.5 2.1-19 4.3-1.9.4-3.8.8-3.5.8-7 1.6-1.5.4-3.1.7-1.4.3-2.8.7c-2.5.4-2.5.4-7.5.4V873z" fill="#fb9e16"/><path d="M428 875q.5 0 1 0v304l-17.1-5.3-2-.7q-3.2-1-6.4-2.1-1.1-.4-2.3-.8l-90.8-30.8q-21.3-7.3-42.6-14.5-10.7-3.6-21.4-7.3-8.5-2.9-16.9-5.7-7.6-2.6-15.2-5.2-2.7-.9-5.5-1.8-7.3-2.5-14.5-5-2.3-.8-4.6-1.6-3.4-1.1-6.7-2.3-1-.3-2-.7c-3-1-4.8-1.9-6.7-4.4-1.6-3.4-1.7-5.9-1.7-9.8q0-1 0-2.1 0-3.4.1-6.9 0-2.5 0-5 0-6.7 0-13.4 0-7.1 0-14.1 0-13.4.1-26.7 0-15.2 0-30.3.1-31.3.2-62.5c5.7 1.1 11.3 2.3 16.8 4l3.9 1.2q2 .7 4 1.3 2.2.7 4.3 1.4 4.6 1.4 9.1 2.9 7.1 2.2 14.3 4.5 2.4.7 4.8 1.5c1.1.4 1.1.4 2.3.7q3.6 1.2 7.2 2.3 21.5 6.8 43.1 13.5 13.1 4 26.1 8.2 3.9 1.3 7.8 2.6 3.7 1.1 7.3 2.3c12 4.1 12 4.1 24.3 2.4 3-2 5.1-4.1 7.5-6.8q1.3-1.5 2.6-3 4.7-5.5 9.2-11.1c2.6-3.2 5.3-6.3 8-9.5l9.3-11.3c3.2-4.1 6.5-8 9.9-11.8 4-4.7 7.9-9.4 11.6-14.2 4.6-5.9 9.4-11.5 14.3-17.1 2.1-2.5 4.2-4.8 6.1-7.4q.6-.8 1.2-1.6z" fill="#fb9d16"/><path d="M649 652c2 2 2 2 2 5.2-1.7 6.4-6.4 10.2-11 14.8l.8 1.8c6.2 13.5 11.6 26.8 15.2 41.2q.3 1 .5 2.1c2.5 9.7 2.8 19.3 2.8 29.3v3.6c0 6.9-.6 13.3-2.3 20q1 0 2-.1c6.7-.1 13 .5 19.6 1.8q1.4.3 2.8.5c17.9 3.6 37.4 8.5 51.6 20.8q0 1 0 2c.8.3.8.3 1.7.7 2.3 1.3 2.3 1.3 4.2 3.7 4.3 3.6 8.4 4.1 13.7 5.1q4.4.9 8.8 1.8 9.3 1.9 18.6 3.7c-2.9 1.9-4 2.3-7.2 2.9q-1.3.1-2.5.3-1.3.2-2.6.4l-2.6.4c-4.4.7-8.6 1.2-13.1 1l3 8q1.9-.3 3.8-.6 7.2-1.2 14.3-2.3 3.1-.5 6.1-1 9.9-1.7 19.8-3.1 1.1-.2 2.2-.3c9.4-1.4 9.4-1.4 14.4 1.1l2.7 2.7q.8.7 1.6 1.5 1.7 1.6 3.3 3.2 2.9 2.8 5.8 5.6 4.2 3.8 8.3 7.7 4.3 4.1 8.8 8.1c4.8 4.2 9.5 8.6 14.2 13q6.8 6.4 13.7 12.8 4.6 4.2 9.2 8.5c1 1 1 1 2.1 2q2.1 2 4.1 3.9c3.8 3.6 7.6 6.9 11.6 10.2-2.7 1.5-5.1 2.4-8.1 2.9q-1.2.3-2.5.5c-1.3.2-1.3.2-2.6.5q-1.4.2-2.9.5-4.6.9-9.2 1.7-3.3.6-6.5 1.2l-46.6 8.2-54.1 9.6q-1.5.3-3.1.6-1.5.3-3.1.6-15.6 2.9-31.2 5.6-49.1 8.8-98.1 18l-68 12.5q-10.3 1.8-20.6 3.7-4.1.8-8.1 1.5-2.6.5-5.1.9-3.5.7-6.9 1.3-2 .3-3.9.7c-2.9.4-5.5.8-8.4.5-2.1-2.2-2.1-2.2-4.3-5.4q-.6-.9-1.2-1.9-1.4-2.1-2.8-4.2-2.9-4.2-5.7-8.4-4.5-6.5-8.9-13-4.9-7.3-9.9-14.5-6.7-9.7-13.4-19.5-3.9-5.8-7.8-11.5c-5.2-7.4-10.2-14.9-15-22.6 12 4.2 21.4 16.2 29.9 25.2 9.2 9.6 18.7 17.5 31.5 21.7q1.7.6 3.4 1.2c18.5 5.2 37.1 1.1 53.6-7.9 11.4-6.6 19-16.3 23-28.8 2.1-8.1 2.4-16.1 2.6-24.4 7.1-1.7 14.2-3.3 21.3-4.7q1.9-.4 3.9-.7c9.3-1.4 17.1-.5 24.9 5.1q7.9 6.3 14.3 14.2c9.8 11.9 25.5 20 40.6 22.1 17.8 1.5 35-1.5 49.4-12.9 9.1-8.5 14.9-20.1 15.9-32.6 0-5-.2-9.6-1.3-14.5q-.1 1-.1 2.1c-.4 6.2-1.4 11.2-3.9 16.9q-.5 0-1 0 0-1.2 0-2.5c-.6-17.4-7-30.1-19.6-42.1-22-18.9-49.3-24.2-77.4-27.4q-.2 1.4-.4 2.8c-.8 4.3-2.1 6.6-4.6 10.2-2.7.9-2.7.9-5 1-1-2.7-1.1-3.8-.1-6.6q1.3-2.8 2.7-5.6c4-9.7 4.9-19.6 4.8-29.9q0-1.8-.1-3.6c-.2-14-2.3-27.2-6.5-40.5-.8-2.8-.8-2.8-.8-6.8q-.6.6-1.3 1.2c-25.2 22.9-52.5 30.9-86.2 30-7.8-.4-15.1-2-22.5-4.2q-1.1-.3-2.3-.6c-25-7.1-45.3-21.3-62.7-40.4q0-.5 0-1 6.2.1 12.3.2c1.7.1 1.7.1 3.5.1 6.7.2 12 1.1 18.2 3.6 5.5 2 11.2 3.3 16.8 4.7q3.2.8 6.3 1.6c11.2 2.8 22.2 5.2 33.8 5h2.6c23.2-.4 39.7-8.2 57.2-22.7 4.3-3.6 8.8-7 13.3-10.4q1-.8 2.1-1.6 6.9-5.3 13.9-10.5zM180.1 801.2q6.8 1.4 13.5 3 1.4.3 2.9.6 4.7 1.1 9.4 2.3 1.7.4 3.4.8l56.1 13.7q1 .2 2 .5 5 1.2 10.1 2.5 1 .3 2 .5 2.1.5 4.2 1.1 27.4 6.8 54.9 13.6 1.2.3 2.4.6l73.9 17.8q1.2.2 2.3.5 5.4 1.2 10.8 2.3c-1.4 4.1-3.2 6.6-6.1 9.7-3.1 3.3-6 6.5-8.7 10.1-3.3 4.1-6.6 8-10 12l-1.6 1.8q-1.5 1.8-3.1 3.6-9.6 11.3-19 22.7c-8.5 10.5-17 20.9-25.9 31-1.6 1.9-3.1 3.8-4.6 5.8-1.6 2.1-2.9 3.7-5 5.3-6.7.7-13.9-2.4-20.1-4.5q-3.8-1.3-7.7-2.5-1-.4-2.1-.7c-10.3-3.4-20.7-6.5-31.1-9.7q-7.2-2.2-14.4-4.5-.9-.3-1.9-.6-16.2-5-32.5-10l-95.8-29.3c-1.5-.5-1.5-.5-3.1-.9Q117.2 895 99 890c1.3-2.9 2.8-5.1 5-7.4q.9-.9 1.8-1.9.9-.9 1.9-1.9 1.9-2.1 3.8-4.1.9-1 1.9-2c3.4-3.6 6.6-7.4 9.9-11.2 6.5-7.7 13.2-15.2 20-22.6 4.3-4.6 8.3-9.3 12.4-14q3.8-4.6 7.7-9 1.6-1.9 3.2-3.8 2.3-2.8 4.7-5.5.7-.9 1.4-1.8c2.5-2.8 3.6-3.9 7.4-3.6z" fill="#fb9f16"/><path d="M465 772q.7.6 1.5 1.1c10.6 7.6 22.2 10.6 34.8 12.9 27.4 5.4 55.4 14.3 72.2 38.5C584 840.3 584 840.3 584 845q1.3-.3 2.5-.6 4.8-1 9.6-2 2.1-.4 4.1-.8c13.7-3 26.4-5 38.9 2.7 7 4.9 12.9 11.2 18.3 17.8 9.5 10.8 21.5 17.2 35.6 19.9q2.5.1 5 0c5.9-10.9 4.7-23.1 3-35 4.7 4.4 7.7 8.1 8.4 14.6-.1 16.1-.1 16.1-4.4 20.4 9.2.9 19.6-2.6 27-8 2.5-4.5 2.4-9.1 2.4-14.1q0-1.2 0-2.5c-.1-6.2-1.2-11.5-3.6-17.2q-.4-1.1-.8-2.2.5-1 1-2c5.4 3.6 8.7 8.9 10.6 15 .4 2.2.5 4.2.5 6.4q0 1.1 0 2.3c-.1 2.5-.6 4.8-1.1 7.3 9.1-12.7 14-25.4 14-41 4.6 6.9 3.9 16.5 2.4 24.4-3.5 12.4-10.6 24.2-22 30.8-16.3 8.7-33.2 11.6-51.3 7.2-17.1-5.3-29.6-16-41.1-29.2-6.2-6.8-13.2-10.8-22.4-11.4-6.3.1-12.4 1.5-18.5 2.7q-3.6.7-7.3 1.4-1.6.3-3.2.6c-2.6.5-2.6.5-4.6.5q.1 1.6.1 3.2c.6 16.8-3.2 30.3-14.7 43-13.7 12.9-32.9 18.3-51.3 18-23-.8-38.7-15.3-53.8-30.9-7-7.3-13.9-13.7-22.3-19.3 1.4 3 3.1 5.8 5 8.5q.9 1.4 1.8 2.7 1 1.4 2 2.9 1 1.4 2 2.9 2.1 3.1 4.2 6.1 2.7 4 5.5 8 8.1 11.9 16.3 23.8 6.2 9 12.3 18 6.2 9.1 12.5 18.1 2.7 4 5.4 8c8.5-.7 16.9-2.1 25.2-3.6q2.3-.4 4.6-.8 18.4-3.3 36.9-6.8 13.7-2.5 27.3-5 1.6-.2 3.2-.5 3.2-.6 6.3-1.2 26.4-4.7 52.7-9.7l39.9-7.3 41.2-7.5 69.1-12.5q15.4-2.6 30.7-5.3 4.7-.9 9.5-1.7 14.6-2.6 29.2-5.3 1.3-.2 2.7-.5c1.2-.2 1.2-.2 2.4-.5l2.2-.4c2.1-.4 2.1-.4 4.9-1.4q-.7-.6-1.5-1.3c-4.9-4.3-9.8-8.7-14.6-13.3q-2.2-2.1-4.5-4.2-1.1-1.1-2.2-2.1l-28.6-26.6q-3.3-3-6.5-6-2.5-2.3-4.9-4.6-3.2-2.9-6.3-5.8-3-2.8-6.1-5.5-2.7-2.5-5.3-5.1c-4.4-4.1-4.4-4.1-10-5.7-11.3 1.2-22.6 3-33.8 4.8q-3.2.5-6.3 1-7.7 1.2-15.4 2.4c-1.5-3.4-2-5.2-2-9l25-4q-2.9-.6-5.8-1.2-2.8-.6-5.7-1.2-2.9-.6-5.8-1.2c-19.6-4.2-19.6-4.2-24.7-11.4q-1-1-2-2c8.8.5 17.3 1.9 25.9 3.7 10.3 2.2 20.6 4.3 31 6q1.1.2 2.4.4 5.7.9 11.5 1.8 2.1.3 4.2.6 1.8.3 3.7.6c5.6 1.5 9.6 5 13.9 8.9q1.2 1.2 2.6 2.4l2.8 2.6q1.6 1.4 3.1 2.9 3.3 3 6.6 6.1 4.6 4.2 9.1 8.3l26.6 24.8q2.2 2.1 4.3 4.1c1.1 1.1 1.1 1.1 2.2 2.1q5.5 5.2 11.1 10.3 2.2 2 4.4 4 2.5 2.3 5.1 4.6c5.8 5.4 5.8 5.4 6.5 9.8q0 1.5 0 3c-2.8 2.4-5 3.5-8.6 4.1-1.3.3-1.3.3-2.8.6q-1.5.3-3 .5c-1.6.4-1.6.4-3.3.7q-4.6.9-9.2 1.7-5.7 1.1-11.4 2.2l-37.1 6.9q-1.1.2-2.2.4c-2.9.5-5.5.9-8.4.9v2.7q.1 32.7.2 65.3 0 15.8.1 31.6.1 13.8.1 27.6 0 7.3 0 14.5.1 6.9.1 13.8 0 2.5 0 5c.1 10 0 17.4-7 25.3-7.4 5.6-19.6 6.1-28.5 7.9q-3.7.7-7.4 1.5-2.9.6-5.9 1.1-9 1.9-18.1 3.7-1 .2-2 .4-14.4 2.9-28.9 6.2c-12.6 2.8-25.3 5.3-38 7.8-27.2 5.4-54.1 11.3-81 17.4q-13.8 3.1-27.6 6.1l-53.1 11.6-59.7 13-18.1 4.1q-1.6.4-3.2.8-2.7.6-5.5 1.3-1.1.3-2.3.6-1 .2-2 .5c-5.8.6-11.3-1.3-16.7-3.3q-1.1-.4-2.2-.8-2.3-.8-4.6-1.6-6.2-2.3-12.4-4.5-1.3-.4-2.6-.9c-8.7-3.1-17.4-6-26.1-8.8l-33.3-11.5q-15.5-5.5-31.1-10.7l-82.2-28.5q-10-3.5-20.1-7-1-.3-2-.7-4.6-1.6-9.3-3.1c-23.4-8-23.4-8-27.6-16.4q-.2-3.9-.2-7.8 0-1.2 0-2.5-.1-4-.1-8.1 0-2.9 0-5.8-.1-6.1-.1-12.2-.2-14.3-.3-28.6 0-3.1-.1-6.3-.2-25.8-.8-51.6L164 916l-3.7-.8c-5.9-1.3-11.7-2.9-17.4-4.6-1.7-.5-1.7-.5-3.5-.9q-3.6-1.1-7.2-2.1-5.4-1.6-10.9-3.1-3.5-1-7-2-1.7-.5-3.3-.9-3.1-.9-6.1-1.8-2.9-.8-5.8-1.6-1.3-.3-2.7-.7-1.1-.3-2.4-.7c-2.3-.9-3.5-1.8-5-3.8.1-5 1.7-7.4 5.1-10.9q1.3-1.3 2.5-2.6 1.2-1.2 2.4-2.5 1.7-1.9 3.3-3.8.8-.9 1.7-1.9 2.4-2.8 4.8-5.6 1.5-1.8 3.1-3.6c.8-.9.8-.9 1.5-1.8q4.6-5.3 9.3-10.5a208.1 208.1 0 0 0 8.6-10.1c4.1-5 8.4-9.8 12.9-14.5 3.2-3.5 6.3-6.9 9.2-10.6 3.8-4.8 7.9-9.3 12-13.7q1-1 1.9-2 .9-1 1.8-1.9.7-.8 1.5-1.7c2.3-2.2 3.4-2.3 6.6-2.4 3.6.1 6.7.6 10.2 1.4q1.8.4 3.7.8 2 .5 4 .9 2.1.5 4.1 1l38.6 9.4q9.2 2.3 18.4 4.6 2.2.6 4.3 1.1l59 14.6q3.1.8 6.3 1.6 4 .9 8 1.9 9.2 2.3 18.3 4.6 1.7.4 3.4.9 3.1.8 6.2 1.6 1.3.3 2.7.7 1.1.3 2.3.6c2.5.4 4.8.5 7.3.4q-.4-1.2-.8-2.5c-4.8-15-8.7-31.4-2.2-46.5q.5 0 1 0a34.6 34.6 0 0 1 .3 3.2q.6 6 1.2 11.9.3 2.6.6 5.2c.9 9 1.8 17.7 4.3 26.5.6 2.2.6 2.2.6 5.2l2 .4c10.2 1.8 20.2 4 30.3 6.2q3.3.8 6.7 1.5 4.9 1.1 9.8 2.2 1.5.3 3 .6c15.7 3.6 27.4 11.6 38.5 23q1.2 1.3 2.5 2.6c3.8 3.9 7.5 7.7 11 11.8 10 11.7 23.1 17.7 38.2 19.7q.7-2.1 1.4-4.3.4-1.1.8-2.3c3.4-10.4 3.1-20-1.8-29.7q-1-1.9-2-3.8-.7-1.4-1.4-2.9.5-1 1-2c7.1 5 10.8 10.6 13 19 1.1 8.1.3 16.4-4.6 23.2q-.7.9-1.4 1.8c9.9.6 21-.7 29-7 4.4-7.2 5.2-14.5 5.3-22.7q0-1.2 0-2.4c-.1-5.4-.7-10-2.7-15.1-.6-1.8-.6-1.8.4-4.8 7.4 8.8 9.5 16.1 9.3 27.6-.4 4.6-1.6 8.2-3.3 12.4 7.6-6.1 12-14.9 15-24 1.4-16.6-.6-30.5-11-44-16.4-19.5-38.8-27.8-63-33.7q-1.8-.5-3.7-.9-3.7-.9-7.3-1.8c-19.8-4.8-19.8-4.8-26-11.6-1.3-2.9-2.2-5.9-3-9zm-289.9 30.5q-.9 1-1.9 2-1.1 1.1-2.1 2.2-4.7 5.1-9.1 10.3-2.9 3.4-5.9 6.9-.7.9-1.5 1.8-5.7 6.6-11.6 13.1-2.7 3-5.4 6.1l-11.2 12.4q-3.9 4.3-7.6 8.7-3.1 3.4-6.2 6.9-1.1 1.2-2.2 2.5-2.5 2.7-5 5.4-1.2 1.3-2.5 2.7-1.1 1.2-2.2 2.5c-1.9 1.8-1.9 1.8-1.7 4a18.03 18.03 0 0 0 1.9.5l79.3 23.3 21.8 6.8q4.3 1.4 8.6 2.7 53.6 16.7 107.2 33.1 1.5.4 3 .9 2.7.8 5.5 1.6 5.1 1.6 10.1 3.3c2.9.9 4.6 1.4 7.6.8 2-1.7 3.6-3.3 5.2-5.3.8-.8.8-.8 1.5-1.7 3.8-4.3 7.4-8.7 11-13.2 2.5-3.1 5.2-6.2 7.8-9.3q5.1-5.9 10-12c3.7-4.6 7.6-9.1 11.4-13.7q4.3-5.1 8.5-10.2c3.5-4.3 7-8.5 10.6-12.6 5.1-5.9 10.1-11.9 15-18q.9-1.1 1.7-2.2c1.5-1.7 1.5-1.7 1.3-3.8q-1.4-.3-2.9-.7-59.6-13.6-119-28.5l-85.2-21.1q-7.8-1.9-15.6-3.8-4.8-1.2-9.5-2.4-2.1-.5-4.1-1-2.7-.7-5.4-1.3-1.4-.4-2.8-.7c-4.5-.9-4.5-.9-8.4 1zM428 875q-2.7 3-5.4 6.1-.8 1-1.6 1.9-5.4 6.4-10.4 12.9c-4.4 5.6-8.9 11-13.5 16.3-4.8 5.4-9.4 11-14 16.6q-6 7.3-12.1 14.4c-2.9 3.4-5.6 6.8-8.3 10.3-10.9 14.2-10.9 14.2-17.7 16.5-7.7.6-13.9-1.2-21.2-3.6q-2.7-.9-5.5-1.8-2.9-.9-5.8-1.9-6.3-2-12.5-4-1-.4-2.1-.7-2.2-.7-4.4-1.4-3.3-1.1-6.7-2.2L237.5 939q-4.5-1.4-9-2.8-8.4-2.6-16.7-5.2l-2-.6q-1-.3-2-.6-5.8-1.8-11.6-3.6-2.8-.9-5.6-1.8-3.4-1-6.8-2.1-1.5-.4-3-.9-1.3-.4-2.6-.8c-2.3-.7-2.3-.7-5.2-.6q-.1 32.7-.2 65.5 0 15.1 0 30.3-.1 13.3-.1 26.5 0 7 0 14.1 0 6.6 0 13.2 0 2.4-.1 4.8 0 3.3 0 6.6 0 1.9 0 3.8c.4 3.5 1.3 5.4 3.4 8.2 2.5 1.4 2.5 1.4 5.6 2.4q1.7.6 3.6 1.2 2.1.7 4.1 1.4 2.2.8 4.4 1.5 5.1 1.8 10.3 3.5 9.3 3.1 18.6 6.3 17 5.8 34 11.5 19.4 6.5 38.7 13.1 1.3.5 2.7.9 12.7 4.4 25.5 8.8 5 1.7 9.9 3.4 2.5.8 5 1.7 16.2 5.5 32.4 11 1.7.6 3.5 1.2 8.7 2.9 17.4 5.9 3.3 1.1 6.5 2.2 1.5.5 3.1 1 10.4 3.6 20.8 7.3c3.3 1.3 3.3 1.3 6.9 1.7V875q-.5 0-1 0zm9-2v306c7.5-.8 7.5-.8 14.7-2.2q1.6-.3 3.2-.7 1.6-.3 3.3-.7 1.8-.4 3.7-.8 3.9-.9 7.7-1.8 9.6-2.2 19.2-4.3 2.2-.5 4.5-1 24.6-5.5 49.2-10.8 1-.2 2.1-.5 14.4-3.1 28.7-6.2 6-1.3 12-2.6l151.2-31.7q17.2-3.4 34.4-7.2 6.8-1.4 13.5-2.8 4.5-.9 8.9-1.8 2.1-.5 4.3-.9 2.9-.6 5.9-1.2 1.7-.3 3.4-.7c3.8-1.3 5.6-3.1 8.1-6.1 1.2-3.5 1.1-6.2 1.1-9.9q0-1 0-2.1 0-3.5 0-7 0-2.6 0-5.1 0-6.9 0-13.7 0-7.2 0-14.4 0-13.6 0-27.2 0-15.5 0-30.9-.1-31.9-.1-63.7-2.6.2-5.2.5-1.4.1-2.9.2c-4.4.5-8.6 1.2-12.9 2q-1.4.3-2.9.6-3 .5-6 1.1-8.2 1.5-16.4 3.1-1.7.3-3.4.6-16.4 3-32.9 6l-48.5 8.9-76.7 14q-16.3 2.9-32.5 5.9-4.9.9-9.7 1.8l-26.8 5q-1.9.3-3.8.7-3.2.6-6.4 1.3c-14.7 2.8-14.7 2.8-21.2-.2-3.7-3.3-6.4-7-9.2-11q-.8-1.2-1.7-2.4-5.6-8-10.9-16.1-3.5-5.2-7-10.3-.7-1-1.4-2-5.3-7.7-10.7-15.4l-16-23.4q-3.9-5.8-7.8-11.7-.8-1-1.5-2.1-1.8-2.6-3.6-5.1-.5 0-1 0z" fill="#602400"/><path d="M392 396c3 2.1 3.8 3.7 4.4 7.3.5 7.7-1.6 14.2-4 21.3-9.1 27.2-10.6 55.9-6.9 84.3 1.5 12 1.9 23.9 1.9 35.9q0 3.1.1 6.1c.2 24.7-3.4 49.8-18.5 70.1q-.7 1-1.4 1.9c-8.1 10.5-20.2 16.4-33.1 18.7-17.7 2-35.7-.9-50.3-11.9-13-10.7-23.3-24.6-25.2-41.7-1.1-16.1 2.7-29.1 11.1-42.6q.7-1.2 1.5-2.4c3-4.9 6.2-9.7 9.4-14.4 15.2-22.5 26.7-46.9 36.6-72.1 4.6-11.2 11.5-21.4 19.4-30.5q1-1.2 2.1-2.5c5.4-6.3 11.3-11.5 17.9-16.5q1.1-.8 2.2-1.7c9.2-6.6 21.4-12.2 32.8-9.3z" fill="#bc4a00"/><path d="M672.3 385.9c2.9 2.2 5.2 4.5 7.7 7.1q1 1 2 1.9c7.2 7.5 12.1 16 17 25.1q.9 1.7 1.9 3.5c6.7 13.3 10.5 27.9 14.4 42.2 4.1 15 10.4 28.9 17.5 42.7q.7 1.2 1.3 2.5 3.3 6.4 6.7 12.7c12.9 24.4 20.4 50 13.2 77.4-5.1 16.4-15.5 29.2-30.3 37.6-15.3 7.9-34.6 13.6-51.8 9.7-3.8-.4-5 .6-8 3-8.8 6.7-8.8 6.7-12.9 6.7q-.5-3-1-6l2.3-1.7c20.9-15.4 37.3-34.3 42.3-60.5 3.5-24.2-3-45.8-13.3-67.4-7.1-15-8.5-31.4-8.9-47.8-1-31.1-8.1-65.6-31.2-88.3-2.2-2.3-2.2-2.3-2.2-4.3 12.3-3.8 22.3-2.5 33.3 3.9z" fill="#bd4b00"/><path d="M619 521c3.7 3.4 5.8 6.7 6.2 11.7.3 11.7-2.1 21.7-10.2 30.3-5.6 5.8-11.1 9.9-19 12q-2 0-4 0c.9 15.7.9 15.7 8.8 28.8 6.6 5.4 14.1 7.9 22.7 7.5 7-.9 13.1-3.7 17.8-9 6.6-9 9.4-17.3 10.1-28.3.6-3 .6-3 2.7-4.4q.9-.3 1.9-.6c2.4 2.1 4 4 5 7-.6 13.3-7.5 26.5-17.1 35.5-4.4 3.5-8.9 6.2-14.5 6.9-3.5 1.2-3.5 1.2-4.5 3.7-.9 3-1.6 6-2.3 9-3.6 13.7-8 26.9-18.6 36.9q-.9.9-1.8 1.9c-10.4 9.9-23.4 12.6-37.4 12.4-16-1.3-30.3-10.4-40.8-22.3-5.9-7.4-10.8-15.6-15.6-23.8-6.8-11.5-15.6-20.6-25.1-29.9-7.7-7.6-7.7-7.6-10.3-11.3q0-1 0-2l-5 2c-2-2-2-2-2.4-4.6.6-4.6 2.5-7.8 5.4-11.4 3-2 3-2 5.1-1.7 1.9.7 1.9.7 3.9 2.7a38.6 38.6 0 0 1 .1 3.4c.7 6.4 5 10.9 8.9 15.6l1.6 2c9.3 10.1 21.5 14.6 34.4 18q1 .3 1.9.5c13.9 3.1 28.8.3 41-6.6C578.5 605.5 582 595 585 583q.6-3 1-6c-1.5-.3-1.5-.3-2.9-.7-16-3.8-25.9-10.7-34.6-24.7-.8-1.3-.8-1.3-1.5-2.6q-.6-1-1.2-2c-2-5-1.5-11.2-.2-16.4 3.3-7.5 10.5-11.8 17.9-14.8 17-5.6 40.4-5 55.5 5.2z" fill="#030100"/><path d="M437 873c2.9 2.8 5.1 5.5 7.3 8.9q5.8 8.7 11.7 17.4 1 1.4 1.9 2.9 8 11.6 16.1 23.2 7 10 13.9 20.2 2.7 4 5.4 8 1.6 2.3 3.2 4.7 2 2.9 4.1 5.8 1 1.6 2.2 3.2c2.9 3.5 5.5 6.2 10.2 7 8.4.4 16.7-1.7 24.9-3.3q2.5-.5 5-.9 3.9-.8 7.9-1.5l30.9-5.7q5.2-1 10.4-1.9 1.3-.2 2.6-.5 9-1.6 18-3.3 20.3-3.8 40.5-7.3 31.8-5.7 63.4-11.6 22.9-4.3 45.9-8.5 12.6-2.2 25.1-4.6 1.2-.2 2.3-.5 5.2-1 10.4-2 1.8-.3 3.7-.7 1.5-.3 3.1-.6c2.9-.4 2.9-.4 8.9-.4v171q-.5 0-1 0V942l-64 11q-6.8 1.1-13.7 2.2c-29.8 4.7-59.6 10.4-89.2 16.2q-5.1 1-10.3 2-16 3.1-32.1 6.2-24.5 4.8-49 9.5-3 .6-6 1.2-15.8 3-31.7 5.9-1.3.3-2.7.5c-16.2 3-16.2 3-22.7-.6-4.5-3.5-7-8-9.7-12.9q-1.7-3-3.4-6l-1.7-3.1-7.2-12.3q-4.3-7.3-8.6-14.8-.7-1.2-1.4-2.5c-8.1-14.2-13.9-29.2-19.6-44.5l-1-2.5c-3.1-8.3-4.7-15.6-4-24.5zm-15 11q.5 1 1 2l-2.3 5.8q-.8 1.7-1.6 3.6-.9 1.9-1.8 3.9-.4.9-.9 1.9c-5.5 12.3-11.7 24.1-18.4 35.8q-1 1.8-2.1 3.7-2.9 5.2-5.9 10.3-.7 1.2-1.4 2.3-9.5 16.4-19.5 32.5-.9 1.5-1.8 3c-9.7 15.4-9.7 15.4-15.3 19.2-7.8 1.4-15.1-1.3-22.4-3.9l-11.7-4.1q-1.3-.4-2.7-.9c-13.2-4.5-26.5-8.6-39.8-12.8q-9.7-3.1-19.4-6.2-1-.3-2.1-.7L176 954c-1.7 1.7-1.1 3.8-1.2 6.2q0 1.6 0 3.4 0 1.8 0 3.7 0 2 0 4-.1 5.3-.1 10.7 0 5.5-.1 11.1-.1 10.6-.1 21.2-.1 12.1-.2 24.1-.1 24.8-.3 49.6-.5 0-1 0V920c11.2 2.2 11.2 2.2 16.8 4l3.9 1.2q2 .7 4 1.3 2.2.7 4.3 1.4 4.6 1.4 9.1 2.9 7.1 2.2 14.3 4.5 2.4.7 4.8 1.5c1.1.4 1.1.4 2.3.7q3.6 1.2 7.2 2.3 21.5 6.8 43.1 13.5 13.1 4 26.1 8.2 3.9 1.3 7.8 2.6 3.7 1.1 7.3 2.3c12 4.1 12 4.1 24.3 2.4 3-2 5.1-4.1 7.5-6.8q1.3-1.5 2.6-3 4.7-5.5 9.2-11.1c2.6-3.2 5.3-6.3 8-9.5l9.3-11.3c3.2-4.1 6.5-8 9.9-11.8q6.2-7.2 11.9-14.6c11.6-14.8 11.6-14.8 15.3-16.7z" fill="#dd7300"/><path d="M649 652c2 2 2 2 2 5.2-1.7 6.4-6.4 10.2-11 14.8l.8 1.8c6.2 13.5 11.6 26.8 15.2 41.2q.3 1 .5 2.1c2.5 9.7 2.8 19.3 2.8 29.3v3.6c0 6.9-.6 13.3-2.3 20q1 0 2-.1c6.7-.1 13 .5 19.6 1.8q1.4.3 2.8.5c17.9 3.6 37.4 8.5 51.6 20.8q0 1 0 2c.8.3.8.3 1.7.7 2.3 1.3 2.3 1.3 4.2 3.7 4.3 3.6 8.4 4.1 13.7 5.1q4.4.9 8.8 1.8 9.3 1.9 18.6 3.7c-2.9 1.9-4 2.3-7.2 2.9q-1.3.1-2.5.3-1.3.2-2.6.4l-2.6.4c-4.4.7-8.6 1.2-13.1 1q.4.9.9 1.9c4 9.3 4 18.5.5 28L752 848q-.5 0-1 0 0-1.2 0-2.5c-.6-17.4-7-30.1-19.6-42.1-22-18.9-49.3-24.2-77.4-27.4q-.2 1.4-.4 2.8c-.8 4.3-2.1 6.6-4.6 10.2-2.7.9-2.7.9-5 1-1-2.7-1.1-3.8-.1-6.6q1.3-2.8 2.7-5.6c4-9.7 4.9-19.6 4.8-29.9q0-1.8-.1-3.6c-.2-14-2.3-27.2-6.5-40.5-.8-2.8-.8-2.8-.8-6.8q-.6.6-1.3 1.2c-25.2 22.9-52.5 30.9-86.2 30-7.8-.4-15.1-2-22.5-4.2q-1.1-.3-2.3-.6c-25-7.1-45.3-21.3-62.7-40.4q0-.5 0-1 6.2.1 12.3.2c1.7.1 1.7.1 3.5.1 6.7.2 12 1.1 18.2 3.6 5.5 2 11.2 3.3 16.8 4.7q3.2.8 6.3 1.6c11.2 2.8 22.2 5.2 33.8 5h2.6c23.2-.4 39.7-8.2 57.2-22.7 4.3-3.6 8.8-7 13.3-10.4q1-.8 2.1-1.6 6.9-5.3 13.9-10.5z" fill="#fe9900"/><path d="M165 999q.5 0 1 0v3.5q.1 16.1.2 32.2 0 8.3.1 16.5 0 8 .1 16 0 3.1 0 6.1 0 4.3.1 8.6-.1 1.2-.1 2.5c.1 5.3 1.1 8.4 4.6 12.6 6.6 4.7 15.2 7 22.8 9.7q1.8.6 3.7 1.3 14.2 5 28.4 9.8 11.5 4 23 8l51.8 17.8c13 4.2 25.9 8.7 38.8 13.3l52.7 18q1 .4 2 .7 12.4 4.2 24.8 8.4 0 1.5 0 3c-6.4-.7-12.6-2-18.9-3.5l-3.2-.8c-13.6-3.3-27-6.9-40.5-10.5q-4.3-1.2-8.6-2.3c-60.1-16-120-33-178.8-53.2q-3-1-5.9-2c-11.8-4.1-23.5-8.2-34.8-13.5q-1.1-.5-2.3-1c-6.7-3.3-14.1-7.6-18-14.2-.8-4-.3-5.6 1.8-9.1 9.7-10.2 29-12 42.2-14.9q0-.5 0-1c4.3-1 7.4-1 12-1l1-61z" fill="#fdd9aa"/><path d="M672.3 385.9c2.9 2.2 5.2 4.5 7.7 7.1q1 1 2 1.9c7.2 7.5 12.1 16 17 25.1q.9 1.7 1.9 3.5c6.7 13.3 10.5 27.9 14.4 42.2 4.1 15 10.4 28.9 17.5 42.7q.7 1.2 1.3 2.5 3.3 6.4 6.7 12.7c12.9 24.4 20.4 50 13.2 77.4-5.1 16.4-15.5 29.2-30.3 37.6-15.3 7.9-34.6 13.6-51.8 9.7-3.8-.4-5 .6-8 3-8.8 6.7-8.8 6.7-12.9 6.7q-.5-3-1-6l2.3-1.7c20.9-15.4 37.3-34.3 42.3-60.5 3.5-24.2-3-45.8-13.3-67.4-7.1-15-8.5-31.4-8.9-47.8-1-31.1-8.1-65.6-31.2-88.3-2.2-2.3-2.2-2.3-2.2-4.3 12.3-3.8 22.3-2.5 33.3 3.9zM654 388c1.5 4.3 3.7 7.7 6.3 11.4 14.9 22.7 19.1 51.2 20 77.9.7 19.4 5 35.8 12.9 53.4 10.4 23.3 14.2 49.6 5.6 74.1-3.9 10.2-9.2 19.5-15.8 28.2q-1.5 2.1-2.9 4.1-1.1 1.4-2.1 2.9c18 .7 37.1-3.1 51.1-15.2 1-.9 1-.9 1.9-1.8q.9-.9 1.8-1.7c11-11.3 15.8-27 15.6-42.4q0-1.7 0-3.4c-.5-21.2-9.5-40.4-20-58.5-11.7-20.2-18.9-41.9-25.5-64.1-6.4-21.5-16.5-50.8-37.6-62.4-4.1-1.7-6.9-2.5-11.3-2.5z" fill="#642500"/><path d="M224 662c1.1 3.2.9 4.2.2 7.4-5.9 29.1-5.5 58.5 11.2 84.1 7.7 11.3 17.6 18.7 28.6 26.5q-2.5 8.3-5.1 16.6c-1.4 4.8-2.8 9.5-3.9 14.4-9-1.3-17.7-3.2-26.5-5.4-1.9-.4-1.9-.4-3.8-.9q-1.8-.4-3.6-.8l-3.3-.8c-10.4-4-17.5-21.5-22.1-31.1-10-22.4-9.1-49.5-.6-72.2 6.3-15.6 16.9-26.4 28.9-37.8z" fill="#fecd06"/><path d="M907.6 380.3c2 2 3.3 3.9 3.7 6.7-.2 3.9-1.1 5.7-3.7 8.7-5 3.7-11.2 5.3-17.1 7.1-11.6 3.6-17.8 10.7-23.5 21.2-2 4.4-3.8 8.8-5.6 13.3q-.6 1.7-1.3 3.4-3.5 8.6-6.7 17.2c-6.7 17.4-18.6 31.4-35.5 39.3-7.6 3.2-15.6 4.3-23.4 1.5-2.6-1.8-4.1-2.9-5.5-5.7-.5-3.9-.4-6.2 1.3-9.7 3.4-2.9 6.6-3.9 10.8-5.3 11.1-3.8 16.8-8.5 22.1-19.1 3.3-7.1 5.9-14.5 8.5-21.9 8.6-24 19.1-45.5 43.3-57 10.3-4.5 23-7.1 32.6.3z" fill="#37aafa"/><path d="M733 794c8.8.5 17.3 1.9 25.9 3.7 10.3 2.2 20.6 4.3 31 6q1.1.2 2.4.4 5.7.9 11.5 1.8 2.1.3 4.2.6 1.8.3 3.7.6c5.6 1.5 9.6 5 13.9 8.9q1.2 1.2 2.6 2.4 1.4 1.3 2.8 2.6 1.6 1.4 3.1 2.9 3.3 3 6.6 6.1 4.6 4.2 9.1 8.3l26.6 24.8q2.2 2.1 4.3 4.1 1.1 1.1 2.2 2.1 5.5 5.2 11.1 10.3 2.2 2 4.4 4 2.5 2.3 5.1 4.6c5.8 5.4 5.8 5.4 6.5 9.8q0 1.5 0 3c-2.8 2.4-5 3.5-8.6 4.1q-1.3.3-2.8.6c-1.5.3-1.5.3-3 .5q-1.6.4-3.3.7-4.6.9-9.2 1.7-5.7 1.1-11.4 2.2l-37.1 6.9q-1.1.2-2.2.4c-2.9.5-5.5.9-8.4.9q0 1.3 0 2.7.1 32.8.2 65.5 0 15.9 0 31.7.1 13.8.1 27.6 0 7.4 0 14.7 0 6.8 0 13.7 0 2.6.1 5.1 0 3.4 0 6.9 0 1.9 0 3.9c-.4 3.4-1.1 4.7-3.4 7.2q-.7.9-1.4 1.9c-3.2 3.9-5.4 6.1-10.6 7.1-6.4.4-6.4.4-10-2q3-.5 6-1 0-1 0-2l2.7-.8c3.1-1.1 5.6-2.2 8.3-4.2 1.3-3.6 1.1-7.2 1.1-11q0-1.1 0-2.1 0-3.6 0-7.1 0-2.6 0-5.1 0-6.9 0-13.8 0-7.3 0-14.5 0-13.6 0-27.3 0-15.5 0-31.1-.1-32-.1-64l-10-1q1-.5 2-1 0-1 0-2-1-.5-2-1l1-3q.8-.1 1.7-.3L881 900q1.2-.2 2.4-.4 3.4-.7 6.8-1.3c1.9-.3 1.9-.3 3.8-.7 3-.5 3-.5 6-1.6q-.7-.6-1.5-1.3c-4.9-4.3-9.8-8.7-14.6-13.3q-2.2-2.1-4.5-4.2-1.1-1.1-2.2-2.1l-28.6-26.6q-3.3-3-6.5-6-2.5-2.3-4.9-4.6-3.2-2.9-6.3-5.8-3-2.8-6.1-5.5-2.7-2.5-5.3-5.1c-4.4-4.1-4.4-4.1-10-5.7-11.3 1.2-22.6 3-33.8 4.8q-3.2.5-6.3 1-7.7 1.2-15.4 2.4c-1.5-3.4-2-5.2-2-9l25-4-5.8-1.2q-2.8-.6-5.7-1.2-2.9-.6-5.8-1.2c-19.6-4.2-19.6-4.2-24.7-11.4q-1-1-2-2z" fill="#7a3100"/><path d="M118 378c5.2 3.1 7.9 7.6 11.3 12.5 8.3 11.9 22.1 17 35.1 22.7 19.1 8.4 35.3 19.9 44.5 39.4 2 6.4 2.2 12.9 1.1 19.4-2.4 4.3-4.4 7.1-9 9-4 .5-6.3.3-10-1.4-4-3.5-5.2-7-7-11.9-4.1-11.2-9.3-17.4-20-22.7l-13-5.6c-12.4-5.2-23.6-10.7-34-19.4l-2.3-1.9c-6.7-6-11.7-14.5-13.3-23.5-.2-6.1.4-10.1 4.6-14.6 4.1-2.7 7.2-2.8 12-2z" fill="#f26305"/><path d="M670.7 1031.7c9.7 5.6 16.1 14.6 19.6 25.1 1.8 8.4 2.3 17.7-2.3 25.2-4 3.7-7.2 5.3-12.8 5.2-2.8-.3-5.4-1-8.2-1.7-8.2-2.1-13-2-20.5 2-3.1 1.8-5.8 4-8.6 6.1-4.1 3-7.9 4.7-13.1 4.4-3.8-1-3.8-1-6.2-3.2-5-8.6-4.8-18.8-2.9-28.4 4.1-14.4 12.7-26.8 25.8-34.2 9.5-4.5 19.7-4.9 29.2-.5z" fill="#662500"/><path d="M370 632c1 21.1-4.3 36.9-18 53-3.3 3.5-6.7 6.9-10.1 10.2q-1.4 1.4-2.9 2.9-5.2 5.1-10.5 10.3-4.4 4.4-8.9 8.8-2 2.1-4.1 4.1c-5.1 5.1-9.9 10.4-14.5 16.1-2.1 2.7-4.3 5.3-6.5 7.9-16 19.7-25.2 42.1-30.5 66.7-2.8 1-3.9 1-6.8.1q-1.1-.6-2.2-1.1c1-9 3.6-17.1 6.8-25.5 1.3-3.2 1.3-3.2 1.2-5.5q-2.4-1.9-4.9-3.6c-19.2-13.7-32.8-32.5-37.4-56-2.5-19.4-.4-38.3 3.3-57.4-19.9 18.5-33.1 38.7-34.2 66.6-.7 25.9 6.7 49.1 23.2 69.4q-.5 1-1 2c-4.1-.3-7.7-.7-10.7-3.7-1.5-2.3-2.8-4.7-4-7.1-.7-1.3-.7-1.3-1.5-2.6-13.7-25.9-17-55.9-8.8-84.1 4.1-12.5 10.6-23.5 19-33.5q1.1-1.4 2.3-2.9c2.7-3.3 5.7-5.8 9.1-8.4q.8-.7 1.6-1.4c3.9-3 7.1-4 12-4.3 2.1 3.5 2 5.9 1.1 9.7q-.7 2.7-1.4 5.4c-1.9 7.4-3.5 14.3-3.7 21.9 0 .9 0 .9-.1 1.9-.8 23.5 3.6 44.4 18.1 63.1q.7 1 1.4 2c4.9 6.4 12 11.4 18.6 16q1 0 2 0l1.6-3.2c8.7-16.5 19.8-31.5 32.7-44.9l7.4-8.1c4.8-5.3 9.9-10.4 15-15.5q1.2-1.1 2.4-2.3 4.8-4.8 9.7-9.5 3.6-3.5 7.1-7.1c1.1-1 1.1-1 2.2-2.1 10.5-10.4 16.3-22.6 16.9-37.3.2-3 .4-5.3 2.4-7.6 3.9-3.4 3.9-3.4 5.6-3.4z" fill="#cb4c02"/><path d="M396 514q.5 0 1 0c1.5 10.3 2.3 20.4 2.3 30.8q0 3.4 0 6.9.1 9.9.2 19.9 0 6.1 0 12.2.1 2.3.1 4.6c0 13.4 1.8 26 6.2 38.8q.3 1.1.7 2.3c6.3 17.6 18.6 31.4 33.2 42.6 2.3 1.9 4.3 3.8 6.3 5.9-12.4-2.2-12.4-2.2-17.9-4.5-13.7-5.8-29.9-7.6-44.2-2.5q-3 1.4-5.9 3-1.7.9-3.4 1.7c-9.1 5-17.3 11-25.6 17.3q-2 1.5-4 3-1-.5-2-1 1.2-1.1 2.3-2.2 1.6-1.5 3.1-3l1.5-1.5c3-2.9 4.7-5.3 6.1-9.3q1.6-2.6 3.4-5.1c6.3-9.9 9.5-20.7 9.7-32.4.1-8 1.2-11.9 6.6-17.8 18.7-22.5 19.9-56 19.4-83.8-.1-8.7.1-17.2.9-25.9z" fill="#fe9d00"/><path d="M649 652c2 2 2 2 2 5.2-1.7 6.4-6.4 10.2-11 14.8l.8 1.8c6.2 13.5 11.6 26.8 15.2 41.2q.3 1 .5 2.1c2.5 9.7 2.8 19.3 2.8 29.3v3.6c0 6.9-.6 13.3-2.3 20q1 0 2-.1c6.7-.1 13 .5 19.6 1.8q1.4.3 2.8.5c17.9 3.6 37.4 8.5 51.6 20.8q0 1 0 2 .8.3 1.7.7c2.3 1.3 2.3 1.3 4.2 3.7 4.3 3.6 8.4 4.1 13.7 5.1q4.4.9 8.8 1.8 9.3 1.9 18.6 3.7c-2.9 1.9-4 2.3-7.2 2.9q-1.3.1-2.5.3-1.3.2-2.6.4l-2.6.4c-4.4.7-8.6 1.2-13.1 1q.4.9.9 1.9c4 9.3 4 18.5.5 28L752 848q-.5 0-1 0 0-1.2 0-2.5c-.6-17.4-7-30.1-19.6-42.1-22-18.9-49.3-24.2-77.4-27.4q-.2 1.4-.4 2.8c-.8 4.3-2.1 6.6-4.6 10.2-2.7.9-2.7.9-5 1-1-2.7-1.1-3.8-.1-6.6q1.3-2.8 2.7-5.6c3.9-9.7 4.9-19.6 4.8-29.9q0-1.8-.1-3.6c-.4-24.2-6.8-46.6-17.3-68.3-4.8 3.1-9.5 6.4-14.1 9.8-23.6 17.2-47.4 23.1-76.4 18.5-18.2-3-34.1-9.2-49.5-19.3 4-1.3 5.7-.3 9.6 1.1 7.3 2.4 14.7 4.3 22.2 6.1q1.5.4 3.1.7c10.3 2.5 20.4 4.5 31 4.3h2.6c23.2-.4 39.7-8.2 57.2-22.7 4.3-3.6 8.8-7 13.3-10.4q1-.8 2.1-1.6 6.9-5.3 13.9-10.5z" fill="#ca4e00"/><path d="M599.3 627.2c3 2 4.7 3.8 6.7 6.8 1.4 8.6.3 17.4-4 25-6.6 9.1-13.3 13.3-24 16-10.8 1-20.9.5-29.9-6.1-6.6-9-8.4-16.6-7.1-27.9 1.3-4.7 3.9-9.2 7.9-12.1 5.2-2.2 10.7-1.9 16.1-.9 2.8 1.6 4.9 3.3 7.2 5.6q.9.7 1.8 1.4c3.3-.8 3.3-.8 5.4-3.9 5-6.3 12.7-6.5 19.9-3.9z" fill="#eb5c68"/><path d="M483.7 476c8.3 5.2 13 12.6 15.9 21.9 2.1 11 .1 21.5-5.8 31-3.7 4.7-8.9 7.9-14.8 9.1-7.6.7-13-2-19.2-6.1-7.1-6.5-10.2-15-11-24.3-.4-9.5 2.3-18.2 8.2-25.6 7.4-7.7 16.6-11.1 26.7-6z" fill="#020100"/><path d="M875 578c3.6 1.6 6.2 3.4 8 7 .4 5.8-.4 10-2.9 15.3q-.4 1-.9 2.1c-12 25.6-12 25.6-20.2 34.6q-.8 1-1.7 2c-9.4 10.3-23.7 19-37.8 20.2-5.2.1-9-.1-13.5-3.2-2.5-3.7-2.5-5.6-2-10 3.1-5.3 7.3-6.8 12.7-8.9 15.3-6.5 21.9-14.7 29.3-29.4l9.1-17.7q.7-1.3 1.4-2.7c4.5-7 10.2-10.2 18.5-9.3z" fill="#febf01"/><path d="M641 373c2.1 1.9 4.1 3.9 6 6q0 1 0 2c-3.1.9-5.8 1.3-9 1-2.5-1.6-4.4-3.5-6.4-5.6-9.3-8.6-21-13.8-32.6-18.4q-1.4-.6-2.9-1.2c-6.4-2.4-13-3.7-19.7-4.9-1.3-.3-1.3-.3-2.6-.5-15.9-2.8-31.7-3.8-47.8-3.8q-4.7 0-9.4 0c-19.4-.2-38.1 2.7-56.6 8.4q-1.1.3-2.3.7c-22.1 6.9-43.2 17.8-59.7 34.3l-7-3c4-10.2 18.9-17.6 28-23 .9-.6.9-.6 1.9-1.1 61-35.9 164.9-39.7 220.1 9.1z" fill="#cf5801"/><path d="M679 966q-2 2-4 4c1.5 2.5 2.9 4.9 4.8 7.1q.6.9 1.2 1.9-.5 1.5-1 3-.9-1.4-1.7-2.8c-2.6-3.8-2.6-3.8-6.3-6.2-4.8-.8-8-.6-12.3 1.9-6.3 6.1-8.8 14.8-8.9 23.4 0 6.4 1.3 11.8 4.8 17.2 3.6 2.2 7.2 2.9 11.4 2.5 6.8-3.2 9.8-9.8 12.4-16.6l.6-2.4c1.1 3.3.9 5.1-.4 8.3-.5 1-.5 1-.9 2.1q-.3.8-.7 1.6 1.5-1.5 3-3 1 .5 2 1l-2 6q-1.6.1-3.2.3c-4.1.8-5.7 2-8.8 4.7q-1.5 0-3 0 0 1 0 2 1 .5 2 1l-6 4q1 1 2 2-1.3 0-2.6 0c-12.5.5-21.9 3.5-31 12.2-4.5 5.2-8 10.9-11.4 16.8q-3-.5-6-1 0-1 0-2-1.2 1.2-2.5 2.5c-2.7 2.3-4.4 2.8-7.9 2.8q-1.8-.1-3.6-.3 0-.5 0-1l1.8-.2c4.6-.8 6.6-1.1 9.7-4.7 3.5-7.2 3.5-15.8 2-23.7-1.8-5.2-4.9-9.4-9.3-12.8-4.6-1.3-9.7-1.1-14.2.4 1.7-2 2.6-2.9 5.2-3.5 6 0 9.8 1.1 14.8 4.5 2 1.2 2 1.2 4.2.8 2-.7 2-.7 2.8-2.8q.7.6 1.5 1.3a31.92 31.92 0 0 0 1.9 1.6c.9.9.9.9 1.9 1.7 3.5 2.9 6.2 2.6 10.7 2.4 2.3-.4 2.3-.4 4-2 2.9-5.5 3.6-10.1 3.6-16.2v-2.5c-.3-8.9-3-15.8-9.4-22-4.2-1.7-7.8-2.3-12.2-1.3-3.3 2.6-5.5 5.1-7 9-.3 2.8-.5 5.5-.6 8.3q-.1 1.1-.1 2.2-.2 2.8-.3 5.5-.5 0-1 0c-2.2-8.4-1.4-15.4 3-23q1-1 2-2h-9c3.4-2.3 5.7-2.6 9.7-3.3q1-.2 2-.4 2.1-.4 4.3-.7 5.6-1 11.2-2l2.3-.4c8.6-1.6 17.2-3.4 25.8-5.2 6.4-1.4 12.2-2.1 18.7-2z" fill="#f9a516"/><path d="M157.5 628.2c2.9 2.1 4.1 3.5 5.5 6.8.6 4.7-.2 7.2-3 11a62.1 62.1 0 0 1-6.5 3.9q-2.2 1.1-4.3 2.3-1.2.6-2.5 1.3-4.6 2.6-9.3 5.2-2.6 1.5-5.3 3-2.5 1.4-5.1 2.9c-24.2 13.6-24.2 13.6-35 11.4-3.4-2-3.8-3.5-5-7.3 0-6.8 3.2-11.1 7.8-16.1 14.5-13.7 42.3-31.3 62.7-24.4z" fill="#509d0e"/><path d="M636.5 466.1c7.4 4.5 11.2 10.7 13.5 18.9 1 10.8.3 19.5-6.4 28.4-3.9 3.9-7.4 5.7-12.9 6.1-5.4-.2-9.5-2.1-13.7-5.5-7.1-8.2-8.6-16.5-8.3-27.1.6-8.1 4.3-14.5 10.3-19.9 5.3-3.3 11.9-3.3 17.5-.9z" fill="#010100"/><path d="M225 734c1.8 2.7 3.2 5.5 4.6 8.4 7.8 16.3 19.3 27.7 34.4 37.6q-2.5 8.3-5.1 16.6c-1.4 4.8-2.8 9.5-3.9 14.4-9-1.3-17.7-3.2-26.5-5.4q-1.9-.4-3.8-.9-1.8-.4-3.6-.8l-3.3-.8c-5.5-2.1-7.9-6.6-11-11.4q-1.1-1.6-2.2-3.2-.8-1.2-1.6-2.5.5-1 1-2 1.6.5 3.3 1c5.2 1.3 10.4 1.9 15.7 1 2.8-2.5 4.8-5.1 5.2-8.9.3-11.4-.1-22-2.9-33.1-.9-3.8-1.4-6.3-.3-10z" fill="#fe9d00"/><path d="M587 605q.7.6 1.5 1.1c10.7 8.2 20.8 14 34.5 14.9q-1 5.5-2 11c-.2 1.3-.2 1.3-.5 2.6-2.8 15.3-8.8 28.7-21.5 38.4-11.9 7.8-23.9 10.1-38 9-3.9-1.5-6.2-4-9-7l-2.3-2.3q-.8-.8-1.7-1.7.5-1.5 1-3 2 1.5 4 2.9c8.8 4.7 21 4.5 30.5 2 8.9-3.2 15.3-9.6 19.5-17.9 2.7-6.6 3.1-14.1 2-21-2.6-3.9-4.5-5.9-9-7-5.7-.6-10.1-.3-15 3-1.8 1.9-3.4 3.9-5 6-2-.9-3.8-1.8-5.5-3.2-4.9-4-9.2-4.7-15.5-4.8q0-.5 0-1 1.4-.2 2.9-.4 1.5-.3 3.1-.6.5-1 1-2 2.2-1.1 4.4-2.1c8.2-3.9 15.1-9.7 20.6-16.9z" fill="#4f0608"/><path d="M376 816c2.2 2.8 4 5.6 5.7 8.8 3.7 6.3 8.4 12.2 15.3 15.2 7.4 1.7 15.1 2.3 22.7 3 22.2 1.9 22.2 1.9 32.3 7q1.3.7 2.7 1.3c12.2 6.8 20.4 17.2 28.9 27.9 9.7 12.2 9.7 12.2 23.4 18.8 6.3.6 11.1-.7 17-3-.8 9.8-.8 9.8-4 13-6.8 2.4-12.6.6-18.9-2.3-9.9-5.5-17.9-12.8-25.2-21.3-11.2-12.9-22.5-24.7-39.6-28.9q-1.2-.3-2.4-.6c-9.5-2.4-19.1-4.5-28.6-6.6q-4-.9-8-1.8-2.5-.5-4.9-1-3.2-.7-6.4-1.5-1-.2-2-.5c-1.9-.4-1.9-.4-5-1.5-1.6-3.1-1.6-3.1-2.5-6.9q-.2-1-.5-2.1c-1.2-5.8-1.1-11.2 0-17z" fill="#fd9f00"/><path d="M856 907q-1.5 1.5-3 3 1.5 1 3 2-3 1-6 2 0 .5 0 1-5.7 1-11.3 2-1.6.3-3.3.6-1.5.2-3.1.5l-2.8.5c-2.5.4-2.5.4-5.5.4q0 1.3 0 2.7.1 32.8.2 65.5 0 15.9 0 31.7.1 13.8.1 27.6 0 7.4 0 14.7 0 6.8 0 13.7 0 2.6.1 5.1 0 3.4 0 6.9 0 1.9 0 3.9c-.4 3.4-1.1 4.7-3.4 7.2q-.7.9-1.4 1.9c-3.2 3.9-5.4 6.1-10.6 7.1-6.4.4-6.4.4-10-2q3-.5 6-1 0-1 0-2l2.7-.8c3.1-1.1 5.6-2.2 8.3-4.2 1.3-3.6 1.1-7.2 1.1-11q0-1.1 0-2.1 0-3.6 0-7.1 0-2.6 0-5.1 0-6.9 0-13.8 0-7.3 0-14.5 0-13.6 0-27.3 0-15.5 0-31.1-.1-32-.1-64l-10-1q1-.5 2-1 0-1 0-2-1-.5-2-1 .5-1.5 1-3 6.7-1.3 13.3-2.5c1.9-.4 1.9-.4 3.8-.7 6.6-1.2 12.9-2.1 19.6-1.8 3.9 0 7.4-1.1 11.3-1z" fill="#7d3300"/><path d="M758 837c3.8 6.2 2.6 14.6 1.3 21.5-3.4 12.3-10.4 21.9-21.5 28.3-20.1 10.6-43.2 13.7-65.5 8.3-16.5-5.4-25.6-15.3-36.2-28.6-8.1-9.6-15.7-13.5-28.1-14.7q-1.2-.1-2.3-.2-2.9-.3-5.7-.6c7.3-4.1 18-5.3 26.2-3.5 10.5 3 18.4 11.1 25.2 19.4 9.8 11.9 25.5 20 40.6 22.1 17.8 1.5 35-1.5 49.4-12.9 11-10.3 15.9-24.3 16.6-39.1z" fill="#dc7000"/><path d="M672 972c3.9 2.1 6.3 4.8 8.4 8.6 1.9 11.1.8 21.8-5.3 31.4-2.3 3.2-4.2 5.7-8.1 7-4.1.4-7.5.1-10.8-2.4-5.6-6.1-6.6-12.7-6.4-20.8.7-9.1 4.2-16.4 11.1-22.5 3.6-2.2 7-2.1 11.1-1.3z" fill="#692600"/><path d="M627 979c5.6 2.6 8.3 6.7 11 12q.6 1.1 1.1 2.2c1.3 4 1.3 7.9 1.3 12.1q0 1.2 0 2.5c.1 5.7-.8 10.6-4.4 15.2-3.7 2.3-6.6 2.5-11 2-7.2-3.8-10.7-8.5-13.3-16.1-2.2-7.7-3.9-16.6.1-24 4.5-5.8 7.9-7 15.2-5.9z" fill="#632300"/><path d="M465 772q.7.6 1.5 1.1c10.6 7.6 22.2 10.6 34.8 12.9 28.4 5.6 56.4 14.9 73.3 40.2 1.9 2.9 3.7 5.8 5.4 8.8q.8 1.3 1.7 2.7c5.5 9.5 3.9 20 1.3 30.3l-3 1q0-1.6-.1-3.3c-.6-18.9-6.7-32.8-20.6-45.8-15.4-13.8-34.6-19.8-54.3-24.6q-1.8-.5-3.7-.9-3.7-.9-7.3-1.8c-19.8-4.8-19.8-4.8-26-11.6-1.3-2.9-2.2-5.9-3-9z" fill="#c44000"/><path d="M733 794c8.8.5 17.3 1.9 25.9 3.7 10.3 2.2 20.6 4.3 31 6q1.1.2 2.4.4 5.7.9 11.5 1.8 2.1.3 4.2.6 1.8.3 3.7.6c8.6 2.3 13.4 8.9 18.3 15.9q-2 1.5-4 3l-2.1-1.9q-1.3-1.2-2.7-2.5-1.3-1.2-2.7-2.4c-4.1-3.6-6.1-4.4-11.5-4.2q0 .5 0 1-7.9 1.2-15.9 2.5-2.7.4-5.4.8L754 824c-1.5-3.4-2-5.2-2-9l25-4-5.8-1.2q-2.8-.6-5.7-1.2-2.9-.6-5.8-1.2c-19.6-4.2-19.6-4.2-24.7-11.4q-1-1-2-2z" fill="#763000"/><path d="M699 271c3.4 3 4.7 4.6 5.6 9.1-2.2 15-9.5 28.7-21.4 38.4-3.1 2-5.2 2.5-9 2.5-3.2-1-3.2-1-5.2-2.5-2.4-6-.1-11.5 2.2-17.2 14.1-32.5 14.1-32.5 27.8-30.3z" fill="#febe02"/><path d="M276 324.6c10.4 4.8 15.4 13.3 20 23.4 1.7 4.5 2.7 9.2 2 14-1.5 2.4-1.5 2.4-4 4-6.4 1.1-10.2-.7-15.6-4.2-8.4-6.3-13.8-13.8-17.4-23.8-.5-5.8.3-8.5 4-13 3.6-1.8 7.2-1.6 11-.4z" fill="#4d9c0e"/><path d="M114 504c8.3 3.9 15.9 8.4 21.1 16.1 1 3.3 1.2 4.7-.1 7.9-2.8 3.1-4.4 3.9-8.6 4.5-13.5-.8-27.4-8.7-36.4-18.5-2.3-3.3-3-4.5-3-8.6 1-3.4 1-3.4 3.1-5.3 8.7-3.2 15.8.3 23.9 3.9z" fill="#fec001"/><path d="M601 1016c5.8 2.7 9 7.5 12 13 2.2 6.3 2.1 15.3.2 21.7-1.4 2.8-3 5.1-5.2 7.3-4.2.8-8.3.9-12.1-1.1-6.9-5.5-9.7-13.3-10.9-21.9-.5-5.8-.3-10 3-15 3.8-4.1 7.5-5 13-4z" fill="#622300"/><path d="M899 762c5.1 3.4 9 7.1 11 13 .5 5 .1 8-3 12-3 2-3 2-6.1 1.9-4.7-1.1-8.4-2.9-12.6-5.3q-1.2-.6-2.4-1.3c-7.5-4.4-17.8-10.7-20.9-19.3 0-3.6 0-3.6 1-7 8.7-7.5 24.4 1.3 33 6z" fill="#4e9c0e"/><path d="M136.9 741.9c3.1 2.2 4.1 3.8 4.7 7.5-1.2 6.9-5.3 10.7-10.7 14.7-3.6 2.3-7.2 4.3-11 6.3q-1 .5-2.1 1c-4.2 2.1-8 3.3-12.8 3.6-3.6-1.6-6.1-3.5-8-7-.5-4.1-.3-6.4 1.6-10.1 7.6-9.2 25.8-21.7 38.3-16z" fill="#f06005"/><path d="M787 726c5.7 3.3 9.5 6.8 12 13 .1 3.2.1 3.2-1 6-3.6 3.5-6 4.6-10.9 4.7-10-.3-18.7-5-25.8-11.8-3.9-4.3-6.3-7.6-6.2-13.6.9-3.3.9-3.3 2.6-4.5 9-3 21.2 2.3 29.3 6.2z" fill="#38a8fa"/><path d="M619 792c2.6 2.6 2.3 3.6 2.4 7.2-.3 13-5.4 25-10.4 36.8q1.2-2.7 2.4-5.3.7-1.5 1.4-3c1.3-2.7 1.3-2.7 2.2-5.7 15.5.8 24.2 6.6 35 17.7 4.9 5.5 10 11.6 13 18.3q-1 0-2 0-1.3-2-2.6-4.1c-1.5-2.2-1.5-2.2-3.4-3.9-2.2-.1-2.2-.1-4.4.4-4.1.9-4.1.9-6.7-.7q-2-1.8-3.8-3.7c-5.8-5.5-10.5-6.6-18.3-6.4q-1.2 0-2.5.1c-6.5.1-12.9.9-19.3 2.3q.7-1.7 1.5-3.5c6.2-15 11.7-30.6 15.5-46.5z" fill="#fe9f00"/><path d="M705 998c4.3 3.7 5.7 8.2 6.3 13.7.3 8.2-.8 15-6.1 21.5-3.1 3.1-5.9 5.2-10.4 5.6-4.6-1-6-2.1-8.8-5.8-3.1-6.4-3.1-13.8-1.3-20.6 3.9-9.5 9.5-16.1 20.3-14.4z" fill="#622200"/><path d="M763 349c2.1 1.5 2.1 1.5 3 4 1 7.1-1.1 12.1-5 18-5.1 6.6-11.6 14.7-20.2 16.5-2.9.1-5.1 0-7.5-1.8-2.5-3.2-1.8-6.8-1.3-10.7 2.5-10.6 10.4-18.7 19-25 4-1.3 7.8-1.5 12-1z" fill="#febd01"/><path d="M946 488c3 2.1 3 2.1 5 5 .4 4.7-1 7.4-3.9 10.9-8 8.4-17.6 15.3-29.4 16.4-3 .1-5.8.1-8.7-.3-2-2-2-2-2.1-4.6 2.9-9.4 11.9-17.4 20.2-22.2 11.8-5.9 11.8-5.9 18.9-5.2z" fill="#4d9b0e"/><path d="M588.3 522.8q1.2-.1 2.4-.1c5.9 0 11 .8 16.3 3.3 2 2 2 2 2.4 4.8-.5 4-1.5 5.4-4.4 8.2-9.8 5.4-23.4 6.9-34.2 4.2-7.3-2.5-7.3-2.5-9.8-6.2-.4-3.5-.5-5.3 1.5-8.2 7.6-5.5 16.7-6 25.8-6z" fill="#906d3d"/><path d="m140.9 287.9c8.5 1.8 14.1 8.5 19.1 15.1 3.3 5.6 5.9 11.4 6 18-1 3.9-1.6 4.7-5 7-6.9 0-12.3-4.5-17.1-9-6.2-6.5-11-14-12.6-22.9 1.3-5.8 3.7-8.1 9.6-8.2z" fill="#febc02"/><path d="M938.3 668.9c2 3.7 2.3 5.8 1.5 9.9-1.5 4.2-3.9 6.1-7.8 8.2-7.7 3.3-15.3 4.4-23.6 4.6q-1.2 0-2.4 0c-3.9 0-5.6-.3-8.5-3-1.5-2.6-1.5-2.6-1.2-5.5 4.9-8.9 14.2-12 23.1-15.4 6.6-1.3 13-2.2 18.9 1.2z" fill="#f05d05"/><path d="M443 866c12 4.2 21.4 16.2 29.9 25.2 9.2 9.6 18.7 17.5 31.5 21.7l3.4 1.2c17.6 5 35.3 1.5 51.2-6.8 3.5-1.8 6.1-2.7 10-2.3.3-.8.3-.8.6-1.7 2-3.2 4.4-5 7.4-7.3-5.6 11.9-16.8 17.5-28.7 22-19.1 5.9-38.1 4.5-55.9-4.7-3-1.8-6-3.7-8.9-5.6q-.9-.6-1.9-1.2-1.7-1.2-3.5-2.4c-3-2.1-5.4-3.2-9.1-3.7-5-1.1-7-4.7-9.7-8.9q-.9-1.4-1.9-2.9-.9-1.5-1.8-2.9-2.9-4.3-5.6-8.7-2-3.1-4-6.2-1.5-2.4-3-4.8z" fill="#de7100"/><path d="M514 628l3.7.5c5.8.6 11.6.8 17.4 1.1 1.5 0 1.5 0 3.2.1q3.8.2 7.7.3-.7.9-1.4 1.9c-2.1 4.1-2.4 7.9-2.8 12.4q-.2 1.2-.3 2.5c-.7 6.5-1.1 13.4 2.5 19.2-8.4-7.1-8.4-7.1-11-10q0-1 0-2-.8-.3-1.7-.6c-3.1-1.9-4.6-4.1-6.7-7q-.6-.8-1.2-1.7c-8.1-11.1-8.1-11.1-9.4-16.7z" fill="#57080a"/><path d="M587 346c21 2 43.7 15.9 58 31 1.3 2.3 1.3 2.3 2 4-3.1.9-5.8 1.3-9 1-2.5-1.6-4.4-3.5-6.4-5.6-9.3-8.6-21-13.9-32.6-18.4q-1.5-.6-3-1.2c-9.3-3.4-19.2-5-29-6.8q0-.5 0-1c5.7-.2 10.9.3 16.5 1.5q1.1.2 2.2.4 2.7.6 5.3 1.1.5-2 1-4l-5-1q0-.5 0-1z" fill="#ca4402"/><path d="M629 839c6.5 1.1 12.1 3.9 16.5 8.9 2.2 2.4 2.2 2.4 4.6 1.9q1.1-.2 2.3-.4c2.4-.5 2.4-.5 4.6-.4 2.6 1.9 4.4 4.2 6 7q0 1 0 2 .8.1 1.7.3c2.9.9 4.5 2.4 6.8 4.5 8.5 6.9 17.8 9.8 28.5 11.2-1.9 5.9-1.9 5.9-3 7-12.8 1.5-22.5-3.3-32.5-10.9-5.1-4.3-9.6-9.1-14-14.2-6.3-7.2-12.7-12-21.5-15.9q0-.5 0-1z" fill="#fda500"/><path d="M191.1 561.7c7 .1 12.9 3.4 17.9 8.3 3.3 4.9 5.6 9 5 15-1.4 2.4-1.4 2.4-4 4-4.5.8-7.8-.2-11.6-2.7-6.7-5.7-11.8-12-12.8-20.9.6-3.8 1.8-3.6 5.5-3.7z" fill="#35a4fa"/><path d="M484 428q2.5 1.9 5 4-1.9.3-4 .5c-16.7 2.3-29.3 6.1-43 16.5.4-8.2 2.2-13.6 8.3-19.3 9.9-7.8 22.7-7.9 33.7-1.7z" fill="#d15700"/><path d="M405 402c3.1 4.6 2.6 8.6 2 14-1.2 4.7-2.7 9.4-4.3 14-1.1 3-2 6.1-2.9 9.2q-.4 1.5-.9 3c-2.3 9.8-3.2 19.4-3.1 29.4q0 1.7 0 3.5 0 5.3.1 10.7 0 3.7 0 7.4 0 8.9.1 17.8-1.5 0-3 0c-4.2-31.8-1.9-62.3 8.6-92.8 1.2-3.5 2-7 2.6-10.8.2-1.5.2-1.5.5-3.1.1-1.1.1-1.1.3-2.3z" fill="#f8a201"/><path d="M611 814q1 1 2 2-1.6 4.5-3.3 9.1-.4 1.2-.9 2.5c-1.8 5.1-3.6 10-6.8 14.4-3.1 1.3-3.1 1.3-6.4 1.9q-1.7.4-3.4.7c-2.8.3-5.4.5-8.2.4-1.8-3.1-2-4.2-2-8q1-.5 1.9-.9c5.9-3 11-6.4 16-10.6l1.6-1.4c3.6-3.1 6.6-6.4 9.5-10.1z" fill="#fda500"/><path d="m608 528q0.5 0 1 0c0.3 3.6 0.3 5.5-1.6 8.7-7.7 7.3-20.1 7.8-30.2 7.6-5-0.5-9.7-1.9-14.2-4.3-2.3-3.4-2.2-5-2-9 3.9 0 4.5 0 7.5 1.9 7 4.5 16.6 4.3 24.6 2.7 8.6-2.1 8.6-2.1 14.9-7.6z" fill="#39341d"/><path d="M639 418c3.9 2.8 7.6 5.7 11 9q0 1 0 2c-7.3-.5-13.9-1.9-20.9-4.1-7.9-2.3-14.8-3.8-23.1-2.9 9-10.1 21.5-10.6 33-4z" fill="#ce5000"/><path d="M339 695q1 .5 2 1-.6.6-1.2 1.2-6.2 6.1-12.4 12.3-2.3 2.3-4.6 4.6c-11.6 11.4-11.6 11.4-22 23.8-1.8 2.1-3.6 3.6-5.8 5.1l-1-3q-.5 1-1 2-2 0-4 0c0-4.2 2.4-6.2 5.1-9.3l1.5-1.7q2.2-2.5 4.4-5 1-1.2 2.1-2.4c3.2-3.3 5.1-5.2 9.9-5.6 5-1.3 7.6-3.1 11.2-6.8l1.4-1.4q2.1-2.2 4.3-4.4 1.5-1.5 2.9-3 3.6-3.7 7.2-7.4z" fill="#c84901"/><path d="M557 892c1.2 3.7 1.1 5.3 0 9-5.5 5.9-13 8.2-21 9q-5.5.1-11 0 3.5-7 7-14 0 2 0 4c8.9-.1 16.5-.8 24-6q.5-1 1-2z" fill="#fcac01"/><path d="M732 864q1.5.5 3 1c-.2 4-.6 6.4-3 9.7-8.2 6.3-17.8 8.7-28 8.3l4-10q1.4.1 2.9.2c8.1 0 15.5-3.6 21.1-9.2z" fill="#fbaf01"/><path d="M443 866c12.1 4.2 21.5 16.4 30.2 25.4 6.2 6.3 12.1 12.2 19.8 16.6q-1.5.5-3 1c-2.2-1.4-2.2-1.4-4.8-3.6q-1.3-1.1-2.6-2.2-1.3-1.1-2.6-2.2-1-.8-2-1.6c-3.7-3.1-6.7-6.3-9.6-10.1-1.4-1.6-1.4-1.6-4.4-1.3.7 5.6.7 5.6 2 11-6.4-7.9-12.2-16.3-18-24.6q-.7-1.1-1.5-2.2c-3.5-5.1-3.5-5.1-3.5-6.2z" fill="#da7000"/><path d="M732 795c1.8.2 1.8.2 4 1q.8 1.2 1.7 2.4c6 6.8 18.7 7.2 27.4 8.8q2.1.4 4.3.8 5.3 1 10.6 2c-2.8 1.9-4 2.3-7.2 2.9q-1.2.1-2.4.3-1.3.2-2.6.4-1.2.2-2.5.4c-5.1.8-10.1 1.5-15.3 1-1.8-1.5-1.8-1.5-3-3.6-2.1-3.3-4-5.3-7.1-7.5-3.7-2.6-5.7-5-7.9-8.9z" fill="#e27600"/><path d="M619 792c2.6 2.6 2.3 3.6 2.4 7.2-.3 12.4-4.8 23.4-9.9 34.4-1.1 2.6-2 4.7-2.5 7.4l-7 1q.7-1.7 1.5-3.5c6.2-15 11.7-30.6 15.5-46.5z" fill="#c54700"/><path d="M371 790q.5 0 1 0 .2 1.6.3 3.2.6 5.9 1.2 11.8.3 2.6.6 5.1c1 10.5 2.4 20.7 4.9 30.9q-3 0-6 0 .5-1 1-2-.8-3-1.8-5.9c-4.4-14-7.1-29.2-1.2-43.1z" fill="#c13900"/><path d="M745 600c1.4 2.9.6 4.9 0 8q2 0 4 0l3-8c1.2 5-.2 7.4-2.4 11.7q-.6 1-1.1 2.1c-3.1 5.8-6.8 10.7-11.5 15.2q-1-.5-2-1 1-1.5 2-3-1.5 0-3 0c-3 0-3 0-5-1q.7-.7 1.5-1.4c6.4-6.8 10.4-14.3 14.5-22.6z" fill="#612501"/><path d="M649 652c2 2 2 2 2 5.2-1.7 6.4-6.4 10.2-11 14.8q.6 1.1 1.1 2.3.7 1.5 1.5 3 .7 1.5 1.4 3c1 2.7 1 2.7 0 5.7q-2-3.9-4-7.8-.6-1.1-1.2-2.2-.5-1.1-1.1-2.2-.5-1-1-2c-.7-1.8-.7-1.8-.7-4.8q-2.5 0-5 0c3.7-3.8 7.6-7.1 11.8-10.3q.9-.7 1.8-1.4 2.2-1.6 4.4-3.3z" fill="#c64502"/><path d="M370 632c.5 10.1-.9 19.2-3 29q-3 0-6 0 .2-1.8.4-3.6c.4-3.1.6-6 .7-9.2.3-10.2.3-10.2 2.3-13.3 3.5-2.9 3.5-2.9 5.6-2.9z" fill="#c74400"/><path d="M367 808q.5 0 1 0 .2.9.3 1.9.8 4.2 1.5 8.5.3 1.4.5 2.9c1.2 6.4 2.7 12.5 4.7 18.7-10.2-.8-10.2-.8-14-3q1.5 0 3 0 0-.8.1-1.7.1-3.9.3-7.7 0-1.3.1-2.7c.2-5.9 1.1-11.2 2.5-16.9z" fill="#fba600"/><path d="M758 837c3.8 6.3 2.7 14.7 1.2 21.6-1.6 5.7-3.5 10.7-7.2 15.4-1-2-1-2-1-4q-.8.7-1.6 1.5-1.1.9-2.1 1.9-1.1.9-2.2 1.9c-1.9 1.6-3.8 2.7-6.1 3.7q1.3-1.4 2.6-2.9C752 863.9 756.2 853 758 837z" fill="#e17700"/><path d="M518 865c7.1 3.6 10.6 9.1 13.3 16.3 1.1 4.3.8 8.4-.3 12.7q-1 1.5-2 3-.5-2.5-1-5l-2 10q-.5 0-1 0 .1-1.9.2-3.8c.5-10.9-.3-18.8-5.7-28.4-1.5-2.8-1.5-2.8-1.5-4.8z" fill="#581c00"/><path d="M737 879q1 .5 2 1l-7 5q1 1 2 2c-11.5 5.6-11.5 5.6-17 6q-.5-1-1-2-1.6.2-3.2.5c-15.5 1.9-15.5 1.9-21.8-1.5 1.9 0 1.9 0 3.8-.1 14.7-.4 27.4-2 40.1-9.8q1-.6 2.1-1.1z" fill="#e87f00"/><path d="m444 856c9.7 2.8 17.2 9.7 24 17q1.2 1.2 2.5 2.5 1.2 1.2 2.5 2.5 0.8 0.8 1.6 1.6c3.1 3 5.9 6 8.7 9.3 7.5 8.8 17.2 13.7 27.7 18.1-2.7 1.1-3.9 1.1-6.7 0.1-15.1-7.7-25.4-19.3-36.8-31.7-6.1-6.7-12.9-11.6-20.6-16.5q-1.4-0.9-2.9-1.9 0-0.5 0-1z" fill="#f5ca03"/><path d="M403.9 842.9q1.3 0 2.6 0 1.3 0 2.7 0h2.9q1.4 0 2.8.1 3.6 0 7.1 0c-3 2-3 2-5 2q0 2 0 4l15 3q0 .5 0 1c-8.6-.5-16.8-2-25.1-3.9q-1.9-.4-3.8-.8-1.7-.4-3.5-.8c-1.6-.4-1.6-.4-3.2-.7q-1.2-.4-2.4-.8-.5-1-1-2 1.9 0 3.9.1 2.1 0 4.1-.1c1-1 1-1 2.9-1.1z" fill="#f9b001"/><path d="M482.1 484c2.6 1.4 3 2.3 3.9 5 .4 6.3.4 6.3-2 10-2.4.4-2.4.4-5 0-2.7-2.4-3-3.9-3.4-7.5.4-3.5.4-3.5 2.1-6 2.3-1.5 2.3-1.5 4.4-1.5z" fill="#f0ddc8"/><path d="M606 687q1 .5 2 1l-4 2q.5 2 1 4-2.8 1.4-5.6 2.9-1.6.8-3.2 1.6c-4.6 2.1-8.1 3.5-13.2 3.5q0-2.5 0-5c3-.9 3.9-1 7 0q0-1 0-2c3-2 3-2 4.9-2.5 3.4-.8 6.1-2.8 9.1-4.5q1-.5 2-1z" fill="#d36200"/><path d="M679 966q-2 2-4 4c1.5 2.5 2.9 4.9 4.8 7.1q.6.9 1.2 1.9-.5 1.5-1 3-.9-1.4-1.7-2.8c-2.6-3.8-2.6-3.8-6.3-6.2-4.5-.4-8.6-.2-13 1q1.5-1.5 3-3c-2.9 0-5.8.2-8.7.5q-1.5.1-3 .3l-2.3.2q.5-1 1-2c2-.6 2-.6 4.6-1.1q1.5-.2 2.9-.5 1.5-.3 3.1-.5 1.4-.3 2.9-.6c5.6-1 10.8-1.5 16.5-1.3z" fill="#fbab19"/><path d="M707 788c13.7 2 27.9 16.4 36 27 1.9 3.2 3.5 6.5 5 10q.6 1.3 1.1 2.6c1.1 2.9 1 5.3.9 8.4-2.3-2.3-2.5-3.5-3.3-6.6-2.8-9.6-8.2-18.7-16.7-24.4q0-1 0-2-.8-.4-1.7-.8c-2.5-1.3-4.7-2.8-7-4.5-4.6-3.3-9.3-6.1-14.3-8.7q0-.5 0-1z" fill="#fce506"/><path d="M591 671q.5 1 1 2 2-.5 4-1c-2.5 2.9-5.1 4.1-8.6 5.6q-1.4.7-2.9 1.3-1.2.5-2.5 1.1l-2 1q-2.2 0-4.4-.1-1.2-.1-2.5-.2-1.4-.1-2.7-.1-1.4-.1-2.7-.2-3.4-.2-6.7-.4c3.6-3.5 7.4-3.7 12.2-4.1a103.47 103.47 0 0 0 7.8-.9q.5-1 1-2 3.5-.6 7-1 1-.5 2-1z" fill="#5b0d05"/><path d="M625 470c3.9 1.8 3.9 1.8 5 4 .5 6.4.5 6.4-1.5 8.9q-.7.6-1.5 1.1c-4.9-1.9-4.9-1.9-6-3-.4-5.3-.4-5.3 0-8 2-2 2-2 4-3z" fill="#f3ede4"/><path d="M557 809c8.5 3.6 15.9 12.9 20 21 .9 2.7 1.5 5.2 2 8q-3-3-6-6-1.3-1.2-2.6-2.5c-4.4-4.5-4.4-4.5-4.5-8.3-1.2-4.4-3.7-5.9-7.2-8.7q-.8-.7-1.7-1.5 0-1 0-2z" fill="#c64b00"/><path d="M527 886q.5 0 1 0l2 8q.5-3 1-6 .5 0 1 0c.4 7.2-.6 13.4-4.7 19.6q-.6.7-1.3 1.4 1.5 1 3 2h-7c-1-3-1-3 .3-6.6 1.7-3.4 1.7-3.4 3.7-4.4.5-3.3.5-3.3.6-7.1.1-1.9.1-1.9.3-3.9q0-1.5.1-3z" fill="#531801"/><path d="M515 790c6.1.2 11.2 1.6 16.8 3.9q1 .4 2 .8c3.4 1.4 6.4 2.9 9.2 5.3-5.3-.8-10-3-14.9-5.1-3-1.2-3-1.2-5.5 0q-.8.5-1.6 1.1l2 3q-2.7-.4-5.4-.9-1.5-.2-3-.5c-2.6-.6-2.6-.6-4.6-2.6 2.9-1.9 4.6-2.5 8-3q-1.5-1-3-2z" fill="#c23900"/><path d="M469 580c0 3 0 3-1 4.8-1.3 2.8-1.1 5.1-1 8.2q2 0 4 0 1 0 2 0 1.6 1.9 3.1 3.9c6.5 8.4 14.3 15.7 21.9 23.1-3 0-3 0-4.9-1.6l-2-2.2c-2.1-2.2-4.1-4.2-6.6-6.1-2.8-2.3-4.7-4.8-6.9-7.7-3.8-4.8-5.8-6.2-11.6-7.4-1.6-2.1-1.6-2.1-2-5 .9-3.9 2.1-7.1 5-10z" fill="#f8ef04"/><path d="M122 509c6.5 3.3 11.6 7 14.1 14.1-.1 3.8-1.5 5.3-4.1 7.9-5.3 2.6-10.9.9-16.2-.8-3.9-1.4-7.3-3-10.8-5.2 2-1 2-1 4.2-.3q1.3.6 2.7 1.2c4.9 2.1 8.9 3.2 14.2 3.3q1.3 0 2.7 0c2.4 0 2.4 0 4.2-2.2-.2-5.3-1.3-8.3-5-12q-3-2-6-4 0-1 0-2z" fill="#fda90d"/><path d="M472 344c3.9-.1 7.3-.1 11 1q2.5.5 5 1 0 1 0 2-1.9.5-3.9.9c-2.2.6-4 1.1-6.1 2.1q-2.6.3-5.1.6-1.4.1-2.8.2l-2.1.2q0-2.5 0-5 2-1 4-2 0-.5 0-1z" fill="#d25600"/><path d="M612 950c-3 2-3 2-7 2q0 1 0 2-2.5 0-5 0 0 1.5 0 3 1.5 1.5 3 3l-11-2c0-2 0-2 1-3l-12 1c3-2 4.5-2.5 7.9-3.1q1.4-.2 2.9-.5l3-.5q1.5-.3 3-.6c4.8-.8 9.3-1.5 14.2-1.3z" fill="#622200"/><path d="M732 864q1.5.5 3 1c0 3.2 0 3.2-1 7-2.4 2.2-4.9 3.9-8 5q-1.5-.5-3-1 .5-1 1-2-1-1-2-2 1-.7 1.9-1.5 1.3-1 2.5-1.9 1.3-1 2.5-2c2-1.4 2-1.4 3.1-2.6z" fill="#f99a00"/><path d="M456 876c3.9 1.6 6.5 4.3 9.3 7.2q1.6 1.6 3.1 3.2 2.5 2.5 4.9 5c6.1 6.3 12 12.2 19.7 16.6q-1.5.5-3 1c-2.2-1.4-2.2-1.4-4.8-3.6q-1.3-1.1-2.6-2.2-1.3-1.1-2.6-2.2-1-.8-2-1.6c-3.7-3.1-6.9-6.5-10-10.2-3.2-3.5-6.6-6.9-10.1-10.2-1.9-2-1.9-2-1.9-3z" fill="#f18a01"/><path d="M494 684c4.8.8 9.4 2.4 14 4q0 1.5 0 3c5 2.4 8.3 3.3 14 3q0 1.5 0 3 3 1 6 2c-4.6 1.5-7.7-.1-11.9-1.9q-1.2-.5-2.3-1A106.82 106.82 0 0 1 494 685q0-.5 0-1z" fill="#c74a00"/><path d="M651 568c3.2-.2 5.4-.3 8.3 1.1 2.3 2.5 3 4.6 3.7 7.9-.6 3.8-1.7 7.4-2.9 11q-.5 1.5-1 3.1c-1.1 2.8-2.4 5.3-4.1 7.9-1-2-1-2-.3-4.2.6-1.2.6-1.2 1.1-2.6q.6-1.3 1.1-2.7.6-1.2 1.1-2.5c2.5-6.1 1.7-10.8 0-17q-2.5.5-5 1l-1 8q-.5 0-1 0v-11z" fill="#faed04"/><path d="M557 857c6.1 5.4 9.7 11.9 10.2 20.2.1 7 0 12.5-3.2 18.8l-2 1c.3-1.2.3-1.2.7-2.4 2.9-11 2.9-20.2-1.7-30.6l-2 1c-1.3-2.9-2-4.8-2-8z" fill="#3c0a01"/><path d="M333 1154c4.5.7 8.7 1.7 13 3q-1-1-2-2c5-1.7 8.4 0 13 2q-.5 1.5-1 3-1.5 0-3 0 1 1 2 2c-5.1-.6-9.5-1.7-14.4-3.4q-1.8-.7-3.7-1.3c-2.9-1.3-2.9-1.3-3.9-3.3z" fill="#622603"/><path d="M443 866c4.6 1.8 7.3 3.8 11 7q-2 0-4 0 2.6 3.8 5.2 7.6.7 1 1.5 2.1.7 1 1.4 2.1.7 1.1 1.5 2.1 1.4 2.1 2.9 4.1a89.18 89.18 0 0 1 3.5 5q-.5 1.5-1 3-3.5-5.2-7.1-10.3-.9-1.4-2-2.9-6.6-9.8-12.9-19.8z" fill="#ef8802"/><path d="M403 380c-.5 3.8-1.5 6-4 9q-.5 1-1 2l-7-3c2.2-5.1 6.4-8 12-8z" fill="#da5b04"/><path d="M576 896c0 4.3-1.9 5.8-4.7 8.9-5.7 5.3-12.9 9.6-20.3 12.1q-1.5-.5-3-1l2.3-1c1.5-.6 1.5-.6 3.1-1.3q1.5-.7 3-1.3c2.9-1.3 2.9-1.3 4.6-4.4q1 0 2 0 .5-1.5 1-3 2.5 0 5 0 .3-.8.7-1.7c1.7-2.9 3.9-5 6.3-7.3z" fill="#d46300"/><path d="M735 849c2.5 3.7 2.2 5.7 2.1 10.2q0 1.9 0 3.8c-.1 1.5-.1 1.5-.1 3 3 1 3 1 6 0-1 2.6-1.6 3.8-4.1 5.3q-.9.3-1.9.7c-2.1-3.2-2.2-4-2.2-7.7v-2.7q0-1.4.1-2.8 0-1.4 0-2.8 0-3.5.1-7z" fill="#531b01"/><path d="M532 802c4.5.6 7.9 2.4 11.8 4.6l1.8 1q2.2 1.2 4.4 2.4 0-1 0-2c2.9.6 3.9.9 6 3 .1 2.6.1 2.6 0 5-4.1-2-8-4.2-12-6.4l-2.2-1.2c-3.4-2-6.7-3.9-9.8-6.4z" fill="#c13900"/><path d="M478 485q1 1 2 2-.5.5-1 1-.1 2.3-.1 4.6.1 1.2.1 2.5 0 .9 0 1.9 2-.5 4-1 0-1.9.1-3.9 0-1 0-2.2c0-2 0-2-1.1-3.9 3 1 3 1 4 3 .4 6.5.4 6.5-2 10-2.4.4-2.4.4-5 0-2.8-2.4-3-3.9-3.3-7.6.3-3.4.3-3.4 2.3-6.4z" fill="#f8f6f1"/><path d="M465 772l5 5q0 1.5 0 3c5.1 4.7 10.1 6.8 17 7q0 1 0 2 2.5.5 5 1 0 .5 0 1c-9-.7-17.8-3.2-24-10-1.3-2.9-2.2-5.9-3-9z" fill="#bc2c00"/><path d="M639 422q1.9.7 3.8 1.4 1.1.4 2.2.7c2 .9 2 .9 5 2.9q0 1 0 2c-6.8-.4-12.7-1.6-19-4 3-1 3-1 7-1q.5-1 1-2z" fill="#d15500"/><path d="M755 826c3.1 4.7 3.2 9 3.2 14.6q0 1.7 0 3.4c-.2 3-.2 3-2.2 6q-.2-1.4-.4-2.7c-.5-3.1-.5-3.1-1.2-5-.6-3.3-.2-6.3 0-9.5q.2-1.9.3-3.9.2-1.4.3-2.9z" fill="#4c1500"/><path d="M716 885q0 2 0 4c-3.7.9-7 1.1-10.8 1.1-1.5-.1-1.5-.1-3-.1H700q.7-.7 1.5-1.4c1.6-1.4 1.6-1.4 1.5-2.6 4.4-.7 8.6-1.1 13-1z" fill="#5e2100"/><path d="M619 792c2 2 2 2 2.3 4.7q0 1.6 0 3.2v3.2c-.3 2.8-.8 4.5-2.3 6.9q-.5-2.5-1-5-1 2.5-2 5c-1.6-4.1-.3-7.2.9-11.3q.6-1.8 1.2-3.8.4-1.4.9-2.9z" fill="#bf3001"/><path d="M114 504q1 1 2 2c-3.2-.5-5.6-1.3-8.6-2.6-5.1-2-10.1-1.7-15.4-1.4q-.5 1-1 2-1 0-2 0-.5 1-1 2c.5-4.6.5-4.6 2.6-6.3 8.5-2.4 15.6.7 23.4 4.3z" fill="#fda70a"/><path d="M701 847q2 1.5 4 3-.3.8-.6 1.6c-.5 3 .1 5.4.6 8.4.4 6.6-.9 11.8-3 18-1-3-1-3 0-6 .1-2.6.1-5.1.1-7.6q0-1.1 0-2.2c0-5.1-.4-10.1-1.1-15.2z" fill="#2e0501"/><path d="M349 1163c5.8.8 5.8.8 8 3q.5 2 1 4 1 1 2 2c-5-.5-9.3-1.2-14-3q1.5-1.5 3-3 1.5.5 3 1-1.5-2-3-4z" fill="#fdd29d"/><path d="M599 513l2.3.3q1.5.1 3.1.3 1.5.1 3 .3c2.6.3 2.6.3 4.6-.9q0 1 0 2 1 0 2 0 .5-1 1-2 2.5 1 5 2-1.5.5-3 1-1-.5-2-1 0 1.5 0 3 1.5.5 3 1c-2 1-2 1-4.1.3q-1.3-.6-2.6-1.1c-4.1-1.7-8-3.1-12.3-4.2q0-.5 0-1z" fill="#fae505"/><path d="M740 846c2.3 2.3 3 4 3.1 7.3q0 1.2 0 2.4-.1 1.2-.1 2.4 0 1 0 1.9 1 0 2 0 1-2.5 2-5 .5 1.5 1 3c-1.4 2.5-1.4 2.5-3.4 5.2q-1 1.3-2 2.7-.8 1-1.6 2.1c-1.3-2.5-.7-3.3 0-6 .3-5.4-.1-10.7-1-16z" fill="#f7df06"/><path d="M654 858c2.7 1.1 4 2 5.8 4.3 4.8 5.9 11.2 10.8 18.2 13.7-3 1-3 1-5.3-.1-7.1-4.5-13.3-9.5-18.7-15.9q0-1 0-2z" fill="#f3c603"/><path d="M878 754q0 .5 0 1l-8 1q2 1 4 2-1 .3-1.9.7c-2.4 1.2-2.4 1.2-2.9 3.9q-.1 1.2-.2 2.4-1-.5-2-1c-.6-2.6-.7-5.3-1-8 4.5-2.7 6.9-3.3 12-2z" fill="#44950d"/><path d="M650 604c0 3.8-.7 5-3 8-1.7 1.2-3.5 2.1-5.3 3.1-1.8.9-1.8.9-3.8 2.6-2.3 1.6-4.2 1.9-6.9 2.3q0-1 0-2 1.7-.7 3.4-1.4c6.1-3 10.8-7.8 15.6-12.6z" fill="#f8e804"/><path d="M762 350c3 1 3 1 4 3 .8 7-1.1 12.2-5 18-2.2 1.8-2.2 1.8-4 3 1.2-2.6 2.5-4.8 4.1-7.1 2.6-4.5 2.4-8.9 1.9-13.9q-.5-1.5-1-3z" fill="#fd9f04"/><path d="M698 782l12 1q.5 2 1 4c1.8 1.6 1.8 1.6 4.1 2.8q1.1.6 2.2 1.2l1.7 1-2 1c-2.2-1-2.2-1-4.6-2.4q-1.2-.7-2.5-1.5-.9-.5-1.9-1.1 0-1 0-2l-10-3q0-.5 0-1z" fill="#c74900"/><path d="M189 725c3 3 3 3 3.4 6q0 1.7 0 3.4 0 1.7 0 3.5c-.4 3.1-.4 3.1-3.4 7.1v-20z" fill="#f9bb04"/><path d="M518 865c6.9 3.6 10.5 8.8 13 16 .2 2.9.2 2.9 0 5q-1.6-3.2-3.2-6.5-.6-1.3-1.3-2.6-.6-1.3-1.3-2.7c-1.1-2.3-1.1-2.3-3.2-4.2l-2 1q-1-3-2-6z" fill="#300800"/><path d="M594 694q-2 .5-4 1 0 1 0 2-3.5.5-7 1l-2.6.4-2.6.3-2.6.3c-2.2 0-2.2 0-5.2-2q1.4-.2 2.8-.4c7.8-.9 7.8-.9 15.4-2.8 2.8-.8 2.8-.8 5.8.2z" fill="#c53800"/><path d="M371 944c0 3.9-1.6 5-4 8q-.5 1.3-1 2.7c-1 2.3-1 2.3-2.9 3.5q-1.1.4-2.1.8-1.5 1-3 2c1.7-4.2 4.7-7.4 7.6-10.8q.8-.8 1.6-1.8 1.9-2.2 3.8-4.4z" fill="#ef8901"/><path d="M579 889c.8 1.7.8 1.7 1 4l-5 5q-1.5 1.9-3 3.8c-2 2.4-2.8 3.1-5.9 4.1q-1 .1-2.1.1 1-.9 1.9-1.9c7.4-6.9 7.4-6.9 13.1-15.1z" fill="#f49002"/><path d="m758 807c7.4 0.5 14.7 1.5 22 3-3.7 2.5-5.6 2.3-10 2-1.9-0.9-1.9-0.9-4-2-2.6-0.8-5.3-1.4-8-2q0-0.5 0-1z" fill="#f38400"/><path d="M644 697q.8 2.3 1.5 4.7.4 1.3.8 2.6c.7 2.7.8 5 .7 7.7-1.9-2.9-2.5-4.4-3.1-7.7q-.3-1.2-.5-2.4-.2-1-.4-1.9l-6 5q-1-.5-2-1 1.7-1.8 3.4-3.5l1.9-2c1.7-1.5 1.7-1.5 3.7-1.5z" fill="#fde706"/><path d="M508 688q.8.4 1.7.9c2.5 1.2 4.9 2 7.5 2.7q1.4.4 2.8.8 1 .3 2 .6c-3.7 2-3.7 2-6.3 1.9-3.8-1.2-7.2-3-10.7-4.9q1.5-1 3-2z" fill="#d36400"/><path d="M617 1079q.5 0 1 0 .2.9.4 1.9.2 1.2.5 2.4.2 1.2.5 2.4c.5 2.6.5 2.6 2.6 5.3q0 1 0 2l8 2q0 .5 0 1c-3.2.3-3.2.3-7 0-2.6-2.2-4.5-3.9-6-7q-.1-2.6-.1-5.1.1-1.4.1-2.8 0-1 0-2.1z" fill="#762d00"/><path d="M364 1160q3.1 1.4 6 3-2 .5-4 1 .5 1 1 2c-4.1-.5-7.5-.9-11-3 3.8-1.1 3.8-1.1 6 0q0-1 0-2 1-.5 2-1z" fill="#5e2402"/><path d="M569 877q.5 0 1 0v8q1 0 2 0c-1.2 3.4-2.3 5.6-5 8q-1-.5-2-1 .7-1.8 1.4-3.6c1.5-3.8 2.2-7.3 2.6-11.4z" fill="#f9c002"/><path d="M906 677q-.5.9-.9 1.8c-1.2 2.3-1.2 2.3-2.1 5.2-2.6 1.2-2.6 1.2-5 2 .4-3.2.8-4.8 2.9-7.3 2.1-1.7 2.1-1.7 5.1-1.7z" fill="#ef6f05"/><path d="M617 643c1 3 1 3-.4 6.3q-.9 1.9-1.9 3.8-.5 1-1 2c-2.4 4.8-2.4 4.8-4.7 5.9 1.1-2.8 2.2-5.3 3.6-7.9 1.4-3.1 1.9-5.8 2.4-9.1q1-.5 2-1z" fill="#1e0704"/><path d="M626 619q2 0 4 0 0 1 0 2-1.5.5-3 1c-.9 2.4-1.6 4.6-2.2 7.1q-.3 1-.5 2-.7 2.4-1.3 4.9-.5 0-1 0c.4-6.2 1.6-11.3 4-17z" fill="#f9ea04"/><path d="M634 372q2.5.5 5 1 0 1.5 0 3-1 1-2 2 1 2 2 4l-6-5c0-3 0-3 1-5z" fill="#c94c00"/><path d="M725 1113l7 2c-2.8 2.8-5.1 2.7-9 3l-6-1c3.2-2.2 4.3-2.2 8-2q0-1 0-2z" fill="#f9ae17"/><path d="M587 857q.5 0 1 0 .3 4.4.6 8.9.1 1.2.2 2.5.1 1.2.2 2.5.1 1.1.1 2.2c-.1 1.9-.1 1.9-2.1 3.9-1.4-6.7-.7-13.2 0-20z" fill="#ef970d"/><path d="M654 388l6 1q-1.5.5-3 1 .8 1.2 1.6 2.3.9 1.5 2 3.1l2 3q.7 1.3 1.4 2.6-.5 1-1 2-2.3-3.2-4.5-6.4-.6-.9-1.3-1.8c-3.2-4.6-3.2-4.6-3.2-6.8z" fill="#da5700"/><path d="M395 568q.5 0 1 0 .1 3.7.2 7.3l.1 2.1c0 5.2 0 5.2-1.8 7.6l-1.5 1c-.2-6.3.6-11.9 2-18z" fill="#f5c001"/><path d="M376 816c2.7 3.6 3.8 5.8 5 10q-1.5 0-3 0-1.5.5-3 1l1-11z" fill="#fc9900"/><path d="M625 473q1.5 0 3 0v8q-2-.5-4-1-.1-3 0-6 .5-.5 1-1z" fill="#f2e0cf"/></svg>