<svg xmlns="http://www.w3.org/2000/svg" width="1024" height="1024" xmlns:v="https://vecta.io/nano"><path fill-rule="evenodd" d="M316.2 47.6q1.2.1 2.4.1c6.7 0 12.4.5 18.5 3.2 13.5 8.2 18.2 19.2 21.9 34.1v34h307c0-20.5-4-45 12-61 7.7-6.7 15.1-10.5 25.5-10.4q1.4 0 2.9.1c11.3.1 19.3 2.5 27.7 10.3 11.2 11.7 12.5 25.4 12.2 40.8q-.1 2.5-.1 5.1 0 6-.1 11.9-.1 1.6-.1 3.2 16.8 0 33.7 0 8.6-.1 17.2-.1 8.4 0 16.8 0 3.2 0 6.4 0 4.6 0 9.2 0h2.9l9.8.1c18.8 1.6 38.3 9.9 51.2 23.9q.9 1.1 1.8 2.1c5 5.7 9.2 11.4 12.6 18.1q.7 1.5 1.4 2.9c8.6 28.1 8.6 28.1 8.4 57.9q0 5 0 10 0 8.9 0 17.8 0 13.2 0 26.4 0 23.7 0 47.3 0 20.8 0 41.6 0 1.5 0 2.8 0 5.6 0 11.2 0 52.6 0 105.1 0 46.7 0 93.4 0 52.7 0 105.3 0 5.6 0 11.2 0 1.5 0 2.8 0 20.9 0 41.7 0 23.8 0 47.6 0 13.3 0 26.6 0 8.9 0 17.9 0 4.1 0 8.3c0 9 .1 18.1-.4 27.1-2.2 20.8-11.8 42.9-28 56.8q-1.5 1.1-3 2.2c-21.9 18.3-47 21.5-74.6 21.4q-4.8 0-9.7 0-8.5 0-17 0-12.8 0-25.5 0-22.8 0-45.6 0-20 0-40.1 0-1.3 0-2.6 0-5.4 0-10.8 0-50.6 0-101.2 0-45 0-90 0-50.7 0-101.4 0-5.4 0-10.8 0-1.4 0-2.7 0-20 0-40.1 0-22.9 0-45.8 0-12.8 0-25.7 0-8.6 0-17.2 0-4 0-8 0c-8.7 0-17.5.1-26.2-.4-22.1-2.4-46.5-11.9-61.1-29.5q-1-1.3-1.9-2.5c-3.8-4.5-7.2-9-10.1-14.2q-.5-.9-1-1.8c-8.8-15.7-9.6-31.3-9.5-48.9q0-5.2 0-10.4-.1-9.1 0-18.2 0-13.6 0-27.1-.1-24.4 0-48.7 0-21.3 0-42.7 0-1.4 0-2.9 0-5.7 0-11.5 0-53.9.1-107.8 0-48 0-96 0-3.1 0-6.2 0-1.5 0-3.1 0-7.6 0-15.3 0-1.6 0-3.1 0-40.2 0-80.4 0-1.5 0-2.9 0-1.4 0-2.9 0-1.4 0-2.8 0-2.9 0-5.8 0-20 0-39.9 0-25.9.1-51.7 0-13.7 0-27.4 0-9.2 0-18.4 0-5.2 0-10.5 0-4.8 0-9.6 0-1.8 0-3.5c0-10.9 1.4-21.4 5.7-31.5q.4-.9.8-1.8c8-17.8 20.9-31.6 38.2-40.7q1.4-.6 2.7-1.3c14.4-7.8 30.6-8.6 46.7-8.4q3.1 0 6.2 0 8.2 0 16.5.1 8.5.1 17 .1 16.5.1 33.1.2 1.8 0 3.5 0-.1-6-.1-12 0-2.5 0-4.9c-.2-12.4-.6-23.8 5.7-34.9.8-1.4.8-1.4 1.7-2.8 1.9-3 3.5-5.3 6.3-7.6q1.2-.9 2.4-1.8c6.8-5.1 13.7-7.4 22.2-7.4z" fill="#fef4b6"/><path d="M629 360l2.4 2c17.7 15.5 29.5 34.8 38.4 56.4a20.36 20.36 0 0 1 .9 2.2q.9 2 1.7 4.1c2.7 6.7 7.3 10 13.8 12.9q.9.4 1.9.8c1.1.4 1.1.4 2.1.9 16.5 6.8 33.4 11.6 50.8 15.7q1.2.3 2.4.6c9.9 2.3 19.9 4.2 29.9 5.9 38.8 6.6 38.8 6.6 50 17.8 6.9 10.8 7.2 21.8 4.7 34.1-5.8 24.9-17.3 48.8-32 69.6q-1.5 2.1-2.9 4.3c-7.9 11.5-7.9 11.5-9.1 12.7q.8.1 1.7.2c6.9 1.2 12.1 3.9 16.7 9.4 4.2 6.1 4.5 12.2 3.6 19.4-2.6 7.4-6.3 10.5-13.2 13.9-4.4 1.7-8.7 2.3-13.3 2.7q-1.5.2-3 .4-4.8.5-9.5 1-3.2.3-6.3.7-7.9.9-15.9 1.7-4.8.5-9.7 1-3.2.3-6.3.6-1.4.2-2.9.3c-5.7.6-11.2.8-16.9.7q-.1 1-.1 2c-.5 6.5-1.4 11.2-6 16.3-6.6 3.9-14.2 3.8-21.8 4.3q-1.1 0-2.3.1-2.9.1-5.8.3l3.5 93.8q.1 3.5.3 7 .2 5.5.4 11.1.2 3 .3 6c.2 6.1.6 12.1 1.5 18.1.8 11.7-2.5 21.5-9.2 31.1-.9 1-.9 1-1.8 1.9q-1 0-2 0-.5 1.5-1 3c-9.6 7.4-21 10.2-33 10-12.1-1.7-22.7-6.9-31-16-7.4-9.8-9.5-19.5-8.8-31.6q.2-3.7.4-7.5 0-1 .1-2l.9-27q.3-7.8.5-15.6.3-9.8.6-19.5.2-8 .5-16 .1-3 .2-6 .1-4.2.2-8.4.1-1.2.1-2.4c.2-5.7.7-11.3 1.3-17q-1 .2-2.1.4-4.8.8-9.6 1.6l-3.3.6c-1.6.2-1.6.2-3.3.5q-1.4.3-2.9.5c-2.7.4-5.1.4-7.8.4q-.1 1.2-.2 2.4c-.5 7.8-1.4 15.4-2.7 23.2-2.1 14.1-3.8 28.2-5.3 42.4q-.2 1.9-.4 3.8c-2.2 20.9-3.1 41.6-3 62.6q0 1.5 0 3.1 0 2.8.1 5.7c-.1 4.1-.1 6.2-2.4 9.8-2.9 2.8-4.6 3.2-8.5 3.3q-1.1 0-2.3 0c-2.3-.3-2.3-.3-4-1.8-3.1-2-6.1-2.2-9.8-2.5l-2.3-.2q-2.4-.2-4.9-.4-6.8-.6-13.6-1.2-1.4-.2-2.8-.3c-30.1-2.9-60.1-7.2-89.8-12.5q-3.1-.6-6.2-1.1c-39.8-7.1-78.8-16.5-117.4-28.5q-1.4-.4-2.9-.9c-11-3.4-21.8-6.9-32.6-10.9q-3.5-1.3-7-2.6-2.1-.7-4.2-1.5c-3.7-1.3-6.9-2.3-10.8-1.9q-1 .5-1.9 1c-2.9 1.4-4.9 1.4-8.1 1-3.7-2-5.7-3.5-8-7-.5-5.4.5-8.7 2.9-13.4C236.8 729.5 244.6 692 252 655q-.9-.4-1.9-.9c-2.7-1.4-4.7-3.3-6.9-5.3-2.9-2.7-5.8-5.4-8.9-7.9-15.5-13.3-30.1-34.6-32.1-55.3-3.7-53.5 16.5-103 49.8-144.6q1.1-1.3 2.2-2.7c4.8-6.1 10-11.8 15.2-17.5q3.2-3.4 6.2-6.9c6.5-7.6 13.8-14.4 21.4-20.9q1.6-1.4 3.2-2.7c24.6-21.5 51.4-39.2 81.8-51.3l3.1-1.2c7.4-3 14.9-5.4 22.7-7.4q1.8-.4 3.5-.9c66.3-16.4 163.1-16.8 217.7 30.5z" fill="#f59e08"/><path d="M318.4 47.6q1.2 0 2.5 0c11.5.3 18.4 3.8 26.7 11.8 3 3.3 5.4 6.6 7.4 10.6q.6 1.2 1.2 2.4c4.9 16 2.8 28.4 2.8 46.6h307V84c3.4-13.6 6.5-22.8 18-31 7.3-4.4 13.3-5.2 21.6-5.3q1.5-.1 2.9-.1c10.3-.1 17.8 3.7 25.5 10.4 8.1 8.3 12.2 19.1 12.2 30.5q0 1.2 0 2.4v2.4q0 3.9-.1 7.7 0 2.6 0 5.2 0 6.4-.1 12.8 1.8 0 3.6 0 16.6-.1 33.3-.1 8.6 0 17.2-.1 8.3 0 16.6 0 3.1 0 6.3 0c25.5-.1 47.2 3.9 67 21.2q1 .9 2.1 1.8c13.8 12.7 21.3 31 23.9 49.2v69H108c0-80 0-80 7.8-94.3q.5-1 1-2c8.2-15.3 19.1-26.3 34.2-34.7l2.5-1.5c11.6-6.3 24.9-8.7 38-8.6q1.4 0 2.8 0 4.7 0 9.3 0 3.2 0 6.4 0 8.5 0 16.9 0 8.6 0 17.3.1 16.9 0 33.8 0v-3q-.1-5.7-.2-11.3 0-2.5 0-4.9c-.3-15.1 1.7-27.4 10.5-40.1 8.5-8.5 18.1-12.3 30.1-12.1z" fill="#058191"/><path d="M629 360l2.4 2c17.7 15.5 29.5 34.8 38.4 56.4a20.36 20.36 0 0 1 .9 2.2q.9 2 1.7 4.1c2.7 6.7 7.3 10 13.8 12.9q.9.4 1.9.8c1.1.4 1.1.4 2.1.9 16.5 6.8 33.4 11.6 50.8 15.7q1.2.3 2.4.6c9.9 2.3 19.9 4.2 29.9 5.9 38.8 6.6 38.8 6.6 50 17.8 6.9 10.8 7.2 21.8 4.7 34.1-5.8 24.9-17.3 48.8-32 69.6q-1.5 2.1-2.9 4.3c-7.9 11.5-7.9 11.5-9.1 12.7q.8.1 1.7.2c6.9 1.2 12.1 3.9 16.7 9.4 4.2 6.1 4.5 12.2 3.6 19.4-2.6 7.4-6.3 10.5-13.2 13.9-4.4 1.7-8.7 2.3-13.3 2.7q-1.5.2-3 .4-4.8.5-9.5 1-3.2.3-6.3.7-7.9.9-15.9 1.7-4.8.5-9.7 1-3.2.3-6.3.6-1.4.2-2.9.3c-5.7.6-11.2.8-16.9.7q-.1 1-.1 2c-.5 6.5-1.4 11.2-6 16.3-6.6 3.9-14.2 3.8-21.8 4.3q-1.1 0-2.3.1-2.9.1-5.8.3l3.5 93.8q.1 3.5.3 7 .2 5.5.4 11.1.2 3 .3 6c.2 6.1.6 12.1 1.5 18.1.8 11.7-2.5 21.5-9.2 31.1-.9 1-.9 1-1.8 1.9q-1 0-2 0-.5 1.5-1 3c-9.6 7.4-21 10.2-33 10-12.1-1.7-22.7-6.9-31-16-7.4-9.8-9.5-19.5-8.8-31.6q.2-3.7.4-7.5 0-1 .1-2l.9-27q.3-7.8.5-15.6.3-9.8.6-19.5.2-8 .5-16 .1-3 .2-6 .1-4.2.2-8.4.1-1.2.1-2.4c.2-5.7.7-11.3 1.3-17q-1 .2-2.1.4-4.8.8-9.6 1.6l-3.3.6c-1.6.2-1.6.2-3.3.5q-1.4.3-2.9.5c-2.7.4-5.1.4-7.8.4q-.1 1.2-.2 2.4c-.5 7.8-1.4 15.4-2.7 23.2-2.1 14.1-3.8 28.2-5.3 42.4q-.2 1.9-.4 3.8c-2.2 20.9-3.1 41.6-3 62.6q0 1.5 0 3.1 0 2.8.1 5.7c-.1 4.1-.1 6.2-2.4 9.8-3.5 3.3-6.2 3.3-10.8 3.3-3.4-.4-5.1-1.9-7.3-4.3-9.1-27.4 1-72.5 3.9-100.3q.2-1.8.3-3.6c1.7-16.2 3.9-32.1 6.8-48.1q-.9-.4-1.9-.8c-3.8-2.1-5.8-5.2-7.1-9.2q-.3-3.9-.5-7.8-.1-1.2-.2-2.5c-.5-12.4-.7-24.8-.8-37.2q-.1-4-.2-8.1-.1-10.5-.3-21 0-4.6-.1-9.3-.1-2.5-.1-5 0-1.1-.1-2.2c-.1-8.7 3.7-16.4 9.3-22.9 8.7-7.2 15.9-7.5 27-7 4.2.4 8.3 1.2 12.4 1.9q2.8.5 5.7 1 2.2.4 4.4.8l34.9 5.8 3.7.6c17.4 2.8 34.8 5.4 52.3 7.3a16.6 16.6 0 0 1 2.2.3q3 .3 5.9.6c5.2 1 9.2 2.4 12.9 6.3 1.6 2.4 1.6 2.4 1.6 4.4q8 .4 16 .9 2.7.1 5.4.2 8.8.5 17.6.9l3.8.2q1.5 0 3.2.1 1.3 0 2.6 0c3-.4 4.9-1.7 7.4-3.3q1 0 2 0c.4-.8.4-.8.7-1.6 1.3-2.4 2.8-4.5 4.4-6.7 5-6.6 9.2-13.4 13.3-20.6q.8-1.3 1.6-2.6c2.8-5.1 5.1-10 7-15.5q-1.1-.4-2.2-.8c-10.5-4.4-19.5-12.9-24.1-23.3-4.4-11.7-2.8-20.4 1.3-31.9q-.9-.2-1.8-.4c-93.9-19-93.9-19-110.2-40.6-4.2-6.7-7.2-13.9-10.2-21.2-4.8-10.9-9.8-21-17.6-30-2.2-2.8-2.2-2.8-2.2-4.8q-.9-.4-1.8-.8c-2.4-1.3-3.7-2.7-5.6-4.8-5.4-5.6-11.9-9.5-18.6-13.4q-.9-.5-1.8-1.1c-9.7-5.6-19.6-9.6-30.2-12.9q-1.7-.6-3.4-1.1c-54-16.1-122.1-12.9-174.6 7.1q-1.1.4-2.2.9c-16.6 6.4-32.9 15.1-46.8 26.1q-2.9 2.1-5.8 4.3c-6.5 4.8-12.6 10.1-18.7 15.4q-1.9 1.6-3.8 3.3c-4.7 4-9 8.3-13.4 12.7-1.8 1.8-3.5 3.4-5.5 4.9-2.9 2.5-5.2 5-7.6 7.9q-2.5 2.9-5.1 5.8c-23.3 26-40.4 56.5-51.1 89.7l-1 3.1c-5.4 17.6-8.5 44.2 0 60.9q.9 1.7 1.7 3.4c4.2 8 9.3 14.9 15.3 21.6q1 1.1 2 2.2c31 33 85 60.8 130.4 62.2 16.9-.7 32-6.9 43.6-19.4 23.2-25.8 28.1-58.5 30-92q.1-1.3.2-2.7c.4-6.8.6-13.5.8-20.3 0-1.1 0-1.1.1-2.1.8-38.1-2.8-74.5-9.4-111.9q-.2-1.5-.5-3-.5-2.7-1-5.5c-3-16.9-3-16.9-.5-22.1 3.3-3.5 4.9-4.3 9.7-4.7 4.6.4 7.1 1.6 10.2 5.1 1.7 2.7 2.1 4.8 2.6 8q.3 1.7.6 3.4l.6 3.8c.4 1.9.4 1.9.7 3.9 4 24.5 7.7 49.1 9 73.9q.1 1.2.2 2.4c6.8 130.6 6.8 130.6-34.9 177.3L434 685q-.9.9-1.7 1.7c-17.6 16.3-38.6 20.3-61.8 19.5-35.6-2.1-69-19.2-99.5-36.2-1.5 3.8-2.6 7.3-3.4 11.3q-.4 1.9-.8 3.8-.8 3.7-1.4 7.5c-4.5 26.2-12.3 70.6-31.4 90.4-3 1.3-5.8 1.4-9 1-3.8-2-5.6-3.4-8-7-.5-5.4.5-8.7 2.9-13.4C236.8 729.5 244.6 692 252 655q-.9-.4-1.9-.9c-2.7-1.4-4.7-3.3-6.9-5.4-2.9-2.6-5.8-5.3-8.9-7.8-15.5-13.3-30.1-34.6-32.1-55.3-3.7-53.5 16.5-103 49.8-144.6q1.1-1.3 2.2-2.7c4.8-6.1 10-11.8 15.2-17.5q3.2-3.4 6.2-6.9c6.5-7.6 13.8-14.4 21.4-20.9q1.6-1.4 3.2-2.7c24.6-21.5 51.4-39.2 81.8-51.3l3.1-1.2c7.4-3 14.9-5.4 22.7-7.4q1.8-.4 3.5-.9c66.3-16.4 163.1-16.8 217.7 30.5z" fill="#014655"/><path d="M318.4 47.6q1.2 0 2.5 0c11.5.3 18.4 3.8 26.7 11.8 3 3.3 5.4 6.6 7.4 10.6q.6 1.2 1.2 2.4c4.9 16 2.8 28.4 2.8 46.6h307V84c3.4-13.6 6.5-22.8 18-31 7.3-4.4 13.3-5.2 21.6-5.3q1.5-.1 2.9-.1c10.3-.1 17.8 3.7 25.5 10.4 16.3 16.7 12 38.6 12 61h95q0 .5 0 1h-94l.4 34.4q0 3.2 0 6.5 0 1.7.1 3.3c0 13-3.6 24.4-12.5 34-9.5 9.1-19.8 11.1-32.6 10.9-10.8-.4-20.3-5-27.6-12.9-17-21-8.8-52-8.8-76.2H359v55c-3.2 12.7-8 21.9-19.1 29.4-1.9 1.1-3.8 1.9-5.9 2.6q-1 .3-1.9.7c-10.8 3-23.3 2.8-33.1-2.7-1.2-.6-1.2-.6-2.3-1.2-8.3-5-14.6-12.6-17.7-21.8-.9-3.7-1.1-7-1.1-10.8q0-1.7 0-3.5 0-1.8 0-3.7 0-1.6 0-3.3 0-6.3 0-12.5l.1-28.2h-92q0-.5 0-1h92V84c3.7-13.7 7.4-23.4 19.3-31.6 6.9-3.6 13.4-4.9 21.1-4.8z" fill="#004856"/><path d="M563.3 581c7.9.7 15.6 1.8 23.4 3q3 .5 6 1 3.1.5 6.3 1 10.9 1.7 21.8 3.4a16.6 16.6 0 0 1 2.2.3q14.9 2.3 29.8 4.4 1.7.3 3.4.5 7.8 1.2 15.7 2.2 2.7.4 5.5.8 1.2.2 2.5.4c3.7.5 6.9 1 10.1 3 .1 10.8 0 21.5-.4 32.3q-.1 1.4-.2 2.9c-.2 5-.6 9.9-1.4 14.8q-1.2.1-2.5.3c-22.2 2.8-44.2 6-66.2 10.3-6.1 1.2-12.1 2.2-18.2 2.9-3 .5-5.9 1.2-8.8 2-4.7 1.1-9.6 1.8-14.4 2.6q-1.5.3-3.1.6c-1.6.2-1.6.2-3.1.5-1.4.2-1.4.2-2.8.5-3.3.4-6.6.3-9.9.3q-.1-17.2-.1-34.3 0-8-.1-16 0-7.6 0-15.3 0-3 0-5.9 0-4.1 0-8.2 0-1.2 0-2.5c0-7.8 0-7.8 4.5-7.8zm86.7 98c.9 9.3 1.3 18.5 1.6 27.8q.1 4 .3 7.9.4 11.3.7 22.6.3 8.3.6 16.5 0 1.4.1 2.8.7 20.4 2.1 40.7c1.6 24.4 1.6 24.4-2.4 29.7-6.6 6.3-11.8 7.5-20.8 7.3-6.1-.6-10.2-2.8-14.1-7.4-4.1-5.7-3.3-11.2-3.3-18q0-1 0-2.1c.1-20.6.8-41.3 1.5-61.9q.2-6.4.4-12.8.2-6.3.4-12.5.1-3 .2-5.9c.4-9.9.7-19.8 1.7-29.7q5-1 10-2l2-.4q3.1-.6 6.3-1.2l2.1-.4c3.6-.7 6.9-1.1 10.6-1z" fill="#048191"/><path d="M595 430c5 4.4 8.5 9.8 9.3 16.5.4 8.4-1.9 14.9-6.5 21.8-5.7 5.4-11.5 8.4-19.4 8.8-8.7-.3-15.8-4.1-21.7-10.3-4.4-5.5-6.1-11.9-5.6-18.9 1.2-8.4 4.9-13.8 11.4-19.2 10.5-7.2 22.3-5.5 32.5 1.3z" fill="#025e6e"/></svg>