<svg xmlns="http://www.w3.org/2000/svg" width="1024" height="1024" xmlns:v="https://vecta.io/nano"><path fill-rule="evenodd" d="M328 51c13.5 7 18.4 15.4 24 30v37h320c0-22.8-3.7-39.8 10-57 6.9-6.9 14.4-11.8 24.3-12.3 13.1-.2 22.9 1.9 32.6 11.1 10.7 11.4 12.7 24.1 12.4 39.1q-.1 2.4-.1 4.8 0 5.6-.1 11.3-.1 1.5-.1 3 17-.1 34-.1 8.7-.1 17.4-.1 8.5-.1 17-.1 3.2 0 6.5 0c26.5-.2 50.6 2.1 70.8 21.5 20.1 21.2 23.8 43.8 23.7 71.9q0 5.1 0 10.1 0 8.8 0 17.7 0 13.2 0 26.5 0 22.3 0 44.6-.1 22.1-.1 44.3v2.8q0 5.6 0 11.2 0 51 0 102-.1 48.2-.1 96.4 0 1.6 0 3 0 6 0 12 0 3 0 6 0 3 0 6 0 47.5 0 95.1 0 13.8 0 27.7 0 29.4 0 58.7 0 12.1 0 24.3 0 10.1-.1 20.2 0 4.2 0 8.3 0 5.7 0 11.4 0 1.7 0 3.4L920 854c-2.2 19.3-9.3 39.6-23.9 53.1q-1.1 1-2.1 1.9c-22.2 21.3-47.3 26.6-77.1 26.5q-4.9 0-9.9 0-8.7 0-17.4 0-13 0-26 0-21.8 0-43.7 0-21.8-.1-43.5-.1-1.4 0-2.8 0-5.5 0-11 0-50 0-100 0-47.4-.1-94.7-.1H465q-7.4 0-14.8 0h-2.9q-2.9 0-5.8 0-46.7 0-93.3-.1-13.7 0-27.3 0-28.8 0-57.6 0-11.9 0-23.8 0-9.9 0-19.9 0-4 0-8.1-.1-5.5 0-11.1 0H197c-24.6.1-49.2-8.6-67-26.1q-.5-1.5-1-3c-2.1.2-2.1.2-3.4-1.4-17.7-22.3-21.1-47.3-21-75q0-5 0-10 0-8.9 0-17.7 0-13.3 0-26.5 0-23.6 0-47.3 0-20.8 0-41.6 0-1.4 0-2.8 0-5.6 0-11.2 0-52.5 0-105 0-46.7 0-93.4 0-52.6 0-105.2 0-5.6 0-11.2 0-1.5 0-2.8 0-20.8 0-41.7 0-23.7 0-47.5 0-13.3 0-26.7 0-8.9 0-17.9 0-4.1 0-8.2c-.1-27.4 2.4-51.5 22.1-72.2 19.7-18.5 41.3-23.2 67.4-23q3.3 0 6.5 0 8.6 0 17.3.1 8.9 0 17.8 0 17.3.1 34.6.2 1.9 0 3.7 0-.1-6.3-.2-12.6 0-2.6-.1-5.2c-.2-14.5.3-25.8 9.3-37.9 11-12.7 29.2-18 45-11.3z" fill="#fef3b7"/><path d="M219.7 318.5q2.2 0 4.5 0 6.2 0 12.4 0 6.7 0 13.3 0 13.1-.1 26.2 0 10.7 0 21.3 0 1.5 0 3.1 0 3.1 0 6.2 0 28.8-.1 57.7 0 24.7 0 49.5 0 28.8-.1 57.5 0 3.1 0 6.2 0h3q10.6 0 21.3 0 12.9-.1 25.9 0 6.6 0 13.2 0 6.1 0 12.1 0 2.2 0 4.4 0c13.6-.1 13.6-.1 19.5 4.5 3.1 4.1 4.1 7.9 4.1 13q0 1.2 0 2.4 0 1.3 0 2.6v2.8q0 4.7 0 9.3 0 3.3 0 6.7 0 9 0 18 0 9.5 0 18.9 0 15.9 0 31.7 0 16.4 0 32.7v2q0 5.1 0 10.1-.1 41.9-.1 83.8 1.6.2 3.3.4c13.5 2.1 26.2 11.2 34.7 21.6 10.1 14 15.6 28.5 15.4 45.8q0 1.7 0 3.5c-.2 8.5-1 15.8-4.4 23.7q-.7 1.8-1.5 3.6c-3.6 8-8.2 14.3-14.5 20.4q-.8.8-1.7 1.7c-8.6 8-21.3 15.3-33.3 15.3q.1 9.3.3 18.6 0 3.1 0 6.2c.4 29.6 3.6 58.7 24.7 81.2 14.1 13.3 32.1 17.4 50.9 17.1 18.8-.8 35.6-7.4 48.7-21.2 21-25.3 24.4-60.3 25.4-91.9 0-1 0-1 .1-2 .7-26.3-.9-52.5-2.5-78.8-.7-10.1-1.2-20.1-1.6-30.2q-.9-.1-1.8-.2l-2.5-.2q-1.2-.2-2.4-.3c-17.1-2.2-34.7-11.9-47.3-23.3q-.9-.8-1.9-1.5c-16.9-13.8-27.3-34.6-34.9-54.6q-.6-1.4-1.1-2.8c-5.2-14.1-7.9-28.2-9.4-43.1q-.1-1.2-.2-2.5c-1.2-11.6-1.9-23.2-1.9-34.9q-.1-1.9-.1-3.8c.1-11.7 1.5-23.7 7.1-34.1q.5-1 1.1-2c6.6-12.3 17.8-22.5 31.3-26.7q3-.5 6.1-.9c5.2-.7 8.1-2.3 12.1-5.6 5.4-4.5 11-5.1 17.7-4.9 6.7.9 12 3.9 16.5 8.8 5.8 7.6 6.4 14.2 5.6 23.6-1.2 6-4.3 11.1-9 15-6.6 3.9-13.4 5.1-21 4-6.2-1.8-11.7-5.2-16-10-1.2-2.2-1.2-2.2-2-4-7.2.3-11.7 3.4-16.5 8.6C641 414 646.4 444 649 464c4 28.5 12.6 58.8 33 80q1 1.1 2.1 2.2c6.1 5.9 13.4 9.9 20.9 13.8q1.2.6 2.4 1.3c16.2 7.8 35.8 8 52.7 2.4 21.7-8 37.7-24.6 47.7-45.1 8.7-19 13.2-38.9 15.2-59.6q.2-1.7.3-3.4c3.5-31.2 3.5-31.2-5.7-60-5.3-5.5-11.2-8.2-18.6-9.6q-.3 1.1-.7 2.2c-2.4 5.2-6.6 8.7-11.7 11.1-6.7 1.9-14.1 2-20.7-.4-6-3.4-9.2-7.3-12.2-13.5-1.8-8.4-1.5-15.7 2.7-23.2 3.8-5.3 9.1-9.8 15.6-11.2 7.9-.9 14.4-.7 21.3 3.5 1.7 1.5 1.7 1.5 2.6 3.6q.6 1 1.1 1.9c2.3.6 2.3.6 4.9.5 12.4.7 23.8 6.7 32.3 15.6 20.1 24.2 16.4 60.5 13.7 89.9-1.4 13.7-4.1 26.8-7.9 40-.4 1.3-.4 1.3-.7 2.6-6.4 21.6-16.9 38-32.3 54.4q-1 1.1-2.1 2.3c-14.6 15.4-34.7 25.2-55.9 26.7q.2 1 .4 2.1c2.1 12.9 2.6 25.9 3.2 38.9q.1 1.9.2 3.9c6.7 132.1 6.7 132.1-30.2 174.2-16.7 18-39 29-63.6 30.3-27.4.8-51.6-5.5-72.1-24.2-5.5-5.2-10.1-10.7-13.9-17.2q-1 .5-2 1-3 .1-6 .1-1.9 0-3.9 0-2.1 0-4.3 0-2.2.1-4.5.1-6.3 0-12.6 0-6.7 0-13.5 0-16.3 0-32.6 0-7.7 0-15.4.1-25.5 0-51 0-6.6 0-13.2 0h-3.4q-26.7 0-53.3.1-27.4 0-54.8 0-15.4 0-30.8.1-13.1 0-26.2 0-6.7 0-13.3 0-6.2 0-12.3 0-2.2 0-4.4 0-3 0-6 0h-3.4c-4.5-.7-7.5-2.5-10.3-6-2.8-4.4-3.4-8.4-3.3-13.5v-2.4q0-3.9 0-7.8 0-2.9 0-5.7-.1-7.8 0-15.6 0-8.4-.1-16.8 0-16.5 0-33 0-13.4 0-26.8 0-1.9 0-3.9 0-3.8 0-7.7 0-26 0-52 0-1 0-2.1 0-8.2 0-16.5 0-32.2 0-64.4 0-36.2 0-72.3 0-3.9 0-7.8 0-1.9 0-3.8 0-13.4-.1-26.8 0-16.3.1-32.6 0-8.3 0-16.6-.1-7.6 0-15.3 0-2.7 0-5.5c-.2-17-.2-17 4.1-22.2 7-6.6 13.9-6 23.2-5.9z" fill="#04818d"/><path d="M334.6 54.7c9.6 7 13.7 15.2 17.4 26.3v37h320V82c4.7-14 9.2-22.7 22-30q.9-.5 1.8-1.1c8.3-4 20.7-3.1 29.3-.3 10.4 4.6 18.3 12.1 22.8 22.6 2.4 6.2 3.2 11.2 3.2 17.8q0 1.2 0 2.4 0 3.7 0 7.3 0 2.6-.1 5.1 0 6.1 0 12.2 1.8 0 3.6 0 16.9-.1 33.9-.2 8.6 0 17.3 0 8.5-.1 16.9-.1 3.2 0 6.4 0c26.9-.2 48.8 3.9 69 22.9C928.7 172.4 919 214.1 919 257H105c0-82.2 0-82.2 7.7-96.4q.6-1 1.1-2c3.1-5.8 6.8-10.8 11.2-15.6q.9-1 1.8-2.1c12.6-13.6 31.3-21.9 49.7-23.1 7-.2 13.9-.1 20.8-.1q3.4 0 6.7 0 8.7 0 17.4.1 8.9 0 17.8.1 17.4 0 34.8.1 0-1.6-.1-3.2-.1-6-.1-12 0-2.6-.1-5.2C273.4 83 275 71.5 285 60c13.6-13.2 33.5-15.5 49.6-5.3z" fill="#05818d"/><path d="M219.7 318.5q2.2 0 4.5 0 6.2 0 12.4 0 6.7 0 13.3 0 13.1-.1 26.2 0 10.7 0 21.3 0 1.5 0 3.1 0 3.1 0 6.2 0 28.8-.1 57.7 0 24.7 0 49.5 0 28.8-.1 57.5 0 3.1 0 6.2 0h3q10.6 0 21.3 0 12.9-.1 25.9 0 6.6 0 13.2 0 6.1 0 12.1 0 2.2 0 4.4 0c13.6-.1 13.6-.1 19.5 4.5 3.1 4.1 4.1 7.9 4.1 13q0 1.2 0 2.4 0 1.3 0 2.6v2.8q0 4.7 0 9.3 0 3.3 0 6.7 0 9 0 18 0 9.5 0 18.9 0 15.9 0 31.7 0 16.4 0 32.7v2q0 5.1 0 10.1-.1 41.9-.1 83.8 1.6.2 3.3.4c13.5 2.1 26.2 11.2 34.7 21.6 10.1 14 15.6 28.5 15.4 45.8q0 1.7 0 3.5c-.2 8.5-1 15.8-4.4 23.7q-.7 1.8-1.5 3.6c-3.6 8-8.2 14.3-14.5 20.4q-.8.8-1.7 1.7c-8.6 8-21.3 15.3-33.3 15.3q.1 9.3.3 18.6 0 3.1 0 6.2c.4 29.6 3.6 58.7 24.7 81.2 14.1 13.3 32.1 17.4 50.9 17.1 18.8-.8 35.6-7.4 48.7-21.2 21-25.3 24.4-60.3 25.4-91.9 0-1 0-1 .1-2 .7-26.3-.9-52.5-2.5-78.8-.7-10.1-1.2-20.1-1.6-30.2q-.9-.1-1.8-.2l-2.5-.2q-1.2-.2-2.4-.3c-17.1-2.2-34.7-11.9-47.3-23.3q-.9-.8-1.9-1.5c-16.9-13.8-27.3-34.6-34.9-54.6q-.6-1.4-1.1-2.8c-5.2-14.1-7.9-28.2-9.4-43.1q-.1-1.2-.2-2.5c-1.2-11.6-1.9-23.2-1.9-34.9q-.1-1.9-.1-3.8c.1-11.7 1.5-23.7 7.1-34.1q.5-1 1.1-2c6.6-12.3 17.8-22.5 31.3-26.7q3-.5 6.1-.9c5.2-.7 8.1-2.3 12.1-5.6 5.4-4.5 11-5.1 17.7-4.9 6.7.9 12 3.9 16.5 8.8 5.8 7.6 6.4 14.2 5.6 23.6-1.2 6-4.3 11.1-9 15-6.6 3.9-13.4 5.1-21 4-6.2-1.8-11.7-5.2-16-10-1.2-2.2-1.2-2.2-2-4-7.2.3-11.7 3.4-16.5 8.6C641 414 646.4 444 649 464c4 28.5 12.6 58.8 33 80q1 1.1 2.1 2.2c6.1 5.9 13.4 9.9 20.9 13.8q1.2.6 2.4 1.3c16.2 7.8 35.8 8 52.7 2.4 21.7-8 37.7-24.6 47.7-45.1 8.7-19 13.2-38.9 15.2-59.6q.2-1.7.3-3.4c3.5-31.2 3.5-31.2-5.7-60-5.3-5.5-11.2-8.2-18.6-9.6q-.3 1.1-.7 2.2c-2.4 5.2-6.6 8.7-11.7 11.1-6.7 1.9-14.1 2-20.7-.4-6-3.4-9.2-7.3-12.2-13.5-1.8-8.4-1.5-15.7 2.7-23.2 3.8-5.3 9.1-9.8 15.6-11.2 7.9-.9 14.4-.7 21.3 3.5 1.7 1.5 1.7 1.5 2.6 3.6q.6 1 1.1 1.9c2.3.6 2.3.6 4.9.5 12.4.7 23.8 6.7 32.3 15.6 20.1 24.2 16.4 60.5 13.7 89.9-1.4 13.7-4.1 26.8-7.9 40-.4 1.3-.4 1.3-.7 2.6-6.4 21.6-16.9 38-32.3 54.4q-1 1.1-2.1 2.3c-14.6 15.4-34.7 25.2-55.9 26.7q.2 1 .4 2.1c2.1 12.9 2.6 25.9 3.2 38.9q.1 1.9.2 3.9c6.7 132.1 6.7 132.1-30.2 174.2-16.7 18-39 29-63.6 30.3-27.4.8-51.6-5.5-72.1-24.2-5.5-5.2-10.1-10.7-13.9-17.2q-1 .5-2 1-3 .1-6 .1-1.9 0-3.9 0-2.1 0-4.3 0-2.2.1-4.5.1-6.3 0-12.6 0-6.7 0-13.5 0-16.3 0-32.6 0-7.7 0-15.4.1-25.5 0-51 0-6.6 0-13.2 0h-3.4q-26.7 0-53.3.1-27.4 0-54.8 0-15.4 0-30.8.1-13.1 0-26.2 0-6.7 0-13.3 0-6.2 0-12.3 0-2.2 0-4.4 0-3 0-6 0h-3.4c-4.5-.7-7.5-2.5-10.3-6-2.8-4.4-3.4-8.4-3.3-13.5v-2.4q0-3.9 0-7.8 0-2.9 0-5.7-.1-7.8 0-15.6 0-8.4-.1-16.8 0-16.5 0-33 0-13.4 0-26.8 0-1.9 0-3.9 0-3.8 0-7.7 0-26 0-52 0-1 0-2.1 0-8.2 0-16.5 0-32.2 0-64.4 0-36.2 0-72.3 0-3.9 0-7.8 0-1.9 0-3.8 0-13.4-.1-26.8 0-16.3.1-32.6 0-8.3 0-16.6-.1-7.6 0-15.3 0-2.7 0-5.5c-.2-17-.2-17 4.1-22.2 7-6.6 13.9-6 23.2-5.9zM221 348v425h333v-79l-15-4c-18-7-30.3-19.3-38.5-36.6-7.4-17.1-8-36.9-1.5-54.4 7.2-17.6 18.5-29.5 35.4-37.9C540 559 540 559 554 556V348H221z" fill="#014352"/><path d="M347 370q1.1.1 2.3.2c2.1.4 2.1.4 5.7 1.8l2.9 5.2c2 3.3 4.7 4.3 8.1 5.8 2.4-.1 2.4-.1 4-1q.5-2.5 1-5 1.8.2 3.7.5c10.3 1.1 20.1.6 30.3-1.5l1 6c6.2-.4 8.8-1.8 13-6q.5-1 .9-2.1c1.1-1.9 1.1-1.9 2.8-2.7 12.3-2.5 21.5-1.4 32.4 4.5 8.2 6.6 14.9 14.7 16.2 25.5.8 12.4-.3 22-8.5 31.8-7 7.7-16.3 12.8-26.8 13.3q-3.2.1-6.3.2c-4.1.1-6.8.4-9.7 3.5-1 3-1.1 5-1.1 8.1q-.1 1.5-.1 3.1 0 1.7 0 3.4 0 1.7 0 3.5 0 3.6 0 7.3 0 5.5 0 11.1 0 3.6 0 7.1c0 1.7 0 1.7-.1 3.4.1 9.4 1.6 17.2 5.6 25.8q.9 2 1.9 4.1c.4 1.1.4 1.1.9 2.1q2 4.4 3.8 8.8.6 1.4 1.3 2.8c2.5 10.3 0 17.6-4.6 26.8q-1.5 3.1-3 6.2l-1.4 2.8c-3.3 7-4.3 13.1-4.4 20.9q0 1.1 0 2.1-.1 3.5-.1 7v2.4q0 6.3-.1 12.6 0 5.2 0 10.4-.1 6.3-.1 12.5 0 2.4-.1 4.8 0 3.4 0 6.7 0 1.9 0 3.9c.8 4.2 2.3 5.7 5.6 8.3 2.2.7 2.2.7 4.5.6q1.2 0 2.5 0h2.6c11.5.2 20.9 2.2 29.4 10.4 6.1 6.8 8.4 13 8.3 22.3q0 1.1 0 2.2c-.3 12.5-5.4 23.6-14.3 32.5-9.3 6.7-17.7 9-29 8-10.6-1.8-19-6.2-28.2-11.7-6.1-3.5-11.3-6.3-18.6-5.2-4 1.6-7 4.7-10.2 7.5-8 6.3-17.5 9.9-27.7 9.8-10.5-1.3-22.3-6.1-29-14.5-7.7-11-9.9-22.7-8.3-35.9 3-10.4 10.4-17.9 19.6-23.2 5-2.4 9.8-2.4 15.2-2.5q2.8-.1 5.6-.1 1.2 0 2.5-.1c2.3 0 2.3 0 5.1-1.1 2-4.4 2.3-8.3 2.3-13.1q0-1 0-2 .1-3.4.1-6.7 0-2.4 0-4.8 0-4.9 0-9.8 0-6.3.1-12.6.1-4.9.1-9.7 0-2.4 0-4.7c.2-16.6-5.3-29.5-13.5-43.9-4.3-14.1.7-23.8 7.2-36.2q.7-1.2 1.3-2.5c3.9-8.7 4.9-16.6 4.9-26.1q0-1.8 0-3.6 0-3.9 0-7.7 0-5.9.1-11.7 0-3.8 0-7.5 0-1.8 0-3.6c0-6.4 0-6.4-2.9-12-3.5-2.3-5.7-2.4-9.8-2.4-12.4-.3-21.6-4.7-30.1-13.5-7.4-9.3-9-19.4-8-30.9 1.2-10.4 7-18.8 15-25.3 8.1-5.6 16.5-7.6 26.2-6.7z" fill="#fef4ba"/><path d="M334.6 54.7c9.1 6.6 14.6 15.5 17.4 26.3.4 3.2.4 6.3.4 9.4q0 1.4 0 2.8.1 4.4.1 8.8 0 3.1 0 6.2 0 6.5 0 12.9 0 8.3.1 16.5 0 6.4 0 12.8 0 3.1 0 6.1c.1 15.4-.8 27.7-12.1 39.3-10.2 9-21.2 11.3-34.4 10.4-9.7-1-18-6.8-24.1-14.2-5.5-8.7-8.1-16.6-8.2-26.8q0-1.3 0-2.7 0-4.4 0-8.8 0-1.6-.1-3.1 0-8 0-16 0-8.3-.1-16.5 0-6.4 0-12.8 0-3-.1-6C273.4 84 274.6 72 285 60c13.6-13.2 33.5-15.5 49.6-5.3zM730 53c9.2 5.5 16.3 13.6 19.5 24 1.8 7.7 1.2 16.1 1.1 24q0 3.2 0 6.4 0 6.7 0 13.4 0 8.5 0 17.1 0 6.6 0 13.2 0 3.1 0 6.2 0 4.4-.1 8.9 0 1.2.1 2.5c-.2 10.7-5.1 20.8-12.6 28.3-10.2 8.5-21 10.1-34 9.2-9.2-1-17.2-6.6-23-13.6-5.9-8.2-8.5-14.4-8.4-24.4q0-1.4 0-2.9 0-4.8 0-9.5 0-3.3 0-6.6-.1-7 0-13.9 0-8.9-.1-17.7 0-6.9 0-13.7 0-3.3 0-6.5 0-4.6 0-9.2 0-1.3 0-2.7c.1-10.9 4.8-19.8 12.5-27.5 13.1-10 30-13 45-5z" fill="#004552"/><path d="M585 583c11.3 6.8 19.8 15.6 24.1 28.2 2.6 11 2.2 23.7-3.1 33.8q-.7 1.3-1.4 2.6c-6.4 11.5-15.3 18.3-27.9 22.3-13 3.1-25.5 1.5-37-5.1-11.5-7.5-17.6-16.8-21-30.1-2.4-13-.8-24.8 6.5-35.9 13.8-18.3 38.6-26.7 59.8-15.8z" fill="#fdf3b9"/></svg>