<svg xmlns="http://www.w3.org/2000/svg" width="1024" height="1251" xmlns:v="https://vecta.io/nano"><path fill-rule="evenodd" d="M331.3 60.7q4.2 0 8.3-.1c15.8 0 31.2 1.7 46.5 5.7q1.2.3 2.4.6c24.4 6.5 48 17.4 68.5 32.1q.9.6 1.8 1.3c8.3 6 15.8 12.7 23.2 19.7q1.2 1.1 2.4 2.2c23.6 22.7 37.9 54.1 38.8 86.7.5 27.1-3.5 51.8-13.2 77.1q-.5 0-1 0v-1.9c-.9-32.8-3.4-62.7-26-88.1l-2.1-2.5c-9.3-10.9-20.6-19.4-32.3-27.7-12.9-9.2-25.3-19.2-33.6-32.8q-.6 1-1.2 1.9c-10.7 17.4-23.7 31.6-39.8 44.1q-1.5 1.2-3.1 2.5c-7.6 6-15.6 11.4-23.9 16.5-19.7 12.2-19.7 12.2-39 25q-1 .7-2.1 1.4c-9.8 6.7-19 13.7-27.9 21.6q-.8.7-1.6 1.4c-13.7 12-24.4 25.5-34.4 40.6q-1.2 1.7-2.3 3.5-.8 1.2-1.7 2.5c-2-3-3-5.6-4.2-9.1-4.4-11.7-11.3-20.8-22.8-26.1-7.4-3-14.4-4.3-22-1.8-12.2 5.5-18.9 14.9-24 27q-.6 1.3-1.1 2.6c-3.7 14.2-1.5 30.1 4.1 43.4l1.2 2.9c2.4 5.3 5.4 9.3 9.4 13.5 1.4 1.6 1.4 1.6 1.4 3.6.9.4.9.4 1.7.8 2.3 1.2 4.3 2.6 6.4 4.1 9.1 6 17.1 7.7 27.9 8.1.2 8.7-.3 17.3-.9 26q-.3 3.5-.5 6.9-.7 9.8-1.5 19.6-1 13.8-1.9 27.7-.2 3.4-.4 6.8c-1 14.8 2.7 28.2 6.5 42.4q.8 3.4 1.7 6.9 2.4 9.4 5 18.7.3 1.1.6 2.3c2.4 8.5 5.3 14.2 11.4 20.7q.8.9 1.5 1.8C254 561 284.1 571.4 308 573c24.5 1.2 24.5 1.2 48-5q1.7-.7 3.4-1.4c12.8-5.7 19.7-15.1 24.8-27.8 4.7-13.9 4.5-28 2.5-42.3-.5-3.6-.8-6.9-.7-10.5 22.6-5.4 37.3-.3 57 11q1 .6 2.1 1.2c17 9.7 32.6 21.4 46.9 34.8.8.8.8.8 1.7 1.6 9.6 9.1 17.8 18.6 25.3 29.4q.8 1.1 1.6 2.2 2.4 3.4 4.7 6.9.7 1 1.5 2.1c2.3 3.4 3.6 5.6 3 9.8q-.4 1.5-.8 3 1 .1 2.1.1c18.8 1.3 50.9 6.9 64.9 20.9.3 3.5.4 5.4-1.5 8.4-.7.8-.7.8-1.5 1.6-5.4-.5-9.8-2-14.8-4.1-7.7-3.2-15.5-5.6-23.5-7.7-1.6-.4-1.6-.4-3.2-.9A193.92 193.92 0 0 0 529 602q.5 4.5.9 8.9a23 23 0 0 1 .3 2.6q.9 8.2 1.8 16.5 1.9-.4 3.8-.9c12.7-2.5 25.5-3.3 38.4-3.4 1.6 0 1.6 0 3.2-.1 6.2 0 11 .6 16.6 3.4 1.1 3 1.1 3 1 6q-1 1.5-2 3c-2.6.3-4.9.4-7.5.4q-1.2.1-2.3.1-3.7 0-7.4.1-4.8 0-9.5.1-1.2 0-2.4 0c-6.3.2-12.5.9-18.7 1.9-3.1.4-6.1.5-9.2.4 10.2 23.8 10.2 23.8 25 45q1 1.2 2.1 2.5c19.1 22.1 47.3 32.4 75.2 38.2l2.9.6c17.2 3.4 34.5 4.1 52.1 4q1.4 0 2.9 0c42.6-.1 88.9-8.5 120.3-39.6q2.6-2.6 5.1-5.2 1.2-1.2 2.4-2.5.5 0 1 0 .4 6.7.5 13.5.1 2.3.3 4.6c.7 12.6.7 12.6-2.9 18.2-2.5 2.8-5.1 5.2-7.9 7.7-1.7 2-3.1 4-4.6 6.1q-1.1 1.4-2.3 3-2 2.8-4.1 5.6c-18.5 24.6-55.3 30.7-84 35.3-6.4.9-12.7 1.2-19.2 1.2q-1.4 0-2.9 0-3 0-6 0-4.5.1-9.1.1c-18.1.1-35.8-1.6-53.2-6.6q-1.7-.5-3.4-.9c-17.2-5-42.7-12.8-52.3-29.5-1.8-4.6-2.4-9.4-2.9-14.3q-.9 1.3-1.8 2.6c-6.2 8.9-12.9 17.3-20.2 25.4l-1.4 1.6q-4.7 5.3-9.6 10.4c-.8.8-.8.8-1.5 1.6-6 6.3-12.1 12.2-18.9 17.5q-.9.7-1.8 1.4c-4.9 3.8-9.3 7-15.7 6.7q-1.1-.1-2.3-.1c-.9 0-.9 0-1.8-.1 1.2 2.2 2.6 4.2 4.3 6.2-1.6-1.3-3.3-2.3-5.3-3.2-2.4 6.1-4.5 12.3-6.3 18.6q-.4 1.4-.8 2.7c-3.5 11.5-5.1 22.9-5.2 34.9q.1 1.8.1 3.6 0 4.8 0 9.7 0 5 0 10.1c0 15.1.1 30.1 1.1 45.2a16.2 16.2 0 0 0 .1 2.2c2.2 36 7.7 71.9 13.9 107.4 5.7 32.1 10.8 64.4 14.7 96.8l1.4 12.8h27H35c0-14.6 0-14.6.7-20.6l.2-1.9q.4-3.2.8-6.3.1-1.1.3-2.2c1.8-15.3 4.1-30.5 6.6-45.6q.6-3.9 1.3-7.7l11.8-66.4 6.2-34q.3-1.7.6-3.5c1.3-8.2 2.4-16.5 3.5-24.8q1.6.2 3.3.4c14.7 1.8 29.5 1.9 44.4 1.9q4.2 0 8.5 0c16.5.1 32.6-.2 48.8-3.3q1.1-.2 2.3-.4l15.3-3.2q6.4-1.3 12.7-2.6 3.3-.7 6.7-1.5c7.2-1.4 14.3-1.6 21.7-1.5q1.7 0 3.5 0c6 0 11.9.3 17.8 1.2q.4-1.2.8-2.5c2.6-7.6 6.3-17.2 13.1-21.9 4.7-2.3 9-2.7 14.1-1.6 7.5 2.8 14.1 5.6 18 13 .4 2.6.4 2.6.3 5q0 1.3-.1 2.6a60.68 60.68 0 0 1-1.2 8.4c8.4.7 14.3-1.2 20.9-6.5 4.4-4.5 5.4-9.4 6.1-15.5q1.2-.1 2.4-.2c6.4-.5 6.4-.5 11.7-3.6 3.8-5.2 5.1-8.9 5.5-15.3l.2-3.9q.1-1.5.2-3 1.3 0 2.6 0c6.6-.2 11.4-.4 16.1-5.3 4.7-6.1 4.8-11.3 4.3-18.7-.3-2-.6-4-1-6 .8.1.8.1 1.7.1 6 .3 10.3-.6 15.3-4.1 4-4.1 5.7-7.9 6.4-13.6-.3-10.9-7.3-20.3-14.7-27.7-14.4-13.6-36.4-23.4-56.4-22.9-21.2 1.5-38.7 14.3-53.8 28.3-4.1 3.7-8.3 7.1-12.8 10.4q-.9.6-1.8 1.3c-7.4 5.3-13.3 5.4-22.1 5q-1.7-.1-3.4-.2c-8.5-.4-17-1.1-25.5-1.8-17.3-1.4-34.6-2-51.9-2.8l1-24c-31.5-12.7-66.4-16.2-100.1-16.4q-1.3 0-2.6 0c-9.5-.1-18.2.1-27.3 3.4v7c-2.9-.3-4.8-.9-7.3-2.4-4.2-6.4-1.5-17.4-.8-24.8q.2-1.5.3-3.1.5-5.1 1-10.1.2-1.8.3-3.5c1.9-18.9 4.1-37.7 6.9-56.4q.8-5 1.5-10c6.7-44.3 17.9-98 47.9-132.8 1.4-1.8 1.4-1.8 1.1-3.7-1-2.5-2.3-4.6-3.8-6.9C51.4 512 44 485.7 43.8 460.4c-.1-1.2-.1-1.2-.1-2.4-.1-17.1-.1-33.4 4.3-50q.3-1.1.6-2.3c6-23.8 17-44.6 32.4-63.7q.7-.9 1.5-1.9c15.9-19.6 34.9-33.9 57.5-45.1q0-1 0-2.1-.1-10-.2-20.1 0-5.1-.1-10.3c-.7-55.1 16.5-105.8 55.2-145.8 16.4-16.5 35-28.8 56.1-38.7q1.7-.8 3.4-1.6C268.6 70 283.7 65.8 299 63q1.5-.3 3-.5c9.8-1.6 19.4-1.8 29.3-1.8zm243.6 956.8q.5 11.3 1.1 22.6-.6-11.3-1.1-22.6zm-70.6-213c-1.3-1.2-2.6-2.3-4-3.3 6.9 7.8 17.3 13.6 25.7 18.8-7.6-4.7-14.9-9.7-21.7-15.5zm62.9 33.6q1.9.4 3.8.9-1.9-.5-3.8-.9zm3.8.9q0 1.5 0 3.1 0-1.6 0-3.1zm0 3.1l3.8 173.2c-2.7-57.7-3.3-115.5-3.8-173.2zm3.8 173.2q0 1.1.1 2.2c-.1-1.1-.1-1.1-.1-2.2zm1.2 24.8c.7 12.5 1.2 25 1.3 37.4-.1-12.4-.6-24.9-1.3-37.4zm1.3 37.4q0 1.8 0 3.6v-3.6zm0 3.6q0 1.6 0 3.3v-3.3zm0 3.3q.1 1.5.1 2.9 0-1.4-.1-2.9zm.1 2.9c-.5 3.3-1.5 5.1-3.4 7.7 1.9-2.6 2.9-4.4 3.4-7.7zm-3.4 7.7c-2.4 1.2-4.6 2.1-7.2 2.9 2.6-.8 4.8-1.7 7.2-2.9zm-31.3 22.4c-3.8 8.5-3 15.6-1.7 24.6-1.3-9-2.1-16.1 1.7-24.6z" fill="#03414b"/><path d="M988.6 667.2c4.1 2.6 8 5.5 10.4 9.8 1.1 7.8-1.4 14.3-5.9 20.7-3.9 4.9-8.1 9.3-12.6 13.6-12.5 12.3-20.5 28.1-20.8 45.8.1 19.7 10.6 37.6 19 54.9 19.2 39.3 38.1 79.4 37.7 123.9v2.6c-.1 12.1-.6 23.7-3.4 35.5q-.6 3-1.3 6c-9.5 43.1-32.1 79.3-64.7 109q-1.5.9-3.1 1.8c-3.6 2.7-5 5.7-6.7 9.6-6.7 14.3-17.6 33.3-32.2 40.6q1.3 0 2.6 0 12 0 24 .1 6.1.1 12.3.1 6 0 11.9.1 2.3 0 4.6 0c15.4 0 15.4 0 21.6 5.7 4.4 4.4 5.6 9.3 5.7 15.4q0 1.3-.1 2.6.1 1.3.1 2.6c-.1 6.2-1.6 10.6-5.7 15.4-5.2 4.1-8.9 5.1-15.4 5.1q-1 0-2 0-3.4 0-6.7 0-2.4 0-4.9 0-6.6 0-13.3 0-7.3 0-14.6 0-14.4.1-28.9.1-17.2 0-34.5 0-41.8 0-83.6 0-19.8 0-39.5 0-66.5 0-133.1 0-3.1 0-6.3 0-6.4 0-12.8 0-7.4 0-14.9 0-2.1 0-4.3 0-68.6 0-137.3.1-49.3 0-98.7 0h-2q-21.3 0-42.5 0-10 0-19.9 0-2 0-4 0-31.6 0-63.2.1-31.7 0-63.4 0-18.9 0-37.7 0-12.6 0-25.2 0-7.2 0-14.4 0-6.5 0-13 0-2.4 0-4.7 0-3.2 0-6.4 0-1.8 0-3.6 0c-5.3-.6-9.2-2.8-12.5-6.9q-.7-.9-1.5-1.8c-3.1-4.5-2.5-9.8-2.5-15q-.1-1.4-.1-2.9c-.1-6.7 1.2-10.5 6-15.4 5.3-4.3 9.2-4.5 15.8-4.5H39q4.4 0 8.8 0 3.2 0 6.4 0 8.8 0 17.5 0 9.5 0 18.9 0 16.4 0 32.7 0 17.2 0 34.4 0h2.1q5.4 0 10.8 0 38.4 0 76.8 0 37.3 0 74.6 0 1.1 0 2.3 0 11.5 0 23.1 0 23.5.1 47 .1 1.1 0 2.2 0 72.2 0 144.4 0-.5-1.6-1-3.3c-2.1-7.5-1.6-14.1 1.5-21.2 6.9-11.9 17.1-18 29.8-22.2 3.1-1.5 3.5-2.1 4.7-5.3.3-2.6.3-2.6.2-5.5v-3.3q0-1.8 0-3.6 0-1.9 0-3.8c-.1-12.5-.7-25-1.4-37.5q-.5-10.5-1-21-.1-1.1-.1-2.2c-2.7-58-3-116-2.7-174.1q-1.1-.2-2.2-.4c-1.5-.2-1.5-.2-3-.5q-1.4-.2-2.9-.5c-4.4-.9-8.5-2.5-12.7-4.2q-1.3-.6-2.6-1.1c-17.8-7.4-34.2-18.6-48.6-31.3q-.9-.8-1.8-1.6C496 798 496 798 496 795q1.1-.1 2.2-.1c9.3-1 14.9-4.8 21.8-10.9q.8-.7 1.6-1.4c3.9-3.4 7.7-7 11.4-10.6q.8-.8 1.6-1.5c6.2-6 12-12.2 17.4-19 1.7-2.2 3.6-4.2 5.4-6.3 3.8-4.3 7.1-8.9 10.3-13.6q1.6-2.3 3.3-4.6.5 0 1 0 .1 1.3.3 2.6c.8 6.6 1.5 11.2 5.7 16.4q0 1 0 2 .9.4 1.7.8c2.4 1.2 4.3 2.7 6.4 4.3 16.1 11.3 35.1 16.8 54.1 21.1q1 .3 2 .5c14.1 3.1 28.2 3.6 42.6 3.6q4.4 0 8.9.1c16.5 0 32.4-1.9 48.5-5.8q1.3-.3 2.7-.6c17.5-4.2 34.8-8.7 49.1-20q1.4-1.1 2.9-2.3c3.5-2.9 6.1-6.4 8.7-10.1 18.5-25.2 18.5-25.2 26.4-28.6 3.7-.5 6.5.1 9.8 2.1 6.7 5.2 8 12.7 9.2 20.9q.8-.1 1.7-.1c5.8-.3 9.9.2 14.3 4.1 4.1 5.2 4.4 9.1 4 15.6-.2 2.4-.2 2.4 1 4.4.1 2.7 0 5.3 0 8q1.4.2 2.8.3c3.3.7 4.3 1 6.2 3.7 2.8 9.2 2.9 22.8-1.5 31.3-3.2 4.8-7.2 8.9-11.5 12.7 3 4.7 6.3 8.9 9.9 13.2 6.8 8.2 13.1 16.8 19.4 25.4q2.5 3.5 5.1 7c15.2 20.7 27.9 40.8 35.6 65.4q.4 1.3.8 2.5c6.8 21.7 10.6 43.8 12.9 66.4.2 2.1.2 2.1 1.3 4.1 7.2-18.5 13.1-37 13.2-57.1q0-1.2 0-2.3 0-2.4 0-4.8.1-3.5.1-7.1c.1-13.7-1.9-26.3-6.9-39.2q-.5-1.4-1-2.8c-4.1-10.7-8.7-21.2-13.4-31.7-40.3-90.5-40.3-90.5-26-129q.4-1 .7-2c8.6-23.1 26.2-43 48.3-54 6.6-2.6 13.9-3.8 20.6-.8zM414 132a64.7 64.7 0 0 1 7.3 8.3c8 10.4 18.1 17.8 28.6 25.6 28.3 20.9 51.4 43.9 57.8 79.9 3.6 24.5 1.9 50.3-.4 74.8q-.2 1.3-.3 2.5c-1.5 16-4.2 31.9-8.7 47.3q-.4 1.3-.8 2.6c-12.4 41.3-35.9 80.7-74.6 102-11.2 5.9-24 11.4-36.9 11q.2.9.4 1.8c4.4 20.6 4.9 44.1-6.8 62.4-1.5 2-3 3.9-4.6 5.8q-.7.9-1.4 1.8c-5.3 6-12.3 9.2-19.6 12.2-1.6.7-1.6.7-3.2 1.3-17.7 6-41.9 4.3-59.8-.3q-1-.3-2.1-.5c-23.8-6.1-47.5-17.6-61.4-38.8-1.5-2.7-2.3-5.1-3.1-8.1l-.8-3.2q-.4-1.7-.9-3.4-.4-1.7-.9-3.5-1.4-5.6-2.9-11.3-.9-3.7-1.9-7.5-1.8-6.9-3.5-13.8-.4-1.4-.7-2.8-.4-1.5-.8-3.1-.3-1-.5-2.1c-1.3-5.3-1.8-10.2-1.7-15.7v-2.5c.1-9.3.8-18.6 1.5-27.9q.2-2.8.4-5.6.5-7.2 1.1-14.4.5-7.5 1.1-14.9 1-14.4 2.1-28.9-1.3 0-2.7 0-1.8 0-3.6.1-1.7 0-3.5 0c-10.2-.3-18.5-6.9-25.8-13.4-14.5-16-19.5-32.7-18.8-54 .8-13.5 7.6-24.5 17.3-33.6 6.2-5 12.4-7.9 20.4-7.5 11.7 1.7 20.9 7.2 28.3 16.3 4.6 6.8 7.7 14.4 10.4 22.1q.8-1.3 1.6-2.6c24.6-39.4 61-65 100-88.8 15.1-9.1 29.2-18.9 42.4-30.6q1.4-1.2 2.8-2.4 3.6-3.3 7.2-6.6c.8-.8.8-.8 1.6-1.5 4.5-4.3 8.1-9 11.6-14.1q.8-1.1 1.6-2.2c2.8-3.9 5.2-7.8 7.2-12.2zm164 258c3.6 2.4 6.7 5.2 10 8q1.7 1.3 3.4 2.6c10.1 7.9 19.1 16.6 28.1 25.6q.9.9 1.8 1.8c6.7 6.7 13.1 13.4 18.8 21 2.1 2.2 2.8 2.8 5.9 3q3.5-.6 7-1.4c9.6-2 18.9-2.1 28.6-2h2.7c21 .1 41.9 1.7 62 7.9 5.4 1.6 5.4 1.6 10.7.5 2-1.7 3.9-3.4 5.7-5.3 19.3-18.5 56.7-50.3 84.4-49.9 5.6.4 10 1.8 13.8 6.1 3.1 4.5 4.4 8 4.4 13.6q0 1.5 0 3.2 0 1.6-.1 3.4 0 1.7 0 3.5c-.1 10.3-.8 20.3-2.2 30.4-.1.9-.1.9-.3 1.9-3.6 26.2-8.3 52.2-17.7 77.1-1.3 3.8-.5 4.6 1.2 8.2a81.97 81.97 0 0 1 5 15.2q.3 1 .5 2c1.6 6.6 2.5 12.8 2.5 19.5a18.48 18.48 0 0 1 .1 2.3c.3 30.1-3.3 58.1-20.3 83.8q-1 1.5-2 3c-21.4 30.2-53.3 45.5-88.6 53.3q-1 .2-2.1.4c-15.6 3.2-31.4 3.7-47.4 3.6q-1.4 0-3 0c-15.1 0-29.9-.6-44.9-3.3q-1.3-.2-2.7-.5c-24.6-4.2-50-12.1-69.3-28.5l-2.5-2.1C558 686.3 549.1 672 541.6 656c-.5-1-.5-1-1-2.1-2-4.2-3.4-8.4-4.6-12.9 18.9-3.5 37.8-3.7 57-4 1-4.1 1-4.1 0-8-6-2.3-11.8-2.3-18.1-2.3q-1.6 0-3.3 0c-13.3.1-26.4 1.7-39.6 3.3-2-9.5-3.4-18.3-3-28 8.8.4 17 1.7 25.5 4.1q1.7.4 3.4.9c8.4 2.3 16.5 5.2 24.5 8.6 4.7 1.9 4.7 1.9 9.6 2.2 2.2-.6 2.2-.6 3-2.8q.1-3 0-6c-21.2-11-42.2-18.1-66-21 .9-20 9.1-38.9 18.7-56.1 3.7-7 3.3-11.4 1.3-18.9q-.6-2.9-1.2-5.8-.3-1.5-.6-3c-6-29.8-8.1-59.8-5.4-90.1q.1-1.2.2-2.4c1-9.1 2.9-17.5 10-23.7 7.8-5 18.4-1.8 26 2z" fill="#de8000"/><path d="M331.3 60.7q4.2 0 8.3-.1c15.8 0 31.2 1.7 46.5 5.7q1.2.3 2.4.6c24.4 6.5 48 17.4 68.5 32.1q.9.6 1.8 1.3c8.3 6 15.8 12.7 23.2 19.7q1.2 1.1 2.4 2.2c23.6 22.7 37.9 54.1 38.8 86.7.5 27.1-3.5 51.8-13.2 77.1q-.5 0-1 0v-1.9c-.9-32.8-3.4-62.7-26-88.1l-2.1-2.5c-9.3-10.9-20.6-19.4-32.3-27.7-12.9-9.2-25.3-19.2-33.6-32.8q-.6 1-1.2 1.9c-10.7 17.4-23.7 31.6-39.8 44.1q-1.5 1.2-3.1 2.5c-7.6 6-15.6 11.4-23.9 16.5-19.7 12.2-19.7 12.2-39 25q-1 .7-2.1 1.4c-9.8 6.7-19 13.7-27.9 21.6q-.8.7-1.6 1.4c-13.7 12-24.4 25.5-34.4 40.6q-1.2 1.7-2.3 3.5-.8 1.2-1.7 2.5c-2-3-3-5.6-4.2-9.1-4.4-11.7-11.3-20.8-22.8-26.1-7.4-3-14.4-4.3-22-1.8-12.2 5.5-18.9 14.9-24 27q-.6 1.3-1.1 2.6c-3.7 14.2-1.5 30.1 4.1 43.4q.6 1.4 1.2 2.9c2.4 5.3 5.4 9.3 9.4 13.5 1.4 1.6 1.4 1.6 1.4 3.6.9.4.9.4 1.7.8 2.3 1.2 4.3 2.6 6.4 4.1 9.1 6 17.1 7.7 27.9 8.1.3 10.9-.6 21.6-1.3 32.4q-.2 3-.4 5.9-.5 7.7-1.1 15.3-.5 7.9-1.1 15.7-1 15.4-2.1 30.7-.5-1.5-1-3c-6.5 1-12 2.3-18 5-6.6 2.4-13.2 4.4-20 6q-3 1-6 2 0 1 0 2-1.5.6-3.1 1.2c-26.1 10.3-48.8 24.8-69.6 43.7q-3.2 2.9-6.4 5.7c-4.2 3.6-8 7.5-11.9 11.4q-2 2-4 4c-15.7-24.5-25.9-51.3-26.2-80.6q-.1-1.2-.1-2.4c-.1-17.1-.1-33.4 4.3-50q.3-1.1.6-2.3c6-23.8 17-44.6 32.4-63.7l1.5-1.9c15.9-19.6 34.9-33.9 57.5-45.1q0-1 0-2.1-.1-10-.2-20.1 0-5.1-.1-10.3c-.7-55.1 16.5-105.8 55.2-145.8 16.4-16.5 35-28.8 56.1-38.7q1.7-.8 3.4-1.6C268.6 70 283.7 65.8 299 63c1.5-.3 1.5-.3 3-.5 9.8-1.6 19.4-1.8 29.3-1.8z" fill="#04414b"/><path d="M34.4 1141.9h2q3.4 0 6.7 0 2.4 0 4.9 0 6.7-.1 13.4-.1 7.2 0 14.5 0 14.5 0 28.9 0 17.3 0 34.6 0 41.8-.1 83.6-.1 13.9 0 27.7 0 72.5 0 145 0 5.3 0 10.7 0 1 0 2.1 0 10.7 0 21.3 0 2.2-.1 4.3-.1 68.7 0 137.4 0 49.4-.1 98.8-.1 1 0 2 0 21.3 0 42.6 0 9.9 0 19.9 0 1.9 0 4 0 31.6 0 63.2-.1 31.7 0 63.5 0 18.8 0 37.7 0 12.6 0 25.2 0 7.2 0 14.4 0 6.5-.1 13.1 0 2.3 0 4.7 0c15.1-.2 15.1-.2 21.4 5.6 4.4 4.4 5.6 9.3 5.7 15.4q0 1.3-.1 2.6.1 1.3.1 2.6c-.1 6.2-1.6 10.6-5.7 15.4-5.2 4.1-8.9 5.1-15.4 5.1q-1 0-2 0-3.4 0-6.7 0-2.4 0-4.9 0-6.6 0-13.3 0-7.3 0-14.6 0-14.4.1-28.9.1-17.2 0-34.5 0-41.8 0-83.6 0-19.8 0-39.5 0-66.5 0-133.1 0-3.1 0-6.3 0-6.4 0-12.8 0-7.4 0-14.9 0-2.1 0-4.3 0-68.6 0-137.3.1-49.3 0-98.7 0-1 0-2 0-21.3 0-42.5 0-10 0-19.9 0-2 0-4 0-31.6 0-63.2.1-31.7 0-63.4 0-18.9 0-37.7 0-12.6 0-25.2 0-7.2 0-14.4 0-6.5 0-13 0-2.4 0-4.7 0-3.2 0-6.4 0-1.8 0-3.6 0c-5.3-.6-9.2-2.8-12.5-6.9q-.7-.9-1.5-1.8c-3.1-4.5-2.5-9.8-2.5-15q-.1-1.4-.1-2.9c-.1-6.7 1.2-10.5 6-15.4 4.8-3.9 7.8-4.5 13.8-4.5z" fill="#e7c36a"/><path d="M47.9 775.6q1.4 0 2.7 0c81.7.7 81.7.7 98.4 17.4l-.4 8.1q0 1.1-.1 2.3A152.82 152.82 0 0 1 147 817q1.4 0 2.9 0c10.5-.1 20.9.3 31.3.9q2.5.1 5 .2 17 1 33.9 2.3c13.5 1 22.9 1.5 33.7-7.5q.9-.7 1.8-1.4c3.8-3.1 7.4-6.3 10.9-9.6 15.7-14.4 35.9-26.9 57.9-26.3 21.7 2.5 43.5 14.1 57.4 30.7 5.3 7.2 9.6 15.7 8.2 24.7-2 6.7-6.1 10.5-12 14-2.8.9-4.4 1.1-7.2 1.1q-1.9-.1-3.8-.1c.2 1.1.2 1.1.5 2.2 1 5.8 1.7 12.2-1.1 17.6-1.1 1.6-1.1 1.6-2.4 3.2q-.7.9-1.4 1.8c-2.8 3-4.7 4.1-8.9 4.6-3.3 0-6.5-.1-9.7-.4q.1 1.4.2 2.7c.3 7.5.2 12.6-4.6 18.6-2.8 3-4.7 4.6-8.9 4.9q-3.4 0-6.7-.2l.2 3.1c-.3 6.2-2.5 9.5-7 13.6-6.4 5.3-12 6.8-20.2 6.3-1-2-1-2-.6-4 .6-2.7.8-5.2.8-8q.1-1.2.1-2.5c-.4-3.3-1.3-4.9-3.3-7.5-6.3-4.2-13.8-8.4-21.6-7.5-5 1.1-9 3.5-12 7.8-1.4 2.6-2.7 5.3-3.9 8q-.7 1.4-1.3 2.8-1.6 3.5-3.2 6.9-1.4 0-2.9-.1c-24.7-.5-24.7-.5-49 3.4-6.5 1.5-13.2 2.7-19.8 3.9q-3.7.7-7.4 1.4-2.3.5-4.6.9-1.1.2-2.1.4c-9.8 1.9-19.4 2.3-29.3 2.3q-1 0-2 0-5.4 0-10.7 0-4.4 0-8.7.1c-55.7.4-55.7.4-74.6-16.8-15.1-15.9-19-38.9-21.5-59.9q-.2-1.5-.4-3c-1.7-14.5-2.2-28.9-2.1-43.5q0-4 0-8 0-2.6 0-5.2 0-1.2 0-2.4c0-4.6.3-9 1.1-13.5 9.8-4.8 19.3-4.6 29.9-4.4z" fill="#de8000"/><path d="M171 472q.1 1 .3 2l5.6 36c2.7 16.1 4.9 32.2 6.7 48.5q.5 4.5 1.1 9.1c1.6 14.2 2.5 28.4 2.5 42.8v2.1q0 5.6 0 11.2 0 4.5.1 9c.2 23.9-.5 47.7-5.9 71q-.4 1.6-.8 3.3c-4.5 18.7-11.5 40.2-22.2 56.4-1.6 3-2 5.3-2.3 8.8q-.2 1.7-.4 3.5-.2 1.8-.4 3.6l-.4 3.7q-.5 4.5-.9 9c-7.3.6-12.4-1.1-19.2-3.7-6.4-2.3-13.2-3.6-19.9-4.9q-1.1-.2-2.3-.5c-21.5-4.3-42.7-6.2-64.7-6.3q-1.3 0-2.6 0c-9.5-.1-18.2.1-27.3 3.4v7c-2.9-.3-4.8-.9-7.3-2.4-4.2-6.4-1.5-17.4-.8-24.8q.2-1.5.3-3.1.5-5.1 1-10.1.2-1.8.3-3.5c1.9-18.9 4.1-37.7 6.9-56.4q.8-5 1.5-10c9-59.9 27.4-122.6 76.5-161.6 2.3-1.9 4.5-3.9 6.7-5.9 14.3-12.9 47.7-37.2 67.9-37.2z" fill="#02918e"/><path d="M423 488c7.2 2.1 13.5 5.2 20 8.9q1.5.9 3 1.8c16.7 9.6 32 21.1 46 34.3q.8.8 1.7 1.6c9.6 9.1 17.8 18.6 25.3 29.4q.8 1.1 1.6 2.2 2.4 3.4 4.7 6.9l1.5 2.1c2.3 3.4 3.6 5.6 3 9.8q-.4 1.5-.8 3 1 .1 2.1.1c18.8 1.3 50.9 6.9 64.9 20.9.3 3.5.4 5.4-1.5 8.4-.7.8-.7.8-1.5 1.6-5.4-.5-9.8-2-14.8-4.1-7.7-3.2-15.5-5.6-23.5-7.7q-1.6-.4-3.2-.9A193.92 193.92 0 0 0 529 602q.5 4.5.9 8.9.2 1.3.3 2.6.9 8.2 1.8 16.5 1.9-.4 3.8-.9c12.7-2.5 25.5-3.3 38.4-3.4q1.6 0 3.2-.1c6.2 0 11 .6 16.6 3.4 1.1 3 1.1 3 1 6q-1 1.5-2 3c-2.6.3-4.9.4-7.5.4q-1.2.1-2.3.1-3.7 0-7.4.1-4.8 0-9.5.1-1.2 0-2.4 0c-6.3.2-12.5.9-18.7 1.9-3.1.4-6.1.5-9.2.4 10.2 23.8 10.2 23.8 25 45q1 1.2 2.1 2.5c19.1 22.1 47.3 32.4 75.1 38.2q1.5.3 3 .6c17.2 3.4 34.5 4.1 52 4q1.5 0 3 0c42.6-.1 88.9-8.5 120.3-39.6q2.6-2.6 5.1-5.2c1.2-1.2 1.2-1.2 2.4-2.5q.5 0 1 0 .4 6.7.5 13.5.1 2.3.3 4.6c.7 12.6.7 12.6-2.9 18.2-2.5 2.8-5.1 5.2-7.9 7.7-1.7 2-3.1 4-4.6 6.1q-1.1 1.4-2.3 3-2 2.8-4.1 5.6c-18.5 24.6-55.3 30.7-84 35.3-6.4.9-12.7 1.2-19.2 1.2q-1.4 0-2.9 0-3 0-6 0-4.5.1-9.1.1c-18.1.1-35.8-1.6-53.2-6.6q-1.7-.5-3.4-.9c-17.2-5-42.7-12.8-52.3-29.5-1.8-4.6-2.4-9.4-2.9-14.3q-.9 1.3-1.8 2.6c-6.2 8.9-12.9 17.3-20.2 25.4q-.7.8-1.4 1.6-4.7 5.3-9.6 10.4-.7.8-1.5 1.6c-6 6.3-12.1 12.2-18.9 17.5q-.9.7-1.8 1.4c-6.4 4.9-10.8 6.9-18.8 6.5.6-4.5 1.8-8.1 3.7-12.3 3-7 4.8-14.2 6.6-21.6l.8-3.3c5.8-25 4.8-51.5-3.1-75.8q-.7-2.2-1.3-4.3c-5-15.8-10.1-31.4-15.9-46.9q-2.7-7.3-5.4-14.7c-15.7-43.5-32.7-90-59.4-128.1z" fill="#02918f"/><path d="M388 499c2.9 3.4 4.2 7 5.6 11.2q.4 1.1.7 2.2 1.2 3.5 2.3 7 .8 2.5 1.6 5 2.1 6.1 4.1 12.3 1 3.1 2 6.2c6.5 20.1 11.9 40.4 17.1 60.9q.9 3.4 1.8 6.8.5 2.1 1.1 4.3l1 3.8c.7 3.3.7 3.3.7 7.3q-1 .1-2.1.2-4.8.4-9.7.7c-1.6.2-1.6.2-3.3.3q-1.6.1-3.3.3-1.4.1-2.9.2-3.1.2-6.2.5c-8 .8-16 .9-24.1.9q-2.1 0-4.2 0-5.7 0-11.5 0-6 0-12 0-10 0-20.1 0-11.6 0-23.2 0-10 0-20.1 0-5.9 0-11.9 0-5.6 0-11.2 0-2 0-4.1 0-2.8 0-5.6 0-1.6 0-3.2 0c-2.3-.1-2.3-.1-3.3-1.1q-.4-2.5-.7-5.1c-2.2-19.7-6-39-10.1-58.4q-.8-3.9-1.6-7.8-.6-2.8-1.2-5.5-.9-4.2-1.7-8.3-.3-1.3-.6-2.6c-1.2-6-1.2-6-.1-9.3a13.93 13.93 0 0 0 1.5 1.9c18.7 23.9 44.7 34.7 74.2 39.7 17.3 1.9 36.2 2.3 52.3-4.6q1.7-.7 3.4-1.4c12.8-5.7 19.7-15.1 24.8-27.9 4.4-13 4.1-26.1 3.8-39.7z" fill="#02918e"/><path d="M824 684q.5 0 1 0 .4 6.7.5 13.5.1 2.3.3 4.6c.7 12.6.7 12.6-2.9 18.2-2.5 2.8-5.1 5.2-7.9 7.7-1.7 2-3.1 4-4.6 6.1q-1.1 1.4-2.3 3-2 2.8-4.1 5.6c-18.5 24.6-55.3 30.7-84 35.3-6.4.9-12.7 1.2-19.2 1.2q-1.4 0-2.9 0-3 0-6 0-4.5.1-9.1.1c-18.1.1-35.8-1.6-53.2-6.6q-1.7-.5-3.4-.9c-17.1-4.9-40.2-12.3-51.1-27.4-5.3-9.7-4.4-22-4.2-32.7q0-2 0-4 0-4.9.1-9.7c3.2 1.5 5.7 3.3 8.4 5.5 28 20.5 67.5 27.5 101.6 27.7q1.3 0 2.8 0c45.5.3 96.3-4.2 130.9-37.7q3.5-3.5 6.9-7 1.2-1.2 2.4-2.5z" fill="#04404b"/><path d="M840 712c6.5 3.9 8.2 8.9 10 16q.6 3 1 6c.9-.1.9-.1 1.7-.1 5.8-.3 9.9.2 14.3 4.1 4.1 5.2 4.4 9.1 4 15.6-.2 2.4-.2 2.4 1 4.4.1 2.7 0 5.3 0 8a26.6 26.6 0 0 0 2.8.3c3.3.7 4.3 1 6.2 3.7 2.8 9.2 2.9 22.8-1.5 31.3-3.2 4.7-7 9.2-11.5 12.7q-1 0-2 0-.1.9-.2 1.9c-.8 2.1-.8 2.1-2.7 3.4-6.4 2.5-12.3 3.9-19.1 2.7-3.6-1.6-6.1-3.8-8.4-6.9-1.2-4.2-.8-8.1.4-12.1q-.8.2-1.7.5c-5.8 1.3-11.4 1.4-16.8-1.2-4.5-4.1-6.3-7-6.8-13.1 0-4.6 1.7-7.3 4.3-11.2q.5-1 1-2-1.4.1-2.9.1c-11.4.4-11.4.4-14.8-1.9-4-3.9-6.1-6.7-6.5-12.5.2-4.2 1.1-6.9 3.2-10.7q1.1-.9 2.3-1.7c3.4-2.9 5.7-6.1 8.3-9.7 23.5-31.9 23.5-31.9 34.4-27.6z" fill="#b64f00"/><path d="M851.6 898.8l2.4-.1c2.2 0 2.2 0 6 .3 2 3 2 3 1.7 5.6-.7 2.4-.7 2.4-1.7 3.4q-3 .5-6 .9c-18.1 2.6-31.5 12.1-42.7 26.6-17.9 26.2-26.5 56-26.5 87.4q-.1 3.4-.1 6.8c-.2 20.4 4.1 39.7 18.7 54.8 7.9 7.4 16.6 12.4 26.6 16.5q-.5 2.5-1 5-1 0-2.1 0-4.9 0-9.7-.1-1.7 0-3.3 0c-6 0-11.9.2-17.9.8-7.4.7-14.8.7-22.2.9-10.6.2-10.6.2-21.1.7q-1.3.1-2.5.2c-5.3 1.2-8 5.8-10.9 10-4.9 7.8-6.6 14.3-7.3 23.5h-11c.6-6.9 2-13.2 3.9-19.8q.4-1.5.9-3.1 1.3-4.9 2.8-9.8.9-3.5 1.9-6.9 1.9-6.7 3.8-13.4 3.1-11.1 6.2-22.3 5.3-19.2 10.8-38.3c4.2-14.4 8-29 11.6-43.5q1.4-5.3 2.7-10.5.9-3.5 1.7-6.9 2.3-9 4.6-17.9.5-1.8 1-3.7.9-3.4 1.8-6.8c2.3-8.7 4.4-17.3 4.9-26.2q.1-1.7.3-3.4 0-1.2.1-2.5 2 0 4 0c2.7 2.7 2.3 3.9 2.4 7.7-.2 6.3-.9 12.4-2 18.7q-.3 1.5-.5 3c-2.2 12-5.3 23.9-8.3 35.7q-1.3 5-2.6 10-.8 3.3-1.6 6.5-2.3 8.7-4.3 17.5c-2.1 9.2-4.6 18.3-7.3 27.4-3.8 12.7-7.2 25.5-10.7 38.3q-1.5 5.6-3 11.2-.9 3.4-1.9 6.9l-.8 3.1q-.4 1.3-.8 2.7-.7 2.7-1.6 5.3 9.8-.6 19.5-1.2 3.3-.2 6.7-.4 4.8-.3 9.5-.6 1.5-.1 3-.2 9.2-.6 18.3-1.6-1-1-1.9-2c-17.8-18.7-23.7-40.7-23.5-65.9q0-1.3 0-2.6c0-13.6 1-26.4 4.4-39.5q.5-2.1 1-4.2c5.4-22 16-43 30-60.8.8-1 .8-1 1.5-2.1 10-12.8 26-21 42.1-21.1z" fill="#b64e00"/><path d="M438 645c5.2 1.6 9.6 4.5 12.9 8.8 2.5 5 2.2 9.8 1.1 15.2-2 4.6-4.6 8.6-7.4 12.7q-2.7 4-5.4 8.1l-17.4 25.5c-14.2 19.5-25.3 41.4-36.9 62.6q-.8 1.4-1.6 2.9c-3 5.7-5.8 11.3-8.3 17.2a82.91 82.91 0 0 1-9.1-5.3c-5.1-3.3-10.4-6.1-15.9-8.7.5-6.7 3-12.2 5.7-18.3q.7-1.6 1.5-3.3c12.5-27.7 28-53.8 44.3-79.6q4.8-7.5 9.3-15.2.9-1.6 1.9-3.2 1.7-2.9 3.5-5.9c5.5-9.2 10.4-15.6 21.8-13.5z" fill="#02918e"/><path d="M623 896q2.5.4 5 1c1.1 4.3 2.1 8.6 3 12.9 4.5 21.1 10.9 41.5 23.3 59.4 8.1 12.9 7 30.2 8.3 45 .8 9.6 1.9 19.2 3.4 28.7q.2 1.5.5 3c1 5.9 2.4 11.4 4.5 17l15.5-74.6q2.6-12.7 5.2-25.4 1.6-7.3 3-14.6.5-2.3 1-4.6.7-3.4 1.4-6.7c5.1-25.3 5.1-25.3 7.9-28.1q2 0 4 0c.2 6.4-.6 12.2-1.8 18.4q-.3 1.5-.6 3.1-1 5-2 9.9-.7 3.5-1.3 7c-18.7 95.7-18.7 95.7-28.9 133q-.4 1.6-.8 3.3c-2.5 8.9-5.6 14.1-13.4 19.1-7.9 5.4-14.4 11.7-17.2 21.2-.3 3.2-.3 6.3-.2 9.4q0 1.3.1 2.5 0 3.1.1 6.1h-13c1.5-8.8 3.3-17.3 5.6-25.9 3.4-13.2 5.8-26.1 7.1-39.6.4-3.4.9-6.7 1.4-10.1 2.3-17.4 3.3-34.5 3.2-52q0-5 .1-10c.1-21.7.1-21.7-7.7-41.6-7.7-13.6-12.1-28.7-15.7-43.8q-.3-1.3-.7-2.7c-1.5-6.4-1.8-12.8-1.3-19.3q.5-.5 1-1z" fill="#b64f00"/><path d="M847 423c7.6 11.4 2.1 31.4 0 44l-.4 2.5c-8.1 46.7-8.1 46.7-21.6 61.5q-1 0-2 0-.4-1.4-.8-2.9c-8-25.8-25.6-42.5-48.2-56.1.4-2.6.7-3.7 2.7-5.5q1.1-.8 2.3-1.6 1.3-.9 2.7-1.8 3.6-2.3 7.3-4.6c8.8-5.6 17-11.5 25.2-18l10.2-7.9q1-.8 2-1.5c12.1-9.1 12.1-9.1 20.6-8.1z" fill="#b75000"/><path d="M644.3 591.6l2.1.1c32.5 1 32.5 1 42.6 8.3 2 3 2 3 2.1 5.7-1.6 4.8-4.6 7.7-8.1 11.3q-.8.9-1.6 1.7c-4.1 4.6-8.9 7.9-14 11.3-3.2 2-3.2 2-5.4 5-.5 6.8.5 11.5 4.6 17.2 7 5.2 14.7 7 23.4 5.8 6.6-1.5 12.2-3.5 18-7 2.8-.3 2.8-.3 5 0q.5.5 1 1c-.2 4.2-.5 6.4-3.2 9.7q-1.4 1.1-2.8 2.3-1 1-2.1 2.1c-9.6 6.4-19.7 7-30.9 5.9-6.8-1.6-12.3-5.9-17-11-2-3.4-2-3.4-3-6q-.6.7-1.2 1.4c-6.9 7.4-15 11.5-25.2 12-9.8.2-17.3-1.7-24.8-8.4-3.9-4.2-6.4-7.9-7.1-13.6.3-2.4.3-2.4 1.6-4.3 1.7-1.1 1.7-1.1 3.6-.9 2.7 1 3.6 2.3 5.3 4.6 4.5 5.3 8.8 7.7 15.7 8.6 7.7.3 14.8-.9 20.9-5.9 4.2-4.4 6.2-9.8 8.2-15.5l-2.6-.6c-3.8-1.6-5.6-3.4-8.4-6.4-3.1-3.1-6.5-5.6-10-8.3-2.5-2.1-2.9-3-3.2-6.3-.3-10.5-.3-10.5 4.2-15.4 4.1-4 6.7-4.5 12.3-4.4z" fill="#053f4c"/><path d="M560 407c4.4-.8 6.7-.8 10.5 1.5 2.3 1.7 4.5 3.4 6.5 5.5q0 1 0 2 1.5.5 3 1c1.6 1.6 1.6 1.6 3.2 3.6 3.5 4.1 7.2 7.9 11 11.6q.9 1 1.9 2 3.1 3.1 6.2 6.1 4.1 4.1 8.2 8.1.9.9 1.9 1.9.8.8 1.7 1.7.8.8 1.6 1.6c2.1 2.3 3.3 3.8 3.4 7.1q0 1.1-.1 2.3-1.6.7-3.3 1.5c-18.2 8.2-36.2 20.5-46.3 38.3q-.7 1.1-1.4 2.2-1 0-2 0c-3.5-7.8-5.6-15.6-7-24q-.2-1.2-.4-2.5c-2.3-14-2.9-27.9-2.9-42q0-1.2 0-2.4c-.1-20.5-.1-20.5 4.3-27.1z" fill="#b75000"/><path d="M285.5 896.2c5.8 2.8 9.5 5 12.5 10.8.5 2.6.5 2.6.4 5q0 1.2-.1 2.4c-1.3 9.9-7.6 19-12.3 27.6-.8 1.6-.8 1.6-1.7 3.1q-2.7 4.9-5.4 9.7-.9 1.5-1.7 3.1c-4.1 7-8.3 12.5-16.2 15.1-6.5.8-11.6-.2-17-4-4.4-4.2-6.2-7.6-6.4-13.7.2-12.6 7.3-24.5 13-35.5q1.5-2.8 3-5.7c7.4-14.2 14.6-25.7 31.9-17.9z" fill="#02918e"/><path d="M268 437c3.7 1.3 5.9 2.6 8.5 5.5 27.3 28.1 66 42.6 104.4 43.4q2.5.1 5.1.1l2 13c-5.1 1.7-9.6 2.3-15 2.3q-1.1-.1-2.2-.1c-33.7-.6-65.3-14-88.7-38.2-5.8-6.4-12-13.9-15.1-22 .3-2.4.3-2.4 1-4z" fill="#8d3e00"/><path d="M851 734c5.5-.4 9.8-.4 14.5 2.7 3.8 3.3 5.3 6.9 5.9 11.9-1.1 10.2-7.1 16.5-13.9 23.6q-1.1 1.2-2.1 2.3c-19 19.8-19 19.8-29 20.1-3.8-.2-4.3-.6-7.5-3.2-2.3-4.1-2.6-5.7-1.9-10.4 2.1-2.9 4.7-5.2 7.4-7.6q2.2-2.1 4.4-4.3c1.1-1 1.1-1 2.2-2.1 9.3-9.3 16-20.4 20-33z" fill="#de8100"/><path d="M387 242c2.3 1.9 3.4 3.4 5 6-.1 3.8-.3 5.3-3 8-5.5.5-9.9-.2-15.3-1.5-22.2-5-40.5.2-59.7 11.5q-1.5 1-3 2c-2.1-.2-2.1-.2-4-1-2.3-3.5-2.5-4.9-2-9 8.9-11.4 28.1-22.4 42.6-24.8 14.1-1.2 27.6.3 39.4 8.8z" fill="#073e4b"/><path d="M837.9 711.4c4.2 1.2 7 4 9.5 7.5 2.4 8-1.9 15.2-5.4 22.1-6.6 11.3-17 25-30 29-3 .4-6 .6-9 0-3.3-5-2.8-10.2-2-16 1.7-3.9 4.2-6.8 7-10q1.4-1.7 2.9-3.4 2.3-2.7 4.7-5.4c9.3-9.9 9.3-9.9 13.4-22.2 3.4-2.3 5-2.2 8.9-1.6z" fill="#de8100"/><path d="M496 586c13.2-.2 26-.1 39 2l3.9.6c44.2 7.5 44.2 7.5 57.1 20.4.3 3.5.4 5.4-1.5 8.4q-.7.8-1.5 1.6c-5.4-.5-9.8-2-14.8-4.1-19.9-8.1-41-12.7-62.4-14.4q-1.6-.1-3.2-.3-3-.2-6.1-.4-1.4-.1-2.8-.2-1.2 0-2.5-.1c-2.7-.6-4.2-1.6-6.2-3.5-.7-3.4-.6-6.9 1-10z" fill="#053e4a"/><path d="M418 722c18.2 2 37.7 19.9 51 32 1.5 3 1.5 4.6 1 8-2.6 4.1-5.1 7.3-9.8 9-4.6 0-7-2-10.6-4.8q-2.1-1.5-4.2-3-1.1-.8-2.2-1.6c-3.4-2.5-6.8-4.8-10.2-7.2q-1-.6-2-1.3c-7.2-5-14.6-9.5-22-14.1.5-4.6 2.4-7.5 5.1-11.3l2.2-3.3q.8-1.2 1.7-2.4z" fill="#00565e"/><path d="M839 609c1 1 1 1 1.2 4.4-.2 3.6-.2 3.6-2.2 5.6l-8.3.2h-2.3c-5.8-.1-5.8-.1-8.6-.7-3.8-.7-7.6-.7-11.5-.7-1.3-.1-1.3-.1-2.6-.1q-4.2 0-8.3 0-1.4 0-2.9 0c-14-.1-27.3.9-41.1 3.4-13.1 2.4-13.1 2.4-18-.8-1.6-2.7-1.7-4.2-1.4-7.3 28-12.7 77.4-15.5 106-4z" fill="#083e4b"/><path d="M386 774a201.72 201.72 0 0 1 26 14.7q2.5 1.8 5.1 3.5 5 3.3 9.9 6.8.8.6 1.7 1.2 2.4 1.7 4.7 3.4 1.4 1 2.8 2.1c1.8 2.3 1.8 2.3 1.7 5.9-.9 3.4-1.4 4.7-4.1 6.8q-.8.8-1.7 1.5c-2.9 1.5-4.8 1.4-8.1 1.1l-7.2-3.4q-1-.6-2-1.1-2.1-1.2-4.3-2.3-3.2-1.8-6.4-3.5c-24.2-12.9-24.2-12.9-27.1-19.7.5-2.1.5-2.1 1.7-4.2q.6-1.1 1.2-2.3.7-1.1 1.4-2.3.7-1.2 1.4-2.4 1.6-2.9 3.3-5.8z" fill="#005e65"/><path d="M413.3 289.9c4.4 1.8 5.7 5 7.7 9.1 3.5 9.1 5.6 18.5 7.6 27.9q.6 3.1 1.3 6.2.4 2 .8 4.1l3.7 15.9c1.9 9.3 1.2 18.5-3.4 26.9-3.3 4-7.8 6.7-13.1 7.2q-3.6.1-7.3.1c-1.2 0-1.2 0-2.5.1-5.4 0-9.3-.8-14.1-3.4q-1-1-2-2c.6-4.6.6-4.6 2-6q2.5-.2 5-.2 1.5-.1 3-.1 3.2-.1 6.4-.1 1.6-.1 3.1-.1c1.4-.1 1.4-.1 2.8-.1 3.2-.5 5.1-1.5 7.7-3.4 4.4-8.8 0-23.2-2.2-32q-.5-2-.9-4-.8-3.1-1.5-6.1l-4.8-21.9c-.9-4.2-1.9-8-3.6-12-.1-2.8-.1-2.8 0-5 2-1 2-1 4.3-1.1z" fill="#8d3d00"/><path d="M959 982q1 .5 2 1c.6 2.8.6 2.8 1 6.5q.2 1 .3 2 .4 3.2.8 6.4.2 2.1.5 4.3.7 5.9 1.4 11.8.2 1.4.3 2.8c.8 6.8.9 13.7.9 20.6q0 1.7 0 3.4c.1 15.4-2.4 30.6-13.2 42.2q-4.9 4.6-10 9-1-1-2-2 .5-1.3 1-2.7c4.5-13.8 6.3-28 8-42.3.1-1.1.1-1.1.3-2.3.6-5.8.8-11.4.8-17.2v-2.6q0-4 0-8 0-2.8-.1-5.5 0-6.7 0-13.4 1 1 2 2l6-16z" fill="#b64f00"/><path d="M402 745c6.4 2.9 11.7 6.6 17.3 10.9q2.6 2 5.3 4 1.3 1 2.7 2c5.1 3.9 10.3 7.7 15.5 11.5 11 8.1 11 8.1 12.4 11.4-.3 4.7-2.8 7.1-6.2 10.2-2.9 1.5-4.8 1.4-8 1-2.6-1.5-4.9-3-7.3-4.8q-2.1-1.5-4.2-3-1.1-.8-2.2-1.6l-11.4-7.7c-1.1-.8-1.1-.8-2.2-1.5-7.1-4.7-14.4-9.1-21.7-13.4 3.2-6.4 6.3-12.8 10-19z" fill="#005c63"/><path d="M326.9 387.6c3.1.4 3.1.4 5.1 2.4l2 3c8.9 12.9 20.4 21.1 35.8 24.5 15.1 2.2 33.8.8 46.6-8.2q2-1.6 4-3.2c1.6-1.1 1.6-1.1 4.5-1.1 2.1 1 2.1 1 4.1 3 .2 3.2.2 3.2-1 7-12.3 11.8-32 13.5-48.1 13.4q-1.8.1-3.8.1c-17.3 0-33.2-6.4-45.5-18.6-5.1-5.7-8.4-12.2-8.6-19.9 2-2 2-2 4.9-2.4z" fill="#8b3d00"/><path d="M436 696c6 .5 10.5 3 15.7 5.8 1.4.7 1.4.7 2.8 1.5 6.5 3.5 12.8 7.2 19.1 11.1q1.1.8 2.4 1.5c9.5 6.2 9.5 6.2 10.7 10.9-1 4.8-3.9 8.1-7.7 11.2-2.9.9-4.5 1.2-7.3.2q-1.2-.6-2.4-1.3-1.4-.7-2.8-1.5-1.4-.8-2.9-1.6l-3.1-1.6q-4.7-2.6-9.5-5.2-3.1-1.7-6.3-3.4-5.7-3.1-11.4-6.2-1.1-.6-2.3-1.3c-1.7-.9-3.4-2-5-3.1.2-4.2.5-6.4 3.3-9.6q1.3-1.2 2.7-2.4 2-2.5 4-5z" fill="#00535a"/><path d="M743.3 632.8c6.3.1 12.2.8 18.3 2q1.6.2 3.2.5 4.6.8 9.2 1.7 1.2.2 2.4.4c18.1 3.4 36 9.3 52.7 16.9q1.1.5 2.1 1c4.5 2.1 4.5 2.1 5.8 4.8 0 1.9 0 1.9-1.8 4.1-3.2 2.6-3.7 2.8-8 2.7-6.5-.9-12.3-3.3-18.4-5.6-18.3-6.7-36.2-11.6-55.4-14.5-6.7-1-11.5-1.9-16.4-6.8-.1-3-.1-3 0-6 1.7-1.7 4-1.2 6.3-1.2z" fill="#073e4c"/><path d="M474.5 679.3q1.6.7 3.2 1.4c18.5 8.1 18.5 8.1 22.3 14.3 1.2 5.1 1.6 6.8-.9 11.4-2.9 3.6-2.9 3.6-6.7 4.1-7.5-.1-14.1-4.2-20.6-7.6q-2-1-4-2-4.9-2.4-9.8-4.9-5-2.5-10-5-1.7-.9-3.5-1.7-1.2-.7-2.5-1.3c4.8-12.3 4.8-12.3 7-16 7.8-2.6 18.4 4.2 25.5 7.3z" fill="#005259"/><path d="M484.4 244.3c4.8 3.3 8.3 7.3 10.6 12.7.7 3.9.3 5.4-1.6 8.9-2.4 2.1-2.4 2.1-5.1 2.8-3.6-.8-4.5-1.6-7-4-7.5-6.9-16.4-7.4-26.2-7.1-5.3.4-10.1 1.8-15.1 3.5-2.9.9-5 1.2-8 .9-3-1.7-3.1-3.5-4.2-6.8-.2-2.7-.1-3.8 1.6-6.1 14.1-13.2 38.6-13.8 55-4.8z" fill="#063e4c"/><path d="M758 547c7.6 4 14.3 11.7 17 20-.3 4.3-.3 4.3-2 6-3.7.6-7.3.7-11 0-1.7-1.6-2.6-3.2-3.8-5.2-2.3-3.5-5.2-4.8-9.2-5.8-10.4-1.4-18.3.2-27 6-2.7 2.1-5.2 4.2-7.7 6.5-2.7 1.8-4.1 1.9-7.3 1.5-1.9-1.1-1.9-1.1-3-3-.2-4.8 1.1-7.5 4.1-11q1.9-2 3.9-4 .9-.9 1.8-1.9c12-11.6 28.7-15.5 44.2-9.1z" fill="#073e4c"/><path d="M573.7 625.8q1.6-.1 3.2-.1c6.4 0 11.4.4 17.1 3.3 1.1 3 1.1 3 1 6q-1 1.5-2 3c-2.5.3-4.8.4-7.3.4q-2.3 0-4.6.1h-2.4c-14.5.1-28.5.9-42.7 3.5q-4.8.8-9.6 1.6-3.1.6-6.2 1.1c-14.3 2.5-14.3 2.5-18.8-.4-1.4-2.3-1.4-2.3-1.3-4.9.9-2.4.9-2.4 2.9-4.4 2.8-.7 5.6-1.3 8.4-1.9q1.3-.2 2.7-.5c7.6-1.4 15.3-2.6 23-3.8q1.6-.2 3.3-.5c11.1-1.6 22.1-2.5 33.3-2.5z" fill="#083f4a"/><path d="M621.7 540.7c6.2 3.5 10.5 8.8 13.3 15.3.5 3 .4 4.9 0 8-1.8 2.1-1.8 2.1-4 3-4.9-.3-7.7-4.6-10.8-8-3.5-3.6-6.3-5.5-11.3-6.3-10.1-.2-17.8 4.6-26.1 10-3.2 1.5-4.5 1.4-7.8.3-1.8-1.3-1.8-1.3-3-3-.4-2.3-.4-2.3 0-5 5-6.6 11.5-11.6 19-15q1.1-.5 2.3-1.1c8.6-2.8 20.1-1.8 28.4 1.8z" fill="#063e4c"/><path d="M827 714q1.5 1 3 2c-4.3 8-9.7 14.6-15.7 21.4q-2.9 3.5-5.8 7.1c-.9 1.1-.9 1.1-1.8 2.3-3.7 4.8-5.1 7.7-5 13.9q.1 1.7.1 3.4c0 2.8 0 2.8 1.2 4.9 8.9.5 14.1-1.2 20.9-7 8.8-8.3 15.2-16.9 20.1-28q.5-1.1 1-2.3 1-2.3 2-4.7 1.5.5 3 1c1.7 8.6 0 14.1-4.5 21.5L840 757q-1 1.3-2.1 2.7c-5.5 6.9-11.5 13.1-17.9 19.3q-.8-.7-1.6-1.5c-3.3-2-5.5-1.7-9.3-1.4-7.8.1-7.8.1-10.8-1.8-4-4-6.1-6.8-6.6-12.5.3-4.3 1.2-7 3.3-10.8q1.1-.9 2.3-1.7c3.4-2.9 5.7-6.1 8.3-9.7 4.1-5.6 8.4-11.1 13-16.4q.7-.9 1.5-1.8c2.2-2.5 4.4-5 6.9-7.4z" fill="#b54e00"/><path d="M872 766c5.8.8 5.8.8 7.8 2.3 3.1 4.4 2.8 10.5 2.2 15.7-3.6 11.4-13.2 20.6-23 27-4.3 1.4-8.5 1.5-13 1-3.3-1.8-4.6-2.9-5.8-6.4-.2-2.6-.2-2.6 1-4.4q.9-.8 1.9-1.6 1-.9 2-1.9 1.1-.9 2.3-1.9 2.2-2 4.4-4 1.1-1 2.2-2c7.7-7 13.1-14.6 18-23.8z" fill="#de8100"/><path d="M576 745q1 .5 2 1 0 1 0 2 2 1 4 2c-2.1 21-4.4 41.9-7.3 62.7-1.2 8.1-2.1 16.2-2.7 24.3l-9 1c.6-6.7 1.4-13.4 2.5-20q.4-2.9.9-5.8.2-1.5.4-3c2.7-17.7 5.2-35.3 7-53.1q.2-1 .3-2 .3-2.8.5-5.5c.4-2.6.4-2.6 1.4-3.6z" fill="#b44d00"/><path d="M475.4 294.5c3.6 2.9 5.4 4.7 6.8 9.3-.2 3.2-.2 3.2-1.3 5.1-2.9 1.6-4.6 1.5-7.9 1.1-2.4-1.2-4.7-2.6-7-4-8-2.8-18-1.4-26 .9-2 .1-2 .1-3.7-1.1-2.1-3-1.8-5.3-1.3-8.8 8.8-10.6 29.7-9.3 40.4-2.5z" fill="#073e4c"/><path d="M208 284c6.9 2.3 10.7 7.8 14 14 3.2 6.6 3.2 14.8 1.2 21.8-1.4 3.3-2.7 5.7-5.2 8.2-2.6.2-2.6.2-5 0l-1-1q.1-3.2.2-6.3c.2-8.5.4-15.7-5.2-22.7-3.8-3.7-8.5-3.5-13.6-3.7-2.4-.3-2.4-.3-4.4-2.3.2-3 .5-4.5 2.6-6.6 5-2.9 10.9-2 16.4-1.4z" fill="#b44e00"/><path d="M366 290.8c2.9 1.7 4.5 3.2 6 6.2-.3 6.3-.3 6.3-2 8-4.4 0-8.2-.6-12.3-2.6-5.3-2.4-11-2.2-16.7-1.4-3.3 1.4-6.3 2.9-9.4 4.8-2.6 1.2-2.6 1.2-4.9.9-1.7-.7-1.7-.7-2.6-2.8-.1-3.3.2-3.9 2.2-6.4 9.8-10.6 26.9-12.8 39.7-6.7z" fill="#073d4d"/><path d="M167 698q2 0 4 0c3.5 6.9.2 17.5-1 24.9q-.5 3.2-1 6.4-1 5.8-2 11.7-.2 1.3-.5 2.7c-1 5.4-3 10-5.6 14.9q-.6 1-1.2 2.2-1.3 2.6-2.7 5.2-1-.5-2-1c4.5-52 4.5-52 12-67z" fill="#007579"/><path d="M320 803c17.5 3.4 36.3 11 47 26 .9 2.8 1.2 5.5 1.3 8.5q0 1.1 0 2.3c-.4 2.7-1.5 4.1-3.3 6.2-.4-1.2-.4-1.2-.9-2.3-5.2-13.3-12.4-21.7-25.5-27.8q-5.1-2.2-10.3-4.2l-2.4-1q-1.1-.4-2.1-.8c-1.8-.9-1.8-.9-3.8-3.9q0-1.5 0-3zm-13 30c5.8.4 10.1 2.2 15.2 5q1.1.6 2.2 1.2c20 11.1 20 11.1 23.6 21.8q.1 3.3.1 6.7-.1 1.7-.1 3.6 0 1.3 0 2.7-1 .2-1.9.4-1.1.3-2.1.6l-1 2q-.3-1.2-.7-2.5c-3.2-11.2-7-22.1-17.3-28.5q-5.5-2.8-11.2-5.2-1.1-.4-2.2-.9-.9-.4-1.9-.8c-2.1-1.4-2.8-2.8-3.7-5.1q.5-.5 1-1z" fill="#b24c00"/><path d="M109.5 808.7q1.2 0 2.4 0 2.5 0 5 0 3.8.1 7.6.1 2.4 0 4.9 0h2.2A114.92 114.92 0 0 1 146 810q0 3 0 6l-53 1q.5-2.5 1-5c5.2-3 9.6-3.4 15.5-3.3z" fill="#b44d00"/><path d="M290 864c11.7 1 23 6.9 31.2 15.3 5.1 6.3 7.3 11.5 6.8 19.7l-1 2c-2.1.6-2.1.6-4 1q-.2-.8-.4-1.6c-4.3-14.8-15.1-23.8-28.1-31q-2.2-1.2-4.5-2.4 0-1.5 0-3z" fill="#b34d00"/><path d="M507 646q2.5 0 5 0c2.9 15.8 2.2 32.2 2.1 48.2q0 5.8 0 11.7 0 3.7 0 7.4 0 1.8 0 3.5c0 5.9-.2 11.4-1.1 17.2q-.5 0-1 0 0-1.2-.1-2.4-.1-5.5-.3-11 0-1.8-.1-3.8c-.2-7.9-.2-7.9-1.5-15.7-1.2-4.9-1.1-9.6-1-14.7.1-8.1-.5-16.2-1-24.4q-.1-2.3-.3-4.7-.3-5.6-.7-11.3z" fill="#007176"/><path d="M573 1112c.8 1.7.8 1.7 1 4-2.1 2.4-2.1 2.4-5 5-6 6.8-8.4 12.1-9 21q-3.5.1-7 0c-1.5-1.5-1.2-2.9-1.3-5.1.2-8 3-13.3 8.5-19.1 3.9-3.8 7.1-6.5 12.8-5.8z" fill="#b54d00"/><path d="M599 1111q.5 2.5 1 5-.9.6-1.8 1.3c-7.6 5.6-11.9 9.6-13.5 19.1q-.4 2.8-.7 5.6-3 .1-6 0c-1-1-1-1-1.3-4.5.2-7.2 2.7-13.9 7.3-19.5 8.7-8.1 8.7-8.1 15-7z" fill="#b44d00"/><path d="M678 1111c-.6 5.3-4.9 8-8.6 11.4-4.1 4.4-5.7 8.5-6.1 14.5q-.1 1.4-.2 2.9 0 1.1-.1 2.2h-7c-.6-8.2-.8-14.8 4-21.7 10.5-11.7 10.5-11.7 18-9.3zm23 2q1 2 2 4l-2 1.9c-7.6 7.2-11.5 13.1-14 23.1h-7c-.6-7.2 1.4-13.4 5.6-19.3 9-10.4 9-10.4 15.4-9.7zm64.3 2.3q.8.4 1.7.7c.3 3.1.3 4.6-1.4 7.2q-1 1.1-1.9 2.2c-4.3 5.3-6.9 9.7-7.7 16.6h-7c-.8-8.5 2.3-14.9 7.6-21.4 5.4-5.7 5.4-5.7 8.7-5.3zm19.7.7q2.5.5 5 1c-.7 5.9-3 10.5-5.6 15.8-1.4 3.1-2 5.8-2.4 9.2h-8c.2-9.3 5.2-18.8 11-26z" fill="#b54d00"/></svg>