<svg xmlns="http://www.w3.org/2000/svg" width="1024" height="1024" xmlns:v="https://vecta.io/nano"><path d="M484 458c9.6 8.1 18.9 16.7 26 27 3.2-3.1 6.1-6.2 8.8-9.6 14.7-17.9 35.4-32.8 58.2-38.4q1.6-.4 3.2-.8c18.1-4.1 38.1-4.2 55.8 1.8q1 .3 2 .7c13.1 4.6 24.3 11.3 35 20.3q1.5 1.1 3.1 2.3c19.2 17.6 29.4 42.3 32.9 67.7q.1 3.4.1 6.9-.1 1.7-.1 3.5v2.6q1-.3 1.9-.6c7.6-2.3 14.5-2.9 22.4-2.8 1.7 0 1.7 0 3.6.1 24.4.4 44 9.5 61.1 26.9 12.3 12.9 20.5 28.6 26 45.4q.4 1 .8 2.1c16.1 43.6 3.5 94.3-15.1 134.8l-12.6 25.9c-8.1 16.5-15.9 32.9-22.1 50.2q-.4 1-.8 2.1c-8 22-12.5 45.1-16 68.2l-.4 2.4q-.5 3.1-.9 6.1c-1 3.6-2 5-4.9 7.2-3.7 1.2-7 1.1-10.8 1.1q-1.2 0-2.5 0-4 0-8.1 0-3 0-5.9 0-8.2.1-16.3.1-8.8 0-17.5 0-20.2 0-40.4 0-10.9 0-21.9 0-33.1 0-66.2 0-2.1 0-4.2 0-2.2 0-4.3 0-4.3 0-8.6 0-1.1 0-2.2 0-34.6 0-69.2.1-36.6 0-73.2 0-20 0-39.9 0-17 .1-34 .1-8.7 0-17.3 0-8 0-15.9 0-2.9 0-5.8 0-3.8 0-7.7 0h-2.3c-4.4 0-7.3-.6-10.8-3.4-2.9-5.9-3.7-11.7-4.4-18.3-5.6-43.8-20.6-85-41.5-123.8-24.7-46.2-39.8-100-25.1-151.9 8-25.8 25.3-53.1 49.2-66.7 5.4-2.6 11.1-4.6 16.8-6.3q.9-.3 1.9-.6c6.7-1.7 13.5-1.7 20.4-1.7q3.1 0 6.2-.1c7.9 0 15 .8 22.5 3.4q0-1.9-.1-3.9c.1-28.6 12.9-54.6 32.1-75.1q.8-.9 1.6-1.9c11.3-12.3 28.7-19.8 44.4-24.1 1.4-.5 1.4-.5 2.8-.9 31.2-9 65.6 2.4 90.2 21.9z" fill="#adadad"/><path d="M484 458c9.6 8.1 18.9 16.7 26 27 3.2-3.1 6.1-6.2 8.8-9.6 14.7-17.9 35.4-32.8 58.2-38.4q1.6-.4 3.2-.8c18.1-4.1 38.1-4.2 55.8 1.8q1 .3 2 .7c13.1 4.6 24.3 11.3 35 20.3q1.5 1.1 3.1 2.3c19.2 17.6 29.4 42.3 32.9 67.7q.1 3.4.1 6.9-.1 1.7-.1 3.5v2.6q1-.3 1.9-.6c7.6-2.3 14.5-2.9 22.4-2.8 1.7 0 1.7 0 3.6.1 24.4.4 44 9.5 61.1 26.9 12.3 12.9 20.5 28.6 26 45.4q.4 1 .8 2.1c16.1 43.6 3.5 94.3-15.1 134.8l-12.6 25.9c-8.1 16.5-15.9 32.9-22.1 50.2q-.4 1-.8 2.1c-8 22-12.5 45.1-16 68.2l-.4 2.4q-.5 3.1-.9 6.1c-1 3.6-2 5-4.9 7.2-3.7 1.2-7 1.1-10.8 1.1q-1.2 0-2.5 0-4 0-8.1 0-3 0-5.9 0-8.2.1-16.3.1-8.8 0-17.5 0-20.2 0-40.4 0-10.9 0-21.9 0-33.1 0-66.2 0-2.1 0-4.2 0-2.2 0-4.3 0-4.3 0-8.6 0-1.1 0-2.2 0-34.6 0-69.2.1-36.6 0-73.2 0-20 0-39.9 0-17 .1-34 .1-8.7 0-17.3 0-8 0-15.9 0-2.9 0-5.8 0-3.8 0-7.7 0h-2.3c-4.4 0-7.3-.6-10.8-3.4-2.9-5.9-3.7-11.7-4.4-18.3-5.6-43.8-20.6-85-41.5-123.8-24.7-46.2-39.8-100-25.1-151.9 8-25.8 25.3-53.1 49.2-66.7 5.4-2.6 11.1-4.6 16.8-6.3q.9-.3 1.9-.6c6.7-1.7 13.5-1.7 20.4-1.7q3.1 0 6.2-.1c7.9 0 15 .8 22.5 3.4q0-1.9-.1-3.9c.1-28.6 12.9-54.6 32.1-75.1q.8-.9 1.6-1.9c11.3-12.3 28.7-19.8 44.4-24.1 1.4-.5 1.4-.5 2.8-.9 31.2-9 65.6 2.4 90.2 21.9zm-119 17c-1.3 1.2-1.3 1.2-2.7 2.4-18.4 17.4-26.5 41.7-27.4 66.6q-.1 1.6-.1 3.2 0 1.6-.1 3.3-.1 3.2-.1 6.4c-.2 7.5-.2 7.5-2.5 10.7-3.8 2.5-7.6 3.3-12.1 2.4q-2.9-1.3-5.7-2.8c-15-7.9-31.9-7.9-48.3-4.2-8.5 3.1-15.3 8.1-22 14-.9.8-.9.8-1.9 1.6-20.7 19.2-28.1 48.7-29.3 75.9-.9 34.2 9.9 67.7 26.2 97.5q2 3.7 4.1 7.5.5.9 1 1.9c2.7 5.1 5.1 10.3 7.3 15.7 1.9 4.3 3.9 8.4 6 12.6 14.7 28.8 23.9 62.9 27.3 94.9 0 2.3 0 2.3 1.3 3.4q3.6.1 7.2.1h2.3q3.8 0 7.7 0 2.8 0 5.6 0 7.7 0 15.4 0 8.2 0 16.5 0 14.4 0 28.7 0 20.8 0 41.6 0 33.7 0 67.3 0 32.8 0 65.5 0h2q10.2 0 20.3 0Q651 888 736 888q.5-2.1 1-4.3.2-1.1.5-2.4a163.64 163.64 0 0 0 1.8-10.1c3.5-20.5 9.3-40.8 16.7-60.2q.4-1 .8-2.1c7.6-20 16.7-39.6 26.8-58.4 6.8-12.7 11.9-25.9 16.4-39.5q.6-1.7 1.2-3.5c9-28.1 11.2-62.1 1.8-90.5q-.3-1-.7-2.1c-6.5-19.8-19.9-37.7-38.5-47.6-14-6.9-30.9-9.3-46.2-4.7-4.4 1.5-8.6 3.2-12.5 5.7-4.2 2.3-6.4 2.3-11.1 1.7-2.8-1.8-4.5-3-6-6q-.2-3-.2-5.9-.1-1.9-.1-3.7 0-2-.1-4c-.7-25.1-5.2-49.1-22.6-68.4q-.9-1-1.8-2.1c-13.4-14.5-33.8-23.1-53.4-24.3-24.9-.8-46.8 7.8-65.4 24.6-8.2 7.7-14.5 16.2-20.4 25.8-6.5 10.6-6.5 10.6-10.1 11.6-3.6.4-6.2.6-9.6-.5-3.8-3.5-6.1-7.7-8.4-12.2-10.8-20.6-30.3-36.8-51.9-44.9-27.2-8.4-57.4-4.7-79 15z" fill="#737373"/><path d="M562.1 676.8q2.5 2.1 4.9 4.2 1.1 1 2.3 2c8.6 8.1 14.6 18.2 20.4 28.5 9.9 17.3 21.7 28.1 38.9 38.2 16 9.5 28.7 22.9 33.4 41.3.3 3.4.3 6.8.3 10.3q0 1.3.1 2.6c0 14.4-6.2 27.5-16.1 37.8q-1.1 1.1-2.3 2.3-1 1-2 2.1c-12 11.8-28.1 16.6-44.6 17.3-14.6-.5-28.5-5.7-41.3-12.3-12.4-6.3-25.1-12.4-39.1-13.1l-2.9-.2c-18.8-.5-33 5.8-49.5 13.8q-1.4.7-2.8 1.4-2.6 1.3-5.2 2.6c-10.6 5.2-20.8 6.9-32.6 6.8q-1.6.1-3.3.1c-17.3 0-31.1-8.3-43.7-19.5q-1-.9-2-1.8c-9.8-9.1-15.3-21.9-16.2-35.1-.3-16.3 4.5-30.1 15.8-41.9 6.9-6.9 14.7-12.3 23.1-17.2 17.4-10.4 27.3-22.7 36.9-40.3 3.6-6.5 7.4-12.2 12.4-17.7q1.2-1.3 2.5-2.7c6.7-7.2 14-12.3 22.5-17.3q1-.6 2.1-1.3c27.4-15.4 63.8-9.6 88 9.1z" fill="#747474"/><path d="M611.7 521.5c14.6 9.5 22.6 23.9 26.6 40.6 3.5 20.9-2.2 40.7-14.3 57.9-6.7 9.3-16.9 16.1-28 19-13 1.9-23.6-.8-34.3-8.6-11.6-10-19.7-25.2-21.7-40.4-1.6-21.7 2-41.5 16.3-58.5 15.1-15.5 36-20.5 55.4-10z" fill="#737474"/><path d="M456.7 524.3c13 9.6 21.5 24.8 24.3 40.7 1.5 22.5-.8 42.8-16.1 60.4-7.3 8-17.2 13-28.1 13.8-14.5.3-24.8-4.5-35.4-14.2-13.9-14.4-18.9-33.3-18.8-52.8.3-16.8 6.5-31.8 18.2-44.2 16.3-14.9 37.4-15.8 55.9-3.7z" fill="#737373"/><path d="M733 616c11.8 7.5 18.4 18 21.6 31.5 2.9 17.5-3 35.2-13 49.4-7.2 9.5-15.6 16.5-26.6 21.1q-1 .4-2.1.9c-9.4 3.5-22 4-31.5.5-12.4-6-19.6-15.7-24.4-28.4-4.2-15.7-.4-33.7 7.1-47.7 8.8-14.8 21.1-24.9 37.3-30.5 10.4-2.4 22.2-2 31.6 3.2zm-401 2c17.4 10.7 27.6 26.8 32.6 46.3 2.2 14.2.9 28.5-7.3 40.6-3.9 4.9-8 8.8-13.3 12.1q-1 .6-2.1 1.3c-9.3 4.7-21.8 4.1-31.7 1.8-7.2-2.6-13.2-6.4-19.2-11.1q-.9-.7-1.9-1.3c-9-6.9-15.2-18.3-19.1-28.7l-1-2.4c-4.3-12.8-3.7-29.4 2-41.6 5.6-10.1 13.7-18.1 24.6-22.1 12.7-3.2 24.9-1 36.4 5.1z" fill="#737474"/><path d="M513 31c2.7 1.8 4.5 3.1 6 6q.1 2.1.1 4.2 0 1.3 0 2.7 0 1.4 0 2.9v3.1q0 3.3 0 6.5 0 4.8 0 9.6l-.4 30.8c-.8 25.8-.8 51.6-.7 77.5q.1 12.1.1 24.2 0 4.2 0 8.3 0 1.1 0 2.1 0 11.8 0 23.5 0 1 0 2.1.1 17.4.2 34.9 0 18 0 36 0 10 .1 20.1 0 9.4 0 18.8 0 3.4.1 6.9 0 4.7 0 9.4 0 1.4 0 2.8c0 6.1 0 6.1-2.3 8.7-3.3 1.4-5.7 1.3-9.2.9-2.9-2.2-3.8-3.5-5-7q-.3-4.6-.5-9.2-.1-1.4-.1-2.9-.2-5-.4-9.9-.1-1.8-.1-3.6c-2.1-58.6-2-117.2-2.1-175.9q0-7.9 0-15.8l.8-85.6q.2-3.5.3-6.9.1-4.8.3-9.5 0-1.4 0-2.8c.3-5.2.8-8.2 4.8-11.9 2.9-1.4 4.8-1.3 8-1z" fill="#707171"/><path d="M333 99c3.9 2.6 4.7 5.6 6 10q.6 3.5 1.1 7 .2 1 .3 2 .5 3.2 1 6.4.6 4.1 1.2 8.2a16.6 16.6 0 0 0 .3 2.2c.9 6.2 2 12.4 3 18.5l6 37.4q.8 5.7 1.7 11.4 2.6 16.3 5 32.5.2 1.2.3 2.3.8 5.1 1.5 10.1c1.1 7 2.4 13.9 3.9 20.8.9 4.1 1.5 8.2 2 12.3 3 22 7 43.9 10.8 65.8q.2 1 .4 2.1l3.8 20.6q.2 1.5.5 3 .5 2.7 1.1 5.3c2.9 15.1 2.9 15.1-.5 20.8-3.4 1.8-5.6 1.8-9.4 1.3-5.1-3.8-6.2-8.5-7.3-14.5q-.2-1-.4-2-.6-3.1-1.1-6.3-.4-2.2-.8-4.5l-5.6-33.9-3.7-21c-4.9-25-8.6-50.2-12.6-75.4q-3.4-22.4-7.4-44.7c-3.1-17.2-5.7-34.5-8.3-51.8q-.5-3.2-1-6.4-.2-1.5-.5-3-1.6-10.7-3.8-21.2c-1.4-9-1.4-9 1.5-13.2 4.2-2.9 6-2.8 11-2.1zm346.1 1.2c3.8.2 5.6.6 8.9 2.7 4.7 7.3 1.2 18-.2 26.1q-.6 3.6-1.2 7.1-1.1 6.3-2.2 12.5c-5.4 31.4-10 62.9-14.3 94.5q-.5 3.2-.9 6.4-.3 2.2-.6 4.4c-.2 1-.2 1-.3 2.1q-.9 6.4-1.8 12.7c-2.8 21-6 41.9-9.4 62.8q-1.9 12-3.6 24.1-.2 1.4-.4 2.9-1 7.1-2 14.1-.4 2.7-.7 5.3-.2 1.2-.4 2.4c-1.8 13.3-1.8 13.3-4.7 16.8-3.5 1.4-5.7.9-9.3-.1-2.4-1.4-2.4-1.4-4-4-.7-7.3.4-14.7 1.4-21.9.2-1.7.2-1.7.5-3.4q.4-3.5.9-7.1.7-5.3 1.4-10.6l4.8-32.5q1.6-11 3-21.9 1.8-14.1 3.8-28.2 1.5-10.2 2.9-20.5l8.4-58.3q1.2-7.2 2.2-14.5 1.1-7.9 2.3-15.7.7-4.1 1.3-8.3 1.2-8.3 2.5-16.5.5-3.4 1-6.7.7-4.8 1.5-9.5l.4-2.9c1-6 2.5-11.9 8.8-14.3z" fill="#717171"/></svg>