<svg xmlns="http://www.w3.org/2000/svg" width="1024" height="1024" xmlns:v="https://vecta.io/nano"><path d="M490.8 102.8q1.6 1.1 3.2 2.2 1.2.8 2.5 1.7c3.1 1.6 5.9 2 9.4 2.5 14.1 2.5 25.2 10.9 36.1 19.8 12.8 10.4 26 20 39.7 29.1 11.7 7.7 22.2 16.3 32.3 25.9q1.1 1 2.2 2c12.8 12.1 23.9 31 25 48.8.8 28.3-10.3 56.8-29.1 78q-2 2.1-4.1 4.2-1.2 1.4-2.5 2.8c-7.5 6.7-14.9 10.8-25.1 10.5-5.6-.7-9.6-4.9-13-9.1-5-7.7-6.7-16-7.9-24.9l-.4-2.9c-1.4-11.1-2.1-22.1-2.8-33.2-1.7-27.1-4-53.6-9.8-80.1q-.2-1-.4-2c-1.6-7.2-3.2-13.8-7.1-20.1-2.8-1.7-3.8-2-7.1-1.8-3.2.5-3.2.5-4.9 3.8.4 4.8 1.5 9.2 2.8 13.8 9 32.9 10.4 66.7 12.5 100.7.9 17.9.9 17.9 4.2 35.4 1 6.1-.5 11.4-2.4 17.1-6.2 18.8-1.9 35 6.4 52.3 8.1 16.1 18.3 30.7 29.5 44.7q1.2 1.5 2.4 3c8.7 10.8 17.8 21.2 27.1 31.3q4 4.3 7.8 8.7c2 2.3 4 4.6 6.1 6.8 3.8 4.3 7.5 8.7 11.1 13.2 2.3 2.8 4.7 5.5 7.1 8.3 7.6 8.6 14.6 17.5 21.4 26.7l1.6 2.2c12.5 16.8 23.9 34.4 34.2 52.7q1.6 2.8 3.2 5.6c36.9 66 43.6 145.2 24.2 217.5-5.5 18.9-14.3 37.9-31.8 48.6-7.4 3.7-15.3 5.1-23.4 6.4q-1.2.3-2.5.5c-4.9.7-9.6.7-14.5.7q-1.5.1-3.2.1-3.3 0-6.6 0-3.4 0-6.8.1-4.9 0-9.8 0-1.5.1-3.1.1-1.4 0-2.8 0-1.3 0-2.6 0c-2.1-.5-2.1-.5-3.8-2.3-2.5-4.2-2.5-8.1-2.6-12.8q0-1.1 0-2.2c.1-4.9.8-8.8 2.7-13.4.9-2.8.5-5-.4-7.8-1.9-2.3-1.9-2.3-4.9-2.4-3.2.1-3.2.1-5.2 2.6-7.7 11.2-6.6 24.9-4.9 37.8q-5.8.2-11.7.3-1.6.1-3.3.1c-8.2.2-8.2.2-12.2-2.7-4.1-6.2-3.4-13.6-2.8-20.7 1-3 2.4-5.3 4-8 .4-3.3.6-5-1.1-7.9-2.9-1.7-4.6-1.7-7.9-1.1-5.1 4.5-6.4 9.6-8 16q-.3 1-.6 2c-1.6 7.3-.1 14.8 1.6 22q-3.3.1-6.6.2c-1.9 0-1.9 0-3.8.1-5-.4-8.3-2-11.9-5.6-4-6.3-4.5-12.4-3.7-19.7 2.8-11.9 10.1-22 20-29 11.7-6.9 22.8-10.4 36.4-10.4q1.5 0 3.1 0 6.6-.1 13.2-.1 4.9 0 9.7-.1h3c6.8 0 6.8 0 12.6-3.4 1.1-3.5 1.1-3.5 1-7-1.7-3.2-1.7-3.2-5-4q-2.4-.1-4.8-.1c-19.9-.4-19.9-.4-27.2-5.9q-1.2-.9-2.5-1.8c-16.7-12.6-27.8-32.3-31.2-52.9q-.1-1.1-.3-2.3-.2-1.2-.3-2.3c-3.2-25.9 3.5-52.4 19.6-73.1 15.7-19.4 35.8-30.9 60.1-36.1 4.6-.9 4.6-.9 7.6-4.5.5-4.1.5-4.1-1.2-7.7-4.1-3-9.9-1.8-14.8-1.3-25.8 4.8-50.1 21.2-65.1 42.5-13.7 20.4-21.3 42.5-21.2 67.2q0 1.7 0 3.5c.1 9 1 17.1 3.3 25.8q.2 1 .5 1.9c4.2 16.6 12.7 36.3 27.5 46.1q0 1 0 2-1.6.3-3.2.6c-14.5 3-26.7 8.2-37.8 18.4-.9.9-.9.9-1.9 1.7-8.6 8.8-13.8 21.3-15.1 33.3h-19c.6-5.8 1.3-11.4 2.4-17q.2-1.2.4-2.3.7-3.7 1.4-7.4.4-2.6.9-5.2 1.3-7 2.6-13.9 1-5.5 2-11 4.5-24.5 9.1-49l7.8-43.1q6.3-36.2 13.2-72.3c5.7-20.1 5.7-20.1 3.6-39.3-3.1-2-4.8-2.2-8.4-1.5-4.8 4.4-5.2 9.7-6.2 15.8l-.6 3.3q-.9 5.4-1.8 10.8-1 5.8-2 11.5-.7 3.9-1.4 7.9l-6.4 35.7-16.5 92.1q-1.4 7.7-2.7 15.3-.9 5.3-1.9 10.6-4 23.1-8.5 46-.2 1.2-.5 2.4c-4.8 24.3-4.8 24.3-12.5 30.6-6.2 3.7-13 4.7-20 4-4.1-3.8-4.9-7-5.2-12.4q0-1.9 0-3.9 0-1.9 0-3.9c.2-3.9 1.1-7.1 2.2-10.8.3-3.7.3-3.7 0-7-1.9-2.3-1.9-2.3-4.9-2.4-3.2.1-3.2.1-5.3 2.3-4.4 7.4-5.2 14.4-5.1 22.8q.1 1.4.1 2.8c0 4.3.3 8.3 1.2 12.5q-6.7.2-13.3.2-1.9.1-3.8.2-1.8 0-3.7 0-1.7 0-3.4.1c-2.8-.5-2.8-.5-4.6-2.3-3.5-6.5-3.3-16.8-1.5-23.8q1.1-2.7 2.3-5.4c.4-3.3.5-5.1-1.1-7.9-2-1.4-2-1.4-5.3-1.2-3.6 1.1-5 1.8-6.8 5.1-5 11.8-4.9 23.7-1.8 36-7 .4-14 .6-19.5-4.4-5.3-5.9-6-11.5-5.8-19.1 1.3-14.9 10.4-26 21.3-35.5 5-3.9 10.3-7.5 15.8-10.6 2.3-1.2 2.3-1.2 3.2-3.4q.5-4.6.8-9.3.1-1.5.2-3 .3-5.2.7-10.5l.2-3.6 5.1-80.9q.3-5 .6-10.1 1.2-19.9 2.3-39.9.2-3.9.4-7.8.3-5.6.5-11.2.2-2.9.3-5.8.1-1.7.2-3.5 0-1.4.1-2.9c-.5-3.3-1.7-4.5-4.4-6.5-3.6-.2-3.6-.2-7 1-2.6 3.5-3.4 6.2-3.7 10.5q-.1 1.6-.2 3.3l-.2 3.6q-.1 1.8-.2 3.7-.3 5.1-.6 10.2-.3 5.4-.6 10.8-.7 11.9-1.4 23.9-.1 2.9-.3 5.7-.8 14.9-1.7 29.8-1.4 26.5-3.1 53-.2 3.2-.4 6.4-.4 5.9-.7 11.8c-.1 1.8-.1 1.8-.3 3.6q-.1 1.6-.2 3.3-.1 1.4-.1 2.9c-.3 2.3-.6 4.3-1.3 6.5-1.9 1.4-1.9 1.4-4.4 2.7-11.4 6.5-22 15.5-27.2 28q-.7 1.6-1.4 3.3-7.3 0-14.6.1-2.4 0-4.9 0c-10.6 0-21-.3-31.5-1.1v-17l7.7-.1q3.8 0 7.6-.1 2.5 0 5.1-.1c14.1-.1 23.9-1.2 34.5-11.3 2.8-3.2 4.7-6.4 6.1-10.4q.5-1.2 1-2.4c1.4-4.9 1.3-9.5 1.3-14.5q0-1.6 0-3.3 0-5.3 0-10.7 0-3.8.1-7.5 0-7.9 0-15.7 0-8.1 0-16.1.1-9.8.1-19.5 0-3.7 0-7.4 0-5.2 0-10.4 0-1.5 0-3c-.1-11.1-3.9-21.3-11.5-29.5-7.7-6-15.7-8.3-25.3-8.4q-1.2 0-2.4-.1-3.6-.1-7.2-.1-2.5-.1-5-.1-6-.2-12.1-.3v-3.8q-.1-7-.3-14 0-3.1 0-6.1-.1-4.4-.2-8.7 0-1.4 0-2.8 0-1.2-.1-2.5 0-1.1 0-2.3c-.3-2.2-.3-2.2-3.4-3.8-3.5-.1-3.5-.1-7 1-7.4 12.3-3.6 28.6-4 43h-95c-2.3-26.6-2.3-26.6-2.3-39.4q0-2.2 0-4.3 0-4.5 0-9 0-4.5 0-9c-.2-19.3.5-38.2 3.3-57.3q.2-1.2.3-2.4 1-6.8 2.3-13.6.2-1 .4-2c6.2-33.3 16.1-66 27-98 3.9 1.8 6.6 4.4 9.7 7.4 34.6 32.5 80.4 44.7 126.9 44.8q4.2.1 8.5.1c31.2.2 65-5.9 90.9-24.3q1.3-.9 2.6-1.8c3.9-3 3.9-3 6-7.3.1-3.8-.5-5.8-2.6-8.9-4.9-.6-7-.6-11.2 1.9q-1.7 1.3-3.2 2.6c-21.3 16.3-49.9 22.5-76.2 22.7q-1.4.1-2.7.1c-19.2.1-37.9.2-56.7-4.3q-1.4-.3-2.8-.6c-35.6-8.7-70.7-29.6-90.2-61.4-6.1-10.3-10.8-20.8-14.4-32.2-.5-1.6-1.1-3.1-1.8-4.7-1.8-4.8-2-8.3-.6-13.2 2.7-9.6 3.5-19.3 4.2-29.2q.1-1.1.1-2.2.5-6.9.9-13.8.7-10.4 1.4-20.8 0-1.1.1-2.2c1.2-17.9 3.3-35.5 7.1-53.1.4-1.8.4-1.8.7-3.6 1.3-5.9 2.6-11.6 4.7-17.2.9-2.8 1.1-4.9.6-7.8-1.5-2.6-1.5-2.6-4-4-3.1-.2-3.1-.2-6 1-4.7 5-5.8 10.3-7.5 16.8q-.5 2.2-1.1 4.5c-7.7 29.5-9.1 60-10.9 90.3-2.8 44.6-2.8 44.6-16.5 58.4-5 3.6-10.1 3.8-16 3-16.4-3.9-27.1-19.1-35.6-32.6-13-21.4-21.2-44.7-16.8-70.1 1-2.9 2.1-5.5 3.4-8.3q.7-1.7 1.5-3.4c4.1-8.8 9.2-16.2 15.5-23.6.7-.8.7-.8 1.3-1.6 6.3-7.3 13.1-13.5 20.7-19.4q1.4-1.1 2.9-2.3c7.4-5.8 15.1-11.2 22.8-16.6a530.27 530.27 0 0 0 24.4-18.1c29.8-23.6 29.8-23.6 44.1-24.6 8.5-.9 14.4-6.3 21.1-11.1 12.2-8.7 25.4-13.9 39.7-18.3q1-.3 2.1-.7c53.5-16.2 127.8-8.3 173.7 23.5z" fill="#fe9f00"/><path d="M380.1 58.8q4.8 0 9.5 0c17.5-.1 35 .5 52 4.8l3.1.8c18.3 4.8 36.1 12.5 51.7 23.3 6.2 4.2 11.5 6.1 18.9 7.4 12.8 3.1 23.7 11.7 33.7 19.9q3.6 2.9 7.2 5.8.9.8 1.9 1.5c9.6 7.7 19.7 15 30 21.8 12.2 8 23.4 16.8 33.9 26.9q1.5 1.4 3.1 2.8c16.7 15.8 30.3 38.8 31.1 62.2.7 32.1-11.8 61.5-32.2 86q-.9 1.1-1.8 2.3c-8 9.7-18.3 16.7-30.2 20.7-12.5.9-21.6.5-31.5-7.8-1.2-1.1-1.2-1.1-2.5-2.2q-1 0-2 0c-2.3 34.3 23.3 65.5 44.4 90a287.15 287.15 0 0 1 7 8.5c3.9 4.7 8 9.2 12.2 13.7 3.9 4.2 7.5 8.5 11.1 13 2.6 3.2 5.4 6.3 8.3 9.3a231.4 231.4 0 0 1 12.9 15l6 6.9C663 497 667.5 503 672 509q.7.9 1.4 1.9c15.2 20.4 29.6 41.6 41.6 64.1q.7 1.3 1.4 2.6c11.6 21.9 20.4 44.5 26.6 68.4q.4 1.4.7 2.8c4.3 16.8 6.7 33.7 8 50.9.2 2.5.2 2.5 1.3 5.3 17.1-22.9 26.8-48.9 31-77q.2-1.3.4-2.7c5.3-42.7-10.1-82.5-35.7-116q-1.9-2.5-3.8-4.9c-7.1-9-14.2-19-16.9-30.4q-.3-1.3-.7-2.6c-.9-7.2-.7-12.4 3.7-18.4 5.8-5.7 11.8-8 19.9-8.4 22.7.6 42.2 13.3 58.1 28.4q1.4 1.3 2.8 2.6c13.2 12.4 23 27.5 31.2 43.4q.5.9 1 1.9c10.2 19.2 15.5 40.3 18.6 61.7q.4 2.5.9 5.1c.7 4.5.7 9 .7 13.5q0 1.5 0 3 0 3.2 0 6.3 0 4.8 0 9.5c.1 16.7-1.1 32.7-4.8 48.9q-.3 1.7-.7 3.5c-6.2 25.9-15.6 51.4-30.7 73.6q-.6.8-1.1 1.7c-6.1 8.9-12.8 17.2-19.9 25.3-1 1.2-1 1.2-2 2.3-4 4.8-8.3 8.7-13 12.7q-1.5 1.3-3 2.6c-6.5 5.6-12.9 10.7-20 15.4q-1.6 1.1-3.2 2.1c-6.1 4.1-12.3 7.9-18.7 11.4-.9.5-.9.5-1.9 1-4.1 2.3-7.6 3.1-12.2 3.5q0 .5 0 1c.9 0 .9 0 1.7-.1 7.3-.1 14.4.7 21.6 1.8a54.2 54.2 0 0 0 3.7.5c49.6 7.6 49.6 7.6 62.9 24.3 3.1 4.4 2.8 9.3 2.1 14.5-5.5 12-19.8 17.6-31.4 21.9-12.4 4.3-25.1 7.2-38 9.8q-1 .2-2.1.4c-22.3 4.4-44.7 7.6-67.4 10l-3.6.4c-30.9 3.2-61.7 5.3-92.6 6.6q-1.4.1-2.8.1-10.5.5-21.1.8c-1 0-1 0-2 .1-31.3 1-62.6 1.1-93.9 1.1q-7 0-14 0c-62.8.2-125.5-2.3-188.1-8.2q-1.7-.2-3.5-.3c-122-11.4-122-11.4-146.2-39.9-3-4.1-2.9-8.9-2.3-13.8 5.3-11.2 17.1-16.7 28-21q2.6-.5 5.1-.9c2.2-.5 2.2-.5 3.9-2.1 2-4.5 3.2-9.1 4.4-13.9.9-3 2-5.9 3.2-8.7q.5-1.4 1.1-2.8c1.5-3 3.3-5.8 5.3-8.6-1.4 0-1.4 0-2.9-.1-15-.6-25.8-4.1-36.4-15.2-5.9-6.9-8.8-15.2-8.8-24.3q-.1-1.3-.1-2.7 0-1.4 0-2.9 0-1.5 0-3.1 0-5.1 0-10.2 0-1.7-.1-3.5 0-9.2 0-18.4 0-9.5-.1-19 0-7.3 0-14.7 0-3.5-.1-7c-.1-16.7.1-29.9 12.1-42.6 4.5-4.2 9.6-6.4 15.4-8.3.8-.3.8-.3 1.7-.5 3.3-.7 6.7-.6 10.1-.6q1.1 0 2.3 0 3.6 0 7.1 0 2.5 0 4.9.1 6 0 11.9 0-.2-1.5-.4-3.1c-2-16.1-2-32.3-2-48.6q0-4.9 0-9.8c-.5-56.8 11.7-110 29.4-163.7q.5-1.5 1-3 .9-2.7 1.8-5.5c3.1-9.4 3.1-9.4 2.4-19.2-.6-1.2-.6-1.2-1.3-2.4q-.7-1.4-1.4-2.8l-1.6-2.9c-4.8-9.5-8.7-18.9-11.9-29l-1.4 1.2c-10.2 8-19.7 10.8-32.6 9.8-18.6-3.9-32.1-20.5-42.1-35.5-8.3-12.7-14.2-26.1-18.9-40.5q-.5-1.6-1.1-3.3c-6.1-21.5-1.6-44.7 8.9-64 5.6-9.8 12.3-18.5 20.2-26.7q.7-.7 1.4-1.5c13.4-14.1 28.8-25 44.8-36 7.9-5.4 15.6-11 23-17.1 31-25.6 31-25.6 48.5-26.8 7.7-1.3 13.5-6.1 19.8-10.5 32.6-22.6 71.2-24.3 109.6-24.3zM269.7 102c-5.4 4.2-9.6 6.6-16.5 7.6-15.2 2-26.9 11.2-38.3 20.8a393.94 393.94 0 0 1-10.1 8q-1 .8-2.1 1.6c-5.5 4.2-11.1 8.1-16.8 12.1-28.5 19.8-61 42.8-68.9 78.9-.4 3.7-.5 7.4-.4 11.1q0 1.5 0 3.1c.5 24.9 13.2 47.7 28.4 66.8q1 1.3 1.9 2.6c6.7 7.9 15.3 14.2 25.7 15.8 6.3.4 10.6-1.2 15.4-5.4 14.4-14.4 13.6-41.3 14.7-60.1 5.6-92.4 5.6-92.4 17.7-106.6 2.5-2 4.4-2.2 7.6-2.3 2.4 1.4 2.4 1.4 4 4 0 5.9-1.6 11.6-3.3 17.2-7.2 26.8-9.1 54-10.9 81.5q-.5 8.2-1.1 16.4-.2 3.8-.4 7.5c-.6 8.6-1.7 16.6-3.6 24.9-1.6 7.5-2.1 12.9 1 20.1.5 1.2.5 1.2 1 2.6 1 2.6 2.2 5.2 3.3 7.8q.5 1.3 1.1 2.5c14.5 34.3 42.5 59.2 76.6 73.5 22.5 9 46 12.4 70.1 12.3q4.3 0 8.5.1c29.6.1 62.4-5.5 85.8-24.8 2.8-2.1 4.7-3 8.3-3.2q1.8.3 3.6.6c2.1 3.1 2.7 5.1 2.6 8.8-2 7.2-11.6 11.8-17.6 15.2-11.9 6.3-24.7 10.7-37.8 13.9q-1.1.3-2.3.6c-14.5 3.2-29.1 3.8-44 3.8q-4.2-.1-8.5 0c-48.8 0-92.1-15.6-128.4-48.3-1.1-1.2-1.1-1.2-2.3-2.4-1.5-1.8-1.5-1.8-3.7-1.6-6.9 20.9-13.5 41.7-19 63q-.4 1.6-.8 3.2c-3.1 11.8-5.7 23.7-7.9 35.7q-.3 1.5-.6 3-.9 5.6-1.7 11.1-.2 1.3-.4 2.7c-2.6 19-3 37.7-2.9 56.8q0 4.5 0 9 0 4.5 0 9 0 3 0 6.1c.1 11.9 1.3 23.3 2.3 35.4h95l1-38c3-5 3-5 6.5-5.9 3.5-.1 3.5-.1 6.5 1.9.4 1.8.4 1.8.4 4.1q.1 1.2.1 2.5 0 1.4 0 2.8 0 1.4.1 2.8 0 4.5.1 8.9 0 3 .1 6.1.1 7.4.2 14.8 1.5 0 3 0 5.7.1 11.3.2 2.5 0 4.9.1c11.5.1 22.7.6 32.2 8 9.1 9.4 12.1 20.3 12 32.9q0 1.6 0 3.3.1 5.3.1 10.7 0 3.7 0 7.5 0 7.8 0 15.6 0 10 .1 20 0 7.7 0 15.4 0 3.7 0 7.4c.2 28.8.2 28.8-10.7 40.2-7.4 6.6-14.9 9-24.6 9.1q-1.2 0-2.4.1-3.9.1-7.8.1-2.6.1-5.2.1-6.5.2-12.9.3v17c11.3.9 22.6 1.1 33.9 1.1q2.5 0 5-.1 6.1 0 12.1 0 .5-1 1-2c6.3-13 16-24.4 29.3-30.5 2.8-1.2 2.8-1.2 3.3-3.4.6-3.4.8-6.9 1-10.4q.1-1.2.2-2.5.2-4.2.5-8.4.2-3 .4-5.9.5-7.9 1-15.9.3-4.9.6-9.8l4.4-76.3q.2-3.3.4-6.7.2-4.5.5-9.1.2-4 .4-8.1c.1-1.3.1-1.3.1-2.5q.4-7.6.9-15.2l.2-3.4c.6-9.3.6-9.3 3.8-12.9 3.4-1.1 3.4-1.1 7-1 2.2 1.6 2.2 1.6 4 4 .4 2.8.4 2.8.2 6q0 1.9-.1 3.7-.1 2-.2 4-.1 2.1-.2 4.2-.3 5.5-.6 10.9-.2 3.2-.3 6.3-.7 13-1.5 26.1-.4 5.5-.7 10.9-.4 6.7-.8 13.3-.9 14.9-1.8 29.8-.7 12-1.5 24.1-.5 9-1 18.1-.4 6-.8 12.1-.1 2.8-.3 5.7-.2 3.9-.5 7.8c0 1.1 0 1.1-.1 2.3-.2 3.4-.5 5.4-2.7 8.1-2.3 1.7-4.6 3.2-7.1 4.7-13.9 8.6-24.3 20-30.3 35.2-1.5 7.9-2.1 16 2.1 23.1 3.3 4.3 7 6.4 12.2 7.6 3.3.2 6.7.1 10 0q-.2-.9-.4-1.7c-2.8-12.3-2.9-25.1 3.5-36.3 1.2-1.4 1.2-1.4 3.9-3 3.7.1 3.7.1 7 1 1.2 2.4 1 3.6.7 6.3q-.1 1.1-.3 2.3c-.4 2.4-.4 2.4-1.4 4.7-1.3 3.5-1.3 6.9-1.3 10.6 0 1.1 0 1.1-.1 2.1 0 4.8 1 8 3.4 12 1.1 1.3 1.1 1.3 3.6 1.1q1.7 0 3.4 0 1.8 0 3.7 0 1.9 0 3.9 0c1.9 0 1.9 0 3.9-.1q4.7 0 9.5 0c-.2-1.1-.2-1.1-.5-2.2-2-10.9-2.3-25.1 3.5-34.8 2.1-2.6 2.6-3 6.1-3.3 2.9.3 2.9.3 4.9 2.3.3 3.8.1 6.7-1 10.3-1.9 7.1-2.5 16.1.4 23 1.5 2.7 1.5 2.7 3.6 4.7 7.5.7 15.3-.6 21.4-5.2 9-9.6 10.8-24.5 12.8-37.1q.6-3.8 1.3-7.6.1-1 .3-2.1l5.5-31q1.2-6.5 2.4-13.1.3-1.6.6-3.3 2.6-14.7 5.2-29.3 4.8-27.2 9.7-54.3.6-3.2 1.2-6.4.3-1.6.6-3.3 2.1-11.7 4.2-23.5 1.8-10.6 3.7-21.2 1.2-6.6 2.3-13.2 1.1-6.2 2.2-12.5.5-2.3.9-4.6.5-3.2 1.1-6.5.3-1.8.6-3.6c1.1-3.6 2.4-5.6 5-8.2 3.6-.7 5.3-.5 8.4 1.5 4.4 6.8.5 17.5-.9 24.8q-.4 2.2-.8 4.3-.8 4.6-1.7 9.1-1.3 7.3-2.7 14.5l-.4 2.5q-.5 2.4-.9 4.9-.7 3.7-1.4 7.4-3.6 19.3-7 38.8l-12.2 66.6q-.4 2.3-.8 4.5-2 10.9-4.1 21.8-3.1 16.9-6.2 33.7-.6 3.2-1.2 6.4-.8 4.3-1.6 8.6-.2 1.2-.5 2.5c-.6 3.4-1 6.6-1 10.1h19q.5-3 1.1-6.2c3.3-15.5 12.4-28 25.6-36.7 9.6-6 20.2-9.4 31.3-11.1q0-1 0-2-1.4-1.1-2.9-2.3c-16.6-13.9-25.6-38.5-27.9-59.5-2.6-33.6 4.9-64.2 26.8-90.2 15.9-18.1 38.5-32.8 62.9-35.4 8.3-.2 8.3-.2 10.9 1.7 1.9 2.7 1.6 4.6 1.2 7.7-3 3.9-5.5 4.6-10.3 5.4-23.8 4.6-45.3 18.4-59.6 38.2a117.21 117.21 0 0 0-5.1 8.4q-.9 1.6-1.8 3.2c-12.2 22.7-14 47.8-7.6 72.7 6.2 20.1 17.9 37.4 36.3 48 3.4 1.8 6.2 2.2 10.1 2.3q1.4.1 2.9.1 3 .1 6.1.2 1.4.1 2.9.1 1.3.1 2.7.1c2.6.3 4.2.8 6.4 2.3 1 3.7 1.6 5.9-.3 9.4-2.8 2.6-5.5 2.7-9.2 2.7q-1.3 0-2.7 0-1.5 0-3 0-3.2.1-6.3.1-5 0-9.9.1c-20.1 0-38.4 2.1-53.9 16.4-8.4 8.9-13.2 19.3-12.9 31.6.5 5.6 1.9 9.9 6.2 13.6 4.6 3.2 7.7 3.2 13.2 3.2q1.9-.1 3.8-.1 1.5 0 3 0-.2-.9-.4-1.8c-2.4-10.9-2.7-22 2.4-32.2 1.5-2.3 3.1-4.1 5-6 3.1-.3 5.2-.5 7.9 1.1 1.7 2.9 1.5 4.6 1.1 7.9q-1 1.7-2 3.4c-3.2 6-2.8 13-2 19.6 1.6 4 2.4 5.6 6 8 2.6.3 2.6.3 5.5.2h3.3q1.7 0 3.4-.1 1.7 0 3.4 0 4.2 0 8.4-.1c-.2-1.8-.2-1.8-.5-3.6-1.4-11.7-1.5-24.1 5.4-34.2 2.1-2.2 2.1-2.2 5.2-2.8 2.9.6 2.9.6 4.8 2.2 1.9 4.2.6 7.9-.9 12.1-1.2 3.8-1.3 7.4-1.3 11.3 0 1 0 1-.1 2.1 0 4.7 1 7.9 3.4 11.9 1.6 1.6 3.1 1.1 5.2 1.2h2.8q1.4 0 3 0 1.5 0 3.1 0 3.2 0 6.5 0 4.9.1 9.8.1c22.1.1 43-1.2 59.7-17.3 28.3-30 32.1-84.9 31-123.9-1.4-38.9-9.6-76.3-25.1-112.1q-.6-1.3-1.2-2.7c-10-22.8-23.3-44.1-37.8-64.3q-.7-1-1.5-2-4.7-6.6-9.5-13-.6-.8-1.3-1.7c-5.4-7.3-11.1-14.3-17-21.2-2.5-2.8-4.8-5.7-7.2-8.7-4.1-5-8.5-9.8-12.9-14.6q-4-4.4-7.9-8.8-3.1-3.5-6.2-7-5.8-6.4-11.5-13c-.6-.7-.6-.7-1.3-1.4-57.1-65.2-57.1-65.2-56.2-102.6.6-6 2.5-11.8 4.5-17.5 2.2-6.7 2.1-11.7.5-18.7-1.5-6.9-2.1-13.8-2.5-20.8q-.1-1.9-.2-3.8-.4-5.9-.8-11.8c-1.7-33.4-1.7-33.4-5.8-66.6q-.3-1.4-.5-2.9c-2-11.2-4.2-22.6-7.9-33.3-1-3.3-.8-5.3.2-8.6 3-2 3-2 6.4-2 3.8 1.1 4.7 1.8 6.6 5 2.1 4.3 3 8.9 4 13.5q.4 1.6.8 3.3 2.4 10.8 4.4 21.6.3 1.2.5 2.5c3.4 18.9 4.2 38.3 5.5 57.5.8 12.3 1.6 24.6 3.3 36.9q.2 1.3.3 2.7c1.7 11.4 5.2 21.2 14.2 29 4.5 2.8 8.9 2.6 14 2 18.9-4.8 29.8-23.1 39.2-38.8 7.5-13.3 13-28.9 13.8-44.2q.1-1.8.2-3.6c.7-19.3-7-37.3-19.7-51.7q-1.2-1.3-2.5-2.7-.7-.7-1.4-1.5c-13-14.1-28.5-24.5-44.4-35.2-10.3-7-20.2-14.5-30-22.3-6.8-5.5-13.6-10.6-21.2-15q-1-.6-1.9-1.2c-4.4-2.5-8.5-3.3-13.4-4.1-7.5-1.3-12.6-4.3-18.7-8.7-57.8-37.2-162-42.8-218.3 1z" fill="#02284d"/><path d="M707.1 116.6h2.6q4.4 0 8.7 0 3.1 0 6.3 0 8.4 0 16.9 0 8.9 0 17.7 0 14.9 0 29.8 0 17.2 0 34.4 0 14.8 0 29.6 0 8.8 0 17.7 0 8.3 0 16.6 0 3 0 6 0c15.6 0 27.7.7 39.4 12.2 8.4 10 8.8 23 8.7 35.4q0 2.4 0 4.7 0 6.4 0 12.8 0 6.7 0 13.4 0 11.3 0 22.5-.1 13-.1 26 .1 12.6 0 25.1 0 5.3 0 10.6 0 6.3 0 12.6 0 2.3 0 4.5c.1 13.6-1.8 24-10.9 34.3-6.3 6.1-14.9 9.7-23.7 9.6q-3.3-.2-6.6-.4-3.8-.2-7.6-.4-2-.2-4-.3l-21.5-.9c-1.1 0-1.1 0-2.2-.1-57.6-4.6-57.6-4.6-108.2 16.9-9.8 9.4-17.9 20.9-24.3 32.8-1.6 2.4-2.7 3.1-5.4 4.1-6.9.8-6.9.8-10.6-1.9-3.5-4.5-3-8.3-2.9-13.9q0-1.5 0-3.1.1-5 .2-9.9 0-3.4.1-6.7 0-8.3.2-16.5-1.9 0-3.8.1-2.4 0-4.9 0-1.2 0-2.5 0c-6.1.1-10.6-.6-15.8-4.1-1-.7-1-.7-2.1-1.3-8.1-5.6-13.4-13.2-15.9-22.7-.6-5.5-.6-10.9-.5-16.4q-.1-2.4-.1-4.9 0-6.6 0-13.2 0-5.6 0-11.2-.1-13.1 0-26.2 0-13.5-.1-26.9 0-11.7 0-23.3 0-6.9-.1-13.8 0-6.5 0-13.1.1-2.3 0-4.7c-.1-11.5 2.1-20.3 9.1-29.7 8.5-8.3 17.9-12.1 29.8-12z" fill="#059f58"/><path d="M307 580c2 2 2 2 2.2 3.8q0 1.1 0 2.3v2.5q0 1.4 0 2.8 0 1.4 0 2.8 0 4.5-.1 8.9 0 3 0 6.1 0 7.4-.1 14.8 1.5 0 3-.1 5.7-.1 11.3-.1 2.5 0 4.9-.1c12.2-.3 23.1.4 33 8.4 9.1 9.4 12.3 20.3 12.2 33.1q0 1.6 0 3.3.1 5.3.1 10.7 0 3.7 0 7.5 0 7.8 0 15.6 0 10 .1 20 0 7.7 0 15.4 0 3.7 0 7.4c.2 28.8.2 28.8-10.6 40.1-9 8.1-16.9 10.1-28.7 10.2q-1.7 0-3.4.1-5.4.1-10.8.1-3.6.1-7.3.1-8.9.2-17.8.3-.1 1.7-.2 3.4-.4 6.3-.9 12.7-.1 2.7-.3 5.4c-1.6 24.9-1.6 24.9-9.3 32.5-8.2 6.3-17.1 7.2-27.2 7.1q-1.1 0-2.1-.1-2.5 0-5 0c-3.5-6-4.6-10.2-4.4-17.1q0-1.2 0-2.4c.1-4.5.8-8.2 2.4-12.5.5-3.6.5-3.6 0-7-1.6-2.1-1.6-2.1-4-3-3.4 0-4.6.7-7.1 2.9-7 11.5-6 26.3-3.9 39.1q-6.4.2-12.8.3-1.8.1-3.6.1-1.7.1-3.5.1-1.6 0-3.3.1c-2.8-.6-2.8-.6-5.1-3-1.8-2.8-2.4-4.3-2.7-7.6q-.1-.9-.2-1.9c-.3-6 1.3-10.6 3.3-16.2 1.2-4 1.4-6.8.9-10.9-2.9-2.3-2.9-2.3-6.4-2-3.7.7-3.7.7-5.8 3.4-6.2 11.2-5.8 24.3-3.8 36.6-6.3.5-10 .2-15-4-4-3.6-5.8-5.6-6.3-11-.4-15.2 4.4-27.9 13.3-40q2.5-2.5 5-5-1.7 0-3.4 0-6.4-.1-12.7-.2-2.7 0-5.5-.1c-14.3-.1-24.4-.9-35.1-11.3-9.1-9.7-11.8-20.2-11.7-33.3q0-1.5 0-3.1 0-5 0-10.1 0-3.5 0-7-.1-7.4 0-14.8 0-9.4-.1-18.8 0-7.3 0-14.6 0-3.5 0-7c-.1-16.6.1-29.7 12.1-42.4 6.9-6.5 16-9.4 25.3-9.4q1.9 0 3.7 0 2.1 0 4.1 0 2.1 0 4.2 0 5.8 0 11.6 0 6 0 12.1 0 11.4 0 22.8 0 13 0 26.1 0 26.7.1 53.5.1 0-1.7-.1-3.4-.1-6.2-.1-12.5 0-2.7-.1-5.4-.1-3.9-.1-7.8 0-1.2-.1-2.4c0-5.3 1-8.3 4.5-12.5 3.1-1.6 5.7-.7 9 0z" fill="#059e58"/><path d="M733 825c7.9-.3 15.5.5 23.3 1.7a54.2 54.2 0 0 0 3.7.5c49.6 7.6 49.6 7.6 62.9 24.3 3.1 4.4 2.8 9.3 2.1 14.5-5.5 12-19.8 17.6-31.4 21.9-12.4 4.3-25.1 7.2-38 9.8q-1 .2-2.1.4c-22.3 4.4-44.7 7.6-67.4 10l-3.6.4c-30.9 3.2-61.7 5.3-92.6 6.6q-1.4.1-2.8.1-10.5.5-21.1.8-1 0-2 .1c-31.3 1-62.6 1.1-93.9 1.1q-7 0-14 0c-62.8.2-125.5-2.3-188.1-8.2q-1.7-.2-3.5-.3c-122-11.4-122-11.4-146.2-39.9-3-4.1-2.9-8.9-2.3-13.8 5.3-11.3 17.1-16.6 28-21 3.3-1.1 6.6-2.2 10-3q0 1.6.1 3.1c.4 11.3 1.7 20.5 9.7 29.1 8 6.6 16.5 8.9 26.7 9h2.6q4.2.1 8.5.1 1.4 0 2.9 0 7.7 0 15.4.1 6.4 0 12.7 0 7.7.1 15.4.1 3 0 5.9.1c14.5.1 28.7-.6 40.2-10.7 9.6-10 11.8-21.3 13.9-34.9h47v20c1.8 7.1 4.1 13.3 10 18 8.2 4.7 15.7 6.1 25.1 6.2q1.2 0 2.4 0 3.9 0 7.8 0 1.4 0 2.7.1 7.1 0 14.3 0 7.3 0 14.6.1 5.6 0 11.3 0 2.7 0 5.3.1c13.7.1 26-.7 36.5-10.5 4.8-4.7 6.8-8.7 10-15h23q.7 2.4 1.5 4.9c2.7 7.2 6.3 12.8 13.1 16.6 7.6 3.3 13.9 4.2 22.1 4.1q1.8 0 3.7 0 4.9 0 9.8 0 5.2-.1 10.4 0 8.7-.1 17.4-.1 10-.1 20-.1 10.7 0 21.4 0 3.1 0 6.2 0 5.7-.1 11.4-.1 1.7 0 3.4 0c18-.2 36.1-3.2 50.6-14.3q1.3-.9 2.5-1.9c9.8-8 16.1-18.9 21.5-30.1z" fill="#fdde9e"/><path d="M752.4 460.5q1.1 0 2.2 0c6.9.2 12.3 2.2 18.4 5.5q1.5.8 3 1.6c33.9 18.6 55.5 55.4 66.2 91.5 4.9 18 7 35.3 7 53.8q0 3.9 0 7.9c.1 14.8-1.2 29.1-4.4 43.5q-.4 1.5-.7 2.9c-7.9 34.5-22.6 67.1-46.1 93.8q-1.2 1.4-2.5 2.9C780.2 781.4 761 794.5 741 806c-1.5-3.1-.3-5.9.5-9.1q.3-1 .6-2.1.8-3.5 1.7-6.9c5.4-21.9 5.4-21.9 7.7-44.3.5-17.1.5-17.1 5.9-22.7q1.3-1.2 2.7-2.4c19-16.6 29.3-45.6 35.7-69.3q.3-1.1.6-2.2c3.2-12.5 4-24.9 3.9-37.7q0-1.1 0-2.2c0-11.6-.5-22.8-3.3-34.1q-.3-1.2-.6-2.4c-6.9-26.7-20-50-36.3-72-19.3-25.9-19.3-25.9-18.1-34.6 2.5-3.9 6.2-3.5 10.4-3.5z" fill="#fda100"/><path d="M422.7 271c5.9 5.2 9 11.1 9.6 18.9-.3 9.5-6.8 16.9-13.4 23.1-8.4 7.2-20.3 16-31.9 16 5.9 10.5 12.8 17.4 24 22q1.3.5 2.6 1.1c14.2 3.8 30.2 1.2 42.8-6 10.1-6.6 17.4-14.6 21.6-26.1-1.2-.4-1.2-.4-2.4-.9-2.6-1.1-2.6-1.1-3.6-3.1-.2-2.1-.2-2.1-.2-4.4-.1-1.2-.1-1.2-.1-2.4.3-2.2.3-2.2 1.5-4 3.5-2.4 7.7-1.8 11.8-1.2 4.2 1.9 5.6 3.3 7.9 7.3 2.5 8.3.6 15.6-3.1 23.2-9.5 16.8-24.1 27.4-42 33.6-16.5 4.5-34.4 2.9-49.6-4.8-7.1-4.2-13.4-9.4-19.2-15.3q-.9 1-1.8 1.9c-11.4 12.2-25.7 19.6-42.6 20.3-20.3.5-37.1-4.6-52.6-18.2q-.9-.8-1.9-1.6c-8.3-7.7-16-19.5-16.6-31.1.3-6 2.7-9.7 7.1-13.7 4.4-2.1 8.6-2.5 13.4-1.6 1.8 1.2 1.8 1.2 3 3 .4 2.6.4 2.6.4 5.5.1 1.4.1 1.4.1 2.9-.5 2.6-.5 2.6-2.3 4.4-2.2 1.2-2.2 1.2-5.2 1.2 6.4 12.3 14.4 21.9 27 28q1.3.6 2.6 1.3c6.6 2.7 12.9 3.1 20 3.1q1.3.1 2.7.1c11.1-.2 21.6-3.7 29.7-11.4 3.7-4.1 6.5-8.3 9-13.1q-1.8-.3-3.6-.6c-16-3.6-30.5-14.8-39.6-28.2-2.9-5.5-2.8-12.5-1.2-18.4 3.4-8.1 11.1-14.1 19-17.7 24.3-8.9 55.7-8.9 77.1 6.9z" fill="#02294d"/><path d="M226 655c4.3 3.5 5.8 6.5 7.2 11.9q.3 1 .5 2 .9 3.3 1.7 6.6.6 2.3 1.2 4.6 1.5 6 3 12.1 1.6 6.1 3.2 12.3 1.7 6.9 3.5 13.8c.2 1 .2 1 .5 2.1q.7 2.8 1.4 5.7.8 3 1.8 5.9.3-1.1.6-2.2 2.7-10.3 5.5-20.6 1.4-5.3 2.8-10.6 1.3-5.1 2.7-10.2.7-2.9 1.5-5.8 1.4-5.3 2.9-10.6.5-1.8 1-3.6.5-1.8 1-3.5c.4-1.6.4-1.6.9-3.2 1.2-3 2.5-4.6 5.1-6.7 3.9-.6 6-.7 9.3 1.6 3.8 5.5 4.4 12.8 5.6 19.3q.5 2.8 1 5.7.8 4.5 1.6 9 .8 4.3 1.6 8.7.3 1.3.5 2.6c.8 4.5 1.8 8.8 3.4 13.1q.5-.7 1-1.5c3.2-2.4 6.6-2 10.5-2q1.2 0 2.5 0 2.6 0 5.2 0 4.1 0 8.1-.1 2.5 0 5.1 0 1.2 0 2.4 0c3.9 0 5.8.2 8.7 2.9 1.5 2.7 1.5 2.7 1.6 6.3-1.3 4.1-2.5 5.1-6.1 7.4-3.1.3-3.1.3-6.6.1-12.7-1.1-12.7-1.1-24.5 2.3-3.2 3.7-4.4 8-5.9 12.6-3.7 2.5-5.6 2.5-10 2-3.8-2.2-4.9-3.6-6.2-7.7q-.5-2.3-.9-4.6-.2-1.2-.4-2.4-1.9-10.2-3.6-20.5-.3-1.5-.6-3.1-.6-3.9-1.3-7.7c-.2.8-.2.8-.5 1.7q-2.4 8.9-4.8 17.9-.9 3.3-1.8 6.6-2.5 9.5-5.1 18.9-1.1 4.1-2.2 8.1-.6 2.3-1.2 4.6c-.3 1-.3 1-.5 2.1-1.3 4.5-3 6.6-6.9 9.1-2.1.6-2.1.6-4 .6q-1 .1-1.9.1c-3.5-1.2-5.3-3.6-7.1-6.7-1.7-4.9-3-9.8-4.2-14.8q-.6-2.2-1.1-4.4-1.2-4.6-2.3-9.2-1.5-5.8-3-11.7-1.2-4.5-2.3-9-.6-2.2-1.1-4.3-.8-3-1.5-6.1-.4-1.7-.9-3.4c-.5-2.8-.7-5.3-.6-8.1q-1 0-2 0-.2 1.5-.4 3.1c-.9 6.1-3 11.8-4.9 17.7q-.6 1.8-1.2 3.7-.6 1.7-1.2 3.5-.5 1.6-1 3.3c-1.5 3.1-2.4 4-5.3 5.7-2.5.4-2.5.4-5.3.4-1.6 0-1.6 0-3.3.1H195q-1.8 0-3.6 0-3.8 0-7.5 0-5.7 0-11.5.1-3.6 0-7.2 0-1.7 0-3.5 0c-7.9 0-7.9 0-11.9-2.9-2.4-3.5-2.5-5.5-1.8-9.7 1.4-2.2 1.4-2.2 4-4 3.6-.6 7.1-.5 10.7-.4q1.5 0 3.1 0 5 .1 10 .2 3.3 0 6.7 0 8.2.1 16.5.2.3-1 .6-2.1c2.4-9.2 5.2-18.3 8-27.5q.8-2.9 1.7-5.8 1.3-4.2 2.6-8.4c.4-1.3.4-1.3.7-2.6 2.3-7.4 4.8-12 13.4-10.6zm567-498c5.7.2 5.7.2 8 1 3.2 3.4 4.7 6.3 5.8 10.8l.8 3.5a40.02 40.02 0 0 1 .9 3.7q.5 2 1 4 1.3 5.2 2.6 10.5 1.3 5.5 2.7 10.9 3.1 12.8 6.2 25.6.4 1.8.9 3.7 4.6 19.1 9.1 38.3 1.9-4.7 3.8-9.5.5-1.3 1.1-2.6l7.5-20c2.1-3.8 3.5-4.4 7.6-5.9 3.6-.4 7.2-.4 10.9-.4h3.2q3.3-.1 6.6 0 5 0 10.1-.1 3.2 0 6.4 0 1.5 0 3.1 0c4.4 0 7 .1 10.8 2.4 2.2 2.4 2.6 3.5 2.5 6.7q0 1.1 0 2.3c-.6 2.1-.6 2.1-2 3.7-4 2.2-7.9 1.8-12.4 1.7q-1.4 0-2.9 0-4.5-.1-9.1-.1-3 0-6.1-.1-7.6 0-15.1-.1-.3.8-.5 1.7c-1.8 5.5-3.8 10.9-5.9 16.3q-.5 1.2-1 2.5-1 2.6-2 5.1-1 2.7-2.1 5.3-1.4 3.8-2.9 7.6-.5 1.2-.9 2.4c-3.9 9.7-3.9 9.7-8.7 12.1-3.3.4-3.3.4-7 0-4.3-3.5-6-6.8-7.2-12.1q-.3-1.1-.6-2.3-.7-2.7-1.4-5.4-1.4-5.5-2.8-11.1-3.3-12.7-6.6-25.3-1.2-4.9-2.5-9.7L796 199c-2.7 6.8-4.7 13.8-6.7 20.9q-1 3.7-2.1 7.5-1.7 5.8-3.3 11.7-1.6 5.7-3.2 11.4-.5 1.8-1 3.6-.5 1.6-.9 3.3-.4 1.5-.9 2.9c-1.6 4.6-3.6 8.4-7.9 10.7-4.3.6-6.3.5-9.9-2-2.6-2.2-3.9-4.3-5.2-7.4-2.7-5.7-5.4-10.3-10.9-13.6-7.8-2-16.2-1.5-24.1-1.1q-1.3 0-2.5.1-2.3.1-4.6.3c-2.2.1-2.2.1-5.8-.3-2.5-2.3-2.5-2.3-4-5-.1-4.1.2-6.1 3-9.2 4.1-2.5 7.5-2.4 12.3-2.3h2.7q2.8 0 5.6 0 4.3.1 8.6 0 2.8.1 5.5.1h2.6c4.7 0 7.9.4 11.7 3.4 2 2.5 2 2.5 3.8 5.2q.9 1.3 1.8 2.7.7 1 1.4 2.1c2.5-5.6 4.4-11.2 6.1-17q.4-1.5.8-2.9.9-3.1 1.9-6.2 1.4-4.8 2.8-9.5l7.9-27.3q.6-1.9 1.1-3.8.9-3.3 1.8-6.6c1.6-5.7 3-9 7.6-12.7q.5-.5 1-1z" fill="#fbe6ac"/><path d="M198.5 794.3q1.6 0 3.2 0 5.1 0 10.3.1 3.6 0 7.2 0 9.4.1 18.8.2 9.6.1 19.3.1 18.8.1 37.7.3-.4 6-.8 11.9-.2 3-.4 6c-2.1 29.9-2.1 29.9-10.1 37.4-7.8 6.2-16.9 6.8-26.6 6.8q-1.1 0-2.1-.1-2.5 0-5 0c-3.5-6-4.6-10.2-4.4-17.1q0-1.2 0-2.4c.1-4.5.8-8.2 2.4-12.5.5-3.6.5-3.6 0-7-1.6-2.1-1.6-2.1-4-3-3.4 0-4.6.7-7.1 2.9-7 11.5-6 26.3-3.9 39.1q-6.4.2-12.8.3-1.8.1-3.6.1-1.7.1-3.5.1-1.6 0-3.3.1c-2.8-.6-2.8-.6-5.1-3-1.8-2.8-2.4-4.3-2.7-7.6q-.1-.9-.2-1.9c-.3-6 1.3-10.6 3.3-16.2 1.2-4 1.4-6.8.9-10.9-2.9-2.3-2.9-2.3-6.4-2-3.7.7-3.7.7-5.9 3.4-6.1 11.2-5.7 24.3-3.7 36.6-6.3.5-10 .2-15-4-4-3.6-5.8-5.6-6.3-11-.4-16.7 5.5-30.2 15.8-43.1 4.1-4.1 8.5-3.7 14-3.6z" fill="#fba100"/><path d="M486.9 207.2c8.5 7.2 14.3 17.9 15.4 29-.3 2.8-.3 2.8-1.2 5.2-2.9 2.3-5.3 2.2-8.9 2-2.2-.4-2.2-.4-4.6-2.2-1.5-3-2.2-5.4-3-8.6-1.6-6-3.2-9.5-8.6-12.8-6.7-3.4-13-3.9-20.2-1.7-5.6 2.4-8.7 6.4-11.1 11.9q-1.2 3.2-2.3 6.3c-1.7 3.3-3.1 4.2-6.4 5.7-3.6-.1-5.5-.6-8.4-2.6-1.6-2.4-1.6-2.4-1.6-5.5 2.6-11.7 9-22.1 19-28.9 13.7-7.5 29.1-6.9 41.9 2.2z" fill="#04284e"/><path d="M315.4 205.4c8.8 6.2 14.9 16.3 17.6 26.6-.1 3.3-.4 5-2.1 7.9-3.2 1.8-6.4 1.8-9.9 1.1-4-3.3-5.2-8-7-12.6-2-4.9-4.5-7.4-9.1-9.7-6.6-2.7-13.6-3-20.3-.2-6 3.5-8.4 9.2-10.2 15.7-1 3.9-1.8 6.6-5.4 8.8-3.6.4-6.1.4-9.4-.9-2.1-2.8-2.2-5.1-2-8.4 1.7-10.8 7.8-20.2 16.2-27 13.1-9 28-9.3 41.6-1.3z" fill="#03274e"/><path d="M307 580c2 2 2 2 2.2 3.8q0 1.1 0 2.3v2.5q0 1.4 0 2.8 0 1.4 0 2.8 0 4.5-.1 8.9 0 3 0 6.1 0 7.4-.1 14.8h-15q-.1-8-.2-15.9 0-2.7-.1-5.4-.1-3.9-.1-7.8 0-1.2-.1-2.4c0-5.3 1-8.3 4.5-12.5 3.1-1.6 5.7-.7 9 0z" fill="#02254f"/></svg>