<svg xmlns="http://www.w3.org/2000/svg" width="1024" height="1536" xmlns:v="https://vecta.io/nano"><path d="M302.2 156.7c19.9 8.2 36.8 26.9 49.8 43.3q1.5 1.8 3 3.7c7.9 9.4 15.1 19.2 22 29.3q.8 1.2 1.7 2.5c12.8 18.7 24.4 37.9 33.6 58.7q.6 1.3 1.2 2.6 1.2 2.6 2.3 5.2.5 1.1 1 2.3.5 1 .9 2.1c1.2 1.8 1.2 1.8 3.6 2.3q4 .5 8.1.7 1.6.1 3.2.2 1.6.2 3.3.3c32.5 2.4 69.2 7 96.8 26 2.2 1.4 2.2 1.4 4.3.6 2.5-1.8 4.5-3.9 6.6-6.1 4.3-4.3 8.7-8.2 13.5-12.1q3.8-3 7.5-6.2c7.2-6.2 14.6-11.9 22.3-17.5q2.1-1.6 4.2-3.2c15.6-11.6 31.8-22.6 48.8-32.1q1-.6 2.1-1.2c7.5-4.2 16.3-8 25-6.1 10.3 5.8 14.4 14.2 18 25 1.6 32.4-2.1 63.6-10 95q-.4 1.8-.9 3.7c-7.6 30.1-18 60.3-33 87.7q-.7 1.3-1.4 2.6-1.3 2.3-2.7 4.7-.6 1-1.2 2.1-.5.9-1.1 1.8c-2.2 7.2-.3 15.6.6 22.9 1.8 14.5 3.1 29 4.5 43.6q.5 5.4 1 10.8.4 4.3.8 8.6.3 2.9.6 5.9c2 22.6 2 22.6-3.2 29.4-5.6 6.3-11.7 12-18.1 17.5-2 1.8-3.8 3.7-5.7 5.6-3.9 3.9-8.1 7.4-12.4 10.8-2.6 2.2-5.1 4.4-7.6 6.7-6.1 5.5-12.7 10.6-19.2 15.6q-.9.7-1.9 1.5-5.5 4.2-11.1 8.5c1 5.8 3.4 10.7 5.8 15.9q.7 1.6 1.5 3.3c18.3 39.1 42.8 75 66.7 110.8 23.6 35.3 46.5 70.7 65 109q1.6 3.1 3.1 6.2c9.3 19 16.7 38.8 23.4 58.8q.6 1.8 1.2 3.7c6.3 19.1 6.3 19.1 6.3 26.3q1 0 2 0 .4-.9.8-1.8c1.2-2.2 2.5-4 4.1-6q.9-1.1 1.8-2.2.9-1.1 1.9-2.3c23.5-29.9 35.2-64.5 31.1-102.7-3.4-25-12.7-47.6-25.1-69.3-10-17.7-10-17.7-8.6-25.7 2-3.7 4.9-6.8 9-8 5.7-.5 9.7.8 14.6 3.4 1.1.6 1.1.6 2.1 1.1 38.3 20.3 66.4 57.8 79.3 98.7 3.2 10.5 6 21 8 31.8q.3 1.4.5 2.9c1.8 11 1.9 21.9 1.9 33v3c-.1 15.1-.6 29.4-4.4 44.1q-.4 1.5-.8 3c-7.3 28.3-19 54.2-39.1 75.8-1.9 2-3.7 4.1-5.5 6.2-12.6 14.3-28.9 25.8-45.2 35.6l-2.5 1.5c-4.4 2.6-8.6 4.6-13.4 6.4-2.7 1.4-4.1 2.5-5.2 5.4-1.4 5-2.1 10.1-2.8 15.3-5.6 32.9-23 66.1-50.2 86-12.4 8.7-25.7 14.1-40.2 18.2q-2.6.8-5.3 1.6c-23.6 6.7-54.4 7.4-77.8 0l-1.9-.6c-7.2-2.2-13.4-4.8-19.4-9.3-1.6-1.3-1.6-1.3-3.7-1.1-1.3 1.6-1.3 1.6-2.7 3.6-11 15-27.6 17.2-45 20-6.5.7-13.1.7-19.7.7q-1.1 0-2.2 0c-10 0-19.8-.5-29.7-2q-1.5-.3-3.1-.5c-12.7-2.2-22.8-5.8-31.9-15.2-4.7-7.3-6.8-14-6.7-22.6q-1 0-2 0c-9.1.1-18.2-.4-27.2-1q-2.4-.1-4.7-.3-5.5-.3-11.1-.7-.2 1.4-.4 2.8c-1.7 9-8.4 17.7-15.6 23.2-24.5 15.1-63.5 16-91.1 10q-1.9-.5-3.9-1-1.1-.3-2.1-.5c-8.5-2.2-16.1-4.8-22.9-10.5q-1-.8-2-1.6c-6-5.4-8.5-11.2-9.4-19.1-.9-16 6.3-30.4 16.5-42.4 7.4-7.9 16.5-14.6 25.9-19.9q1 0 2 0-.5-1-1-2-.4-3.2-.8-6.3-.1-1-.2-2-.3-3.3-.7-6.6-.2-2.3-.5-4.6-.5-4.9-1-9.8-1.2-11.5-2.5-23.1-.2-2.5-.5-5-4.6-42.4-9.9-84.7-1.6-12.8-3.2-25.6-.6-5.3-1.3-10.7-.1-1.3-.3-2.6c-1.2-9.9-2.5-19.7-4.1-29.6-11.9-72.7-14-147.6 4-219.4q.3-1.1.6-2.2c7.5-29.8 15.7-59.6 27.9-87.9 2.1-4.7 2.1-4.7 2-9.7-1.8-2.6-3.6-5.1-5.5-7.5-9.7-12.7-17.5-26.7-25-40.7q-.7-1.3-1.5-2.7c-11-20.6-20.2-41.5-28.4-63.3q-1.5-4-3.1-7.9-.4-1.1-.8-2.2-1.1-2.8-2.2-5.5c-2.5-8.8-.2-14.2 3.7-22q.7-1.5 1.5-3.1c7.9-15.9 17.4-31 27.2-45.8q2.9-4.5 5.8-8.9L255 389c.3-4.9-.2-9.4-.9-14.3-8.9-59.2.3-125.3 15.8-182.6q.3-1.1.7-2.3c6.9-25.8 6.9-25.8 18.4-33.8 4-2 9.1-.6 13.2.7z" fill="#fd8000"/><path d="M302.2 156.7c19.9 8.2 36.8 26.9 49.8 43.3q1.5 1.8 3 3.7c7.9 9.4 15.1 19.2 22 29.3q.8 1.2 1.7 2.5c12.8 18.7 24.4 37.9 33.6 58.7q.6 1.3 1.2 2.6 1.2 2.6 2.3 5.2.5 1.1 1 2.3.5 1 .9 2.1c1.2 1.8 1.2 1.8 3.6 2.3q4 .5 8.1.7 1.6.1 3.2.2 1.6.2 3.3.3c32.5 2.4 69.2 7 96.8 26 2.2 1.4 2.2 1.4 4.3.6 2.5-1.8 4.5-3.9 6.6-6.1 4.3-4.3 8.7-8.2 13.5-12.1q3.8-3 7.5-6.2c7.2-6.2 14.6-11.9 22.3-17.5q2.1-1.6 4.2-3.2c15.6-11.6 31.8-22.6 48.8-32.1q1-.6 2.1-1.2c7.5-4.2 16.3-8 25-6.1 10.3 5.8 14.4 14.2 18 25 1.6 32.4-2.1 63.6-10 95q-.4 1.8-.9 3.7c-7.6 30.1-18 60.3-33 87.7q-.7 1.3-1.4 2.6-1.3 2.3-2.7 4.7-.6 1-1.2 2.1-.5.9-1.1 1.8c-2.2 7.2-.3 15.6.6 22.9 1.8 14.5 3.1 29 4.5 43.6q.5 5.4 1 10.8.4 4.3.8 8.6.3 2.9.6 5.9c2 22.6 2 22.6-3.2 29.4-5.6 6.3-11.7 12-18.1 17.5-2 1.8-3.8 3.7-5.7 5.6-3.9 3.9-8.1 7.4-12.4 10.8-2.6 2.2-5.1 4.4-7.6 6.7-6.1 5.5-12.7 10.6-19.2 15.6q-.9.7-1.9 1.5-5.5 4.2-11.1 8.5c1 5.8 3.4 10.7 5.8 15.9q.7 1.6 1.5 3.3c18.3 39.1 42.8 75 66.7 110.8 23.6 35.3 46.5 70.7 65 109q1.6 3.1 3.1 6.2c9.3 19 16.7 38.8 23.4 58.8q.6 1.8 1.2 3.7c6.3 19.1 6.3 19.1 6.3 26.3q1 0 2 0 .4-.9.8-1.8c1.2-2.2 2.5-4 4.1-6q.9-1.1 1.8-2.2.9-1.1 1.9-2.3c23.5-29.9 35.2-64.5 31.1-102.7-3.4-25-12.7-47.6-25.1-69.3-10-17.7-10-17.7-8.6-25.7 2-3.7 4.9-6.8 9-8 5.7-.5 9.7.8 14.6 3.4 1.1.6 1.1.6 2.1 1.1 38.3 20.3 66.4 57.8 79.3 98.7 3.2 10.5 6 21 8 31.8q.3 1.4.5 2.9c1.8 11 1.9 21.9 1.9 33v3c-.1 15.1-.6 29.4-4.4 44.1q-.4 1.5-.8 3c-7.3 28.3-19 54.2-39.1 75.8-1.9 2-3.7 4.1-5.5 6.2-12.6 14.3-28.9 25.8-45.2 35.6l-2.5 1.5c-4.4 2.6-8.6 4.6-13.4 6.4-2.7 1.4-4.1 2.5-5.2 5.4-1.4 5-2.1 10.1-2.8 15.3-5.6 32.9-23 66.1-50.2 86-12.4 8.7-25.7 14.1-40.2 18.2q-2.6.8-5.3 1.6c-23.6 6.7-54.4 7.4-77.8 0l-1.9-.6c-7.2-2.2-13.4-4.8-19.4-9.3-1.6-1.3-1.6-1.3-3.7-1.1-1.3 1.6-1.3 1.6-2.7 3.6-11 15-27.6 17.2-45 20-6.5.7-13.1.7-19.7.7q-1.1 0-2.2 0c-10 0-19.8-.5-29.7-2q-1.5-.3-3.1-.5c-12.7-2.2-22.8-5.8-31.9-15.2-4.7-7.3-6.8-14-6.7-22.6q-1 0-2 0c-9.1.1-18.2-.4-27.2-1q-2.4-.1-4.7-.3-5.5-.3-11.1-.7-.2 1.4-.4 2.8c-1.7 9-8.4 17.7-15.6 23.2-24.5 15.1-63.5 16-91.1 10q-1.9-.5-3.9-1-1.1-.3-2.1-.5c-8.5-2.2-16.1-4.8-22.9-10.5q-1-.8-2-1.6c-6-5.4-8.5-11.2-9.4-19.1-.9-16 6.3-30.4 16.5-42.4 7.4-7.9 16.5-14.6 25.9-19.9q1 0 2 0-.5-1-1-2-.4-3.2-.8-6.3-.1-1-.2-2-.3-3.3-.7-6.6-.2-2.3-.5-4.6-.5-4.9-1-9.8-1.2-11.5-2.5-23.1-.2-2.5-.5-5-4.6-42.4-9.9-84.7-1.6-12.8-3.2-25.6-.6-5.3-1.3-10.7-.1-1.3-.3-2.6c-1.2-9.9-2.5-19.7-4.1-29.6-11.9-72.7-14-147.6 4-219.4q.3-1.1.6-2.2c7.5-29.8 15.7-59.6 27.9-87.9 2.1-4.7 2.1-4.7 2-9.7-1.8-2.6-3.6-5.1-5.5-7.5-9.7-12.7-17.5-26.7-25-40.7q-.7-1.3-1.5-2.7c-11-20.6-20.2-41.5-28.4-63.3q-1.5-4-3.1-7.9-.4-1.1-.8-2.2-1.1-2.8-2.2-5.5c-2.5-8.8-.2-14.2 3.7-22q.7-1.5 1.5-3.1c7.9-15.9 17.4-31 27.2-45.8q2.9-4.5 5.8-8.9L255 389c.3-4.9-.2-9.4-.9-14.3-8.9-59.2.3-125.3 15.8-182.6q.3-1.1.7-2.3c6.9-25.8 6.9-25.8 18.4-33.8 4-2 9.1-.6 13.2.7zM297 176c-11.5 25.3-16.3 53.6-19.8 81q-.2 1.2-.3 2.3-1.1 8.4-1.9 16.7-.1 1.3-.3 2.7c-1.5 15.2-2 30.4-2 45.7q0 5.3-.1 10.7c0 17.6.3 35.9 5.4 52.9-.1 4.8-2.9 7.8-5.8 11.4-9.8 12.7-18.4 26.2-27.2 39.6q-.9 1.4-1.9 2.8c-7.7 12-14.9 24.2-21.7 36.7q-1.8 3.2-3.7 6.3-.8 1.5-1.7 3-.7 1.2-1.4 2.4c-1 4.7.8 8.4 2.4 12.8q.6 1.7 1.2 3.4 2.2 6.1 4.5 12.1.4 1.1.8 2.2c4.5 11.7 9.5 23.2 14.8 34.6q.5 1 1 2.1c6.4 13.5 13.7 26.4 21.9 38.9q.9 1.5 1.9 3a340.8 340.8 0 0 0 26.5 34.6c4.5 5.2 5.7 8.1 5.4 15.1-1.7.7-1.7.7-4 1-2-1.2-2-1.2-4.1-2.9-3-2.7-3-2.7-6.9-3.1-7.5 18.1-14.4 36.2-20 55q-.4 1.5-.9 3c-9.7 32.9-17.7 66.7-20.1 101q-.1 1.1-.2 2.3c-4 57.2 3.4 113.3 11.1 169.8 2.6 18.5 4.8 37.1 6.9 55.7q2.1 18.8 4.6 37.6c4 31.3 8 62.9 8.2 94.5 0 7 0 7 3.4 13.1l-2.9.2c-12.4 1.9-25.3 12.3-33.1 21.8-6 8.2-10.8 16.5-10.3 27 .5 3.3 1.8 4.8 4.3 7 4.8 3.1 9.3 4.5 15 5l.8-3.8q.3-1.2.6-2.5.6-2.7 1.1-5.5c2.1-10.1 6.8-20.3 15.5-26.2 3.3-.8 3.3-.8 6-1-1 6.8-3 12.9-5.4 19.3-2.9 7.5-5.1 14.8-6.6 22.7 6.5 1.2 12.9 1.1 19.4 1.1q1.7 0 3.4-.1 4.1 0 8.2 0 .7-3.7 1.4-7.5l.4-2.3c1.1-6.6 1.9-13.1 2.6-19.7.6-3.7 1.7-6.3 3.6-9.5 3-2 3-2 6.6-1.8l3.4.8c3.5 7 .4 18.2-.5 25.6q-.2 1.8-.4 3.6-.6 4.4-1.1 8.8c15.2-1.1 15.2-1.1 27.6-9.3 6.6-8.4 7.6-16.3 7.5-26.7q0-1.5 0-3.1l-.7-34.8q-.2-9.5-.4-18.9-.1-3.4-.2-6.7l-2.1-147.1q0-5.2 0-10.5 0-8.1 0-16.2 0-3 0-5.9 0-4 0-8 0-1.1 0-2.3c.1-5.3.1-5.3 2.3-7.5 2.9-.5 2.9-.5 6 0 3.7 4.4 4.7 8.5 5.2 14.1q.1 1.2.2 2.4c.8 9.1 1.3 18.3 1.6 27.5q.1 1.4.1 2.8l2.4 76.7q.2 7.6.3 15.1l1.9 79.9c.2 13.9.7 27.7 1.3 41.5q11.2 1 22.4 1.7 3.5.3 6.9.6c11.1 1.6 11.1 1.6 21.5-1.5 3.1-3.2 5.1-7 7.2-10.9 5-9.1 13.6-15.2 22-20.8 4.4-2.8 4.4-2.8 6.4-7.2q0-1.2 0-2.4 0-1.4 0-2.8v-3.1-3.2q.1-5.4.1-10.7 0-3.8 0-7.6.1-9 .1-18 .1-16.8.2-33.5 0-3.9 0-7.8.1-27.4.7-54.7v-3.1c1.3-65.2 1.3-65.2 6.3-72.6 2.2-1.4 2.2-1.4 5.3-1.3 2.9.9 2.9.9 4.9 3.9.2 2.5.2 2.5.2 5.5q0 1.7 0 3.5 0 1.8 0 3.8 0 2 0 4 0 5.5 0 11 0 4.7 0 9.4l-.5 70.3q-.1 5-.1 10.1-.1 5-.1 10-.1 2.5-.1 5.1-.1 14.1-.3 28.2-.1 11.5-.2 23-.1 6-.1 12.1-.1 5.5-.1 11.1-.1 3-.1 6c-.1 7.1.6 11.8 4.4 17.9-1.4.1-1.4.1-2.8.1-13.1 2-26.2 14.6-34.4 24.4-6 8.4-9.6 16.2-9.4 26.7.9 4.1 3 6.7 6.5 9.1 4.7 2.4 8.8 3.3 14.1 3.7 1.2-3.5 1.3-6.5 1.6-10.2.6-6.4 2.3-11.8 5.2-17.6q.5-.9 1-2c2.2-4 4.4-6.7 8.2-9.2 2.8-.8 2.8-.8 5-1 .6 6.3-.9 11.1-3 17.1-2.8 7.9-5.3 16.4-5 24.9 3.4 1 6.5 1.1 10.1 1.1h3.5q1.8 0 3.7 0 1.8 0 3.7-.1 4.5 0 9 0 .1-1.4.2-2.9.5-5.4.9-10.8.2-2.3.4-4.7.3-3.3.6-6.7 0-1 .1-2.1c.5-5.6 1.7-10.7 5.8-14.8 5.5.5 5.5.5 8 3 .2 2.8.2 5.5.2 8.3v2.5q0 3.9-.1 7.8 0 2.7 0 5.3 0 6.6-.1 13.1 2.8-.2 5.7-.4 1.5-.1 3.2-.2c7.7-.9 13.7-3.8 18.6-9.9 2.9-4.8 4.2-10.1 5.5-15.5q.3-1.1.5-2.2c.6-3.6.7-7.2.9-10.8q0-2.5.1-4.9c.1-1.3.1-1.3.1-2.7.9-20.5 2.9-40.7 5.7-61q.9-7 1.8-14l8.1-57.3q2.1-12.8 3.8-25.7l4.9-32.3q2-12.5 4-25.1c3-20.1 6.2-40.2 9.9-60.2q.2-1.1.4-2.3c2.9-15.4 2.9-15.4 5.8-21.5 3-2 3-2 5.5-1.9 2.5.9 2.5.9 4.3 2.9 2.8 7.1.9 15.8-.1 23.2q-.2 1.7-.4 3.3-.7 5.3-1.4 10.5-.5 3.6-1 7.3-3.3 25.1-7.1 50.2l-.4 2.5q-.3 2.1-.7 4.3c-.6 4.3-.8 8.4-.7 12.7 2.3-2.8 3.9-5.8 5.5-9.1 11.1-23.7 27-46.5 52-56.3 6.1-1.1 12.6-1.9 18.3.7q1.1.8 2.2 1.7c.3 3.7.3 3.7 0 7-11.4 4.9-11.4 4.9-16.7 6.4-21.7 7.2-35.2 34.8-44.9 53.8-11.6 23.2-15.5 43.8-15.6 69.8q-.1 1.9-.1 3.8c-.1 19.6 5.3 36.8 19.1 51.1 4.1 3.8 8.6 6.8 13.3 9.8q.8.6 1.7 1.2c7.3 4.6 14.6 6.8 23 8.6 5.4 1.2 11.9 2.6 15.2 7.5.2 3.2.2 3.2 0 6-4.3 2.7-8.6 2.5-13.4 1.5q-4.2-1-8.3-2c-16.9-3.9-34.9-5.2-50.3 4.1-12.5 8.5-21.3 22.2-26 36.4-.5 4.1-.6 6.2 1.9 9.6 4.1 3.1 9.8 7.4 15.1 7.4.3-1.9.3-1.9.5-3.8 3.3-23.2 3.3-23.2 10.5-30.2 3.9-2.4 7.4-3.5 12-4q-.8 1.8-1.7 3.6c-5.4 12.4-8.4 24.1-10.3 37.4 5.4 1.8 10.3 2.4 15.9 2.6q1.2.1 2.4.1 2.8.2 5.7.3c2-5.2 2.5-10.1 3-15.6 1.9-20.8 1.9-20.8 5-26.4 2.4.3 2.4.3 5 1 2.5 3.8 2.3 7 2.4 11.4 0 1.2 0 1.2.1 2.5q.1 3.9.1 7.8.1 2.6.1 5.3.2 6.5.3 13c31.1-3.9 59.4-13.2 79.9-38.3 1.8-2.5 3.5-5.1 5.1-7.7q.9-1.5 1.9-3c7-12.2 11.1-25.6 15.1-39q.4-1.3.8-2.7c5.3-18.7 5.7-38.5 5.5-57.9q0-5.4 0-10.8c0-18.1-.8-36.1-4.4-53.9q-.3-1.6-.7-3.2c-7.1-34.6-17.1-67.6-32.2-99.5q-.8-1.8-1.7-3.6c-6.8-14.3-13.6-28.6-21.3-42.4q-.7-1.3-1.4-2.5c-9.3-16.6-19.6-32.3-30.2-47.9q-5.4-8-10.7-16-1-1.5-2-3L589 754l-2-3.2c-11.3-18.3-22-37-31.8-56.3q-1-1.8-1.9-3.7-1.9-3.7-3.7-7.3-.8-1.7-1.7-3.3-.7-1.5-1.5-3c-1.3-2.5-1.3-2.5-4.4-3.2-1.8.7-1.8.7-3.6 1.9-1 .6-1 .6-2 1.3q-1.1.7-2.3 1.4c-21 12.8-21 12.8-33.1 12.4q-.5-.5-1-1c.2-5.8 1.9-9.1 6-13 2.7-1.9 5.5-3.6 8.3-5.2 8.2-4.8 16.1-10 23.8-15.5q2.7-1.9 5.4-3.7c9.6-6.7 18.6-14.1 27.5-21.6q1.8-1.5 3.6-3c5.7-4.8 11.4-9.7 16.9-14.7q3-2.8 6.1-5.5 1-.9 2.1-1.8 2.4-2.1 4.9-4.2c11.6-9.1 11.6-9.1 19.2-21.3.5-5.3-.9-10.3-2.1-15.5-1.3-5.7-1.6-11.6-2.1-17.5q-.3-3-.6-5.9-1-10-1.8-20.1-.1-1.2-.2-2.4-.5-6-.9-12c-.7-9.6-.7-9.6-2.3-19.1-3-15 3.7-25.1 11.1-37.7 20.4-34.5 31.3-77 37.1-116.3q.3-2.1.6-4.1c2.1-13.1 2.6-26.3 2.6-39.5q0-2 0-4.1 0-1.9 0-3.8 0-1.8 0-3.5c-.2-2.9-.7-4.6-2.2-7-4.8.5-8.6 2.1-12.8 4.4q-1 .5-2 1c-31.3 17.4-60.5 40.5-86.9 64.6-2 1.8-4.1 3.5-6.1 5.2-6.2 5.4-11.7 11.7-17.2 17.8-3.7-2.1-6.9-4.5-10.2-7.1-17.9-13.4-38.2-19.7-59.8-23.9q-1.5-.3-3-.6c-19-3.6-38.8-4-58-5.4q-1.7-3.5-3.4-7-1.4-3.1-2.9-6.2-3.8-7.8-7.5-15.7c-7.6-16.5-16.4-32.1-26.9-46.9q-2.5-3.5-4.9-7.1c-26.8-41-26.8-41-64.4-69.1z" fill="#02344b"/><path d="M297 176c4.6 1.5 7.9 4.2 11.5 7.3q.9.8 1.8 1.6c9.3 8.1 17.9 16.7 25.5 26.4l7 8.3c8.5 10.2 15.9 21.3 23.2 32.4q2.1 3.2 4.3 6.3c15 21.7 25.7 45.8 36.7 69.7q.8.1 1.7.1c53.9 3.8 53.9 3.8 73.3 8.9q1.3.3 2.6.7c20 5.4 36.4 14.3 52.4 27.3 4.1-3.3 7.7-6.7 11.2-10.7 7.5-8.5 16.1-15.9 25-23q3.7-3.1 7.4-6.2C642.3 272 642.3 272 663 272c2.1 3.5 2.3 6.2 2.3 10.2q0 1.9 0 3.8c0 1.9 0 1.9-.1 3.9q0 1 0 2.1c0 11.7-.6 23.3-2.2 35q-.2 1.4-.4 2.9c-5.1 37-15.4 72.8-30.8 106.9q-.7 1.5-1.3 3.1c-2.4 5.2-4.9 9.9-8.2 14.5-12.6 18.2-9.1 35.2-6 55.9.9 5.6 1.4 11.2 1.8 16.8q.2 2.6.4 5.2l.2 2.7 2.2 23.7q.4 3.8.7 7.7c.3 3.6.3 3.6 1.2 7 .8 4 1.4 7.5-.8 11.3-3.4 4.5-7.6 8.2-11.8 12q-1.8 1.8-3.6 3.5a256.42 256.42 0 0 1-19.3 16.9 128.1 128.1 0 0 0-7.8 6.9c-15.3 14-15.3 14-18.5 14q-.1-1.7-.3-3.5c-1.7-20.5-10.2-35.3-25.6-49.1-17.1-14.3-37.8-19.3-59.6-21.8-6.7-1.1-13.4-3.5-19.5-6.6q.1 1.9.2 3.9c0 7.7-2.4 14.3-7.2 20.2-10 9.3-22.1 9.9-35 9.9l-4 26 9 3c7.9 3.6 14.5 8.4 21 14l2.3 1.9c9.1 7.6 9.1 7.6 10.1 13.8-.4 2.3-.4 2.3-1.4 4-3.2 2.1-6.2 2.7-10 2.3-3.3-1.5-6.1-3.8-9-6-8-6-15.6-11.5-25-15q-1.4-.5-2.9-1.1c-12.5-3.7-24.1.8-35.7 5.6-11.1 4.5-11.1 4.5-16.4 2.5-2.7-2.4-3.9-3.8-4.2-7.4 4.5-9.8 19.5-15 29-18.5C381 615 381 615 392 614l3-26-9-2c-8.5-3.8-16.4-9-20.2-17.8-.9-3.7-1-7.2-.9-11.1q0-1 0-2.1 0-2.5.1-5c-2.7-1.3-4.7-1.1-7.6-1.1q-1.7 0-3.5.1-3.6 0-7.1 0c-1.8.1-1.8.1-3.5.1q-1.6 0-3.2 0c-3.4-.1-6.7-.6-10.1-1.1-23.7-1.5-23.7-1.5-46 5q-1.6.8-3.2 1.6c-11.2 6.1-20.1 13.5-26.8 24.4q-1 1.5-2 3c-11.8-21.8-21.9-44.2-30.9-67.3q-1-2.5-2-5-1.3-3.5-2.7-7-.4-1-.8-2.1c-1.2-3.3-1.7-5.3-.9-8.8.7-1.4.7-1.4 1.3-2.8q.5-1.1 1-2.2c10.2-19.9 21.9-38.8 34.3-57.4q.6-.9 1.2-1.8 6.8-10.2 13.8-20.2.7-.9 1.3-1.7c2.4-3.4 4.9-6.5 7.6-9.6 2.2-2.8 3.2-4.5 2.9-8.2q-.5-1.9-1.1-3.9c-4.8-17.9-4.4-36.7-4.3-55.1q0-1.9 0-3.8c0-19.9.9-39.4 3.3-59.1q.4-3.5.8-7.1c1.7-14.4 4.4-28.5 7.6-42.7q.2-1.2.5-2.5c2.8-12.7 5.9-26.1 12.1-37.7z" fill="#fd8000"/><path d="M312.6 546.7q3.1.1 6.3.1c9.9 0 9.9 0 14.7.7 3.3.5 6.3.6 9.7.5q1.7 0 3.4 0 3.6-.1 7.1-.1 1.7 0 3.5-.1h3.1c2.6.2 2.6.2 5.6 2.2.2 3.2.2 3.2 0 7.2-.2 7.9.8 13.1 6.2 19.3 6.6 5.7 14.5 9.2 22.8 11.5.3 8.8-.3 17.3-2 26-1.6 1.6-3.4 1.1-5.6 1.2-12.3 1-28.8 7.4-37.3 16.9-1.3 1.9-1.3 1.9-1 4.5 1.2 3.1 1.9 4 4.9 5.4 6.8-.4 12.5-2.5 18.8-5q2.7-1.1 5.5-2.2 1.2-.5 2.4-1c10-3.6 20.4-2.6 30 1.5 8.3 4.3 15.8 9.6 23.2 15.2 4.2 3.1 6.9 4.8 12.1 4.5 2.9-1.3 2.9-1.3 5-3-.3-6.3-2.4-9.7-7-14-10.2-8.9-21.2-16.1-34-21-.1-5.7.3-10.8 1.4-16.4l.4-2.1c1.1-5.2 1.1-5.2 2.2-7.5 2.5-.3 2.5-.3 5.8-.4 9.4-.6 19.5-2.8 27.2-8.6 6.4-7.6 8.2-15.3 9-25q1.8.6 3.6 1.3c8.5 2.8 17.2 4.4 26 5.7 20.4 3.2 37.9 9.9 53.4 24l2 1.8c9.3 8.8 18.4 22.2 20 35.2q.2 1.6.4 3.3c.7 9.1.7 9.1-2 13.1-2.3 2.1-4.7 3.9-7.4 5.6q-1.3.9-2.6 1.8-3.8 2.6-7.6 5l-10.5 7-14.1 9.2q-1.1.8-2.3 1.5-2.2 1.4-4.4 2.8c-3.9 2.4-6.9 4.7-9.5 8.7-.9 3.6-.9 3.6-1 7 1.2 1.4 1.2 1.4 4.3 1.4 5.2 0 9.5-2.2 14.2-4.3 2.5-1.1 2.5-1.1 4.5-1.1-2.7 30.6-8.9 59.9-19 89q-.5 1.4-1 2.8c-6 17.4-13.7 33.8-22 50.2q-.6 1.2-1.2 2.5c-6.7 13.5-14.8 26.2-22.6 39q-4.9 8-9.8 15.9-5.3 8.8-10.6 17.5c-11.4 18.4-22.5 37.2-30.7 57.3-2.3 5.8-2.3 5.8-5.1 7.8-3.4.7-3.4.7-7 0-1.3-1.5-1.3-1.5-2.5-3.5q-.6-1.1-1.2-2.2c-2-3.6-3.8-7.1-5.7-10.7-11.7-22.6-25.7-44-39.6-65.2-40.6-62.3-60.2-122.8-60.3-197.5q0-1.7 0-3.4c0-12.3.1-24.4 2.3-36.5l3.4.6 3.6.4c1.3-1.1 1.3-1.1 1.4-4-.1-7.1-5.8-12.5-10.4-17.4-10.1-10.9-18.5-23.4-26.4-35.9q-.9-1.3-1.8-2.7c-3.8-6.1-3.8-6.1-3.9-10.3 5.5-13.7 19.9-21.9 32.5-28.2 9.2-3.8 17.2-4.9 27.2-4.8z" fill="#feeec1"/><path d="M718 1200q1 .5 2 1 1.7 0 3.5 0c4.9-.1 9.3.8 14.1 1.8a23.81 23.81 0 0 1 2.6.5c7 1.5 13.9 3.1 20.8 5.1q3.4 1 6.8 1.9c29.4 8.2 29.4 8.2 37.2 18.6 1.9 4 1.9 7.8 1 12.1-4.6 9.2-14.3 13.7-23.6 16.9-17.9 5.6-36.1 10-54.5 13.5q-1.2.2-2.4.4c-39.1 7.3-78.6 13.2-118.4 16q-2.4.2-4.8.7c-3.3.5-6.6.8-10 1q-.9 0-1.9.1-3.2.2-6.4.4-1.1 0-2.2.1-8.6.5-17.1 1-1.3 0-2.6.1c-47.7 2.6-95.3 2.5-143.1-.2q-1.3-.1-2.6-.1c-47.8-2.6-95.7-7.6-143.1-14.2q-3-.4-6-.8c-74-10.2-74-10.2-90.2-29.1-3.5-4.7-3.8-8.1-3.1-13.8 4.5-9.9 14.8-14.2 24.4-17.8 3.6-1.2 3.6-1.2 9.6-2.2v15q1 .5 2 1 .9 2.3 1.6 4.6c3.6 9.2 10.3 14 19.1 18.1 15.2 6 31.3 7.7 47.5 7.7h2.1c21.7-.1 47.9-1.1 64.3-17 5.3-5.6 9.7-12.8 11.4-20.4 10.2-.1 20.2.3 30.4 1q2.1.1 4.3.3 5.1.3 10.3.7.2 1.1.4 2.2.2 1.5.5 3 .2 1.4.5 2.9c1.7 8.2 5.7 15.5 12.7 20.3 27 15.9 69.1 13.7 98.6 6.7 12.5-3.4 21.1-9.3 28.3-20.1 3.2 1.1 5.8 2.5 8.6 4.4 4.4 2.7 8.8 4.3 13.7 5.8 1.2.4 1.2.4 2.4.7 11.1 3.5 21.6 4.4 33.2 4.4q1.1-.1 2.1-.1c25.2-.1 50.5-2.9 73-15.2q1.4-.7 2.8-1.4c17-8.6 29.9-21.7 40.2-37.6z" fill="#fdeab3"/><path d="M775 810c32.2 19 49.5 55.2 59 90 3.1 12.5 5.1 25 5.3 37.9v2.9c.2 20.2.4 39.7-5.3 59.2q-.4 1.3-.8 2.7c-11.1 36.7-33.9 66.9-65.5 88.4-.8.6-.8.6-1.7 1.2-6.3 4.2-13.2 7.4-20 10.7v-3.7q-.1-7.1-.2-14.2 0-3.2-.1-6.4c-.1-11.4-.5-22.7-2.2-34q-.2-1.3-.4-2.7-.2-1.2-.4-2.5c-3.2-21.6-3.2-21.6.9-27.4 3.1-3.2 6.6-5.4 10.3-7.6 3.8-2.7 6.3-6.3 9-10.1q.8-1 1.7-2.2c4.5-6.2 8.7-12.5 12.4-19.2q.6-1 1.2-2.1c6.1-10.9 11.4-21.8 14.8-33.9q.3-1.1.6-2.3c10.1-38.2 2.9-84.6-16.4-118.7q-.6-1.1-1.3-2.2c-.9-1.8-.9-1.8-.9-3.8z" fill="#fd8100"/><path d="M797.2 80.3c7.8 7.2 13.7 15.9 17.8 25.7q.5 1.1 1 2.3c5.3 15.8 2.6 32.6-4.2 47.3-10.5 20.3-28.5 32.1-48.4 41.9-6.8 3.4-10.5 7.4-13.4 14.5q-.5 3-.9 6c-.8 5.1-1.7 8.1-5.1 12-3.6 2.4-6.2 2.3-10.3 2.3q-1.1-.1-2.1-.1c-18.1-.3-18.1-.3-22.3-3.5-1.6-2.1-1.7-3.3-1.7-6q0-1.2 0-2.5.1-1.3.1-2.7 0-1.4 0-2.7c.3-14.8 3.5-25.6 13.9-36.5 5.9-5.6 12.5-9.4 19.7-13.2 13.2-7.1 25.3-14 31.1-28.5 1.6-9.3.8-15.6-4.4-23.6-6.1-7.5-14.2-11.4-23.8-12.4-11.7-.3-20.1 2.5-29.2 10.4-2.4 2.8-4.6 5.7-6.8 8.5-2.7 3-4.5 4.2-8.4 4.9-6.6.4-11.8-1.2-17.8-3.6q-1.1-.4-2.2-.9c-3.3-1.4-5.4-2.5-7.8-5.2-1.8-4.9-1.5-8.4.4-13.2q.9-1.9 1.9-3.7c.5-1 .5-1 1.1-1.9 6-10.5 14.3-18.7 24.6-24.9q1.3-.8 2.5-1.6c29.4-17.5 69.5-10.6 94.7 10.9z" fill="#013449"/><path d="M402.4 528.6q1 0 2 0c15.3.1 31.3 1.7 43.5 12 5.3 5.6 8.3 12.2 8.5 19.9-.3 8.6-3 16.5-9.4 22.5-11.3 7.1-19.5 8-33 8l-4 26 9 3c7.9 3.6 14.5 8.4 21 14l2.3 1.9c9.1 7.6 9.1 7.6 10.1 13.8-.4 2.3-.4 2.3-1.4 4-3.2 2.1-6.2 2.7-10 2.3-3.3-1.5-6.1-3.8-9-6-8-6-15.6-11.5-25-15q-1.4-.5-2.9-1.1c-12.5-3.7-24.1.8-35.7 5.6-11.1 4.5-11.1 4.5-16.4 2.5-2.7-2.4-3.9-3.8-4.2-7.4 4.5-9.8 19.5-15 29-18.5C381 615 381 615 392 614l3-26-9-2c-8.5-3.8-16.5-9-20.2-17.8-1.8-7.1-2.3-16 .9-22.8 1.1-1.8 1.1-1.8 2.3-3.4q1.1-1.6 2.3-3.2c9-9.2 18.6-10.2 31.1-10.2z" fill="#01344b"/><path d="M523 1187c5.4 5.5 9.1 10.5 9.4 18.4-.1 5.1-.9 10-2.2 15q-.2 1-.4 2c-2 7.3-5.7 12.2-11.8 16.6-4.6 2.5-9.1 3.2-14.3 3.6q-1.6.1-3.2.2-1.2.1-2.5.2c0-1.7 0-1.7.1-3.3q.1-6.2.2-12.3 0-2.7.1-5.4.1-3.8.1-7.6 0-1.2.1-2.4c0-2.5 0-2.5-.6-6-2.5-2.1-3.9-3-7.1-2.9-2.5 1.2-3.4 2.5-4.9 4.9-3 11.9-3 24.9-4 37q-6.4 0-12.7.1h-3.7q-1.7 0-3.5 0-1.6 0-3.3 0c-2.4-.1-4.5-.4-6.8-1.1.4-6 1.5-11.7 2.9-17.6.2-1 .2-1 .5-2.1.8-3.6 1.9-7.1 3.2-10.5 1.2-3.2 1.8-5.1 1.6-8.3q-.1-1.7-.2-3.5c-4.8.4-7.7 2.7-11 6-5.6 8.8-7.8 17.4-8.7 27.7-.3 3.3-.3 3.3-1.3 6.3-7.2-.4-13.6-2.4-18.7-7.8-2.7-4.7-2.1-10-1.3-15.2 5.5-16.4 19.2-29.4 34-37.7 18.7-8.9 53.5-7.4 70 5.7zm-188.8-2.4l1.8 1.4q1.1.7 2.2 1.5c3 4.1 2.3 8.6 2.2 13.6q0 1.5.1 3c-.1 12.2-3.3 20.6-11.7 29.2-7.4 4.5-15.4 5-23.8 5.7.1-1.1.1-1.1.3-2.2q.6-5.1 1.2-10.2.2-1.7.4-3.5c2-11.2 2-11.2.1-22.1-3.3-1.1-3.3-1.1-7-1-3.6 2.4-5.2 4.8-6.2 8.9q-.4 2.6-.8 5.1-.2 1.6-.5 3.2-.5 3.6-1 7.1L289 1241q-5.8 0-11.6.1-1.6 0-3.3 0c-5.4 0-10.7-.1-16.1-1.1 2.1-9.1 4.5-17.7 7.9-26.4 2-5.1 3.3-10.2 4.1-15.6-5.8.9-9 2-12.6 6.8-5.6 8.7-8.3 16.8-9.9 26.9-.5 3.3-.5 3.3-1.5 5.3-6.9-.6-12.3-2.6-17.5-7.2-2.6-4.9-2.1-9.2-.9-14.4 2.4-7.5 6.4-13.4 11.4-19.4q.8-.9 1.5-1.9c21.9-24 66.6-26.9 93.7-9.5z" fill="#fceec3"/><path d="M523 476c7.7 4.6 13.8 11.2 16.4 19.9 1.9 10.1.6 18.4-4.7 27.3-5 7.1-12 13.1-20.7 14.8-9.5 1-17 .5-25-5q-1-.7-2-1.4c-5.6-4.3-9.7-10.6-11-17.6-1.1-11.8.2-20.4 7.6-30.1 10.1-11.2 25.8-14.1 39.4-7.9z" fill="#02344d"/><path d="M362 453c6.6 4.6 11.5 10.4 14 18 .8 12.3.4 21.9-7.6 31.8-5.6 6-12.9 9.7-21.1 10.4-9.7.3-17.6-1.7-24.8-8.5-7-7.8-9-16.3-8.8-26.7 1-9.7 6.2-16.6 13.3-23 2.6-1.7 5.1-2.9 8-4q1.4-.6 2.8-1.3c8.7-2 16.5-1.1 24.2 3.3z" fill="#01344d"/><path d="M732 253c5.7 3 9.9 6.9 12 13 1.4 6.5 1.7 12.3-2 18-5.6 6.4-11.9 9.9-20.4 10.5-6.6-.2-12.4-3.3-17-7.9q-.8-1.3-1.6-2.6-.9-1.3-1.8-2.7c-2.2-5.9-2.2-11.7.4-17.6 6.3-11 18.6-15.7 30.4-10.7z" fill="#023448"/><path d="M332 283c3.7 1.4 4.9 3.1 6.7 6.6q.8 1.4 1.6 2.9.8 1.5 1.6 3.1c5.3 10.1 10.8 19.9 16.6 29.6q.8 1.5 1.7 2.9l1.5 2.5c1.3 2.4 2.3 4.8 3.3 7.4q-1.6.5-3.3.9c-8.2 2.4-16.2 4.9-24.2 8.2-2.5.9-2.5.9-5.5.9-1.9-2.4-3.5-4.7-5.1-7.2q-.7-1-1.4-2c-2.3-3.6-4.1-6.5-4.5-10.8q3.7-1 7.3-2 1-.3 2.1-.6c3-.8 5.5-1.4 8.6-1.4q-.3-1.4-.6-2.9-1.2-5.4-2.4-10.8-.5-2.3-1-4.6-.7-3.3-1.5-6.7-.2-1-.4-2.1c-1-4.7-1.2-9.1-1.1-13.9z" fill="#03344f"/><path d="M618 350q.5 0 1 0c-.3 11.2-9.2 20.9-15.6 29.7q-.6.8-1.2 1.6-1.3 1.8-2.6 3.6c-3.2 4.3-4.4 6.6-3.6 12.1q.8 1.7 1.6 3.4c1.8 4.7 1.9 7.8.4 12.6-2.1 4.2-4.5 8.1-7 12-4-4.7-7.2-9.7-10.5-14.9q-.8-1.3-1.7-2.6c-3.1-4.8-6-9.6-8.8-14.5q.7-.5 1.5-1.1c10.6-8.1 20.6-16.8 30-26.4 3.5-3.5 7.1-6.9 10.9-10.1 1.4-1.2 2.7-2.5 4-3.8q.8-.8 1.6-1.6z" fill="#02354e"/><path d="M559 1113q1 0 2 0 .6 1.6 1.1 3.1c5.5 15 11.2 27.7 23.9 37.9q0 1 0 2-1.4.5-2.9 1.1c-8.2 3-15.2 6.4-22.1 11.9-.9.7-.9.7-1.9 1.4-2.5 2.1-4.3 3.9-6.1 6.6q-1 0-2 0c1.1-13.3 2.8-26.6 4.6-39.9q.1-1.2.3-2.5.5-3.7 1-7.4.1-1.1.3-2.2.8-6 1.8-12z" fill="#fa8501"/><path d="M546.7 428.2c10.2 7.1 10.2 7.1 13.3 11.8.2 3.6.2 3.6 0 7-2 2-2 2-4.5 2.5-5-.7-8.5-3.1-12.8-5.7-10.1-6.3-19.6-10.1-31.4-12.2-4.7-1-7.7-2.1-11.3-5.6.7-4.7.7-4.7 3-7 13-4.2 32.7 1.9 43.7 9.2z" fill="#053251"/><path d="M375.8 399c2.5 2.3 2.9 3.6 3.2 7-2.2 2.4-3.9 4-7.2 4.1-3.5-.4-6.5-1-9.8-2.1-13.6-1.1-24.2 1.8-36.7 6.9-3.4 1.1-5 1.2-8.3.1-.5-2.8-.7-4.3 0-7 6.8-9.1 18.7-12.9 29.6-14.7 10.1-1.2 20.6-.4 29.2 5.7z" fill="#02374d"/><path d="M462 1017q.5 0 1 0c.9 20.7 1.1 41.4 1 62.1q0 1.9 0 3.9 0 17.3-.1 34.5 0 11.2-.1 22.3 0 3.8 0 7.6 0 5.3 0 10.6v3.2q0 1.4 0 2.9 0 1.2 0 2.5c.2 2.8 1.2 4.9 2.2 7.4q0 1.5 0 3 1 .5 2 1-1.5 0-3 0c-4.8-7.4-4.5-14.3-4.4-23q.1-2.2.1-4.5 0-6.1.1-12.2.1-6.4.1-12.8.1-12.1.3-24.2.1-13.8.2-27.6.3-28.3.6-56.7z" fill="#eb9206"/><path d="M449 941c9-.4 9-.4 13.1 1.2 2.9 2.8 2.9 5.7 3 9.6v3.2q0 1.7 0 3.6 0 1.8 0 3.8 0 1.9 0 3.9 0 5.2 0 10.4 0 5.3-.1 10.6 0 10.3 0 20.7c-2.3-3.4-2.3-4.6-2.3-8.6q0-1.7 0-3.5 0-1.8 0-3.7 0-4 0-7.9-.1-6.2-.1-12.4 0-6-.1-11.9 0-1.9.1-3.8-.1-1.7-.1-3.5 0-1.5 0-3c-.6-3.4-1.8-4.6-4.5-6.7-3.1-.3-3.1-.3-6 1-3.7 5.5-4.1 11.7-4.4 18.2q-.1 1.8-.2 3.6-.1 1.9-.2 3.9-.1 2-.2 4-.2 5.3-.5 10.5-.2 5.4-.5 10.8-.5 10.5-1 21-.5 0-1 0c-.2-17.2-.2-34.4.8-51.6q.1-1.9.2-4c.5-6.9 1.4-12.9 4-19.4z" fill="#f59801"/><path d="M356 1050q.5 0 1 0 .4 14.5.8 28.9.2 6.7.3 13.4l1 53.1q0 1.8 0 3.7c0 9-.4 17.9-1.1 26.9q-.5 0-1 0-.4-16.7-.8-33.5-.2-7.8-.3-15.5-.2-7.6-.4-15.1-.1-2.8-.1-5.7c-.8-32.2-.8-32.2.1-47.3.1-1.3.1-1.3.1-2.7q.2-3.1.4-6.2z" fill="#eb8f06"/><path d="M232 456q1 0 2 0c-1.5 5.2-3.9 9.4-6.7 14q-1.3 2.3-2.7 4.5-1.9 3.3-3.8 6.5-1.6 2.7-3.1 5.4-.9 1.6-1.8 3.2c-1.3 5.1.3 8.5 2.1 13.4q.6 1.7 1.2 3.4 2.2 6.1 4.5 12.1.4 1.1.8 2.2c5.2 13.6 11.1 26.7 17.6 39.7q.5 1 1 2.1.9 1.9 1.9 3.8c2.1 4.4 2.1 4.4 1 7.7-8-15.8-15.6-31.5-22-48q-.6-1.6-1.3-3.3-1.2-3.1-2.4-6.3-1.4-3.8-3-7.5-.8-2.1-1.7-4.3-.4-1-.8-2c-2.4-6.1-1.8-10.3.7-16.3q1-1.9 2-3.8.5-1 1.1-2.1c2.9-5.7 6.1-11.2 9.5-16.6 1.6-2.6 2.9-4.9 3.9-7.8z" fill="#0d205f"/><path d="M242 778c2 2 2 2 2.1 4.2q-.2 1.3-.3 2.6-.1 1.5-.3 3l-.3 3.1q-.2 1.5-.3 3.1-.3 2.8-.6 5.7-.1 1.6-.3 3.3-.1 1.1-.3 2.3c-.7 7.2-.8 14.3-.8 21.5q0 3.1 0 6.2.1 6.6.1 13.3 0 7.6.1 15.3 0 3.1 0 6.1 0 1.9 0 3.8 0 1.6 0 3.3c-.1 3.5-.6 6.8-1.1 10.2q-.5 0-1 0c-.8-12.9-1.2-25.7-1.2-38.6q0-1.3 0-2.7c0-12.3.3-24.6 1.1-36.9l.2-3.9c.6-8.4 1.6-16.6 2.9-24.9z" fill="#e59008"/><path d="M745 1039q.5 0 1 0c2.5 14 2.1 28.4 2.1 42.5q0 2.7-.1 5.4 0 6.6 0 13.1 1.1-1 2.3-1.9c2.9-2.3 5.3-3 8.7-4.1q3.2-1.9 6.3-4.1.8-.4 1.7-.9 1 .5 2 1-3.8 2.4-7.6 4.8-1 .7-2.1 1.4l-2.1 1.3c-1 .6-1 .6-1.9 1.2-3 1.7-6.1 3-9.3 4.3v-1.7q-.2-8.7-.4-17.5 0-3.3-.1-6.5c-.2-11.6-.5-23.1-1.4-34.6q0-1.3-.1-2.7.5-.5 1-1z" fill="#eb9004"/><path d="M613 790c3.2 3.9 6.1 8 9 12.1q.7 1 1.4 2.1c4.3 6.3 8.4 12.7 12.4 19.2 3.6 5.8 7.5 11.3 11.9 16.6 1.3 2 1.3 2 1.3 5q1 0 2 0 .5.9 1 1.8c2.4 4.6 4.9 9.1 7.6 13.6q.7 1.1 1.3 2.3 1.4 2.2 2.8 4.5.6 1 1.2 2.1.6.9 1.2 1.9c.9 1.9 1.5 3.7 1.9 5.8-4.5-3.8-6.8-8.8-9.5-13.9-7.5-13.7-16.2-26.5-25-39.4l-11.6-17.4q-2-2.9-3.9-5.8c-5-7.5-5-7.5-5-10.5z" fill="#10225c"/><path d="M775 810c22 13 38.6 35.5 48 59l-2 1q-.7-1.5-1.5-3.1c-6.2-12.8-13.2-24.1-22.5-34.9q-1.2-1.4-2.4-2.8c-3.9-4.4-7.4-8.3-12.6-11.2q.4 1.3.9 2.6c1.1 3.4 2.1 6.9 3.1 10.4-2.2-2.1-3.7-4-5-6.7q-.6-1.1-1.1-2.2-.5-1-1.1-2.2-.5-1.1-1.1-2.2c-2.7-5.4-2.7-5.4-2.7-7.7z" fill="#ed9905"/><path d="M574 1080q.5 0 1 0 0 1.4.1 2.8c.9 22 5.2 43.7 22 59.3 8.1 6.5 17.2 12.1 26.9 15.9-2.4.9-3.7 1.1-6.1.3-18.7-9.6-34.4-22.7-41.2-43.4-3-11.6-2.9-23.1-2.7-34.9z" fill="#0b215e"/><path d="M358 467c1.9 1.1 1.9 1.1 3 3 .4 3.5.4 3.5 0 7-2.2 2.7-3.6 2.9-7.1 3.4-2.9-.4-2.9-.4-4.8-2-1.4-3.1-1.5-5.1-1.1-8.4 2.3-4 5.8-3.5 10-3z" fill="#f7f9f6"/><path d="M516.9 490.6c3 .1 3.8.1 6.1 2.1 1.2 2.8 1.5 4.3 1 7.3-1.6 2.4-1.6 2.4-4 4-6.2-.2-6.2-.2-9-3-.3-1.9-.3-1.9-.2-4q-.1-1-.1-2.1c.6-4 2.5-3.9 6.2-4.3z" fill="#f1f5f3"/></svg>