<svg xmlns="http://www.w3.org/2000/svg" width="1024" height="1024" xmlns:v="https://vecta.io/nano"><path fill-rule="evenodd" d="M231.8 146.7q6.1 0 12.1 0 11.4 0 22.8.1 13 0 26.1 0 28.1.1 56.2.2c.1 1.2.1 1.2-1.1 2.7-14.1 20.4-23.6 43.7-29.3 67.7q-.3 1.3-.6 2.6c-3 12.4-3.3 24.8-3.3 37.6v2.7c0 7.3-.1 14.7.5 22 5 49.4 29.7 98 68.1 129.7 41.3 33.4 91.9 52.9 145.5 47.4q1.6-.2 3.2-.4c27.9-3.4 53.1-11 77.7-24.7q1.2-.7 2.3-1.3c16.4-9.2 30.4-20.6 43.3-34.2q.9-.9 1.7-1.8c23.6-24.8 40.4-55.3 48.2-88.8l.6-2.9c3.1-13.9 4.5-27.9 4.4-42.2q0-3.5 0-7c0-33.2-9-64.5-25.9-93.2q-2-3.4-4.1-6.9l-1.8-3.2q-1.7-2.9-3.4-5.8 26.7-.1 53.4-.1 13 0 26 0 11.4-.1 22.8-.1 6.1 0 12.1 0 5.8 0 11.5 0 2.2 0 4.3 0c14.8-.1 28.9 1.3 42.9 6.2 23.6 9.2 43.8 26.8 54.7 49.9q.6 1.6 1.3 3.1c7.4 16.6 8.4 32.5 8.4 50.4q0 3.7 0 7.3 0 9.1 0 18.1 0 12.1 0 24.2 0 20.4 0 40.8-.1 20.3-.1 40.6v2.5q0 5.1 0 10.3 0 46.6 0 93.3-.1 44.1-.1 88.2 0 1.4 0 2.7 0 5.5 0 11 0 2.7 0 5.5 0 2.7 0 5.4 0 43.5 0 87 0 12.7 0 25.4 0 26.8 0 53.6 0 11.2 0 22.3 0 9.2-.1 18.5 0 3.8 0 7.5 0 5.2 0 10.4 0 1.6 0 3.2c0 9.6-.3 19-2.4 28.5q-.2 1-.5 2.1c-5.8 25.4-17.5 47-36.6 64.8L871 931c-10 9.2-21.4 15.9-34 21-1.2.4-1.2.4-2.4.9-15.5 6.1-32.1 6.5-48.6 6.5q-3.5 0-7 0-8.7 0-17.4 0-11.7 0-23.3 0-20.9 0-41.7 0-18.4 0-36.7 0h-2.4q-5 0-9.9 0-46.3 0-92.6 0-41.2 0-82.3 0-46.4 0-92.8 0-4.9 0-9.9 0h-2.5q-18.3 0-36.6 0-21 0-42 0-11.7 0-23.4 0-7.9 0-15.8 0-3.6 0-7.3 0c-35.9.1-68.3-7.2-94.7-33.2-26.6-27.4-36.5-61.2-36.3-98.9q0-3.7 0-7.4-.1-9.1 0-18.3 0-12.2 0-24.3 0-20.6 0-41.2 0-20.4 0-40.8 0-1.3 0-2.6 0-5.2 0-10.3.1-48.4.1-96.9.1-43 .1-86.1 0-1.4 0-2.8 0-4.1 0-8.3 0-5.5 0-11 0-1.4 0-2.7 0-42.6 0-85.2 0-14.1 0-28.2 0-1.3 0-2.5 0-1.3 0-2.6 0-24.5.1-48.9 0-12.3 0-24.6 0-8.2 0-16.5 0-3.8 0-7.6 0-5.2 0-10.4 0-1.6 0-3.2c0-12.9 2.4-24.9 7.3-36.9 11.3-24.7 30.6-44.8 56.2-54.5q1.1-.4 2.1-.8c26.8-6.4 26.8-6.4 54.5-6z" fill="#fece00"/><path d="M627 99q1.4 1 2.9 2.1c7.4 5.3 14.1 11.2 20.6 17.5q2.1 1.9 4.2 3.9c31.7 30.6 55.1 77.8 56.4 122.3q.1 5.7.1 11.3 0 3.5 0 7c.1 14.3-1.3 28.3-4.4 42.2l-.6 2.9c-7.8 33.5-24.6 64-48.2 88.8q-.9.9-1.8 1.9c-13.3 13.9-27.4 25.7-44.2 35.1q-1.1.6-2.3 1.3C585.1 449 559.9 456.6 532 460q-1.6.2-3.2.4c-53.6 5.5-104.2-14-145.5-47.3-38.8-32.1-64.1-80.8-69.1-130.8-.6-7.3-.5-14.7-.5-22q0-1.4 0-2.7c0-12.8.3-25.2 3.3-37.6l.6-2.6c12-50.7 42.6-95.5 86.8-123.6q3.3-1.9 6.6-3.8 1-.6 2.1-1.2C479.5 51.4 564.6 54.1 627 99z" fill="#f4f5f6"/><path d="M556 651c9.6 7.7 17.5 16.6 24.4 26.9 9.1 13.7 20.7 25 33.9 34.9 10.8 8.1 21.9 17.3 28.7 29.2q.8 1.3 1.6 2.7c8.1 14.8 11.1 32.3 7.2 48.8-5.6 18.3-14.6 31.9-31.3 41.7-21.5 11.1-47.6 10.5-70.3 3.5-4.1-1.3-8.1-2.9-12.1-4.6-22.4-8.2-45.8-4.7-67.4 3.7-8.2 3.3-16.9 5.7-25.7 6.2q-1.7.1-3.4.2c-19.1.6-36.6-4.5-51-17.3-12.6-12-19.6-27.1-20.1-44.5-.1-10.7.2-20.5 4.5-30.4q.4-.9.8-1.8c4.3-9.7 10.1-17.2 17.7-24.7q1.6-1.6 3.2-3.2c4-4.2 8.3-7.7 13-11 13.5-10 24.3-21 33.7-34.8 8.7-12.7 18.8-24.2 32.6-31.5q1.2-.7 2.5-1.4c24.1-12.3 55.9-7.8 77.5 7.4z" fill="#faa200"/><path d="M627 99q1.4 1 2.9 2.1c7.4 5.3 14.1 11.2 20.6 17.5q2.1 1.9 4.2 3.9c31.7 30.6 55.1 77.8 56.4 122.3q.1 5.7.1 11.3 0 3.5 0 7c.1 14.3-1.3 28.3-4.4 42.2l-.6 2.9c-7.8 33.5-24.6 64-48.2 88.8q-.9.9-1.8 1.9c-13.3 13.9-27.4 25.7-44.2 35.1q-1.1.6-2.3 1.3C585.1 449 559.9 456.6 532 460q-1.6.2-3.2.4c-53.6 5.5-104.2-14-145.5-47.3-38.8-32.1-64.1-80.8-69.1-130.8-.6-7.3-.5-14.7-.5-22q0-1.4 0-2.7c0-12.8.3-25.2 3.3-37.6l.6-2.6c12-50.7 42.6-95.5 86.8-123.6q3.3-1.9 6.6-3.8 1-.6 2.1-1.2C479.5 51.4 564.6 54.1 627 99zm-156-1q-1.2.3-2.4.6c-41.1 10.2-79.1 38.3-101.2 74.5-2.2 3.9-4.3 7.9-6.4 11.9q-.5.9-.9 1.8c-20.8 39.9-21.6 85.9-8.5 128.2 5.7 17.7 14.9 34.5 26.4 49q.6.8 1.3 1.7c22.4 27.9 52.8 50 87.7 59.3q1.2.3 2.5.7c14.1 3.8 27.8 4.8 42.4 4.8q1.3 0 2.5 0c15.4 0 30.3-1.8 45.1-6.2q1.3-.4 2.6-.8c9-2.7 17.5-6.4 25.9-10.5q1-.5 2-1c12.9-6.3 24.3-14.2 34.8-24 1.9-1.8 3.9-3.4 5.9-5.1 3.8-3.3 7.1-7 10.3-10.9q1.1-1.4 2.3-2.8c28.8-36.1 42.2-81.5 37-127.5-6.7-44.8-27.9-84.5-63.5-112.9-31.1-23-67.2-35.3-105.9-35.2q-1 0-2.1 0c-12.9.1-25.2 1.3-37.8 4.4z" fill="#b0bbcc"/><path d="M112 816q.5 0 1 0 0 .8 0 1.7c.3 12 1.1 22.8 5 34.3q.5 1.6 1.1 3.3c7.8 22.4 25.4 43.2 46.9 53.7q4.3 1.9 8.8 3.7c1 .4 1 .4 2.1.9 15.3 5.9 30.2 5.8 46.4 5.8q3.9 0 7.8 0 8.4 0 16.8 0 12.5 0 25 0 22.3 0 44.6 0 19.6 0 39.1 0h2.6q5.3 0 10.6 0 49.3 0 98.7 0 43.8 0 87.7 0 49.3 0 98.5 0 5.3 0 10.6 0 1.2 0 2.6 0 19.5 0 39 0 22.2 0 44.4 0 12.4 0 24.8 0 9.3 0 18.6 0 3.8 0 7.5 0c28.4.1 54-5.2 74.9-25.7 1.9-1.7 1.9-1.7 3.9-1.7q0-1 0-2 1 0 2 0 .4-.8.7-1.7c1.6-2.8 3.5-5 5.5-7.4 14.1-17.1 20.5-37 21.8-58.9q.5 0 1 0c.6 37.2-5.6 72-32 99.9q-2 2.1-4 4.1l-2 2.2c-18.1 19.3-46.5 30.1-72.5 31.1l-18.9.1q-3.6 0-7.3 0-7.9 0-15.7 0-11.8 0-23.5 0-20.9 0-41.9 0-18.3 0-36.6 0-2.5 0-5 0-3.7 0-7.4 0-34.5.1-69 .1-1.3 0-2.6 0-10.5-.1-21.1-.1-41.1 0-82.3.1-46.2 0-92.5 0-4.9 0-9.9 0-1.2 0-2.4 0-18.3 0-36.6 0-20.9 0-41.7 0-11.7 0-23.3 0-8.7 0-17.4 0-3.6 0-7.1 0c-36.3.2-67.1-9.7-93.5-35.2-14.4-14.5-24.5-33.7-29.8-53.3q-.3-1.1-.6-2.2c-4.6-17.3-3.8-35-3.4-52.8z" fill="#faa200"/><path d="M604 507.9c12 8.4 18.3 19 21.5 33.2.3 2 .4 3.9.5 5.9q.1 1.4.2 2.9c.5 19.3-5.8 37.9-18.3 52.6-5.3 5.6-11.1 9.8-17.9 13.5q-1.2.7-2.4 1.3c-6.4 2.9-12.8 3.1-19.7 3.2q-1.3 0-2.8.1c-10.7-.1-19.4-4.2-27.1-11.6-11.1-12.9-12.9-27.9-12.2-44.3 1.6-20.4 11.6-37.5 26.6-50.9 14.8-11.9 34.7-15.7 51.6-5.9zm-142-.9c3.5 2.1 6.8 4.5 10 7q.9.7 1.9 1.3c12.7 9.8 20.3 27.4 23.1 42.7.4 4.3.5 8.6.4 13q.1 1.6.1 3.3c0 13.2-4.5 24.8-13.3 34.8-10 9.4-21.5 11.4-34.6 11.2-12.7-.5-24.3-8.1-32.8-17.1-14.1-17.1-19.7-38.3-17.8-60.2 1.7-11.4 7.3-23.3 16-31 13.5-10 31.6-13.5 47-5z" fill="#f9a200"/><path d="M368 591q1.3.6 2.7 1.3c16.1 7.9 27 22.1 33.3 38.7 4.6 14.4 4.6 28.9-2.3 42.6-6 9.7-14 14.9-24.7 18.4-13.9 2.8-27.7.6-39.6-7.3-12.2-9-20.3-19.4-25.4-33.7q-.5-1.4-1.1-2.9c-4.1-13.6-3.2-29 3.5-41.5 4.7-7.5 10.7-13.7 18.6-17.6q1.1-.5 2.2-1.1c10.3-3.3 23.3-1.7 32.8 3.1zm330.7 1.9c8.1 6.7 13 14.9 15.3 25.1 1.5 18.7-.5 36.5-12.1 51.8a117.28 117.28 0 0 1-6.9 7.2c-1 1.1-1 1.1-2.1 2.2-10.1 9.7-22.6 13.7-36.3 14.2-11.7-.2-20.2-4.2-28.5-12.2-10-10.7-10.7-22.5-10.4-36.5.6-16.9 10-30.8 21.8-42.3 15.5-14.2 40.4-22.7 59.2-9.5z" fill="#faa200"/><path d="M512 191.4c3.7.7 4.6 1.8 7 4.6.8 2.4.8 2.4 1.2 5q.2 1.5.5 3.1.2 1.6.4 3.2.3 1.7.6 3.4.5 3.5 1 7.1.8 5.4 1.7 10.7.5 3.5 1 6.9.2 1.6.5 3.2c.7 4.9 1.3 9.5 1.1 14.4q1 .2 2.1.5c7.8 4 12.2 12.4 14.9 20.5.9 10.9-.5 20.1-7.5 28.8-6.7 7-15.9 11.2-25.6 11.5-9.6-.2-16.9-4.2-23.7-10.8-6.6-7.6-8.6-15.6-8.5-25.3.8-9.7 6.1-16.9 13.3-23.2q2.5-1.1 5-2 .1-.9.1-1.8c.7-10 2.2-19.8 3.7-29.6q.7-4.6 1.4-9.1.5-2.9.9-5.8l.4-2.7c.9-5.8 2-11.3 8.5-12.6z" fill="#61727d"/><path d="M611.7 161.1c3.3.9 3.3.9 5.3 2.9.5 4 .4 6.3-1.7 9.8-2.4 2.8-4.8 5.5-7.3 8.2q-1.1 1.2-2.1 2.5c-3.3 3.5-4.9 5.3-9.7 6.2-3.2-.7-3.2-.7-5.1-1.8-1.8-3.1-1.5-5.3-1.1-8.9 1.7-2.7 3.9-4.9 6.2-7.1q.9-.9 1.7-1.8 1.7-1.8 3.5-3.5c1.5-1.5 2.9-3 4.3-4.5 2.3-2.1 2.3-2.1 6-2zM416 161c2.4 2.1 2.4 2.1 5 5q1.7 1.7 3.4 3.4 1.8 1.8 3.6 3.6.9.9 1.8 1.8c2.9 3.1 4.1 4.6 4.8 8.9-.6 3.3-.6 3.3-1.7 5.2-3.4 1.9-5.1 1.8-8.9 1.1-3.4-2.6-6.2-5.7-9-9q-1.2-1.3-2.4-2.6c-6.1-7-6.1-7-6.3-11.3.7-3.1.7-3.1 2.4-5 2.8-1.3 4.2-1.7 7.3-1.1z" fill="#586a76"/><path d="M516 122c1.7 1.2 1.7 1.2 3 3 .6 4.3.5 8.6.4 12.9q.1 1.8.1 3.7 0 1.7 0 3.4 0 1.6 0 3.2c-.6 3.5-1.7 4.7-4.5 6.8-3.1.4-5 .7-7.7-1.1-1.9-2.7-1.7-4.7-1.7-8q0-1.8 0-3.6 0-1.9 0-3.8 0-1.9 0-3.8 0-1.8 0-3.6 0-1.6 0-3.3c.4-2.8.4-2.8 1.7-4.7 2.9-1.9 5.4-1.5 8.7-1.1z" fill="#576a76"/></svg>