<svg xmlns="http://www.w3.org/2000/svg" width="1024" height="1536" xmlns:v="https://vecta.io/nano"><path d="M365.3 297.6c10.9 7.1 20.9 14.9 30.7 23.4q1.1 1 2.2 1.9 2.9 2.6 5.8 5.1 1 .9 2.1 1.9c6.6 5.8 12.8 11.8 19 18q2.4 2.5 4.9 4.9c5.1 5.1 10.1 10.2 14.6 15.8 1.5 1.7 1.5 1.7 4.4 2.4 2.6-.5 5.1-1.1 7.6-1.8 39.2-9.1 80.5-6.8 119.4 2.8q.4-.9.8-1.8c1.3-2.4 2.8-4 4.7-6q1.1-1.1 2.2-2.2 1.2-1.2 2.4-2.4 1.2-1.2 2.5-2.5 2.6-2.6 5.2-5.1 3.9-4 7.8-7.9c15-15 15-15 23.1-21.3 2.3-1.8 4.4-3.6 6.5-5.5 15-13.2 38.8-32.3 59.9-32.9 7.4.6 13.4 3 18.9 8.1 10.1 12.4 13.1 28.2 15.1 43.6q.3 1.8.5 3.6c2.1 15 2.6 30 2.6 45.1q0 1.1 0 2.3c-.1 24.6-1.2 49.1-5 73.5-1.3 8.9-.9 15.2 2.6 23.6 3.7 9.3 5.6 18.9 7.2 28.8.3 1.5.3 1.5.5 3.1.6 4.9.6 9.8.6 14.7v3.2q0 3.2 0 6.5 0 4.9 0 9.9 0 3.2 0 6.4 0 1.4 0 2.9c0 6.2-.4 12.2-1.1 18.3q.9.1 1.9.1c10.5.8 20.9 1.8 31.2 3.7q1.3.2 2.6.4c3.9.8 5.9 1.4 8.9 4.2 1.4 2.6 1.4 2.6 1.3 5.7-.9 2.9-1.8 4.7-3.9 6.9-5.3 1.8-10.6 1-16.1.1-9.9-1.5-19.9-2.3-29.9-3.1q-.2 1.3-.4 2.6c-2.1 11.7-5.3 23.7-10.6 34.4q1.5.2 3.1.4c3.7.6 6.7 1.5 10.2 2.9q1.7.7 3.5 1.5 1.8.7 3.6 1.4 1.8.8 3.6 1.5c14.7 6 14.7 6 19 10.3.5 4.4.5 6.3-2.2 9.9-2.9 2.2-4.2 2.8-7.8 3.1-3-.8-3-.8-6.3-2.2q-1.8-.7-3.6-1.4-1.9-.8-3.8-1.6-1.8-.7-3.7-1.5-6.8-2.7-13.6-5.6-1.3-.5-2.7-1.1c-1.2-.4-1.2-.4-2.3-.9-2.1-.9-2.1-.9-5-.7-1.4 1.5-1.4 1.5-2.5 3.5q-.7 1.1-1.5 2.2-.7 1.2-1.5 2.5c-7.6 11.8-16.6 22-26.2 32.2-1.9 2.2-3.6 4.3-5.3 6.6q.5 1 1 2c19.2 38.3 31.6 77.6 37.7 120 .2 1.1.2 1.1.3 2.3 1.8 12.3 3 24.4 3 36.8q0 4.2.1 8.4 0 2.8-.1 5.7c-.5 10.7-.5 10.7 2.7 20.5 2 1.7 4 3 6.3 4.3 3.2 3.5 6.1 7.2 9 11q.9 1.2 1.9 2.4c10.9 14.7 19 35.2 19.1 53.6 14.6-30.1 10.7-62.3 1.1-93.3-10.4-33.7-9.2-71.1 6.9-102.7q.7-1.4 1.4-2.9c3.5-6.7 7.6-12.4 12.6-18.1q.8-.9 1.6-1.9c7.6-8.3 19-15.8 30.4-17.1 8.3-.2 16.5.9 22.8 6.6 6 6.7 6.8 13 6.6 21.7-.5 5.1-2.3 7.8-5.4 11.7-7.3 10.8-7.4 24.3-7.4 36.8v3.7c.2 11.2 2 21.7 5 32.5l.8 2.8q2.3 8.1 4.7 16.3c9.8 33.7 15.2 71.2 6.9 105.9q-.3 1.2-.6 2.5c-10.5 43.2-35.7 83.2-73.8 107-7.7 4.6-15.6 8.7-23.7 12.6q-2.8 1.3-5.5 2.7c-1.6.9-1.6.9-3.3 1.7q-1.4.7-2.8 1.5c-2.3 1-2.3 1-4.3 1q0 1 0 2 .9.4 1.7.8c8.1 4.3 12.5 11.8 16.7 19.6q.6 1.2 1.2 2.4c7.6 14.9 8.5 29.1 3.5 44.9-2.9 8.6-8.3 12.3-16.1 16.3-14 6.4-28.6 6.3-43.7 6.3q-4.5-.1-9.1 0c-11.5 0-22.8-.6-34.2-2.3q-.4 1.4-.9 2.8c-2.6 7.6-7.2 11.6-14.1 15.2-10.2 3.8-20.8 4.2-31.6 4.2q-1.6 0-3.3 0-3.5 0-6.9 0-5.2.1-10.5.1-3.3 0-6.7 0-1.5 0-3.1.1c-12.6-.1-24.8-3.1-34.3-11.7-5.1-5.4-6.5-9.3-7.6-16.7h-35l-1 7c-2.4 6.5-6.7 11.2-12.8 14.5-14.5 6.3-29.1 6.7-44.6 6.7h-2.5c-38.5-.1-38.5-.1-51.1-10.2-3.6-3.7-4.7-7-6-12l-3.4.4c-11.4 1.4-22.7 1.9-34.2 1.9q-4-.1-8.1 0c-19.1 0-39.1-.5-53.6-14.5-2.6-4.3-4.2-9-5.7-13.8q-.3-.9-.6-1.8c-2.8-15.3.6-30.1 8.6-43.2 5.5-7.8 12.1-15.9 21-20-1.3-2.8-2.8-5.3-4.6-7.8-25.7-37.1-35.3-85.3-27.8-129.9 4.7-24.8 16.3-47.4 35.4-64.3q1-.5 2.1-1c3-3.1 2.5-6.8 2.6-10.9q0-1.3.1-2.7.1-2.9.1-5.9l.5-15.4.2-3.1c2.1-51.4 12.8-109 40.6-153 1-2 1-2 .1-4.1-1.9-2.8-4.3-5-6.7-7.3-9-8.7-16.3-18.4-23.2-28.7q-.7-1-1.3-1.9c-2-3-3.4-5.5-4.1-9-1.8.7-1.8.7-3.7 1.5q-6.7 2.7-13.4 5.4-2.9 1.2-5.9 2.3-4.1 1.7-8.3 3.4-1.3.5-2.7 1.1c-5 2-8.5 2.8-14 1.3-2.8-2.3-3-3.8-3.5-7.4.6-4.6 2.1-5.6 5.5-8.6 7.5-4.6 15.9-7.9 24.1-10.9l2.5-1q1.2-.4 2.3-.8c1.1-.4 1.1-.4 2.1-.8 2-.5 2-.5 6-.5q-.6-1.5-1.1-3.1c-3-8-5.6-16-7.8-24.3q-.3-1.3-.6-2.5c-1.5-5.8-1.5-5.8-1.5-8.1q-1 .5-2 1-2.8.4-5.6.7-1.7.2-3.5.4-7.3.8-14.6 1.6-4 .4-8 .9-1.8.1-3.7.3-1.5.2-3 .4c-3.6-.4-5.1-1.8-7.6-4.3-1.1-3.4-1.1-3.4-1-7 2.1-3.6 3.5-5.5 7.4-6.8 2.9-.7 5.9-1.1 8.8-1.5q1.6-.2 3.3-.5c8.8-1.3 17.6-2 26.5-2.2q-.2-.7-.5-1.5c-6.3-29.7-3.9-71.5 10.2-98.9 1.8-5.1 1.1-9.3.3-14.6q-.3-2.8-.7-5.6-.2-1.4-.4-2.9c-15.2-122-15.2-122 12.5-160.6 14.8-17.4 37.2-6.3 52.9 3.7z" fill="#a1bdbc"/><path d="M365 707q.8.5 1.7 1.1c33.2 22.2 66.8 35.3 106.3 41.9q1 .2 2.1.4c36.5 5.9 75.6 1.4 110.9-8.4q1.1-.3 2.3-.6c23.8-6.6 45.9-17.9 65.8-32.4 2.9-2 2.9-2 4.9-2 18 37.8 29.4 75.4 35.7 116.6.2 1.2.2 1.2.3 2.4 1.6 10.1 2.1 20.2 2.2 30.5q.1 3.2.1 6.4.1 4.9.2 9.9 0 4.8.1 9.6v3c.2 7.7.2 7.7 3.8 14.4.9.7.9.7 1.7 1.5q.9.9 1.9 1.8.9.9 1.9 1.8c4.3 4.1 7.9 8 11.1 13.1q1.4 1.6 2.9 3.1c17.7 20.6 18.5 55.2 16.7 80.9-2.3 27.4-10.7 55.4-26.6 78q-.6.8-1.2 1.6c-2.8 2.1-5.7 1.7-9.1 1.6q-2.2-.1-4.5-.1-3.4-.1-6.9-.2-3.3-.1-6.7-.2-1 0-2.1-.1c-3.5 0-5.4.3-8.4 2.2-2.9 3-3 5.1-3.1 9.2 1.1 3.4 1.9 3.9 5 6 2.2.4 2.2.4 4.5.5q1.4 0 2.8.1l2.9.2c15.1 1.2 29.9 4.4 40.8 15.6 8.7 11.1 10.8 22.8 10 36.6-.6 3.2-1.1 4.3-3 7-4 2.3-6.4 3-11 3q-.1-1.5-.1-3.1c0-14.5 0-14.5-5.8-26.7-2.9-1.7-4.8-1.7-8.1-1.2-2.3 1.5-2.3 1.5-4 4-.6 3.3-.6 3.3-.4 7q0 .9 0 2 .1 3.1.2 6.2 0 2.2 0 4.3.1 5.3.2 10.5h-15q-.2-2.4-.4-4.8-.2-3.1-.5-6.3-.1-1.5-.2-3.1c-.5-9.5-.5-9.5-4.6-17.7-3.1-1.5-5-1.6-8.3-1.1-2.6 1.2-2.6 1.2-4 4-.5 3.3-.2 6.6 0 10q.1 2.4.2 4.9.4 7 .8 14.1c-7.7.1-15.4.2-23-1-1.8-1.8-1.8-4.8-2.2-7.3-3-13.9-9.3-26.3-18.6-37-.7-.8-.7-.8-1.4-1.7q-1.9-2.2-3.9-4.4c-5-7.5-1.7-21.4-1-30q.1-1.9.2-3.8.5-5.9.9-11.8.1-1.8.3-3.7.7-9.5 1.4-19 3.3-43.2 6-86.4.3-4 .5-8.1.4-6.3.8-12.6.2-2.4.3-4.7.2-3.2.4-6.4.1-1.8.3-3.7c.1-6.5.1-6.5-2.3-12.3-2.2-1.4-3.6-1.5-6.2-1.5q-1.2 0-2.3 0c-2.7.5-3.6 1.3-5.2 3.4-1 2.9-1.2 5.1-1.4 8.1l-.2 3.3q-.1 1.8-.2 3.7-.3 4.1-.6 8.3c0 1.1 0 1.1-.1 2.2l-2.1 30.8q-.1 1.5-.2 3.1-.6 8.1-1.2 16.1-.4 6.6-.9 13.1l-5.2 67.4c-.9 10.6-1.6 21.2-1.9 31.9 0 1.1 0 1.1-.1 2.2q-.1 3.2-.1 6.3-.1 1.7-.1 3.5c.6 5.5 3.8 8.7 7.5 12.6 13.8 15.2 20 29.6 20.1 50.1-.3 3.1-.6 4.8-2.3 7.3-3.5 1.9-6.1 2.1-10 2 .1-2 .1-2 .1-4 .4-16.1.4-16.1-4.8-31.2-3.1-2.5-5.4-2.8-9.3-2.8-2.6.7-2.6.7-4 3-.8 5.2.1 9.7 1.5 14.7 1.5 7.4.9 14.2-1.5 21.3h-15q0-1.8 0-3.7c.1-7.6.1-15.1-.2-22.7q-.1-1.4-.2-2.9c-.8-3.5-2.1-5.2-4.6-7.7-2.9-.9-4.9-.4-8 0-2.3 1.6-2.9 2.5-3.4 5.3q0 1.3-.1 2.7 0 1.4-.1 3 0 1.5 0 3.1-.1 3-.2 6 0 1.5-.1 3c-.2 4.3-.6 8.6-1.1 12.9-6 .5-10-.6-15-4-4.1-4.2-5.1-7.6-5.2-13.3 0-1.3 0-1.3-.1-2.6q0-1.4 0-2.9-.1-1.5-.1-3.1-.1-5.3-.2-10.6v-3.8l-.4-79.7q0-3.2 0-6.4.1-29.7.2-59.5 0-14.9 0-29.7.1-9.4.1-18.7 0-5.7 0-11.5 0-2.6 0-5.3.1-3.6.1-7.2 0-1.1 0-2.1c-.1-4.6-1-7.7-3.4-11.6-2.9-2.4-2.9-2.4-6.5-1.8-4 .9-4 .9-6.5 3.8-.5 3.2-.5 3.2-.5 6.9q0 1.1-.1 2.1 0 3.6-.1 7.2 0 2.5-.1 5.1-.1 8.3-.2 16.7v2.8l-.3 42.4q0 8.5-.1 17-.1 15.9-.1 31.8-.1 18.2-.2 36.4-.1 37.3-.3 74.6h-31v-7.5q-.2-35-.3-70.1-.1-18-.2-36-.1-15.8-.1-31.5-.1-8.3-.1-16.6l-.6-59.1q-.1-2.3-.1-4.5-.1-3.1-.2-6.1 0-1.7-.1-3.5c-.3-3.3-1-6-2.3-9.1-3.5-2.3-4.9-2.6-9-2-2.7 2-4.7 3.6-5.5 7-.1 2.5-.2 5-.1 7.5q-.1 1.5-.1 3 0 4.8 0 9.7 0 3.5 0 7 0 9.5 0 18.9 0 9 0 17.9-.1 17.7-.1 35.4 0 17.2 0 34.3 0 1.1-.1 2.2 0 5.2 0 10.5-.1 38.1-.1 76.2 0 3 0 6 0 7 .1 13.9a23.48 23.48 0 0 1 .1 2.7q0 2.4.2 4.8c0 3.7-.3 5.8-2.3 8.9-4.7 4.6-12.6 6.6-19.1 7.1-1.8-1.8-1.1-4.1-1.1-6.4q0-1.1 0-2.3 0-1.1 0-2.3c0-5 .4-9.8.9-14.7.4-4.3.4-4.3-.6-8.3-1.3-1.7-1.3-1.7-4.2-3-3.9-.2-5.4.4-8.2 3.1-6.1 10.2-4.9 23.4-4.8 34.9h-15c-3-9.1-2.7-16.6.3-25.7 1.2-4.1 1.7-8.4-.4-12.3-3.1-1.6-5.4-1.5-8.9-1-5.8 4.1-7.2 10.1-8.6 16.7-.5 4.1-.5 8.1-.5 12.2q0 1.1.1 2.4 0 2.8 0 5.7c-7.7-.7-7.7-.7-10-3-1.6-16.1 1.2-30.8 11-44 3.4-4 7-7.9 10.6-11.7 4.5-5 5.6-9.8 5.4-16.2q-.2-2.9-.4-5.8c0-1.6 0-1.6-.1-3.2q-.4-5-.7-10.1-.2-3.2-.4-6.4l-3-42.4q-1.6-20.6-2.9-41.3-.1-1.5-.2-3-.9-13.4-1.8-26.9-.4-7.5-.9-15-.2-2.7-.4-5.5c-.5-9-1.2-18-2.2-27q-.1-1.1-.2-2.1c-.4-3.5-.8-6.5-2.8-9.4-3.1-1.6-6.6-1.6-10-1-2 1.5-2.9 2.4-3.4 4.9q0 1.1 0 2.3v2.6q0 1.5.1 3 0 1.5 0 3.1c.3 15.8 1.4 31.6 2.4 47.4q.3 5.4.7 10.8 2.3 37.1 4.9 74.1l2.2 34.7q.2 4.5.5 9.1c.2 5.6.3 10.2-3.3 14.8q-2.1 2.1-4.1 4.2c-1.6 2.1-3.1 4.2-4.6 6.3-.5.8-.5.8-1.1 1.7-5.7 8.4-9.8 17.1-12.3 27q-.3 1.2-.6 2.4-.7 2.8-1.4 5.6c-5.6.7-11.2 1.1-16.9 1h-3.5q-1.3 0-2.6 0 0-1.3 0-2.6.1-4.8.2-9.6 0-2.1 0-4.2.1-3 .1-6 0-1.8 0-3.6c-.1-3-.1-3-1.6-4.9-2.4-1.6-4.8-1.5-7.7-1.6-2.9.7-4.1 2.1-6 4.5-3 8.8-2.2 18.9-2 28h-16q0-4.7-.1-9.4 0-1.3 0-2.8c0-4.6.2-9.2.9-13.8.3-3.1.3-3.7-1.2-6.6-3.9-2.1-6.2-2-10.6-1.4-3.6 3.1-4.8 8-5.3 12.6q-.2 4.7-.3 9.3-.1 1.6-.1 3.2-.2 4-.3 7.9c-8.7-1.1-8.7-1.1-12-5-3.7-9.6-4.7-19.4-.9-29.1 5.6-12.3 14.2-20.9 26.8-25.9 8.2-2.7 16-3.6 24.6-4.1 4.8-.4 8.6-.7 12.5-3.9 1.5-3.1 1.3-5.6 1-9-1.9-2.4-3.3-3.7-6-5q-3.5 0-7 .2c-24.7.8-24.7.8-30.3-3.9-2.6-3-4.3-6.4-5.8-10-.9-2.4-2.1-4.6-3.3-6.9-5.6-10.6-9.4-21.8-12.6-33.4q-.5-1.7-1-3.4c-3.4-12.8-4.4-25.4-4.3-38.6q0-3.6-.1-7.1c-.1-26.5 7.7-50.9 25.9-70.4 3.2-3.2 6.7-5.9 10.3-8.6 3.4-2.9 4.1-4.9 4.5-9.4q0-2.2 0-4.3.1-1.1.1-2.3 0-2.5.1-5 .1-6.5.2-13 .1-1.3.1-2.6c1.3-53.4 11.3-110.9 39.2-157.3z" fill="#a0bdbc"/><path d="M365.3 297.6c10.9 7.1 20.9 14.9 30.7 23.4q1.1 1 2.2 1.9 2.9 2.6 5.8 5.1 1 .9 2.1 1.9c6.6 5.8 12.8 11.8 19 18q2.4 2.5 4.9 4.9c5.1 5.1 10.1 10.2 14.6 15.8 1.5 1.7 1.5 1.7 4.4 2.4 2.6-.5 5.1-1.1 7.6-1.8 39.2-9.1 80.5-6.8 119.4 2.8q.4-.9.8-1.8c1.3-2.4 2.8-4 4.7-6q1.1-1.1 2.2-2.2 1.2-1.2 2.4-2.4 1.2-1.2 2.5-2.5 2.6-2.6 5.2-5.1 3.9-4 7.8-7.9c15-15 15-15 23.1-21.3 2.3-1.8 4.4-3.6 6.5-5.5 15-13.2 38.8-32.3 59.9-32.9 7.4.6 13.4 3 18.9 8.1 10.1 12.4 13.1 28.2 15.1 43.6q.3 1.8.5 3.6c2.1 15 2.6 30 2.6 45.1q0 1.1 0 2.3c-.1 24.6-1.2 49.1-5 73.5-1.3 8.9-.9 15.2 2.6 23.6 3.7 9.3 5.6 18.9 7.2 28.8.3 1.5.3 1.5.5 3.1.6 4.9.6 9.8.6 14.7v3.2q0 3.2 0 6.5 0 4.9 0 9.9 0 3.2 0 6.4 0 1.4 0 2.9c0 6.2-.4 12.2-1.1 18.3q.9.1 1.9.1c10.5.8 20.9 1.8 31.2 3.7q1.3.2 2.6.4c3.9.8 5.9 1.4 8.9 4.2 1.4 2.6 1.4 2.6 1.3 5.7-.9 2.9-1.8 4.7-3.9 6.9-5.3 1.8-10.6 1-16.1.1-9.9-1.5-19.9-2.3-29.9-3.1q-.2 1.3-.4 2.6c-2.1 11.7-5.3 23.7-10.6 34.4q1.5.2 3.1.4c3.7.6 6.7 1.5 10.2 2.9q1.7.7 3.5 1.5 1.8.7 3.6 1.4 1.8.8 3.6 1.5c14.7 6 14.7 6 19 10.3.5 4.4.5 6.3-2.2 9.9-2.9 2.2-4.2 2.8-7.8 3.1-3-.8-3-.8-6.3-2.2q-1.8-.7-3.6-1.4-1.9-.8-3.8-1.6-1.8-.7-3.7-1.5-6.8-2.7-13.6-5.6-1.3-.5-2.7-1.1c-1.2-.4-1.2-.4-2.3-.9-2.1-.9-2.1-.9-5-.7-1.4 1.5-1.4 1.5-2.5 3.5q-.7 1.1-1.5 2.2-.7 1.2-1.5 2.5c-7.6 11.8-16.6 22-26.2 32.2-1.9 2.2-3.6 4.3-5.3 6.6q.5 1 1 2c19.2 38.3 31.6 77.6 37.7 120 .2 1.1.2 1.1.3 2.3 1.8 12.3 3 24.4 3 36.8q0 4.2.1 8.4 0 2.8-.1 5.7c-.5 10.7-.5 10.7 2.7 20.5 2 1.7 4 3 6.3 4.3 3.2 3.5 6.1 7.2 9 11q.9 1.2 1.9 2.4c10.9 14.7 19 35.2 19.1 53.6 14.6-30.1 10.7-62.3 1.1-93.3-10.4-33.7-9.2-71.1 6.9-102.7q.7-1.4 1.4-2.9c3.5-6.7 7.6-12.4 12.6-18.1q.8-.9 1.6-1.9c7.6-8.3 19-15.8 30.4-17.1 8.3-.2 16.5.9 22.8 6.6 6 6.7 6.8 13 6.6 21.7-.5 5.1-2.3 7.8-5.4 11.7-7.3 10.8-7.4 24.3-7.4 36.8v3.7c.2 11.2 2 21.7 5 32.5l.8 2.8q2.3 8.1 4.7 16.3c9.8 33.7 15.2 71.2 6.9 105.9q-.3 1.2-.6 2.5c-10.5 43.2-35.7 83.2-73.8 107-7.7 4.6-15.6 8.7-23.7 12.6q-2.8 1.3-5.5 2.7c-1.6.9-1.6.9-3.3 1.7q-1.4.7-2.8 1.5c-2.3 1-2.3 1-4.3 1q0 1 0 2 .9.4 1.7.8c8.1 4.3 12.5 11.8 16.7 19.6q.6 1.2 1.2 2.4c7.6 14.9 8.5 29.1 3.5 44.9-2.9 8.6-8.3 12.3-16.1 16.3-14 6.4-28.6 6.3-43.7 6.3q-4.5-.1-9.1 0c-11.5 0-22.8-.6-34.2-2.3q-.4 1.4-.9 2.8c-2.6 7.6-7.2 11.6-14.1 15.2-10.2 3.8-20.8 4.2-31.6 4.2q-1.6 0-3.3 0-3.5 0-6.9 0-5.2.1-10.5.1-3.3 0-6.7 0-1.5 0-3.1.1c-12.6-.1-24.8-3.1-34.3-11.7-5.1-5.4-6.5-9.3-7.6-16.7h-35l-1 7c-2.4 6.5-6.7 11.2-12.8 14.5-14.5 6.3-29.1 6.7-44.6 6.7h-2.5c-38.5-.1-38.5-.1-51.1-10.2-3.6-3.7-4.7-7-6-12l-3.4.4c-11.4 1.4-22.7 1.9-34.2 1.9q-4-.1-8.1 0c-19.1 0-39.1-.5-53.6-14.5-2.6-4.3-4.2-9-5.7-13.8q-.3-.9-.6-1.8c-2.8-15.3.6-30.1 8.6-43.2 5.5-7.8 12.1-15.9 21-20-1.3-2.8-2.8-5.3-4.6-7.8-25.7-37.1-35.3-85.3-27.8-129.9 4.7-24.8 16.3-47.4 35.4-64.3q1-.5 2.1-1c3-3.1 2.5-6.8 2.6-10.9q0-1.3.1-2.7.1-2.9.1-5.9l.5-15.4.2-3.1c2.1-51.4 12.8-109 40.6-153 1-2 1-2 .1-4.1-1.9-2.8-4.3-5-6.7-7.3-9-8.7-16.3-18.4-23.2-28.7q-.7-1-1.3-1.9c-2-3-3.4-5.5-4.1-9-1.8.7-1.8.7-3.7 1.5q-6.7 2.7-13.4 5.4-2.9 1.2-5.9 2.3-4.1 1.7-8.3 3.4-1.3.5-2.7 1.1c-5 2-8.5 2.8-14 1.3-2.8-2.3-3-3.8-3.5-7.4.6-4.6 2.1-5.6 5.5-8.6 7.5-4.6 15.9-7.9 24.1-10.9l2.5-1q1.2-.4 2.3-.8c1.1-.4 1.1-.4 2.1-.8 2-.5 2-.5 6-.5q-.6-1.5-1.1-3.1c-3-8-5.6-16-7.8-24.3q-.3-1.3-.6-2.5c-1.5-5.8-1.5-5.8-1.5-8.1q-1 .5-2 1-2.8.4-5.6.7-1.7.2-3.5.4-7.3.8-14.6 1.6-4 .4-8 .9-1.8.1-3.7.3-1.5.2-3 .4c-3.6-.4-5.1-1.8-7.6-4.3-1.1-3.4-1.1-3.4-1-7 2.1-3.6 3.5-5.5 7.4-6.8 2.9-.7 5.9-1.1 8.8-1.5q1.6-.2 3.3-.5c8.8-1.3 17.6-2 26.5-2.2q-.2-.7-.5-1.5c-6.3-29.7-3.9-71.5 10.2-98.9 1.8-5.1 1.1-9.3.3-14.6q-.3-2.8-.7-5.6-.2-1.4-.4-2.9c-15.2-122-15.2-122 12.5-160.6 14.8-17.4 37.2-6.3 52.9 3.7zm-38.6 9.4c-2.1 3.8-3.3 7.5-4.3 11.7q-.3 1.2-.6 2.4-1 3.4-1.8 6.9-.3 1-.5 2c-4.3 17.3-3.9 35.2-3.8 52.9q0 3.3 0 6.5c0 24.9 1.3 49.1 5.4 73.8 1.5 9.2.4 14.9-3.3 23.4-11.2 25.9-15.9 63-6.8 90.4q1.8.1 3.7.1c9.1.3 18.2 1 27.2 2.2q1.3.2 2.6.3c4.8.8 8 1.7 11.5 5.4.5 3.6.5 3.6 0 7-1.3 1.7-1.3 1.7-3 3-3 .3-5.8.3-8.8.3q-1.3 0-2.6 0-4.2-.1-8.3-.1-2.8 0-5.6-.1-6.8 0-13.7-.1.9 4 1.8 8 .3 1.1.5 2.3c1.6 6.8 4 13.2 6.7 19.7q.9-.2 1.8-.4c30.7-7.5 30.7-7.5 38.2-6.6 3 2.1 3 2.1 5 5 .5 3.1.5 3.1 0 6-2.4 3.3-5.3 3.8-9.2 4.8q-1.9.4-3.8.9-1.9.4-3.9.9-3.8.9-7.6 1.8-1.7.4-3.4.8c-2.8.7-5.4 1.7-8.1 2.8 6.6 11.8 14.7 22.2 24 32q.7.7 1.4 1.5c28.9 30.8 68.3 46.3 108.8 54.8l3.7.8c9.8 2 19.4 3 29.5 3.1q1.3.1 2.6.1c60.9.5 117.2-14.5 162-57.3q1.3-1.2 2.6-2.4c10-9.7 18.2-20.7 25.4-32.6q-6-1.7-11.9-3.4-1.7-.4-3.4-.9c-5-1.4-9.9-2.8-14.9-3.8-3.8-.9-3.8-.9-5.9-2.6-1.3-3.4-.8-5.8.1-9.3 1.6-2.1 2.5-2.9 5.1-3.4 6.4.1 12.2 1.1 18.4 2.7q1.3.3 2.6.7c6.1 1.5 12 3.2 17.9 5q1.9-5.7 3.8-11.3.7-1.9 1.4-3.9.9-2.7 1.8-5.5.6-1.7 1.2-3.4c1-3 1-3 .8-6.9q-4.7 0-9.5-.1h-2.9c-7.2 0-14.3.4-21.5 1.2-3.1-.1-3.1-.1-5-1.3-1.4-2.2-1.5-3.7-1.5-6.3-.1-1.2-.1-1.2-.1-2.3.5-2.2.5-2.2 2-3.9 3.5-1.8 7.1-2.4 10.9-2.9q1.3-.2 2.5-.4c9.7-1.4 19.4-1.7 29.1-2 1.8-12.2 2.2-24.4 2.2-36.8.1-1.1.1-1.1.1-2.2 0-13-.6-26-4.6-38.5q-.3-1-.6-2.1c-1.9-6.2-4.3-12.1-7-17.9-2.2-6.8-1-13 .3-19.8 1.1-6.4 2-12.7 2.7-19.1q.1-1 .3-2.1c1.7-16.7 1.8-33.4 1.8-50.2q0-1.6 0-3.2c1.7-42.6 1.7-42.6-13.2-80.1-6.5-1.1-11.5.6-17.1 3.8q-1 .6-2.2 1.2c-10.9 6.2-21 13.5-30.8 21.3q-.8.7-1.7 1.4c-13.1 10.8-25.1 23-37.1 35q-3.5 3.6-7 7.1-2.3 2.3-4.6 4.5-1 1.1-2.1 2.2c-2.7 2.7-5.3 5.4-7.7 8.4-1.7 2.1-1.7 2.1-4.9 2.6-4.5-.6-8.8-1.6-13.2-2.8-36.2-8.9-76.5-9.2-112.7-.5q-1.2.3-2.4.6-2.2.6-4.4 1.2c-2.7.7-4.6 1.1-7.3.4-2.2-1.7-3.8-3.5-5.6-5.5-4.2-4.8-8.5-9.5-12.8-14.1q-1-1-1.9-2c-7.9-8.5-7.9-8.5-16.5-16.3-2.6-2.2-5-4.4-7.3-6.9-4.1-4.1-8.6-7.7-13.1-11.3q-2.6-2.1-5.1-4.2c-20.6-17.2-20.6-17.2-45.2-26.6-3.4.2-3.4.2-5.6 2.5zM365 707c-26 50-38.1 103.6-39.2 159.9-.1 1.3-.1 1.3-.1 2.6q-.1 6.4-.2 12.9 0 2.3-.1 4.7 0 1.1 0 2.2c0 4.4-.7 7.2-3.4 10.7-2.3 2-2.3 2-5.1 4.1-13.1 10.5-21.9 24.2-27.3 40q-.3 1-.7 2.1c-3.7 11.6-4.2 23.5-4.2 35.6q0 3.6-.1 7.1c0 14.6 2 28.8 6.2 42.8l.8 2.6c3.8 12.6 8.7 24.4 15.4 35.7q.9 1.6 1.7 3.2c3.1 4.9 5.3 8.3 11 9.8 4.4.4 8.7.3 13.1.1q3.3-.1 6.7-.2 3 0 6-.1c3.8.2 5.6.9 8.5 3.2 1.5 3.1 1.3 5.6 1 9-1.9 2.4-3.3 3.7-6 5q-2.1.2-4.2.4c-17.5 1.2-33.4 3.6-46 16.7-7.8 9.2-11.6 19-10.8 30.9.8 5.5 1.6 10.4 5.3 14.7 3.2 1.5 6.1 1.9 9.7 2.3q0-1 0-2 .1-4.5.3-8.9 0-1.6 0-3.1c.2-6.5.8-14.1 5.7-19 6.9-.6 6.9-.6 10.6 1.4 1.9 3.4 1.3 5.4.8 9.2-.5 4.7-.5 9.3-.5 14q0 1.4.1 2.8 0 3.3 0 6.6h16l-.1-7.3c-.1-17.9-.1-17.9 3.9-23 3.6-2.8 5.8-2.2 10.2-1.7 1.7 1.1 1.7 1.1 3 3 .3 3 .3 3 .3 6.6q0 2 0 4-.1 2-.1 4.1 0 2.1-.1 4.1 0 5.1-.1 10.2 3.1 0 6.1 0 1.7 0 3.5 0c4.5 0 8.9-.4 13.4-1 .3-1.4.3-1.4.7-2.9 3.8-15.2 9.3-28.9 20.3-40.5 4.5-5.4 6.6-8.6 6.4-15.9q0-1-.1-2.2-.1-3.7-.3-7.5-.1-1.4-.1-2.8-.6-10-1.3-20-.6-8.9-1.2-17.8-.3-3.3-.5-6.5l-3.4-54q-.3-5.2-.7-10.5-.4-6.2-.7-12.4-.1-1.1-.2-2.2-.4-7.4-.9-14.8c-.1-1.1-.1-1.1-.1-2.3q-.2-3.4-.5-6.8 0-1.1-.1-2.1c-.3-6.2-.5-12.4-.5-18.7q-.1-1.5-.1-3.1v-3.1q0-1.3-.1-2.6c.5-2.8 1.2-3.6 3.4-5.3 3.4-.7 6.8-.6 9.9 1 4 7.1 3.7 16.1 4.2 23.9q.2 2.1.3 4.2.4 5.6.8 11.3.3 4.7.7 9.4l4.7 71.2q1.3 20.4 2.9 40.9l2.4 33.6q.1 1.3.2 2.7c.3 7-.9 12.2-5.6 17.6q-1.3 1.2-2.7 2.5c-10.3 9.7-18.6 23.7-19.1 38.1q0 2.6-.1 5.2 0 1.3-.1 2.6c0 2.4 0 4.5.5 6.8 2.7 2.5 4.2 2.9 7.8 3.2l2.2-.2q-.1-1.6-.1-3.3c-.3-11.7.2-22.7 7.1-32.7 3-1.5 5.6-1.2 9-1 1.9 1 1.9 1 3 3 .5 4.8 0 8.2-1.5 12.7-2.6 8.1-2.2 15.3.5 23.3h15l-.1-7.1c-.1-22.1-.1-22.1 6.1-28.9 3-2 3-2 6-1.9 3.5 1.1 4.2 1.7 6 4.9.1 2.9.1 2.9-.3 6.2-.6 5.7-.8 11.4-.8 17.2q0 1.1 0 2.3.1 2.6.1 5.3c4.1 2.1 9.8-.7 14-2 3.6-1.7 5.7-3.6 8-7 .3-3 .3-3 .2-6.6q0-1 0-2 0-2.2-.1-4.5 0-3.6 0-7.3 0-5.4-.1-10.8v-27q0-4.9 0-9.8 0-29.1.1-58.2.1-19.5.1-39 0-17.2.1-34.4 0-9 0-18.1 0-8.4 0-16.9 0-3.1 0-6.2 0-4.2.1-8.5-.1-1.2-.1-2.4c.1-4.3.4-5.9 3-9.3 2.7-2 2.7-2 5.8-2.5 3.2.6 4.6 1.1 6.9 3.5 1 3.8 1.2 7.5 1.3 11.5a49.48 49.48 0 0 1 .1 3.9q.1 2.2.1 4.4.1 1.2.1 2.3c.6 20.8.6 41.6.7 62.4q0 8.4.1 16.8.1 15.8.1 31.6.1 18.1.2 36.1.1 37 .3 74h31v-7.5q.2-35.4.3-70.7.1-18.2.2-36.3.1-15.9.1-31.8.1-8.3.1-16.7.1-18.2.2-36.4.1-5.6.1-11.3.1-6.8.2-13.6 0-2.5 0-4.9 0-3.4.1-6.8v-3.8c.7-3.2.7-3.2 3-5.6 2.7-1.6 2.7-1.6 6.3-1.6 3.4 1 3.4 1 5.3 2.9 2.2 4.2 2.2 7.8 2.2 12.4q0 1.2 0 2.3 0 3.8 0 7.6 0 2.7 0 5.5 0 5.9 0 11.7 0 9.5 0 18.9-.1 23.4-.1 46.9l.3 125.4q0 3.7 0 7.4.1 5 .2 9.9 0 1.4 0 2.9c.2 6.5 1 11.7 5.9 16.5 5 3.3 8.6 3.9 14.6 3.7.6-5.3 1.1-10.6 1.2-15.9q.1-1.5.1-3 .1-3.1.1-6.1.1-1.5.1-3 .1-1.3.1-2.7c.5-2.8 1.1-3.7 3.4-5.3 5.6-.7 5.6-.7 8 0 3.4 3.4 4.5 5.8 4.8 10.6a38.6 38.6 0 0 0 .1 3.4c.2 7.7.2 15.3.1 23h15c2.5-7.6 3.2-15.4 1-23.3-1.2-4.3-1.7-8.2-1-12.7 1.6-2.1 1.6-2.1 4-3 3.9 0 6.2.3 9.3 2.8 6 11 5 23.1 4.7 35.2q1.9-.2 3.9-.4 1.1-.1 2.2-.2c2-.3 2-.3 3.8-1.8 4.1-6.1 2.7-15.8 1.4-22.8-3-14.1-9.4-23.5-19.3-33.8-8.2-9-7.3-17.1-6.8-28.7q.3-5.7.7-11.3.1-2.1.2-4.2l3.1-42.1q.4-5.4.8-10.7 1.6-21.5 3.2-43 .3-3.4.5-6.8.1-1.1.2-2.3.2-2.2.4-4.4.4-6.3.9-12.7.4-4.9.8-9.8.1-1.8.3-3.7l1-16.4q0-1.4.1-2.8.1-2.6.1-5.1c.2-4.9.9-8.4 4.5-12 1.9-.3 1.9-.3 4.3-.4q1.2 0 2.4-.1c3.5.8 4.4 2.5 6.3 5.5.3 3.3.3 3.3.1 7.2q-.1 1-.1 2.1-.3 3.6-.5 7.2-.2 2.6-.4 5.2-.4 7.1-.9 14.3-.4 6.1-.8 12.3-1.3 19.9-2.7 39.8-.4 6.9-.9 13.8-.5 6.8-.9 13.6-.2 3.1-.5 6.3a993.29 993.29 0 0 1-2.7 34.7 388.1 388.1 0 0 0-1.5 21.5c-.1 2.5-.3 4.9-.7 7.4-.8 6.8.7 10.5 4.7 15.8q2.7 3.3 5.4 6.6c9.6 11.6 15.3 25.3 17.4 40.2 1.6 1.6 3.6 1.4 5.8 1.6q1.3.1 2.7.2c5.1.3 10.3.2 15.5.2q-.1-1.3-.2-2.6-.2-4.8-.4-9.6-.1-2-.3-4.1-.1-3-.3-6-.1-1.7-.2-3.6c.4-3.1.4-3.1 2.2-5.5 2.2-1.6 2.2-1.6 5.1-2.1 3.9.6 5.3 1.8 8.1 4.5.9 2.7.9 2.7 1.3 5.7q.2 1.7.4 3.5l1.3 19.8h15c0-2.1-.1-4.2-.1-6.4q-.1-3.1-.1-6.2 0-2.1-.1-4.3-.1-3.1-.1-6.1 0-1.9-.1-3.8c.5-3.2.5-3.2 2.3-5.6 2.2-1.6 2.2-1.6 5.1-2.2 4.3.8 5.6 2.1 8.1 5.6 2.9 8.1 2.6 17.5 3 26 5.6-.3 5.6-.3 10.4-2.8 4.8-6.7 4.1-14.3 3.6-22.2-1.8-11.2-8.3-20.9-17-28-2.6-1.8-5.1-2.9-8-4q-1.4-.5-2.8-1.1c-8.6-2.7-16.8-3.6-25.7-4-6.9-.5-6.9-.5-10.1-2.7-2-3.2-2.4-5.5-2.4-9.2 1.8-2.8 3-4.5 6-6q3.6 0 7.2.1 2.2.1 4.4.2 3.5 0 7 .2c8.6.6 8.6.6 16.6-1.8 1.6-1.8 2.7-3.5 3.8-5.7q.6-.9 1.2-1.9c1.1-1.9 2.2-3.8 3.2-5.9.6-1 .6-1 1.2-2.2 4.3-8.4 7.5-17.1 10.4-26q.4-1.1.7-2.2c11.2-33.5 11.6-76.2-4.1-108.5-2.4-4.6-4.9-8.3-8.9-11.7-1.7-1.6-1.7-1.6-3.5-4.4-3-4.4-6.8-7.8-10.7-11.5q-.8-.8-1.7-1.7-.8-.7-1.6-1.4c-2.3-3-2.3-6.5-2.4-10.2q0-1.3 0-2.7v-3q-.1-3.1-.1-6.2-.1-4.9-.2-9.9c-.1-13.3-.7-26.4-2.5-39.6q-.2-1.7-.5-3.5c-1-7.5-2.3-15-3.5-22.5q-.2-1.3-.4-2.7c-5.4-31.9-17.8-62.2-31.6-91.3-4.1 1.6-7.3 3.5-10.8 6.1-27.4 19.4-59.9 30.7-93 35.6q-3.5.5-7 1.1C489.7 759.4 423 746.9 374 713q-2.6-1.8-5.3-3.5-1.8-1.3-3.7-2.5z" fill="#043546"/><path d="M754 1142q.5 0 1 0v8l2.9.3c4.7.7 8.9 2.2 13.2 3.8q1.3.5 2.5 1c21.5 8.2 21.5 8.2 27.2 16.6 1.5 4.2 1.9 7.8 1.2 12.3-6.1 12.5-21.5 18.2-33.9 22.6-63.8 21.8-133.3 25.6-200.1 28.4q-1.1 0-2.2.1c-93.1 3.9-192.3 1.5-338.6-43.7-3.5-3.4-5.9-6.5-6.4-11.5.2-5.5 2-9 5.8-12.9 8-6.7 17.2-10.5 26.9-14q1.3-.5 2.6-.9c4.4-1.5 8.1-2.5 12.9-2.1q0-3 0-6 .5 0 1 0 .1 1.3.3 2.7c1.3 10.7 2.9 22 11.7 29.3 11.9 8.2 28.5 9.2 42.6 9.1q1.4 0 2.7 0 2.9 0 5.7 0 4.3 0 8.6 0 2.7 0 5.5 0 1.3 0 2.6 0c5.1 0 10.1-.3 15.2-.9 3.7-.4 7.4-.3 11.1-.2q.5 1 .9 2c3.8 8 7.5 11.7 15.7 15.1 12.6 4.6 26.7 4.1 40 4.1q3.5 0 7 0c15.7.1 34.9-.5 47-11.7 4.9-5 5.2-8.1 7.4-15.5h35l3 9c5.1 8.8 12.2 13.4 21.7 16.4 6.6 1.7 12.9 1.8 19.6 1.8q1.6 0 3.3 0 3.5 0 6.9 0 5.3 0 10.5 0c24.2.3 24.2.3 46.4-8.3 3.5-3.9 5.5-8.1 7.6-12.9q1.4.1 2.9.2c11.4.8 22.9 1 34.3 1q4.6 0 9.1 0c17.9.1 37.7-.4 51.7-13.2 6.2-8.3 7.4-20 8-30z" fill="#fde7b0"/><path d="M811.7 746.7q1.1 0 2.3 0c2 .3 2 .3 4 2.3-.3 4-1.9 7-3.9 10.4-3.4 6.7-4.9 13.2-6.1 20.6q-.3 1.6-.6 3.2c-1.3 7.2-1.6 14.3-1.7 21.6q0 1.3-.1 2.6c0 14.3 3.9 28.2 7.6 41.9q1.7 6.3 3.4 12.5.3 1.2.6 2.5c10.1 37.6 14.8 74.9 1.8 112.7q-.6 1.8-1.2 3.7c-5.7 16.5-14.1 31.6-24.8 45.3q-1.1 1.5-2.3 3c-13.8 17.3-31.2 30.5-51.7 39q1.8-5.5 3.8-11c6.1-17.4 11.2-35.1 11.6-53.6.3-7.9.3-7.9 3.1-11q.8-.8 1.6-1.5c17.5-17.7 22.4-46.5 22.4-70.2q0-1.9 0-3.8c-.2-17.3-4-33.8-8.1-50.5-5.1-20.5-5.1-20.5-5.4-28.4q-.1-1.6-.1-3.2c-.7-28.1 2.7-54.5 22.4-76.2 3.6-3.3 7.6-6 11.7-8.6l2.5-1.7c2.7-1.4 4.2-1.7 7.2-1.6z" fill="#a1bdbc"/><path d="M507.4 566.6q3.1 0 6.2 0c9.5-.1 21.4.2 29.4 5.8 2.6 2.9 3.7 5.8 4 9.6q.1 1.1.2 2.2c.4 7-1.2 12.1-5.2 17.8-3.9 4.4-8.3 7.2-13.5 10-2.5 1.4-2.5 1.4-4.5 3-1.2 5.1.4 10.4 3 15 5.4 6.1 12.1 9.6 20.2 10.2 9.9.3 18.3-2.7 25.8-9.2 3.2-3.8 5.5-7.9 7.6-12.4 1.5-2.9 2.5-4.1 5.4-5.6 4.6-.6 7.3.2 11 3 2.2 4.4 1.7 9.9.2 14.5-6 13.1-17 22.4-30.3 27.4-15.4 5-29.9 2-44-5.1-4.5-2.4-7.7-4.9-10.9-8.8q-.8.9-1.5 1.8c-5.9 6.3-11.4 9.6-19.5 12.2-1.6.5-1.6.5-3.2 1.1-14.5 3.4-29.2 1.3-42.1-5.9-9.5-6.1-17.1-15.4-20.7-26.2-.6-3.8-1-7.4 1.1-10.7 2.8-2.7 4.7-3.3 8.5-3.4 3.9 1.2 5.6 2.1 8.4 5.1q1.2 2.4 2.4 4.8c3.8 8 9.3 13 17.6 16.2 8.3 2.6 18.1 1.6 26-2 4.8-3.1 8.1-6.5 10-12 .5-3 .8-6 1-9-1.5-.9-1.5-.9-3.1-1.7-16.5-9.5-16.5-9.5-19.9-18.3-.2-2.8-.4-5.5-.4-8.4q0-1.1 0-2.2c-.1-5.3.9-8.2 4.4-12.4 8-6.4 16.6-6.4 26.4-6.4z" fill="#043646"/><path d="M689 325c6.4 5.9 6.4 14.5 6.8 22.6.4 8.5.4 16.9.3 25.4v2.9c0 20.8-.9 41.2-3 61.9q-.2 1.3-.3 2.6-.4 3.5-.8 7.1l-.2 2.2c-.6 5.1-.6 5.1-2.8 7.3-3.8-4.6-3.8-4.6-4.8-6.9-1.7-2.9-4-4.8-6.5-7-2.9-2.6-5.7-5.1-8.4-7.8-2.3-2.4-2.3-2.4-5.3-4.3q0-1 0-2c-.8-.4-.8-.4-1.7-.8-2.7-1.4-4.9-3.2-7.4-5.1-14.1-10.7-30.4-22-47.9-26.1 1.7-4 4.4-7.3 7.1-10.7q.8-1 1.5-1.9c3.3-4.1 6.7-7.8 10.5-11.4 2.2-2.3 4.2-4.8 6.2-7.3 6.5-8 13.8-15.2 21.6-21.9q2.4-2 4.6-4.2c8.2-7.8 18.5-17.6 30.5-14.6zm-343.2-2.8c8.2 3 14.8 11.2 20.8 17.3 5 5.2 10.1 10.2 15.6 14.9 9.4 8.3 16.9 18.6 24.3 28.5q1.6 2.2 3.2 4.3.8 1.1 1.7 2.2.7 1 1.5 1.9c1.1 1.7 1.1 1.7 1.1 3.7l-2.6.8c-21.1 7.1-37 20.6-53.4 35.2q-.8.7-1.6 1.4c-5.3 4.7-10.3 9.3-14.8 14.8-2 2.2-4.3 4-6.6 5.8-2-8.1-3.6-16-4.2-24.4q-.1-1.7-.2-3.4c-.7-12.4-.8-24.9-.9-37.3q0-3.6 0-7.2c-.1-12.4.1-24.6 1.6-37q.2-1.4.4-2.9c.9-6.5 2.3-11.8 6-17.3 2.8-1.8 4.8-1.9 8.1-1.3z" fill="#69909a"/><path d="M447.3 517.3c7.8 5 14.6 10.8 17.7 19.7q.6 1.5 1.2 3c1.1 4.1 1.3 6.8.8 11-2.6 3.1-2.6 3.1-6 5-4 .1-6.1-.3-9.3-2.7-1.7-2.3-1.7-2.3-2.9-5.2-3.3-5.8-9.6-9-15.8-11.1-8.4-1.5-14.9 1.6-22 6-3.4 2.4-5.6 4.6-7.7 8.2-2.1 3.7-2.1 3.7-4.3 4.8-4 .4-6.4.3-9.9-1.5-2.3-2.8-2.9-4.6-2.6-8.2 2.7-11.8 12.2-21.1 21.8-27.8 11.6-6.5 27-7.2 39-1.2zm167.7.7c9.2 5.7 18.7 13.2 22 24 .7 4.7.9 8.5-1.5 12.6-3.5 2-6.7 2.4-10.5 1.4-2.8-2.6-4.5-5.1-6.3-8.5-1.9-2.9-3.8-4.3-6.7-6.3q-1.3-.8-2.6-1.7c-5.7-3.5-12-3.2-18.4-2.5-3.4 1.2-6.1 2.9-9 5q-.8.6-1.7 1.2c-3.5 2.6-5.8 5.7-8.1 9.2-1.2 1.6-1.2 1.6-4.2 3.6-3.8-.1-6.2-.5-9.4-2.6-1.8-2.7-2.4-4.8-2.2-8.1 3-12.1 14.8-22.7 24.9-28.9 11.4-5.9 22.8-4.5 33.7 1.6z" fill="#043546"/><path d="M166 752c4.8 3.4 7.1 8.4 10 13.5 2.6 4.7 5.5 9.2 8.4 13.7 7.6 12 7.6 12 7.5 17.1-1.5 4.3-1.5 4.3-3.9 5.7-5.6.7-5.6.7-8 0-3.3-3.5-5.7-7.7-8.2-11.9q-1.2-2-2.3-4-.6-1-1.3-2-1.8-3.2-3.7-6.3-.6-1-1.2-2-1.2-1.9-2.4-3.9c-5.6-9.3-5.6-9.3-4.9-15.9 2.7-4.1 5.2-4.9 10-4z" fill="#053344"/><path d="M905.6 505.9c3.8 1.2 4.4 1.8 6.4 5.1.7 2.7.7 2.7 1.2 5.9q.2 1.7.5 3.5l.5 3.7q.2 1.9.5 3.8c.9 7.2 1.7 14.4 1.8 21.6q0 1.1.1 2.2c-.1 3.3-.4 5-2.4 7.7-2.2 1.6-2.2 1.6-5.1 2.2-4.2-.8-5.5-2.4-8.1-5.6-.8-3.3-.8-3.3-1.1-7l-.2-2.1q-.2-3.2-.5-6.4-.1-2.1-.3-4.2-.3-4.2-.6-8.3-.3-3.9-.7-7.8-.1-1.7-.3-3.5-.2-1.5-.3-3.1c0-2.6 0-2.6 2-6 3-1.6 3-1.6 6.6-1.7z" fill="#063444"/><path d="M133 675c5.5 4.2 6.9 9.5 9 15.9q1 3.1 2.1 6.3.5 1.4 1 3c1.5 4.7 3.3 9.3 5.1 13.9.9 3.4 1.1 6.3.8 9.9-2.1 2.5-2.1 2.5-5 4-3 .1-3 .1-6-1-4.2-4.3-6.2-8.3-8.1-14q-.4-1.1-.8-2.3-.8-2.3-1.6-4.7-1.2-3.6-2.5-7.2-.8-2.4-1.6-4.7-.3-1-.7-2.1c-1.5-4.5-2.1-8.3-1.7-13 2.7-4.1 5.2-4.9 10-4z" fill="#063343"/><path d="M907 590.4c3.1.1 5.4.2 8 2 2.7 7 .6 16-.3 23.3q-.2 1.6-.4 3.2c-2.8 21.1-2.8 21.1-5.6 24.9-2.1 1.5-3.2 1.6-5.7 1.6h-2.1c-2.5-.5-3.3-1.4-4.9-3.4-.3-2-.3-2-.2-4.1q0-1.2 0-2.5.4-5.6 1.2-11.2.1-1.2.3-2.4.3-2.5.6-5 .5-3.8 1-7.6.3-2.5.6-4.9.1-1.2.3-2.3c.7-5 2-10 7.2-11.6z" fill="#073444"/><path d="M897 675c2.9 2.1 2.9 2.1 5 5-.3 5.7-2.1 10.7-4.1 15.9q-.4 1.3-.9 2.5-1 2.6-1.9 5.3-1.5 4-3 8-.9 2.5-1.9 5-.4 1.2-.9 2.5c-2.1 5.6-2.1 5.6-4.3 7.8-4 .6-7.7.9-11.1-1.4-2.8-8.1 1.8-17.1 4.7-24.7q1.1-3 2.2-6c7.7-20.9 7.7-20.9 16.2-19.9z" fill="#053343"/><path d="M118 591c1.8 1 1.8 1 3 3 2.1 7.2 3.1 14.4 4.1 21.8q.3 1.8.6 3.7c2.7 19.2 2.7 19.2-.1 23.8-1.6 1.7-1.6 1.7-3.5 2.2q-1.1 0-2.1-.1h-2.1c-2.6-.6-3.4-1.2-4.9-3.4-.8-3.1-.8-3.1-1.5-6.9q-.2-1-.4-2.1-.6-3.5-1.1-7-.2-1.3-.4-2.7-.7-4.1-1.3-8.2-.2-1.3-.4-2.7c-2.2-15.1-2.2-15.1 1.1-20.4 3-1.5 5.6-1.2 9-1z" fill="#063444"/><path d="M853 350c4.7 4.7 7.9 10.9 11 16.8q.6 1.1 1.3 2.3 1.3 2.4 2.5 4.7 1.6 2.9 3.2 5.8c3.1 5.7 5.1 9.9 4 16.4-1 2-1 2-3 3-5.6.7-5.6.7-8 0-3.6-3.7-5.8-8.2-8.2-12.8s-4.7-9.2-7.4-13.6q-.6-1.1-1.2-2.2-1.2-2-2.5-4c-2.5-4.3-3.2-7.4-2.7-12.4 2.9-4.5 5.9-5.1 11-4z" fill="#043343"/><path d="M122 507c2.2 1.7 2.2 1.7 4 4 .2 2.7.2 2.7-.1 5.8l-.4 3.4q-.3 1.9-.5 3.8-.4 2.9-.7 5.9-.3 2-.6 4c-.4 3.4-.8 6.8-.9 10.2-.4 11.3-.4 11.3-2.9 14.8-2.9 2.1-2.9 2.1-6.5 2.7-3.4-.6-3.4-.6-5.1-2.2-6.1-11.1-.4-35.9 2.7-47.5 1-2.9 1-2.9 2.7-4.9 3.2-1.4 5-1 8.3 0z" fill="#073444"/><path d="M174.4 349.6c3.6.4 3.6.4 6 2 2.2 3.3 1.9 5.5 1.6 9.4-1.3 3.2-1.3 3.2-3.1 6.5q-.5.9-1 1.8-1.5 2.8-3.1 5.6-1 1.8-2 3.7-2 3.6-4 7.1-3 5.4-5.9 10.7c-.9 1.6-.9 1.6-1.9 2.6-7.1.6-7.1.6-10.5-1.6-2.1-3.4-1.9-5.4-1.5-9.4 1.2-3.1 2.7-6 4.4-8.9.6-1.2.6-1.2 1.3-2.5 14.5-26.4 14.5-26.4 19.7-27z" fill="#053344"/><path d="M737 230c3.4 1.6 3.4 1.6 6.6 3.8q.9.6 1.8 1.2c6.2 4.3 12.2 8.9 18 13.7q1.6 1.3 3.3 2.6c4.2 3.4 4.2 3.4 5.4 6.7-.1 3.6-.9 5.2-3.1 8-2.9 1.4-4.8 1.3-8 1-2.8-1.7-2.8-1.7-5.8-4.2q-1.6-1.4-3.3-2.7-.9-.8-1.9-1.5c-4.5-3.6-9.2-6.8-13.9-10.1-7.6-5.5-7.6-5.5-10.1-8.5-.4-3.4-.6-5.8 1-8.9 3.2-1.7 6.5-1.5 10-1.1zm150 195c3.4 2.8 4.7 5.3 6 9.5q.5 1.6 1 3.2.5 1.7 1.1 3.4.5 1.6 1 3.2c6.8 22.1 6.8 22.1 5.9 28.7-2.1 2.6-2.1 2.6-5 4-3.6.1-3.6.1-7-1-2.8-3.8-4.1-8.1-5.5-12.6q-.3-1.1-.6-2.2-.7-2.3-1.4-4.6-1-3.5-2.1-7c-4.2-14.2-4.2-14.2-3.4-21.6 2.7-3.5 5.8-3.6 10-3z" fill="#063444"/><path d="M595.2 173.4q3.1.6 6.1 1.2c6.9 1.4 12.7 2.8 18.6 6.7 1.1 1.7 1.1 1.7 1.1 5.2-1 3.5-1 3.5-2.9 5.5-8.5 2.7-18.9-.8-27.5-2.5q-3-.6-6-1.2-2-.3-3.9-.7-1.8-.4-3.6-.7c-3.1-.9-5.4-2-8.1-3.9-1.5-3.1-1.3-5.6-1-9 6.9-6.7 19-2.3 27.2-.6z" fill="#063344"/><path d="M796.8 283.3c5 1.1 7.6 4.2 11.2 7.7 1.2 1.2 1.2 1.2 2.5 2.3 5.6 5.6 10.7 11.4 15.5 17.7.7.8.7.8 1.4 1.7 2.8 3.8 3.2 6.7 2.6 11.3-1 1.9-1 1.9-3 3-5.5.7-5.5.7-8 0-4-3.5-7.3-7.6-10.7-11.6q-7-8.3-14.3-16.2c-2.5-2.7-3.9-4.5-4.4-8.1.4-3.1.4-3.1 2-5.5 2.4-1.6 2.4-1.6 5.2-2.3z" fill="#043243"/><path d="M229 284c2.4 1.6 2.4 1.6 4 4 .7 3.8.3 5.5-1.7 8.8-2.3 3.2-4.8 6-7.5 8.9-3.7 4-7.2 8-10.6 12.2-6.1 7.6-6.1 7.6-10.2 10.1-3.3 0-5.1-.4-7.8-2.2-1.9-2.9-2.3-4.3-2.2-7.8 2-3.3 4.5-6.1 7-9q2.1-2.7 4.2-5.3 5.2-6.3 10.7-12.3.7-.7 1.4-1.5c4-4.4 6.6-6.7 12.7-5.9z" fill="#053344"/><path d="M140.6 425.3c3.4.7 3.4.7 5.4 2.7.9 6.1-.4 11.7-2.3 17.4q-.4 1.1-.7 2.3-.8 2.4-1.5 4.7-1.2 3.6-2.3 7.2-.8 2.4-1.5 4.7-.3 1-.7 2.1c-1.2 3.7-2.3 6.8-5 9.6-3.4 1.1-3.4 1.1-7 1-3-1.9-3-1.9-5-5 .1-7.9 2.7-15.2 5.2-22.6q1-3.2 2-6.4c6-18.3 6-18.3 13.4-17.8zM295 231c2.2 2 2.8 3.4 3.6 6.3-1.6 7-10.2 11.8-15.8 15.6q-2.3 1.6-4.6 3.1-1 .8-2.2 1.6-2.7 1.9-5.3 4c-7.6 5.9-7.6 5.9-11.7 6.1-3-.7-3-.7-4.9-1.8-1.7-3-2-5.5-2.1-8.9 1.7-2.4 1.7-2.4 4.3-4.6l3-2.6c27.3-21.4 27.3-21.4 35.7-18.8zm158.6-57.5c2.1 3.8 2 6.1 1.4 10.5-3.3 3.5-7.5 3.9-12 4.6q-1.1.2-2.3.4-2.5.4-4.9.8-3.8.6-7.5 1.2-2.4.4-4.8.8-1.1.2-2.2.4c-12.5 1.9-12.5 1.9-16.9-.8-1.4-2.4-1.4-2.4-1.3-6 1.2-4.4 1.2-4.4 3.9-6.4 2.5-.8 5-1.4 7.6-2 1.1-.2 1.1-.2 2.2-.5q8.3-1.8 16.7-3.2 1.1-.2 2.2-.4c13.1-2.2 13.1-2.2 17.9.6zm-86.9 19.2q1.1 0 2.2-.1c2.7.5 3.5 1.3 5.1 3.4.5 3.4.5 3.4 0 7-3.8 3.7-8.1 5.6-12.9 7.7q-1.2.5-2.3 1-2.4 1-4.8 2.1-3.6 1.5-7.3 3.2-2.3 1-4.6 2c-1.1.4-1.1.4-2.2.9-4.4 1.9-7.3 2.5-11.9 1.1-2.9-2.6-3.9-4.1-4.4-7.9 4.5-9.9 22.8-14.3 32.4-18.1 3.7-1.4 6.8-2.3 10.7-2.3zm303.2 2.4q1.1.4 2.2.9 3.5 1.5 6.9 3l2.4 1q3.5 1.6 6.9 3.2 1.1.5 2.2 1c3.8 1.7 6.9 3.4 9.5 6.8.1 3.6.1 3.6-1 7-2 2.1-2 2.1-5 3-8.2-1.2-15.2-4.5-22.7-7.9q-1.8-.8-3.6-1.7c-15.1-6.8-15.1-6.8-17.7-9.4-.7-7.1-.7-7.1 1.5-10.1 6.1-2.3 12.8.7 18.4 3.2z" fill="#053343"/><path d="M501.2 166.6q1.2 0 2.4 0 2.4 0 4.9.1 3.7 0 7.5 0 2.4 0 4.8 0 1.1 0 2.3 0c5.2.1 9.1.5 12.9 4.3.4 3.7.6 6-1.5 9.2-3.7 2.7-7 2.4-11.5 2.4q-1.3 0-2.6 0-2.8 0-5.5 0-4.2 0-8.4 0-2.7 0-5.4 0c-1.3 0-1.3 0-2.5.1-4.4-.1-6.1-.3-9.7-3-1.9-2.7-1.9-2.7-2-6.3 1.1-3.4 1.1-3.4 3.2-5.1 3.7-1.7 7.1-1.7 11.1-1.7z" fill="#043141"/></svg>