<svg xmlns="http://www.w3.org/2000/svg" width="1024" height="1024" xmlns:v="https://vecta.io/nano"><path fill-rule="evenodd" d="M509.1 60.7q3.9 0 7.7.1 2.5 0 5.1 0h2.5c21.9.1 43.3 6.3 62.7 16.2q1 .5 1.9 1c36.4 18.6 65.9 48.6 82.2 86.3q.6 1.6 1.3 3.1.6 1.6 1.3 3.1.6 1.4 1.2 2.9c1.1 2.7 1.9 5.3 2.5 8.1q.3 1.4.6 2.7c.2 1.4.2 1.4.5 2.7l.4 2.1q39.3-.1 78.5-.2 19.1 0 38.2 0 16.7-.1 33.5-.1 8.8 0 17.7 0 8.5 0 16.9 0 3.1 0 6.3 0 4.3-.1 8.7-.1 1.3 0 2.6 0c5.3 0 9.3 0 13.6 3.4 3.4 4.4 4.5 9.1 4.5 14.5q0 1.2 0 2.4 0 2.5 0 5-.1 3.9-.1 7.9.1 2.5 0 5.1v2.5c.1 5.7-.3 9.6-3.4 14.6-3 3-5 4-9.2 4.2q-1.8-.1-3.5-.1-1.8 0-3.6 0-1.4-.1-2.7-.1 0 31.7.1 63.4.1 15.4.1 30.9 0 13.5 0 27 .1 7.2.1 14.4 0 6.8 0 13.6 0 2.6 0 5.1c0 8.3-.9 16.3 4.5 23.2q.6.7 1.2 1.4.7 1.2 1.4 2.3 2 3.1 4 6.2l8.6 13.6q2.1 3.1 4.2 6.3 1 1.6 2 3.2c4.4 6.4 7.7 11.2 7.1 19.1-.2 1.2-.2 1.2-.3 2.3-.3 4.8-.9 9.3-2 14-4.2 11.3-11.2 20.5-22 26l-9 3v240c2-1.2 2-1.2 4.8-1.1 16 0 30.3 3.5 42.2 14.9 9.6 10.6 13.6 22.6 13.1 36.8 0 1.2 0 1.2-.1 2.4 8.6 0 16.8 5.7 23.3 10.9 9.3 8.6 13.7 19.8 14.9 32.3.2 10.8-3.9 23.8-11.2 31.8q-1 0-2 0 0 1 0 2c-7.1 7.1-16.2 10.9-26 12.7-1 .1-1 .1-2 .3q.2 4.8.2 9.6.1 2 .1 3.9c.3 8.7.9 15.9-5.3 22.5-5.5 4.9-10.7 5.6-17.9 5.6q-3 0-6 0-5.6 0-11.3 0-6.2 0-12.4 0-11 0-21.9-.1-16.3 0-32.7 0-27.5 0-55-.1-27.4-.1-54.8-.1-1.8 0-3.5 0-8.6-.1-17.2-.1-61.2 0-122.4-.2-59.6-.1-119.1-.2-1.9 0-3.7 0-14.8 0-29.6-.1-63.8-.1-127.5-.2-12 0-24 0-36.3-.1-72.5-.2-15 0-30 0-12.5-.1-25-.1-6.4 0-12.7 0-5.8 0-11.6 0-2.1 0-4.2 0h-3.9q-1.8-.1-3.6-.1c-5.5 0-7.5-1-11.9-4.4-5.4-5.7-6.1-10.4-6-18.1q0-1.7.1-3.4c0-4.1 0-8.1.3-12.2q.5-1 1-2c-2.6.3-2.6.3-6 0-11.2-2.5-20.9-9-27.6-18.2-6.8-10.6-10.2-21.8-8-34.4q.3-1.2.6-2.4c1.2-5.6 2.9-10.3 6.1-15.1 6.9-9.2 16.2-17.9 28-19.7l2.9-.2q0-1.1 0-2.3 0-1.5-.1-2.9c0-2.7 0-5.2.5-7.9q.3-1 .6-1.9c1.9-8 5-14.5 10-21 9.5-10.6 21.8-16.8 36-18l15 1V523c-5.4 0-7.7-.9-12.4-3.4-9.6-5.9-18.2-15.2-21.2-26.4-1.3-10.1-2.3-20.9 3.4-29.5q1.8-2.9 3.7-5.7c3.4-5.4 6.8-10.8 10.8-15.8 15.2-18.6 17.1-34.1 16.7-57.6q-.2-7-.1-14.1 0-13.2-.2-26.5-.2-15.2-.2-30.5-.1-32.7-.5-65.5c-1.5 0-1.5 0-2.9.1q-2 0-3.9 0c-3.9.1-7.4.4-10.9-1.7-4.4-4.5-5.6-8.8-5.7-14.9q0-1.2 0-2.4 0-2.6 0-5.2 0-4.1 0-8.1 0-2.7 0-5.3 0-1.3 0-2.6c0-5.7.1-10 3.4-14.9 4.1-3.5 7.1-4.5 12.3-4.5h2.5q4.1 0 8.3 0 3.1 0 6.1 0 8.4 0 16.7.1 8.8 0 17.7 0 16.7 0 33.4.1 19.2.1 38.4.1 39.6.1 79.3.2h3.3q0-1 0-2c9.1-27.5 22.3-54.2 43.4-74.5q1.3-1.3 2.6-2.5c18-17.4 38.9-31.1 62.4-39.8L458 69c16.8-5.7 33.4-8.4 51.1-8.3z" fill="#fabe00"/><path d="M510.8 60.7q3.7 0 7.5-.1c45.7-.1 87 21.4 119.2 52.8 3.6 3.6 6.8 7.6 9.9 11.7q.8 1.1 1.7 2.2c10.8 14.4 19.2 29.5 25.8 46.3q.5 1.1.9 2.2.4 1.1.9 2.1.3 1 .7 1.9c.8 3 1.2 6.1 1.6 9.2q1.6 0 3.3 0 39.5-.1 78.9-.2 19.1 0 38.2-.1 16.6-.1 33.3-.1 8.8 0 17.6 0 8.3-.1 16.6-.1 3 0 6.1 0 4.1 0 8.3 0 1.2 0 2.4 0c5.2 0 8.2 1 12.3 4.5 3 5.2 3.5 9.8 3.5 15.7q0 1.2 0 2.5 0 2.6 0 5.1 0 3.9.1 7.8 0 2.5 0 5.1 0 1.1 0 2.3c0 5.8-1.7 10.1-5.6 14.5-3.5 2.3-6.6 2.2-10.7 2.1q-1.8 0-3.6 0-1.3-.1-2.7-.1-.3 32.8-.4 65.6 0 15.3-.2 30.5-.1 13.3-.1 26.6 0 7.1-.1 14.1c-.3 22.3.5 38 15 56 2.5 3.1 4.5 6.3 6.5 9.7q.9 1.5 1.9 3 1.8 2.9 3.6 5.9.9 1.4 1.9 2.9.7 1.2 1.5 2.5 1.7 2.6 3.4 5.2c1.8 13.7-1.9 27.5-9.8 38.5-8.5 10.3-19.5 14.9-32.5 16.4-12.3.7-23.7-3.1-33.2-10.9-7-6.7-11.2-14.4-15.5-23q-.5 1.1-1 2.3c-7.3 15.4-16.9 22.9-32.7 28.7-14.6 4.5-30.2 4.4-44-2.6C729 512 721.5 502.5 717 489c-.3 1.1-.3 1.1-.7 2.1-4.2 12.7-11.2 20.5-23 26.6-13.6 6.6-30.8 9.6-45.5 4.7-7-3.1-12.6-7.8-17.8-13.4q-.8-.8-1.6-1.6c-5.7-6.1-9.5-13.1-13.4-20.4q-.7 1.6-1.4 3.1c-6.8 14.5-15 25.5-30.4 31.2-16 5.5-31.9 3.6-47-3.7-12.1-6.6-19.7-16.7-23.6-29.8l-.6-2.8q-.5 1.8-1.1 3.7C506 503.4 498 514.1 484 521c-15.5 6.5-32.1 4.7-47.4-1.3-15-6.8-21.3-18.2-27.6-32.7q-.8 1.7-1.7 3.4c-7.7 15.1-15.6 25.5-32.1 31-17.7 5.1-33.6 4.3-50.2-4.4-10.6-6.8-18.2-15.7-21-28q-.3 1-.7 2.1c-4.5 13.6-11.5 22.2-24.4 28.7-14.8 7.3-30 6.6-45.5 1.3-2.2-.9-4.3-1.9-6.4-3.1q-1.2-.6-2.5-1.3c-9.6-5.3-15.4-12.5-19.5-22.7-.8-3.6-.8-3.6-1-6q-1 0-2 0c-.2 1.1-.2 1.1-.3 2.1-2.5 10.7-9.5 20.3-18.2 26.7-2.5 1.6-4.9 2.9-7.5 4.2q-.9.5-1.9 1c-11.4 5.1-24 3.2-35.3-.8-10.2-4.4-18-13.5-22.8-23.3-3.3-8.7-4.4-21.1-1.3-29.9 2-4.2 4.7-7.8 7.5-11.5 3.5-4.8 6.7-9.8 9.9-14.7q1.8-2.7 3.6-5.3.5-.9 1.1-1.7 1.6-2.3 3.1-4.7 1.1-1.5 2.1-3.1.6-.7 1.3-1.5c5.3-6.8 4.4-14.9 4.4-23.1q0-2.5 0-5.1 0-6.8 0-13.6 0-7.2.1-14.4 0-13.5 0-27 0-15.5.1-30.9.1-31.7.1-63.4c-1.5 0-1.5 0-2.9.1q-1.9 0-3.9 0c-1.9 0-1.9 0-3.8.1-4.6-.3-6.2-.9-9.4-4.2-3.2-5.1-3.4-9.1-3.4-14.9q0-1.3 0-2.6 0-2.6 0-5.3 0-4 0-8.1 0-2.6 0-5.2 0-1.2 0-2.4c0-4.9.6-8.4 3.4-12.5 5-4.1 8.6-4.6 14.8-4.5q1.3 0 2.6 0 4.4 0 8.7 0 3.2 0 6.3 0 8.5 0 17 .1 8.9 0 17.8 0 16.8 0 33.7.1 19.1.1 38.3.1 39.4.1 78.8.2.3-1.1.6-2.3l.8-3q.4-1.5.8-3c.8-2.8 1.8-5.5 3-8.2l1.2-2.8q.6-1.4 1.2-2.9.7-1.5 1.4-3c8.7-19.6 20.1-36.4 35-51.8q1.2-1.3 2.5-2.6c10.4-10.9 22.4-19 35.5-26.4 1.1-.6 1.1-.6 2.2-1.3 25.3-14.3 51.6-21.1 80.6-21z" fill="#90cfc7"/><path d="M510.8 60.7q3.7 0 7.5-.1c45.7-.1 87 21.4 119.2 52.8 3.6 3.6 6.8 7.6 9.9 11.7q.8 1.1 1.7 2.2c10.8 14.4 19.2 29.5 25.8 46.3q.5 1.1.9 2.2.4 1.1.9 2.1.3 1 .7 1.9c.8 3 1.2 6.1 1.6 9.2q1.6 0 3.3 0 39.5-.1 78.9-.2 19.1 0 38.2-.1 16.6-.1 33.3-.1 8.8 0 17.6 0 8.3-.1 16.6-.1 3 0 6.1 0 4.1 0 8.3 0 1.2 0 2.4 0c5.2 0 8.2 1 12.3 4.5 3 5.2 3.5 9.8 3.5 15.7q0 1.2 0 2.5 0 2.6 0 5.1 0 3.9.1 7.8 0 2.5 0 5.1 0 1.1 0 2.3c0 5.8-1.7 10.1-5.6 14.5-3.8 2.6-7.9 2.3-12.3 2.2h-2.6q-4.2 0-8.5 0-3 0-6.1 0-8.2 0-16.5 0-8.6 0-17.3 0-16.4 0-32.7-.1-18.7 0-37.3 0-38.4 0-76.7-.1l-.2 2.9q-.1 1.8-.2 3.7c-.2 1.9-.2 1.9-.3 3.8-.4 5-1.3 9.9-2.4 14.8-.4 1.5-.4 1.5-.7 3-3.6 15.5-9.6 29.8-17.2 43.8q-.9 1.6-1.7 3.2c-4.2 7.4-9 14.2-14.3 20.8q-.6.8-1.2 1.6c-27.6 34.6-68.6 56.1-112.3 61.9-3.5.3-7 .4-10.5.5q-1.3 0-2.6.1c-40 .8-79.4-9.3-111.4-34.1q-1-.7-1.9-1.5c-38.6-30.1-59.2-69.1-66.8-117-.3-2.5-.3-4.9-.3-7.5q-1.6 0-3.2 0-38.5.1-77.1.2-18.6 0-37.2.1-16.3.1-32.5.1-8.6 0-17.2 0-8.1.1-16.2.1-3 0-5.9 0-4.1 0-8.2 0-1.1 0-2.3 0c-5.2 0-8.2-1.2-12.2-4.5-3.3-4.9-3.4-9.2-3.4-14.9q0-1.3 0-2.6 0-2.6 0-5.3 0-4 0-8.1 0-2.6 0-5.2 0-1.2 0-2.4c0-4.9.6-8.4 3.4-12.5 5-4.1 8.6-4.6 14.8-4.5q1.3 0 2.6 0 4.4 0 8.7 0 3.2 0 6.3 0 8.5 0 17 .1 8.9 0 17.8 0 16.8 0 33.7.1 19.1.1 38.3.1 39.4.1 78.8.2.3-1.1.6-2.3l.8-3q.4-1.5.8-3c.8-2.8 1.8-5.5 3-8.2l1.2-2.8q.6-1.4 1.2-2.9.7-1.5 1.4-3c8.7-19.6 20.1-36.4 35-51.8q1.2-1.3 2.5-2.6c10.4-10.9 22.4-19 35.5-26.4 1.1-.6 1.1-.6 2.2-1.3 25.3-14.3 51.6-21.1 80.6-21z" fill="#0ea9c3"/><path d="M601 560.6q1.3 0 2.7 0 4.5 0 9.1 0 3.2 0 6.5 0 8.8 0 17.6 0 7.4 0 14.8 0 17.4-.1 34.8 0 17.9 0 35.9-.1 15.4 0 30.8 0 9.2 0 18.4 0 8.6 0 17.3 0 3.2 0 6.4 0 4.3 0 8.6 0h2.6c5.3 0 8.4.9 12.5 4.5 4.1 4.6 3.4 10 3.4 15.9q0 1.6 0 3.3 0 5.6-.1 11.2 0 3.9 0 7.9 0 8.6 0 17.2 0 12.5 0 24.9 0 20.2-.1 40.3 0 19.6 0 39.2 0 1.2 0 2.5 0 6 0 12.1-.1 50.2-.2 100.5h55v61h-84l-1-311q0 .5 0 1v310H148v-61h435l-.4-176.4v-25q0-8.4 0-16.8-.1-9.6-.1-19.3.1-4.9 0-9.9 0-5.3 0-10.5 0-1.6 0-3.2c0-6.1.7-9.9 4.5-14.9 4.2-3.7 8.6-3.4 14-3.4z" fill="#f8aa00"/><path d="M206.5 560.7q1.8 0 3.6 0 1.9 0 3.8 0 2.1 0 4.1 0 5.7 0 11.3 0 6.1 0 12.2 0 12 0 23.9 0 9.7 0 19.4 0 27.5-.1 55-.1 1.5 0 3 0h3q24.1 0 48.1 0 24.7-.1 49.4-.1 13.9 0 27.8 0 11.8 0 23.6 0 6 0 12.1 0 5.5 0 11 0 2.9 0 5.9 0h3.5q1.5 0 3.1 0c4 .7 6.5 3 9 6.2 1.1 3.5 1 7 1 10.6q0 1.2 0 2.5 0 4.3 0 8.5 0 3 0 6.1 0 8.2 0 16.4 0 6.9 0 13.8 0 16.2 0 32.4 0 16.8 0 33.5.1 14.4.1 28.8 0 8.6 0 17.1 0 8.1 0 16.2 0 3 0 5.9 0 4.1 0 8.1 0 1.2 0 2.4c0 4.5-.5 7.4-3.4 11-3.6 3.4-5.8 4.5-10.7 4.5q-1.8 0-3.5 0-1.9 0-3.9 0-2 0-4 0-5.6 0-11.2 0-6 0-12.1 0-11.8.1-23.6 0-9.6 0-19.2 0-1.4 0-2.8 0-2.7 0-5.5 0-26 .1-52.1 0-22.3 0-44.7 0-25.9.1-51.8 0-2.8 0-5.6 0-1.3 0-2.7 0-9.6 0-19.2 0-11.7.1-23.4 0-5.9 0-11.9 0-5.5 0-10.9 0-2.9 0-5.8 0c-10.7-.1-10.7-.1-15.4-4.5q-.9-.9-1.9-1.7c-1.7-3.5-1.5-6.8-1.5-10.6q0-1.3 0-2.6 0-4.2 0-8.5 0-3 0-6.1 0-8.2 0-16.5 0-6.9 0-13.8-.1-16.3 0-32.6 0-16.8-.1-33.6 0-14.5 0-28.9 0-8.6 0-17.3 0-8.1 0-16.2 0-2.9 0-5.9 0-4.1 0-8.1 0-1.2 0-2.4c0-5.2 1.2-8.2 4.5-12.2 3.4-2.3 4.6-2.3 8.5-2.3z" fill="#9ed6cc"/><path d="M155.5 417.9q1.7 0 3.5 0 1.8 0 3.7 0 5.2-.1 10.4 0 5.6 0 11.2-.1 11.1-.1 22.2-.1 13.4 0 26.7-.1l64.5-.2q15.2 0 30.5-.1 52.2-.1 104.4-.2 3.2 0 6.5 0 3.3 0 6.6 0 6.6 0 13.2 0 1.6 0 3.3 0 52.9-.1 105.9-.4 56-.3 112-.3 6.2 0 12.3 0 1.5 0 3.1 0 24.3 0 48.7-.2 24.5-.2 49-.1 14.5.1 29.1-.1 9.7-.1 19.4 0c3.7.1 7.4.1 11.1 0 21.2-.6 21.2-.6 27.8 5.4 4.7 5.7 8 12 11.1 18.8 1.7 3.7 3.8 6.9 6 10.3q2.8 4.4 5.5 8.9l1.9 2.9q.7 1.2 1.5 2.5 1.7 2.6 3.4 5.2c1.8 13.7-1.9 27.5-9.8 38.5-8.5 10.3-19.5 14.9-32.5 16.4-12.3.7-23.7-3.1-33.2-10.9-7-6.7-11.2-14.4-15.5-23-.5 1.1-.5 1.1-1 2.3-7.3 15.4-16.9 22.9-32.7 28.7-14.6 4.5-30.2 4.4-44-2.6C729 512 721.5 502.5 717 489c-.3 1.1-.3 1.1-.7 2.1-4.2 12.7-11.2 20.5-23 26.6-13.6 6.6-30.8 9.6-45.5 4.7-7-3.1-12.6-7.8-17.8-13.4l-1.6-1.6c-5.7-6.1-9.5-13.1-13.4-20.4l-1.4 3.1c-6.8 14.5-15 25.5-30.4 31.2-16 5.5-31.9 3.6-47-3.7-12.1-6.6-19.7-16.7-23.6-29.8q-.3-1.4-.6-2.8-.5 1.8-1.1 3.7C506 503.4 498 514.1 484 521c-15.5 6.5-32.1 4.7-47.4-1.3-15-6.8-21.3-18.2-27.6-32.7q-.8 1.7-1.7 3.4c-7.7 15.1-15.6 25.5-32.1 31-17.7 5.1-33.6 4.3-50.2-4.4-10.6-6.8-18.2-15.7-21-28q-.3 1-.7 2.1c-4.5 13.6-11.5 22.2-24.4 28.7-14.8 7.3-30 6.6-45.5 1.3-2.2-.9-4.3-1.9-6.4-3.1-1.2-.6-1.2-.6-2.5-1.3-9.6-5.3-15.4-12.5-19.5-22.7-.8-3.6-.8-3.6-1-6q-1 0-2 0-.2 1.1-.3 2.1c-2.5 10.7-9.5 20.3-18.2 26.7-2.5 1.6-4.9 2.9-7.5 4.2q-.9.5-1.9 1c-11.4 5.1-24 3.2-35.3-.8-10.2-4.4-18-13.5-22.8-23.3-3.3-8.7-4.4-21.1-1.3-29.9 2-4.2 4.7-7.8 7.5-11.5 3.5-4.8 6.7-9.8 9.9-14.7q1.8-2.7 3.6-5.3.5-.9 1.1-1.7 1.6-2.3 3.1-4.7c2.1-2.8 2.1-2.8 3-5.1 2.9-6.2 5.9-6.9 12.6-7.1z" fill="#f2e6b9"/><path d="M790 589q1.5.5 3 1v311h84V763c6.8-3.4 17.9-1.1 25 1 13.6 4.6 23.6 12.1 30.3 24.9 4.4 9.4 5 16.7 4.7 27.1q1.3.2 2.6.3c11 2.2 20.6 9.4 27.2 18.1 7 11 9.6 23.2 7 35.9-1.8 7.6-4.7 14.7-9.8 20.7q-1 0-2 0 0 1 0 2c-7.3 6.7-17.8 13-28 13q0 1.2.1 2.4.1 5.6.2 11.1.1 1.9.1 3.8c.1 7.7-.1 13-5.4 18.7-6.5 5.9-13.3 5.7-21.8 5.6q-2.1 0-4.2 0-5.8 0-11.6 0-6.3 0-12.6 0-11.1 0-22.1 0-16.5-.1-32.9-.1-29.4 0-58.7 0-25.7-.1-51.4-.1-1.7 0-3.5 0-6.9 0-13.8 0-64.9-.1-129.7-.2-57.7-.1-115.3-.2-14.8 0-29.6 0-1.8 0-3.6 0-48.2-.1-96.4-.2-5.1 0-10.3 0-3.4 0-6.9 0-25.7 0-51.3 0-29.2-.1-58.4-.1-16.4-.1-32.7-.1-10.9 0-21.8 0-6.3 0-12.5 0-5.7 0-11.3-.1-3 0-6 0c-7.8 0-11.6-.6-17.2-6.1-3.6-4.5-4.5-7.4-4.5-13.1v-3.4q0-1.7 0-3.5v-3.5q0-1.6 0-3.3 0-1.6 0-3.1c.1-2.5.1-2.5 1.1-4.5q-1.9-.1-3.9-.2c-12.2-1.5-21.8-8.3-29.5-17.6-7.4-10.5-10.2-22.7-8.1-35.4 3.3-14.3 10.7-24.2 23.1-32.4 4.7-2.7 8.8-4.4 14.4-4.4-.1-1-.1-1-.1-2-.4-13.3 3.6-25.1 12.3-35.3 10.6-11 22.9-16.1 37.9-16.8 3.9.1 3.9.1 11.9 1.1v138h644c22.1-161.5 22.1-161.5-2-312z" fill="#feb700"/><path d="M601 560.6q1.3 0 2.7 0 4.5 0 9.1 0 3.2 0 6.5 0 8.8 0 17.6 0 7.4 0 14.8 0 17.4-.1 34.8 0 17.9 0 35.9-.1 15.4 0 30.8 0 9.2 0 18.4 0 8.6 0 17.3 0 3.2 0 6.4 0 4.3 0 8.6 0h2.6c5.3 0 8.4.9 12.5 4.5 4.1 4.6 3.4 10 3.4 15.9q0 1.6 0 3.3 0 5.6-.1 11.2 0 3.9 0 7.9 0 8.6 0 17.2 0 12.5 0 24.9 0 20.2-.1 40.3 0 19.6 0 39.2 0 1.2 0 2.5 0 6 0 12.1-.1 50.2-.2 100.5h55v61h-84l-.1-28.5q-.1-45.2-.2-90.3-.1-7-.1-14v-2.8q0-22.7-.1-45.3-.1-23.2-.1-46.3-.1-14.4-.1-28.7 0-9.8-.1-19.6 0-5.7 0-11.3 0-6.1 0-12.3v-3.6q-.1-1.7-.1-3.3 0-1.4 0-2.9c.1-2.1.1-2.1-1.1-3.1q-3.4-.1-6.8-.1-1.1 0-2.2 0-3.7 0-7.3 0-2.6 0-5.3-.1-7.1 0-14.2 0-5.9 0-11.8 0-14 0-28 0-14.4 0-28.9 0-12.4 0-24.7 0-7.4 0-14.8 0-7-.1-14 0-2.5 0-5.1-.1-3.5 0-6.9.1-2 0-4 0c-3.1-.1-3.1-.1-5 2.2-.3 2.3-.3 2.3-.3 5.1q0 1.6 0 3.3 0 1.8 0 3.6 0 1.9 0 3.8 0 5.3 0 10.6 0 5.8 0 11.6-.1 11.2-.1 22.5 0 13-.1 26-.1 34.3-.1 68.6L611 901H148v-61h435l-.4-176.4v-25q0-8.4 0-16.8-.1-9.6-.1-19.3.1-4.9 0-9.9 0-5.3 0-10.5 0-1.6 0-3.2c0-6.1.7-9.9 4.5-14.9 4.2-3.7 8.6-3.4 14-3.4z" fill="#ea7900"/><path d="M174.5 415.7l11.3-.1q9.8-.1 19.6 0h29.2l52.1-.1q22.9.1 45.7.1 1.5 0 3 0 6.2 0 12.3 0l115.4.1q51.2.2 102.4.1 57.6-.2 115.1-.1 6.2 0 12.3 0 1.5 0 3 0 22.9.1 45.7 0 25.9-.1 51.8.1 14.5.1 29 0 9.7-.1 19.4.1h11.1c21.1-.5 21.1-.5 27.7 5.5 4.7 5.7 8 12.1 11.1 18.8 1.7 3.7 3.8 6.9 6.1 10.3a49.76 49.76 0 0 0 1.9 3q1.9 3 3.8 6 .9 1.4 1.8 2.9a38.44 38.44 0 0 1 1.7 2.6q.5 1 1 2-.5 1-1 2-112.6-.1-225.3-.2h-3.4q-36.2 0-72.4 0-17.7 0-35.5-.1-1.7 0-3.5 0-57.3 0-114.6 0-58.9-.1-117.8-.1-8.3-.1-16.6-.1-1.6 0-3.3 0-26.4 0-52.7 0-26.5 0-53 0-15.7-.1-31.5-.1-10.5 0-21 0-6 0-12 0-5.4 0-10.9 0-2.9 0-5.8 0h-3.4q-1.5 0-3 0-1.1-.2-2.3-.4-1-1.5-2-3 1.1-1.7 2.2-3.5.8-1.1 1.5-2.2 1.7-2.6 3.5-5.2c3.4-5.2 6.5-10.3 9.2-15.8 10-19 19.5-23.2 41.1-22.6z" fill="#f1ebc8"/><path d="M206.5 560.7q1.8 0 3.6 0 1.9 0 3.8 0 2.1 0 4.1 0 5.7 0 11.3 0 6.1 0 12.2 0 12 0 23.9 0 9.7 0 19.4 0 27.5-.1 55-.1 1.5 0 3 0h3q24.1 0 48.1 0 24.7-.1 49.4-.1 13.9 0 27.8 0 11.8 0 23.6 0 6 0 12.1 0 5.5 0 11 0 2.9 0 5.9 0h3.5q1.5 0 3.1 0c4 .7 6.5 3 9 6.2 1.1 3.5 1 7 1 10.6q0 1.2 0 2.5 0 4.3 0 8.5 0 3 0 6.1 0 8.2 0 16.4 0 6.9 0 13.8 0 16.2 0 32.4 0 16.8 0 33.5.1 14.4.1 28.8 0 8.6 0 17.1 0 8.1 0 16.2 0 3 0 5.9 0 4.1 0 8.1 0 1.2 0 2.4c0 4.5-.5 7.4-3.4 11-3.6 3.4-5.8 4.5-10.7 4.5q-1.8 0-3.5 0-1.9 0-3.9 0-2 0-4 0-5.6 0-11.2 0-6 0-12.1 0-11.8.1-23.6 0-9.6 0-19.2 0-1.4 0-2.8 0-2.7 0-5.5 0-26 .1-52.1 0-22.3 0-44.7 0-25.9.1-51.8 0-2.8 0-5.6 0-1.3 0-2.7 0-9.6 0-19.2 0-11.7.1-23.4 0-5.9 0-11.9 0-5.5 0-10.9 0-2.9 0-5.8 0c-10.7-.1-10.7-.1-15.4-4.5q-.9-.9-1.9-1.7c-1.7-3.5-1.5-6.8-1.5-10.6q0-1.3 0-2.6 0-4.2 0-8.5 0-3 0-6.1 0-8.2 0-16.5 0-6.9 0-13.8-.1-16.3 0-32.6 0-16.8-.1-33.6 0-14.5 0-28.9 0-8.6 0-17.3 0-8.1 0-16.2 0-2.9 0-5.9 0-4.1 0-8.1 0-1.2 0-2.4c0-5.2 1.2-8.2 4.5-12.2 3.4-2.3 4.6-2.3 8.5-2.3zM220 590c-.3 3-.3 3-.3 6.5q0 1 0 2 0 3.4 0 6.8 0 2.5 0 4.9 0 6.6 0 13.3 0 6.9 0 13.8 0 11.6 0 23.2.1 13.5 0 26.9 0 11.6 0 23.1 0 6.9 0 13.8 0 6.5 0 13 0 2.3 0 4.7 0 3.3 0 6.5 0 1.8 0 3.7c0 2.9 0 2.9 2.3 4.8 2.2.3 2.2.3 4.8.3h3 3.4q1.8 0 3.6 0 4.9 0 9.8 0 5.3 0 10.7 0 10.4 0 20.8 0 8.4 0 16.9 0 1.2 0 2.4 0 2.5 0 4.9 0 22.9 0 45.8 0 19.7-.1 39.4 0 22.8 0 45.6 0 2.5 0 4.9 0h2.4q8.5 0 16.9 0 10.3 0 20.6 0 5.3 0 10.5 0 5.7 0 11.4 0 1.7 0 3.4 0h3q1.4 0 2.7 0c2.3-.1 2.3-.1 4.1-2.3.3-3 .3-3 .2-6.5.1-1.1.1-1.1.1-2.1q0-3.4-.1-6.8 0-2.5 0-5 .1-6.6 0-13.3 0-7 0-13.9 0-11.7 0-23.4 0-13.6 0-27.1 0-13 0-26 0-5.6 0-11.1 0-6.5-.1-13.1 0-2.4 0-4.8 0-3.2 0-6.5v-3.7c.2-2.6.2-2.6-1.1-3.7q-2.3-.1-4.6-.1h-3.1q-1.7 0-3.4 0-1.8 0-3.6 0-5 0-9.9 0-5.3 0-10.7-.1-10.4 0-20.9 0-8.5 0-16.9 0-24.1 0-48.1 0h-2.7-2.6q-21.1 0-42.1 0-21.6 0-43.2 0-12.2 0-24.3 0-10.3-.1-20.7 0-5.3 0-10.5-.1-5.7 0-11.5.1c-1.6-.1-1.6-.1-3.4-.1q-1.5 0-3 .1-1.3 0-2.7 0c-2.3 0-2.3 0-4.1 2.2z" fill="#0ca8c3"/><path d="M583 571q.5 0 1 0v330H148v-61h435V571z" fill="#f39900"/><path d="M419.5 587.5l17.1.4q16.7.4 33.4 1.1c-1 .9-1 .9-1.9 1.9-2.5 2.4-4.8 5-7.1 7.6-5.8 6.5-12 12.6-18.1 18.7q-2 2-3.9 3.9-4.2 4.2-8.4 8.3-6.6 6.6-13.2 13.2-14 14-28 28-15.2 15.1-30.3 30.3-6.6 6.5-13.1 13.1-4.1 4-8.2 8.1-1.9 1.9-3.8 3.8c-8.6 8.5-8.6 8.5-16.6 17.5-1.5 1.7-3 3-4.7 4.4-2.8 2.1-2.8 2.1-4.7 5.2q-1 0-2 0 0 1 0 2l205 1q0 .5 0 1-55.2.1-110.3.1-6.6 0-13.1 0-1.3 0-2.6 0-21 0-42 .1-21.5 0-43.1 0-13.3 0-26.6 0-9.1 0-18.2 0-5.2 0-10.5 0-5.7.1-11.4 0-1.7 0-3.4.1-1.5 0-3-.1-1.3 0-2.7 0c-2.1-.2-2.1-.2-4.1-2.2-.2-2.8-.2-2.8-.2-6.5q0-1 0-2.1 0-3.4 0-6.8 0-2.4 0-4.9 0-6.6 0-13.2 0-6.9 0-13.9 0-13.1.1-26.2 0-15 0-29.9 0-30.8.1-61.5.5 0 1 0l1 149 9-9c4.1-3.6 4.1-3.6 6.1-5.2 2.7-2.5 5-5.2 7.3-8 2.1-2.4 4.3-4.6 6.6-6.8q.9-.9 1.8-1.9.9-.9 1.9-1.9.9-.9 1.7-1.8c1.6-1.4 1.6-1.4 3.6-1.4l1-3q1 0 2 0 .4-.9.8-1.8c1.3-2.5 2.8-3.7 5-5.5 3.4-2.9 6.2-5.9 9-9.4q.6-.6 1.2-1.3 1 0 2 0 0-1 0-2c1.5-1.4 1.5-1.4 3.4-3 2.8-2.1 2.8-2.1 4.6-5q1 0 2 0l1-3c1.5-1.5 1.5-1.5 3.5-3.1 4.9-4.2 9.5-8.8 14.1-13.4q1.2-1.2 2.5-2.5c3.6-3.5 7.1-7.1 10.3-11 2.4-2.7 4.7-4.8 7.6-7q1-1.5 2-3 1 0 2 0 .4-1 .8-1.9c1.2-2.1 1.2-2.1 4.2-3.1q.4-.9.9-1.8c1.4-2.8 3.3-4.2 5.7-6.2 3.8-3.3 6.6-6.5 9.4-10.6 16.4-22.4 39-19 64.5-17.9z" fill="#88ccc6"/><path d="M494.4 104.6q1.3 0 2.7 0 1.3 0 2.8 0h2.9q3-.1 6.1 0 4.6 0 9.3-.1 3 0 5.9 0 1.4 0 2.8 0h2.7 2.3c3.1.7 4.2 2 6.1 4.5.5 2.8.5 2.8.5 6q0 1.8 0 3.6-.1 1.9-.1 3.9 0 2 0 4-.1 5.3-.1 10.6-.1 5.4-.1 10.8-.1 10.5-.2 21.1 1.1 0 2.2 0 10.1-.1 20.3-.2 5.2 0 10.4-.1 6-.1 12-.1 1.9 0 3.8-.1 1.7 0 3.5 0h3.1c3.5.6 4.6 1.7 6.7 4.5.5 2.2.5 2.2.5 4.6q0 1.4 0 2.8v2.9q0 1.5 0 3.1 0 3.1 0 6.3-.1 4.9 0 9.8-.1 3.1-.1 6.2 0 1.4 0 2.9 0 1.4 0 2.8 0 1.2 0 2.4c-.5 2.9-1.3 4.2-3.4 6.2-2.6.5-2.6.5-5.8.5h-3.5q-1.9-.1-3.9-.1-1.9 0-4 0-5.2-.1-10.4-.1-5.3-.1-10.6-.1-10.4-.1-20.8-.2v2q.1 10.4.2 20.9 0 3.8 0 7.7.1 5.6.1 11.2 0 1.7 0 3.5 0 1.6 0 3.3l.1 2.9c-.5 3-1.2 4.4-3.4 6.5-2 .5-2 .5-4.4.5q-1.3 0-2.7 0H525q-1.5 0-3 0-3.1 0-6.2 0-4.8-.1-9.6 0-3-.1-6.1-.1-1.4 0-2.9 0-1.3 0-2.7 0-1.1 0-2.3 0c-2.9-.5-4.2-1.3-6.2-3.4-.5-2.4-.5-2.4-.5-5.4q0-1.6 0-3.3.1-1.8.1-3.6 0-1.8 0-3.7.1-5.8.2-11.7 0-3.9 0-7.9.1-9.7.2-19.4-1.1 0-2.2 0-10.1.1-20.3.2-5.2 0-10.4.1-6 .1-12 .1-1.9 0-3.8.1h-3.5-3.1c-3.5-.6-4.6-1.7-6.7-4.5-.5-2.2-.5-2.2-.5-4.6q0-1.4-.1-2.8.1-1.4.1-2.9 0-1.5 0-3.1 0-3.1 0-6.3 0-4.9 0-9.8 0-3.1 0-6.2 0-1.4-.1-2.9.1-1.4.1-2.8 0-1.2 0-2.4c.7-3.1 2-4.3 4.5-6.2 2.7-.5 2.7-.5 5.8-.5q1.7 0 3.5 0 1.9.1 3.8.1 1.9 0 3.9 0 5.1.1 10.2.1 5.2.1 10.4.1 10.2.1 20.4.2 0-1.1 0-2.3-.1-10.7-.2-21.4 0-5.5-.1-11-.1-5.3-.1-10.6 0-3-.1-6.1 0-1.8 0-3.7 0-1.6 0-3.2c.5-2.7.5-2.7 2.3-4.5 2.4-1.3 3.9-1.6 6.6-1.6z" fill="#fdf8e2"/><path d="M142.8 188.6h2.6q4.4 0 8.7 0 3.2.1 6.3.1 8.5 0 17 .1 8.9.1 17.8.1 16.8.1 33.7.3 19.1.1 38.3.2 39.4.3 78.8.6-.2.9-.4 1.8c-3 15-3 15-4.6 30.2l-.2 3.3q-.2 5.2-.4 10.4c0 1.8 0 1.8-.1 3.6q-.2 4.3-.3 8.7-40.1.1-80.3.2-18.6 0-37.2.1-16.3.1-32.5.1-8.6 0-17.2 0-8.1.1-16.2.1-3 0-5.9 0-4.1 0-8.2 0-1.1 0-2.3 0c-5.2 0-8.2-1.2-12.2-4.5-3.3-4.9-3.4-9.2-3.4-14.9q0-1.3 0-2.6 0-2.6 0-5.3 0-4 0-8.1 0-2.6 0-5.2 0-1.2 0-2.4c0-4.9.6-8.4 3.4-12.5 5-4.2 8.6-4.6 14.8-4.4z" fill="#0084cb"/><path d="M895.2 192.8c4 4.8 4.1 9.7 4.2 15.7q0 1.2 0 2.5 0 2.6 0 5.2.1 3.9.1 7.8.1 2.6.1 5.1 0 1.1 0 2.3c0 5.9-1.7 10.2-5.6 14.6-3.8 2.6-7.8 2.3-12.3 2.2q-1.2 0-2.5 0-4.2 0-8.5 0-3 0-6 0-8.3 0-16.5 0-8.6 0-17.2 0-16.3 0-32.6-.1-18.5 0-37.1 0-38.1 0-76.3-.1 0-1.2-.1-2.5-.1-4.7-.3-9.4-.1-3-.2-6c-.3-9.2-1-18.1-2.4-27.1q-.5-3.4-1-6.7-.3-1.8-.6-3.6-.2-1.3-.4-2.7 40.6-.3 81.1-.5 18.8-.1 37.7-.2 16.4-.1 32.8-.2 8.7-.1 17.4-.1 8.1-.1 16.3-.1 3 0 6-.1 4.1 0 8.2 0 1.2 0 2.4 0c5.4 0 9.1.6 13.3 4z" fill="#0083ca"/><path d="M148 763v138l-54 1-4 4c-7.2 1.1-15.5-2.8-21.4-6.5-10.7-8-18-18.2-20.6-31.5-1-12.3 1.3-24.6 8.9-34.5 7-8.1 14.7-14.5 25.1-17.5q2 0 4 0-.1-1-.1-2c-.4-13.3 3.6-25.1 12.3-35.3 14.5-15.1 29.5-17.1 49.8-15.7z" fill="#4fa800"/><path d="M902 764c13.6 4.6 23.6 12.1 30.3 24.9 4.4 9.4 5 16.7 4.7 27.1q1.3.2 2.6.3c11 2.2 20.6 9.4 27.2 18.1 7 11 9.6 23.2 7 35.9-1.8 7.6-4.7 14.7-9.8 20.7q-1 0-2 0 0 1 0 2c-8.3 7.7-18.1 11.5-29 14q-1.5-2.5-3-5l-53-1V763c6.8-3.4 17.9-1.1 25 1z" fill="#50a800"/><path d="M560.9 293.2c9.6 6.6 14 15.1 16.7 26.3 1.9 11.7.6 26.4-5.4 36.9-5.4 7.2-13.5 10.8-22.2 12.6-7.9.8-15.1-.1-22-4-3-2.7-5.5-5.8-8-9q-1.7-2-3.5-4.1-.8-.9-1.7-2a78.06 78.06 0 0 0-5.9-5.6c-6.5-6.4-11.8-16.6-11.9-25.9.5-9.1 3.1-16.5 9.9-22.8 16.4-12.6 36.3-12.7 54-2.4z" fill="#fcbe01"/><path d="M821 570q.5 0 1 0v270h55v61h-56V570z" fill="#f39900"/><path d="M588.3 243.1c4 3.8 5.6 8 5.8 13.5-.4 9.5-4.2 17.5-11.2 23.9-5.2 4.1-10 6.2-16.7 5.9-5.4-1-8.3-3.3-11.6-7.5-2.9-5.8-2.5-12.9-.7-19 3.8-8.6 11.5-15.4 20.1-18.9 5.4-1.6 9.5-1 14.3 2.1z" fill="#fbbe02"/><path d="M616 268.7c4.5.7 7.3 2.5 10.3 5.8 3.8 5.6 3.5 12 2.7 18.5-3.1 8.2-8.8 13.5-16.1 17.9-5.4 2-11.3 1.7-16.9 1.1-4.9-2.2-7.6-5.2-10-10-1-5.5-.2-10.2 2.5-15 4.6-6.3 10.8-10.3 17.5-14q1-1.1 1.9-2.2c2.7-2.3 4.7-2.3 8.1-2.1z" fill="#fbbe01"/><path d="M621 320c3.8 2.1 7 4.1 9 8 1.5 6.4 1 11.1-2 17-4 6.1-8.8 10.4-16 12-7.9.8-16 1.6-22.6-3.6-3.5-3.5-4.6-6.2-5-11.2.2-4.8 1.5-7.8 4.6-11.5 5.9-5.2 13.2-7.3 20.8-9.1 7.3-1.9 7.3-1.9 11.2-1.6z" fill="#fbbe02"/><path d="M764.4 725.1c4.1 3 7 6.1 8.6 10.9.7 6.5.6 11.9-3.4 17.3-4 4.2-8.5 5.9-14.2 6.1-5.5-.2-9-2.2-13.1-5.8-4.2-4.8-4.9-9.5-4.7-15.8.9-5.6 4.3-9.2 8.7-12.5 5.6-2.7 12.3-2.1 18.1-.2z" fill="#ea7900"/></svg>