<svg xmlns="http://www.w3.org/2000/svg" width="1024" height="1024" xmlns:v="https://vecta.io/nano"><path d="M317 290l.2 1.9c1.5 10.4 7.6 16.8 15.8 23.1 8.7 5.8 18.4 11.2 29 12q1.1.1 2.3.2c7.8.4 14.9-1.4 21.1-6.3 4-3.7 5.5-7.7 6.6-12.9 19.4 7.6 41.9 19.2 51 39.1q.9 2.2 1.8 4.4.5 1.2 1 2.4c4.8 11.8 8.9 23.8 13.1 35.7 6.5 18.3 13.8 35.2 26.1 50.4q.6.8 1.3 1.7c3 3.8 6.4 6.7 10.3 9.5q1 .7 2 1.5c10.7 7.6 22.9 14 35.4 18.3-1 3-1 3-3.2 4.3-3.5 2.1-5.7 4.8-8.1 7.9-.7.9-.7.9-1.5 1.8-8.2 10.9-14.7 24.5-17.2 38-8.4-1.2-15.3-4.9-22.6-8.8q-3.8-1.9-7.6-3.8c-14.2-7.2-26.6-15.2-38.5-25.8-2.9-2.7-5.6-4.2-9.3-5.6-.1.9-.1.9-.1 1.9q-.8 11-1.7 22.1-.3 3.1-.5 6.2-.4 5.3-.9 10.6-.2 2.1-.3 4.1-.3 2.9-.5 5.8-.2 1.7-.3 3.4c-.8 3.5-1.9 4.7-4.7 6.9-3 .9-5.9 1.5-9 2q-1.8.4-3.6.7c-21.9 4.2-44.1 4.5-66.3 4.5q-1.5.1-3.1.1c-67.2.2-67.2.2-92-16.3-.7-3.9-.5-7.9-.5-11.8q0-1.8 0-3.7c.2-14.5 2.4-28.6 4.5-42.9 3.5-23.2 3.5-23.2 4-46.6q-1 0-2 0-.3 1.2-.6 2.4c-1.8 4.8-4.4 9-7 13.4-13.7 23.6-23.6 48.8-30.4 75.2q-.4 1.7-.9 3.5-1.5 5.6-2.9 11.2-.5 1.8-.9 3.6c-1.3 5-2.4 9.7-2.8 14.8-.5 4-.6 4.6-3.5 6.9-16.6 4.3-40.7 1.6-56-6-2-2-2-2-2.1-4 .9-8.5 2.5-16.8 4.3-25.1q.2-1.1.5-2.2 1.2-5.7 2.4-11.5 1.2-5.4 2.3-10.9c5.7-27.3 15.2-53.9 26.6-79.3.5-1.2.5-1.2 1.1-2.5 13.3-29.9 31.1-58.9 53.9-82.5q1.4-1.5 2.9-3.1c19.5-20.4 44.2-28.9 70.8-36.3 3.1-.9 7.2-3.6 10.3-3.6z" fill="#009ab3"/><path d="M243 531q.9.5 1.8.9c16.8 8.2 36.7 11.4 55.2 13.1a26.6 26.6 0 0 1 2.8.3c11.6.9 23.2.9 34.9.9q1.6 0 3.3 0c40.3.9 40.3.9 79-8.2-2.1 18.6-4.4 36.9-9 55q-.4 1.5-.7 3c-3.9 14.9-8.4 32.3-18.3 44.5-1.8 4.4.4 8.2 2 12.5q.6 1.6 1.2 3.2 1.7 4.3 3.5 8.7 2.1 5 4.1 10 .4 1 .8 2.1l13.4 35q.4 1.1.8 2.3c14.6 39.3 26.9 78.9 36.8 119.6q.4 1.3.7 2.6c4.5 19 4.5 19 3.7 24.5-1.8 1.9-1.8 1.9-4.2 3.5q-1.2.8-2.4 1.6c-9.8 5.6-19.3 9.4-30.2 12.2q-1.9.5-3.9 1.1c-7.2 1.9-14.2 3.8-21.7 3.7h-2.3q-1.1 0-2.2 0-1.2 0-2.4-.1-2.8 0-5.7 0c-3.8-8.6-7.3-17.3-10.7-26.1q-.6-1.7-1.3-3.4-1.3-3.5-2.7-7c-.6-1.7-.6-1.7-1.3-3.5q-.6-1.7-1.3-3.4c-8.4-21.9-17.7-43.3-27.3-64.7q-.5-1-.9-2-2.1-4.7-4.2-9.3c-8.3-18.3-8.3-18.3-8.3-21.6-5.1 3-5.1 3-8 8q-1 0-2 0 0 1 0 2-1 0-2 0-.4.8-.8 1.7c-3.9 7.4-10.3 13.6-15.9 19.7-2.4 2.7-4.6 5.4-6.8 8.2a132.81 132.81 0 0 1-11.4 12.3c-2.5 2.5-4.8 5.1-7.1 7.8-4 4.6-8.3 9.1-12.4 13.6q-2.3 2.4-4.5 4.9-9.3 10.1-18.8 20.1a261.19 261.19 0 0 0-9.9 11.1c-2.8 3.2-5 4.8-9.4 5.6q.3 1.4.6 2.9.2 1.5.4 3.1-1 1-2 2c-6.5-.2-13.3-1.8-19-5q-.5-2-1-4l16 1c-3.4-4.2-6.2-6.8-10.6-9.7-5.7-4-10.9-8.2-16-13.1-2-1.8-4-3.5-6.1-5.2-8.6-7.4-16.3-18.1-17.7-29.6.5-4.4 1.9-5.8 5-8.9q1.5-1.6 3.1-3.1.8-.8 1.6-1.7c2.4-2.4 4.7-5 7.1-7.5 4.8-5.3 9.8-10.4 14.9-15.5 2.4-2.4 4.6-4.9 6.8-7.5s4.5-5 6.8-7.5c4-4.5 7.9-9 11.6-13.7q2.7-3.2 5.4-6.4c9.7-11.5 18-23.9 26.1-36.6q.9-1.4 1.8-2.8c6.6-10.4 12-20.6 16.2-32.2q1.7-3.9 3.4-7.8c1-3.9.4-6.8-1.6-10.3q-2.3-3.8-4.8-7.6c-13.3-21-22.2-42.1-22.1-67.3q0-1.3 0-2.8 0-4.3 0-8.7 0-3 .1-6 0-7.2 0-14.5z" fill="#00435a"/><path d="M562 629c1 1 1 1 1.3 3.9 0 5.3-2.5 9.8-4.7 14.5-7 15.4-9.2 30.2-3.6 46.6 6 15.3 14.9 25.8 30 33 8.5 3.1 14.7 3.9 23 .2 16.4-6.4 35.3-4.7 52.6-4.7 38 0 38 0 71.4-16.5q.5-1.5 1-3c3.4-2.5 4.7-3 9-3 2.2 1.7 4.2 3.4 6.2 5.3 6.9 6.1 14.2 11.4 21.9 16.4q2.7 1.9 5.5 3.7c20.2 13.6 40.9 19.4 65.1 20.1q1.4.1 2.8.1 1.2.1 2.5.1c2 .3 2 .3 4 2.3-.4 2.9-1 5.6-1.6 8.4-1.9 8.7-3.4 17.5-4.6 26.3q-.3 1.7-.6 3.6c-1.7 12.1-1 21 2.2 32.9q.3.9.6 1.9c4.5 16.3 11.8 28 25.4 38.3 12.4 9.5 21.3 21.1 24.6 36.6.3 3.9.4 7.7.4 11.6q0 1.5 0 3c.1 6.1-.3 9.8-4.4 14.4-5.3 3.5-11.9 2.1-18 1-5.1-2.2-7.2-5.9-9.3-10.8-2.6-8.2-4.7-17.6-4.7-26.2q-1.1-.4-2.2-.8c-2.8-1.2-5-2.6-7.4-4.4-3.6-2.5-7.2-4.9-10.9-7.2-15-9.5-25.7-21.9-35.5-36.6-5.3.6-5.3.6-10 3-.8 2.8-.8 2.8-1.1 6.2-.2 1.9-.2 1.9-.5 3.8q-.2 2-.4 4-.2 1.9-.4 3.8-.7 5.9-1.2 11.7-.2 1.9-.4 3.9c-1.9 15.4-1.9 15.4 0 30.6 2.6 2.1 2.6 2.1 5.8 3.8 5.2 3.4 9 6.2 11.2 12.2.6 4.2.5 6.1-1.6 9.8-4.9 4.5-10.1 4.5-16.5 4.4-9.2-.6-17-2-23.5-9-1.7-2-3-4-4.4-6.2q-.7-1.1-1.4-2.2c-9-16-7-35.6-6.8-53.3q0-4 .1-8 0-9.8.1-19.5h-1.9c-22.8.3-22.8.3-33.9-1.4q-4.3-.6-8.5-1.2-2.8-.4-5.5-.9c-2.5-.4-4.7-.7-7.2-.5-4.4 3.4-5.8 9.2-7.5 14.3q-.4 1.3-.9 2.7-1.3 4-2.6 8c-.3 1.1-.3 1.1-.7 2.2-2.4 7.6-3.6 14.9-3.7 22.9q-.1 1-.1 2.1c.1 6 1.4 10.8 5.8 15.1 2.8 1.8 5.6 3.2 8.6 4.6 7.1 3.5 12.1 6.6 15.4 14 1.1 3.3 1.3 5.7.7 9.1-4.6 5.7-12.7 6.6-19.6 7.4-10.4.5-17.6-1.9-25.8-8.2-12.9-12-24.6-30.5-25.8-48.4-.3-9.3-.3-9.3 1.7-13.9 4.2-9.5.9-21.9-.5-31.9-3.3 2.7-6.5 5.5-9.5 8.5q-1.2 1.2-2.5 2.5c-.7.7-.7.7-1.3 1.4-8.2 7.7-19.6 12.6-30.2 16-7.7 4.9-9.2 18-11.1 26.3-.9 4.8-1.4 9.5-.4 14.3 1.9 3 1.9 3 5 5 6.5 5.2 12.2 10.1 13.6 18.7-.8 4.4-2.1 5.6-5.6 8.3-3.4 1-6.7 1.4-10.2 1.6-1.4.1-1.4.1-2.8.3-6.1.3-10.9.3-16.1-3.2-14.8-13.3-18.8-36.7-20-55.8-.7-14.4 1.3-23.9 11.1-34.9l2-1.8c9.1-10.1 7.7-27.1 7.2-39.7-.2-3.2-.7-6.3-1.2-9.5-.7-11.7-.9-25.6 7-35 2.1-3.2 2.3-4.3 2-8-1.6-1.6-3.6-1.4-5.9-1.6-13.5-2.4-25.1-13.9-33.2-24.4-11-16.9-15.9-36.2-12.2-56.3 3.8-15.9 13.7-29.6 27.3-38.7 2.9-1.4 4.9-.7 8 0z" fill="#f89700"/><path d="M741 80q1.1.4 2.3.7c15.9 5.4 30.1 13.1 42.7 24.3q1.3 1.1 2.5 2.1c22.3 19.2 36.5 47.4 39.3 76.6 1 13.4.5 26.3-2.8 39.3q-.2 1-.5 2.1c-5.3 21.2-15.3 39.1-30.5 54.9q-1.2 1.3-2.5 2.7c-21.5 22.5-52.8 35.7-83.9 36.6-33.9.4-65.3-12.8-89.6-36.2-22.9-22.8-36-54.4-36.4-86.7.1-8.7 1.6-17 3.4-25.4.3-1.6.3-1.6.7-3.2 3.9-17.7 12.5-34 24.3-47.8q1-1.2 2.1-2.4C643 82.2 695.4 65.1 741 80z" fill="#9ee6e3"/><path d="M403 68q1 .3 2 .5c14.7 4 27.6 11.6 39 21.5q1 .8 2.1 1.7c5.8 4.6 9.8 10.1 13.9 16.3q1 1.6 2.1 3.2c12.6 20.2 13.2 42.1 7.9 64.8-2.3-3.4-2.9-6.5-3.8-10.4-4.7-20-18.2-36.1-34.2-48.6q-2-1.1-4-2-.8 1.1-1.6 2.3c-9.4 12.9-20 22.1-33.4 30.7q-1.3.8-2.6 1.7c-10.4 6.6-22.1 11.5-33.5 16.4-15.5 6.7-31.9 14.8-38.9 31.2q-1 2.8-2 5.7-1 0-2 0-.3-.8-.6-1.6-1.3-3.5-2.7-7.1c-.4-1.2-.4-1.2-.9-2.5-2-5.2-3.9-9.9-8.7-13.1-4.6-1.6-9.6-1.7-14.1.1-6 3.8-9.8 10.6-12 17.2-.8 8.7-.2 14.9 5 22q1 1.5 2.1 3.1c7.7 8.5 18.5 13.9 29.2 17.7 1.7 1.2 1.7 1.2 2.6 3.8q.2 1.4.4 3 .3 1.4.5 3 .1 1.2.2 2.4-.5.5-1 1c-12.8 0-26-9.4-35-18-19.3-21-22.9-47.1-22.2-74.5.6-10.1 3.1-19.4 7.2-28.5-13.4 2.4-13.4 2.4-25 9q-1 .8-2 1.6c-8.7 7.9-13.3 18.9-18.4 29.2-7.6 15.5-15.4 29-27.6 41.2q-1.1 1.1-2.2 2.3c-11.3 10.9-27 15.3-42.4 15.3h-3.1c-16.3-.4-31.6-6.4-43.1-18C99 210 99 210 99 207c1.3 0 1.3 0 2.6-.1 11.3-.5 18.6-3.5 26.4-11.9 11.6-14.9 15.7-34.7 20.7-52.5 6.1-21.7 13-42 33.5-54 1.4-.7 1.4-.7 2.8-1.5q1.5-.8 3-1.6c16-8.3 33.8-11.8 51.4-6.5 16.2 5.5 27.9 17.8 36.6 32.1q4.2-4.2 8.4-8.5C291.2 95.6 297.7 89 306 84q1.5-.9 3.1-1.9C338.4 64.5 369.6 59 403 68z" fill="#00425b"/><path d="M428 114c18.6 11.6 34.7 30.4 39.8 52 1.4 7.4 1.7 14.2.7 21.6-.5 4.4-.7 8.6-.7 13q-.1 2.5-.1 4.9-.1 3.8-.2 7.6c-.4 25.5-4.1 47-22.9 65.4-15.6 14.6-33.1 18.1-53.6 17.5q.2 1.7.4 3.5.2 2.3.4 4.6.1 1.2.2 2.3c.4 5.5-.4 8.3-4 12.6-5.2 5.9-11.5 8.4-19.3 9.2-2.3.1-4.4 0-6.7-.2q-1.1-.1-2.2-.2c-15.4-2.1-29.5-12.5-39.4-23.8-3.2-4.6-3.6-7.9-3-13.4 1.2-14.2.4-26.5-2.9-40.3q-.5-2.3-.9-4.6c-.4-2.4-.4-2.4-1.6-5.7-2.4-1.8-2.4-1.8-5.5-2.6-13.4-4.8-24.5-12.8-31.5-25.4-2.3-7-2-14.8 1.3-21.5 3.3-5.8 6.6-10.4 12.7-13.5 5-.8 8.8-.6 13.4 1.6 4.9 4.4 7.2 9.5 9.4 15.6q.6 1.9 1.2 3.8c1 3 1 3 1 5q1 0 2 0 .2-.9.4-1.9c3.1-12.3 11.7-20.7 22.4-27.1 8.2-4.8 16.8-8.6 25.5-12.4 25.4-11.1 47.7-24.3 63.7-47.6z" fill="#fc7f00"/><path d="M797 534c4.5.2 6.5 2.1 9.6 5.3q1.1 1.2 2.2 2.4 1.1 1.1 2.2 2.3 1 .9 2 1.9c2.6 2.7 4.8 5.7 7 8.9.7.9.7.9 1.3 1.8 7.7 11 7.7 11 7.7 16.4q1.7.1 3.5.1c13.7.6 26 1.6 37.5 9.9q.9.7 1.9 1.3c3.7 3 6.6 6.4 9.5 10.1 7.2 8.9 14.1 15.3 25.7 17.1q3.9.3 7.9.5.1 1.2.3 2.4c.9 8.2.9 8.2 5.7 14.6 7.1 5.2 16.8 3.3 25 2-5.9 14.2-10.1 24.2-24 32q-1 .6-2.1 1.3c-7.4 4.4-15.5 5-24 3.3q-3.1-.9-6.3-1.8-.9-.4-2-.7c-6.7-2.2-12.1-5.7-17.6-10.1q-1 0-2 0c.7 5.2 2.6 7 6.5 10.3 11.7 7.9 24.8 9.1 38.5 7.7 3.5-.8 6.6-2.2 9.8-3.9 2.2-1.1 2.2-1.1 5.2-1.1-5.8 8.7-10.9 13.8-20 19q-2.2 1.4-4.4 2.8-2.4 1.5-4.7 2.9-1.1.8-2.3 1.5c-7.8 4.8-15.5 7-24.5 8.4-5.8.8-5.8.8-11.1 3.4a72.46 72.46 0 0 0-2.2 7.6q-.3 1.1-.5 2.2-.7 2.6-1.3 5.2c-19.8 5.9-43.2-4.5-60.4-13.7C759.5 687 759.5 687 755 672c.4-8.3 2.8-16.6 4.6-24.7q.7-2.9 1.3-5.7.4-1.7.8-3.5c.6-5.6-2-8.8-5.5-13q-.7-.9-1.4-1.8c-12.7-15.8-19.2-31.9-19.2-52.3q0-1.8 0-3.7c-.1-7.3.4-12.2 4.4-18.3q1-1 2-2c4.8.3 8.6 2 12.8 4.3q1 .5 2 1.1c11.5 6.4 22.3 13.9 31.2 23.6 2.5 2.5 4.5 4 8 4q-.3-1.9-.7-3.8c-2.3-13.8-3.4-26.3-.3-40.2q1-1 2-2z" fill="#f99700"/><path d="M571.5 505.8c6.3 6.7 9.8 18.3 11.1 27.3 1.7 8.6 5.6 16.5 9 24.4q1.1 2.4 2.1 4.9 3.1 7.3 6.3 14.6.5 1.2 1.1 2.5c5.4 12.6 5.4 12.6 11.8 24.7q.6 1.2 1.2 2.3c22.2 38.5 60 71 102.9 83.5 5.2 1.4 10.5 2.1 15.9 2.6 2.5.3 4.7.7 7.1 1.4q.6-1.5 1.2-3c3.2-7.4 7.9-13.7 12.8-20 2.9 2.8 5.3 5.4 7.6 8.7 4 5.4 9.1 9.3 14.4 13.3q1.2.9 2.4 1.8c20.3 14.9 45 26.5 70.5 26.3q1.2 0 2.4-.1 2.8 0 5.7 0c.1 4.7-.2 8.9-1.3 13.6q-.3 1.6-.7 3.2c-1.2 3.9-2.1 6.3-5 9.2-3.6.7-7.1.4-10.8.1q-1.5-.1-3.1-.2c-28.8-2.2-51.3-12.9-74.1-29.9q-1-.7-2-1.5c-4.5-3.3-8.8-6.8-13-10.4q-.9-.7-1.8-1.5-2.1-1.8-4.2-3.6c-.9.5-.9.5-1.8.9-6.6 3.3-6.6 3.3-10.2 2.1q-3.2-.1-6.5-.1c-35.3-1.7-70.9-32.2-93.5-56.9-3.9-4.5-7.5-9.2-11-14l-1.4-2c-17.4-24.4-30-52.1-38.9-80.7-.7-2.4-1.5-4.7-2.4-7.1-1.1-3.2-1.6-6.1-1.7-9.6-.5-6.7-2.1-13.6-6.5-18.9-2.1-1.9-2.1-1.9-5.2-2.4-5.9 1-10.1 4.2-14.9 7.7-.9.7-.9.7-1.9 1.4-5.2 4-8.7 9.1-10.1 15.6-1 10.8 1.2 18.5 7.6 27.2 4.3 5.2 9.5 8.5 15.4 11.8l-1 4c-5.8.8-9.5-.7-14.4-3.9-10.7-8.5-15.7-18.5-17.6-32-.9-9.2 1.7-15.6 7-23.1q.7-1.1 1.5-2.1c8.4-10.9 24.9-18.9 38-12.1z" fill="#01435c"/><path d="M161 802c3 2.8 4.3 5.7 6.1 9.5 5.6 11.8 14.8 19.5 24.9 27.5q1.8 1.5 3.5 3.1c3.8 3.3 8 6.1 12.1 9 2.4 1.9 3.3 3.1 4.4 5.9-5.5.1-10.6-.1-16-1 .6 3.1.6 3.1 2.7 3.9q1 .3 2.1.7 1.2.4 2.3.8 1.2.4 2.5.8 1.2.4 2.4.8 3 1 6 2l1 9c-4.3 1.4-8.5 1.3-13 1.5-3.3.5-3.9 1.1-6 3.5q1.1.1 2.2.2 5.1.4 10.2.9 1.7.1 3.5.2c8.5.9 13.5 3.3 20.1 8.7q2.8 1.7 5.6 3.4c6.8 4.3 13.9 9.6 16.4 17.6.2 3.9.2 7.3-1 11-23.5 3.3-41.5.2-60.8-14.1-2.8-2.2-5.5-4.5-8.2-6.9-.7-.7-.7-.7-1.5-1.3-7.9-7.1-13.3-14.7-18.5-23.9-3.5-6.1-7.6-11.9-11.8-17.6q-.7-1-1.5-2-1.4-1.9-2.8-3.8c-6.6-8.8-10.2-17.1-8.9-28.4 1.5-2.4 2.9-3.5 5.3-5 3.8-2.8 6.9-6.1 10.2-9.4q1.9-1.9 3.7-3.8 1.4-1.4 2.8-2.8z" fill="#fb8001"/><path d="M658 774q2 0 4 0c.3 7.2-.5 13.5-2.3 20.5q-.3 1.3-.6 2.6c-1.5 6.2-3.6 12-6.1 17.9l3.8 1.2c5.9 1.9 11.5 4.5 17.1 7.2q1.6.7 3.1 1.4 9.6 4.4 19 9.2l-1.3 1.9c-2.3 4.2-4 8.6-5.7 13.1q-.6 1.6-1.3 3.3c-4 10.8-6.9 21-7.1 32.6v2.1c0 5 1 8.7 3.4 13 3.3 3.2 6.8 5 10.9 6.9 7.1 3.5 12.1 6.6 15.4 14 1.1 3.3 1.3 5.7.7 9.1-4.6 5.7-12.7 6.6-19.6 7.4-10.4.5-17.6-1.9-25.8-8.2-12.9-12-24.6-30.5-25.8-48.4-.3-9.3-.3-9.3 1.7-13.9 4.1-9.4 1.1-22-.5-31.9q-.5-1-1-2 1.2-3.1 2.6-6.2c6.9-15.6 10.5-31.5 13.8-48.2.6-2.6.6-2.6 1.6-4.6z" fill="#fc8100"/><path d="M458 861q1.4 1.3 2.9 2.6c4.3 3.8 9.1 6.6 14.1 9.4-2 4.6-5.4 7.8-8.9 11.4-2.2 2.8-3.2 5.1-4.1 8.6q6.4-4.8 12.8-9.7 1.7-1.3 3.4-2.6c2.4-1.8 4.8-3.7 7-5.7 4.4-3.8 7.7-4.9 13.5-4.5 10 1.6 21.2 3.9 28.3 11.5 1.6 3.1 1.7 4.5 1 8-21 16.3-55.8 27.8-82 31q-1.4.2-2.9.4c-13.7 1.9-27.2 3.1-41.1 2.6q-.2-.8-.4-1.7c-2.3-10.4-4.7-20.5-8.7-30.3-1.4-3.3-1.9-5.3-1.9-9q1.8-.2 3.7-.4c22.2-2.7 45.4-7.5 63.3-21.6z" fill="#fc8000"/><path d="M712.8 189.2c8 4.5 12.5 12.4 16.6 20.4 3.5 6.5 9 10.3 14.9 14.5 4.4 3.2 6.9 6.6 8.7 11.9.7 7.4.7 13.9-4 20-5 5.1-8.3 7.2-15.5 7.4-6.1 0-10.2-1.1-15.4-4.2-6-3.4-13.5-2.9-20.1-2.2-3.9 1.1-7.4 2.8-11 4.6-4.8 2.3-8.7 2.9-14 2.4-6.8-2.7-11.9-6.6-15.1-13.3-2-6-2-13.1.5-18.9 3.3-5.6 8.5-9.8 13.9-13.3 6.4-4.2 9.2-9.4 12.3-16.3 5.6-11.8 15.5-17 28.2-13z" fill="#009ab3"/><path d="M143 550q1 .4 2 .8c18.1 6.6 37.9 7.9 57 5.2q-.1.8-.1 1.7c-.3 6.2.8 11.6 2.5 17.6 2.9 10.2 7 25.4 2.3 35.5-1.7 2.2-1.7 2.2-4.7 4.2-4.3.6-6.2.6-9.8-2.1-4-5.3-5.5-10.3-6.2-16.9q-1.5-.5-3-1l.2 3.4q.5 7.3.8 14.6.1 1.1.1 2.3.1 3.2.2 6.4a48.2 48.2 0 0 1 .1 3.8c-.5 4.2-1.8 6.3-4.4 9.5-3 2-3 2-6.2 1.7-3.8-.7-3.8-.7-7.5-1.8-3.4-1.1-3.4-1.1-7.3-.9-1.5-1.5-1.5-1.5-2.9-3.4-2.7-3.4-4.8-4.4-9.1-5.6-4.4-2.9-6.5-6.2-8.7-10.8q-.9-1.8-1.7-3.6c-5.8-13.4-4.5-27.3-1.3-41.3q.3-1.3.6-2.7c3-12.5 3-12.5 7.1-16.6z" fill="#fb8000"/><path d="M138 824q1 .5 2 1 .2 2.9.3 5.9c.7 11.3 7 18.7 13.8 27.3 4.4 5.9 8.1 12.1 11.8 18.4 12.1 20.5 31.4 37.6 54.9 43.8 6.1 1.1 12.2.9 18.4.8q2 0 4-.1 4.9 0 9.8-.1c-1.5 4.6-2.8 8.3-6 12-15.5 7.7-37 4.9-52.8-.3-19.4-6.7-31.5-21.3-43.1-37.7-3.8-5.3-7.7-10.3-11.9-15.3-18.7-22.8-18.7-22.8-19.9-33.8 1.7-9.4 11.8-15.8 18.7-21.9z" fill="#019ab4"/><path d="M754 671c2.9 2.8 5.3 5.4 7.6 8.8 4 5.3 9.1 9.2 14.4 13.2q1.2.9 2.4 1.8c20.3 14.9 45 26.5 70.5 26.3q1.2 0 2.4-.1 2.8 0 5.7 0c.1 4.7-.2 8.9-1.3 13.6q-.3 1.6-.7 3.2c-1.2 3.9-2.1 6.3-5 9.2-3.6.7-7.1.4-10.8.1l-3.1-.2c-28.7-2.2-51.3-12.9-74.1-29.9q-1-.7-2-1.5-3-2.2-6-4.5-1-.7-2-1.5-2.8-2.1-5.6-4.3-.9-.7-1.9-1.4c-4.4-3.6-4.4-3.6-4.8-7 .4-4.4 1.5-8.1 3.9-11.8.8-1.2.8-1.2 1.6-2.5 2.8-3.9 5.7-7.8 8.8-11.5z" fill="#0199b4"/><path d="M579.4 480.7c7.5 6.7 11.9 16.1 13 26.1.3 6.8.2 12.2-4 17.7-1.7 1.8-3.3 3.3-5.4 4.5q-1 0-2 0l-1.2-3.3q-.8-2.2-1.5-4.3-.4-1.1-.8-2.2c-2.1-5.7-4.3-10.7-9.5-14.2-10.7-1.5-19.4 1.3-28.3 7.2-5.9 6.2-10 13.1-13.7 20.8q-4.7-1.7-9.3-3.4c-1.3-.5-1.3-.5-2.7-.9q-1.2-.5-2.6-1-1.1-.4-2.3-.8c-2.1-.9-2.1-.9-5.1-2.9.6-18.4 12.5-36.2 25-49 11.7-8.4 39.1 0 50.4 5.7z" fill="#fa8000"/><path d="M658 774q2 0 4 0c.3 7.2-.5 13.5-2.3 20.5q-.3 1.3-.6 2.6c-1.5 6.2-3.6 12-6.1 17.9l3.8 1.2c5.9 1.9 11.5 4.5 17.1 7.2q1.6.7 3.1 1.4 9.6 4.4 19 9.2l-1.3 1.9c-2.3 4.2-4 8.6-5.7 13.1q-.6 1.6-1.3 3.3c-2.9 7.8-5 15.6-6.7 23.7q-1-1.5-2-3c-2.9-.3-5.7-.4-8.6-.4-6.8-.2-13-.9-19.5-2.9q-1-.3-2.1-.6c-4.5-1.5-4.5-1.5-5.7-3.9-.1-2.5-.1-5 0-7.4 0-5.3-.4-10.3-1-15.4q-.2-1.1-.3-2.1c-.5-3.8-.5-3.8-1.8-7.3q1.2-3.1 2.6-6.2c6.9-15.6 10.5-31.5 13.8-48.2.6-2.6.6-2.6 1.6-4.6z" fill="#d45c00"/><path d="M530 890c1.5 4.4 1.5 8.4 1 13-4.5 8.9-18.1 13-26.8 16.4-1.8.8-1.8.8-3.6 1.5-18.3 7.2-36.2 12.6-55.6 16.1q-1.4.2-2.8.5c-25.9 4.5-25.9 4.5-32.9 1.3-2.5-2-3.4-3.3-4.6-6.2q-.5-1.2-1-2.3c-.7-2.3-.7-2.3-.7-6.3 1-.1 1-.1 2.1-.1 22.7-1.5 45.1-3.1 66.9-9.9q1.1-.3 2.3-.7c11.2-3.5 21.9-8 32.5-13q.9-.4 1.8-.8c7.9-3.7 7.9-3.7 15.5-7.9 2.9-1.6 2.9-1.6 5.9-1.6z" fill="#019ab5"/><path d="M273 644c3.9 4.5 6.8 9.5 9.7 14.8l1.7 3c14.4 25.9 27.4 52.6 40.6 79.2q-.6.7-1.3 1.5-.8.9-1.6 1.9-.9.9-1.7 1.9c-1.5 1.7-1.5 1.7-2.4 3.7q-1 0-2 0 0 1 0 2-1 0-2 0-.5 1-1 2-4.3-9.1-8.6-18.1c-.7-1.4-.7-1.4-1.3-2.8q-8.1-16.8-15.9-33.7c-7.8-17.8-7.8-17.8-17.3-34.6-2.8-4.2-2.8-4.2-2.9-6.8.9-2.5 1.8-4.8 2.9-7.2q.5-1 .9-2 1.1-2.4 2.2-4.8z" fill="#002635"/><path d="M772.4 164.2c3 2 4 3.6 5.6 6.8 1.3 8.1-.1 15.9-4 23-4.3 5.9-9.1 11.4-16 14-5 .8-9.8 1.2-14.3-1.3-3.2-2.7-5.5-4.8-6-9.1-.5-10.5 3.2-18.1 9.8-26.1 7-7.4 14.9-10.8 24.9-7.3zm-123.3-.5c10.2 4.8 15.5 12.2 19.8 22.4 1.8 5.3 2.1 10.5-.1 15.7-4.9 5.9-4.9 5.9-9.3 6.6-8.4.3-14-1.9-20.2-7.5-7-7.4-9.6-16-9.5-25.9.3-4.9 1.7-7.7 5.3-10.9 4.7-1.8 9.2-2 14-.4zM730 133c4.6 2 7.1 5.1 10 9 2.8 8 1.9 18.3-1.7 25.9-2.2 3.6-4.4 6.3-8.3 8.1-5 .9-9.3.8-13.9-1.4-6.1-7.6-7-15-6.1-24.6 1.1-6.8 3.8-10.4 9.2-14.7 3.6-2.6 6.3-2.6 10.8-2.3zm-44 1c4.9 2.9 7.9 6.6 10 12 2 8.3 2.1 17.3-2 25-2.6 3.4-5.7 5.2-9.9 6.1-4.5.2-7.8-1.3-11.1-4.1-6.6-7.1-7.5-15.2-7.4-24.6.7-6.4 3.6-9.7 8.2-14 4.4-1.9 7.6-1.9 12.2-.4z" fill="#0199b2"/><path d="M797 534c4.5.2 6.5 2.1 9.6 5.3q1.1 1.2 2.2 2.4 1.1 1.1 2.2 2.3 1 .9 2 1.9c2.6 2.7 4.8 5.7 7 8.9q.7.9 1.3 1.8c7.7 11 7.7 11 7.7 16.4-10.6 2.8-21 5.4-32 5 1.1 2.9 1.8 4.8 4 7q0 2 0 4c-2.7-.4-3.8-.8-5.8-2.8-1.2-2.2-1.2-2.2-1.2-6.2q1 0 2 0c-.3-1.9-.3-1.9-.7-3.8-2.3-13.8-3.4-26.3-.3-40.2q1-1 2-2z" fill="#fb8000"/><path d="M565 511c4.7 3 7 8.5 8.5 13.7 1 4.8 1.7 9.3-.9 13.7-3.1 1.9-6 2.9-9.5 3.9-2.4.7-2.4.7-5.1 2.7-2.8.2-5.5.4-8.3.4q-1.1 0-2.2 0c-5.6.1-8.8-1.3-13.5-4.4.7-8.7 3.5-15.1 10-21a108.08 108.08 0 0 1 6.9-4.9q.9-.6 1.8-1.3c4.2-2.7 7.3-3.5 12.3-2.8z" fill="#f07b01"/><path d="M939.8 606.8q1.1-.1 2.3-.1c5.6 0 5.6 0 7.9 2.3 1.1 7.6-.1 15.4-4 22-3 1.7-3.8 1.9-7 2q-1.4.1-2.9.2c-6.6.3-10.8-.1-16.1-4.2-4-4.3-5.1-7.4-5.1-13.2q.1-1.3.1-2.7 0-1 0-2.1l2-.4q1.3-.2 2.6-.5 1.3-.2 2.6-.5c2.8-.5 2.8-.5 5.6-1.7 4.1-1.2 7.7-1.2 12-1.1z" fill="#01425d"/><path d="M433 386l4 1c1.2 2.4 1.1 3.8 1.1 6.5q0 1.3 0 2.8 0 1.5 0 3 0 1.6 0 3.2 0 3.4 0 6.7 0 5.1 0 10.1c0 10.7-.1 21.4-.5 32.1q-.1 1.4-.2 2.8c-.4 9.3-1.4 18.5-2.4 27.8-3.7 0-5.8-1.3-9-3q.1-1 .2-2l2.5-31q.3-3.5.6-7c1.1-14 2-27.9 2.4-41.9q0-1.5.1-3.1 0-1.3 0-2.7c.2-2.3.2-2.3 1.2-5.3z" fill="#00547f"/><path d="M417 207c6 .1 9.9 3 14 7 4.1 5.2 6.6 10.3 7.4 16.9-.6 3.2-2.1 4.8-4.4 7.1-6.4 3.7-13.6 6.4-21 5-2.3-1-2.3-1-4-2q0-1 0-2l1.8-.4c5.9-1.7 9-3.3 12.2-8.6 1-3.4 1-3.4 0-7-1.7-2.4-3.5-4.6-5.4-6.8-1.6-2.2-1.6-2.2-2.1-5.7.5-2.5.5-2.5 1.5-3.5z" fill="#063f5e"/><path d="M343 274c3.8.6 5.5 2.2 8.3 4.8 6.4 6.1 13.2 9.8 21.6 12.4q1.2.4 2.3.8c5.3 1.8 10.3 2.5 15.8 3l1 12c-5.6 1.1-5.6 1.1-9-.2q-1.1-.4-2.3-.8-1.1-.5-2.3-1-1.2-.5-2.5-1c-12-4.9-27-13.7-32.9-26q0-2 0-4z" fill="#b44500"/><path d="M868 654c2.7 1.2 4.5 2.4 6.8 4.3 5.6 4.1 12.6 5.8 19.2 7.7q1 .3 2.1.6c10.2 2 19.1.1 27.7-5.4q3.7-2.5 7.2-5.2l1 2c-2 5.7-4.1 9.1-9.3 12.5-11.5 5.5-25.9 5.7-37.9 1.4-5.6-2.5-10.3-5.8-14.8-9.9q-.9-.8-1.8-1.5-.6-.8-1.2-1.5c.3-2.7.3-2.7 1-5z" fill="#063661"/><path d="M278 387q2 0 4 0c-.6 4.9-2.7 8.6-5 12.9q-.6 1.1-1.2 2.2c-3.7 6.8-7.6 13.4-11.6 20q-1.9 3.1-3.7 6.2c-.6 1-.6 1-1.2 2.1q-1.2 2-2.4 4c-.9 1.6-1.9 3.1-2.9 4.6q-1 0-2 0l-.2-2.3q-.1-1.5-.2-3c-.2-1.5-.2-1.5-.3-3-.2-2.8-.2-2.8-1.3-5.7.9-1.9.9-1.9 2.4-4q.8-1.2 1.6-2.4.9-1.2 1.8-2.5.9-1.2 1.8-2.5c4.9-7.1 10-13.9 15.4-20.6q.6-.8 1.2-1.7c1.3-1.7 1.3-1.7 3.8-4.3z" fill="#00507b"/><path d="M383 248c3.8.5 6 1.5 9.1 3.8 6.7 4.7 15.6 8.5 23.9 7.2 5-1.7 10-3.5 14.2-6.7 1.8-1.3 1.8-1.3 4.1-1q.8.4 1.7.7c-.2 3.7-.9 4.9-3.6 7.6-8.9 6.8-18.2 8.5-29.4 7.4-7.5-2-14.7-5.3-19-12-.8-2.5-.9-4.4-1-7z" fill="#053d60"/><path d="M867 614c4 2.7 7.6 5.8 10 10-.3 2.8-.3 2.8-1 5-5 .3-7.1 0-11-3-2.8-.8-2.8-.8-6 0q-2.3 1.7-4.5 3.6c-4.1 3.4-4.1 3.4-7.9 3.5-2.6-1.1-2.6-1.1-4.6-3.1.1-3.7.6-6.4 2.4-9.6 6.5-6 14-9.3 22.6-6.4z" fill="#063d5e"/><path d="M389.1 165.9c3.4 1.9 6.1 4.4 8.9 7.1q-.5 2.5-1 5c-3.9.4-5.5.3-8.8-1.9q-1.1-1.1-2.2-2.1c-3.6-1.8-7.3-1-11 0a106.41 106.41 0 0 0-9.2 5.5c-3 1.6-4.5 2-7.8 1.5-2-2-2-2-2.5-4.3.6-3.2 1.8-4.5 4.4-6.4 9.5-5.8 18.7-8.7 29.2-4.4z" fill="#063d5f"/><path d="M361 581q2 0 4 0c7.3 7.9 11.4 18.8 15.8 28.6q.4.9.8 1.8 2.8 6.3 5.4 12.6.8 1.8 1.5 3.6.7 1.7 1.5 3.4.6 1.5 1.2 3.1c.9 3.3.6 5.6-.2 8.9-2.8-2.4-4.1-5-5.7-8.3q-.8-1.6-1.6-3.2-.8-1.8-1.6-3.6-.9-1.7-1.8-3.6-6.9-14.5-13.5-29.2l-1.4-3.1q-.6-1.3-1.3-2.7c-1.1-2.5-1.1-2.5-3.1-5.3q0-1.5 0-3z" fill="#002433"/><path d="M460.3 165.9c2.3 1.5 4.1 2.8 5.7 5.1-.3 2.7-.3 2.7-1 5-1.7.7-1.7.7-4 1-2.1-1.2-2.1-1.2-4.3-2.9-3-2.2-4.6-3.1-8.3-3.7-5.3 1-9.5 3.4-14.1 6.3-2.6 1.5-4.3 1.6-7.3 1.3q-.5-2.5-1-5c9.7-8.4 22.3-14 34.3-7.1z" fill="#073c5f"/><path d="M558 511c3.1-.4 3.1-.4 7 0 4.3 3.3 6.9 7.7 8 13 .1 3.4.1 3.4 0 6-1.9-2.9-2.9-5.4-4.1-8.6-1-3.5-1-3.5-2.9-6.4-1 5.2-.7 8.1 1 13 .2 3 .1 6 0 9q-1 0-2 0c-2-3.1-3.8-6.3-5.6-9.6q-.6-1-1.2-2-.5-1-1.1-1.9c-1.1-1.8-1.1-1.8-4.1-2.5 1.8 6.1 1.8 6.1 4.7 11.8 1.5 2.6 1.6 4.2 1.3 7.2q-6.8-6.3-12-14 0-1 0-2-1-.5-2-1 1-.8 2.1-1.7 1.4-1.1 2.8-2.2 1.3-1 2.7-2.2c3.2-2.5 3.2-2.5 5.4-5.9z" fill="#f98100"/><path d="M794 540c2 3 2.3 3.9 2.5 7.3q.1 1.3.2 2.6.1 1.3.2 2.7c.7 7.1 1.6 13.6 4.1 20.4 7.5-.5 14.9-1.6 22-4q.5-1 1-2c-.9-2.1-.9-2.1-2-4q1-1 2-2c3.1 3.8 5 7.1 5 12-10.6 2.8-21 5.4-32 5 1.1 2.9 1.8 4.8 4 7q0 2 0 4c-2.7-.4-3.8-.8-5.8-2.8-1.2-2.2-1.2-2.2-1.2-6.2q1 0 2 0c-.3-1.9-.3-1.9-.7-3.8-2.1-12.4-2.8-23.7-1.3-36.2z" fill="#d25d00"/><path d="M658 774q2 0 4 0c.3 7-.4 13.3-2.1 20.1q-.3 1.4-.6 2.8c-3.3 12.5-8.8 23.9-15.3 35.1q-1.5-.5-3-1 .7-1.5 1.4-3.1c7-16.3 11-32.7 14.2-50.1.4-1.8.4-1.8 1.4-3.8z" fill="#e36e00"/><path d="M565 514c4.4 3.5 5.5 7.8 7 13q1 0 2 0c.6 8 .6 8-1.6 11.6-3 1.8-4.9 1.6-8.4 1.4-2.3.4-2.3.4-4 1q-.6-1.5-1.2-3c-1.2-2.8-2.6-5.5-4-8.1-1.6-3.1-2.2-5.4-1.8-8.9 1.7.1 1.7.1 4 1 1.6 2.1 2.9 4.1 4.3 6.4q.5.9 1.1 1.9c2.6 4.4 2.6 4.4 2.6 6.7q1 0 2 0-.2-1.2-.4-2.3c-2.9-16.9-2.9-16.9-1.6-20.7z" fill="#b04400"/><path d="M440 197c3 .6 4.4 1.3 7 3 1.9-.3 1.9-.3 4-1 3.1-.8 3.1-.8 6-1 1.6 1.3 1.6 1.3 3 3q2 1.5 4 3c-.1 1.8-.1 1.8-1 4-5.7 3.1-5.7 3.1-9.2 2.8-1.8-.8-1.8-.8-3.7-1.9-2.1-1.1-2.1-1.1-4.5-.3-3.6.6-5.5-.8-8.6-2.6.7-3.1 1.8-6 3-9z" fill="#093e60"/><path d="M373 201l7.9 1.6c2.3.6 2.3.6 5.4-.4 5.2-.3 6.8 1.5 10.7 4.8q-.5 2.5-1 5c-7.9 2.9-7.9 2.9-12.3 1-2.8-1.2-2.8-1.2-6.3-1-3.2 0-4.7-.3-7.4-2 .7-3.1 1.8-6 3-9z" fill="#063d61"/><path d="M497 870q0 .5 0 1-1.4.3-2.9.6c-5.3 1.5-9.3 4.9-13.6 8.2q-1.2.9-2.5 1.8c-3.8 2.8-7.4 5.7-11 8.9-3 2.5-3 2.5-5 2.5.3-5.6 2.7-8.4 6.5-12.3 3.7-3.5 3.7-3.5 6.5-7.7 7.3-2.4 14.4-3.4 22-3z" fill="#0e3f5c"/><path d="M458 861q1.4 1.3 2.9 2.6c4.3 3.8 9.1 6.6 14.1 9.4-.7 1.9-.7 1.9-2 4-4.2 1.6-6.9.6-10.9-1.1-4.9-2.2-8.9-4.6-13.1-7.9l9-7z" fill="#cd6401"/><path d="M204 848c3 1 4.8 1.8 7 4.1 2.3 2.2 3.8 2.5 7 2.9q-.5 1-1 2 .3 1.5.6 3 .2 1.5.4 3-1 1-2 2c-6.5-.2-13.3-1.8-19-5q-.5-2-1-4l16 1c-2.6-3.3-5-6.1-8-9z" fill="#073753"/><path d="M159 601q1.5.5 3 1c1.1 2.9 1.1 2.9 2.1 6.6q.5 1.9 1 3.8l.9 3.6.7 2.4c1.3 4.7 1.5 8.8 1.3 13.6q-2 0-4 0c-3.6-10.6-5.8-19.7-5-31z" fill="#af4200"/><path d="M146 600q1.5.5 3 1c1.1 2.5 1.9 4.8 2.7 7.4q.3 1.1.7 2.2c1.6 5.5 2.2 10.6 1.6 16.4q-3-.5-6-1-.2-1.9-.3-3.9c-.4-3.5-1.1-6.5-2.3-9.8-1.2-3.6-1.9-6.5-1.4-10.3q1-1 2-2z" fill="#b14400"/><path d="M217 875c4 4.2 4 4.2 4 7-7.6.3-18.1.4-25-3q.5-1.5 1-3c2.8-1.4 5.2-1.4 8.3-1.6q1.7-.2 3.4-.3c3.1-.1 5.4 0 8.3.9z" fill="#063d61"/><path d="M544 525c2.7.4 3.8.8 5.8 2.8 3.4 4.6 6.5 9.1 9.2 14.2-3 2-3 2-6 2q-2-3.3-3.9-6.7c-.6-.9-.6-.9-1.2-1.9-2-3.4-3.4-6.4-3.9-10.4z" fill="#af4200"/><path d="M595 921c3 1 3 1 4 3q.1 3.1.1 6.1-.1 1.7-.1 3.3 0 1.3 0 2.6c-7.8 1.1-7.8 1.1-10 0-1.4-4.1-2.3-7.7-2-12 1.9.4 1.9.4 4 1 1.6 3.2 1.1 6.4 1 10q1 0 2 0l1-14z" fill="#c16a00"/><path d="M370 160q0 1.5 0 3 2 0 4 0 0 1 0 2-3.1 1.2-6.1 2.4-1.7.7-3.5 1.4c-3.1 1.1-6.1 1.8-9.4 2.2q0-1 0-2-2.5 0-5 0c3.4-2.8 7.1-4.5 11.1-6.2q1-.4 1.9-.8c4.7-2 4.7-2 7-2z" fill="#f08104"/><path d="M182 587c4.1 1.5 6.2 4.2 8 8 2.1 6 3.4 11.6 3 18-5.5-4.7-6.2-10.1-7-17q-1.5-.5-3-1c-1.4-2.7-1.1-5-1-8z" fill="#b14600"/><path d="M536 530q.5 1 1 2l1.7.3c3.4 1 5.1 3.2 7.5 5.7l2.8 2.8c2 2.2 2 2.2 2 3.2-3.2.6-4.9.9-8 0-3.3-2.9-5.9-6.1-8-10 .3-2.3.3-2.3 1-4z" fill="#b44700"/><path d="M885 666c5.9.9 5.9.9 7 2q3-.4 6-1 0 1 0 2l7 1q0 1.5 0 3-3.1.4-6.3.7-1.7.2-3.5.4c-3.6-.1-4.6-.7-7.2-3.1q-1.5-.5-3-1 0-2 0-4z" fill="#05405a"/><path d="M797 923q1.5.5 3 1 0 1 0 2.1 0 1.4-.1 2.8 0 1.3 0 2.7c-.1 2.4-.1 2.4 1.1 4.4-3.3 1-6.3 1.1-9.8 1.1q-1.4-.1-2.9-.1-1.2 0-2.3 0 0-.5 0-1 1.7-.3 3.4-.6c3.8-1 3.8-1 4.9-4.2q.4-1.6.7-3.2 1-2.5 2-5z" fill="#d37a00"/><path d="M196 856l17 1q0 1 0 2-1.5.5-3 1-.5 1.5-1 3c-5-.5-8.6-1.6-13-4q0-1.5 0-3z" fill="#073c62"/><path d="M879 912q2 .5 4 1l2 13-2 1q-1.5-.5-3-1c-1.4-2.8-1.1-5-1.1-8.1q.1-1.7.1-3.3 0-1.3 0-2.6z" fill="#d27a00"/><path d="M702 922c2.1.4 2.1.4 4 1q.1 2.2.1 4.3.1 1.2.1 2.4c-.2 2.3-.2 2.3-2.2 5.3-2.6.2-2.6.2-5 0q.5-3 .9-5.9.3-1.7.6-3.4c.5-2.7.5-2.7 1.5-3.7z" fill="#bb4e00"/></svg>