<svg xmlns="http://www.w3.org/2000/svg" width="1024" height="1234" xmlns:v="https://vecta.io/nano"><g fill="#e07800"><path d="M457 199.7h2.5c12.4 0 24.4.5 36.5 3.3q1.2.3 2.3.5c21.7 5 43.1 13.1 61.7 25.5.7 2.6.7 2.6 1 5 3.7-.2 5.8-1.5 8.6-3.7 10.4-8.2 21.4-10.2 34.4-9.3 13.4 2.6 24.9 11.2 35 20q.9.8 1.9 1.6c17.5 15.7 22.9 45.3 27.9 67.1q.2 1 .4 2 1.1 4.7 2.1 9.5c3.6 16 10 29.9 17.8 44.2 8.6 15.9 16.5 33.9 11.3 52.1-4.8 14-12.6 24.9-25.7 32.3-21.3 9.7-42.3 7-63.7-.8q-2.6 3.8-5.1 7.7-.8 1.1-1.5 2.2c-2.9 4.1-2.9 4.1-2.8 8.9q.7 1.1 1.4 2.2.5 1 1 2.1 1.1 1.9 2.1 3.8c1.9 4.4 2 8.4 1.7 13 0 1.7 0 1.7-.1 3.4q-.1 3.6-.4 7.1c-.3 6.3-.3 6.3 2.3 11.8 2.1 1.7 4.2 3.3 6.4 4.8 2 2 3.8 4.1 5.6 6.2q.7.9 1.5 1.8c10.2 12.2 19.4 25.2 28.6 38.2 8.6 12.1 17.4 24 26.4 35.8q4.4 5.6 8.6 11.3c5.1 6.8 10.2 13.4 15.6 19.9q4.9 6 9.6 12.2c8.4 11 17.3 21.6 26.3 32.1l10.5 12.7q3.9 4.7 7.8 9.3 7.4 8.7 14.5 17.5.6.8 1.3 1.6c8.2 10.1 16.1 20.5 23.9 30.9q1.7 2.4 3.5 4.8c8.8 11.8 16.8 24 24.3 36.7q.8 1.3 1.6 2.7C847.9 828 862 873.4 855 918c19.9-12.1 30.3-38.1 36-59.7 5.5-25.5 2.5-51.9-6-76.3q-.3-1-.7-1.9c-4.9-14.4-11.5-28.1-18.8-41.5-11-20.4-21.4-44.1-22.5-67.6q0-1-.1-2c-1.1-25.8 6.6-50.4 23.5-70.3 10.6-11 26.5-22.6 42.1-24 5.5.5 8.4 2.3 12.4 6 2 3.1 3.1 5.2 2.8 8.9-2.3 7.7-8.7 14.4-14 20.3-14 16.1-16.9 33.7-15.9 54.5 1 12.7 6.1 23.6 12.2 34.6.8 1.5.8 1.5 1.7 3q3.8 7 7.7 13.9c15.3 27.5 29.7 55.1 36.6 86.1q.3 1.3.6 2.6c3 13.4 3.8 26.6 3.8 40.3a18.48 18.48 0 0 0 .1 2.3c0 14.8-1.9 29.2-5.8 43.5q-.3 1.2-.7 2.4c-2.1 7.5-4.8 14.7-8 21.9-.4 1-.4 1-.9 2-10.7 23.2-26.7 44.5-47.1 60l-2.6 2c-10.5 8-21.7 14.3-34.1 18.9q-1.2.4-2.4.9c-4.7 1.7-8.8 2.4-13.8 2.8-3.6.7-5.5 1.5-7.7 4.5-3.4 5.6-6.2 11.4-9 17.3-9.6 18.4-30.4 31.5-49.6 37.6q-1.7.5-3.5 1.1c-1.8.5-1.8.5-3.6 1.1q-1.3.4-2.7.8 1.4 0 2.9 0 34.5.1 69 .2 16.8.1 33.5.1 14.5.1 29.1.1 7.7.1 15.4.1 7.3 0 14.5.1 2.7 0 5.3 0 3.7 0 7.3 0h2.1c7.1.1 13.9 2.2 18.9 7.4 3.6 5.3 4.7 9.6 4 16-2.1 6.3-4.7 11.1-10.7 14.1-6.5 2.8-13.2 2.5-20.1 2.4q-2.3 0-4.6 0-6.2 0-12.4 0-6.8 0-13.5 0-11.9 0-23.8 0-17.6 0-35.2 0-31.5.1-63 0-27.6 0-55.2 0h-3.7q-7.4 0-14.8 0-69.6.1-139.2 0-61.9 0-123.7 0-69.5.1-139 0-7.4 0-14.8 0-1.8 0-3.7 0-27.5 0-55.1 0-31.3.1-62.6 0-17.5 0-35.1 0-11.7 0-23.4 0-6.7 0-13.3 0-6.1 0-12.2 0-2.2 0-4.3 0c-9 .1-15.7-.2-22.7-6.3q-.6-.9-1.3-1.8-.7-.8-1.5-1.7c-3.1-4.7-2.6-10.3-2.1-15.7 1.8-6.1 6.7-9.9 12-13 2.7-.8 5.2-1.1 8.1-1.1q1.2 0 2.4-.1 1.4 0 2.7 0 1.4 0 2.9 0 4.7 0 9.5 0 3.4 0 6.8 0 9.2-.1 18.4-.1 9.7 0 19.4-.1 16.2 0 32.4-.1 16.7-.1 33.4-.1 1 0 2 0 5.2-.1 10.4-.1 42.8-.1 85.6-.3-.3-1.4-.6-2.8-.5-1.9-.9-3.8-.4-1.9-.8-3.7c-2.4-12.5 0-23.7 6.6-34.6 5.7-8.2 11.9-13.5 20.7-18.1q1.1-.6 2.2-1.2c8.6-4 18.4-4.6 27.8-5.8 8.8-26.3-.6-66.7-2.3-93.9-.6-8.8-.8-17.4-.8-26.2q0-1.7.1-3.5 0-4.2 0-8.4 1.3-.1 2.6-.2c22.4-1.9 22.4-1.9 44.4-5.8q1.1-.2 2.2-.5c18.2-4.3 35.3-10.6 51.8-19.5q.9-.5 1.8-.9c41.3-21.8 71.6-61.7 85.8-105.8 7.6-24.8 10.2-49.6 12.4-75.3 2.6-29.4 6.2-59 14.3-87.4a102 102 0 0 0 1.8-7.5c3.2-12.2 9.8-19.3 19.2-27.5 1.8-1.7 3.2-3.5 4.7-5.6q-.5-.5-1-1-1.3 1.4-2.7 2.9c-9.5 9.4-20.6 16.6-32.3 23.1q-.9.5-1.8 1c-17.4 9.5-36.4 16.7-55.2 23 14.8-3.7 14.8-3.7 29-9-2.2 8.5-4.8 16.9-7.7 25.2q-.7 2.2-1.4 4.4-1 3.1-2.1 6.3-.6 1.9-1.3 3.8c-3.6 7.8-9.9 10.4-17.5 13.3-20.7 7.2-42.1 10.1-64 10.2q-1 0-2 0-5.2 0-10.4 0-4.2 0-8.4.1c-60.4.5-60.4.5-83.4-16.7-2.2-3.1-1.8-4.6-1.2-8.3.7-4 1.7-7.8 2.7-11.7q.3-1.3.6-2.7 1.1-4.1 2.1-8.2.7-2.8 1.4-5.6.7-2.7 1.4-5.3l.6-2.6.6-2.3c.2-1 .2-1 .5-2.1.4-1.6 1-3.2 1.5-4.8q-1.1-.4-2.2-.8c-7-3-15-9.5-18.8-16.2.3-2.3.3-2.3 1-5q-.1-3.2-.4-6.3a89.02 89.02 0 0 1-.3-14.6c1.1-13.3 1.1-13.3-4.7-24.6-1.4-1.3-1.4-1.3-2.8-2.7-11.7-11.8-20.9-35.5-21-52q.1-1.4.2-2.8-.8.3-1.7.7c-10 3.6-17.5 2.2-27.3-1.7-12.5-6.4-22.5-14.8-27.8-28.1-3.7-12.5-1.1-25.5 4.8-36.8 2.5-4.5 5.2-8.8 8-13.1 12-18.6 17.7-36.7 22.1-58.3 5.4-25.8 11.8-54.7 35.1-70.2 13.1-7.2 28.7-10.3 43.4-6.4 4.2 1.6 7.8 3.9 11.4 6.5 1.9 1.4 3.9 2.4 6 3.4l1.6-1.4c16.5-13.9 36.5-22.1 57.4-26.6q1.3-.3 2.6-.6c9.1-1.7 18.2-1.8 27.4-1.7z"/><path d="M457 199.7h2.5c12.4 0 24.4.5 36.5 3.3q1.2.3 2.3.5c21.7 5 43.1 13.1 61.7 25.5.7 2.6.7 2.6 1 5 3.7-.2 5.8-1.5 8.6-3.7 10.4-8.2 21.4-10.2 34.4-9.3 13.4 2.6 24.9 11.2 35 20q.9.8 1.9 1.6c17.5 15.7 22.9 45.3 27.9 67.1q.2 1 .4 2 1.1 4.7 2.1 9.5c3.6 16 10 29.9 17.8 44.2 8.6 15.9 16.5 33.9 11.3 52.1-4.8 14-12.6 24.9-25.7 32.3-21.3 9.7-42.3 7-63.7-.8q-2.6 3.8-5.1 7.7-.8 1.1-1.5 2.2c-2.9 4.1-2.9 4.1-2.8 8.9q.7 1.1 1.4 2.2.5 1 1 2.1 1.1 1.9 2.1 3.8c2.6 5.9 2.1 12.2 2.1 18.5q0 1.5 0 3.1c0 8.8-1.2 14.8-6.6 21.9q-1.2 1.6-2.4 3.2-1.1 1.2-2.2 2.4-1.5 0-3 0c-1.5 1.2-1.5 1.2-2.9 2.9-9.2 9.6-20.5 16.7-32.1 23.1q-.9.5-1.8 1c-17.4 9.5-36.4 16.7-55.2 23 14.8-3.7 14.8-3.7 29-9-2.2 8.5-4.8 16.9-7.7 25.2q-.7 2.2-1.4 4.4-1 3.1-2.1 6.3-.6 1.9-1.3 3.8c-3.6 7.8-9.9 10.4-17.5 13.3-20.7 7.2-42.1 10.1-64 10.2q-1 0-2 0-5.2 0-10.4 0-4.2 0-8.4.1c-60.4.5-60.4.5-83.4-16.7-2.2-3.1-1.8-4.6-1.2-8.3.7-4 1.7-7.8 2.7-11.7q.3-1.3.6-2.7 1.1-4.1 2.1-8.2.7-2.8 1.4-5.6.7-2.7 1.4-5.3.3-1.3.6-2.6.3-1.1.6-2.3.2-1 .5-2.1c.4-1.6 1-3.2 1.5-4.8q-1.1-.4-2.2-.8c-7-3-15-9.5-18.8-16.2.3-2.3.3-2.3 1-5q-.1-3.2-.4-6.3a89.02 89.02 0 0 1-.3-14.6c1.1-13.3 1.1-13.3-4.7-24.6-1.4-1.3-1.4-1.3-2.8-2.7-11.7-11.8-20.9-35.5-21-52l.2-2.8q-.8.3-1.7.7c-10 3.6-17.5 2.2-27.3-1.7-12.5-6.4-22.5-14.8-27.8-28.1-3.7-12.5-1.1-25.5 4.8-36.8 2.5-4.5 5.2-8.8 8-13.1 12-18.6 17.7-36.7 22.1-58.3 5.4-25.8 11.8-54.7 35.1-70.2 13.1-7.2 28.7-10.3 43.4-6.4 4.2 1.6 7.8 3.9 11.4 6.5 1.9 1.4 3.9 2.4 6 3.4l1.6-1.4c16.5-13.9 36.5-22.1 57.4-26.6q1.3-.3 2.6-.6c9.1-1.7 18.2-1.8 27.4-1.7z"/></g><path d="M595 523q.5 1.5 1 3-1.8 1.9-3.5 3.9-1.5 1.6-3 3.3c-2.8 3.1-5.6 5.8-8.8 8.4-5.9 6-7.6 14.5-9.7 22.4l-.8 3.1c-8.8 32.4-12.7 65.5-15.5 99-3.6 43-13.5 85.2-40.7 119.9q-1 1.3-2.1 2.7c-4.7 6-9.7 11.7-14.9 17.3q-.9 1-1.7 1.9C471.9 832.8 438.2 847 406 856q-1.6.5-3.2.9c-33.8 8.8-91.9 12.8-124-3-2.3-2.4-2.2-4.2-2.2-7.5.1-1.2.1-1.2.1-2.3q0-1.2.1-2.4.1-3.9.2-7.7.1-2.4.1-4.8.2-7.7.5-15.3.1-2.8.2-5.7.3-9.1.6-18.1 0-1.6.1-3.2.5-14 .9-28 .5-14.7 1-29.4c1.8-62.9 12.8-122.2 37.7-180.3q.4-.9.8-1.9c1.9-4.2 1.9-4.2 4.1-5.3q.6.7 1.1 1.5c5.2 6.3 11.5 11.8 18.9 15.5-1 6.7-2.5 13.2-4.2 19.8q-.3 1.1-.6 2.3-1.3 4.9-2.5 9.7-1 3.6-1.9 7.2-.3 1.1-.6 2.2c-1 3.9-1.5 6.9-.2 10.8 7.7 10.4 24.9 13.4 37.1 15.3 14.9 2 29.9 2 45 2q4.1 0 8.3 0c28.5.2 58.2-1.1 84.6-13.3q1.8-.7 3.6-1.4c5.1-3.1 6.2-8.7 8-14.2q.5-1.6 1.1-3.3 1.7-5 3.3-10.1.5-1.5 1-3 2.6-8 5-16-.9.5-1.9.9c-6.8 3-13.5 5.2-20.7 7q-1.3.3-2.6.7-1.3.3-2.6.6-1.1.3-2.2.5c-2 .3-2 .3-5-.7q1.8-.6 3.6-1.1c35.1-11.3 70-25.5 96.4-51.9z" fill="#008181"/><path d="M878 143q1.5.7 3 1.5c11.3 5.8 20.8 13.9 30 22.5l1.8 1.6c22.3 20.7 35 54.3 36.4 84.2.2 35.3-11.3 67.2-35.2 93.2q-.9 1-1.9 2.1c-22.4 23.8-55.9 35.6-87.8 37.2-35.3 1-67.4-13.2-93.3-36.3q-1.1-1-2.2-2c-21.5-20.1-35.2-51.3-37-80.5-1.1-34.1 6-64.9 28.2-91.5 1.2-1.5 1.2-1.5 2.5-3 20.6-23.8 52.2-40.1 83.5-42.8 25.4-1.4 49.1 2.6 72 13.8z" fill="#2ebfa5"/><path d="M78.1 1064.9q1.9 0 3.9 0 2.1 0 4.2 0 2.2 0 4.5 0 6.2 0 12.4 0 6.8 0 13.5 0 13.4-.1 26.8-.1 16.1 0 32.1 0 38.8 0 77.6 0 18.4 0 36.7 0 62.8 0 125.5 0 4 0 7.9 0 4 0 7.9 0 8 0 15.9 0h4q63.7 0 127.5-.1 67.3 0 134.7 0 7.4 0 14.8 0 1.8 0 3.7 0 29.3 0 58.6-.1 29.5 0 58.9 0 17.5 0 35.1 0 11.6 0 23.3 0 6.7 0 13.4 0 6 0 12.1 0 2.2 0 4.4 0c8.9 0 15.5.3 23.2 5.1 4 4.1 6.5 8.6 6.7 14.4-.7 6.2-2.8 11.5-7.4 15.9-7.5 4.8-15.2 4.6-23.8 4.5q-2.3 0-4.6 0-6.2 0-12.4 0-6.8 0-13.5 0-11.9 0-23.8 0-17.6 0-35.2 0-31.5.1-63 0-27.6 0-55.2 0h-3.7q-7.4 0-14.8 0-69.6.1-139.2 0-61.9 0-123.7 0-69.5.1-139 0-7.4 0-14.8 0-1.8 0-3.7 0-27.5 0-55.1 0-31.3.1-62.6 0-17.5 0-35.1 0-11.7 0-23.4 0-6.7 0-13.3 0-6.1 0-12.2 0-2.2 0-4.3 0c-9 .1-15.7-.2-22.7-6.3-.6-.9-.6-.9-1.3-1.8q-.7-.8-1.5-1.7c-3.1-4.7-2.6-10.3-2.1-15.7 1.8-6.1 6.7-9.9 12-13 3.4-1.1 6.6-1.1 10.1-1.1z" fill="#e3b65e"/><path d="M166.9 422.1c13 10.3 22.5 23.4 26.1 39.9.9 15.2-.6 27.1-11 39-10.7 10.1-21.4 14.4-36.2 14.1q-.9-.1-1.8-.1c.3 2 .3 2 1 4 6.3 3.2 15.8 1.4 22.3-.6 11.1-4.2 17.8-11.1 24.7-20.4q.9 1.2 1.8 2.5c8.7 11.5 17.7 21.7 29.2 30.5q1.4 1.1 2.8 2.3c19.2 15.1 42.9 23.2 67.5 20.4 8.7-1.1 17.3-2.8 25.7-5.7-1.8 5.8-4 11.4-6.3 17-15.1 36.2-22.9 74.3-28.7 113-46.9 1.8-90.5-20.6-125-51q-1.4-1.2-2.8-2.4c-11.2-10-20.7-20.7-29.5-32.8l-1.3-1.7-3.4-5.1q-.7-.9-1.3-1.8c-2.1-3.1-2.9-5.1-2.2-8.9 1.2-3.3 2.5-6.5 3.9-9.7q1.2-2.8 2.3-5.5 1.3-3 2.5-5.9c2.9-6.7 5.5-13.4 8.1-20.1q1.3-3.3 2.6-6.6.8-2 1.6-4.1.8-1.8 1.5-3.6c1.1-2.6 1.1-2.6 1-4.8q-1.4-.1-2.8-.2-5-.4-10.1-.9-2.2-.1-4.4-.3-3.2-.3-6.3-.6-1.9-.1-3.9-.3c-3.5-.7-3.5-.7-9.5-4.7l-11 28c-8.5-4.3-12.7-14.4-16-23-7.5-22.9-5.6-47.7 5.1-69.2 7.2-14.1 17.7-25.4 32.9-30.9 17.9-5 36.1-.6 50.9 10.2z" fill="#df7800"/><path d="M631.8 235.1q3.7 2.8 7.2 5.9.9.8 1.9 1.6c17.5 15.7 22.9 45.3 27.9 67.1l.4 2q1.1 4.7 2.1 9.5c3.6 16 10 29.9 17.8 44.2 8.6 15.9 16.5 33.9 11.3 52.1-4.8 14-12.6 24.9-25.7 32.3-17.9 8.2-36.2 7.9-54.7 2.2-3.1-1.2-6-2.5-9-4q0-1 0-2-1.1-.4-2.2-.8c-11.5-5-19.7-18-24.7-29.1-4.3-11.5-5.7-24-7-36.1q-.1-1.1-.2-2.2c-1.3-11.4-2.3-22.8-3.2-34.3q0-1-.1-2-.9-11.4-1.8-22.7c-1.5-21.1-3.4-42.1-7.4-62.9-1.3-6.9-2.6-13.9-3.4-20.9q1-.3 2-.6c2.7-1.2 4.4-2.4 6.6-4.2 20.6-15.9 42.9-9.3 62.2 4.9z" fill="#ba4900"/><path d="M599 467c3 1 3 1 4.4 3.1q.6 1.3 1.2 2.6.7 1.3 1.3 2.7c2.6 6.2 2.3 12.4 2.3 19q0 1.5 0 3.1c0 8.8-1.2 14.8-6.6 21.9q-1.2 1.6-2.4 3.2-1.1 1.2-2.2 2.4-1.5 0-3 0c-1.5 1.2-1.5 1.2-2.9 2.9-9.2 9.6-20.5 16.7-32.1 23.1q-.9.5-1.8 1c-17.4 9.5-36.4 16.7-55.2 23 14.8-3.7 14.8-3.7 29-9-2.2 8.5-4.8 16.9-7.7 25.2q-.7 2.2-1.4 4.4-1 3.1-2.1 6.3-.6 1.9-1.3 3.8c-3.6 7.8-9.9 10.4-17.5 13.3-20.7 7.2-42.1 10.1-64 10.2q-1 0-2 0-5.2 0-10.4 0-4.2 0-8.4.1c-60.4.5-60.4.5-83.4-16.7-2.2-3.1-1.8-4.6-1.2-8.3.7-4 1.7-7.8 2.7-11.7q.3-1.3.6-2.7 1.1-4.1 2.1-8.2.7-2.8 1.4-5.6.7-2.7 1.4-5.3.3-1.3.6-2.6.3-1.1.6-2.3.2-1 .5-2.1c.4-1.6 1-3.2 1.5-4.8q-1.1-.4-2.2-.8c-7-3-15-9.5-18.8-16.2.3-2.3.3-2.3 1-5q-.1-3.4-.4-6.8c-.5-5.7-.7-11.5-.7-17.3q0-1 0-2.1c0-4 .3-7.8 1.1-11.8q1.3 1.2 2.7 2.4c37.3 31.7 82.4 44 131 40.1 45.9-4.3 89.6-20.6 123.3-52.5q1.2-1.2 2.5-2.4c6.3-6 11.5-12.5 16.5-19.6z" fill="#002c36"/><path d="M403.4 354.6h4c16.4.2 32.4 1.8 45.6 12.4 4.2 4.4 6.8 8.8 7.4 14.9-.4 6.7-2.6 10.7-7.3 15.2-6 5.1-12.8 7.4-20.1 10-9.2 3-9.2 3-15.9 9.8-1.2 3.4-1.6 5.5-1.1 9.1 3.2 6.6 8.8 10.2 15.4 13 15.3 5 31.4 2.4 45.6-4.4 12.5-7.1 18.2-17.1 22.2-30.7q.4-1.5.8-3.2c1-2.7 1.7-4 4-5.7 2.4-.7 2.4-.7 5 0 3.6 3.7 5.3 7.7 5.6 12.9-.6 9.2-5.2 16.8-10.6 24.1-.7.9-.7.9-1.3 1.8-4.6 5.9-11.1 11.2-17.9 14.2-4.8 2.2-4.8 2.2-8 6.2-.8 2.6-1.4 5.2-2 7.9q-.7 2.9-1.4 5.7c-.4 1.4-.4 1.4-.7 2.7-4.1 14.5-16 26.5-28.4 34.2-16 8.6-35.9 11.7-53.5 6.6-12.2-4.5-20.9-10.6-26.8-22.3-4-9.6-4.1-18.7-4.1-28.9q0-1.8.1-3.6 0-4.2 0-8.5-1.3-.2-2.7-.3c-9.2-1.9-17.5-9.5-23.3-16.7-5.3-8.2-8.4-15.7-8.4-25.4q0-1.1 0-2.2c-.1-5.6 1.3-8.8 4.4-13.4 2.3-2.3 3.4-2.9 6.6-3.4q1.2.2 2.4.4c2.4 3.6 2.3 5.5 2.4 9.9.6 12.4 4.1 23.2 12.8 32.4 10.1 6.1 22.9 8.8 34.5 6.1 2.2-.8 4.2-1.5 6.3-2.4q1.5-.5 3-1c2.7-4.5 4.2-9.8 3-15-3.6-5.3-7.5-7.6-13.2-10.3-10-5-20.1-11.6-23.8-22.7-.5-5.8-.9-11.1 1.6-16.4q1.2-1.3 2.4-2.6.7-.8 1.4-1.5c8.9-9 22.2-9.1 34-8.9z" fill="#022b36"/><path d="M360 224.9c3 2.1 4.6 3.7 6 7.1q-.7.6-1.3 1.2c-16.9 15.9-30.3 38-37.7 59.8q-.4 1.2-.9 2.4c-2.9 8.4-4.9 17-6.9 25.6-3.8 16.8-8.2 33.2-13.8 49.4-6.8 20.2-10.5 41.4-11.4 62.6l-9 3q0 .5 0 1c-12.2 1.1-23.4-5.1-33-12-8.9-7.4-15.1-16.7-16.4-28.4-.6-16.2 5.9-28.4 14.4-41.6 12-18.6 17.7-36.7 22.1-58.3 5.4-25.8 11.8-54.7 35.1-70.2 16.2-8.9 36.6-11.7 52.8-1.6z" fill="#ba4900"/><path d="M192 201c4.2 1 8.2 2.3 12.3 3.6q2.9 1 5.8 1.8 1.8.6 3.7 1.2 1.7.6 3.4 1.1c3.1 1.4 4.4 2.2 5.8 5.3-.2 5.8-2.2 11.1-4.1 16.6-.5 1.3-.5 1.3-1 2.8q-1.5 4.5-3.1 9-1.1 3.2-2.2 6.3-7.9 23.2-16.1 46.3l-7.5 22.7c-1.9 6.1-4.1 12.2-6.2 18.2l-11 31.7q-.4 1.1-.8 2.3-1.7 5.5-3.5 10.9-.6 1.9-1.3 3.9-.5 1.7-1.1 3.4c-1 2.7-2.2 4.7-4.1 6.9-7.4-.5-14-2.8-20.9-5.2q-3-1.1-6-2.1c-9.8-3.4-9.8-3.4-12.1-5.7-.8-7.1 1.4-12.6 4-19.1 3.6-8.2 3.6-8.2 4-16.9-2-2.9-4.5-3.8-7.8-4.9q-1.4-.5-2.9-1-3.6-1.2-7.3-2.4-1-.3-2-.7-2-.6-4-1.2c-3-1-4.8-1.6-7-3.8.3-3.3.6-4.6 3-7 6.3.4 11.7 2.6 17.5 4.9 5.2 2 10 2.8 15.5 2.1 2.8-1.4 2.8-1.4 4-4 .5-3.6.5-3.6-1-7-6-3.5-12.3-5.6-18.9-7.7q-2.9-.9-5.7-1.8-1.2-.4-2.5-.8c-1.9-.7-1.9-.7-2.9-1.7-.2-2.9-.2-2.9 0-6 2-2 2-2 3.8-2.1 5.8.7 10.9 2.2 16.4 4.2 5.9 2.1 10.8 3.9 17.1 2.3 2-1.4 2-1.4 2.7-4.7.3-3.6.3-3.6-1.3-6.2-4.2-3.9-9.2-5-14.7-6.6q-3.3-1-6.5-2-1.4-.5-2.9-.9c-2.6-1-4.5-2.2-6.6-4 .7-4.7.7-4.7 3-7 6.4.4 12.2 2.7 18.2 4.9 6.3 2.3 12.3 3.3 18.8 1.1q.1-1.8.2-3.7.1-1.1.2-2.2c-.6-3.1-2-4.1-4.4-6.1-2.8-1.3-2.8-1.3-6-2.3q-1.7-.6-3.5-1.2c-1.8-.5-1.8-.5-3.6-1.1q-3.6-1.2-7.2-2.4l-3.1-1c-2.6-1-2.6-1-4.6-3 .3-2.6.8-4.6 2-7 7.3-.6 12.9 1.9 19.6 4.5 5.8 2.2 10.6 3.4 16.8 1.9 1.9-1.4 1.9-1.4 2.7-4.7.2-3.7.2-3.7-1.8-6.2-4.3-4-10.5-5.1-16-6.7q-3.4-1-6.8-2-1.5-.5-3.1-.9c-2.4-.9-2.4-.9-4.4-2.9-.3-2.5-.3-2.5 0-5 2-2 2-2 3.8-2.1 5.8.7 10.9 2.2 16.4 4.2 7.2 2.7 7.2 2.7 14.8 2.9 3-2 3-2 5-5 .1-3.3-.6-4.5-2.7-7-2.6-2.3-4.6-3.1-7.8-4.1q-1.6-.5-3.2-1-1.7-.5-3.4-1-3.2-1.1-6.5-2.1-1.4-.4-2.9-.9c-2.5-.9-2.5-.9-5.5-2.9.7-5.7.7-5.7 3-8 1.8.1 1.8.1 4 .7q1.2.3 2.5.6c4.9 1.4 9.8 3 14.7 4.7 5.8 2 5.8 2 11.8 2 1.6-2.2 1.6-2.2 3-5 3.9-4.9 5.9-5.4 12-5z" fill="#2ec0a6"/><path d="M343 561c4.2 1.3 8.2 2.9 12.2 4.8 15 6.5 30.7 10.7 46.8 13.2 1.7.3 1.7.3 3.3.5 12.2 1.8 24.2 1.9 36.5 1.9h3.2c29.6-.1 58.5-3.7 86-15.4-2.2 8.5-4.8 16.9-7.7 25.2q-.7 2.2-1.4 4.4-1 3.1-2.1 6.3c-.6 1.9-.6 1.9-1.3 3.8-3.6 7.8-9.9 10.4-17.5 13.3-20.7 7.2-42.1 10.1-64 10.2q-1 0-2 0-5.2 0-10.4 0-4.2 0-8.4.1c-60.4.5-60.4.5-83.4-16.7-2.2-3.1-1.8-4.6-1.2-8.3.7-4 1.7-7.9 2.7-11.8q.3-1.3.6-2.6.7-2.8 1.4-5.5 1.1-4.3 2.1-8.5.7-2.7 1.4-5.3.3-1.3.6-2.6c1.5-5.9 1.5-5.9 2.6-7z" fill="#e07800"/><path d="M221 211q11.2 3.3 22.3 6.9 1.5.5 3.1 1.1c11.2 3.6 11.2 3.6 15.6 8 .4 4.9-.7 8.3-2.6 12.8q-.8 2-1.7 4-.4 1-.8 2.1c-1.5 3.5-2.7 7.1-4 10.7q-.4 1.1-.8 2.2-1.2 3.4-2.4 6.9-1.7 4.9-3.4 9.8l-.8 2.5q-3.8 10.8-7.8 21.6-4.6 13.1-9 26.2c-4.3 13.2-9 26.2-13.7 39.2q-.9 2.5-1.7 5-.5 1.1-.9 2.4-2.4 6.7-4.7 13.4-.5 1.4-1 2.8-.9 2.5-1.7 4.9c-2.3 7-2.3 7-5 9.5-9.6 2.3-20-2-29-5l-.6 1.8q-1.3 4.1-2.7 8.1-.5 1.4-.9 2.9-.5 1.3-1 2.7-.4 1.3-.8 2.6c-1 1.9-1 1.9-4 2.9-2.2-.9-2.2-.9-4.6-2.3-4.8-2.5-9.1-3.8-14.4-4.7-1.1-3.2-1-5 .2-8.1q.4-1.1.8-2.3.5-1.2.9-2.4.5-1.1.9-2.4 1.1-2.9 2.2-5.8.9.3 1.8.7c5.9 2.1 5.9 2.1 12.2 2.3 3.5-7.5 6.2-15.2 8.8-23.1q.7-2 1.4-4 1.8-5.4 3.6-10.7 2.8-8.5 5.7-17 1-2.9 1.9-5.8c1.8-5.2 3.6-10.4 5.7-15.5 1.9-4.7 3.3-9.5 4.8-14.3l6.6-20q.8-2.3 1.6-4.7 1.6-4.8 3.2-9.6 2.1-6.2 4.2-12.3 1.6-4.8 3.2-9.6.8-2.2 1.6-4.5 1-3.2 2.1-6.3.3-1 .7-2 2.4-7.3 5.2-14.4c1-3.4.6-5.8-.3-9.2z" fill="#002b33"/><path d="M164 420q1 .6 2 1.3c1.8 1.1 1.8 1.1 4 3.7l-1 7q-.4 2-.8 4.1l-.4 2.2c-1.2 6.6-2 12.8-1.8 19.6.3 16.7-7.5 33-19 45.1-2.8 2.7-5.5 5.3-9 7q1.5 1.5 3 3-8.8-.4-17.6-.9-2.9-.1-5.7-.2l-2.6-.2q-1-.1-2-.1c-2.1-.6-2.1-.6-8.1-4.6l-11 28c-8.5-4.3-12.7-14.4-16-23-7.5-22.9-5.6-47.7 5.1-69.2 7.2-14.1 17.7-25.4 32.9-30.9 16.6-4.7 33.7-1.3 48 8.1z" fill="#de7700"/><path d="M830 243.9c10 5.5 16.1 15.8 22.4 24.9 2.7 3.8 5.4 7 9 10 6.2 5.2 11.9 12.3 12.9 20.6.2 7-1.3 12.4-5 18.3-6 5.9-13.5 7.7-21.7 7.7-4.1-.5-7.7-1.6-11.7-2.9-12.3-4-24.4-3.8-36.8-.2-7.7 1.7-17.9 2.7-24.9-1.5-3.5-2.7-6.2-5.8-8.2-9.8-.7-9.7-.8-18.3 5.7-26 2.8-2.9 5.8-5.8 9.3-8q1 0 2 0 .4-.8.8-1.7c1.8-3.4 4-6.4 6.3-9.6q1.8-2.6 3.6-5.3c8.4-12.6 20.6-23.1 36.3-16.5z" fill="#003b3f"/><path d="M709.6 762.8h2.3c2.1.2 2.1.2 4.1 2.2.6 5.2.6 5.2-1.2 7.6-2.4 1.8-4.6 2.3-7.5 3.1-27.7 8.1-52.2 28.3-66.3 53.3-5.6 10.2-9.1 20.8-12 32-.3 1-.3 1-.5 1.9-7.9 28.9-3.7 69.1 10.7 95.6 4.2 6.5 9.3 12 14.8 17.5q1.2 1.2 2.5 2.5c9.7 9.2 21.2 15.2 33.5 20.5q1.2.5 2.4 1 2.3 1 4.6 2 0 1.5 0 3-2.8-.2-5.6-.4c-1.5-.2-1.5-.2-3.1-.3q-3.3-.3-6.5-.8c-4-.5-7.9-.7-11.9-.7q-1.1 0-2.3 0-3.6 0-7.3 0-1.2-.1-2.5-.1c-23.6.1-50.5 1.5-68.1 19.2-4.6 5.7-7.7 11.7-10 18.7l-.8 2.3c-2.3 7.5-2.5 14.3-1.9 22.1h-8c-3.7-11.1-.9-23.8 4-34 6-11.1 13.3-19.4 24-26q1.1-.7 2.2-1.3c15-8.4 33.1-11 49.8-13.7q-1.1-.8-2.3-1.7c-8.9-7.5-14.3-21.1-19.7-31.3q-.8-1.4-1.5-2.9c-15.8-31.8-16.9-72.2-6.1-105.5 7.1-20.7 18.1-38.2 33.6-53.6q1.1-1.1 2.2-2.3c12.7-12.2 36-29.7 54.4-29.9zm-72-27.5c2.4.7 2.4.7 3.4 1.7-.2 7.9-2.9 14.1-6.1 21.3-3.8 8.7-7.3 17.3-10.4 26.3q-2.5 7.5-5.4 14.9c-10.8 28.2-20.4 57-29 85.9q-2 6.7-4.1 13.4l-14.6 47.8q-.5 1.8-1 3.6-2.4 8.3-4.8 16.6c-6.3 22.3-13.2 44.4-21.1 66.2q-2.3 6.2-4.5 12.3c-.3 1-.3 1-.7 2q-.7 2-1.4 3.9-2.4 6.9-4.9 13.8h-12c3.5-12 7.7-23.6 11.9-35.4L546 992q.4-1.2.8-2.5c3.8-11.6 7.2-23.4 10.4-35.1 4.6-16.5 9.5-32.9 14.8-49.1q3.5-10.6 6.8-21.2c4.9-15.8 10-31.6 15.8-47.2l5.2-14.5c8.5-23.7 17.3-47.3 26.9-70.6l.8-2q.3-.9.7-1.9c.9-2 1.6-4.1 2.3-6.2 2.8-6.9 2.8-6.9 7.1-6.4z" fill="#be5000"/><path d="M407 439l2.1 2.1q1.4 1.5 2.9 2.9.8.8 1.5 1.5c7.4 6.9 16.4 9.4 26.3 10.1q1.7.1 3.5.2l2.7.2c-.4 14-2 28.4-12 39-8.4 7.2-18.6 8.6-29.3 8.4-9.3-.9-17.5-4.8-23.9-11.6-5.9-7.3-6.7-15.6-5.8-24.8 2-11.4 2-11.4 5-16 2.6-.7 5.1-1.2 7.7-1.6 5-.7 9.7-1.5 14.3-3.4 1.2-1.9 1.2-1.9 2-4 1.6-1.7 1.6-1.7 3-3z" fill="#d8591a"/><path d="M105 506q1.3 1 2.5 1.9c3.6 2.4 6.6 2.8 10.9 3.1q1 .1 2 .2 3.2.3 6.5.6 2.2.1 4.4.3 5.3.5 10.7.9c1.3 4 .2 5.6-1.4 9.5q-.3 1-.7 2-1.3 3.2-2.7 6.4-.8 2.3-1.7 4.5-1.4 3.4-2.8 6.8-3 7.5-5.9 15-.7 2-1.5 3.9-1.3 3.6-2.7 7.2-.6 1.6-1.3 3.2-.5 1.4-1 2.9c-2.1 4.4-4.6 7.9-9.3 9.6-7.2 1.3-13.1-1-19-5-3.1-2.8-5.6-5.8-6-10-.2-6.1.5-11.6 1.9-17.6q.2-1.2.5-2.4c1-4.7 2.2-9.4 3.6-14q1 0 2 0 .2-1.3.4-2.7c.6-3.1 1.4-5.7 2.6-8.7q.6-1.4 1.2-2.9.7-1.5 1.3-3 .6-1.5 1.3-3.1c3.1-7.5 3.1-7.5 4.2-8.6z" fill="#016063"/><path d="M858.6 181.6c6.8 6.9 7.6 13.9 7.7 23.1q.1 1.3.1 2.6c.1 7.6-2.1 13.2-6.3 19.6-4.5 4.5-8.4 5.3-14.6 5.5-5.3-.1-8.6-.5-12.5-4.4-6.1-8.3-6.9-16-6-26 1.5-7.7 3.7-14.9 10-20 6-3.9 15.3-3.2 21.6-.4z" fill="#003f49"/><path d="M801.3 181.1c3.9 1.7 6.6 4.1 8.7 7.9 3.8 10 6.2 21.1 2.3 31.4-2.6 5.6-5.4 10.2-11.3 12.6-5.3.7-9.6.7-14.4-1.6-6.1-5.6-11.1-12-11.8-20.5q-.1-3.6-.1-7.1-.1-1.3-.1-2.5c-.1-6.6 1.3-12.1 5.9-16.9 6.3-5.3 13-5.8 20.8-3.3z" fill="#004049"/><path d="M520 306q1.2.7 2.5 1.4c7.6 4.6 14 10.9 16.5 19.6 1 8.8 1 8.8-1.4 11.7-2.8 2.3-5.6 3.2-9.2 3.7-2.4-.4-2.4-.4-3.9-2.1-1.7-2.6-2.6-5.2-3.7-8.2-2.4-5.9-5.1-9.2-10.8-12.1-6.2-2.4-11.3-2.9-17.7-.8-4.8 2.6-8.4 6.6-12.1 10.6-4.8 5.1-4.8 5.1-8.2 6.2-6.4-.4-6.4-.4-9-3-1.1-4.5-.8-8.5 1.4-12.6 4.9-6.4 10.8-11.1 17.6-15.4q1-.7 2.1-1.4c11-6.1 25.5-3.4 35.9 2.4z" fill="#022a37"/><path d="M893 222c4.4 2 7.1 4.6 9.3 8.9 2.9 8.6 0 16.7-3.5 24.6-3.2 6.3-7.3 11.5-13.8 14.5-5.6 1.6-10.9 1.9-16.3-.5-5.5-5.1-7-9.8-7.3-17.4.4-10.8 5.2-17.1 12.2-25 5.9-5.3 11.7-6.1 19.4-5.1z" fill="#003f49"/><path d="M460.6 948.6q1.2.2 2.4.4c5.4 8.1 1.6 23.1.1 32.4q-.5 3.1-1 6.3c-2.4 15.6-2.4 15.6-8.1 21.3-1.9.2-1.9.2-4.3.2-10.8.9-19.6 7.2-26.7 15-8.5 11.9-12 26.3-11 40.8h-10c-3.9-15.7 1.3-29.5 9-43 7.3-11.1 17.3-18.1 30-22q2.5-.1 5 0c.1-1 .1-1 .1-2 .6-7.1 1.8-13.9 3.3-20.9q.3-1.5.7-3.1.6-3.1 1.3-6.2.8-3.6 1.5-7.1.4-1.8.7-3.5.3-1.4.6-2.9c1.2-3.6 2.6-5.1 6.4-5.7z" fill="#bd5000"/><path d="M760 221c7.2 3 11.4 8.3 15 15q.5.9 1 1.8c2.2 4.6 2.3 9.3 2.4 14.3q0 1 0 2.1c0 4.7-1 7.8-3.4 11.8-4.2 3.8-8.2 4.4-13.6 4.3-6.9-.8-11.6-4.8-15.9-9.9-2.7-4.2-4.1-8.7-5.5-13.4q-.3-1-.6-2c-1.2-5.6-1.3-11.2 1.2-16.4q1.2-1.3 2.4-2.6 1.3-1.4 2.6-2.9c4.3-3.3 9.2-3.1 14.4-2.1z" fill="#003f49"/><path d="M393 300c7.2 5.3 13.1 11.4 16 20 .5 6.3.5 6.3-1.2 8.8-3.8 2.5-7.2 3.8-11.8 3.2-1.6-1.7-1.6-1.7-2.9-4.1-4.7-7.6-4.7-7.6-11.3-13.3-6.7-1.4-12.9-1.4-18.9 2-4.5 3.4-7.8 7.9-11 12.4-1.9 2-1.9 2-4.2 2.7-4.2-1.1-7-3.3-9.7-6.7-.9-3.7-.6-5.7 1-9.2 6-9.6 14.1-15.9 24.8-19.4 9.6-1.8 20.6-1.3 29.2 3.6z" fill="#022a37"/><path d="M469.3 831.4q1.3.8 2.7 1.6c.2 40.6.3 80.7-5 121q-1-1.5-2-3-1.5-1.5-3-3l-6 3c-1.1-3.4-.9-4.8-.3-8.3 2.8-19.2 4.1-38.5 5-57.9q.1-3.1.2-6.2c.8-15.6 1.3-31.1 1.1-46.6 3-2.2 3.7-2.1 7.2-.6z" fill="#bd5100"/><path d="M173 383c7.1 1.5 13.8 3.5 20.6 6 3.9 1.3 7.2 2.4 11.4 2-1.9 8.9-1.9 8.9-5 12-9.6 2.3-20-2-29-5q-.3.9-.6 1.8-1.3 4.1-2.7 8.1-.5 1.4-.9 2.9-.5 1.3-1 2.7-.4 1.3-.8 2.6c-1 1.9-1 1.9-4 2.9-2.2-.9-2.2-.9-4.6-2.3-4.8-2.5-9.1-3.8-14.4-4.7-1.1-3.2-1-5 .2-8.1q.4-1.1.8-2.3.5-1.2.9-2.4.5-1.1.9-2.4 1.1-2.9 2.2-5.8 1.7.7 3.5 1.5c7 2.4 14.3 1.7 21.5 1.5l1-11z" fill="#006062"/><path d="M370 1016c2 2 2 2 2.4 4.9-.4 3.1-.4 3.1-2.4 5.1q-1.3.8-2.7 1.6-1.3.9-2.8 1.8-1.2.8-2.5 1.6c-4.7 3.3-7 6.5-8.6 12.1-.6 4.2-.5 8.4-.5 12.7q0 1.3.1 2.7 0 3.2 0 6.5h-9c-4.1-8.4-4.4-17.3-2.2-26.3 3.4-9.1 9.4-18.1 18.2-22.7 3.7-1.1 6.3-1.1 10 0z" fill="#bd5000"/><path d="M158 453c2.9.3 2.9.3 6 1 3 4.5 2.4 8.5 1.6 13.6-3.4 16.3-12.5 31.2-25.6 41.4l-2 1q1.5 1.5 3 3-8.8-.4-17.6-.9-2.9-.1-5.8-.2c-5-.4-8-1-11.6-4.9q0-1 0-2c5.1-.1 9.9.1 15 .6 8.7.9 8.7.9 16.3-2.9q.8-.8 1.7-1.7 1-.9 2-1.7c10-9.9 15.9-25.4 16.6-39.2q.1-1.1.1-2.1.2-2.5.3-5z" fill="#6f2a00"/><path d="M346 1011q0 2 0 4c-2.2 1.6-2.2 1.6-5.1 3.2-10.3 6.3-14.5 14.6-17.5 26-.6 4.1-.5 8.1-.5 12.1q0 1.3.1 2.5 0 3.1 0 6.2h-8c-3.4-10.4-3.7-22.4.7-32.5 6.4-12.1 15.8-22.1 30.3-21.5z" fill="#bd5000"/><path d="M162 421q1 1 2 2 2 1 4 2 1 .5 2 1-2.5 15-5 30-.5-1-1-2l-2.9.5c-5 0-7.4-3.2-10.8-6.5-7.2-6.3-16.1-7-25.3-8-.7-2.3-.7-2.3-1-5 1.4-2.2 2.4-2.9 4.9-3.4 11.6.1 19.1 4.2 28.1 11.4q.2-.9.4-1.8.7-4 1.5-8.1l.6-2.8q.3-1.4.5-2.7.3-1.3.5-2.5c.5-2.1.5-2.1 1.5-4.1z" fill="#b75400"/><path d="M229 214c7 1.6 13.7 3.5 20.4 5.9q1 .4 2.1.8c4.1 1.5 7.3 3.3 10.5 6.3 1.2 5.5-1.6 10.2-4 15q-.9-.9-1.9-1.8c-4.1-2.9-8.4-4.3-13.2-5.8q-2.6-.9-5.3-1.8-1.2-.4-2.4-.8c-2.2-.8-2.2-.8-6.2-2.8v-15z" fill="#006063"/><path d="M480 1020c3.3.3 4.6.6 7 3 .5 5.7.5 5.7 0 8-2.6 2.5-5.6 3.7-8.9 5.1-6.6 3.3-9.4 8.2-12.4 14.8-1 4.6-1.4 9.3-1.7 14.1h-7c-2.5-7.6-1.5-16 1.5-23.3 3-5.5 7-11.1 12.9-13.8 2.2-.5 2.2-.5 5.6-.9q.2-1.2.4-2.4c.6-2.6.6-2.6 2.6-4.6z" fill="#bd5000"/><path d="M191 328c6.4.5 11.7 2.2 17.6 4.5 5.1 2 9.9 3.9 15.4 4.5-.7 3.8-1.7 7.2-3.1 10.8q-.5 1.5-1.1 3-.4 1.1-.8 2.2-1.4-.9-2.8-1.7c-4.9-2.9-10.3-4.7-15.6-6.6q-1.6-.5-3.1-1.1-3.8-1.3-7.5-2.6l1-13z" fill="#005f62"/><path d="M220 243q10.6 3.1 21 6.6 1.4.5 2.8 1 1.4.4 2.8.9l2.4.8c2 .7 2 .7 4 1.7-.6 3.7-1.6 6.9-3.1 10.3q-.5 1.3-1.1 2.7-.4 1-.8 2-1.1-.9-2.1-1.9c-2.9-2.1-5.2-3.1-8.6-4.2q-1.6-.6-3.3-1.1-1.6-.5-3.3-1.1-1.7-.5-3.4-1.1-4.2-1.3-8.3-2.6l1-14z" fill="#005f61"/><path d="M201 299c4.1.8 7.5 1.8 11.4 3.3q1.8.7 3.6 1.3 1.9.8 3.8 1.5 1.9.7 3.8 1.4 4.7 1.7 9.4 3.5-.5 2.4-.9 4.8-.3 1.3-.6 2.7c-.5 2.7-1.4 5-2.5 7.5q-1.1-.9-2.3-1.7c-4.7-3.2-10.2-4.8-15.6-6.5q-1.6-.6-3.2-1.2-4-1.3-7.9-2.6l1-14z" fill="#006062"/><path d="M453 1019c-.6 3.7-2.2 5.6-4.6 8.4-9.7 11.9-12.6 22.7-13.4 37.6h-9c-.5-14.6.3-24.3 10-36 4.4-4.5 10.5-10 17-10z" fill="#be5000"/><path d="M211 272c6.9 1.3 13.3 3.4 19.9 5.9 4 1.5 7.8 2.6 12.1 3.1-.4 4-1.1 7.5-2.5 11.3q-.4 1-.9 2.1-.3.8-.6 1.6l-3-1.2c-8.6-3.2-17.2-6.2-26-8.8l1-14z" fill="#005f61"/><path d="M182 355c3.9.7 7.6 1.8 11.4 3.1q1.8.6 3.6 1.2 1.9.6 3.8 1.3 1.9.6 3.8 1.2 4.7 1.6 9.4 3.2-.7 2.7-1.4 5.3-.4 1.5-.8 3-.9 2.9-1.8 5.7l-17.3-5.9q-1.5-.6-3.1-1.1-1.4-.5-2.9-1-1.3-.5-2.7-1c-2-1-2-1-3-4q.1-2.9.4-5.7.2-1.5.3-3 .2-1.1.3-2.3z" fill="#006062"/><path d="M191 484q.5 0 1 0 .4 3.6.8 7.3.1 1 .2 2c.3 3.4.4 5.2-1.8 7.9q-1.1.9-2.2 1.8-1.6 1.9-3.2 3.9c-7.5 8.5-17.2 13.5-28.6 14.4-9.5.2-9.5.2-13.2-2.3q0-2 0-4 1.6-.1 3.1-.3c14.2-1.5 26.4-4.9 36-16.2A58.39 58.39 0 0 0 191 484z" fill="#6d2a00"/></svg>