<svg xmlns="http://www.w3.org/2000/svg" width="1024" height="1024" fill-rule="evenodd" xmlns:v="https://vecta.io/nano"><path d="M270.5 90.5q45.5-2.9 65.5 38 36.1 68 72 136 19 49.2-10 93-5.8 5.8-11.5 11.5-17.2 12.7-33.5 26.5-9.1 13.2-6 29 3.4 10.8 10 20Q438.8 565.8 556.5 653q9.5 6.8 20 12 22.9 7.5 42-7 22.5-23.5 45-47 29.3-23.7 66-14 15.7 4.8 30 13 63.7 37.2 125 78 41.2 29.2 22.5 76.5Q823.8 909.7 655.5 902q-53.2-4.5-102-26-95.4-43-174-111Q238.9 644.9 154 481.5q-37.3-73.8-39.5-156.5 9-145 130-224 12.6-6.6 26-10.5z" fill="#01206f"/><path d="M276.5 120.5q16.5-.9 25.5 13 40.4 75.3 80 151 6.7 25-5 48-16.1 17.2-35.5 30.5-41.8 38.6-16.5 89.5 85 133 213.5 225.5 54.9 44.3 107-3 13.8-14.3 26.5-29.5 11.3-13.3 27.5-19.5 18.5-3 35 6 71.9 41.8 140.5 88.5 9 10.4 6 24-2.2 7.3-6 14Q773.9 909.4 598.5 859q-58.9-20.2-111-54Q387.4 740.5 308 650.5q-74.8-82.3-125-182-30.4-58.9-36-125-5.4-112.3 77.5-187.5 14.5-11.5 29-23 10.7-7.9 23-12.5z" fill="#46dbe7"/></svg>