<svg xmlns="http://www.w3.org/2000/svg" width="1024" height="1536" xmlns:v="https://vecta.io/nano"><path d="M395.9 244.9c5.1 4.6 8.8 10.5 9.4 17.4-.4 5.3-2.6 8.2-6.5 11.8-3.3 2.2-6 3-9.9 3.9q-1 .2-2 .5c-4.8 1.1-9.6 2-14.4 2.9-28.4 5.5-54 17.9-74.5 38.6-1.3 1.3-1.3 1.3-2.7 2.6-15.3 15.8-24.8 40.2-24.8 62.1.2 6.2 1.8 11.2 4.4 16.9 1.1 2.4 1.1 2.4 1.1 4.4q1.2-.5 2.5-1c30.6-11 64.6-12 94.5 1.9 19.8 9.6 35.5 22.5 50.9 38q.9.9 1.8 1.8 2.1 2.1 4.3 4.3.2-1.8.4-3.8c3.9-37.2 8.3-73.6 20.6-109.2q.4-1.2.8-2.4c16.7-47.9 16.7-47.9 30.2-54.6 7.3-.5 13.5.6 19.2 5.5q1.6 1.4 3.1 2.9.8.8 1.7 1.6c9 8.7 17.2 18.2 25 28q.8 1 1.6 2 2.6 3.3 5.3 6.7c.8 1 .8 1 1.6 2.1 9.9 12.6 18.5 26.1 27.4 39.4q.7 1.1 1.4 2.2l21.6 32.9q1.5 2.4 3.1 4.7c2 .4 2 .4 4.4.4h2.8q1.4 0 3-.1 3.2 0 6.4.1 1.7 0 3.4 0c18.7 0 36.5.5 54.7 5q1.2.3 2.3.6 1.3.3 2.6.7 1.2.1 2.4.3c2.5-2 2.5-2 4.8-4.8l1.3-1.5c2.7-3.1 5.2-6.3 7.7-9.5 5.1-6.4 10.8-12.3 16.5-18.3q3.1-3.4 6.2-6.8c9-9.9 18.3-19.7 28.5-28.4 2.1-1.8 4.2-3.7 6.3-5.6 5.1-4.8 10.3-9.4 15.8-13.7 2.1-1.7 4-3.4 6-5.1 27.8-24.9 27.8-24.9 42.9-24.7 3.9.5 5.8 1.4 8.5 4.3 22.4 32.6 9.3 96.4 2.7 132.4l-4.7 23.4q-.7 3.2-1.4 6.4c-4.1 19.4-10.2 37.9-16.9 56.5q-.6 1.7-1.2 3.4c-.6 1.5-.6 1.5-1.3 3-.9 3.8-.3 6 .9 9.8q.3.9.6 1.9.9 3.1 1.9 6.1.6 2.1 1.3 4.3 1.2 4.1 2.5 8.3 1.8 6 3.5 12l9 29.2c7.8 24.7 7.8 24.7 5.7 29.4-7.8 14.3-20.3 26.5-31.5 38.3-2.4 2.5-4.7 5-7 7.6-9.9 10.8-19.9 21.5-30.3 31.8-2 2-3.9 4.2-5.8 6.4-3.4 4.1-7.4 7.2-11.6 10.5-3.5 2.9-6.9 6.1-10.3 9.3-2.5 2.4-5 4.4-8 6.2-10.2 6.3-12.4 14.1-15.2 25.5q-.4 1.4-.7 2.8c-.6 2.4-1.4 4.3-2.4 6.5-1.5 3.5-1.3 4.5-.3 8.1 1.2 2.4 1.2 2.4 2.7 4.9q.8 1.3 1.6 2.8.9 1.4 1.8 2.9.8 1.4 1.8 3c6 10.1 12.3 19.7 19.9 28.8q3 3.6 6 7.3c13.8 17.3 28.7 33.8 46.6 47.1q2.4 1.8 4.8 3.8c16.2 12.9 32.1 20.4 52.4 24.6 10.3 2.1 19.8 4.5 28.4 10.8q1.2.9 2.5 1.8c8.1 7.1 14 19.4 14.8 30.1-.2 12.9-6.5 23.8-15.1 33-1.7 1.6-3.3 2.8-5.2 4.1q-.9.7-1.9 1.4c-20 13.7-49 16.7-72.3 12.5-22.7-4.9-43.3-16.9-63.2-28.4q-3.4-2-7-4c-25.1-14.2-48.6-31.8-71.3-49.7q-3.5-2.7-6.9-5.4c-7.8-5.9-15.4-11.9-22.7-18.4-3.7-3.3-7.6-6.2-11.7-9l-3.3 1.7c-23.1 11.4-49 21.3-74.7 24.3 11.4 25 24.8 48.8 42.1 70.3q3.1 4 6.2 8c10.3 13.9 20.1 24 35.8 31.7 15.2 7.5 23.5 16.6 29.2 32.7 2.1 9.7 2.1 20.8-3.3 29.3q-.7 1.2-1.5 2.4c-12.1 18.6-29.8 26.8-51 31.3-23.9 4-43.9-.5-63.7-14.5-6.6-4.7-12.5-10.2-18.3-15.8-2.2-2-4.4-3.9-6.6-5.8-5.6-5-9.9-10.7-14.4-16.6q-2.3-3.1-4.7-6.1c-31.8-41-56.9-86.1-79.7-132.7q-1.2-2.4-2.4-4.9-2.3-4.6-4.6-9.2-.8-1.6-1.6-3.2c-2.6-5.5-4.9-10.9-6.9-16.7-4-12-7.1-19.9-18.7-25.9q-2.3-1.1-4.7-2.2c-3.5-1.7-6.5-3.9-9.6-6.2q-.9-.6-1.7-1.3c-5.5-4-10.7-8.2-15.9-12.6l-2.2-1.8c-4.8-4.1-8.8-8.4-12.8-13.2l-1.9-2.3q-6.2-7.6-11.8-15.6-2.5-3.4-5.1-6.9c-7.7-10.6-14.3-21.5-20.2-33.2q-.7-1.4-1.5-2.8c-10-19.6-16.3-40.2-22.5-61.2q-1.4.5-2.8.9-5.5 1.9-11.1 3.7-1 .3-2 .6c-17.8 5.7-35.4 3.2-52.1-4.2q-.1 1.1-.3 2.3c-1.2 8.3-2.9 16.5-5 24.6q-.8 3.1-1.5 6.2c-4.4 17.8-10.8 36.7-26.7 47.6-2.4 1.3-4.9 2.3-7.5 3.3l-2.6 1c-14 4.4-28.1 2.4-41-4.2-6-3.4-11.3-7.3-16.4-11.8q-1-.8-2-1.7c-4.8-4.5-7.9-9.6-11-15.3q-.9-1.7-1.9-3.4c-2.9-9.4-1.1-18.6 3.2-27.2 2.2-3.9 4.2-7 7.6-10 4.3-4.2 6-9.6 8.1-15.2q.6-1.5 1.2-3c6.4-16.4 11.2-33 15.4-50q.7-2.8 1.3-5.6 2.8-11.2 5.5-22.4.3-1.4.6-2.9.7-2.7 1.3-5.4c2.9-12.4 7.8-25.3 18.5-33.1 5.9-3.2 12.9-2.6 19.2-.8 1.2-2.4 1.3-4.6 1.5-7.3 3.8-44.1 24.5-86.3 54.5-118.7-1.3-3.7-3.1-7-5-10.4-19.8-35.3-23.3-80.5-12.7-119.3 6.4-21.2 17-39.9 31.7-56.3q.7-.8 1.4-1.6c40.6-44.7 123.7-60.7 173.5-21.5z" fill="#ec7c00"/><path d="M395.9 244.9c5.1 4.6 8.8 10.5 9.4 17.4-.4 5.3-2.6 8.2-6.5 11.8-3.3 2.2-6 3-9.9 3.9q-1 .2-2 .5c-4.8 1.1-9.6 2-14.4 2.9-28.4 5.5-54 17.9-74.5 38.6-1.3 1.3-1.3 1.3-2.7 2.6-15.3 15.8-24.8 40.2-24.8 62.1.2 6.2 1.8 11.2 4.4 16.9 1.1 2.4 1.1 2.4 1.1 4.4q1.2-.5 2.5-1c30.6-11 64.6-12 94.5 1.9 19.8 9.6 35.5 22.5 50.9 38q.9.9 1.8 1.8 2.1 2.1 4.3 4.3.2-1.8.4-3.8c3.9-37.2 8.3-73.6 20.6-109.2q.4-1.2.8-2.4c16.7-47.9 16.7-47.9 30.2-54.6 7.3-.5 13.5.6 19.2 5.5q1.6 1.4 3.1 2.9.8.8 1.7 1.6c9 8.7 17.2 18.2 25 28q.8 1 1.6 2 2.6 3.3 5.3 6.7c.8 1 .8 1 1.6 2.1 9.9 12.6 18.5 26.1 27.4 39.4q.7 1.1 1.4 2.2l21.6 32.9q1.5 2.4 3.1 4.7c2 .4 2 .4 4.4.4h2.8q1.4 0 3-.1 3.2 0 6.4.1 1.7 0 3.4 0c18.7 0 36.5.5 54.7 5q1.2.3 2.3.6 1.3.3 2.6.7 1.2.1 2.4.3c2.5-2 2.5-2 4.8-4.8l1.3-1.5c2.7-3.1 5.2-6.3 7.7-9.5 5.1-6.4 10.8-12.3 16.5-18.3q3.1-3.4 6.2-6.8c9-9.9 18.3-19.7 28.5-28.4 2.1-1.8 4.2-3.7 6.3-5.6 5.1-4.8 10.3-9.4 15.8-13.7 2.1-1.7 4-3.4 6-5.1 27.8-24.9 27.8-24.9 42.9-24.7 3.9.5 5.8 1.4 8.5 4.3 22.4 32.6 9.3 96.4 2.7 132.4l-4.7 23.4q-.7 3.2-1.4 6.4c-4.1 19.4-10.2 37.9-16.9 56.5q-.6 1.7-1.2 3.4c-.6 1.5-.6 1.5-1.3 3-.9 3.8-.3 6 .9 9.8q.3.9.6 1.9.9 3.1 1.9 6.1.6 2.1 1.3 4.3 1.2 4.1 2.5 8.3 1.8 6 3.5 12l9 29.2c7.8 24.7 7.8 24.7 5.7 29.4-7.8 14.3-20.3 26.5-31.5 38.3-2.4 2.5-4.7 5-7 7.6-9.9 10.8-19.9 21.5-30.3 31.8-2 2-3.9 4.2-5.8 6.4-3.4 4.1-7.4 7.2-11.6 10.5-3.5 2.9-6.9 6.1-10.3 9.3-2.5 2.4-5 4.4-8 6.2-10.2 6.3-12.4 14.1-15.2 25.5q-.4 1.4-.7 2.8c-.6 2.4-1.4 4.3-2.4 6.5-1.5 3.5-1.3 4.5-.3 8.1 1.2 2.4 1.2 2.4 2.7 4.9q.8 1.3 1.6 2.8.9 1.4 1.8 2.9.8 1.4 1.8 3c6 10.1 12.3 19.7 19.9 28.8q3 3.6 6 7.3c13.8 17.3 28.7 33.8 46.6 47.1q2.4 1.8 4.8 3.8c16.2 12.9 32.1 20.4 52.4 24.6 10.3 2.1 19.8 4.5 28.4 10.8q1.2.9 2.5 1.8c8.1 7.1 14 19.4 14.8 30.1-.2 12.9-6.5 23.8-15.1 33-1.7 1.6-3.3 2.8-5.2 4.1q-.9.7-1.9 1.4c-20 13.7-49 16.7-72.3 12.5-22.7-4.9-43.3-16.9-63.2-28.4q-3.4-2-7-4c-25.1-14.2-48.6-31.8-71.3-49.7q-3.5-2.7-6.9-5.4c-7.8-5.9-15.4-11.9-22.7-18.4-3.7-3.3-7.6-6.2-11.7-9l-3.3 1.7c-23.1 11.4-49 21.3-74.7 24.3 11.4 25 24.8 48.8 42.1 70.3q3.1 4 6.2 8c10.3 13.9 20.1 24 35.8 31.7 15.2 7.5 23.5 16.6 29.2 32.7 2.1 9.7 2.1 20.8-3.3 29.3q-.7 1.2-1.5 2.4c-12.1 18.6-29.8 26.8-51 31.3-23.9 4-43.9-.5-63.7-14.5-6.6-4.7-12.5-10.2-18.3-15.8-2.2-2-4.4-3.9-6.6-5.8-5.6-5-9.9-10.7-14.4-16.6q-2.3-3.1-4.7-6.1c-31.8-41-56.9-86.1-79.7-132.7q-1.2-2.4-2.4-4.9-2.3-4.6-4.6-9.2-.8-1.6-1.6-3.2c-2.6-5.5-4.9-10.9-6.9-16.7-4-12-7.1-19.9-18.7-25.9q-2.3-1.1-4.7-2.2c-3.5-1.7-6.5-3.9-9.6-6.2q-.9-.6-1.7-1.3c-5.5-4-10.7-8.2-15.9-12.6l-2.2-1.8c-4.8-4.1-8.8-8.4-12.8-13.2l-1.9-2.3q-6.2-7.6-11.8-15.6-2.5-3.4-5.1-6.9c-7.7-10.6-14.3-21.5-20.2-33.2q-.7-1.4-1.5-2.8c-10-19.6-16.3-40.2-22.5-61.2q-1.4.5-2.8.9-5.5 1.9-11.1 3.7-1 .3-2 .6c-17.8 5.7-35.4 3.2-52.1-4.2q-.1 1.1-.3 2.3c-1.2 8.3-2.9 16.5-5 24.6q-.8 3.1-1.5 6.2c-4.4 17.8-10.8 36.7-26.7 47.6-2.4 1.3-4.9 2.3-7.5 3.3l-2.6 1c-14 4.4-28.1 2.4-41-4.2-6-3.4-11.3-7.3-16.4-11.8q-1-.8-2-1.7c-4.8-4.5-7.9-9.6-11-15.3q-.9-1.7-1.9-3.4c-2.9-9.4-1.1-18.6 3.2-27.2 2.2-3.9 4.2-7 7.6-10 4.3-4.2 6-9.6 8.1-15.2q.6-1.5 1.2-3c6.4-16.4 11.2-33 15.4-50q.7-2.8 1.3-5.6 2.8-11.2 5.5-22.4.3-1.4.6-2.9.7-2.7 1.3-5.4c2.9-12.4 7.8-25.3 18.5-33.1 5.9-3.2 12.9-2.6 19.2-.8 1.2-2.4 1.3-4.6 1.5-7.3 3.8-44.1 24.5-86.3 54.5-118.7-1.3-3.7-3.1-7-5-10.4-19.8-35.3-23.3-80.5-12.7-119.3 6.4-21.2 17-39.9 31.7-56.3q.7-.8 1.4-1.6c40.6-44.7 123.7-60.7 173.5-21.5zM486 304c-18 42.8-30.1 85.8-36 132q-.3 2.3-.6 4.6c-1.3 10-1.8 20.1-2.4 30.3q-.5 8.5-1 17.1-.1 1.7-.2 3.4-.3 4.2-.6 8.3-.1 1.2-.2 2.4c-.5 6.6-3.6 9.8-8.4 14q-1.2.9-2.5 1.8c-7.8 6.1-13.6 12.9-19.6 20.8-2.2 2.9-4.5 5.6-6.8 8.4-5 6-9.2 12.6-13.4 19.3q-.8 1.2-1.6 2.5c-.7 1.2-.7 1.2-1.4 2.3-1.3 1.8-1.3 1.8-3.3 2.8 5.3 20.1 16.2 38 28 55q.6.9 1.3 1.9c7.2 10.3 14.6 20.4 22.3 30.3q1.8 2.3 3.5 4.5c2.9 3.9 6.1 7.6 9.5 11.2 4.9 5.4 10 11.7 10.7 19.3-.3 2.8-.3 2.8-2.4 5.2-3.7 2-5 1.7-8.9.6-7.7-5.8-13.4-13.9-19.1-21.5-3.5-4.7-7-9.1-10.8-13.4-11.8-13.6-22.5-28-32.6-42.8q-2-3-4-5.8c-5.7-8.3-8.9-17.5-12.1-27q-.3-1-.6-2c-5.1-15.1-5.1-15.1-3.1-21.8 6.8-13.2 16.6-24.6 26.3-35.7l1.8-2.2c8.2-9.6 17.2-18.1 27.2-25.8 3.6-3.6 3.3-13 3.6-17.8-.2-7.9-3.8-12-9.3-17.4l-6.8-6.1q-2.2-2-4.4-4.1c-22.1-20.7-46.5-39.5-78-39.8-1.1-.1-1.1-.1-2.2-.1q-2.3 0-4.6 0-2.3 0-4.6-.1c-11.2-.2-21 1.1-31.7 4.4-1.2.4-1.2.4-2.5.7-20.9 6.7-38.9 19.7-54.7 34.7q-2.8 2.6-5.6 5c-7 6-12 12.4-17.1 20q-1.4 2-2.9 4c-18.6 24.7-25.5 55.2-31.2 85q-.3 1.4-.5 2.8-1.4 6.9-2.6 13.8-.5 2.6-1 5.1-.2 1.2-.4 2.4c-1 5.4-2.9 9.7-5.5 14.5-3.1.4-5.2.6-7.8-1.2q-1.8-1.6-3.5-3.3c-2.9-2.6-5.2-4.4-9.2-4.7-6.3 3-8.3 11-10.5 17.2-1.6 5-2.8 10.1-4 15.2q-.7 3.1-1.4 6.2-.4 1.5-.8 3.2-1.6 6.6-3.2 13.1-1.6 6.4-3.2 12.9c-12.9 53-12.9 53-25.4 64.4-3.1 3.2-4.3 5.8-4.4 10.2.1 5.7 2.2 10.3 5.9 14.5 1.4 1.5 1.4 1.5 3.5 1.3q1.5-2.5 3-5 .9-.9 1.9-1.8c2.5-2.6 4.1-5.3 6-8.4 1.1-1.8 1.1-1.8 3.1-3.8 4.1-.6 5.6-.3 8.9 2.1 2.1 2.9 2.1 2.9 2.3 5.6-2.2 6-5.9 10.9-10.1 15.7-2.4 2.4-2.4 2.4-2.1 5.6q2.3.8 4.7 1.6 1.3.4 2.6.8c3 .7 4.8.6 7.7-.4 2.8-3.9 4.2-7.5 5.4-12.1 1.3-4.5 2.7-7.1 6.6-9.9 2.7-.4 2.7-.4 5 0 2 2 2 2 2.2 5.7-.1 3.8-.6 7.5-1.2 11.3 1.9 0 1.9 0 4-1 1.5-2.1 2.7-4.1 3.9-6.4q.6-1 1.1-2c11.8-23.8 13-53.7 10-79.6 4.5 1.7 8.4 3.8 12.5 6.3 17.6 10.4 37.7 15.4 57.9 10.2 21-7.1 36.9-23.3 46.8-42.9 6.7-14 11.6-28.8 16-43.6 3.4-11.6 3.4-11.6 7.8-16 2.4-.3 2.4-.3 5 0 2.3 2.3 3 3.6 3.2 6.8-1.3 15.3-5 29.2-10.1 43.6q-.6 1.7-1.2 3.5c-3.6 9.9-7.6 19.6-14 28q-1 1.4-2 2.8c-1.6 1.9-3.1 3.4-5 4.9-2.3 2.4-2.3 2.4-2 6.2q.5 2.6 1.1 5.2.3 1.6.7 3.2c8 35.2 22.3 72 44.3 100.8q1 1.3 2 2.6c7.2 9.2 15.1 17.6 23.4 25.8 3.4 3.4 6.5 6.9 9.6 10.6 1.2-3.6.7-5-.1-8.6q-.4-1.7-.8-3.4c-.5-1.7-.5-1.7-.9-3.5-5.5-22.6-5.5-22.6-5.5-32.1q0-1.7-.1-3.5l.4-2.9c3.7-2.5 5.6-2.6 10-2 4.3 4.9 5.3 10.3 6.7 16.6 11 46.4 29.9 91 52.4 133 3 5.5 5.8 11.1 8.5 16.8 6.9 13.9 14.4 27.3 22.4 40.6q.9 1.6 1.9 3.2c37.1 63.9 37.1 63.9 96.1 105.8 3.3.6 6.6.9 10 1 2.5-6.2 2.9-11.3.8-17.6-1.3-2.4-2.6-4.7-4-7-1.8-3.4-1.8-3.4-1.7-6.2.9-2.2.9-2.2 3.9-4.2 3.4-.5 5.8-.7 8.9 1.1 4.5 3.6 7 7.6 9.1 12.9a28.86 28.86 0 0 0 1.1 2.6c2.4 6.1 3.6 11.8 3.9 18.4 6-.4 10.6-1.4 16-4-.3-9.6-1.7-17-7.8-24.6-2.1-2.8-2.2-3.3-2.2-7.2 1.5-4.7 1.5-4.7 4-6.2 4-.7 5.6-.3 9 1.9 6.6 6.2 9.9 13.4 12 22.1 1.9-.2 1.9-.2 4-1 3.3-4.7 2.7-10.6 2-16-3.8-11.1-11-19.9-21.1-25.6-3.3-1.6-6.7-2.7-10.1-3.9-14.5-5.3-23.9-19.6-32.8-31.5q-1.4-1.8-2.7-3.6c-7.2-9.5-13.8-19.4-20.3-29.4q-.6-1-1.3-1.9C509.6 931.5 466 850 475 808c2.3-3.4 3.6-4.6 7.5-5.7 3.7 1 5.4 3.7 7.5 6.7 1.3 3.2 1.3 3.2 2.4 6.7q.3 1.1.6 2.1c1.6 5.4 3 10.9 4.4 16.4q.5 1.6.9 3.3.4 1.7.9 3.4c2.3 8.7 5.1 17.3 8 25.8 2.5 7.4 4.8 14.8 6.8 22.3 17.7 1.7 36.3-4.3 52-12q1.5-.7 3.1-1.5c23.3-11.5 44.1-24.3 62.3-42.9 1.6-1.6 1.6-1.6 4.6-4 3.8-3.2 6.8-6.8 10-10.6q.7-.8 1.4-1.5c15.7-18.1 27.9-39.6 37.9-61.3 6.3-13.6 12.1-24.5 23.7-34.2l2.2-2q1.9-1.7 3.8-3.3c6-5.1 11.8-10.4 17.3-16 1.8-1.8 3.7-3.5 5.6-5.1 6.3-5.4 11.9-11.2 17.3-17.5q3.1-3.6 6.3-7.1 4-4.4 7.9-8.9l11.2-12.5q2.9-3.2 5.7-6.4c5.4-6.2 11.1-12.2 16.7-18.2q-.4-1.2-.8-2.5-9.8-30.6-18.8-61.5-.4-1.3-.8-2.7-.7-2.6-1.5-5.2l-3.4-11q-.6-1.7-1.1-3.5-.5-1.4-1-2.8c-1.4-6.5 1-11.5 4.1-17.1 4-7.8 7-15.7 9.8-24q1-3.4 2.2-6.7c6.5-19.4 9.9-39.5 13-59.6q.8-5 1.6-10c3.2-20.5 3.9-40.4 3.9-61.1q0-5.2 0-10.4 0-5 0-10 0-1.9.1-3.8-.1-1.7-.1-3.5v-3.1c0-2.7 0-2.7-2.2-5.5-8.4 5.2-16.4 10.7-24 17q-1.9 1.5-3.8 3c-7.1 5.8-14.1 11.6-20.8 17.8q-3 2.8-6.1 5.4c-6.2 5.3-11.9 11.3-17.6 17.1-2.9 2.9-5.7 5.8-8.7 8.6-4.3 4.2-8 8.5-11.7 13.2-3.3 4.1-6.7 8-10.1 11.9a98.17 98.17 0 0 0-8.2 11c1.1.9 1.1.9 2.2 1.7 10.8 8.6 10.8 8.6 13.8 14.3.1 3.9-.2 5.9-2.6 9-4.3 1.8-8.6.6-12.9-.9q-3.9-1.7-7.9-3.5c-6.8-3-13.4-5.6-20.6-7.6q-1.4-.4-2.9-.8c-9.8-2.7-20-4-30.1-5.2q-1.2-.1-2.5-.3c-7.6-.8-15.3-.9-22.9-.8q-3.3 0-6.6 0-2.2 0-4.3 0-1 0-2.1 0a64.69 64.69 0 0 0-10.8.9c-3.8.2-3.8.2-6.5-1.1-3.3-3.9-5.6-8.2-8-12.6-4-7.1-8-13.9-12.7-20.4-2.9-4-5.5-8.1-8.2-12.2-7.3-11-14.9-21.8-22.8-32.4q-2.3-3-4.5-6.1c-8.7-12.2-18.4-23.3-28.6-34.3-1.8-2-3.5-4-5.2-6-1.1-1.4-1.1-1.4-2.3-2.7q-1 0-2 0z" fill="#02233b"/><path d="M486 304c4 1.6 6.4 4.3 9.2 7.4q.7.8 1.4 1.7c3.9 4.3 7.6 8.8 11.3 13.3 1.9 2.4 3.9 4.5 5.9 6.7 4.2 4.7 7.8 9.8 11.4 15q4.8 7 10 13.9c6.6 8.8 12.7 17.8 18.6 27.1l7.9 11.9c4.8 7.1 9.3 14.2 13.3 21.9 2.1 4 3.9 6.9 8 9.1 3.6-.2 3.6-.2 6.2-.6 6.1-.8 12.2-.6 18.3-.7q1.1 0 2.2 0c18.7.1 37.1 2 55.3 6.3q1.3.3 2.6.6c11.1 2.6 21.9 7.5 32.3 12.2 3.9 1.5 6.1 1.4 10.1.2 2.2-1.5 2.2-1.5 3-4 .2-4.8-1.1-7.5-4.1-11.1-3.6-3.8-7.6-6.9-11.9-9.9 4.4-6.1 9.2-11.7 14.1-17.4 3.2-3.6 6.2-7.2 9.2-11 5.3-6.7 10.7-12.9 17.2-18.4 3.5-3.1 6.7-6.4 10-9.7 5-5 10-9.9 15.5-14.5q2.3-2 4.7-4c8.4-7.2 17-14.1 25.9-20.8l1.9-1.3c4.3-3.2 8.7-5.6 13.5-7.9 1 3.1 1.1 5.3 1.1 8.6q0 1.7 0 3.5v3.8 3.9q0 4.1 0 8.2 0 4.2 0 8.3c.1 22.8-1.1 44.4-4.7 66.9q-.9 5.6-1.7 11.2c-3.2 20.7-7.6 40.9-14.6 60.6-.6 1.8-.6 1.8-1.3 3.7-2.8 8.1-6.1 15.7-10.3 23.1-3.3 7-2.3 12.2-.1 19.2q.4 1.3.8 2.7 1.3 4.2 2.7 8.4.9 2.9 1.8 5.8 1.8 5.8 3.6 11.7l6.6 21.9q4.9 16.3 10.1 32.5l-1.5 1.5c-4 3.9-7.8 7.9-11.5 12.2-2.6 3-5.3 5.9-8 8.8-3.8 4.1-7.6 8.2-11.2 12.5-5.1 5.8-10.3 11.6-15.8 17q.5-2.1.9-4.3l.6-2.3q.4-2.1 1-4.2c2.9-13.7-.1-28.6-7.3-40.4-2-3-4-5.2-7.2-6.8q-2-.2-4.1-.2-1.2 0-2.5-.1-1.4 0-2.8 0-1.4 0-2.8-.1-4.5-.1-8.9-.2-3 0-6.1-.1-7.4-.2-14.8-.3 0 .9 0 1.9 0 1.2.1 2.4 0 1.2 0 2.5c-.3 7.4-6.1 14.1-10.9 19.2-5.5 5-15.6 11-23.2 11 .1 9.8.1 9.8 5 18 6.5 4.4 14.4 3.6 22 3 3.7-.8 6.9-1.8 9.6-4.6 1.4-1.4 1.4-1.4 3.4-1.4q.4-.8.7-1.6c1.6-3 3.6-5.7 5.6-8.4q1.1-1.5 2.3-3.1c2.3-2.8 4.4-4.9 7.4-6.9 3.1 0 3.1 0 6 1 2.6 2.8 3.4 4.8 3.4 8.6-.4 9.7-4 15.8-10.9 22.5-4.8 4.4-9.9 7.8-15.5 10.9q-1.7 1-3.4 1.9c-5.2 1.6-10.2 1.3-15.6 1.1-.1 1.1-.1 1.1-.3 2.3-3 22.9-13.2 44.8-31.2 60-11.9 8.2-25 11.5-39.2 9.3-20-5.3-31.8-19.9-42.3-36.6q-.6-.9-1.2-1.8c-15.2-24.7-25.6-52.6-29.8-81.2q-.3-1.5-.6-3.1c-.4-2.9-.6-5.6-.6-8.5-.1-1.4-.1-1.4-.1-2.8.4-3 1.3-4.4 3.3-6.6 4.4 0 6.7 1.3 9.8 4.2 3.2 3.4 5.7 7 8.3 10.8 7.8 11.8 18 23.7 30.9 30q1.2.6 2.5 1.3c12.3 5.5 26.1 3.6 38.4-.7 6-2.3 11.8-4.9 15.3-10.5 1-2.7 1.4-4.2.8-7.1-2.1-2-4.1-3.6-6.5-5.3-8.9-6.6-17-13.8-20.5-24.7-.2-3.1-.2-3.1-.1-6.3q0-1.6 0-3.3.1-1.2.1-2.4-1 0-2.1 0c-27.7.6-50.2-3.4-75.6-14.6-17.7-7.8-36.6-14-55.6-6.9-2.6 1.1-5.2 2.3-7.7 3.5q-.9.4-1.9.9c-17.8 8.8-29.5 22.2-36.1 41.1-2.4 7.9-3.8 15.9-5 24-22.8-22-41.5-54.3-52-84q0-1 0-2 1.1-1.1 2.2-2.1c3.2-3.3 5.3-6.6 7.6-10.5 3.5-5.9 7.3-11.3 11.7-16.5q2.9-3.4 5.7-6.9c.9-1 .9-1 1.7-2.1q1.7-2.1 3.3-4.2c5.1-6.3 10.6-12 17.1-17 4-3 6.4-4.9 7.3-10.2q.2-2.3.4-4.6.1-1.3.3-2.6c.6-7 1-14.1 1.3-21.1 1.9-35.6 5.7-71.8 15.8-106q1-3.5 1.9-6.9c5.2-18.2 11.5-36.2 19.4-53.4 1.3-2.9 1.3-2.9 2.3-5.9z" fill="#ec7c00"/><path d="M553.5 599.3c23.6 10.5 45.9 12.1 71.5 11.7q0 1.3-.1 2.7 0 1.7 0 3.5-.1 1.7-.1 3.4c.6 9.7 7.5 17.1 14.2 23.4 3.9 3.2 7.9 6.1 12 9 1 1 1 1 1.1 4.6-.7 4.6-2.7 6.9-6.3 9.7-13.1 7.9-29 11.1-44 8.1-11.2-3.8-20-10.8-27.8-19.4q-.9-.9-1.7-1.8c-2.9-3.1-5.5-6.4-7.9-9.8q-.7-1-1.5-2-1.4-2-2.7-3.9C557 634 553.6 630 549 627c-2.8-.2-2.8-.2-5 1-6.7 13.4 3.9 40.7 8.3 53.9 8.3 23.7 19.6 46.8 35.7 66.1q.9 1.1 1.8 2.3c7.8 8.7 21.2 14.9 32.7 16.1 9.2.1 16.2-1.3 24.5-5.4 1.3-.7 1.3-.7 2.7-1.3 16.7-9 27.6-29.2 33.3-46.7 1.6-5.9 2.9-11.9 4-18h2.1c13.6-.4 24-6.9 33.4-16.3 6.4-6.9 8.9-13 8.8-22.3-.2-2.6-.2-2.6-1.9-5.1-2.4-1.5-2.4-1.5-5.3-1.5-4.4 1.7-6.3 4.5-9.1 8.2-.8 1-.8 1-1.5 2.1q-.8 1-1.6 2c-4.5 6.2-10 12.5-17.9 13.9-16.7 1.2-16.7 1.2-23-4-3.9-3.9-4.2-7-4.3-12.4q.1-2.8.3-5.6c1.5-.5 1.5-.5 3-1.1 12.9-4.8 22.2-10.8 28.8-23.3 1-3 1.5-5.3 1.8-8.3q.1-1.2.2-2.5.1-.9.2-1.8 8.8-.1 17.7-.2 3 0 6 0 4.3-.1 8.6-.1 1.4 0 2.7 0c4.9 0 8.1.1 12 3.3 10.7 13.5 12.4 30.2 10.6 46.7-2.4 11.2-9.6 17.7-17.6 25.3q-1 .9-2 1.9-5.9 5.7-12 11.3-2.9 2.7-5.8 5.4l-14.6 13.3q-1.8 1.5-3.6 3.1-.8.7-1.7 1.4c-5.6 5.1-8.5 11.2-11.7 18l-1.8 3.6q-2.4 5-4.8 10c-8.2 17-17.7 32.9-29 48q-1 1.3-1.9 2.6c-3.2 4.3-6.7 8.1-10.5 11.8-1.8 1.8-1.8 1.8-4 4.6-2.6 3-5.3 5.4-8.2 8-2.3 1.9-4.4 3.9-6.6 6-6.5 6.1-13.3 11.2-20.8 16q-1.4.9-2.8 1.8c-7.6 5-15.6 9.2-23.7 13.4q-1.7.9-3.4 1.8c-11.2 5.8-22.3 10.2-34.7 12.8q-1.4.3-2.8.7c-6.9 1.5-13.5 1.7-20.6 1.5q-3.6-11.6-7.2-23.1-1.9-6.1-3.7-12.1c-3.3-10.7-6.4-21.3-9-32.1-2.1-9-2.1-9-7.1-16.7q-.5-2.4-.9-4.7-.3-1.5-.6-3.1-.3-1.7-.6-3.4c-8.2-45.4-8.2-45.4-28.9-86.2-1-1.6-1-1.6-1-3.6l2.9-1.4c3.1-1.4 3.1-1.4 5.1-3.6.7-6.9-2.2-11.4-6-17-2.4-2.9-5-5.6-7.6-8.3-9.1-9.4-9.1-9.4-9.8-14.9 2.4-22.3 9.5-41.1 26.8-55.8 28.9-21.7 55.6-17.8 87.1-3.7z" fill="#fde7b7"/><path d="M398.9 959.9l3.1.3q2.8.2 5.6.5 2.2.3 4.5.4c3.1.3 4.5.5 6.6 2.8l1.2 2.5 1.4 2.8 1.4 3.1q1.6 3.2 3.1 6.4l1.6 3.2c11.5 22.6 26.5 43.8 41.6 64.1q.8 1.1 1.6 2.1c6.2 8.5 12.6 16.8 19.4 24.9q-.5 1-1 2c-47.9.5-95.1-3-142.6-8.6q-5.5-.6-11-1.2c-182.2-19.9-182.2-19.9-215.3-60.6-1.6-3.9-1.7-7.4-1.1-11.6 5.3-11.2 17.1-16.7 28-21q1-.4 2-.8c75.8-29.5 171-18.9 249.9-11.3z" fill="#fae1a7"/><path d="M867.9 1049.4c20.2 15.8 35.3 38.2 38.8 63.9 2.4 29.9-3.8 56.1-23 79.4-2.1 2.5-4.4 4.9-6.7 7.3q-1 1-2 2c-18.5 17.6-44.4 26.8-69.7 26.4-27.6-.9-51.6-12.9-70.8-32.6-19.8-21.8-24.5-48.7-23.7-77.1 1.2-25.9 16.2-47.7 34.6-64.9 13.8-11.9 30-18.3 47.6-21.8q1.4-.3 2.9-.6c25.2-3.3 51.5 2.8 72 18z" fill="#007f80"/><path d="M685 799q1 0 2 0c.5.8.5.8.9 1.7 10.1 18.2 21.2 34.8 35.1 50.3 1.3 1.4 1.3 1.4 2.6 2.9 6.4 7.1 13.2 14 19.9 20.8q1.6 1.6 3.2 3.2c6.4 6.5 13 12.5 20.3 18.1q1.7 1.3 3.3 2.7c16.2 12.7 35.1 24.6 56.3 25.1 11.6.8 23.5 5.6 31.3 14.3 4.2 5.3 5.3 9 5.1 15.9q-.5 1-1 2c-1.8-.2-1.8-.2-4-1-1.5-2.1-1.5-2.1-2.9-4.8-2.6-4.5-4.6-7.4-9.1-10.2-3.7-.6-3.7-.6-7 0-2.3 1.9-2.3 1.9-2.3 4.8.4 3.8 1.4 5.2 3.7 8.2 4.4 6.4 4.7 12.4 4.6 20q-2.4 1.3-4.9 2.5-1.3.7-2.7 1.4C837 978 837 978 835 978q-.1-.9-.2-1.8c-1.5-9.4-5.8-21.3-13.8-27.2-3.6-.6-5.7-.7-8.9 1.1-1.7 3-1.9 5.6-1.1 8.9q1.4 2.7 3 5.2c3.4 5.8 3.5 10.3 3 16.8-21.9.7-41.4-5.8-61-15q-1.1-.5-2.2-1c-25.1-11.6-49.1-27-70.8-44q-.8-.6-1.6-1.3-3.6-2.8-7.1-5.5-5.1-4-10.2-7.9c-7-5.3-13.7-11-20.3-16.7q-4.6-4.1-9.3-8-.8-.8-1.7-1.5-5.4-4.6-10.8-9.1c4.8-6 10.2-10.9 16-16 9.6-8.5 18.8-17.2 27-27q.9-1 1.8-2.1c5.4-6.4 9.8-13.4 14.2-20.7q.7-1.2 1.5-2.4.6-1.1 1.3-2.2.6-.8 1.2-1.6z" fill="#ec7c00"/><path d="M692 605c4.2 3.8 8.3 8.3 9.4 14 .2 8.8-3.7 15.2-9.2 21.8-6.3 6.8-14.5 10.3-23.2 13.2q-1 0-2 0c.1 9.8.1 9.8 5 18 6.5 4.4 14.4 3.6 22 3 3.7-.8 6.9-1.8 9.6-4.6 1.4-1.4 1.4-1.4 3.4-1.4.4-.8.4-.8.7-1.6 1.6-3 3.6-5.7 5.6-8.4q1.1-1.5 2.3-3.1c2.3-2.8 4.4-4.9 7.4-6.9 3.1 0 3.1 0 6 1 2.6 2.8 3.4 4.8 3.4 8.6-.4 9.7-4 15.8-10.9 22.5-4.8 4.4-9.9 7.8-15.5 10.9-1.7 1-1.7 1-3.4 1.9-5.2 1.6-10.2 1.3-15.6 1.1-.1 1.1-.1 1.1-.3 2.3-3 22.9-13.2 44.8-31.2 60-11.9 8.2-25 11.5-39.2 9.3-20-5.3-31.8-19.9-42.3-36.6q-.6-.9-1.2-1.8c-15.2-24.7-25.6-52.6-29.8-81.2q-.3-1.5-.6-3.1c-.4-2.9-.6-5.6-.7-8.5q0-1.4 0-2.8c.4-3 1.3-4.4 3.3-6.6 4.4 0 6.7 1.3 9.8 4.3 3.2 3.3 5.7 6.9 8.3 10.7 7.8 11.8 18 23.7 30.9 30q1.2.6 2.5 1.3c12.3 5.5 26.1 3.6 38.4-.7 6-2.3 11.8-4.9 15.3-10.5 1-2.7 1.4-4.2.8-7.1a46.31 46.31 0 0 0-6.5-5.2c-8.8-6.7-17.1-13.9-20.5-24.8-.8-6.5-1-11.6 3-17 16.7-10.6 47.8-12.6 65-2z" fill="#01233b"/><path d="M867.9 1049.4c20.2 15.8 35.3 38.2 38.8 63.9 2.4 29.9-3.8 56.1-23 79.4-2.1 2.5-4.4 4.9-6.7 7.3q-1 1-2 2c-18.5 17.6-44.4 26.8-69.7 26.4-27.6-.9-51.6-12.9-70.8-32.6-19.8-21.8-24.5-48.7-23.7-77.1 1.2-25.9 16.2-47.7 34.6-64.9 13.8-11.9 30-18.3 47.6-21.8q1.4-.3 2.9-.6c25.2-3.3 51.5 2.8 72 18zM748 1078c-13.4 16.6-20.9 36.7-19 58 2.4 22.5 11.8 41 29 56 18.2 14.1 39.7 18.3 62.3 15.7 20.5-3.2 38.9-14.5 51.7-30.7 13.4-18.9 17.5-39.6 14.7-62.5-3.4-19.7-14.6-38.2-31-49.9-34.2-23.4-80.4-18.7-107.7 13.4z" fill="#01233a"/><path d="M323.9 245.6q1.1 0 2.3 0c11 .1 21.3.5 31.8 4.4q1.3.5 2.6.9c17 6.3 17 6.3 18.4 9.1q-.9.1-1.8.1c-35.5 2.5-64.8 14.6-90.2 39.9q-.7.7-1.4 1.4c-21.6 21.7-34.4 52.1-35.1 82.7.2 10.3 3.1 20.1 8.5 28.9q0 1 0 2-3.2 1.9-6.5 3.8c-1 .5-1 .5-2 1.1-3.1 1.8-6.3 3.5-9.7 5-4.6 2.2-8.3 5.7-12.2 9-2.4 2-4.9 3.6-7.6 5.1-18.6-28.3-23.6-61-17-94.3 7.3-32.3 27.2-62.7 55-80.7 20.5-12.4 41-18.7 64.9-18.4z" fill="#eb7d00"/><path d="M881 1203c2.8 1.1 5.4 2.4 8.1 3.8l2 1c6.1 3 12.1 6.7 14.9 13.2.7 4.4.2 7.2-2.1 10.9-13.1 15.8-40.3 18.8-59.3 20.6-33.3 2.7-77.4 2-105.6-18.5-4.3-3.7-7.6-7.2-8.4-12.9.9-6.3 5.1-10 9.7-13.9 1.7-1.2 1.7-1.2 4.7-2.2 2.6 1.6 2.6 1.6 5.7 4 19.9 14.4 45.6 21.2 70 17.6 19.1-3.6 36.6-10.2 51-23.4 3.5-1.8 5.6-1.1 9.3-.2z" fill="#f9e0a6"/><path d="M564.3 1014.6c4.3.7 6.1 3.8 8.8 6.9 6.1 6.5 11.9 9.8 20.2 12.9 11.6 4.4 19.4 11.9 25.1 22.9 2.2 5.4 2.5 11 1.6 16.7-1.3 2.9-1.3 2.9-3 5q-1.5 0-3 0-.2-.9-.4-1.8c-2.1-8.6-6.9-17.3-14.6-22.2-3-.7-3-.7-6 0-2.6 2.4-3.9 3.9-4.3 7.4.4 3.3 1.6 4.9 3.7 7.5 5.4 7.5 6 14 6.6 23.1q-2.6 1-5.2 2-1.4.6-2.9 1.1c-2.8.9-5 1.1-7.9.9-.1-1.2-.1-1.2-.3-2.4-1.5-12-4.4-23.3-13.7-31.6-3.1-1.5-5.6-1.3-9-1-2.6 1.5-2.6 1.5-4 4-.1 4.8 1.9 7.7 4.8 11.3 2.8 4.1 2.6 9 2.2 13.7-1 3.5-1 3.5-2 6-14.6.5-28.1-10.4-39-19q-.9-.7-1.8-1.4-2.6-2.1-5.1-4.2-1.5-1.3-3.1-2.6c-2-2.8-2-2.8-2-6.7 3.4-16.9 20.9-31.2 34.4-40.5 6.7-4.3 12.2-6.6 19.9-8zm241-96.6q2.6 1.1 5.3 2.2 1.1.5 2.3 1c4 1.6 7.1 1.9 11.3 2 13.2 1 26.6 4.8 35.7 14.9 4.2 5.3 5.3 9 5.1 15.9l-1 2c-1.8-.2-1.8-.2-4-1-1.5-2.1-1.5-2.1-2.9-4.8-2.6-4.5-4.6-7.4-9.1-10.2-3.7-.6-3.7-.6-7 0-2.3 1.9-2.3 1.9-2.3 4.8.4 3.8 1.4 5.2 3.7 8.2 4.4 6.4 4.7 12.4 4.6 20q-2.4 1.3-4.9 2.5-1.3.7-2.7 1.4C837 978 837 978 835 978l-.2-1.8c-1.5-9.4-5.8-21.3-13.8-27.2-3.6-.6-5.7-.7-8.9 1.1-1.7 3-1.9 5.6-1.1 8.9q1.4 2.7 3 5.2c3.4 5.8 3.5 10.3 3 16.8-8.1.2-15.8-.3-23.7-1.9q-1.6-.3-3.3-.6c-14.8-3.2-28.5-9.6-42-16.5 1.5-13.2 9.3-27.8 19.6-36.3 13.6-10.6 21.4-14.5 37.7-7.7z" fill="#fce7b8"/><path d="M497 364.1c14.4 6.4 25.9 33.3 33.6 46.4q1.4 2.5 2.9 5 2.1 3.6 4.2 7.2.6 1.1 1.3 2.2c2.7 4.8 3.6 8.6 4 14.1q-.9.5-1.8.9c-16.7 9-32.8 17.8-47.2 30.1q-2.2 1.8-4.4 3.6-.9.8-1.8 1.5c-2.3 1.2-3.4.6-5.8-.1-.6-33.5 1.5-66.7 8-99.6q.2-1.2.5-2.5c1.9-9 1.9-9 6.5-8.8zm288.3 10.3c3 .7 3.8 1.2 5.7 3.6 1.8 7.8-1.1 16-3.1 23.5-1.2 4.7-2.2 9.2-2.8 14.1-2.5 19.8-8 46.7-19.1 63.4-2.2.5-2.2.5-5 0-2.3-1.9-4.2-3.6-6.3-5.8q-.8-.8-1.7-1.8-2.8-2.8-5.6-5.6-1.8-2-3.7-3.9-4.2-4.2-8.3-8.5-1.9-1.8-3.8-3.6c-1.6-1.8-1.6-1.8-2.1-4.6.6-4.2 2.2-7.3 4.3-11l1.2-2.2c7.7-13.9 17.4-26.2 28-38q.7-.8 1.5-1.7c14.9-16.8 14.9-16.8 20.8-17.9z" fill="#01243c"/><path d="M613 695.4c14.9 4.9 31.6 14.8 41 27.6 1.2 3.8.8 7.3-.9 10.9-5.6 7.5-16.7 12.1-25.7 13.5-9.8.4-16.7-3.7-23.9-10.1-6.4-6.9-10.9-15.2-15.5-23.3-.5-1-.5-1-1.1-1.9-5.1-9.1-5.1-9.1-4.4-12.2 7.2-9.2 20.4-7 30.5-4.5z" fill="#eb7d00"/><path d="M107 714c9 2.8 17.6 6.5 26.3 10.1q3.4 1.4 6.9 2.8 2.1.9 4.3 1.8 2.7 1.2 5.5 2.3 1.4.6 2.8 1.2c2.7 1 5.3 1.4 8.2 1.8-1.6 10.8-5 25-13 33q-1.5 0-3 0 .2-1.5.5-3c.6-4.1.7-7.9.5-12-1.8-2.2-1.8-2.2-4.3-2.4-2.9.4-4.5 1.3-6.5 3.4-2.2 3.7-3.1 7.8-4.1 11.8-1.2 3.5-2.5 5.6-5.1 8.2-5.1-.1-9.3-1.2-14-3 .6-3.6 2-5.6 4.3-8.3 5.7-6.7 5.7-6.7 7.7-14.9-1.2-3.3-1.9-4.3-5-5.8-3-.8-3-.8-6 0-3 3-5 5.9-7.1 9.6-1.7 3.1-3.4 5-5.9 7.4q-.5 1-1 2c-4.2-1.5-5.8-4.2-8-8-1.4-4.1-1.5-7.7-1-12 1.9-3.8 4.4-6.4 7.4-9.2 4.9-4.7 7.5-10.5 9.6-16.8z" fill="#fbe7b9"/><path d="M564.4 535.8c11-.6 21.9 3.6 30.6 10.2 2.3 2.1 4.2 4.4 6 7l1.5 2.1c3.5 5.5 4.7 10.4 3.5 16.9-1.6 3.1-1.6 3.1-4 5-3.4.8-3.4.8-7 0-4.6-3.6-7.1-8.9-9.8-14-2-3.3-4.7-5.3-8.2-7-10.8-1.1-21.9 2.3-30.5 8.9q-1.6 1.4-3.2 2.8c-2.6 2.3-4 3.3-7.5 3.7-2.8-.4-2.8-.4-5.2-1.9-2.3-3.5-2.3-6.5-1.6-10.5 2.9-8.2 7.9-13.9 15.7-17.7 6.5-3.2 12.5-4.8 19.7-5.5z" fill="#03233d"/><path d="M920.1 1049.3c6.8 1.2 10.3 6 14.2 11.5 11.4 17 16.8 35.4 16.9 55.8q.1 1.3.1 2.7c-.1 7.5-.4 15.9-4.9 22.3q-.6.9-1.3 1.9c-1.1 1.5-1.1 1.5-2.1 2.5-2.9.3-2.9.3-6 0-2.3-2.3-3-3.7-3.4-6.9q0-1.6 0-3.3 0-1.8-.1-3.6 0-2 0-3.9c-.5-23.4-5.5-46-17.3-66.4-1.5-3.5-1.6-6.1-1.2-9.9 2-2 2-2 5.1-2.7z" fill="#022237"/><path d="M596 491c6.7 5.1 13.2 10.2 14.6 18.8-.2 5.3-3.3 9.3-6.6 13.2-2.9 1.4-4.8 1.3-8 1-2.5-1.1-4.8-2.1-7.1-3.4-5.5-3-9.7-4.7-15.9-4.8q-1.5-.1-2.9-.1-3-.1-6-.1c-9.3-.3-9.3-.3-13.1-3.6-2.5-3.8-2.5-5.5-2-10 3.4-6.9 9.4-11.3 16.6-13.9 10-2.6 21.4-2.7 30.4 2.9z" fill="#fee8b9"/><path d="M731.7 548.7c5.7 3.8 11.1 7.6 13.3 14.3.6 3.8.8 7.2 0 11-2.2 2.7-2.2 2.7-5 4-3.4-.2-4.7-.6-7-3.2q-1-1.3-1.9-2.7c-3-4.1-5.3-6.3-10.1-8.1-6.1-.7-13.3-1.3-19 1.4-3.5 3.1-6 6.4-8.5 10.4-1.5 2.2-1.5 2.2-3.5 4.2-3.7.4-6.1.5-9.4-1.3-2.6-4.4-2.4-8.7-1.6-13.7 2.9-8.5 9.4-14.3 17.2-18.4 11-5.2 25.4-4.2 35.5 2.1z" fill="#03233d"/><path d="M723.7 498.7c6.6 3.6 10.8 8.1 13.3 15.3.6 3.2.6 3.2 0 6-2.6 3.2-4 4.8-8.1 5.6q-1.7-.1-3.5-.1-1.8-.1-3.8-.1-1.9-.1-3.9-.1-3.9-.1-7.8-.2-1.8-.1-3.6-.1c-3.9 0-7.5.4-11.3 1-8.5.9-8.5.9-11.7-1.1-2.6-2.7-3.3-5.1-4-8.7.4-5.4 3.1-9.4 6.7-13.2 11.1-8.2 24.9-9.8 37.7-4.3z" fill="#fee8b8"/><path d="M630 1193l6.3 3.4q.9.6 1.8 1.1 5 2.9 9.9 6c13.8 8.4 28 14.9 43.7 18.8 3 .8 5 1.4 7.3 3.7 1 2 1 2 .9 4.6-1.2 3.1-1.9 4-4.9 5.4-6.3.6-12-.4-18.1-2.1q-1.2-.3-2.4-.6c-8.2-2.3-15.9-5.6-23.5-9.3q-1.7-.8-3.5-1.7c-9.6-5-21.9-11.5-27.5-21.3-.6-3.2-.6-3.2 0-6 3.1-3.7 5.6-3.1 10-2z" fill="#032439"/><path d="M654.3 1155.2c3.3 1 4.9 2.4 7.3 4.8 5.3 4.9 10.8 9.5 16.4 14q1.4 1.1 2.8 2.2c6.3 5 12.8 9 19.9 12.7 3.5 1.9 6.3 3.5 8.3 7.1-.2 3.4-.6 4.6-3 7-6.5 1.1-11.6-.6-17.3-3.5q-1.1-.5-2.2-1.1c-14-7-31.7-18-37.5-33.4-.6-6-.6-6 1.2-9 1.8-1 1.8-1 4.1-.8z" fill="#032237"/></svg>