<svg xmlns="http://www.w3.org/2000/svg" width="1024" height="1024" fill-rule="evenodd" xmlns:v="https://vecta.io/nano"><path d="M790.5 218.5q14.3 3.7 31 5.5 23.4 3 47 4 4.8 1.3 9 3.5 6.1 4.3 6 12-1.1-.6-1.5-2-1.2 43.3.5 86-5.1 114-41.5 222Q774.5 729.3 617.5 839q-47.3 32.4-99 58-5.4 2.1-11 1Q169.6 730.8 142 352.5q-3.3-56-2-112 2.6-10.1 12.5-13.5 143.7-6.1 269-76 42.7-25.3 80-58 9.6-8.3 20-1 116.5 100.2 269 126.5z" fill="#01216c"/><path d="M523.5 128.5q1.5-.3 2 1-.7-.1-1 .5 99.6 77.9 223.5 106.5 1.6 0 2.5-1 12.8 2.3 25 6 18.7 5 40 7.5 13 1.4 26 2.5 3.8 0 7-1 5.3-.5 10 1-4-.2-8 .5 3.5.7 7 .5 3.5 124.3-28 244.5.1 1.1 1 1.5.3 1.5-1 2 .1-.7-.5-1-8.7 28.9-19.5 57 .2.9 1 1 .3 1.5-1 2 .1-.7-.5-1-11.2 24.9-21.5 50 0 .5 0 1-1.5-.1-2.5 1-21.9 42.9-51 81-1 1.4.5 2-61.5 77.5-143 133-1.8-1.4-4 .5-32.5 22.3-68 40-1.1 1-1 2.5-.5 0-1 0-.9-.2-1.5-1-2.9 2.5-6.5 1.5Q373.2 802.2 281 680.5q-58.1-83.7-87.5-180-3.9-9.6-6-20 1.7-2.7.5-6-10.2-40.4-16-82-.7.9-.5 2-1.6-6.2-2-13 1-2.2 1-5-2.2-19.5-3.5-39-.7 4.5-.5 9-1.5-5.2-1-11 .4-41.2 0-83 167.6-7.8 306-101.5 4.2-2.6 7-6.5 16.5-10.3 31-23.5 2-1 4 0 4.3 4.9 10 7.5z" fill="#b9f6ed"/><path d="M523.5 128.5q-5.7-2.6-10-7.5-2-1-4 0-14.5 13.2-31 23.5 15.4-12.7 31-25.5 2.7-.8 5 1 4.6 4.3 9 8.5z" fill="#ddf3f5"/><path d="M478.5 144.5q-2.8 3.9-7 6.5-138.4 93.7-306 101.5.4 41.8 0 83 .5-6.3-1-12 0-10.5 0-21 0-25.5 0-51 4.3.5 8-1 13.5-.6 27-2 153.5-16 279-104zm47-15q100.4 77.5 225 106-.9 1-2.5 1Q624.1 207.9 524.5 130q.3-.6 1-.5z" fill="#d8f0f3"/><path d="M790.5 218.5q39.3 5.6 79 8.5 5.2.3 8 4.5-4.2-2.2-9-3.5-23.6-1-47-4-16.7-1.8-31-5.5z" fill="#030e52"/><path d="m775.5 241.5q36.3 6.3 73 9-3.2 1-7 1-13-1.1-26-2.5-21.3-2.5-40-7.5z" fill="#dcf4f5"/><path d="M615.5 297.5q-37.1-45.3-96-48.5-12.5-.7-25-.5 50.8-6.5 97 23.5 7.2 6 14 12.5 6.2 5.7 10 13z" fill="#cfeaef"/><path d="M494.5 248.5q12.5-.2 25 .5 58.9 3.2 96 48.5 15 22 22 48-1 .9-1 2.5 1.8 8.7 2.5 17.5.8 29 .5 58 5.8.5 11-1 1.5 0 3 0 20.9 2.9 36 18 8.2 11.7 10 26-1.2 78.7-1.5 158-3.1 19.6-12.5 37-18.4 29.2-52 38-118.2 1-236 2-45.3-9.1-66-50-4.2-11.7-6.5-24-.3-81.8-1.5-163 1.1-7.3 4-14 2.9-4.2 5-9 20.3-21.3 50-19 0-29.5 0-59 1.4-2.1 1-5 6.9-48.4 43-81 5.8-3.6 11-8 24.6-14.7 53-20 2.4.4 4-1z" fill="#00226d"/><path d="M199.5 248.5q-13.5 1.4-27 2-4.5 0-9 0-.5 26.3 1 52 0 10.5 0 21 .2 6-.5 12-2-43-1.5-86 15.5-.6 31-2 3.3 0 6 1z" fill="#000c4b"/><path d="m172.5 250.5q-3.7 1.5-8 1 0 25.5 0 51-1.5-25.7-1-52 4.5 0 9 0z" fill="#86c0d2"/><path d="M490.5 249.5q-28.4 5.3-53 20-.7.1-1-.5 22.2-14.1 48-20 3.3-1.2 6 .5z" fill="#d7f0f3"/><path d="M525.5 275.5q1.9-.4 3 1 18.2 5.1 37 14.5 7.8 6.1 16 11.5 33 29.8 33 75-1.5 21.2-1 43-102 0-204 0 0-18 0-36 .7-88.7 87-107.5 14.8-.3 29-1.5z" fill="#b9f6ed"/><path d="M883.5 243.5q.4 42-1 84-1.7-42.7-.5-86 .4 1.4 1.5 2z" fill="#0c145e"/><path d="m528.5 276.5q31.2 3.9 53 26-8.2-5.4-16-11.5-18.8-9.4-37-14.5z" fill="#d8f0f3"/><path d="M525.5 275.5q-14.2 1.2-29 1.5-86.3 18.8-87 107.5-.5 0-1 0 0-2 0-4-.1-13.1 2-26 18.3-67 87-79.5 14-1 28 .5z" fill="#d9f2f4"/><path d="M858.5 322.5q0-6.5 0-13 1.2-29.2 1.5-59 1.3 40.5-1 81-.7-4.5-.5-9z" fill="#00044c"/><path d="M426.5 277.5q-36.1 32.6-43 81 1.6-31.3 20.5-57 .7-3.5.5-7 6.8 2.4 4-4.5 2.5-.5 5-1 5.9-6.7 13-11.5z" fill="#d1eef1"/><path d="M615.5 297.5q19.7 23.8 25 55 0 1.8-1 3-.7-5.1-2-10-7-26-22-48z" fill="#d7f0f3"/><path d="M169.5 381.5q-2.1-17.4-3-35-.2-4.5.5-9 1.3 19.5 3.5 39 0 2.8-1 5z" fill="#e0f8f8"/><path d="M858.5 251.5q0 29 0 58 0 6.5 0 13-3.9 89.5-28 176-.9-.4-1-1.5 31.5-120.2 28-244.5-3.5.2-7-.5 4-.7 8-.5z" fill="#dbf3f5"/><path d="M637.5 345.5q1.3 4.9 2 10-.4 2.4 1 4 0 3 0 6 0 28.5 0 57 3.5 0 7 0 1.5 0 3 0-5.2 1.5-11 1 .3-29-.5-58-.7-8.8-2.5-17.5 0-1.6 1-2.5z" fill="#000546"/><path d="M410.5 354.5q-2.1 12.9-2 26-1.2 20.7-1.5 42-1.2-30 1-60 .1-4.5 2.5-8z" fill="#000350"/><path d="M653.5 422.5q-1.5 0-3 0-1.5 0-3 0-2.6-1.4-6-1 .5-28.3-1-56 0-3 0-6-.2-1.6.5-3 .5 3 1 6 .8 29 .5 58 7.6-.2 15 1.5-1.9.7-4 .5z" fill="#effdfd"/><path d="M640.5 365.5q1.5 27.7 1 56 3.4-.4 6 1-3.5 0-7 0 0-28.5 0-57z" fill="#589bb7"/><path d="M382.5 363.5q0 29.5 0 59-29.7-2.3-50 19 11.4-15.7 31-19.5 8.4-1.5 17-1.5-.6-30.5 1.5-61 .7 1.9.5 4z" fill="#cbeaef"/><path d="M187.5 480.5q-11.5-42.3-16-86-.2-1.1.5-2 5.8 41.6 16 82 1.2 3.3-.5 6z" fill="#d3eef2"/><path d="M614.5 377.5q0 22 0 44-103 0-206 0 0-18.5 0-37 .5 0 1 0 0 18 0 36 102 0 204 0-.5-21.8 1-43z" fill="#f5fefd"/><path d="M652.5 447.5q-143-.5-286 1-.7.1-1-.5 1-.5 2-1 143.6-1.2 285 .5z" fill="#000049"/><path d="M652.5 447.5q4.4 2 9 4 8.2 4.2 11 13 .1.7-.5 1-5.3-13.3-19.5-15.5-142-1-284 0-12.9 3.1-17.5 15.5-.7-.9-.5-2 .6-2.7 2-5 5.7-6.7 14-10 143-1.5 286-1z" fill="#56b7f2"/><path d="M672.5 464.5q1.4 1.6 1 4 .3 79-.5 158-10.9 40.1-51.5 49-1.9-1-4.5-1-103 1-205.5 2-3.5 0-7 0-35.4-7.7-52-40-1.4-4.4-2.5-9-1.2-82.3.5-164-.2 1.1.5 2 4.6-12.4 17.5-15.5 142-1 284 0 14.2 2.2 19.5 15.5.6-.3.5-1z" fill="#4da6ef"/><path d="M829.5 500.5q-7.4 29.2-19 57-.8-.1-1-1 10.8-28.1 19.5-57 .6.3.5 1z" fill="#d7f0f3"/><path d="M809.5 559.5q-9 25.5-22 49 10.3-25.1 21.5-50 .6.3.5 1z" fill="#d1ebf0"/><path d="M787.5 609.5q-22.9 44.4-53 84-1.5-.6-.5-2 29.1-38.1 51-81 1-1.1 2.5-1z" fill="#d3edf1"/><path d="M689.5 440.5q9.3 10 11.5 24 1 81.5 0 163-13.4 60.4-73.5 75.5-116 1-232 0-57.5-14.5-73.5-71.5-1-84.5 0-169 1.2-5.1 3-10 .6-1.9 2.5-2-2.9 6.7-4 14-.3 83 .5 166 2.2 11.2 7.5 21 20.7 40.9 66 50 113 1.7 226 .5 5.3-.8 10-2.5 33.6-8.8 52-38 10.4-15.4 13.5-34 .8-80.5.5-161-1.8-14.3-10-26z" fill="#c7e6eb"/><path d="M633.5 699.5q-4.7 1.7-10 2.5-113 1.2-226-.5 117.8-1 236-2z" fill="#000f5a"/><path d="M404.5 676.5q3.5 0 7 0 102.5 0 205 0 2.5-.2 5 .5-4 .5-8 1-102 1-204 0-3.5-.5-7-1 .9-.7 2-.5z" fill="#02165d"/><path d="M621.5 675.5q-2.9-.4-5 1-102.5 0-205 0 102.5-1 205.5-2 2.6 0 4.5 1z" fill="#5ec4fe"/><path d="M489.5 595.5q-2.2 12.9-1.5 26 .7 2.6 2 5 4.1 3.4 8.5 6-8.1-1.4-11.5-9-1.4-15.7 2-31 .7 1.4.5 3z" fill="#5dc3f9"/><path d="M323.5 464.5q1.2 81.2 1.5 163 2.3 12.3 6.5 24-5.3-9.8-7.5-21-.8-83-.5-166z" fill="#000342"/><path d="M699.5 466.5q.3 80.5-.5 161-3.1 18.6-13.5 34 9.4-17.4 12.5-37 .3-79.3 1.5-158z" fill="#ff043e"/><path d="M352.5 458.5q-1.4 2.3-2 5-1.7 81.7-.5 164 1.1 4.6 2.5 9 .1.7-.5 1-3.2-6.1-4-13-1-79 0-158 .7-4.3 3-8 1-1.9 1.5 0z" fill="#092064"/><path d="M498.5 632.5q-4.4-2.6-8.5-6-1.3-2.4-2-5-.7-13.1 1.5-26 1.7-7.6 3-15.5-38.2-26-16.5-66.5 23.5-27.9 56.5-12.5 29.6 19.3 19.5 53.5-6.6 16.2-21.5 25 3 14.4 4.5 29 5.3 23.2-18.5 25.5-9.1.7-18-1.5z" fill="#00216c"/><path d="M661.5 451.5q1.8-1.4 4 .5 7.2 5.6 9.5 14.5 1 78 0 156-.3-77.3-1.5-154 .4-2.4-1-4-2.8-8.8-11-13z" fill="#00074a"/><path d="M517.5 869.5q-2.3 2-5.5 3-142.5-70-237-198-54.8-80.2-81.5-174 29.4 96.3 87.5 180Q373.2 802.2 509.5 870q3.6 1 6.5-1.5.6.8 1.5 1z" fill="#d4eef2"/><path d="M591.5 826.5q-35.3 23.4-73 43-.1-1.5 1-2.5 35.5-17.7 68-40 2.2-1.9 4-.5z" fill="#d8eff3"/></svg>