<svg xmlns="http://www.w3.org/2000/svg" width="1024" height="1024" fill-rule="evenodd" xmlns:v="https://vecta.io/nano"><path d="M462.5 157.5q.8.1 1 1-14.9 31-29.5 62-1 1.9-1.5 0 14.6-31.8 30-63z" fill="#d24f07"/><path d="m526.5 107.5q12.7 5 19.5 17 44.1 94.7 89 189 4.7 10.9 8.5 22-49.8-105.8-101.5-215-7.4-8.3-15.5-13z" fill="#d3510b"/><path d="M431.5 222.5q.8.1 1 1-7.7 18-17 33 7.2-17.4 16-34z" fill="#d35007"/><path d="M411.5 264.5q.8.1 1 1-17.6 36.1-33.5 73-6 5.7-13.5 3 6-.6 11.5-3 16.1-37.7 34.5-74z" fill="#d24f07"/><path d="M867.5 371.5q32.6.3 42 31-10.7-28.7-45-30.5 1.4-.7 3-.5z" fill="#d14a05"/><path d="M129.5 446.5q.6-1.5 2-.5 48 46.5 97 92 7.4 6.6 13 14.5-56.5-52.5-112-106z" fill="#d35009"/><path d="M243.5 554.5q.6-1.5 2-.5 21.3 20.8 43.5 40.5 1 1.4-.5 2-22.5-21-45-42z" fill="#d24d06"/><path d="M526.5 107.5q8.1 4.7 15.5 13 51.7 109.2 101.5 215 2.5 5.7 9 5.5 107.8 14.7 215 30.5-1.6-.2-3 .5 34.3 1.8 45 30.5 5.2 20-8.5 36-83.6 79.6-167 159 18.4 113.6 39 227 2.6 47.4-44.5 48.5-9.6-1.8-18-7-28.6-15.8-57-31.5 1.1.2 2-.5-28.4-14.9-56-31-1.9-1.1-3 .5-32.4-17.5-64-36 1.9-.5 0-1.5-10.7-6-21.5-11.5-8.6 3.7-16.5 8.5-1.9 1 0 1.5-1.2 1.4-3 2-.1-.8-1-1-20.5 11.2-41 22.5-1.9 1 0 1.5-24.9 14-50 28-1.1-1.6-3-.5-27.3 15.9-55 31-1.9 1 0 1.5-20.5 12.8-43 22.5-13.6 3.6-26-2.5 1.9-.5 0-1.5-26.4-15.1-20.5-45.5.5-4.6 2-9 .5 2.5 1 5 .6-1.4 1.5-2.5-.8-2.8-2-6.5 1.6-5.2 0-10 17.2-100 35-200-.3-1.6-1-3 1.5-.6.5-2-22.2-19.7-43.5-40.5-1.4-1-2 .5-1.5-.5-2-2-5.6-7.9-13-14.5-49-45.5-97-92-1.4-1-2 .5-20.7-15.9-17.5-42 7.9-27.9 36.5-32.5 108.5-15.3 217-30.5 7.5 2.7 13.5-3 15.9-36.9 33.5-73-.2-.9-1-1 1.2-4.5 4-8 9.3-15 17-33-.2-.9-1-1-.3-1.5 1-2 .5 1.9 1.5 0 14.6-31 29.5-62-.2-.9-1-1 7.9-18.8 17.5-37 19.1-22.3 46.5-13z" fill="#d96900"/><path d="M596.5 803.5q1.1-1.6 3-.5 27.6 16.1 56 31-.9.7-2 .5-28.7-15.1-57-31z" fill="#d25009"/><path d="M607.5 776.5q.1-.8 1-1 42 22.5 84 45 6.2 4 13 7.5 1.9 1 0 1.5-49-26.5-98-53z" fill="#fcdf15"/><path d="M736.5 787.5q5.6 24.2 7 49-4.1 9.3-14 6.5-10.5-5.8-21-11.5.1-.8 1-1 10.2 4.9 20 10.5 12.3 3.7 13-9-3-21.1-7-42 0-1.6 1-2.5z" fill="#fcdc11"/><path d="M491.5 766.5q-21 11.5-42 23-1.9-.5 0-1.5 20.5-11.3 41-22.5.9.2 1 1z" fill="#d35008"/><path d="M553.5 746.5q.1-.8 1-1 25.2 13.4 50 27.5 1.9 1 0 1.5-25.7-13.6-51-28z" fill="#fce117"/><path d="M532.5 767.5q-10.9-5.3-21.5-11-8.3 3.8-16.5 8-1.9-.5 0-1.5 7.9-4.8 16.5-8.5 10.8 5.5 21.5 11.5 1.9 1 0 1.5z" fill="#d24f07"/><path d="M500.5 728.5q-100.9 58.3-205 115-.9-.2-1-1 103-57 206-114z" fill="#d25303"/><path d="M537.5 735.5q6.4 3.7 13 7.5 1.9 1 0 1.5-15.5-8.3-31-16.5-7.9-2-16-1.5 1.8-2.3 6.5-2 4.3.2 8.5 1.5 9.7 4.4 19 9.5z" fill="#fcdf18"/><path d="M503.5 726.5q8.1-.5 16 1.5 15.5 8.2 31 16.5 1.2 1.4 3 2 25.3 14.4 51 28 1.2 1.4 3 2 49 26.5 98 53 1.2 1.4 3 2 10.5 5.7 21 11.5 9.9 2.8 14-6.5 1.6 1.1.5 3-4.8 7.6-13.5 5.5-106.8-57.6-213-116-7.8-.3-15-1.5 1 0 1-1z" fill="#d45605"/><path d="M313.5 632.5q1 1.2 1 3-4.8 24.4-8 49 2.5-.2 5 .5.6 1.4 1 2.5 1-1 2-2 2.4 1 5 1.5-8.5 1.1-2.5 5.5 1.1-2.5 3.5-1.5-1.2.5-2 1.5.5 1.8 1.5 0 .5 2.4 2.5 4-1.4 3.1-2.5 6 1.7-1.4 3 1-.1 1.9.5 3 2.2-3.3 3.5-7 2.5 1.2.5 3 .8 1 2 1.5-3.3 2.5-2 6-2 .5-4 1 6.3.3 12 2.5.4 2.8.5 6 2-.9 3.5-1-2.4-2.1-1.5-5 2.5 1.7 4.5-1 1.9 2.8 2.5 6 2.4-1.7 5.5-2.5-1.4-1.7 1-3 2-1 4 0-1.4 1.1-.5 2.5 2.5 2.8 5.5 5-.5 1.8-1.5 0-1.8 2.3-1 5 3.1-.9 2.5-3 1.8.6 3 2-3.4 2.8-3.5 7 2.6 2.1 4-1 1.4 1.2 2 3 .5-.5 1-1 2.1 2.7 4.5 2-.8 2.7-2.5 1-.6 2.1-1.5 4 3.3 3.3 6 0 2.2 3.7 3.5-1 2.5 1 5 2 .9 2.7-1 1-2.3 2.8-5.5 4.5 4.2 3 8.5 3.5 3-2.5 6-5-.5-2.5-1-5 2.3 4.1 3.5-.5 2.9-1.2 4.5 1.5.5-1.2 1.5-2 1.4 3.3 1 7.5-2 4-5 5 4.1.5 8-1-2-2.8.5-1.5 4.4-3.8 7 2 1.5-3.6 2 1 .8-6.8 5.5-3 2.9-2.2 5 1-1.7 1.8-3.5 0-1.6 1-3.5 1.5 1.6 1.9 0 4 .2 2.6 1.5.5.3-2.2 1.5-4 2.1 2.6 4.5 2 0 3.6-2 7-3.7 1-1 3 1.5-.5 3-1-1.4 3.5 2.5 5-65.2 37.8-132 73.5-7.5 2.2-12.5-3.5-.6.3-.5 1-1.7-7.7-.5-16 16.9-95 33.5-190z" fill="#fecf16"/><path d="M222.5 494.5q34.5 33 69 66-35.9-31.4-70-65 .2-.9 1-1z" fill="#d35306"/><path d="M143.5 417.5q84.6 79.6 168 160-10-8.5-20-17-34.5-33-69-66-.7-2.1-3-2-8.2-8.9-17-17.5-10.3-9.6-21-18.5-18-19.2-37.5-37-.7-.9-.5-2z" fill="#fce31c"/><path d="M829.5 466.5q-7.5 7-15 14 5.1-7.5 13-14.5 1.4-1 2 .5z" fill="#fde20c"/><path d="m181.5 456.5q10.7 8.9 21 18.5 8.8 8.6 17 17.5-17.4-15.7-35-31.5-2.5-1.7-3-4.5z" fill="#d25105"/><path d="m858.5 399.5q8.9-1.5 18 1.5 9.8 4.2 6.5 14.5-2 3-4 6-83.5 79.5-167 159-6.6 11.3-7.5 24-1.8-13.1 5.5-24 52.1-50.3 104.5-100 7.5-7 15-14 26.4-24.2 51.5-50 4-8.2-3.5-13.5-9.4-2.4-19-3.5z" fill="#d04e03"/><path d="M158.5 400.5q-7.4.3-14 3.5-2.5 1.7-3 4.5-2.4 5.2 2 9-.2 1.1.5 2 19.5 17.8 37.5 37-10.2-8.4-20-17.5-11.2-10.7-21.5-22.5-3.4-13.4 10.5-16.5 4.3-1.2 8 .5z" fill="#d25105"/><path d="M176.5 398.5q1.6-.2 3 .5-15.5 2.4-31 5-5.3 1.2-6.5 6.5-.7-.9-.5-2 .5-2.8 3-4.5 6.6-3.2 14-3.5 8.9-1.6 18-2z" fill="#fcde18"/><path d="M332.5 376.5q1.6-.2 3 .5-18.4 3.1-37 5.5-1.8 0-3-1 18.4-3.4 37-5z" fill="#fbdd17"/><path d="M377.5 369.5q1.1 1.4 3 1 4.3 1.9 6 5 1.6-3.7 2.5 0 1.6-2.7 4.5-1.5-.5.5-1 1 1.2.5 2 1.5-1.2 1.8-2.5 0-1 2.6.5 5-.8 1.5-1.5 3-4.1.2-8.5-.5.5.5 1 1-2 2.6-3.5 5.5-.8-3.1 1.5-5.5-1.9-.7-4-.5.4 3.9 2 7.5-1.1 1.4-3 1.5-2.3-1.1-4-3-3.3 3.3-7 4.5 1.4 2.1 2.5 4.5 1.6-5.3 5-2 1-2 2 0 3.1-1.8-.5-2.5 1.3-.3 2.5-.5 2.7 1.3 5.5 2 0 3 0 6 4.5-.5 5-5 2.4.2 3.5-2 .9 2.1-.5 4 1.5-.3 3 1.5-2 1-4 2 2 3-1.5 4.5-1.4-1.6-2.5-3.5-1.9-.7-2.5 1.5-4.6-2.5-3-7-2.5 1.5-5 3-1.2-3.3-3.5 0 3.9 2.3-1 2 .2-1.6-.5-3-1.8 2.7-4.5 4.5 1.5.5 3 1-1.3 2.5 1.5.5.8 1.8-1 3-1.5-.7-3.5-.5 1.7-1.4-.5-2.5-1.1.9-2.5 1.5 1.8 1.3 0 2.5-2-3.7-3 1 2.4 1.2 5 1.5-1.6 2.4-4 3.5 3.2 4.3 6 9-.8 1-2 1.5 4.9 1.3 1 4 2 1 4 2-6.3 3.7 1 5-1.5.5-3 1 1.8.6 3 2-3.4 2.4-4.5 6.5-1.8-1.6-1.5-4-2.4-.2-3.5 2-.5-.5-1-1-1 1.7-2.5 3 1.8-.3 4 1.5-7.6 2.5-4 9-2 1.5-4 3 .5.5 1 1-1.8 1.4-2.5 3.5-.5-1-1-2-1.7 5.1-5 1-4.4 3 .5 6 3.5-3.3 6.5 1 1.1-3.2 4.5-4-.7 2.2 2 3.5-1.5 3.1-2.5 6.5-1.5-3.4-2.5 1 1.1.6 3 .5-2.3 1.4-4 3.5 3 1.3 5-2 .5.5 1 1-3.6 2.7-.5 6 3.2-2 1.5 1 .8 1 2 1.5-1.7.4-3 1.5 1.4 3.4-3 3.5 2.7.3 4 2.5-1.8 1.8 0 3.5-1 .5-2 1 7.3 1.3 1 5 1.4 1.3 0 3 .3.8.5 1.5 1.1-1.6 3-2 1.6 1.3 1.5 3 1.1-1.3 1.5-3 .8.8 1.5 1.5-2.5 2.9-2 6 1.5.5 3 1-3.8 3.2-6.5 7.5.7 2.5-.5 5 2.1.1 4.5 0 1.3 1.3 2.5 2.5-1.8.7-2.5 2.5-.5-.5-1-1-1.1 1.7.5 3 3.7-3.6 8-.5 1.7 2.3 3 4-1.6 2.4-4 3.5-3.2-1.6-3-4-1.5.8-3 1.5 4.3 3.1 8 7-.7.6-1 1.5 2.1 2.4 3 5.5-.3 2.8 0 5.5-.8 1-2 1.5 2.6 2.8 3.5-.5.5 1 1 2 .4-1.7 1.5-3 .6 1.1.5 3 1.6-1.2 3.5.5-2 .5-4 1 3.1.8.5 1.5-1.4-.6-2-2-.6 5.5-2.5.5-2 .2-3.5-.5-1 2.5 0 5 2.6-5.2 5.5-.5-3.7 1.4.5 2.5.8-.3 1.5-.5-1.5-1.6-.5-3.5 1.8 3.7 5.5 5.5-.9 1.1-1.5 2.5-3.4-2.1-6.5.5 1.6 1.4 3.5 2.5 4.3-4.4 7 1-.7-5.6 4-1 1-1.8 1.5 0-10.9.9-3.5 8 3.9.5 7.5-1.5-1.1 2.3-3 4 1.8 1.2 3 2-2.1.1-3 3.5-.7-1.7-1-3-.9.3-1.5 1-3.2-3.3-6.5-.5 1.9 5.5 5.5 1.5 3.4 4.7 5.5 10-.8 1-2 1.5 2 .5 4 1-2.7.6-4 3 2 2.5 4 5-2.8 1.7-2 4 1.8 3 3-.5-1.7-2.2 1.5-3 3.8 4.2 7 9 .5-1 1-2 1.5.7 3.5.5-4.6 3-10 4.5-1.5-.7-2.5-2-1 1 0 2 3 2 6 0 5.7 3.7 10.5 8.5-1.5.5-3 1-1.8 1 0 1.5 2.5-2.1 4 1-.3-2.2 2.5-4 3 3.4 4-2 1.8 2.3 4.5 3.5-2 1 0 2-3.6 1.6 1 1.5 1-5.4 2.5 1 1.6-1.2 3.5.5-2.2.3-4 1.5 1.5 1.3 0 2-1.7-1.5-3.5-3-2.6.7.5 1.5-2 .5-4 1 .2 1.7 1 3.5-1 1-2 2 4.6 5.6 10 10.5-3.6.7-.5 2.5 6.5-2.1.5-5 1.7-1.4 0-2.5.8-.3 1.5-.5 2.6 1.8 3 5 .7-3.6 2.5-.5-1 1.5-2 3 2.4.7 4 2.5 2.4-3.7 4.5 0 .7 2.4 2.5 4-1.7-.1-3 1.5 2.2 3.5-.5 6.5-.8-3.1-1.5-.5 2.3 1.8 3.5 4.5 1.6-4.3 2-8 2.5 2 .5 4.5 1.9.5 3.5 1.5.7-1.9-1.5-2.5.8-.8 1.5-1.5 5.8 5.4 1.5 10.5.2 5.6 5 1.5-3.5-1.7-.5-4 .5 1 1 2 1-2 2 0 .5 4.6 2 1 .8 4.3 3.5 7.5-3.1.8-.5 1.5 1.8-1.2 3-3 2.5 4 5 0 .7 1.4.5 3 2.6.2 5-1 .4 2.8.5 6 1.3 4.5 4.5 1.5-2.5-1.1-1.5-3.5 1.5 1.7 2-1 1.5 1 3 2 1.8-1.8 3.5 0-6.1 6.5 2 2-.5-1-1-2 1.9-1.3 3.5-3 1.5 1.7 2-1 .8 3.3 3 6 2.2-1.9 4.5 0-.3 3.2 2.5 6 .5-1 1-2 1.3 4.4 3 1 .2 3.3 2.5 5.5-1 1-2 2 2.1.7 3.5 2.5.5-1 1-2 1.7 2.6 4.5 1.5-3.9-3.2 0-2.5 1.8-4.5 4-1-.7 1.5-2 2.5 1.4.9 2.5-.5 1.1 2.4-.5 4.5 2.9.7 3.5-2.5 1.2 7.1 6.5 3 .7 3.5 5 5.5-1.6 2.3.5 4.5.6-2.2 2.5-1.5-1.2 2-3 3.5.3.9 1 1.5-3.8 0-6 2.5-9.3-5.1-19-9.5-4.2-1.3-8.5-1.5-4.7-.3-6.5 2 0 1-1 1-.5 0-1 0-.1-.8-1-1-37.3 20.9-75 41-3.9-1.5-2.5-5-1.5.5-3 1-2.7-2 1-3 2-3.4 2-7-2.4.6-4.5-2-1.2 1.8-1.5 4-1.3 2.1-1.5-.5 1.6-2.1 0-4 1.9-.5 3.5-1.5 1.8 1.8 3.5 0-2.1-3.2-5-1-4.7-3.8-5.5 3-.5-4.6-2-1-2.6-5.8-7-2-2.5-1.3-.5 1.5-3.9 1.5-8 1 3-1 5-5 .4-4.2-1-7.5-1 .8-1.5 2-1.6-2.7-4.5-1.5-1.2 4.6-3.5.5.5 2.5 1 5-3 2.5-6 5-4.3-.5-8.5-3.5 3.2-1.7 5.5-4.5 1.9 1.7 1-1-2.5-1-5-2-1.3 4.7-3.5 1-2.7 3.3-6 0 .9-1.9 1.5-4 1.7 1.7 2.5-1-2.4.7-4.5-2-.5.5-1 1-.6-1.8-2-3-1.4 3.1-4 1 .1-4.2 3.5-7-1.2-1.4-3-2 .6 2.1-2.5 3-.8-2.7 1-5 1 1.8 1.5 0-3-2.2-5.5-5-.9-1.4.5-2.5-2-1-4 0-2.4 1.3-1 3-3.1.8-5.5 2.5-.6-3.2-2.5-6-2 2.7-4.5 1-.9 2.9 1.5 5-1.5.1-3.5 1-.1-3.2-.5-6-5.7-2.2-12-2.5 2-.5 4-1-1.3-3.5 2-6-1.2-.5-2-1.5 2-1.8-.5-3-1.3 3.7-3.5 7-.6-1.1-.5-3-1.3-2.4-3-1 1.1-2.9 2.5-6-2-1.6-2.5-4-1 1.8-1.5 0 .8-1 2-1.5-2.4-1-3.5 1.5-6-4.4 2.5-5.5-2.6-.5-5-1.5-1 1-2 2-.4-1.1-1-2.5-2.5-.7-5-.5 3.2-24.6 8-49 0-1.8-1-3 3.3-16.4 5-33 .1-12.2-7-22-83.4-80.4-168-160-4.4-3.8-2-9-.2 1.1.5 2 1.2-5.3 6.5-6.5 15.5-2.6 31-5-1.4-.7-3-.5 59.2-9.3 119-17 1.2 1 3 1 18.6-2.4 37-5.5-1.4-.7-3-.5 22.2-4 45-7z" fill="#feca0e"/><path d="M409.5 338.5q1.7 2.7.5 6-.5-.5-1-1-3.3 7.8-7.5 15-8.5 9.5-21 12-1.9.4-3-1 15.9-1.6 24.5-15 4.2-7.9 7.5-16z" fill="#fde112"/><path d="M606.5 327.5q5.4 10.5 9.5 22 6.3 15.6 22.5 20 1.4-.1 2-1 108.9 16.1 218 31 9.6 1.1 19 3.5 7.5 5.3 3.5 13.5-25.1 25.8-51.5 50-.6-1.5-2-.5-7.9 7-13 14.5-52.4 49.7-104.5 100-7.3 10.9-5.5 24 16 91.5 32 183-1 .9-1 2.5 4 20.9 7 42-.7 12.7-13 9-9.8-5.6-20-10.5-.9.2-1 1-1.8-.6-3-2 1.9-.5 0-1.5-6.8-3.5-13-7.5.5-1.9 1.5 0-.1-1.9.5-3 1.4 2.1 3 4.5 2.4 1.1 4.5 2.5 1.2-2.3 3.5-3.5-.9-3-3.5-5.5-.5 2.7-2 1 .7-2.5-.5-5 2.3-1.7 4 1 0-2.6 3-4.5-1.9-.5-3.5-1.5-.5.5-1 1-3.8-2.2-8-5-.4 2.4-1.5 4.5 1.7 1.5-1 2 3.7 1.4-.5 2.5-.8-.3-1.5-.5 1-2 2-4-1.9-1-3.5.5-.7-1.4-.5-3 1.6.2 3-.5-4.1-2.5-7.5-7.5-1.1 3.6-4.5 3.5 3.6-2 0-3 2.9-1.4 5-4-3-.7-4-3.5.9-2.8 1-5.5-.8-.8-1.5-1.5-1.2 2.7-3.5 4.5 5 .1 1.5 3.5-1-2-2 0-2.8-3.4.5-6-2-1.5 0-3-1.6-2-4-2.5 5.5.2 2.5-3.5-2.4 1.6-5 3-1.3-2.4-3-1-.1-2.4-.5-4-1.1 1.3-1.5 3-2.5-1.3-.5 1.5-3.2 2.5-6-1 2-1 0-2 5.5-1.4-1-2 3-1 6-2-2.3-.5-3.5-2.5-1.5 1.5-3 3-.5-1-1-2-.7 2.1-2.5 3.5 1 .5 2 1-3.7 4.6-7 0 7.1-1.6 1-5 1-.5 2-1-2-1-4-2 1.4-.6 2.5-1.5 1.2 3.8 3.5.5-3.2-3.3-7-6 3.4-2 .5-4.5-1.2 3.6-2.5-.5 1.5-.5 3-1-2.7-2.2-6-1-2.6.7-2 2.5-.9-.3-1.5-1-.6 1.8-2 3-.7-2.4-2-5-1.6 3.4-4.5.5 5.4-.9 1-4 1.5-1.8 3-1.5-2.2-2-2-5-2.7 0-5 1.5 1.7 2.4-1.5 3.5-.8-.8-1.5-1.5 2.3-1.3 1.5-3.5-.5.5-1 1-.9-3.5-4.5-3 .5-2.6.5-5-1.4 1.8-3.5 2.5.5.5 1 1-2.6.3-5 0 1 2.4-1.5 4.5-1-1.9.5-3.5-1.2-3.2-5-6 .7-.6 1-1.5-2.7-1-5-2.5 1.9-2.7 3.5.5 1-.8 1.5-2-2.9-1.2-6-1.5.7-4.6 2-9-2.1-2-2.5-4.5-.7 2.1-2.5 3.5.5.5 1 1-1.8 1.8-3.5 3.5-3.1-1.8.5-2.5-.7-2.3-1-4.5-4.4 2.9-8.5 6-1.7-3.3-5.5-6.5 3.1-.5 6-1.5 1.5-.8.5-2-2.7 1.1-5.5 2-1.3-2.5-4-3.5-7.6-2.6-14-5 1.3-1.6 3-1.5-1.8-1.4-4-1 .3 6.9-4.5 1-.4 1.7-1.5 3-.5-.3-1-.5.8-3.1 1-6-.7-2.4-3-3.5-2.5 3.1-6 4.5 1.1 1.9 2.5 3.5 2-2.5 4-5 .7 2.5.5 5-3.1 0-5.5 2-3.2-.8-1.5-3-1.2-2-3-3.5 1.5-.5 3-1-1.6-1.7-3.5-1.5-1.7 3.4-3-1-.5.5-1 1-.4-3.7-2-7-3.1 3.1-6-1-2.5 1.2-.5 3-1.1 1.2-2.5 2-1.8-2.1-4.5-2.5 1.5-.5 3-1-1.8-1 0-1.5 1 .8 1.5 2 .5-2 1-4 1 1.8 1.5 0-1.2-1.1-2-2.5 1.4-2.7.5-5.5-.6 3.2-3.5 2.5-.6-2.6 0-5.5-1.3-3.7-5-2.5 1 .5 2 1-1.3 2.7-.5 5.5-1-2-2 0-.9-6.6-3-1-.8-.8-1.5-1.5 2-1 0-2 4.6-.5 1-2 1-.5 2-1-.7-3.2-1-6.5 2.6-.8 5-3.5-3.6-1.5 1-2-2.7-.4-4.5-2.5-2.7 3.9-4-1-3.2 3.2-7.5 3.5.7-.6 1-1.5-2.3-2.5-4-5.5 1.7-1.5-1-2 2-1 0-2 1.1-2.2 2.5-.5-.2-2 .5-3.5-1.9-2.7-3.5.5-3-1.2-4.5-4 1.9-1.6 3.5-3 6.5 1.9.5-2.5 1.8-1.3 0-2.5-2 1.2-3.5 3-.5-1.5-1-3-1.1 5.7-3 10-.4-1.7-1.5-3-1.3 1.5-2 0 1.8-2 4-3.5-3.1-1.2-5.5-3.5-1.3 2.4-3 1-1.1-4.5 2.5-7.5-2-3-5-5 2-2.5 4.5-.5 1.8-1.5 1.5-3 1 .8 1.5 2 1.9-1.8 2-4-2.5 0-5 0-1.2 1.8-2 3-1.9-.4-3-2-2.9 2.1-5.5 4.5 2.7.8 1 2.5-1.8-.8-3.5-1-2.5-3-3-7-3.7 4.3-6.5 9-4.2-3.1 1-4.5-2.2-1.7-5-2 2-1.5 0-3 2.1-1.6 3-4-.9-3.6 0-6.5-.7-1.5-2-2.5 1.7-1.4-.5-2.5-2.3 1.1-4 3-1.8-1.6-1.5-4-2.2.4-4-1 1.6-2.4-2-2.5.3-2.9 0-5.5-.9-1.9-3-2.5.4-3.1 0-6 1.5-.8 2-2.5-2.8-2.2-2-5 2.4-1.2 6-3-1.5-3.8-2.5 0-2.7-1.2-5.5-2.5 3.9 0 3.5-3.5-1.5 1-3 2-.7-1.9 1.5-2.5-2.7-.3-4-2.5 1.6-3.4.5-7-.2 4.8-4.5 4.5 3.6-2 0-3 1.1-2.9 3-6-3.6-2 0-3-1.3-2.7-3-5.5-.6 1.1-.5 3-2.6 0-5.5-1 1.1-.6 3-.5 1.2-2.6 3-5-3.6-2.8-3.5-7.5-1 .8-1.5 2 .8 5.5-2-1 2.7-1.9 6-3 1.6-1.7 0-3-1.1 1.3-1.5 3-.8-.8-1.5-1.5 1.4-2.9 4-5-1.2-1.6-2-3.5 2.4-4-2-5.5 2.6-1.6 2-3.5 1.5.7 2.5 2 .6-1.4 2-2 6 1.8 1.5-3-1.3 1.5-2 0 .9-1.9 3-2.5-1-4.1 3-6.5.9.3 1.5 1-.1-1.9.5-3 2.9 2.6 4.5 6 .4-3.2 3-5 .5.5 1 1 3.5-3.9-1-2-.7-1.9 1.5-2.5-1.2-1.4-3-2 1.4-.6 2.5-1.5 1.5 3 3 6 1.3-1.3 2.5-2.5-2.8-1.7-2-4 4.3-.3 4.5 4.5-.5-5.9 5-8 2.7 4.3 4.5-.5-2-1 0-2-2.4.9-4-1 2.7-.5 1-2-1.9-.5-3.5-1.5-1.1 2.5-3.5 1.5 1.8-2 4-3.5-.5-1.8-1.5 0-.7-1.9-.5-4-2-.3-3.5 1-.3-.5-.5-1 5.8-1.6 0-2.5 3.4-2.5 7-1 .7-2.5 2-4.5 1.1 1.3 1.5 3 1.1-.9 2.5-1.5 0-2.4-1-5 4-1 0-2 .9-3.7 4-6-.5-.5-1-1 2.7-2.3 5.5-.5-1.9-2.2-1.5-5 .5-1.8 1.5 0 .7-4.2 5.5-6.5-1.7-5-4.5 1.5-3.2-2-5.5-5 3.1-1.5 1-4 4.9-1 1-3.5 1.8-.6 3-2-2.4.9-4-1 .6-2.5 4-4.5-3.3-2.8 2-1.5 1.2 4.6 3.5.5 1.9 2.1 1.5 5 1.6.2 3-.5-2-2 0-4-4.9-.4-1-2.5-1.5-2.4-.5-5 2.2 1.1.5 2.5 1.9.5 3.5 1.5.5-1.9-1.5-3 .8-1.8 1-3.5-2.4.9-4-1 4.6-.5 1-2 3.4-2.8 0-5 6.2.3 4.5-5.5-1.7 2.2-2.5-.5-2.3-5.7 2-1.5.9-.3 1.5-1 .9 3.7 4.5 5 7.4-4.7 3 2.5.5.5 1 1-1.9.5-3-1.5-1.9.9-4 1.5 2.7.5 1 2 .8.8 1.5 1.5 4.7-1.8 9.5 2 1.1-1.3 1.5-3 .5 1 1 2 1.5-1.9 1-4-1.5 1.7-2-1-.7 3.6-2.5.5 1.9-1.8 4.5-2.5 3.3 3.7 7 7 1-.8 1.5-2-1.5-3.5-4-4 .8-1 2-1.5-3.9-2.4-8-4.5.3-.5.5-1 3.9 3.6 8 0 .5 1.9-1.5 3 .5 1.8 1.5 0 .5 8.7 2.5 1 1.2-1.8 2.5 0 1-2 0-4-1.3 2.3-3.5 1.5.8-2.5.5-5.5 1.8-.9 3.5-2-2.4-1.9-4-4.5.5-1.8 1.5-3.5 2 1.3 4.5 1-.2 3.2 1.5 6 2-2.5 4-5 .5 1 1 2 1.3-1.8 2.5 0 .9 1.9 1.5 4 .9-2.4 3-4 1-1 0-2-2.5-1.5-4-4-.5 1.2-1.5 2 .1-1.7-1.5-3-2.2 1.9-4.5 2.5 2.7-3.1 2-6.5 1.3-1.1 3-1.5-2.3-1.2-3.5-3.5-1 1-2 2-1.8-1.5-1.5-3-1.5.7-2.5 2-1.5-1.7-2 1-.8-3.1-1.5-.5.6 1.4 2 2-.9 1.1-1.5 2.5-.7-2.1-2.5-3.5 1.4-1.1.5-2.5-2.6 0-5.5-2 3.4-.8 7 1-.6-1.8 2-2.5-2.5-.5-5-1 2.9-.4 5.5-1.5 1 6 2 0 2 1.2 3.5 3 1.4-1.7 2.5 0 1.5-2.2 3.5-4-.5-1.8-1.5 0-1.7-1.9-.5-3.5-1.2-2-3-3.5 5.3-.7 0-3.5 2.6-1.6 5.5-2.5.5 2.3-1.5 4 1.4 0 2 1.5-.7 1.9-2 3.5 2.2-.1 3.5 3 1-1.9-.5-3.5 3.7-.9 0-2.5 3.6-2.3 0-5 .8-1.5 1.5-3 3.3.9 6-2 1 1 2 2 1.8-2.1 4.5-2.5-3.3-.3-6-2 1.8-3.1 2.5.5 1.7-.2 3.5-1 .5-.5 1-1-4.3-6.9 2.5-2 1.8 2.2 1.5 4 1.1-4.2 4.5-2 3.4-3.1 7.5 0 1.1-1.7 2-3.5 2.9-.3 4.5-2.5.5.5 1 1 .4-2.3 2-4 2.8 1.8 2.5 4 1.2-1.4 3-2 2.7 2 6 1.5-3-.9-1-3-2-1-4-2 .7-1.5.5-3.5.5.5 1 1 3.7-6.2 2.5.5 1.8 1.4 2.5 3.5 2.1-.8 4-1-.1 1.9.5 3 2-3.4 4.5-4 .4 1.7 1.5 3 .5-.3 1-.5-1.3-2-1-4.5z" fill="#fec508"/><path d="M466.5 217.5q-19.6 41.7-40 83-.8-.1-1-1 19.9-41 39.5-82 1-1.9 1.5 0z" fill="#d45708"/><path d="M571.5 252.5q17.9 37.3 35 75-.3 2.5 1 4.5-.5.3-1 .5-1.1-1.3-1.5-3-2.5.6-4.5 4-.6-1.1-.5-3-1.9.2-4 1-.7-2.1-2.5-3.5 1.2-6.7-2.5-.5-.5-.5-1-1 .2 2-.5 3.5 2 1 4 2-2 2.1 1 3-3.3.5-6-1.5-1.8.6-3 2 .3-2.2-2.5-4-1.6 1.7-2 4-.5-.5-1-1-1.6 2.2-4.5 2.5-.9 1.8-2 3.5-4.1-3.1-7.5 0-3.4-2.2-4.5 2 .3-1.8-1.5-4-6.8-4.9-2.5 2-.5.5-1 1-1.8.8-3.5 1-.7-3.6-2.5-.5 2.7 1.7 6 2-2.7.4-4.5 2.5-1-1-2-2-2.7 2.9-6 2-.8 1.5-1.5 3 3.6 2.7 0 5 3.7 1.6 0 2.5 1.5 1.6.5 3.5-1.3-3.1-3.5-3 1.3-1.6 2-3.5-.6-1.5-2-1.5 2-1.7 1.5-4-2.9.9-5.5 2.5 5.3 2.8 0 3.5 1.8 1.5 3 3.5-1.2 1.6.5 3.5 1-1.8 1.5 0-2 1.8-3.5 4-1.1-1.7-2.5 0-1.5-1.8-3.5-3-1 6-2 0-2.6 1.1-5.5 1.5 2.5.5 5 1-2.6.7-2 2.5-3.6-1.8-7-1 2.9 2 5.5 2 .9 1.4-.5 2.5 1.8 1.4 2.5 3.5.6-1.4 1.5-2.5-1.4-.6-2-2 .7-2.6 1.5.5.5-2.7 2-1 1-1.3 2.5-2-.3 1.5 1.5 3 1-1 2-2 1.2 2.3 3.5 3.5-1.7.4-3 1.5.7 3.4-2 6.5 2.3-.6 4.5-2.5 1.6 1.3 1.5 3 1-.8 1.5-2 1.5 2.5 4 4 1 1 0 2-2.1 1.6-3 4-.6-2.1-1.5-4-1.2-1.8-2.5 0-.5-1-1-2-2 2.5-4 5-1.7-2.8-1.5-6-2.5.3-4.5-1-1 1.7-1.5 3.5 1.6 2.6 4 4.5-1.7 1.1-3.5 2 .3 3-.5 5.5 2.2.8 3.5-1.5 1 2 0 4-1.3-1.8-2.5 0-2 7.7-2.5-1-1 1.8-1.5 0 2-1.1 1.5-3-4.1 3.6-8 0-.3.5-.5 1 4.1 2.1 8 4.5-1.2.5-2 1.5 2.5.5 4 4-.5 1.2-1.5 2-3.7-3.3-7-7-2.6.7-4.5 2.5 1.8 3.1 2.5-.5.5 2.7 2 1 .5 2.1-1 4-.5-1-1-2-.4 1.7-1.5 3-4.8-3.8-9.5-2-.8-.8-1.5-1.5 1.7-1.5-1-2 2.1-.6 4-1.5 1.1 2 3 1.5-.5-.5-1-1 4.4-7.2-3-2.5-3.6-1.3-4.5-5-.6.7-1.5 1-4.3-4.2-2 1.5.8 2.7 2.5.5 1.7 5.8-4.5 5.5 3.4 2.2 0 5 3.6 1.5-1 2 1.6 1.9 4 1-.2 1.7-1 3.5 2 1.1 1.5 3-1.6-1-3.5-1.5 1.7-1.4-.5-2.5-1 2.6.5 5-3.9 2.1 1 2.5-2 2 0 4-1.4.7-3 .5.4-2.9-1.5-5-2.3 4.1-3.5-.5-5.3-1.3-2 1.5-3.4 2-4 4.5 1.6 1.9 4 1-1.2 1.4-3 2 3.9 2.5-1 3.5 2.1 2.5-1 4 2.3 3 5.5 5 2.8-6.5 4.5-1.5-4.8 2.3-5.5 6.5-1-1.8-1.5 0-.4 2.8 1.5 5-2.8-1.8-5.5.5.5.5 1 1-3.1 2.3-4 6 4 1 0 2 1 2.6 1 5-1.4.6-2.5 1.5-.4-1.7-1.5-3-1.3 2-2 4.5-3.6-1.5-7 1 5.8.9 0 2.5.3.5.5 1 1.5-1.3 3.5-1-.2 2.1.5 4 1-1.8 1.5 0-2.2 1.5-4 3.5 2.4 1 3.5-1.5 1.6 1 3.5 1.5 1.7 1.5-1 2 1.6 1.9 4 1-2 1 0 2-1.8 4.8-4.5.5-5.5 2.1-5 8-.2-4.8-4.5-4.5-.8 2.3 2 4-1.3 1.3-2.5 2.5-1.5-3-3-6-1.1.9-2.5 1.5 1.8.6 3 2-2.2.6-1.5 2.5 4.5-1.9 1 2-.5-.5-1-1-2.6 1.8-3 5-1.6-3.4-4.5-6-.6 1.1-.5 3-.6-.7-1.5-1-4 2.4-3 6.5-2.1.6-3 2.5.7 1.5 2 0 4.5 4.8-1.5 3-1.4.6-2 2-1-1.3-2.5-2 .6 1.9-2 3.5 4.4 1.5 2 5.5.8 1.9 2 3.5-2.6 2.1-4 5 .8.8 1.5 1.5.4-1.7 1.5-3 1.6 1.3 0 3-3.3 1.1-6 3 2.8 6.5 2 1 .5-1.2 1.5-2-.1 4.7 3.5 7.5-1.8 2.4-3 5-1.9-.1-3 .5 2.9 1 5.5 1-.1-1.9.5-3 1.7 2.8 3 5.5-3.6 1 0 3-1.9 3.1-3 6 3.6 1 0 3 4.3.3 4.5-4.5 1.1 3.6-.5 7 1.3 2.2 4 2.5-2.2.6-1.5 2.5 1.5-1 3-2 .4 3.5-3.5 3.5 2.8 1.3 5.5 2.5 1-3.8 2.5 0-3.6 1.8-6 3-.8 2.8 2 5-.5 1.7-2 2.5.4 2.9 0 6 2.1.6 3 2.5.3 2.6 0 5.5 3.6.1 2 2.5 1.8 1.4 4 1-.3 2.4 1.5 4 1.7-1.9 4-3 2.2 1.1.5 2.5 1.3 1 2 2.5-.9 2.9 0 6.5-.9 2.4-3 4 2 1.5 0 3 2.8.3 5 2-5.2 1.4-1 4.5 2.8-4.7 6.5-9 .5 4 3 7 1.7.2 3.5 1 1.7-1.7-1-2.5 2.6-2.4 5.5-4.5 1.1 1.6 3 2 .8-1.2 2-3 2.5 0 5 0-.1 2.2-2 4-.5-1.2-1.5-2 .3 1.5-1.5 3-2.5-2-4.5.5 3 2 5 5-3.6 3-2.5 7.5 1.7 1.4 3-1 2.4 2.3 5.5 3.5-2.2 1.5-4 3.5.7 1.5 2 0 1.1 1.3 1.5 3 1.9-4.3 3-10 .5 1.5 1 3 1.5-1.8 3.5-3 1.8 1.2 0 2.5 6 4.4-.5 2.5-1.6 1.4-3.5 3 1.5 2.8 4.5 4 1.6-3.2 3.5-.5-.7 1.5-.5 3.5-1.4-1.7-2.5.5 2 1 0 2 2.7.5 1 2 1.7 3 4 5.5-.3.9-1 1.5 4.3-.3 7.5-3.5 1.3 4.9 4 1 1.8 2.1 4.5 2.5-4.6.5-1 2-2.4 2.7-5 3.5.3 3.3 1 6.5-1 .5-2 1 3.6 1.5-1 2 2 1 0 2 .8.8 1.5 1.5 2.1-5.6 3 1 1-2 2 0-.8-2.8.5-5.5-1-.5-2-1 3.7-1.2 5 2.5-.6 2.9 0 5.5 2.9.7 3.5-2.5.9 2.8-.5 5.5.8 1.4 2 2.5-.5 1.8-1.5 0-.5 2-1 4-.5-1.2-1.5-2-1.8.5 0 1.5-1.5.5-3 1 2.7.4 4.5 2.5 1.4-.8 2.5-2-2-1.8.5-3 2.9 4.1 6 1 1.6 3.3 2 7 .5-.5 1-1 1.3 4.4 3 1 1.9-.2 3.5 1.5-1.5.5-3 1 1.8 1.5 3 3.5-1.7 2.2 1.5 3 2.4-2 5.5-2 .2-2.5-.5-5-2 2.5-4 5-1.4-1.6-2.5-3.5 3.5-1.4 6-4.5 2.3 1.1 3 3.5-.2 2.9-1 6 .5.3 1 .5 1.1-1.3 1.5-3 4.8 5.9 4.5-1 2.2-.4 4 1-1.7-.1-3 1.5 6.4 2.4 14 5 2.7 1 4 3.5 2.8-.9 5.5-2 1 1.2-.5 2-2.9 1-6 1.5 3.8 3.2 5.5 6.5 4.1-3.1 8.5-6 .3 2.2 1 4.5-3.6.7-.5 2.5 1.8-1.8 3.5-3.5-.5-.5-1-1 1.8-1.4 2.5-3.5.4 2.5 2.5 4.5-1.3 4.4-2 9 3.1.3 6 1.5-.5 1.2-1.5 2-1.6-3.2-3.5-.5 2.3 1.5 5 2.5-.3.9-1 1.5 3.8 2.8 5 6-1.5 1.6-.5 3.5 2.5-2.1 1.5-4.5 2.4.3 5 0-.5-.5-1-1 2.1-.7 3.5-2.5 0 2.4-.5 5 3.6-.5 4.5 3 .5-.5 1-1 .8 2.2-1.5 3.5.8.8 1.5 1.5 3.2-1.1 1.5-3.5 2.3-1.5 5-1.5-.2 3 2 5-1.5-.3-3 1.5 4.4 3.1-1 4 2.9 2.9 4.5-.5 1.3 2.6 2 5 1.4-1.2 2-3 .6.7 1.5 1-.6-1.8 2-2.5 3.3-1.2 6 1-1.5.5-3 1 1.3 4.1 2.5.5 2.9 2.5-.5 4.5 3.8 2.7 7 6-2.3 3.3-3.5-.5-1.1.9-2.5 1.5 2 1 4 2-1 .5-2 1 6.1 3.4-1 5 3.3 4.6 7 0-1-.5-2-1 1.8-1.4 2.5-3.5.5 1 1 2 1.5-1.5 3-3 1.2 2 3.5 2.5-3 1-6 2 6.5.6 1 2 2 1 0 2 2.8 3.5 6 1-2-2.8.5-1.5.4-1.7 1.5-3 .4 1.6.5 4 1.7-1.4 3 1 2.6-1.4 5-3 3 3.7-2.5 3.5 2.4.5 4 2.5-2 1.5 0 3-3.3 2.6-.5 6 1-2 2 0 3.5-3.4-1.5-3.5 2.3-1.8 3.5-4.5.8.8 1.5 1.5-.1 2.7-1 5.5 1 2.8 4 3.5-2.1 2.6-5 4 3.6 1 0 3 3.4.1 4.5-3.5 3.4 5 7.5 7.5-1.4.7-3 .5-.2 1.6.5 3 1.6-1.5 3.5-.5-1 2-2 4 .8.3 1.5.5 4.2-1.1.5-2.5 2.7-.5 1-2 1.1-2.1 1.5-4.5 4.2 2.8 8 5 .5-.5 1-1 1.6 1 3.5 1.5-3 1.9-3 4.5-1.7-2.7-4-1 1.2 2.5.5 5 1.5 1.7 2-1 2.6 2.5 3.5 5.5-2.3 1.2-3.5 3.5-2.1-1.4-4.5-2.5-1.6-2.4-3-4.5-.6 1.1-.5 3-1-1.9-1.5 0-42-22.5-84-45-.9.2-1 1-1.8-.6-3-2 1.9-.5 0-1.5-24.8-14.1-50-27.5-.9.2-1 1-1.8-.6-3-2 1.9-.5 0-1.5-6.6-3.8-13-7.5 2.2-2.5 6-2.5-.7-.6-1-1.5 1.8-1.5 3-3.5-1.9-.7-2.5 1.5-2.1-2.2-.5-4.5-4.3-2-5-5.5-5.3 4.1-6.5-3-.6 3.2-3.5 2.5 1.6-2.1.5-4.5-1.1 1.4-2.5.5 1.3-1 2-2.5-2.2-3.5-4 1-3.9-.7 0 2.5-2.8 1.1-4.5-1.5-.5 1-1 2-1.4-1.8-3.5-2.5 1-1 2-2-2.3-2.2-2.5-5.5-1.7 3.4-3-1-.5 1-1 2-2.8-2.8-2.5-6-2.3-1.9-4.5 0-2.2-2.7-3-6-.5 2.7-2 1-1.6 1.7-3.5 3 .5 1 1 2-8.1 4.5-2-2-1.7-1.8-3.5 0-1.5-1-3-2-.5 2.7-2 1-1 2.4 1.5 3.5-3.2 3-4.5-1.5-.1-3.2-.5-6-2.4 1.2-5 1 .2-1.6-.5-3-2.5 4-5 0-1.2 1.8-3 3-2.6-.7.5-1.5-2.7-3.2-3.5-7.5-1.5 3.6-2-1-1-2-2 0-.5-1-1-2-3 2.3.5 4-4.8 4.1-5-1.5 4.3-5.1-1.5-10.5-.8.8-1.5 1.5 2.2.6 1.5 2.5-1.6-1-3.5-1.5 2-2.5-.5-4.5-.4 3.7-2 8-1.2-2.7-3.5-4.5.7-2.6 1.5.5 2.7-3 .5-6.5 1.3-1.6 3-1.5-1.8-1.6-2.5-4-2.1-3.7-4.5 0-1.6-1.8-4-2.5 1-1.5 2-3-1.8-3.1-2.5.5-.4-3.2-3-5-.8.3-1.5.5 1.7 1.1 0 2.5 6 2.9-.5 5-3.1-1.8.5-2.5-5.4-4.9-10-10.5 1-1 2-2-.8-1.8-1-3.5 2-.5 4-1-3.1-.8-.5-1.5 1.8 1.5 3.5 3 1.5-.7 0-2 1.8-1.2 4-1.5-1.9-1.7-3.5-.5-1.5-6.4-2.5-1-4.6.1-1-1.5-2-1 0-2-2.7-1.2-4.5-3.5-1 5.4-4 2-2.8 1.8-2.5 4-1.5-3.1-4-1-1.8-.5 0-1.5 1.5-.5 3-1-4.8-4.8-10.5-8.5-3 2-6 0-1-1 0-2 1 1.3 2.5 2 5.4-1.5 10-4.5-2 .2-3.5-.5-.5 1-1 2-3.2-4.8-7-9-3.2.8-1.5 3-1.2 3.5-3 .5-.8-2.3 2-4-2-2.5-4-5 1.3-2.4 4-3-2-.5-4-1 1.2-.5 2-1.5-2.1-5.3-5.5-10-3.6 4-5.5-1.5 3.3-2.8 6.5.5.6-.7 1.5-1 .3 1.3 1 3 .9-3.4 3-3.5-1.2-.8-3-2 1.9-1.7 3-4-3.6 2-7.5 1.5-7.4-7.1 3.5-8-.5-1.8-1.5 0-4.7-4.6-4 1-2.7-5.4-7-1-1.9-1.1-3.5-2.5 3.1-2.6 6.5-.5.6-1.4 1.5-2.5-3.7-1.8-5.5-5.5-1 1.9.5 3.5-.8.3-1.5.5-4.2-1.1-.5-2.5-2.9-4.7-5.5.5-1-2.5 0-5 1.5.7 3.5.5 1.9 5 2.5-.5.6 1.4 2 2 2.6-.7-.5-1.5 2-.5 4-1-1.9-1.7-3.5-.5.1-1.9-.5-3-1.1 1.3-1.5 3-.5-1-1-2-.9 3.3-3.5.5 1.2-.5 2-1.5-.3-2.7 0-5.5-.9-3.1-3-5.5.3-.9 1-1.5-3.7-3.9-8-7 1.5-.8 3-1.5-.2 2.4 3 4 2.4-1.1 4-3.5-1.3-1.7-3-4-4.3-3.1-8 .5-1.6-1.3-.5-3 .5.5 1 1 .7-1.8 2.5-2.5-1.3-1.3-2.5-2.5-2.4.1-4.5 0 1.2-2.5.5-5 2.7-4.3 6.5-7.5-1.5-.5-3-1-.5-3.1 2-6-.8-.8-1.5-1.5-.4 1.7-1.5 3 .1-1.7-1.5-3-1.9.4-3 2-.3-.8-.5-1.5 1.4-1.7 0-3 6.3-3.7-1-5 1-.5 2-1-1.8-1.7 0-3.5-1.3-2.2-4-2.5 4.4-.1 3-3.5 1.3-1.1 3-1.5-1.2-.5-2-1.5 1.7-3-1.5-1-3.1-3.3.5-6-.5-.5-1-1-2 3.3-5 2 1.7-2.1 4-3.5-1.9.1-3-.5 1-4.4 2.5-1 1-3.4 2.5-6.5-2.7-1.3-2-3.5-3.4.8-4.5 4-3-4.3-6.5-1-4.9-3-.5-6 3.3 4.1 5-1 .5 1 1 2 .7-2.1 2.5-3.5-.5-.5-1-1 2-1.5 4-3-3.6-6.5 4-9-2.2-1.8-4-1.5 1.5-1.3 2.5-3 .5.5 1 1 1.1-2.2 3.5-2-.3 2.4 1.5 4 1.1-4.1 4.5-6.5-1.2-1.4-3-2 1.5-.5 3-1-7.3-1.3-1-5-2-1-4-2 3.9-2.7-1-4 1.2-.5 2-1.5-2.8-4.7-6-9 2.4-1.1 4-3.5-2.6-.3-5-1.5 1-4.7 3-1 1.8-1.2 0-2.5 1.4-.6 2.5-1.5 2.2 1.1.5 2.5 2-.2 3.5.5 1.8-1.2 1-3-2.8 2-1.5-.5-1.5-.5-3-1 2.7-1.8 4.5-4.5.7 1.4.5 3 4.9.3 1-2 2.3-3.3 3.5 0 2.5-1.5 5-3-1.6 4.5 3 7 .6-2.2 2.5-1.5 1.1 1.9 2.5 3.5 3.5-1.5 1.5-4.5 2-1 4-2-1.5-1.8-3-1.5 1.4-1.9.5-4-1.1 2.2-3.5 2-.5 4.5-5 5 0-3 0-6-2.8-.7-5.5-2-1.3.3-2.5.5 3.6.7.5 2.5-1-2-2 0-3.4-3.3-5 2-1.1-2.4-2.5-4.5 3.7-1.2 7-4.5 1.7 1.9 4 3 1.9-.1 3-1.5-1.6-3.6-2-7.5 2.1-.2 4 .5-2.3 2.4-1.5 5.5 1.5-2.9 3.5-5.5-.5-.5-1-1 4.4.7 8.5.5.8-1.5 1.5-3-1.5-2.4-.5-5 1.3 1.8 2.5 0-.8-1-2-1.5.5-.5 1-1-2.9-1.2-4.5 1.5-.9-3.7-2.5 0-1.7-3.1-6-5 12.5-2.5 21-12 1.6 2.3 0 4.5.4 1.9 2 3-4 5.3 3 5.5.2-5.1 3-1 1.3-1.9 3-3.5-.5-.5-1-1 1.9-.7 2.5 1.5.3-3.5 3.5-5-1.7-.7-3-1 3.7-1.6 0-2.5.8-1.4 2-2.5 4 1.9 8 2.5-2.2-1.6-2.5-4.5-1.1 2.5-3.5 1.5-1-2-2-4 3.3.9 6-1 .6-3.3 3.5-6.5 1.4 1.2 2 3 .7-4.9-4.5-5.5 5.4-3.5 2-8 0-3 2.5-4.5 2 .4 4.5.5 1.3 2 1 4.5 2.4.2 3.5-2 2.1 1.9 4.5 3.5-2.8 1.6-5 4 1 .5 2 1-1.4 4 2 1-1.4-1.1-.5-2.5 2.2-2.8 5.5-2.5-1 .5-2 1 2 2.5 0 5 3-1.2 6 .5 3.5-.9-1-1-.2-2.4 2-3.5-1.1-2.2-2.5-.5-.9-1.4.5-2.5-1-.5-2-1 2-1.8 3-4.5 2.1 1.8 3.5-1 2.9 3.9-1 7-1-1.8-1.5 0 .8 1 2 1.5-.8 3 2 0-1.8-4.7 1.5-.5 3.3-2.9 5-7 1 4 0 8-1-1.8-1.5 0 .8 1.5 1.5 3 .7-1.8 2.5-2.5-2.1-2.6 1-4-2.3-3.7-4-8 .2-2.6 1.5-.5-.1-1.9.5-3 1 .8 1.5 2 1-1.3 2.5-2 1.4 2.8 4 4.5-1.9 1.9.5 3.5 2.5-3.3 5.5-3.5-.8-1-2-1.5-3.5 2.3-2-1 2.6-.3 5.5 0 .7-1.6-.5-3 1.9-1.3 3.5-3 1 3.5 0 7-2.2 2.1-4.5 4 1.4 3 4 1-.3-.9-1-1.5 3.6-2.4 7.5-4.5 4.7 2.2 8.5-1.5-2.7-1-4-3.5-1.3 1.2-1 3-4.6.1-1-1.5-4-2 0-4 3.9-.3 7.5-1.5.4 2.5-1.5 4.5 4.5 5.4 3-1 3.6-2 0-3 3.4-3.5 3.5 1.5 2.3-.9 4.5-2 1.4-3.6 4.5-6 .5 1 1 2 1.4-8.6 4-16 1.5 1.7 2-1 2.2 2.3 5.5 2.5.9 1.1 1.5 2.5.1-2.4.5-4 2.7.8 1 2.5 2.4 1 4-1-3.9-2.2-3.5-6.5.6-.7 1.5-1 2 1.5 4 3 0-2.2 1.5-4 3.5 3.6 8.5 3.5 1.3-2.4 4-3-1.4-.6-2.5-1.5-2.2 4.3-5.5 1.5 4.8-1.5 1-4 4.2-1.4 6.5 2.5 3.4-1.7 4.5 2.5-1.8.7-2.5 2.5-3.1-3.9-2.5 0 1.2.6 2.5 1 4.1-3.8 8 0-1.9-2.9-2.5-7-3 .2-5-2 1.8-3.5 3.5-7 2.6 2.7 5.5 5 1-2.7 2.5-5 .5 4.6 2 1 1.9 3.6 1-1-2.3-1.2-3.5-3.5 1.9-.2 3.5 1.5 1.4-.6 2-2 5.7 2 8-5 2.7 1.3 2-2-2.4 1.8-4-1-.5 1.5-1 3-.9-2.8.5-5.5-.5-3.3-3-5.5 1-2.4 1.5-5 .5.5 1 1 .4-1.4 1.5-2z" fill="#fec80b"/><path d="M589.5 286.5q-29.5-63-59-126 .5-1.9 1.5 0 29.2 62.5 58.5 125-.2.9-1 1z" fill="#d35708"/><path d="M530.5 160.5q29.5 63 59 126 16.5 34.1 31.5 69 7.1 10.3 19.5 13-.6.9-2 1-16.2-4.4-22.5-20-4.1-11.5-9.5-22-17.1-37.7-35-75-25.3-55.1-51.5-110-1.9-4.1-5.5-6.5-3.2-1-6 1-49.5 100.3-98 199.5 7.2-18.4 16-36 20.4-41.3 40-83 18.2-37.4 36.5-75 2.2-4.1 5.5-7.5 6.1-1.8 10.5 2.5 5.8 11.6 11.5 23z" fill="#fce116"/><path d="M571.5 252.5q-1.1.6-1.5 2-.5-.5-1-1-.5 2.6-1.5 5 2.5 2.2 3 5.5-1.4 2.7-.5 5.5.5-1.5 1-3 1.6 2.8 4 1 .7 3.3-2 2-2.3 7-8 5-.6 1.4-2 2-1.6-1.7-3.5-1.5 1.2 2.3 3.5 3.5.9 4.6-1 1-1.5 3.6-2-1-1.5 2.3-2.5 5-2.9-2.3-5.5-5-1.8 3.5-3.5 7 2 2.2 5 2 .6 4.1 2.5 7-3.9-3.8-8 0-1.3-.4-2.5-1-.6-3.9 2.5 0 .7-1.8 2.5-2.5-1.1-4.2-4.5-2.5-2.3-3.9-6.5-2.5 3.8 2.5-1 4 3.3 2.8 5.5-1.5 1.1.9 2.5 1.5-2.7.6-4 3-5 .1-8.5-3.5-1.5 1.8-1.5 4-2-1.5-4-3-.9.3-1.5 1-.4 4.3 3.5 6.5-1.6 2-4 1 1.7-1.7-1-2.5-.4 1.6-.5 4-.6-1.4-1.5-2.5-3.3-.2-5.5-2.5-.5 2.7-2 1-2.6 7.4-4 16-.5-1-1-2-3.1 2.4-4.5 6-2.2 1.1-4.5 2-.1-5-3.5-1.5 3.6 1 0 3 1.5 6.4-3 1 1.9-2 1.5-4.5-3.6 1.2-7.5 1.5-4 2 0 4-3.6 1.6 1 1.5-.3-1.8 1-3 1.3 2.5 4 3.5-3.8 3.7-8.5 1.5-3.9 2.1-7.5 4.5.7.6 1 1.5-2.6 2-4-1 2.3-1.9 4.5-4 1-3.5 0-7-1.6 1.7-3.5 3 1.2 1.4.5 3-2.9-.3-5.5 0-1.5 3.3 2 1 1.2.5 2 1.5-3 .2-5.5 3.5-2.4-1.6-.5-3.5-2.6-1.7-4-4.5-1.5.7-2.5 2-.5-1.2-1.5-2-.6 1.1-.5 3-1.3-2.1-1.5.5 1.7 4.3 4 8-3.1 1.4-1 4-1.8.7-2.5 2.5-.8-1.5-1.5-3 .5-1.8 1.5 0 1-4 0-8-1.7 4.1-5 7-3.3-4.2-1.5.5-2.8 3-2 0-1.2-.5-2-1.5.5-1.8 1.5 0 3.9-3.1 1-7-1.4 2.8-3.5 1-1 2.7-3 4.5 1 .5 2 1-1.4 1.1-.5 2.5 1.4-1.7 2.5.5-2.2 1.1-2 3.5 4.5.1 1 1-3-1.7-6-.5 2-2.5 0-5 1-.5 2-1-3.3-.3-5.5 2.5-.9 1.4.5 2.5-3.4 3-2-1-1-.5-2-1 2.2-2.4 5-4-2.4-1.6-4.5-3.5-1.1 2.2-3.5 2 .3-2.5-1-4.5-2.5-.1-4.5-.5-2.5 1.5-2.5 4.5 3.4 4.5-2 8 5.2.6 4.5 5.5-.6-1.8-2-3-2.9 3.2-3.5 6.5-2.7 1.9-6 1 1 2 2 4 2.4 1 3.5-1.5.3 2.9 2.5 4.5-4-.6-8-2.5-1.2 1.1-2 2.5 3.7.9 0 2.5 1.3.3 3 1-3.2 1.5-3.5 5-.6-2.2-2.5-1.5.5.5 1 1-1.7 1.6-3 3.5-2.8-4.1-3 1-7-.2-3-5.5-1.6-1.1-2-3 1.6-2.2 0-4.5 4.2-7.2 7.5-15 .5.5 1 1 1.2-3.3-.5-6-.3-1.5 1-2 48.5-99.2 98-199.5 2.8-2 6-1 3.6 2.4 5.5 6.5 26.2 54.9 51.5 110z" fill="#feca0e"/><path d="M501.5 727.5q-1 0-1 1-103 57-206 114-8.8 3.5-14-4-.1-.7.5-1 5 5.7 12.5 3.5 66.8-35.7 132-73.5 37.7-20.1 75-41 .9.2 1 1z" fill="#fce822"/><path d="M399.5 817.5q-28.6 16.6-58 32-1.9-.5 0-1.5 27.7-15.1 55-31 1.9-1.1 3 .5z" fill="#d24e07"/><path d="M254.5 799.5q1.6 4.8 0 10 1.2 3.7 2 6.5-.9 1.1-1.5 2.5-.5-2.5-1-5-1.5 4.4-2 9-5.9 30.4 20.5 45.5 1.9 1 0 1.5-16.3-7.5-21.5-25-2.1-9.9-1-20 2-12.6 4.5-25z" fill="#d25309"/></svg>