<svg xmlns="http://www.w3.org/2000/svg" width="1024" height="1024" xmlns:v="https://vecta.io/nano"><path d="M608.7 166.5c2.3 1.5 3.6 2.3 6.3 2.5 2.8-.9 2.8-.9 5.8-2.3 25.3-10.2 51.2-8 75.9 2.3 20.5 9 38.2 23.7 54.3 39q1.4 1.3 2.8 2.7c23.1 22.3 40.9 51.3 41.7 84.1q0 3.1 0 6.1v3.9c-.1 12.2-2.8 23.5-6.3 35.1q-.4 1.3-.8 2.6c-6.2 20-15 38.4-28.4 54.5q-1 1.3-2 2.6c-6 7.1-15.7 11.8-24.9 12.7-11.9.4-19.5-3.2-28.1-11.1-8.7-8.9-13.1-21-18-32.2l-1.5 3.5c-9.4 21.7-21.1 39.4-40.5 53.5q-1 0-2 0c4.7 9.7 9.7 19.2 15.2 28.5C665 466 665 466 665 469q1.6-.2 3.3-.3c15.9-1.4 31.3-.2 45.7 7.3q1.5.7 3 1.5c16.1 8.7 27.7 22.2 34 39.5 4.8 17.4 3.7 33.6-4 50-8.2 14.4-18.9 24.4-35 29.4-4.7 1-9.2.9-14 .6q.3.8.7 1.7c5.5 14.1 8.3 29.1 10.5 44.1.2 1.7.2 1.7.5 3.4.7 5.1 1.4 10 1.6 15.1.1 7.4.1 7.4 3.6 13.5 2.5 1.1 2.5 1.1 5.2 2 13.5 5.6 22.4 21.5 27.9 34.2 10.5 27.8 7.2 56.2-4.2 82.8-3.7 8-9 15-14.7 21.7-2.3 2.4-2.3 2.4-3.1 5.5q1 .3 2 .6c8.2 3.8 14.6 9.8 18.2 18.2 2.7 7.4 4.1 12.9.9 20.5-3.5 7.2-7.8 12.3-15.1 15.7-5.7 2-10.8 2.3-16.8 2.3q-1.4 0-2.9 0-4.7 0-9.4 0-3.3 0-6.6 0-6.9 0-13.7 0-8.9-.1-17.7 0-6.8 0-13.5 0-3.3 0-6.5 0-4.6 0-9.1 0-1.4 0-2.7 0c-5.6-.1-11.3-.2-15.9-3.7-5-6.1-9.6-12.6-14-19.2-.7-.9-.7-.9-1.3-1.8-.9-1.6-.9-1.6-.9-3.6q-1.2.5-2.4 1-4.5 1.8-9.1 3.5-1.9.8-3.9 1.6c-28.1 11.1-58.2 16.5-88.6 14.9q-1.2-.1-2.5-.1c-22.9-1.4-42.7-7.7-63.8-16.7q-3.8-1.7-7.7-3.2-.5.8-1.1 1.5-2.5 3.6-5 7.1-.9 1.2-1.8 2.4c-9.8 13.8-9.8 13.8-15.1 16-2 .3-2 .3-4.2.3q-1.3 0-2.6 0-1.4 0-2.8 0-1.4 0-2.9 0-4.8 0-9.6 0-3.4 0-6.7 0-7.1 0-14.1 0-9 0-18 .1-6.9 0-13.8 0-3.3 0-6.7 0-4.6 0-9.3 0-1.3 0-2.7 0c-10.4-.1-17.9-2.7-25.5-9.9-4.5-5.3-6.1-10.7-7.1-17.5-2.5-1.2-4.8-1.3-7.6-1.5-8.8-.9-16.3-2.7-24.4-6.5q-1.4-.6-2.8-1.3c-17.6-8.8-30.6-23.7-38.2-41.7-1.6-6.1-1.9-12.5.3-18.5 1.7-2.5 1.7-2.5 4.7-4.5 8-.1 13.4 3.9 20 8 13.4 8.2 26.3 14.5 42.4 11.3q4.3-1 8.6-2.3c0-3.3-.9-5.7-2-8.7-9.9-27.6-10.2-56.4 2.3-83.2 6.3-12.2 14.6-21.7 27-27.8q1.3-.6 2.7-1.3 1-.5 2-1v-1.7c.1-25 5.7-48.8 14-72.3q-1.1-.1-2.2-.1c-14.4-1.1-27.3-7-37.5-17.3-12.2-14.4-16.7-32.1-15.3-50.6.6-4.2 1.7-8 3-12q.5-1.5 1-2.9c7-18.7 20.5-31.9 38.2-40.7 13.1-5.5 26.6-7.1 40.6-5.3 3.2.2 3.2.2 4.9-1.6q.6-1.2 1.3-2.5.9-1.6 1.7-3.3 1-2 1.9-3.9c2.2-4.5 4.4-8.9 6.9-13.2q.6-1 1.3-2.1 1.2-2 2.4-4c2.6-4.3 3.6-7.5 2.8-12.5-1.7-2.1-1.7-2.1-4.3-3.7-16.5-12.1-30-29.8-36.7-49.3q0-1.5 0-3-1 0-2 0l-.4 1.7c-3.8 14.8-13.2 29.1-26.4 37.2-8 4-17.5 4.2-26.1 2.1-17.9-6-28.2-23.3-36.2-39.2-7.5-15.2-12.6-30.5-16.4-47-.5-1.9-.5-1.9-1.5-3.8-2.8-16.9-1.1-33.5 3-50q.4-1.6.8-3.2c6.1-21.4 21.1-39.1 36.2-54.8q.7-.8 1.5-1.6c24.3-25.5 61.5-50.8 97.8-51.8 12.8 0 25.6 2.1 37 8.2 3.7 1.7 5.6 1.9 9.7 1.2 2.6-1.8 5-3.8 7.4-5.8 46.3-38.7 145.2-30.4 191.3 3.3z" fill="#022b74"/><path d="M507.6 154.5q4.9.1 9.8 0c31.8.1 62.7 7.1 88.2 27.2 4.1 2.3 7.5 2.8 12.1 1.6q4.6-1.5 9.2-3.2c23-8.2 44.6-6.7 66.5 3.5 13.9 6.6 26 15.4 37.6 25.4q1.2 1 2.4 2c25.3 22.3 46.6 48.5 49 83.6.7 19.1-3.8 37.9-11.4 55.4q-.5 1.1-1 2.2c-7.2 17.1-14.7 34.4-31 44.8-5.4 1.8-11.2 2.2-16.5 0-15.6-9.7-21-28.1-25.1-44.9q-.7-3-1.4-6.1l-.8-3.4c-2.3-11.4-3.1-22.8-3.8-34.4-1.1-15.8-2.1-31.6-4.9-47.2l-.6-3.3c-2.3-13.7-2.3-13.7-9.9-24.7-3.3-1-5.1-1.3-8.4-.1-2 2.2-2 2.2-1.6 5.9.8 5.2 2.4 10.1 3.9 15.1 1.3 4.7 2.3 9.4 3.2 14.1q.3 1.2.5 2.4c2.5 12.6 3.8 25 4.1 37.8q0 1.1 0 2.2c.9 35.2-3.8 67.1-28.7 93.6-6.1 6-6.1 6-9 6q0 1 0 2c-1.5 1.2-1.5 1.2-3.6 2.5q-1.2.7-2.4 1.4-1.2.7-2.4 1.5-1.2.7-2.4 1.4c-6.4 3.9-12.8 7.4-20.1 9.2-3.1.8-3.1.8-5.1 2.7-1.5 3.4-.9 5.8 0 9.3 3.3 2.2 4.6 2.2 8.4 1.7 4.7-1.3 9.1-3.5 13.4-5.6 3.2-1.1 3.2-1.1 5.5-.5 7 5.8 10.9 17.4 14.8 25.6q1.2 2.3 2.3 4.7.6 1.1 1.2 2.3c.4.9.4.9.9 1.9.7 2.8.6 4.2-.5 6.9-2.2 1.7-4.2 3-6.6 4.4C633 487.7 626.5 495 621 506c-3.9-1.4-7.4-3.3-11-5.3-47.7-26.1-105.3-32.2-157.6-17q-3.7 1.1-7.4 2.3-1.1.3-2.1.7c-12.6 4-26.6 9.8-37 18-1.9 1.3-1.9 1.3-4.9 1.3q-.7-1.7-1.5-3.4c-4.8-9.5-11.5-16-20.5-21.6q-1.4-.9-2.9-1.8-3.5-2.1-7.1-4.2c4.7-12.9 11-26.8 19-38 3.9-1.3 4.8-.4 8.4 1.4 5.8 2.8 10.1 4.1 16.6 3.6 2.1-1 2.1-1 3-3 .6-3 .6-3 0-6-3.1-4-6.9-5.3-11.5-6.8-21.7-7.7-42-24.5-52.5-45.2-3.1-6.7-5.1-13.5-6.7-20.7l-.6-2.7c-1.9-8.2-2.9-16-2.9-24.4v-2.9q0-3 0-6 0-4.4 0-8.9c-.1-17.9 1.3-35.1 5.1-52.6q.4-1.8.8-3.7c1.3-5.9 2.6-11.6 4.7-17.3.8-2.5 1.2-4.3.6-6.8-2.6-2.2-4.1-3-7.6-2.9-3.1 1.2-4.3 2.3-6.4 4.9-1 2.7-1.8 5.3-2.6 8.1q-.3 1.1-.6 2.1c-4 15.1-5.4 30.6-6.5 46.1-5.8 78.2-5.8 78.2-26.3 99-5.6 4.8-10.8 6.5-18.3 6.2-4.8-.9-8-3.4-11.7-6.5q-.9-.7-1.8-1.5c-19.5-17.5-32.9-55-34.3-80.8-1-31.9 9.7-57.7 31.5-81q.8-.8 1.6-1.7.8-.8 1.6-1.7c12-12.9 26-23.7 41.4-32.3q1.1-.6 2.3-1.3c21.7-12.1 44.6-21.4 69.7-15 4.2 1.3 8.2 2.8 12.3 4.5 5.4 2.2 9.9 3.5 15.7 1.8 4.5-2.6 8.6-5.8 12.8-9 5.4-3.9 11-6.6 17.2-9q.9-.4 1.9-.8c20.2-7.8 41.2-9.9 62.7-9.7z" fill="#fea504"/><path d="M509.8 525.6q1.2 0 2.3 0c13.8 0 26.7 1.5 39.9 5.4q1.2.3 2.4.7c14.8 4.5 28.9 11.4 41.6 20.3q1.5 1 3 2.1c31.7 23.2 52.8 56.9 59.3 95.8 4.3 38.3-2.3 78-26.3 109.2q-2.5 3-5 5.9c-.6.8-.6.8-1.3 1.5-25.2 29.1-60 48.9-98.7 52.5-41.6 2.5-81.2-7.5-114-34q0-1 0-2c-.8-.3-.8-.3-1.6-.7-3.2-1.8-5.6-4.2-8.2-6.8-.7-.8-.7-.8-1.6-1.6-27.5-28.3-40.5-65.8-40.1-104.9.7-37.9 16.4-71.9 42.5-99q1.2-1.3 2.4-2.6c17-17.9 39.7-29.8 63.2-36.7q1.2-.3 2.5-.7c12.5-3.5 24.8-4.4 37.7-4.4z" fill="#fef8e0"/><path d="M620 523c2.8 2.8 5.1 5.7 7.4 8.9 5 7 10.8 12.5 18.3 16.9 4.9 3.1 6.6 7.2 9 12.4 1.9 4.1 4.5 6.5 8.1 9.1C677 580.1 684.4 599 689 615q.3 1.1.6 2.3c13.4 47.2 11.8 97.6-12.1 141.3-4 7.2-8.4 13.9-13.5 20.4q-1.3 1.7-2.6 3.5c-5.4 7-11 13.4-17.4 19.5q-1.2 1.3-2.5 2.6C624 821.7 603.3 836 580 844q-1.2.4-2.5.9c-18.8 6.4-37.5 11.2-57.4 11.3q-1.4 0-2.8 0-3 0-5.9 0-4.4.1-8.8.1c-11.3.1-21.6-.7-32.6-3.3q-1.4-.3-2.9-.7c-25.8-6.4-51.2-17.9-72.1-34.3-1.1-.9-1.1-.9-2.3-1.8-36.4-28.4-62.2-70.3-68.5-116.3-3.3-28.2-1.8-59.4 8.8-85.9q.5-1.5 1-3.1c2.5-7.7 5.8-14.8 9.6-22q.7-1.3 1.4-2.7c3.4-6.4 6.2-11.6 12.9-15 7-4 10.1-9.5 12.8-17 2.1-4.8 5-5.9 9.6-7.9 7-3.4 11.5-8.7 15.4-15.2 14.1-21.8 48.3-33.1 72.4-38.6 50.1-10.4 111.3-3.8 151.9 30.5zm-153.9 8.6q-1.2.4-2.5.8c-36.6 11.7-67.5 38.7-85.5 72.5-10.9 21.1-16.5 43.8-16.5 67.5q0 1 0 2.1c.2 39.7 15.9 74.3 43.4 102.5q.8.8 1.6 1.7c1.4 1.5 2.9 2.9 4.4 4.3q1 0 2 0 0 1 0 2c1.5 1.4 1.5 1.4 3.6 2.7q1.1.8 2.3 1.6c35.2 23.9 75.8 35.7 118.3 28.2 5-1 9.9-2.2 14.8-3.5q1.2-.3 2.5-.6c34.9-9.5 66.6-34.6 84.8-65.7 20-34.8 25.9-75.5 15.4-114.5-10.1-35.5-33.6-65.5-64.7-85.2q-.9-.6-1.9-1.2c-22.3-13.9-49.1-21.4-75.3-21.2q-3.3 0-6.6 0c-13.7 0-27 2-40.1 6z" fill="#007cce"/><path d="M605 542q.8.6 1.6 1.2c35 25.5 58.2 63.2 65.1 105.9 5.9 40.7-3.8 83.9-28.4 117.2-5.3 6.9-11.3 13.4-17.3 19.7l-1.8 2c-9.4 9.9-21.3 17.4-33.2 24q-.9.5-1.8 1c-38.1 21.3-83.5 24.7-125.1 13.2-35.2-10.2-69.1-33-89.1-64.2q-1.1-1.6-2.1-3.3c-7.7-12.2-13.5-25.1-18.2-38.7q-.4-1-.7-1.9c-4.8-14.6-5.6-29.8-5.4-45q0-1.3 0-2.6c0-12.9.6-25.1 4.4-37.5q.4-1.3.7-2.6C366 588.8 394 553.1 432 532c53-28.3 124.2-26.9 173 10zm-138.9-10.4q-1.2.4-2.5.8c-36.6 11.7-67.5 38.7-85.5 72.5-10.9 21.1-16.5 43.8-16.5 67.5q0 1 0 2.1c.2 39.7 15.9 74.3 43.4 102.5q.8.8 1.6 1.7c1.4 1.5 2.9 2.9 4.4 4.3q1 0 2 0 0 1 0 2c1.5 1.4 1.5 1.4 3.6 2.7q1.1.8 2.3 1.6c35.2 23.9 75.8 35.7 118.3 28.2 5-1 9.9-2.2 14.8-3.5q1.2-.3 2.5-.6c34.9-9.5 66.6-34.6 84.8-65.7 20-34.8 25.9-75.5 15.4-114.5-10.1-35.5-33.6-65.5-64.7-85.2q-.9-.6-1.9-1.2c-22.3-13.9-49.1-21.4-75.3-21.2q-3.3 0-6.6 0c-13.7 0-27 2-40.1 6z" fill="#012b72"/><path d="M711 688c11.6 4.1 18 14.4 23.1 24.9 2.3 5.2 3.7 10.6 4.9 16.1q.3 1.3.6 2.7c.6 4.9.6 9.7.6 14.6q0 1.5 0 3c0 6.2-.6 11.7-2.2 17.7q-.3 1-.5 2c-3.8 13.7-9.1 25.5-18.1 36.6q-.8 1-1.6 2.1c-4.2 5-8.6 9.2-15.2 10.5q-1.8.4-3.6.8c-1 4.6-1 4.6 0 9 1.8.7 1.8.7 4 1.1q1.2.3 2.5.7 2.5.6 5.1 1.2c9.6 2.3 16.8 5.5 22.4 14 .6 4.5.5 8.7-1.1 12.9-3.6 4-7.3 5.3-12.5 5.5-3.2-.1-4.2-.3-6.8-2.1-1.6-2.4-2.7-4.6-3.6-7.3-5.1-1.2-5.1-1.2-9.9-.1-1.2 2.2-1.4 3.8-1.7 6.2q-.2 1.9-.4 3.9-4.6.1-9.1.1-1.3.1-2.6.1c-4.8 0-8.9 0-13.3-2.2-1.8-2.1-1.8-2.1-3.3-4.8q-.9-1.4-1.8-2.9-.9-1.6-1.9-3.3-2.1-3.4-4.3-6.8c-.6-.9-.6-.9-1.1-1.8l-6.4-9.2q-.7-1-1.4-1.9-1.4-1.8-2.8-3.6c-1.8-2.4-3-4.1-3.1-7.2 1.6-3.6 4.2-5.9 7-8.6 4.4-4.2 4.4-4.2 8.1-8.9q1 0 2 0 .3-.8.7-1.6c1.8-3.4 4.3-6.2 6.8-9.2 10.1-12.3 17.8-25.8 24.5-40.2q.7-1.4 1.4-2.9c8.6-19.3 12.1-40.4 14.6-61.1zm-401 0q.2 1.4.5 2.9.9 5.6 1.8 11.1.4 2.4.8 4.8c2.4 15.1 5.9 29.7 12.2 43.8q.5 1.3 1.1 2.6c5.5 12.3 12 23.4 20.1 34.1 3.5 4.5 3.5 4.5 3.5 6.7q1 0 2 0 1.6 1.9 3.1 4c2.8 3.6 5.7 6.9 9 10.1q1.1 1 2.2 2.1 2.2 2.1 4.5 4.2 1 1 2.1 2l1.9 1.7c1.2 1.9 1.2 1.9 1 4.5-1.1 3.3-2.9 5.4-5.2 8.1-7.3 9.1-13.2 19.1-18.8 29.3-1.8 3-1.8 3-3.8 4q-2.5.1-5 .1h-2.9q-1.6 0-3.2 0-1.5 0-3.1 0-1.5 0-3 0-1.3 0-2.7 0c-2.1-.1-2.1-.1-3.1-1.1q-.6-2.3-1.1-4.6-.2-1.2-.5-2.5-.2-.9-.4-1.9c-5.3-1.2-5.3-1.2-10 1-1 1.9-1 1.9-1.8 4.1-1.8 3.7-1.8 3.7-4.9 5.1-5-.3-10.1-1.4-14-4.6-2.7-3.4-2.6-7.1-2.6-11.3.6-4.9 2.6-8 6.4-11 6.2-4.3 11.5-6.4 19.1-7.4 4.5-.4 4.5-.4 8.8-1.9.8-2.9.8-2.9 1-6-1.8-3.4-1.8-3.4-5.6-3.7-9.8-2.3-16.3-12.3-21.4-20.3-13.7-22.5-20.2-46-15.3-72.5.9-3.3 1.9-6.3 3.3-9.5q.7-1.5 1.3-3.1c3.5-7.6 12.5-24.9 22.7-24.9z" fill="#fda604"/><path d="M714 492c13.3 9.8 24 21.6 26.8 38.4 1 12.3-2.2 26.3-9.7 36.2-8.2 9.1-16.3 15.2-28.7 16.7-5.7.3-9-.5-13.4-4.3-1.9-1.9-1.9-1.9-3-4 .2-3.2.5-4.5 2.9-6.7q1.2-.7 2.3-1.4c6.4-3.8 10.7-7.6 14.6-13.8q.6-.9 1.2-1.9c2.3-3.5 3.5-6 3-10.2-2.7-.8-4.2-1.3-7-1-4.7 2.8-8.1 7-11.5 11.2-4 4.7-7.9 7.2-14.1 8.2-4.6.3-6.7.1-10.5-2.7-2.6-3.7-3.4-6.9-3.4-11.4 1.8-8.9 10.3-15.5 17.4-20.3 2.4-1.9 2.4-1.9 2.6-5.1-.3-2.8-.3-2.8-1.6-4.8-3.2-1.9-5.2-1.7-8.9-1.1-9.2 5.2-15.2 13.9-20 23-7.6-2.5-13.8-9.3-17.6-16.1-1.7-4-2.5-7.7-1.4-11.9 6.2-11.9 19.5-19.7 31.6-24.4 16.1-5 34.5-1.9 48.4 7.4zm-340 2c6.1 4.8 12 9.6 15 17 .1 6.6-3 11.9-7 17-8.1 8-8.1 8-12.1 8-2.8-1.5-4-3.5-5.7-6.1-4.7-6.7-9.3-13-17.2-15.9-3.2-.4-5.1-.6-7.9 1.2-1.5 2.4-1.4 4-1.1 6.8.6 3.1.6 3.1 2.8 4q1.1.5 2.2 1c5.6 4.3 11.8 9.6 15 16 .4 4.8.5 7.1-1.8 11.4-3.3 3.9-4.8 4.5-10 5-6.4-.2-11.4-3.3-15.8-7.8q-2.6-2.8-5.2-5.7c-3-3.3-4.6-4.7-9-5.9-3.1-.2-3.1-.2-5.2 1 1.1 9.8 7.3 17.1 14.7 23.3 3.3 2.5 6.7 4.6 10.3 6.7-.5 4.4-1.9 6.8-5 10-7 3.4-14.3 2.8-21.6.5-9.8-4-17.4-11.1-22.4-20.5-5-12.2-8.2-28.3-3-41 8.7-16.4 20.9-28.6 38.7-35 18.1-5.3 36-1.9 51.3 9z" fill="#fca604"/><path d="M537.4 322.8c5.8 4.8 11.1 10.2 12 17.8-.2 6.7-3 12.1-7.8 16.6-4.6 3.5-9.2 6.2-14.5 8.4-4.6 2-7.2 3.6-9.1 8.4-.4 5 1.3 7.8 4.3 11.6 5.4 5.6 12.8 10.6 20.9 11 12.1-1.8 20.8-8.2 29.1-17.2 2.8-2.8 3.4-3.3 7.5-4.1 3.2.7 4.8 1.4 7.2 3.7-.4 6-1.9 10.4-6 15-13.4 10.8-29.8 17.9-47 16-8-2-14.2-6.2-20.5-11.3-2.7-1.8-4.3-2.6-7.5-2.7-2.2 1.2-2.2 1.2-4.2 3.1-10.7 9-22 12-35.8 10.9-12.3-2.8-26.1-12.6-33-23-.1-2.2-.1-2.2.2-4.6q.1-1.1.2-2.3c.6-2.1.6-2.1 3.6-4.1 2.9-.4 2.9-.4 6 0 2.6 2.4 4.9 4.9 7.3 7.5 6.1 6.4 11.8 12.1 20.9 12.7 10.3-.4 19.4-3.9 26.8-11.2 2.7-3.7 4-6.7 3.9-11.3-1.1-3.4-2.6-4.9-5.6-6.7q-1-.5-2-.9c-21.5-10.7-21.5-10.7-25.5-20.6-1.2-4.8-.8-8.9 1.2-13.5 4.5-7.3 11.9-12.4 20.2-14.6 15.2-3.4 34-3.8 47.2 5.4z" fill="#022c76"/><path d="M439 581c2.6 1.9 2.6 1.9 5.3 4.7q.7.7 1.4 1.5c4.2 4.5 8 9.3 11.6 14.3 6.9 9.1 14.3 17.4 22.4 25.4q2.4 2.4 4.8 4.8c6.4 6.5 6.4 6.5 13.5 12.3 3.1-.2 3.1-.2 6.3-1.3 7.6-2.1 13-2.3 20 1.5.9.6.9.6 1.9 1.2 1.8.8 1.8.8 3.7-.1 2.4-1.5 4.1-3.1 6-5.1q1.2-1.2 2.3-2.3 1.2-1.2 2.4-2.5c6.5-6.6 13-12.7 20.4-18.4q2.5-2 5-4.1c15-11.9 15-11.9 18-11.9q0-1 0-2c3.6-3.6 7.3-6.6 12.3-7.7 3.5.9 4.7 1.7 6.7 4.7.8 3.2.8 3.2 0 7-4.9 6-12.1 10.3-18.3 14.9-9.1 6.6-17.6 13.8-25.8 21.4l-10.5 9.5q-1.2 1.1-2.4 2.2-.8.6-1.6 1.2c-2.6 2.2-4.2 3.7-4.8 7.1 0 2.7.1 5.4.3 8.1.6 9.2-.9 14.2-6 21.8-4.2 4.6-9.7 7.3-15.8 8.3-9 .4-18.3-2.3-25.6-7.8-5.5-6-8.2-11.8-8.6-20 .2-4.2 1.5-7.8 3.1-11.7l1-3q-.8-.7-1.7-1.5c-22.6-20.2-22.6-20.2-30.3-29.5q-1.8-2-3.6-3.9c-5.7-6.4-10.7-13.2-15.8-20q-1.6-2.2-3.3-4.3-.8-1.1-1.6-2.1c-.8-1-.8-1-1.5-2-1.2-1.7-1.2-1.7-2.2-4.7 2.7-5.5 4.9-6.7 11-6z" fill="#022b72"/><path d="M874 331.5c2.8.7 3.4 2.1 5 4.5q1.1 2.4 2.1 4.8.5 1.4 1.1 2.8 1.1 2.9 2.2 5.8c2.3 5.6 3.9 8.9 9.6 11.6q3.1 1.3 6.3 2.4c12.4 4.6 12.4 4.6 15.7 8.6.2 3.7.2 3.7 0 7-23.7 12-23.7 12-27 12q-.4 1.2-.8 2.4c-1.5 4.5-3.3 8.9-5.1 13.3q-.6 1.3-1.1 2.6-.5 1.2-1 2.5-.5 1.1-1 2.2c-1.1 2.2-2.1 3.5-4 5-3.4.6-3.4.6-7 0-4.5-5.5-6.5-12.2-8.8-18.8-2.1-5.6-3.7-8.5-9.2-11.2-2.5-1.1-4.9-2.1-7.4-3-5.2-1.9-9.9-4.2-14.6-7-.5-3.2-.5-3.2 0-7 5.3-4.4 12-6.8 18.4-9.4q1-.4 2-.9c.9-.3.9-.3 1.8-.7 4.3-2.4 6.3-5.6 8.1-10.1q.6-1.5 1.2-3 .5-1.5 1.1-3 1.2-3 2.4-6 .5-1.4 1-2.7c2.1-4.6 4.3-4.5 9-4.7zm-719.1-139c3.1.5 3.1.5 5.1 3 1.9 3.1 3.1 6.4 4.3 9.8 2.9 8.5 2.9 8.5 9.6 14q2.5.9 5.1 1.7 2.4 1 4.7 2.1 1.1.4 2.2.9c3.1 1.5 5.5 2.7 8.1 5 .4 3.2.4 3.2 0 6-21.6 11-21.6 11-25 11l-1.2 3.7c-5.7 17.1-5.7 17.1-9.8 20.3-2.9.5-2.9.5-6 0-3.5-3.5-4.8-7-6.3-11.6-2.4-7.4-2.4-7.4-7-13.5-2.5-1.3-5-2.1-7.7-2.9q-3.2-1.3-6.4-2.7-1.5-.6-3-1.2C119 237 119 237 116 235c-.2-3.6-.2-3.6 0-7q5.9-2.9 11.7-5.9 1.1-.5 2.2-1 2.1-1.1 4.3-2c5-2.2 7-4.1 9-9.4q.8-1.7 1.5-3.4.6-1.6 1.3-3.3c4.5-9.7 4.5-9.7 8.9-10.5z" fill="#fea305"/><path d="M214 795q1.4.7 2.9 1.5c7.3 3.8 14.7 7.3 22.4 10.4 1 .5 1 .5 2.1.9 11.2 4.5 21.4 3.9 32.9.7 4.6-1.3 9-2 13.7-2.5q2.1 2.6 4.1 5.2c1.1 1.4 1.1 1.4 2.2 2.9 1.7 2.9 1.7 2.9 1.8 5.5-1.5 3.3-3.4 4.4-6.3 6.4-3.2 2.1-5.7 3.9-8.2 6.7-4.3 3.8-8.9 3-14.3 2.7-15.9-1.3-28.1-8.5-39.3-19.4q-1-.9-2-1.8c-5.6-5.4-10.8-11.3-12-19.2z" fill="#fba704"/><path d="M561.4 273.1c3.1 1.1 4.6 2.4 6.9 4.6 8.1 7.6 16.9 11.9 28.1 11.5 9.4-.8 15.8-4.7 22.6-11.2q2.1-2.5 4-5c2.6.4 4.6.7 6.8 2.1 2 3.2 1.7 5.2 1.2 8.9-4.9 9.4-13.7 15.1-23.5 18.3-12.7 3.6-24.5 1.5-36.1-4.4-6.5-3.7-13.9-8.1-17.4-14.9-.4-1.8-.4-1.8 0-5 3.6-5.1 3.6-5.1 7.4-4.9z" fill="#042b76"/><path d="M398 273c1.6 1.8 1.6 1.8 3.1 4.1 4.5 6.3 11 9.7 18.5 11.5 9.4 1.4 17 .1 24.9-5.3 3.1-2.3 5.9-4.7 8.5-7.5 2-1.8 2-1.8 5.6-2.2 3.4.4 3.4.4 5.3 1.6 1.5 2.5 1.4 3.9 1.1 6.8-7.1 11.2-20.3 18.8-33 21.7-13.5 1.4-26.3-2.1-37-10.7-3.7-3.7-5.9-6.6-6.3-11.9 0-3.1.2-3.9 2-6.6 2.8-1.8 4-2 7.3-1.5z" fill="#042a77"/><path d="M633 829c3.5 1.2 4 2.1 6.1 5.1q.9 1.2 1.8 2.5.9 1.4 1.9 2.8.9 1.3 1.8 2.7 2.7 4 5.4 7.9.7 1 1.3 2c5.7 8.4 5.7 8.4 5.7 12-26.8 2.4-26.8 2.4-33.5-1.4-4.1-3.9-6.3-8.5-8.5-13.6q-1-1.5-2-3c.1-2 .1-2 1-4 2-1.7 2-1.7 4.5-3.4q1.3-.9 2.7-1.8l2.8-1.8q1.3-.9 2.6-1.8 1.1-.8 2.3-1.7 1.1-.8 2.2-1.5.9-.5 1.9-1zm-246 1c4.2 1.5 7.8 3.6 11.6 5.9q1.6 1.1 3.3 2.1c2.5 1.6 4.8 3.2 7.1 5-.4 5.6-2.5 8.6-6 12.8q-.7.9-1.4 1.8c-4.3 5.3-4.3 5.3-6.4 5.7-10 1-20.1.8-30.2.7 4.5-12.3 14.4-23.4 22-34z" fill="#007dcf"/><path d="M511.4 542.7c3.6.3 3.6.3 5.3 1.4 1.9 2.8 1.7 4.9 1.7 8.2q0 1.9 0 3.8-.1 2-.1 4 0 1.9 0 3.9c0 9.7 0 9.7-2.3 12-4.3.3-6.3.4-10-2-.4-2.9-.4-2.9-.4-6.5q0-1.9 0-3.9.1-1 .1-2 0-3.1 0-6.2c0-12.2 0-12.2 5.7-12.7z" fill="#02266e"/><path d="M632.4 665.6q1.5 0 3.1 0c7.7-.1 7.7-.1 11.7 2.4q.9 1 1.8 2c-.5 5.5-.5 5.5-2.7 7.7-4.3 2.4-9 1.8-13.8 1.7q-1.6.1-3.2.1h-3q-1.4 0-2.8 0c-3.3-.7-4.5-1.9-6.5-4.5.1-3.6.1-3.6 1-7 4.5-3 9-2.4 14.4-2.4z" fill="#062b71"/><path d="M383.3 665.5q1.5 0 3 0 1.6 0 3.2.1 1.6 0 3.2-.1c8.8.1 8.8.1 12.3 3.5.5 2.9.5 2.9 0 6-2 2.6-3.2 3.9-6.5 4.5h-2.8q-1.5 0-3.1-.1h-3.2q-1.5 0-3.2 0c-7.8-.1-7.8-.1-11.2-2.4-.9-3.4-.9-3.4-1-7 2.8-3.7 4.7-4.5 9.3-4.5z" fill="#082c72"/><path d="M512 770.6c3 .4 3 .4 4.7 1.6 2.9 4 1.8 10 1.7 14.8q.1 1.8.1 3.6 0 1.8 0 3.5 0 1.6 0 3.2c-.5 2.7-.5 2.7-2.3 4.6-3.1 1.6-5 1-8.2.1-3.1-3.1-2.3-6.6-2.3-10.9q0-1.7 0-3.5 0-1.7-.1-3.5 0-1.6 0-3.3v-3.1c.6-4.4 1.9-6.5 6.4-7.1z" fill="#02266f"/><path d="M318 539q0 2.5 0 5-1 0-2 0c-.3 5.3-.3 5.3 2 10q-.5 1.5-1 3-1.8-2.8-3.6-5.7l-2-3.2c-1.4-3.1-1.4-3.1-1.2-5.9 1.5-3.9 4.1-3.3 7.8-3.2z" fill="#092579"/><path d="M214 795l16 8q-.5 1-1 2l-2.8-1c-3.1-1.1-3.1-1.1-6.2-1q.5 2 1 4c-3.3-3-5.2-5.9-7-10q0-1 0-2z" fill="#f1ae07"/><path d="M561.5 273c3.2 1.3 4.5 3.2 6.5 6q-.9-.5-1.8-1c-2.3-1.2-2.3-1.2-5.2-1q-2 1.5-4 3-1 0-2 0c.3 2 .3 2 1 4q1.5.5 3 1-1 1-2 2c-1.6-1.6-1.6-1.6-3-4 .1-3.8.2-6.1 2.8-9 2.2-1 2.2-1 4.7-1z" fill="#03237c"/><path d="M291 208q0 1.5 0 3l-6 5c-6 5-11.5 10.4-17 16q-1-.5-2-1 4-4.1 8-8.1 1.1-1.2 2.3-2.3c4.6-4.7 9.3-8.8 14.7-12.6z" fill="#f1b406"/><path d="M707 817c-1 2-1 2-4.1 3.1l-2.9.9q0 3 0 6 2 .5 4 1 0 1 0 2-3-1-6-2c-.8-3.3-.8-3.3-1-7 2.7-4.2 5.2-4.4 10-4z" fill="#192577"/><path d="M316 371q.5 1.5 1 3-1.4 2.5-3 5-.2 1-.4 2c-1 3.1-3.2 4.8-5.6 7q-1-.5-2-1 .6-.8 1.2-1.7c3.1-4.7 6.1-9.4 8.8-14.3z" fill="#0b227e"/><path d="M555 643c-1.6 3.9-4 6-7.1 8.8-1.4 1.1-1.4 1.1-2.8 2.4q-1 .9-2.1 1.8-1-.5-2-1 2.9-3 5.9-6c.8-.9.8-.9 1.7-1.7 4.2-4.3 4.2-4.3 6.4-4.3z" fill="#f1f1e5"/><path d="M627 289c0 3 0 3-2.4 5.5q-1.5 1.3-3.1 2.7-.8.7-1.6 1.4-1.9 1.7-3.9 3.4-1.5-.5-3-1 0-1 0-2 1.2-.5 2.5-1.1c4.4-2.1 7.9-5.6 11.5-8.9zm-14 13q1 0 2 0-.5 1-1 2-.5-1-1-2z" fill="#f5b204"/><path d="M401 554q1 .5 2 1-.8.8-1.6 1.5c-4 4-7.8 8.1-11.4 12.5q-1-.5-2-1 2.1-2.4 4.3-4.8 1.1-1.3 2.3-2.6 3.1-3.4 6.4-6.6z" fill="#002368"/><path d="M709 489c4.1.5 6.5 1.8 9.7 4.4q1.1.9 2.3 1.8c2 1.8 2 1.8 4 4.8-3.7 0-4.2-.8-6.9-3.3-2.9-2.6-5.9-5.2-9.1-7.7z" fill="#142679"/><path d="m319 540c4.9 3.9 9.1 8.1 13 13-3.7-0.6-5.2-2-7.6-4.8q-0.9-1-1.8-2.1c-1.5-2-2.6-3.9-3.6-6.1z" fill="#17247b"/><path d="M347 513q1 1 2 2c-5.8 1.1-5.8 1.1-8 0q0 1 0 2l-4 2c2.1-5.9 3.7-6.4 10-6z" fill="#0c217e"/><path d="M437 489q-.5 1.5-1 3-2 .6-4 1-.5 1-1 2-2 0-4 0 0-1.5 0-3c6.6-3 6.6-3 10-3z" fill="#09247d"/><path d="M636 522c3.6 3.5 6.8 7.1 10 11-3 0-3 0-4.8-1.6q-.9-1.1-1.9-2.2c-.9-1.1-.9-1.1-1.9-2.2-1.4-2-1.4-2-1.4-5z" fill="#17267a"/><path d="M408 424l7 3q0 1 0 2 1 0 2 0-.5 2-1 4-.9-.9-1.8-1.9c-2.2-2.2-2.2-2.2-5.2-4.1q-.5-1.5-1-3z" fill="#e8a40d"/><path d="M640 805q1 .5 2 1l-9 9q-1.5-.5-3-1l10-9z" fill="#00246a"/><path d="M668 795q.5 2 1 4l-7 6q-1-.5-2-1 1.5-.5 3-1c1.1-1.8 1.1-1.8 2-4q1.5-2 3-4z" fill="#e3a70e"/><path d="M398 273q-.9.1-1.9.2c-2.3.6-2.3.6-3.2 3.2q-.5 1.3-.9 2.6-1 1.5-2 3c-.7-2.3-.7-2.3-1-5 2.6-3.7 4.5-4.5 9-4z" fill="#122876"/><path d="M384 438q1.5 0 3 0c-.6 3.2-1.8 5.5-3.6 8.3q-.6 1-1.3 2.1-.6.8-1.1 1.6-.5-1-1-2 1.5-2.5 3-5c.7-2.7.7-2.7 1-5z" fill="#0b1f7f"/><path d="M557 274c0 3.4-.5 6.6-1 10q1.5.5 3 1-1 1-2 2c-1.6-1.6-1.6-1.6-3-4 .3-6.3.3-6.3 3-9z" fill="#12207c"/><path d="M523 527c9.4-.2 9.4-.2 14 1q0 .5 0 1l-9 1q0-1 0-2-2.5 0-5 0 0-.5 0-1z" fill="#fbfbef"/><path d="M727 393q1 2 2 4c-1.8.7-1.8.7-4 1-2.3-1.4-2.3-1.4-4-3q3-1 6-2z" fill="#efa80a"/><path d="M731 565q1 .5 2 1c-1.2 2.5-2 4-4 6q-1.5-.5-3-1l5-6z" fill="#1a2e74"/><path d="M548 345q1 1.5 2 3c-1.5 3.8-2 4-6 6l4-9z" fill="#eead08"/><path d="M699 853c2.1.4 2.1.4 4 1q-1.5 1-3 2c-1.2 2.6-1.2 2.6-2 5q-.5 0-1 0c.9-6.9.9-6.9 2-8z" fill="#0e1f7c"/><path d="M275 851c3 3 3 3 3.2 6.2l-.2 2.8q-1 0-2 0l-1-9z" fill="#081f67"/><path d="M618 669l4 1c-.8 1.9-.8 1.9-2 4q-1.5.5-3 1 .5-3 1-6z" fill="#07266c"/><path d="M239 280c1.8 2.8 2 3.9 1.6 7.3q-.3 1.3-.6 2.7c-2.6-3.9-1.8-5.6-1-10z" fill="#e3a410"/><path d="M341 233q1 1.5 2 3-.5 1.5-1 3-1.5.5-3 1-.5-1.5-1-3c1.4-2.2 1.4-2.2 3-4z" fill="#102d72"/></svg>