<svg xmlns="http://www.w3.org/2000/svg" width="1024" height="1024" xmlns:v="https://vecta.io/nano"><path d="M560.1 58.1L567 64q1.3 1.2 2.6 2.4L572 69q1 1 2 2c12.8 13.4 21.3 31.2 21.1 49.9q-.1 1.7-.1 3.5v2.6h3.2q15.1-.1 30.1-.2 7.8 0 15.5 0 7.5-.1 14.9-.1 2.9 0 5.7 0 4 0 8 0 1.2-.1 2.4-.1c6.2.1 10.2 1.6 14.9 5.8 4.2 4.7 4.5 7.7 4.5 14v2.1q0 3.4-.1 6.8 0 2.2 0 4.5 0 5.6-.1 11.2 1.8 0 3.7 0 17.3-.1 34.5-.2 8.9 0 17.8-.1 8.6-.1 17.2-.1 3.2 0 6.5 0c22.9-.2 43.2 2.6 60.3 19.4 12.5 14.5 17.2 28.7 17.1 47.6v3.1q0 5.3 0 10.5 0 3.8 0 7.6.1 9.4.1 18.8 0 11.2 0 22.4 0 27.1 0 54.2 0 12.8 0 25.6 0 43.9 0 87.8 0 2.7 0 5.5 0 2.8 0 5.5 0 5.6 0 11.1 0 1.4 0 2.8 0 44.5.1 89 0 47.1 0 94.2 0 5.2 0 10.4 0 1.2 0 2.6 0 20.4.1 40.9 0 20.6 0 41.2 0 12.2 0 24.4 0 9.2 0 18.3 0 3.7 0 7.4 0 5 0 10 0 1.5 0 2.9c-.1 17.2-7 32.2-19.1 44.2-8.4 7.9-18.1 13.2-29.3 16q-1 .3-2.1.5c-4.1.7-8.2.6-12.5.6q-1.4 0-2.9 0-4.9.1-9.8.1-3.6 0-7.1 0-8.8 0-17.5 0-10.5 0-21 0-25.3.1-50.6.1-8.4 0-16.8 0-44.6 0-89.2 0-10.4 0-20.7.1-1.3 0-2.6 0-41.6 0-83.3 0-42.8.1-85.6.1-6 0-12.1 0h-2.4q-19.1 0-38.2.1-19.3 0-38.5 0-10.5 0-20.9 0-9.5 0-19.1 0-3.4 0-6.9 0c-21.3.2-38-3.9-54.1-18.9-9.5-10.1-17.2-24.1-17.2-38.3q0-1.3 0-2.7 0-1.5 0-3 0-1.5 0-3.2 0-5.3 0-10.6-.1-3.8-.1-7.7 0-9.4 0-18.9 0-11.3 0-22.6 0-27.4 0-54.8 0-12.9 0-25.9-.1-44.3-.1-88.6 0-2.8 0-5.6 0-1.4 0-2.8 0-7 0-14 0-1.4 0-2.8 0-45-.1-90 0-47.5 0-95.1 0-5.2 0-10.5V377q0-20.6-.1-41.3 0-20.8 0-41.6 0-12.4 0-24.7 0-9.3 0-18.5 0-3.7 0-7.5c-.1-21.3 2.6-37.8 17.9-54 18.4-17 39.3-18.9 63.3-18.7q3.2 0 6.4 0 8.5 0 16.9.1 8.6 0 17.3.1 16.8 0 33.7.1 0-1.3-.1-2.6-.1-4.9-.1-9.8 0-2.1-.1-4.2c-.2-8-.3-14.5 4.3-21.4 1.8-1.8 1.8-1.8 3.6-2.9q.8-.6 1.7-1.2c4.2-2.3 8.2-2 12.8-2h2.6q4.1 0 8.2 0 2.8 0 5.7 0 7.5 0 15 0 7.7 0 15.3.1 15.1 0 30.1 0 0-1.1 0-2.3 0-1.4 0-2.9-.1-1.5-.1-3c.5-20.1 12.4-39.8 26.6-53.4 29.1-26.5 75.1-29.4 107.6-7.3z" fill="#fef1d5"/><path d="M560.1 58.1L567 64q1.3 1.2 2.6 2.4L572 69q1 1 2 2c12.8 13.4 21.3 31.2 21.1 49.9q-.1 1.7-.1 3.5v2.6h3.2q15.1-.1 30.1-.2 7.8 0 15.5 0 7.5-.1 14.9-.1 2.9 0 5.7 0 4 0 8 0 1.2-.1 2.4-.1c6.2.1 10.2 1.6 14.9 5.8 4.2 4.7 4.5 7.7 4.5 14v2.1q0 3.4-.1 6.8 0 2.2 0 4.5 0 5.6-.1 11.2 1.8 0 3.7 0 17.3-.1 34.5-.2 8.9 0 17.8-.1 8.6-.1 17.2-.1 3.2 0 6.5 0c22.9-.2 43.2 2.6 60.3 19.4 12.5 14.5 17.2 28.7 17.1 47.6v3.1q0 5.3 0 10.5 0 3.8 0 7.6.1 9.4.1 18.8 0 11.2 0 22.4 0 27.1 0 54.2 0 12.8 0 25.6 0 43.9 0 87.8 0 2.7 0 5.5 0 2.8 0 5.5 0 5.6 0 11.1 0 1.4 0 2.8 0 44.5.1 89 0 47.1 0 94.2 0 5.2 0 10.4 0 1.2 0 2.6 0 20.4.1 40.9 0 20.6 0 41.2 0 12.2 0 24.4 0 9.2 0 18.3 0 3.7 0 7.4 0 5 0 10 0 1.5 0 2.9c-.1 17.2-7 32.2-19.1 44.2-8.4 7.9-18.1 13.2-29.3 16q-1 .3-2.1.5c-4.1.7-8.2.6-12.5.6q-1.4 0-2.9 0-4.9.1-9.8.1-3.6 0-7.1 0-8.8 0-17.5 0-10.5 0-21 0-25.3.1-50.6.1-8.4 0-16.8 0-44.6 0-89.2 0-10.4 0-20.7.1-1.3 0-2.6 0-41.6 0-83.3 0-42.8.1-85.6.1-6 0-12.1 0h-2.4q-19.1 0-38.2.1-19.3 0-38.5 0-10.5 0-20.9 0-9.5 0-19.1 0-3.4 0-6.9 0c-21.3.2-38-3.9-54.1-18.9-9.5-10.1-17.2-24.1-17.2-38.3q0-1.3 0-2.7 0-1.5 0-3 0-1.5 0-3.2 0-5.3 0-10.6-.1-3.8-.1-7.7 0-9.4 0-18.9 0-11.3 0-22.6 0-27.4 0-54.8 0-12.9 0-25.9-.1-44.3-.1-88.6 0-2.8 0-5.6 0-1.4 0-2.8 0-7 0-14 0-1.4 0-2.8 0-45-.1-90 0-47.5 0-95.1 0-5.2 0-10.5V377q0-20.6-.1-41.3 0-20.8 0-41.6 0-12.4 0-24.7 0-9.3 0-18.5 0-3.7 0-7.5c-.1-21.3 2.6-37.8 17.9-54 18.4-17 39.3-18.9 63.3-18.7q3.2 0 6.4 0 8.5 0 16.9.1 8.6 0 17.3.1 16.8 0 33.7.1 0-1.3-.1-2.6-.1-4.9-.1-9.8 0-2.1-.1-4.2c-.2-8-.3-14.5 4.3-21.4 1.8-1.8 1.8-1.8 3.6-2.9q.8-.6 1.7-1.2c4.2-2.3 8.2-2 12.8-2h2.6q4.1 0 8.2 0 2.8 0 5.7 0 7.5 0 15 0 7.7 0 15.3.1 15.1 0 30.1 0 0-1.1 0-2.3 0-1.4 0-2.9-.1-1.5-.1-3c.5-20.1 12.4-39.8 26.6-53.4 29.1-26.5 75.1-29.4 107.6-7.3zM694 203q0 1 0 2 0 1.4 0 2.8-.1 1.5-.1 3.1 0 3.3-.1 6.6l-.1 13.8q0 4.6-.1 9.3 0 1.5 0 3.1c-.1 6.3-.7 10.3-4.6 15.3-6.5 5-12.8 4.6-20.8 4.5q-2.1 0-4.2 0-5.8.1-11.6 0-6.3 0-12.5.1-12.3 0-24.6 0-9.9 0-19.9 0-1.4 0-2.9 0-2.8 0-5.7 0-27.1 0-54.1 0-24.7 0-49.4 0-25.4 0-50.8 0-2.9 0-5.8 0h-2.8q-10 0-19.9.1-12.2 0-24.3-.1-6.2 0-12.4 0-5.6.1-11.3 0-3 0-6 .1c-7.2-.1-12.5-.7-18-5.7-3.3-4.3-4.1-8.3-4.2-13.6 0-1.3 0-1.3-.1-2.7q0-1.5 0-2.9 0-1.5-.1-3-.1-4.8-.2-9.6 0-3.2-.1-6.4-.2-7.9-.3-15.8-19.3-.2-38.6-.3-9 0-17.9-.1-8.7-.1-17.3-.1-3.3 0-6.6 0-4.7-.1-9.3-.1-1.3 0-2.7 0c-8 0-14.2 2.8-20.4 7.8-7.9 9.8-10.5 17.7-10.5 30.2q0 1.6 0 3.1 0 5.2 0 10.4 0 3.7 0 7.5 0 8.1 0 16.3 0 12.1 0 24.2 0 23 0 45.9 0 17.7 0 35.4 0 5-.1 10.1 0 1.3 0 2.6 0 35.6 0 71.2 0 1.4 0 2.7 0 6.8 0 13.6 0 1.4 0 2.8 0 2.7 0 5.4 0 42.6 0 85.1-.1 47.8-.1 95.6 0 5.1 0 10.1 0 1.3 0 2.6 0 20.2 0 40.4 0 20.2 0 40.5 0 12.1 0 24.1 0 9 0 18 0 3.7 0 7.3 0 5 0 9.9 0 1.4 0 2.9c.1 10.6 3.6 19.1 11 26.7 7.4 6.4 15 8.4 24.6 8.3q1.4 0 2.9 0 4.8 0 9.6 0 3.5 0 6.9 0 8.6.1 17.1.1 10.3 0 20.5 0 24.8 0 49.5 0 11.8 0 23.5 0 40 0 80.1 0 2.5 0 5 0 2.6 0 5.1 0 5.1 0 10.1 0h2.6q40.6 0 81.3.1 43 0 86 0 4.8 0 9.5 0h2.3q18.8 0 37.5.1 18.8 0 37.6 0 10.2 0 20.4 0 9.3 0 18.6 0 3.4 0 6.8 0 4.6 0 9.1 0 1.3 0 2.7 0c9.1-.1 18.2-2.8 25-9.1 7.3-7.8 9.8-15.4 9.7-25.9v-3.2q0-5.2 0-10.4 0-3.8 0-7.6 0-8.3 0-16.5 0-12.2 0-24.5.1-21.9 0-43.7 0-19.2 0-38.3 0-1.3 0-2.6 0-5.1 0-10.3.1-48.3 0-96.7 0-42.9 0-85.9.1-48.2 0-96.5 0-5.1 0-10.3 0-1.2 0-2.5 0-19.2 0-38.3.1-21.7 0-43.5 0-12.1 0-24.3 0-9.1 0-18.2 0-3.7 0-7.3 0-5 0-10 0-1.5 0-2.9c-.1-10-3.5-17.8-10.4-25-3.1-2.8-6.2-4.5-10.1-5.9q-1.2-.5-2.5-1c-4.5-1.3-8.6-1.3-13.2-1.2q-1.4 0-2.9 0-4.7 0-9.4 0-3.3 0-6.6 0-8.6 0-17.2.1-8.8 0-17.7 0-17.2 0-34.5.1z" fill="#012b65"/><path d="M544.8 88.3c10.7 8.7 16.3 21.4 17.9 34.9.3 3.5.5 6.9.6 10.4.3 11.4.3 11.4 6.1 20.8q1.3.8 2.6 1.6c.8.5.8.5 1.6 1.1 3.5 1.3 7 1.2 10.7 1.2q1.3 0 2.6 0 4.1.1 8.3.1 2.9 0 5.8.1 7.6 0 15.1.1 9.1.1 18.2.2 13.9.1 27.7.2v73H359v-73l18.6-.1q5.8 0 11.6-.1 9.3 0 18.5-.1 7.5 0 14.9-.1 2.9 0 5.7 0 4 0 8-.1 1.2.1 2.4.1c5.5-.1 8.7-1.5 13.3-4.6 3.3-3.7 5.1-6.1 5.2-11.1q.1-1.2.1-2.5.1-1.3.1-2.6c.9-19.3 3.7-35 18.3-48.9 20.4-16.9 48.1-15.8 69.1-.6z" fill="#1e9eb8"/><path d="M307 611.9h2.1q3.7 0 7.3 0 2.6 0 5.3 0 7.2-.1 14.4-.1 7.8 0 15.6 0 17 0 34 0 10.7 0 21.3 0 29.4 0 58.8 0 1.9 0 3.8 0 1.9 0 3.8 0 3.8 0 7.6 0 1.9 0 3.9 0 30.7 0 61.5-.1 31.5 0 63.1 0 17.7 0 35.4 0 15.1-.1 30.2-.1 7.7 0 15.4 0 7.1 0 14.1 0 2.6 0 5.1 0 3.5 0 6.9 0 2 0 3.9 0c4.5.5 7.9 1.9 11.1 4.9 4.4 5.7 5.3 9.4 4.4 16.5-1.8 4.7-3.6 7.3-8.1 9.6-3.9 1.6-7.2 1.8-11.4 1.8h-2.2q-3.6 0-7.2 0-2.7 0-5.3 0-7.2 0-14.4 0-7.8 0-15.6 0-15.3 0-30.6 0-12.4 0-24.8 0h-3.5q-3.6 0-7.2 0-33.6.1-67.3 0-30.7 0-61.5.1-31.6 0-63.2 0-17.7 0-35.5 0-15.1 0-30.2 0-7.7 0-15.4 0-7 0-14.1 0-2.5 0-5.1 0-3.5 0-6.9 0-1.9 0-3.9 0c-4.9-.7-8.9-2.5-12.2-6.3-2.4-5.1-3.3-9.6-2.4-15.2 1.9-4.6 5.1-7.1 9-10 3.5-1.2 6.3-1.1 10-1.1z" fill="#012c67"/><path d="M405.8 341.1c3.7 3.1 6.7 6.3 8.2 10.9q.1 3.7.1 7.3 0 1.1 0 2.3 0 3.6 0 7.3 0 2.6 0 5.1 0 6.7 0 13.4 0 6.9-.1 13.7 0 13.5 0 26.9 1.5 0 3 0 14-.1 28-.2 7.2 0 14.4-.1 6.9-.1 13.9-.1 2.6 0 5.2 0 3.8-.1 7.5-.1 1.1 0 2.2 0c5.1 0 7.9 1.3 11.8 4.5 4.1 4.5 5.3 7.8 5.2 13.9-.5 4.5-2.4 7.3-5.6 10.3-4.9 3.4-8.4 4.1-14.3 4q-1.2 0-2.3 0-3.9 0-7.7 0-2.6 0-5.3 0-6.9 0-13.9-.1-7.1 0-14.2 0-14 0-27.9-.1v3q.1 13.8.2 27.6 0 7.1 0 14.2.1 6.9.1 13.7 0 2.6 0 5.2 0 3.7 0 7.4.1 1 .1 2.1c-.1 6.1-1.8 10-5.7 14.5-3.8 3.2-6.9 4.1-11.7 4.6-6.2-.6-9.9-3.7-13.7-8.3-2.2-3.4-2.1-6.4-2-10.3v-2.4q0-4 .1-7.9 0-2.8 0-5.5.1-7.2.2-14.4.1-7.3.1-14.7.1-14.4.3-28.8-1.5 0-3.1 0-14.3.1-28.7.2-7.3 0-14.7 0-7.1.1-14.3.1-2.7 0-5.4 0-3.8 0-7.6 0-1.1.1-2.2.1c-5.5-.1-9.6-1.2-13.6-4.9-4.4-5.8-5.2-9.3-4.4-16.5 1.5-4.9 4.5-7.7 9-10.2 3.5-1.4 6.7-1.3 10.4-1.3h2.5q4 .1 7.9.1 2.8 0 5.6 0 7.3.1 14.6.1 7.4.1 14.8.1 14.6.1 29.2.2 0-1.4 0-2.9-.1-13.7-.2-27.3 0-7-.1-14-.1-6.8-.1-13.6 0-2.5 0-5.1-.1-3.6-.1-7.3 0-1 0-2.1c0-5 1.4-7.8 4.5-11.7 5.5-4.8 13.1-5.6 19.8-2.9z" fill="#002b65"/><path d="M308.8 716.5h2.9q4.8 0 9.6 0 3.5 0 7 0 9.4-.1 18.8 0 9.9 0 19.8 0 17.6-.1 35.2 0 16 0 31.9 0 18.6-.1 37.1 0 9.9 0 19.7 0 9.2-.1 18.4 0 3.4 0 6.8 0 4.6 0 9.2 0 1.4 0 2.8 0c5.8 0 9.2 1.1 14 4.5 3.5 3.7 4.3 6.6 4.5 11.5-.2 4.9-1.1 7.8-4.5 11.5-5.2 4.4-9.2 4.6-15.7 4.5q-1.5 0-3 0-4.8 0-9.7 0-3.5 0-7 0-9.6.1-19.1 0-8.9 0-17.9 0-18.8.1-37.5 0-16.2 0-32.3 0-18.7.1-37.4 0-10 0-19.9 0-9.3.1-18.6 0-3.4 0-6.9 0-4.6 0-9.3 0-1.3 0-2.7 0c-5.5 0-8.6-.9-13-4.5-4-4.5-4.4-8.7-4.3-14.5.4-3.8 1.7-5.7 4.3-8.5 5.7-4 9.9-4.6 16.8-4.5z" fill="#002c66"/><path d="M558.9 395.9q1 0 2.1 0 3.5-.1 7-.1 2.6 0 5.1 0 6.9 0 13.7 0 4.3 0 8.6 0 13.5 0 26.9 0 15.5 0 31-.1 12 0 24 0 7.1 0 14.3 0 6.7-.1 13.5-.1 2.4 0 4.9 0 3.4 0 6.8 0 1.8 0 3.8 0c5.7.7 9.7 3.1 13.4 7.4 2.5 4.3 2.5 8.1 2 13-1.8 5.3-4.6 7.8-9 11-3.5 1.2-6.1 1.1-9.8 1.1q-1 .1-2.1.1-3.5 0-7 0-2.5 0-5 0-8.3 0-16.5 0-2.9 0-5.7.1-13.3 0-26.7 0-15.4 0-30.8.1-11.9 0-23.8 0-7.1 0-14.2.1-6.7 0-13.4 0-2.4 0-4.9 0c-17.3.1-17.3.1-24-6.3-3-5.1-4.3-9.3-3.1-15.2 4.3-8.4 9.7-11.1 18.9-11.1z" fill="#022b66"/><path d="M557.4 502.5q1 0 2.1 0 3.6 0 7.2 0 2.6 0 5.2 0 7-.1 14.1 0 7.3 0 14.6 0 12.4-.1 24.7 0 14.3 0 28.5 0 12.3-.1 24.5 0 7.3 0 14.7 0 6.8-.1 13.7 0 2.5 0 5 0 3.5 0 6.9 0h3.9c4.9.7 8.1 2.9 11.3 6.6 2.5 4.1 2.8 8.2 2.2 12.9-1.7 5.6-3.9 8.3-9 11.1-3.2 1.4-6 1.4-9.4 1.4h-2.2q-3.5 0-7.1 0-2.5 0-5.1 0-6.9.1-13.8 0-7.3 0-14.6 0-12.2.1-24.3 0-14.1 0-28.2 0-12.1.1-24.2 0-7.2 0-14.5 0-6.7.1-13.5 0-2.5 0-5 0-3.4 0-6.8 0-1.9 0-3.9 0c-5.2-.8-8.2-3.2-11.7-7.1-2.9-4.2-3.4-8.4-2.7-13.4 2.9-8.1 8.8-11.5 17.4-11.5z" fill="#002b66"/><path d="M381 349q.5 0 1 0v79h-84c2.5-2.5 3.9-2.2 7.3-2.2h2.3q1.1 0 2.3 0 3.9 0 7.8 0 2.7 0 5.4 0 7 0 14.1.1 7.2 0 14.5 0 14.1 0 28.3.1 0-1.4 0-2.8 0-13.2-.1-26.4 0-6.8 0-13.6 0-6.6 0-13.1 0-2.5 0-5 0-3.5 0-7 0-1 0-2.1c0-4.8 0-4.8 1.1-7z" fill="#e2e1d4"/><path d="M414 351c2 2 2 2 2.2 5q0 1.9 0 3.9 0 1.1 0 2.2 0 3.5 0 7.1 0 2.4 0 4.9 0 6.4-.1 12.9 0 6.6 0 13.1 0 13-.1 25.9h2.9q13.3-.1 26.6-.1 6.8 0 13.7-.1 6.6 0 13.2 0 2.5 0 5 0 3.5 0 7.1 0 1 0 2.1 0c3.9 0 6.9.5 10.4 2.2-3.6 1.2-6.9 1.1-10.7 1q-1.1 0-2.4 0-3.8-.1-7.7-.1-2.7-.1-5.4-.1-7-.1-14.1-.2-8.5-.1-16.9-.2-12.9-.2-25.8-.4v-77z" fill="#fbf9e0"/><path d="M694 203h98q0 1.5 0 3h-96v45q-1 1-2 2v-50z" fill="#c8cbc3"/><path d="M180 202q.5 1 1 2-1.5 3-3 6c-.7 3.2-.7 3.2-1 6q-1 0-2 0l-1 7q-.5 0-1 0c.3-8.1 3.1-13.9 7-21z" fill="#0b1951"/><path d="M475 90q.5 1 1 2c-3.6 4.9-3.6 4.9-7 6 1.4-3.4 3.3-5.5 6-8z" fill="#21b1c6"/></svg>