<svg xmlns="http://www.w3.org/2000/svg" width="1024" height="1024" xmlns:v="https://vecta.io/nano"><path d="M520.1 244c4.7 3.3 9 6.9 13.3 10.6 2.7 2.4 5.6 4.6 8.4 6.8q7.4 5.8 14.8 11.7 7.7 6.2 15.6 12.2l17 13.3q4.4 3.5 8.8 6.9 1.8 1.4 3.5 2.8c.9.6.9.6 1.7 1.3q16.7 13.1 33.3 26.2.9.6 1.7 1.3 1.8 1.4 3.6 2.8 4.3 3.4 8.6 6.8 9.4 7.3 18.7 14.9 8.7 7.1 17.7 13.9 4.3 3.3 8.6 6.7 1.8 1.4 3.6 2.8c2.7 2.1 5.2 4.2 7.6 6.5 3.4 3.3 5.7 5.5 10.5 5.5q3.8-.5 7.5-1.3c31.4-5.9 65.2 4.3 91.1 21.9 5.6 3.9 10.5 8.6 15.3 13.4a60.16 60.16 0 0 1 2.6 2.5c12.3 12.7 20.6 28.9 26.4 45.5q.4 1.2.8 2.4c7.5 22.6 6.8 50.1-.8 72.6q-.6 1.9-1.2 3.8c-14.2 38.4-40.8 73.2-64.4 106.3q-2.2 3.1-4.4 6.1c-29.3 42-29.3 42-42.8 44.6-10.3 1.1-18.7-.1-27.1-6.5-5.8-5.5-10-12.4-14.5-19l-8.2-11.5q-1.6-2.2-3.3-4.5-.7-1-1.5-2.1-5.8-8.1-11.6-16.2v1.8q-.1 4.2-.3 8.3 0 1.4 0 2.9c-.2 5.7-.6 9.7-4.7 14-6.8 4.1-14 3.4-21.7 3.3q-2.2 0-4.4 0-6.1 0-12.1 0-6.3 0-12.6 0-12 0-24-.1-13.6 0-27.2 0-28-.1-56-.2 0 1.5 0 3 .1 13.9.2 27.9 0 7.1.1 14.3.1 6.9.1 13.9 0 2.6 0 5.2.1 3.7.1 7.4v2.2c-.1 6.8-2.5 11.8-6.9 16.9-7.5 6.4-14.2 8.5-24 8.5q-1.3 0-2.5 0-4.1 0-8.3 0-2.9 0-5.9 0-8 0-16 0-5.1 0-10.1 0-17.5.1-35 .1-16.3 0-32.7 0-14 .1-28 .1-8.4 0-16.7 0-7.9 0-15.8 0-2.9 0-5.8 0c-21.2.1-21.2.1-30.5-6.4q-.9-.9-1.8-1.9-.9-.9-1.8-1.9c-3.8-5.2-5.1-9.8-5.1-16.1q0-1 0-2 0-3.2 0-6.5 0-2.3 0-4.6 0-6.3 0-12.7 0-5.2 0-10.5-.1-12.5 0-24.9 0-12.9-.1-25.7 0-11 0-22.1 0-6.5 0-13.1 0-6.2 0-12.4 0-2.3 0-4.5c-.1-9.4.2-16.3 6.6-23.7 1.2-.9 1.2-.9 2.3-1.9 1.1-.9 1.1-.9 2.2-1.9 9-6.3 18.1-3.7 29.4-3.7l-1-148-8 5c-6.5 2.4-12.7 3.3-19.1.4-5.9-3.2-9.8-8-11.9-14.4-1.1-8.4.2-15 5-22 5.2-6.6 12.5-11.5 19.1-16.6q4.5-3.4 8.9-6.9 1.8-1.4 3.5-2.8 3.4-2.7 6.9-5.3l30.9-24.2q12.2-9.5 24.4-19 7.1-5.6 14.3-11.2 10.7-8.3 21.3-16.7 4.4-3.4 8.7-6.8 1.8-1.4 3.5-2.7l35-27.5q.9-.7 1.8-1.4 1.7-1.4 3.4-2.8 4.5-3.5 9-7 3.6-2.8 7.2-5.7 2.7-2.1 5.4-4.3c12-9.4 26.3-11.9 39.8-4.1z" fill="#135684"/><path d="M506 289c2.9 1.7 2.9 1.7 5.8 4l1.5 1.2q2.4 1.9 4.7 3.8l2.4 1.9 11.3 9.1q2 1.7 4 3.3 1.1.8 2.1 1.7 6.5 5.3 13.1 10.4c6 4.7 11.9 9.5 17.8 14.4q7.6 6.3 15.4 12.4 5.3 4.1 10.4 8.3 6.2 5.1 12.5 10 7.8 6.1 15.4 12.4 3.6 3 7.3 5.8 4.5 3.7 9 7.3 1 .8 2 1.6 2 1.7 4.1 3.4 5.1 4.2 10.3 8.2c1 .7 1 .7 2 1.5q1.9 1.4 3.7 2.8c1.5 1.1 2.8 2.3 4.2 3.5 0 3 0 3-1.2 4.5q-.9.7-1.8 1.5-.9.9-1.9 1.7-1 .9-2 1.9C634.6 447 618.9 474.7 617 507c-1.7 42.7 16.7 74.1 39 109 7 11 7 11 7 50H518l-1-58c-4.2-10.7-4.2-10.7-12.8-16.9-7.6-2.9-15.6-2.5-23.6-2.5q-2.5 0-5-.1-6.7 0-13.4 0-7.1 0-14.1-.1-13.3 0-26.6-.1-15.1 0-30.2-.1-31.2-.1-62.3-.2-.5-31.6-.7-63.2-.1-14.7-.3-29.3-.2-12.8-.2-25.6 0-6.8-.2-13.6-.1-6.3-.1-12.7 0-2.3 0-4.7c-.4-11.4-.4-11.4 2.8-15.6 3.5-3.7 7.5-6.5 11.7-9.3q2.2-1.7 4.4-3.4 1.9-1.5 3.8-2.9c6.7-5 13.2-10.3 19.6-15.6L390 376l22-17.5c7.8-6.4 15.8-12.6 23.7-18.8q10.2-7.9 20.1-16.1c6.2-5 12.5-9.9 18.8-14.7 5.9-4.5 11.6-9.1 17.3-13.8q.9-.7 1.9-1.5.8-.7 1.7-1.4c3.7-3 5.7-3.8 10.5-3.2z" fill="#43a0c9"/><path d="M808.4 435.1c8.8 7.2 16.5 15.2 22.6 24.9q.9 1.3 1.8 2.7c3.5 5.7 6.2 11.4 8.4 17.7q.4 1 .8 2c3.7 11.1 5.5 21.8 5.4 33.4q0 3.1.1 6.1c.2 33.7-22.5 64.3-40.5 91.1q-3 4.4-5.9 8.9c-6.6 10-13.3 19.9-20.5 29.5-2.9 3.9-5.6 7.9-8.4 11.8q-6.7 9.6-13.7 19-.9 1.2-1.8 2.5c-9 12.1-9 12.1-12.7 13.3-5.8.6-8.5-.4-13-4-1.9-2.2-3.5-4.7-5.1-7.1q-1.4-2.2-2.8-4.3-.8-1.2-1.5-2.3c-2.6-3.8-5.4-7.6-8.1-11.3l-16.1-22.9q-2.2-3.3-4.5-6.6c-7.9-11.4-15.4-22.9-22.9-34.5q-.8-1.2-1.6-2.4c-21.1-33-40.1-64.1-33.3-104.9 6.5-29.5 22.4-52.9 47.7-69.5 37.6-23.2 90.9-20.7 125.6 6.9zM301.8 605.4q1 0 2 0 3.3 0 6.6.1 2.2 0 4.5 0 6 .1 12 .2 6.1 0 12.2.1 11.9 0 23.9.2 0 .9 0 1.8.1 9.4.3 18.9 0 3.5 0 7 .1 5 .2 10.1 0 1.6 0 3.2c.1 7 .1 7 3.5 13 3.2 2.2 4.1 2.3 7.9 2.3q1.4 0 2.9 0 1.6 0 3.3 0 1.6 0 3.3.1 3.4 0 6.9 0 5.3 0 10.6 0 3.4.1 6.8.1 1.6 0 3.2 0c5.9 0 5.9 0 11.2-2.4 2.8-3.1 3-4.9 3.1-8.9q0-1.5.1-3 0-1.7 0-3.3c0-1.7 0-1.7.1-3.4q.1-5.3.2-10.6 0-3.6.1-7.2.2-8.9.3-17.7 12.9-.2 25.9-.3 6 0 12-.1 5.8-.1 11.6-.1 2.2 0 4.5 0 3.1-.1 6.2-.1h3.5c3.3.6 5.7 1.3 8.2 3.6 2.7 4.8 1.9 10.8 1.8 16.2q.1 2.2.1 4.3 0 6-.1 11.9 0 6.3 0 12.5 0 10.4 0 20.9-.1 12-.1 24.1 0 11.6 0 23.2 0 5 0 9.9 0 5.9 0 11.7-.1 2.1 0 4.2 0 3-.1 5.9v3.3c-.7 3.8-1.6 5.4-4.5 7.9-2.9.5-5.2.7-8.1.6q-1.3 0-2.5 0-4.2.1-8.3 0-3 0-6 .1-8.1 0-16.2-.1-8.4 0-16.9 0-14.2 0-28.4 0-16.4 0-32.8 0-15.8 0-31.6 0-6.8 0-13.5 0-7.9 0-15.8-.1-2.9 0-5.8 0-4 .1-8 0h-2.3c-3.4 0-5.5-.3-8.3-2.1-1.9-3.1-2-5-2-8.5 0-1.9 0-1.9-.1-3.9q.1-2.1.1-4.1 0-2.2-.1-4.5 0-5.9 0-11.9 0-5 0-10 0-11.8 0-23.6 0-12.2 0-24.3 0-10.5 0-20.9 0-6.3-.1-12.5 0-5.9.1-11.7 0-2.2 0-4.4-.1-2.9 0-5.8 0-1.7 0-3.4c1.4-6.8 6-8.5 12.4-8.5z" fill="#faba48"/><path d="M470.6 446.7q1.1 0 2.3 0 3.7 0 7.4 0 2.6 0 5.1 0 5.4 0 10.9 0 6.9 0 13.8-.1 5.3 0 10.7 0 2.5 0 5.1 0 3.5 0 7.1 0h2.1c6.4.1 11.8 1.6 16.7 5.7 4.3 5.2 5.6 9.7 5.6 16.3q0 1.1 0 2.3 0 3.6 0 7.2 0 2.6 0 5.1.1 5.4 0 10.7 0 6.8.1 13.6 0 5.3 0 10.6 0 2.5 0 5c.1 18.1.1 18.1-6 24.4-4.9 4.4-9.1 4.7-15.3 4.7q-1.2 0-2.5 0-3.9 0-7.9 0-1.4 0-2.7.1-7.2 0-14.4 0-7.4 0-14.8.1-5.7 0-11.4 0-2.8 0-5.5.1-3.8 0-7.6 0-1.1 0-2.3 0c-5.4 0-8.6-1.4-13.1-4.5-4.5-5-5.2-8.1-5.2-14.7q0-1.1 0-2.4 0-3.9 0-7.8 0-1.4-.1-2.7 0-7.1 0-14.3 0-7.3-.1-14.6 0-5.7 0-11.3 0-2.7-.1-5.4 0-3.8 0-7.6 0-1.1 0-2.3c0-5.1 1.3-7.9 4.5-11.9 5.5-5.1 10.3-6.3 17.6-6.3z" fill="#fdeac8"/><path d="M739.9 466.6q1.4 0 2.8 0c14.1 0 24.9 5.6 35 15.1 10 10.1 15.1 22.4 15.6 36.6-.3 14.2-5.3 26.9-15.1 37.1-11.4 10.6-24.5 15.2-40.1 15-14.9-.6-26.9-6.7-37.1-17.4-11.3-13.6-13.2-27.9-12-45 2.2-12.1 9.5-23.3 19-31 10.4-7 19.4-10.5 31.9-10.4z" fill="#135485"/><path d="M506 289c2.9 1.7 2.9 1.7 5.8 4l1.5 1.2q2.4 1.9 4.7 3.8l2.4 1.9 11.3 9.1q2 1.7 4 3.3 1.1.8 2.1 1.7 6.5 5.3 13.1 10.4c6 4.7 11.9 9.5 17.8 14.4q7.6 6.3 15.4 12.4 5.3 4.1 10.4 8.3 6.2 5.1 12.5 10 7.8 6.1 15.4 12.4 3.6 3 7.3 5.8 4.5 3.7 9 7.3 1 .8 2 1.6 2 1.7 4.1 3.4 5.1 4.2 10.3 8.2c1 .7 1 .7 2 1.5q1.9 1.4 3.7 2.8c1.5 1.1 2.8 2.3 4.2 3.5 0 3 0 3-2 5q-1.2 1.1-2.5 2.2-1.2 1.1-2.5 2.2-1 .8-2 1.6c-5.6-3-10.2-6.4-15-10.5q-2.3-1.9-4.5-3.8-1.1-.9-2.3-1.9-4.9-4-9.9-8-.9-.7-1.8-1.5-5.3-4.2-10.7-8.3l-19.5-15.8q-6.6-5.5-13.3-10.7c-6.7-5.2-13.2-10.6-19.7-15.9-9.7-8.1-19.4-16-29.4-23.7q-5.4-4.3-10.8-8.7-1.3-1.1-2.6-2.2-2.4-1.9-4.7-3.9-1.1-.8-2.1-1.7-.9-.7-1.8-1.4c-2.9-1.5-4.6-1.5-7.9-1-2.8 1.6-5.1 3.7-7.5 5.8q-2.1 1.8-4.3 3.6-1 .9-2.1 1.9c-3 2.5-6 4.8-9.1 7.2q-7.6 5.9-15 12-8.3 6.8-16.8 13.4-6.4 5-12.7 10.1-7.2 5.8-14.4 11.4a572.33 572.33 0 0 0-17.1 13.8l-16.8 13.3L371 411l-24.1 19.1q-6.6 5.2-13 10.5C332 442 332 442 330 442v146q-.5 0-1 0-.5-31.6-.7-63.2-.1-14.7-.3-29.3-.2-12.8-.2-25.6 0-6.8-.2-13.6-.1-6.3-.1-12.7 0-2.3 0-4.7c-.4-11.4-.4-11.4 2.8-15.6 3.5-3.7 7.5-6.5 11.7-9.3q2.2-1.7 4.4-3.4 1.9-1.5 3.9-2.9c6.6-5 13.1-10.3 19.5-15.6L390 376l22-17.5c7.8-6.4 15.8-12.6 23.7-18.8q10.2-7.9 20.1-16.1c6.2-5 12.5-9.9 18.8-14.7 5.9-4.5 11.6-9.1 17.3-13.8q.9-.7 1.9-1.5.8-.7 1.7-1.4c3.7-3 5.7-3.8 10.5-3.2z" fill="#3287b3"/><path d="M760.2 490.8c7.9 6.2 13 13.4 14.2 23.6.3 10.6-1.7 18.7-8.5 27-7.2 7.5-15.3 10.7-25.5 10.9-10.8-.1-17.4-3.4-25.2-10.8-6.8-7.7-8.6-16-8.5-26 .8-9.2 5.3-17.5 12.3-23.5 13.6-9.3 27-9 41.2-1.3z" fill="#fdeaca"/><path d="M167 771.6q1.8 0 3.7 0 2.1 0 4.2 0 2.2 0 4.4 0 5.9 0 11.8 0 6.2 0 12.4 0 10.4 0 20.8.1 12.1 0 24.1 0 11.6 0 23.2 0 4.9 0 9.9 0 5.8 0 11.6 0 2.1 0 4.3 0 2.9 0 5.8 0 1.6 0 3.3 0c2.5.3 2.5.3 4.5 2.3.3 3.5.3 3.5 0 7-3.5 2.3-4.8 2.3-8.9 2.3h-3.8q-2 0-4.1 0-2.2 0-4.3 0-5.9 0-11.8 0-4.9 0-9.8 0-11.6 0-23.2 0-11.9 0-23.9 0-10.2.1-20.5.1-6.1 0-12.3 0-5.7 0-11.5 0-2.1 0-4.2 0-2.9 0-5.8 0h-3.2c-2.7-.4-2.7-.4-4.5-1.8-1.7-2.3-1.6-3.8-1.2-6.6 2.5-3.5 4.8-3.4 9-3.4z" fill="#115189"/><path d="M381 606h28v41h-28v-41z" fill="#fab74a"/><path d="M424.6 706.6q1.7 0 3.5 0h3.7q1.9 0 3.9 0 4-.1 8.1 0 5.2 0 10.3-.1 5 0 9.9 0 1.9 0 3.8 0 1.7 0 3.5 0h3c3.4.6 4.6 1.8 6.7 4.5.5 3.5.5 3.5 0 7-2.1 2.7-3.3 3.9-6.6 4.5h-3q-1.7 0-3.4.1l-3.7-.1q-1.9 0-3.8 0-4 0-7.9 0-5.1 0-10.2 0-4.8.1-9.7 0-1.8 0-3.7.1-1.6-.1-3.4-.1-1.5 0-3 0c-3.3-.6-4.5-1.9-6.6-4.5-.7-2.9-.3-4.9 0-8 2.3-3.4 4.6-3.4 8.6-3.4zm-239.2 33.3q1.4 0 2.9 0 1.4-.1 2.9-.1 4.9 0 9.7 0 3.4 0 6.7 0 7 0 14.1 0 9 0 18.1 0 6.9 0 13.8 0 3.4 0 6.7 0 4.7-.1 9.3 0 1.4-.1 2.8-.1 1.3 0 2.6.1 1.1 0 2.2 0c1.8.2 1.8.2 3.8 2.2-.6 4.6-.6 4.6-2 6q-4.6.2-9.3.1l-2.9.1q-4.9 0-9.7 0-3.4 0-6.7 0-7 0-14.1 0-9 0-18.1 0-6.9 0-13.8 0-3.4 0-6.7 0-4.7.1-9.3 0l-2.8.1q-1.3 0-2.6-.1-1.1 0-2.2 0c-1.8-.2-1.8-.2-3.8-2.2.8-6.4 2.2-6.1 8.4-6.1z" fill="#115189"/><path d="M195 707.8h2.5q4.1 0 8.3 0 2.9 0 5.8 0 6 0 12.1 0 7.7-.1 15.5-.1 5.9 0 11.9 0 2.8 0 5.7 0 4-.1 8-.1 1.2 0 2.4 0c5.3.1 5.3.1 7.8 1.8 1 1.6 1 1.6.7 4.2-.7 2.4-.7 2.4-1.7 3.4q-4 .2-8.1.2h-2.5q-4.2 0-8.5 0-2.9 0-5.8 0-6.1 0-12.2 0-7.9.1-15.8.1-6 0-12 0-2.9 0-5.8 0-4.1.1-8.1.1-1.2 0-2.4 0c-2.3 0-2.3 0-5.8-.4-2-3-2-3-1.7-5.6 1.4-4.9 5.3-3.6 9.7-3.6z" fill="#135684"/><path d="M447.6 732.5h2.5q2.6 0 5.2 0 4 0 8 0 2.6 0 5.1 0l2.5-.1c3.5.1 5.7.3 8.6 2.4 2.2 3.3 2.1 5.4 1.5 9.2-2.9 3.1-4.6 3.9-8.8 4.5q-2.2.1-4.4.1h-2.4q-2.4 0-4.9 0-3.7 0-7.5 0-2.4 0-4.8 0-1.1 0-2.3.1c-3.9-.1-5.7-.6-8.9-3-2-2.7-2-2.7-2.6-5.8 1.4-7.3 6.7-7.5 13.2-7.4z" fill="#125288"/></svg>