<svg xmlns="http://www.w3.org/2000/svg" width="1024" height="1024" xmlns:v="https://vecta.io/nano"><path d="M287 73q1 .3 2.1.7c30.6 10.2 56.8 28.2 80.9 49.3q1.2 1 2.4 2.1c5.7 4.9 11 10.2 16.3 15.5q1.1 1 2.1 2.1c4.1 4 7.9 8.2 11.6 12.5 2.8 3.2 5.6 6.3 8.5 9.4 2.1 2.4 2.1 2.4 4 5.2 1.9 2.5 1.9 2.5 4.8 2.4q1.7-.4 3.3-.7 1.9-.3 3.8-.7 1-.2 2-.4l11.9-1.9q1.3-.2 2.6-.4 8.7-1.3 17.4-2.2 1.1-.1 2.2-.3c13.1-1.3 26.2-1.8 39.4-1.8q1.1 0 2.2 0c21.5.1 42.5 1.9 63.7 5.3 1.5.2 1.5.2 3 .5q2.7.4 5.4.9c4.8.9 4.8.9 9-1.3l2-2.6q1-1.3 2.1-2.6 1.1-1.5 2.3-3c5-6 10.4-11.6 15.9-17.1 1.2-1.1 1.2-1.1 2.3-2.3 4.8-4.7 9.7-9.2 14.8-13.6q1.5-1.3 3.1-2.7c32.4-27.8 77.5-58.3 122.2-56.6 11.2 1 21.3 7 28.9 15.1 25.9 32.7 22.1 85.8 17.7 124.8-3.7 31.3-10.6 63-23 92.1-1.8 4.6-.2 8.6 1.7 13q1 1.9 2 3.9c10.9 22.3 16.5 46.8 18.4 71.4q.1 1.1.2 2.2c3.9 51.1-5.9 102-31.2 146.8q2.7 2.5 5.5 5.1l1.7 1.5q4.4 4 8.9 7.9c10.8 9.4 18.8 20.9 26.9 32.5q.6.9 1.3 1.9C853.2 649.2 873.7 724 881 799l.2 2.2c2.8 29.1 2.6 63-16.1 87q-2 2.4-4.1 4.8-.9 1-1.8 2.1c-16.5 17.8-40.8 24.3-64.2 25.9-3.5.1-7 .1-10.4.1q-1.5 0-3.1 0-4.9 0-9.9 0-3.6 0-7.2 0-7.9 0-15.7 0-11.7 0-23.4.1-22.1 0-44.1 0-17.1 0-34.1 0-4.9 0-9.8 0-1.2 0-2.5 0-34.3 0-68.6 0-1.3 0-2.7 0-6.5 0-13.1 0-1.3 0-2.6 0-2.6 0-5.3 0-40.9 0-81.9 0-46 0-92.1 0-4.9 0-9.8 0-1.2 0-2.4 0-19.5 0-38.9 0-19.5.1-39.1 0-11.6 0-23.2.1-8.7 0-17.4-.1-3.4 0-6.9.1c-30.6 0-58.1-3-80.8-25.3-11.8-12.1-17.8-26.7-21-43-.3-1.6-.3-1.6-.7-3.2-15.2-83.7 21.9-195.3 68.7-263.8 10.5-15.1 21.8-30.8 36.4-42.1.8-.9.8-.9 1.6-1.9-.4-3.6-1.5-6.4-3.2-9.6q-.7-1.4-1.3-2.7-.8-1.5-1.5-2.9c-9.8-20.1-16.6-40.9-21-62.8q-.3-1.5-.6-3.1c-9-45.5-6.9-104.9 16.8-145.9 3-5.3 3.3-9.1 1.8-15-1-3.2-2.3-6.2-3.6-9.2-22.1-55.6-34.4-135.5-10.1-192.4 6.3-13.8 14.9-23.2 28.7-29.4 14.3-4.8 32.2-.7 46 4z" fill="#01235b"/><path d="M312.3 114.8c12 7.2 23.2 15.4 33.7 24.6 2.7 2.4 5.5 4.5 8.2 6.7 5.2 4.2 9.9 8.8 14.5 13.5q1.1 1 2.2 2.1c4 4.1 7.8 8.2 11.6 12.5 1.9 2.3 3.9 4.4 5.9 6.6 4 4.5 7.8 9.1 11.6 13.9 3.8 4.3 6.3 5.8 12.3 6.3 5.5 0 10.8-1.2 16.1-2.2 9.9-1.9 19.7-3.4 29.6-4.5l3.1-.4c39-4.2 77.6-1.7 116 5.7q1.5.3 2.9.6a23.81 23.81 0 0 1 2.6.5c5.4.7 10.5.7 15-2.6q1.2-1.5 2.4-3.1 1.8-2.3 3.6-4.5 1-1.3 2.1-2.7c7.3-8.9 15.4-17 23.5-25.2 1.2-1.1 1.2-1.1 2.3-2.2 4.7-4.7 9.5-9.1 14.5-13.4q1.3-1.2 2.7-2.4c24.6-21.1 60.7-46.5 94.3-47.1 1.1 0 1.1 0 2.1-.1 5.1.1 8 1.4 11.9 4.6 19 22.9 15.8 65.4 13.5 93.3-.7 6.3-1.5 12.5-2.5 18.7l-.4 2.9c-4 26.1-10.4 52.9-21.4 77.1-2.2 5.4-2.2 10.3-1.2 16 1.4 3.2 2.9 6.2 4.6 9.3 15 27.9 18.6 60.8 18.6 92q0 1.1 0 2.3c0 11.2-.2 22.3-2.2 33.4q-.2 1.4-.5 2.8c-8.3 47.3-26.9 87.1-59.7 122.2q-3.3 3.6-6.5 7.3c-7.9 9-16.7 16.5-26.3 23.7q-1 .7-2 1.5c-44.1 32.6-98.9 51.6-154 52.5q-1.8 0-3.6.1c-53 .8-104.2-6.6-151.4-32.1q-1.8-.9-3.6-1.8c-14.9-7.4-28.8-17.4-41.4-28.2q-1.1-.9-2.3-1.9c-11.8-10.4-23-21.7-32.7-34.1q-1.4-1.7-2.9-3.5c-29.3-35.3-47.1-84.7-47.3-130.5q0-1.3 0-2.8c-.2-36.3 1.5-73.9 20.6-106.1 3.8-7.1 3.7-14.1 1.6-21.8-1.1-3.4-2.4-6.7-3.7-10l-4.1-11.3q-.4-1.1-.8-2.3c-7.2-20-11.7-40.6-14.4-61.7q-.2-1.2-.4-2.5c-4.3-32.1-6.4-75.1 11.4-103.5 15.6-18.5 53.9 2.8 70.2 11.8z" fill="#f99e01"/><path d="M749 560c36.3 16.5 64.5 87.3 77.7 121.5 6.1 16.2 11.4 32.7 15.3 49.5.4 1.5.4 1.5.7 3.1 4.3 18.9 7.2 37.7 9.3 56.9.1 1.1.1 1.1.3 2.3.6 6 .9 11.9.9 18q.1 1.4.1 2.9 0 3 0 6 0 3 .1 6c.2 18.6-1.2 35.6-14.4 49.9-12.5 12-28.7 16.2-45.6 16.2q-1.6 0-3.1 0-5.2 0-10.3 0-3.8 0-7.5 0-8.1 0-16.3 0-12 0-24.1 0-22.8 0-45.6 0-17.6 0-35.3 0-5 0-10.1.1-1.3 0-2.6 0-35.4 0-70.9 0-1.3 0-2.7 0-6.8 0-13.6 0-1.3 0-2.7 0-2.7 0-5.4 0-42.4 0-84.7 0-47.6.1-95.2.1-5.1 0-10.1 0-1.3 0-2.6 0-20.1 0-40.2 0-20.2 0-40.4 0-12 0-24 0-8.9 0-17.9 0-3.6 0-7.2 0c-19.5.1-35.9-1.7-50.8-15.8-15.9-17-15.8-39-15.3-61 2.5-60.1 17.1-119.5 43.2-173.7q.5-1.1 1.1-2.3c11.8-24.8 27.3-53 47.9-71.7q1.5 0 3 0a11.08 11.08 0 0 0 .9 1.9c6.9 14.8 14.2 29 22.4 43.1q1.9 3.3 3.7 6.7c5.5 9.9 11.5 19.3 17.8 28.7q1.5 2.2 3 4.4 4.1 6.1 8.2 12.2 1 1.4 2 2.9c6.7 9.9 13.9 19.2 21.5 28.3 2.1 2.5 4.1 5 6.1 7.5 8.4 10.2 17.6 19.6 26.9 28.9q1.5 1.6 3.1 3.2c6.8 6.9 13.8 13.2 21.4 19.2q2.7 2.3 5.4 4.7c74.8 62.3 172.5 83.3 283.5 88.7q1.4.1 2.7.1c4 0 5.9-.2 9.4-2.4 3.1-3.2 3.9-5 4.4-9.5-.5-4.3-1.7-6.3-4.4-9.6-3.1-2.1-4-2.3-7.6-2.5l-2.8-.2-3.1-.2q-3.2-.3-6.5-.5-1.7-.1-3.5-.2c-44.9-3.1-89.6-7.7-132.7-21.1q-1.4-.4-2.9-.9-1.3-.4-2.7-.8-1.2-.4-2.4-.8c-1.8-.8-1.8-.8-2.8-2.8q1.3-.5 2.6-1.1C552 784 578.1 768.4 602 749l3.1-2.5q4-3.2 7.9-6.5 1.5-1.3 3.1-2.6c8.2-6.9 16-14.2 23.5-21.8q2.8-2.8 5.5-5.5c5.9-5.9 11.6-11.8 16.9-18.1q1.3-1.4 2.6-2.9c22.5-26.1 42.1-55.3 59.4-85.1q.8-1.4 1.7-2.9L749 560zm-428 74q3.2 1.6 6.4 3.2 1.1.5 2.2 1 6.6 3.4 13.2 6.9c32.8 17.4 66.1 29 102.8 35.1q1.3.2 2.7.5c18.4 2.9 36.9 3.7 55.5 3.6q1.5 0 3.1 0c15.9 0 31.4-.7 47.1-3.3q2.2-.3 4.4-.6c36.2-5.4 77.5-18.6 106.4-41.7 2.2-1.7 2.2-1.7 4.2-2.7-1.5 4.3-3.8 7.8-6.4 11.5q-.7.9-1.4 1.9c-3.8 5.2-7.9 10.2-12.2 15.1q-2.9 3.4-5.7 6.7c-6.7 8-13.7 15.6-21.1 22.9q-2.6 2.6-5.2 5.2c-6.7 6.7-13.6 12.8-21 18.7q-1.7 1.4-3.3 2.8c-28.6 25-62.2 44-97.7 57.2q-1.6.6-3.3 1.2-1.6.6-3.2 1.2-1.4.5-2.8 1c-5.7 1.3-10.1-1.4-15-3.9q-1.1-.5-2.1-1.1C443 763.3 419.4 747.1 398 728q-1.3-1.1-2.6-2.3-3.7-3.3-7.4-6.7-1.5-1.4-3.1-2.8C373.6 706 363.5 694.9 354 683q-1.4-1.7-2.7-3.3C321 642.8 321 642.8 321 634z" fill="#2ba6b5"/><path d="M498.7 421.6q3.3 0 6.5-.1c14.3-.1 28.6 2.4 39.7 12q1 1.2 2.1 2.5.9 1 1.8 2.1c2.2 5.3 2.2 11 .3 16.4-4.8 9.3-12.1 14.4-20.9 19.6q-1.6.9-3.2 1.9-1.7.8-3.4 1.7c-3 2.2-3 2.2-3.2 6.2q.1 2.2.2 4.3.1 2.1.2 4.2l.2 3.6c7.4 3.8 14.8 7.4 22.3 10.8q1.1.5 2.2.9 4.3 2 8.6 3.9 3.3 1.4 6.5 2.9.9.4 1.9.8c5.6 2.5 10.9 5.4 14.4 10.5 1.8 5.2 1.8 9.2 0 14.4-2.8 4.2-6 7.2-10.9 8.8-5.7.3-9.5-.2-14.8-2.5q-.9-.4-1.9-.8-3.2-1.3-6.3-2.7-2.3-1-4.7-2-4.9-2.1-9.8-4.2-1.2-.5-2.5-1.1-2.5-1.1-5.1-2.2-3.7-1.6-7.4-3.2-1.1-.5-2.3-1c-6-2.5-10.5-3.3-16.8-.9q-1.9.9-3.8 1.9-1 .5-2.1 1-3.2 1.7-6.5 3.3c-34.6 17.5-34.6 17.5-44.2 14.8-4.8-2.1-7.7-4.6-9.8-9.4-.7-5.2-.7-9.5 1.5-14.4 5.5-5.8 13-9 20.1-12.4q2.8-1.3 5.5-2.6 4.3-2.1 8.6-4.1 4.2-2 8.3-4 1.3-.6 2.6-1.2 1.2-.6 2.4-1.2 1.1-.5 2.1-1c2.7-1.6 4.5-3.1 5.6-6 .3-2.2.5-4.3.6-6.5q.1-1.1.1-2.3c-.6-3.3-2-4.9-4.4-7.3-2.9-1.8-2.9-1.8-6.1-3.3-9-4.6-16.7-10.4-20.9-19.7-1.6-5.3-2.2-10.9-.2-16.2 5.4-8.4 15.8-12 25.1-14.5 7.3-1.6 14.4-1.8 21.8-1.7zm-94.6-75.1c6.9 5.5 11.6 13 13.9 21.5 1.3 12.5.6 24.9-6.8 35.4-6 7.1-12.6 12.7-22.2 13.8-10.5.9-18.4-.1-27-6.7-7.7-7-11.5-16.9-12.3-27.2-.4-12.3 2.2-22.8 10.3-32.3 12.3-11.7 29.8-14.5 44.1-4.5zm211.2-5.9h2.3c9.7.3 16.4 3.5 23.4 10.2 3.1 3.4 5.1 7 7 11.2q.5 1 1 2c4.2 10.3 2.9 22.9-.7 33.2-3.9 8.6-10.7 15.5-19.5 19.1-10.8 2.8-20.2 1.2-29.8-4.2-4.2-2.9-7.2-5.9-10-10.1-.6-.9-.6-.9-1.2-1.7-6.2-9.8-6.4-23.5-4.1-34.6 3.4-10 10-18.5 19.5-23.3 4-1.7 7.8-1.9 12.1-1.8z" fill="#01235c"/></svg>