<svg xmlns="http://www.w3.org/2000/svg" width="1024" height="1024" xmlns:v="https://vecta.io/nano"><path fill-rule="evenodd" d="M921 268l.1 307.7q0 68.2 0 136.4 0 28.3 0 56.7 0 21 0 41.9 0 12.6 0 25.1 0 8.3 0 16.6 0 3.8 0 7.6 0 5.3 0 10.6 0 1.6 0 3.2 0 1.5 0 2.9 0 1.4 0 2.7c0 12.3-5.8 24-12.1 34.4q-1 1.6-2 3.2c-10 16.4-25.3 27.5-43.5 33.2q-1.3.4-2.5.8c-13.1 4.4-25.6 4.6-39.4 4.5q-5 0-10.1 0-8.9 0-17.8 0-13.3 0-26.6 0-22.4 0-44.9 0-22.3 0-44.6 0-1.4 0-2.8 0-5.6 0-11.2 0-52.8 0-105.6-.1-47 0-94 0-3 0-6 0-1.6 0-3.1 0-7.5 0-15 0h-3q-39.4 0-78.7 0-1.5 0-2.8 0-5.7-.1-11.3-.1-19.6 0-39.1 0-25.3 0-50.6 0-13.4 0-26.8 0-9 0-18 0-4.2 0-8.3 0-5.7 0-11.5 0-1.7 0-3.4 0c-20.3 0-40.3-7.9-55-21.9q-1.2-1.2-2.4-2.4c-8.7-8.7-15.3-18.4-19.9-29.8q-.5-1.2-1-2.4c-5.8-24.2-5.8-24.2-5.3-49.3q0-3.6 0-7.2-.1-9 0-18 0-12.1 0-24.2 0-20.4 0-40.8 0-20 0-40v-56l.1-94.9.1-300.4h818z" fill="#fef3b7"/><path d="M430.3 324.8q1.6-.1 3.3-.1c25.3.1 49.8 1.8 74.4 8.3q1 .3 2.1.5c17 4.6 34.6 12.9 47.9 24.5q1.3 1.1 2.6 2.1c16.8 14.4 26.8 33 35.1 53.1 3.3 7.7 6.4 14.6 12.3 20.8q.9.9 1.8 1.9c8.6 8.3 20.1 10.9 31.5 13.2q2 .4 4 .8 4.6 1 9.2 1.9 15.3 3.3 30.6 6.6 5.6 1.2 11.1 2.3 3.5.8 6.9 1.5 1.6.4 3.2.7c12.3 2.7 22.4 6.6 30.2 17.1 6 10.1 4.8 25.2 2.1 36.2-7.9 25.7-19 53.2-36.6 73.8 1.5 3.4 3.4 5.7 6 8.4 29.8 32.7 41.9 76 40 119.6-.7 11.1-3.5 21.5-7 32q-.3 1-.6 2c-6.1 18.3-15.4 34.9-27.4 50 6.5 7.7 13.4 14.7 21.1 21.3 1.9 1.7 3.6 3.4 5.4 5.2 2.3 2.4 4.7 4.6 7.2 6.7 4.2 3.6 8 7.5 11.9 11.4 3.4 3.5 7 6.8 10.9 9.9 2.7 2.7 3.4 5.1 3.9 8.9-.5 4.8-2 6.2-5.4 9.6-3.4 1.7-6.4 1.9-10 1-3.8-2.6-6.8-5.8-10-9q-1.5-1.5-3-3-2.4-2.3-4.7-4.7c-3.3-3.4-6.8-6.6-10.4-9.7-2.1-1.8-4-3.7-5.9-5.6-3.1-3.1-6.3-6-9.6-8.9-5.6-4.9-11-10-16.4-15.1-3.1 1.4-5.2 3-7.6 5.4-30.9 27.8-72.7 36.5-112.9 34.5-21.7-1.4-42.7-8.3-61.5-19.3-4.7-2.7-9.2-3.8-14.5-4.8-3.7-.8-7.1-2-10.7-3.2-6.8-2.3-13.5-3.4-20.6-4.4-24.8-3.4-49.4-10.4-73.2-18.2l-3.6-1.2c-33.8-10.8-66.3-23.8-98.5-38.6q-7.3-3.4-14.7-6.5c-7.6-3.3-14.9-6.9-22.2-10.7q-1.3-.7-2.6-1.4c-14.4-7.5-28.2-15.6-41.9-24.2q-2.7-1.7-5.5-3.4-1.1-.7-2.2-1.4c-1.5-.9-3.2-1.8-4.8-2.6-3.1.7-3.1.7-6 2-4.1.5-5.7.2-9.3-1.9-2.7-2.1-3.5-2.8-4-6.1-.3-7.6 2.1-12.8 5.7-19.4 17.3-34.6 25.4-71.1 30-109.2q.5-4.1 1.1-8.3.3-2.6.6-5.3.2-1.2.3-2.4c.5-4 .9-7.5-.4-11.4-2.3-2.7-2.3-2.7-5.1-5.3-4.6-4.4-8.8-8.9-12.9-13.7l-2.6-3c-13.3-15.3-22.9-30.8-21.7-51.7 2.6-22.6 20.9-43.8 35.9-59.7l5.5-6.2c4.6-5.3 9.4-10.1 14.3-15q1.4-1.3 2.8-2.7c5.1-5.1 10.3-10 15.8-14.7q.9-.8 1.8-1.6c40.9-34.3 84.9-56.9 138.9-58.9q1.6-.1 3.2-.2c11.8-.4 23.6-.5 35.3-.6z" fill="#f99900"/><path d="M324.4 54.3c10.9 6.9 17.1 15.3 20.6 27.7v38h334V82c5.8-14 11.5-23.8 25.8-29.7 8.8-3.1 20-2.6 28.7.6 9.6 4.8 17.2 12.3 21.5 22.1 1.7 5.8 2.3 10.9 2.2 16.9v2.4q0 3.9-.1 7.7 0 2.6 0 5.2 0 6.4-.1 12.8h3.4q16-.1 32-.2 8.3 0 16.5-.1 8-.1 15.9-.1 3.1 0 6.1 0c16.9-.2 33 1.1 48.1 9.4q1.2.7 2.5 1.3c17.9 10 30.8 27.2 36.4 46.7 7.7 28.6 3.1 63.3 3.1 90H103c0-99.4 0-99.4 23-124 7.1-6.7 15.4-11.4 24-16q1.2-.6 2.4-1.3c13.5-6.7 28.7-6.1 43.4-6q3.1 0 6.2 0 8.1 0 16.1.1 8.3 0 16.6.1 16.1 0 32.3.1v-3.1q-.1-5.9-.2-11.7 0-2.5 0-5.1c-.3-15.4 1.4-27.2 12-39.2 12.2-11.5 30.5-14.1 45.6-6.6z" fill="#0b8b97"/><path d="M679.7 602.3q3.7 3.3 7.3 6.7.9.8 1.8 1.6c14.9 13.8 25 33.3 31.2 52.4l.8 2.3c1.8 6 3.1 11.8 3.9 18q.2 1.4.4 2.9c4.2 34.8-4.7 70.2-26.1 98.3-2.9 3.5-5.9 6.9-9 10.3-2.1 2.3-2.1 2.3-4.4 5.3-16.3 18.2-40.1 29.6-63.6 34.9-1.1.2-1.1.2-2.2.5-34.3 7.6-70 .8-99.8-17.5-26.2-17-45.8-42.6-56-72q-.3-1-.7-2c-7-20.5-9.4-44.8-4.3-66q.2-1 .5-2.1c8.3-36.3 29.1-66 60.4-86.1 10.5-6.6 21.4-11 33.1-14.8q1.5-.5 3.1-1c42-12.9 90.8.2 123.6 28.3z" fill="#fef3b7"/><path d="M430.3 324.8q1.6-.1 3.3-.1c25.3.1 49.8 1.8 74.4 8.3q1 .3 2.1.5c17 4.6 34.6 12.9 47.9 24.5q1.3 1.1 2.6 2.1c16.8 14.4 26.8 33 35.1 53.1 3.3 7.7 6.4 14.6 12.3 20.8q.9.9 1.8 1.9c8.6 8.3 20.1 10.9 31.5 13.2q2 .4 4 .8 4.6 1 9.2 1.9 15.3 3.3 30.6 6.6 5.6 1.2 11.1 2.3 3.5.8 6.9 1.5 1.6.4 3.2.7c12.3 2.7 22.4 6.6 30.2 17.1 6 10.1 4.8 25.2 2.1 36.2-7.9 25.7-19 53.2-36.6 73.8 1.5 3.4 3.4 5.7 6 8.4 29.8 32.7 41.9 76 40 119.6-.7 11.1-3.5 21.5-7 32q-.3 1-.6 2c-6.1 18.3-15.4 34.9-27.4 50 6.5 7.7 13.4 14.7 21.1 21.3 1.9 1.7 3.6 3.4 5.4 5.2 2.3 2.4 4.7 4.6 7.2 6.7 4.2 3.6 8 7.5 11.9 11.4 3.4 3.5 7 6.8 10.9 9.9 2.7 2.7 3.4 5.1 3.9 8.9-.5 4.8-2 6.2-5.4 9.6-3.4 1.7-6.4 1.9-10 1-3.8-2.6-6.8-5.8-10-9q-1.5-1.5-3-3-2.4-2.3-4.7-4.7c-3.3-3.4-6.8-6.6-10.4-9.7-2.1-1.8-4-3.7-5.9-5.6-3.1-3.1-6.3-6-9.6-8.9-5.6-4.9-11-10-16.4-15.1-3.1 1.4-5.2 3-7.6 5.4-30.9 27.8-72.7 36.5-112.9 34.5-39.6-2.6-76.6-23.1-102.6-52.5-19.3-22.4-33.6-48.8-37.9-78.4q-.3-1.8-.6-3.6c-5.8-38.7 2.9-79.8 26-111.7 25.7-34.4 61.9-57.9 104.7-64.5 22.8-3.2 45.8-1.7 67.9 4.8q1.1.3 2.2.6c14.8 4.5 28.2 11 41.3 19.1a21.94 21.94 0 0 0 6.5 2.3c5.3-8.2 10.4-16.5 15-25.2q.6-1 1.1-2.1A85.93 85.93 0 0 0 706 538q-1.3-.2-2.6-.3c-11.5-2.3-21.6-10.6-28.1-20.2-1.2-2.1-2.3-4.2-3.3-6.5-.5-1.2-.5-1.2-1.1-2.4-2.6-7.3-1.1-14.4 1.9-21.3 1.3-2.5 2.7-4.9 4.2-7.3q-7.1-1.6-14.2-3.2-2.5-.5-5-1.1l-28.3-5.9c-18.5-3.5-34.2-12.9-44.9-28.5-7.1-10.8-12.5-22.8-17.2-34.8-8.4-20.5-25.9-36-46.1-44.5-29.4-12-59-14.2-90.4-14.1q-5.3 0-10.5 0c-11 0-22 .1-33 .5q-1.3.1-2.7.1c-39 1.9-71.2 18.2-101.7 41.5q-1.8 1.4-3.6 2.7C261.6 406.2 244.5 421 230 438q-1.2 1.4-2.5 2.8C208 462.9 208 462.9 199.3 490c2 21.4 21.2 37.7 35.5 52q.7.7 1.5 1.5c5.2 5.2 10.4 10.3 16 15 1.8 1.6 3.5 3.3 5.2 5 2.9 3 6 5.8 9.2 8.5l8 7.2q.8.7 1.6 1.5 3.9 3.5 7.7 7.1 3.7 3.5 7.5 6.9 2.2 2 4.4 4c10.3 9 21.6 15.9 35.5 15.7 7-.8 12.8-3.5 17.7-8.6 8.1-10.9 11.3-23.8 13.9-36.8q.3-1.6.7-3.3c4.3-24 .6-49.3-2.7-73.2-2.7-20-3.7-39.7-3.6-59.9q0-6.2 0-12.3 0-4.8 0-9.6 0-2.3-.1-4.6c-.1-13.1-.1-13.1 3.1-17 4.1-3.3 6.4-3.5 11.6-3.1 3.7 1.7 5.9 3.5 8 7 .4 2.9.4 2.9.3 6.3v4q0 1 0 2.1 0 3.3 0 6.7 0 4.8 0 9.6c-.1 25.7.7 50.8 4.3 76.3 3.7 26.9 6.2 53.2.4 80q-.4 1.9-.7 3.8c-4 17.7-12.8 36.7-27.7 47.7-12.9 7.7-28.2 9.6-42.8 6.4-15.4-4.5-26.7-14.9-38.2-25.6q-3.3-3-6.7-5.9c-6.2-5.4-12.3-10.8-18.1-16.7-3.3-3.4-6.8-6-10.8-8.7 0 .9 0 .9.1 1.7.1 7.3-.7 14.2-1.9 21.3-.2 1.8-.2 1.8-.5 3.6-14.8 94.6-14.8 94.6-40.1 115.4-3.2 1.2-5.2 1.5-8.6 1-5.6-3.2-5.6-3.2-7-6-1.2-8.4 1.5-14.2 5.4-21.4 17.3-34.6 25.4-71.1 30-109.2q.5-4.1 1.1-8.3.3-2.6.6-5.3.2-1.2.3-2.4c.5-4 .9-7.5-.4-11.4-2.3-2.7-2.3-2.7-5.1-5.3-4.6-4.4-8.8-8.9-12.9-13.7l-2.6-3c-13.3-15.3-22.9-30.8-21.7-51.7 2.6-22.6 20.9-43.8 35.9-59.7l5.5-6.2c4.6-5.3 9.4-10.1 14.3-15q1.4-1.3 2.8-2.7c5.1-5.1 10.3-10 15.8-14.7q.9-.8 1.8-1.6c40.9-34.3 84.9-56.9 138.9-58.9q1.6-.1 3.2-.2c11.8-.4 23.6-.5 35.3-.6zm64.8 285.3q-1.1.9-2.1 1.9c-21 19.3-34.7 52.4-36 80.5-.8 32 5.8 62.4 25.1 88.6q.6.8 1.2 1.7c21.3 28.6 51 48.5 86.6 54.2 17.4 2.4 35.1 2 52.2-1.9q1.1-.2 2.2-.5c26.5-6.1 51.8-21.1 68.8-42.5l1.9-2.3c23.6-28.3 33.9-63.8 30.7-100.2-3.8-35-21.5-68.1-48.9-90.2-55.5-43.3-131.7-37.4-181.7 10.7z" fill="#024152"/><path d="M601.6 615.1c6.4 3.6 12.1 8.2 15.4 14.9.4 4.2.3 8.4.1 12.7q-.1 3.4-.2 6.7 0 1.5-.1 3.1c0 2.7 0 2.7 2.2 5.5 2.9.6 4.2.7 7 0q2.5-1.7 4.9-3.5c7.1-4.8 14-4.6 22.1-3.5 6.8 1.6 11.2 5.2 15 11 3 5.9 3.3 13.8 1.3 20.1-3.9 7.2-11.3 12.6-17.3 17.9.6 3.3.6 3.3 3 5.4q1.3.6 2.6 1.3c6.2 3.5 12.1 8.4 14.4 15.3.9 8.2.2 14.4-5 21-6.2 6.9-13.9 10.6-23 12q-4 0-8.1-.1-2.4-.1-4.7-.1-3.8-.1-7.5-.2c-10.9-.7-10.9-.7-20.6 3.2-1.7 1.6-1.7 1.6-3.1 3.2q-1 .9-2.1 1.9c-4.3 4.9-7.2 10.2-10.1 16.1-2.3 3.8-4.7 6.2-8.8 7.7-6.9 1-12.7 1.4-18.5-2.9-4.8-5.7-6-10.1-6-17.4 0-5.9-.3-9.8-4.5-14.4-2.6-1.2-4.8-2-7.6-2.7q-1-.3-2.1-.6-4.7-1.3-9.5-2.4c-6.8-1.6-11.1-4.1-15.8-9.3-2.5-5-2-12.6-1-18 2.7-5.4 6.8-9.1 11.4-12.9 2.7-1.8 2.7-1.8 3.5-4.4q0-.8.1-1.7-1-.3-2-.6c-8.5-3.9-15.4-10.7-19-19.4-1-6.9 0-12.3 4-18 6.1-8 11.9-13.4 22-15 18.3-1.2 18.3-1.2 26 4 4.8 4.4 8.6 9.5 12 15q2.5-.5 5-1 .1-2.6.1-5.2.1-1.4.1-2.9c-.2-3.1-1-5.1-2.2-7.9-.5-2.7-.8-5.3-1-8l-.2-3.1c-.3-6.3-.2-11.1 3.6-16.2 6.9-7.3 14.6-9.5 24.2-6.6z" fill="#f99800"/><path d="M324.4 54.3c9.7 6.2 17.1 14.4 20.2 25.6.8 3.9.7 7.7.7 11.6q0 1.4 0 2.8 0 4.6 0 9.2 0 3.2 0 6.4 0 6.7 0 13.4 0 8.6.1 17.1 0 6.7 0 13.3 0 3.1 0 6.3c0 16.3-.3 32.5-12 45.3-9.2 8.6-20.1 10.2-32.1 10-10.2-.5-18.2-5.9-25.1-13.1-5.5-6.9-9.3-16.4-9.3-25.3q0-1.2-.1-2.4 0-1.4 0-2.7 0-1.4 0-2.8 0-4.6 0-9.3 0-3.2 0-6.4 0-6.7 0-13.5-.1-8.6-.1-17.2 0-6.7 0-13.3 0-3.2 0-6.4-.1-4.5-.1-8.9 0-1.3 0-2.6c.1-11.8 4.4-21.7 12.2-30.5 12.2-11.5 30.5-14.1 45.6-6.6z" fill="#004453"/><path d="M736.3 54.3c8.5 5.3 16.3 12.7 19.3 22.6.4 2.2.5 4.2.5 6.5q.1 1.3.1 2.6 0 1.4 0 2.9 0 1.5 0 3 0 5 0 10 0 1.7.1 3.5 0 9 0 18.1 0 9.3.1 18.7 0 7.1 0 14.3 0 3.5.1 6.9c.2 28.2.2 28.2-9.5 39.6-3.3 3.3-6.9 5.8-11 8q-1.1.6-2.2 1.3c-8.4 4.1-18.8 4.1-27.8 2-2.5-.9-4.7-2-7-3.3-1.2-.7-1.2-.7-2.4-1.3-10.1-6.1-14-14.5-17.1-25.6-.5-2.2-.6-4.1-.7-6.3q0-1.2 0-2.5 0-1.4 0-2.7 0-1.5 0-2.9-.1-4.8-.1-9.5 0-1.7 0-3.3 0-8.6-.1-17.3 0-7.1 0-14.2-.1-8.6-.1-17.2 0-3.3-.1-6.5c-.1-15.1.5-26.6 10.6-38.7 12.5-12.6 31.1-16.7 47.3-8.7z" fill="#004353"/><path d="M514.5 428.8c5.9 3.5 11 9 13.9 15.2 1.4 7.2.9 13.5-2.4 20-3.6 5.2-7.5 9.9-13.8 11.6-7.8 1.3-14 .9-21-3-5.1-3.7-8.2-8.7-10.2-14.6-1.1-8.3.1-15.1 5-22 7.6-8.2 17.7-10.8 28.5-7.2z" fill="#024254"/></svg>