<svg xmlns="http://www.w3.org/2000/svg" width="1024" height="1024" xmlns:v="https://vecta.io/nano"><path d="M264.4 166c10.4 6.1 21.2 13.5 29.7 22.1q1 1 2 2 .8.9 1.6 1.8c3.9 1.8 7.4.3 11.3-.9q1.3-.4 2.6-.8 2.8-.8 5.5-1.7c45.3-13.9 96.5-13.7 141.2 2.6 3.8 1.4 6.7 2.3 10.7 1.9 2.2-1.1 2.2-1.1 4.2-2.7q1.2-.9 2.4-1.8 1.3-.9 2.6-1.9c9.2-6.7 18.7-12.4 28.8-17.6q1-.5 2.1-1.1c11.8-6.1 24.1-10.3 36.9-13.9 1.9-.5 1.9-.5 3.8-1.1 10.9-2.7 26.4-4.9 36.6.8 5.4 4.3 6.6 9.9 7.6 16.3.4 4.5.5 9 .6 13.6.1 1.8.1 1.8.1 3.6q.2 4.4.3 8.8.9-.1 1.8-.2c6.6-.7 13.1-1 19.8-1q1.6 0 3.3 0 3.4 0 6.9 0 5.1-.1 10.3-.1c14.2-.1 27.9.9 41.9 3.3q1.9.3 3.9.6c42 7.6 82.1 24.6 113.1 54.4q.8.7 1.6 1.5c13.4 12.7 26.7 27.9 33.9 45.1 2.5 5.8 4.9 10 10.8 12.6 3.5 1.4 7.1 2.6 10.7 3.8 36.1 11.8 74.2 38.1 94 71q.6 1 1.2 1.9c9.6 16.4 15.6 34.4 18.8 53.1a27.6 27.6 0 0 0 .5 2.5c2.8 16.5 2.8 33.1 2.8 49.9q-.1 1.6-.1 3.4 0 4.9 0 9.8 0 1.6 0 3.2c-.1 5-.2 10-.6 15q-.1 1.4-.2 2.8-.2 2.5-.4 5c-.6 6.7 1.5 9.8 5.8 14.8q.6.7 1.3 1.3c15.6 16.8 24 43.2 23.2 65.7-1.8 31.4-22 56.2-44.3 76.6-14.6 12.5-31.1 22.7-47.9 31.9q-3.2 1.7-6.3 3.4C875.8 741.1 849 751 822 760l-3.7 1.2c-45 14.9-91.5 23.7-138.3 30.8-1.1.2-1.1.2-2.1.3-73.4 11.1-149 12.5-222.9 7.7l-2.9-.2c-45.2-2.9-90.4-7.9-134.9-16.4q-3.5-.6-7-1.3c-23.9-4.5-47.6-9.8-71.2-16.1q-1-.3-2-.5c-39.6-10.7-77.3-25.3-114-43.5q-1.3-.6-2.6-1.3c-23-11.3-43.9-26.1-62.4-43.7q-1.1-1-2.1-1.9c-16.9-15.9-29.7-39.7-31.1-63-.6-21.1 5.3-47.5 19.7-63.8l1.6-1.6c9.2-9.4 10.1-18 10-30.9q-.2-5.1-.4-10.2l-.5-18.2q0-1.9-.1-3.9c-.7-33.8 5.1-67.8 21.9-97.5q.5-1 1.1-1.9C83 375.3 88.4 367.5 95 360q1.1-1.2 2.1-2.5c13.9-15.9 30.5-28.2 48.9-38.5 1-.6 1-.6 2.1-1.2C178.3 301 178.3 301 191 301q.1-1.2.3-2.4c.8-4 2.2-7.3 4-10.9 1.7-6.3-1.2-13.3-2.7-19.4-5.5-21.5-7.9-42.1-7.9-64.3q0-1.3 0-2.6c-.1-38-.1-38 10.3-49.8 17.6-14 53.1 5.2 69.4 14.4z" fill="#033155"/><path d="M188 313q-.2.9-.4 1.9c-3.7 17-5.6 33.4-6.4 50.7-.2 2.4-.2 2.4-1.2 3.4q-3.8.5-7.6.8c-10.8 1.2-21.1 3.7-31.4 7.2q-.3 1.9-.7 3.8-.2 1.1-.4 2.2c-.1 2.1-.1 2.1 1.6 3.8q.7.6 1.5 1.2 1.8-.6 3.7-1.3c12.1-3.5 24.7-6.5 37.3-5.7q1.5 5.1 2.9 10.2.5 1.4.9 2.9.4 1.4.8 2.8.4 1.3.7 2.6c.7 2.5 1.2 5 1.7 7.5q-.9.6-1.8 1.2-4.1 2.6-8.1 5.3-1.4.9-2.8 1.8c-9.3 6.1-9.3 6.1-17.3 13.7-.9 3.8-.9 3.8 0 7 1.8 2.2 1.8 2.2 4.3 2.4 3.8-.6 5.3-2.3 8.1-4.8 4.6-4.1 9.4-7.6 14.7-10.7.9-.6.9-.6 1.9-1.2 2.9-1.7 4.6-2.7 8-2.7.7 2 1.3 4 2 6q-1.2.8-2.4 1.6c-17.2 11.6-33.5 24.2-38.6 45.4-1.2 14.5.8 28.9 10 40.6 2.3 2.6 4.6 5 7 7.4q.9 1 1.9 1.9c12.1 11.7 29.5 16.6 45.9 16.5 3.2.6 3.2.6 5.6 3 1.6 2.6 1.6 2.6 1.6 4.6 7.4 4 13.4 5.4 21.8 5.1q2.5 0 5-.1 1.1 0 2.2-.1c2 .1 2 .1 5 1.1 6.7.7 12.7-.6 19-3q.5-.5 1-1c3.3-.7 6.5-1.2 9.8-1.8 4.2-.8 8.2-1.7 12.2-3.2q.3 1 .7 2c3.1 8.3 6.1 13.4 14.4 17.2 3.9 1.6 7 1.9 11.1 2.1 5.1.4 8.7 1.1 13 3.8 4.1 2.1 8.2 1.9 12.8 1.8 11.1-.4 11.1-.4 15.4 2.1 4.2 2.3 8.3 2.3 13 2.3q1.3 0 2.6 0c10-.2 19.8-1.6 29.8-3.2l2.9-.4c28.8-4.5 56.7-12.1 84.3-21.1 2-.6 2-.6 4-.6q.5 1.1 1 2.3c5.1 10.8 10.9 18.9 22 23.7q1.3.6 2.5 1.2c15.6 6.1 36.1 4.6 51.5-1.2q1.3-.5 2.7-1 6.2-2.3 12.4-4.7c12.6-4.8 25.4-8.5 39-8.4q1.2 0 2.4 0 2.4 0 4.9 0 3.7 0 7.3 0c7.3 0 14.5.1 21.7.6 11.1.8 22.1.7 33.2.7q5.7 0 11.4 0c17 .1 33.2-.5 49.8-4.9q1.5-.4 3-.8c39.5-10.4 80.8-27.8 102.8-64.2 4.9-8.4 8-16.9 10.4-26.3q.4-1.3.7-2.6c4.5-18 .5-37.3-8.3-53.2-6.6-11-15.7-21.1-26.4-28.2-.4-2.7-.7-5.3-.9-8.1-.7-8-1.9-15.9-3.5-23.8q-.3-1.6-.6-3.1c-1.3-6.4-3-12.5-5.2-18.6-.8-2.4-.8-2.4-.8-4.4 30.8 9.6 62.8 29.4 83 55a19.68 19.68 0 0 0 1.2 1.5c25.4 32.3 32.1 72.2 32 112.3q0 1.2 0 2.3c-.1 50.5-9.1 95.8-45.6 132.3-17.3 16.3-39.2 28.5-60.6 38.6q-1.1.5-2.2 1c-34.9 16.8-73 26.9-110.8 35q-1.7.4-3.5.8c-38.1 8.1-77 13-115.7 16q-2.8.2-5.6.4c-29 2.3-57.8 3.1-86.8 3.1q-1.2-.1-2.3-.1c-30.9 0-61.7-.4-92.4-3q-3.3-.3-6.6-.6c-18.7-1.5-37.4-3.3-56.1-5.6q-1.3-.2-2.6-.3C296.1 703.6 222 688.5 156 654q-1.1-.6-2.2-1.1c-34.3-18.1-66.7-43.9-78.6-82.1q-1.1-3.9-2.2-7.8-.4-1.4-.9-2.9c-4.8-17-6.2-36-6.3-53.6q0-1.4 0-2.9 0-4.7 0-9.3-.1-1.6-.1-3.2c.1-15.2.5-30 3.3-45.1q.3-2 .7-4c4.9-28.1 16.2-54.6 35.3-76q1.2-1.4 2.4-2.8c5.7-6.5 11.7-12 18.6-17.2q.8-.6 1.7-1.3c14.4-11.3 41.5-31.7 60.3-31.7z" fill="#fcc134"/><path d="M606.7 205.9q4.1-.1 8.3-.1 1.5-.1 3-.1c66-.5 128.4 14.3 176.7 61.7 34.5 34.8 48.7 81.2 48.6 129.2-.1 9.9-.9 19.5-2.6 29.3-.7 3.7-.9 7.3-.7 11.1 1.1 1.3 1.1 1.3 3.9 1.3 3.1 0 3.1 0 4.7-2 4.6-7.4 5.2-16.5 6.1-24.9q.2-1.7.4-3.4.5-4 .9-8c12.2 7.9 19 20.3 23 34.1 4 19.5-1.7 39.2-12 55.9-21.1 32-56.7 47.1-93 55-19 3.8-38.2 5.4-57.5 5.3q-1.3-.1-2.6-.1c-11.9 0-23.6-.5-35.4-1.5-32.1-2.7-58.4 1.8-88.2 13.2-16.3 6.2-34.4 9.5-51.3 3.1-8-3.9-13.5-9.8-16.9-18.1-3.4-11.8-1.3-23.1 4.4-33.7 11.5-19 29.5-32.5 50.9-38.4 13.4-3.1 27.1-3.2 40.7-3.1q1.5 0 3 0a468.52 468.52 0 0 1 41 1.8c38.2 3.4 85.3 4.4 117.9-19.5 2.1-3.2 2.4-4.3 2-8-1.9-2.3-1.9-2.3-4.7-2.4-4.1.5-6.7 2.3-10.1 4.5-12.5 8-26.6 11.5-41.2 13.9l-3.4.6c-24 3.8-49 1.2-73.1-.5-17.2-1.3-34.5-1.9-51.8-.3l-3 .2c-27.2 2.7-51.2 13.2-69.7 34-8.6 10.6-14.2 22.7-15.5 36.2-.2 1.4-.2 1.4-.3 2.7q-.1 1.1-.2 2.1c-33.3 12.8-67.3 20.9-102.8 24.7-2.2.3-2.2.3-4.2.8-3.9 1-8 .8-12 .8q-1.3.1-2.7.1c-6.7.1-6.7.1-9.8-2.3-3.2-4.6-4-7.4-3.5-13.1 1.3-5.7 3.9-9.2 7.8-13.4 1.4-1.6 1.4-1.6 1.8-4.4-.4-2.6-.4-2.6-3.6-4.2-3.9.1-5.6.7-8.6 3.2-4.3 5.1-7.4 9.3-7.7 16-.1 1.2-.1 1.2-.1 2.5q-.1 1.2-.2 2.5c0 1.3 0 1.3-.1 2.5q-.2 3.2-.3 6.3c-3.5 1.7-7.2 1.5-11 1-3.6-1.8-5.5-3.3-7.9-6.6-2.5-7.6-1.7-14.4 1.8-21.5 1.1-1.9 1.1-1.9 2.8-4.1 1.7-2.4 1.5-4 1.3-6.8-3-.9-4.5-1.2-7.5-.1-5 4.2-7.8 9.8-9.5 16.1-.2 2.8-.2 5.6-.1 8.4q0 1.1 0 2.2 0 2.7.1 5.4c-7.5-.7-7.5-.7-10.8-3.8q-.9-.8-1.7-1.5c-3.8-4.2-4-8.2-3.9-13.6 1.5-12.5 9.5-21.1 18.6-28.9 12.9-9.5 29.6-11.6 45-11.8q4-.1 8-.2c2 0 2 0 4-.1C442 491.5 495.5 481.9 534 448c1.2-1.4 1.2-1.4 2.5-2.8 2.5-2.2 2.5-2.2 5.1-2.6l2.5.2c4.2.4 4.2.4 7.9-1.8.4-4.1.3-5.5-2-9q.8-1.1 1.7-2.3c4.3-6 8.2-12.1 11.7-18.6q.5-.9.9-1.8c1.6-3 3-6 4.3-9.1 1.6-3.7 3.1-4.2 6.4-6.2.4-2.7.1-4.6-.6-7.2-.5-3.5 0-6.7.5-10.2 3.1-24.4 3-49.7-7.8-72.1-2.2-4.9-2.2-4.9-1.5-8q.7-1.2 1.4-2.5.8-1.7 1.7-3.5.5-.9 1-1.9c10.8-22.1 17.5-46.6 20.4-71q.1-1.2.3-2.5.1-1 .2-2.1c.5-2.4 1-4 2.4-6 2.2-.6 2.2-.6 4.9-.7q1.5-.1 3-.2 2.9-.1 5.8-.2z" fill="#f59b08"/><path d="M222.4 161.6c29.3 8.1 53.2 24 74.6 45.4 5.2-.3 9.8-2.4 14.6-4.2 6.7-2.6 13.4-4.8 20.4-6.5q1.1-.3 2.2-.6c15.4-3.7 30.6-5.2 46.5-5.1h2.6c26.4.2 57.2 2.2 80.7 15.5 2.5 1.1 4.3 1.1 7 .9 2.1-1.1 2.1-1.1 4-2.6q1.1-.9 2.2-1.8 1.2-.9 2.4-1.8c24.9-18.9 60.5-41.5 93.4-37.8 4.2 1.5 5.5 2.3 8 6 9.7 37.9-7.1 89.4-25 123q-1 1.5-2 3c.3 5.9 2.3 11 4.4 16.5 8.3 23.3 8.5 46.3 3.6 70.5q-2.8-.5-5.7-.9-1.6-.3-3.2-.6c-1.8-.3-3.5-.6-5.3-1-3.8-.7-7.5-.7-11.4-.7h-2.5q-2.6 0-5.3 0-4 0-7.9 0c-16.4-1-16.4-1-30.7 5.2-.4 3.1-.4 3.1 0 6 1.8 1.8 4.4 1.1 6.8 1.1 2.2 0 2.2 0 4.4-.6 3.5-.6 7-.7 10.6-.7q1.1 0 2.3 0 2.4 0 4.8 0 3.6-.1 7.1-.1c23.1-.2 23.1-.2 32 4.3-1.5 5-3.6 9.3-6.2 13.8q-.6 1.1-1.2 2.1c-3.1 5.4-6.5 10.4-10.6 15.1-3.5-1.3-6.6-2.9-9.9-4.7-6.3-3.5-12.8-6.5-19.5-9.2q-1.1-.4-2.3-.8c-9.9-3.8-9.9-3.8-20.3-4.3-2.1 1-2.1 1-3 3q.4 3 1 6 1.8.5 3.6 1.1c14.1 4.2 27.7 9.2 40.4 16.9-7.1 16.4-33.7 26.6-49.1 33.1-9.7 3.8-19.8 6.4-29.9 8.9q-1.5.4-3 .8c-8.4 2-16.8 3.3-25.4 4.3q-1.9.3-3.9.5c-61.3 7.8-133.7-.9-184.5-38.9C211.4 424 211.4 424 210 413c6.3-3.2 12.5-5 19.4-6.4 2.5-.3 2.5-.3 3.6-1.6.4-2.9.4-2.9 0-6-2.1-2-3.4-2.9-6.3-3.2-8.3.8-15.9 3.3-23.7 6.2q-1.5-4.4-3-8.7-.4-1.3-.9-2.5-.4-1.2-.8-2.5c-.4-1.1-.4-1.1-.7-2.2-.6-2.1-.6-2.1-.6-6.1 5.2-.1 10.4-.2 15.6.5 4.4.5 9 1.1 13.4.5 2.3-1.9 2.3-1.9 2.1-4.9-.8-3.1-.8-3.1-2.7-4.1-7.3-2.9-15.1-3.2-22.8-3.6q-1.3 0-2.5-.1-3.1-.2-6.1-.3c-.6-26.7.8-53.2 14-77.1 2.5-7.4-1.3-15.8-3.3-22.9-5.9-20.9-7.9-40.9-8-62.6q0-1.2 0-2.5c-.1-29.8-.1-29.8 5.3-38.9 5.5-5.2 13.5-4 20.4-2.4z" fill="#f59c08"/><path d="M55 534q.5 0 1 0l.4 2.4c6.7 44.2 21.1 79.7 57.7 107.4 68.9 50.6 158 68.8 240.9 81.2 1 .2 1 .2 2.1.3q13.9 2.1 27.9 3.7 1.1.1 2.2.2c72.1 8.2 146.2 10.2 218.6 5q3.4-.3 6.7-.5c41.2-2.7 82-8.5 122.5-16.7q1-.2 2.1-.4 12.5-2.6 24.9-5.6 1.7-.4 3.5-.8c58.6-14.5 118.1-35.9 162.5-78.2q1-.9 2-1.8c24.9-23.6 34.8-57.1 38-90.2 17.7 17 30.5 44.1 31.4 68.5.4 28.7-13.9 52.6-33.2 72.7-17.3 17.5-37.6 31-59.1 42.7q-3.2 1.7-6.3 3.4C875.8 741.1 849 751 822 760q-1.8.6-3.7 1.2c-45 14.9-91.5 23.7-138.3 30.8q-1.1.2-2.1.3c-73.4 11.1-149 12.5-222.9 7.7q-1.4-.1-2.9-.2c-45.2-2.9-90.4-7.9-134.9-16.4q-3.5-.6-7-1.3c-23.9-4.5-47.6-9.8-71.2-16.1q-1-.3-2-.5c-39.6-10.7-77.3-25.3-114-43.5q-1.3-.6-2.6-1.3c-23-11.3-43.9-26.1-62.4-43.7q-1.1-1-2.1-1.9c-16.9-15.9-29.7-39.7-31.1-63C24 582.7 36.5 556.3 55 534z" fill="#fde09c"/><path d="M713.4 278.9c1.6 2.1 1.6 2.1 2 4.7-.5 2.9-1.2 3.6-3.4 5.4-5.2 1.4-10.2 2.2-15.6 2.8-29.7 4.2-58.3 22.3-76.3 46.2-17.4 24-25.5 51.3-21.3 80.9q.5 3.1 1.2 6.1c.4 1.7.4 1.7.7 3.3 2.5 9.6 6.7 18 11.3 26.7q1 2 2 4c-3.1 1.8-5.5 2.3-9 2.5q-1.5.1-3 .2-1.5.1-3.1.2C570 464 544.7 473.8 525 496c-8.6 10.6-14.2 22.7-15.5 36.2-.2 1.4-.2 1.4-.3 2.7q-.1 1.1-.2 2.1c-33.3 12.8-67.3 20.9-102.8 24.7-2.2.3-2.2.3-4.2.8-3.9 1-8 .8-12 .8q-1.3.1-2.7.1c-6.7.1-6.7.1-9.8-2.3-3.2-4.6-4-7.4-3.5-13.1 1.3-5.7 3.9-9.2 7.8-13.4 1.4-1.6 1.4-1.6 1.8-4.4-.4-2.6-.4-2.6-3.6-4.2-3.9.1-5.6.7-8.6 3.2-4.3 5.1-7.4 9.3-7.7 16-.1 1.2-.1 1.2-.1 2.5q-.1 1.2-.2 2.5c0 1.3 0 1.3-.1 2.5q-.2 3.2-.3 6.3c-3.5 1.7-7.2 1.5-11 1-3.6-1.8-5.5-3.3-7.9-6.6-2.5-7.6-1.7-14.4 1.8-21.5 1.1-1.9 1.1-1.9 2.9-4.1 1.6-2.4 1.4-4 1.2-6.8-3-.9-4.5-1.2-7.5-.1-5 4.2-7.8 9.8-9.5 16.1-.2 2.8-.2 5.6-.1 8.4q0 1.1 0 2.2 0 2.7.1 5.4c-7.5-.7-7.5-.7-10.8-3.8q-.9-.8-1.7-1.5c-3.8-4.2-4-8.2-3.9-13.6 1.5-12.5 9.5-21.1 18.7-28.9 12.8-9.5 29.5-11.6 45-11.8q3.9-.1 7.9-.2 2 0 4-.1C442 491.5 495.5 481.9 534 448c1.2-1.4 1.2-1.4 2.5-2.8 2.5-2.2 2.5-2.2 5.1-2.6l2.5.2c4.2.4 4.2.4 7.9-1.8.4-4.1.3-5.5-2-9q.8-1.1 1.7-2.3c4.3-6 8.2-12.1 11.7-18.6q.5-.9.9-1.8c1.6-3 3-6 4.3-9.1 1.6-3.7 3.1-4.2 6.4-6.2.4-2.7.1-4.7-.5-7.3-1.7-9.5-.7-24.8 4.9-32.8 2.6-3 5.6-5.4 8.6-7.9q1.7-1.8 3.3-3.7c10.3-12.1 22-23.7 34.7-33.3q1.4-1.1 2.8-2.2c15.5-12.1 65-43.3 84.6-27.9z" fill="#d67200"/><path d="M780 443c1.9 1.2 1.9 1.2 3 3 .5 2.4.5 2.4 0 5-13.2 16.5-43 21.5-62.7 23.9-20.3 2.1-40.2 1.2-60.5-.6-13.9-1.2-27.7-1.6-41.7-1.6q-1.4 0-2.8 0c-14.7-.1-29.6 0-43.5 5l-2.3.8c-20.4 7.4-36.1 22.1-45.5 41.5-3.4 10-3.4 20.9.8 30.6 4.4 8.4 10.6 12 19.3 15.2 18.2 4.9 37-1 53.8-7.8 11.9-4.7 23.4-8.1 36.1-10q1.9-.3 3.8-.6c5.5-.6 11-.6 16.5-.6h3.6a313.37 313.37 0 0 1 23.8 1.2c48.6 4.1 101.9 1.7 145.3-23q1.7-1 3.5-2c7.4-4.3 14.1-9.3 20.5-15q.9-.8 1.9-1.6c7.9-7.4 13.9-17 19.1-26.4q.5 1 1 2c-1.3 2.6-1.3 2.6-3.3 5.8l-1.8 3.2q-1.8 2.8-3.6 5.7c-1.5 2.7-1.6 4.3-1.3 7.3q2 .5 4 1c-1 8.6-9.6 13.9-16 18.9-25.5 19.5-56.6 29.3-87.4 36.4q-1.1.2-2.1.4c-10.1 2.3-20.2 2.5-30.5 2.4h-3.7q-3.8 0-7.6 0-5.8 0-11.6 0c-11.1 0-22.3 0-33.4-.9-6.6-.4-13.1-.5-19.7-.5q-2.4 0-4.7-.1c-15.8-.3-30.2 2.6-45.1 7.8q-1.3.5-2.7.9-8.8 3.1-17.5 6.7c-15.3 5.3-36.1 6-51-1q-1.2-.6-2.5-1.1c-9.1-4.6-15.1-11.8-19.5-20.9q-.5-2.5-1-5-1.6.5-3.2 1.1c-11.4 3.9-22.9 7.3-34.6 10.5q-1.3.4-2.6.8c-12.1 3.3-24.2 6.3-36.6 8.1q-4.4.7-8.9 1.5c-42 7-42 7-52.7.9-4.2-1.5-8.7-1-13.1-.9-7.2.2-13.2-1-19.3-5q-3.1-.4-6.3-.5c-5.8-.3-10.7-.8-15.2-4.6-9.2-10.6-9.2-10.6-9.5-16.9 2.3-1.2 4.5-2.2 7-3l.8 2.4c1.4 3.1 2.1 3.3 5.2 4.6a54.57 54.57 0 0 0 3 2.1c3 2.3 3 2.3 7 1.9q-.1-1.4-.1-2.9c-.3-10.8.8-19.6 8.4-27.8 2.8-2.2 5.3-2.4 8.7-2.3l2 2c-.2 5.4-1.6 7.9-5 12-3 6.4-3.1 13.9-.8 20.5 2.2 3 3.3 4.2 6.8 5.5a100.91 100.91 0 0 0 11 0q-.1-1.8-.1-3.7-.1-2.4-.1-4.8-.1-1.2-.2-2.4c-.1-7.4 2-12.4 6.9-17.9q1.2-1.1 2.5-2.2 1-.9 1.9-1.9c3-1.6 4.9-1 8.1-.1 2 2 2 2 2.5 4.2-.6 3.1-1.2 3.8-3.3 6.1-4.3 4.7-5.9 9.1-6.6 15.3.4 3.8 1.4 6.2 3.4 9.4 10 5 27.4.4 38-1.6 2.9-.6 5.9-.9 8.8-1.2 27-3.6 53.8-10.7 79.3-20.2 2.9-1 2.9-1 4.9-1q-.1-.9-.1-1.7c-.8-17.6 8.9-32 20.2-44.6 21.3-22.6 50.8-29.8 80.9-30.7 14.2-.3 28.3.3 42.5 1.3 61.8 4.9 61.8 4.9 118.7-16.5 3.3-2.1 5-2.4 8.8-1.8z" fill="#042f55"/><path d="M856 400c12.2 7.9 19 20.3 23 34.1 4 19.5-1.7 39.2-12 55.9-21.1 32-56.7 47.1-93 55-19 3.8-38.2 5.4-57.5 5.3q-1.3-.1-2.6-.1c-11.9 0-23.6-.5-35.4-1.5-32.1-2.7-58.4 1.8-88.2 13.2-15.9 6.1-34.9 10-51.3 3.1-2.1-1.9-2.1-1.9-4-4q-1.6-1.3-3.3-2.6-1.3-1.2-2.7-2.4 0-1 0-2h1.8c20.6-.1 37-5 55.7-13.1 17.1-7.3 33.8-10.3 52.2-10.3q4 0 8.1 0 8.6-.1 17.2-.1c33.6.1 33.6.1 67-3.5q2.8-.5 5.6-.9c33.3-5.4 67.4-19 88.1-46.9 7.1-10.6 14.2-23.7 15.7-36.5q.3-1.3.6-2.7 2.6-1 5.2-2c3.7-2.1 4.6-6.1 5.8-10 2.3-9.1 3-18.7 4-28z" fill="#d67200"/><path d="M209 434c1.3 1.3 1.3 1.3 2.7 3.1 17.8 21.7 45.5 32.3 71 41.8 16.5 6.2 16.5 6.2 20.7 14.3 4.3 9.7 4.3 23.2.9 33.2-1.8 4-3.7 7-7.3 9.6-3.3.8-3.3.8-6 1q.2-1.1.5-2.3c1.2-9.3 1.1-17.3-3.5-25.7q-1-1-2-2c-3.1.3-3.1.3-6 1q.2 1.8.5 3.6c1 9.4 2 18.9-2.5 27.4-2.4 2.7-3.5 3-7.2 3.3-2.8-.3-2.8-.3-3.8-1.3q-.2-3.1-.4-6.2c-.4-7.5-1.8-14.5-3.6-21.8l-7 1-1 28c-6.8 0-9.6-.4-15-4-4.1-4.3-5.1-7.6-5.3-13.3q-.1-1.6-.1-3.1-.1-1.6-.2-3.3 0-1.6-.1-3.3-.2-4-.3-8l-6-1c-4 3.9-3.6 8.5-3.7 13.8q0 1.3-.1 2.6-.1 3.3-.2 6.6c-17.3-.6-32.2-7.2-44.1-19.8-7.5-8.6-11.9-19.8-11.3-31.4 2.3-14.9 11.9-25.7 23.4-34.8q3.7-2.6 7.4-5.1.9-.6 1.9-1.2c2.8-1.7 4.3-2.7 7.7-2.7zm193.2 58.8c18.8-.3 41 1.3 55.8 14.2 5.2 5.7 6.4 10.8 6.3 18.3-.9 8-5.5 14.4-11.3 19.7-3.2 2.5-6.6 4.8-10 7q-1.5 1-3 2l9-1q-.5 1-1 2c-2.9.8-5.7 1.4-8.6 1.9q-1.3.3-2.6.6c-10.1 1.9-20.3 3-30.5 4.2-2.3.2-2.3.2-4.3.8-3.9 1-8 .8-12 .8-1.4.1-1.4.1-2.7.1-6.7.1-6.7.1-9.8-2.3-3.2-4.6-4-7.4-3.5-13.1 1.3-5.7 3.9-9.2 7.8-13.4 1.4-1.6 1.4-1.6 1.8-4.4-.4-2.6-.4-2.6-3.6-4.2-3.9.1-5.6.7-8.6 3.2-4.3 5.1-7.4 9.3-7.7 16q-.1 1.2-.1 2.5-.1 1.2-.2 2.5c0 1.3 0 1.3-.1 2.5q-.2 3.2-.3 6.3c-3.5 1.7-7.2 1.5-11 1-3.6-1.8-5.5-3.3-7.9-6.6-2.5-7.6-1.7-14.4 1.8-21.5 1.1-1.9 1.1-1.9 2.9-4.2 1.6-2.3 1.4-3.9 1.2-6.7-3-.9-4.5-1.2-7.5-.1-5 4.2-7.8 9.8-9.5 16.1-.2 2.8-.2 5.6-.1 8.4v2.2q0 2.7.1 5.4c-7.5-.7-7.5-.7-10.8-3.8q-.9-.8-1.7-1.5c-3.8-4.2-4-8.2-3.9-13.6 1.5-12.5 9.5-21.1 18.7-28.9 12.8-9.5 29.7-11.6 45.1-11.9q2 0 4-.1 3.9-.1 7.9-.1 5-.1 9.9-.3z" fill="#f49d08"/><path d="M511 549q.5 1.1 1 2.3c5.1 10.8 10.9 18.9 22 23.7q1.3.6 2.5 1.2c15.6 6.1 36.1 4.6 51.5-1.2l2.7-1q6.2-2.3 12.4-4.7c12.6-4.8 25.4-8.5 39-8.4q1.2 0 2.4 0 2.4 0 4.9 0 3.7 0 7.3 0 2.4 0 4.9 0 1 0 2.1 0c5 0 10 .3 14.9.6 7.9.5 15.8.6 23.7.5q2.1 0 4.1 0 8.7 0 17.4-.1 5.4 0 10.7-.1 3.1 0 6.1 0 1.8 0 3.6 0 1.6 0 3.3 0c2.5.2 2.5.2 4.5 2.2-26 9.7-55.1 12.5-82.6 14.7-27.2 2.2-53.1 6.9-79.7 13.1-12.7 2.9-24.6 5.2-37.7 4.2q-1.8-.1-3.6-.3c-13.2-1.4-25.2-6.7-36.7-13-8.7-4.6-17.3-5-26.9-5.1h-3.5q-5.7-.1-11.3-.2-7.7-.1-15.4-.2-1.9 0-3.9 0-15.4-.3-30.8-.8-1 0-2.1 0-5.4-.2-10.8-.4 0-1 0-2-1-.5-2-1l3-.4c33.9-4.6 66.5-12.4 99-23 2-.6 2-.6 4-.6z" fill="#f39d08"/><path d="M184 381q1.5 5.1 2.9 10.2l.9 2.9.8 2.8q.4 1.3.7 2.6c.7 2.5 1.2 5 1.7 7.5q-.9.6-1.8 1.2-4.1 2.6-8.1 5.3-1.4.9-2.8 1.8c-9.3 6.1-9.3 6.1-17.3 13.7-.9 3.8-.9 3.8 0 7 1.8 2.2 1.8 2.2 4.3 2.4 3.8-.6 5.3-2.3 8.1-4.8 4.6-4.1 9.4-7.6 14.7-10.7.9-.6.9-.6 1.9-1.2 2.9-1.7 4.6-2.7 8-2.7l2 6q-1.2.8-2.4 1.6c-17.2 11.6-33.5 24.2-38.6 45.4-.7 8.9-.3 16.9 2.3 25.4.7 2.7.8 4.9.7 7.6q-1.1-1.1-2.2-2.2-2.6-2.6-5.4-5.2c-10.1-9.7-17.8-20.6-23.4-33.6q-.6-1.4-1.3-2.8c-4.4-11.9-5.3-28.1-.6-40 1.4-2.7 1.4-2.7 2.9-5.2q.8-1.3 1.6-2.6c5.8-8.8 13.1-16.4 20.8-23.5q.8-.8 1.6-1.5c3.8-3.4 3.8-3.4 6-3.4q0-1 0-2c7.4-1.6 14.4-2.2 22-2z" fill="#f49c08"/><path d="M559.5 188.9c2.5 2.1 2.5 2.1 3.5 4.1 1.7 26.3-7.1 56.7-21 79q-1 1-2 2c-2.8-.2-3.8-.8-5.8-2.9q-.9-1.2-1.9-2.5-1-1.3-2.1-2.7-1.1-1.5-2.2-2.9c-5.6-7.3-11.7-13.9-18.2-20.4q-1.1-1.2-2.3-2.4c-4-3.9-7.8-7.2-12.5-10.2-1.3-2.3-1.3-2.3-1-5 1.7-3 3.8-5.5 6-8 .8-1 .8-1 1.7-1.9 11.3-12.1 40.7-35.4 57.8-26.2z" fill="#d77100"/><path d="M364.1 362.6q1.8-.1 3.7-.1c6.9 0 11.6.2 17.2 4.5 1.9 2.4 2 4.1 2.4 7.2-.7 6-3.5 10-7.8 14.1-4 2.6-7.8 4.7-12.6 4.7.9 11.1.9 11.1 7 20 7.8 6 16.6 6 26 5 7.9-1.9 13.6-5.8 18.5-12.3 2.5-2.7 2.5-2.7 5.6-3.3 2.9.6 2.9.6 4.8 1.7 1.8 3.1 1.5 5.4 1.1 8.9-4.8 9.6-14.3 15.3-24.1 18.7-11.6 3.2-23.4 2.3-33.9-3.7-3.8-2.5-7.4-5.2-11-8q-.8.6-1.7 1.2c-10.5 7.1-20.2 12.1-33.3 10.8-11.5-2.4-21.2-7.2-28-17-1.8-3.1-2-4.6-1.8-8.2.8-2.8.8-2.8 3.8-4.8 2.7-.1 2.7-.1 6 1 1.8 1.9 3.4 3.9 5.1 5.9 3.1 3.3 6.8 5.2 10.9 7.1q1 .5 2 1c12.7.9 12.7.9 24-4 5.8-5.9 6.4-12.1 7-20q-1-.1-2-.1c-5.3-1.6-9.4-5-12.9-9.2-2.1-5.3-2.9-9.7-.7-15.1 6.7-6.8 15.7-6.1 24.7-6z" fill="#043055"/><path d="M228 184c16.8 5.4 37.7 19.1 46 35 .7 2.5.7 2.5 0 5-3.1 3.5-7.1 6.1-10.8 8.8-12.5 9.3-22.7 20.9-32.4 33-1.8 2.2-1.8 2.2-3.8 4.2-2-.2-2-.2-4-1-11.1-17.6-11.3-41.4-11.4-61.5q0-1.1 0-2.2 0-3.1 0-6.3 0-1.8 0-3.6c.4-3.8 1.4-6.2 3.4-9.4 4.5-3 7.8-2.9 13-2z" fill="#d67100"/><path d="M854 363c24 11.6 40.4 35.6 49.1 60 5.5 17.5 3.4 35.9-4.3 52.5C888 495.9 869.6 514 850 526q-1-.5-2-1c1.2-1 1.2-1 2.5-2 21.5-17.6 36.7-38.8 40.5-67 2-20.7-4-40.4-17.1-56.6-5.7-6.5-11.8-12.6-18.9-17.4-.4-2-.4-2-.5-4.4q-.1-1.2-.1-2.5-.1-1.4-.1-2.7c0-1.4 0-1.4-.1-2.7q-.1-3.4-.2-6.7z" fill="#f49c07"/><path d="M209 434c1.3 1.3 1.3 1.3 2.7 3.1 17.8 21.7 45.5 32.3 71 41.8 16.4 6.1 16.4 6.1 20.7 14.1 1.5 3.3 2.4 6.4 2.6 10q-1 1.5-2 3-.6-.7-1.2-1.5c-7.7-9.4-17.3-14.6-28.2-19.6q-1.5-.8-3.1-1.5c-7.1-3.4-14.3-6.4-21.5-9.4q-1.9-.8-3.7-1.6c-10.6-4.3-21.4-8-32.3-11.4q-1.7-.5-3.5-1.1c-10-2.8-20.2-2.2-30.5-1.9q-.5-1.5-1-3c6.3-7 20.1-21 30-21z" fill="#d77501"/><path d="M415.9 327.6c3.2.1 3.8.1 6.3 2.5q1.9 3.1 3.8 6.3c4.1 5.7 10.3 8.9 17.1 9.9 11.3 1.1 21.8-.3 30.8-7.7q1.8-2.2 3.5-4.4c2.7-3.5 3.9-5 8.2-6.3 3.4.1 3.4.1 5.8 1.1 1.6 2 1.6 2 2.2 5.1-1.2 7.4-5.5 13.9-11.5 18.5-10 6.6-19.6 9.8-31.5 9.6-1.2.1-1.2.1-2.4.1-12-.1-21.7-3.6-30.6-11.6-4.5-4.7-7.7-10.2-7.8-16.8.3-5.3.8-5.7 6.1-6.3zm-161-4.5c3.8 1.1 4.5 2.2 6.5 5.6 5.3 8 10.9 12.7 20.5 15 9.3.9 16.9 0 25.3-4.3 2.7-2.3 4.3-4.3 6.3-7.2 3.1-4.1 3.1-4.1 6.7-5 4.3 1.2 4.3 1.2 5.8 3.8.8 5.9-.6 10.2-4 15-6.2 7.1-13.9 12.2-23.5 13.3-15 .9-28.6-.3-40.5-10.3-5.3-5.1-10-10.5-10.4-18.1.4-3.9.4-3.9 2-6.5 2.4-1.4 2.4-1.4 5.3-1.3z" fill="#042f55"/><path d="M307 543l.7 2c3.1 8.3 6.1 13.4 14.4 17.2 4 1.6 7.4 2.1 11.6 2.4q1.7.1 3.6.2l2.7.2 1 3c-11.3.8-22.1-1.5-33.2-3.6q-1.4-.2-2.9-.5c-14.5-2.7-28.7-5.8-42.7-10.3-2.4-.7-4.8-1.1-7.2-1.6q0-.5 0-1c6.6-.1 6.6-.1 10 1 6.7.7 12.7-.6 19-3q.5-.5 1-1 5-1 10-1.8c4-.7 8.1-3.2 12-3.2z" fill="#f4a106"/><path d="M844 324c20.8 6.5 53.3 20 66 39-3.7-1.6-6.6-4-9.8-6.6-11.2-8.7-23.5-15.3-36.3-21.5q-2-.9-3.9-2c-4.2-2.3-7.1-3.4-12-2.9q.7 1.7 1.3 3.5.9 2.4 1.8 4.7.4 1.1.9 2.3c1.5 4.2 2.5 7.1 1 11.5q1.5.5 3 1-1 0-2 0v7c-1.5-2.8-2.5-5.5-3.2-8.6q-.3-1.3-.6-2.7-.3-1.3-.6-2.8-.7-2.8-1.4-5.6-.3-1.4-.6-2.8c-1.1-4.5-2.3-9-3.6-13.5z" fill="#f0e02f"/><path d="M198 419l2 6q-1.3.9-2.7 1.9-1.8 1.2-3.5 2.4-.9.6-1.8 1.2l-7.3 5.3C183 437 183 437 181 437q0-1 0-2-1.5 0-3 0-.5-2-1-4c14.6-12 14.6-12 21-12z" fill="#f4a205"/><path d="M139 661c5.2 1.5 9.6 3.8 14.3 6.4 27.8 14.9 57.6 25.4 87.7 34.6q-.5 1.5-1 3 0-1 0-2-3 0-6 0 0-1 0-2-1.5-.2-3.1-.4c-3.8-.5-7.4-1.6-11.1-2.9q-1-.3-2-.7-2.1-.7-4.2-1.4-3.2-1.1-6.3-2.2c-8-2.7-15.7-5.7-23.3-9.2-2.7-1.1-5.1-1.8-8-2.2q0-1 0-2-1.9-.6-3.8-1.2c-5.7-1.9-11-4.5-16.4-7.2q-1.4-.8-2.9-1.5c-4.8-2.4-9.5-4.9-13.9-8.1q0-.5 0-1z" fill="#f1eeb6"/><path d="M314 488q4.3.5 8.7.9 1.2.2 2.5.3c4 .4 7.9.9 11.8 1.8-1.8 3.7-6.4 4.7-10 6.4-2.9 1.6-4.7 3.2-7 5.6q-1 0-2 0-1-3.2-2-6.4-.6-1.7-1.1-3.6c-.9-3-.9-3-.9-5z" fill="#d97802"/></svg>