<svg xmlns="http://www.w3.org/2000/svg" width="1024" height="1024" xmlns:v="https://vecta.io/nano"><path d="M630 460l3.3 1.8c11.3 6.3 21.3 14.3 30.7 23.2q1.3 1.2 2.7 2.5c7.2 6.9 12.8 14.2 18.3 22.5q1.1 1.6 2.2 3.2c8.2 12.8 14.1 27 17.8 41.8q.4 1.6.8 3.2c2.3 10.3 2.6 20.2 2.4 30.7q0 2.5-.1 5 0 6.1-.1 12.1l2.8.2c27.8 1.7 50.2 13.3 69 33.8 18.8 22.5 25.2 50.8 22.9 79.5-.4 3.2-1 6.3-1.7 9.5q-.2 1-.4 2c-5.9 25.9-21.2 48.5-43.6 63-18.7 11.4-37.2 15.3-59 15.3q-2.7 0-5.4 0-7.5 0-14.9 0-8.1 0-16.1 0-15.8 0-31.6 0-12.8 0-25.6 0-36.4.1-72.8.1-1.9 0-3.9 0-2 0-4 0-31.8 0-63.6 0-32.6.1-65.3.1-18.3 0-36.7 0-15.6 0-31.2 0-7.9 0-15.9 0-7.3 0-14.6 0-2.6 0-5.2 0c-27 .2-50.8-8.7-70.4-27.6-18.1-18.3-27-42.3-27.2-67.8.1-24.4 8.8-46 25.5-63.8 12.9-12.4 32.8-22.4 50.9-22.4q2 0 4 .1-.1-1.7-.1-3.4c-.6-27.4 8-50.8 26.1-71.6q.8-.9 1.6-1.8c16.2-17.6 40.7-27.6 64.4-28.5q3-.1 6.1-.1 1.6 0 3.2 0c13.8.2 27 3 39.7 8.4q.4-1.3.8-2.6c5.4-15 16.4-28 27.2-39.4l2.4-2.6c47.3-50 125.4-58.4 184.6-26.4z" fill="#23cbed"/><path d="M450.5 170.4q2.3 0 4.6 0 6.3 0 12.6 0 6.5 0 13.1 0 11 0 22 .1 12.7 0 25.5 0 12.2 0 24.5 0 5.2 0 10.4 0 6.1 0 12.3.1 2.2 0 4.5 0c16.9-.1 16.9-.1 23.1 5.1q.6.9 1.3 1.8.7.9 1.5 1.8c2.9 4.5 2.4 9.6 2.4 14.8q.1 1.4.1 2.8c.1 8.9-2.6 15.5-8.4 22.4q-1.2 1.3-2.4 2.7l-11.8 13c-4.3 4.6-8.4 9.4-12.5 14.2q-1.5 1.8-3 3.6-.8.8-1.6 1.8l-10.6 11.8c-2.9 3.1-5.6 6.1-8 9.5-2.1 3.1-4.4 5.5-7.1 8.1q-3.2 3.4-6.4 6.8-.8.9-1.7 1.9a355.37 355.37 0 0 0-16.1 18.5c-3.9 4.9-8.1 9.5-12.5 13.9-2.8 3-5.2 6.1-7.5 9.6q-.8 1.2-1.6 2.4-.6 1-1.2 1.9 1.9 0 3.8 0 17.9.1 35.7.2 9.2 0 18.3.1 8.9 0 17.7.1 3.4 0 6.8 0 4.7 0 9.4.1c1.4-.1 1.4-.1 2.8-.1 5.9.1 10.6 1.1 15.5 4.6 5.2 6.5 5.2 11.8 5.3 19.8q0 1.5 0 3c0 6.3-.4 11-4.8 15.8-4.9 3.9-8 4.5-14.2 4.5q-1 0-2.1 0-3.4.1-6.9.1-2.4 0-4.9 0-6.7 0-13.4 0-4.2 0-8.4 0-13.1 0-26.3 0-15.1 0-30.2.1-11.8 0-23.5 0-7 0-13.9 0-6.6.1-13.2.1-2.4 0-4.8 0-3.3 0-6.6 0h-3.7c-4.4-.5-7.8-1.9-11-4.9-4.8-6.2-4.6-10-4.6-17.7q0-1.5 0-3.1c0-8.4.3-14.3 6.4-20.6l2.4-2.6c1.2-1.3 1.2-1.3 2.4-2.5q1.8-2 3.5-4l10.3-11.6q2.8-3.1 5.6-6.3c3.4-3.9 7-7.8 10.5-11.7q4.8-5.1 9.4-10.4 2.9-3.3 5.8-6.6l11.3-12.8c4.9-5.7 10-11.4 15.2-17q3.8-4.2 7.5-8.5 2.2-2.4 4.5-4.8.6-.8 1.4-1.5 2-2.2 4-4.3c2.7-3.1 5.2-6.4 7.7-9.7q.6-.9 1.2-1.7 1.6-2.1 3.1-4.1-1.8 0-3.6 0-17-.1-33.9-.2-8.7 0-17.5-.1-8.4 0-16.8-.1-3.2 0-6.4 0-4.5 0-9-.1c-1.3.1-1.3.1-2.6.1-5.8-.1-10.4-1.2-15.2-4.6-5.3-6.6-5.2-12.1-5.3-20.2q-.1-1.5-.1-3.1c-.1-6.4.2-11.6 4.4-16.7 7.8-5.8 16.2-5.7 25.5-5.6zm211.3 79.3h2.9q1.6 0 3.2 0h3.4q5.5 0 11 0 3.9 0 7.7 0 8.1 0 16.1 0 9.3 0 18.6 0 8.9-.1 17.9-.1 3.8 0 7.6 0 5.3 0 10.6 0 1.6 0 3.2 0c5.4 0 9.4.2 14 3.4 2.7 4.1 2.4 7.3 2.5 12.1q.1 1.2.1 2.5c.2 10.6-7 17.3-14 24.5q-1.9 1.9-3.8 3.9-1 1-1.9 2a261.91 261.91 0 0 0-7.2 8.1c-2.5 2.8-5 5.5-7.5 8.1q-1.5 1.7-3.1 3.4-.7.9-1.5 1.7L723.8 339c-2.9 3.3-6 6.5-9 9.8-2.6 2.9-5 5.9-7.5 8.9q-1.2 1.5-2.4 3c-1 1.1-1 1.1-1.9 2.3q1.3 0 2.6 0 12.2.1 24.5.2 6.3.1 12.5.1 6.1.1 12.2.2 2.3 0 4.6 0 3.2 0 6.5.1 1.8 0 3.7 0c4.7.6 8.1 1.9 11.2 5.5 1.6 4 1.7 7.6 1.7 11.8q0 1.2.1 2.4c0 4.2-.3 6.9-2.9 10.2-3.6 3.3-5.9 3.6-10.6 3.6q-1.5.1-3 .1-1.7 0-3.4 0-1.7 0-3.5 0-5.8 0-11.6 0-1.9 0-4 .1-9.3 0-18.7 0-10.8 0-21.6.1-8.3 0-16.7 0-5 0-9.9.1-5.6 0-11.2 0-1.6 0-3.3 0c-7.4 0-7.4 0-11.4-2.4-3.7-4.2-3.1-8.3-3.2-13.7q-.1-1.3-.2-2.7c-.1-7 1.9-10.7 6.6-15.7q1-1.1 2.1-2.3c.9-.8.9-.8 1.8-1.7 2.5-2.4 4.9-4.9 7.2-7.6 3.5-4 7.2-8 10.9-11.9l12.4-13.6c1.9-2.3 4-4.5 6-6.7 3.1-3.5 6.1-7 9-10.6 4.1-5.1 8.6-10 13.1-14.8 2.5-2.8 4.5-5.7 6.5-8.8q-1.1 0-2.3 0-10.8.1-21.6.1-5.6 0-11.2.1-5.3 0-10.7 0-2 0-4.1 0-2.9 0-5.7 0-1.7 0-3.3 0c-4.9-.3-8.2-1.4-11.9-4.6-3.7-4.3-3.4-8.5-3.5-13.9q-.1-1.1-.1-2.3c-.1-5.2.8-8.3 4.4-12.4 3-1.9 5.3-2.3 8.8-2.3z" fill="#24ceef"/><path d="M273.3 286.7q1.3 0 2.6 0 1.4 0 2.8 0 1.5 0 3 0 4.9 0 9.8 0 3.4 0 6.8-.1 7.1 0 14.3 0 9.1 0 18.2 0 7-.1 14.1-.1 3.3 0 6.7 0 4.7 0 9.4 0 1.4 0 2.8 0c5.6 0 8.8.7 13.2 4.5 2.5 3.7 2.4 5.8 2.4 10.2l.2 3.8c-1.2 8-6.6 13.4-12 19q-1.7 1.8-3.5 3.7-.8.8-1.6 1.7-2.6 2.8-5.1 5.7c-3.5 4.1-7.3 8.1-11 12.1l-7.8 8.7c-3.4 4-7 7.8-10.6 11.6-9.6 10.2-9.6 10.2-18 21.5q1.2 0 2.4 0 11.2-.2 22.4-.3 5.7-.1 11.5-.2 5.5 0 11.1-.1 2.1 0 4.2 0c11-.3 11-.3 14.4 1.8 2.3 2.7 3.6 5.4 3.6 8.9q0 1.1 0 2.2-.1 1.1-.1 2.3v2.2c-.1 4.5-.6 7.5-3.5 11.2-2.3 1.2-3.7 1.1-6.3 1.1-1.4.1-1.4.1-2.8.1q-1.4 0-3 0-1.5 0-3.2 0-5.2 0-10.4 0c-1.8 0-1.8 0-3.6.1q-9.4 0-18.8 0-9.7 0-19.4.1-7.5 0-15 0-3.5 0-7.1.1-5.1 0-10.1 0h-3c-6.7 0-6.7 0-9.9-2.4-4.1-6.1-3.7-15-2.4-22.1 2.3-4.5 5.3-7.6 9-11q2.5-2.5 5-5.1 1.1-1 2.3-2.1c1.8-1.7 1.8-1.7 2.7-3.8q1 0 2 0 .4-.9.8-1.8c1.2-2.3 2.5-3.7 4.4-5.4 3.1-3.1 6-6.3 8.9-9.6 2.2-2.6 4.6-5.1 6.9-7.7q8.9-9.8 17.4-19.9.6-.8 1.3-1.6c2.4-2.8 2.4-2.8 4.3-6h-2.2q-10.3-.1-20.6-.2-5.3 0-10.6-.1-6.1 0-12.2-.1h-3.8q-1.8 0-3.6-.1-1.6 0-3.2 0c-3.5-.6-5.2-2-7.8-4.5-1.8-3.5-1.3-7.5-1.3-11.3q-.1-1.3-.1-2.6c0-4.1 0-6.5 2.2-10.1 3.3-3 6-4.2 10.5-4.3z" fill="#24cdee"/></svg>