<svg xmlns="http://www.w3.org/2000/svg" width="1024" height="1024" xmlns:v="https://vecta.io/nano"><path fill-rule="evenodd" d="M304 63.7c10.4 6.7 15.4 16.5 18 28.3v34h380c0-18.4-5.1-40.7 9.3-55.5 8.4-7.5 16.2-11.8 27.6-12 10.4.1 19.6 3.1 27.1 10.5 9.9 11.4 11.6 23.4 11.3 37.9q-.1 2.4-.1 4.8 0 5.6-.1 11.3-.1 1.5-.1 3 13.6-.1 27.1-.1 7 0 13.9 0 6.8-.1 13.6-.1 2.6 0 5.2 0c22.4-.1 44.3 2.7 61.2 19.1 20.9 22.2 23.3 47.3 23.3 76.5q-.1 4.8 0 9.6 0 8.5 0 17-.1 12.7-.1 25.4.1 21.4 0 42.7 0 21.3 0 42.5 0 1.4 0 2.7 0 5.4 0 10.8 0 50.3 0 100.6 0 44.8 0 89.6 0 2.9 0 5.8 0 1.4 0 2.8 0 7.2 0 14.4 0 1.4 0 2.8 0 37.6 0 75.1 0 1.4 0 2.7 0 5.4 0 10.7 0 18.7 0 37.3 0 24.1 0 48.3-.1 12.7-.1 25.5 0 8.6 0 17.2 0 3.9 0 7.9 0 5.4 0 10.9 0 1.6 0 3.3c.1 24.1-6.3 45.5-23.3 63.3-20.8 19.9-47.9 22.2-75.3 22.1q-5.1 0-10.2 0-8.9 0-17.8 0-13.3 0-26.6 0-22.5 0-44.9 0-22.3-.1-44.7-.1h-2.8q-5.6 0-11.3 0-51.3 0-102.7 0-48.5-.1-97-.1-1.6 0-3.1 0-6 0-12.1 0-3 0-6 0-3 0-6 0-47.8 0-95.7 0-14 0-28 0-29.5 0-59 0-12.2 0-24.5 0-10.2 0-20.4-.1-4.1 0-8.3 0-5.7 0-11.4 0-1.8 0-3.5 0-4.4 0-8.9 0c-19.8-.7-38.8-8.2-52.5-22.8q-1.1-1.2-2.1-2.3c-16.7-18.6-19.8-41-19.6-65q0-4.9 0-9.8-.1-8.6 0-17.2 0-12.9 0-25.7 0-21.7 0-43.4 0-21.5 0-43.1 0-1.4 0-2.7 0-5.4 0-10.9.1-51 .1-102.1.1-45.4.1-90.8 0-1.5 0-2.9 0-4.4 0-8.8 0-5.8 0-11.6 0-1.5 0-2.9 0-44.9 0-89.8 0-14.8 0-29.7 0-1.3 0-2.7 0-1.3 0-2.6 0-25.9.1-51.7 0-12.9 0-25.9 0-8.7 0-17.4 0-4 0-8c0-28 .8-54 21-75.6 17.6-16.3 37.9-21.2 61.3-21q2.4 0 4.9 0 6.6 0 13.2.1 6.8 0 13.6 0 13.2.1 26.5.2 1.4 0 2.8 0-.1-6.1-.2-12.3 0-2.5 0-5c-.3-13.8.1-25 8.4-36.6 12.5-14.7 31.9-17.3 48.8-8.4z" fill="#fef0b9"/><path d="M725 318c7.1 2.5 9.7 8.9 12.8 15.1 4.7 9.5 10.8 18 16.8 26.7 12.6 18.2 23.7 39.1 19.8 62-3.9 16-12 27.9-26 36.6-4.4 2.6-8.7 4.7-13.4 6.6q1.2.1 2.4.2c14.9 1.2 29.6 2.7 44.2 5.7q1.7.3 3.5.7c15.7 3.4 31.3 8.8 40.9 22.4 2.6 4.8 2.3 9.5 2.3 14.8q0 1.5 0 3 0 5 0 10 .1 3.6.1 7.2 0 10.8 0 21.5 0 5.1.1 10.2 0 16.9 0 33.7v2.2q0 1.1 0 2.2 0 2.2 0 4.4v2.2q.1 17.6.1 35.2.1 18.1.1 36.2 0 10.2.1 20.3.1 9.6 0 19.1 0 3.5.1 7 0 4.8 0 9.6 0 1.4 0 2.8c-.1 6.2-1.8 9.3-6.1 13.8-22.2 19.7-60.5 22.8-88.8 22.7h-3.3q-5.2 0-10.4 0-3.5 0-7.1-.1-8.6 0-17.2 0 1.7.9 3.4 1.8c15.3 8 15.3 8 22.2 12.6q1 .7 2.1 1.4 2.1 1.4 4.2 2.8 3.2 2.1 6.4 4.2 2 1.3 4 2.6l1.9 1.3c8.1 5.3 8.1 5.3 9.5 9.3.4 3.3.5 5.5-.6 8.7-16.8 18.8-52.6 26.4-76.1 31.3l-1.9.4c-11.1 2.3-21.9 3.1-33.2 3q-1.2 0-2.5 0c-13.4-.1-26.3-1-39.4-4.4q-1.4-.4-2.8-.7c-25.2-6.7-50.3-17.7-71.9-32.4-2.3-1.2-2.3-1.2-4.9-.2-2.7 1.5-5.3 3.1-7.9 4.7-20 12.6-41.5 22.2-64.3 28q-2.2.6-4.3 1.2c-46.1 12.5-98.2-.3-139.8-20.9l-2.6-1.2c-4.8-2.5-9.5-4.9-12.9-9.3-1-3.5-.5-5.7.4-9.2 3.6-5.3 8.2-8.8 13.6-12.1q1.1-.7 2.2-1.4 2.3-1.5 4.7-3 3.9-2.3 7.7-4.8c10.7-6.7 21.5-13 32.8-18.7q-.5-1.5-1-3-1.4.1-2.8.2c-53.6 3.8-120-1.9-163.3-36.9-12.7-11.5-19.8-29.4-21.1-46.2-1.1-23.7 4.6-42.6 20.6-60.7 14.7-16 33.2-26.1 52.6-35.4q-.8-.6-1.6-1.1c-4.1-3.1-7.9-6.1-11.4-9.9q-.7-.7-1.4-1.4c-10.9-11.7-13.2-25.4-12.9-40.7.3-6.1 1.7-11.3 4.3-16.9l1.2-2.7c9.5-19.5 28.7-30.8 47.8-39.3q1 0 2 0-.9-1.1-1.8-2.2c-9.1-11.5-14-21.7-12.2-36.8 3.2-14.2 15.4-26.4 27.2-34.3C303 380.9 342.9 376.6 378 383q1.1.2 2.2.4c20.2 3.5 40 10 55.8 23.6q1 .9 2.1 1.7c7.9 7.2 13.4 17.6 14.1 28.3.2 12.9-2.7 21.1-11.2 31-1.9 2-3.7 3.4-6 5q-1 0-2 0 0 1 0 2 1.3.4 2.6.8c15.9 5.7 30.8 18.6 39 33.3 7.1 15 9.2 30.3 3.6 46-3.7 8.9-9 15.7-15.2 22.9q1.1.4 2.2.8c2.8 1.2 5.4 2.5 8.1 3.8q1.3.7 2.7 1.4 1 .5 2 1l.6-2c2-4.3 4.9-7.6 8-11.2l1.9-2.3q6.1-7.3 12.5-14.3c2.7-3 5.1-6.2 7.5-9.4 2.2-2.7 4.1-3.7 7.6-4.5 6.2 1.1 9.5 5.3 13.9 9.7q1 1 2.1 2c5.5 5.3 10.2 11.1 14.9 17q1.4 1.7 2.7 3.3c11.1 13.3 20.5 27.8 29.3 42.7q.7-.6 1.4-1.3c5-4.5 10.2-8.3 15.8-12 1.2-.7 1.2-.7 2.4-1.5 6.2-4.1 6.2-4.1 9-5.2 2.8-1.9 2.8-1.9 3-5.8q0-2.5-.1-4.9 0-1.4 0-2.7 0-3-.1-5.9-.1-4.6-.1-9.2-.1-9.8-.2-19.6-.2-11.4-.3-22.7 0-4.5-.1-9.1-.1-2.8-.1-5.6 0-1.2 0-2.5c-.1-7.7 2.6-14.8 7.8-20.6 3.5-3.1 7.5-5.2 11.6-7.4 1.4-.7 1.4-.7 2.7-1.5 21.9-10.7 48.4-11.8 72.3-13.5l-2-.8c-15.7-6.1-26.7-14.7-34-30.2-2.9-6.8-3.5-12.9-3.4-20.3q0-1.5 0-3c.2-7.8 1.2-14.5 4.4-21.7q.4-.9.8-1.8c5.4-12 12.3-23.1 19.7-33.9q1.3-1.9 2.6-3.7.6-.9 1.2-1.9c3.6-5.4 6.6-11 9.4-16.9 4.7-9.6 11.6-14.3 22.3-12.8z" fill="#014855"/><path d="M303 63c8.2 5.8 14.7 13.5 18 23 2.2 13.2 1 26.7 1 40h380V89c5.3-13.9 9.6-21.4 22.5-27.9 8.5-3.7 19.8-3.4 28.5-.5 10 4.3 16.5 11 21.2 20.9 3.4 9.3 3.3 18 3.1 27.8q-.1 2.4-.1 4.8-.1 6-.2 11.9 1.4 0 2.9 0 13.4-.1 26.8-.2 6.9 0 13.8 0 6.7-.1 13.4-.1 2.5 0 5.1 0c23.2-.2 43.9 5 61.3 21.4 29 31.4 20.7 78 20.7 116.9H104c0-94.6 0-94.6 21.6-117.7 10.9-10.5 23.6-16.6 38.4-19.3q1.3-.3 2.7-.5c3.7-.6 7.3-.6 11-.6q1.2 0 2.3 0 3.7 0 7.4 0 2.6 0 5.2 0 6.7 0 13.5 0 6.9 0 13.8.1 13.6 0 27.1 0 0-1.5-.1-3.1-.1-5.9-.1-11.7 0-2.5-.1-5c-.3-13.7 1-25.3 10.3-36.2 12.5-12.1 30.2-15.2 46-7z" fill="#128d9e"/><path d="M630 525l18 6c12 3.2 23.3 4.9 35.6 5.8q1.2 0 2.5.1c16.7 1.2 33.2 1.5 49.9 1.1q1.4 0 2.8 0c21.9-.4 43.8-3 64.2-11q3-1 6-2 .3 40.7.5 81.4 0 18.9.2 37.9.1 16.4.1 32.9.1 8.7.2 17.5 0 8.2 0 16.4 0 3 .1 6c.2 15.2.2 15.2-3 19.4-2.4 1.6-4.4 2.6-7.1 3.5q-2.2 1-4.5 2-2.3.9-4.6 1.7-1.2.4-2.5.9c-20.7 7.1-42.3 6.5-63.9 6.5q-3.3 0-6.6-.1-7.9 0-15.9 0c1.4-3.6 2.9-6.5 5.2-9.6 16-22.5 29.3-55.1 26.8-83.4-1.2-3.1-2-4.4-4.8-6.1-2.6-1-4.3-1.1-7.1-1-1.4.1-1.4.1-2.9.1l-3.1.2q-1.6.1-3.2.1c-10.7.6-21.3 2-31.9 3.7q-1.3.2-2.6.4-7.7 1.3-15.4 2.6-3 .5-6 1 0-1.1 0-2.2c1.8-40.2 1.8-40.2-9-77.8-4.1-2.7-7.2-3.5-12-3q-3 1-6 2v-53z" fill="#fdf0b9"/><path d="M289.7 488.3c13.5 5.4 28.9 7.8 43.4 7.9q1.2 0 2.3 0c21.6.2 41.4-1 62.2-7.2 8.8-2.6 14.7-2.4 23 1.4q1.1.5 2.3 1.1c7.8 3.6 14.4 8.2 21.1 13.5q1.2.8 2.4 1.7c6.9 5.2 12.1 14.8 13.6 23.3 1 10.6-.9 20.1-7.1 28.8-20.4 23.8-63.1 30.5-92.5 32.7-40.9 2.9-90.5-.3-124.4-26.4-6.8-6.3-11.4-15.8-12.3-25-.3-11.9 3.2-22.1 11.1-31.2 9.4-9.1 22-15.1 33.8-20.6q1.1-.5 2.2-1.1c7-3 12-1.9 18.9 1.1zm-18.4 114c21.7 6.2 42.4 8.1 65 8.1q1.5 0 3.1 0 4.4 0 8.9-.1 1.3 0 2.6 0c10.4-.1 20.6-1.3 31.1-2.3l-1 53-19-4-15.1-2.7q-2.6-.4-5.3-.9c-7.5-1.2-15-1.8-22.7-2.2q-1.5-.1-3-.2c-7-.4-7-.4-12.9 3-5 7.4-1.6 18.8 0 27 4.3 21.5 11.9 41.8 24.1 60 1.9 3 1.9 3 1.9 5-42.4 1.4-96.9-3.9-132-30q-1-.7-2-1.4c-10.3-7.9-15.7-21.3-17.7-33.8-1.7-15 1.6-29.4 11-41.4 3-3.7 6.3-7 9.7-10.4q1.1-1.1 2.2-2.2c12.5-11.9 29.4-19 45.3-25.2q1-.4 2-.8c8.7-3.3 15.2-1.2 23.7 1.5z" fill="#396474"/><path d="M517 568c4 1.5 6.2 4.2 8.9 7.4q.7.9 1.4 1.8c6.6 8 12.7 16.4 18.7 24.8l1.8 2.4q2.5 3.6 5 7.2.7 1 1.5 2.1c3.1 4.6 4.5 8.6 5.3 14.1.6 3.1 2.4 4.9 4.4 7.2 11.6 34.5 3.4 76.4-12.1 108.3-4.4 8.8-9.2 16.4-15.9 23.7q-.8.9-1.7 1.9-2.8 3.1-5.6 6.2-.9.9-1.8 2l-1.8 1.8q-.7.8-1.5 1.7c-1.7 1.5-3.5 2.4-5.6 3.4-23.1-22.5-37.9-45.6-46-77-.3-1-.3-1-.5-2-5.5-21.5-5.9-52.5 3.5-72.8 1.1-2.3 1.6-4.5 2.2-7 6.1-20.6 24.9-42.3 39.8-57.2z" fill="#fea18a"/><path d="M321 671c26 1.3 51.4 5.7 75 17q1.1.5 2.3 1.1c14.3 6.9 26.1 16 37.7 26.9q.9.8 1.8 1.6c5.5 5.3 10.1 11.4 14.7 17.5q2.5 3.1 4.9 6.3c3.6 4.5 7 9.2 10.4 13.9 9.3 12.6 18.9 24.9 29.2 36.7-16.9 9.7-47.6 5.3-65.5.7-34.6-9.6-68-31-87.5-61.7-.6-.9-.6-.9-1.1-1.8-10.6-16.8-21.9-37.8-21.9-58.2z" fill="#fda18a"/><path d="M303 63c8.7 6.2 16.3 14.9 18.5 25.6.6 4.2.7 8.3.7 12.5q0 1.3 0 2.7 0 4.5 0 8.9 0 1.5.1 3.1 0 8 0 16.1 0 8.3.1 16.6 0 6.4 0 12.8 0 3 .1 6.1c.1 14.7-.2 28.9-10.5 40.6-8.8 8.5-17.7 11.6-29.7 11.5-9.5-.4-17.4-3.9-24.3-10.5-11.5-13.2-11.6-27.4-11.5-44q0-3.2 0-6.4-.1-6.7 0-13.3 0-8.6 0-17.1-.1-6.6 0-13.2 0-3.1 0-6.2c-.1-14.7.6-27.1 10.5-38.8 12.5-12.1 30.2-15.2 46-7zm459.3 2.6c7 5.8 12.9 14.5 14 23.7.1 2.6.1 5.2.1 7.8q0 1.5 0 3 0 4.8 0 9.6 0 3.4 0 6.8.1 7 0 14.1 0 9 .1 18 0 7 0 13.9 0 3.4 0 6.7c.1 16.1-.6 28.3-12.1 40.5-8 7.6-18.6 9.9-29.4 9.6-9.6-.5-17.6-5.4-24-12.3q-.7-.8-1.5-1.5c-9.3-11.4-8.1-27-8.1-40.7q0-3.3 0-6.5 0-6.7 0-13.4 0-8.6 0-17.2 0-6.6 0-13.3 0-3.1-.1-6.3c0-15.5.7-28.2 12.2-39.9 14-12 33.5-12.8 48.8-2.6z" fill="#004956"/><path d="M715 671c-1.6 23.4-12.6 46.7-27 65q-1 1.3-2.1 2.7C666 763.9 638.8 781.9 608 791q-1.4.4-2.9.9c-18.1 5.3-37.4 5.3-56 3.2l-2.1-.2c-4.7-.6-4.7-.6-7-2.9q.9-.9 1.7-1.8c10.5-11.2 19.5-23.4 28.1-36.1 5.2-7.6 10.9-14.9 16.6-22.1q2.1-2.6 4.1-5.2c26.6-33.7 67.4-50 108.9-54.9 5.2-.6 10.3-1 15.6-.9z" fill="#fda18a"/><path d="M385 404q1.1.2 2.2.5c16.4 4 34.3 10.7 43.7 25.4 2.2 4.2 2.5 7.5 2.1 12.1-2.9 9.8-8.9 15.2-17.6 20-32.5 17-76.4 21.8-111.6 11.4-6.2-2-12.1-4.6-17.9-7.3q-1.3-.6-2.7-1.3c-8.9-4.3-15.4-9.3-19-18.8-.8-6.8-.1-11.4 3.8-17 15-17.9 40.7-25.4 63.2-27.7 17.9-1.3 36.2-1.4 53.8 2.7z" fill="#396474"/><path d="M605.8 328.3c8.5 6.4 15.2 15.1 17.2 25.7 1.2 13.7-1.1 25.1-10 36-7.3 7.9-17.5 12.4-28.2 13.3-11.5.3-21.9-1.7-30.8-9.4q-1-.9-2-1.9c-1-.9-1-.9-1.9-1.8-7.8-8-10.6-16.9-10.7-27.8.2-11.7 3.6-19.9 11.6-28.4 15.6-14.6 36.6-17.5 54.8-5.7z" fill="#58b2b6"/><path d="M718 346q2 0 4 0c1.6 1.9 1.6 1.9 3.2 4.5q.9 1.4 1.8 2.8.9 1.5 1.8 3.1 1.8 2.9 3.6 5.8.9 1.5 1.8 2.9c2.3 3.7 4.8 7.2 7.3 10.7 9 12.9 14.8 26.3 13.5 42.2-1.9 9.7-7.5 16.7-15.2 22.7-3.6 2.4-6.5 3.6-10.8 4.3q0-.9 0-1.8-.1-3.9-.2-7.9 0-1.3 0-2.8c-.2-4.5-.3-6.8-3.1-10.6-2.7-1.9-3.9-2.6-7.3-2.5q-1.1 0-2.2 0c-3.3.9-4.3 1.8-6.2 4.6-.6 3.6-.7 7.1-.8 10.8v2.9q-.1 3.7-.2 7.3c-9-2.6-15.5-6.6-20.7-14.7-5.2-10.1-5.7-19.5-2.4-30.5 4.9-14.1 14-26.4 22.3-38.7 1.7-2.5 3.4-5 5-7.7q.9-1.5 1.8-3 .7-1.3 1.5-2.6.7-.9 1.5-1.8z" fill="#fca139"/><path d="M709 486q0 1.6 0 3.3.1 2.2.2 4.4 0 1.1 0 2.2c.2 4.1.5 5.7 3.1 9.1 4.1 3 5.7 2.7 10.7 2 2.4-1.9 3.6-3.3 5-6q.3-3.8.6-7.6c0-1.1 0-1.1.1-2.2q.2-2.6.3-5.2c21.5-.5 60.9.3 78 16q0 1 0 2c-25.1 15.3-57.4 14.5-85.7 14.3q-4.3 0-8.6 0c-14.7 0-29.2 0-43.7-2.3q-1.4-.2-2.9-.4-3.4-.6-6.8-1.4-1.1-.2-2.3-.5c-9.1-2-19.7-4.5-26-11.7 4.6-3.3 9-5.3 14.4-7.1q1.2-.3 2.4-.7c7.6-2.5 15.3-4 23.2-5.2l3.8-.6c11.4-1.6 22.7-2.6 34.2-2.4z" fill="#fcf0bb"/><path d="M371.9 786.6q1.4.9 3 2c28 18 59 26.3 92.1 27.4-1 2-1 2-3.1 2.9q-1.4.4-2.8.9-1.5.5-3.1 1-1.7.5-3.4 1.1-1.7.5-3.4 1.1c-14.7 4.5-29.7 8-45.2 8.3q-1.1 0-2.2 0c-32.8.5-61.1-6.4-90.8-20.3q0-1 0-2c1.6-1.2 1.6-1.2 3.8-2.5q1.2-.8 2.5-1.5 1.3-.8 2.7-1.6c1.4-.8 1.4-.8 2.8-1.7 36.1-21.1 36.1-21.1 47.1-15.1zm301.9-1.5l2.2.9q1.1.4 2.2.8l6.8 2.7q1.2.5 2.5 1c7.9 3.5 15.3 7.7 22.6 12.3q2 1.3 4.2 2.5 1.1.7 2.2 1.4 1 .6 2 1.2.8.5 1.5 1.1 0 1 0 2c-39.6 18.2-83.1 27.6-126 15-1.5-.4-1.5-.4-3-.9q-7-2.1-14-4.5-1-.3-2.1-.7c-2.1-1-3.4-2.2-4.9-3.9q.8-.1 1.7-.1c31.6-2.1 65.1-9.7 90.8-29.4 4.2-2.8 6.6-2.9 11.3-1.4z" fill="#fca18b"/><path d="M636 604c4.8 51.7 4.8 51.7-1 65-1.6 1.4-1.6 1.4-3.6 2.3q-1 .4-2.1.9c-2.3.8-4.5 1.2-6.9 1.6-4.8.9-6.5 3.2-9.5 7-2.1 2.5-4.4 4.1-7.1 6-5 3.5-9.5 7.4-13.9 11.6-3.7 3.5-3.7 3.5-5.9 4.6q0-.9 0-1.7 0-9.2.1-18.3 0-3.4 0-6.8 0-4.9 0-9.8 0-1.6 0-3.3c0-4.8-.1-9.5-.5-14.3q-.1-1.2-.2-2.4-.3-3-.6-6c.3-4.4 1.7-5.9 4.7-8.8 2.1-1.6 4.3-3.1 6.5-4.6q1.7-1.2 3.3-2.4C628.4 604 628.4 604 636 604z" fill="#fba08a"/><path d="M402 605c3.8.6 6.7 1.7 10.1 3.6q1.4.8 2.9 1.7 1.5.8 3.1 1.7 1.5.9 3.1 1.8c27 15.6 27 15.6 31.8 25.2q-.4 2.5-.9 4.9c-3.7 19.5-2.2 39.5-1.1 59.1-4-3.4-7.9-6.8-11.8-10.4-4.3-4-9-7.4-13.9-10.8-2.3-1.8-2.3-1.8-3.8-3.9-1.9-2.4-3.3-2.7-6.2-3.4q-2.7-.7-5.3-1.5-1-.3-2.1-.7c-2.3-.9-4-1.7-5.9-3.3-1.3-3.1-1.4-6.1-1.5-9.5q-.1-1.4-.2-2.8-.2-4.4-.3-8.7c0-1.3 0-1.3-.1-2.6-.4-13.5.7-26.9 2.1-40.4z" fill="#fca18b"/><path d="M596 340c5 3.8 9.9 8.6 11 15 .7 8.1 1.4 16.4-4 23-6.5 7.3-13.3 10.8-23.1 11.4-8.3-.9-15.6-4.9-20.9-11.4-3.8-6.8-5.3-14.3-4-22 2.3-7.4 6.5-12.8 13-17 9.6-4.7 18.7-3.8 28 1z" fill="#fdf1b8"/><path d="M827.4 308c5.9 3.4 9.2 7.9 12 14 1.7 8.2.3 14.6-3.4 22-4.1 6.1-9.8 11.4-17 13.6-6.5 1.3-12.3.6-18-2.6-5.4-4-9.5-7.7-12-14-1-8.3-1-16.1 4-23q.6-.9 1.3-1.9c7.8-10.5 21.2-13.4 33.1-8.1z" fill="#57b2b6"/><path d="M240.5 341.6c5.6 3.4 9.5 8.2 11.5 14.4 1 7.6-.1 14.4-4 21-4.4 5.3-10.2 8.3-17 9.3-6.5.3-12.2-1.7-17.3-5.7-5.5-5.4-6.8-10.2-7.1-17.7.1-6.7 1.4-11.6 5.4-16.9 7.4-7 19.2-8.7 28.5-4.4z" fill="#58b3b6"/><path d="M515.3 426.6c5.1 2.9 8.6 7 11.1 12.4 1.3 6.5 1 12.3-2.4 18-5 5.6-9.8 9.4-17.3 10.2-6.1.4-10.7-.6-15.7-4.2-5.4-4.9-7.7-9.6-8.4-16.9.2-5.7 2.4-10 6.3-14.1 7.5-6.9 16.6-9.8 26.4-5.4z" fill="#59b3b6"/><path d="M408.7 321.1c4.7 2.7 7.6 5.7 9.3 10.9.6 6-.6 10.1-4 15-3.8 3.9-7.2 4.3-12.4 4.6-5-.2-8.5-.7-12.3-4.1-3.4-4-4.6-7.8-4.2-13.1.8-4.9 2.5-8.4 6.4-11.7 5.8-3.7 10.8-3.5 17.2-1.6z" fill="#79c4c0"/><path d="M820 321c2.3 1.9 3.7 3.3 5 6 .4 5 .1 8-3 12-2.8 2.9-4.4 3.9-8.4 4.6-4.7-.8-6.3-2.3-9.6-5.6-1.4-2.9-1.3-4.8-1-8 3.8-7.3 8.7-11.5 17-9z" fill="#fcf1b8"/><path d="M457.6 598.2q3.7 1.9 7.4 3.8c-.6 3.4-1.4 6.2-3.1 9.3q-.5 1.1-1.1 2.1-.4.8-.8 1.6c-4.5-1.5-8-4-11.7-6.8-5.6-4-11.3-7.8-17.3-11.2 9-9.3 16.7-3.7 26.6 1.2z" fill="#3a6574"/><path d="M231.7 353.9c3.3 1.1 3.3 1.1 5.2 2.8 1.4 3.1 1.6 5 1.1 8.3-1.8 2.7-3.1 4.5-6 6-2.9.4-2.9.4-6 0-3.1-2.7-3.9-4.4-4.6-8.5.6-3.5.6-3.5 3.2-6.5 3.4-2 3.4-2 7.1-2.1z" fill="#faf1b8"/><path d="M509 441q1 1 2 2c-.5 5.5-.5 5.5-3 8-3 .3-3 .3-6 0q-1-1-2-2c.2-2.8.7-4.5 2.3-6.8 2.3-1.6 3.9-1.6 6.7-1.2z" fill="#f8f1b7"/></svg>