<svg xmlns="http://www.w3.org/2000/svg" width="1024" height="1024" xmlns:v="https://vecta.io/nano"><path d="M398.1 168.3C409.3 176 414.8 186 418 199v26h186v-32c5.3-13.3 11.8-21.2 25-27q1.1-.6 2.3-1.1c9.4-3.1 21.3-1.8 30 2.5 10.1 6 17.7 13.5 21.7 24.6 1 3.9 1.1 7.6 1.1 11.6q0 1.9 0 3.8 0 1.9 0 3.9 0 2-.1 4 0 4.8 0 9.7 1.1 0 2.3 0 10.8-.1 21.6-.2 5.5 0 11.1 0 5.3-.1 10.7-.1 3 0 6 0c11.9 0 24 1.2 34.5 7q1 .5 2.1 1c18.7 10.1 31.9 25.1 38.7 45.3 3.2 11.1 3.4 21.7 3.4 33.1q0 2.9 0 5.8 0 7.8 0 15.6 0 8.4 0 16.9 0 16.5 0 33.1 0 13.4 0 26.8 0 1.9 0 3.9 0 3.9 0 7.8 0 35.4 0 70.8 0 32.3 0 64.6 0 36.3 0 72.7 0 3.8 0 7.7 0 1.9 0 3.9 0 13.4 0 26.8 0 16.4 0 32.7 0 8.3 0 16.7 0 7.6 0 15.3 0 2.7 0 5.5c.1 23.6-5.9 44.3-22.6 61.5-9.6 9.6-19.4 16.4-32.1 21.1q-1 .4-1.9.7c-13.1 4.6-27.2 4.3-40.9 4.3q-2.8 0-5.7 0-7.7 0-15.4 0-8.4 0-16.8 0-16.3 0-32.7 0-13.3 0-26.6 0-1.9 0-3.8 0-3.9 0-7.7 0-25.9 0-51.8 0h-2q-5.1 0-10.2 0-1 0-2.1 0-2 0-4.1 0-32 0-63.9 0-36 .1-72 .1-19 0-38 0-16.2 0-32.4 0-8.3 0-16.6 0-7.5 0-15.1 0-2.7 0-5.5 0c-25.8.1-47.8-6-66.9-24.3-17.5-18.4-22.2-39.2-22.1-63.7q0-2.9 0-5.8 0-7.9 0-15.8 0-8.5 0-17-.1-16.6 0-33.3 0-13.5 0-27 0-2 0-3.9 0-4 0-7.9-.1-35.7 0-71.3 0-32.6 0-65.1-.1-36.6 0-73.2 0-3.9 0-7.8 0-1.9 0-3.9 0-13.5 0-27-.1-16.5 0-33 0-8.4 0-16.8 0-7.7 0-15.4 0-2.8 0-5.5c-.1-14.4 1.5-27.6 8.6-40.4q.5-1 1.1-2.1c4-7 9-12.6 14.8-18.2q1.2-1.1 2.3-2.3c15.3-14.3 33.7-20 54.1-19.9q2.3 0 4.5 0 5.9 0 11.7.1 6 0 12 0 11.7 0 23.4.1 0-.9 0-1.8-.1-4.1-.1-8.2 0-1.4 0-2.8c-.1-14.7 4.3-28.2 14.3-39.1 12-11.1 31.5-13.3 45.9-4.8z" fill="#f9e9d3"/><path d="M398.1 168.3C409.3 176 414.8 186 418 199v26h186v-32c5.3-13.3 11.8-21.2 25-27q1.1-.6 2.3-1.1c9.4-3.1 21.3-1.8 30 2.5 10.1 6 17.7 13.5 21.7 24.6 1 3.9 1.1 7.6 1.1 11.6q0 1.9 0 3.8 0 1.9 0 3.9 0 2-.1 4 0 4.8 0 9.7 1.1 0 2.3 0 10.8-.1 21.6-.2 5.5 0 11.1 0 5.3-.1 10.7-.1 3 0 6 0c11.9 0 24 1.2 34.5 7q1 .5 2.1 1c18.7 10.1 31.9 25.1 38.7 45.3 3.2 11.1 3.4 21.7 3.4 33.1q0 2.9 0 5.8 0 7.8 0 15.6 0 8.4 0 16.9 0 16.5 0 33.1 0 13.4 0 26.8 0 1.9 0 3.9 0 3.9 0 7.8 0 35.4 0 70.8 0 32.3 0 64.6 0 36.3 0 72.7 0 3.8 0 7.7 0 1.9 0 3.9 0 13.4 0 26.8 0 16.4 0 32.7 0 8.3 0 16.7 0 7.6 0 15.3 0 2.7 0 5.5c.1 23.6-5.9 44.3-22.6 61.5-9.6 9.6-19.4 16.4-32.1 21.1q-1 .4-1.9.7c-13.1 4.6-27.2 4.3-40.9 4.3q-2.8 0-5.7 0-7.7 0-15.4 0-8.4 0-16.8 0-16.3 0-32.7 0-13.3 0-26.6 0-1.9 0-3.8 0-3.9 0-7.7 0-25.9 0-51.8 0h-2q-5.1 0-10.2 0-1 0-2.1 0-2 0-4.1 0-32 0-63.9 0-36 .1-72 .1-19 0-38 0-16.2 0-32.4 0-8.3 0-16.6 0-7.5 0-15.1 0-2.7 0-5.5 0c-25.8.1-47.8-6-66.9-24.3-17.5-18.4-22.2-39.2-22.1-63.7q0-2.9 0-5.8 0-7.9 0-15.8 0-8.5 0-17-.1-16.6 0-33.3 0-13.5 0-27 0-2 0-3.9 0-4 0-7.9-.1-35.7 0-71.3 0-32.6 0-65.1-.1-36.6 0-73.2 0-3.9 0-7.8 0-1.9 0-3.9 0-13.5 0-27-.1-16.5 0-33 0-8.4 0-16.8 0-7.7 0-15.4 0-2.8 0-5.5c-.1-14.4 1.5-27.6 8.6-40.4q.5-1 1.1-2.1c4-7 9-12.6 14.8-18.2q1.2-1.1 2.3-2.3c15.3-14.3 33.7-20 54.1-19.9q2.3 0 4.5 0 5.9 0 11.7.1 6 0 12 0 11.7 0 23.4.1 0-.9 0-1.8-.1-4.1-.1-8.2 0-1.4 0-2.8c-.1-14.7 4.3-28.2 14.3-39.1 12-11.1 31.5-13.3 45.9-4.8zM224 378l-.2 186.1-.1 58.8v34.8q0 11.6 0 23.2 0 13.4 0 26.8 0 6.9-.1 13.7 0 6.2 0 12.4 0 2.3 0 4.5c-.1 19.8 4.3 36.3 18.4 50.7 16.3 14.4 34.8 17.5 55.7 17.4q2.9 0 5.7 0 7.7 0 15.4 0 8.3 0 16.6 0 16.3 0 32.6 0 19 0 37.9 0 34.9 0 69.8-.1 31.8 0 63.6 0 2.1 0 4.1 0h2.1q5 0 10.1 0 1 0 2.1 0 26.6 0 53.2 0 3.8 0 7.6 0 1.9 0 3.8 0 13.2 0 26.5 0 16.1 0 32.2 0 8.2 0 16.4 0 7.5 0 15.1 0 2.7 0 5.4 0c22.4 0 43.1-3.4 59.9-19.5 13.5-14.3 18-29.8 17.8-49q0-2.3 0-4.7 0-6.4 0-12.7 0-7 0-14 0-13.6-.1-27.2 0-15.7 0-31.4-.1-41.4-.2-82.8l-.3-187H224z" fill="#163443"/><path d="M531.2 412.3c9.6 6.4 14.4 17.3 19 27.4q.4.9.8 1.9c4.9 10.5 9.3 21.3 13.5 32.1 4.1 10.3 8.4 20.5 12.8 30.7q.8 1.6 1.5 3.3.6 1.5 1.3 3c.9 2.3.9 2.3.9 4.3q.9 0 1.9.1 4.4.1 8.7.3 1.5 0 3 .1c5.3.2 10.6.6 15.8 1.4 5.9.9 11.8 1.5 17.7 2.1q1.3.1 2.7.2 5.6.5 11.2 1c9.9.8 19.7 1.8 29.5 3.3l2.4.4c10.2 1.7 19 5.9 25.7 14 5.3 8 6.4 16.7 5.4 26.1-3.7 14.5-15.2 22.8-26.3 31.8-5.9 4.8-11.6 9.7-17.1 14.8q-3 2.7-6 5.4c-5.8 5-11.4 10.2-16.8 15.5q-1.9 1.8-3.9 3.5c-7.4 6.4-7.4 6.4-11.4 14.9.6 2.9 1.4 5.4 2.5 8.1q.7 2.8 1.3 5.7.7 3 1.4 6c2.6 10.8 4.8 21.5 6.8 32.4 1.7 8.9 3.5 17.8 5.7 26.6 2.6 11.1 3.4 22-2.2 32.3-6 8-13.1 14.7-23 17-13 1.7-22.4-3.8-33-10.6-5-3.1-10.2-5.8-15.4-8.6-8.1-4.3-16-8.7-23.8-13.4-1.3-.8-1.3-.8-2.7-1.6q-5.5-3.2-11-6.6-4.3-2.5-8.6-5.1l-2.6-1.6q-1.2-.7-2.5-1.4-1.1-.7-2.1-1.3c-4.1-1.4-7.3-.3-11.1 1.5q-1.4.8-2.9 1.6-1.6.9-3.3 1.9-1.8 1-3.5 1.9-1.8 1.1-3.6 2.1c-11.1 6.2-22 12.7-32.9 19.2q-1.2.7-2.5 1.5c-10.6 6.3-10.6 6.3-20.9 13.3-8.5 6.2-16.9 9.7-27.6 8.2-8.5-2.5-17.3-8.4-22-16-6.3-11.6-6-20.7-2.7-33.1 2.6-10.3 4.7-20.6 6.7-31q.5-2.7 1-5.4 1-5.3 2.1-10.6 1.2-6.6 2.5-13.1.4-1.8.7-3.6.7-3.3 1.3-6.5c1.6-6.8 1.6-6.8 1.4-13.7-2-2.3-3.7-4-6-5.9q-.9-.8-1.8-1.6-2.6-2.3-5.2-4.5-1.9-1.7-3.9-3.4-2-1.8-4.1-3.6-1.7-1.5-3.4-3l-17.2-14.6c-5.3-4.2-10.3-8.8-15.3-13.5-2.7-2.6-5.6-5-8.5-7.5-6.1-5.5-12.9-13.8-13.8-22.4-.1-2.2-.2-4.5-.2-6.8v-2.3c-.1-8.2 3.2-14.3 8.7-20.2 12.2-11.8 30.7-11.3 46.7-12.8q4.9-.5 9.7-1c9.2-1 18.5-1.9 27.8-2.5q5.1-.3 10.2-.7 2.4-.1 4.8-.2c4.8-.2 9-.6 13.5-2.5 3.1-3.6 4.7-7.4 6.2-11.8.8-2.3 1.8-4.6 2.7-6.8q2.6-6.4 5.2-12.9c26.8-68 26.8-68 47.6-77.4 10.5-3.4 21.2-1.1 30.5 4.1z" fill="#f2b245"/><path d="M289 243.7q2.1 0 4.2 0 5.6 0 11.2.1 5.6 0 11.3.1 11.2 0 22.3.1 0 1.2.1 2.4.1 5.5.3 11 0 1.9.1 3.8c.5 15.1 2.9 29.4 13.4 40.8 8.6 8 16.5 10.5 27.9 10.3 9-.4 17.5-4.4 24.2-10.3 14.7-16.8 13.3-35.9 14-58h186l1 36c3.4 12.5 6.6 21.3 18 28 10.2 4.5 21.1 7.5 32.1 3.8 12.6-4.9 20-11.8 25.8-24.1 2.1-5.1 2.3-9.8 2.4-15.2 0-1.2 0-1.2.1-2.5q.1-3.9.2-7.7 0-2.7.1-5.3.2-6.5.3-13 11.2-.1 22.3-.2 5.2 0 10.4 0c44-.5 44-.5 61.1 15.9q1.1 1.1 2.2 2.3 1 1 2 1.9c23.3 24.6 13 66.7 13 95.1H225c0-80.4 0-80.4 15.7-96.8 14-13.4 29.1-18.7 48.3-18.5z" fill="#fa9f76"/><path d="M531.2 412.3c9.6 6.4 14.4 17.3 19 27.4q.4.9.8 1.9c4.9 10.5 9.3 21.3 13.5 32.1 4.1 10.3 8.4 20.5 12.8 30.7q.8 1.6 1.5 3.3.6 1.5 1.3 3c.9 2.3.9 2.3.9 4.3q.9 0 1.9.1 4.4.1 8.7.3 1.5 0 3 .1c5.3.2 10.6.6 15.8 1.4 5.9.9 11.8 1.5 17.7 2.1q1.3.1 2.7.2 5.6.5 11.2 1c9.9.8 19.7 1.8 29.5 3.3l2.4.4c10.2 1.7 19 5.9 25.7 14 5.3 8 6.4 16.7 5.4 26.1-3.7 14.5-15.2 22.8-26.3 31.8-5.9 4.8-11.6 9.7-17.1 14.8q-3 2.7-6 5.4c-5.8 5-11.4 10.2-16.8 15.5q-1.9 1.8-3.9 3.5c-7.4 6.4-7.4 6.4-11.4 14.9.6 2.9 1.4 5.4 2.5 8.1q.7 2.8 1.3 5.7.7 3 1.4 6c2.6 10.8 4.8 21.5 6.8 32.4 1.7 8.9 3.5 17.8 5.7 26.6 2.6 11.1 3.4 22-2.2 32.3-6 8-13.1 14.7-23 17-13 1.7-22.4-3.8-33-10.6-5-3.1-10.2-5.8-15.4-8.6-8.1-4.3-16-8.7-23.8-13.4-1.3-.8-1.3-.8-2.7-1.6q-5.5-3.2-11-6.6-4.3-2.5-8.6-5.1l-2.6-1.6q-1.2-.7-2.5-1.4-1.1-.7-2.1-1.3c-4.1-1.4-7.3-.3-11.1 1.5q-1.4.8-2.9 1.6-1.6.9-3.3 1.9-1.8 1-3.5 1.9-1.8 1.1-3.6 2.1c-11.1 6.2-22 12.7-32.9 19.2q-1.2.7-2.5 1.5c-10.6 6.3-10.6 6.3-20.9 13.3-8.5 6.2-16.9 9.7-27.6 8.2-8.5-2.5-17.3-8.4-22-16-6.3-11.6-6-20.7-2.7-33.1 2.6-10.3 4.7-20.6 6.7-31q.5-2.7 1-5.4 1-5.3 2.1-10.6 1.2-6.6 2.5-13.1.4-1.8.7-3.6.7-3.3 1.3-6.5c1.6-6.8 1.6-6.8 1.4-13.7-2-2.3-3.7-4-6-5.9q-.9-.8-1.8-1.6-2.6-2.3-5.2-4.5-1.9-1.7-3.9-3.4-2-1.8-4.1-3.6-1.7-1.5-3.4-3l-17.2-14.6c-5.3-4.2-10.3-8.8-15.3-13.5-2.7-2.6-5.6-5-8.5-7.5-6.1-5.5-12.9-13.8-13.8-22.4-.1-2.2-.2-4.5-.2-6.8v-2.3c-.1-8.2 3.2-14.3 8.7-20.2 12.2-11.8 30.7-11.3 46.7-12.8q4.9-.5 9.7-1c9.2-1 18.5-1.9 27.8-2.5q5.1-.3 10.2-.7 2.4-.1 4.8-.2c4.8-.2 9-.6 13.5-2.5 3.1-3.6 4.7-7.4 6.2-11.8.8-2.3 1.8-4.6 2.7-6.8q2.6-6.4 5.2-12.9c26.8-68 26.8-68 47.6-77.4 10.5-3.4 21.2-1.1 30.5 4.1zm-34 23.1c-4.1 5.7-6.8 12-9.6 18.4q-.9 2.1-1.8 4.1c-6 13.5-11.7 27.1-17.3 40.8-.5 1-.5 1-.9 2.1q-2.3 5.4-4.4 10.9c-.5 1.1-.5 1.1-.9 2.3q-.9 2.2-1.7 4.3c-2.2 5.4-4.9 10.8-9.7 14.3-10.1 4-20.7 4.9-31.5 5.9q-3 .3-5.9.6-5.1.5-10.3.9l-44.3 4.6q-1.4.2-2.8.3c-7 .9-12.3 2.7-17.1 8.2-1.2 2.4-1.2 4.1-1.3 6.7q0 1.3 0 2.6c.7 5.8 3.6 9.4 8 13.1a65.47 65.47 0 0 0 2.7 2.4l2.6 2.2q1.9 1.7 3.9 3.4l1.9 1.7q3.2 2.8 6.3 5.7c5.4 5.1 10.9 9.7 16.7 14.1 4.8 3.8 9.3 7.7 13.8 11.8q3.1 3 6.4 5.8 5 4.4 9.9 8.8 1.4 1.3 2.9 2.6c3.5 3.3 3.5 5.6 3.6 10.4.2 11.8-3 23.3-5.6 34.8l-3.8 19.1c-2.1 10.7-4.4 21.2-7.2 31.6-1.7 7-3.6 14.3-.2 21.1 3.1 4 5.5 5.7 10.5 6.4 8.5.5 14.7-4 21.4-8.7 16.4-11.1 34-20.5 51.4-30q1.7-.9 3.4-1.9 1.7-.9 3.4-1.9c4.3-2.4 8.5-4.9 12.7-7.4 4.4-2.3 7.9-2.7 12.6-1.4 4.2 2 8.1 4.3 12.1 6.8 17.2 10.8 35 20.8 52.9 30.3 6.8 3.6 13.3 7.4 19.8 11.5 4.2 2.6 8.3 2.9 13.2 2.4 4.2-1.4 5.7-2.6 8.4-6.1 4.3-8.7.5-19.5-1.5-28.5q-.4-2.2-.9-4.5l-6.3-28.9c-9.8-44.4-9.8-44.4-5-53.1 2.2-2.8 4.5-5.3 7-7.8q1.2-1.2 2.5-2.4c2.1-2.1 4.3-4 6.6-6 4.6-4 8.9-8.3 13.2-12.7 5.5-5.6 11.1-10.9 17-16q2.4-2.2 4.9-4.4c4.1-3.8 8.4-7.2 12.7-10.7q3.5-2.8 6.9-5.7.9-.7 1.9-1.6c3.4-3.5 3.9-6.7 4-11.5-.1-4.1-.2-5.7-2.3-9.2-7.4-4.6-15.8-5.7-24.4-6.7q-1.8-.3-3.8-.5l-30.2-3.2q-2.1-.2-4.1-.4-9.4-.9-18.7-1.7-5-.5-9.9-.9-1.7-.2-3.6-.3c-6.3-.7-11.6-1.7-17.4-4.2q-1.5-.5-3-1c-.9-2-.9-2-2-5q-1-2.2-2-4.4c-5.3-11.4-10.2-22.9-15-34.6-3.8-9.6-7.9-19.1-12-28.6q-1.5-3.5-3-7-.9-2.2-1.8-4.3-.4-1-.8-2c-2.6-5.9-5.3-11.3-11.3-14.4-9-2.9-16.1-.7-21.9 6.6z" fill="#173645"/><path d="M652.4 183.7c5.7 2.5 9.9 6.9 12.7 12.5 1.1 3.4 1.2 6.3 1.2 9.9q0 1 0 2.1 0 3.4 0 6.9 0 2.4 0 4.8 0 5 0 10.1 0 6.4.1 12.8 0 5 0 9.9 0 2.4 0 4.8c.1 21.5.1 21.5-6.7 30-5 5-8.9 6.7-16 7.1-6.7-.2-10.9-2-15.7-6.6-4.8-6-6.3-11.2-6.3-18.7q0-1.1 0-2.3-.1-3.7-.1-7.5 0-2.6 0-5.2 0-5.5 0-11 0-7-.1-14-.1-5.4-.1-10.8 0-2.6 0-5.2c-.2-16.2-.2-16.2 4.2-21.9 7.8-7.9 15.7-10.8 26.8-7.7z" fill="#4c8089"/><path d="M339.3 423.7q1.1-.1 2.3-.1c3.4.6 4.9 2 7.4 4.4 1.5 2.7 1.5 2.7 2.8 5.7 5.5 11.4 14.4 19.7 26.3 24.5q2.7 1 5.5 1.8c2.9 1.2 4.4 2.5 6.4 5 .5 2.2.5 2.2.5 4.4v2.3c-.7 3.3-2.1 4.9-4.5 7.3-2.7 1.2-2.7 1.2-5.9 2.1-5.7 2-10 4.7-14.7 8.4q-.8.7-1.7 1.4c-5.8 4.8-9.5 10.3-13.1 16.8-2.1 3.1-4 5-7.7 5.7q-1.1 0-2.3 0-1.1.1-2.2.1c-4-.8-7.2-2.7-9.5-6.1-1-1.9-1.9-3.8-2.8-5.8-5.5-10.9-11.7-14.3-23.1-18.6-7.8-3.1-7.8-3.1-10-6-1.2-3.7-1.4-6.2-1-10 3.4-6.1 7.5-7 13.9-8.9 4.9-1.8 8.4-4.6 12.1-8.1q1-.9 2-1.8c4.6-4.7 6.2-9.3 8-15.5 1.3-3.7 3-5.3 6-7.7 1.6-1.6 3.1-1.2 5.2-1.3z" fill="#173745"/><path d="M388.3 184.6c5.9 5.3 9.4 10.4 10.7 18.4.3 5.2.3 10.3.3 15.5q0 2.3 0 4.6 0 4.7 0 9.4 0 6.1.1 12.1 0 4.7 0 9.4 0 2.2 0 4.4c0 10.7-.2 21-7.4 29.6-6.5 4.9-12 5.9-20 5-5.6-2-8.9-5.6-12-10.5-3.6-8.8-3.3-17.9-3.3-27.2q0-2.2 0-4.5 0-4.7 0-9.5 0-6-.1-12 0-4.7 0-9.4 0-2.2 0-4.4c0-11.2.4-20.4 8.5-28.8 6.8-5.9 15.2-5.9 23.1-2.1z" fill="#4d8088"/><path d="M675 417c4.6 1.7 6.3 4.5 8.2 8.8 1.2 3.4 1.5 6.6 1.8 10.2q1.5.1 3.1.3c4.3.8 6.5 2 9.9 4.7 2.5 3.7 2.8 6.7 2 11-2 3.5-4.1 5.7-8 7q-2.6.1-5.2.1-1.3-.1-2.7-.1-1 0-2.1 0a13.4 13.4 0 0 1 .1 2c.3 9 .3 9-3.1 13-2.5 2.6-3.8 3-7.4 3.5-4.8-.7-6.2-2.1-9.6-5.5-1.2-2.4-1.3-4.4-1.6-7.1l-.2-2.8-.2-2.1q-1.1-.1-2.2-.3c-6.4-1-11.1-2-15.8-6.7a40.52 40.52 0 0 1 0-11c4.1-5.1 8.7-6.1 15-7q.1-.8.2-1.7c1.1-6.7 3.8-10.7 8.8-15.3 3.1-1.5 5.6-1.2 9-1z" fill="#163645"/><path d="M318 663c2.5 2 4.4 4.2 6 7q0 2 0 4 1.5-.2 3.1-.3c5.2.4 6.5 1.4 9.9 5.3.9 4.5.4 6.4-1.9 10.3-3.3 3.6-7.5 4.1-12.1 4.7q-.2 1.6-.3 3.2c-.7 3.8-1.1 5.9-3.7 8.8-3.4 1.1-3.4 1.1-7 1-3.7-2.6-5.1-5-6.3-9.2-.5-2.1-.5-2.1-1.7-3.8-2.3-.9-4.4-1.3-6.8-1.6-2.7-.5-3.6-1.2-5.2-3.4-.5-3.2-.7-5 0-8 3.3-3.7 4.9-4.8 9.7-5.9 1.7-.5 1.7-.5 3.3-1.1 1.3-3.4 1.3-3.4 2-7 3-4.4 5.8-5 11-4z" fill="#173746"/><path d="m340 456c4.7 2 7.9 5.5 11.6 8.9 2.1 1.8 3.9 3 6.4 4.1q0 1 0 2c-1.7 1.3-1.7 1.3-4.1 2.8-7.5 4.5-7.5 4.5-12.9 11.2q-1 0-2 0c-1.3-1.8-1.3-1.8-2.8-4.2-1.8-2.9-3.6-5.4-6.1-7.7q-1-1.1-2.1-2.1 0-1 0-2c1.6-1.5 1.6-1.5 3.7-3.2 3.6-3 6-5.8 8.3-9.8z" fill="#f8c67b"/></svg>