<svg xmlns="http://www.w3.org/2000/svg" width="1024" height="1536" xmlns:v="https://vecta.io/nano"><path d="M885 728c4.4 4 8.6 8 9.2 14.1.5 14.5-9 27.7-17.8 38.5-15.5 19.2-18.2 40.5-16.1 64.4 2.4 18.6 11.8 35.3 19.7 52 14.1 29.6 27.8 59.3 35.3 91.3q.4 1.5.7 3.1c3.2 14.2 4.4 28.1 4.3 42.6v2.3c-.2 52.8-19.6 98.5-56.6 136.1-4 3.9-8.3 7.3-12.7 10.6q-.8.6-1.6 1.2c-15.7 11.8-32.9 22.3-51.8 28.1-7.3 2.6-10.6 6.3-14.6 12.7q-1.1 1.7-2.2 3.4-1.7 2.7-3.4 5.4c-8.2 12.9-20 24.4-34.6 29.8q-1 .4-2.1.8c-.9.3-.9.3-1.7.6h2.1q25 .1 50 .2 12 .1 24.1.1 10.6.1 21.1.1 5.6.1 11.1.1 6.3 0 12.5.1 1.8 0 3.7 0c9.5.1 15.4 1.6 22.4 8.4 4.2 5.6 3.8 12.4 3 19-2.3 6.5-7 10.1-13 13-3 1-5 1.1-8.1 1.1q-1.6 0-3.2 0h-3.5q-1.9 0-3.8 0-5.2.1-10.4.1-5.6 0-11.3 0-11.2 0-22.4 0-13.4 0-26.9 0-32.4.1-64.9.1-10.7 0-21.5 0-57.1 0-114.2 0-13.3 0-26.5.1-1.6 0-3.3 0-53.4 0-106.7 0-54.8.1-109.6.1-7.8 0-15.5 0-1.5 0-3.1 0-24.5 0-49.1.1-24.6 0-49.3 0-14.6 0-29.3 0-9.7 0-19.5 0-5.6 0-11.2 0-6 .1-12 0c-1.7 0-1.7 0-3.5.1-7.4-.1-13.1-1.4-19.2-5.7-5.5-5.8-6.4-11.3-6.3-19 .5-5.6 3.1-9.1 7.2-12.8 4.9-3.5 8.5-4.5 14.4-4.4q1.9 0 3.9 0 2.1 0 4.2 0 2.3 0 4.5 0 6 0 12.1 0 6.3 0 12.7 0 11.9 0 23.9.1 13.7 0 27.3 0 28 0 56.1.1 0-1-.1-2-.1-4.5-.1-8.9-.1-1.6-.1-3.1c-.1-10.1 2.9-16.8 8.3-25q.8-1.3 1.7-2.7c6.2-8.9 16.7-16.7 27.5-18.7q3.8-.6 7.6-1.2 1.3-.2 2.7-.4 3.2-.5 6.5-1c.6-63-6.9-123.6-23.3-184.5a658.57 658.57 0 0 1-12-51.8q-.6-3.4-1.3-6.7c-4.8-24.8-9.4-72.1 3.6-95l2.4 1.6c35.7 23.6 72.5 32.6 114.6 37.4q1.5.2 3.1.4 7.5.8 14.9 1.6.1 1.5.1 3.1.2 2 .3 4.1 0 1 .1 2c.2 4 .7 7.3 2.5 10.8 6.1 3 18.4 1.7 25 0 2.7-4.1 2.4-7.9 2.6-12.6.2-5.2.2-5.2 2.4-7.4 2.4-.3 4.8-.4 7.2-.5q2.2-.1 4.5-.2c1.2-.1 1.2-.1 2.4-.1 47.8-2.1 105.6-9.1 140.9-45.2 2.5-2.9 4.8-5.9 7-9 9.3 4.3 16.8 12.5 24.3 19.4q3.1 2.9 6.3 5.7c5.1 4.6 10 9.4 14.9 14.2l2.6 2.6q2.7 2.7 5.4 5.4 4.1 4.1 8.2 8.2 2.6 2.7 5.2 5.3c1.2 1.2 1.2 1.2 2.5 2.4 4.7 4.8 9.2 9.7 13.6 14.8q1.6 1.9 3.2 3.7c6.1 7 12.2 14 17.8 21.3.8 1 .8 1 1.6 2.1 28.1 36.6 50.6 75.5 60.4 120.9q.3 1.2.5 2.5c4.2 19.4 2.8 39.8 2.5 59.5 26.4-18.1 44.2-43 50.5-74.5 2.1-11.8 3.2-23.5 2.5-35.5-.1-1.1-.1-1.1-.1-2.2-2.1-35.7-17.8-68.2-32.8-100.1-14.5-30.9-26.1-62.2-28.1-96.7q-.1-1-.1-2.1c-1.5-30.3 9.6-57.8 29.2-80.4 13-13.7 36.7-30.6 55.9-19.5z" fill="#ec9500"/><path d="M251.1 447.6c29.9 10 57.6 28.1 82.7 46.8q3.4 2.5 6.9 4.9 1.1.9 2.3 1.7 2.3 1.7 4.6 3.3c3.5 2.5 6.9 5 10.2 7.7.9.7.9.7 1.8 1.5q2.3 1.9 4.6 3.8c3.3 2 4.9 2.2 8.8 1.7 3-1 3-1 6.3-2.5 42.8-18 91.3-21.3 136.7-12.5q1.4.3 2.8.5c15.3 3 31.5 7.5 45.4 14.6 1.8 1.1 1.8 1.1 3.8.8 2.6-1.2 4.4-2.7 6.6-4.6q1.5-1.2 3-2.5.8-.7 1.7-1.4c80.9-67.2 80.9-67.2 118.4-65 3.4.9 5.1 2.3 7 5.2 5.1 9.6 4.9 20.8 4.9 31.4q0 1.2 0 2.5c-.2 40.3-6.8 81.2-16.7 120.2q-.4 1.8-.9 3.8c-2.3 8.7-4.8 17.7-9.2 25.6-2.3 5.3 1 12.9 2.6 18.2 2.6 8.3 5 16.9 4.6 25.7-1.8 1.8-4.8 1.4-7.2 1.5q-2.1.2-4.1.3-1.1.1-2.3.2c-15 1.1-30 2.9-44.9 4.9l-2.7.4c-9.5 1.3-18.9 2.8-28.3 4.7q-1.1.2-2.3.5c-4.3.9-7.7 1.9-11.2 4.5-.7 2.2-.7 2.2-.5 4.5v2.3c.6 2.7 1.3 3.5 3.5 5.2 6.7.5 13.9-1.8 20.4-3.4 9.7-2.3 19.4-4 29.3-5.3q3.1-.4 6.2-.9c14.9-2.1 30.1-2.1 45.1-2.4.3 11.2.3 21.2-3 32-8.4.2-16.6-.4-24.9-1.2q-2-.2-4-.4l-26-2.7q-1.5-.2-3-.4-7.6-.8-15.1-1.7-2.8-.3-5.6-.6-1.3-.2-2.6-.3c-4.6-.5-9.1-1-13.8-.7-2.2 2.5-2.9 4.3-3.5 7.6.7 3.5 2.5 4.4 5.5 6.4 11.4 3.6 23.9 3.6 35.8 4.2 9.3.6 18.7 1.3 28 2.3l3.6.4c6.6.7 13.1 1.6 19.6 3.1-.8 4.5-2.4 8.3-4.4 12.3q-.6 1.1-1.1 2.1c-6.3 12.1-13.5 23.3-22.5 33.6q-1.1 1.2-2.1 2.5c-36 41.3-94.1 57-147 61.1-10.7.7-21.3.7-32 .7q-5.5 0-11.1.1c-16.4 0-32.5-1.2-48.8-3.4q-1.3-.2-2.7-.4-7.8-1.1-15.7-2.4-1.1-.2-2.3-.4c-12.4-2.1-24.4-4.6-36.3-8.8l-2.9-1c-19.4-7-38.7-16-54.1-30q-1.3-1.1-2.6-2.2-3.7-3.4-7.4-6.8-.9-.8-1.8-1.6c-14.7-14-28.5-34.2-35.2-53.4q.5-1.5 1-3c28.7-4.2 57-6.4 86-7 2-4.8 2.3-7.9 2-13-1.9-1.9-4.6-1.1-7.1-1.2q-1.3 0-2.7.1-1.3 0-2.7 0c-9.8 0-19.6.7-29.4 1.5q-2.8.2-5.7.4-5.5.4-11.1.8-11.3.8-22.5 1.6-3.5.2-7 .5-2.4.1-4.8.3c-4.9-9.2-3.1-21.8-3-32 14.4-.7 28.2 1.6 42.3 3.8q3.5.6 7 1.1 9.8 1.5 19.7 3.1 4.1.7 8.3 1.3 2.3.4 4.7.8 3 .4 6 .9l3.9.6c3 .5 3 .5 5.5 0 2.3-2.3 2.4-4.5 2.8-7.6 0-2.1 0-2.1-1.3-3.5-2.6-2-4.7-2.3-7.8-2.9l-3.9-.6q-2.1-.4-4.2-.7-1.1-.2-2.2-.4c-19.2-3.3-38.5-5.9-57.9-8.5l-2.9-.4q-9-1.2-18-2c-1.7-5.1-.2-9.5 1.2-14.5.3-1.3.3-1.3.7-2.7 1.6-6.1 3.4-12.2 5.5-18.2 1.1-4.9-.6-8.1-3-12.3-14.5-28.9-18.6-67.5-21.4-99.3q-.1-1.4-.3-2.9c-.9-10.7-.9-21.4-.9-32.2q-.1-4.9-.1-9.8c-.2-30.3-.2-30.3 7.3-40.1 4.7-2.4 10.1-1.8 15.1-.4z" fill="#ed9700"/><path d="M142.3 1265.7q1.6 0 3.3 0 1.7 0 3.5 0 1.9 0 3.8 0 5.2 0 10.4 0 5.6 0 11.3 0 9.9 0 19.9 0 14.7 0 29.5 0 27.9 0 55.7 0 21.6 0 43.1 0 3.1 0 6.2 0 4.6 0 9.3 0 43.3 0 86.6 0h3.3q8.3 0 16.6 0h3.3q3.3 0 6.7 0 51.7 0 103.5 0 58.1-.1 116.2-.1 6.2 0 12.4 0 1.5 0 3.1 0 23.1 0 46.1 0 26.2 0 52.4 0 14.7 0 29.4 0 9.8 0 19.6 0 5.5 0 11.1 0 6 0 12.1 0 1.7 0 3.5 0c9.2.1 15 1.8 21.8 8.4 4.2 5.6 3.8 12.4 3 19-2.3 6.5-7 10.1-13 13-3 1-5 1.1-8.1 1.1q-1.6 0-3.2 0h-3.5q-1.9 0-3.8 0-5.2.1-10.4.1-5.6 0-11.3 0-11.2 0-22.4 0-13.4 0-26.9 0-32.4.1-64.9.1-10.7 0-21.5 0-57.1 0-114.2 0-13.3 0-26.5.1-1.6 0-3.3 0-53.4 0-106.7 0-54.8.1-109.6.1-7.8 0-15.5 0-1.5 0-3.1 0-24.5 0-49.1.1-24.6 0-49.3 0-14.6 0-29.3 0-9.7 0-19.5 0-5.6 0-11.2 0-6 .1-12 0-1.7 0-3.5.1c-7.4-.1-13.1-1.4-19.2-5.7-5.5-5.8-6.4-11.3-6.3-19 .5-5.6 3.1-9.1 7.2-12.8 4.5-3.2 8-4.4 13.4-4.5z" fill="#f4d17f"/><path d="M503 176c4.4 4.3 6.3 10 8.6 15.6q.6 1.5 1.3 3.1 2 4.9 4 9.9 1.4 3.2 2.7 6.5 2.6 6.1 5.1 12.2.5 1.4 1.1 2.8 1.3 3.1 2.5 6.2.6 1.6 1.3 3.3.5 1.5 1.1 3c1.1 2.5 1.1 2.5 3.2 3.5 2.4.7 4.6.8 7.1.9q3 .3 5.9.6 4.6.4 9.2.8 3.5.3 7 .5l18.7 1.3q1.1.1 2.3.2 2.2.1 4.4.1c4.7.3 8.4 1 12.3 3.8 1.9 2.8 1.8 4.4 1.2 7.7-3.3 5.6-8.9 9.5-13.9 13.5-3.4 2.7-6.7 5.5-10 8.4q-6.1 5.3-12.4 10.6-1.6 1.4-3.3 2.8c-2.2 1.9-4.4 3.7-6.8 5.4-2.2 1.6-2.2 1.6-4.6 4.3.3 6.8 2.3 13.2 4.1 19.6q.5 1.7 1 3.4.9 3.4 1.9 6.9 1.5 5.2 3 10.5.9 3.4 1.9 6.7.4 1.6.9 3.3.4 1.4.8 2.9.4 1.3.8 2.6c.5 2.1.5 2.1 1.6 4.1.4 3.1.5 5.9 0 9-2.5 3-3.9 3.9-7.8 4.3-3.9-.4-5.7-1.5-8.8-3.8q-1.6-1.1-3.2-2.2-1.6-1.1-3.2-2.3-3.1-2.1-6.1-4.1-3.1-2.2-6.2-4.3l-21.5-14.5-1.8-1.2c-4.9-3.6-4.9-3.6-10.7-4.9-4 1.5-7.2 3.9-10.6 6.4q-1.2.8-2.3 1.7-2.3 1.6-4.6 3.3-3.7 2.7-7.5 5.4L452 370.7q-1.1.8-2.3 1.6-.9.7-1.9 1.4c-4.3 3.1-6.5 3.8-11.8 3.3-2.4-.9-2.4-.9-4-3-1.7-8.1 0-14.5 2.2-22.4q.8-2.9 1.6-5.8 1-4 2.1-8 2-7.1 3.9-14.1 1-3.8 2-7.5.5-1.7.9-3.5.4-1.4.8-3c.5-2.9.4-4.8-.5-7.7-1.9-2.2-1.9-2.2-4.4-4.3q-1.3-1.1-2.7-2.3-5.4-4.5-10.9-9c-4-3.2-7.9-6.6-11.8-9.9-4.5-4-9.2-7.7-13.9-11.5-3.7-3.2-6.1-5.6-6.9-10.6.6-3.4.6-3.4 2.7-5.6 3.3-2.1 5.3-2.4 9.2-2.7q1.8-.1 3.7-.3 2.1-.1 4.1-.2 2.1-.2 4.2-.3 5.5-.4 11-.8 8.7-.6 17.5-1.2 3.1-.2 6.2-.4c1.8-.1 1.8-.1 3.7-.3q1.7-.1 3.3-.2c3.1-.4 5.3-.9 8-2.4 1.5-2.3 1.5-2.3 2.5-5.3q.7-1.6 1.3-3.3.7-1.8 1.4-3.6 1-2.8 2.1-5.6 1.5-3.9 3-7.9 2.6-6.9 5.2-13.7 1.4-3.7 2.8-7.3c7-18.3 7-18.3 16.7-17.3z" fill="#ef9900"/><path d="M634 811c4.5 1.9 6 4.4 8 8.7 2.7 9.1 2.5 22.5-1 31.3-2.2 2.6-2.2 2.6-5 5q-1.7 1.9-3.3 3.9c-8 9.1-17 14.6-27.7 20.1q-1.1.6-2.2 1.1c-36 18.5-74.3 23.4-114.2 25.3q-1.1 0-2.3.1-2.2.1-4.3.2c-3.3-.1-3.3-.1-6 1.3q-.3 4.7-.4 9.4c-.2 3-.5 5.3-1.9 8-3.3 3-7.4 2.5-11.7 2.6l-3.4.2c-8.9.2-8.9.2-11.9-1.5-3.6-3.7-2.8-8.5-2.8-13.5q0-1 .1-2.1 0-2.5 0-5.1-1.4 0-2.8-.1c-46.5-1.7-99.5-10.8-135.2-42.9-7.6-8.5-9.5-15.7-9.4-26.9q-.1-1.6-.1-3.2c0-6.2.4-11.9 4.5-16.9 2-1.3 2-1.3 4-2 2.3 1.2 4.3 2.4 6.4 3.9q1.9 1.3 3.8 2.5 1 .7 1.9 1.3c24.8 16.7 54.4 24.1 83.5 28.5q1.2.2 2.5.4 8.4 1.3 16.9 2.4 1.2.2 2.3.3c15.3 2 30.6 2.1 46 2q1.9 0 3.9 0c31.7-.1 61.1-3.2 91.8-11.3q1.8-.5 3.7-1c21.3-5.7 41.2-14.3 59.3-27q1.2-.8 2.4-1.7 2.3-1.6 4.6-3.3z" fill="#012e3a"/><path d="M674 992c2.8 2.6 3.9 4.3 4.6 8.1-.8 4-2.2 4.6-5.6 6.9-3.6 1.8-7.3 3.5-10.9 5.1-16 7.5-27.8 16.9-40.3 29.2q-2.3 2.2-4.6 4.3c-19.3 17.9-34.4 49-36.2 75.4-.7 20.4-.7 20.4 4 40q.6 1.8 1.3 3.6c3 7.9 6.4 14.7 11.7 21.4.8 1.1.8 1.1 1.6 2.3 3.9 5.2 7.5 6.9 13.9 8.2q3.9.6 7.8 1l2.3.2q2.2.2 4.4.4c5.4.5 9.2 2.1 13 5.9.3 2.9.3 2.9 0 6-2.5 2.8-4.1 3-7.9 3.3q-2.2 0-4.4-.1h-2.2c-3.4 0-6.5-.2-9.8-.7-5.9-.8-11.9-.8-17.9-.8q-2.2 0-4.5-.1c-17.5-.3-33.6 2.5-47 14.9-8.2 8.7-10.8 16.2-12 28-.5 3.8-.9 7.6-1.3 11.5h-40c0-6.8 0-6.8 1.1-10.7q.4-1.3.8-2.7.5-1.4.9-2.9.5-1.5.9-3.1 2.9-9.5 6.1-19c.3-1 .3-1 .7-2.1q1.8-5.3 3.6-10.6c2.5-7.4 4.7-14.8 6.5-22.4 1.2-4.9 2.7-9.6 4.3-14.4 2.5-7.7 4.5-15.6 6.4-23.5q.3-1.6.7-3.3c1.4-6.1 2.6-12.3 3.5-18.6 2.7-15.4 7.9-30.6 12.4-45.5q.4-1.2.8-2.5 2-6.8 4.1-13.6c5.7-18.2 8.4-36 9.2-55.1q2.5-.5 5-1c7.2 8.1 6.8 17.5 6.3 27.8-1.3 14.1-5 28.2-9.2 41.7-1.9 6.3-3.5 12.7-5.1 19q-.9 3.5-1.7 7c-2.4 9.5-4.5 18.9-6.3 28.5q-1 0-2 0 .1 1.4.2 2.9c0 3.8-.9 6.8-2.2 10.3-1.3 3.6-2.3 7.2-3.4 10.8q-.3 1.1-.6 2.2-.7 2.3-1.3 4.5-1 3.3-2 6.7l-5.8 20.5c-1.4 5.3-3.1 10.4-5 15.5-1.2 3.4-1.8 6.7-2.4 10.2-.7 3.2-1.7 6.2-2.8 9.3-2 5.9-3.4 12-4.7 18.1 2.5-2.2 3.4-3.8 4.3-6.9 5.2-16.7 17.2-29.8 32.4-37.9 11.7-5.6 24.3-8.4 37.3-8.2-.8-1.1-.8-1.1-1.6-2.3q-1.2-1.9-2.4-3.7-.8-1.2-1.6-2.5c-6-9-10.3-18.2-13.4-28.5q-.4-1.2-.8-2.5-.4-1.3-.8-2.6-.4-1.1-.8-2.2c-3.5-14.6-2.2-31.1.4-45.7q.3-1.8.6-3.6c4.8-24.7 19.3-44.8 35.4-63.4q.8-.9 1.6-1.9c15.6-18 43.3-48.8 70.4-46.1z" fill="#c96400"/><path d="M475 910q.5 0 1 0v10h2.3c20.2.7 35.3 11.9 48.8 26.1 14.8 17.3 21.8 38.8 21.2 61.4-1.8 21.8-9.7 40.9-25.3 56.5q-1.1 1.2-2.3 2.3c-10.5 10.2-22.8 15.9-36.7 19.7q-.9.3-1.9.6c-7.6 2-15.3 1.8-23.1 1.7q-1.1 0-2.2 0c-23-.1-42-4.1-59.8-19.3q-1-.8-2-1.7c-17.8-16.4-24.7-40.9-26.3-64.3-.9-22.9 10-41.1 24.3-58q1.2-1.5 2.5-3.1c8.1-9.3 19.2-13.9 30.5-17.9q1.3-.5 2.7-1c4.9-1.9 9-2.3 14.3-2v-8q.5 0 1 0a23 23 0 0 1 .3 2.6q.3 1.6.5 3.3.2 1.6.5 3.3c.4 3.1.4 3.1 3.7 4.8 7.2.6 16 .9 23-1 2.3-3.5 2.4-5.5 2.6-9.7q.1-1.7.3-3.6c0-1.3 0-1.3.1-2.7zm-45 33q-1.7.8-3.5 1.5c-17 8.4-26.8 22.1-33.5 39.5-3.7 11.5-5.1 21.4-1.9 33.1q.3 1.3.6 2.5c4.7 16.5 13.8 30.9 28.3 40.4 18.9 10.5 39.9 11.8 60.6 6 18.8-6.2 32.2-18.8 41.4-36 6.5-13.6 9.1-29.7 4.5-44.5q-1.2-2.8-2.5-5.5-.8-1.7-1.7-3.4c-9.1-17.5-22.2-30.5-41.3-36.6-1.5-.5-1.5-.5-2.9-1.1-15-4.1-34.1-2.2-48.1 4.1z" fill="#febe00"/><path d="M718.6 286.9l3.4.1c3.6 6.8 4.1 13.8 5.1 21.4q.9 7.3 1.9 14.6.2 1.4.4 2.8c.6 3.8 1 5.7 4.1 8.1l13.7 4.1 2.8.8q7.2 2 14.5 3.9c3.6.9 6.5 2.1 9.5 4.3-.3 2.9-.5 4.5-2.7 6.6q-1.1.7-2.2 1.3c-1.2.8-1.2.8-2.5 1.6q-1.3.7-2.6 1.5-1.3.7-2.6 1.5-5.4 3.1-10.8 6.1-3.8 2.2-7.6 4.4-1.1.6-2.2 1.2c-2.5 1.5-4.5 2.8-5.4 5.7-.1 2.4-.1 4.6.1 7 0 1.2 0 1.2.1 2.5q.1 3.8.4 7.6a15.48 15.48 0 0 1 .1 2.1q.3 4.7.7 9.4c.3 5.5.5 11 .2 16.5-1 1-1 1-3.3 1.2-9.7-.8-19.7-13.1-26.2-19.7q-.9-.9-1.8-1.8-1.8-1.8-3.5-3.6-.9-.8-1.7-1.7-.7-.7-1.5-1.5c-3.3-1.5-6.5-.7-10 .1-2.6 1-4.9 2-7.4 3.2q-.9.4-2 .9-4.2 2-8.3 4-3.1 1.4-6.2 2.9-.9.4-1.9.9c-3.9 1.8-6.9 2.6-11.2 2.1-2-2-2-2-2-5.8.9-6.7 4.2-12.4 7.4-18.3 7.5-12.3 7.5-12.3 9.6-25.9-1.6-2.7-3.5-5.1-5.5-7.6q-1.7-2.1-3.3-4.2-.8-1.1-1.7-2.2c-2.8-3.7-5.3-7.5-7.8-11.4-1.7-2.7-1.7-2.7-3.9-5.3-1.8-2.3-1.8-2.3-2.2-4.9.5-2.9 1.1-3.7 3.4-5.4 2.2-.2 2.2-.2 4.9.1q1.6.2 3.3.4 4.3.6 8.5 1.2 2.6.5 5.2.9l2.6.4c7.2 1.1 14.2 1.3 21.5 1q.4-1 .7-2.1c1.5-3.4 3.5-6.4 5.6-9.4q.6-1 1.2-1.9 1.3-1.9 2.7-3.8 2-3 4-5.9 1.2-1.9 2.5-3.8c.6-.8.6-.8 1.2-1.7 4.4-6.4 4.4-6.4 8.7-6.5z" fill="#ef9a00"/><path d="M274.5 290.6c4.7.8 6.8 4.7 9.5 8.4 2.6 3.7 5 7.5 7.5 11.2 5.2 8.3 5.2 8.3 11.5 15.8 7.8.4 15.3-.8 23-2s15.2-2.3 23-2c1.3 5.3 1.3 5.3 0 8.1q-.8 1.1-1.6 2.1-1 1.3-2 2.6-.5.7-1.1 1.5l-8 10.9q-.8 1.1-1.7 2.3-2.3 3.2-4.6 6.5-.6.9-1.3 1.9c-2 3-2.7 4.8-2.5 8.4.8 3.8 1.9 6.3 3.8 9.6q.9 1.6 1.9 3.3.9 1.6 1.9 3.3 1 1.6 1.9 3.3 3.3 5.8 6.6 11.4c3.5 6 3.5 6 2.7 9.8-1.6 1.9-1.6 1.9-4 3-5.3-.4-9.7-1.9-14.5-3.9-1-.5-1-.5-2.1-.9q-4.4-1.8-8.7-3.7-3.2-1.4-6.5-2.7c-.9-.4-.9-.4-1.9-.8-3.6-1.5-6.5-2.7-10.3-2-2.5 1.8-2.5 1.8-4.8 4.3q-1.4 1.4-2.8 2.8-1.4 1.4-2.8 2.9-1.3 1.4-2.8 2.8c-4.6 4.8-9.1 9.6-13.3 14.8-1.5 1.4-1.5 1.4-5.3 2.2-3.2-.8-3.2-.8-4.9-2.8-1.8-4.1-1.7-7.7-1.6-12.2q0-1.4 0-2.7.1-4.2.1-8.4 0-2.9.1-5.7 0-7 .1-14-1.2-.6-2.4-1.2-4.5-2.2-9-4.4-1.9-.9-3.9-1.9c-18.4-8.9-18.4-8.9-22.7-13.5-.4-2.5-.4-2.5 0-5 3-3.6 6.8-4.5 11.1-5.8l2.4-.8q3.8-1.3 7.6-2.5 3.8-1.2 7.5-2.4 2.4-.8 4.8-1.5c4.2-1.3 4.2-1.3 7.6-4 .6-2.3.6-2.3 1-5.1q.2-1.5.4-3.1.3-1.7.5-3.4.6-3.4 1.1-6.8.5-3.3 1-6.6.8-4.9 1.6-9.8.1-1 .3-2.1c.8-4.6 1.5-8.6 6.6-9.5z" fill="#ee9a00"/><path d="M484.2 660.7l3 .4c6 1.1 9.5 2.5 13.8 6.9 2.4 4.9 1.6 12.1 0 17.1-3.4 7.8-10.3 13.4-17 18.3-3.1 2.5-4.7 4.8-6 8.6-.8 9.8.6 19.2 7 27 6.9 7.3 13.3 10.1 23.3 10.4 8.9-.2 17.7-2.3 24.2-8.6 4.5-5.4 6.7-11.2 8.5-17.8 2.4-2.4 3.1-2.3 6.4-2.4 3 .1 4.4.3 7.2 1.8 2.3 4.2 2.2 7.9 1.4 12.6-5.4 15.5-17.2 25.1-31.5 32.2-9.7 3.7-23.4 3.5-33.1-.3q-2.7-1.3-5.4-2.9-1.3-.8-2.7-1.6c-6-3.7-10.1-8.1-13.3-14.4q0-1 0-2-2 0-4 0-.4.9-.8 1.7c-5.5 10.4-15.8 17.2-26.8 20.7-4.2 1-8.3 1.1-12.6 1.1q-1.4 0-2.8 0c-12-.3-21.1-4.4-30-12.5-1.2-1-1.2-1-2.4-2.1-7.7-7.2-12.4-15.3-13-26 .4-3.9.4-3.9 2.5-6.4 3.6-1.9 5.9-1.9 9.9-1.5 2.1.7 2.1.7 4 2 .9 2.2.9 2.2 1.6 4.9 2.6 7.6 7.7 14 14.4 18.4 8.5 3.9 19 4 27.8 1.1 7.4-3 13.5-8.2 17.2-15.4 2.8-8 3.4-15.6 3-24q-1-.5-2-.9c-11.7-5.7-19.4-13.8-24.3-25.9-1.4-4.6-1.4-8.5.4-13 11.7-13.6 36.3-10 52.1-7.5z" fill="#022d3b"/><path d="M262.6 483.9q1.3.6 2.6 1.3 1.5.6 2.9 1.4 1.5.7 3.1 1.5l3.1 1.5c6.9 3.4 13.4 7 19.7 11.4q2.1 1.4 4.1 2.7c9.3 6.1 18.3 12.4 27.2 19l10.6 7.7c2.1 1.6 2.1 1.6 4.1 3.6 0 2.8 0 2.8-1 6-2.4 2.3-2.4 2.3-5.6 4.5-7.5 5.4-14.1 11.5-20.7 17.8q-2.3 2.3-4.6 4.4c-9.5 9.1-17 19.6-24.6 30.2q-.9 1.1-1.8 2.4-1.7 2.2-3.3 4.5-.8 1-1.5 2.1-.7.9-1.3 1.8c-2.2 1.8-3.9 1.5-6.6 1.3-12.3-34-19.1-69.3-19.3-105.5q0-2.2-.1-4.3 0-3.2 0-6.4 0-1.8-.1-3.7c.5-3.1.5-3.1 2.2-5 3.8-1.8 6.9-1.6 10.9-.2z" fill="#c46100"/><path d="M679 482.8q1 0 2.1 0c1.9.2 1.9.2 4.9 2.2 7.2 19.3.1 51.3-5.3 70.6-1.2 4.3-2.2 8.7-3.2 13-7.7 32.6-7.7 32.6-11.5 36.4-3.2.2-5.2-.4-7.8-2.4-4.9-4.5-8.6-9.8-12.4-15.2-4-5.7-8.3-11.1-12.8-16.4q-1.1-1.3-2.2-2.6c-5.2-5.9-10.8-11.2-16.8-16.4-1.1-.9-1.1-.9-2.2-1.9q-6.3-5.6-12.8-11.1c.3-2.9.5-4.5 2.7-6.6q1.1-.7 2.3-1.4c4.8-3.2 9.3-6.5 13.9-10.1 49.2-38 49.2-38 61.1-38.1z" fill="#c05d00"/><path d="M396 1099c2.2.8 2.2.8 4.5 1.9q1.4.7 2.9 1.4 3 1.4 5.9 2.8c12.3 5.8 22.3 9 36 8.1l3.7-.2c1 1 1 1 1.1 3.4 0 8.5-.4 16.9-1 25.3q0 1-.1 2c-.6 8.4-1.3 16.7-2.3 25.1-.7 5.3-1 10.7-1.2 16.1-.9 19-.9 19-4.6 23.9-3.5 2.7-6.3 3-10.6 3.2-9.7.9-17 3.7-23.7 11.1-8.4 10.2-11.1 19.4-10.8 32.5q0 1.5.1 3.1 0 3.6.1 7.3-3.2 0-6.4.1-1.8 0-3.7 0c-2.9-.1-2.9-.1-3.9-1.1-1.3-16.4.7-32.5 11.2-45.9q.9-1 1.8-2.1l1.8-2.2c6.9-7.5 15.4-11.7 25.2-14.1 2.4-.6 2.4-.6 4-3.7 2-9.4 2.5-19.2 3.1-28.8q.1-1.9.2-3.9.9-14.6 1.7-29.3-.9-.4-1.8-.8c-33.7-14.5-33.7-14.5-43.2-28.2.1-2.7.1-2.7 1-5 3.5-2.3 4.9-2.3 9-2z" fill="#c86300"/><path d="M720 682c1 3.8 1.4 6-.2 9.7-2.2 2.8-3.1 3.1-6.6 3.6-8.8 1.1-17.6 1.2-26.4 1.5-29.3.9-57.7 4.1-86.4 10.8q-1.2.3-2.4.6c-1 .2-1 .2-2.1.5-2.9.5-5.1.2-7.9-.7-2-3-2.4-4-2.5-7.4q-.1-1.2-.2-2.3c.9-2.9 2.2-3.9 4.7-5.4 4-1.8 8.3-2.5 12.6-3.3q1.6-.3 3.2-.7c97.6-18 97.6-18 114.2-6.9z" fill="#032e3c"/><path d="M471 961v87h-21l-1-66-6 3q-2.5 0-5 0v-19c10-5 10-5 33-5z" fill="#febf00"/><path d="M596.4 718.5q2.1.2 4.2.4 1.2.1 2.4.2 4 .4 8 .9 3.1.3 6.1.7 10.1 1.1 20.1 2.3c23.9 3.1 23.9 3.1 47.9 3.9 10.3-.1 20-.1 27.9 7.1 1.6 3.1 1.3 5.5 1 9-2.1 4.4-2.1 4.4-5 6-6 .8-12-.7-17.7-2.1-13.4-3-26.5-4.9-40.1-6.1-1.3-.2-1.3-.2-2.6-.3-10-1-20-1.7-30.1-2.1-5.3-.3-10.5-.9-15.8-1.6q-1-.2-2.1-.3c-5.2-1-7.9-2.8-11.6-6.5-.9-3.5 0-4.9 1.6-8.2 2.4-2.8 2.4-2.8 5.8-3.3z" fill="#022e3c"/><path d="M331 720.8q1.3 0 2.6 0l6.4.2c2 2 2 2 2.2 5.8 0 3.7-.4 7.4-3.2 10.2q-3.1.2-6.1.2-2 0-4 0-1.1.1-2.2.1c-31.7.5-64.5 2.9-95.1 11.3-3.1.5-5.5.2-8.6-.6-2.7-2.5-3.8-4.3-4.8-7.9 1.2-4.9 4.7-7.4 8.8-10.1 4.1-1.6 7.9-2.4 12.3-2.7q1.8-.2 3.7-.4 2-.2 4.1-.3 2.1-.2 4.2-.4 6.8-.6 13.7-1.2 1.2-.1 2.4-.2 8.5-.7 17-1.4 1.1-.1 2.3-.2c14.7-1.2 29.5-2.4 44.3-2.4z" fill="#022f3c"/><path d="m599 630c6 4.9 14.3 12.5 15.3 20.6-0.3 2.4-0.3 2.4-3.2 5.1-3.6 2.7-6.2 4.1-10.8 4-4.3-1.4-6.4-5.4-9-8.9-4.1-4.9-9.2-7.4-15.3-8.8-11.1-0.9-20.7-1-30 6-2.6 2.5-4.9 5-7.2 7.8-2.6 3.1-4.2 4.1-8.2 4.6-3.6-0.4-3.6-0.4-6-2-2.1-3.1-1.9-4.7-1.6-8.4 5.1-12 13.9-20.8 25.6-26.2 16.4-6.4 35.8-3.2 50.4 6.2z" fill="#032d3c"/><path d="M231.4 678.4q1.7.1 3.5.1c16.4.3 32.5 2.8 48.6 5.1q6 .9 12 1.7c12.7 1.7 25.4 3.5 37.9 5.8q1.3.2 2.6.4c4.4.8 7.4 1.7 10 5.5.5 2.9 0 5.3-1 8-2.1 2.1-2.1 2.1-5 3q-3.5-.4-7-1-1.9-.3-3.9-.6-2.2-.4-4.5-.7-1.2-.2-2.4-.4-7.1-1.1-14.1-2.3c-24.3-3.9-48.4-7.8-73-8.4q-1.1-.1-2.2-.1-2.8-.1-5.5-.1c-4.8-.6-8.9-1.9-12.4-5.4-.4-2.9-.4-2.9 0-6 4.5-5.3 10-4.6 16.4-4.6z" fill="#032e3c"/><path d="M402 631c5.1 3.9 9.2 8.7 11 15 .4 3.7.5 7.3 0 11-2 2-2 2-5.6 2.6-5.7-.2-8.6-3.8-12.4-7.6-8.6-8.4-15.8-10.5-27.7-10.5-6.3.2-11.1 1.8-16.3 5.5-1.3.9-1.3.9-2.7 1.8-2.3 2.1-2.3 2.1-3.8 4.2-4.4 5.7-4.4 5.7-7.8 6.6-4.1.1-7.2-.5-10.7-2.6-1.5-3-1.4-4.6-1-8 6.5-13.4 16.1-21.1 29.8-26.3 15.9-5.2 33.6-.7 47.2 8.3z" fill="#022d3b"/><path d="M142.3 1265.7h3.3q1.7 0 3.5 0 1.9 0 3.8 0 5.2 0 10.4 0 5.7 0 11.3 0 9.9 0 19.9 0 14.7 0 29.5 0 26.4 0 52.7 0 23.1 0 46.2 0 1.5 0 3.1 0 6.2 0 12.4 0 58.2 0 116.5 0 51.8.1 103.5 0 58.2 0 116.3 0 6.2 0 12.4 0 1.5 0 3.1 0 23.1 0 46.1 0 26.2 0 52.5 0 14.6 0 29.3 0 9.8 0 19.6 0 5.6 0 11.2 0 6 0 12 0h3.5q1.6 0 3.3 0 1.3 0 2.7 0c2.9.3 5 1.1 7.6 2.3-3 1-5 1.1-8.1 1.1h-3.2q-1.8 0-3.6 0-1.9 0-3.8 0-5.2 0-10.4 0-5.7 0-11.4 0-10 0-19.9 0-14.9-.1-29.7-.1-23.4 0-46.8 0-37.1-.1-74.3-.1-7.9 0-15.8 0-9.6 0-19.1 0-36.2-.1-72.4-.1h-3.4q-53.6 0-107.3-.1-55.1-.1-110.2-.1-7.8 0-15.6 0-1.5 0-3.1 0-24.7-.1-49.3-.1-24.8-.1-49.6 0-14.8 0-29.5-.1-9.8 0-19.7 0-5.6 0-11.2 0-6 0-12.1 0c-1.7 0-1.7 0-3.5-.1-6.9.1-11.7 1.1-17 5.7-3.8 5.1-4.4 9.7-4 16 .7 3.1 1.5 6.2 3 9 1.9 1.2 1.9 1.2 4 2q2.5 2 5 4c-4.4-.5-6.8-1.8-10-5-4.5-6.1-5-12.6-4-20 1.8-5.4 5.5-8.8 10-12 3.6-1.7 6.4-2.3 10.3-2.3z" fill="#f5e39c"/><path d="M453.3 883.5q1.5 0 3.1.1h3.2 3.2c7.8.1 7.8.1 11.2 2.4 1.2 3.7 1.4 7.2 1.6 11q0 1.1.1 2.2a145.91 145.91 0 0 1 0 16.2l-.2 4c-.5 3.6-.8 5.2-3.5 7.6-3.2 1-6.6.9-10 1q-1.7.1-3.4.2c-8.9.2-8.9.2-11.9-1.5-3.6-3.7-2.8-8.5-2.8-13.4q0-1.1.1-2.2 0-2.5 0-5.1h-7q0-.5 0-1h7q-.1-1.8-.1-3.6-.1-2.3-.2-4.6c0-1.2 0-1.2-.1-2.4v-2.3q0-1-.1-2.1c1.2-5.2 4.9-6.5 9.8-6.5z" fill="#255e68"/><path d="M598 1228c2 1.3 2 1.3 3 3-.4 3.8-2.3 5.6-4.9 8.3-7.4 8.2-7.7 15.8-8.1 26.7h-12c-.6-13.6.6-23.4 10-34 3.9-4 6.5-4.7 12-4zm-242 0c1.9 1.2 1.9 1.2 3 3 0 4.3-2 6.2-4.7 9.3-5.4 7.2-5 17.1-5.3 25.7q-2.7 0-5.4.1-1.5 0-3.1 0c-2.5-.1-2.5-.1-3.5-1.1-.8-13.5.3-22.5 9-33 3.3-3.3 5.3-4.9 10-4zm210 0c2 2 2 2 2.3 4.4-.4 3.1-1.2 4.2-3.2 6.6-4.8 5.8-5.4 10.4-5.2 17.8q.1 4.1.1 8.2c-1 1-1 1-3.7 1.1q-1.7 0-3.4 0-1.6-.1-3.3-.1H547c-.7-12.8-.9-23.1 8-33.3 3.6-3.4 5.8-5.3 11-4.7z" fill="#ca6400"/><path d="M324 1229q1 1 2 2c-.3 4.2-2 6.8-4.5 10.2-3.7 5-3.7 5-4.6 10.9q0 1.2 0 2.5 0 1.2 0 2.5 0 1.3.1 2.6 0 3.1 0 6.3h-13c-.4-11.4-.3-22.3 7.5-31.4 4-4.3 6.4-6.4 12.5-5.6z" fill="#cb6400"/><path d="M143.4 1265.8q1.9 0 3.9 0 2.1 0 4.2 0 2.3 0 4.5 0 6.1 0 12.2 0 6.4 0 12.7 0 12.1 0 24.2.1 13.7 0 27.4 0 28.3 0 56.5.1-.5 1-1 2h-2.4q-28.3 0-56.6.1-13.7.1-27.5.1-11.9 0-23.9.1-6.3 0-12.6 0-6 0-11.9 0-2.2 0-4.4 0c-8 0-14.6 0-20.7 5.7-3.8 5.1-4.4 9.7-4 16 .7 3.1 1.5 6.2 3 9 1.9 1.2 1.9 1.2 4 2q2.5 2 5 4c-4.4-.5-6.8-1.8-10-5-4.5-6.1-5-12.6-4-20 1.8-5.4 5.5-8.8 10-12 3.9-1.9 7-2.2 11.4-2.2z" fill="#fdf6a6"/><path d="M428 1230c-.5 3.6-1.2 6.7-2.5 10-1.9 5.4-1.8 10.4-1.7 16.1q0 1.4.1 2.9 0 3.5.1 7h-11c-.9-25.9-.9-25.9 7-35 2.9-1 5-1.1 8-1z" fill="#cc6700"/><path d="M460 1229c.3 2.2.3 2.2 0 5q-2.4 2.6-5 5c-4.5 6.4-4.8 11.2-3.5 18.8q.7 3.6 1.5 7.2h-9c-2.7-8.2-2.5-20.2 1.3-27.9 1.4-2.3 1.4-2.3 2.7-4.1q.9-1.3 1.8-2.6c3.4-2.2 6.2-1.7 10.2-1.4z" fill="#cd6700"/></svg>