<svg xmlns="http://www.w3.org/2000/svg" width="1024" height="1024" xmlns:v="https://vecta.io/nano"><path d="M386.6 123.8q9.6 0 19.2 0 26.5 0 53.1 0h3.4q1.7 0 3.4 0 3.4 0 6.8 0 1.7 0 3.5 0 27.6 0 55.3-.1 28.5 0 57 0 15.9 0 31.9 0 13.5-.1 27.1-.1 6.9 0 13.8 0 6.3 0 12.6 0 2.3 0 4.6 0 3.1 0 6.2 0h3.5c4.6.6 7.8 2.9 11 6.2q.8.8 1.6 1.6.9.9 1.7 1.8.9.9 1.8 1.8 2.9 2.9 5.7 5.8 2.8 2.8 5.7 5.7 1.7 1.7 3.5 3.5c2.8 2.9 5.6 5.6 8.7 8.2 4.5 3.9 8.8 8.2 13.1 12.5q1.2 1.2 2.5 2.5 4.1 4.1 8.3 8.2 2.8 2.9 5.7 5.8 6 6 12 12 6.9 6.9 13.9 13.8 5.9 6 11.9 12 3.6 3.5 7.1 7.1 4 3.9 7.9 7.9l2.4 2.4c1.1 1 1.1 1 2.2 2.1q.9 1 1.9 1.9c3 3.3 2.5 6.5 2.5 10.7q0 1.1 0 2.2 0 3.8 0 7.6 0 2.7 0 5.4 0 7.5 0 15 0 8.1 0 16.2 0 15.9 0 31.8 0 13.1 0 26.1v3.8q0 3.8 0 7.6 0 34.7 0 69.4 0 31.1 0 62.3.1 102.2-.1 204.4 0 4.6 0 9.2-.1 34.5-.2 69-.1 7.4-.1 14.8 0 9.5-.1 19.1 0 3.3 0 6.7c0 19.2-2.1 36.8-15.8 51.6-17.3 16.2-35.6 18-58.1 18q-3.2 0-6.3 0-8.5 0-17.1 0-9.2 0-18.4 0-18 0-36.1 0-14.6 0-29.3 0-4.2 0-8.5.1h-2.1q-29.6 0-59.1 0h-2.3q-5.6 0-11.3 0-1.1 0-2.2 0-2.3 0-4.6 0-35.2 0-70.5 0-39.6.1-79.2.1-4.3 0-8.5 0-1 0-2.1 0-16.7 0-33.5 0-16.8 0-33.6 0-9.1 0-18.2 0-8.4 0-16.7 0-3.1 0-6.1 0c-20.1.1-38.7-2.7-53.8-17.3q-1.1-1.1-2.2-2.2c-.8-.8-.8-.8-1.7-1.6-11.3-11.8-14.8-28.7-14.7-44.4q0-1.7 0-3.5 0-5.7 0-11.4 0-4.2 0-8.3 0-9 0-18 0-13.4 0-26.8 0-23.9 0-47.8 0-21 0-41.9 0-2.8 0-5.6 0-4.2 0-8.5-.1-39.3-.1-78.7 0-1.4 0-3 .1-12 .1-24 0-47-.1-94 0-52.8 0-105.6 0-5.6 0-11.2 0-1.4 0-2.8 0-20.9 0-41.8 0-23.8 0-47.6 0-13.3 0-26.6 0-8.9 0-17.8 0-5.1 0-10.1c-.1-25.6-.1-25.6 4.5-36q.5-1.3 1.1-2.7c5.5-13.3 18.1-23.5 31-29.1 10.8-4.5 21.4-4.6 32.9-4.8q1.4 0 2.9-.1l107.7-.5z" fill="#feeacc"/><path d="M621.1 329q1.2 0 2.4 0 3.8 0 7.7.1 2.7 0 5.4 0 5.6 0 11.2.1 7.2.1 14.4.1 5.5.1 11.1.1 2.6 0 5.3 0 3.7.1 7.4.1h2.2c4.6.1 7.9 1 11.8 3.5 2.7 3 3.4 4.9 3.4 9q0 1.5 0 3 0 1.6 0 3.3 0 1.8 0 3.6 0 4.9-.1 9.7 0 5.3 0 10.6 0 9.1 0 18.2 0 13.2 0 26.3 0 21.4-.1 42.8 0 20.8 0 41.5 0 1.3 0 2.6 0 6.4 0 12.9-.1 53.2-.2 106.5.9 0 1.8-.1 4.2-.1 8.4-.1 1.4-.1 2.9-.2c7.1-.1 7.1-.1 11 2.2 2.5 2.9 3.8 4.6 4.3 8.5-.5 4.4-2 7-5.4 9.7-3.4.7-3.4.7-7.3.7q-1.1.1-2.2.1-3.7 0-7.3-.1-2.7.1-5.3.1-7.3 0-14.6 0-7.8-.1-15.7 0-15.4 0-30.8-.1-17.9 0-35.8 0-32 0-64 0-31-.1-62-.1-33.8.1-67.6 0-3.6 0-7.2 0-1.7 0-3.6 0-12.5 0-25 0-15.2 0-30.4 0-7.8-.1-15.6 0-7.1 0-14.2-.1-2.6 0-5.1 0-3.5 0-7 0-1.9 0-3.9 0c-4-.6-5.6-1.7-8.4-4.5-1.4-2.9-1.3-4.8-1-8 2.1-4 3.8-6.4 8-8 2.6-.2 2.6-.2 5.4-.2q1.6 0 3.1 0 1.6 0 3.2.1 1.7 0 3.3 0 4 0 8 .1 0-1.1 0-2.2-.1-26.5-.2-53 0-12.9-.1-25.7-.1-11.2-.1-22.3 0-6 0-11.9-.1-5.5-.1-11.1 0-3 0-6c.1-11.3.1-11.3 4.5-15.8 3.5-2.7 7.5-2.3 11.7-2.3q1.1 0 2.3 0 3.8 0 7.6 0 2.7 0 5.4-.1 5.5 0 11.1 0 7.1 0 14.2 0 5.5-.1 11-.1 2.6 0 5.3 0 3.6 0 7.3 0 1.1 0 2.2 0c5.5 0 8.5 1.4 12.9 4.5 3.1 3.2 3.4 5.5 3.4 9.9v3.6q0 2-.1 4 0 2.1 0 4.2 0 5.7 0 11.4 0 5.9 0 11.9 0 11.3-.1 22.5 0 12.9 0 25.7-.1 26.4-.2 52.8h41v-18.8q-.1-38.3 0-76.7 0-7.5 0-15.1 0-20.2.1-40.5.1-8.7.1-17.4 0-8.3.1-16.5 0-3 0-6.1 0-4.1 0-8.2v-2.4c.1-3.9.5-6.6 2.7-9.8 3.8-3.1 6.5-3.3 11.2-3.2q1.2 0 2.5 0 4-.1 8 0 2.8 0 5.6 0 5.8 0 11.7.1 7.5.1 15 0 5.8 0 11.5.1 2.8 0 5.6 0 3.8 0 7.7.1 1.1 0 2.3 0c5.5.1 8.6 1.2 12.5 5 2 3.5 1.8 6.8 1.8 10.7q0 1.3 0 2.6 0 4.2-.1 8.5 0 3 0 6.1 0 8.2 0 16.5 0 8.6 0 17.3 0 16.4-.1 32.7 0 18.7 0 37.3-.1 38.4-.2 76.7h46v-10.7q-.3-48.7-.4-97.4 0-6.4 0-12.8 0-1.3 0-2.6 0-20.5-.1-41.1-.1-21.1-.2-42.2 0-13.1-.1-26.1 0-8.9 0-17.9 0-5.1 0-10.3-.1-5.6 0-11.2-.1-1.6-.1-3.2c.1-6.7 1.4-10.2 6-15.1 3.2-2.4 6.3-2.5 10-2.4z" fill="#154451"/><path d="M386.6 123.8q9.6 0 19.2 0 26.5 0 53.1 0h3.4q1.7 0 3.4 0 3.4 0 6.8 0 1.7 0 3.5 0 27.6 0 55.3-.1 28.5 0 57 0 15.9 0 31.9 0 13.5-.1 27.1-.1 6.9 0 13.8 0 6.3 0 12.6 0 2.3 0 4.6 0 3.1 0 6.2 0h3.5c4.6.6 7.8 2.9 11 6.2q.8.8 1.6 1.6.9.9 1.7 1.8.9.9 1.8 1.8 2.9 2.9 5.7 5.8 2.8 2.8 5.7 5.7 1.7 1.7 3.5 3.5c2.8 2.9 5.6 5.6 8.7 8.2 4.5 3.9 8.8 8.2 13.1 12.5q1.2 1.2 2.5 2.5 4.1 4.1 8.3 8.2 2.8 2.9 5.7 5.8 6 6 12 12 6.9 6.9 13.9 13.8 5.9 6 11.9 12 3.6 3.5 7.1 7.1 4 3.9 7.9 7.9l2.4 2.4c1.1 1 1.1 1 2.2 2.1q.9 1 1.9 1.9c3 3.3 2.5 6.5 2.5 10.7q0 1.1 0 2.2 0 3.8 0 7.6 0 2.7 0 5.4 0 7.5 0 15 0 8.1 0 16.2 0 15.9 0 31.8 0 13.1 0 26.1v3.8q0 3.8 0 7.6 0 34.7 0 69.4 0 31.1 0 62.3.1 102.2-.1 204.4 0 4.6 0 9.2-.1 34.5-.2 69-.1 7.4-.1 14.8 0 9.5-.1 19.1 0 3.3 0 6.7c0 19.2-2.1 36.8-15.8 51.6-17.3 16.2-35.6 18-58.1 18q-3.2 0-6.3 0-8.5 0-17.1 0-9.2 0-18.4 0-18 0-36.1 0-14.6 0-29.3 0-4.2 0-8.5.1h-2.1q-29.6 0-59.1 0h-2.3q-5.6 0-11.3 0-1.1 0-2.2 0-2.3 0-4.6 0-35.2 0-70.5 0-39.6.1-79.2.1-4.3 0-8.5 0-1 0-2.1 0-16.7 0-33.5 0-16.8 0-33.6 0-9.1 0-18.2 0-8.4 0-16.7 0-3.1 0-6.1 0c-20.1.1-38.7-2.7-53.8-17.3q-1.1-1.1-2.2-2.2c-.8-.8-.8-.8-1.7-1.6-11.3-11.8-14.8-28.7-14.7-44.4q0-1.7 0-3.5 0-5.7 0-11.4 0-4.2 0-8.3 0-9 0-18 0-13.4 0-26.8 0-23.9 0-47.8 0-21 0-41.9 0-2.8 0-5.6 0-4.2 0-8.5-.1-39.3-.1-78.7 0-1.4 0-3 .1-12 .1-24 0-47-.1-94 0-52.8 0-105.6 0-5.6 0-11.2 0-1.4 0-2.8 0-20.9 0-41.8 0-23.8 0-47.6 0-13.3 0-26.6 0-8.9 0-17.8 0-5.1 0-10.1c-.1-25.6-.1-25.6 4.5-36q.5-1.3 1.1-2.7c5.5-13.3 18.1-23.5 31-29.1 10.8-4.5 21.4-4.6 32.9-4.8q1.4 0 2.9-.1l107.7-.5zm-149.8 36.5c-8.1 10.1-10.1 21.3-10 33.9q0 1.4 0 2.9-.1 4.8 0 9.6 0 3.5 0 7 0 7.3 0 14.6 0 8.9 0 17.8l.4 66.2.8 156.7q-.1 23.1-.1 46.2 0 7 0 14 0 2 0 4 0 23.5 0 46.9 0 1 0 2-.1 33.3-.2 66.6 0 35.5 0 71 0 21.1-.1 42.3 0 14.4 0 28.8 0 8.3-.1 16.6 0 7.6 0 15.2 0 2.7 0 5.5c-.1 14.2 1.6 25.8 11.5 36.9 12.5 11.1 25.6 11.6 41.5 11.5q3.1 0 6.3 0 8.6 0 17.2 0 9.3 0 18.6 0 17.1.1 34.2 0 15.8 0 31.7 0 1 0 2.1 0 4.3 0 8.5 0 40 .1 80 0 35.5 0 71.1 0 39.9.1 79.8 0 4.3 0 8.5 0h2.1q15.9 0 31.7 0 18 .1 36 0 9.1 0 18.3 0 8.4 0 16.8 0 3.1 0 6.1 0c14.1.1 25.1-.7 36.3-10.3 7.9-7.8 12.2-17.5 12.3-28.6q0-2.7 0-5.3 0-1.4 0-2.9 0-5 0-9.9 0-3.5 0-7.1 0-7.7-.1-15.5 0-11.5 0-23 0-19.3-.1-38.7 0-19.1-.1-38.3 0-1.2 0-2.4 0-6 0-12.1-.1-42.8-.2-85.7 0-41.6-.1-83.2v-2.6q0-12.9-.1-25.8 0-26.2-.1-52.5 0-1.2 0-2.4-.1-80.6-.3-161.2-1.8 0-3.6 0-16.7 0-33.4 0-8.6-.1-17.2 0-8.3 0-16.5-.1-3.2 0-6.4 0c-21.1.2-21.1.2-29.9-7.9q-1.4-1.3-2.9-2.6-1-1.1-2-2.3-1-1.1-2-2.3c-6.2-8.4-7.8-14.5-7.8-25q0-3 0-5.9-.1-4.2 0-8.3-.1-6.9-.1-13.8-.1-4-.1-8c0-10.3-.3-20.6-.6-30.8q-.1-2.4-.2-4.7-.1-5.7-.3-11.3-78.8-.1-157.7-.2-9.3 0-18.6 0-1.8 0-3.7 0-30-.1-60-.1-30.8-.1-61.6-.1-19 0-38 0-13-.1-26-.1-7.5.1-15.1 0-6.8 0-13.7 0-2.5 0-5 0c-15.6-.1-27 3.1-37.8 14.8z" fill="#154350"/><path d="M626 350h56v273l-55-1-.8-40.6q0-1.1 0-2.3l-.3-116.5q0-18.4 0-36.9.1-37.9.1-75.7z" fill="#f2a539"/><path d="M573.3 225.8q.9 0 1.9 0 3.2-.1 6.4-.1h2.3q5.7 0 11.5-.1 4.8 0 9.6 0 5.8-.1 11.6-.1 2.2 0 4.4-.1c13-.2 13-.2 16.8 2.9 3.7 4.6 4.5 7.5 4.5 13.4q0 1 0 2 0 3.3 0 6.6 0 2.3.1 4.6 0 4.8 0 9.6 0 6.2 0 12.3.1 4.7.1 9.5 0 2.2 0 4.5 0 3.2 0 6.4 0 1.8 0 3.6c-.6 3.8-1.8 5.5-4.5 8.2-3.3 2.3-6.1 2.6-10 2-3.1-2.6-4.7-4.2-6-8q-.1-2.1-.1-4.1 0-1.2 0-2.5 0-1.3 0-2.7V291q0-4.3 0-8.7 0-2.9.1-5.9 0-7.2 0-14.4l-12.9 11.4q-1.2 1.1-2.5 2.3-1.3 1.1-2.6 2.3-3.8 3.4-7.5 6.8-2.4 2.1-4.9 4.3-7.1 6.5-14.4 12.7-7.1 6-13.9 12.4c-3.8 3.6-7.7 7-11.7 10.2-5.7 4.6-11 9.6-16.4 14.6q-4.5 4.3-9.3 8.3c-2.3 2-4.5 4.1-6.8 6.1-15.7 14.2-15.7 14.2-23.6 14.1-4.9-.9-8-4.2-11.5-7.5q-1.6-1.4-3.2-2.9-3.4-3.1-6.7-6.3-3.4-3.1-7-6.2c-4.7-4-9.2-8.3-13.7-12.6-2.7-2.6-5.4-5-8.4-7.3q-1-.8-2-1.7 0-1 0-2-8.8 7.2-17.5 14.5L408 350q-2.6 2.1-5.2 4.2-2.9 2.4-5.8 4.8-.9.7-1.8 1.5l-21.3 17c-5.6 4.4-11.1 9.1-16.5 13.8s-10.8 9.3-16.4 13.7q-.8.7-1.7 1.4c-3.6 2.8-6.8 3.2-11.2 3-3.2-.6-4.9-2.1-7.1-4.4-1.6-3.3-1.6-6.5-1-10 3-5.4 8.4-9.1 13.2-12.8l9.3-7.7q6.8-5.8 13.7-11.3 5.4-4.3 10.8-8.7l23.1-18.5q8.5-6.7 16.9-13.5 3.5-2.9 6.9-5.7 1-.8 2.1-1.7 2.1-1.7 4.2-3.4c2.9-2.3 5.7-4.6 8.3-7.1 4.2-3.8 7.6-5.2 13.3-5.7 8.4.4 12.9 4.9 18.7 10.6 2.3 2.3 4.8 4.5 7.3 6.7l2.7 2.5A438.03 438.03 0 0 0 481 328q.8.7 1.6 1.4 2.8 2.5 5.7 4.9.8.8 1.8 1.6c2.8 2.5 5.4 4.7 8.9 6.1l1.5-1.5c3.9-4 8-7.9 12.3-11.6l7.7-6.9q5.7-5.2 11.5-10.2 3.3-3 6.6-6c4-3.6 8.1-7.2 12.3-10.7 5.6-4.7 11-9.7 16.4-14.7l13.9-12.1q1.8-1.6 3.6-3.1.9-.8 1.8-1.6c4.9-4.1 9.6-8.4 14.3-12.7 2.1-1.9 2.1-1.9 4.1-2.9q-1.6 0-3.2 0-5.9-.1-11.8-.2-2.5 0-5.1-.1-3.7 0-7.3-.1-1.2 0-2.3 0c-5.5-.1-8.8-1.5-13.3-4.6-1.7-3.5-1.5-7.2-1-11 3.5-5.6 5.9-6.1 12.3-6.2z" fill="#154450"/><path d="M483 429q9 0 18.1-.1 3.1 0 6.1 0 4.5 0 8.9 0 1.3 0 2.7 0c7.2 0 14 .5 21.2 1.1v191l-56 1q-.3-19.8-.5-39.7 0-1.5 0-3l-.6-105.5q0-1.7 0-3.5.1-20.6.1-41.3z" fill="#f2aa37"/><path d="M307.8 705.9h2.2q3.6 0 7.2 0 2.6 0 5.2 0 7.2-.1 14.4-.1 7.8 0 15.5 0 17 0 33.9 0 10.6 0 21.2 0 29.2 0 58.5 0 1.9 0 3.8 0 1.9 0 3.8 0 3.8 0 7.6 0 1.9 0 3.8 0 30.7 0 61.3-.1 31.4 0 62.8 0 17.6 0 35.3 0 15-.1 30-.1 7.7 0 15.4 0 7 0 14 0 2.5 0 5.1 0 3.4 0 6.9 0 1.9 0 3.9 0c3.7.4 6.2 1.4 9.4 3.4 2.4 3.2 2.5 6.1 2 10-1.7 3.3-2.9 5.4-6.2 7.2-3.4 1-6.4 1.1-9.9 1.1q-1.1 0-2.2 0-3.6 0-7.1 0-2.6 0-5.2 0-7.1 0-14.2 0-7.7 0-15.4 0-15 0-30 0-12.2 0-24.5 0-1.7 0-3.5 0-3.5 0-7 0-33.1 0-66.2 0-28.4-.1-56.8 0-33 0-66 0-3.5 0-7 0-1.7 0-3.5 0-12.2 0-24.4 0-14.9 0-29.7 0-7.6 0-15.2 0-7 0-13.9 0-2.5 0-5 0-3.4 0-6.8 0-1.9 0-3.9 0c-3.5-.3-6.2-1-9.4-2.3-2.5-2.9-2.4-6.3-2.3-10 .4-3.1 1.6-5.4 3.3-8 2.9-1.5 5.5-1.1 8.8-1.1z" fill="#164654"/><path d="M344 494h58l-2 127-42.6 1.1q-3.8-.1-7.7-.1H343l.5-79.9q.1-9.6.2-19.2.1-14.5.3-28.9z" fill="#f2a539"/><path d="M305.3 768.9l2.8-.1q1.5 0 3 0 1.6 0 3.2 0 5.4 0 10.8 0 3.9 0 7.7 0 11.6-.1 23.1-.1 3.3 0 6.6 0 20.2 0 40.5 0 4.7 0 9.4-.1 1.1 0 2.3 0 19 0 37.9 0 19.4-.1 38.8-.1 10.9 0 21.8-.1 10.2 0 20.5 0 3.8 0 7.5 0 5.2 0 10.3 0l3-.1c4.7.1 6.8.1 10.6 3.1 3.9 5.3 3.9 5.3 3.8 9.5-1.1 3.9-2.9 5.5-5.9 8.1-2.9 1.5-5.5 1.1-8.8 1.1q-1 0-2.1 0-3.5 0-7.1 0-2.5 0-5.1 0-6.9 0-13.8 0-7.4 0-14.8 0-14-.1-27.9-.1-10.6 0-21.2 0-31.6-.1-63.1-.2-14.6 0-29.2-.1-13.1 0-26.2-.1-6.8 0-13.6 0-6.3 0-12.6 0-2.3-.1-4.6 0-3.1 0-6.3-.1-1.7 0-3.5 0c-3.8-.6-5.4-1.9-8.1-4.5-1.2-3-1.4-5.8-1-9 2.6-5 5.8-7.1 11.3-7.1z" fill="#164855"/><path d="M694 156c2.8 1.3 4.9 2.6 7.1 4.9q.9.8 1.8 1.7.9 1 1.9 1.9 1 1 2 2.1 3.3 3.3 6.6 6.7 2.3 2.3 4.7 4.6 6.1 6.1 12.2 12.3 9.7 9.8 19.4 19.6 3.4 3.4 6.8 6.8 2.1 2.1 4.2 4.2l1.9 1.9a199.43 199.43 0 0 0 11.7 10.8l5.9 5.6q1 1 2 2 .9 1 1.8 1.9 1.5 1.5 3 3 1 1 2 2c-8.6.8-17.2 1.1-25.9 1.1q-1.7 0-3.5 0-3.7 0-7.4 0-5.6 0-11.2 0-3.6 0-7.3 0-1.6 0-3.3 0c-23.3 0-23.3 0-31.2-7.9-3.9-5.6-4.5-11.2-4.5-17.9q0-1.1 0-2.2-.1-3.6-.1-7.2 0-2.5-.1-5 0-6.6-.1-13.1-.1-6.8-.1-13.5-.2-13.1-.3-26.3z" fill="#fee5c1"/></svg>