<svg xmlns="http://www.w3.org/2000/svg" width="1024" height="1024" xmlns:v="https://vecta.io/nano"><path fill-rule="evenodd" d="M749.4 84.9c11.7 12.3 11.7 29.8 11.7 45.8q0 1.5-.1 2.9 0 4.3 0 8.5v1.9q13.5 0 26.9 0 6.9-.1 13.8-.1 6.7 0 13.4 0 2.6 0 5.2 0c25.6-.1 48 4.3 67.4 22.3 18.7 20.2 22.8 42.2 22.7 68.8q0 3.8 0 7.6 0 9.4 0 18.7 0 12.6 0 25.1 0 21.1 0 42.3-.1 21-.1 42v2.6q0 5.3 0 10.6 0 48.3 0 96.7-.1 45.6-.1 91.3 0 1.5 0 2.9 0 5.7 0 11.3 0 2.9 0 5.7 0 2.8 0 5.7 0 45 0 90 0 13.2 0 26.3 0 27.8 0 55.6 0 11.5 0 23 0 9.6-.1 19.2 0 3.9 0 7.8 0 5.4 0 10.8 0 1.7 0 3.2c.1 13.4-2.3 26.2-8.7 38.2q-.7 1.2-1.4 2.4c-7.8 13.9-18.6 23.6-32.6 31.1q-1 .6-2 1.1c-15.1 8.3-31.9 8.4-48.6 8.3q-5.1 0-10.1 0-8.8 0-17.6 0-13.1 0-26.3 0-22.2 0-44.3 0-22.1 0-44.1 0h-2.8q-5.6 0-11.1 0-52.2 0-104.4-.1-46.5 0-93 0-2.9 0-5.9 0h-3q-7.4 0-14.9 0-1.5 0-2.9 0-39 0-77.9 0h-2.8q-5.6-.1-11.1-.1-19.4 0-38.7 0-25 0-50 0-13.3 0-26.5 0-8.9 0-17.8 0-4.1 0-8.2 0-5.7 0-11.3 0h-3.4c-21.2 0-41.3-6.3-56.8-21.2-19.8-20.3-24.4-42.8-24.3-70.1q0-3.8 0-7.6 0-9.4 0-18.8 0-12.6 0-25.2 0-22.5 0-45 0-19.8 0-39.6 0-2.7 0-5.3 0-4 0-8-.1-37.2-.1-74.4 0-1.5 0-2.9.1-11.3.1-22.7 0-44.5-.1-89 0-50.1 0-100.1 0-5.4 0-10.7 0-1.4 0-2.7 0-19.8 0-39.6 0-22.7 0-45.3 0-12.7 0-25.4 0-8.5 0-17 0-4 0-7.9c-.1-16.6-.2-31.9 7.2-47.2q.5-1 1-1.9c4.1-8 9.3-14.6 15.6-21.1 17.7-16.8 38-22 61.7-21.8q2.2 0 4.4 0 5.8 0 11.6 0 6.1.1 12.1.1 11.7 0 23.4.1 1.3 0 2.5 0 0-4.6-.1-9.1 0-1.9 0-3.8c0-5.7-.2-11.4.4-17 1.6-12.3 4.5-22.4 14.5-30.3q1.6-.9 3.2-1.8c5.5-3.2 10.6-4.2 16.8-4.4q1.3 0 2.5 0c6.3 0 11.3.7 17 3.6 10.5 6.6 12.6 13.4 15.7 25.8v37h373c0-18.4-4.2-42.2 9.2-57.5 13.2-12.9 35.7-13.5 50.2-1.6z" fill="#fef7ca"/><path d="M806 352c6.9 4.8 10.4 10.1 13 18 2.3 20.2-6.6 38.2-17 55q-.6 1.1-1.3 2.1c-6.5 10.6-13.7 20.6-21 30.6q-4.1 5.7-8.2 11.3-1.6 2.3-3.3 4.5-.8 1.1-1.6 2.2l-19.5 27.1q-1.6 2.2-3.2 4.4-4.1 5.7-8.2 11.4c-5.7 7.7-11.2 15.5-16.6 23.4l-11.4 16.4q-5.9 8.3-11.7 16.6l-39.4 55.1q-.8 1.1-1.7 2.3-2.4 3.3-4.9 6.6-.9 1.2-1.8 2.5-.9 1.2-1.9 2.4-.8 1.1-1.6 2.2c-4.5 5-10.9 6.6-17.4 7.3-8.7-.1-15.3-8.1-21.3-13.7-4.8-4.4-10.1-8.4-15.3-12.4l-9.8-7.9c-1.8-1.6-1.8-1.6-3.9-1.4-1.2 1.4-1.2 1.4-2.4 3.2l-1.5 2.1-1.5 2.3c-5.2 7.5-10.6 14.7-16.3 21.8a243.41 243.41 0 0 0-6.2 8l-11.2 14.2c-4.1 5.1-8 10.2-11.7 15.4a442.91 442.91 0 0 1-8.2 10.9q-.8 1-1.7 2.1-1.7 2.3-3.5 4.6-4.8 6.4-9.7 12.7-1 1.3-2 2.7-6.9 9.1-13.7 18.2-8 10.7-16.3 21.2-5.9 7.7-11.9 15.4-.8 1.1-1.6 2.2-3 3.8-5.9 7.7C434 806 434 806 429 811c-7.7-.4-13.9-2.4-19.3-8.1-5.7-7.6-7.3-15.3-7.2-24.7q0-1.5 0-3.1.1-5 .1-10 0-3.6 0-7.1.1-9.2.1-18.4.1-9.4.1-18.8.1-18.4.2-36.8-.8 0-1.7 0-20 .2-40 .3-9.7 0-19.4.1-9.4.1-18.7.1-3.6 0-7.1 0-5 .1-10.1.1-1.4 0-2.9 0c-8.7 0-15.8-2.9-22-9.1-7.2-9.1-7.7-20.8-7.6-32q0-2.1 0-4.2 0-5.7 0-11.3 0-5.9 0-11.9 0-10 0-19.9.1-11.5.1-23-.1-11.1 0-22.3 0-4.7 0-9.4 0-5.5 0-11.1 0-2.9 0-5.9c.1-10.9 1.3-22.7 8.4-31.5 6-5 10.8-7.1 18.7-7.1q1 0 2 0 3.4 0 6.8 0 2.4 0 4.7 0 5.1 0 10.1 0 6.3 0 12.6 0 33.6-.1 67.1 1.1l-.2-1.7c-1.1-10.1-1-20.2-1.1-30.4q0-1.5 0-3 0-8-.1-15.9 0-6.6 0-13.1-.1-8-.1-15.9 0-3-.1-6.1c-.2-21.7-.2-21.7 7.6-30 5.8-5.7 11.8-8.3 19.9-8.3q1 0 2 0 3.3 0 6.6 0 2.4 0 4.7 0 6.5 0 12.9 0 5.4 0 10.7 0 12.7-.1 25.4 0 13 0 26.1-.1 11.2 0 22.5 0 6.7 0 13.4 0 6.3 0 12.6 0 2.3 0 4.6 0c10.2-.1 20 .5 28 7.7q.9.8 1.8 1.6c5.4 6.5 6.4 12.5 6.3 20.7q0 1.6 0 3.2-.1 5-.1 10 0 3.6 0 7.1-.1 9.2-.1 18.4-.1 11.1-.1 22.2-.1 16.8-.2 33.6h48q1-2 2-4 1.2-1.7 2.4-3.3.7-1 1.4-1.9.8-1 1.6-2.1 1.6-2.1 3.2-4.3c.9-1.1.9-1.1 1.7-2.2q4-5.2 7.9-10.5 1.5-2 3-4 .7-.9 1.4-1.9 7.4-9.8 14.7-19.6 1.1-1.4 2.3-2.9 2.6-3.6 5.2-7.1l13.4-18q2.8-3.7 5.5-7.4 1.3-1.8 2.5-3.5c11.7-15.9 24.9-30.8 42.5-40.2q1-.6 2.1-1.2c11.9-6.1 26.3-7.9 38.2-.9z" fill="#f49300"/><path d="M747.2 83.6c8.4 6.6 11.4 15.3 12.8 25.7.9 8.1 1.1 16.2 1 24.3q0 1.5 0 3.1 0 3.6 0 7.3 1.4 0 2.8 0 13.3-.1 26.6-.1 6.9 0 13.7-.1 6.6 0 13.2 0 2.6 0 5.1 0c26-.2 47.6 5.7 66.8 24.3 30.5 32.4 20.8 77 20.8 118.9H108c0-85.7 0-85.7 7.7-100.3q.5-.9 1-2c3.3-6.2 7.5-11.5 12.3-16.7q.8-.9 1.6-1.9c12.1-13.3 30.8-20.8 48.4-22.1l15.8-.1q2.2 0 4.5 0 5.9 0 11.8 0 6.1 0 12.2.1 11.8 0 23.7 0 0-1.1 0-2.3-.1-5.3-.1-10.6 0-1.8 0-3.7c0-13.5.4-28.8 9.9-39.4 9.6-8.9 19-10.5 31.7-10.3 7.8.3 14.2 3.2 20 8.5 13.5 15.6 8.5 39.4 8.5 57.8h373v-32c1.9-12.7 3.8-22.1 14-30 13-8.1 30.6-7 43.2 1.6z" fill="#15a2ae"/><path d="M806 352c6.9 4.8 10.4 10.1 13 18 2.3 20.2-6.6 38.2-17 55q-.6 1.1-1.3 2.1c-6.5 10.6-13.7 20.6-21 30.6q-4.1 5.7-8.2 11.3-1.6 2.3-3.3 4.5-.8 1.1-1.6 2.2l-19.5 27.1q-1.6 2.2-3.2 4.4-4.1 5.7-8.2 11.4c-5.7 7.7-11.2 15.5-16.6 23.4l-11.4 16.4q-5.9 8.3-11.7 16.6l-39.4 55.1q-.8 1.1-1.7 2.3-2.4 3.3-4.9 6.6c-.9 1.2-.9 1.2-1.8 2.5-.9 1.2-.9 1.2-1.9 2.4l-1.6 2.2c-4.5 5-10.9 6.6-17.4 7.3-8.7-.1-15.3-8.1-21.3-13.7-4.8-4.4-10.1-8.4-15.4-12.4-17.7-13.8-17.7-13.8-19-20.6-.3-5 .2-8 3.5-12q1-1.1 1.9-2.3 1-1.2 2-2.4 1.7-2.2 3.3-4.5.8-1.1 1.7-2.2.8-1.2 1.7-2.4 6.6-9 13.4-18l14-19.2c4.1-5.7 8.3-11.3 12.6-16.9l10.6-14.7 8.9-11.9c2.8-3.5 5.4-7 7.6-11 4.1-7.1 9.4-13.5 14.5-20q4-5.2 7.9-10.5.8-1 1.6-2 1.4-2 2.8-3.9 3.1-4 6.1-8.1 1.1-1.4 2.2-2.9 3.2-4.3 6.4-8.6 1.1-1.4 2.3-2.9 2.6-3.6 5.2-7.1l13.4-18q2.8-3.7 5.5-7.4 1.3-1.8 2.5-3.5c11.7-15.9 24.9-30.8 42.5-40.2q1-.6 2.1-1.2c11.9-6.1 26.3-7.9 38.2-.9z" fill="#296d7b"/><path d="M577 617c9.9 4.4 18.6 13.3 26.8 20.3 4.7 4 9.4 7.8 14.2 11.7-1 3.6-2.3 6.6-4.3 9.7-3 4.6-5.2 9.4-7.4 14.4q-.6 1.3-1.2 2.7c-2.7 6.1-5.2 11.8-5.7 18.6q-.1 1.3-.3 2.6c0 1 0 1-.1 2q-1.5 0-3 0c-1.4 1.7-1.4 1.7-2.6 4l-1.6 2.8-1.8 3.2q-1 1.9-2.1 3.7-.5 1-1.1 2c-.5 1-.5 1-1.1 2q-.6 1-1.2 2.1c-9.3 16.5-19 32-32.1 45.7-2 2.1-3.8 4.2-5.6 6.4-3.7 4.1-7.6 7.6-11.8 11.1q-1.5 1.2-2.9 2.5c-8.6 7.1-17.8 12.7-27.6 18.1q-3.9 2.2-7.8 4.4-2.6 1.5-5.2 2.9-1.2.7-2.4 1.4c-9.4 5.2-19.5 8.2-29.9 11.1q-1.6.5-3.2.9-3.4 1-6.8 1.9-5.2 1.5-10.3 2.9-3.4 1-6.7 1.9c-1.5.4-1.5.4-3.1.9-5 1.4-9.9 2.5-15.1 3.1 1.3-4.3 3.6-7.2 6.3-10.7 1.8-2.4 3.3-4.9 4.9-7.5 3-4.9 6.6-9.2 10.3-13.5 5.6-6.6 10.8-13.4 16-20.3q3.3-4.4 6.7-8.8 1.2-1.5 2.4-3.1 2.4-3 4.7-6.1l31.3-41.2q8.1-10.7 16.3-21.3c4.4-5.5 8.6-11.2 12.8-16.8l19.3-25.2c10.9-14 21.8-28 32-42.5z" fill="#a1c2c1"/><path d="M736 517q.5 0 1 0 .1 28.3.2 56.6 0 13.1.1 26.3.1 11.4.1 22.9 0 6 0 12.1.1 5.7.1 11.4 0 2.1 0 4.2c.1 9.4-.6 17.5-6.5 25.1q-1.1.9-2.1 1.8c-1 1-1 1-2.1 1.9-7.4 4.5-15.3 5.1-23.8 5q-1.5 0-3.1 0-5.2 0-10.3 0-3.6 0-7.1 0-9.4 0-18.8-.1-9.6 0-19.2-.1-18.7 0-37.5-.1 0 .8 0 1.7.2 20 .3 40 0 9.7.1 19.4.1 9.4.1 18.7 0 3.6 0 7.1.1 5 .1 10.1 0 1.4 0 2.9c0 7.7-2.1 14.3-7.3 20-7.5 7-16.2 8.3-26 8.2q-1.1 0-2.2 0-3.6 0-7.1 0-1.2 0-2.4 0c-12.9 0-25.7-.3-38.6-1.1 3.3-3.4 6.6-6.3 10.5-9.1 7-5.1 13.2-10.9 19.5-16.9.8-.7.8-.7 1.6-1.5 25.2-23.9 39.7-53.3 42.7-88.2 1-10.1 5-18.2 9.6-27.2 1.4-2.6 2.6-5.3 3.9-7.9 1.8-3.6 3.9-6.9 6.2-10.2q1 .5 2 1c6.3 2.1 11.7 1.1 17.8-.9 5.7-2.9 9.4-8.8 13.2-13.8.8-1.1.8-1.1 1.7-2.2 5.7-7.5 11.2-15.2 16.7-22.8q2.4-3.5 4.9-6.9 10-13.7 19.6-27.7l16.9-24.2q3.2-4.4 6.3-8.9 3.7-5.3 7.4-10.5 1.5-2.1 3-4.2 2.1-3 4.2-6 .6-.9 1.3-1.8 1.5-2.1 3-4.1z" fill="#f49301"/><path d="M747.2 83.6c7.7 6 11 13.8 12.3 23.4.8 8.5.7 17.2.7 25.8v2.9q0 7.5 0 15 .1 7.7.1 15.4 0 6 0 12 0 2.8 0 5.6c.1 14.5-.1 28.7-10 40.3-7.1 6.9-15.7 9.2-25.5 9.4-10.9-.4-19.3-2.4-27.1-10.5-5.8-7.6-7.3-16.3-7.2-25.6q0-1.5 0-3.1-.1-4.9 0-9.9 0-3.4 0-6.9-.1-7.2 0-14.5 0-9.2 0-18.5-.1-7.2 0-14.3 0-3.4 0-6.8-.1-4.8 0-9.6 0-1.4 0-2.8c.1-10.8 3.7-19.1 11.1-26.8 12.4-10.9 32.5-9.5 45.6-.5zM303 82c7 4.6 11.2 10.9 13 19 1.6 8.1 1.3 16.2 1.3 24.4q0 2.7 0 5.4 0 5.6 0 11.3-.1 7.1 0 14.2c0 33.5 0 33.5-1.1 46.3q-.1 1.1-.1 2.3c-1 9.1-5.3 17-12.1 23.1-10.1 6.6-23.7 6.7-35.3 4.3-8.2-3-13.5-8.1-17.7-15.7-2.7-6.9-3.3-13.8-3.3-21.2q0-1.4 0-2.8 0-4.5 0-9.1 0-3.1 0-6.3 0-6.6 0-13.2 0-8.5-.1-16.9 0-6.6 0-13.1 0-3.1 0-6.2c-.1-29.8-.1-29.8 10.8-41.3 11.4-10.3 31.5-12.6 44.6-4.5z" fill="#01636c"/><path d="M598 697c.6 9.7-1.6 18.6-4 28q-.4 1.6-.8 3.2c-6.1 20.7-19.5 37.5-34.2 52.8q-.8.8-1.5 1.6c-7.9 8.3-16.3 15.5-25.5 22.4q-2.3 1.7-4.5 3.4c-29.9 22.5-61.2 40.3-99.6 41q-1.2 0-2.4.1c-5.3 0-8.3-1-12.5-4.5-2-3-2-3-1.8-6.6.8-3.4.8-3.4 2.8-5.4q3.5-.5 7-1 3.9-1 7.9-2.1 1.1-.3 2.2-.6 3.5-1 7.1-2 1.2-.3 2.4-.7 6.1-1.7 12.1-3.4 5.3-1.5 10.6-2.9c9.8-2.7 18.6-6.2 27.6-11.1q3.5-2 7.1-3.9c13.7-7.3 26.2-15.2 38-25.3 1.2-1 1.2-1 2.4-2.1a92.37 92.37 0 0 0 11.7-11.7l5.8-6.3c6.4-6.7 11.4-14 16.1-21.9l1.9-3.1c9.7-16.1 9.7-16.1 18.8-32.7 3.1-5.2 3.1-5.2 5.3-5.2z" fill="#c5e5e6"/><path d="M646 500q0 1.5 0 3c2.2 2 2.2 2 5 4q1.6 1.3 3.2 2.7.8.7 1.7 1.5.8.7 1.7 1.5 6.6 5.7 13.3 11.1c5 4 10.2 8.4 13.1 14.2.6 5.7-.4 8.5-4 13-.7.9-.7.9-1.4 1.9-2.5 1.7-4.6 1.3-7.6 1.1-2.3-1.1-2.3-1.1-4.5-2.8q-1.3-1-2.6-2c-1.4-1.1-1.4-1.1-2.9-2.2q-1.6-1.2-3.2-2.5c-6.5-4.9-12.9-10.1-19.1-15.4q-1-.8-2-1.7-.9-.8-1.8-1.6-.8-.6-1.6-1.3c-1.6-1.9-2.1-3-2.3-5.5 1-2 1-2 2.7-4q.8-1.2 1.7-2.3 1-1.1 1.9-2.3.9-1.2 1.9-2.4c4.3-5.5 4.3-5.5 6.8-8z" fill="#005c66"/><path d="M623 531q.5 1.5 1 3c1.4 1.4 1.4 1.4 3.3 2.7q1 .7 2 1.5 1.1.8 2.3 1.7 2.3 1.7 4.6 3.5 1.2.9 2.4 1.8c3.8 2.9 7.6 5.9 11.3 8.9q1.1.8 2.1 1.7.9.7 1.9 1.5.8.7 1.7 1.4c2.7 2.5 3.4 4.3 3.8 8-.1 4.9-2.3 8.5-5.4 12.3-2.8 1.4-4.9 1.2-8 1-12.3-4.6-25.1-14.8-34.6-23.8-1.5-1.4-1.5-1.4-4.4-2.2 1.5-4.5 4-7.9 6.9-11.5q.6-.8 1.3-1.7 3.9-4.9 7.8-9.8z" fill="#015c67"/></svg>