<svg xmlns="http://www.w3.org/2000/svg" width="1024" height="1024" xmlns:v="https://vecta.io/nano"><path d="M499.3 137.9q1 0 2.1 0 3.5 0 7 0 2.6 0 5.1 0 7-.1 14-.1 7.6 0 15.1 0 16.6 0 33.1 0 10.3 0 20.6 0 28.6 0 57.1 0h3.7q1.9 0 3.7 0 3.8 0 7.5 0 1.8 0 3.7 0 29.8 0 59.7-.1 30.6 0 61.3 0 17.2 0 34.4 0 14.6-.1 29.2-.1 7.5 0 15 0 6.8 0 13.7 0 2.5 0 4.9 0c17.2-.1 30.5 2.5 43.5 14.5 10.5 11.1 14.6 22 14.6 36.9q0 1.4 0 2.9 0 4.9 0 9.8 0 3.5 0 7 0 8.7 0 17.4 0 10.4 0 20.8 0 21.6 0 43.1 0 16.7 0 33.3 0 4.8.1 9.6v2.4q0 33.6 0 67.1v2.6q0 6.4 0 12.8 0 1.2 0 2.6 0 2.5 0 5.1 0 40 0 80.1.1 44.9.1 89.9 0 4.8 0 9.6 0 1.2 0 2.4 0 19 0 38 0 19.1 0 38.2 0 10.3 0 20.7 0 9.5 0 18.9 0 3.5 0 6.9c.1 20.6-3 36.8-17.8 52.3-4.1 3.8-8.6 6.3-13.7 8.5-1.2.5-1.2.5-2.4 1.1-7.3 2.5-15 2-22.6 2q-3.1 0-6.1 0-3.3 0-6.6 0-7 0-14 0-7.6 0-15.2 0-18.8-.1-37.6-.1-1.3 0-2.7 0-6.9 0-13.9 0-14.3.1-28.6.1h-2.9q-23.3 0-46.6-.1-23.9 0-47.8 0-14.7 0-29.5 0-10.1 0-20.2 0-5.8 0-11.6 0-6.4-.1-12.7 0-1.8 0-3.7-.1c-6.2.1-6.2.1-11.5 2.8-1.8 2-3.3 4.1-4.8 6.3q-1.7 1.8-3.5 3.6-.8.8-1.7 1.7-1 1-1.9 1.9-1 1-2 2-2.2 2.2-4.4 4.4-3.4 3.4-6.9 6.8-8.5 8.6-17.1 17.1-7.2 7.2-14.5 14.4-3.3 3.4-6.7 6.7-2.1 2.1-4.2 4.2-.9.9-1.9 1.9c-3.7 3.7-7.2 7.5-10.7 11.5-7 8.1-14.2 14-25.1 14.9-6.4-.3-13.1-3.5-17.4-8.1-3.8-5.9-6.1-10.8-6.1-17.9q0-1.5 0-3.1 0-1.6 0-3.3 0-1.7 0-3.5 0-4.9 0-9.8 0-5.4 0-10.7 0-9.3 0-18.6 0-13.9-.1-27.8 0-26.3 0-52.5 0-20.3 0-40.5 0-5.8 0-11.7 0-1.4 0-2.9 0-40.8 0-81.5 0-1.6 0-3.1 0-7.8 0-15.6 0-1.6 0-3.1 0-3.2 0-6.3 0-48.7 0-97.4 0-54.7 0-109.4 0-5.8 0-11.6 0-1.5 0-3 0-23.1 0-46.2-.1-23.2 0-46.4 0-13.8-.1-27.7 0-9.2 0-18.4.1-5.3 0-10.5 0-5.7.1-11.3-.1-1.6-.1-3.3c.1-15.9 4.2-27.3 15.3-38.9 10.2-8.7 18.8-12.1 32.3-12.1z" fill="#feed96"/><path d="M339 253l2 .8c17.5 7.3 33.4 18 47 31.2q2 1.6 3.9 3.3c29.4 25.7 48.1 67.9 51 106.5 2.7 47.1-11.4 92-42.5 127.7-13.8 16-21.9 34.2-27.4 54.5q-.3 1.1-.6 2.3c-2.2 8-3.6 15.6-3.9 23.9-.5 15.3-5.9 27.9-17 38.6-1.5 1.2-1.5 1.2-3.5 2.2 1.1 2.8 2.3 4.3 4.5 6.4 4.3 4.5 4.8 8.5 4.8 14.5q0 1.8.1 3.6c-.7 6.4-3.7 10.4-8.4 14.5q-1 0-2 0v1.8q.2 9.1.3 18.2 0 3.3.1 6.7.1 4.9.1 9.8c0 1.5 0 1.5.1 3 0 7.1-1.6 12.6-5.6 18.5-6.1 5.8-12.8 9.4-21.3 9.3q-1.1-.1-2.1-.1-1.1 0-2.3-.1-2.6 0-5.3-.1.1 1.1.2 2.2c.5 8.6-1.3 14.7-6.2 21.8-6.3 6.7-14.2 9-23.1 9.4q-4.8.1-9.5 0-3.6 0-7.3.1c-11.5.1-19.7-1.5-28.4-9.6-4.7-5.3-6.8-11.5-6.8-18.6q.1-1.5.1-3 0-1.1 0-2.3-1.6.1-3.2.1c-8 .3-14.9.5-21.8-4.1q-1-.6-2-1.3c-4.8-3.7-7.2-7.9-9-13.7-.5-3.7-.5-7.3-.4-11q0-3.2-.1-6.3.1-4.9.1-9.8 0-4.8 0-9.5 0-1.5 0-3c.1-5.6.1-5.6-3.1-9.9-1.2-.8-1.2-.8-2.5-1.5-4.5-5.5-4.6-11.9-4.4-18.7.9-7.3 5.6-12 10.4-17.3q-.8-.7-1.7-1.5c-8.3-7.7-16.7-18.7-17.4-30.5q-.1-2.2-.1-4.4c-.1-28.9-11.7-60.8-30.8-82.6-4-4.7-4-4.7-4-7q-1 0-2 0c-1.4-1.9-1.4-1.9-3.1-4.7q-1-1.5-1.9-3.1-1-1.6-2-3.2l-2-3.1c-25-39.5-34.7-85.6-24.7-131.8 7.6-31.8 23.3-58.5 45.7-82.1q.9-.9 1.8-1.9c46.1-48.8 126.8-61 187.2-35.1z" fill="#fece00"/><path d="M208.8 641.9q1.7 0 3.4-.1h3.7 4q5.3 0 10.7 0 3.3 0 6.7 0 10.4 0 20.9 0 12.1 0 24.2-.1 9.3 0 18.7 0 5.6 0 11.1 0 6.3-.1 12.5-.1h3.7c8.3.1 14.9 1 21.9 5.6 6.4 6.7 7.1 12.3 7.1 21.4-.8 6.3-3.7 10.3-8.4 14.4q-1 0-2 0 0 .9 0 1.8.2 9.1.3 18.2 0 3.3.1 6.7.1 4.9.1 9.8 0 1.5.1 3c0 7.1-1.6 12.6-5.6 18.5-6.1 5.8-12.8 9.4-21.3 9.3q-1.1-.1-2.1-.1-1.1 0-2.3-.1-2.6 0-5.3-.1l.2 2.2c.5 8.6-1.3 14.7-6.2 21.8-6.3 6.7-14.2 9-23.1 9.4q-4.8.1-9.5 0-3.6 0-7.3.1c-11.5.1-19.7-1.5-28.4-9.6-4.7-5.3-6.8-11.5-6.8-18.6q.1-1.5.1-3 0-1.1 0-2.3-1.6.1-3.2.1c-8 .3-14.9.5-21.8-4.1q-1-.6-2-1.3c-4.8-3.7-7.2-7.9-9-13.7-.5-3.7-.5-7.3-.4-11q0-3.2-.1-6.3.1-4.9.1-9.8 0-4.8 0-9.5 0-1.5 0-3c.1-5.6.1-5.6-3.1-9.9q-1.2-.8-2.5-1.5c-4.5-5.5-4.6-11.9-4.4-18.7.9-7.8 5.4-11.6 11-16.7 4.3-2.8 9.2-2.7 14.2-2.7z" fill="#fead00"/><path d="M533 436.6q1.8 0 3.7 0 2 0 4 0 2.1 0 4.3 0 5.9 0 11.7 0 6.4 0 12.7 0 12.5 0 24.9 0 10.1 0 20.2 0 1.4 0 2.9 0 2.9 0 5.8 0 27.4 0 54.8 0 23.5 0 47 0 27.3 0 54.6 0 2.9 0 5.8 0 1.4 0 2.9 0 10.1 0 20.1 0 12.3 0 24.6 0 6.3 0 12.6 0 5.7 0 11.5 0 2 0 4.1 0 2.8 0 5.7 0h3.1c4.2.6 7.8 1.9 10.5 5.2 1.9 4.2 3.3 7.5 2.5 12.2-2.3 4.3-4.9 7.2-9 10-2.8.5-2.8.5-6 .5h-3.7q-2 0-4 0-2.1 0-4.3 0-5.9 0-11.7 0-6.4 0-12.7 0-12.5.1-24.9 0-10.1 0-20.2 0-1.4 0-2.9 0-2.9 0-5.8 0-27.4.1-54.8 0-23.5 0-47 0-27.3.1-54.6 0-2.9 0-5.8 0-1.4 0-2.9 0-10.1 0-20.1 0-12.3.1-24.6 0-6.3 0-12.6 0-5.7 0-11.5 0-2 0-4.1 0c-8.7.1-13.2-.2-19.6-6.2-1.9-3.7-2.4-7.2-2.2-11.3 1.2-3.7 3.1-6.3 6.3-8.7 3.1-1.5 5.2-1.7 8.7-1.7zm.7 84.3h3.7q2 0 4 0 2.1-.1 4.3-.1 5.9 0 11.7 0 6.4 0 12.7 0 15.3 0 30.6 0 7.2 0 14.4-.1 23.9 0 47.8 0 6.2 0 12.4 0 1.5 0 3.1 0 25 0 50-.1 25.7 0 51.3 0 14.5 0 28.9-.1 12.2 0 24.5 0 6.3 0 12.5 0 5.8 0 11.5 0 2.1 0 4.1 0c8.7-.1 13.3.2 19.6 6.3 1.8 3.3 2.3 6.5 2.2 10.2-1.9 5.4-4.9 8.5-10 11q-2.8.1-5.6.1-1.8 0-3.7 0-2 0-4 0-2.1.1-4.3.1-5.8 0-11.7 0-6.3 0-12.7 0-15.3 0-30.6 0-7.2 0-14.4.1-23.9 0-47.8 0-6.2 0-12.4 0h-3.1q-25.1 0-50.1.1-25.6 0-51.3 0-14.4 0-28.8.1-12.3 0-24.6 0-6.3 0-12.5 0-5.8 0-11.5 0-2.1 0-4.1 0c-8.7.1-13.3-.2-19.6-6.2-2.2-4.2-2.6-8.4-1.6-13 3.9-6.5 7.8-8.4 15.1-8.4zm0 83h3.7q2 0 4 0 2.1-.1 4.3-.1 5.9 0 11.7 0 6.4 0 12.7 0 15.3 0 30.6 0 7.2 0 14.4-.1 23.9 0 47.8 0 6.2 0 12.4 0 1.5 0 3.1 0 25 0 50-.1 25.7 0 51.3 0 14.5 0 28.9-.1 12.2 0 24.5 0 6.3 0 12.5 0 5.8 0 11.5 0 2.1 0 4.1 0c12.9-.1 12.9-.1 17.8 4.5 3.2 3.7 3.5 7.1 3.4 11.8-.7 4.3-3.1 7-6.2 9.8-2.8 1.8-4.7 1.8-8.1 1.8q-1.8 0-3.7 0-2 0-4 0-2.2 0-4.3 0-5.9 0-11.8 0-6.4 0-12.7 0-12.5 0-25 0-10.1 0-20.3 0h-2.9q-2.9 0-5.8 0-27.5.1-55 0-25.1 0-50.2.1-25.8 0-51.6 0-14.5 0-29 0-12.4 0-24.7 0-6.3 0-12.6 0-5.8 0-11.5 0-2.1 0-4.2 0c-13 .1-13 .1-17.8-4.5-2.6-4.4-3.6-8-2.7-13 1.3-3.7 3.8-6.5 6.7-9 3.2-1.1 5.4-1.1 8.7-1.1z" fill="#feba00"/><path d="M538.1 687.9q1.4-.1 2.9-.1 4.8 0 9.5 0 3.5 0 6.9 0 9.3 0 18.6 0 5.8 0 11.6-.1 16 0 32.1 0 4.2 0 8.3 0 1 0 2.1 0 16.8 0 33.6-.1 17.2 0 34.4 0 9.7 0 19.4-.1 9.1 0 18.2 0 3.3 0 6.7 0 4.5 0 9.1 0h2.7c6.3 0 9.9 1.8 14.6 6.2 1.9 3.6 2.3 7.2 2.2 11.3-1.6 4.7-3.9 7.2-8 10-4 1.3-7.9 1.1-12.1 1.1q-1.4.1-2.9.1-4.8 0-9.5 0-3.5 0-6.9 0-9.3 0-18.6 0-5.8 0-11.6.1-16 0-32.1 0-4.2 0-8.3 0-1 0-2.1 0-16.8 0-33.6.1-17.2 0-34.4 0-9.7 0-19.4.1-9.1 0-18.2 0-3.3 0-6.7 0-4.5 0-9.1 0-1.3 0-2.7 0c-6.3 0-9.9-1.8-14.6-6.2-1.9-3.6-2.3-7.2-2.2-11.3 1.6-4.7 3.9-7.2 8-10 4-1.3 7.9-1.1 12.1-1.1z" fill="#febb01"/><path d="M673.9 255.7q1.5 0 2.9 0 1.6 0 3.2 0 1.6 0 3.3 0 3.4 0 6.8 0 5.2 0 10.4-.1 3.3 0 6.6 0h3.2q1.4 0 2.9 0 1.3 0 2.6 0c2.8.5 3.5 1.2 5.2 3.4.4 1.9.4 1.9.4 4.2q0 1.3 0 2.6 0 1.4-.1 2.8v3q0 4.9 0 9.8 0 3.4 0 6.8 0 8.9-.1 17.8 0 9.1-.1 18.2 0 17.9-.1 35.8 1.1 0 2.3-.1 1.5 0 3 0 1.4 0 3-.1c3.9.3 5.9 1.6 8.7 4.2 2.8 3.1 3.2 5.4 3 9.5-.7 4.5-2.4 6.7-6 9.5-2.7 1.4-5 1.1-8 1.2q-1.9 0-3.9 0-2 0-4.1 0-2.1 0-4.3 0-4.4 0-8.9 0-5.7.1-11.5.1-4.4 0-8.8 0-2.1 0-4.2 0-2.9.1-5.9.1H672c-4.8-.6-7.2-2.5-10.4-6.1-2-4.2-2-6.9-.6-11.3 2.4-3.8 3.9-4.9 8-7h11v-80h-11c-4.6-1.8-6.8-4.6-9-9-.4-4.3.5-7.3 2.8-10.9 3.5-3.4 6.2-4.3 11.1-4.4z" fill="#feba00"/><path d="M194 684h153c0 12.5 0 12.5-2.9 16.4q-.9 1.2-1.7 2.4c-6.8 6.2-14.5 6.8-23.4 6.7h-3.6q-5.7 0-11.5 0-4 0-8.1 0-8.4 0-16.8-.1-9.7 0-19.4 0-9.4 0-18.8-.1-3.9 0-7.9 0-5.6 0-11.1 0-1.7 0-3.4 0c-7.9-.1-14.4-.5-20.4-6.3-5.9-6.2-4-9.1-4-19z" fill="#fe8f00"/><path d="M231 750h79c0 18.4 0 18.4-6 25-7.2 6.3-14.8 8.3-24.2 8.3-1.2 0-1.2 0-2.4.1q-2.4 0-4.8 0-3.7 0-7.4 0c-11.6.1-19.8-1.2-28.5-9.5-6.9-7.5-5.7-12.8-5.7-23.9z" fill="#fe8e02"/><path d="M709.2 184c7.3 4 10.2 9.2 12.8 17 1.5 6.8-.9 12.3-4.1 18.3-3.3 4.8-7.7 7.9-13.4 9.3-6.6 1-12.6 1.2-18.6-2.2-5.1-3.7-9-8.4-10.9-14.4-.8-7.6-.9-14.8 4-21 8.4-8.8 18.6-12.1 30.2-7z" fill="#febb01"/><path d="M139 170c5 2.2 7.2 5.7 10.1 10.1q1.4 2.2 2.9 4.4.7 1.1 1.5 2.2l7.7 11.1q1.5 2.1 3 4.2 2.6 3.8 5.3 7.4c6.7 9.2 6.7 9.2 6 15.7-.8 3-2.3 4.8-4.5 6.9-2.4 1.2-4.1 1.3-6.8 1.4q-1.3 0-2.6.1c-5.8-1.1-8.9-7.1-12-11.8l-1.6-2.4q-7.6-11.3-15.7-22.2c-7.9-10.9-7.9-10.9-8.8-16.2.6-3.7 2.1-5.9 4.5-8.9 3.6-2.4 6.8-2.7 11-2z" fill="#fecd02"/><path d="M408 170c2.9.9 3.8 1.8 5.8 4.1 1.6 3.8 2.2 6.9 1.2 10.9-2 3.9-4.5 7.4-7 11q-.8 1.1-1.6 2.3c-3.9 5.7-7.9 11.2-12 16.8q-.8 1.1-1.6 2.3-2.4 3.3-4.8 6.6-.8 1.1-1.7 2.3-.8 1.1-1.6 2.2-.7 1-1.4 2c-1.7 1.9-2.8 2.4-5.3 2.7-4.2.2-6.4.2-10-2.1-3.1-3.3-3.6-5.9-3.5-10.4 1-5.1 4.1-8.8 7.1-12.8 2.2-3 4.3-6.1 6.5-9.2q3.6-5.1 7.2-10.3 2.4-3.3 4.7-6.7 1.4-1.9 2.7-3.8.6-.9 1.2-1.8c4-5.6 7.3-6.7 14.1-6.1z" fill="#fecc02"/><path d="M55 270c3.6 1.3 6.9 3.1 10.3 4.9q1.4.7 2.9 1.5 2.9 1.5 5.9 3.1 4.1 2.1 8.3 4.3 2.5 1.3 5 2.6 1.2.6 2.3 1.2c11.5 6 11.5 6 14.7 10.3 1.3 4.6 1.1 7.2-1.2 11.3-2.1 2.7-3.7 4.5-7.1 5.2-6.7.2-11-2-16.7-5.4q-2.6-1.5-5.2-3c-1.3-.8-1.3-.8-2.7-1.6-3.6-2-7.4-3.9-11.2-5.7-13.5-6.7-13.5-6.7-18.4-12-1.4-4.1-1.2-7.6.1-11.7 3.4-4.9 7.4-5.6 13-5z" fill="#fecd02"/><path d="M275 131c2.8 1.8 4.5 3 6 6q.2 2.8.2 5.6 0 1.7 0 3.5 0 1.9 0 3.8.1 2 .1 3.9 0 4.2 0 8.3 0 5.2.1 10.5 0 5 0 10.1.1 1.9.1 3.8 0 1.7 0 3.5v3.2c-.6 3.5-2 5.2-4.5 7.8-3.2 1.6-6.5 1.4-10 1-3.9-1.7-5.5-3.1-7-7-.3-2.6-.3-2.6-.3-5.6q0-1.7 0-3.4 0-1.8 0-3.7 0-1.8 0-3.8 0-3.9 0-7.9 0-5-.1-10.1 0-4.8 0-9.7 0-1.8 0-3.6 0-1.7 0-3.5 0-1.4 0-3c.5-3.8 2-6.6 5.1-9 3.5-1 6.8-1.3 10.3-.7z" fill="#fecc01"/></svg>