<svg xmlns="http://www.w3.org/2000/svg" width="1024" height="1024" xmlns:v="https://vecta.io/nano"><path fill-rule="evenodd" d="M284.8 67.6q1.4 0 2.8 0c6.2-.1 11.5.4 17.4 2.5 10.8 4.7 14.8 13.3 19 23.9v46h375c0-24.3-5.8-43.5 8-62 7-6.9 15.5-10.5 25.2-10.5q1.4 0 2.8.1c10.2-.1 19.3 1.3 27 8.4 10.7 11.3 10.5 24.3 10.3 39.1q-.1 3.1-.1 6.3 0 7.3-.1 14.6-.1 2.1-.1 4 16.2-.1 32.3-.2 8.3 0 16.6-.1 8 0 16.1-.1 3.1 0 6.2 0c10.3-.1 20.3-.5 30.3 2.3 16.9 5 31.5 16.3 39.9 31.9q.5 1 1 2c7.9 15 8.2 30.8 8.1 47.4q0 5 0 10.1 0 8.8 0 17.6 0 13.2 0 26.5 0 22.2 0 44.5-.1 22.1-.1 44.2 0 1.4 0 2.8 0 5.6 0 11.2 0 50.9 0 101.8-.1 48.1-.1 96.3v3q0 7.4 0 14.9 0 1.5 0 3 0 3 0 6 0 47.4-.1 94.8 0 13.9 0 27.8 0 29.2 0 58.5 0 12.1 0 24.3 0 10.1 0 20.2 0 4.1-.1 8.2 0 5.7 0 11.4 0 1.7 0 3.4 0 1.6 0 3.1c0 24.9-9.5 49-27.1 66.6-23.8 23-49.7 29.1-81.9 29q-4.9 0-9.8 0-8.6 0-17.3 0-12.9 0-25.8 0-21.7 0-43.5 0-21.6-.1-43.2-.1-1.4 0-2.8 0-5.4 0-10.9 0-49.7 0-99.5 0-47-.1-94.1-.1-1.5 0-2.9 0-5.8 0-11.7 0-2.9 0-5.8 0-2.9 0-5.9 0-46.3 0-92.7 0-13.5 0-27.1 0-28.6 0-57.2 0-11.9 0-23.7 0-9.9 0-19.8-.1-4 0-8 0-5.5 0-11.1 0-1.7 0-3.3 0c-14.7.1-29.4-2.4-42.5-9.6q-1.3-.8-2.5-1.5c-7.5-4.3-14.3-8.8-20.4-14.9-23.9-24.8-30.1-51.7-30-85.4q0-5 0-10 0-8.8 0-17.6 0-13.1 0-26.3 0-23.5 0-47.1 0-20.7 0-41.4 0-2.7 0-5.5 0-4.2 0-8.4-.1-38.9-.1-77.7 0-1.5 0-3 .1-11.9.1-23.8 0-46.5-.1-92.9 0-52.4 0-104.7 0-5.6 0-11.2 0-1.4 0-2.8 0-20.7 0-41.4 0-23.7 0-47.3 0-13.3 0-26.5 0-9 0-17.9 0-4.1 0-8.2c-.1-17.2-.5-33.8 7.3-49.7l1-1.8c2.6-5 5.3-9.6 9.3-13.7q1-.9 1.9-1.8 1.1-1.1 2.2-2.2c15.4-14.9 32.9-18.4 53.5-18.2q3 0 6.1 0 8 0 16 .1 8.3.1 16.5.1 16.2.1 32.3.2 1.7 0 3.4 0-.1-7.3-.1-14.5 0-3 0-6-.1-4.4-.1-8.7 0-1.5 0-2.8c-.1-10.3 1.5-19.2 7.2-28 7.6-8.7 15.4-12.1 26.8-12.4z" fill="#fefdd9"/><path d="M287.4 67.6h2.8c6.6.1 12.1.8 17.8 4.4q1.1.6 2.2 1.3c7.6 4.9 11 12.3 13.8 20.7v46h375V95c4.1-11.3 7.2-18.7 17.8-24l2.2-1q1-.5 2.1-1.1c4.5-1.4 8.9-1.3 13.6-1.3q1.4 0 2.8 0c9.4-.1 18.6 2.8 25.5 9.4 7.2 8.7 9.5 17.5 9.3 28.7q0 1.5 0 3 0 4.7-.1 9.4 0 3.2-.1 6.3 0 7.8-.1 15.6 1.7 0 3.4 0 16.1-.1 32.2-.2 8.3 0 16.5-.1 8-.1 16-.1 3.1 0 6.1 0c22.6-.3 40 4.3 56.9 20.2 13.6 13.9 19.4 33 19.3 52.1v3.5q0 5.6 0 11.3 0 4.1 0 8.2 0 9 0 17.9 0 13.3 0 26.5 0 23.8 0 47.5 0 20.7 0 41.5v2.8q0 5.6 0 11.2 0 52.4 0 104.9 0 46.6 0 93.2 0 52.4 0 104.7 0 5.6 0 11.2v2.8q0 20.7 0 41.5 0 23.5 0 47.1 0 13.2 0 26.4 0 8.9 0 17.7 0 5 0 10c0 13.4-.1 26.2-3.4 39.2q-.3 1.2-.6 2.4c-6.3 22.8-22.3 43.6-42.7 55.6-10.4 5.8-21 10-32.7 12-1.5.3-1.5.3-3 .5-5 .7-10 .6-15 .6h-3.3q-5.6 0-11.1 0-4 0-8 0-9.9.1-19.8.1-11.9 0-23.7 0-28.7 0-57.3 0-13.5 0-27.1 0-46.4 0-92.7 0-3 0-5.9 0-2.9 0-5.8 0-5.9 0-11.7 0-1.5 0-2.9 0-47.1 0-94.2.1-49.7 0-99.5 0-5.5 0-10.9 0-1.4 0-2.7 0-21.7 0-43.3.1-21.8 0-43.5 0-13 0-25.9 0-8.6 0-17.3 0-4.9 0-9.8 0c-12.9 0-25.1 0-37.6-3.4q-1.2-.3-2.4-.7c-14.7-4.4-26.6-12.7-37.6-23.3q-1-.9-2-1.8c-16.3-15-25.1-37.5-27-59.2-.1-3.8-.1-7.5-.1-11.3q0-1.7 0-3.4 0-5.7 0-11.4-.1-4.1-.1-8.2 0-10.1 0-20.2 0-12.1 0-24.2 0-29.2 0-58.4 0-13.9 0-27.7-.1-47.4-.1-94.8 0-2.9 0-5.9v-3q0-7.4 0-14.9 0-1.5 0-3 0-48.1-.1-96.1 0-50.9 0-101.7 0-5.6 0-11.1 0-1.4 0-2.8 0-22.1-.1-44.2 0-22.2 0-44.5 0-13.1 0-26.3 0-8.9 0-17.7 0-5 0-10c-.1-16.6.2-32.4 8.1-47.5q.5-.9 1-1.9c7.9-14.6 21-25 36.4-30.8q1-.4 2-.8c9.9-3.3 20.1-2.6 30.4-2.5q3.1 0 6.2 0 8.1 0 16.3.1 8.3 0 16.6.1 16.2 0 32.5.1 0-1.8-.1-3.6-.1-6.8-.1-13.6 0-3-.1-5.9c-.5-27.4-.5-27.4 8.6-38.2 8.2-8.3 16.6-11.3 28.1-11.1zM119 286l-.2 288-.1 91v53.7q0 19.2 0 38.4 0 19.5 0 39.1 0 11.6-.1 23.2 0 8.6 0 17.2 0 3.5 0 6.9c-.1 26.8 4.1 49.7 23.5 69.6 13.5 13.4 31.3 22.1 50.5 22.3h3q1.7 0 3.4 0 5.6 0 11.2 0 4 0 8.1 0 8.7 0 17.5 0 13.1 0 26.1 0 23.4 0 46.7 0 20.4 0 40.8 0 2.8 0 5.5 0 4.2 0 8.3 0 38.4.1 76.8.1 1.4 0 2.9 0 11.7-.1 23.5-.1 45.8 0 91.6.1 51.5 0 103 0 5.5 0 11 0 1.4 0 2.8 0 20.4 0 40.8 0 23.2 0 46.4 0 13 0 25.9 0 8.7 0 17.4 0 4.9 0 9.9 0c16.5.1 32.2-.2 47.1-8.2q1-.5 2-1c6.2-3.4 11.5-7.5 16.7-12.3q.9-.8 1.9-1.6c13.4-12.1 21.1-31.2 22.3-48.9.2-7.1.2-14.2.2-21.3q0-3.6 0-7.2 0-7.8 0-15.6-.1-11.8-.1-23.5 0-19.7 0-39.5 0-26.6 0-53.2 0-64.1-.1-128.1L905 286H119z" fill="#169eb2"/><path d="M766 412c3.5 2.8 6.8 5.8 10 9q1.2 1.1 2.3 2.3c15.2 15.9 21.3 35.8 21 57.4-1 27-18.4 46.9-36.3 65.3q-.9.9-1.8 1.8c-5.3 5.4-10.6 10.7-16.4 15.6q-2.9 2.5-5.6 5.2-.8.7-1.7 1.5c-5.3 6.6-4.9 13-5 21.1-1.3 52.8-24.7 99.3-62.3 135.9-36.5 34.5-87.5 51.4-137.3 50-33.1-1.5-65.3-14.8-94.3-29.9-3.6-1.7-6.7-2-10.6-1.2-6.6 3.1-12.3 8.6-18 13.2-4.6 3.7-9.3 7.3-14.1 10.9-13.1 9.7-25.2 20.5-36.9 31.8q-1.1 1-2.1 2-2.1 2-4.1 4c-7.4 7.1-14.5 10.2-24.8 10.5q-1.8.1-3.7.2c-12.7-1-21.4-10.9-29.6-19.5q-1.7-1.7-3.4-3.4c-4.3-4.4-8.6-8.9-12.6-13.5s-8.3-8.9-12.7-13.2c-1.2-1.3-1.2-1.3-2.5-2.6q-4-3.9-8-7.9-5.3-5.2-10.5-10.5-1.2-1.1-2.4-2.4c-4.2-4.1-8.3-8.4-12.1-12.9-2.2-2.5-4.7-4.8-7.1-7.1-7.8-7.6-11.5-15.4-11.7-26.2 0-6.7 1.2-11.6 4.3-17.4q.5-1 1.1-2c5.4-9.5 13.9-17.2 21.6-24.8q1.2-1.2 2.5-2.5 2.6-2.6 5.2-5.2 4.2-4.2 8.4-8.3 8.8-8.8 17.6-17.6 10.3-10.3 20.6-20.5 4.1-4.1 8.2-8.2 2.5-2.5 5-5c1.2-1.1 1.2-1.1 2.3-2.3q1.1-1 2.1-2.1.9-.9 1.9-1.8c1.7-1.8 1.7-1.8 3.5-4.7q1 0 2 0 .4-.8.7-1.7c1.6-2.8 3.4-4.7 5.7-6.9q1.3-1.4 2.8-2.8 1.5-1.5 3-3 1.6-1.6 3.2-3.2 3.5-3.5 7-6.9 5.5-5.5 11-11 8.6-8.7 17.3-17.3 15.6-15.5 31.1-31 5.5-5.5 10.9-10.9 3.4-3.4 6.8-6.8 1.6-1.5 3.2-3.1c5.1-5.1 10.2-10.2 14.8-15.7 2.5-2.9 5.4-5.2 8.3-7.5l1.9-1.5c35-27.1 77.7-38 121.5-33.2 4 .5 7.9 1.5 11.8 2.5q1.2.3 2.4.6c17.5 4.3 34.4 10.8 49.8 20.2 3.6 1.5 5.9 1.7 9.8 1.2 4.7-2.5 7.8-5.8 11.3-9.7q1.5-1.6 2.9-3.2.7-.8 1.4-1.6C686.2 391.8 730 384.9 766 412z" fill="#f77200"/><path d="M103 270h818l.3 300.4.2 94.9v56q0 20 0 40 .1 20.4.1 40.8 0 12.1 0 24.2 0 9 0 18 0 3.6 0 7.2c.2 29.5-8 52.7-28.8 74.2-13.5 13.4-31.1 22.1-49.8 25.3-1.5.3-1.5.3-3 .5-5 .7-10 .6-15 .6h-3.3q-5.6 0-11.1 0-4 0-8 0-9.9.1-19.8.1-11.9 0-23.7 0-28.7 0-57.3 0-13.5 0-27.1 0-46.4 0-92.7 0-3 0-5.9 0-2.9 0-5.8 0-5.9 0-11.7 0-1.5 0-2.9 0-47.1 0-94.2.1-49.7 0-99.5 0-5.5 0-10.9 0-1.4 0-2.7 0-21.7 0-43.3.1-21.8 0-43.5 0-13 0-25.9 0-8.6 0-17.3 0-4.9 0-9.8 0c-12.9 0-25.1 0-37.6-3.4q-1.2-.3-2.4-.7c-14.7-4.4-26.6-12.7-37.6-23.3q-1-.9-2-1.8c-15.3-14.1-25.3-36-26.4-56.6-.2-6.5-.1-12.9-.1-19.4q0-3.7 0-7.5 0-8.1 0-16.2.1-12.2 0-24.4 0-20.4.1-40.9 0-27.6 0-55.3.1-66.4.1-132.9l.3-300zm16 16l-.2 288-.1 91v53.7q0 19.2 0 38.4 0 19.5 0 39.1 0 11.6-.1 23.2 0 8.6 0 17.2 0 3.5 0 6.9c-.1 26.8 4.1 49.7 23.5 69.6 13.5 13.4 31.3 22.1 50.5 22.3h3q1.7 0 3.4 0 5.6 0 11.2 0 4 0 8.1 0 8.7 0 17.5 0 13.1 0 26.1 0 23.4 0 46.7 0 20.4 0 40.8 0 2.8 0 5.5 0 4.2 0 8.3 0 38.4.1 76.8.1 1.4 0 2.9 0 11.7-.1 23.5-.1 45.8 0 91.6.1 51.5 0 103 0 5.5 0 11 0 1.4 0 2.8 0 20.4 0 40.8 0 23.2 0 46.4 0 13 0 25.9 0 8.7 0 17.4 0 4.9 0 9.9 0c16.5.1 32.2-.2 47.1-8.2q1-.5 2-1c6.2-3.4 11.5-7.5 16.7-12.3q.9-.8 1.9-1.6c13.4-12.1 21.1-31.2 22.3-48.9.2-7.1.2-14.2.2-21.3q0-3.6 0-7.2 0-7.8 0-15.6-.1-11.8-.1-23.5 0-19.7 0-39.5 0-26.6 0-53.2 0-64.1-.1-128.1L905 286H119z" fill="#02285a"/><path d="M595.9 521.8c16.6 13.2 30.4 33.7 33.1 55.2.2 3.9.2 7.8.2 11.8q0 1.5 0 3.1c.1 23.2-10.2 42.8-26.1 59.3-17.1 16.7-38.2 23.1-61.7 23.1-22.2-.3-41.4-9.8-57.5-24.9-15.7-16.3-24.6-37.5-24.3-60.2q0-1.7 0-3.5c.5-23.5 11.6-43.9 28.3-60.1 30.3-27.1 75.9-28 108-3.8z" fill="#f68a00"/><path d="M734.7 67.6q1.4 0 2.8 0c9.4-.1 18.6 2.8 25.5 9.4 7.1 8.6 9.5 17.4 9.4 28.5q0 1.5 0 3 0 4.9 0 9.9 0 3.5 0 6.9.1 7.3 0 14.5 0 9.3.1 18.5 0 7.2 0 14.3 0 3.4 0 6.9c.2 30 .2 30-11.1 41.5-7.8 6.6-15.7 7.2-25.5 7.3q-1.5.1-3 .1c-9.3.1-17.4-2.1-24.3-8.6-7.9-9-9.9-18.5-9.9-30.2q0-1.5 0-3 0-5 0-10 0-3.4-.1-6.9 0-7.3 0-14.6 0-9.3 0-18.5-.1-7.2-.1-14.4 0-3.4 0-6.8 0-4.8 0-9.6 0-1.4 0-2.9c.1-9.8 3.2-18.4 9.5-26 3.2-3.1 6.9-5.1 11-6.9q1-.5 2.1-1.1c4.5-1.4 8.9-1.3 13.6-1.3zm-430.9 2L308 72q1.1.6 2.2 1.3c7.3 4.8 11.5 12.3 13.8 20.7.3 3.5.3 6.9.3 10.4q0 1.6 0 3.2 0 5.1 0 10.2 0 3.6.1 7.2 0 7.5 0 15 0 9.6 0 19.2.1 7.4.1 14.8 0 3.5 0 7 0 5 0 9.9 0 1.5 0 2.9c-.1 10.9-3.6 19.3-11.1 27.1-7.7 6.8-15.9 7.3-25.7 7.4h-2.8c-9.3.1-16.7-2.5-23.7-8.9-7.8-8.2-9.8-17.5-9.7-28.5q0-1.6 0-3.2-.1-5.1 0-10.3 0-3.6 0-7.2-.1-7.5 0-15.1 0-9.6 0-19.2-.1-7.5 0-14.9 0-3.5 0-7.1-.1-5 0-9.9 0-1.5 0-3c.1-9.9 3.4-17.8 10.2-25 10.7-9.3 29-11.4 42.1-6.4z" fill="#00515e"/><path d="M544.3 488.7q1.6 0 3.3 0c27.3.4 50.9 12.1 70.3 30.8 20.7 21.5 27.6 47.2 27.3 76.3-.5 26.7-13.7 50.4-32.4 68.9-19.5 18.5-45.9 27-72.5 26.5-26.3-1-50-12.6-68.3-31.2q-1.1-1.1-2.2-2.2c-20.8-22.1-26.6-49.1-25.9-78.5 1-25.2 14.5-47.4 32.1-64.6 19-17 43-26.1 68.3-26zm-65 45.7c-12.8 15.3-19.9 34.5-19.7 54.4q0 1.7 0 3.5c.2 8.8 1.3 16.4 4.4 24.7q.5 1.5 1.1 3.1c4.5 12 12 21.9 20.9 30.9l2.1 2.1c15 14.3 35.2 21.3 55.7 21.2q1.5 0 3.1 0c23.8-.4 42.5-9.9 59.1-26.3q1.1-1.1 2.3-2.2c14.4-15.2 21.1-36 21-56.7q0-1.6 0-3.2c-.1-7.3-.7-14-3.3-20.9q-.5-1.5-1.1-3c-9.1-23.5-25.7-41.6-48.9-51.8q-3-1.2-6-2.2-1.4-.5-2.8-1c-32-9.2-66.1 3.1-87.9 27.4z" fill="#022963"/><path d="M736.4 443.4l5.6 4.6q1.3 1.1 2.6 2.3c8 9 10.9 17 10.7 29.1-1.6 19.1-16 32.8-29.2 45.2q-.8.8-1.7 1.6c-4.1 3.8-7.2 6.1-12.8 6.2q-1.1.1-2.3.2c-3.5-.9-5.3-2.8-7.3-5.6-1.9-3.4-3.6-6.9-5.2-10.4-6.1-12.4-12.3-23.6-22-33.5-2.3-2.6-3.7-4.6-4-8.1 1-11.4 10-20.6 18.3-27.8 13.9-10.9 31.6-13.1 47.3-3.8z" fill="#022a61"/><path d="M119 286h786v577q-.5 0-1 0V287l-782 1v587c-4-6-3.1-14-3.1-21q0-1.5 0-3 0-5 0-9.9 0-3.6 0-7.2 0-7.8 0-15.5 0-11.8 0-23.5 0-19.7 0-39.3 0-26.6 0-53.2 0-64 0-127.9L119 286z" fill="#fefeed"/><path d="M729 458c5.8 5.2 9.4 10.1 10.6 17.9-.4 12.7-10.2 22.7-18.6 31.1q-1 1-2 2.1l-4 3.9q-1 0-2 0-.7-1.5-1.4-3c-8.8-18.5-8.8-18.5-21.5-34.4-1.1-1.6-1.1-1.6-1-3.6 3.1-7 10.7-13.5 17.2-17.4 8-1.8 15.6-.9 22.7 3.4z" fill="#fcfbda"/><path d="M477 514q1 .5 2 1c-3.6 4.1-7.1 8.1-11 12-3.4 3.8-6.5 7.5-9 12q-1-.5-2-1c5.8-9.1 12.1-16.6 20-24z" fill="#09226c"/><path d="M365 528q1 .5 2 1-1.1 1.1-2.2 2.2c-6.3 6.2-6.3 6.2-12.2 12.9-2.4 2.6-3.5 3.5-6.6 4.9 1.5-3.4 3.3-5.5 5.9-8.1q1.1-1.1 2.3-2.3 1.2-1.2 2.4-2.4 1.2-1.1 2.5-2.4 2.9-2.9 5.9-5.8z" fill="#f96106"/><path d="M665 416q1 .5 2 1c-4.4 5.1-8.7 9.9-14 14q-1-.5-2-1l14-14z" fill="#f75e01"/><path d="M467 622l2 1q.5 1.5 1 3 1 .5 2 1c.9 2.1.9 2.1 1.6 4.6q.4 1.2.8 2.5.3.9.6 1.9 1 0 2 0 .5 2.5 1 5c-3.3-3-5.5-6.2-7.8-10.1q-.9-1.5-1.8-3.1C467 625 467 625 467 622z" fill="#eb9e08"/><path d="M135 903l6 3c.6 1.9.6 1.9 1 4l5 5q-.5 1-1 2-2.2-2.1-4.4-4.2-1.2-1.1-2.4-2.3c-2.2-2.5-3.2-4.4-4.2-7.5z" fill="#f4f5e8"/><path d="M242 652q1 .5 2 1c-7.1 8.8-7.1 8.8-12 10 3.2-3.8 6.4-7.5 10-11z" fill="#fa690b"/><path d="M340 553q.5 1.5 1 3l-9 8q-1-.5-2-1l10-10z" fill="#fa7015"/><path d="M731 441c3.9.6 6.5 1.7 9.8 3.8q1.1.8 2.3 1.5c2.1 1.9 2.5 2.9 2.9 5.7q-.5-1-1-2-.8-.4-1.6-.8c-2.8-1.4-5.2-3.1-7.7-5q-2.3-1.6-4.7-3.2z" fill="#e1790a"/><path d="M477 514q1 .5 2 1-1.6 1.9-3.3 3.9-.9 1-1.8 2.2c-1.9 1.9-3.4 2.9-5.9 3.9 1.4-3.2 3.1-5.3 5.6-7.8q1-.9 1.9-1.8l1.5-1.4z" fill="#011f74"/><path d="M529 508c-2 2-2 2-5.6 2.1q-1.7 0-3.4-.1-.5-1-1-2c3.7-1.2 6.2-.6 10 0z" fill="#eb8406"/><path d="M390 775c-1.3 4-3.4 4.9-7 7q-1.5 0-3 0 1.9-1.8 3.9-3.5l2.2-2c1.9-1.5 1.9-1.5 3.9-1.5z" fill="#fdfae7"/><path d="M468 547q1 0 2 0c-.6 4-1.8 6.7-4 10-1-2-1-2-.4-3.9q.4-1.1.8-2.2.5-1.1.9-2.2.3-.8.7-1.7z" fill="#07226d"/><use href="#B" fill="#feeccd"/><use href="#B" x="-44" y="-45" fill="#fee9c8"/><path d="M618 658c0 3 0 3-2.5 5.7q-1.2 1.1-2.5 2.3-1-.5-2-1l7-7z" fill="#ed7e03"/><defs ><path id="B" d="m273 777c3.4 1.4 5 3 7 6-3 0-3 0-5.2-1.9-1.8-2.1-1.8-2.1-1.8-4.1z"/></defs></svg>