<svg xmlns="http://www.w3.org/2000/svg" width="1024" height="1024" xmlns:v="https://vecta.io/nano"><path d="M331.8 81.6q2.5 0 4.9 0 6.6 0 13.2 0 7.2 0 14.4 0 14 0 28 0 11.4 0 22.8 0 1.6 0 3.2 0 3.3 0 6.6 0 31 0 61.9 0 26.5 0 52.9 0 30.9 0 61.7 0 3.3 0 6.5 0 1.7 0 3.3 0 11.4 0 22.7 0 13.9 0 27.8 0 7 0 14.1 0 6.5 0 13 0 2.3 0 4.6 0c30.8-.1 58.3 9.8 80.6 31.4 19.7 19.6 26.3 45.4 26.5 72.4q0 5.7 0 11.5 0 4.2 0 8.4 0 9 0 18.1 0 13.5 0 27 0 22.7 0 45.5-.1 22.5-.1 44.9v2.9q0 5.7 0 11.4 0 51.8 0 103.5-.1 48.9-.1 97.8 0 1.5 0 3 0 7.6 0 15.2 0 1.5 0 3 0 3.1 0 6.1 0 48.1-.1 96.2 0 14 0 28.1 0 29.6 0 59.2 0 12.2 0 24.4 0 10.2 0 20.3-.1 5.1-.1 10.2 0 5.5 0 11 0 1.6 0 3.2c0 9.5-.4 18.7-3.2 27.8q-.3 1.1-.6 2.2c-7.9 24.7-23.6 45-46.3 57.7-20.2 10.4-40.3 13.2-62.7 13.1q-2.4 0-4.7 0-6.5 0-12.9 0-7 0-14 .1-13.6 0-27.3 0-11.1 0-22.2 0-31.4 0-62.9 0-1.7 0-3.5 0-1.6 0-3.4 0-27.5 0-55 0-28.3 0-56.6 0-15.8 0-31.7 0-13.5.1-27 0-6.9 0-13.8.1-6.3 0-12.6-.1-2.3 0-4.6.1c-33.3.1-61.3-9.5-85.6-32.7-19.3-20.2-25.7-47-25.6-74.3q0-1.7 0-3.4 0-5.7 0-11.4 0-4.1 0-8.2 0-9 0-17.9 0-13.3-.1-26.6 0-25.2 0-50.3 0-19.4 0-38.8 0-5.6 0-11.2 0-1.4 0-2.8 0-39.1 0-78.2 0-1.5 0-3 0-7.5 0-14.9 0-1.5 0-3 0-3 0-6 0-46.7 0-93.4 0-52.4 0-104.9 0-5.6 0-11.2 0-1.3 0-2.7 0-22.2 0-44.3-.1-22.3 0-44.6 0-13.2-.1-26.4 0-8.9 0-17.7.1-5 0-10.1c0-30.6 2.4-60.9 24.9-84q1.2-1.1 2.4-2.3 1.1-1.4 2.2-2.8c2.9-3.6 6.4-6.1 10.2-8.6q1.1-.7 2.2-1.5c20.4-13.5 42-18.6 66.2-18.5z" fill="#bbf0f1"/><path d="M408.1 274.7c9.2 8.5 16.3 19.7 23.2 30.1.6.8.6.8 1.1 1.6 3.8 5.7 7.2 11.7 10.6 17.6q.9 0 1.7 0 9.3-.2 18.6-.4 3.4-.1 6.8-.2a1438.43 1438.43 0 0 1 83.1.6q4.1.1 8.2.3 9.8.3 19.6.7.4-1.3.8-2.7c1.1-3 2.3-5.3 4-7.9q.9-1.3 1.7-2.6.9-1.3 1.9-2.7c.9-1.4.9-1.4 1.9-2.8 26.1-38.4 26.1-38.4 48.8-43.8 22-3 40.5 3.8 58 16.6 31.2 23.8 51.8 65.4 57.3 103.8 2.2 25.5-1.4 50.9-18.3 71-5.6 6-13.4 12.8-21.9 13.2q-1.1 0-2.2-.1a59.58 59.58 0 0 0 .5 3.9c.5 4.8.6 9.5.6 14.3v2.7c-.1 11.6-.5 23.3-.8 34.9q-.2 5.8-.4 11.6c-1.5 44.8-1.5 44.8-5.2 61.7q-.3 1.5-.6 3.1c-6.5 29.4-21.7 53.9-42.1 75.8q-.9 1-1.9 2c-33.7 35.4-87.3 51.8-135.1 52.9-41.2.9-81.1-2.4-119-19.9-1-.5-1-.5-2-.9-38.9-17.9-70-50.2-85.4-90.2-6.7-18.5-8.8-37.9-9.7-57.5q-.1-1.2-.2-2.5c-1.4-30.6-.9-61.3-.7-91.9q-.9-.2-1.8-.4-1.2-.2-2.5-.5-1.2-.2-2.4-.5c-11.6-3-19.4-13.2-25.3-23-2.9-5-5.1-10.2-7-15.6-.5-1.4-.5-1.4-1.1-2.8-1.2-4.1-1.6-8.1-2-12.4q-.1-1.3-.3-2.6C265 370.6 279.9 331 304 301c14.8-17.7 34.2-35.6 58.1-38.8 17.4-1.3 31.8 1.3 46 12.5z" fill="#febe36"/><path d="M331.8 81.6q2.5 0 4.9 0 6.6 0 13.2 0 7.2 0 14.4 0 14 0 28 0 11.4 0 22.8 0 1.6 0 3.2 0 3.3 0 6.6 0 31 0 61.9 0 26.5 0 52.9 0 30.9 0 61.7 0 3.3 0 6.5 0 1.7 0 3.3 0 11.4 0 22.7 0 13.9 0 27.8 0 7 0 14.1 0 6.5 0 13 0 2.3 0 4.6 0c30.8-.1 58.3 9.8 80.6 31.4 19.7 19.6 26.3 45.4 26.5 72.4q0 5.7 0 11.5 0 4.2 0 8.4 0 9 0 18.1 0 13.5 0 27 0 22.7 0 45.5-.1 22.5-.1 44.9v2.9q0 5.7 0 11.4 0 51.8 0 103.5-.1 48.9-.1 97.8 0 1.5 0 3 0 7.6 0 15.2 0 1.5 0 3 0 3.1 0 6.1 0 48.1-.1 96.2 0 14 0 28.1 0 29.6 0 59.2 0 12.2 0 24.4 0 10.2 0 20.3-.1 5.1-.1 10.2 0 5.5 0 11 0 1.6 0 3.2c0 9.5-.4 18.7-3.2 27.8q-.3 1.1-.6 2.2c-7.9 24.7-23.6 45-46.3 57.7-20.2 10.4-40.3 13.2-62.7 13.1q-2.4 0-4.7 0-6.5 0-12.9 0-7 0-14 .1-13.6 0-27.3 0-11.1 0-22.2 0-31.4 0-62.9 0-1.7 0-3.5 0-1.6 0-3.4 0-27.5 0-55 0-28.3 0-56.6 0-15.8 0-31.7 0-13.5.1-27 0-6.9 0-13.8.1-6.3 0-12.6-.1-2.3 0-4.6.1c-33.3.1-61.3-9.5-85.6-32.7-19.3-20.2-25.7-47-25.6-74.3q0-1.7 0-3.4 0-5.7 0-11.4 0-4.1 0-8.2 0-9 0-17.9 0-13.3-.1-26.6 0-25.2 0-50.3 0-19.4 0-38.8 0-5.6 0-11.2 0-1.4 0-2.8 0-39.1 0-78.2 0-1.5 0-3 0-7.5 0-14.9 0-1.5 0-3 0-3 0-6 0-46.7 0-93.4 0-52.4 0-104.9 0-5.6 0-11.2 0-1.3 0-2.7 0-22.2 0-44.3-.1-22.3 0-44.6 0-13.2-.1-26.4 0-8.9 0-17.7.1-5 0-10.1c0-30.6 2.4-60.9 24.9-84q1.2-1.1 2.4-2.3 1.1-1.4 2.2-2.8c2.9-3.6 6.4-6.1 10.2-8.6q1.1-.7 2.2-1.5c20.4-13.5 42-18.6 66.2-18.5zM307 111q-1.6.4-3.3.8c-17.9 5.2-33.1 15.2-42.6 31.5-7.5 14.3-10.3 28.1-10.2 44.1q0 1.7 0 3.4 0 5.7 0 11.4 0 4.2 0 8.3 0 9 0 18 0 13.4-.1 26.7 0 25.3 0 50.6 0 19.5 0 39 0 5.6 0 11.2 0 1.4 0 2.8 0 39.3 0 78.6 0 1.4 0 3 0 7.5 0 15 0 1.5 0 3 0 3 0 6 0 46.9 0 93.8 0 52.7 0 105.4 0 5.6 0 11.2 0 1.4 0 2.8 0 22.3 0 44.5-.1 22.4 0 44.8 0 13.3-.1 26.6 0 8.8 0 17.7.1 5.1 0 10.1 0 5.5.1 10.9-.1 1.6-.1 3.2c.1 21.3 8.3 40.7 23.3 55.8 16 15.3 36.6 19.1 58.1 19.1q2.4 0 4.8 0 6.6 0 13.3 0 7.1 0 14.3 0 13.9 0 27.9 0 11.4 0 22.8 0 32.3.1 64.6.1 1.7 0 3.5 0h3.5q28.3 0 56.5 0 29 .1 58 .1 16.3 0 32.5 0 13.9 0 27.8 0 7 0 14.1 0 6.5 0 12.9 0 2.4 0 4.7 0c22.6.2 42.1-5.6 58.8-21.5 14.5-15.2 21.2-36 21.2-56.7v-3.5q0-5.7 0-11.4 0-4.2 0-8.4 0-9 0-18.1 0-13.4 0-26.8 0-25.5 0-50.9 0-19.6 0-39.2 0-5.7.1-11.3 0-1.4 0-2.9 0-39.5 0-79 0-1.5 0-3 0-7.6 0-15.2 0-1.4 0-3 0-3 0-6 0-47.2 0-94.4.1-53 .1-106 0-5.7 0-11.4 0-1.3 0-2.8 0-22.4 0-44.7 0-22.6 0-45.1 0-13.3 0-26.7 0-8.9 0-17.9 0-5.1 0-10.2c.1-24.8-2.9-46.4-21-65-6.7-6.4-14.4-10.7-22.9-14.3l-2-.8c-12.1-4.8-24.2-5.7-37.1-5.7q-2.4 0-4.8 0-6.6 0-13.2 0-7.2 0-14.4 0-13.9 0-27.9 0-16.3 0-32.6 0-29.1 0-58.2.1-28.2 0-56.4 0-30.8 0-61.5 0-3.3 0-6.6 0h-3.2q-11.4 0-22.8 0-13.8 0-27.6 0-7.1 0-14.2 0-6.4 0-12.9 0-2.3 0-4.7 0c-7.7 0-15 .2-22.5 2.3z" fill="#061e5b"/><path d="M408.1 274.7c9.2 8.5 16.3 19.7 23.2 30.1.6.8.6.8 1.1 1.6 3.8 5.7 7.2 11.7 10.6 17.6q.9 0 1.7 0 9.3-.2 18.6-.4 3.4-.1 6.8-.2a1438.43 1438.43 0 0 1 83.1.6q4.1.1 8.2.3 9.8.3 19.6.7.4-1.3.8-2.7c1.1-3 2.3-5.3 4-7.9q.9-1.3 1.7-2.6.9-1.3 1.9-2.7c.9-1.4.9-1.4 1.9-2.8 26.1-38.4 26.1-38.4 48.8-43.8 22-3 40.5 3.8 58 16.6 31.2 23.8 51.8 65.4 57.3 103.8 2.2 25.5-1.4 50.9-18.3 71-5.6 6-13.4 12.8-21.9 13.2q-1.1 0-2.2-.1a59.58 59.58 0 0 0 .5 3.9c.5 4.8.6 9.5.6 14.3v2.7c-.1 11.6-.5 23.3-.8 34.9q-.2 5.8-.4 11.6c-1.5 44.8-1.5 44.8-5.2 61.7q-.3 1.5-.6 3.1c-6.5 29.4-21.7 53.9-42.1 75.8q-.9 1-1.9 2c-33.7 35.4-87.3 51.8-135.1 52.9-41.2.9-81.1-2.4-119-19.9-1-.5-1-.5-2-.9-38.9-17.9-70-50.2-85.4-90.2-6.7-18.5-8.8-37.9-9.7-57.5q-.1-1.2-.2-2.5c-1.4-30.6-.9-61.3-.7-91.9q-.9-.2-1.8-.4-1.2-.2-2.5-.5-1.2-.2-2.4-.5c-11.6-3-19.4-13.2-25.3-23-2.9-5-5.1-10.2-7-15.6-.5-1.4-.5-1.4-1.1-2.8-1.2-4.1-1.6-8.1-2-12.4q-.1-1.3-.3-2.6C265 370.6 279.9 331 304 301c14.8-17.7 34.2-35.6 58.1-38.8 17.4-1.3 31.8 1.3 46 12.5zm-82.5 38.9c-14.8 18.7-25 40.2-30.6 63.4-.3 1.3-.3 1.3-.7 2.7-4.1 18.5-1.2 37.1 8.7 53.3 3.5 4.6 7.5 8.1 13 10 11.1 1.3 21.4-4.4 30-11 19.4-16.3 28.8-39.6 35.5-63.4l.8-2.7q.7-2.6 1.4-5.3c1.5-5.1 3-8.2 7.3-11.6 4.2-1.2 6.2-1.3 10.3.3 2.7 1.7 2.7 1.7 4.7 4.7 4.1 23.4-11.3 55-24 74-3.7 5-7.8 9.5-12 14q-.9 1-1.9 2.1c-9.4 10.3-22 16.5-35.1 20.9-1 57.6-1 57.6 3 115 .1 1.1.1 1.1.3 2.1 3.9 28.8 17 53 36.7 73.9q.9 1 1.7 1.9c10.6 11.3 23.8 20 37.3 27.1q1.5.9 3.1 1.8c48.5 26 114.1 26.5 165.9 11.1 24.9-7.7 46.8-20.3 65.5-38.5q2-1.9 4.1-3.8c30.7-28.8 38.1-69.2 39.5-109.3l.2-3.3c.9-26 .9-52 .7-78l-3.3-1.4q-2.2-1-4.4-1.9-1-.4-2.1-.9C656.6 450.1 639 426.2 629 402c-13.3-35-13.3-35-11-47 1.3-2.9 2.4-3.9 5-6 4.1-1.3 6.2-1.3 10.2.2 4.5 2.9 6.1 6 7.4 11.1l.8 3.2q.5 1.6.9 3.3c2.6 9.7 5.5 19 9.7 28.2q.8 1.8 1.6 3.6c8.5 18.1 22 33.9 40.4 42.4 6.3 2 11.1 3.2 17.4.6 11.4-7.3 16-18.8 18.8-31.4 4.5-22.2-3.5-46.4-13.2-66.2q-.5-.9-.9-1.9c-10.7-21.8-27.2-44.3-50.7-53.2-8.6-2.2-18.7-2.6-27 1-15.5 9.6-25.4 28.7-33.7 44.5q-.6 1-1.2 2.2-1.1 2-2.1 4.1c-2.6 4.7-5.3 7.5-10.4 9.3a53.52 53.52 0 0 1-8 .3q-1.1 0-2.3 0-6.1-.2-12.3-.5c-17.5-1-35.1-1-52.6-.9q-6.6 0-13.2 0c-17.5-.1-34.9 0-52.4 1-17.1.9-17.1.9-23.2-2.9-4-4.2-6.5-9.9-9.1-15-8.2-15.9-20.5-37.1-37.9-44-22.5-3.6-40.5 8.8-54.4 25.6z" fill="#071f5d"/><path d="M385 289.9l4 3.1 2.4 2c12.7 11.9 21.4 27 29.3 42.3 3.2 6 5.5 10.4 12.3 12.7q2.9-.1 5.8-.3c20.2-1 20.2-1 25 2.4 2.5 2.8 4.4 5.6 6.2 8.9q.9 1.3 1.9 2.7c15.7 22 18.1 51.9 14 77.9-4.4 24.6-14.1 48.3-28.9 68.4q-1 1.5-2.1 3c-5.1 6.9-10.6 13.3-16.5 19.5q-2 2.2-4 4.3c-22.9 23.9-55.2 38.3-88.3 39.4q-5 .1-10.1-.2c-3.6-10.8-2.3-24.8-2.6-36.2v-2.4c-.6-24.1-.5-48.3-.4-72.4l3.1-1.2q2-.8 4-1.6 1-.4 2.1-.8c23.2-9.2 39-29.7 49.8-51.4.8-1.7.8-1.7 1.7-3.4 7.2-15.6 14.2-35.3 12.3-52.6-2-3.3-3.3-4.4-6.9-5.6-3.7-.8-5.8-.5-9.4.9-5 5-6.2 11.7-8 18.4-7.3 26.6-18.1 53.6-42.5 69.1-7.1 4-14.7 7.7-23.2 6.2-10.1-4.2-15.6-13.1-19.8-22.7-8.8-23.7-1-50.4 8.8-72.5 10.7-23.4 26.8-47.7 51.1-58.3 8.6-2.8 20.7-3.7 28.9.4z" fill="#f79b08"/><path d="M652.7 287.5q1.2 0 2.4 0c13.2.4 23.4 7.4 32.8 16.2q1 1.1 2.1 2.3 1.1 1.1 2.3 2.3 1.3 1.3 2.7 2.7.9.9 1.7 1.8c19 20 32.8 51.7 34.3 79.2q.1 1.5.2 3.1c.5 14.3-2.7 28.7-11.9 40-4.2 4.5-8.3 7.5-14.5 8.3-17-1.9-30-13.7-40.3-26.5-13.1-18.2-20.4-39.6-25.4-61.3-2.4-5.7-8.1-7.8-13.5-10.1-1.1-.5-1.1-.5-2.1-.9-6.7-2.8-13.5-4.8-20.5-6.6 7.9-17.3 19.9-39.6 37.2-48.7 4.4-1.5 7.9-1.8 12.5-1.8z" fill="#f79b09"/><path d="M548.9 544.6c4.9 5.2 7.7 11.9 8.5 18.9-1.1 9.3-4.1 15.5-10.4 22.5q-.8.9-1.6 1.9c-5.4 5.9-12.8 10.6-20.4 13.1-1.8 8.7-2 15.9 2.5 23.7 4.8 7.1 11.3 10.4 19.5 12.3 11.9 1.4 24.3-1.4 34.1-8.5 4.5-3.7 7.4-7.6 10.5-12.5 1.9-2.7 3.3-4 6.4-5 6.1 0 8.8 1.9 13 6 1.6 3.3 1.5 6.5 1 10-5.7 13.9-17.9 22.5-31.1 28.8-4.2 1.8-8.5 3.1-12.9 4.2q-1.1.3-2.2.6c-15.3 2.4-30.4.5-43.6-7.9-3.4-2.6-6.6-5.3-9.2-8.7q0-1 0-2-1 1-1.9 2.1c-13 12.9-27 17.4-45.1 17.4-8.6-.2-16-2.2-24-5.5q-1.4-.6-2.9-1.2c-6.4-2.9-11.8-7.1-17.1-11.8q-1-.9-2-1.8c-5.4-5-9.1-10.3-9.5-17.8.2-4.4 1.7-7 4.5-10.4 3.5-1.8 7.2-1.6 11-1 4.3 2.3 6.9 5.7 9.3 9.9 4.8 8.3 14.5 12 23.3 14.4 10.9 2.2 21.3 1.3 30.7-4.8 5-3.9 8.2-8.3 9.7-14.5.4-5.4.7-10.8-1-16-2.4-1.3-2.4-1.3-5.3-2.5-12.2-5.9-21.3-15.4-26.1-28.2-1.6-8.5.2-14.9 4.6-22.3 5.4-7.2 15.2-11.3 23.8-13 17.8-2.5 39.3-2.5 53.9 9.6z" fill="#071f5d"/><path d="M435.1 147.6q1 0 2 0 3.5 0 6.9 0 2.5 0 5 0 6.7 0 13.4 0 7 0 14 0 11.8 0 23.6 0 13.6 0 27.2 0 11.7 0 23.4 0 7 0 13.9 0 6.6 0 13.2 0 2.4 0 4.8 0 3.3 0 6.6 0 1.8 0 3.7 0c4.8.6 7.3 2.4 10.4 6 2.7 3.7 3.2 5.8 2.8 10.4-2.1 3.9-4.2 6.8-8 9-3.2.4-3.2.4-7 .4q-1 0-2.1 0-3.5 0-7 0-2.6 0-5.1 0-6.9 0-13.7 0-5.8 0-11.5 0-13.5.1-27.1 0-13.9 0-27.9.1-11.9 0-23.9 0-7.2 0-14.3 0-6.8 0-13.5 0-2.5 0-4.9 0-3.4 0-6.8 0h-3.8c-4-.6-6.2-2-9.4-4.5-2.7-4-2.7-8.3-2-13 3.8-6.7 9.7-8.4 17.1-8.4z" fill="#07205c"/><path d="M620.5 470.9c6.7 4 11.1 9.7 13.5 17.1.9 7.8-1.7 13.1-5.6 19.8-5.1 4.8-10.9 7.5-18 7.8-7.5-.5-12.2-3-17.3-8.5-4.9-6.2-5.9-11.3-5.1-19.1 1.4-6.3 4.5-11.2 9.6-15.3 6.6-4 15.7-4.4 22.9-1.8z" fill="#071f5d"/><path d="M422 471.1c6.3 3.6 9.7 7.5 12.3 14.3 1.6 7.8.6 13.7-3.3 20.6-2.1 2.4-4.3 4.2-7 6-1.4.9-1.4.9-2.8 1.9-6.7 2.3-13 2-19.5-1-5.9-3.3-10.2-7.3-12.1-13.9-1.3-6.9-1-12.9 2.4-19 7.5-9.5 18.3-13.3 30-8.9z" fill="#071e5d"/><path d="M614 312q.5 1 1 2l2 1q-.8 1.3-1.7 2.7-1.1 1.9-2.2 3.8-.6 1-1.3 2-3.2 5.4-6.2 10.9-.6 1.1-1.2 2.2-1.1 2-2.2 4.1c-2.8 5.2-5.6 8.4-11.2 10.3-2.6.1-5.2.1-7.8.1q-1.1 0-2.3 0-7.5 0-15-.5c-16.7-.9-33.4-.8-50.1-.7q-6.6 0-13.2 0c-17.5-.1-34.9 0-52.4 1-17 .8-17 .8-23.2-2.9-6.9-6.3-10.8-16.8-15-25q1-.5 2-1 .5.8 1 1.7a25.29 25.29 0 0 0 1.3 2.2q.7 1 1.3 2.2c1.4 2.2 1.4 2.2 4.4 3.9 1.2 1.8 1.2 1.8 2.2 3.9q.5 1.1 1 2.1c.8 2 .8 2 .8 5q1 0 2 0 0 1.5 0 3 1 0 2 0 0 1 0 2c1.7-.2 1.7-.2 3.4-.5 4.7-.6 9.4-.6 14.1-.6q1.4 0 2.8 0 4.5 0 9 0 3.2 0 6.4 0 6.7 0 13.4 0 8.5 0 16.9 0 6.6 0 13.2 0 3.1 0 6.3 0a893.02 893.02 0 0 1 40 .9c7.4.3 14.9.3 22.3.3q2 0 4 0 1.9 0 3.9 0 1.7 0 3.4 0c2.5-.1 4.5-.4 6.9-1.1q.1-1.1.2-2.3c1.7-7.9 5.7-16.4 10.8-22.7q1 0 2 0 .5-2.5 1-5 1 0 2 0 1-2.5 2-5z" fill="#0b1150"/><path d="M532 536c-2.9 2.9-4.3 4-8.5 4.1q-2-.2-4-.5c-6.6-.6-12.3-.3-18.8 1-2.7.4-2.7.4-4.7-.2-3.4-.6-5.6 1.2-8.5 2.9q-1.7.9-3.4 1.8c-3 1.8-3 1.8-5.4 3.6-1.7 1.3-1.7 1.3-3.7 1.3q-.1.8-.2 1.6c-.8 2.4-.8 2.4-2.9 5.5-3.6 6-2.4 13.3-.9 19.9-3.5-2.7-4.1-5.8-5-10-.9-7.6 2-14.7 6.5-20.8 14.3-15.4 40.8-13.6 59.5-10.2z" fill="#06174e"/><path d="M669 264l2 2q-.9 0-1.8 0c-19-.3-35.8-.1-50.6 13.2-3.1 3.3-5.8 6.9-8.5 10.5-2.2 2.4-4.3 3.7-7.1 5.3q-2.1 1.9-4 4-1-.5-2-1c11.6-16.1 22.9-30.7 43.1-35.5 9.4-1.3 19.9-1.5 28.9 1.5z" fill="#041748"/><path d="M304 306c-1.3 3.5-2.8 6.3-4.9 9.3-2.3 3.4-4.3 6.8-6 10.5q-1.2 2.4-2.5 4.8c-2.9 5.7-5.5 11.5-7.9 17.4q-.4.9-.8 1.9c-1.2 3-2.2 6-2.9 9.1l-4 1c.5-6.6 2.3-11.9 5-18l1.2-2.8C296 306 296 306 304 306z" fill="#061847"/><path d="M622.6 472.2c3 2.2 5.3 4.7 7.4 7.8-2.4.2-2.4.2-5 0q-1-1.5-2-3c-5.1-3-11.4-2.7-17.1-1.6-6 1.8-10.8 5.9-14.9 10.6-.8 2.1-.8 2.1-1 4q-1 0-2 0c1.3-7.3 3.9-12.6 9.7-17.4 7.1-4.3 17.8-4.7 24.9-.4z" fill="#091550"/><path d="M730 417c1.5 4.4.2 7.1-1.6 11.3-3.7 7.1-9.5 15.1-17.4 17.7q-1 1-2 2-.5-1.5-1-3-.6.7-1.3 1.5C705 448 705 448 701 448q0-1 0-2-2.5-.5-5-1 .5-2 1-4 .8.2 1.6.5c5.5 1.1 9.8 1 14.6-2.1 6.7-5.2 10.4-11.8 13.8-19.4q1 0 2 0 .5-1.5 1-3z" fill="#071551"/><path d="M342 269q1 .5 2 1l-2.4.8c-2.8.9-2.8.9-3.4 3.3l-.2 1.9q-2 .5-4 1 0 1 0 2-1.1.6-2.3 1.2-1.5.8-3 1.6-1.5.8-3 1.6c-3.2 1.9-5.1 3.5-7 6.8-2.4 4-5.5 7.3-8.7 10.8q-1.1 1.2-2.3 2.5C306 305 306 305 303 305c.4-4.4 3.5-7.1 6.4-10.1l1.6-1.8c9-9.4 18.7-19 31-24.1z" fill="#051645"/><path d="M413 282c4.7 3.3 7.8 7.3 11.1 12a35.34 35.34 0 0 0 1.7 2.4 295.45 295.45 0 0 1 12 18.6l1.6 2.6c3.6 6.1 3.6 6.1 3.6 8.4q3 0 6 0 0 .5 0 1-2.5 0-5 0 0 1 0 2c-1.7-.1-1.7-.1-4-1-2.7-4-4.4-7.2-5-12q-1 0-2 0-1-2-2-4 1 0 2 0c-5.5-9-11.5-17.6-18.3-25.7-1.7-2.3-1.7-2.3-1.7-4.3z" fill="#08123a"/><path d="M531 538c7-.9 11.4 1.9 17 6 5.6 5.4 8.6 12.2 9.4 19.9-.4 2.9-1 4.5-2.4 7.1q0-1.2 0-2.5c-.4-7.5-1-14.5-6-20.5-3.4-1-3.4-1-7-1-5.6-3.2-5.6-3.2-7-6q-2 0-4 0 0-1.5 0-3z" fill="#091251"/><path d="M274 361c2 5.9 1.5 11.5-1 17-1.7 5-2.2 9.4-2.2 14.7q0 1 0 2.1 0 3.3.1 6.6 0 2.3 0 4.6 0 5.5.1 11c-7-10.6-3-30.9-1-43 2.3-11.3 2.3-11.3 4-13z" fill="#060f32"/><path d="M391 266c9.3 1.3 16.5 7.8 22 15q-.5 1-1 2-1.5 0-3 0-.5-2-1-4-2-.5-4-1 0-1 0-2c-2-1-4-2-6.1-2.9q-1-.5-2.1-1-1-.4-2.1-.9c-1.7-1.2-1.7-1.2-2.4-3.3q-.2-1-.3-1.9z" fill="#071a4a"/><path d="M596 300c1.3 3.9.5 5.3-1 9q-1.6 3-3.4 5.8-.8 1.4-1.7 2.9c-1.9 2.3-1.9 2.3-4.1 3.1q-.9.1-1.8.2.5 1.5 1 3-1 .5-2 1c-1-6.5 2.4-10.3 5.9-15.3.9-1.2.9-1.2 1.7-2.5 4.1-5.9 4.1-5.9 5.4-7.2z" fill="#051440"/><path d="M647 433q1.5.5 3 1 0 1 0 2 1.5.5 3 1l3 3.5c9.4 10.9 20.7 17.4 34 22.5-3.8 1.3-5.8.5-9.5-1.3q-1-.5-2.1-1.1-1-.5-2.1-1.1c-10.5-5.5-24.5-15.3-29.3-26.5z" fill="#0f1365"/><path d="M377 262q0 .5 0 1-1.9.2-3.9.4c-3.4.3-3.4.3-6.1 2.6l-6.3 1.1q-1.6.2-3.3.4-1.7.3-3.4.5-1.6.3-3.2.6c-2.8.4-2.8.4-5.8-.6 10.5-5.3 20.4-6.4 32-6z" fill="#06143e"/><path d="M403 471q1.5.5 3 1-1 0-2 0 0 1-.1 2.1c-1.2 3.8-3.2 5-6.2 7.4-2.1 1.9-3.4 4-4.7 6.5q-.5 0-1 0c-.2-4.3-.1-7.7 2.8-11.1 2.6-2.3 5.1-4.4 8.2-5.9z" fill="#051550"/><path d="M618 273q1 .5 2 1-.9.8-1.9 1.7c-5.3 4.9-5.3 4.9-8.8 11.1-1.5 3.7-3.3 5.5-6.3 8.2q-1.1 1.1-2.3 2.3-.8.8-1.7 1.7-1-.5-2-1c6.5-8.9 12.8-17.5 21-25z" fill="#040f38"/><path d="M522 536q-1 0-2 .1-4.4.1-8.8.3l-3 .1q-1.5 0-3 .1l-2.7.1c-2.6.3-4.2 1.1-6.5 2.3h-5q0-1.5 0-3c25.2-3.9 25.2-3.9 31 0z" fill="#181a4b"/><path d="M292 415q1 0 2 0 .5 1.5 1 3 1 .5 2 1c.9 1.7.9 1.7 1.6 3.8q.4 1 .8 2.1c.6 2.1.6 2.1.6 6.1q-2 .5-4 1-.4-1.8-.9-3.7c-.6-2.5-1.3-4.7-2.2-7s-.9-2.3-.9-6.3z" fill="#0a1952"/><path d="M472 548c.7 1.8.7 1.8 1 4q-1.5 1.5-3 3c-1.5 4.8-2.2 11.5 0 16.1q.5 1 1 1.9c-.4 2.2-.4 2.2-1 4-3.1-6-4.6-10.2-4-17 2.8-8.8 2.8-8.8 6-12z" fill="#070a52"/><path d="M274 361c1.6 4.9 1.6 10 .1 14.9-1.1 2.1-1.1 2.1-3.1 3.1-1.2-4.2-.7-7.1.4-11.3q.4-1.5.8-3.2c.8-2.5.8-2.5 1.8-3.5z" fill="#081843"/><path d="M312 294q.5 1.5 1 3c-2 3.6-3.6 5.7-7 8q-1.5 0-3 0c.5-4.3 3.1-6.9 6-10q1.5-.5 3-1z" fill="#051745"/><path d="m436 317c5.8 4.4 5.8 4.4 6.9 7.3 0 0.8 0 0.8 0.1 1.7q3 0 6 0 0 0.5 0 1-2.5 0-5 0 0 1 0 2c-1.8-0.1-1.8-0.1-4-1-2.9-3.7-4-6.3-4-11z" fill="#041546"/><path d="M602 294q1.5 0 3 0-1 2-2 4l-1.4 3.1c-1.6 2.9-2.8 4.2-5.6 5.9-1.1-3.3-.8-4.7 0-8q1.5-.5 3-1 .7-1 1.5-2.1.7-.9 1.5-1.9z" fill="#041b50"/><path d="M656 262q0 .5 0 1-.9.2-1.9.3c-5.9 1.1-11.5 2.7-17.1 4.7q0-2 0-4c6.5-2 12.3-2.2 19-2z" fill="#03113a"/><path d="M302 434l1.4 1.3c4.6 4.2 4.6 4.2 10.6 5.7q0 2 0 4c-4.3-.2-5.7-.7-8.8-3.8-1.9-2.8-2.6-4.1-3.2-7.2z" fill="#08194c"/><path d="M309 523q.5 0 1 0l1 14q.5 0 1 0v10q-1 0-2 0c-1-2.9-1.1-4.8-1.1-7.9q0-1.4 0-2.8v-3q0-1.5.1-3 0-3.6 0-7.3z" fill="#b4e7eb"/><path d="M450 325c14.8-.2 14.8-.2 21 1q0 1 0 2h-11q0-1 0-2h-10q0-.5 0-1z" fill="#03123e"/><path d="M696 441c3.4.5 5.1 1.1 8 3q1.5.5 3 1-.5 1.5-1 3-2.5 0-5 0 0-1 0-2-2.5-.5-5-1 0-2 0-4z" fill="#0d1b4e"/><path d="M391 266c5.2.5 8.8 3.2 13 6l-2 1q-2-1-4-2-3-.6-6-1-.5-2-1-4z" fill="#06123d"/><path d="M729 456q1.5.5 3 1c-3.1 4.6-6.7 7.4-12 9-2.3-.4-2.3-.4-4-1q.9-.4 1.9-.8 1.2-.6 2.5-1.1c1.2-.6 1.2-.6 2.4-1.1 3.6-1.6 4.6-2.4 6.2-6z" fill="#050f37"/><path d="M582 321c1.5 2.6 2 3.9 2 7q-2 0-4 0 0-1 0-2h-11q0-.5 0-1h12q.5-2 1-4z" fill="#1c335f"/><path d="M326 279q1 .5 2 1c-.7 1.9-.7 1.9-2 4q-2.5 1-5 2c-2.3 2-2.3 2-4 4q-1-.5-2-1c7.3-7.5 7.3-7.5 11-10z" fill="#020c35"/><path d="M751 370c2 1 2 1 2.6 2.7.4 2.6.5 5 .5 7.5q-.1 1.4-.1 2.8 0 1 0 2c-2.7-5.3-3.1-9.1-3-15z" fill="#051137"/><path d="M304 306q-1 2.5-2 5-1-.5-2-1l-6 10q-.5-1.5-1-3c1.1-2.2 1.1-2.2 2.8-4.6l1.6-2.3c1.9-2.4 3.4-4.1 6.6-4.1z" fill="#041139"/><path d="M423 474c6.5 2.2 6.5 2.2 8.9 6.2q.6 1.4 1.1 2.8-1 0-2 0-.6-.9-1.2-1.8c-2.5-3.1-5.1-3.8-8.8-5.2q1-1 2-2z" fill="#101752"/><path d="m360 451c0 3 0 3-2.1 5.6-3.2 2.6-4.9 3.1-8.9 3.4 3.3-3.6 7-6.2 11-9z" fill="#f2a908"/><path d="M553 569q1 0 2 0c1 3 1 3 .2 5q-.5 1.1-1.1 2.2-.6 1.1-1.2 2.2l-.9 1.6c-1.4-4.3-.2-6.7 1-11z" fill="#13194f"/><path d="M313 442l12 1c-4.7 3.5-4.7 3.5-9 3q-1.5-1-3-2 0-1 0-2z" fill="#050e5a"/><path d="M236 133q1 .5 2 1-.5 2-1 4-1 0-2 0-.4 1.4-.9 2.9C233 144 233 144 231 146c.6-4.9 2.7-8.7 5-13z" fill="#071047"/><path d="M677 612q1 .5 2 1l-5 11c-2-4-2-4-2-6q1.5 0 3 0 1-3 2-6z" fill="#eec937"/><path d="M594 691q1 .5 2 1-2.1 1-4.3 2c-1.1.6-1.1.6-2.3 1.1-2.4.9-2.4.9-6.4.9q.5-1.5 1-3 1.6-.2 3.3-.4c3.6-.5 3.6-.5 6.7-1.6z" fill="#f2d034"/><path d="M652 653c0 4.4-2.1 5.8-5 9q-1.5-.5-3-1l8-8z" fill="#171b60"/><path d="M721 432c0 3.7-.8 5.1-3 8-2.7.8-2.7.8-5 1q1.4-1.7 2.9-3.4.8-.9 1.6-1.9 1.7-1.9 3.5-3.7z" fill="#050957"/><path d="M383 263q0 1.5 0 3h-8q0-1 0-2c2.9-1 5-1.1 8-1z" fill="#031545"/><path d="M555 572c1.1 4.2 1.1 5.3-1 9q-2 .5-4 1l5-10z" fill="#f0c736"/><path d="M476 728q2.5 0 5 0 0 1 0 2 1.5.5 3 1h-8q0-1.5 0-3z" fill="#b7e4ea"/><path d="M596 474q2 0 4 0-.5 1.5-1 3c-2.6 1.2-2.6 1.2-5 2 0-3 0-3 2-5z" fill="#1a204d"/><path d="M398 474q.5 1.5 1 3l-3 3q-1 0-2 0-.5 1-1 2c.5-3.8 2.2-5.5 5-8z" fill="#030b59"/><path d="M588 311q2 0 4 0-.5 2.5-1 5-1.5 0-3 0 0-2.5 0-5z" fill="#051a4c"/><path d="M424 298c2 1.6 2 1.6 4 4 .3 3.3.3 3.3 0 6q-.4-1-.9-1.9c-.9-2.3-.9-2.3-3.1-3.1q0-2.5 0-5z" fill="#031852"/></svg>