<svg xmlns="http://www.w3.org/2000/svg" width="1024" height="1024" xmlns:v="https://vecta.io/nano"><path d="M772.8 61.6C774 63 774 63 774 65q.8.3 1.7.7c2.9 1.6 4.9 3.6 7.2 6q.7.7 1.5 1.5 2.3 2.3 4.6 4.7 1.7 1.6 3.3 3.3 4.4 4.3 8.7 8.7 6.9 7 13.8 13.9 2.4 2.4 4.8 4.8c4.6 4.7 9.3 9.2 14.3 13.5 4.8 4.3 9.3 9 13.9 13.6q1.6 1.6 3.3 3.3 4.4 4.4 8.8 8.8 4.5 4.5 8.9 9 7.9 7.8 15.7 15.7 1.2 1.2 2.5 2.5 1.3 1.3 2.7 2.7c3.3 3.2 6.8 6.3 10.3 9.3q1 1 2 2 0 1 0 2c.8.4.8.4 1.7.7 4.8 2.7 8.5 7.1 12.4 11q1.3 1.3 2.7 2.7c5.5 5.4 9.3 9.5 10.6 17.2 0 6-.9 10.5-4.4 15.4-4.3 4.3-9.4 6.7-15.4 7.4-8.2-.9-12.9-4-18.3-9.8q-1.6-1.8-3.2-3.5-.8-.8-1.6-1.6c-2-2-4.3-3.7-6.5-5.5q-1.5-1.6-2.9-3.3c-5.9-7-12.6-13.3-19.1-19.7-3.9 1.6-6.2 4-9.1 7q-.8.7-1.5 1.5-2.3 2.3-4.6 4.7-3.1 3.1-6.1 6.2c-.8.7-.8.7-1.5 1.5a162.44 162.44 0 0 1-10.6 9.7c-2.1 1.8-3.8 3.8-5.6 5.9-2.2 2.7-4.6 5-7.2 7.2-6.8 5.9-13 12.4-19.4 18.8q-2.1 2.1-4.2 4.2-5.5 5.5-11 11-5.6 5.6-11.2 11.2-11 11.1-22 22.1c1.6 4 4.3 6.6 7.3 9.6q.8.8 1.7 1.6 2.7 2.7 5.4 5.4 1.9 1.9 3.8 3.8 3.9 3.9 7.9 7.9 5 5 10.1 10 3.8 3.9 7.7 7.8 1.9 1.9 3.8 3.7c8.6 8.7 8.6 8.7 17.8 16.9 2.3 2 4.4 4.1 6.5 6.3q1.6 1.5 3.2 3.1 1.7 1.6 3.4 3.2.8.8 1.7 1.6c4.8 4.7 8.1 9.6 9.3 16.3 0 5.6-.2 10-4 14.4-4.8 4.2-9.9 6.3-16.3 5.8-8-1.4-13.9-8.7-19.3-14.2q-1.2-1.2-2.3-2.4-2.9-2.9-5.7-5.8c-4.6 3.8-9 7.8-13.2 12.1q-.9.8-1.7 1.7-2.9 2.9-5.8 5.8-2.1 2.1-4.2 4.2-4.5 4.5-8.9 8.9-7.1 7.1-14.2 14.2-15 15.1-30 30.1-16.2 16.2-32.4 32.5-7.1 7-14.1 14.1-4.3 4.3-8.7 8.7-2.1 2-4.1 4.1-2.7 2.8-5.5 5.5l-1.6 1.6a151.22 151.22 0 0 1-8.3 7.7c-2.3 1.9-4.4 3.9-6.3 6.3-5.7 6.7-12.1 12.7-18.3 18.9q-2.2 2.2-4.4 4.4-5.8 5.9-11.7 11.7-6.2 6.2-12.4 12.4-11.7 11.6-23.3 23.3-13.3 13.3-26.6 26.5-22.7 22.7-45.4 45.4-.9.9-1.9 1.9-1.8 1.8-3.5 3.5l-12.9 13q-5.2 5.2-10.4 10.5-2.2 2.2-4.5 4.5c-19 19.3-39.6 36.2-67.9 36.8-25.7.2-44.7-8.7-63.5-26.2-2.4-2.2-4.8-4.1-7.3-6.1q-1.3 1.3-2.6 2.7-4.9 4.9-9.8 9.8-2.1 2.2-4.2 4.3-3 3.1-6.1 6.1-.9 1-1.8 2c-5.6 5.6-11.7 9.8-19.2 12.3q-1.4.5-2.8 1c-11.2 3.6-22.7 2.6-33.2-2.5q-1.1-.5-2.2-1.1c-2.1-.8-2.1-.8-3.9.1-2.7 1.6-4.7 3.6-7 5.8q-.7.7-1.4 1.5-2.3 2.3-4.6 4.6-1.7 1.7-3.3 3.4-3.6 3.6-7.2 7.2-5.7 5.8-11.4 11.5-16.2 16.3-32.4 32.6-8.9 9-17.9 18-5.7 5.7-11.3 11.4-3.5 3.5-7.1 7.1-1.6 1.6-3.2 3.3c-9.6 9.7-21.3 21.4-35.6 22.3-3.8-.4-3.8-.4-6.3-1.8-2.4-4.1-2.2-7.9-1.5-12.6 4.7-15.8 18.6-27.8 29.9-39q1.6-1.6 3.2-3.2 4.3-4.3 8.6-8.6 4.5-4.5 9-9 8.5-8.5 17-17 9.7-9.7 19.4-19.4 20-19.9 39.9-39.8-.6-.9-1.2-1.8-.8-1.2-1.7-2.4-.8-1.2-1.6-2.4c-7.7-12.1-9.4-26.5-6.4-40.5 3.5-12.2 10.8-22.7 20.4-30.7 5.8-5.1 11.1-10.7 16.5-16.2-1.6-3.4-3.4-5.8-5.9-8.6q-1.2-1.3-2.5-2.6c-2.7-2.9-5.5-5.6-8.3-8.3-12.8-12.8-19.5-30.3-19.6-48.3q0-1.5.1-3.1v-3.2c.4-29.9 15.4-49.2 35.9-69.7q1.6-1.6 3.2-3.2 4.3-4.3 8.6-8.6 4.7-4.7 9.3-9.3 8.1-8.1 16.2-16.1 11.6-11.7 23.3-23.4 19-18.9 37.9-37.9 1.2-1.1 2.3-2.3 8.1-8 16.1-16 9.2-9.2 18.4-18.4 1.1-1.1 2.3-2.3 18.9-18.9 37.8-37.8 11.6-11.6 23.3-23.2 8-8 16-16 4.6-4.6 9.2-9.2 4.2-4.2 8.4-8.4 1.5-1.5 3-3c5-5 9.9-10 14.5-15.4 2.5-2.9 5.2-5.6 8-8.3q.9-.9 1.8-1.8 2.9-3 5.9-5.9 2-2.1 4.1-4.2 4.3-4.3 8.6-8.6 5.5-5.5 11-11.1 4.3-4.2 8.5-8.5 2.1-2 4.1-4.1 2.9-2.8 5.7-5.6.8-.9 1.7-1.8c3.9-3.8 3.9-3.8 6.1-3.8q0-1 0-2 1 0 2 0 .5-1.5 1-3c1.7-1.6 1.7-1.6 3.8-3.4 4.2-3.5 8.1-7 11.2-11.6-10.1-11.2-10.1-11.2-21.2-21.4-3.9-3.5-5.5-6.6-6-11.7-.1-5.1.2-8.6 3.2-12.9 4.3-4.2 7.5-7.1 13.6-7.3 1.3-.1 1.3-.1 2.5-.1 8 1.2 13.4 6.3 18.8 11.9q1.2 1.1 2.3 2.3 3.7 3.7 7.4 7.4 2.5 2.6 5.1 5.2 6.8 6.8 13.5 13.6 10.8 10.9 21.7 21.8 3.7 3.8 7.5 7.6 2.3 2.4 4.7 4.7c1 1.1 1 1.1 2 2.1 3.9 4 8 7.7 12.2 11.3 2.3 2 4.5 4.2 6.7 6.4q1.1 1.2 2.3 2.4l1.7 1.7c6.2-5.1 11.8-10.7 17.4-16.3q1.6-1.6 3.1-3.1 4.2-4.2 8.4-8.4 4.4-4.4 8.8-8.8 8.3-8.3 16.6-16.6 9.4-9.5 18.9-18.9 19.4-19.5 38.8-38.9c-1.4-2.9-2.7-4.9-5-7.2-.9-.9-.9-.9-1.9-1.8q-.9-.9-1.9-1.9-2.1-2.1-4.2-4.1-3.3-3.2-6.6-6.4-3.1-3.2-6.3-6.3-1-.9-2-1.9c-5.8-5.7-9.8-11.4-10.3-19.8.5-5.6 2.9-10.5 7.1-14.3 11.2-7.4 21.4-4.2 30.9 4.3z" fill="#feb600"/><path d="M772.8 61.6C774 63 774 63 774 65q.8.3 1.7.7c2.9 1.6 4.9 3.6 7.2 6q.7.7 1.5 1.5 2.3 2.3 4.6 4.7 1.7 1.6 3.3 3.3 4.4 4.3 8.7 8.7 6.9 7 13.8 13.9 2.4 2.4 4.8 4.8c4.6 4.7 9.3 9.2 14.3 13.5 4.8 4.3 9.3 9 13.9 13.6q1.6 1.6 3.3 3.3 4.4 4.4 8.8 8.8 4.5 4.5 8.9 9 7.9 7.8 15.7 15.7 1.2 1.2 2.5 2.5 1.3 1.3 2.7 2.7c3.3 3.2 6.8 6.3 10.3 9.3q1 1 2 2 0 1 0 2c.8.4.8.4 1.7.7 4.8 2.7 8.5 7.1 12.4 11q1.3 1.3 2.7 2.7c5.5 5.4 9.3 9.5 10.6 17.2 0 6-.9 10.5-4.4 15.4-4.3 4.3-9.4 6.7-15.4 7.4-8.2-.9-12.9-4-18.3-9.8q-1.6-1.8-3.2-3.5-.8-.8-1.6-1.6c-2-2-4.3-3.7-6.5-5.5q-1.5-1.6-2.9-3.3c-5.9-7-12.6-13.3-19.1-19.7-3.9 1.6-6.2 4-9.1 7q-.8.7-1.5 1.5-2.3 2.3-4.6 4.7-3.1 3.1-6.1 6.2c-.8.7-.8.7-1.5 1.5a162.44 162.44 0 0 1-10.6 9.7c-2.1 1.8-3.8 3.8-5.6 5.9-2.2 2.7-4.6 5-7.2 7.2-6.8 5.9-13 12.4-19.4 18.8q-2.1 2.1-4.2 4.2-5.5 5.5-11 11-5.6 5.6-11.2 11.2-11 11.1-22 22.1c1.6 4 4.3 6.6 7.3 9.6q.8.8 1.7 1.6 2.7 2.7 5.4 5.4 1.9 1.9 3.8 3.8 3.9 3.9 7.9 7.9 5 5 10.1 10 3.8 3.9 7.7 7.8 1.9 1.9 3.8 3.7c8.6 8.7 8.6 8.7 17.8 16.9 2.3 2 4.4 4.1 6.5 6.3q1.6 1.5 3.2 3.1 1.7 1.6 3.4 3.2.8.8 1.7 1.6c4.8 4.7 8.1 9.6 9.3 16.3 0 5.6-.2 10-4 14.4-4.8 4.2-9.9 6.3-16.3 5.8-8-1.4-13.9-8.7-19.3-14.2q-1.2-1.2-2.3-2.4-2.9-2.9-5.7-5.8c-4.6 3.8-9 7.8-13.2 12.1q-.9.8-1.7 1.7-2.9 2.9-5.8 5.8-2.1 2.1-4.2 4.2-4.5 4.5-8.9 8.9-7.1 7.1-14.2 14.2-15 15.1-30 30.1-16.2 16.2-32.4 32.5-7.1 7-14.1 14.1-4.3 4.3-8.7 8.7-2.1 2-4.1 4.1-2.7 2.8-5.5 5.5l-1.6 1.6a151.22 151.22 0 0 1-8.3 7.7c-2.3 1.9-4.4 3.9-6.3 6.3-5.7 6.7-12.1 12.7-18.3 18.9q-2.2 2.2-4.4 4.4-5.8 5.9-11.7 11.7-6.2 6.2-12.4 12.4-11.7 11.6-23.3 23.3-13.3 13.3-26.6 26.5-22.7 22.7-45.4 45.4-.9.9-1.9 1.9-1.8 1.8-3.5 3.5l-12.9 13q-5.2 5.2-10.4 10.5-2.2 2.2-4.5 4.5c-19 19.3-39.6 36.2-67.9 36.8-25.7.2-44.7-8.7-63.5-26.2-2.4-2.2-4.8-4.1-7.3-6.1q-1.3 1.3-2.6 2.7-4.9 4.9-9.8 9.8-2.1 2.2-4.2 4.3-3 3.1-6.1 6.1-.9 1-1.8 2c-5.6 5.6-11.7 9.8-19.2 12.3q-1.4.5-2.8 1c-11.2 3.6-22.7 2.6-33.2-2.5q-1.1-.5-2.2-1.1c-2.1-.8-2.1-.8-3.9.1-2.7 1.6-4.7 3.6-7 5.8q-.7.7-1.4 1.5-2.3 2.3-4.6 4.6-1.7 1.7-3.3 3.4-3.6 3.6-7.2 7.2-5.7 5.8-11.4 11.5-16.2 16.3-32.4 32.6-8.9 9-17.9 18-5.7 5.7-11.3 11.4-3.5 3.5-7.1 7.1-1.6 1.6-3.2 3.3c-9.6 9.7-21.3 21.4-35.6 22.3-3.8-.4-3.8-.4-6.3-1.8-2.4-4.1-2.2-7.9-1.5-12.6 4.7-15.8 18.6-27.8 29.9-39q1.6-1.6 3.2-3.2 4.3-4.3 8.6-8.6 4.5-4.5 9-9 8.5-8.5 17-17 9.7-9.7 19.4-19.4 20-19.9 39.9-39.8-.6-.9-1.2-1.8-.8-1.2-1.7-2.4-.8-1.2-1.6-2.4c-7.7-12.1-9.4-26.5-6.4-40.5 3.5-12.2 10.8-22.7 20.4-30.7 5.8-5.1 11.1-10.7 16.5-16.2-1.6-3.4-3.4-5.8-5.9-8.6q-1.2-1.3-2.5-2.6c-2.7-2.9-5.5-5.6-8.3-8.3-12.8-12.8-19.5-30.3-19.6-48.3q0-1.5.1-3.1v-3.2c.4-29.9 15.4-49.2 35.9-69.7q1.6-1.6 3.2-3.2 4.3-4.3 8.6-8.6 4.7-4.7 9.3-9.3 8.1-8.1 16.2-16.1 11.6-11.7 23.3-23.4 19-18.9 37.9-37.9 1.2-1.1 2.3-2.3 8.1-8 16.1-16 9.2-9.2 18.4-18.4 1.1-1.1 2.3-2.3 18.9-18.9 37.8-37.8 11.6-11.6 23.3-23.2 8-8 16-16 4.6-4.6 9.2-9.2 4.2-4.2 8.4-8.4 1.5-1.5 3-3c5-5 9.9-10 14.5-15.4 2.5-2.9 5.2-5.6 8-8.3q.9-.9 1.8-1.8 2.9-3 5.9-5.9 2-2.1 4.1-4.2 4.3-4.3 8.6-8.6 5.5-5.5 11-11.1 4.3-4.2 8.5-8.5 2.1-2 4.1-4.1 2.9-2.8 5.7-5.6.8-.9 1.7-1.8c3.9-3.8 3.9-3.8 6.1-3.8q0-1 0-2 1 0 2 0 .5-1.5 1-3c1.7-1.6 1.7-1.6 3.8-3.4 4.2-3.5 8.1-7 11.2-11.6-10.1-11.2-10.1-11.2-21.2-21.4-3.9-3.5-5.5-6.6-6-11.7-.1-5.1.2-8.6 3.2-12.9 4.3-4.2 7.5-7.1 13.6-7.3 1.3-.1 1.3-.1 2.5-.1 8 1.2 13.4 6.3 18.8 11.9q1.2 1.1 2.3 2.3 3.7 3.7 7.4 7.4 2.5 2.6 5.1 5.2 6.8 6.8 13.5 13.6 10.8 10.9 21.7 21.8 3.7 3.8 7.5 7.6 2.3 2.4 4.7 4.7c1 1.1 1 1.1 2 2.1 3.9 4 8 7.7 12.2 11.3 2.3 2 4.5 4.2 6.7 6.4q1.1 1.2 2.3 2.4l1.7 1.7c6.2-5.1 11.8-10.7 17.4-16.3q1.6-1.6 3.1-3.1 4.2-4.2 8.4-8.4 4.4-4.4 8.8-8.8 8.3-8.3 16.6-16.6 9.4-9.5 18.9-18.9 19.4-19.5 38.8-38.9c-1.4-2.9-2.7-4.9-5-7.2-.9-.9-.9-.9-1.9-1.8q-.9-.9-1.9-1.9-2.1-2.1-4.2-4.1-3.3-3.2-6.6-6.4-3.1-3.2-6.3-6.3-1-.9-2-1.9c-5.8-5.7-9.8-11.4-10.3-19.8.5-5.6 2.9-10.5 7.1-14.3 11.2-7.4 21.4-4.2 30.9 4.3zM583.8 215q-.9.9-1.8 1.8-.9.9-1.9 1.8-3 3.1-6.1 6.2-2.1 2.1-4.2 4.2-5.6 5.6-11.1 11.2-5.7 5.7-11.4 11.4-11.2 11.2-22.3 22.4c3.8 4.5 7.6 8.8 11.8 12.9l1.6 1.6q1.8 1.7 3.5 3.5 2.8 2.7 5.6 5.5 7.9 7.8 15.8 15.6 4.8 4.8 9.6 9.6 1.9 1.8 3.7 3.6 2.6 2.6 5.1 5.1c.8.7.8.7 1.6 1.5 3.4 3.5 5.4 6.5 6 11.4-.1 4.3-.3 7.7-2.3 11.7l-.8 2c-1.9 3.2-4.4 3.5-7.8 4.5-7 1.6-11.5.1-17.4-3.5-2.3-1.8-4.3-3.8-6.3-5.9-.9-.8-.9-.8-1.8-1.7q-2.8-2.8-5.6-5.7-2-2-3.9-3.9-5.2-5.2-10.3-10.4-5.3-5.3-10.5-10.6-10.3-10.4-20.6-20.8c-3.8 1.8-6.2 4-9.1 7q-.8.7-1.5 1.5-2.3 2.3-4.6 4.7-3.1 3.1-6.1 6.2-.8.7-1.5 1.5a220.26 220.26 0 0 1-10.1 9.2c-4.9 4.4-9.5 9.2-14.1 13.8q-1.6 1.7-3.2 3.3-3.9 3.9-7.8 7.8c5 6.1 10.5 11.6 16.2 17.2q2.5 2.5 5.1 5 7.3 7.2 14.6 14.4 4.5 4.5 8.9 8.9 1.7 1.7 3.4 3.3 2.4 2.4 4.8 4.7 1.3 1.4 2.7 2.7c3.3 4 5.7 8.6 5.7 13.9-.5 5.3-1.8 8.4-5.8 12.1-4.9 3.4-9.6 4.8-15.6 3.8-4.9-2.1-8.3-4.9-11.9-8.6q-.8-.8-1.7-1.7-2.7-2.7-5.5-5.5-1.9-1.9-3.8-3.8-5-5-9.9-10-5.1-5.2-10.2-10.3-10-10-20-20.1c-3.7 1.7-5.9 3.8-8.7 6.7-2.9 2.9-5.7 5.7-8.8 8.3-5.2 4.5-9.9 9.3-14.7 14.1q-1.4 1.4-2.8 2.9-3.8 3.7-7.5 7.4-3.8 3.8-7.6 7.7-7.5 7.4-14.9 14.9c1.6 4 4.3 6.6 7.3 9.5q.8.8 1.7 1.7 1.7 1.7 3.5 3.5 2.8 2.7 5.6 5.5 6 5.9 11.9 11.8 6.9 6.8 13.8 13.7 2.7 2.7 5.5 5.4 1.7 1.7 3.4 3.4l1.5 1.5c4.3 4.3 6.1 7.3 6.2 13.3-.1 4.7-.7 7.7-3.8 11.3-3.5 3.1-7.1 5.3-11.9 5.5-7.8-.6-13.1-4-18.5-9.6q-.8-.8-1.7-1.6-2.7-2.7-5.3-5.4-1.9-1.9-3.8-3.8-4.9-4.9-9.8-9.9-5-5-10-10-9.8-9.9-19.6-19.8c-5.6 4.6-10.7 9.6-15.9 14.7q-1.3 1.2-2.6 2.5-4.2 4.2-8.4 8.4-.8.7-1.5 1.5-6.8 6.8-13.7 13.6-8.7 8.6-17.4 17.3-6.1 6-12.3 12.2-3.6 3.6-7.3 7.2-4.1 4.1-8.2 8.2-1.2 1.1-2.4 2.3c-10.5 10.7-14.7 22.8-14.7 37.5.4 17.4 10.7 28.4 22.6 40.1q1.6 1.6 3.3 3.2 4.2 4.2 8.4 8.4 4.3 4.3 8.6 8.5 7.5 7.5 15.1 15 2.5 2.5 5.1 5.1c3.1 3.1 6.5 6.1 9.9 9 2.4 2.3 2.4 2.3 4.2 4.6 1.9 2.3 3.6 4 5.8 5.8 4.6 4 8.8 8.3 13 12.7q2.5 2.5 5 5 3.8 3.9 7.6 7.9c13.6 14.1 24.9 23.7 45.1 24.7 18.8-.4 30.9-12 43.2-24.4q2.2-2.2 4.4-4.4 6-6 11.9-12 6.5-6.4 12.9-12.9 11.2-11.1 22.4-22.3 11.7-11.8 23.4-23.5.7-.7 1.4-1.5 3.7-3.7 7.4-7.4 26.2-26.2 52.4-52.4 25.4-25.5 50.9-51 .8-.7 1.6-1.6 7.9-7.8 15.7-15.7 16.1-16.1 32.1-32.2.8-.7 1.5-1.5 49.3-49.3 98.5-98.6c-1.6-3.5-3.5-5.7-6.2-8.5q-1.3-1.3-2.7-2.6-1.4-1.5-2.9-2.9-1.4-1.5-2.9-2.9-3.1-3.1-6.2-6.2-4-4-7.9-7.9-3.1-3.1-6.2-6.1-1.4-1.5-2.9-2.9-2-2.1-4.1-4.1-1.2-1.2-2.3-2.4l-6.3-5.6c-5.6-4.8-10.7-10.1-15.9-15.3q-1.7-1.8-3.4-3.5-3.7-3.6-7.4-7.3-5.7-5.8-11.5-11.6-16.5-16.5-32.9-33-9.1-9.2-18.2-18.3-5.8-5.7-11.5-11.5-3.6-3.6-7.2-7.2-1.6-1.6-3.3-3.3-2.2-2.3-4.5-4.5-1.3-1.3-2.6-2.6c-3.8-3.4-5.1-.9-8.2 2.2z" fill="#012860"/><path d="M799 144q1.7 1.4 3.3 2.8.9.8 1.9 1.6c2.8 2.4 5.4 5 8 7.7q.8.8 1.6 1.6 2.6 2.6 5.1 5.2 1.8 1.7 3.6 3.5 4.2 4.3 8.5 8.6c-1.5 3.4-3.4 5.6-6 8.3-1.3 1.2-1.3 1.2-2.6 2.5q-1.3 1.4-2.8 2.8-1.4 1.5-2.9 3-4 4-8 8-4.2 4.2-8.4 8.4-7.1 7-14.2 14.1-8.1 8.1-16.3 16.2-8.6 8.7-17.3 17.4-2.5 2.5-5 5-3.9 3.9-7.9 7.8-2.1 2.1-4.2 4.3c-12.1 12-12.1 12-18.4 16.2q-6.5-6.3-12.9-12.6-2.2-2.1-4.4-4.3-3.1-3-6.2-6.1-1-1-2-2-.9-.9-1.9-1.8l-1.6-1.6c-1-1.6-1-1.6-.8-3.7 1.1-2.5 2.9-3.7 5-5.4 2.8-2.3 4.9-5.1 7.2-7.8 1.6-1.7 1.6-1.7 4.6-2.7q0-1 0-2c3.4-3.6 7.1-6.9 10.8-10.2 8.6-7.8 8.6-7.8 16.4-16.3 6.3-7.3 13.2-14 20-20.8q2.1-2.1 4.2-4.2 5.4-5.4 10.8-10.8 5.6-5.5 11.1-11.1 10.8-10.8 21.7-21.6z" fill="#fbfcfd"/><path d="M255 688c4.7 3.9 9 7.9 13.3 12.2.8.9.8.9 1.7 1.8q2.7 2.6 5.3 5.3 3.5 3.6 7.1 7.1.8.8 1.6 1.7c2.7 2.8 2.7 2.8 6 4.9q0 1 0 2c-1.4 1.4-1.4 1.4-3.4 3-3.3 2.8-6.3 5.7-9.3 8.7-1.2 1.3-1.2 1.3-2.4 2.5q-2.5 2.6-4.9 5.1c-5.5 5.6-9.5 9.2-17.5 10.1-8.9-1-14.4-6-20.5-12.4-3.8-5.1-5.1-10.1-5.3-16.4q-.1-1.3-.1-2.7c.9-6.2 5.7-10.5 10-14.7q.8-.8 1.6-1.6 2.5-2.5 5.1-5 1.7-1.7 3.4-3.4 4.1-4.1 8.3-8.2z" fill="#3489d1"/><path d="M401 350q.5 1 1 2-16.5 16.5-33 33-.7.7-1.5 1.5Q292.3 461.7 217 537c0-3 0-3 1.2-4.6l1.7-1.6 1.9-2q1.1-1.1 2.2-2.1l2.3-2.3q3.8-3.8 7.6-7.6 2.7-2.8 5.4-5.5 5.9-5.8 11.8-11.7 8.5-8.5 17-16.9 13.7-13.8 27.5-27.5 13.4-13.4 26.8-26.8.8-.8 1.7-1.6 4.1-4.1 8.2-8.3 34.3-34.3 68.7-68.5z" fill="#010d47"/><path d="M535 608c0 4-1.3 4.9-4 7.8q-1.1 1.2-2.3 2.4c-2 2.1-4 3.9-6.2 5.8-5.3 4.6-10.2 9.5-15.1 14.5q-1.6 1.6-3.2 3.1-4.2 4.2-8.4 8.4-4.4 4.5-8.8 8.9-7.4 7.4-14.8 14.8-8.6 8.6-17.2 17.1-7.3 7.4-14.7 14.8-4.4 4.4-8.8 8.8-4.1 4.1-8.3 8.2-1.5 1.5-3 3.1-2.1 2-4.1 4.1-1.2 1.1-2.3 2.3c-1.9 1.8-1.9 1.8-2.8 3.9-2.9 1.7-2.9 1.7-6 3q-1-.5-2-1 .8-.5 1.5-1.1c7.2-5.4 13.5-11.6 19.8-18q1.8-1.8 3.7-3.6 4.9-4.9 9.7-9.8 5.2-5.2 10.3-10.3 9.7-9.8 19.4-19.5 11.1-11.1 22.1-22.1 22.8-22.8 45.5-45.6z" fill="#0c166b"/><path d="M583 216c0 3 0 3-1.4 4.6l-1.8 1.8q-.9.8-1.8 1.7-1 .9-2 1.9-2.5 2.5-5 5-2.2 2.2-4.5 4.5l-2.6 2.6Q545 257 526 276c0-3.7 1.1-4.5 3.6-7q.8-.8 1.6-1.6.9-.8 1.7-1.7 2.8-2.7 5.6-5.5 1.9-1.9 3.8-3.8 5.1-5 10.1-10 5.2-5.2 10.3-10.3Q572.9 226 583 216z" fill="#f3cd02"/><path d="M445 358c3.9 1.6 6.5 4.3 9.4 7.2q.8.8 1.6 1.6 2.4 2.4 4.8 4.8 1.6 1.7 3.2 3.3 4 4.1 8 8.1-1 1-2 2-.6-.6-1.1-1.2C458 370.5 458 370.5 445 360q0-1 0-2z" fill="#182067"/><path d="M373.8 740.8c5.8 0 11.5.1 17.2 1.2-6.4 3.8-14.9 2.3-22 1 2-2 2-2 4.8-2.2z" fill="#eebc05"/><path d="M577 566c0 4-1.3 5-4 8q-3 2.5-6 5-1.3 1.4-2.7 2.8C562 584 562 584 559 584l18-18z" fill="#151e67"/><path d="M583 216c0 3 0 3-1.4 4.6q-.9.9-1.8 1.8-.9.9-1.9 1.8-1 .9-1.9 1.8-1.3 1.3-2.6 2.6-3.7 3.7-7.4 7.4-1-.5-2-1l19-19z" fill="#e9c405"/><path d="M380 419c0 3.9-1.5 5.1-4 8-2 2-2 2-4.4 3.9-2 1.6-3.8 3.2-5.6 5.1q-1-.5-2-1l16-16z" fill="#e6c006"/><path d="M535 608c0 4.1-1.7 5.2-4.5 8.2q-1.2 1.3-2.5 2.7-1 1-2 2.1-1-1-2-2l11-11z" fill="#172366"/><path d="M525 225q1.5.5 3 1l-9 8q-1-.5-2-1l8-8z" fill="#1d2e5c"/><path d="M500 250q1.5 1 3 2c-2.5 3.1-5.2 3.9-9 5l6-7z" fill="#183061"/><path d="M473 326c0 4.4-2.1 5.8-5 9q-.5-1.5-1-3l6-6z" fill="#d4b30f"/><path d="M346 770c2.8-.3 2.8-.3 6 0 2.4 2 2.4 2 4 4-4.2-.5-6.8-1.2-10-4z" fill="#091c4e"/><path d="M649 494c0 3 0 3-2.5 5.7q-1.2 1.1-2.5 2.3-1-.5-2-1l7-7z" fill="#2a305d"/><path d="M328 712c3.4 1.4 5 3 7 6-3.2-.6-4.9-1.4-7-4q0-1 0-2z" fill="#152466"/><path d="M249 551q.5 1.5 1 3l-6 5q-1-.5-2-1l7-7z" fill="#fcd200"/><path d="M459 340q.5 1 1 2l-4 5q-1.5-.5-3-1l6-6z" fill="#dbb70b"/></svg>