<svg xmlns="http://www.w3.org/2000/svg" width="1024" height="1024" xmlns:v="https://vecta.io/nano"><path fill-rule="evenodd" d="M300.6 58.3c10 5.9 13.2 13.9 16.4 24.7v45h390c0-7.5-4.9-38.9 2.4-53.9q.8-1.5 1.7-2.9 1.4-2.6 2.9-5.2 1 0 2 0c.7-1.9.7-1.9 2-4 5.7-4.4 11.8-6.3 18.9-6.6h2.4c9.4 0 15.8 3 22.6 9.4 7.6 8.1 9.3 17.9 9.3 28.7q0 1.4 0 2.7 0 4.2 0 8.5-.1 3-.1 5.9 0 6.9-.1 13.7 0 1.9 0 3.7 16.5 0 33 0 8.4-.1 16.9-.1 8.2 0 16.5 0 3.1 0 6.3 0 4.5 0 9 0 1.4 0 2.8 0c19-.1 35.8 5.5 49.5 19.1 17.4 19.1 20.6 39.9 20.5 64.8q0 4.9 0 9.8 0 8.7 0 17.3 0 12.9 0 25.8.1 23 0 46.1 0 20.3 0 40.6 0 1.3 0 2.7 0 5.4 0 10.9.1 51.2 0 102.4 0 45.6 0 91.1.1 51.3 0 102.6 0 5.5 0 11 0 1.3 0 2.7 0 20.3 0 40.6.1 23.2 0 46.4 0 12.9 0 25.9 0 8.7 0 17.5 0 4 0 8c0 9 .2 17.9-.5 26.8-3.1 22.8-13.5 46.1-31.4 61q-1.3 1-2.6 2c-21.3 16.8-42.9 20.6-69.5 20.5q-5.1 0-10.1 0-8.9 0-17.7 0-13.3 0-26.5 0-22.3 0-44.6 0-22.2-.1-44.4-.1-1.4 0-2.8 0-5.6 0-11.2 0-51.1 0-102.1 0-48.2-.1-96.5-.1-1.5 0-3 0-7.5 0-15 0-1.5 0-3 0-3 0-6 0-47.6 0-95.1-.1-13.9 0-27.8 0-29.4 0-58.7 0-12.2 0-24.3 0-10.2 0-20.3 0-4.1 0-8.2-.1-5.7 0-11.4 0h-3.4c-4.6 0-9.2.1-13.7-.3-20.7-2.4-41.5-13.3-54.8-29.3q-1-1.3-1.9-2.5c-16.1-20.8-19.5-41.3-19.4-67q0-5 0-10.1 0-8.8 0-17.6 0-13.2 0-26.4 0-22.2 0-44.4.1-22.1.1-44.2 0-1.4 0-2.7 0-5.6 0-11.2 0-50.8 0-101.5.1-48.1.1-96.1 0-1.5 0-3 0-6 0-11.9 0-3 0-6 0-3 0-5.9 0-47.4 0-94.7 0-13.8 0-27.6 0-29.3 0-58.5 0-12.1 0-24.2 0-10.1.1-20.1 0-4.1 0-8.2 0-5.7 0-11.4 0-1.7 0-3.4 0-1.6 0-3.1 0-1.5 0-2.9 0-1.3 0-2.5c.8-15.6 9.4-28.8 20.1-39.4 16.4-15.3 35.4-19.6 57.1-19.4q3.1 0 6.2 0 8.2 0 16.3.1 8.5.1 17 .1 16.4.1 32.9.2 1.8 0 3.5 0-.1-7.8-.1-15.5-.1-3.2-.1-6.4-.1-4.6-.1-9.3 0-1.5 0-3c-.2-9.6.8-18.5 7-26.3q.7-.8 1.3-1.5c9.7-11.6 26.1-13.6 39.6-7.7z" fill="#fefedf"/><path d="M300.6 58.3c10 5.9 13.2 13.9 16.4 24.7v45h390V82c2.1-6.3 3.7-10.6 7-16q1 0 2 0 .3-.9.7-1.8c2.8-4.8 8.2-6.6 13.3-8.2 8.8-1.4 18.2-1.3 26 3.5 7.8 5.8 12.8 12.7 14.6 22.6.5 4.6.5 9.1.5 13.8q0 1.3 0 2.8 0 4.4 0 8.7 0 3-.1 6 0 7.3 0 14.6 1.7 0 3.5 0 16.3-.1 32.6-.1 8.4 0 16.8-.1 8.1 0 16.3 0 3 0 6.1 0c23.3-.1 41.5 3.2 59.1 19.4 13.9 14.8 19.8 32.6 19.7 52.6q0 1.7 0 3.4.1 5.5.1 11.1 0 4 0 8 0 9.9 0 19.8 0 11.9 0 23.7.1 28.6.1 57.3 0 9.5 0 19 0 50.5 0 100.9 0 11.7.1 23.4 0 1.5 0 3 0 47.1 0 94.1.1 48.5.1 96.9 0 6.8 0 13.7 0 1.3 0 2.7 0 21.6.1 43.3 0 21.8 0 43.5 0 13 0 25.9 0 8.6 0 17.3 0 4.9 0 9.8c.2 31.3-6.9 58.7-28.8 81.8-17.6 16.4-39.6 25-63.5 24.9q-1.7 0-3.5 0-5.6 0-11.3 0-4.2 0-8.3 0-8.9 0-17.9 0-13.3 0-26.7 0-25.1 0-50.3 0-19.5 0-38.9 0-2.8 0-5.6 0-4.2 0-8.4 0-39.2 0-78.4 0-1.4 0-3 0-7.4 0-14.9 0h-3q-3 0-6 0-46.8 0-93.5 0-52.6.1-105.1.1-5.6 0-11.2 0h-2.8q-20.8 0-41.6 0-23.7 0-47.4 0-13.2 0-26.5 0-8.8 0-17.7 0-5 0-10.1 0c-30.6.1-55.6-5.2-78.2-27.4-10.2-10.8-17.6-24.6-21-39q-.3-1.1-.5-2.2c-1.5-6.5-1.8-12.7-1.8-19.4q0-1.6 0-3.4 0-5.6 0-11.3 0-4.1 0-8.2 0-8.9 0-17.8 0-13.3 0-26.6 0-25 0-50.1 0-19.3 0-38.7 0-2.8 0-5.5 0-4.2 0-8.4 0-39 0-77.9 0-1.5 0-3 0-7.4 0-14.9 0-1.5 0-3 0-3 0-5.9 0-46.6 0-93.1-.1-52.2-.1-104.5 0-5.6 0-11.2 0-1.3 0-2.7 0-20.7 0-41.5 0-23.5 0-47.1 0-13.1 0-26.3 0-8.8 0-17.6 0-5.1 0-10.1 0-5.4 0-10.8 0-1.5 0-3.1c.1-17.9 7.4-32.3 19.6-45 10.1-9.7 21.4-15.3 34.8-18.7q.9-.3 1.9-.5c2.1-.5 4-.6 6.2-.6h2.4 2.7q1.4 0 2.8 0 4.6 0 9.2 0 3.2 0 6.3 0 8.4 0 16.8 0 8.6 0 17.1.1 16.8 0 33.6 0v-4q-.1-7.3-.2-14.7 0-3.1 0-6.3-.1-4.6-.1-9.2 0-1.4 0-2.8c0-10.1 2.5-19.3 9.3-27 10.9-9 25.5-11.5 38.6-5.7zM116 269l-.2 286.6-.1 90.6v53.5q0 19.1 0 38.1 0 19.5 0 39 0 11.5-.1 23.1 0 8.5 0 17.1 0 3.4 0 6.9c-.1 24.4 3.7 44.3 21 62.8 20 19.2 43.4 19.8 69.5 19.7q4.2 0 8.3 0 9 0 17.9 0 13.3 0 26.6 0 23.8 0 47.6 0 20.8 0 41.6 0 1.4 0 2.8 0 5.6 0 11.2 0 52.5 0 105.1-.1 46.7 0 93.4 0 3 0 6 0 1.5 0 3 0 7.4 0 14.9 0 1.5 0 3 0 39 0 78 0 4.2 0 8.4 0 2.8 0 5.6 0 19.4 0 38.8 0 25.1 0 50.1 0 13.2 0 26.4 0 8.9 0 17.7 0 5 0 10.1 0 5.4 0 10.8 0 1.6 0 3.2 0c19.2-.1 36-7.7 50-20.8 19.7-20.5 22.7-43.4 22.6-70.5q0-3.6 0-7.1.1-8.7 0-17.3 0-10.6 0-21.1 0-19.3 0-38.7 0-26.1 0-52.3 0-62.9-.1-125.7L909 269H116z" fill="#15a0b8"/><path d="M657.1 345.6q1.4 0 2.8-.1c9.2 1.5 15.7 9.7 22 16.1q2.5 2.5 5 5.1c4.9 4.9 9.8 10 14.4 15.3 3.7 4.2 7.7 8.1 11.6 12 1.3 1.3 1.3 1.3 2.7 2.6q3.2 3.2 6.4 6.4c4.1-2.3 7-4.9 10.3-8.3 3.2-3.2 6.3-6.3 9.8-9.3 3.1-2.6 6-5.5 8.9-8.4 3.5-3.5 7.1-6.9 10.9-10.1 3.5-3.1 6.9-6.4 10.4-9.6 7-6 7-6 11.7-6.8 7.2 1.2 12.2 7.3 17 12.5 2.5 3.8 2.4 5.5 2 10-3.8 9.2-12.4 15.7-19.8 22-2.8 2.6-5.5 5.3-8.2 8-3.8 3.8-7.7 7.5-11.8 11-3.8 3.4-7.3 7.1-10.8 10.7q-2.2 2.2-4.4 4.3-1 0-2 0c5.5 6.5 11.4 12.5 17.5 18.5 5.4 5.4 10.8 10.7 15.7 16.5 4.2 4.7 8.9 9.1 13.5 13.5 8.7 8.5 8.7 8.5 9.7 15.3 0 5.9-.3 9.6-4.4 14.2-4.9 4.4-8.9 6.6-15.5 6.4-7.8-1.2-13.2-5.4-17.8-11.5-2-2.2-4.1-3.4-6.7-4.9q-1.2 1.3-2.5 2.6-4.7 4.7-9.5 9.4-2 2-4 4.1-2.9 2.9-5.9 5.9-.9.9-1.8 1.8c-2.9 2.9-5.9 5.7-9 8.4-5 4.3-9.6 8.9-14.2 13.6q-2.4 2.4-4.8 4.9-5.2 5.1-10.3 10.3-6 6-11.9 12-2.4 2.4-4.8 4.8-1.5 1.4-2.9 2.9-1.3 1.3-2.6 2.6a193.75 193.75 0 0 1-6.7 6.1c-3.8 3.3-7.5 6.8-11 10.4q-1 1-2 2-2 2.1-4.1 4.1-3.3 3.3-6.6 6.6-6.9 7-13.9 14-8.1 8.1-16.2 16.2-3.2 3.2-6.4 6.5-2 2-4 4-.8.8-1.7 1.8c-3.7 3.6-7.5 7.1-11.4 10.4-2 1.7-3.8 3.5-5.6 5.4q-1 .9-1.9 1.9-1 1.1-2 2.1-2.2 2.2-4.4 4.5-3.4 3.4-6.8 6.9c-14.5 15-30.6 29.3-52.7 30-23.2.3-23.2.3-31.4-4.4-2.7-1.1-4.2-.6-7 .2-2 1.4-2 1.4-3.7 3.3q-1 1-2 2.1-1.1 1.1-2.2 2.2-1.1 1.2-2.3 2.4-4.8 4.9-9.6 9.9-3.5 3.6-7 7.2l-2.2 2.2c-4.6 4.7-8.5 8-15.2 9.1q-.9-.1-1.8-.1-.9 0-1.8 0c-3.2-.4-6.1-1.4-9.2-2.3q-.9.9-1.7 1.7-8.1 8.2-16.3 16.3-4.1 4.2-8.3 8.4-4 4-8.1 8.1-1.5 1.5-3 3.1c-5.2 5.1-10.4 10.2-15.9 15q-1.7 1.4-3.3 2.9c-3.4 3-5.8 4.4-10.4 4.5-2.9-.7-4.6-1.6-6.8-3.6-1.9-3.9-2.1-7.2-1.2-11.4 1.2-1.8 1.2-1.8 2.8-3.5q.9-1.1 1.9-2.1l14.6-14.8q1.7-1.7 3.5-3.5 4.6-4.6 9.2-9.2 4.8-4.7 9.5-9.5 9.2-9.2 18.5-18.4-.5-1-1.1-2-.7-1.3-1.4-2.7l-1.4-2.6c-1.8-4.3-1.7-8.3-.1-12.7 4.2-7.1 10.4-12.7 16.3-18.5q2.4-2.4 4.8-4.7c5-5 10-9.9 15.5-14.4 1.7-1.5 1.7-1.5 2.4-4.4-1.2-2.9-1.2-2.9-2.8-6-6.2-13-7.8-29.6-3.2-43.4q.5-1.3 1-2.6.5-1.4 1.1-2.9c6.8-15.3 21.8-27.2 33.5-38.9q3.8-3.8 7.7-7.7 2.4-2.4 4.8-4.9 1.2-1.1 2.3-2.3 1.1-1 2.2-2.1.9-.9 1.8-1.9c1.6-1.3 1.6-1.3 3.6-1.3q.4-.9.8-1.8c1.3-2.4 2.6-3.6 4.7-5.3 4.8-4.1 9.2-8.5 13.6-13q2.2-2.2 4.4-4.4 6.3-6.3 12.6-12.7 3.8-3.8 7.7-7.7 1.4-1.5 2.9-3 2-2 4.1-4.1 1.1-1.1 2.3-2.3c1.9-1.7 1.9-1.7 3.9-1.7q.5-1.5 1-3c1.6-1.6 1.6-1.6 3.6-3.2 4.2-3.6 8-7.3 11.9-11.2l2.1-2.1q2.3-2.3 4.5-4.5 3.6-3.6 7.2-7.2 7.6-7.7 15.2-15.3 8.8-8.9 17.6-17.7 3.6-3.5 7.1-7.1 2.1-2.1 4.3-4.3 1-1 2-2c3.7-3.7 7.6-7.3 11.6-10.8 3.3-2.8 6.3-5.8 9.3-8.8l1.8-1.8q.9-.9 1.8-1.8l1.6-1.6c1.5-1.7 2.4-3.5 3.4-5.6q-.7-.7-1.4-1.4-1.8-1.8-3.7-3.7-2.3-2.3-4.7-4.6c-4.5-4.7-6.3-8-6.5-14.6.1-5.6.9-9.3 5-13.4 4.2-3.6 6.8-5.5 12.4-5.7z" fill="#ea6300"/><path d="M100 253l824 1 .3 293.9.1 92.9v54.9q0 19.5 0 39.1.1 19.9.1 39.9-.1 11.9 0 23.7 0 8.8 0 17.6 0 3.5 0 7c.1 29.2-7.3 53.9-27.7 75.4-17.6 16.4-39.6 25-63.5 24.9q-1.7 0-3.5 0-5.6 0-11.3 0-4.2 0-8.3 0-8.9 0-17.9 0-13.3 0-26.7 0-25.1 0-50.3 0-19.5 0-38.9 0-2.8 0-5.6 0-4.2 0-8.4 0-39.2 0-78.4 0-1.4 0-3 0-7.4 0-14.9 0h-3q-3 0-6 0-46.8 0-93.5 0-52.6.1-105.1.1-5.6 0-11.2 0h-2.8q-20.8 0-41.6 0-23.7 0-47.4 0-13.2 0-26.5 0-8.8 0-17.7 0-5 0-10.1 0c-30.6.1-55.6-5.2-78.2-27.4-10.1-10.8-17.6-24.6-21-39-.3-1.1-.3-1.1-.5-2.3-1.4-6.1-1.8-11.9-1.7-18.2q0-1.5-.1-3.1 0-5.1.1-10.2 0-3.6 0-7.3-.1-8 0-16 0-12.1 0-24.1 0-20.2 0-40.4 0-27.4 0-54.7 0-65.6.1-131.3L100 253zm16 16l-.2 286.6-.1 90.6v53.5q0 19.1 0 38.1 0 19.5 0 39 0 11.5-.1 23.1 0 8.5 0 17.1 0 3.4 0 6.9c-.1 24.4 3.7 44.3 21 62.8 20 19.2 43.4 19.8 69.5 19.7q4.2 0 8.3 0 9 0 17.9 0 13.3 0 26.6 0 23.8 0 47.6 0 20.8 0 41.6 0 1.4 0 2.8 0 5.6 0 11.2 0 52.5 0 105.1-.1 46.7 0 93.4 0 3 0 6 0 1.5 0 3 0 7.4 0 14.9 0 1.5 0 3 0 39 0 78 0 4.2 0 8.4 0 2.8 0 5.6 0 19.4 0 38.8 0 25.1 0 50.1 0 13.2 0 26.4 0 8.9 0 17.7 0 5 0 10.1 0 5.4 0 10.8 0 1.6 0 3.2 0c19.2-.1 36-7.7 50-20.8 19.7-20.5 22.7-43.4 22.6-70.5q0-3.6 0-7.1.1-8.7 0-17.3 0-10.6 0-21.1 0-19.3 0-38.7 0-26.1 0-52.3 0-62.9-.1-125.8L909 269H116z" fill="#0b2751"/><path d="M674 409c3.2 1.5 5.3 3.1 7.8 5.7q1.1 1.1 2.2 2.2 1.1 1.1 2.3 2.3c4.9 5 9.8 9.9 15.3 14.4l1.4 1.4q0 1 0 2 .9.4 1.8.8c2.2 1.2 3.5 2.4 5.2 4.2q.8.9 1.6 1.9.9.9 1.7 1.8c3.8 4.3 7.7 8.3 12.2 12 1.8 1.6 3.4 3.3 5 5.2 3.3 3.9 6.8 7.5 10.5 11.1-1.4 3.2-3.1 5.4-5.6 7.8q-1.1 1.1-2.2 2.3-1.2 1.1-2.4 2.4-1.3 1.2-2.5 2.4-2.6 2.7-5.2 5.3-4 3.9-8 7.9-2.5 2.5-5.1 5-1.1 1.2-2.4 2.4c-3.4 3.4-6.8 6.7-10.4 9.8-5.1 4.4-9.7 9.1-14.4 13.9q-2.6 2.5-5.1 5-5.3 5.4-10.7 10.8-6.2 6.3-12.4 12.5-2.5 2.5-5 5c-8.3 8.3-8.3 8.3-12.4 11.8-6.6 5.7-12.7 12-18.8 18.2q-2.1 2.1-4.2 4.2-5.6 5.6-11.1 11.2-5.7 5.6-11.3 11.3-9.1 9.1-18.2 18.2-1.6 1.6-3.1 3.1-2.2 2.2-4.3 4.3c-2.1 2.1-4.3 4.1-6.6 6.1-3.9 3.4-7.5 7-11.1 10.7-11.2 11.6-22.7 20.3-39.4 20.9-13.8-.5-25.2-5.9-35.4-15.1-9.5-10.2-13.4-22.8-13.8-36.5 1-18.5 16.6-31.9 29.4-43.7 7.6-7.1 14.9-14.3 22.2-21.7q.8-.8 1.7-1.7 7.6-7.6 15.2-15.3 4.2-4.3 8.5-8.5 1.6-1.6 3.1-3.2 2.2-2.3 4.5-4.5 1.2-1.2 2.5-2.5c2-1.8 2-1.8 4-1.8q.4-.9.8-1.9c1.4-2.5 2.6-3.1 5.2-4.1q0-1 0-2c1.3-1.3 1.3-1.3 3.2-2.9 5.4-4.6 10.4-9.6 15.4-14.7q2.7-2.6 5.3-5.2 5.6-5.6 11.2-11.3 6.4-6.5 12.9-13 2.6-2.6 5.2-5.2c5.1-5.1 10.2-10 15.8-14.7q2.5-2.5 5-5 2.3-2.3 4.5-4.5 1.3-1.3 2.6-2.6 18-18 35.9-35.9z" fill="#f1ab00"/><path d="M440.3 405.5c4.9 2.8 8.2 7.5 10.7 12.5.3 2.3.3 2.3.4 5q0 1.3.1 2.7c-1.3 8.4-7 15.9-11.7 22.8q-.9 1.3-1.8 2.7-2.8 4.1-5.6 8.3-1.8 2.7-3.6 5.5-3.7 5.4-7.3 10.8-4.9 7.3-9.8 14.6-7.9 11.9-16 23.8c-.6 1-.6 1-1.3 2q-10.8 15.8-21.7 31.5-6.2 8.9-12.3 17.8-4.8 7-9.6 14-2.6 3.6-5.1 7.2-4.4 6.4-8.9 12.7-2.6 3.8-5.3 7.7-1.6 2.4-3.3 4.8-.7 1.1-1.5 2.2c-4.3 6.1-10.1 11.5-17.7 12.9-3 .1-3 .1-6.3-.1l-3.2-.2c-7.8-1.6-12.6-6.4-17.3-12.5q-.7-1-1.5-2-2.4-3.1-4.7-6.2-.7-.9-1.5-1.9-3.6-4.9-7.2-9.7L256 579.5q-7.2-9.4-14.3-18.8-.7-1-1.4-1.9-3.7-5-7.4-10c-4.4-5.9-8.9-11.9-13.7-17.6-16-19.4-16-19.4-15.5-29.9.9-6.1 3.5-10 8.3-13.7 6.1-4.4 12.7-4.3 20-3.6 8.2 3.7 13.8 13 18.9 20.2 5.5 7.7 11.2 15.3 17 22.8q7 9.2 14 18.5l12.8 17.1q1.2 1.4 2.3 3c1.6 1.9 3.2 3.6 5 5.4 6.4-8.4 12.7-16.9 18.7-25.6l7.9-11.3q7.2-10.3 14.4-20.6 10.7-15.4 21.5-30.6 9.6-13.6 19.1-27.3 3.7-5.5 7.5-10.9 2.3-3.2 4.5-6.4c5.6-8.3 11.3-16.4 17.4-24.3.8-1.1.8-1.1 1.7-2.2 6.5-8.1 15.8-10.5 25.6-6.3z" fill="#ea6a00"/><path d="M753.7 58.1c8.4 5.1 13.2 11.5 16.3 20.9 1 5.7 1.1 11.2 1.1 17v2.9q0 4.8 0 9.6 0 3.4 0 6.7 0 7.1 0 14.1 0 9 0 18 0 6.9 0 13.8 0 3.4 0 6.7 0 4.6 0 9.2 0 1.4 0 2.8c0 11.2-2 20-9.7 28.5-6.2 5.8-13.7 8.9-22.2 9.1-10.4-.5-18.2-3.9-25.5-11.6-5.9-7.6-7.3-15.5-7.2-24.9q0-1.6 0-3.2 0-5.2 0-10.4 0-3.7 0-7.3 0-7.6 0-15.3.1-9.7 0-19.5 0-7.5.1-15 0-3.6 0-7.2 0-5 0-10 0-1.5 0-3c.1-9.2 2.6-16.2 7.4-24q1 0 2 0 .3-.9.7-1.8c6.5-11 26.6-10.9 37-6.1zm-453.1.2c8.6 5.1 13 12.6 15.8 21.9 1 4.6 1 9 1 13.7V97q.1 5.1.1 10.2 0 3.5 0 7.1 0 7.5 0 14.9 0 9.6.1 19.1 0 7.4 0 14.7 0 3.5 0 7c.2 27.9.2 27.9-10.6 39.3-8.4 7-17.4 8.3-28 7.7-8.9-1.3-15.4-7.3-20.7-14.3-2.8-4.4-4.4-8-4.4-13.3q0-1.5-.1-2.9 0-1.6 0-3.2 0-1.6 0-3.3 0-5.5 0-10.9 0-3.8 0-7.6 0-7 0-14 0-10.2-.1-20.4 0-8.8 0-17.7 0-3.8 0-7.5-.1-5.3-.1-10.6 0-1.5 0-3.1c.1-9.1 2.5-17.1 8.4-24.2 10.9-9 25.5-11.5 38.6-5.7z" fill="#01455e"/><path d="M116 269h793l.1 284.1.1 89.9v52.9q0 19 0 37.9 0 19.3 0 38.6 0 10.4 0 20.9.1 9.5 0 18.9 0 3.4 0 6.9.1 4.6 0 9.3.1 1.3.1 2.7c-.1 4.7-.5 8.5-2.3 12.9-.8-2.8-1.1-5.3-1.1-8.1v-2.5q0-1.4 0-2.8v-2.9q0-4.9 0-9.8 0-3.5 0-7 0-8.7.1-17.4 0-10.5 0-21.1 0-19.4.1-38.7 0-26.2.1-52.4.1-63 .2-126.1L907 271H118l-.1 276v87.1 51.6q0 18.4 0 36.7 0 18.8 0 37.5 0 10.2 0 20.3 0 9.2 0 18.4 0 3.4 0 6.7c0 14.9.4 29.8 1.1 44.7q-1 .5-2 1c-1-5.7-1.1-11.1-1.1-16.8q0-1.5 0-3 0-4.9 0-9.9 0-3.5 0-7.1 0-7.7 0-15.5 0-11.7 0-23.3 0-19.6 0-39.2 0-26.4 0-52.9 0-63.6 0-127.2L116 269z" fill="#e8ebdf"/><path d="M181.7 919.9q1.5 0 3 0h3.2q1.7 0 3.5 0 4.8 0 9.6 0 5.2 0 10.4 0 9.1 0 18.3 0 13.5 0 27.1 0 22.9 0 45.7 0 22.6 0 45.3 0h2.8q7.1 0 14.3 0 50.6 0 101.1 0 49.2 0 98.3 0 1.6 0 3.1 0 15.2 0 30.4 0 31 .1 62 .1h2.9q95.1 0 190.3 0c-4.2 2.8-7.9 3.1-12.9 3.1q-1.4 0-2.9 0-1.6 0-3.2 0-1.7 0-3.4 0-5.8 0-11.5 0-4.1 0-8.3 0-9 0-18 0-13.3 0-26.7.1-25.3 0-50.6 0-19.5 0-39 0-5.6 0-11.3 0-1.3 0-2.8 0-39.2 0-78.5 0-1.5 0-3 0-7.5 0-15 0h-3q-3 0-6 0-47 0-93.9 0-52.7 0-105.4 0-5.6 0-11.2 0h-2.8q-22.3 0-44.6 0-22.3.1-44.7 0-13.3 0-26.6.1-8.9 0-17.8 0-5-.1-10.1 0-5.5 0-10.9-.1-1.6.1-3.2.1c-1.5 0-1.5 0-2.9-.1h-2.5c-2.5-.2-4.2-1-6.3-2.2 2.9-1 4.7-1.1 7.7-1.1z" fill="#20365b"/><path d="M407 730c3.9 1.8 6.3 4.1 9.3 7.1q1.3 1.4 2.7 2.8 1 1 2 2.1c-4.3 5.2-8.9 10-13.8 14.6-2.1 2.1-4 4.1-5.5 6.7-2.1 3.3-4.6 5.9-7.4 8.6q-.8.9-1.7 1.7-1.7 1.8-3.5 3.5-2.7 2.6-5.3 5.3c-5.3 5.2-10.5 10.4-16.2 15.2q-1.6 1.4-3.2 2.9c-3.4 3-5.8 4.4-10.4 4.5-2.9-.7-4.6-1.6-6.8-3.6-1.9-3.9-2.1-7.2-1.2-11.4 1.2-1.8 1.2-1.8 2.8-3.5.9-1.1.9-1.1 1.9-2.1q6.3-6.6 12.8-13.1 2.4-2.4 4.9-4.9 1.5-1.6 3.1-3.1.7-.8 1.5-1.5c2-2.1 4-3.8 6.5-5.3 3.3-2 5.8-4.5 8.5-7.3q.8-.8 1.6-1.6 2.6-2.7 5.2-5.3 1.8-1.8 3.6-3.6 4.3-4.3 8.6-8.7z" fill="#ec7b01"/><path d="M615.3 473.8c7.6 2.5 12.8 8 17.9 14.1 2.7 3.1 5.9 5.8 9.1 8.4q.8.9 1.7 1.7 0 1 0 2 .9.4 1.7.7c4.4 2.5 7.6 6.1 10.3 10.3.8 3.2.9 5.9 0 9-1.5 2-2.5 2.9-4.9 3.5-6.4.3-9.6-1.8-14.4-5.8-1.7-1.7-1.7-1.7-1.7-3.7q-.8-.4-1.7-.7c-4.8-2.7-8.5-7.1-12.3-11q-1.3-1.3-2.7-2.7c-10.6-10.5-10.6-10.5-11.9-17.7 1-5.2 3.6-7.7 8.9-8.2z" fill="#503600"/><path d="M565 526c8.7 4.7 15.6 13.3 21.9 20.7 3.4 3.8 7.1 7.3 10.7 10.9 5.3 5.2 5.3 5.2 5.7 9.8-.3 3.6-.3 3.6-1.8 6-2.8 1.8-5 2.4-8.4 2.2-2.6-.7-3.8-1.7-5.8-3.5q-1-1-2.1-2c-4-3.8-7.9-7.8-11.8-11.7-6.2-6.4-6.2-6.4-12.8-12.3-3.5-2.9-5.7-6-7.5-10.2-.2-3.4 1.2-5.9 3.1-8.7 3.1-2 5.2-1.7 8.8-1.2z" fill="#274300"/><path d="M636 411q1 .5 2 1-1.7 1.8-3.5 3.6-1 .9-2 2c-1.9 1.9-3.9 3.6-6 5.4-5.1 4.5-9.9 9.3-14.7 14.1q-1.4 1.4-2.8 2.9-3.8 3.7-7.5 7.4-3.8 3.8-7.6 7.7-7.5 7.4-14.9 14.9-1-.5-2-1 10.6-10.7 21.3-21.4 5-4.9 9.9-9.9 4.8-4.8 9.6-9.5 1.8-1.9 3.6-3.7 2.5-2.6 5.1-5.1.7-.8 1.5-1.5c2.5-2.6 5.1-4.8 8-6.9z" fill="#e84e03"/><path d="M423 686q.5 1 1 2c-4.4 5.1-8.9 10-13.8 14.7q-.9.9-1.9 1.9-.9.8-1.7 1.7c-1.7 1.8-2.6 3.5-3.6 5.7q-.5-1.5-1-3c3.3-6.2 8.9-11.2 13.9-16q1-1 2.1-2.1 2.5-2.4 5-4.9z" fill="#eb600f"/><path d="M591 660q.5 1 1 2c-7.1 8.8-7.1 8.8-12 10 3.5-4.2 7.1-8.2 11-12z" fill="#fceed3"/><path d="M636 411q1 .5 2 1-1.9 2-3.8 3.9-1 1.1-2.1 2.3c-2.1 1.8-3.3 2.4-6.1 2.8 6.2-7.5 6.2-7.5 10-10z" fill="#e95c10"/><path d="M573 473q.5 1.5 1 3l-8 7q-1-.5-2-1l9-9z" fill="#e84e01"/><path d="M538 507q1.5.5 3 1l-7 7q-1-1-2-2l6-6z" fill="#eb5f0d"/><path d="M534 710c-1.2 1.6-1.2 1.6-3 3-2.7-.3-2.7-.3-5-1 3.2-2.2 4.3-2.2 8-2zm-10 3l4 1zm-3 1l3 1z" fill="#fcf5d6"/><path d="M548 497q1 .5 2 1l-6 7q-1.5-.5-3-1l7-7z" fill="#ed661c"/><path d="M652 386l4 2c0 3 0 3-1.5 4.7q-.7.6-1.5 1.3l-1-8z" fill="#fbf1db"/><path d="M487 557q.5 1 1 2l-5 6q-1.5-.5-3-1l7-7z" fill="#ec691c"/><path d="M445 602c0 3 0 3-2 5.2q-1 .9-2 1.8-1-.5-2-1c2.6-4.9 2.6-4.9 6-6z" fill="#e95d09"/><path d="M667 585c0 3 0 3-2.5 5.7q-1.2 1.1-2.5 2.3-1-.5-2-1l7-7z" fill="#fdebd0"/><path d="M555 526q1.5.5 3 1l-1.4 1.3c-1.7 1.8-2.6 3.5-3.6 5.7q0-1.5 0-3-1-.5-2-1 2-2 4-4z" fill="#d9aa00"/><path d="M312 202q1 1 2 2l-7 7q-1-.5-2-1l7-8z" fill="#18b0c6"/><path d="M642 355q1 1 2 2l-2 3c-.5 2-.5 2-.6 4.2q-.2 1.9-.4 3.8-.5 0-1 0-.1-2.1-.1-4.3-.1-1.1-.1-2.3c.2-2.6.9-4.2 2.2-6.4z" fill="#e44003"/></svg>