<svg xmlns="http://www.w3.org/2000/svg" width="1024" height="1024" xmlns:v="https://vecta.io/nano"><path d="M765.9 62.4c9.8 7.6 18.4 16.7 27.2 25.5q2.3 2.2 4.5 4.5 7.4 7.3 14.7 14.6 1.3 1.2 2.5 2.5 11.9 11.7 23.7 23.5 15 15 30.1 30 10.7 10.6 21.3 21.2 6.3 6.3 12.6 12.6 6 5.9 12 11.8 2.1 2.2 4.3 4.4c9 8.8 15.8 15.9 16.7 29.1-.5 10.1-5.9 18.8-13.2 25.5-6.8 5.1-13.2 6.7-21.6 7q-1 0-2.1.1c-9.4 0-16.8-5.6-23.3-11.9q-3.1-3-6.1-6.1-1.6-1.6-3.2-3.3-4.3-4.2-8.5-8.5-4.3-4.4-8.6-8.8-8.5-8.5-16.9-17.1c-3.9 1.8-6.3 4.1-9.3 7.2s-6 6.1-9.4 9c-4.4 3.8-8.6 7.9-12.7 12.1-1.2 1.2-1.2 1.2-2.5 2.4q-3.9 4-7.8 7.9-2.8 2.8-5.5 5.5-6.5 6.5-12.9 12.9-7.3 7.4-14.7 14.7-15.1 15.2-30.2 30.3c1.9 4.1 4.7 6.9 7.9 10l1.8 1.8q1.9 1.9 3.9 3.9 3.1 3 6.2 6.1 8.7 8.7 17.5 17.3 5.4 5.3 10.8 10.7 2 2 4.1 4 2.8 2.8 5.7 5.7.8.8 1.7 1.6c5.4 5.4 9.5 12.2 9.6 20q.1 1.1.1 2.2c-1.1 9.7-5.9 15.2-12.8 21.9q-2.3 2.2-4.6 4.5c-8.2 8.2-15.8 14.6-27.7 15.6-10.4-.2-18.8-7.8-25.7-14.9q-2.3-2.4-4.5-4.8c-1.8-1.8-1.8-1.8-4.1-1.5-2.9 1.4-4.7 3.6-6.9 5.9q-2.5 2.5-5 5-2.4 2.4-4.8 4.8-1.4 1.4-2.9 2.9-.7.7-1.5 1.5-4.2 4.2-8.5 8.5-.9.9-1.8 1.8-41.8 41.9-83.7 83.8-6 6-12.1 12-1.2 1.2-2.4 2.5-19.5 19.5-39 39-20.1 20.1-40.1 40.1-12.4 12.4-24.7 24.7-8.5 8.5-17 17-4.8 4.9-9.7 9.7-4.5 4.5-9 9-1.6 1.6-3.2 3.2c-5.2 5.2-10.4 10.3-16 15.1-2.3 2-4.4 4.1-6.5 6.2q-1.3 1.3-2.6 2.7l-2.8 2.8q-1.5 1.5-2.9 3-6.2 6.2-12.3 12.4-3.8 3.8-7.6 7.7-2.1 2.1-4.2 4.2c-9.7 9.7-19.7 17.3-33.9 17.7-10-.1-16.8-4.4-23.8-11.3q-.9-.9-1.8-1.8-1.7-1.7-3.4-3.4c-4.3-4.2-8.4-8.2-13.8-10.8q-.8.8-1.6 1.6-7.6 7.7-15.2 15.4-3.9 3.9-7.8 7.9-3.8 3.8-7.5 7.6-2.2 2.2-4.3 4.3c-7.7 7.8-14.6 12.2-25.7 12.6-11.3-.2-18.1-5.8-25.9-13.4-3.9 1.6-6.3 4.1-9.2 7q-.8.8-1.6 1.6-2.6 2.6-5.2 5.2-1.8 1.8-3.7 3.7-4 4-7.9 8-6.3 6.4-12.6 12.7-15.7 15.7-31.3 31.4-12.2 12.3-24.4 24.5-6.3 6.3-12.5 12.6-3.9 3.9-7.8 7.8-1.8 1.8-3.6 3.7-2.5 2.4-5 4.9-1.3 1.4-2.8 2.8c-4.1 3.6-8 3.5-13.4 3.1-3.5-1.4-4.8-2.7-6.9-5.8-1.4-4-1.2-6.1-.1-10.2 2.6-4.4 5.6-7.9 9.2-11.5q.8-.7 1.6-1.5 2.6-2.6 5.1-5.2 1.9-1.8 3.7-3.7 5-5 10-9.9 5.3-5.3 10.5-10.5 9.9-9.9 19.9-19.8 11.3-11.3 22.5-22.5 23.3-23.2 46.5-46.4-1.4-1.7-2.9-3.3-.8-1-1.6-1.9-1.8-2.2-3.7-4.4c-6.1-7.2-9.2-12.8-8.8-22.3 2-16.7 16.5-27.8 27.7-39q3-2.9 5.9-5.8 1.9-1.9 3.8-3.8.8-.9 1.7-1.8c3.5-3.4 7.1-6.6 10.9-9.7-1.4-3.3-3.1-5.3-5.7-7.8q-1.1-1.1-2.2-2.2-2.3-2.2-4.6-4.4c-8.8-8.5-15.5-17.5-15.8-30.1.7-19 13.8-30.2 26.7-43q1.3-1.3 2.6-2.6 2.9-2.9 5.8-5.8 4.5-4.5 9.1-9 9.6-9.6 19.2-19.2 10.4-10.4 20.9-20.8 4.5-4.5 9-9 3.4-3.4 6.9-6.9 1.2-1.2 2.5-2.5 1.1-1.1 2.3-2.3 1-1 2-2c1.9-2 3.7-4 5.5-6.1 4.2-4.8 8.7-9.4 13.3-13.9q1.4-1.4 2.8-2.9 3.9-3.8 7.8-7.7 4.2-4.2 8.4-8.4 7.2-7.2 14.5-14.5 10.4-10.4 20.9-20.9 17-17 34-34 16.6-16.5 33.1-33 1-1 2-2.1 5.1-5.1 10.3-10.2 42.3-42.4 84.7-84.7-1.4-1.7-2.9-3.4-.8-.9-1.6-1.9c-1.6-1.8-3.2-3.5-5-5.1-15.9-15.3-15.9-15.3-16.8-26.3.3-9.7 6.8-15.1 13.3-21.4 2.4-2.3 4.6-4.6 6.7-7.2 7.3-8.4 14.6-14.9 26.1-16 7.6.2 12.6 3.4 18.2 8.3 1.8 1.9 3.4 3.9 5 6q3 2.5 6 5 1.7 1.7 3.4 3.4 3 3 6 6 2.5 2.4 5 4.9 1.2 1.2 2.5 2.5c3.6 3.6 7.1 7.1 10.4 11 5.2 6.1 11 11.6 16.6 17.2q1.8 1.8 3.6 3.5 4.2 4.3 8.5 8.5c3.4-1.5 5.7-3.4 8.3-6l2.6-2.6q1.3-1.3 2.7-2.7 1.5-1.5 3-3 4-4 8-8 2.5-2.5 5-5 8.8-8.6 17.5-17.4 8.1-8.1 16.3-16.2 7-6.9 14-13.9 4.1-4.2 8.3-8.3 3.9-3.9 7.8-7.8 2.2-2.2 4.3-4.3 1.3-1.2 2.6-2.5 1-1.1 2.2-2.3c1.6-1.9 1.6-1.9 1.2-4.1-1.1-2.5-2.5-3.9-4.4-5.8q-1.1-1.1-2.3-2.2-1.2-1.2-2.5-2.5-2.6-2.5-5.3-5.1-4.1-4.1-8.2-8.1-4-3.9-8-7.8-1.2-1.2-2.5-2.4c-7.8-7.7-13.6-15.4-13.9-26.6.1-10.6 3.7-17.7 11.1-25.3 10.3-9.7 26.2-12.4 38.1-3.7z" fill="#002a66"/><path d="M425 425c4.9 2.2 8.4 5.2 11.8 9.3a45.02 45.02 0 0 0 6.9 6.9c4.4 3.8 8.6 7.9 12.7 12.1q1.2 1.1 2.3 2.3 2.5 2.4 4.9 4.9 3.7 3.7 7.4 7.3 2.4 2.4 4.7 4.8 1.1 1.1 2.2 2.2a224.95 224.95 0 0 1 11.5 12.4c2.3 2.5 4.6 5 7.1 7.4q.7.7 1.4 1.5 1.6 1.5 3.1 3 2.3 2.3 4.6 4.6c6 6.1 6 6.1 12.4 11.8 2.4 2 4.4 4 6.4 6.4 3 3.6 6.3 6.5 9.8 9.5 2.4 2.1 4.6 4.3 6.8 6.6q1 1 2.1 2 1.1 1.1 2.2 2.2c1.1 1 1.1 1 2.1 2 1.6 1.8 1.6 1.8 1.6 3.8q1 0 2 0c1.6 2 1.6 2 3 4-1.4 3-2.9 5.1-5.2 7.5q-1 .9-2 2c-1.1 1-1.1 1-2.2 2.1q-1 1.1-2.2 2.2-2.3 2.3-4.6 4.6-3.6 3.6-7.1 7.1-2.3 2.3-4.6 4.5-1 1.1-2.1 2.1c-3.9 4-8 7.7-12.3 11.3-1.7 1.6-3.1 3.2-4.6 5q-1 1.3-2.1 2.6-1 0-2 0-.3.8-.6 1.6c-1.9 3.3-4.5 5.7-7.1 8.3l-1.8 1.8q-2.9 2.9-5.8 5.8-2 2-4 4-4.2 4.3-8.5 8.5-5.4 5.4-10.8 10.8-4.2 4.1-8.3 8.3-2 2-4 4c-11.7 11.6-11.7 11.6-16.1 15.4-5.6 4.8-10.7 10.1-15.8 15.3q-3 3-6 6-8.4 8.4-16.8 16.9-5.2 5.2-10.4 10.4-1.9 2-3.9 4c-20 20.2-20 20.2-26.6 21-4.1-.6-6.1-2.2-9.1-5q-1.3-1.2-2.7-2.5-6.7-6.5-13.3-13.1-1.6-1.5-3.1-3-4.1-4.1-8.2-8.2-2.6-2.6-5.2-5.2-8.9-9-17.9-17.9-8.4-8.4-16.7-16.7-7.2-7.2-14.4-14.4-4.3-4.3-8.6-8.6-4.1-4-8.1-8-1.5-1.5-2.9-3-2-2-4.1-4-1.1-1.1-2.2-2.3c-3.1-3.4-4.9-6-5.3-10.6.5-6.1 2.2-10 6.4-14.4l2.4-2.6c1.2-1.3 1.2-1.3 2.5-2.6q1.1-1.2 2.3-2.4a148.14 148.14 0 0 1 10-9.4c5.9-5.2 11.4-10.8 17-16.4q3-3.1 6.1-6.2 8.7-8.7 17.4-17.5 5.3-5.4 10.7-10.7 2-2.1 4.1-4.1 2.8-2.9 5.6-5.7.8-.9 1.7-1.7c3.9-3.9 3.9-3.9 6.1-3.9q.4-.9.9-1.9c1.1-2.1 1.1-2.1 3.1-4.1 4 .2 6 2.7 8.7 5.4q.7.7 1.4 1.4 2.3 2.3 4.5 4.5 1.6 1.6 3.1 3.2 4.1 4.1 8.2 8.3 6.6 6.7 13.2 13.3 2.3 2.3 4.6 4.6 1.4 1.4 2.8 2.9 1.2 1.2 2.5 2.5c3.5 3.3 6.1 3.2 10.7 3.1 3.2-.3 4.9-1.1 7.3-3.2 2.3-3.6 2.4-7.2 1.9-11.4-2-5.8-7.3-10-11.7-14.2q-1.7-1.6-3.3-3.3-4.3-4.2-8.7-8.4-4.4-4.4-8.8-8.7-8.7-8.5-17.4-17c1.3-2.8 2.6-4.9 4.7-7q.9-.9 1.7-1.7.9-.9 1.8-1.9.9-.9 1.8-1.8 2-2 3.9-3.9 3-3 5.9-6 1.9-1.9 3.8-3.8.8-.9 1.7-1.8c1.7-1.7 1.7-1.7 4.7-4.1 4 .2 6 2.7 8.7 5.4l2.8 2.8q1.5 1.6 3 3.1 1.6 1.6 3.1 3.2 4.1 4.1 8.2 8.2 6.6 6.7 13.1 13.3 2.3 2.3 4.6 4.6a77.98 77.98 0 0 1 2.8 2.9q1.2 1.2 2.5 2.5c3.9 3.5 6.9 4.5 12.2 4.4 3.4-.7 5-2.8 7-5.4 1.6-3.1 1.5-6.6 1-10-2.4-4.9-6.2-8.4-10-12.2q-1-1.1-2.1-2.1-2.2-2.2-4.4-4.4-3.3-3.3-6.6-6.6-2.1-2.1-4.2-4.2-1-1-2-2c-4.4-4.3-9-8.5-13.7-12.5q-2.1-1.8-4.1-3.7-.8-.8-1.7-1.6c-1.2-1.7-1.2-1.7-1.1-3.7 4-9.2 14.8-17.2 22.2-23.6q1.9-1.6 3.7-3.4z" fill="#008ea7"/><path d="M572 278c6.7 5.5 12.8 11.6 18.9 17.8q1.8 1.8 3.6 3.6 4.8 4.8 9.6 9.6 5.1 5.1 10.2 10.2 9.5 9.5 19.1 19.1 10.9 10.9 21.8 21.8 22.4 22.5 44.8 44.9c-1.6 3.9-4.1 6.3-7 9.3-.8.7-.8.7-1.6 1.5q-2.6 2.6-5.2 5.2-1.9 1.9-3.7 3.7-5.1 5.1-10.1 10.1-5.3 5.3-10.6 10.6-10 10-20.1 20-11.4 11.4-22.8 22.8-23.4 23.4-46.9 46.8c-4.1-1.9-6.9-4.6-10-7.7q-.9-.9-1.8-1.8-2.9-2.9-5.8-5.9-2-2-4-4-5.3-5.4-10.7-10.7-5.4-5.5-10.8-10.9-8.7-8.7-17.5-17.5-.7-.8-1.5-1.6-.7-.7-1.5-1.5-2-2-4.1-4.1c-2.6-2.6-5.1-5.4-7.6-8.2-3.8-4.2-7.7-8.1-12.1-11.6-1.6-1.5-1.6-1.5-2.6-3.6-.8-2-.8-2-2.8-2.8-2.4-1.2-3.9-2.6-5.8-4.4q-1-1.1-2-2.1l-2.2-2.2q-1.1-1.2-2.3-2.3-3.6-3.6-7.1-7.2-2.5-2.5-4.9-4.9-6-6-11.9-12c7.6-9.2 16.2-17.5 24.6-26q3-3 6.1-6.1 3.6-3.7 7.3-7.4 2.1-2.1 4.1-4.2 1.3-1.3 2.6-2.6 1.1-1.1 2.2-2.2c2.1-1.5 2.1-1.5 4.3-1.3 2.1.9 3.2 1.9 4.7 3.6q.8.9 1.7 1.9.9 1 1.8 2c6 6.6 12.2 13.1 18.6 19.4q2.1 2.1 4.2 4.3c4.6 4.5 9.2 8.9 14.1 13.1 1.8 1.6 3.5 3.2 5.1 4.9 3.3 2.8 6.2 3.6 10.5 3.8 3.5-.4 5.5-1.8 8.1-4.2 2.1-3.6 2.7-6.9 2-11-4.6-6.5-10.8-11.9-16.4-17.5q-2.4-2.3-4.7-4.6-6.6-6.5-13.2-13-4.1-4-8.1-8.1-1.6-1.5-3.1-3-2.2-2.1-4.3-4.3c-1.2-1.2-1.2-1.2-2.5-2.4-1.7-2.1-1.7-2.1-1.7-5.1 1.3-1.4 1.3-1.4 3.2-2.9 3.7-3.1 7.2-6.4 10.6-9.8q.8-.7 1.6-1.5 2.5-2.6 5-5.1 1.7-1.7 3.5-3.5 4.6-4.6 9.2-9.2 4.7-4.8 9.5-9.5 9.2-9.2 18.4-18.5z" fill="#feedc0"/><path d="M574.9 206.2c2.5.9 3.7 2.1 5.6 3.9q1 1 2.1 2.1 1.1 1.1 2.2 2.2 1.2 1.2 2.4 2.4 4 4 8 8 2.8 2.8 5.7 5.6 7 7 13.9 13.9 5.6 5.6 11.3 11.3 16 15.9 32 31.9.8.9 1.7 1.8.9.8 1.8 1.7 14 14 28 28 14.4 14.3 28.7 28.6 8.1 8.1 16.2 16.2 6.9 6.8 13.7 13.7 3.5 3.5 7 7 3.8 3.8 7.6 7.6 1.1 1.1 2.3 2.2 1 1 2 2.1l1.8 1.7c1.1 1.9 1.1 1.9.9 4.5-.9 2.7-1.8 3.9-3.8 5.9l-1.8 1.9q-1 .9-2 1.9l-1.8 1.9q-.9.9-1.9 1.8-.8.8-1.7 1.7c-2.3 1.7-3.9 2-6.8 2.3-2-1.2-2-1.2-3.8-2.9q-1-1-2.1-2L742 413q-1-.9-2-1.9-3-3-6.1-6-1.1-1.2-2.3-2.4-3.8-3.8-7.7-7.7-2.7-2.7-5.5-5.5-5.9-5.9-11.9-11.9-8.6-8.6-17.1-17.1-14-14-27.9-27.9-13.5-13.6-27-27.1-.9-.8-1.7-1.7-4.2-4.2-8.4-8.4-34.7-34.7-69.4-69.4c2.4-5 6-8.4 9.9-12.3q1.1-1.1 2.2-2.3 1-1.1 2.1-2.1.9-1 1.9-2c1.9-1.3 1.9-1.3 3.8-1.1z" fill="#fdeec1"/><path d="M783 170c8.3 7 16.4 14.3 24.2 21.8.9.8.9.8 1.8 1.7 1.6 1.6 1.6 1.6 4 4.5-.2 3.8-2.4 5.7-5 8.4q-1.2 1.3-2.6 2.6-1.4 1.4-2.8 2.8-1.5 1.5-3 3.1-4.1 4.1-8.2 8.1-3.4 3.4-6.8 6.9-8 8-16 16-8.3 8.3-16.6 16.7-7.1 7.1-14.2 14.2-4.3 4.3-8.5 8.5-4 4.1-8 8-1.5 1.5-2.9 3-2 2-4.1 4-1.1 1.1-2.2 2.2c-2.1 1.5-2.1 1.5-4.2 1.4-3.2-1.5-5.5-4-7.9-6.5q-.9-.9-1.8-1.7-1.8-1.8-3.6-3.6-2.7-2.8-5.5-5.5-1.7-1.7-3.5-3.5-.8-.8-1.6-1.6c-2.2-2.2-3.9-4.2-5.1-7.1.1-3.4 1.4-4.5 3.9-6.8q1.2-1.2 2.5-2.5 1.3-1.2 2.6-2.5 1.3-1.2 2.6-2.5c3.6-3.5 7.3-7 11.2-10.3 4.1-3.6 7.9-7.3 11.7-11.1q1.1-1.1 2.1-2.2 2.3-2.2 4.5-4.5 3.6-3.5 7.1-7.1 7.6-7.5 15.1-15.1 8.7-8.8 17.5-17.5 3.5-3.5 7-7 2.1-2.2 4.2-4.3l2-2c3.2-3.2 6.5-6.2 10.1-9z" fill="#008ea8"/><path d="M751.6 81.1c5.3 2 9 6.6 12.8 10.6q1.4 1.4 2.9 2.9 3.9 3.9 7.7 7.9 3.1 3.1 6.2 6.3c16.4 16.6 16.4 16.6 23.1 24.3 3.2 3.6 6.7 7.1 10.2 10.5l2.4 2.4q2.5 2.5 5 5 3.8 3.8 7.6 7.6 2.4 2.5 4.9 4.9 1.1 1.1 2.2 2.3c3.3 3.2 6.6 6.4 10.1 9.4 6 5.2 11.6 10.9 17.2 16.6q1.8 1.8 3.7 3.7 3.9 3.8 7.7 7.7 4.9 4.9 9.9 9.8 3.8 3.9 7.6 7.7 1.8 1.8 3.7 3.6 2.5 2.6 5 5.1.8.7 1.5 1.5c8 8 8 8 8 12.1-1.2 3.5-2.3 5.5-5 8-2.9.9-2.9.9-6 1-2.3-1.4-2.3-1.4-4.5-3.5q-1.3-1.3-2.6-2.6-1.5-1.4-2.9-2.9-1.6-1.6-3.2-3.1-5.6-5.6-11.2-11.2-2.1-2.1-4.3-4.2-5.7-5.8-11.5-11.6-6-6-12-12-11.5-11.5-22.9-22.9-13-13-25.9-26-22.2-22.2-44.4-44.4-.9-.9-1.9-1.9-1.7-1.7-3.4-3.4l-6.6-6.5c-1.7-1.8-1.7-1.8-2.1-5.2.4-3.7 1.2-5.7 3.4-8.6 2.6-1.3 4.8-1.3 7.6-.9z" fill="#0091aa"/><path d="M257.9 684.1c2.6 1.1 4 2.4 6 4.4q1.1 1.1 2.2 2.3 1.2 1.2 2.4 2.4 1.2 1.2 2.5 2.5 3.9 3.9 7.7 7.9 2.7 2.6 5.3 5.3 6.5 6.5 13 13.1c-1.8 4-4.5 6.8-7.6 9.8q-.8.8-1.5 1.5c-2.8 2.8-5.6 5.3-8.6 7.9-3.4 2.9-6.6 6.1-9.7 9.3q-.7.8-1.4 1.5-3 3-5.9 6.1-2.1 2.2-4.3 4.4-1.2 1.3-2.5 2.7c-2.5 1.8-2.5 1.8-4.9 1.6-2.9-.9-4.2-1.9-6.4-4l-2.1-2.1q-1.1-1.1-2.3-2.3-1.1-1.1-2.3-2.3-2.5-2.4-4.9-4.9-3.7-3.7-7.5-7.4-2.4-2.3-4.7-4.7-1.1-1.1-2.3-2.2-1-1.1-2.1-2.1c-.9-.9-.9-.9-1.8-1.9-1.2-1.9-1.2-1.9-1-4.5 1.7-5.2 6-8.8 10.1-12.2 4-3.5 7.8-7.2 11.5-11q.9-1 1.8-1.9 3.8-3.9 7.6-7.8 2.8-2.9 5.6-5.7.8-.9 1.7-1.8c4-4 4-4 6.4-3.9z" fill="#008fa8"/><path d="M425 425q1.5.5 3 1-1 .8-2 1.5c-3.8 3.1-7.1 6.5-10.5 9.9l-2 2q-1.9 1.9-3.8 3.9-2.2 2.2-4.5 4.5c-2.3 2.2-2.3 2.2-4.2 5.2q2.9 2.9 5.8 5.9.8.8 1.7 1.7.8.8 1.6 1.6.7.7 1.5 1.5c1.6 1.5 1.6 1.5 4.4 3.3q-.5 1-1 2-5-4.5-10-9-1-.9-2-1.8c-1.7-1.5-1.7-1.5-4-4.2.8-9.5 15.5-19.7 22.3-25.6q1.9-1.6 3.7-3.4z" fill="#009ab1"/><path d="M469 638c0 3 0 3-1.5 4.9q-1 1-2.1 2.1-1.2 1.2-2.4 2.4-1.3 1.3-2.6 2.6l-2.7 2.7q-2.8 2.8-5.6 5.6-3.6 3.5-7.2 7.1-3.4 3.4-6.9 6.9-1.2 1.2-2.6 2.6-1.2 1.1-2.4 2.4-1 1-2.1 2.1C429 681 429 681 426 682c1.5-3.7 3.8-6 6.6-8.8 1.3-1.2 1.3-1.2 2.5-2.5 2.1-2 4.3-3.9 6.5-5.8 5.7-5 11-10.4 16.4-15.8q1.6-1.7 3.2-3.3 3.9-3.9 7.8-7.8z" fill="#001d5d"/><path d="M296 724c0 3.6-1 4.4-3.5 6.8q-.7.7-1.5 1.5-.7.8-1.5 1.5-1.7 1.7-3.3 3.3-2.5 2.4-5 4.9c-5 5-10.1 9.9-15.5 14.6-2.4 2-4.5 4.1-6.7 6.3-1.1 1.2-1.1 1.2-2.3 2.4q-.8.8-1.7 1.7c0-3.7 1.2-4.6 3.8-7.1q.8-.8 1.6-1.6c.8-.9.8-.9 1.7-1.7q1.8-1.8 3.6-3.6 2.7-2.6 5.4-5.3c5.3-5.3 10.6-10.5 16.3-15.4 2-1.6 3.8-3.4 5.6-5.2q.9-.9 1.7-1.8l1.3-1.3z" fill="#001e5e"/><path d="M537 570c0 3 0 3-1.5 4.8q-1 1.1-2.1 2.1l-2.3 2.4q-1.3 1.2-2.6 2.5-1.3 1.3-2.7 2.6-4.1 4.2-8.3 8.3-2.8 2.8-5.6 5.6-7 6.9-13.9 13.7-1-.5-2-1c5.6-6.5 11.4-12.5 18-18q2.5-2.5 5-5 2.2-2.2 4.4-4.4 1.2-1.2 2.4-2.4 5.6-5.6 11.2-11.2z" fill="#001d5d"/><path d="M493 614c0 4.9-3.7 7.6-7 11-1.6 1.4-3.3 2.7-5 4q-1-.5-2-1l14-14z" fill="#001c5c"/><path d="M213 692c0 4.3-2.2 5.9-5 9-2.8 2.8-5.7 4.9-9 7 1.7-4.3 4.9-7.1 8.1-10.3q.9-.8 1.7-1.6 2.1-2.1 4.2-4.1z" fill="#182b60"/><path d="M273 544c0 4.9-3.7 7.6-7 11q-3.9 3.6-8 7-1-.5-2-1l17-17z" fill="#000f49"/><path d="M198 767q.5 1.5 1 3l-5 5q-1.5-.5-3-1l7-7z" fill="#21376a"/><path d="m693 415c-1.5 3.8-3.8 5.6-7 8 0-3 0-3 2.4-5.7 2.6-2.3 2.6-2.3 4.6-2.3z" fill="#1b3163"/><path d="m540 205c0 3 0 3-2.3 5.6-2.7 2.4-2.7 2.4-5.7 4.4 1.7-4.3 4.7-6.9 8-10z" fill="#01124d"/><path d="M222 683c0 3 0 3-2.5 5.7q-1.2 1.1-2.5 2.3-1-.5-2-1l7-7z" fill="#1f3063"/></svg>