<svg xmlns="http://www.w3.org/2000/svg" width="1024" height="1104" xmlns:v="https://vecta.io/nano"><g fill-rule="evenodd"><path d="M482 86c4.4 1.6 6.8 5 9.7 8.4a31.92 31.92 0 0 0 1.6 1.9c3.2 3.8 6.3 7.7 9.4 11.5 2.8 3.4 5.6 6.6 8.8 9.7 4.9 4.8 9.2 10.1 13.5 15.5q1.1 1.4 2.3 2.8c5.5 7 9.4 14.1 12.8 22.2q1.4 3.2 2.8 6.3c9.1 20.8 7.8 41.6 5.9 63.9-.7 7.5-1 14.9-1.2 22.4-.4 9.5-1.4 18.2-3.6 27.4q-.4 1.8-.8 3.7c-9.7 41.4-28.6 80.8-65.5 104.5-7.2 4.3-14.9 7.6-22.7 10.8 1 3.2 2.1 6.2 3.6 9.3 1.4 2.7 1.4 2.7 1.4 4.7q.8.4 1.6.7c3.1 1.7 5.9 3.6 8.8 5.7q.9.6 1.8 1.3c5.9 4.3 11.4 9 16.9 13.8 2.8 2.5 2.8 2.5 5.9 4.5q.3-1.2.7-2.4c1.6-4.6 3.8-8.7 6-13 .8-1.3.8-1.3 1.5-2.7 32.5-61.2 32.5-61.2 62-71.1 10-2.9 21.6-4.7 31.8-1.8 6.7.7 11.2-1.2 17.4-3.7 36.8-13.5 78.3-2.6 112.6 12.7 2 1 2 1 4.7 2.9 3.4 1.6 5.4.7 9-.2 18.3-4.3 35.4-1.6 52.1 7.3 22.3 14.1 28.1 42.7 35.2 66.3 4.2 13.9 9.4 27.4 14.9 40.7q.7 1.8 1.5 3.7 1.4 3.4 2.9 6.8c7.5 18 9.3 36.4 2.4 54.9-4.9 10.6-12.7 18.5-23.7 22.8-17.6 6-33.6 4.6-51-1.2q-.1 7.7 0 15.4 0 2.6 0 5.2c-.4 10-.4 10 2.7 19.2 2 1.9 4 3.6 6.3 5.2 3.7 4 6.8 8.6 10 13 .7 1 .7 1 1.5 2q2.3 3.2 4.5 6.4.7 1 1.4 2c2.9 4.1 4.5 7.7 5.6 12.6q.9 0 1.8-.1c18.7-.5 32.7 1.5 47.2 14.4 14.9 15.8 21.5 34.5 21.3 55.7-.4 12.6-5.5 21.7-12.3 32q-1.5 2.5-3 5c3.3 3.4 6.6 6.8 10.4 9.7 21.7 18.5 38.7 51.4 46.6 78.3q0 1 0 2c20.4-16 30.6-45.9 34.6-70.7 3.9-33.6-2.2-69.6-20.6-98.3q-.5-.8-1.1-1.7c-5.5-8.6-11.9-15.7-19.4-22.5-5.6-5.4-8.9-10.7-10-18.5.7-4.6 2.5-7.8 6.2-10.7 8.3-2.3 14.9.6 22.3 4.4 29.7 17.8 48.5 48 57 81q.3 1.3.7 2.6c6.6 26 7 55.2 1.3 81.4q-.2 1.2-.5 2.5c-3.9 19.8-10.9 39-20.5 56.7q-1.5 2.6-2.8 5.3c-6.8 12.6-17.8 31.7-31 38.4-2.2 1.2-3.6 2.2-5.2 4.1-.8 4.1-.5 8.1-.3 12.2.8 26.4-3 52.1-14.7 75.8q-.8 1.6-1.6 3.3c-10.8 21.5-31.8 46.8-55.4 54.7h3.9q18 .1 36 .2 9.2 0 18.5.1 8.9 0 17.9.1 3.4 0 6.8 0 4.8 0 9.5.1 1.4-.1 2.9-.1c7.1.2 12.5 1.8 17.8 6.7q.8 1 1.6 2 .9 1 1.8 2.1c3.8 5.1 2.8 11.7 2.3 17.8-2.7 5.8-8 10.6-14 13-2.9.3-2.9.3-6.4.3q-.9 0-1.9 0-3.3 0-6.5 0-2.4 0-4.7 0-6.5 0-13 0-7.1 0-14.1 0-12.4 0-24.8 0-18.4 0-36.8 0-36.8.1-73.5.1h-3.8q-1.9 0-3.9 0-21.1 0-42.2 0-63.7 0-127.4 0-2.1 0-4.1 0-9.3 0-18.6 0-4.2 0-8.3 0-2.1 0-4.1 0-65.7 0-131.3.1-72.5 0-145 .1-7.8 0-15.5 0h-3.8q-30.7 0-61.4 0-30.8 0-61.6 0-18.3 0-36.6 0-12.2.1-24.4 0-7 0-14 0-6.3.1-12.7 0-2.2 0-4.5 0c-8.1.1-14.8.1-21.1-5.6-4-4.3-5.3-9.2-5.6-15 .3-6.8 2.5-11.8 7.2-16.6 3.8-3.4 6.9-4.5 11.9-4.6q1.3 0 2.7-.1 1.4 0 2.9 0 1.5 0 3.1-.1 4.7-.1 9.5-.2 3.2 0 6.5-.1 7.9-.2 15.8-.3-.9-.6-1.9-1.2-1.2-.8-2.4-1.6c-1.2-.7-1.2-.7-2.4-1.5-3.6-2.7-6.1-5.8-8.3-9.7q-.5-.8-1-1.7c-3.6-7-3.6-13.6-3.5-21.4q-.1-2.1-.1-4.2 0-5.6 0-11.3 0-4.7 0-9.5-.1-11.2 0-22.4 0-11.6-.1-23.1 0-10 0-19.9 0-5.9-.1-11.8 0-5.6 0-11.2.1-3 0-6c.1-11.3 4-20.5 11.8-28.8 8.3-7.3 17-10.1 28-9.7q-.5-1.4-1-2.9c-1.1-3.9-.9-7.2-.6-11.1.7-7.8.7-7.8-2.5-14.5-2.9-1.8-5.8-3.1-8.9-4.5-20.3-14.1-34.8-35.4-42-59q-.3-.9-.6-1.9c-8-27.2-3.9-59.4-.4-87.1q.2-1.7.4-3.4C62.9 595.2 80.8 531.3 118 480q.7-1 1.4-2c7-9.7 14.5-18.6 22.8-27.2q2.7-2.7 5.3-5.5a188.7 188.7 0 0 1 22.8-20q2.5-1.9 4.9-3.8c22.2-16.8 51.5-31 79-35.9 2.5-.4 2.5-.4 5.8-1.6 1.6-2.5 1.6-2.5 2.1-5.6 2.4-8.6 6.6-14.3 13.9-19.4 3.9-2 7.8-3.7 12.1-4.7 3.2-1.1 3.2-1.1 4.7-4.5q.7-2 1.4-4.1.4-1.1.7-2.3c2.9-9.3 4.3-18.7 5.1-28.4q.1-1.2.2-2.4c.8-10.8-.8-19.3-4.9-29.3-1.3-3.3-1.3-3.3-1.3-5.3l-1.7.2c-11.9.6-23.2-4.9-32.3-12.2-9.2-8.9-14-21.1-14.2-33.9-.1-13.9 2.2-24.6 11.6-35.2 7.3-6.8 15.9-11.3 25.9-11.6 11.5.7 18.9 5.3 26.7 13.7 5 6.2 10 13.8 10 22q1 0 2 0 .4-1.1.8-2.2c6.5-15 22.3-29.1 35.2-38.8q1.3-1 2.6-2c11.3-8.5 23.5-15.6 36-22.3 30.9-16.5 69.1-37.1 85.4-69.7zm124 841.6q-.2 1.1-.3 2.1c-2.9 20.5-5.7 41-10 61.3q-.4 1.5-.7 3c-2.3 11.1-5 21.9-8.9 32.5-1.5 3.8-2.8 7.6-4.1 11.5h14q.1-3.6.3-7.2.1-1.5.1-2.9c.4-9.4 1.6-17.6 4.4-26.6 4.6-13.1 10.7-20.3 23-26.7 3.4-1.7 6.7-3.3 9.6-5.7 5.3-6.4 5.8-15.8 6.2-23.8.2-8.1.9-16.2 1.7-24.3L644 890c-7.6-4.1-15-7.9-21.7-13.4-3-2.7-5.5-4.2-9.3-5.6-2 18.9-4.4 37.8-7 56.6z" fill="#008589"/><path d="M774 596c10.7 4.3 18.8 18.8 25 28q1.1 1.6 2.1 3.2c2.9 4.3 5 7.6 5.9 12.8q.9 0 1.8-.1c18.7-.5 32.7 1.5 47.2 14.4 14.9 15.8 21.5 34.5 21.3 55.7-.4 12.6-5.5 21.7-12.3 32q-1.5 2.5-3 5c3.3 3.4 6.6 6.8 10.4 9.7 21.7 18.5 38.7 51.4 46.6 78.3q0 1 0 2c20.4-16 30.6-45.9 34.6-70.7 3.9-33.6-2.2-69.6-20.6-98.3q-.5-.8-1.1-1.7c-5.5-8.6-11.9-15.7-19.4-22.5-5.6-5.4-8.9-10.7-10-18.5.7-4.6 2.5-7.8 6.2-10.7 8.3-2.3 14.9.6 22.3 4.4 29.7 17.8 48.5 48 57 81q.3 1.3.7 2.6c6.6 26 7 55.2 1.3 81.4q-.2 1.2-.5 2.5c-3.9 19.8-10.9 39-20.5 56.7q-1.5 2.6-2.8 5.3c-6.8 12.6-17.8 31.7-31 38.4-2.2 1.2-3.6 2.2-5.2 4.1-.8 4.1-.5 8.1-.3 12.2.8 26.4-3 52.1-14.7 75.8q-.8 1.6-1.6 3.3c-10.8 21.5-31.8 46.8-55.4 54.7q1.9 0 3.9 0 18 .1 36 .2 9.2 0 18.5.1 8.9 0 17.9.1 3.4 0 6.8 0 4.8 0 9.5.1 1.4-.1 2.9-.1c7.1.2 12.5 1.8 17.8 6.7l1.6 2q.9 1 1.8 2.1c3.8 5.1 2.8 11.7 2.3 17.8-2.7 5.8-8 10.6-14 13-2.9.3-2.9.3-6.4.3q-.9 0-1.9 0-3.3 0-6.5 0-2.4 0-4.7 0-6.5 0-13 0-7.1 0-14.1 0-12.4 0-24.8 0-18.4 0-36.8 0-36.8.1-73.5.1h-3.8q-1.9 0-3.9 0-21.1 0-42.2 0-63.7 0-127.4 0-2.1 0-4.1 0-9.3 0-18.6 0-4.2 0-8.3 0-2.1 0-4.1 0-65.7 0-131.3.1-72.5 0-145 .1-7.8 0-15.5 0h-3.8q-30.7 0-61.4 0-30.8 0-61.6 0-18.3 0-36.6 0-12.2.1-24.4 0-7 0-14 0-6.3.1-12.7 0-2.2 0-4.5 0c-8.1.1-14.8.1-21.1-5.6-4-4.3-5.3-9.2-5.6-15 .3-6.8 2.5-11.8 7.2-16.6 4.8-4.2 8.8-4.5 14.9-4.5q1.1 0 2.3 0 3.9 0 7.8 0 2.9 0 5.7 0 7.7 0 15.5 0 8.4 0 16.8 0 14.5 0 29 0 21 0 41.9 0 34.1 0 68.1 0 33.1 0 66.2 0 1 0 2 0 10.3 0 20.5 0 85.8.1 171.7.1-.5-1.7-1-3.4c-4.3-15.2-.1-31.8 6.8-45.7 8.5-14.3 22-19.2 37.2-23.9q1.5-.5 3-1c1-19.2 1.2-38.3 1.1-57.6q0-3.7 0-7.4l-.7-59c-.7-21-.5-42-.4-63q1.6.5 3.2 1c12.2 3.3 25.2 1.7 36.2-4.3 12.4-7.6 18.7-20.1 23.1-33.5 3.1-13.4 2.7-27.5-2.5-40.2q-.5-1.3-1.1-2.7c-5.1-11.4-14.3-19.9-25.6-25.1-11-4-24.1-4.2-34.7.7q-4.9 2.4-9.6 5.1c-.6-18.1 4.2-34.8 12-51q1 0 2 0 0 1 0 2 .8.4 1.6.7c2.4 1.3 4.5 2.9 6.6 4.6 10.5 8.5 21.5 14.2 34.2 18.5a23.4 23.4 0 0 1 2.4.9c14.6 4.7 29 5.8 44.2 5.7q4.3 0 8.5 0c42.3.1 80.8-15.2 111.1-44.9 4.1-4.3 7.7-8.9 11.4-13.5q2-2.5 4-5zM606 927.6q-.2 1.1-.3 2.1c-2.9 20.5-5.7 41-10 61.3q-.4 1.5-.7 3c-2.3 11.1-5 21.9-8.9 32.5-1.5 3.8-2.8 7.6-4.1 11.5h14q.1-3.6.3-7.2.1-1.5.1-2.9c.4-9.4 1.6-17.6 4.4-26.6 4.6-13.1 10.7-20.3 23-26.7 3.4-1.7 6.7-3.3 9.6-5.7 5.3-6.4 5.8-15.8 6.2-23.8.2-8.1.9-16.2 1.7-24.3L644 890c-7.6-4.1-15-7.9-21.7-13.4-3-2.7-5.5-4.2-9.3-5.6-2 18.9-4.4 37.8-7 56.6z" fill="#d97900"/></g><path d="M530 768c6.2.9 12.9 4.2 17 9 2 5.9 1.8 11.5 1.7 17.6q0 2.7.1 5.4c.1 4.8 0 9.6 0 14.4l.1 15q.1 13.8.1 27.6 0 14 .1 28l-.5 67.4q-.1 1.2-.2 2.5c-.1 3.3-.4 6-1.4 9.1-4.7 2.8-9.1 4.4-14.4 5.8-10.7 3.2-19.4 9.9-25 19.7-1.4 2.8-2.5 5.6-3.6 8.5q-.6 1.6-1.2 3.1c-4 12.1-3.6 24.4-1.8 36.9q-77.9.2-155.8.4-9.2 0-18.4 0-1.8 0-3.7 0-29.6 0-59.3.1-30.4.1-60.8.2-18.8 0-37.6.1-12.8 0-25.7 0-7.4 0-14.9 0-6.8.1-13.6 0-2.4 0-4.9.1c-9.8.1-16.9-.7-24.3-7.9-8.6-9.5-10.6-18.4-10.5-31.1q-.1-2.1-.1-4.2 0-5.6 0-11.3 0-4.7 0-9.5-.1-11.2 0-22.4 0-11.6-.1-23.1 0-10 0-19.9 0-5.9-.1-11.8 0-5.6 0-11.2.1-3 0-6c.1-11.3 4-20.5 11.8-28.8 8.4-7.4 17.1-10 28.1-10h2.7q4.5 0 9 0 3.2 0 6.4 0 8.7 0 17.4 0 7.3 0 14.6 0 17.2 0 34.4 0 17.7 0 35.5 0 15.2-.1 30.4-.1 9.1 0 18.2 0 8.6 0 17.1 0 3.1 0 6.3 0 4.3 0 8.6 0h2.4c10.1.1 19.2 3.7 26.5 10.6 7.2 7.5 10.5 16.4 11 26.7q.1 1 .1 2.1.2 2.5.3 5c27.5 14.2 57.1 18.6 87 9.4 31.2-10.3 52.4-35.8 66.9-64 8.4-17.3 14.3-35.7 20.3-53.9q.5-1.7 1.1-3.3.4-1.5.9-3c.8-2.2.8-2.2 1.8-3.2z" fill="#006a72"/><path d="M731.7 357.9c3.4 1.6 5.4.7 9-.2 18.3-4.3 35.4-1.6 52.1 7.3 22.3 14.1 28.1 42.7 35.2 66.3 4.2 13.9 9.4 27.4 14.9 40.7l1.5 3.7q1.4 3.4 2.9 6.8c7.5 18 9.3 36.4 2.4 54.9-4.9 10.6-12.7 18.5-23.7 22.8-16 5.4-32.1 5.5-48-.2-4.6-2.3-8.8-5.1-13-8q-.2 1.3-.3 2.6c-4 19.7-26.4 38-42.4 48.7-20.7 13.3-45.5 21.8-70.2 21.9q-1.3 0-2.6 0-2.6 0-5.3 0-3.9.1-7.9.1c-32.7.2-59.9-10.9-83.6-33.5-3.9-4-6.8-8.1-9.7-12.8l-1.8-2.8c-6.5-10.7-11.4-22-14.2-34.2q-1.6.1-3.3.1c-12.8.3-23.7-.9-34.7-8.1q-1.3-.9-2.7-1.7c-9.5-9.3-13.3-22.7-13.6-35.8.4-20.3 10.5-38.9 20-56.4 2.8-5.1 5.3-10.3 7.7-15.6 4-8.4 8.5-16.3 13.3-24.3q2.1-3.5 4.1-7.1c4.8-8.6 9.5-16.8 16.2-24.1q1-1.1 2-2.3c12.2-13.1 28.7-21.1 46.7-21.9 9.9 0 9.9 0 14.3 1.2 6.7.7 11.2-1.2 17.4-3.7 34.8-12.7 86.8-5.5 117.3 15.6z" fill="#d97a00"/><path d="M261 385c-.4 4.1-.8 8.1-1.7 12.2-3.1 14.2-2.7 28.5-2.6 42.9q0 4.2 0 8.4c0 14.9.3 29.6 2.1 44.3l.9 9.7c1.1 12.3 2.7 24.1 6.3 35.9 1 3.6 1 3.6 1 7.6-.9.4-.9.4-1.9.8-12.8 5.9-20.8 16.5-26 29.5-2.2 7.4-3.5 14.3-3.4 22q0 1.3 0 2.6A133.62 133.62 0 0 0 243 642c1 3 1 3 1 5q2.4-.4 4.8-.8 1.3-.2 2.6-.5c4.3-1.2 6.2-3.1 8.6-6.7q.3 1.3.6 2.7c8 37.3 8 37.3 31.6 65.3q.9.5 1.8 1c-.9 3.9-.9 3.9-2 5-8.3-.2-16.5-1.6-24.7-3.2l-3.5-.6c-43-8.3-43-8.3-52.8-13.2.7-9.5 1.7-18.9 2.8-28.4.1-1.1.1-1.1.3-2.3q1.8-15.7 3.9-31.3c4.1-30.2 7.6-60.5 9-91q-2 0-4 0l-.2 1.8c-1.4 11.1-2.9 22.2-4.7 33.2-1.6 9.9-2.7 19.9-3.9 29.9-3.5 28.8-7.7 57.5-12.2 86.1-1-.1-1-.1-2-.3-11.2-1.5-22.3-3-33.6-3.1q-1.1 0-2.3 0c-5.1 0-8.6 1.2-13.1 3.4q-.1 3 0 6c1.1 1.3 1.1 1.3 3.5 1.1q1.6-.1 3.2-.1c16.2-.4 31.4.5 47.3 3.4q4.3.8 8.6 1.5c11.9 2 23.5 4.7 35.2 7.6 27.1 6.6 54.6 11.4 82.2 15.5 1.4 4.1.2 7.4-.8 11.5-5.5 24.9-6.7 52.3-2.2 77.5q.5 3.2 1.1 6.4.2 1.6.5 3.2.2 1.2.4 2.4-6.7 1.2-13.3 2.4c-1.9.4-1.9.4-3.8.7-10.4 1.9-20.5 3.1-31 3q-1.1 0-2.3 0c-5.5 0-5.5 0-6.6-1.1q-.2-2.5-.3-5-.1-1.6-.2-3.2-.1-3.3-.2-6.5c-.5-8-2.6-12.7-8.3-18.3-2.4-2.1-2.4-2.1-4.8-3.5l-2.2-1.4c-4.1-2.2-7.7-2.3-12.3-2.3q-1 0-2.2 0-3.6-.1-7.3-.1-1.2 0-2.5 0-6.6 0-13.3-.1-5.4 0-10.9 0-6.6-.1-13.3-.1-2.5 0-5-.1c-10.6-.1-19.2.4-27.6 7.7-4.8 8.6-6.4 18.2-7.6 27.9-7.5.4-13.4-1-20.5-3.5q-1.6-.5-3.2-1.1C98.5 813.8 76.2 794.3 61 763a102.47 102.47 0 0 1-5-13q-.3-.9-.6-1.9c-8-27.2-3.9-59.4-.4-87.1q.2-1.7.4-3.4C62.9 595.2 80.8 531.3 118 480l1.4-2c7-9.7 14.5-18.6 22.8-27.2q2.7-2.7 5.3-5.5a188.7 188.7 0 0 1 22.8-20q2.5-1.9 4.9-3.8c21.5-16.3 58-37.3 85.8-36.5z" fill="#008588"/><path d="M482 86c4.4 1.6 6.8 5 9.7 8.4q.8 1 1.6 1.9c3.2 3.8 6.3 7.7 9.4 11.5 2.8 3.4 5.6 6.6 8.8 9.7 4.9 4.8 9.2 10.1 13.5 15.5q1.1 1.4 2.3 2.8c5.5 7 9.4 14.1 12.8 22.2q1.4 3.2 2.8 6.3c9.1 20.8 7.8 41.6 5.9 63.9-.7 7.5-1 14.9-1.2 22.4-.4 9.5-1.4 18.2-3.6 27.4q-.4 1.8-.8 3.7c-9.7 41.4-28.7 80.9-65.6 104.6-13.8 8.1-26.6 12.2-42.6 11.7q-.4 1.5-.7 3.1c-16.7 70.9-16.7 70.9-26.5 97.8q-.6 1.6-1.2 3.3c-2.5 6.7-5.7 12.7-9.6 18.8-10.2-4.9-19-12.5-27.1-20.3-2.1-2-4.3-3.9-6.5-5.8-5.3-4.6-10.2-9.5-15.2-14.5q-2.4-2.5-4.9-4.9c-6.6-6.5-12.6-13.2-18.3-20.5q-1.4-1.7-2.8-3.4c-11.2-13.8-20.8-28.6-28.3-44.7q-1.4-2.9-2.8-5.8c-9-18.8-9-18.8-9.2-25.1a78.31 78.31 0 0 1 3.4-7.9c7.7-17 13.3-34.4 14.7-53.1q.1-1.2.2-2.4c.8-10.7-.8-19.3-4.9-29.3-1.3-3.3-1.3-3.3-1.3-5.3q-.9.1-1.7.2c-11.9.6-23.2-4.9-32.3-12.2-9.2-8.9-14-21.1-14.2-33.9-.1-13.9 2.2-24.6 11.6-35.2 7.3-6.8 15.9-11.3 25.8-11.6 11.6.7 19 5.3 26.8 13.7 5 6.2 10 13.8 10 22q1 0 2 0l.8-2.2c6.5-15 22.3-29.1 35.2-38.8q1.3-1 2.6-2c11.3-8.5 23.5-15.6 36-22.2 30.9-16.6 69.1-37.2 85.4-69.8z" fill="#d97900"/><path d="M409.4 24.8q3.4 0 6.8 0c8.8-.1 17.1.5 25.8 2.2q1.3.2 2.5.5c24.4 5 47.8 16 66.5 32.5q1.3 1.1 2.5 2.2 3.8 3.4 7.5 6.8 1 .9 2 1.8c19.7 18.5 35.3 48.1 36.3 75.3q0 3.3.1 6.6 0 1.6 0 3.2c0 10.2-2 18.1-8.4 26.1q-1.5-.5-3-1c-1-2.3-1.9-4.5-2.7-6.9-6.9-19.4-15.1-34.9-29.3-50.1q-1.7-1.9-3.4-3.9-3.7-4.2-7.6-8.4c-5.6-6-10.8-12.3-16-18.7-3-4.1-3-4.1-7-7q-.4 1.3-.8 2.7c-11 30.2-53.7 50.9-80.2 65.3-18.5 10-36.6 20.5-52 35q-2 1.7-4.1 3.4c-8.5 7.5-15.9 16.5-21.5 26.4q-.7 1.1-1.4 2.2-1 0-2 0c-.3-1-.3-1-.7-2.1-4.1-12.1-9.8-22.8-21.5-28.8-8.4-3.9-16.7-4.8-25.5-1.9-7.1 3.4-12.4 7.2-17.6 13.1q-.9.8-1.7 1.7-1 0-2 0c-11.1-22.5 2.6-59.7 10-82 3.1-8.8 7.5-16.9 12-25-10.4 2-19.9 4.2-26.7 12.9-7.7 12-10.5 26.5-13.6 40.1-9 40-20.7 80.9-57 104.2-21 12.5-44.5 17.8-68.6 12.3-15.7-4.1-32.3-13.4-41.1-27.5-.7-3.8-.7-3.8-1-7 1.6 0 1.6 0 3.3-.1 16.1-.5 30.3-4.4 41.8-16.5 8.7-10.8 13.8-22.9 16.8-36.4q.2-1.2.5-2.4c2.4-10.9 4.2-21.9 6-32.9 6.1-35.5 6.1-35.5 12.4-49.6q.5-1.1 1-2.3c10.7-23.8 27.6-44.6 52.4-54.4 10.6-4 20-5.8 31.4-5.7q1.7 0 3.5 0c20.2.3 40.2 6.1 54.8 20.7 4.1 4.3 7.7 8.7 11.1 13.6q.7-.6 1.5-1.1c31.3-23.7 68.3-39.1 107.9-39.1z" fill="#003c4c"/><path d="M868.7 83.1c19.9 17.2 33.5 36.7 41.3 61.9q.6 1.7 1.2 3.5c3 10.1 3.2 20.1 3.2 30.6q0 1.1.1 2.2c.1 33.5-13.5 63.6-36.7 87.4-6.9 6.9-14.3 12.4-22.8 17.3q-.9.5-1.9 1.1c-27.5 15.6-62.2 19.9-92.7 11.6-11.3-3.3-22.5-7.3-32.4-13.7l-3.2-2c-26.8-17.8-44.7-45.1-52.2-76.1-1.6-7.9-1.8-15.6-1.8-23.6q-.1-3.3-.1-6.5c-.1-12.9 1.7-25.5 5.9-37.7q.4-1.1.8-2.3c11.2-31.4 35.3-55.9 65-70.2 40.9-18 91.7-12.1 126.3 16.5z" fill="#44c3af"/><path d="M52.2 1037.9h4q2.2 0 4.4 0 2.4 0 4.7 0 6.5 0 13 0 7 0 14.1-.1 13.9 0 27.9 0 16.7 0 33.5 0 40.4 0 80.8 0 19.2 0 38.3 0 64.4-.1 128.8-.1 5.1 0 10.3 0 1 0 2 0 10.3 0 20.6 0 2.1 0 4.2 0 66.4 0 132.9-.1 71.3 0 142.5 0 7.7 0 15.4 0h3.8q30.6 0 61.2-.1 30.7 0 61.4 0 18.3 0 36.5 0 12.2 0 24.4 0 6.9 0 13.9 0 6.3 0 12.6 0 2.3 0 4.6 0c9.1-.1 16.2.1 23.3 6.6q.8 1 1.6 2c.9 1 .9 1 1.8 2.1 3.8 5.1 2.8 11.7 2.3 17.8-2.7 5.8-8 10.6-14 13-2.9.3-2.9.3-6.4.3q-.9 0-1.9 0-3.3 0-6.5 0-2.4 0-4.7 0-6.5 0-13 0-7.1 0-14.1 0-12.4 0-24.8 0-18.4 0-36.8 0-36.8.1-73.5.1h-3.8q-1.9 0-3.9 0-21.1 0-42.2 0-63.7 0-127.4 0-2.1 0-4.1 0-9.3 0-18.6 0-4.2 0-8.3 0-2.1 0-4.1 0-65.7 0-131.3.1-72.5 0-145 .1-7.8 0-15.5 0h-3.8q-30.7 0-61.4 0-30.8 0-61.6 0-18.3 0-36.6 0-12.2.1-24.4 0-7 0-14 0-6.3.1-12.7 0-2.2 0-4.5 0c-8.1.1-14.8.1-21.1-5.6-4-4.3-5.3-9.2-5.6-15 .3-6.8 2.5-11.8 7.2-16.6 4.4-4 7.8-4.5 13.6-4.5z" fill="#dbac4a"/><path d="M530 768c6.2.9 12.9 4.2 17 9 2 5.9 1.8 11.5 1.7 17.6q0 2.7.1 5.4c.1 4.8 0 9.6 0 14.4l.1 15q.1 13.8.1 27.6 0 14 .1 28l-.5 67.4-.2 2.5c-.1 3.3-.4 6-1.4 9.1-4.7 2.8-9.1 4.4-14.4 5.8-10.7 3.2-19.4 9.9-25 19.7-1.4 2.8-2.5 5.6-3.6 8.5q-.6 1.6-1.2 3.1c-4 12.2-3.6 24.4-1.8 36.9H331c5-5 5-5 7.4-6.8 6.3-5.5 11-13.6 11.9-21.9.1-3.3.1-6.5.1-9.8q0-1.8.1-3.7 0-5 0-10.1 0-5.2.1-10.5 0-9.9.1-19.9 0-11.3.1-22.7.1-23.3.2-46.6.9.4 1.8.8 4.1 1.8 8.1 3.5 1.4.7 2.9 1.3c25.6 11.1 54.9 11.8 81 1.7 33-14.1 54.2-43.5 67.2-75.9 5.2-13.1 9.8-26.5 14.2-39.9q.5-1.7 1-3.3.5-1.5 1-3c.8-2.2.8-2.2 1.8-3.2z" fill="#008488"/><path d="M500 742q1.4.6 2.8 1.3 1.9.8 3.8 1.6.9.5 1.8.9c4.2 1.8 8 2.7 12.6 3.2q.3 1.1.7 2.2c2.1 6.5 2.1 6.5 6.2 11.9q1 1.4 2.1 2.9c-1.2 7.9-4 15.5-6.5 23.1q-.3.9-.7 1.9c-14.1 42.2-33.1 79.8-73.8 101.3-6.4 3.1-13.1 5-20 6.7q-1.3.3-2.6.7c-15 3.4-31.6 2-46.4-1.7q-1.6-.4-3.3-.8c-3.3-.9-6.5-2-9.7-3.2q-1-.4-2.1-.7c-10.2-3.6-10.2-3.6-13.9-7.3-1.2-4-1.3-7.1-1.1-11.3.2-8.5-4.4-15.6-9.9-21.7-6.6-6.7-13.5-9.8-22.9-10.1q-2.3-.1-4.7-.1-1.3 0-2.6 0-4.3 0-8.6 0-3.1 0-6.3 0-8.4-.1-16.8-.1-8.8 0-17.6-.1-16.7-.1-33.4-.1-19-.1-38-.2-39-.1-78.1-.3c-2.3-7.7-2.3-7.7-2.3-11.1q0-1 0-2.1 0-1 0-2 0-1.1 0-2.2c0-3.7.2-5.4 2.3-8.6 1.2.5 1.2.5 2.3 1.1a307.17 307.17 0 0 0 22.5 8.7q1.3.5 2.6.9c5.6 1.9 10.8 2.8 16.6 3.3l-.2-3.2c0-9.9 3-20.6 10-27.6 6-4.1 10.8-5.7 17.9-5.6h2.3q3.6 0 7.2 0 2.6 0 5.1 0 5.4-.1 10.7 0 6.8 0 13.6-.1 5.2 0 10.5 0 2.5 0 5 0c10.8-.1 18.7.3 27.1 7.9q1 .8 1.9 1.6c6.1 6.5 6.7 11.8 7.1 20.4q.2 1.6.3 3.4.3 4.1.5 8.2c10.9.2 21.2-.3 32-2q4-.6 8-1.2 2.6-.4 5.3-.8 1.2-.2 2.5-.4 1-.2 2.1-.4c2.1-.2 2.1-.2 6.1-.2q-.5-1.1-1-2.2c-1-2.8-1.1-4.8-1-7.8 6.3-1.1 11.5-.9 17.7.4 7.1 1.5 14 1.9 21.2 2q1.4 0 2.9 0c9.1 0 16.7-2.8 25.1-6.1 11.1-3.9 18.9-2.5 29.7 1.5 9.7 3.4 22.6 3.9 32.3.3 3.8-2 6.4-4.1 8.1-8.1a48.16 48.16 0 0 0 0-9.3c0-2.7 0-2.7 2-5.7 2.2-.6 2.2-.6 4.8-.9 4.4-.8 7.1-1.8 10.2-5.1 1.5-4.6 1-9.1.8-13.8.2-3.2.2-3.2 2.2-5.2q2.1-.7 4.3-1.3c4.4-1.4 7-2.8 9.7-6.7 1.4-5.3 1.2-9-1-14 .5-4.5.5-4.5 2-6z" fill="#003b4a"/><path d="M505.1 714.1q1 .6 2.1 1.2c7.7 4.6 15.5 10.6 19.8 18.7.7 3.8.9 7.2 0 11-1.9 2.5-2.9 3-6 4-5.5.4-9.5-.7-14.4-3q-1-.4-2-.9-2.3-1-4.6-2.1c-1 3.7-1 3.7 0 7.2 1.5 4.1 1 7.6 0 11.8-3.7 6.2-9.4 7.9-16 10q.1 1.4.1 2.9 0 1.9.1 3.8 0 1.8.1 3.7c-.4 5.2-2.1 7.6-6 10.9-4.2 2.2-6.7 2-11.3 1.7-.7 3.6-.9 6.7-.6 10.4 0 3.9-.9 5.9-3.3 9-6.2 6.2-13.4 6.9-21.9 7-7.6 0-14.1-1.8-21.2-4.4-13-4.5-22.7-.8-34.9 4.2-12.9 4.6-29.6 2.4-42.8-.1-4.9-1-9.3-1.2-14.3-1.1-3.6-10.7-3.2-22-3.3-33.2v-2.1c.1-18.7 2.1-36.7 7.3-54.7q2.5.5 5 1 .4-1.1.8-2.3c2.5-5.6 7.1-7.3 12.4-9.8q1.2-.6 2.5-1.2c51.4-23.6 101.7-33 152.4-3.6z" fill="#d97900"/><path d="M290 354c1.4 4.1-.3 6.5-2.1 10.3q-.9 2.1-1.9 4.3l-1 2.2c-10.4 23.1-12.4 46.6-12.3 71.6v2.9c0 16.1.9 31.8 3.3 47.7q.3 1.9.6 3.9c1.9 12.2 3.9 24.3 6.8 36.3.7 3.4.8 6.4.6 9.8q1.1-.1 2.2-.2c12.9-.6 23.3 4.6 32.8 13.2 15.1 16.9 23 44.2 22.4 66.9-.4 2.1-.4 2.1-2.3 4.7-3.9 2.5-6.5 2.5-11.1 2.4q.2 1.2.4 2.4c.3 1.7.3 1.7.5 3.3q.3 1.6.6 3.3c1.4 9.8 1.7 19.6 1.7 29.5q0 1.7 0 3.4c0 11.8-.4 25.1-9.1 34.1-1.6 1.4-3.4 2.7-5.1 4 .1 2.4.1 2.4 1 5 2.2 1.3 2.2 1.3 4.9 2.1 1.5.4 1.5.4 3 .9q1.5.5 3.1 1 2.8 1 5.6 2.1 1.2.4 2.5.9c1.9 1 1.9 1 2.9 4-1.4 2.7-1.4 2.7-3 5q-.9-.2-1.9-.4c-6.5-1.2-13.1-2.2-19.7-3.2-13.3-2-26.6-4.3-39.8-7q-1.1-.2-2.2-.4-19.8-4-39.3-9.1c-7.8-1.9-15.6-3.3-23.5-4.5q-4.2-.7-8.5-1.5c-13.7-2.4-26.7-3.3-40.6-2.9q-1.8 0-3.7.1-1.6 0-3.2.1c-2.6-.2-2.6-.2-4.6-2.2-.4-2.9-.4-2.9 0-6 3.4-3.5 7-3.9 11.7-4.2 30.8-.5 30.8-.5 40.3 4.2q.1-1.6.3-3.2c1.3-13.3 3.1-26.5 5-39.7l7-52c1.2-10.3 2.6-20.6 4.3-30.8.9-5.3 1.6-10.6 2.4-15.9q.2-1.2.4-2.4.1-1 .3-2.1c.3-1.9.3-1.9 1.3-4.9q2 0 4 0c.2 12.6-.4 24.9-1.7 37.5q-.3 2.7-.6 5.4c-2.3 22.9-5 45.8-8.3 68.6-1.3 9.4-2.4 18.9-3.4 28.3q-.2 1.5-.4 3-.1 1.4-.3 2.7c-.3 2.5-.8 5-1.3 7.5q1.4.3 2.8.5c6.3 1.2 12.6 2.5 18.8 4.4 13.9 4.1 28.1 7 42.4 9.4q1.5.3 3.1.5c4.7.8 9.1 1.4 13.9 1.2q1-2 2-4-1-.3-2-.6c-12.8-6.1-18.4-19.8-23-32.4-3.5-10.5-6.5-21.2-9-32-2.3-.2-2.3-.2-4.6 2-4.3 2.5-6.5 2.2-11.4 2-9.2-24.6-14.2-52.3-3-77 5.2-10 12.8-18.9 23-24q1.5 0 3 0-.2-.8-.5-1.6c-3.9-12.8-6.3-25.6-7.8-38.9-.1-1.1-.1-1.1-.3-2.1-1.6-14.6-2.6-29.2-2.6-43.9q0-.9-.1-2 0-5.1 0-10.3 0-4.2-.1-8.4c-.1-16.2.4-31.7 4-47.6.6-3.4 1-6.8 1.4-10.2 2-8.7 6.2-15.2 13-21 5.1-3 10.2-5 16-6z" fill="#008588"/><path d="M796 367c19.6 15.5 25.1 41.5 32 64.3 4.2 13.9 9.4 27.4 14.9 40.7l1.5 3.7q1.4 3.4 2.9 6.8c7.5 18 9.3 36.4 2.4 54.9-4.9 10.6-12.7 18.5-23.7 22.8-16 5.4-32.1 5.5-48-.2-2.4-1.2-4.7-2.6-7-4-1.6-1-1.6-1-3.3-1.9-13.8-10.4-21.3-28.9-23.9-45.5q-.4-3.3-.8-6.6-.1-1.2-.3-2.5c-1.1-10.1-1.8-20.3-2.1-30.4-1-27-2.7-55.8-11.7-81.4-2.2-6.7-3.4-13.5-.3-20 2.8-3.2 5.9-5.3 9.4-7.7q0-1 0-2c20.2-5 40.3-2.1 58 9z" fill="#ac4000"/><path d="M782.8 100.7q1.1 0 2.3 0 2.4 0 4.8 0 3.7 0 7.4-.1 2.3 0 4.7 0 1.1 0 2.2 0c5.6.1 8.8 1.4 12.8 5.4.3 2.1.3 2.1.3 4.6q0 1.5.1 2.9 0 1.6 0 3.2 0 1.6.1 3.2.1 5.1.1 10.2.1 3.5.1 6.9.2 8.5.3 17 .8 0 1.7 0 8.8.1 17.7.3 3.3 0 6.6 0 4.7.1 9.4.2h3c8.8.2 8.8.2 12.6 3.5 2.7 3.6 2.3 7.8 2.3 12.1 0 1.2 0 1.2.1 2.4q0 2.4 0 4.9 0 3.8 0 7.6.1 2.4.1 4.8 0 1.1 0 2.2c0 3.4-.5 5.9-1.8 9-4.3 3.2-8.6 2.7-13.8 2.7q-1.6 0-3.3.1-5.2 0-10.3 0-3.6 0-7.1.1-8.6.1-17.2.1 0 .9 0 1.7 0 9-.2 18.1 0 3.3 0 6.7 0 4.8-.1 9.6 0 1.5 0 3.1c-.1 4.3-.2 7.8-2.7 11.4-3.8 3-6.8 3.3-11.4 3.2h-2.4q-2.6 0-5.1-.1-3.9 0-7.8 0-2.4 0-4.9 0-1.1 0-2.3 0c-4.1-.1-5.9-.5-9.1-3.1-2.6-3.4-3.1-4.9-3.1-9.1q0-1.4 0-2.9v-3.1q0-1.5 0-3.1 0-5 0-10 0-3.4.1-6.8 0-8.3 0-16.6-.9 0-1.8 0-9.5.2-18.9.2-3.5 0-7.1.1-5 .1-10.1.1-1.6 0-3.2.1c-7.2 0-7.2 0-10.5-2.3-3.8-6-2.7-13.7-2.8-20.5q0-2.6 0-5.1-.1-3.7-.1-7.3-.1-1.2-.1-2.3c0-3.7.5-5.9 2.4-9 4.8-3 8.9-2.6 14.4-2.5h3.3q5.1.1 10.3.2 3.5 0 7 .1 8.6 0 17.2.2 0-.9 0-1.8-.1-9-.2-18 0-3.4 0-6.7-.1-4.9-.1-9.7 0-1.5 0-3.1c0-8.8 0-8.8 3.3-12.7 3.7-2.5 6.5-2.3 10.8-2.3z" fill="#d97901"/><path d="M931 619c29.7 17.8 48.5 48 57 81q.3 1.3.7 2.6c6.6 26 7 55.2 1.3 81.4q-.2 1.2-.5 2.5c-3.9 19.8-10.9 39-20.5 56.7q-1.5 2.6-2.8 5.3c-7.4 13.6-17.2 27.6-29.2 37.5q-1 0-2 0-.1-1.8-.3-3.8c-1-13.1-3.3-25.7-6.2-38.6-.5-2.4-.8-4.8-1-7.2q-.3-1.7-.5-3.4-1-.5-2-1 .8-1.1 1.7-2.3c23.3-32.9 31.8-68.4 26.1-108.7-3.4-18.8-9.5-36.9-19.8-53q-.5-.8-1.1-1.7c-5.5-8.6-11.9-15.7-19.4-22.5-5.6-5.4-8.9-10.7-10-18.5.7-4.6 2.5-7.8 6.2-10.7 8.3-2.3 14.9.6 22.3 4.4z" fill="#da7b00"/><path d="M202.8 881.3h2.2q2.3 0 4.6 0 3.6.1 7.1 0 2.3 0 4.5 0h2.2c3.6.1 5.5.7 8.6 2.7 2.7 4.1 2.6 7.1 2.5 12q0 1.3 0 2.6-.1 4.1-.2 8.2 0 2.8-.1 5.6 0 6.8-.2 13.6 1.7 0 3.5-.1 6.4-.1 12.8-.1 2.8 0 5.6-.1 4-.1 8-.1 1.2 0 2.5-.1c3.9 0 6.4.4 10.1 2 2.8 2.8 3.2 4.6 3.3 8.5q0 1.2-.1 2.4v2.4q0 2.6 0 5.1-.1 4-.1 7.9 0 2.5 0 5 0 1.1 0 2.3c-.1 3.1-.2 5.3-2.1 7.9-3.9 1.6-7.7 1.4-11.9 1.3h-2.7q-4.3-.1-8.7-.1-2.9 0-5.8-.1-7.2 0-14.4-.1a42.08 42.08 0 0 0 .1 3.5q.1 6.5.1 12.9 0 2.8.1 5.6.1 4.1.1 8.1 0 1.2.1 2.5c0 3.6-.1 5.8-2 8.9-3.5 2.1-6.7 2.1-10.6 2.1q-1.2 0-2.4 0-2.5 0-5 0-3.8 0-7.5 0-2.5 0-4.9 0-1.1 0-2.3.1c-3.5-.1-5.5-.4-8.3-2.7-2-4.1-2-7.3-1.9-11.8q0-1.2 0-2.5.1-4 .1-8 .1-2.7.1-5.4.1-6.7.2-13.3c-1.8 0-1.8 0-3.6.1q-6.6.1-13.3.1-2.8 0-5.7.1-4.1.1-8.3.1-1.2 0-2.5.1c-3.7 0-6-.1-9.1-2-2.1-3.4-2.1-6.5-2.1-10.4q0-1.1 0-2.3 0-2.4 0-4.8 0-3.6 0-7.3 0-2.4 0-4.7 0-1.1-.1-2.2c.1-3.7.6-5.7 2.7-8.8 4.1-2.7 7.2-2.6 12-2.5h2.6q4.1.1 8.2.2 2.8 0 5.6.1 6.8 0 13.6.2 0-1.7-.1-3.5-.1-6.4-.2-12.9 0-2.8-.1-5.6-.1-4-.1-8 0-1.2-.1-2.5c0-4.1.3-6 2.6-9.5 3.7-2.4 6.5-2.7 10.7-2.7z" fill="#f0f1c6"/><path d="M500 742l17 7c-8.8 33.7-20 75.9-44 102q-1 1.2-2.1 2.5c-5.3 6.3-11.1 11-17.9 15.5-1.4.9-1.4.9-2.8 1.9-16.7 10.6-35.6 12.6-54.9 8.8-23.1-5.8-40.3-22.2-53.3-41.7-3.5-5.9-4.6-11.2-5-18q2.8.2 5.6.4a34.6 34.6 0 0 0 3.2.3c3.2.3 3.2.3 5.9.8 4.8.7 9.7.7 14.5.8q1.5 0 3 0c9.5.1 17-2.5 25.7-6 11.1-3.9 18.9-2.5 29.7 1.5 9.7 3.4 22.6 3.9 32.3.3 3.8-2 6.4-4.1 8.1-8.1a48.16 48.16 0 0 0 0-9.3c0-2.7 0-2.7 2-5.7 2.2-.6 2.2-.6 4.8-.9 4.4-.8 7.1-1.8 10.2-5.1 1.5-4.6 1-9.1.8-13.8.2-3.2.2-3.2 2.2-5.2q2.1-.7 4.3-1.3c4.4-1.4 7-2.8 9.7-6.7 1.4-5.3 1.2-9-1-14 .5-4.5.5-4.5 2-6z" fill="#008589"/><path d="M765 552c4 1.4 7 2.9 10 6 .6 3 .8 5.3.8 8.3q0 1.2 0 2.5.1 2.6.1 5.1l.1 7.8c.1 8.1.1 14.1-5.2 20.6q-2.4 2.4-4.8 4.7-1.4 1.6-2.8 3.3C737.8 638.5 702 656.9 664 660l-9.9.2q-1.4 0-2.8 0-2.9 0-5.8 0-4.4.1-8.8.1c-15.4.1-29.7-1.4-44.3-6.5q-1.3-.4-2.7-.9c-13.6-4.8-24.5-11.8-35.7-20.9q-1.2-.8-2.4-1.7-.8-.6-1.6-1.3 0-1 0-2-1 0-2 0v-40l10 8.7c23.2 20.3 49.5 28.7 80.1 28.6q3.9 0 7.7.1c15 0 29.6-1.6 43.8-6.6q1.3-.4 2.7-.9c27.7-9.8 56.2-29.4 69.4-56.5 1.2-2.7 2.3-5.5 3.3-8.4z" fill="#013b4c"/><path d="M587.1 674.6c12.8 8.3 20.6 21 24.5 35.6 2.6 17.9-.8 35.6-10.5 50.8-7.7 10-16.3 15.1-28.1 19-14.7 1.4-26-.5-37.9-9.5-2.1-1.7-2.1-1.7-5.1-2.5-5.5-6-8.2-12-9-20l2.5-.8c3-2.6 3.1-3.4 3.4-7.2-.3-8.3-6.3-13.4-11.9-19-1-13.9 3.3-24.8 12.3-35.4 4.5-4.6 9.2-8.3 14.7-11.6q1.2-.8 2.4-1.5c13-7.2 30.2-4.7 42.7 2.1z" fill="#014c58"/><path d="M626.5 465.9c6 3.8 9.9 8 11.5 15.1.7 6.1-.8 10.8-4 16-4.6 5.3-9.4 8-16 10-.9.3-.9.3-1.9.6-2.6.5-5.1.5-7.8.5q-1.5-.1-3-.1-1.2 0-2.3 0c1 8.6 1.8 14.8 8.1 21.1 9.2 6 18 7.2 28.8 5.4 12-2.8 20.6-10.3 29.5-18.2l7.6-6.3c2.4 1.2 2.4 1.2 5 3 1 2.9 1.2 4.5.2 7.5-4.9 9.1-11.2 17.7-21.4 21.3-2.9 1.9-3.3 5-4.2 8.2-4.3 14.2-12.5 25.6-25.6 33-13.5 6.2-30.5 9.2-45.1 4.6-9.2-4.2-15.3-10.8-19.1-20-1.6-5.2-1.9-9.8-1.9-15.3v-2c0-5 0-5 1.1-7.3q-1-.1-2.1-.2c-7.4-2-12.6-7.8-16.9-13.8-3.2-6.8-4.4-14.8-2.4-22.1.7-2 .7-2 2.4-4.9l3-1q.2 1.3.3 2.6c1.3 9.4 2.5 17.5 9.7 24.4 5.3 3.1 11 3.9 17 3 5.1-1.5 9-4.1 12-8.7 2.2-5.1 3.1-10.8 4-16.3q-1.3-.4-2.7-.8c-8.6-3.1-14.9-9-20.3-16.2-1.9-5.8-2.2-12.7-.1-18.5 11-18.7 40.8-13.4 56.6-4.6z" fill="#02394c"/><path d="M603 347c-2.4 1.6-4.3 2.6-6.9 3.7-9.1 3.8-16.8 7.6-24.1 14.3q-1.2.9-2.4 1.9c-6 4.9-9.7 10.4-13.6 17.1q-.7 1.1-1.4 2.2c-3.9 6.2-6.7 12.5-9.2 19.5q-.5 1.6-1.1 3.3c-3.5 9.9-5.7 20-7.7 30.3-.9 4.3-2 8.6-3 12.8q-.3 1.2-.7 2.5c-1.3 5.1-2.7 10.2-4.2 15.3-10.1 34.2-10.1 34.2-2.7 68.1q.5 1.5 1 3c-9.9 3.3-22.2 1.1-31.6-3.2-2.2-1.2-4.3-2.4-6.4-3.8q-1.3-.9-2.7-1.7c-9.5-9.3-13.3-22.7-13.5-35.8.3-20.3 10.4-38.9 19.9-56.4 2.8-5.1 5.3-10.3 7.7-15.6 4-8.4 8.5-16.3 13.3-24.3q2.1-3.5 4.1-7.1c4.8-8.6 9.5-16.8 16.2-24.1q1-1.1 2-2.3c17.2-18.5 42.5-26 67-19.7z" fill="#ab3f00"/><path d="M290 354c1.4 4.1-.3 6.5-2.1 10.3q-.9 2.1-1.9 4.3-.5 1.1-1 2.2c-10.4 23.1-12.4 46.6-12.3 71.6v2.9c0 16.1.9 31.8 3.3 47.7q.3 1.9.6 3.9c1.9 12.2 3.9 24.3 6.8 36.3.7 3.4.8 6.4.6 9.8l2.2-.2c12.9-.6 23.3 4.6 32.8 13.2 15.1 16.9 23 44.2 22.4 66.9-.4 2.1-.4 2.1-2.3 4.7-3.3 2.2-4.8 2.5-8.7 2q-1.2-.2-2.5-.3-.9-.2-1.9-.3-.4-1.7-.8-3.4c-7.3-34.8-7.3-34.8-28.3-61.5-7.6-2.8-17.8-3.9-25.5-1.2-8.2 5-12.3 13.1-15.1 22-3.4 13.4-1.1 27 1.3 40.4 1 5.7 1.9 11 1.4 16.7-2.6 2.6-5.2 4.9-8.9 5.1q-3.1-.1-6.1-.1c-9.2-24.6-14.2-52.3-3-77 5.2-10 12.8-18.9 23-24q1.5 0 3 0-.2-.8-.5-1.6c-3.9-12.8-6.3-25.6-7.8-38.9q-.1-1.1-.3-2.1c-1.6-14.6-2.6-29.2-2.6-43.9q0-.9-.1-2 0-5.1 0-10.3 0-4.2-.1-8.4c-.1-16.2.4-31.7 4-47.6.6-3.4 1-6.8 1.4-10.2 2-8.7 6.2-15.2 13-21 5.1-3 10.2-5 16-6z" fill="#003c4c"/><path d="M730 791c.4 12.4-1.2 24.3-3.2 36.5q-.2 1-.3 2.1-.9 5.1-1.7 10.2c-.9 5.5-1.8 11-2.3 16.6-.4 5.3-1.3 10.4-2.2 15.6-1.6 8.6-3 17.3-4.4 25.9q-.6 4.2-1.3 8.4-2.6 16.6-5 33.1-1.2 8.8-2.6 17.6.9-.1 1.9-.1c11-.3 21.6 1.5 31.1 7.1q.5.5 1 1 3.5.2 7.1.3 1.1 0 2.1.1 3.5.1 6.9.2 2.3 0 4.6.1 5.6.2 11.3.3-1.3-.9-2.7-1.8-1.7-1.2-3.5-2.4-.9-.6-1.8-1.2c-15.6-10.6-21.9-29-25.7-46.8-4.7-28.4-2.2-59.7 14.7-83.8 3.7-4.6 7.8-8.8 12-13q1.3-1.3 2.5-2.5c11.3-10.7 25.8-19.7 41.7-19.9 3.3.1 5.7.4 8.8 1.4.1 2.4.1 2.4 0 5-2.4 2.4-4.2 2.6-7.4 3.2-19.9 3.9-36.8 14.6-48.5 31.4-7.5 11.9-12.4 24.6-15.1 38.4q-.3 1.2-.5 2.4c-4 21.7.9 48.2 12.6 66.9 6.9 9.8 18.7 20.4 30.9 22.7a172.72 172.72 0 0 0 10.3.6c4 .2 7.1.7 10.7 2.4q-.5 1.5-1 3h-2.7q-12.7.1-25.4.2-6.5 0-13 .1-6.3 0-12.6.1-2.4 0-4.8 0c-9.9 0-18 .4-26.1 6.6-12.3 12.7-18.7 27.8-18.6 45.4q0 1.6.1 3.2l.1 10.4h-33c1.4-4.3 2.9-8.2 4.7-12.3 4.5-10.9 7.4-22.3 10.3-33.7l.8-3c5.4-21.5 8.5-43.4 11.8-65.3q1.5-9.3 3.1-18.5c1.1-6.6 2-13.1 2.7-19.8 2.6-23 6.4-45.9 10.5-68.8 1.4-7.6 2.6-15.3 3.6-23q.2-1.3.5-2.6c2.7-1.3 4.2-.7 7 0z" fill="#a93d00"/><path d="M455 396l.3 2c.8 3.4 2.2 6.2 3.9 9.2.8 1.8.8 1.8.8 3.8q1 .5 2 1l1.9 8.2q.3 1.2.6 2.5.5 2.5 1 5 .7 3 1.4 6c3.9 17.1 4.4 33.8 4.3 51.3q0 5.5 0 11a919.06 919.06 0 0 1-.6 33.2l-.2 2.6c-.2 5.5-.8 10.8-1.4 16.2q.9.3 1.8.5c8.3 2.4 14 6.1 18.6 13.5 4.5 8.2 6.1 15.6 3.9 24.8-3.5 10.8-10.3 18.9-20.2 24.2-7.8 3.2-18 3.5-26.1 1.1-9-4.2-17.2-11.4-21.1-20.7-1.2-4.4-1.2-8.4-1.2-12.8q0-1.3-.1-2.5c0-8.4 2.6-14 8.3-20.2 6.2-5.7 11.8-8.1 20.1-8.9q0-.9.1-1.8.2-4.3.3-8.5.1-1.4.2-2.9 0-1.4.1-2.9 0-1.3.1-2.6l.7-8.5c.5-5.5.7-11 .7-16.5q0-1.5 0-3 0-4.7 0-9.4.1-1.6.1-3.3c-.1-26.1-1.2-53.4-12.4-77.5-.9-2.1-.9-2.1-.9-4.1l-9 1 2-9q3.6-.5 7.2-1c1-.1 1-.1 2-.3 3.6-.5 7.1-.8 10.8-.7z" fill="#002f3c"/><path d="M577.4 686.4c7.7 5.5 13.8 13.3 16.2 22.5 2.2 15.8.4 30.2-8.7 43.7-5.5 7.2-11.8 12.7-20.9 14.4-9.7.6-16.6.6-24.4-5.6-3.3-3-3.5-3.6-4-8.1.1-3.3.6-5.1 2.7-7.7 4.3-4.2 8.3-5 14.1-6 7.9-1.4 7.9-1.4 13.9-6.3 1.4-4.7 1.4-8.7-.5-13.1-6.3-5-14.9-5.2-22.7-6.1-7.9-1-7.9-1-11-3.2-2.2-3.1-2.9-5.1-2.5-8.9 1.5-7.1 6.5-12 12.4-16 11.2-5.8 24.4-6 35.4.4z" fill="#49beac"/><path d="M223 543q2 0 4 0a294.28 294.28 0 0 1-1.8 37.5q-.2 2.7-.5 5.4c-2.3 22.9-5 45.8-8.3 68.6-1.3 9.4-2.4 18.9-3.4 28.3q-.2 1.5-.4 3-.1 1.4-.3 2.7c-.3 2.5-.8 5-1.3 7.5q1.4.3 2.8.5c6.3 1.2 12.6 2.5 18.8 4.4 18.6 5.4 37.7 8.6 56.9 11.6q7.1 1.1 14.1 2.2 6 1 12.1 1.8c8.5 1.2 17.1 2.5 24.3 7.5-1.9 4.8-1.9 4.8-3 7q-.9-.2-1.9-.4c-6.5-1.2-13.1-2.2-19.7-3.2-13.3-2-26.6-4.3-39.8-7q-1.1-.2-2.2-.4-19.8-4-39.3-9.1c-7.8-1.9-15.6-3.3-23.5-4.5q-4.2-.7-8.5-1.5c-13.7-2.4-26.7-3.3-40.6-2.9q-1.8 0-3.7.1-1.6 0-3.2.1c-2.6-.2-2.6-.2-4.6-2.2-.4-2.9-.4-2.9 0-6 3.4-3.5 7-3.9 11.7-4.2 30.8-.5 30.8-.5 40.3 4.2q.1-1.6.3-3.2c1.3-13.3 3.1-26.5 5-39.7l7-52c1.2-10.3 2.6-20.6 4.3-30.8.9-5.3 1.6-10.6 2.4-15.9l.4-2.4c.1-1.1.1-1.1.3-2.1.3-1.9.3-1.9 1.3-4.9z" fill="#004d58"/><path d="M455 396l.3 2c.8 3.4 2.2 6.2 3.9 9.2.8 1.8.8 1.8.8 3.8q1 .5 2 1l1.9 8.2q.3 1.2.6 2.5.5 2.5 1 5 .7 3 1.4 6c3.9 17.1 4.4 33.8 4.3 51.3q0 5.5 0 11a919.06 919.06 0 0 1-.6 33.2l-.2 2.6c-.2 5.5-.8 10.8-1.4 16.2q-1-.5-2-1-3.3-.3-6.6-.6-1.8-.1-3.6-.2-1.4-.1-2.8-.2c-1.1-4.7-.9-8.6-.4-13.3 4-39 6.2-86.3-10.7-122.6-.9-2.1-.9-2.1-.9-4.1l-9 1 2-9q3.6-.5 7.2-1 1-.1 2-.3c3.6-.5 7.1-.8 10.8-.7z" fill="#003a4a"/><path d="M812 670c.8 3.2.8 3.2 1 7-1.8 2.2-3.3 3.6-5.5 5.3-9 7.5-17.2 18.9-19.5 30.7-.3 3.5-.4 6.1 1 9.4 3 2.4 6.2 2.9 10 2.6 2.3-1.9 3.5-3.2 5.2-5.6q1.4-1.8 2.8-3.6.7-.9 1.5-1.9c2.6-3.3 5.5-6.4 8.4-9.5.9-.8.9-.8 1.7-1.7q1.5-1.7 3-3.3 1.8-1.9 3.6-3.8.9-.8 1.8-1.6c2.7.2 2.7.2 5 1-.6 3.9-2.4 5.8-5 8.6l-2.5 2.7q-1.2 1.3-2.5 2.7-7.6 8.3-14.9 16.8c-.7.7-.7.7-1.4 1.6-3.3 3.9-6.5 7.8-6.9 13 .2 1.2.2 1.2.3 2.3q.2 1.1.3 2.2c.7 2.5 1.6 3.5 3.6 5.1 4.5.9 6.7.7 10.7-1.5 12-8.4 20-20.2 28.1-32.2q.7-1.1 1.5-2.2c.6-.9.6-.9 1.3-1.8 1.4-1.3 1.4-1.3 4.1-1.5q1.1.1 2.3.2c.8 1.6.8 1.6 1 4-1.3 2.3-2.6 4.3-4.2 6.4q-.7.9-1.3 1.8c-4.3 5.7-8.9 11.2-13.6 16.5q-.7.8-1.4 1.6-1.6 1.8-3.2 3.5-.8.9-1.6 1.9-.8.8-1.5 1.7c-1.5 1.8-1.5 1.8-1.9 5.2 1 4.7 2.1 6.2 5.7 9.4 5.8.7 8.7-.6 13.4-4.1q.8-.6 1.7-1.2c4.1-3 8.1-6.2 11.9-9.6 2-1.1 2-1.1 4.6-.9 2.9 1 3.8 2.2 5.4 4.8q-1.3.8-2.6 1.6c-3.6 2.4-6.6 5.3-9.7 8.3-13.1 12.3-13.1 12.3-22.9 12.8-5-.2-8-1.3-11.5-4.8-2.8-4-4.3-8-4.3-12.9q-.8.2-1.7.4c-12.1 2.9-12.1 2.9-16.2.4-3.5-2.8-6.2-5.3-7.1-9.8-.5-5.4-.1-9.9 2-15q-1.1-.4-2.2-.7c-5-2.3-8.7-5.2-10.8-10.3-2.2-11.3 4.9-22.7 10.7-31.8C804.2 670 804.2 670 812 670z" fill="#a93d00"/><path d="M61.1 1037.5q2.4 0 4.7 0 6.5 0 13 0 7 0 14 0 12.4 0 24.7 0 18.4 0 36.7 0 32.8-.1 65.6 0 28.6 0 57.3 0 1.9 0 3.8 0 7.8 0 15.5 0 53.8-.1 107.7 0h2q16.5 0 33 0 65.4 0 130.8 0 16.4 0 32.9 0 1 0 2.1 0 54.7-.1 109.5 0 7.7 0 15.4 0 1.9 0 3.8 0 28.7 0 57.3 0 32.6-.1 65.2 0 18.2 0 36.5 0 12.1 0 24.3 0 7 0 13.9 0 6.3 0 12.6 0 2.3 0 4.6 0c9.5-.1 16.8.3 24 7.2q1 1.2 2 2.3-.5 1-1 2l-1.7-1.5q-1.1-1-2.2-1.9-1-1-2.2-2c-3.4-2.8-5.6-2.7-10-2.7q-2 0-4 0-2.2 0-4.5 0-2.3 0-4.7 0-6.5-.1-13-.1-7 0-14.1 0-14 0-28 0-16.8 0-33.6 0-40.6-.1-81.2-.1-13.4 0-26.8 0-70.4 0-140.8 0-5.1 0-10.3 0-1 0-2 0-10.4 0-20.7 0-2.1-.1-4.2-.1-66.7 0-133.4 0-69.5-.1-139.1-.1-9.6 0-19.3 0-1.9 0-3.9 0-30.6 0-61.3-.1-30.8 0-61.6 0-18.4 0-36.7 0-12.2 0-24.4 0-7 0-14 0-6.3-.1-12.7 0-2.2 0-4.5 0c-8.4-.1-14.4.2-21.1 5.6 1.6-3.5 3.1-5.4 6.6-7.2 5.6-1.8 11.7-1.3 17.5-1.3z" fill="#eebc4b"/><path d="M596 535q1.5.5 3 1 0 1 0 2 .8.4 1.7.8 2.4 1.2 4.6 2.6c6.3 3.7 12 5.6 19.1 6.9q1.3.3 2.6.7c1.9 5.7-.8 12.2-3.1 17.6-3.7 7-8.3 11-15.9 13.4-3 .4-5.9.5-8.9.4q-1.2.1-2.3.1c-7.2 0-12.5-2.2-17.6-7.3-5.6-8.2-5.8-15.4-5.2-25.2q.5-1.5 1-3c2.7-1 2.7-1 6.2-1.9 6.1-1.8 10.3-3.6 14.8-8.1z" fill="#ec831b"/><path d="M186.7 816.7h3.6 4q2 0 4 0 4.3 0 8.5 0 5.4.1 10.9 0 4.1 0 8.3 0 3 0 6 0c14.8.1 14.8.1 19 4.3.2 2.9.2 2.9.2 6.4q0 1.8 0 3.5c-.2 3.1-.2 3.1-1.2 6.1-12.6.2-25.1 0-37.7-.7q-2.3-.1-4.5-.2c-9.9-.5-19.2-1.7-28.8-4.1-.2-10-.2-10 0-13 2.7-2.7 4-2.3 7.7-2.3z" fill="#00868a"/><path d="M340 625q1 0 2 0c6.4 72.3 6.4 72.3-6.9 88.3-3.2 3.1-5.3 4.5-9.7 5.4-3.9-.8-6.3-2.3-9.4-4.7.1-2.2.1-2.2 1-5q2.2-1.7 4.4-3.4c7.7-7.4 8.6-19.7 8.9-29.8q0-3.2-.1-6.5 0-1.7 0-3.5c-.1-12-1-23.9-2.2-35.8.9-.2.9-.2 1.9-.3 1.2-.3 1.2-.3 2.4-.5s1.2-.2 2.4-.5c2.6-.8 3.5-1.8 5.3-3.7z" fill="#4abdac"/><path d="M470.3 561.6c4.7 3.1 7.3 5.9 9.4 11.3.8 6 1 10.2-2.4 15.4-3.1 3.9-6.5 7.1-11.3 8.7-6.5.6-11.5-.4-17-4-4.8-4.9-6.7-9-7.4-15.8.1-6 3.7-10.1 7.3-14.6 6.7-5.2 14.3-4.9 21.3-1z" fill="#4abfad"/><path d="M259 639c1.6 2.9 2.5 5.6 3.2 8.8 7.8 34 7.8 34 30 59.2q.9.5 1.8 1c-.9 3.9-.9 3.9-2 5-5.9-.1-11.8-.9-17.6-1.8-1.1-.1-1.1-.1-2.3-.3-3.6-1.5-4.7-5-6.2-8.4q-.5-1.4-1-2.7l-1.2-3.1q-.6-1.6-1.3-3.3-.6-1.7-1.3-3.5-2-5.4-4.1-10.9c-.4-.9-.4-.9-.7-1.9q-2.4-6.5-4.9-13-.6-1.7-1.3-3.5l-1.2-3.2q-.5-1.4-1-2.9c-.8-2.1-1.4-4.3-1.9-6.5q1-.3 2.1-.7c5.7-2 5.7-2 10-6.1.5-1.1.5-1.1.9-2.2z" fill="#4bbfad"/><path d="M336 352c4.8.5 7.6 2.7 11.1 5.8q.8.7 1.7 1.5c3.9 3.5 7.7 7.1 11.3 10.9 18.1 18.4 40.1 26.2 65.5 27.4q1.3 0 2.7.1 3.4.1 6.7.3l-2 9c-29.9 1.2-53-4.5-75.3-25.1q-3.6-3.4-7.2-7-1.1-1.1-2.3-2.2C342.5 367 336 360.4 336 352z" fill="#a83d00"/><path d="M476 225c2.3 1.7 3.8 3.1 4.4 5.9l.5 7.2c1.1 14.8 6.2 27.6 12.5 41 3.9 8.4 5.7 18.7 2.7 27.8-3.2 4.7-7.8 8.1-13.2 9.7-7.5 1.5-12.6-.7-18.9-4.6-3.1-2.4-3.1-2.4-5-5-.3-3.3-.3-3.3 0-6 1.6-.8 1.6-.8 4-1 3.1 2.4 3.1 2.4 6 5 3.1 1.5 5.6 1.2 9 1 3.4-1.2 5.4-2 7.4-5.1 2.9-13.6-3.6-26.7-8.5-39.2-2.4-7.4-3.2-14.3-3.2-21.9q0-1.4 0-2.7c0-4.5.2-8 2.3-12.1z" fill="#05364c"/><path d="M563 794.7c2.1 1.4 3.2 2.5 4.6 4.6q.7 1 1.4 2l1.5 2.2 1.6 2.3 12.4 18.5c8.3 12.4 16.9 24.5 26.3 36.2q1.7 2.1 3.2 4.3c4.6 6 9.5 10.1 15.7 14.4q1.1.9 2.3 1.8 0 1 0 2c-5.5-1.9-9.5-5.3-14-8.9-3-2.1-5.5-3-9-4.1-6.7-4.7-11.5-12.5-16.4-19q-2.5-3.2-5.1-6.4c-5.9-7.5-11.7-15.1-16.9-23.2l-6.4-9.2q-.7-1-1.4-1.9-1.4-1.8-2.8-3.6c-2.7-3.7-3.5-6.1-3-10.7 3.4-2.2 3.4-2.2 6-1.3z" fill="#a83c00"/><path d="M401.2 228.2c3.4 1 6.1 2.6 9.1 4.4 8.5 4.5 17.3 5.1 26.6 2.6q3.1-1.1 6.1-2.2 1.5 1 3 2c-.3 6.5-2.6 10.3-7 15-5.4 4.6-10.1 6.5-17.1 6.4-7.6-1.1-15-5.2-19.7-11.4-6.2-10-6.2-10-6.2-14 1.6-2.3 2.3-3.1 5.2-2.8z" fill="#03394b"/><path d="M693 428c4.7 3.3 8.8 6.6 11 12 .4 2.9.4 4.4-1.2 6.8-1.8 1.2-1.8 1.2-4 1.8-3.2-.7-3.9-1.5-6-3.8-5.3-5.6-10.8-8-18.5-8.5-6.7.2-11.4 2.9-17.1 6.3-3.7 1.6-5.4 1.5-9.2.4-1-1-1-1-1.3-4.3.4-4.4 1.2-5.5 4.3-8.7 3.1-1.8 3.1-1.8 6.5-3.3q1.7-.7 3.4-1.5c11.1-4.4 21.6-2.4 32.1 2.8z" fill="#05374c"/><path d="M566 986q1 1 2 2c-.2 5-2.1 8.1-4.8 12.2-7.6 11.8-10 24-11.2 37.8h-10c-3.5-12.6-3.4-26.1 2.5-38 4.6-7.8 11.5-16.8 21.5-14z" fill="#a93d00"/><path d="M649.6 798.8c2.4.2 2.4.2 3.4 1.2l-.3 7.6q0 1.3-.1 2.6c-.5 9-1.5 17.9-2.4 26.9l-2.9 34.3q-.1 1.4-.2 2.7-.6 7.5-1.1 14.9c-3.4-.5-5.1-1.1-8-3-1.7-11.4.6-24.3 1.5-35.7q.4-5.1.8-10.1c.8-10.3 1.7-20.5 3.2-30.7q.2-1.2.4-2.5c1.2-7.9 1.2-7.9 5.7-8.2z" fill="#a83d00"/><path d="M538 234q1.5.5 3 1c.3 3.1.3 4.6-1.5 7.2-7.8 7.8-17.1 13.8-28.4 14.1-4.4-.1-7.4-.5-11.1-3.3-3.4-4.7-4.9-9.2-4-15 1.5-2.5 1.5-2.5 4-4 3.9-.1 7.3.8 11 2 7.4.5 14.2.6 21.1-2.4 2.4-.7 3.6-.4 5.9.4z" fill="#03394b"/><path d="M417 324l2.7 3.1c6.7 8.5 16.9 13 27.3 14.9 8.4.9 16.3.7 24-3 2.1-.7 2.1-.7 4-1 2 2 2 2 2.1 4.3-1.7 4.2-5 5.9-9.1 7.7-13.8 4.1-27.9 3-40.8-3.4-7.5-4.3-14-10-18.2-17.6-.2-2.7-.2-2.7 0-5 3.1-1.5 4.7-1 8 0z" fill="#04364d"/><path d="M660 990c.9 5.6-1.4 8.7-4.3 13.2-6.6 11-8.7 22.2-9.7 34.8h-10c-2.9-11.5-2.6-26.4 3-37 4.5-7.2 11.6-15.7 21-11z" fill="#a93d00"/><path d="M453 190l-1 8c-5.8.4-9.5-.3-14.6-2.9-10.6-4.8-22.1-4.3-32.9-.8-3.5 1-6.9 1.4-10.5 1.7l-2-9c19.3-10.2 42.6-8.6 61 3z" fill="#04364d"/><path d="M586 422c4.8 3.8 8.6 9.4 11 15-.3 3-.8 3.8-3 6-2.3.5-2.3.5-5 0-1.2-1.4-2.5-2.9-3.6-4.4-3.1-3.6-6.4-5.3-11-6.1-6.4-.3-10 .8-14.8 5q-1.8 1.7-3.6 3.5c-2.5-.2-2.5-.2-5-1q-1-1.5-2-3c4.1-8.9 9.2-13.4 18-17.3 6.9-1.6 12.7-1 19 2.3z" fill="#06374c"/><path d="M537.8 185.8c7 3.8 7 3.8 8.2 6.2.2 3 .2 3 0 6q-1 1-2 2c-4.9-.3-7.9-1.4-12-4-9.2-3.7-19.6-2.9-28.9.3-2.7.9-5.2 1-8.1.7-1-1-1-1-1.2-4.3 1.2-3.7 1.2-3.7 3.4-5.2 12.2-6.1 28-7.2 40.6-1.7z" fill="#03384b"/><path d="M285 213c5.2 2 9 5.3 12 10 1.9 4.5 1.7 9.8.2 14.4q-1.1 2.5-2.2 5.1c-1.5 3.7-2.2 7.5-3 11.5-3.1.3-4.7.2-7.4-1.3-2.6-4.4-1.5-8.8-.6-13.7.5-1.8.5-1.8 1.1-3.6 1.2-4.5 1.7-8.7.9-13.4-2.7-2.7-4.4-2.9-8.2-3.4-4.8.5-9.2 1.8-13.8 3.4 4.2-9.2 11.8-10 21-9z" fill="#a93d00"/><path d="M537.9 982.3q1 .3 2.1.7.5 2 1 4-1.1.9-2.2 1.8c-9.7 8.2-15.8 17.8-17 30.8q-.3 4.2-.4 8.4c-.1 1.4-.1 1.4-.1 2.9q-.2 3.6-.3 7.1h-8c-.5-19.1.3-35.5 14-50.1 6.3-6 6.3-6 10.9-5.6z" fill="#a83b00"/><path d="M632 986q.5 2.5 1 5-1.5 1.1-3.1 2.3c-5 4.2-7.4 9.8-9.9 15.7q-.6 1.3-1.2 2.6c-1.2 5.1-1 10.1-.9 15.3v3.2q0 4 .1 7.9h-7c-3.4-10.3-2.5-26.6 1.7-36.6 4-7.3 9.8-16.5 19.3-15.4z" fill="#a83c00"/><path d="M747 987q.5 2 1 4-.8.5-1.5 1c-9 6-13.3 14.6-15.5 25-.3 3.7-.3 7.4-.2 11.1q0 1.5.1 2.9 0 3.5.1 7h-7c-3.6-10.7-2.2-25.3 2.5-35.4 4.4-7.7 10.7-17.9 20.5-15.6z" fill="#a83b00"/><path d="M927 833q1.4 6.4 2.9 12.8.4 1.7.8 3.5c4.5 20.3 4.5 20.3 4.8 30.7q.1 1.8.2 3.8c-.7 3.2-.7 3.2-3.7 5.6l-3 1.6c-1.7-1.7-1.4-4-1.6-6.3q-.2-1.7-.4-3.4-.1-1.8-.3-3.6c-1-9.6-2.3-19.1-4.4-28.5-1.7-7.7-1.7-7.7-1.3-11.2 4.3-5 4.3-5 6-5z" fill="#aa3e00"/><path d="M445 721c9.2 1 17.4 3.7 26 7q3.2 1.2 6.3 2.4c17 6.4 17 6.4 21.7 9.6l1 3c-1.4 2.2-1.4 2.2-3 4q-1.1-.4-2.2-.9-5.2-2-10.4-4.1-1-.4-1.9-.8c-9.6-3.7-19.1-7.3-28.8-10.6q-1.3-.5-2.6-.9-1.1-.4-2.2-.8c-2.2-1-3.5-1.9-4.9-3.9.3-2.2.3-2.2 1-4zm323.2 272.3q.9.4 1.8.7c.7 1.8.7 1.8 1 4-1.5 1.9-1.5 1.9-3.6 3.9-9 9.7-10 20-9.6 32.6q.1 1.7.2 3.5h-7c-1.3-3.9-1.2-7.6-1.2-11.7q0-1.1 0-2.3c-.1-10.6 2.9-18.4 10.2-26.2 5.3-4.9 5.3-4.9 8.2-4.5z" fill="#a83b00"/><path d="M439 753c5.8.5 10.7 1.7 16.1 3.8q2.3.8 4.5 1.6l2.2.8q3.1 1.1 6.2 2.2 1.8.6 3.7 1.2 1.6.6 3.2 1.1c3.4 1.4 6.2 3 9.1 5.3 0 3 0 3-1 6-5.9.6-10-1.5-15.2-4q-2.6-1.2-5.3-2.5-1.3-.6-2.7-1.2c-4.5-2.1-9-4-13.6-5.9l-2.5-1q-2.8-1.2-5.7-2.4.5-2.5 1-5z" fill="#a83c00"/><path d="M429 779c5.3.8 10.1 2.8 15.1 4.7q1.4.5 2.8 1.1c6.9 2.7 13.6 5.6 20.1 9.2-.6 2.4-1.2 4.7-2 7-3.4-.6-6.4-1.5-9.5-2.9q-1.3-.6-2.6-1.2-1.3-.6-2.7-1.2-2.5-1.2-5.1-2.4-1.3-.6-2.6-1.1-4.8-2.2-9.7-4.4-1.9-.9-3.8-1.8c-.7-3-.7-3-1-6q.5-.5 1-1z" fill="#a93c00"/></svg>