<svg xmlns="http://www.w3.org/2000/svg" width="1024" height="1024" xmlns:v="https://vecta.io/nano"><path d="M350.6 112.4c3.6 3.1 7 6.3 10.4 9.6q.9.9 1.9 1.7c17.9 16.6 31.2 44.5 32.3 68.9q0 5.3 0 10.6.1 3.3.1 6.7c.1 12.5-1.3 24.5-6.3 36.1q-1-.5-2-1c-.4-2.1-.4-2.1-.5-5q-.1-1.5-.2-3.1-.2-3.2-.4-6.5c-1.1-15.9-6-28.9-15.9-41.4-.8-1.1-.8-1.1-1.7-2.2-4.7-5.7-10.5-10.2-16.3-14.8-15.8-12.5-30.8-25.3-41-43q-.5 1.1-1.1 2.3c-3.3 7-6.9 12.8-11.9 18.7q-1.2 1.5-2.5 3.1c-6.1 7.6-12.7 13.9-20.5 19.9q-1.6 1.3-3.2 2.5-4.9 3.8-9.8 7.5c-1.5 1.1-1.5 1.1-3 2.3q-8 6-16.1 11.8c-10.3 7.3-19.8 15.3-29.3 23.6q-2 1.6-4 3.2c-5.6 4.8-10 10.3-14.6 16.1q-1.5 1.9-3.1 3.7-.9 1.1-1.9 2.3c-2-1.8-3.3-3.5-4.7-5.8-3.8-5.3-8.1-9.3-14.3-11.2-9.7-1-19.2-.8-27 5.7-6.9 7-9.4 15.4-9.5 25.1.2 13.4 4 25.9 13.2 36 8.1 7.7 17.6 10.2 28.5 10.9 2.8.3 2.8.3 3.8 1.3q.2 4.2.2 8.4 0 1.3 0 2.7 0 2.7 0 5.5.1 4.1.1 8.3c.1 11-.8 21.3-2.9 32.1-1 5.2-1.7 10.4-2.1 15.7q-.4 2.7-.8 5.5c-1.2 8.5-.1 13.2 4.9 20.3a83.68 83.68 0 0 1 2.4 3.1q1.1 1.6 2.3 3.3c5.6 7.7 11.5 15.1 17.9 22.1q1.5 1.6 2.9 3.3 6.4 7 13.1 13.7.9 1 1.9 2c9.6 10.4 22 17.8 34 25.1 7.3 4.6 14.1 9.7 20.1 15.9 8.3-3.5 12.7-15.2 16-23 1.6-5 2.9-9.9 4-15 .2-1.1.2-1.1.5-2.1 1.4-6.6 2-13.1 2.4-19.8 0-1.7 0-1.7.1-3.3q.3-5.2.6-10.4.2-3.6.4-7.1.5-8.7 1-17.3l10-2q1 1.4 2 2.9c2.9 3.4 6 4.4 10.3 5.5 32.9 9.1 63.6 33.7 80.3 63.1 9.5 17.1 16.3 35.4 23.3 53.6 2.2 5.7 4.3 11.1 8.1 15.9 3.4-11.3 3.4-11.3 6.4-22.7 1.4-6 3.3-11.9 5.1-17.9q.4-1.4.9-2.9c.4-1.4.4-1.4.9-2.8q.4-1.3.8-2.5c1-2.4 1.9-3.6 3.9-5.2 4.4.1 6.3 2 9.3 5.1 15.6 14.4 40.2 20.7 60.7 23.9 7.3 39.9-12.3 96.5-31 131q-.7 1.5-1.5 3c-9.6 18.9-24 33.9-44.2 40.9-2.1.6-4.1.9-6.3 1.1q-1.1.1-2.2.2c-11.5.7-22.5-3.1-32.4-8.6q-1-.5-2-1.1a37.88 37.88 0 0 1-8.7-6.8c-2.4-3.1-2.4-3.1-5.7-2.7-.5 30.8-.4 61.2 3.7 91.8q.4 3.3.9 6.7c2.9 23.9 6.8 48.1 14 71.1.5 2.8.1 4.7-.6 7.4-5.6 2-5.6 2-9 2l.2 3.2q.3 6.1.6 12.3.1 2.6.3 5.2c1.1 21.8 1.4 43.5 1.9 65.3H149l-4-22 5-3 1.2 2c1.6 2.2 1.6 2.2 4.1 2.5 4.4 0 7-.1 10.8-2.4 2.2-2.5 2.9-3.3 2.9-6.7-1.3-20.9-12.1-37.9-24-54.4q-2.1-2.9-4.2-5.9-.8-1.1-1.7-2.3C138 839 138 839 138 837q-1.6.4-3.3.7c-14.4 3.1-29 5.1-43.6 6.9q-2.7.3-5.4.7c-5.7.9-11.3.8-17.1.8q-1.5 0-3 0-1.4 0-2.9 0h-2.6C58 846 58 846 56 845c-8.3-12.6-11.9-27.5-15.5-42q-.3-1.2-.6-2.4c-6.6-27-10.2-54.3-12.7-82q-.2-2.7-.5-5.4c-1.9-20.4-2-40.6-1.9-61q0-5.2 0-10.3c0-53.2 0-53.2 2.4-75.5q.2-1.8.4-3.7c1.1-10.1 2.6-20.1 4.3-30.2l.4-2.2c1.6-9.7 3.8-18.9 6.7-28.3q.3-1.1.6-2.2C46.2 478 56 456.5 71 439q-.6-.9-1.3-1.8c-17.9-26.6-22.9-62.8-17.1-93.9 5.6-27.6 19.9-54.1 43.4-70.3 11.2-6.7 24.2-12.6 37-15l-.2-1.8c-1-10-1-19.9-1-29.9q-.1-4.6-.1-9.1c-.1-14.8 1-28.6 6.4-42.5q.4-1.2.9-2.4c13.6-34.7 38.6-64.9 73.1-80.2 46.2-19.4 99.8-12.4 138.5 20.3z" fill="#008788"/><path d="M798.9 679.7q1.2 0 2.4-.1c11.9 0 23.3 8.1 31.6 16.3 13.6 15.1 18.1 34.4 17.4 54.4-.4 7.8-.9 16.5-6.8 22.1-2.8 2-2.8 2-5.6 3.6q-.9 1-1.9 2c.4 6.1 1.9 11.8 3.4 17.7q.7 2.8 1.4 5.7.4 1.4.8 3c4.4 17.4 8.5 34.5 9.4 52.6q.1 1.4.1 2.8c.6 13.3-.7 25.5-5.1 38.2 11.8-1.5 23.4-6.7 31-16 8.6-15 8.9-30.2 4.5-46.6-3.3-12.7-5-25.4 1.5-37.4 4.8-7.9 12.6-11.9 21-15 5.2-1 8.7-.7 13.4 1.7 3.8 3.4 5.4 5.6 6 10.7-.7 6.3-4.1 10.3-8 15.2-4.7 5.9-5.9 10.9-5.8 18.3.7 5.8 3.2 10.8 5.4 16.1 6.2 15.3 5 30.1-1.3 45.1-9.1 17.7-28.8 32.1-46.9 39.5q-1.6.7-3.3 1.4-1.2.5-2.5 1h3q14.2.1 28.4.2 7.3.1 14.5.1 7.1.1 14.1.2 2.7 0 5.4 0 3.7 0 7.5.1 1.1 0 2.2 0c4.7 0 7.9.9 11.9 3.4 5.2 5.6 6.5 9.8 6.3 17.3-.6 5.1-3.2 7.7-6.9 11-3.8 2.7-6.8 2.8-11.4 2.8q-1.9 0-3.9 0-2.1 0-4.2 0-2.3 0-4.5 0-6.3 0-12.5 0-6.8 0-13.6 0-13.4.1-26.9.1-16.1 0-32.2 0-39 0-77.9 0-18.4 0-36.8 0-63 0-126 0-4 0-8 0-3.9 0-7.9 0-7.9 0-15.9 0-2 0-4 0-64 0-128 .1-67.6 0-135.2 0-7.5 0-14.9 0-1.8 0-3.7 0-29.4 0-58.9.1-29.5 0-59.1 0-17.6 0-35.2 0-11.7 0-23.4 0-6.7 0-13.4 0-6.1 0-12.2 0-2.2 0-4.4 0-2.9 0-5.9 0-1.6 0-3.3 0c-4.2-.5-7.6-2-10.7-4.9-4.5-5.7-5.2-10.4-4.4-17.5 2.4-4.9 5.7-7.8 10-11 3.3-1.1 5.7-1.1 9.2-1.1q1.6.1 3.3.1 1.2 0 2.5 0-.4-1.2-.8-2.5-1.5-4.7-2.9-9.4-.7-2-1.3-4c-3.9-12.3-6.3-23.7-7.4-36.5q-.3-3.3-.6-6.6c-.9-9.4-1.2-18.6-1-28 1.6 0 1.6 0 3.3-.1 23.4-.7 46.8-4.2 69.8-8.6 1.9-.3 1.9-.3 4.9-.3 1.5 2 1.5 2 3.2 4.8 2.4 4 4.9 7.7 7.7 11.4 10.2 14 19.2 29.3 21.1 46.8l.4 3.3c-.6 4-2.6 5.8-5.4 8.7-3.7 1.8-8 1.5-12 1-2.6-2-2.6-2-4-4q-1.5 1-3 2 .5 3 1 6l2 16h403v-20c3.4-6.8 3.4-6.8 8.4-9.3q1.4-.7 2.8-1.4c5.3-2.2 11.2-2.6 16.8-3.3.4-30.1-1.2-58.7-5.8-88.4-2.4-15.9-4-31.8-5.5-47.8q-.7-7.2-1.6-14.4c-1.9-15.2-2.5-30.1-2.1-45.4 3.5 1.7 6.7 3.7 9.9 5.8 6.5 4 12.8 7 20.1 9.2q.9.3 1.9.6c12.5 3.8 25.3 3.8 38.3 3.8q1.3 0 2.6.1c34.5.1 67.9-10.5 93.2-34.5q3.5-3 7-6c6 7.2 6 7.2 6 13 4.3-1.3 7.7-2.9 11.5-5.4 13.1-7.8 28.4-9.7 43.4-9.9z" fill="#e07f00"/><path d="M874 404c40 12.8 84.3 38.7 104.3 77l4.7 10q.7 1.5 1.4 3.1c23.8 56.7 15.3 134.6.1 192.8q-.7 3.1-1.4 6.2c-4.8 20.2-16.1 35-31.1 48.9q-1 .5-2 1v2.4q.1 28.9.1 57.7 0 14 .1 28 0 12.2 0 24.4 0 6.4 0 12.9c.1 16.9-.1 33.9-1.1 50.8q-.1 1.1-.2 2.1c-.7 11.3-.7 11.3-1.9 13.7q-1-.2-2-.5c-3.8-.6-7.5-.7-11.3-.7h-2.5q-4-.1-8.1-.1-2.8 0-5.6-.1-7.4-.1-14.8-.1-7.5-.1-15.1-.2-14.8-.2-29.6-.3c2.7-1.8 5.3-3 8.2-4.2 9.3-3.7 17-8.6 24.8-14.8l1.9-1.5c13-10.3 22.1-21.9 24.8-38.8 1.5-14-1.4-24.3-7-37-2.7-6.7-2.9-13.5-.2-20.3 2.3-4.5 5.5-8.4 8.8-12.2 3-3.9 3.1-7.4 2.7-12.2-2.1-4-3.8-6.3-8-8-9-1.9-16.6 2.4-24 7-5.8 4.5-8.5 11-10 18-1.2 10.3.6 19.1 3.2 29.1 2.9 11.7 3.8 24.6-1.2 35.9q-.5 1.1-1 2.3c-5.2 10.7-14.4 16.1-25 20.7-3.5 1.2-6.4 1.1-10 1q.4-1.8.9-3.8.5-2.6 1.1-5.2.3-1.3.6-2.6c1.9-9.7 1.8-19.5 1.4-29.4q-.1-1.3-.1-2.7c-1-18.9-6-36.9-10.8-55.1q-.4-1.5-.8-3.1-.8-3-1.5-5.9-.4-1.3-.7-2.6-.4-1.2-.7-2.4c-.4-2.5-.6-4.7-.4-7.2 1.9-2.2 1.9-2.2 4.4-4.3q1.2-1.1 2.4-2.1c2.2-1.6 2.2-1.6 4.2-1.6q.2-1 .4-2l2.1-10.3c3.1-18.4-.6-40-11.2-55.4-6.1-7.9-12.6-12.8-21.3-17.3q-1.4-.9-2.9-1.8c-10.8-6.3-30.4-2.1-42.1.8-7.5 2.2-13.8 5.1-20 9.9-2.5 1.4-4.2 1.3-7 1.1q-.4-1-.8-2.1-.5-1.4-1-2.8-.5-1.3-1-2.7c-1.1-2.7-1.1-2.7-4.2-4.4q-1.2 1.2-2.4 2.5c-7.5 7.9-15.1 14.2-24.6 19.5q-.9.5-1.9 1.1c-18.9 10.4-40.2 16.9-61.9 17.1q-1.3.1-2.5.1c-34.6.3-34.6.3-48.7-4.3q-1-.3-2.1-.7c-10.3-3.4-19.2-8.8-27.9-15.3.2 21 2.6 41.7 5 62.6q1.1 9 2 18.1c1.8 16.6 3.9 33.1 6.3 49.6 2.2 14.3 2.9 28.1 2.8 42.5q0 4.4 0 8.8 0 2.8 0 5.5 0 1.3 0 2.7c0 6.1 0 6.1-1.1 7.2q-4.9.9-9.7 1.6c-5.2.9-8.8 2.7-13.3 5.4q-1 0-2 0c-2.2 5.4-2.4 10.6-2.6 16.4q-.1 1.4-.1 2.8-.2 3.4-.3 6.8h-9c-2.3-4.9-3.1-10-4-15.3q-.2-1.3-.5-2.6-.8-4.6-1.5-9.1-.3-1.8-.6-3.6c-1.9-13.5-1.7-27-1.6-40.6q0-1.8 0-3.8c0-18.4.4-36.6 2.2-55q.3-3.2.6-6.5c1.2-13.3 3.3-26.5 5.8-39.6q.2-1.2.4-2.3c2.7-14.6 6-29 12.4-42.4q.5-1.1 1-2.3c1.2-2.6 2.5-5.3 3.9-7.9 1-2.2 1.3-3.9 1.5-6.3q.1-1.3.2-2.5.1-1.3.3-2.6.2-2.5.4-5 .1-1.2.3-2.4c.3-2.7.7-5.5 1.2-8.2q1.1.7 2.3 1.4 4.8 2.8 9.7 5.6l2.4 1.4c28.7 15.9 72.5 15.7 103.3 7.4 15.6-4.6 28.7-12.8 41.3-22.8q1.6-1.1 3.3-2.3c4.3-4.3 7.6-9.4 10.7-14.7q0-1 0-2c-13.7-5.1-27.7-8.5-41.8-11.9q-1.2-.3-2.4-.6-2.2-.5-4.4-1.1c-3.3-.8-5.6-1.5-8.4-3.4-.2-2.6-.2-2.6 0-5 1-1 1-1 4.4-1.2 5.3.1 10.3 1.2 15.4 2.4 1.5.3 1.5.3 3.1.7 14 3.2 27.8 6.5 41.1 12.1q.2-.8.4-1.7c.2-1.1.2-1.1.5-2.3.2-1.1.2-1.1.5-2.3L749 624c-15-1.8-29.9-2.6-45-3.3q-1.2-.1-2.4-.1-2.3-.1-4.6-.2c-4.1-.2-8-.6-12-1.4-.6-2.9-.6-2.9-1-6 2.6-2.6 4.6-2.2 8.2-2.2q1.2 0 2.5 0 1.4 0 2.7 0c9.4.1 18.6.7 27.9 1.4q4.3.3 8.6.6 2.7.2 5.4.4 1.3.1 2.6.2c5.9.5 5.9.5 8.1 1.6-.2-14.2-.5-28-7-41 .3-2.6 1.3-4.5 2.4-6.9 6.7-15.7 8.8-33.3 9.6-50.1.1-1.1.1-1.1.1-2.2.5-8.9.1-17.8-4.1-25.8-4-3.1-7.1-3.6-12.1-3.4-20.5 2.8-37.5 17.7-49.6 33.7q-.7.8-1.3 1.7c-5.6-.8-10.9-2.4-16.4-4.1-8.3-2.1-16.5-2.1-25.1-2q-3.1 0-6.2 0-2.1 0-4.1 0-1 0-2.1 0c-3.4 0-6.9.1-10.3.4q-1.1.1-2.1.2-2.8.3-5.6.6c-3.1-.1-3.1-.1-5.3-1.6-1.8-2.1-3.3-4.2-4.8-6.5q-2.5-2.7-5.1-5.3-1.2-1.2-2.5-2.4c-2.3-2.3-4.8-4.3-7.4-6.3 2.2-6.3 6.5-10.3 11-15q.7-.7 1.4-1.5c25.1-26.7 57.5-42.5 92.9-50.4 1.5-.4 1.5-.4 3-.7q1.4-.3 2.8-.6 1.2-.3 2.5-.5c4-.5 6.7.3 10.1 2.3 3 3.1 3.2 5.2 3.8 9.4 2.4 14.2 8.9 27.2 20.3 36.4 16.9 11.3 34.9 14.8 55 12.1 17.4-4 34.4-13.3 48.2-24.5q.8-.7 1.7-1.3c4.8-3.8 8-8.1 11.3-13.2q.8-1.2 1.6-2.4c7.2-11.4 12.2-22.5 15.5-35.6.9-3.5.9-3.5 1.9-4.5z" fill="#088"/><path d="M693 169c3.6 1.4 7 3 10.4 4.8 39.6 19.9 91.9 14.9 133 3.1 2.8-1 5.1-2.4 7.6-3.9q1 0 2 0l-.4 1.9c-1.7 8.1-1.9 16-1.9 24.2q0 1 0 2.1c.1 29.5 8.8 59.8 29.3 81.8q2.5 2.1 5 4 .3-1 .6-2c4.5-9.5 13.2-15.5 22.8-19.4 6.7-2.2 13.9-3.3 20.5-.1 5.3 3.6 8 9 9.4 15.2 2.5 15.3 0 30.1-8.3 43.3-6.7 9.3-15.6 15.8-27 18-3.9.3-7.3.2-11-1q-.2 1-.4 2c-1.3 5.2-2.8 9.5-5.7 14.1-4.3 8.6-3.9 17.6-4 27-.3 28.4-8.5 53.1-28.1 74.3-1.9 1.7-3.8 3.1-5.8 4.6l-2.2 1.6c-6.1 4.4-12.4 8.1-19.1 11.6q-1.5.8-3.1 1.6c-7 3.6-13.8 6.5-21.6 8.2q-1.1.3-2.3.6c-18.8 3-37.1-.7-52.9-11.3-11.3-8.3-18.4-20.9-21.8-34.3q-.3-2.9-.6-5.7c-.5-3.6-1-4.9-3.6-7.4q-2.9-2.1-5.8-4c-19.1-12.3-30.1-30.9-37-51.9q-.4-1.2-.8-2.4c-2.9-9-5.3-17.7-6.6-27-.6-5.2-.6-5.2-3.3-9.4-2.1-1.2-2.1-1.2-4.2-2.1-5.7-3-8.3-10.1-10.5-15.7-1.8-6.3-2-12.5-2-19q-.1-1.4-.1-2.9c.2-9.9 2.1-19.7 8.5-27.5 3-2 3-2 5.4-1.8 2.8.9 4.4 2 6.6 3.8 2-8.8 3.4-17.6 4.4-26.6 3.1-25.5 7-52.3 24.6-72.4zm-382-41c1.9 2.5 3.7 5.1 5.3 7.8 9.3 14 22.7 25.5 36 35.6 18.6 14.1 30.8 30.5 34.2 53.9.8 6 1.2 12.1 1.5 18.2q.2 3.2.4 6.4c2.6 44.3-5.5 85.1-35.6 119.1-10.7 11.7-24.2 18.8-38.9 24.5-1.3.5-1.3.5-2.7 1.1q-1.3.4-2.6.9c-1.2.5-1.2.5-2.3.9-2.5.7-4.7.7-7.3.6q0 1.1 0 2.2c.2 33.7.3 70-23 96.8-3.1-1.4-5.2-3-7.7-5.4-6.2-5.7-13.2-9.9-20.3-14.3-11.2-7.1-21.8-14.6-31-24.3l-2.4-2.4q-1.3-1.3-2.6-2.6c-.9-.8-.9-.8-1.8-1.7-5.5-5.4-10.4-11.3-15.2-17.3-.9-1.1-.9-1.1-1.9-2.2-2.1-2.5-4.1-5.1-6.1-7.8-.9-1.1-.9-1.1-1.7-2.3-13.4-17.7-13.4-17.7-12.8-26q.7-3.4 1.5-6.7.5-3.9.9-7.7c.5-4.2 1.1-8.2 1.9-12.3 2.3-11.9 2.6-23.5 2.4-35.6q0-2.9-.1-5.7 0-6.9-.1-13.7-1.3-.1-2.7-.2-1.7-.1-3.5-.2-1.7-.1-3.4-.2c-10.7-1.2-18.8-7.1-25.7-15.1-3.6-4.8-5.9-9.5-7.7-15.3q-.3-1-.7-2.1c-3-10.8-2.8-24 2.7-33.9 4.7-7 10.2-10.4 18-13 9.7-.7 17.3-.8 24.9 5.6 3.7 3.4 6.2 6.7 8.1 11.4 3.1-3 6-6.2 8.8-9.6 5.5-6.7 11.5-12.7 18.2-18.4q1.3-1.1 2.5-2.2c11.1-9.1 22.5-17.8 34.3-26 6-4.2 11.7-8.6 17.3-13.4 2.6-2.1 5.2-4.1 7.9-6.1 6.5-4.9 11.9-10 17-16.3q1.1-1.4 2.3-2.8c5.5-7.1 9.7-14.3 13.7-22.2z" fill="#e07f00"/><path d="M350.6 112.4c3.6 3.1 7 6.3 10.4 9.6q.9.9 1.9 1.7c17.9 16.6 31.2 44.5 32.3 68.9q0 5.3 0 10.6.1 3.3.1 6.7c.1 12.5-1.3 24.5-6.3 36.1q-1-.5-2-1c-.4-2.1-.4-2.1-.5-5q-.1-1.5-.2-3.1-.2-3.2-.4-6.5c-1.1-15.9-6-28.9-15.9-41.4-.8-1.1-.8-1.1-1.7-2.2-4.7-5.7-10.5-10.2-16.3-14.8-15.8-12.5-30.8-25.3-41-43q-.5 1.1-1.1 2.3c-3.3 7-6.9 12.8-11.9 18.7q-1.2 1.5-2.5 3.1c-6.1 7.6-12.7 13.9-20.5 19.9q-1.6 1.3-3.2 2.5-4.9 3.8-9.8 7.5c-1.5 1.1-1.5 1.1-3 2.3q-8 6-16.1 11.8c-10.3 7.3-19.8 15.3-29.3 23.6q-2 1.6-4 3.2c-5.6 4.8-10 10.3-14.6 16.1q-1.5 1.9-3.1 3.7-.9 1.1-1.9 2.3c-2-1.8-3.3-3.5-4.7-5.8-3.8-5.3-8.1-9.3-14.3-11.2-9.7-1-19.2-.8-27 5.7-6.9 7-9.4 15.4-9.5 25.1.2 13.4 4 25.9 13.2 36 8.1 7.7 17.6 10.2 28.5 10.9 2.8.3 2.8.3 3.8 1.3q.2 4.2.2 8.4 0 1.3 0 2.7 0 2.7 0 5.5.1 4.1.1 8.3c.1 11-.8 21.3-2.9 32.1-.6 3.3-1 6.7-1.4 10.1-.7 5.6-1.5 11.2-2.5 16.8q-.2 1-.4 2.1-.9 5.1-2.1 10.2c-6.9 30.8-4.8 66.2 3.4 96.4.9 3.5 1.3 6.9 1.6 10.4q1 .1 2 .2c12.2 1.8 23.3 7.2 30.8 17.2 7 10.4 11.7 21.4 14.2 33.6q.2 1 .4 2 .7 3.2 1.3 6.4.2 1 .4 2.1c.6 3.5 1.2 6.9.9 10.5-2.4 2.7-3.9 3-7.5 3.4-3.5-.4-3.5-.4-5.6-1.9-2.5-3.3-3-6.5-3.6-10.5-2.8-14-7.5-31.6-19.4-40.6-6.8-4.5-12.8-5.1-20.9-4.4-7.4 1.9-13.6 5.1-17.7 11.6-4.2 7.6-5.5 12.9-5.5 21.5q0 1.3 0 2.6c.1 7.1.9 13.5 3.2 20.3.4 2.7.5 5.3 0 8-3.4 3.4-8.1 3.7-12.8 4.3-2.3.5-2.3.5-3.3 2.2-1.3 3.7-1.2 7.3-1.2 11.1q0 1.3 0 2.7 0 4.3 0 8.7 0 3.1 0 6.2 0 6.5 0 13 0 6.6 0 13.1c-.3 51.4 3.1 102.5 10.1 153.4.9 7.2 1.4 14.1 1.2 21.3q-2.5.5-5 1c-3.3-8.6-4.6-17.5-6-26.5q-.2-1.3-.4-2.6c-2.6-16.9-4.4-33.8-5.6-50.9q-.1-1.7-.2-3.4c-3.5-49.1-4.6-97.5-2-146.7q.1-1.8.2-3.6.2-3.7.5-7.3a599.56 599.56 0 0 0 .6-18.8q.1-2 .1-3.9.1-3.7.1-7.3c.3-14.5 6.3-26.2 16-36.7 5.1-5 11.7-8.7 18.7-10.3-.6-6.9-1.9-13.4-3.5-20.1-4.2-17.5-4.6-34.8-4.6-52.7q0-1.1 0-2.1c-.1-12.6.1-25 3.5-37.2q.4-1.2.7-2.4c1-3.7 2.1-7.1 3.9-10.5-31.3 11.1-58.9 23.7-82.7 47.7C75 437 75 437 72 439c-19.5-21.3-22.1-54.5-21.2-82 1.8-29.6 15.3-57 36.7-77.3C99.7 269 117 261 133 258l-.2-1.8c-1-10-1-19.9-1-29.9q-.1-4.6-.1-9.1c-.1-14.8 1-28.6 6.4-42.5q.4-1.2.9-2.4c13.6-34.7 38.6-64.9 73.1-80.2 46.2-19.4 99.8-12.4 138.5 20.3z" fill="#003a56"/><path d="M138 837c1.5 2 1.5 2 3.2 4.8 2.4 4 4.9 7.7 7.7 11.4 10.2 14 19.2 29.3 21.1 46.8l.4 3.3c-.6 4-2.6 5.8-5.4 8.7-3.7 1.8-8 1.5-12 1-2.6-2-2.6-2-4-4q-1.5 1-3 2 .2 1.2.4 2.5c.7 3.9 1.2 7.9 1.7 11.9l.2 2.2q.4 2.7.7 5.4 1 0 2.1 0 112.2-.1 224.5-.1 1.6 0 3.3 0 36.5 0 72.9-.1 17.8 0 35.7 0h3.6q57.6 0 115.2 0 59.2-.1 118.4-.1 8.4 0 16.8 0 1.6 0 3.3 0 26.5 0 53 0 26.6 0 53.3 0 15.8 0 31.6-.1 10.6 0 21.2 0 6 0 12 0 5.5 0 11 0 2.9 0 5.8 0c10.6.1 10.6.1 15.3 3.4 5.2 5.6 6.5 9.8 6.3 17.3-.6 5.1-3.2 7.7-6.9 11-3.8 2.7-6.8 2.8-11.4 2.8q-1.9 0-3.9 0-2.1 0-4.2 0-2.3 0-4.5 0-6.3 0-12.5 0-6.8 0-13.6 0-13.4.1-26.9.1-16.1 0-32.2 0-39 0-77.9 0-18.4 0-36.8 0-63 0-126 0-4 0-8 0-3.9 0-7.9 0-7.9 0-15.9 0-2 0-4 0-64 0-128 .1-67.6 0-135.2 0-7.5 0-14.9 0-1.8 0-3.7 0-29.4 0-58.9.1-29.5 0-59.1 0-17.6 0-35.2 0-11.7 0-23.4 0-6.7 0-13.4 0-6.1 0-12.2 0-2.2 0-4.4 0-2.9 0-5.9 0-1.6 0-3.3 0c-4.2-.5-7.6-2-10.7-4.9-4.5-5.7-5.2-10.4-4.4-17.5 2.4-4.9 5.7-7.8 10-11 3.3-1.1 5.7-1.1 9.2-1.1q1.6.1 3.3.1 1.2 0 2.5 0-.4-1.2-.8-2.5-1.5-4.7-2.9-9.4-.7-2-1.3-4c-3.9-12.3-6.3-23.7-7.4-36.5q-.3-3.3-.6-6.6c-.9-9.4-1.2-18.6-1-28q1.6 0 3.2-.1c23.5-.7 46.9-4.2 69.9-8.6 1.9-.3 1.9-.3 4.9-.3z" fill="#fed57e"/><path d="M570 481c16.5 6.3 32 19.3 43 33q0 1 0 2 1.3-.2 2.7-.4c9.5-1.4 18.7-2 28.2-1.9q1.1 0 2.1 0c12 0 23.4.6 34.7 5 3.6 1.4 4.7 1.5 8.3.3 2-2 2-2 3.7-4.5 10.5-13.7 25.9-26.1 43.3-29.5 4.8-.5 8.8-.4 13.4 1.2 6.6 7.1 7.2 17.2 6.8 26.6q-.1 2.1-.2 4.2c-.1 1.2-.1 1.2-.1 2.4-.9 17.3-3.8 34.8-10.9 50.6-1.4 3.7-.6 5.6.8 9.2 3.5 8.7 4.5 16 4.3 25.3q0 1.5 0 3.1 0 3.7-.1 7.4-1.8-.1-3.7-.3-7-.5-14-1-3-.2-6-.4c-13.5-1-26.8-1.5-40.3-1.3-.7 3.5-.7 3.5-1 7q1.2 0 2.3.1c14.1.3 28.1.8 42.1 1.8q1.5.1 3.2.3c5.7.4 10.9 1.2 16.4 2.8-.5 6-1.9 11.3-4 17q-.8-.3-1.7-.5-4.1-1.3-8.3-2.5c-1.5-.5-1.5-.5-3.1-.9-24.5-7.7-24.5-7.7-49.9-10.1q0 2.5 0 5c10.3 3.3 20.7 6 31.2 8.5 19.4 4.7 19.4 4.7 24.8 7.5q.5 1.5 1 3c-9.9 19.1-31.4 32.2-51.2 39.1q-1.4.5-2.8.9-1.6.5-3.3 1c-33.2 8.8-76.6 7-107.2-9.8-14.9-8.8-25.1-24.3-29.4-40.8a37.18 37.18 0 0 1-1.1-9.4q1.6 0 3.2-.1 6-.1 12-.2 2.5-.1 5.1-.1 3.7-.1 7.4-.2h2.4c3.7-.1 6.7-.3 9.9-2.4q0-3 0-6h-42v-14c5.6.4 11 1.2 16.5 2.1 7.9 1.5 15.4 2.3 23.5 1.9l-1-5c-4.5-1.6-8.9-2.6-13.6-3.3-1-.2-1-.2-2.1-.3q-3.3-.5-6.7-1-2.2-.4-4.5-.7-5.6-.9-11.1-1.7c-.2-5.4 0-10.1 1.7-15.3q.5-1.7 1.1-3.4c1.1-3.1 2.5-6 4-9.1 2.1-4.8 2.3-8.7 1.8-13.9q-.1-2.2-.3-4.5-.1-1.2-.2-2.4c-.3-6.5-.3-13-.3-19.5q0-3.7 0-7.5c-.1-33-.1-33 8.4-43 3.9-2 6.7-2.3 10.8-1.4z" fill="#e07f00"/><path d="M582 64q1 .4 2 .8c24 10.4 41.3 27 51.8 51.1 9.7 25.6 6.5 56.6-4.1 81.5-11.5 23.9-31 39.6-55.7 48.6-9.7 3.1-18.8 5.1-29 5.2q-1.1.1-2.2.1-2.4 0-4.8 0-2.3 0-4.7.1c-10.3.1-19.5-.7-29.5-3.4-8.2-2.3-8.2-2.3-16.2-.4q-1.2.6-2.3 1.2-1.2.6-2.5 1.2c-7.2 3.4-14.4 6.5-22 9.1q-1.3.5-2.6 1c-5.4 1.8-10.6 2.8-16.2.9q-1-1.5-2-3 .9-1.5 1.8-3.1c6.5-11.3 11.9-22.6 16.2-34.9q-.9-.4-1.8-.7c-11.5-6.6-17.7-27.7-21.3-39.7-6.2-24.7-.7-52.2 11.9-74.1 15.6-25.8 40.3-39.9 68.9-47.2 20.1-4.1 45.3-2.4 64.3 5.7z" fill="#11b8aa"/><path d="M868 123q1.6.8 3.3 1.6c15.4 8 28.4 19.6 38.7 33.4q.6.8 1.3 1.7c15.1 20.6 20 44 18.7 69.3q-.1 1.2-.1 2.4c-.7 11.9-3.7 22.5-7.9 33.6q-1.4-.1-2.9-.2c-12.8-.4-23 3-33.1 11.2-3.4 3.4-6 6.7-8 11-11.2-4.9-20.6-22-25-33-6.3-17-10.2-34-10.2-52.2q-.1-3.1-.1-6.2c-.1-7.9.7-15 3.3-22.6q-.9.5-1.8 1c-33.7 17.6-87.7 18.8-123.9 7.7-7.8-2.7-16-5.8-22.9-10.5-2.3-1.4-2.3-1.4-4.4-.8-3 2.4-4.6 5.5-6.4 8.8q-.6 1.1-1.2 2.2c-11 20.6-14.1 42.9-16.9 65.8-.9 7.2-2.1 13.9-4.5 20.8-2.5-1.2-4-2-6-4-2.6-9.7-2.4-20.1-2.4-30.1q0-3.9 0-7.7c-.3-33.2 14.2-60.8 36.7-84.5C738.4 96.1 812.6 95.6 868 123z" fill="#003a56"/><path d="M503 300c3.2 2.5 4.8 4 5.6 8l-.1 3.6v2.1c-.4 10.4-1.9 20.8-3.1 31.2q-.5 3.9-.9 7.9c-1.1 8.8-2.6 17.5-4.5 26.2q.8-.5 1.7-1.1c4.7-2.9 8.6-4.8 14.2-4.4 4.8 1.2 7.8 4.5 10.4 8.6 2.7 5.1 2.7 5.1 2.7 7.9q1.5-.4 3-.7c4.7-.7 8.2 1 12 3.7 2.3 3 3 4.2 3 8l3.1-.2c5.5.3 8.5 1.7 12.2 5.7 3.7 5.4 3.2 11.2 2.7 17.5-1.6 7.8-4.6 14.3-8.5 21.2-1.6 2.9-2.6 5.7-3.6 8.9-6 17.7-16.7 45-31.9 56.9-2.9-.1-5.2-.4-8-1l-2.2-.4c-7.1-1.3-13.9-3.5-20.7-5.8q-1.7-.6-3.4-1.2c-11.7-4-25.7-9.7-32.7-20.6-3-7-4.5-14.5-6-22l-.6-2.7c-3.7-17.3-.3-32.7 7.6-48.3 1.4-1.9 1.4-1.9 2.8-3.2 2.3-2.9 2.6-3.8 3.1-7.3 1.1-5.5 2.6-10.7 4.2-16.1q.5-1.4.9-3l8-25q3-9.2 5.7-18.5l7.4-23.5c.4-1 .4-1 .7-2.1 2.6-7.7 7-12.6 15.2-10.3z" fill="#df7f00"/><path d="M188.8 531.4c13.8 9.8 18.7 28.7 21.7 44.5 1.1 5.2 1.1 5.2 4.5 9.1 2.3.4 2.3.4 4.7.2q2.1-.1 4.3-.2c.8 8.4 1.2 16.7 1.2 25.1q0 1.6 0 3.3c.1 15.6-3.7 28.5-12.2 41.6l9-1q-1 1-1.9 2.1c-2.4 3.4-2.8 5.8-3.1 9.9 2 .7 4 1.3 6 2q0 1 0 2-1.2 0-2.4-.1-5.4-.1-10.9-.2-1.8-.1-3.7-.1c-7.9-.1-13.6.9-20.7 4.4q-1.1.5-2.3 1-1-.5-2-1 .5-.5 1-1 .1-3.5 0-7-.9-.3-1.7-.7c-17.6-7.7-30.4-24.9-37.3-42.3-2-5.9-3.5-11.9-5-18q-.6-2.3-1.1-4.5c-.5-1.7-.5-1.7-.9-3.5q1.2-.3 2.4-.6 1.5-.4 3-.8 1.5-.4 3.1-.8c2.4-.6 2.4-.6 3.5-1.8.3-5.3-.2-9-2-14-1-5.5-1.2-10.9-1.3-16.4q0-1.2 0-2.5c-.1-9.3 3.3-17 9.3-24.1 10.1-8.5 22.8-11.4 34.8-4.6z" fill="#008788"/><path d="M138 837c1.5 2 1.5 2 3.2 4.8 2.4 4 4.9 7.7 7.7 11.4 10.2 14 19.2 29.3 21.1 46.8l.4 3.3c-.6 4-2.6 5.8-5.4 8.7-3.7 1.8-8 1.5-12 1-2.6-2-2.6-2-4-4q-1.5 1-3 2 .5 3 1 6l2 16H74c-10.9-35.1-10.9-35.1-11.9-45.8 0-1 0-1-.1-2.1q-.2-2.3-.4-4.5-.3-3.3-.6-6.6c-.9-9.4-1.2-18.6-1-28 1.6 0 1.6 0 3.2-.1 23.5-.7 46.9-4.2 69.9-8.6 1.9-.3 1.9-.3 4.9-.3zm736-459q.5 0 1 0 .1 5.5 0 11 0 1.8 0 3.7c-.9 24.5-11.5 47.6-28.2 65.7-1.9 1.7-3.8 3.1-5.8 4.6q-1.1.8-2.2 1.6c-6.1 4.4-12.4 8.1-19.1 11.6l-3.1 1.6c-7 3.6-13.8 6.5-21.6 8.2q-1.1.3-2.3.6c-18.8 3-37.1-.7-52.9-11.3-9.9-7.3-17.3-18.6-20.8-30.3-.2-3.5-.2-3.5 0-6 4.2 1.3 8.1 3 12.1 4.9 22.7 10.4 49.4 7.7 72.4-.7 11.1-4.3 20.5-10.5 29.5-18.2l2.6-2.2c4.5-4 8.6-8 12.4-12.5q2.3-2.7 4.7-5.2c12.2-12.5 12.2-12.5 21.3-27.1z" fill="#df7e00"/><path d="M738 651l2 1c2.1 7.6 4.3 18.6 1.1 26.1-1.6 2.2-3.2 4-5.1 5.9q-1.3 1.4-2.6 2.8c-7 7.5-14.5 13.2-23.4 18.2-.9.5-.9.5-1.9 1.1-18.9 10.4-40.2 16.9-61.9 17.1-1.3.1-1.3.1-2.5.1-34.6.3-34.6.3-48.7-4.3q-1-.3-2.1-.7c-11.5-3.8-21.1-10.3-30.9-17.3q.5-4.8.9-9.6.2-1.4.3-2.8c.5-4.5 1-9.1 1.8-13.6a46.46 46.46 0 0 0 2.3 1.4q4.8 2.8 9.7 5.6 1.2.7 2.4 1.4c28.7 15.9 72.5 15.7 103.3 7.4 15.6-4.6 28.7-12.8 41.3-22.8q1.6-1.1 3.3-2.3c4.3-4.3 7.4-9.5 10.7-14.7z" fill="#013956"/><path d="M591 107c5.1 1.6 8.5 3.2 11 8 .9 9.3-4.6 16.4-10.1 23.3q-2.5 2.8-4.9 5.7-2.1 2.4-4.2 4.9-1.4 1.7-2.8 3.3-4.1 4.9-8.1 10c-4.1 5.1-8.5 10-12.9 14.8q-5.5 6.2-10.8 12.5c-6.2 7.4-12.5 14.6-19.2 21.5q-1.2 1.3-2.5 2.6c-3.3 3.3-5.4 5.2-10 6-5.5-2.5-8.7-6.9-12.5-11.6q-1.1-1.3-2.2-2.6-2.2-2.7-4.4-5.4-4.1-5-8.3-9.9-.7-.8-1.5-1.7-1.5-1.8-3.1-3.6-3.8-4.5-7.6-9-.7-.8-1.4-1.6c-5.4-6.3-5.4-6.3-5.9-9.7.5-3.3 1.6-4.1 4.2-6.2q1-.9 2.1-1.7c4.4-3.3 7.5-4.2 13.1-3.6 3.8 2.6 6.5 5.6 9.3 9.2 3.4 4.3 6.9 8.2 10.8 11.9 2.8 2.8 5.4 5.9 7.9 8.9 4.2-1.5 6.2-4.5 8.7-8 3.8-5.1 7.8-9.9 12.1-14.5 5.6-6.2 10.7-12.8 15.7-19.5 6.4-8.7 13.4-16.9 20.4-25.1q.8-.9 1.7-2 .8-.9 1.6-1.8c.7-.8.7-.8 1.4-1.7 3.8-3.8 7.3-4 12.4-3.4z" fill="#003c58"/><path d="M518 374c5.6 3 8.9 8.1 11 14q0 1 0 2 1.5-.4 3-.8c4.7-.6 8.2 1.1 12 3.8 2.3 3 3 4.2 3 8l3.1-.2c5.5.3 8.5 1.7 12.2 5.7 3.7 5.4 3.2 11.2 2.7 17.5-1.6 7.9-4.6 14.6-8.7 21.6-1.2 2.2-1.8 4-2.3 6.5-1 2.9-1 2.9-3.6 4.2q-1.7.4-3.4.7-1.8.6-3.6 1.1c-6.4 1.5-13.8 2.5-20-.3-2.3-1.5-4.3-3.1-6.4-4.8q-1.7-1.1-3.4-2.2C511 449 511 449 509 446q-1.5.5-3 1c-1.2 3.5-2 7-2.8 10.6-1.2 3.5-2.4 5.1-5.2 7.4q-1.5-.5-3-1 .1-.8.2-1.7.4-3.7.7-7.5.1-1.3.3-2.6c.5-4.7.5-4.7-1.5-8.9-1.8-1.5-1.8-1.5-4.7-3.3-1.7-3.6-1.1-8.1-1-12q-.9.2-1.8.4c-4.5 1.1-8.5 1.8-13.2 1.6-.6-1.9-.6-1.9-1-4 2.8-2.8 5.9-3.1 9.6-3.9 9.6-2.3 17.7-4.4 23.7-13 1.2-3.7 1.4-7.6-.3-11.1q-1.5-.5-3-1 0-1 0-2c-10.1.2-19.5 2.4-29.3 4.8-3.5.9-7.1 1.7-10.7 2.2q0-2 0-4 4.7-1.7 9.4-3.4 1.3-.4 2.7-.9c14.5-5.2 14.5-5.2 21.9-4.7q.1-.9.1-1.9.2-1.2.3-2.5.1-1.2.2-2.4c.4-2.2.4-2.2 2.4-4.2q2.5-1 5-2 .9-.5 1.9-1c3.7-1.7 7.2-1.7 11.1-1z" fill="#b05800"/><path d="M309 395q1.9 2.2 3.7 4.5c1.3 1.7 1.3 1.7 3.5 2.9 1.8 1.6 1.8 1.6 2.2 4.8.7 4.2 1.8 6.2 4.2 9.7 15.8 24.5 25.8 55.8 26.7 84.9q.1 1.9.1 3.8.1 1.9.2 3.8 0 2 .1 4 .2 4.8.3 9.6 1 .4 2 .7c4.9 1.9 9.1 3.6 12.9 7.2q1.1 1 2.2 2c6 6.6 6.3 12.8 6.2 21.5-.6 7.7-3.6 14.3-9.3 19.6-7.8 4.6-14.9 7.2-24 6-9.1-3.2-15.6-8.2-20-16.8-3.5-7.4-4.5-15-2.2-22.9 2.9-6.5 7.4-11.3 13.2-15.3q2-.6 4-1c.6-36-6.2-69.3-24-101q-1-1.7-1.9-3.5c-3.2-5.5-3.2-5.5-6.8-10.6-1.3-1.9-1.3-1.9-1.3-4.9q-1 0-2 0v-7q1.9-.5 3.9-1 1-.3 2.2-.6c1.9-.4 1.9-.4 3.9-.4z" fill="#003955"/><path d="M892 545q2.5-.1 5 0l1 1-.4 4q-.1 1.2-.3 2.5-.1 1.2-.3 2.5-.3 2.2-.5 4.4c-2.3 21.1-4.9 42.1-8.1 63.1q-1.9 12.6-3.4 25.4c-.7 5.1-1.6 10.1-3 15.1q.9 0 1.9-.1c24.2-.7 24.2-.7 33.1 4.1q1 1 2 2c-.4 2.6-.4 2.6-1 5-3.3-.6-6.4-1.4-9.6-2.5-5.8-1.8-11.3-1.9-17.4-1.8h-3.3c-14.1.3-27.1 2-40.8 5.2-1.6.3-1.6.3-3.2.7-6.1 1.5-11.2 3.5-16.7 6.4q-1 0-2 0c2.6 2.7 5.2 5 8.3 7.1 5.1 4 8.4 8.4 11.7 13.9q.8 1.3 1.6 2.6c7.5 13.2 8.7 28.2 8.8 43.1q.1 1.6.1 3.3c-.1 6.5-1 12-3.5 18q14.5-.9 29-2 1.3-.1 2.6-.2c23.2-1.9 44.8-10.1 63.4-23.8q1-.5 2-1 .5 3 1 6-1 0-2 0l-.6 1.8c-3 4.9-9.4 7.4-14.4 10.2q-1.4.8-2.9 1.6c-7.2 3.7-14.8 5.9-22.5 8.2q-1.6.4-3.1.8c-14.9 4.1-29.8 4.9-45.2 5.4q-3.6.2-7.3.3-1.1.1-2.3.1c-4.2.2-6.5.8-9.7 3.6q-1.5 0-3 0 0-1 0-2-1-.5-2-1 2.2-2 4.4-4 1.2-1.1 2.4-2.3c2.2-1.7 2.2-1.7 4.2-1.7q.2-1 .4-2l2.1-10.3c3.1-18.4-.6-40-11.3-55.4-5.4-7.1-11.2-12-19.1-16.2-2.6-1.4-4.9-3.2-7.1-5.1q1.7-.3 3.4-.6c3.5-.9 6-2.2 9-4.2 15-9.4 34.3-12.2 51.6-13.2q.2-1.7.4-3.4C886.1 556.9 886.1 556.9 892 545z" fill="#005065"/><path d="M711 786q2.5 0 5 0c-.7 5.4-2.2 10.4-3.8 15.6q-1.6 5.7-3.2 11.4-.3 1.1-.7 2.3c-4.6 16.5-7.2 33.4-10 50.3q-1.4 8-2.9 16-.4 1.8-.7 3.8-.7 3.5-1.4 6.9-.3 1.6-.6 3.1-.2 1.3-.5 2.6-.1 1-.2 2 .5.5 1 1 .9-.3 1.8-.6 1.1-.4 2.3-.8 1.2-.4 2.3-.8c5.5-1.7 10.8-1.9 16.5-1.9q1 0 2.1.1 2.5 0 5 0-.8-1.7-1.7-3.5-1.1-2.3-2.2-4.6-.5-1.1-1.1-2.2c-7.3-15.4-7.6-35.1-2.3-51.4 9.4-23.7 9.4-23.7 20.1-28.6q1.1-.3 2.2-.7c1 1 1 1 1.5 3.2-.6 3.3-1.1 3.5-3.6 5.5-10 7.9-13.3 21.1-14.7 33.2-.8 9.2-1.2 19.3 1.8 28.1q.3 1.1.7 2.2c3 7.8 8.5 14.6 15.7 18.7q1.8.6 3.6 1.1 1.3.4 2.7.8 3.6 1.2 7.3 2.2.5 2.5 1 5c-5.6.2-10.9-.2-16.4-1-17-2.3-32.4-1.9-47.6 7-3.4 2.9-4.6 5.1-5.7 9.4q-.3 1.4-.7 2.9c-.6 2.9-1.2 5.8-1.6 8.7q-2 0-4 0c.4-9.7 1.5-19 3.5-28.6q.8-4 1.6-8.1a680.25 680.25 0 0 1 7.5-34.4c2-8 3.7-16.1 5.4-24.3 2.3-11 4.7-21.8 7.7-32.7q.4-1.5.8-3c1.6-5.7 3.7-10.7 6.5-15.9z" fill="#aa5300"/><path d="M126 574c2.1 3.6 2.7 7.4 3.4 11.4.9 5.5.9 5.5 3.3 10.3q.7 1.1 1.3 2.3-.4.8-.9 1.6c-1.6 3.6-1.4 7.2-1.4 11q0 1.3 0 2.7 0 4.3 0 8.7 0 3.1 0 6.2 0 6.5 0 13 0 6.6 0 13.1c-.3 51.4 3.1 102.5 10.1 153.4.9 7.2 1.4 14.1 1.2 21.3q-2.5.5-5 1c-3.3-8.6-4.6-17.5-6-26.5q-.2-1.3-.4-2.6c-2.6-16.9-4.4-33.8-5.6-50.9q-.1-1.7-.2-3.4c-3.8-52.4-4.4-104-1.6-156.4q.1-1.8.2-3.6.1-1.6.2-3.3.1-1.4.2-2.8c.2-2.3.6-4.3 1.2-6.5z" fill="#004f63"/><path d="M224 585c.8 8.4 1.2 16.7 1.2 25.1q0 1.6 0 3.3c.1 15.6-3.7 28.5-12.2 41.6l9-1q-1 1-1.9 2.1c-2.4 3.4-2.8 5.8-3.1 9.9 2 .7 4 1.3 6 2q0 1 0 2-1.2 0-2.4-.1-5.4-.1-10.9-.2-1.8-.1-3.7-.1c-7.9-.1-13.6.9-20.7 4.4-1.1.5-1.1.5-2.3 1l-2-1q.5-.5 1-1 .1-3.5 0-7-.9-.3-1.7-.7c-17.6-7.7-30.4-24.9-37.3-42.3-2-5.9-3.5-11.9-5-18q-.6-2.3-1.1-4.5-.5-1.7-.9-3.5l10-1q.4 1.2.8 2.4 1.6 4.5 3.2 9 .7 1.9 1.4 3.9c4.1 11.8 8.4 22.2 16.6 31.7q.9 1 1.7 2.1c5.5 6.1 12.5 10.3 20.3 12.9 6-.2 8.9-1.8 13.1-5.8 11.5-13.2 11.4-30 11.6-46.5q0-2.7.1-5.5.1-6.6.2-13.2c6.7-2 6.7-2 9-2z" fill="#27b7b2"/><path d="M399 847q-1.5 0-3 0 0 3 0 6c-21.9 2.9-43.6 5.5-65.6 6.8-5.8.3-11.6.8-17.3 1.3q-4.5.3-8.9.6-3.1.3-6.3.6c-8.9.7-17.7.9-26.6.9q-2.2 0-4.5 0-4.6 0-9.3 0-4.7 0-9.4 0c-16.8.1-33.7-.1-50.5-1.1q-1-.1-2.1-.1c-11.3-.7-22.5-1.9-33.6-3.4-3.7-.5-7.2-.7-10.9-.6l-5-9q10.4.9 20.8 2.1c15 1.8 15 1.8 30 2.8q2.4.1 4.7.2c51.7 2.7 102.9.7 154.3-5 10.4-1.1 20.7-2.3 31.2-2.8l2.3-.2c3.4-.1 6.4-.2 9.7.9z" fill="#004f64"/><path d="M645 772q2 0 4 0c.9 19.4-1.3 37.7-4.1 56.8q-1.2 8.2-1.9 16.5c-.7 8.2-1.9 16.3-3.1 24.4q-.3 2.2-.7 4.3-.4 3.1-.9 6.1-.3 1.8-.5 3.6c-1.3 5.6-3.5 9.5-7.8 13.2q-1.2 1-2.4 2c-2.7 2.2-5.5 4.1-8.3 6.1-6.5 4.7-11.5 10-13.3 18q-.6 5-1 10-2.5 0-5 0c-.6-10.2 1-18.6 7.6-26.6 4.1-4.1 8.7-7.6 13.4-11.1 4-3.1 5.2-4.3 6.1-9.2q.2-1.3.4-2.7c1.4-10.1 1.7-20.2 1.7-30.4q0-3.7 0-7.3c.4-16.1.4-16.1-5.2-30.7-1.8-1.7-1.8-1.7-3.7-3.2-7-6-11.6-11.9-13.8-20.8-.3-2-.3-2-1.5-3-.2-2.9-.2-2.9 0-6 2-2 2-2 3.9-2.1 3.4 1.8 4 5.1 5.3 8.5 3.6 8.9 8.5 15.4 15.4 22.1a40.79 40.79 0 0 1 5.2 6.6q.6.9 1.2 1.9c1 2 1.5 3.8 2 6q.1-1.2.2-2.4l.4-3.5q.2-1.8.4-3.8.4-4.1.8-8.2.9-9.2 1.8-18.4.1-1.4.2-2.8.3-2.5.5-5c.3-3.7.6-5.8 2.7-8.9z" fill="#ab5300"/><path d="M745.5 694.5q1.2.3 2.5.5-1 .5-2 1-.4.9-.9 1.8c-1.3 2.5-2.8 4-4.8 6-15.8 14.8-15.8 14.8-23.8 33.7.1 3.6.5 4.5 2.7 7.6 3.1 2.1 4.1 2.5 7.8 1.9 2.5-2.2 2.5-2.2 4.8-5.1 4.1-4.7 8.3-8.9 13.2-12.9q1.3-1.1 2.6-2.1c9.8-7.9 9.8-7.9 13.4-7.9-.2 3.3-1.2 4.2-3.7 6.6q-1.7 1.3-3.4 2.7-1.8 1.5-3.5 3-1.7 1.3-3.4 2.7c-11.3 9.1-11.3 9.1-19 21-.3 3.9-.2 6.7 2 10 3.8 2.5 5.5 2.6 10 2 2.2-1.8 3.8-3.3 5.6-5.4 5.9-6.4 12.1-11 19.4-15.6q1.4-.9 2.9-1.9c6.6-4.1 6.6-4.1 10.1-4.1-.1 2.3-.1 2.3-1 5-2.2 1.5-4.1 2.7-6.5 3.9q-1.9 1-3.9 2.1-.9.5-1.9 1c-8.1 4.7-19.3 13.1-22.7 22-.3 3.1-.3 3.1 0 6 1.8 1.8 4.5 1.3 6.9 1.4 8.5 0 13-3.3 19.5-8.3 5.8-4.3 11.6-7.9 18.1-11.1q1.2-.6 2.4-1.2c5.7-2.8 5.7-2.8 9.1-2.8q0 1.5 0 3-1 .5-2 1.1-4.7 2.4-9.4 4.8c-1.6.9-1.6.9-3.2 1.7-7.2 3.8-14.1 8.1-19.4 14.4-.8 2.7-.8 2.7-1 5 4.6 3 8.7 2.4 13.9 1.5q5-1.1 10-2.3c9.2-2.1 18.3-4.1 27.6-5.6q4.8-.8 9.7-1.8c3.6-.7 7.1-1 10.8-.8q.5 3 1 6-2 0-4-.1c-4.7 0-8.9.7-13.5 1.7q-1.2.2-2.5.5-7.5 1.6-15.1 3.2-4.4 1-8.8 2-3.2.7-6.4 1.4c-15.5 3.4-15.5 3.4-22.7 2.3-3.2-2.3-3.2-2.3-5-5q0-1.5 0-3c-1.5.1-1.5.1-3.1.1q-2 0-4.1.1-1 0-2 .1c-4.5 0-7.2-.6-10.8-3.3-2-2-2-2-2.2-4.2q0-1.2.1-2.4 0-1.2 0-2.5.1-.9.1-1.9-1.3-.1-2.6-.1c-4.5-1.2-7.3-3.5-10.4-6.9-1.5-4.5-1.5-8.5 0-13q-1.1-.1-2.2-.3c-4-1-6.7-3-8.9-6.5-2.2-5.4-1.8-11.7.2-17.1 1.5-2.8 3.1-5.5 4.9-8.1q.8-1.1 1.6-2.3c4.5-6 9.8-11.4 15-16.8q1.1-1.2 2.2-2.4c5.4-5.4 5.4-5.4 9.7-6z" fill="#a95300"/><path d="M570 481c16.6 6.3 31.8 19.4 43 33q.5 1.5 1 3-1 .2-1.9.3c-5.5 1-10.1 2.3-15.1 4.7q-1-1-2.1-2.1l-1.4-1.4q-1.5-1.5-2.9-3c-3.8-4.1-8.1-7.5-12.6-10.9-.9-.6-.9-.6-1.8-1.3-4.1-3-7.2-4-12.2-4.3q-.3 4.2-.5 8.5-.1 1.4-.2 2.8c-.3 5.9-.3 11.9-.1 17.9q0 2.1.1 4.2 0 3.2.2 6.4c.4 8.8-.2 14.4-5.8 21.5-1.7 1.7-1.7 1.7-3.7 2.7q-.1-1.3-.1-2.6c-.2-1.6-.2-1.6-.3-3.3q-.1-1.7-.2-3.4-.2-1.3-.4-2.7-1-.5-2-1-.1-7.9-.1-15.8 0-2.7-.1-5.3c-.3-36.3-.3-36.3 8.4-46.5 3.9-2 6.7-2.3 10.8-1.4z" fill="#df7f00"/><path d="M624.3 601.6q.9 0 2 0c6.6.3 12.7.7 18.3 4.6 2.4 2.8 2.4 2.8 3.2 5.6-1.7 6.5-6.7 10.6-12.2 14.1-2.6 1.8-3.5 2.5-4.2 5.6-.2 2.7-.2 4.9.6 7.5 5.4 5 12.2 5.4 19.3 5.2 5.7-.5 9.3-2 13.6-5.8 2.5-4.1 3.4-7.7 4.1-12.4q1 0 2 0c2.2 4.3 1.4 9.6 0 14.1-4.5 6.5-9.7 10.6-17.5 12.5-8.7 1.5-14.8-.1-22.5-4.6-1.8-1.7-1.8-1.7-3-3-2.5 1.2-4.6 2.5-6.9 4.1-4.9 3.1-9.4 3.4-15.1 2.9-5.7-1.8-10.2-4.3-14-9-1.8-3.7-2.2-6.7-2.1-10.8q0-1.5 0-3 .1-1.1.1-2.2 1-.5 2-1c.2 1.1.2 1.1.5 2.2 1.4 5.9 2.4 10.1 7.5 13.8 4.4 2.5 9.1 2.7 14 2 4.5-1.6 7.3-3 10-7 .7-3.1.8-5.9 0-9-1.8-2.1-3.8-3.6-6-5.3-4-3.4-5.6-7.7-6.6-12.9 1.4-7 6.4-8.4 12.9-8.2z" fill="#053757"/><path d="M874 367q.5 0 1 0 .1 2.6.2 5.2 0 1.4.1 2.9c-1.3 12.5-18.5 26.5-26.7 35.1-2.2 2.3-4.3 4.6-6.4 7.1-3 3.7-6.5 6.7-10.2 9.7l-2.6 2.2c-11.5 9-24.2 15.3-38.4 18.8q-1.7.4-3.5.9c-24.7 5.5-46.6 2.1-68.5-9.9l-1 2-1-10c4.3.5 7.9 1.7 11.9 3.4 23.5 9.9 48.6 12.1 72.8 3.3 10.6-4.3 19.7-10.3 28.3-17.7q1.2-1 2.5-2.1c6.4-5.5 11.8-11.7 17.2-18.3q1.8-2.2 3.6-4.3c5.6-6.6 10.5-13.6 15.3-20.8 3.6-5.3 3.6-5.3 5.4-7.5z" fill="#a95200"/><path d="M518 374c4.6 2.7 7.7 6.3 10 11 1.9 16.9-3.3 32.1-13.2 45.7-7.3 9-7.3 9-12.7 9.6-3.1-.3-3.1-.3-5.5-1.9-2.1-3.1-2-4.7-1.6-8.4 1.7-2.5 1.7-2.5 4.1-4.9q1.2-1.3 2.4-2.6 1.3-1.2 2.5-2.5c6.5-6.9 9.2-11 9.2-20.7-.1-2.5-.1-2.5-1.2-5.3-2.5-1.5-2.5-1.5-5.6-2.7q-1.5-.6-3-1.3-1.2-.5-2.4-1c-.5-3.4-.7-6.6 0-10 4.1-5 10.9-6.6 17-5z" fill="#df7f00"/><path d="M344.9 530.6h3.6c5.9.7 9.6 3 13.3 7.5.9 1 .9 1 1.8 2.1 3.6 4.6 2.9 10.1 2.4 15.8-1.6 4.9-4.7 8.2-9 11-4.7 1.9-9.9 1.7-14.6.1-5.4-2.5-9-5.1-12.4-10.1-2.3-7-1.3-13.4 1.6-20 3.6-5.3 7.1-6.5 13.3-6.4z" fill="#00aaa1"/><path d="M737 506c.3 8.9-.5 17.5-1.7 26.4q-.4 3.2-.8 6.5c-1.5 11.4-1.5 11.4-2.5 15.1-3.2-1.4-5.4-3.1-7.9-5.5-8.1-7.4-17.3-13.5-26.6-19.3q-.8-.6-1.5-1.2 0-1 0-2a138.95 138.95 0 0 1 6.1-4.6q.9-.7 1.9-1.4c4.5-3.1 9.1-5.9 14-8.5l1.8-1c5.9-3 10.6-4.6 17.2-4.5z" fill="#b15b00"/><path d="M707 363c3.4 1.5 6.2 3.6 9.1 5.8 14 10.3 27.4 12.9 44.4 10.8 8.8-1.9 16.1-6.5 22.9-12.5 2.6-2.1 2.6-2.1 5.4-2.5 2.2.4 2.2.4 3.2 1.4.1 5-1 7.4-4.4 11.1-7.5 6.9-15.9 10.8-25.6 13.9q-1.8.6-3.7 1.2c-13.2 3-25.8.6-37.5-6-6.3-3.9-12.8-8.8-16.8-15.2.2-3.7.4-5.4 3-8z" fill="#053857"/><path d="M531 389c5.9.3 9.3 1.2 14 5 4.2 8.5.8 22.6-1.7 31.3-3.3 9.5-6.9 18-16.3 22.7-4.6.4-7 .6-11-1.6-2-2.4-2-2.4-2.4-5.1.5-4.3 2.5-6.7 5.1-9.9 7.9-10.5 11.5-20.6 11.3-33.7q-.1-3.9 0-7.7.5-.5 1-1z" fill="#df7f00"/><path d="M387 505c2.1.4 2.1.4 4 1 6.7 21.9 9.8 43.1 9.6 65.9q0 1.7 0 3.4c-.1 27.8-3.5 55.1-8.2 82.4q-.2 1.1-.4 2.2c-.9 4.9-.9 4.9-2 7.1-2.1.6-2.1.6-4 1 0-14.2 1.3-28 3.2-42.1 5-36.7 5.7-71-1.6-107.5-.7-4.1-1.3-8.2-1.6-12.4q.5-.5 1-1z" fill="#004e63"/><path d="M564 499c4-.7 6-.6 9.6 1.5 5.7 4.1 11 8.6 16.1 13.4 2.3 2.2 2.3 2.2 5.1 4.2q1.1 1 2.2 1.9 0 1 0 2-2.7 1.7-5.4 3.1c-5.3 3-9.5 6.2-13.9 10.4-1.7 1.5-1.7 1.5-3.7 1.5q-.4.9-.8 1.7c-1.3 2.5-2.9 4.3-4.8 6.4-2.5 2.8-2.5 2.8-4.4 5.9q-1 0-2 0c-.2-30.6-.2-30.6.4-41.8q.1-1 .2-2.1c.1-2.9.5-5.3 1.4-8.1z" fill="#af5700"/><path d="M550 401c6.3.7 8.7 1.6 13 6 3.7 7.5 2.6 15.7.4 23.6-5.6 16.3-5.6 16.3-13 20.5-4.8 2.3-8.8 3-14.2 3q-1.4-.1-2.9-.1-1.2 0-2.3 0 0-1.5 0-3c1.4-1.3 1.4-1.3 3.2-2.6 3.6-3 5.6-6 7.7-10.2 1.1-2.2 1.1-2.2 2.6-4.6 5.3-9.4 5.1-22 5.5-32.6z" fill="#e08000"/><path d="M290 206c2.5 2.4 3 3.6 3.3 7.1-.3 2.9-.3 2.9-2.3 4.9-3.5.3-6.1.4-9.3-1-6.5-2.4-14.4-2-20.6.8-6.6 3.3-6.6 3.3-11.6 8.4-1.5 1.8-1.5 1.8-4.6 2.2-2.9-.4-2.9-.4-4.9-2.4-.7-5-.5-7.9 2.4-12.1 11.4-13.7 32.4-17.1 47.6-7.9zm518.6 31.7c3.4 2.6 6 4.7 8.4 8.3.4 2.8.2 5.2 0 8q-1 1-2 2c-4.8-.1-7.2-1.9-11-4.7-7.6-4.8-17.3-5.2-26-4.3q-3 .9-6 2c-3.3.3-3.3.3-6 0-2-3-2-3-1.9-6.4 1.1-4.4 2.1-5.3 5.9-7.6 11.6-6.2 27.8-4.4 38.6 2.7z" fill="#033857"/><path d="M725 234c3.9 3.3 3.9 3.3 4.4 7.1-.4 2.9-.4 2.9-1.5 4.8-2.8 1.6-4.7 1.4-7.9 1.1q-1.8-.5-3.7-1c-4.2-1.1-8.3-1.4-12.7-1.4h-2.2c-7 .2-12.9 1.7-18.5 6-1.9 1.4-1.9 1.4-4 1.2-1.9-.8-1.9-.8-3.9-2.8-.6-2.7-.4-4.3 1-6.7 10.6-13.4 34.1-15.7 49-8.3z" fill="#043857"/><path d="M208 356c3.7.2 5.5 1.3 8 3.9q1.6 1.9 3.2 3.7c15.3 17.2 34.7 22.7 56.5 27.6q3 .7 6 1.4c7.4 1.7 14.7 3 22.3 3.4q0 .5 0 1-2.5 0-5 0v13q-.5 0-1 0 0-3 0-6l-3.9-.4c-25.1-2.8-51.8-11-71.1-27.6q-.9-.7-1.9-1.5c-5.1-4.1-9.6-9-13.1-14.5q0-2 0-4z" fill="#a75200"/><path d="M246 250c4.8.3 7.7 1.9 11.6 4.6 6.3 3.7 11.2 4.7 18.4 3.4 4.6-1.4 8.1-3.2 11.8-6.3 2.2-1.7 2.2-1.7 4.9-1.6 2.3.9 2.3.9 4.3 2.9 0 5.2-3.5 9.4-7 13-8.1 5.4-16.5 5.7-26 5-7.8-1.8-15.5-5.2-20-12-.2-3.6-.2-3.6 0-7q1-1 2-2z" fill="#053858"/><path d="M731 280q1 0 2 0c.9 12.7-1.9 21.5-8 32.4q-.8 1.5-1.6 3-1.7 2.9-3.4 5.7c-3.2 5.7-4.8 9.4-4 15.9 2.3 4.5 4.5 6.8 9 9 10.7 1.6 21.5-1.2 31.9-3.6 2.1-.4 2.1-.4 6.1-.4-.4 2.6-.7 3.7-2.7 5.5-9.8 6.3-24.3 8-35.7 6.1-6.3-1.7-10-5.2-13.6-10.6-2.4-7.1-.9-13.4 2-20q1.8-3.4 3.7-6.7c6.3-11.4 10.9-23.8 14.3-36.3z" fill="#0b3757"/><path d="m269 330c3.3 1.6 6.3 3.4 9.4 5.4 12.9 7.4 27.5 10.4 42.1 6.7 2.8-1 2.8-1 5.3-2.1 2.4-1.1 4.6-1.7 7.2-2 2 2 2 2 2 4.3-1.4 3.8-3.7 5.7-7 7.7-13.3 5.7-26.6 5.3-40 0-17.9-7.8-17.9-7.8-21.4-14.8q-0.3-1.1-0.6-2.2 1.5-1.5 3-3z" fill="#083856"/><path d="M552 933h307q-.5 1.5-1 3l-306-1q0-1 0-2z" fill="#fede88"/><path d="M692.2 610.8q1.3 0 2.6 0 1.3 0 2.7 0c9.2.1 18.4.7 27.6 1.4q4.1.3 8.3.6 2.7.2 5.4.3 1.3.1 2.5.2c11.9.9 11.9.9 14.7 3.7.1 3 .1 3 0 6-1.5 1.5-2.9 1.2-5.1 1.2-4.4-.1-8.7-.5-13-1.1-9.5-1.3-19-1.7-28.5-2.2q-3.8-.1-7.6-.3-2.4-.1-4.7-.2c-4.1-.2-8.1-.6-12.1-1.4-.6-2.9-.6-2.9-1-6 2.6-2.6 4.6-2.2 8.2-2.2z" fill="#063656"/><path d="M685.4 625.8c5.3.1 10.3 1.2 15.4 2.4q1.5.3 3.1.7c36.2 8.2 36.2 8.2 40.1 12.1q-.4 3.5-1 7c-4.6 1.5-7.7.3-12.1-1.4-11.3-4.1-23-6.7-34.7-9.5l-2.4-.6q-2.2-.5-4.4-1.1c-3.3-.8-5.6-1.5-8.4-3.4-.2-2.6-.2-2.6 0-5 1-1 1-1 4.4-1.2z" fill="#073756"/><path d="M585 623c.3 2.8.3 2.8 0 6-4 3.3-7.8 3.4-12.8 3.4q-1.1 0-2.3 0-3.6 0-7.3-.1-2.5 0-5 0c-9.4-.1-18.9-.4-28.3-1.2q-1.4-.1-2.8-.2c-6.2-.6-6.2-.6-8.5-2.9.3-2.1.3-2.1 1-4 2.6-1.3 4.7-1.2 7.7-1.2q1.7-.1 3.6-.1c1.9 0 1.9 0 3.9-.1q1.9 0 4 0 4.2-.1 8.4-.2 5.3 0 10.7-.1 4.1-.1 8.3-.2 2.9 0 5.9-.1 1.7 0 3.6 0c1.5-.1 1.5-.1 3.2-.1 2.4.1 4.4.4 6.7 1.1z" fill="#023856"/><path d="M333 251c3.6.1 5.8 1.5 8.6 3.5 4.9 3.2 9.6 3.9 15.4 3.5 3.8-1.2 6.8-2.7 9.5-5.6 1.5-1.4 1.5-1.4 4.6-1.7 2.9.3 2.9.3 4.9 2.3 0 5.4-1.5 8.6-5.1 12.4-5.9 5-12.3 6.3-19.9 6-5-.7-8.8-2.7-13-5.4q-1.1-.7-2.2-1.4c-3.6-2.7-4.7-3.8-5.4-8.3.6-3.3.6-3.3 2.6-5.3zm37.6-36.9c2.5 1.9 3.6 3.3 5.4 5.9.2 3.6.2 3.6 0 7q-1 1-2 2c-4.2-.4-7.1-3-10.4-5.4-7.3-4.4-13.2-5-21.5-4.7q-2.8.1-5.6.2-1.2 0-2.5.1c-2-.2-2-.2-4-2.2-.5-2.3-.5-2.3 0-5 11.2-11.5 29-6.3 40.6 2.1z" fill="#053857"/><path d="M317 250q1.5.5 3 1c.9 2.8 1.2 5.3 1.4 8.2.9 11 4.6 20.4 8.7 30.5 2.9 7.3 5.5 15.5 3.9 23.3-2.9 5.4-7.5 8.6-13 11-5.9.9-10.1-.8-15-4-3.9-3.7-4.6-6.7-5-12 3.8 1.6 6.1 4.1 9 7 3.7 1.9 7.9 1.5 12 1 3.2-1.2 3.8-2.1 6-5 1.7-6.7-.7-12.3-3.4-18.4-6-13.5-10.2-25.7-8.6-40.6q.5-1 1-2z" fill="#0b3758"/><path d="M805.3 277.6c4.3 3.5 7.7 7.7 8.6 13.3q.1 1.5.1 3.1c-1 1-1 1-3.8 1.3-3.9-.4-5.1-1.5-7.9-4.2-5-4.9-8.6-5.4-15.4-5.4-5.4.5-9.4 2.7-13 6.6q-.9.8-1.9 1.7c-3.2-.3-3.2-.3-6-1-.7-1.6-.7-1.6-1-4 3.8-7 8.7-10.2 16-13 7.8-1.9 17.2-2.7 24.3 1.6z" fill="#063857"/><path d="M453.3 482.2c3.3 1 4.6 2.4 7 4.9 15.6 14.4 40.2 20.7 60.7 23.9q0 3 0 6c-12.6-1.7-24.1-4.5-36-9q-1.2-.4-2.4-.9C469.3 502 457 496.4 448 485c1.8-2.3 2.4-3 5.3-2.8z" fill="#035269"/><path d="M427 528q1.5 2 3 4 .8 1.1 1.7 2.3c1.7 3.5 1.3 5.1.4 8.9q-.3 1-.5 2-.5 2.2-1 4.3-1 4.1-1.9 8.2c-8 34.9-8 34.9-12.7 44.3q-2-.5-4-1c.4-9.4 2.5-18.4 4.7-27.5q.6-2.3 1.1-4.6l6.7-26.1c1.4-4.9 2.1-9.7 2.5-14.8z" fill="#004f63"/><path d="M293 899q1.5.5 3 1-.2 5.4-.4 10.9-.1 1.5-.2 3 0 1.5-.1 3.1l-.1 2.8c-.3 4.4-.8 8.8-1.2 13.2H149l-4-22q2.5-1.5 5-3c3.7 7.4 3 16 3 24h134l2-20c1.6-10.6 1.6-10.6 4-13z" fill="#006f92"/><path d="M599.3 570.8c5.5 3.1 9 7.6 11.7 13.2.7 2.4.9 4.4 1 7-5.5-1.7-5.5-1.7-8-3-6.8-3.4-13-3.3-20.5-2.9q-1.2 0-2.4.1c-1.1 0-1.1 0-2.2.1-2.5-.4-3.3-1.4-4.9-3.3 1.2-5 2.7-7.2 7-10 5.8-2.7 12.1-3.4 18.3-1.2z" fill="#053856"/><path d="M566 603.3l2 .3q2.9.5 5.8 1 1.7.3 3.4.6c2.9.8 4.2 1.2 5.8 3.8-.3 2.7-.3 2.7-1 5-9.4.4-18.3-.8-27.6-2.4q-2-.3-4-.6-11.2-1.9-22.4-4c.4-2.4.4-2.4 1-5 9.9-5 26.5-.4 37 1.3z" fill="#053957"/><path d="M694 578c2.7 1.5 3.9 2.6 6 5 .9 3.3.9 3.3 1 6-1 1-1 1-3.7 1.2-3.3-.2-3.3-.2-5.9-1.2-7.9-2.3-15.5-1.3-23.2 1.3-2.7.9-5.4 1.3-8.2 1.7.7-5.9 3.6-10 8.1-13.8 7.6-5.7 17.5-3.4 25.9-.2z" fill="#043757"/><path d="M177.8 662.9c2.2 1.1 2.2 1.1 5.2 3.1.3 3.3.3 3.3 0 7-4.2 4.3-7.8 5.1-13.7 5.2q-1.1 0-2.2.1-1 0-2.1 0c-4.6 0-7.4-.6-11-3.3-1-1-1-1-1.3-4.3.3-3.7.3-3.7 2.2-6.1 5.7-4.4 16.2-3.8 22.9-1.7z" fill="#003b56"/><path d="M242.9 651.4l3.1 2.6c.4 3.5.2 5.5-1.4 8.7-6.2 5.5-14.1 5.6-22 5.6-2.6-.3-2.6-.3-5.6-2.3-.6-3.2-.6-3.2 0-7 5.8-7.6 17.1-11.9 25.9-7.6z" fill="#003c57"/><path d="M131.1 833.9h4l2.9.1q0 1.5 0 3c-15.5 3.4-31.1 5.6-46.9 7.6q-2.7.3-5.4.7c-5.7.9-11.3.8-17.1.8q-1.5 0-3 0-1.4 0-2.9 0-1.3 0-2.6 0C58 846 58 846 56 845c-.6-2.1-.6-2.1-1-4q1.2-.1 2.4-.1c14.5-.9 29-1.8 43.4-3.4l3.3-.4c4.8-.5 9.5-1.2 14.2-2.2 4.3-.9 8.3-1.1 12.8-1z" fill="#06586c"/><path d="M712.3 275.4c3.7 2.2 6.2 4.6 7.3 8.8q.2 2.9.4 5.8-2 0-4 0-.9-.9-1.7-1.8c-4.9-4.7-10.3-5.4-16.8-5.7-5.4.1-8.6 1.1-12.8 4.5-1.7 1-1.7 1-3.9.7-.9-.4-.9-.4-1.8-.7-.4-2.6-.4-2.6 0-6 9-11.2 21.2-10.6 33.3-5.6z" fill="#093856"/><path d="M845 897q2.5.5 5 1-1.5 1-3 2-.6 2.5-1 5-1.1 2.5-2.3 4.8-.7 1.4-1.5 2.8-.7 1.3-1.5 2.8l-1.4 2.8-4.3 7.8q-.4.9-.9 1.8c-1.2 2.1-2.2 3.6-4.1 5.2-3.7 1-7.4.9-11.2.8q-1.7 0-3.4 0-5.7 0-11.3-.1-3.9 0-7.7 0-9.2-.1-18.4-.2-10.5-.1-21-.1-21.5-.2-43-.4.6-2.9 1.3-5.7.4-1.6.8-3.3c.9-3 1.7-4.8 3.9-7q1.5 0 3 0c-1.3 5.1-3.2 10-5 15h107q1-2 2-4 1.6-2.6 3.2-5.1c4.6-7.1 9.2-14.3 12.8-21.9q1-2 2-4z" fill="#ac5400"/><path d="M115 889q1.5.5 3 1c.8 2 .8 2 1.5 4.7q.4 1.5.7 3 2 8.6 3.8 17.3.3 1.4.6 2.8c1.2 5.2 1.6 9.9 1.4 15.2h-7q0-1.7.1-3.5c0-4.4-.6-8.5-1.5-12.8l-.4-2.3q-.9-4.8-1.8-9.7c-1-5-1.7-9.6-1.4-14.7q.5-.5 1-1z" fill="#a65000"/><path d="M293 899q1.5.5 3 1-.2 5.4-.4 10.9l-.2 3c-.2 6.4-.7 12.8-1.4 19.1h-7c2.7-30.7 2.7-30.7 6-34z" fill="#005065"/><path d="M859 933q16.1-.1 32.2-.2 7.4 0 14.9 0 7.2-.1 14.4-.1 2.7 0 5.5 0 3.8 0 7.7 0l2.3-.1c4.7.1 8 .9 12 3.4 3.1 3.2 4.5 5.6 5 10-.6-.8-.6-.8-1.2-1.7-2.1-2.7-4.2-5-6.8-7.3q-2 0-4 0 0-1 0-2h-81q-.5-1-1-2z" fill="#fee074"/><path d="M162 247c3 .6 5.1 1.6 7.6 3.4q.9.6 1.8 1.2c2.2 1.9 3.5 3.6 3.8 6.5v2.3 2.3c-.2 2.3-.2 2.3-.7 4.2-.7 2.9-.6 5.8-.6 8.8l.1 3.6q0 1.3 0 2.7l-4-1c-2.3-3.9-2.2-7.5-2-12q.5-1.5 1-3c.7-6 .7-6-2.3-10.9-2.7-2.2-2.7-2.2-5.7-4.1q.5-2 1-4z" fill="#a34d00"/><path d="M911 282c-.4 2.8-.8 3.8-3 5.7l-2.4 1.7c-4 2.9-5.8 4.6-6.6 9.6q-.4 4.3-.7 8.6c-.3 2.4-.3 2.4-2.3 4.4q-1.5 0-3 0c-.4-9.3-.5-16.7 5.3-24.3 4-4 7-5.7 12.7-5.7z" fill="#a64f00"/><path d="M720 917q1.5 0 3 0c-1.3 5.1-3.2 10-5 15h106q0 .5 0 1H714c3-12 3-12 6-16z" fill="#d36200"/><path d="M88 901l5 1q.1 1.2.3 2.5c1.3 9.7 3.3 19 5.7 28.5q-3 0-6 0-1.3-5.5-2.5-10.9-.4-1.6-.7-3.1c-1.4-6.2-2.1-11.7-1.8-18z" fill="#a65000"/><path d="M787 353c5.7.7 9.3 3 12.9 7.3 3.4 4.6 5.5 7.9 6.1 13.7-4.1-.5-5.8-1.3-8.4-4.5q-.9-1.1-1.8-2.2-.9-1.1-1.8-2.3-1-1.2-2-2.4c-5-6.2-5-6.2-5-9.6z" fill="#093758"/><path d="M140 883l5 1q1.4 5.6 2.8 11.3.4 1.5.8 3.2.3 1.5.7 3.1.3 1.4.7 2.8c0 2.6 0 2.6-2 4.9q-1 .9-2 1.7-1-.5-2-1l-1.1-4.7-.5-3q-.3-1.5-.5-3.1-.3-1.4-.6-3c-.8-4.5-1.4-8.6-1.3-13.2z" fill="#9e4c00"/><path d="M744 478c5.4 1.7 10.7 3.8 16 6q-1 2-2 4-1 0-2 0v7q-1.5-.5-3-1-.7-1.4-1.4-2.9c-1.8-3.4-2.2-3.8-5.6-5.1-2.6-.5-2.6-.5-5.3-.6q-1.3-.1-2.7-.3c-1 0-1 0-2-.1q.5-1 1-2c5.4-1.3 5.4-1.3 8 0q-.5-2.5-1-5z" fill="#068a8e"/><path d="M149 908c2 1.9 2.9 3.4 3.2 6.1q.1 3.8 0 7.7 0 1.3-.1 2.6 0 3.3-.1 6.6-1 0-2 0-.5 1-1 2-.7-3.8-1.4-7.6-.2-1.1-.4-2.2-1.2-6.1-2.2-12.2 2-1.5 4-3z" fill="#095b6e"/><path d="M633 909c-.6 3.3-1.4 6.5-2.5 9.8-1.5 4.7-2.1 9.2-2.5 14.2q-2.5 0-5 0c1.3-24 1.3-24 10-24z" fill="#ab5200"/><path d="M646 910q1.5 0 3 0c-.6 7.8-1.6 15.3-3 23q-2.5 0-5 0 .7-4.6 1.4-9.3l.4-2.6q.2-1.3.3-2.6.2-1.1.4-2.3c.5-2.3 1.4-4.1 2.5-6.2z" fill="#aa5200"/><path d="M580 866q.5 0 1 0 0 7 .1 14 0 2.4 0 4.8 0 3.5 0 6.9 0 1.1 0 2.2 0 2.5-.1 5.1c-1 1-1 1-3.1 1.1q-1.2 0-2.5 0-1.2-.1-2.5-.1-.9 0-1.9 0 1-1.5 2-3 2 0 4 0c1.4-2.8 1.2-5.2 1.3-8.3q0-1.9.1-3.8.1-4 .2-8 .1-1.8.1-3.7l.1-3.5c.2-2.7.2-2.7 1.2-3.7z" fill="#038c9d"/><path d="M702 913q1.5 0 3 0c-.8 4.3-1.9 8.6-3.1 12.8q-.2 1-.5 2.1-.7 2.6-1.4 5.1-2 0-4 0c.9-14.9.9-14.9 6-20z" fill="#a85000"/><path d="M845 897q2.5.5 5 1-1.5 1-3 2-.5 2.5-1 5l-3.6 7.3-1 2q-1.2 2.3-2.4 4.7-.5-1.5-1-3-1 0-2 0c1.3-4.7 3.4-8.7 5.8-12.9q1.7-3 3.2-6.1z" fill="#ae5600"/><path d="M583 914q1.5 0 3 0c-.5 6.5-1.5 12.7-3 19q-2-.5-4-1 .4-3.7.9-7.3.1-1 .2-2.1c.5-3.6.9-5.6 2.9-8.6z" fill="#ab5200"/><path d="M567 913q2 0 4 0-.5 1.3-.9 2.7c-1.7 5.6-1.8 11.5-2.1 17.3q-2 0-4 0 .2-3.6.4-7.2 0-1 .1-2c.2-4 .8-7.2 2.5-10.8z" fill="#ac5300"/></svg>