<svg xmlns="http://www.w3.org/2000/svg" width="1024" height="1024" xmlns:v="https://vecta.io/nano"><path fill-rule="evenodd" d="M308.7 55.5c10.1 6.8 14.7 15.7 17.3 27.5v45h371c0-17.7-4.1-40.2 3.3-58.2 4.7-7.8 10.9-13.9 19.5-17.1 9.6-2.2 20.6-2.4 29.2 2.8q1 .8 2 1.5c1.9 1.3 3.7 2.6 5.4 4.2 11.2 20.5 11.2 20.5 10.8 44.4q0 2.8 0 5.7-.1 6.6-.2 13.2 0 1.8 0 3.5 17.2 0 34.4 0 8.8-.1 17.6-.1 8.6 0 17.2 0 3.3 0 6.6 0 4.7 0 9.4 0 1.5 0 2.9 0 3.8 0 7.6 0c17.1.7 33.8 8.6 45.5 21 .9 1.1.9 1.1 1.8 2.1 15.5 17.6 17.6 37.2 17.5 59.7q0 4.9 0 9.8 0 8.6 0 17.2 0 12.9 0 25.8 0 21.7 0 43.4-.1 21.6-.1 43.2 0 1.4 0 2.7 0 5.5 0 10.9 0 49.7 0 99.4-.1 46.9-.1 93.9v2.9q0 7.3 0 14.6 0 1.5 0 2.9 0 2.9 0 5.8 0 46.3-.1 92.6 0 13.5 0 27.1 0 28.5 0 57.1 0 11.8 0 23.6 0 9.9 0 19.8 0 4-.1 8 0 5.5 0 11.1 0 1.7 0 3.3c0 4.6.1 9.2-.3 13.8-2.3 21.2-12.6 44.6-29.3 58.5q-1.3 1-2.5 1.9c-16.9 14.4-36.1 23.2-58.6 23.3-1.6 0-1.6 0-3.1-.1q-5.5.1-10.9.1-5.1-.1-10.1 0-8.9 0-17.8 0-13.2-.1-26.5-.1-22.4.1-44.7 0-22.2 0-44.4 0-1.5 0-2.8 0-5.6 0-11.3 0-52.6 0-105.2 0-46.8 0-93.6 0-3 0-6 0-1.6 0-3 0-7.5 0-15 0-1.5 0-3 0-39.2 0-78.4 0-1.5 0-2.8 0-5.7 0-11.3 0-19.4 0-38.9 0-25.3 0-50.5 0-13.3-.1-26.7-.1-9 0-17.9 0-4.2 0-8.3 0-5.7 0-11.4 0h-3.4c-21.8.1-40.7-6.4-57.8-19.9q-1.3-1.1-2.6-2.2c-4.6-3.7-8.5-7.2-11.8-12.2q-.6-.9-1.2-1.8c-15.6-21.6-19.8-43.3-19.6-69.6q0-4.9 0-9.9 0-8.7 0-17.5 0-13 0-26.1 0-21.9 0-43.9.1-21.9.1-43.7 0-1.4 0-2.7 0-7 0-13.9 0-48.8.1-97.7 0-47.5 0-95 0-1.5 0-3 .1-11.8.1-23.6 0-51 0-101.9 0-9.6 0-19.2 0-28.9.1-57.8 0-11.9 0-23.9 0-10 0-20 0-4 0-8.1 0-5.6.1-11.2 0-1.7 0-3.4c-.1-18.1 5-33.8 17.9-47.1 18.5-17.7 36.7-20.1 61.3-20q3.3 0 6.6 0 8.7 0 17.4 0 9 .1 18.1.1 17.5 0 35.1.1 1.9 0 3.7 0-.1-7.6-.1-15.2 0-3.1 0-6.2-.1-4.5-.1-9.1 0-1.5 0-2.9c-.1-11.4 1.1-21.1 7.6-30.7 10.4-13.3 29.6-16.5 44.3-8.4z" fill="#fefee9"/><path d="M426.6 347.9q1.1-.1 2.2-.1 3.8 0 7.6 0 2.7 0 5.4 0 8.9 0 17.8 0 3 0 6.1-.1 14.4 0 28.8 0 16.6 0 33.2-.1 12.9 0 25.7 0 7.7 0 15.3-.1 7.2 0 14.5 0 2.6 0 5.2 0c12.7-.1 22.9 1.1 33.2 9.1 1.4 1.4 1.4 1.4 1.4 3.4q1 0 2 0c1.4 1.6 1.4 1.6 2.9 3.8a28.61 28.61 0 0 0 1.5 2.2c5.9 11 6.1 20.8 6 33q0 2.7 0 5.5-.1 7.1-.1 14.3-.1 7.3-.1 14.6-.1 14.3-.2 28.6 1.8 0 3.6 0 16.7-.1 33.4-.2 8.6 0 17.2 0 8.3-.1 16.6-.1 3.2 0 6.4 0 4.4 0 8.9 0 1.2-.1 2.6-.1c11.3.1 19.8 4 28.3 11.4 9.9 10.2 10.6 21.9 10.5 35.3q0 2.6 0 5.3.1 7 0 14.1 0 7.4 0 14.8.1 12.4 0 24.8 0 14.4 0 28.7.1 12.3 0 24.7 0 7.3 0 14.7.1 6.9 0 13.8 0 2.6 0 5.1c.1 16.3.1 16.3-4.5 23.7q-.7 1.2-1.4 2.4c-6.4 8.3-13.7 14.9-24.2 17.1-4.2.6-8.4.6-12.7.6q-1.4 0-2.8 0-4.5 0-9 0-3.2 0-6.3 0-8.3 0-16.6 0-8.4 0-16.9-.1-16.5 0-33.1 0v3.1q.1 14.4.2 28.8 0 7.5 0 14.9.1 7.2.1 14.3 0 2.7 0 5.5c.1 15-1 25.6-11.3 37.4-9.2 9.1-20.5 11.6-33 11.6q-2.5 0-5 0-2.6 0-5.3 0-7.2 0-14.4-.1-7.6 0-15.2 0-12.7 0-25.4-.1-17.9 0-35.8-.1-12.4 0-24.8 0-3 0-6 0-8.6-.1-17.2-.1-2.6 0-5.1 0-3.6 0-7.1 0-1 0-2.1 0c-10.8-.1-19.5-2.9-27.4-10.5-8.2-8.9-12.7-18.2-12.5-30.3v-2.5q0-4 0-7.9 0-2.8 0-5.6 0-7.2.1-14.5 0-7.4.1-14.8 0-14.6.1-29.1-1.8 0-3.6 0-16.9.1-33.8.2-8.7 0-17.4.1-8.4.1-16.8.1-3.2 0-6.4 0-4.5.1-9 .1-1.3 0-2.6 0c-11-.1-19.4-4.9-27.3-12.2-9.9-10.3-10.8-22.2-10.7-35.8q0-2.5-.1-5.1 0-7 .1-14 0-7.4 0-14.7 0-12.3 0-24.7 0-14.2 0-28.4 0-13.8 0-27.5 0-5.8 0-11.6 0-6.9.1-13.8 0-2.5 0-5c-.1-10.9.6-20.4 7.6-29.3.8-1 .8-1 1.5-2l1.4-1.4q1 0 2 0 0-1 0-2c1.8-1.4 1.8-1.4 4.2-3q1.1-.8 2.3-1.6c7.4-4.3 14.6-4.5 22.9-4.5q1.4 0 2.8 0 4.6 0 9.2 0 3.1 0 6.3 0 8.4 0 16.8 0 8.5 0 17 .1 16.8 0 33.5 0 0-1.5 0-3.1-.1-14.4-.2-28.8 0-7.4-.1-14.8-.1-7.2-.1-14.3 0-2.7 0-5.5c-.2-14.3 1-25.7 11.4-36.5 8.6-7.7 16-11.2 27.6-11.1z" fill="#f17900"/><path d="M306.7 54.6C316 60.1 321 66.9 325 77c2.8 16.8 1 34 1 51h371V82c3.4-12.4 3.4-12.4 7-17q1.1-1.5 2.3-3.1c4.6-5.4 11.5-9.3 18.7-10.1 9.6-.6 17.9-.6 26 5.2q1 .6 1.9 1.3c8.7 6.6 12.2 16.1 13.8 26.5 1 7.8.6 15.7.5 23.6q0 2.8-.1 5.7 0 7-.1 13.9 1.8 0 3.6 0 17.1-.1 34.1-.1 8.8 0 17.5-.1 8.5 0 16.9 0 3.3 0 6.5 0c25.3-.1 44.8 3.9 63.4 22.2 12.4 12.4 18.2 29 18.3 46.3q0 1.5 0 3 0 1.7 0 3.4 0 5.5 0 11.1 0 4 0 8 0 8.7 0 17.4 0 13 0 26 0 23.2 0 46.3 0 20.3 0 40.6v2.7q0 5.5 0 11 0 51.2 0 102.4-.1 45.6 0 91.1 0 51.1 0 102.3 0 5.4 0 10.9 0 1.3 0 2.7 0 20.3 0 40.5 0 23.1 0 46.1 0 12.9 0 25.8 0 8.7 0 17.3 0 4.9 0 9.8c0 30.7-4.5 57.2-26.8 79.8-1.2 1.3-1.2 1.3-2.5 2.5l-2.1 2.1c-10.4 9.9-22.4 16.4-35.9 20.9q-1 .3-2.1.7c-7.9 2.5-16 2.4-24.3 2.4h-3.4q-5.7 0-11.4 0-4.1 0-8.2 0-10.2.1-20.3.1-12.2 0-24.3 0-29.4 0-58.8 0-13.9 0-27.8 0-47.5 0-95.1 0-3 0-6 0-3 0-6 0-6 0-12 0-1.5 0-3 0-48.3 0-96.6.1-51 0-102.1 0-5.6 0-11.2 0-1.4 0-2.8 0-22.2 0-44.4.1-22.3 0-44.6 0-13.3 0-26.5 0-8.9 0-17.7 0-5.1 0-10.1 0c-33.6.1-33.6.1-48.4-7-1.1-.5-1.1-.5-2.3-1-10.5-5-19.7-11.8-27.6-20.4q-1.2-1.1-2.5-2.3c-15.6-16.8-23.9-40.4-23.8-63.2q0-1.6 0-3.3 0-5.6 0-11.3 0-4 0-8.1 0-8.8 0-17.7 0-13.1 0-26.2 0-24.9 0-49.7 0-19.2 0-38.3 0-2.8 0-5.5 0-4.2 0-8.3 0-38.6 0-77.2 0-1.5 0-3 0-7.3 0-14.7 0-1.5 0-3 0-2.9 0-5.9 0-46.1 0-92.2-.1-51.7-.1-103.5 0-5.6 0-11.1 0-1.3 0-2.7 0-20.5 0-41.1 0-23.3 0-46.6 0-13.1 0-26.1 0-8.8 0-17.5 0-5 0-9.9c0-21.8 1.4-39.6 16.4-56.6q1-1.1 2-2.3c11.6-12.4 26.5-19.2 43.4-19.8q4 0 7.9 0 1.5 0 3 0 4.8 0 9.7 0 3.4 0 6.7 0 8.9 0 17.7 0 9.1 0 18.1.1 17.8 0 35.5 0 0-1.9 0-3.9-.1-7.2-.1-14.3 0-3.1-.1-6.2 0-4.5 0-9 0-1.4 0-2.8c0-12.2 2.5-22.8 11.1-31.9 10.6-9.5 25.9-11.4 38.8-5.3zM116 271l-.3 284.1-.1 89.7v53q0 18.9 0 37.8-.1 19.3-.1 38.6.1 10.5 0 20.9 0 9.5 0 19 0 3.4 0 6.8c-.1 24.8 5.2 45 22.8 63.6 10.9 10.3 22.5 15.7 36.7 19.5.9.3.9.3 1.9.5 2.4.6 4.5.6 6.8.6q1.5 0 3 0 1.5 0 3.1 0h3.5q5.7.1 11.4.1 4.1 0 8.2 0 10.1 0 20.3 0 12.1 0 24.2 0 29.4.1 58.8.1 9.7 0 19.4 0 51.7 0 103.4 0 12 0 24 .1h3q48.2 0 96.5 0 49.6.1 99.2.1 7 0 14 0h2.8q22.2 0 44.3.1 22.3 0 44.7 0 13.2 0 26.4 0 8.9 0 17.8 0 5 0 10 0c25.6.2 45.7-4.8 64.9-22.7 17.9-18.6 21.9-40.2 21.8-65q0-3.5 0-7 0-8.7 0-17.4-.1-10.6-.1-21.1 0-19.4 0-38.8 0-26.2 0-52.4 0-63-.1-126L908 271H116z" fill="#19a0c0"/><path d="M97 253h830l.1 291.2.1 92v54.3q0 19.4 0 38.8 0 19.8 0 39.5 0 11.8 0 23.5.1 8.7 0 17.4 0 3.5 0 7c.1 29.9-5.1 55.8-26.7 77.8-1.2 1.3-1.2 1.3-2.5 2.5l-2.1 2.1c-10.4 9.9-22.4 16.4-35.9 20.9q-1 .3-2.1.7c-7.9 2.5-16 2.4-24.3 2.4h-3.4q-5.7 0-11.4 0-4.1 0-8.2 0-10.2.1-20.3.1-12.2 0-24.3 0-29.4 0-58.8 0-13.9 0-27.8 0-47.5 0-95.1 0-3 0-6 0-3 0-6 0-6 0-12 0-1.5 0-3 0-48.3 0-96.6.1-51 0-102.1 0-5.6 0-11.2 0-1.4 0-2.8 0-22.2 0-44.4.1-22.3 0-44.6 0-13.3 0-26.5 0-8.9 0-17.7 0-5.1 0-10.1 0c-33.6.1-33.6.1-48.4-7-1.1-.5-1.1-.5-2.3-1-10.5-5-19.7-11.8-27.6-20.4q-1.2-1.1-2.5-2.3c-15.3-16.4-23.9-39.9-23.7-62.1q0-1.5-.1-3.1 0-5 .1-10 0-3.7 0-7.3-.1-7.9 0-15.9 0-11.9 0-23.8 0-20 0-40 0-27.1 0-54.1 0-65 .1-130L97 253zm19 18l-.3 284.1-.1 89.7v53q0 18.9 0 37.8-.1 19.3-.1 38.6.1 10.5 0 20.9 0 9.5 0 19 0 3.4 0 6.8c-.1 24.8 5.2 45 22.8 63.6 10.9 10.3 22.5 15.7 36.7 19.5.9.3.9.3 1.9.5 2.4.6 4.5.6 6.8.6q1.5 0 3 0 1.5 0 3.1 0h3.5q5.7.1 11.4.1 4.1 0 8.2 0 10.1 0 20.3 0 12.1 0 24.2 0 29.4.1 58.8.1 9.7 0 19.4 0 51.7 0 103.4 0 12 0 24 .1h3q48.2 0 96.5 0 49.6.1 99.2.1 7 0 14 0h2.8q22.2 0 44.3.1 22.3 0 44.7 0 13.2 0 26.4 0 8.9 0 17.8 0 5 0 10 0c25.6.2 45.7-4.8 64.9-22.7 17.9-18.6 21.9-40.2 21.8-65q0-3.5 0-7 0-8.7 0-17.4-.1-10.6-.1-21.1 0-19.4 0-38.8 0-26.2 0-52.4 0-63-.1-126L908 271H116z" fill="#053159"/><path d="M542.8 556.2c9.4 6.3 16.8 15.1 23.8 23.8 2.8 3.5 5.8 6.9 8.7 10.3q7.2 8.3 14.4 16.7c3.1 3.6 6.3 7.2 9.6 10.7 14.4 15.8 21.7 31 21 52.5-.7 13.3-7.3 24.7-16.9 33.8-13.4 11.2-29.2 15.1-46.4 14-4.7-.7-9.4-1.8-14-3q-2.6-.6-5.1-1.3-4-1-8-2c-17-4.3-31.6-2.3-48.2 2.5-18.8 5.3-36.4 5.1-53.8-4.3-12.2-8-20.2-18.3-24.2-32.4-3-15.2-.1-31.1 8-44.3 4-5.6 8.5-10.7 13.2-15.7 3.8-4.1 7.3-8.4 10.9-12.8 3.1-3.8 6.4-7.3 9.7-11a133.91 133.91 0 0 0 6.9-8.1c12.4-15.4 25.3-28.3 43.6-36.6q1.1-.5 2.2-1c15.9-6.4 30.9.2 44.6 8.2z" fill="#00305a"/><path d="M746.7 54.1L751 57q1 .6 1.9 1.3C760.3 63.9 764.4 72 766 81c.3 3.5.3 7 .3 10.5q0 1.5 0 3 0 5.1 0 10.1 0 3.5.1 7 0 7.3 0 14.7 0 9.4 0 18.7.1 7.3.1 14.5 0 3.5 0 7 0 4.8 0 9.6 0 1.4 0 2.9c-.1 10.1-3.3 19.7-10.5 27-7.4 6-14.9 9.6-24.4 9.4q-1.2 0-2.3-.1c-9.7-.3-14.8-3-22-9.8-7.9-8.5-10.6-17.2-10.6-28.6q0-1.5 0-3.1 0-5 0-10 0-3.4 0-6.9 0-7.3 0-14.6 0-9.3-.1-18.6 0-7.2 0-14.4 0-3.4 0-6.9 0-4.8 0-9.6 0-1.4 0-2.8c.1-9.1 1.7-17.8 7.4-25q1.1-1.5 2.2-3.1c9.3-10.8 27.8-13.9 40.5-7.8zm-440 .5C316 60.1 321 66.9 325 77c1.2 5.3 1.2 10.6 1.2 16v3q0 4.9 0 9.8 0 3.4 0 6.8 0 7.2 0 14.3.1 9.2.1 18.3 0 7.1 0 14.1 0 3.4 0 6.8.1 4.7.1 9.4 0 1.4 0 2.8c-.1 11.1-3.5 20.2-11 28.5-7.3 6.9-15.6 8.8-25.5 8.7-9.9-.5-16.5-4.1-23.6-10.9-5.1-5.9-9.4-13.9-9.4-21.8q0-1.3 0-2.6 0-1.4 0-2.8-.1-1.5-.1-3 0-5 0-9.9 0-3.4 0-6.8 0-7.2 0-14.4 0-9.2 0-18.3 0-7.1 0-14.2 0-3.4 0-6.8-.1-4.7 0-9.5-.1-1.3-.1-2.8c.1-12.1 2.6-22.7 11.2-31.8 10.6-9.5 25.9-11.4 38.8-5.3z" fill="#003059"/><path d="M583.3 444.2c7.4 6.9 11.7 17 12.1 27.1q0 2.8 0 5.6c0 1.4 0 1.4-.1 2.9-.1 6.8-.8 12.8-3.3 19.2q-.4 1.2-.8 2.5c-3.7 10.5-10.6 19.7-20.2 25.5-7.1 3.4-13.8 4-21.4 2.1-9.6-3.6-16.3-12.1-20.6-21.1-6.1-15.2-6-32.8 0-48 5.1-10.5 12.6-18.4 23.7-22.3 10.9-3.3 21.8-.7 30.6 6.5z" fill="#01305b"/><path d="M476.9 440.5q1 .8 2.1 1.5.9.6 1.9 1.3c9.6 7.3 15.3 20 17.1 31.7 1.1 16.4-.9 31.9-11.7 45-5.7 6.2-12.4 9.6-20.9 10.3-9.5-.2-16.6-4.5-23.2-11-10.6-11.3-14.6-25.6-14.5-40.7q0-1.3-.1-2.7c0-11.3 3.6-21.5 11.3-29.9 10.4-9.8 25.1-13.1 38-5.5zM642 503.6q1.1-.1 2.3-.1c7 0 12.1 2.3 17.4 6.9 7.5 8.6 9 16.5 8.3 27.6-1.7 15.4-9.9 31.3-22 41-10.7 7.3-20 10.5-33 9-7.4-2.2-12.3-6.3-16-13-6-12.9-5.3-26.1-.5-39.3 5.3-13.6 15.1-23.4 28.3-29.5 5.1-2.2 9.7-2.7 15.2-2.6zm-238.3 7.1c10.9 8.2 19.2 19.3 22.9 32.6 1.5 11.2 2.3 23.4-3.8 33.3-4 5.3-8.4 9.4-14.8 11.4-12.1 1.1-21.3-.2-31.1-7.7-13.7-11.7-21.6-25.8-23.2-43.8-.3-9.2 1.3-16.6 6.1-24.4 12.6-11.9 29.8-10.3 43.9-1.4z" fill="#01305a"/></svg>