<svg xmlns="http://www.w3.org/2000/svg" width="1024" height="1024" xmlns:v="https://vecta.io/nano"><path fill-rule="evenodd" d="M356.7 57.7q4.7 0 9.4-.1c17.9 0 34.6 2.4 51.8 7.1 1 .2 1 .2 2 .5 17.2 4.7 33.3 11.4 49.1 19.8q1 .5 2.1 1.1c8.8 4.7 17 9.8 24.9 15.9q1.5 1.1 3 2.2c9 6.6 17 14.1 25 21.8q1.2 1.1 2.4 2.3c5.4 5.2 10 10.9 14.6 16.7q1 1.1 2 2.3c15.6 18.8 26.7 40.9 35 63.7q.4 1 .7 2c3.3 9.1 5.4 18.4 7.6 27.8q.3 1.6.7 3.4c6.4 28.9 5.4 63-1 91.8q-.3 1.3-.6 2.7C575.5 386 546.2 435.9 507 465q-1 0-2 0 0 1 0 2c-3.5 2.9-7.3 5.4-11 8q-.8.6-1.7 1.2c-10 7-20.5 13.1-31.3 18.8q-1.7.9-3.5 1.9c-23.6 11.7-51.1 19.7-77.5 20.1q-.3.8-.5 1.6-2 6.1-4.2 12.1c-11 31.4-16.5 68-1.9 99.2 13.4 25.6 33.8 40.8 58.6 54.1 25.1 13.5 49.5 28.1 73.1 44.1 27 18.3 56.1 32.3 89.5 26.5 24.5-4.8 47.7-15.9 68.4-29.6q2.1-1.3 4.1-2.7c16.1-10.4 31.5-21.7 45.9-34.3 1.1-.9 1.1-.9 2.1-1.8q3-2.6 5.9-5.2c1.1-1 1.1-1 2.3-2 9.4-8.5 18.3-17.4 27.2-26.3q4-4 8.1-8.1c11.3-11.2 11.3-11.2 21.7-23.4 2-2.6 4.2-5 6.5-7.4 4.6-4.9 8.6-10.2 12.6-15.6q4.5-6.1 9.2-11.9C837 551.5 861.7 508 859 462c-1.9-15.7-9.2-31.5-19.2-43.7-1.8-2.3-1.8-2.3-1.8-4.3q-1 0-2 0c-1.4-1.4-1.4-1.4-3-3.4-6.6-7.7-13.9-13.8-22.4-19.3q-1-.7-2.1-1.4c-3.5-2.4-3.5-2.4-7.6-2.5q-3.2 2.7-6.3 5.3c-2.6 2.1-5.4 3.5-8.3 5q-1.7.9-3.5 1.7c-14.2 6.4-33.8 5.7-48.1.2-17.2-7.3-30.5-18.7-38.2-36-5.5-13.8-7.5-30.9-1.7-45 7.3-15.3 17.5-24.5 33.4-30.4 6.7-2.3 13-2.7 20.1-2.6q1.6 0 3.3 0c8.4.2 15.6 1.1 23.4 4.4q1.7.7 3.5 1.4c16.6 7.5 29.8 21.7 36.5 38.6 2 6.6 3.5 13.1 3 20q1.2.4 2.5.7c28.9 10.6 54.8 38.2 67.9 65.4q1.3 2.9 2.6 5.9.4 1 .8 2c15.1 35.6 12.1 73.1-2.1 108.5q-1.3 3.3-2.7 6.5-.4 1-.9 2.1c-16.5 38.2-43.8 74.7-71.8 105.3q-2.8 3.2-5.6 6.4c-10.4 11.9-21.6 23.2-32.7 34.3q-.8.8-1.6 1.7c-5.4 5.4-10.9 10.7-16.7 15.7-2.6 2.2-5 4.6-7.5 6.9-5.6 5.1-11.3 9.9-17.2 14.6l-2.2 1.8c-19.5 15.9-40.1 30.1-61.8 43q-2.7 1.6-5.5 3.3c-34.4 20.6-75 29.6-114.5 20.9-26.2-6.9-49.2-19.7-71.4-35-2.5-1.7-4.7-3-7.6-4l-2 3.3a698.37 698.37 0 0 1-21 32.7q-.7 1.1-1.5 2.2c-7.2 10.5-14.9 20.7-22.9 30.7q-2.2 2.9-4.5 5.9c-5.4 7-11.1 13.6-17.2 20.1-2.1 2.2-4.2 4.6-6.2 7-9.6 10.9-20.1 21.2-31.7 30.1q-1.4 1.2-2.9 2.4c-17.9 14.4-38.6 24.7-61.1 29.6-1 .2-1 .2-2 .5-19.5 4.2-39.5 3.6-59-.5q-1-.2-2-.4c-10.6-2.2-19.7-6.4-29-11.6q-1.1-.6-2.2-1.2c-11-6.2-20.6-13.2-29.8-21.8q-1.3-1.2-2.5-2.4c-36.5-35.2-54.4-86.9-61.2-136l-.4-2.5c-1.9-15.1-2.1-30.2-2.1-45.3q-.1-1.5-.1-3c.1-16.1.9-31.8 3.3-47.8q.2-1.4.4-2.9c5-36.8 15.6-73.1 30.6-107.1q.5-1.1 1-2.3c5.4-12.6 12.4-24.2 19.4-36q2-3.4 4-6.9c7.4-12.8 15.8-25.7 26.4-36.1 1.4-1.6 1.4-1.6.9-3.6-.8-2.3-1.7-3.4-3.4-5.2q-.8-.8-1.7-1.7-.9-.9-1.8-1.9c-40.1-41.9-62.9-100.7-62-158.7 2-66.3 28.2-124.3 76.5-169.7 29.2-26.8 65.6-44.1 104-53.2q1.5-.4 3-.7c15.8-3.6 31.3-4.3 47.4-4.3zM163.8 604.8q-.4 1.6-.8 3.2c-4.6 17.8-8.3 35.7-10.6 54q-.2 1.5-.4 3c-2.5 19.3-3.2 39-1.4 58.3q.2 1.9.4 3.7c4.5 43.2 16.1 89.9 46.6 122.7 19.2 19.6 43.7 32.8 71.6 33.4 33.1-1.4 65.9-22 88.3-45.4q1.9-2.1 3.9-4.2c5.6-5.9 11-12 16.2-18.4q1.2-1.6 2.4-3.1c11.3-14.3 21.7-29.2 31.6-44.6l14.6-22.2q4.4-6.6 8.8-13.2-2.9-1.6-5.9-3.1-6-3.3-12.1-6.4c-20.9-10.9-40.9-22.6-56.7-40.6q-1.6-1.9-3.3-3.9c-14.2-15-26.2-33.4-30.4-53.9l-.6-3.1c-3.3-16.3-4.2-32.6-2.3-49.2q.1-1.4.3-2.8c1.1-11.2 3.2-21.7 6-32.6q.6-2.4 1.3-4.9 1.4-5.7 2.9-11.4.4-1.6.8-3.1c-32.9-4.3-63.5-13.1-92.2-29.9-4.5-2.7-8.8-5.4-13.8-7.1-31.7 34.8-53.3 79.5-65.2 124.8z" fill="#022958"/><path d="M445 119c1.1.5 1.1.5 2.1 1.1 19.5 10.1 35.5 23.4 50.9 38.9q.8.8 1.6 1.6c32.3 31.5 48.6 78.6 49.7 123 .5 46-15.4 92.1-46.3 126.4q-1.7 2-3.4 4c-17.4 19.6-37.8 35-61.6 46q-1.7.8-3.5 1.6C413.6 471 391 476.4 368 477q-1.1 0-2.3.1c-14.4.4-28.4-.9-42.7-3.1q-1.2-.2-2.4-.4c-15.8-2.4-30.2-7.9-44.6-14.6-1.8-.8-1.8-.8-3.6-1.7-12-5.7-22.9-13-33.1-21.4-3-2.5-6.2-4.9-9.3-7.3-2.2-1.7-4.1-3.5-6-5.6q0-1 0-2-1 0-2 0c-1.5-1.5-1.5-1.5-3.2-3.5q-1-1.1-1.9-2.2c-35-42.3-53.6-93.5-48.6-148.8.9-7.2 2.2-14.4 3.7-21.5q.3-1.2.5-2.4c5.7-25.5 18-50.4 34.5-70.6q.7-.8 1.4-1.7c18.8-22.8 40.6-40.8 67.6-53.3 1-.5 1-.5 1.9-.9C329.8 91.4 394 93 445 119z" fill="#fefdf7"/><path d="M344.6 156.5h3q3.2.1 6.3.1 4.8 0 9.6 0 3.1 0 6.1.1 1.5 0 2.9 0c6.4.1 11.3.4 16.3 4.7 3.6 4.3 3.3 8.2 3.3 13.5q0 1.2 0 2.4 0 4 0 7.9 0 2.8 0 5.5 0 7.3 0 14.5 0 7.4-.1 14.8 0 14.5 0 29h3.2q14.9-.1 29.7-.2 7.7 0 15.3 0 7.4-.1 14.8-.1 2.8 0 5.6 0 4 0 7.9 0 1.2-.1 2.4-.1c4.8.1 8 .9 12.1 3.4 4.4 4.5 5.1 8.6 5.2 14.8q0 1.4 0 2.8v3q0 1.5 0 3.1 0 3.2 0 6.4.1 5 .1 9.9 0 3.2 0 6.3 0 1.5.1 3c-.1 5.3-.3 9.1-3.4 13.7-5.7 4.4-10 5.1-17.1 5.1q-1.2 0-2.4 0-4.1 0-8.2 0-2.8 0-5.6 0-7.4 0-14.8 0-7.6 0-15.2-.1-14.8 0-29.7 0 0 1.5 0 3.1.1 14.3.2 28.6 0 7.4.1 14.7.1 7.1.1 14.3 0 2.7 0 5.4.1 3.8.1 7.6 0 1.1 0 2.2c0 5.6-1.4 8.7-4.5 13.1-5.7 3.6-11.3 3.5-17.9 3.4q-1.6 0-3.2 0-3.3.1-6.6 0-5 0-10 .1-3.2 0-6.4 0-1.4 0-3 0c-6.1 0-9.9-.7-14.9-4.5-3.3-4.2-3.4-8-3.3-13.2v-2.4q0-4 0-8 0-2.8 0-5.6 0-7.3.1-14.6 0-7.5.1-14.9 0-14.7.1-29.3-1.6 0-3.1 0-14.7.1-29.4.2-7.6 0-15.2.1-7.3.1-14.5.1-2.8 0-5.6 0-3.9.1-7.8.1h-2.3c-6.1 0-9.4-2.2-13.9-6.1-2.4-2.8-2.3-5.8-2.4-9.3q0-1.5 0-3.1 0-1.6 0-3.2 0-1.7 0-3.4 0-3.5 0-7.1-.1-5.4-.1-10.8 0-3.4 0-6.9 0-1.6-.1-3.2c.1-9.9.1-9.9 3.4-14.4 4.7-3.9 8.5-4.6 14.5-4.5q1.2 0 2.5 0 4.1.1 8.2.1 2.8 0 5.7 0 7.4.1 14.9.1 7.6.1 15.3.1 14.9.1 29.9.2v-3.1q-.1-14.3-.2-28.7 0-7.3 0-14.7-.1-7.1-.1-14.3 0-2.7 0-5.4 0-3.8 0-7.6-.1-1.1-.1-2.2c.1-4.8.8-8 3.4-12 5.3-4.6 11.9-4.6 18.6-4.5z" fill="#0d72c6"/><path d="m365 829c0 3 0 3-2 5.3q-1.4 1.3-2.8 2.6c-3.3 3.2-6.3 6.5-9.2 10.1-2.6 1.9-2.6 1.9-5 3q-1-0.5-2-1 1.3-1.2 2.6-2.3c6.2-5.8 12.5-11.6 18.4-17.7z" fill="#000a38"/><path d="M854 509q1 .5 2 1 0 1 0 2-1 0-2 0-.2 1-.3 2.1c-.8 3.3-2.1 5.9-3.7 8.9-1.3-3.9-.3-5 1.4-8.7q.7-1.5 1.5-3 .5-1.1 1.1-2.3z" fill="#0d1b46"/><path d="M758 647c-1.5 3.8-3.8 5.6-7 8q-1-.5-2-1 1.7-1.8 3.4-3.5c.9-1 .9-1 1.9-2 1.7-1.5 1.7-1.5 3.7-1.5z" fill="#1d3058"/><path d="M395 791q.5 2 1 4c-2.4 2.8-2.4 2.8-5 5q-1-.5-2-1l6-8z" fill="#051846"/><path d="M151 742q1.5.5 3 1l-1 10q-.5 0-1 0l-1-11z" fill="#103461"/><path d="M350 844q1.5.5 3 1l-7 5q-1-.5-2-1l6-5z" fill="#021541"/><path d="m630 745q-2.5 1-5 2 0 1 0 2-2.5 0-5 0c2.6-3 6.1-6 10-4z" fill="#06143f"/><path d="M825 564q.5 2 1 4c-1.9 2.3-1.9 2.3-4 4q-1-.5-2-1l5-7z" fill="#051a47"/><path d="M134 559q1 0 2 0 0 2.5 0 5-1 0-2 0 .5 1.5 1 3-1.5 0-3 0l2-8z" fill="#0f234d"/><path d="M525 378q.5 1 1 2 1 .5 2 1l-5 4c.9-5.9.9-5.9 2-7z" fill="#07214e"/></svg>