<svg xmlns="http://www.w3.org/2000/svg" width="1024" height="1024" xmlns:v="https://vecta.io/nano"><path d="M545.3 235.7c10.3 8.8 16.6 20.9 23.2 32.6l8.3 14.3q7.4 12.7 14.7 25.4 10.7 18.5 21.5 37 10.8 18.5 21.6 37.1 6.9 12 13.9 23.9l15.8 27.2q9 15.4 18 30.9 2.5 4.3 5.1 8.7 9 15.4 18 30.8 4.3 7.4 8.6 14.7 1.4 2.4 2.9 4.9 10.7 18.2 21.1 36.6 6.9 12.1 14 24.2 7.6 13 15 26 10 17.6 20.3 35.1 12.6 21.5 25.1 43.2 5.5 9.5 11 19 2.6 4.5 5.2 8.9 3.4 5.8 6.8 11.5c5.4 9.2 10.4 17.7 12.6 28.3q.4 1.7.8 3.5c1.4 19.7-2.1 37.9-14.8 53.5q-1 1.3-2.1 2.6c-12.7 14.9-29.6 22.5-49 24.2-4.3.3-8.5.3-12.9.3q-1.4 0-2.8 0-4.7 0-9.4 0-3.4 0-6.9 0-9.3 0-18.7 0-9.1 0-18.2.1-20.9 0-41.7 0-16.1 0-32.3 0-4.6 0-9.2 0-1.2 0-2.4 0-32.4 0-64.9 0-1.2 0-2.5 0-6.2 0-12.4 0-1.2 0-2.4 0-2.5 0-5 0-38.7 0-77.5 0-43.5 0-87.1 0-4.6 0-9.2 0-1.2 0-2.4 0-18.3 0-36.7 0-18.5.1-37 0-10 0-20 .1-9.2 0-18.3-.1-3.3 0-6.6.1c-24.5 0-46.4-2.2-65-19.8-14.7-15.4-20.9-33.2-20.6-54.3.6-15.6 7.1-28.8 14.9-42q3.1-5.3 6.2-10.7 1.9-3.1 3.7-6.2 5.7-9.9 11.4-19.8l14.5-25 14.8-25.9 12.9-21.9c2.5-4.2 4.8-8.4 7.1-12.6 5.1-9.3 10.6-18.5 16-27.7q9.4-16 18.6-32.1.5-.9 1-1.8 5.1-8.9 10.1-17.8 2.5-4.4 5-8.8.5-.8 1-1.7l17.1-29.3c5.1-8.5 10-17.1 14.8-25.8l13.1-22.7q6.3-10.5 12.4-21.1c.9-1.7.9-1.7 1.9-3.3q3.8-6.6 7.6-13.3l22.5-38.6c4.2-7 8.3-14.1 12.3-21.3l9.6-16.5q6.4-10.7 12.6-21.5.7-1.3 1.4-2.6 1.6-2.7 3.1-5.3 8.2-14.5 16.6-28.9.7-1.3 1.5-2.5c10.7-18.5 24.2-30.6 45.3-36.2 19.9-4.3 39.2.3 55.5 12.4z" fill="#f4b33c"/><path d="M545.3 235.7c10.3 8.8 16.6 20.9 23.2 32.6l8.3 14.3q7.4 12.7 14.7 25.4 10.7 18.5 21.5 37 10.8 18.5 21.6 37.1 6.9 12 13.9 23.9l15.8 27.2q9 15.4 18 30.9 2.5 4.3 5.1 8.7 9 15.4 18 30.8 4.3 7.4 8.6 14.7 1.4 2.4 2.9 4.9 10.7 18.2 21.1 36.6 6.9 12.1 14 24.2 7.6 13 15 26 10 17.6 20.3 35.1 12.6 21.5 25.1 43.2 5.5 9.5 11 19 2.6 4.5 5.2 8.9 3.4 5.8 6.8 11.5c5.4 9.2 10.4 17.7 12.6 28.3q.4 1.7.8 3.5c1.4 19.7-2.1 37.9-14.8 53.5q-1 1.3-2.1 2.6c-12.7 14.9-29.6 22.5-49 24.2-4.3.3-8.5.3-12.9.3q-1.4 0-2.8 0-4.7 0-9.4 0-3.4 0-6.9 0-9.3 0-18.7 0-9.1 0-18.2.1-20.9 0-41.7 0-16.1 0-32.3 0-4.6 0-9.2 0-1.2 0-2.4 0-32.4 0-64.9 0-1.2 0-2.5 0-6.2 0-12.4 0-1.2 0-2.4 0-2.5 0-5 0-38.7 0-77.5 0-43.5 0-87.1 0-4.6 0-9.2 0-1.2 0-2.4 0-18.3 0-36.7 0-18.5.1-37 0-10 0-20 .1-9.2 0-18.3-.1-3.3 0-6.6.1c-24.5 0-46.4-2.2-65-19.8-14.7-15.4-20.9-33.2-20.6-54.3.6-15.6 7.1-28.8 14.9-42q3.1-5.3 6.2-10.7 1.9-3.1 3.7-6.2 5.7-9.9 11.4-19.8l14.5-25 14.8-25.9 12.9-21.9c2.5-4.2 4.8-8.4 7.1-12.6 5.1-9.3 10.6-18.5 16-27.7q9.4-16 18.6-32.1.5-.9 1-1.8 5.1-8.9 10.1-17.8 2.5-4.4 5-8.8.5-.8 1-1.7l17.1-29.3c5.1-8.5 10-17.1 14.8-25.8l13.1-22.7q6.3-10.5 12.4-21.1c.9-1.7.9-1.7 1.9-3.3q3.8-6.6 7.6-13.3l22.5-38.6c4.2-7 8.3-14.1 12.3-21.3l9.6-16.5q6.4-10.7 12.6-21.5.7-1.3 1.4-2.6 1.6-2.7 3.1-5.3 8.2-14.5 16.6-28.9.7-1.3 1.5-2.5c10.7-18.5 24.2-30.6 45.3-36.2 19.9-4.3 39.2.3 55.5 12.4zm-70 25.6c-4.9 6.3-8.6 13.6-12.5 20.6l-7.3 12.7q-2.9 4.9-5.7 9.9L430.3 338q-10.9 18.6-21.7 37.3-6.3 10.9-12.6 21.7-10.1 17.3-20.1 34.7-5.6 9.8-11.3 19.5-4.7 8.2-9.4 16.4-9.9 17.1-19.9 34.2l-14.2 24.8q-7.5 13.1-15.2 26.1c-5.9 9.8-11.5 19.6-17 29.6q-5.4 9.6-11 19.1l-11.1 19q-.9 1.7-1.9 3.4-2 3.4-3.9 6.8-4.8 8.2-9.5 16.4-1.9 3.2-3.7 6.5l-24.4 42.3q-1.9 3.2-3.8 6.4-5.7 10-11.5 20.1-2.9 4.9-5.7 9.8-3.1 5.4-6.2 10.7c-7.2 12.1-11.4 23.3-8.5 37.5 3.1 11.5 9.3 21 19.7 27.1 8.4 4.4 16 5.9 25.4 5.9h2.9q4.8 0 9.6 0 3.5 0 7 0 8.5 0 17.1 0 10.3 0 20.6 0 21.3 0 42.6 0 16.5 0 32.9 0 4.8 0 9.5.1h2.4q33.1 0 66.2 0 1.3 0 2.6 0 6.3 0 12.6 0 1.3 0 2.6 0 2.5 0 5.1 0 39.5 0 79.1 0 44.4.1 88.9.1 4.7 0 9.4 0 1.2 0 2.4 0 18.8 0 37.5 0 18.9 0 37.8 0 10.2 0 20.4 0 9.4 0 18.8 0 3.3 0 6.7 0c15.8.1 29.1-.6 41.5-11.5 6.1-6.2 9.6-12.6 12-21q.3-1 .6-2c3.4-16.5-4.4-29.9-12.7-43.5-3.8-6.2-7.4-12.6-11.1-18.9q-7.3-12.8-14.8-25.6-8.2-14.1-16.4-28.3-6.3-10.9-12.6-21.7-7.3-12.5-14.5-25-10.7-18.5-21.5-37-11.8-20.1-23.4-40.3L675 505q-11.8-20.1-23.4-40.3-8.9-15.4-17.9-30.7-4.3-7.5-8.7-15-1.7-3-3.5-6-10.5-18-21-36-.9-1.5-1.7-3-1.8-3-3.6-6-4.3-7.5-8.7-14.9-9-15.4-17.9-30.9-8.8-15.3-17.9-30.5l-8.9-15.4q-.7-1.3-1.5-2.6-1.3-2.3-2.6-4.7c-4.1-7.4-9.2-12.8-16.9-16.4q-1.6-.7-3.1-1.4c-14.5-6.3-32.1-1.7-42.4 10.1z" fill="#234c51"/><path d="M529.4 378.3q2.3 1.8 4.6 3.7.9.7 1.9 1.5c6.8 6 11.7 15.7 13.1 24.5.4 7.6-.2 15.1-.8 22.6q-.2 1.7-.3 3.4-.5 5.5-.9 11-.3 3.9-.6 7.9-.8 9.3-1.6 18.6-1 12.3-2 24.5-.9 11.2-1.8 22.3-.3 4.1-.7 8.2 0 1-.1 2-1.2 14.9-2.3 29.8-.5 6.4-1 12.8-.4 5.1-.8 10.2-.4 5.6-.8 11.2l-.2 3.2c-1 12.8-4.2 23.4-13.3 32.5-7.8 5-15.6 7.3-24.8 5.8-8.5-2.8-14.6-7.1-19-15-3-6.4-4.3-12.9-5-19.9q-.1-1.1-.3-2.2l-2.1-23.7q-.2-2.4-.4-4.8-.5-6.4-1-12.8-.3-4.1-.7-8.1-1.1-14.2-2.2-28.3-1-13.1-2.1-26.2-.9-11.3-1.8-22.6-.5-6.7-1.1-13.5-.5-6.3-1-12.6-.1-2.3-.3-4.6c-.7-8.2-1.1-16.2-1.1-24.4q-.1-1.1-.1-2.3c.1-11.5 4.6-21.3 12.5-29.8 15.9-14.8 39.8-17.1 58.1-4.9z" fill="#1b4950"/><path d="M795.1 232c8.8 9 12.1 19.8 12 32.2-.1 2.9-.3 5.7-.6 8.5-.9 9.9-1.5 19.4 1.8 29 3.2 10.1 1.3 21-3 30.6-5.2 9.3-12.8 15.9-22.8 19.5-12.2 3.3-24.2 1.8-35.5-3.8-8.1-4.9-13-10.6-15.9-19.6-1.9-5.5-3.9-8.5-9.1-11.4-6.5-2.8-13.3-5.2-20.1-7.3-12.3-3.8-22-9-28.8-20.5-4.3-8.5-5.6-17.8-3.4-27.1 3.5-10.6 9-18 18.3-24.1l1.8-1.2c7.5-4.4 17.2-5 25.7-6.3 7.4-1.3 13.4-3.7 20.1-7.1 20.5-10.1 42.6-7.3 59.5 8.6z" fill="#1d4a4f"/><path d="M531 673c9 7.5 15.8 17.1 17 29 1.1 13.1-1.7 24.7-10 35q-.7.9-1.4 1.9c-5.5 6.1-16.2 12.5-24.6 13.3-15 .5-27-.7-38.8-11-9.5-9.5-13.5-20.3-13.8-33.7.1-12.1 4.2-21.7 12.6-30.5 16.9-15.3 40.2-18.1 59-4z" fill="#1b4850"/><path d="M883 380c3.7 3.8 5.1 7.1 5.4 12.3q0 1.1.1 2.3c-.8 3.6-2.8 6-5.5 8.4-2.8 1.4-5.6 2.1-8.6 2.8q-1.3.3-2.7.7-3.1.8-6.2 1.6-5.7 1.5-11.5 3-12.6 3.3-25.2 6.6-4.7 1.2-9.4 2.4-11.6 3.1-23.3 6.1-7.3 1.9-14.7 3.8-4.9 1.3-9.9 2.6-2.4.6-4.7 1.2-3.3.8-6.6 1.7c-1.8.5-1.8.5-3.7.9-3.8.7-6.7.5-10.5-.4-3.6-2.9-6-5.5-7-10-.2-4.4.2-7 3-10.5 3.8-3.1 6.9-4 11.6-5.2l2.8-.8q3-.8 6.1-1.6 5.7-1.5 11.4-3l34.3-9.1q4.8-1.2 9.6-2.5 2.4-.6 4.8-1.2 14.2-3.7 28.3-7.6 3.9-1.1 7.8-2.2 3.4-.9 6.8-1.9 2-.5 4-1.1 1.7-.4 3.4-.9c3.9-.5 6.5.2 10.1 1.6z" fill="#284f52"/><path d="M802.2 139.5c7.5 6.2 10.5 12.8 11.6 22.4.7 13-4.8 24.7-13 34.6-6.6 6.8-14 10.8-23.6 11.1-7.5-.4-12.4-2.4-17.5-8-6.3-7.9-7.4-15.7-6.7-25.6 2.2-13.7 8.2-24.9 19.1-33.7 9.3-6.2 20.6-7.5 30.1-.8z" fill="#234c50"/><path d="m867.6 185.2c5.7 6.8 7.9 13.6 7.2 22.5-1.9 12.7-8.5 22.2-18.3 30.4-8.2 6.1-16.2 9.1-26.5 7.9-5.7-1.3-9.9-3.8-14-8-4.8-7.9-6.2-15.4-4.5-24.6 3.2-12.2 10.9-22.6 21.5-29.4 11.3-6.1 24.3-7.4 34.6 1.2z" fill="#1d494e"/><path d="M726.6 145.6c8 8.1 11.3 18.7 11.8 30-.6 12.5-5.3 23.2-14.4 31.7-5.2 4.3-11.4 5.9-18 5.7-6.1-1-12.1-2.9-16-8-7.4-12.1-9.9-24-6.9-38 2.9-10.4 8.7-18.3 17.9-24 8.8-4.2 17.6-2.2 25.6 2.6z" fill="#214b50"/><path d="M881.3 258.6c5.1 4.1 8 9.4 9.1 15.9.5 9.5-3.3 18.2-9.4 25.4-8.1 8.4-18.6 13.2-30.3 13.5-8-.4-15.5-2.3-21.4-8-5.2-5.8-6.8-10.7-6.6-18.5 1.1-10.1 7.1-18.5 14.7-25 5.2-3.8 10.3-6.3 16.6-7.9q1.3-.3 2.6-.7c8.9-1.1 17.1.2 24.7 5.3z" fill="#204b4f"/><path d="M777.2 469.9q1.1.3 2.3.7c9.6 3 19 6.3 28.5 9.7q4.7 1.7 9.4 3.4c35.8 12.7 35.8 12.7 40 18.1 1.3 4.5 1 8.1-.7 12.4-2.3 3.8-3.9 6.3-8.3 7.6-4.4.3-7.6-.9-11.7-2.4q-1.2-.4-2.4-.9-4-1.4-7.9-2.8-2.7-1-5.4-2-5.4-1.9-10.9-3.9l-24.7-8.5q-4.7-1.6-9.4-3.3l-3.5-1.2q-1.8-.7-3.6-1.3-1.5-.6-3.1-1.2c-3-1.4-4.7-2.8-6.8-5.3-1.4-4.1-1.9-7.8-.2-11.9 2.2-4.2 4.5-7 8.9-8.8 3.4-.4 6.3.6 9.5 1.6z" fill="#2d5254"/><path d="M605.3 161.6c6 5.3 6.5 13 7.6 20.6q.5 3.4 1 6.8.3 1.7.6 3.5 1 6.8 2.1 13.7 1.1 6.7 2.1 13.5.6 3.4 1.1 6.9.8 5 1.6 10.1.2 1.5.5 3.1c2.2 14.2 2.2 14.2-.6 19.6-3.3 3.7-4.8 4.4-9.7 5-5.2-.6-8-2.8-11.7-6.4-2.6-4.1-3.1-7.9-3.9-12.7q-.2-1.4-.5-2.9-.8-4.7-1.5-9.4-.5-3.2-1-6.4-1.4-8.2-2.7-16.4-.8-5.1-1.6-10.2-.5-3.3-1-6.5-.2-1.5-.5-3c-3.1-20.5-3.1-20.5.8-26.5 5.3-4.6 10.9-5.5 17.3-2.4z" fill="#274e51"/></svg>