<svg xmlns="http://www.w3.org/2000/svg" width="1024" height="1220" xmlns:v="https://vecta.io/nano"><path fill-rule="evenodd" d="M208 305c2 3.4 2.6 6.7 3.3 10.5 2.8 13.4 8 25.3 19.6 33.2 8.2 4.9 16.6 6.2 26.1 7.3.2 12.1-.4 24-1.3 36q0 1.4-.1 2.7c-1.4 19.1-2.9 38.4-6.8 57.1-1.8 9.9 1 17.1 5.1 26.1.8 1.6.8 1.6 1.5 3.3 22.2 48.5 56.5 83 101.5 110.7q1.3.8 2.6 1.6 1.2.7 2.4 1.4 1 .7 2.1 1.3c2.5 1 3.6.8 6-.2 13.5-11.2 18.9-29.9 24-46 .4-1.1.4-1.1.7-2.2 5.2-15.8 7-32.4 8.9-48.8.8-7 1.8-13.4 4.4-20 2.6-.4 2.6-.4 6 0 4.7 4.1 7.8 9.6 10.7 15l1.3 2.3c5.4 10 9.8 20.3 14 30.7q.5 1.1.9 2.3c9.1 22.7 11.5 49.4 12.6 73.7.4 6 1.6 11.4 3.5 17q-.8.4-1.7.8-1.1.5-2.2 1.1-1.1.5-2.3 1c-2 1-2 1-2.8 3.1q1.2-1 2.4-1.9c4.5-3.6 8-3.8 13.6-3.1 4.9 1.6 8.6 4.1 12 8-3.4-5.9-8.8-7.1-15-9q1.2-1.1 2.4-2.3c8.4-8.6 6-22.7 6-34-.5-36.8-11.4-72.7-30.4-104-1-1.7-1-1.7-2-3.7 41.2 9.1 82.2 49.9 104.4 84.2q2 3.2 3.9 6.4.6.9 1.2 1.9c2.7 4.7 2.7 8.3 1.5 13.5q-.2 1.1-.5 2.3-.7 3.6-1.6 7.2c-.2 1.2-.2 1.2-.5 2.5q-.7 3-1.4 6 1.8.2 3.7.3c6.1.7 11.9 2.1 17.9 3.4 1.7.4 1.7.4 3.4.9 24.3 5.7 24.3 5.7 27 8.4q.1 2.5 0 5c-4.2 2.1-9.2 1.2-13.6.1q-1.9-.6-3.8-1.3c-11.6-3.7-23.6-5.6-35.6-7.8l1 26 6.8-1.3c37.6-7.1 37.6-7.1 44.2-2.7.2 2.6.2 2.6 0 5-1.7 1.7-4.2 1.5-6.6 1.9q-1.8.2-3.6.5-1.9.2-3.8.5c-9.7 1.3-19.3 2.8-29 4.6-3 .5-3 .5-6 .5 8.7 26 19 47 38 67q.7.8 1.5 1.7c4.4 4.6 9 7.7 14.6 10.8q1.2.7 2.5 1.4 3.7 2.1 7.4 4.1.9.5 1.9 1c41.3 23.4 90.2 22.5 135.1 12q1.3-.3 2.5-.6c23.7-5.6 45.8-15.6 61.8-34.5 2.6-2.9 5.6-5.4 8.7-7.9 5.1 10.2.5 30.5-2.9 40.8-10.6 21.5-37.9 32.4-59 39.7-19 6.2-39.2 9.5-59.1 10.5-1.3.1-1.3.1-2.5.1-30 1.4-71.4-1.9-95.5-22.1-1.9-1.9-3.4-3.8-5-6-12.6 18.8-13.7 48.1-16 70q-.1 1-.3 2.1c-.7 7-.9 14-.9 21q0 1.9 0 3.8 0 6.1 0 12.2v2.1l.3 33.6-.7-38.5q0-3.1-.1-6.2 0-2.9-.1-5.8v-3.8q0-1.7 0-3.3 0-2.6-.2-5.2c-1.2-1.2-1.2-1.2-7.6-5.6l-2.6-1.8q-1.4-1-2.7-1.9-1.2-.8-2.5-1.7c-3.1-2.1-6-3.7-9.6-5-1 1-1 1-1.3 2.9q-.2 1.3-.4 2.6-.1 1.4-.3 2.8-.2 1.6-.4 3.2-2.1 17.6-4.1 35.3-.2 1.6-.4 3.3-3.1 27.6-6 55.3-.1 1.3-.3 2.6-.3 2.6-.5 5.3a417.96 417.96 0 0 1-1.8 15.2c-3.1 22.1-4.1 43.7-3.9 65.9q0 7.1 0 14.1 0 13.3.1 26.6.1 15.2.1 30.4.1 31.7.2 63.5H66c0-10.9 0-21.7.7-32.6q0-1 .1-2c3.7-59.1 13.3-117.2 25.5-175.1q1.4-6.6 2.7-13.3-1.1-.4-2.2-.8c-24.1-10.2-44.7-34.4-55-58.1-8.8-22.1-9.3-45.7-9.2-69.1q0-2 0-4c.1-20.4.8-40.5 3.1-60.7q.6-5.1 1.1-10.3c6.7-65.8 18.2-143.4 65.7-193.3q2.6-2.8 5-5.8c2.3-2.7 4.6-4.8 7.5-6.9l-.8-3.6q-.5-2.5-1.1-5-.2-1.1-.5-2.3c-3.1-14.2-3.9-28-3.9-42.5q.1-4.4 0-8.8c0-49.1 17.5-96.2 51.5-132.1 14.4-13.9 32.5-21.4 51.8-25.7zm371.8 618.3q.1 1.1.1 2.2.3 4.9.6 9.8l2.1 42.7a18.48 18.48 0 0 1 .1 2.3c1.2 26.9 1.5 53.8 1.5 80.6 0-26.2-.3-52.4-1.5-78.6q0-1.2-.1-2.3-.9-21.4-2.1-42.7-.2-3.8-.4-7.5-.1-2.3-.2-4.5-.1-1.8-.2-3.4.1.7.1 1.4zM584 1106q-1.2.4-2.5.8-1.6.5-3.2 1-1.6.5-3.2 1.1c-9.9 3.6-16.6 10.5-21.2 19.9-3 7.5-3.2 12.2-3 19.1 0-6 .6-11.2 3-17.1 4.6-9.4 11.3-16.3 21.2-19.9q1.6-.6 3.2-1.1l3.2-1q1.3-.4 2.5-.8l.2-47.1-.2 45.1zm-33 51q0 0 0 0-.1-2.2-.1-4.4 0-1.4 0-2.7 0-1 0-2l.1 9.1zm-17 2h17q0-1 0-2-8.5 0-17 0 0 1 0 2zm45.1-252.2q.2 7.5.6 15.1l-.6-15.1z" fill="#00767e"/><path d="M975.4 707.8c3 2.6 5.2 4.6 6.1 8.5.5 12.4-7 22.1-13.7 31.9-6.4 9.5-13 20.2-13.8 31.8q-.1 1.4-.2 2.9c-.9 19.9 8.2 38.8 16.1 56.7 24.9 57.2 30.5 110.9 7.2 170.3-8.8 21.6-22.2 41.2-37.1 59.1q-.7.9-1.4 1.7-3.5 4.2-7 8.3-.6.7-1.3 1.5-1.4 1.6-2.8 3.1c-4.3 4.6-6.5 9.4-8.8 15.3-8.8 21.3-20.6 43.2-39.7 57.1h2.6q12 .1 24 .3 6.2.1 12.4.1 6 .1 11.9.2 2.3 0 4.6 0 3.2 0 6.4.1 1.8 0 3.6 0c7.6.6 12.4 2.9 17.5 8.3 4 5.4 3.8 11.6 3 18-1.7 5.9-4.9 9.6-10 13-4.7 1.6-8.7 2.3-13.6 2.3q-2 0-4 0-2.1 0-4.3 0-2.3 0-4.6 0-6.4 0-12.8 0-6.9 0-13.8 0-12.2 0-24.3 0-18.1 0-36.2 0-36 .1-72 .1-1.8 0-3.8 0h-3.7q-20.7 0-41.4 0-62.5 0-125 0-2.1 0-4.1 0-9.1 0-18.2 0-4.1 0-8.1 0-2.1 0-4.1 0-64.4 0-128.8.1-71.1 0-142.2.1-7.6 0-15.2 0-1.9 0-3.8 0-30.1 0-60.1 0-30.2 0-60.5 0-17.9 0-35.9 0-12 .1-24 0-6.8 0-13.6 0-6.2.1-12.5 0-2.2 0-4.4 0c-8.3.1-15.5 0-22-5.6-4.9-6.2-6.9-12.1-6-20 1.9-6.2 5.7-10.5 11-14 4.4-2.3 8.6-2.3 13.5-2.2q1.2 0 2.6-.1 4.3 0 8.6.1 3.1 0 6.2 0 8.6 0 17.2 0 9.3 0 18.5 0 16 0 32.1 0 16.8 0 33.6 0 1.1 0 2.1 0 5.3 0 10.7 0 37.6 0 75.2 0 36.5.1 73.1.1h2.2q11.4 0 22.7 0 23 0 46 0h2.2q70.7 0 141.5.1-.5-1.5-1-3c-.9-12.5 0-24.2 8.3-34.2 7.6-8.1 14.6-12.3 25.7-13.8-.2-47.2-1-94.3-3-141.5q-.1-1.6-.1-3.2-.5-10.7-1-21.4 0-1.3-.1-2.7l-1.3-25.6c-.5-7.2-.7-14.5-.7-21.8q0-1.9 0-3.9 0-4.1 0-8.2 0-4-.1-8.1c-.3-35.7 1.9-75.8 17.3-108.6q1 1 2 2.1c22.2 22 61.6 26.2 91.3 26.2 41.5-.4 88.6-9.3 119.7-38.8 4.2-4.4 7.2-9.2 10-14.5 6.8 2.3 11 10.7 14.2 16.8s7 9.6 12.4 13.6c4.7 3.6 7.5 6.9 9.4 12.6q.1 2.9.1 5.8c.3 4.4.3 4.4 2.4 8.1q1.9 1.5 3.8 2.8c2.7 2.1 3.6 4.1 4.7 7.3.6 6-.2 12-1 18q1 .5 2 1 0 1 0 2 1 0 2 0c4.2 5.5 3.9 11.4 3 18-1.1 2.7-2.4 5.1-4 7.6-1.5 3.6-1 5.6 0 9.4 1.7 3 3.8 5.6 5.9 8.3 6.6 8.9 12.5 18.1 18.1 27.7q.6 1.1 1.3 2.3c15 25.8 33.7 65.1 33.7 95.7q2.5 0 5 0 1-3.4 2-6.7 1.1-3.6 2.2-7.1.7-2.1 1.3-4.2.3-.9.6-1.9c4.3-14.2 5.5-28.7 5.3-43.5v-2.4c0-12.5-.9-24.2-4.4-36.2q-.5-1.8-1-3.7c-2.8-9.8-6.1-19.5-9.6-29.1-5.2-14.5-10.2-29-13.4-44.2q-.3-1.2-.5-2.5c-3.7-18-4.3-35.9 1.5-53.5q.5-1.5 1-3.1c7.3-19.4 23.1-38.1 41.6-47.5 6.1-2.4 11.9-2.6 17.8.4z" fill="#e37d00"/><path d="M528.1 723.8q1.5 0 3-.1l2.7.1 2.3-.1c1.9.3 1.9.3 3.9 2.3 1.2 12.2-.7 24.7-2 36.8q-.7 6.5-1.4 13l-.2 2.1q-.1 1-.2 2.1-.3 3.2-.7 6.5l-5.8 57.4q-1 9.8-2 19.5-3 29.6-5.9 59.2-1.7 17.3-3.5 34.5-.4 4.3-.9 8.6-.6 6.2-1.3 12.5-.2 2.2-.4 4.3-.3 2.9-.6 5.7-.2 1.5-.4 3.1c-.9 3.4-2.2 5.2-4.7 7.7-2.9.9-5.6 1.2-8.6 1.4q-1.4.1-2.8.1-1.4.1-3 .2-1.5.1-3 .2-4.9.3-9.8.6-4.8.3-9.7.6-3 .2-6 .4c-4.1.2-8.2.5-12.3 1-6.1.7-12.2 1-18.4 1.3q-19.8 1-39.6 2.5-2.2.2-4.5.3-9.1.7-18.2 1.4c-29.6 2.2-29.6 2.2-43.1 2.4q-1.3 0-2.7.1c-5.8 0-5.8 0-8.3-2.3-1.5-3.3-1.4-6.4-1.3-9.9.1-1.1.1-1.1.1-2.1.1-5.1.5-10.1 1.2-15.2q-.9.2-1.7.4c-7.2 1.7-14 1.8-21.3 1.6l-.4 3.9q-.4 4.9-1.1 9.7c-1.2 8.5-1.8 16.9-1.9 25.4q0 1.4-.1 2.9c0 6.4 1 11.6 4.5 17.1 7.1 5.8 13.5 5.2 22.2 5.2q1 0 2 0c23.6-.1 47.1-2.2 70.6-4.1q15.5-1.2 31-2.1c12.4-.7 24.8-1.7 37.1-2.9 9.1-.9 18.1-1.5 27.2-2.1 18-1 18-1 34.9-7q1.5-.5 3-1c6.3-10.1 6-24.4 7-36q.5 0 1 0c.9 8.9 1.1 17.8 1.1 26.8q0 2.1 0 4.3 0 5.8 0 11.6 0 6.1 0 12.3 0 10.2 0 20.4 0 11.9 0 23.7 0 10.2 0 20.4 0 6 0 12.1 0 5.7 0 11.4 0 2.1 0 4.2 0 2.8 0 5.7 0 1.6 0 3.2c-.1 2.9-.1 2.9-1.1 7.9H66c0-10.9 0-21.7.7-32.6q0-1 .1-2C70.6 1062.2 80.5 1003 93 944c3.8 0 6.2 1.6 9.4 3.3 34.1 17.6 82 37 120.7 37.1q1.3 0 2.5 0c5.6.1 9.6-1 14.6-3.5 1.8-.9 1.8-.9 3.8-.9q0-1 0-2-.9-.2-1.8-.5c-6.6-2-11.2-4.1-14.8-10.3-9.2-17.8-7.3-33.6-1.4-52.2 4.7-13.4 11.2-24.9 21.4-34.7q1.1-1.1 2.2-2.2c3.3-3.2 6.7-6.4 10.2-9.3 2.8-2.4 5-4.8 7.1-7.8 6.4-8.2 13.9-13.4 24.4-14.7q2.2-.2 4.3-.4c5.1-.4 9.5-1.2 14.4-2.9 2.8-.2 2.8-.2 5 0q.5.5 1 1c-.3 8.1-3.3 13.3-9 19l31 1 .3-8.4c.4-7.6 1-15.1 2-22.7l3.5-32.3q.9-8.1 1.8-16.2.7-6.9 1.4-13.8.7-6.9 1.5-13.7.2-2.6.5-5.2.4-3.5.8-7.1.1-1.1.2-2.1c.5-4.6 1.7-7.3 5-10.5 3.2-1.1 5.7-1.2 9.1-1.4q1.9-.1 3.9-.2 2.1-.1 4.3-.2 2.2-.1 4.5-.2 6.1-.2 12.2-.5 5.1-.2 10.3-.5 12.1-.5 24.3-1.1 12.4-.5 24.8-1.1 10.8-.5 21.5-1 6.4-.2 12.8-.5l45.4-1.5z" fill="#00767e"/><path d="M437 141c3.6 1.7 5.6 3.5 8.2 6.4q1.2 1.4 2.4 2.8 3.4 4 6.8 8.2c7.6 9.3 15.8 17.9 24.3 26.4q1 1.1 2.1 2.1c4.6 4.6 9.3 8.9 14.2 13.1q5 4.4 10 9 1.2 1.1 2.4 2.2c13 12.3 19.3 26.7 19.9 44.5.1 12.1-1.3 24.1-2.6 36.1q-.7 6.3-1.3 12.6c-2.7 27.6-6.5 55.8-17.4 81.6q-.5 1.2-1 2.4c-5.2 12-11.5 23-19 33.6q-.6.9-1.2 1.8c-12 16.8-27.5 31.9-44.8 43.2q-1.3.9-2.5 1.8c-8.7 5.7-19.4 9.3-29.5 11.2-2.4 8.5-3.7 16.7-4.4 25.5-3.1 31.1-10.4 67.9-32.6 91.2-2 1.3-2 1.3-4.3 1-2.9-.8-5-1.9-7.6-3.4q-1.4-.8-2.8-1.7-1.5-.9-3-1.8-1.5-1-3.1-2c-28-17.4-53.1-38.7-72.2-65.8q-.7-.9-1.3-1.8c-11.6-16-31.3-44-29.9-64.4q.5-2.9 1.2-5.8.7-4.1 1.4-8.2.2-1.2.4-2.5c4.4-27.8 5.4-56.2 7.2-84.3q-.9 0-1.8 0-1.2 0-2.5 0-1.2.1-2.4.1c-10.8-.3-20.7-6.1-28-13.7-10.4-12.7-14.4-29.2-13.3-45.4 1.6-9.9 7.4-17.6 15.1-23.7 8.2-5.7 16.1-6.5 25.9-5.3 7.7 2.3 14.2 7.3 18.3 14.2 1 1.9 1.8 3.9 2.7 5.8q1 0 2 0c1.8-2.2 3.5-4.4 5.1-6.8q.8-1 1.5-2 4.4-6.1 8.5-12.3c18.9-28.8 43.5-42.1 74-56.5L381 201q.9-.5 1.8-.9c25.7-13.6 41.9-33.1 54.2-59.1zm141 280c9.6 4 17.3 11.2 25 18q2.1 1.8 4.2 3.6l21.3 19.3q4.8 4.4 9.6 8.7c5.2 4.6 10.1 9.5 14.9 14.4q.8-.3 1.7-.6c13.5-4.3 26.4-6 40.5-5.8q1.2 0 2.4 0c16.4.1 30.8 2.6 46.1 8.5 4.7 1.3 8.1 1.2 12.4-1.3 2.3-1.6 4.5-3.4 6.8-5.1q2.5-1.9 5.1-3.9 1.2-.9 2.5-1.9c3.6-2.8 7.3-5.4 11.1-8q7.6-5.3 15.1-10.8C832.5 430 832.5 430 844 431c4.5 2.2 6.5 4.3 8.4 9 1 3.4 1 6.8 1 10.3v2.4q0 3.8 0 7.6 0 1.3 0 2.7c-.1 14.8-1.1 29.3-3.4 44q-.3 2.2-.7 4.4c-4.9 32.3-4.9 32.3-8.3 47.3-1.9 9.1.6 17.1 3.1 25.8 7.6 27.7 6.5 59.5-6.1 85.5q-.5 1.1-1.1 2.3c-6.9 14.2-15.1 25.2-26.4 36.2-2 2-3.7 3.9-5.4 6.1-20.9 25-64.8 31.7-95.1 34.8q-6 .4-12 .6-1.2 0-2.5.1c-38.3 1.1-81.8-10.1-110.6-36.9-18.8-18.7-31.1-40.8-38.9-66.2q0-1.5 0-3c15.9-3.4 31.8-6.1 48-8q0-2.5 0-5c-8.5-4.3-22-.1-31.1 1.5q-3.1.5-6.2 1.1-2.8.4-5.6.9c-3.1.5-3.1.5-7.1.5-1-3.1-1.1-5.1-1.1-8.3q0-1.6 0-3.1 0-1.6 0-3.3 0-1.6.1-3.3 0-4 0-8a128.43 128.43 0 0 1 22.1 3.4q1.3.3 2.7.6c4.6 1.1 9.1 2.2 13.5 3.7 3.6 1 6.6 1.6 10.3 1.5 1.3-.1 1.3-.1 2.6-.1q.9 0 1.8-.1l-1-5c-16.8-5.2-33.8-9.4-51-13 .4-7 1.3-13.2 3.7-19.8q.4-1.1.8-2.3c6-17.2 6-17.2 10.5-23.9 1.1-11.8-.5-24-1.3-35.7-5.2-78.3-5.2-78.3 5.5-94.1 4.2-4.3 9.4-4.4 14.8-3.2z" fill="#e37d00"/><path d="M230 453l-1.8 3.1c-14.5 25.8-18.1 55.9-18.5 85.1 0 2 0 2-.1 4q-.1 5.2-.1 10.4-.1 5.3-.2 10.6-.2 10.4-.3 20.8c-1.1.6-1.1.6-2.3 1.2q-1.4.7-2.9 1.5-1.5.8-3 1.6c-10.5 6.4-15.4 18-18.4 29.5-1.9 8.3-1.9 16.5-1.8 25v2.5c.1 17.6 1.8 34.7 7.7 51.4.7 2.3.7 2.3.7 5.3q.8-.2 1.6-.5c2.8-.6 5.3-.6 8.1-.6q1.5.1 3 .1h2.3q-.2-1.4-.4-2.9-.6-5.4-1.3-10.9-.2-2.3-.5-4.6c-7.4-61.1-7.4-61.1 3.2-75.6 4.9-5.3 10.7-9 18-9.4q2.1-.1 4.2 0h2.2c10.2.3 19.2 3.2 26.6 10.4 6.3 7.1 10.1 15.2 12.6 24.3q.3 1.1.6 2.3c5.5 21 7.3 43.7 6.8 65.4h13c5.6 27.8-14.4 65-29 87.4-2.1 2.7-4.2 4.7-7 6.6-5.3.4-8.7-2.6-12.6-5.9-12-10.6-21.6-22.8-30.4-36.1q-.8-1.1-1.6-2.3c-7.7-12-13.1-26.2-16.9-39.9-1.1-3.8-1.1-3.8-3.5-6.8-3.1-.2-3.1-.2-6 0-3.2 7.5-4.7 15.3-6.2 23.3q-.2 1.1-.4 2.3c-5.4 27.6-9.5 55.5-13.4 83.4-3.2-1.3-6.4-2.6-9.4-4.2-22.2-11.6-22.2-11.6-46.6-13.8-1.4 1.1-1.4 1.1-1.1 4.1q.1 1.4.1 2.9c3.4 1 6.8 1.9 10.2 2.8C156.1 816.5 208 846 237 877q-.7.6-1.5 1.3c-10.6 9.6-15 23.2-18.5 36.7q-.3 1.3-.7 2.6c-4.7 18.3-6.9 34.5-.3 52.4q0 1 0 2c-28.3-2.1-56.1-11.8-82.3-22.4-7.6-3-15.3-5.7-22.9-8.4-30.6-10.9-56.7-32.6-71.1-62-10.7-23-11.2-48.3-11.1-73.2q0-2 0-4c.1-20.4.8-40.5 3.1-60.7q.6-5.1 1.1-10.3c6.7-65.8 18.2-143.4 65.7-193.3 1.8-1.9 3.5-3.8 5.1-5.9 3.2-3.7 6.6-6.7 10.4-9.8q.8-.7 1.7-1.4c10-8.4 20.4-16.2 31.3-23.6q1.1-.7 2.2-1.5c11.6-8 23.6-15.4 35.8-22.5q1.1-.7 2.2-1.3c9.4-5.5 18.9-10.3 28.7-14.9q1.6-.7 3.2-1.5c1.5-.7 1.5-.7 3-1.3q1.3-.6 2.6-1.3c2.3-.7 2.3-.7 5.3.3z" fill="#00767e"/><path d="M528.1 723.8q1.5 0 3-.1l2.7.1 2.3-.1c1.9.3 1.9.3 3.9 2.3 1.2 12.2-.7 24.7-2 36.8q-.7 6.5-1.4 13l-.2 2.1q-.1 1-.2 2.1-.3 3.2-.7 6.5l-5.8 57.4q-1 9.8-2 19.5-3 29.6-5.9 59.2-1.7 17.3-3.5 34.5-.4 4.3-.9 8.6-.6 6.2-1.3 12.5-.2 2.2-.4 4.3-.3 2.9-.6 5.7-.2 1.5-.4 3.1c-.9 3.4-2.2 5.2-4.7 7.7-2.9.9-5.6 1.2-8.6 1.4q-1.4.1-2.8.1-1.4.1-3 .2-1.5.1-3 .2-4.9.3-9.8.6-4.8.3-9.7.6-3 .2-6 .4c-4.1.2-8.2.5-12.3 1-6.1.7-12.2 1-18.4 1.3q-19.8 1-39.6 2.5-2.2.2-4.5.3-9.1.7-18.2 1.4c-29.6 2.2-29.6 2.2-43.1 2.4q-1.3 0-2.7.1c-5.8 0-5.8 0-8.3-2.3-1.5-3.3-1.4-6.4-1.3-9.9.1-1.1.1-1.1.1-2.1.1-5.1.5-10.1 1.2-15.2q-1.9.5-3.8 1c-7.4 1.5-14.9 1.3-22.4 1.3q-3.7-.1-7.5 0c-17.7 0-42-.1-55.9-12.6-8.4-10.3-10.7-22.8-9.4-35.7 3.2-20.9 11.1-41 26.4-55.7q1.1-1.1 2.2-2.2c3.3-3.2 6.7-6.4 10.2-9.3 2.8-2.4 5-4.8 7.1-7.8 6.4-8.2 13.9-13.4 24.4-14.7q2.2-.2 4.3-.4c5.1-.4 9.5-1.2 14.4-2.9 2.8-.2 2.8-.2 5 0q.5.5 1 1c-.3 8.1-3.3 13.3-9 19l31 1 .3-8.4c.4-7.6 1-15.1 2-22.7l3.5-32.3q.9-8.1 1.8-16.2.7-6.9 1.4-13.8.7-6.9 1.5-13.7.2-2.6.5-5.2.4-3.5.8-7.1.1-1.1.2-2.1c.5-4.6 1.7-7.3 5-10.5 3.2-1.1 5.7-1.2 9.1-1.4q1.9-.1 3.9-.2 2.1-.1 4.3-.2 2.2-.1 4.5-.2 6.1-.2 12.2-.5 5.1-.2 10.3-.5 12.1-.5 24.3-1.1 12.4-.5 24.8-1.1 10.8-.5 21.5-1 6.4-.2 12.8-.5l45.4-1.5z" fill="#d1e8c9"/><path d="M874.8 137.4c25.5 20.7 44.4 50.7 48 83.9 1.2 16.2 1.5 32.9-2.8 48.7q-.5 2-1 4.1c-8.7 33.5-30.6 61.2-60.3 78.8-9.2 5.3-19.2 8.8-29.3 11.9q-1 .2-2 .6c-21.6 6.2-45.8 5.6-67.4-.4l-2-.6c-33.1-9.2-60.3-32.3-77.1-61.9-6.8-12.5-10.7-25.7-13.9-39.5q-.4-1.6-.8-3.3c-6-31.9 2.1-66.8 20.1-93.6 2.7-3.9 5.7-7.5 8.7-11.1q1-1.2 2-2.5c5.1-5.9 10.8-10.7 17-15.5q1.3-1 2.6-2c12.7-9.8 27.1-16.5 42.4-21l2.1-.6c38.4-11 82.7-.6 113.7 24z" fill="#56bbaf"/><path d="M54.4 1156.7q1.9 0 3.9 0 2.2 0 4.4 0 2.3 0 4.6 0 6.3 0 12.7 0 6.9 0 13.9 0 12.1 0 24.2 0 18.1 0 36.1 0 32.3 0 64.5 0 28.2 0 56.5 0 1.8 0 3.7 0 7.6 0 15.2 0 53 0 106 0h2q16.2 0 32.4 0 64.4.1 128.7 0 16.2 0 32.4 0 1 0 2.1 0 53.8 0 107.7 0 7.6 0 15.2 0 1.8 0 3.7 0 28.2 0 56.4 0 32.1 0 64.2 0 17.9 0 35.9 0 11.9 0 23.9 0 6.9 0 13.7 0 6.2 0 12.4 0 2.3 0 4.5 0 3 0 6.1 0 1.6 0 3.4 0c7.4.6 12.2 2.9 17.2 8.3 4 5.4 3.8 11.6 3 18-1.7 5.9-4.9 9.6-10 13-4.7 1.6-8.7 2.3-13.6 2.3q-2 0-4 0-2.1 0-4.3 0-2.3 0-4.6 0-6.4 0-12.8 0-6.9 0-13.8 0-12.2 0-24.3 0-18.1 0-36.2 0-36 .1-72 .1-1.8 0-3.8 0h-3.7q-20.7 0-41.4 0-62.5 0-125 0-2.1 0-4.1 0-9.1 0-18.2 0-4.1 0-8.1 0-2.1 0-4.1 0-64.4 0-128.8.1-71.1 0-142.2.1-7.6 0-15.2 0-1.9 0-3.8 0-30.1 0-60.1 0-30.2 0-60.5 0-17.9 0-35.9 0-12 .1-24 0-6.8 0-13.6 0-6.2.1-12.5 0-2.2 0-4.4 0c-8.3.1-15.5 0-22-5.6-4.9-6.2-6.9-12.1-6-20 1.9-6.2 5.7-10.5 11-14 3.9-1.9 7-2.3 11.4-2.3z" fill="#e5b653"/><path fill-rule="evenodd" d="M536.2 695.6h3.3c7.3-.1 13.8 1 19.4 6.1 5.8 6.2 6.4 12.6 6.3 20.8-.3 5.7-1 11.3-1.8 16.9q-.5 4.3-1 8.6-.2 1.2-.3 2.4l-4.2 35q-.6 5.3-1.2 10.6-.7 6.1-1.4 12.1-.2 1.8-.4 3.7l-.4 3.5q-.2 1.4-.4 3c-.1 2.8.1 5 .9 7.7 2.1 2 2.1 2 4.9 3.7q1.4 1 3 2 1.5 1 3.1 2 3.1 2.1 6.1 4.1l2.8 1.8c2.1 1.4 2.1 1.4 3.1 2.4q.2 2.6.2 5.2 0 1.6 0 3.3 0 1.9 0 3.8.1 2.9.1 5.8.1 3.1.1 6.2c.3 28.5.3 28.5 1.5 56.9q.1 2.3.2 4.6.2 3.7.4 7.5 1.2 21.3 2.1 42.7.1 1.1.1 2.3c1.2 27.1 1.5 54.2 1.5 81.3 0-26.4-.3-52.9-1.5-79.3q0-1.2-.1-2.3-.9-21.4-2.1-42.7-.2-3.8-.4-7.5-.1-2.3-.2-4.6c-1.2-28.4-1.2-28.4-1.5-56.9q0-3.1-.1-6.2 0-2.9-.1-5.8v-3.8q0-1.7 0-3.3 0-2.6-.2-5.2c-1.2-1.2-1.2-1.2-7.6-5.6-1.3-.9-1.3-.9-2.7-1.8q-1.3-1-2.6-1.9-1.2-.8-2.5-1.7c-3.1-2.1-6-3.7-9.6-5-1 1-1 1-1.3 2.9q-.2 1.3-.4 2.6-.1 1.4-.3 2.8-.2 1.6-.4 3.2-2.1 17.6-4.1 35.3-.2 1.6-.4 3.3-3.1 27.6-6 55.3-.1 1.3-.3 2.6-.3 2.6-.5 5.3a417.96 417.96 0 0 1-1.8 15.2c-2.2 16.1-3.4 32-3.8 48.1q-.2-.2-.7-.6-.2 1.4-.3 2.8c-2.4 18.5-2.4 18.5-9.7 24.2-10.2 6.1-23 6.2-34.6 7q-1.7.2-3.4.3-5.4.4-10.8.8-5.4.4-10.8.7-3.4.3-6.7.5a272.72 272.72 0 0 0-13 1.2c-3.5.5-6.9.7-10.4.9q-1.9.1-3.8.2l-2 .2q-18.6 1-37.2 2.5c-46.8 3.8-46.8 3.8-69.8 4.1q-1.9 0-3.8.1c-7 0-11.7-.6-17.7-4.5-5.4-5.4-6.3-11.2-6.3-18.6q0-1.4 0-2.9 0-1.5 0-3c.2-12.3 1.9-24.5 4.3-36.5l23-2q0 2.6-.1 5.4 0 3.4 0 6.9-.1 1.8-.1 3.5 0 1.7 0 3.4 0 1.6 0 3.2c0 2.8 0 2.8 2.2 5.6 2.9.3 5.6.4 8.5.4q1.4 0 2.9-.1c16.4-.3 32.9-1.8 49.2-3q12.4-1 24.8-1.9 1.3-.1 2.6-.2 18.9-1.4 37.9-2.1c4.9-.2 9.8-.6 14.7-1l21.5-1.6q2.1-.1 4.2-.3 3.9-.2 7.9-.4 1.8-.1 3.7-.2 1.6-.1 3.2-.2c3-.4 5.2-1 7.9-2.4 2.2-3.2 2.4-4.8 2.9-8.6q.2-1.8.4-3.7.2-2.1.4-4.1.3-2.3.6-4.6l6.1-59.6q2.8-28.1 5.6-56.2 1-9.7 2-19.5l5.7-56.5q.4-3.1.7-6.3.1-1 .2-2.1.1-.9.2-2 .8-7.2 1.6-14.4c1.7-16.7 1.7-16.7 1.6-33.4-1.9-1.9-5.2-1.1-7.8-1.2q-1.5 0-3 0-1.6 0-3.2.1c-14.9.1-29.9.8-44.8 1.4q-5.1.3-10.3.5-12.1.5-24.1 1.1-12.5.5-24.9 1.1-10.8.4-21.5.9-6.4.3-12.8.6-6 .2-12 .5-2.2.1-4.4.2-3 .1-6 .3-1.6.1-3.3.1c-2.9.4-4.6.8-6.9 2.4-2.3 3.5-2.6 6.3-3 10.4q-.1 1.1-.3 2.2-.4 3.8-.8 7.5-.2 2.6-.5 5.2-.8 7-1.5 13.9-.8 7-1.5 13.9-.9 8-1.8 16.1-1.7 16.3-3.7 32.7c-1.1 9.3-2 18.7-2.9 28.1h-33l5-5c1.6-2.5 1.6-2.5 2.8-5q.6-1.2 1.3-2.5c1-2.7 1.1-4.7.9-7.5q-1-.5-2-1 2.9-25.8 6.1-51.6 1-8.3 2-16.7.8-6.6 1.6-13.2.4-3.2.8-6.5 1.2-10 2.5-20 .1-1.1.3-2.2.3-2.7.7-5.4l.4-2.9c1.7-6.9 6.7-12.7 12.6-16.5 8-2.9 16-3.6 24.4-4.1q1.9-.1 3.8-.2c13.6-.9 27.2-1.5 40.8-2.1q8.4-.4 16.8-.7 1-.1 2.2-.1 16.9-.8 33.7-1.7 3.9-.3 7.8-.5l20.2-1.1 46.5-1.9zM584 1106q-1.2.4-2.5.8l-3.2 1c-1.6.5-1.6.5-3.2 1.1-9.9 3.6-16.6 10.5-21.2 19.9-2.5 6.3-3.1 11.7-3 18.3 0-5.7.8-10.7 3-16.3 4.6-9.4 11.3-16.3 21.2-19.9q1.6-.6 3.2-1.1l3.2-1q1.3-.4 2.5-.8l.2-46.4-.2 44.4zm-33.1 41.9v2.7q0 3.2.1 6.4 0 0 0 0-.1-2.2-.1-4.4 0-1.4 0-2.7-.1-1.4 0-2.8 0 .4 0 .8zM534 1157q0-2.8 0-5.8 0-26.8.1-53.6 0-13.8 0-27.6 0-12 0-24 0-6.4 0-12.7 0-6 0-12 0-2.2 0-4.4 0-3 0-6 0-1.7 0-3.4c.1-1.8.2-2.3-.4-2.9q-.2 8.9-.1 17.8 0 7.1 0 14.1 0 13.3.1 26.6.1 15.2.1 30.4.1 32.7.2 65.5h17q0-1 0-2h-17z" fill="#003641"/><path d="M370.3 74.6q1.4 0 2.7 0c13.4 0 26.1.8 39 4.4q2.7.7 5.4 1.4C440.6 86.5 462 96.3 481 111q1.5 1.1 3 2.3c28.6 22.8 46.8 55.3 51 91.7.3 5.2.4 10.4.4 15.6v2.1c-.1 14.8-2 28.5-7.4 42.3q-.5 0-1 0-.1-.9-.1-1.9-.4-4.2-.7-8.5-.1-1.4-.2-2.9c-1.5-17.5-9-29.4-21-41.7-1-1-1-1-2-2.1-4.7-4.8-9.9-9.2-15.1-13.7-12-10.5-23.9-21.9-33.8-34.5-2.7-3.5-5.6-6.9-8.5-10.3-.7-.9-.7-.9-1.5-1.8-2.3-2.6-4.2-4.7-7.1-6.6q-.4 1.2-.7 2.5c-4.2 11.7-10.9 22.4-19.3 31.5q-1.1 1.2-2.2 2.5c-17.1 18.3-41.1 29.1-63.6 39.3-31.2 14.2-50.7 32-69.4 60.6-2.7 4-5.7 7.8-8.8 11.6-3-1-3-1-4.1-2.8q-.5-1.2-1.1-2.3c-3.3-6.3-8.7-12-15.6-14.5-9.4-1.8-18-1.1-26.5 3.6-3.9 2.9-6.9 6.2-10 10q-.8 1-1.7 2-1 0-2 0c-10.4-47.6-6.2-93.8 20.5-135.6 17.2-26.3 38.7-47.3 67.5-60.4q1.7-.8 3.5-1.6c6.3-2.9 12.6-5.2 19.2-7.1q1-.3 2-.6c15.1-4.1 30.1-5.2 45.6-5.1z" fill="#003743"/><path d="M208 305c2 3.4 2.6 6.7 3.3 10.5 2.8 13.4 8 25.3 19.6 33.2 8.2 4.9 16.6 6.2 26.1 7.3.2 12.1-.4 24-1.3 36q0 1.4-.1 2.8c-1.7 22.5-3.8 45.1-8.6 67.2q-1 0-2 0-.1 1-.3 1.9c-.8 3.4-2 6.5-3.4 9.7-4.6 10.6-7.6 21-9.3 32.4q-.2 1.4-.4 2.8c-3.8 24.8-3.3 50.1-3.6 75.2q1.1 0 2.3 0 1.5 0 3 0 1.4-.1 2.9-.1c16 .4 28.9 11.2 39.5 21.8 13.2 19 16.8 42.4 16.6 64.9q0 4.2 0 8.4 0 2.7 0 5.5 0 1.2 0 2.5c-.1 5.6-.9 10.6-2.3 16h-14q-.1-1.5-.2-3.1C274.4 656 274.4 656 259 616q-.6-.9-1.3-1.9C252.4 607 244.4 604 236 602c-8.5-1-17.4-1.2-25 3.4-5.7 4.6-9.3 10.4-10.3 17.7-2 19.2-.5 38.1 1.5 57.2.9 7.9 1.3 15.8 1.8 23.7l-15 1c-6.7-19.5-9.4-38.4-9.5-59q0-1.2 0-2.4c-.2-17.3 2.6-35.3 14.9-48.6 3.7-3.4 9.3-8 14.6-8v-2.1q-.1-10.1-.2-20.1 0-5.2 0-10.4c-.2-17.3.4-34.2 3.2-51.4q.3-1.9.6-3.9.8-4.4 1.8-8.8.3-1.5.6-3c2.8-12.5 7.7-23.2 14-34.3-17.5 5.1-33.4 14.9-49 24q-1.3.8-2.7 1.5c-12.9 7.5-25.2 15.7-37.3 24.5q-.9.6-1.8 1.3c-8.6 6.3-16.9 13-25.2 19.7q-1-.5-2-1c-.8-2.5-1.4-5-2-7.6q-.2-1-.5-2.1c-3.2-13.9-3.8-27.5-3.8-41.7q.1-4.4 0-8.8c0-49.1 17.5-96.2 51.5-132.1 14.4-13.9 32.5-21.4 51.8-25.7z" fill="#003642"/><path d="M315 843l1 1c-.3 8-3.3 13.4-9 19q1.7 0 3.4 0 6.5 0 12.9.1 2.8 0 5.6 0c14.4 0 27.6 1.3 38.5 11.9 4.8 5.9 7.2 11.6 7 19.2-.4 1.8-.4 1.8-2.4 3.8q-2 0-4 0 0 1 0 2 .9.7 1.8 1.5c3.7 4.1 5.9 9.5 6.4 15.1-.3 3.7-2.5 6-5.2 8.4-3.8 2.3-5.5 3-10 3q0 1 0 2 .9.2 1.9.3c2.1.7 2.1.7 4.1 3.7.4 3.3.2 5.5-1.1 8.6-2.5 3.1-5.4 4.6-8.9 6.4q-1.9 1.1-3.7 2.3C350 953 350 953 347 953q.5.8 1 1.6c1.4 3.3 1.6 4.9 1 8.4-4.1 6.6-10.2 10.5-17 14q-1.3.7-2.7 1.4c-11.5 5.7-22.9 5.9-35.5 5.9q-3.8-.1-7.5 0c-17.7 0-42-.1-55.9-12.6-8.4-10.3-10.7-22.8-9.4-35.7 3.2-20.9 11.1-41 26.4-55.8 1.1-1 1.1-1 2.2-2.1 3.3-3.2 6.7-6.4 10.2-9.3 2.8-2.4 5-4.8 7.1-7.8 6.4-8.2 13.9-13.4 24.4-14.7q2.2-.2 4.3-.4c6.5-.5 13-3.4 19.4-2.9z" fill="#e27c00"/><path d="M777.3 161.6q1.3 0 2.6-.1 1.4 0 2.8 0 1.5 0 3 0 3 0 6.1 0 4.6 0 9.3-.1 2.9 0 5.9 0 1.4 0 2.8 0c4.5 0 6.6.2 10.3 2.8 2 3 2.5 4.3 2.4 7.8v3c-.1 1.5-.1 1.5-.1 3.1q-.1 1.6-.1 3.3-.1 5.3-.3 10.6-.1 1.9-.1 3.8-.4 11.6-.9 23.2 7-.4 14.1-.8 2.4-.1 4.7-.3 2.4-.1 4.7-.2 2.3-.2 4.6-.3c3.8-.2 7.6-.5 11.5-.9q1-.1 2.1-.2 3-.3 6-.7c3.3.4 3.3.4 6.2 2.8 2.9 4 2.8 8 2.7 12.8q0 1.3 0 2.6 0 2.8-.1 5.5 0 4.2 0 8.4 0 2.7 0 5.4 0 1.2 0 2.5c-.1 3.5-.2 5.8-1.9 8.9-8.4 7.7-32.1 4.6-43.1 4.5q-1.7 0-3.4 0-4 0-8.1 0 0 .9 0 1.8.2 9.4.2 18.9 0 3.5.1 7 .1 5 .1 10.1 0 1.6.1 3.2c0 4.2-.2 7.3-1.9 11.2-4.2 2.9-8.4 2.5-13.4 2.4q-1.6 0-3.2 0-3.3 0-6.6 0-5.2 0-10.3 0-3.2 0-6.4 0-1.6 0-3.1 0-1.5 0-2.9-.1h-2.5c-2.2-.5-2.2-.5-4-2.2-1.4-2.7-1.5-4.3-1.4-7.3q0-1.5 0-3.1c.1-1.6.1-1.6.1-3.2.1-1.7.1-1.7.1-3.4q.1-5.3.3-10.5.1-3.6.2-7.2.2-8.8.5-17.6-1.7.1-3.4.2-6.3.3-12.7.7-2.7.1-5.4.2-7.7.5-15.3.8-2.9.1-5.8.3c-6.7.4-6.7.4-10.1-2.3-1.6-3.6-1.7-6-1.6-10q0-1.1 0-2.2.1-2.4.2-4.8.2-5 .2-9.9.1-3.7.2-7.4c0-1.8 0-1.8.1-3.6q0-1.7.1-3.4c0-1.5 0-1.5.1-3.1.4-2.5.4-2.5 1.5-4.3 2.9-1.8 5.9-1.6 9.2-1.5q1.1 0 2.2 0 2.4 0 4.7 0 3.5.1 6.9.1c10.7 0 21.3.5 31.9 1.2q0-1 0-2.1-.1-10.6-.2-21.2 0-4 0-8-.1-5.7-.1-11.4 0-1.7 0-3.6 0-1.6 0-3.3-.1-1.5-.1-3c.4-2.4.4-2.4 1.7-4.2 2.1-1.5 3.4-1.6 6-1.6z" fill="#de7c00"/><path d="M819 699c2.5 2.5 2.3 3.9 2.3 7.3v2.1 2.3c-.3 16.5-2.4 30.1-14.5 42.1C778.6 778.9 736.3 788 699 790q-1.3.1-2.5.1c-29.6 1.4-72.1-1.7-95.5-22.1-4.7-4.8-6.3-9.1-7.8-15.6q-.3-1.3-.7-2.7c-2.1-9.9-2-19.6-1.5-29.7q1-.5 2-1c2.3 1.2 4.4 2.5 6.6 3.9C645.4 751.1 695.4 754 747 742q1.3-.3 2.5-.6c23.7-5.6 45.9-15.6 61.8-34.5 2.4-2.8 5.1-5.3 7.7-7.9z" fill="#013542"/><path d="M185 704.9c3 .1 3 .1 4 1.1-.1 8.4-2 16.7-3.7 24.9-5.8 29.2-10.2 58.6-14.3 88.1q.7.4 1.5.9c12.5 7.2 24.4 15 36.1 23.4q3.6 2.5 7.2 5.1c7.6 5.3 14.8 10.8 21.8 16.9 4.8 4.1 9.8 7.9 15.4 10.7q-1.4 1.2-2.7 2.5C237 890.8 229.8 904.6 225 922q-.5 1.7-1 3.5c-3.7 15.2-3.3 28.1 4.4 41.9 3.5 5.4 7.6 7.5 13.6 9.6q1 .5 2 1 0 1 0 2-1.9 1-3.8 1.9-1.1.6-2.2 1.1c-21.9 10.5-57.1-5-78-12q-1-.3-2-.7c-17.7-5.9-35.1-12.4-52-20.3q-1.4-.6-2.8-1.3l-2.7-1.2c-1.2-.6-1.2-.6-2.5-1.2-2.4-1.6-3.2-2.5-4-5.3.4-3.2.4-3.2 1-6 9.3 2.7 18.3 5.9 27.3 9.4q2 .7 3.9 1.5 7.6 2.8 15.1 5.8c20.2 7.9 41.3 14.6 62.7 18.3q1.9.3 3.8.7 4.1.7 8.2 1.3-.5-1.3-1.1-2.6c-9.3-24.4-1.9-52.2 8.1-75.4 3.3-6.8 7.4-12 13-17-6.3-5.9-12.9-11.1-20-16q-1-.7-2.1-1.4c-49.1-34.3-49.1-34.3-105.2-53-2.7-.6-2.7-.6-4.7-2.6-.2-3-.2-3 0-6 2.5-2.5 3.5-2.4 7-2.5 17.2.4 37 10.2 51 19.5q0-1.1.1-2.2c.7-12.1 2.6-24 4.5-35.9l.6-3.4c2.3-14.8 4.8-29.5 7.6-44.2q.2-1.1.4-2.2c4.3-22 4.3-22 9.8-22.2z" fill="#003f5d"/><path d="M630 921c2.9.2 4.5.4 6.5 2.6 1.9 3 2.8 6 3.8 9.4q.3 1.1.6 2.2 1.1 3.9 2.1 7.8.4 1.4.8 2.9c7.2 26.7 12.5 53.9 15.9 81.3 2.6 21.8 6.2 43.3 10.3 64.8q.3-1.7.6-3.5.4-2.6.9-5.2.3-1.5.5-3.1 1.9-10.6 3.9-21.1c6.1-32.6 10.8-65.1 12.9-98.2q.5-7.2 1.1-14.3l.2-2.5c.4-4.2.8-7.2 3.9-10.1 2.6-.3 2.6-.3 5 0 1.6 1.6 1.1 3.4 1.1 5.6 0 7.1-.7 14-1.5 21q-.2 2.1-.4 4.2-.5 4.5-1 8.9-.4 4.4-.9 8.8c-2.5 23.8-5.7 47.4-10.4 70.9q-.6 3.3-1.3 6.6c-1.6 8.5-3.5 16.9-5.6 25.2q-1 3.6-1.8 7.3-1.2 4.6-2.5 9.3-.3 1.6-.7 3.2c-2 7.3-2 7.3-4.9 9.3-2 .8-4 1.3-6.1 1.7-9.6 4.1-15.5 9.4-20 19-2.4 7.2-3.5 14.5-4 22q-1.5 0-3 0c-.1-8.8.1-17.4.8-26.2l2.6-39.2q.2-3.2.4-6.5c1.4-23.8 2.4-47.7 2.4-71.6q.1-5 .1-10.1c.1-24.4-3.4-47.5-12.3-70.3-1.1-3.4-1.7-6.5-2-10.1q1-1 2-2z" fill="#aa4a00"/><path d="M818 916c2 1.2 2 1.2 3 3 .2 2.7.2 2.7 0 5-3.3 1.9-6.6 3.8-10 5.5-23.5 12-39.3 36.1-47.5 60.6q-1.9 5.9-3.5 11.9-.3 1.1-.6 2.2c-2.7 10.1-2.7 20.3-2.7 30.6q0 2 0 4c.1 10.9 1.2 21.3 4.9 31.6q.4 1 .8 2.1c5.1 13.6 12.9 28.2 26.6 34.5 8.8 3.5 17.7 5.8 26.9 7.6 4.2.8 7.6 1.8 11.1 4.4.8 2.2.8 2.2 1 4-3.1 1-5.1 1-8.3.2-11.8-2.5-23.2-3.6-35.2-3.6-2-.1-2-.1-4-.1-14.9.2-30.4 2-41.4 13.1-5.4 6.7-7.3 15.9-8.1 24.4q-3 0-6 0c-.4-7.9.9-15.3 2.4-22.9q1.2-6.6 2.3-13.2.3-1.4.6-2.9l7-42.2q.6-3.2 1.1-6.5 1-6.2 2-12.5.2-1 .4-2.1 2-12.2 3.8-24.4c1.6-10.4 3.3-20.7 5.8-30.9q.4-1.9.9-3.8c5.6-22.9 15.2-41 30.7-58.6q1.2-1.3 2.3-2.7c8.8-9.2 20.4-19.4 33.7-18.3z" fill="#ab4a00"/><path d="M836 763c6 .9 10.5 4 14.4 8.6 3 4.5 3.6 7.9 3.7 13.2.3 4.4.3 4.4 2.4 8.1q1.9 1.5 3.8 2.8c2.7 2.1 3.6 4.1 4.7 7.3.6 6-.2 12-1 18l2 1q0 1 0 2 1 0 2 0c4.2 5.5 3.9 11.4 3 18-1.1 2.7-2.5 5.2-4 7.7-1.2 2.6-1.1 3.8-.5 6.6.5 3.7.5 3.7-1.7 6.6-5.5 4.2-9.7 4.6-16.6 4.6-4.1-.6-6.1-1.9-9-4.8-2.7-3.9-2.3-8.1-2.2-12.7l-3.6.2c-4.2 0-6.9-.8-10.4-3.2-3.3-3.6-4.2-6.3-4.3-11.1.1-3.4.4-6.6 1.3-9.9-1.8.2-1.8.2-3.7.3-3.6 0-4.2-.2-7.2-2.6-4.2-5.3-4.7-8.5-4.6-15.2 1.5-11.1 11-20 18-28.3 3.2-3.8 6.3-7.8 9.4-11.8q.6-.8 1.3-1.6 1.4-1.9 2.8-3.8z" fill="#a94900"/><path d="M657.6 607.8q1.3 0 2.6 0 3.9.1 7.8.2l2.3.1c16.4.5 16.4.5 23.2 5.9 2.3 4.6 2.2 8.9 1.5 14-2.5 5.8-7.4 9.2-13 12-3.3 1-6.6 1.6-10 2 1.5 13.2 1.5 13.2 7 25 7.7 4 16.4 4.3 24.8 2.4 7.5-2.7 13.6-7.8 19.2-13.4 3.1-.1 3.1-.1 6 0 1.6 3.1 1.3 5.6 1 9-5.2 10-13.6 14.9-23.7 19.1-8.7 2.4-20.8 2.7-29.1-1.2-5.4-3.3-9.7-7.6-13.2-12.9q0-2 0-4-.9.8-1.7 1.6c-8.2 7.1-17.6 11.3-28.7 10.8-9.1-1.4-16.8-4.1-23.6-10.4q-1-.9-1.9-1.8c-7.8-7.4-7.8-7.4-8.4-13.3.3-2.9.3-2.9 2.3-5.9 2.3-.5 2.3-.5 5 0 2.4 2.1 2.4 2.1 5 5 7.4 7.1 15 11.3 25.4 11.2 6.1-.4 11.3-1.6 15.6-6.2 2.7-4.8 4.4-9.5 5-15q-.8-.1-1.7-.2c-6.9-1.2-12.1-3.9-16.7-9.4-3.6-5.4-4.2-10.1-3.6-16.4.9-2.9.9-2.9 3-5 6.1-2.9 12-3.4 18.6-3.2z" fill="#033443"/><path d="M836 455c9 13.4.3 43.4-2.6 58.2-2.1 10.4-4.6 20.6-7.4 30.8-6-.3-8.8-2.9-13.1-6.8q-.9-.9-1.9-1.8c-4.9-4.3-9.6-8.7-14.4-13.1-7.4-7-15.4-13.3-23.6-19.3.3-3.2 1.2-4.2 3.6-6.5q1.6-1.3 3.3-2.7.8-.7 1.7-1.5 2.7-2.1 5.4-4.3 2.8-2.3 5.6-4.6 1.4-1 2.7-2.2c2.8-2.3 5.4-4.7 8-7.1 7.9-7.4 21.3-19.1 32.7-19.1zm-260.1-15.1c10.6 1.7 21.3 13.7 28 21.6q2.5 3 5.1 5.9c7.2 8.1 13.8 16.6 20 25.6-4.4 4.9-9.6 8.2-15.1 11.8q-1.4.9-2.8 1.9-2.8 1.8-5.6 3.7-4.5 2.9-9 5.9-1.3.9-2.7 1.8-3.2 2.2-6.3 4.4-.8.6-1.8 1.3-2.4 1.8-4.9 3.6c-2.8 1.6-2.8 1.6-5 1.2q-.9-.3-1.8-.6c-2.3-16.8-3.4-33.2-3.3-50.2q.1-5.2.1-10.5 0-3.4 0-6.8 0-1.6 0-3.2c.2-17.3.2-17.3 5.1-17.4z" fill="#ad4c00"/><path d="M436 474c4.4 4.4 7 10.6 10 16l1 1.8c6.7 12.2 11 25 15 38.2q.3 1.1.7 2.2c1.3 4.6 2.4 9.2 3.3 13.8q.3 1.3.5 2.7c2.8 13.8 3.9 27.4 3.9 41.4q0 1.1 0 2.3c0 18.9 0 18.9-5 24.6l-2.4 2q1 .5 2 .9c9.4 4.4 9.4 4.4 12 9.1q-.5 1.5-1 3-.7-1.4-1.5-2.8c-2.7-3.9-6-5.8-10.5-7.2-4.8-.8-8-.5-12.4 1.8-2 1.7-3.9 3.3-5.6 5.2 1-3.6 1.9-4.9 4.9-7.3 3.1-1.7 3.1-1.7 6.1-1.7q-.7-1.6-1.4-3.3c-2-4.3-2.7-8.3-3-13.1-1-16-2.8-31.8-5.6-47.6q-.2-1.1-.4-2.2c-4.6-25.9-16.4-55.6-33.6-75.8q4.1-1.6 8.1-3.1 1.2-.5 2.3-.9c4.9-1.8 7.7-2.5 12.6 0z" fill="#003441"/><path d="M498.4 828.9q1.8 0 3.6 0 1.7 0 3.5 0 1.5 0 3 0c2.5.1 2.5.1 4.5 1.1-.7 5.9-2 11.6-3.4 17.4q-.3 1.3-.6 2.7c-1.4 5.7-3 11.3-5 16.9l-5 1q-1.7-1.9-3.4-3.8-.9-1.1-1.9-2.2c-1.7-2-1.7-2-3.7-5l-1.4 1.4q-3.3 3.4-6.6 6.7-1.1 1.1-2.3 2.2c-3.4 3.5-6.9 6.9-10.6 10.1-5 4.3-9.6 9.1-14.3 13.8q-2.6 2.6-5.2 5.3-1.2 1.1-2.3 2.3c-2.3 2.2-4.8 4.2-7.3 6.2-3.9-1.6-6.4-4.1-9.3-7.1q-.7-.8-1.5-1.5c-3.4-3.5-6.6-7.2-9.7-11-1.7-1.8-1.7-1.8-5.5-1.4-1.9 1.2-1.9 1.2-3.6 2.9q-1.1 1-2.1 2-1.2 1-2.3 2.1-2.4 2.1-4.7 4.3-2.7 2.3-5.3 4.7-.7.7-1.5 1.4c-6 5.4-11.9 10.8-17.5 16.6q-.4-.9-.9-1.8-1.3-2.6-2.8-5.2c-1.3-3-1.3-3-.6-5 1.3-2.1 2.7-3.5 4.5-5.2q.9-.9 1.9-1.8 1-.9 2-1.8 1-.9 2.1-1.9l11.9-10.7q3.5-3 6.9-6.1 6.4-5.8 13-11.5c3.7 1.3 6.1 2.7 8.8 5.4q1.1 1 2.1 2 1.1 1 2.2 2 2.1 2.1 4.2 4.1.9.9 1.9 1.8c1.8 1.7 3.8 3.2 5.8 4.7q.7-.7 1.3-1.4 3.1-3.1 6.2-6.2 1-1 2.1-2.1a224.95 224.95 0 0 1 12.4-11.5c3.6-3.3 7.1-6.8 10.5-10.2q1.1-1.1 2.2-2.3 2.7-2.6 5.3-5.3c-2.3-5-6.1-7-10.6-10-2.4-2-2.4-2-3.4-4.1q0-.9 0-1.9c5.8-5.8 24.6-3.1 32.4-3.1z" fill="#038180"/><path d="M276 704h14c-3.2 30-11.2 70.1-34.6 91.3-2.4 1.7-2.4 1.7-5.1 1.9-17.5-6.4-30.5-27.4-40.3-42.2q-.8-1.1-1.6-2.3c-8.7-13.5-14-29.4-18.4-44.7q-.5-1.5-1-3h16q.9 2.6 1.9 5.3c13.3 37.4 13.3 37.4 41.1 64.7 2.7.8 2.7.8 5 1l.8-2.5c1.3-3.8 3.1-7.3 4.9-10.9 9.3-18.3 15.2-38.1 17.3-58.6z" fill="#57bbae"/><path d="M469 606l1 2q1.5.4 3.1.8c6 1.5 10.2 5.6 13.3 10.8 4 8.3 3.9 19.4 2 28.3-3.3 7.8-8.9 14-16.6 17.4-7.1 2.7-16.9 3-24.2.6-7.5-3.5-12.8-9.2-15.6-16.9-2.7-8.3-2.2-18.7 1.5-26.6 3.6-6.2 8-10.5 14.3-13.9 2.2-.5 2.2-.5 6.2.5l3 11q-3.1 1.5-6.2 2.9c-2 1-2 1-2.8 3.1 1.2-1 1.2-1 2.4-1.9 4.5-3.6 8-3.8 13.6-3.1 4.9 1.6 8.6 4.1 12 8-3.4-5.9-8.8-7.1-15-9 1.2-1.1 1.2-1.1 2.4-2.3 3.8-3.9 4.9-6.4 5.6-11.7z" fill="#004361"/><path d="M288 421c3.5.2 4.8.8 7.4 3.3q1.1 1.5 2.3 3.1.7.8 1.4 1.6 1.9 2.5 3.9 5c4.9 6.2 9.8 12 15.6 17.4 1.4 1.6 1.4 1.6 1.4 3.6l1.8.8c2.4 1.3 4.1 2.9 6.1 4.8 14.2 12.9 35.1 20.6 54.2 20.5q1 0 2 0 3.2 0 6.3 0 2.1 0 4.2-.1 5.2 0 10.4 0c.2 6.1.2 6.1 0 8-5.8 5.8-17.9 4.4-25.4 4.4-22.6 0-41.7-5.9-58.6-21.4q-1.2-1.1-2.5-2.3c-9.1-8.8-16.6-18.9-23.9-29.1q-.6-.9-1.3-1.7c-7.4-10.5-7.4-10.5-7.1-14.8.8-2.1.8-2.1 1.8-3.1zm149.4-128.4c2.6.4 2.6.4 4.2 2.6 1.4 2.9 2.3 5.5 3.1 8.7q.4 1.7.8 3.4.5 1.8.9 3.6 1 3.7 1.9 7.4.4 1.7.9 3.5 1.4 5.5 3 10.9l.9 3.1q1 3.5 2 6.9c3.5 11.8 6 26.5 1 38.2-3.5 5.6-8.9 9-15.1 11.1-8.4.7-16.6.7-24-4-2.3-2.6-3-3.6-3.4-7.1q.2-1.4.4-2.9c3.4-2.3 4.7-2.2 8.8-2.2h3.4a42.08 42.08 0 0 1 3.5.1h3.6q4.3 0 8.7.1c7.1-16.8-1.3-38.4-5.5-55.1-4.8-19.3-4.8-19.3-3.5-25.9 2-2 2-2 4.4-2.4z" fill="#aa4a00"/><path d="M362.6 390.5c6.5 1 10.6 6.4 14.6 11.4 8.6 10 21 16.3 33.8 19.1 13.7.7 24.5.1 36-8 3.1-2.1 4-2.3 7.6-2.3h2.3c2.1.3 2.1.3 4.1 2.3-.2 4.9-1.6 7.4-5 11-2.4 1.6-4.9 2.9-7.6 4.1-1 .5-1 .5-2.1 1.1-15.8 7.4-31.9 7.9-48.4 2.5-16.9-6.1-29.5-17.2-39-32.4-1.1-2.8-.8-4.4.1-7.3 1-1 1-1 3.6-1.5z" fill="#043343"/><path d="M592 763c1 3.2.9 5.1-.1 8.3q-.4 1.2-.7 2.5l-.9 2.7c-6.4 21.5-9.2 43.3-11.3 65.5-3.5-1.3-6.5-2.8-9.6-5q-1.2-.8-2.5-1.7-1.3-.9-2.6-1.8-1.3-.9-2.6-1.8c-6.4-4.4-6.4-4.4-8.7-6.7-.1-2-.1-2 .1-4.4.2-1.4.2-1.4.3-2.8q.1-1.5.3-3 .1-1.5.3-3.1c1-10.9 2.5-21.8 4-32.7 1 .4 1 .4 2 .9 3.6 1.3 7.3 2.2 11 3.1 4.5 1.1 8.8 2.2 13 4 1.7-3.9 2.9-7.9 4-12s2.3-8.1 4-12z" fill="#017680"/><path d="M481.7 961.8q1.1 0 2.2 0c4.9 0 4.9 0 7.1 2.2v6c-3.6 2.2-7 2.5-11.2 2.8q-1.1.1-2.2.2-3.7.2-7.4.5-1.3.1-2.6.2c-16.4 1.2-32.7 1.9-49.1 2.5q-1.7.1-3.5.1c-12.1.5-24.3.8-36.5.9q-1.6 0-3.1 0-1.4 0-2.9 0-1.2 0-2.5 0c-2-.2-2-.2-4-2.2.3-2.6.3-2.6 1-5 2.3-1.2 3.9-1.2 6.5-1.4l2.9-.2q1.5-.2 3.1-.3 1.7-.1 3.3-.2 5.4-.4 10.8-.8 3.8-.2 7.5-.5 23.1-1.7 46.2-3.2 3-.1 6-.3c9.5-.7 18.9-1.2 28.4-1.3z" fill="#04807e"/><path d="M490.8 939.7q1.3 0 2.6-.1c2.2 0 2.2 0 5.6.4 2 3 2 3 2 6-3.6 2.4-6.4 2.5-10.5 2.8-1.1 0-1.1 0-2.3.1q-3.8.3-7.6.6-2.7.2-5.4.4-5.6.4-11.2.8-7.1.5-14.2 1c-22.3 1.6-44.6 3.2-67 3.5h-2.2c-3.7 0-6.6 0-9.6-2.2-.8-2.6-.8-2.6-1-5 3.7-1.7 6.8-2.3 10.8-2.6q1.7-.1 3.5-.2 1.9-.1 3.8-.2 2-.1 4-.2 5.3-.4 10.6-.7 4.4-.2 8.8-.5 11.8-.7 23.7-1.4 5.1-.3 10.3-.6l45.3-1.9z" fill="#07817f"/><path d="M400.6 247.8c2.6 1.9 5.1 3.9 7.4 6.2.2 2.9.2 2.9 0 6-3.8 2.6-5.4 2.5-10 2-2.4-1.1-4.6-2.4-6.9-3.8-7.4-4.2-18.7-3.2-26.7-1.4-9.1 3.3-16.6 8.7-23.7 15.1-3.2 2.5-5.6 2.9-9.7 3.1-2-3-2-3-1.9-5.8 2.2-8.1 8.7-14.1 15.8-18.3q3-1.7 6.2-3.3.9-.5 2-1c14.3-6.9 34-8 47.5 1.2z" fill="#043343"/><path d="M843 766c5.8 3.1 8.9 6.8 11 13 .7 3.8.8 7.2 0 11-2.2 3-5 4.9-8 7-6.9 5.8-12.8 12-18.4 19-3.1 2.4-4.9 2.7-8.7 2.5-3.5-.9-4.9-2.6-6.9-5.5-.7-5.8.5-8.7 3.9-13.3l1.3-1.7c3.3-4.5 7-8.7 10.8-12.9 1.7-1.7 3.2-3.5 4.7-5.4 2.3-2.7 2.3-2.7 4.9-5.2 2.5-2.7 3.9-5.2 5.4-8.5zm13 27c3.8 1.5 5.7 3.7 8 7 1.9 5.7 1.8 12.3-.6 17.8-2.7 4.1-6.5 7.2-10.2 10.4-3.1 2.6-5.7 5.5-8.4 8.5-3.2 3.2-5.1 4.9-9.7 5.1-2.6-.2-3.8-.5-5.8-2.2-1.9-2.4-2.3-4.7-2.8-7.7.7-5.7 3.8-8.7 7.5-12.9 1-1.2 1-1.2 2.1-2.4 4.7-5.3 9.6-10.3 14.7-15.2 2.4-2.6 3.8-5.2 5.2-8.4z" fill="#e37e00"/><path d="M622.7 558.6q2.2 1.2 4.3 2.4 1 .6 2.1 1.2c5.9 4 10.1 9.2 12.9 15.8.7 4.7 1.2 9.7-1 14-2.8.3-2.8.3-6 0-2.2-2.2-3.7-4.5-5.3-7.2-4.1-6.5-8.3-10.3-15.7-12.8-7.1-.7-12.3.2-18.8 3.1-2.8 1.2-5.1 1.4-8.2.9q-1-1-2-2c0-4 .7-5.6 3.3-8.6 9.3-7 23.2-11.5 34.4-6.8z" fill="#043343"/><path d="M466.2 621.7c4.4 2.1 7.1 4.2 9.8 8.3.5 3.4.5 3.4.4 7q0 1.8 0 3.6c-.4 3.6-1.2 5.5-3.4 8.4-5.9 4.4-10.8 6-18 5-4.7-1.8-7.4-4-10-8.3-1.9-7-1.7-11.7 1.8-17.9 4.7-6.9 11.7-8.6 19.4-6.1z" fill="#56bbaf"/><path d="M787.4 626.7q1 0 2 0c26.9-.1 26.9-.1 35.6 5.3 1 2.1 1 2.1 1 4-1.5 1.5-3 1.1-5.1 1.2q-1.4 0-2.7 0h-3q-3 .1-6.1.1-1.7.1-3.3.1c-22.9.3-22.9.3-45.6 1.9a155.22 155.22 0 0 1-13.6.9q-1.4.1-2.9.1c-3.1-.3-4.4-1.3-6.7-3.3.3-2.4.3-2.4 1-5 11.5-7.7 35.5-5.3 49.4-5.3z" fill="#053243"/><path d="M764 575c3.4 2.8 4.9 5.4 5.9 9.8q.1 1.6.1 3.2c-2 2-2 2-4.5 2.5-3.7-.5-5.2-1.4-8.3-3.4-5-3.2-9.2-4.8-15.2-4.1-8 2.2-13.3 7.8-18.8 13.7-2.7 2.8-3.3 3.3-7.3 3.4q-1.4-.1-2.9-.1c-1.5-2.9-1.4-4.7-1-8 4.2-9.5 12.6-17 22-21 10.4-3.7 20.8-2.1 30 4z" fill="#043243"/><path d="M498.9 254.7c7.4 5.1 7.4 5.1 10.1 8.3.3 3.1.3 3.1 0 6-1.7 1.7-3.6 1.3-5.9 1.4-5.8 0-9.3-1.8-14-5-5.3-3.6-11.9-3.2-18.1-2.4-3 1.3-5.7 2.9-8.5 4.7-3.8 2-6.3 1.9-10.5 1.3-2-2-2-2-2.1-5.2 1.8-6.2 5.9-8.9 11.3-12.1 12-5.7 26.5-3.7 37.7 3z" fill="#043344"/><path d="M516.8 595.8c5.7.1 11.2.9 16.8 1.8 1.7.2 1.7.2 3.4.5 52.7 8.6 52.7 8.6 59 14.9q.1 2.5 0 5c-4.2 2.1-9.1 1.2-13.6.1q-1.8-.6-3.7-1.3c-14.4-4.5-29.4-6.8-44.3-8.9q-1.8-.2-3.7-.5-3.6-.5-7.1-.9l-3.3-.4q-1.4-.2-2.8-.4c-3.1-.9-4.5-2.2-6.5-4.7.4-4.5 1.3-5 5.8-5.2z" fill="#033243"/><path d="M925 990q.5 1.5 1 3 1.2-.1 2.4-.1c2.6.1 2.6.1 4.6 2.1 3 11.2 2.4 23.3 2.4 34.8q0 1.4 0 3c-.1 42.5-.1 42.5-10.1 53-1.1 1.1-1.1 1.1-2.3 2.2q-.5-.5-1-1c0-5.8.7-11.6 1.7-17.3 2.1-12.2 2.7-24 2.6-36.4q-.1-4.5-.1-9.1A488.4 488.4 0 0 0 925 990z" fill="#a74700"/><path d="M293 778c1.9 1.1 1.9 1.1 3 3 .8 5.9-.8 10.2-4 15-4.9 4.9-10.4 6.3-17.3 6.3-7.8-.1-14.5-1.3-20.7-6.3q.6-.6 1.1-1.3.8-.9 1.6-1.8.8-.9 1.7-1.9c1.6-1.9 1.6-1.9 2.6-4 1.2-2.1 2-3.5 4-5 3.5-.9 7-1.3 10.6-1.6 2.9-.3 4.8-.8 7.3-2.1 3.9-1.6 6.1-1.4 10.1-.3z" fill="#003440"/><path d="M390 296q.9.6 1.8 1.1c3.3 2.4 4.2 3.8 5.1 7.7q0 1.6.1 3.2c-3.5 2.4-4.8 2.4-9 2q-1.3-.7-2.6-1.5c-7.4-3.3-15.7-1.9-23.2.6-2.1.9-4 1.9-6 3.1-3.5 1.9-5.3 2.4-9.2 1.8-1.9-1.2-1.9-1.2-3-3-.5-2.4-.5-2.4 0-5 3.9-5.1 9.4-8 15-11q1-.5 1.9-1c9.2-4.2 20.6-3.3 29.1 2z" fill="#043343"/><path d="M595 631c.3 2.6.3 2.6 0 5-1.6 1.6-3.7 1.4-6 1.7q-1.6.2-3.2.5-1.8.2-3.6.4c-12 1.7-23.8 3.8-35.7 6.1q-1.2.2-2.4.5c-8.2 1.5-8.2 1.5-16.4 3.4-2.2.5-4.2.5-6.4.5q-1.2-.1-2.5-.1-.9 0-1.8 0-1-2-2-4c3.7-4.9 8.6-5.6 14.3-7q1.5-.4 3-.8c10.3-2.5 20.7-4.2 31.2-5.8q3.2-.5 6.4-1.1C589 627 589 627 595 631z" fill="#043243"/><path d="M500.2 302c2.9 2.1 4.3 3.7 5.8 7-.4 4.4-.4 4.4-2 6-4.7.3-8.3 0-12.7-1.5-7-2.2-13.7-3-20.6-.1q-3 1.6-6 3.4c-3.2 1.4-4.5 1.3-7.7.2-2-2-2-2-2.4-4.9.6-4.8 3.2-6.3 6.9-9.3 12.4-9 25.7-7.7 38.7-.8z" fill="#043343"/><path d="M378.1 764.1c2.6 1.2 3 2.2 3.9 4.9q.6 3 1 6 .3-.9.6-1.9l.8-2.5q.4-1.2.7-2.4c.9-2.2.9-2.2 2.9-4.2 2.1.4 2.1.4 4 1-.7 5.7-1.9 11.1-3.4 16.6q-.3 1.3-.6 2.5c-1.2 4.4-2.4 8.1-5 11.9q-2.5-.5-5-1-.5-2.1-.9-4.2-.3-1.1-.6-2.3-.8-3.8-1.5-7.5-.2 1.2-.4 2.5c-.2 1.6-.2 1.6-.5 3.3q-.2 1.6-.5 3.3c-.6 2.9-.6 2.9-2.6 5.9-2.5.3-2.5.3-5 0-4.9-4.9-4.1-14.9-4.1-21.6q0-4.7.1-9.4 3-.1 6 0c2 2 1.7 6.3 2 9q.6-1.6 1.3-3.3c2.9-6.8 2.9-6.8 6.8-6.6z" fill="#05807e"/><path d="M755.6 651.5c17.8 1.7 47.2 7.3 60.4 20.5q0 2 0 4c-6.5.4-11.2-.9-17.3-3.1-10.6-3.8-21.3-6.2-32.3-8.5q-1.5-.4-3.2-.7-3.4-.7-6.8-1.4-1.7-.4-3.5-.7-1.5-.3-3.1-.6c-3.2-1.1-4.7-2.5-6.8-5 4-4.7 6.7-4.7 12.6-4.5z" fill="#073244"/><path d="M220 777q1.2.1 2.5.3c8.3 1.7 13 7.7 18.5 13.7q2.5 2.5 5 5c-7.4 4.8-14.4 4.8-23 4-2.8-.7-4.4-1.5-7-3q-1.5-.9-3.1-1.8c-3.9-3-7.3-5.8-8.5-10.8 2.1-8.2 8.5-8.3 15.6-7.4z" fill="#003340"/><path d="M865 823c3 1 3 1 4.7 3.2 2.7 5.8 2.3 12.6.5 18.6-2.7 5.9-6.5 11-12.2 14.2-4.1.2-6-.4-9.4-2.5-2-3.1-2.5-5.3-2.3-9 1.5-5.3 5.9-8.8 9.7-12.5q2.3-2.4 4.5-4.9 1-1.1 2-2.2c1.7-1.9 1.7-1.9 2.5-4.9z" fill="#e37f00"/><path d="M311.4 920.8q1.4 0 3 0 1.6 0 3.3-.1l3.7.1q1.9 0 3.8 0 4.9 0 9.8 0 5.1 0 10.1 0 3.8 0 7.6 0 1.8 0 3.7 0l3.4.1h3c2.2.1 2.2.1 3.2 1.1v5c-1 1-1 1-3.6 1.1l-2.4-.1q0 1 0 2-11.1.1-22.1.1-3.8 0-7.5.1-5.4 0-10.8 0-1.7 0-3.4 0-1.6 0-3.2 0-1.4 0-2.8 0c-2.2-.2-2.2-.2-4.2-2.2.4-4 .9-6.8 5.4-7.2z" fill="#a64600"/><path d="M452 762l6 1 4 13q.2-2.6.4-5.3c.2-3.9.4-5.4 2.6-8.7l5 1q-.4 5.9-.7 11.9-.2 2-.3 4-.2 2.9-.4 5.8l-.2 3.5c-.4 2.8-.4 2.8-2.4 4.8-2.5-.1-2.5-.1-5-1-1.9-3.2-2.8-6.5-4-10l-2 11q-2.5.5-5 1c-1.8-1.8-1.2-4.4-1.2-6.9q0-1.2 0-2.4 0-1.2 0-2.5c.2-17.2.2-17.2 3.2-20.2z" fill="#07817f"/><path d="M314.9 890.8q2.6.1 5.2.1l2.7.1q2.9 0 5.8.1 4.4.1 8.8.2 2.8 0 5.6.1 1.3 0 2.6.1c7.3.2 14 1.8 20.4 5.5.8 2.1.8 2.1 1 4-1 1-1 1-3.7 1.1q-1.7 0-3.5 0-1.7 0-3.4 0c-3.4-.1-3.4-.1-6.1-.6-3.9-.6-7.7-.7-11.7-.7q-2.4-.1-4.8-.1-3.8-.1-7.6-.2-3.7 0-7.3-.1h-2.3c-5.4-.2-5.4-.2-7.6-2.4-.3-2.5-.3-2.5 0-5 2-2 2-2 5.9-2.2z" fill="#a54500"/><path d="M411 763q1 1 2 2c-.1 2-.1 2-1 4-3.2 2.4-6.2 2.2-10 2q0 2 0 4l7 1c.6 2.4.6 2.4 1 5-2 2-2 2-5.1 2.1-1.4 0-1.4 0-2.9-.1q-.5 2-1 4c1.7 0 1.7 0 3.4-.1 3.6.1 3.6.1 4.6 1.1.1 3 .1 3 0 6-1.9 1.9-5 1.4-7.5 1.6-1.8.2-1.8.2-3.6.3q-1.4.1-2.9.1c-1-1-1-1-1-3q0-1.3.1-2.7.1-1.4.1-2.9.1-1.5.2-3 0-1.5.1-3c.7-14.6.7-14.6 3.5-17.4 4.3-1 8.5-1.3 13-1z" fill="#07807e"/><path d="M347.4 946.9l3.7.1h2.9q0 2 0 4c-16.9 7.6-34.9 6.3-53 6-.7-2.3-.7-2.3-1-5 1-1.8 1-1.8 3-3 3.1-.4 3.1-.4 6.9-.5q1 0 2 0 3.2-.1 6.4-.1 3.2-.1 6.4-.1 2.9-.1 5.8-.1c5.7-.3 11.1-1.3 16.9-1.3z" fill="#a54400"/><path d="M520.8 759c3.2 1 3.2 1 5.2 4q.1 3.5 0 7c-3.4-.5-5.1-1.1-8-3q1.1 1 2.3 2.1c3.7 4 6.4 6.9 7.2 12.4-.6 4.1-1.9 6.3-4.5 9.5-3.1 1.5-5.6 1.3-9 1-2.4-1.4-2.4-1.4-4-4-.3-3.4-.2-6.6 0-10q2 0 4 0l3 7q1.5-.5 3-1c.3-2.4.3-2.4 0-5-1.7-1.9-1.7-1.9-3.9-3.3q-1.1-.7-2.3-1.5-.9-.6-1.8-1.2c-1-1-1-1-1.4-4.8 0-3.7.4-4.2 3-7.3 3.4-1.9 3.4-1.9 7.2-1.9z" fill="#067f7d"/><path d="M478.9 760.9h3.7l3.6.1q1.4 0 2.8 0l1 6c-2 2-2 2-3.9 2.2q-3.1-.1-6.1-.2 0 2.5 0 5l2.9-.1c3.1.1 3.1.1 5.1 2.1-.4 2.1-.4 2.1-1 4l-7 2q-.5 2-1 4h8q.5 2 1 4c-5 3-8.3 3.5-14 3-2-2-2-2-2.2-4.1q.1-1.3.2-2.7 0-1.4.1-2.9.1-1.4.2-3c0-1.5 0-1.5.1-3 .8-16.2.8-16.2 6.5-16.4z" fill="#09807f"/><path d="M504 760c2.8 2.6 3.9 4 4.3 7.8q-.2 1.1-.3 2.2c-1.8.6-1.8.6-4 1q-1.5-1-3-2 0-1.5 0-3-1 0-2 0c1.4 4.5 3.3 6.2 7 9 2.5 3.7 2.6 6.7 2 11-2.1 4.6-2.1 4.6-5 6-4.4.5-6.3.5-9.9-2.1-2.4-3.3-2.6-4.9-2.1-8.9q2-1 4-2c2 2 2 2 2 6q2-.5 4-1c0-1.9 0-1.9-1-4q-3-2.1-6-4c-2.5-3.7-2.5-5.6-2-10 3.4-5.1 5.8-6.7 12-6z" fill="#06807d"/><path d="M242.7 292.7c4.2.4 6.1 1.6 9.3 4.3 5.4 6.9 6.7 13.4 6 22-1 3.1-1 3.1-2 5-2.4.1-2.4.1-5 0-2.6-2.6-2.2-3.7-2.4-7.2-.5-6.9-3-10.3-7.9-14.9-2.7-2.9-2.7-2.9-2.6-5.7 1.3-3.1 1.3-3.1 4.6-3.5z" fill="#a94a00"/><path d="M417 764q2.5.5 5 1l-1 22q3 .5 6 1 .5 2.5 1 5c-4.6 2.4-9 2.4-14 2q-.5-.5-1-1c.1-4 .4-8 .7-11.9q.2-3 .4-6 .1-1.9.2-3.8.2-1.7.3-3.5c.4-2.8.4-2.8 2.4-4.8z" fill="#077f7d"/><path d="M423 1016c3.1 2.1 3.1 2.1 5 5 .1 4.2-.3 6.2-3 9.4-4.1 2.2-7.5 2.4-12 1.6-2.6-1.5-2.6-1.5-4-4a18 18 0 0 1 0-8c3.6-4.7 8.4-5.1 14-4z" fill="#007880"/><path d="M433 764q3 0 6 0l-1 23h7l1 5c-2 2-2 2-5 2.2q-1.8 0-3.6-.1-1.8 0-3.6 0-1.4-.1-2.8-.1c-.1-9.7-.2-19.4 1-29q.5-.5 1-1z" fill="#057e7d"/></svg>