<svg xmlns="http://www.w3.org/2000/svg" width="1024" height="1024" xmlns:v="https://vecta.io/nano"><path d="M563 88l2.6.3c36.7 4.7 75.8 18.9 105.7 41.2 2.6 1.7 2.6 1.7 5.3 1.4a41.18 41.18 0 0 0 6.7-3.2c23.4-12 53-13.4 77.9-5.4 14.2 4.9 25.1 12.3 35.8 22.7q1.2 1.1 2.4 2.2c6 5.8 11.1 12.3 16.2 19 11.6 15 23.3 30 36.4 43.8q1.1 1.2 2.3 2.4c11.8 12.1 25.8 21.6 39.5 31.3 27.7 19.6 46.7 39.4 52.7 74 .2 2.1.4 4.2.5 6.3q.1 1.3.1 2.7c.5 23-6.2 44.6-21.1 62.3l-1.8 2.2c-15.3 18.3-39.7 28.7-63.2 30.8-24.2 1.1-49.1-3.9-68-20q.2 1 .4 1.9c4.9 25 5.5 55.3-.4 80.1q-.3 1.3-.6 2.6c-6.3 26.8-17.4 52.6-34.4 74.4q-1.2 1.5-2.3 3c-15.9 19.9-36.4 34.9-58.7 47q-1.7.9-3.4 1.9c-35.7 18.9-77.6 27.9-117.5 32.2-10.4 1.1-19.4 2.8-29.1 6.9-11.3 3.3-27.5 2.2-38-3-4.2-1.4-8.3-1.5-12.7-1.7q-2.9-.2-5.9-.3l-3.1-.2c-36.1-2-72.4-5.9-107.3-15.8q-1.5-.4-3-.8c-52.4-14.8-100.3-44-127.8-92.2-14.1-25.6-23.3-54.8-23.4-84.2q0-1.3 0-2.6 0-2.7 0-5.4 0-4 0-8c-.1-11.7.7-23.2 2.2-34.8q-.9.7-1.8 1.4c-20.1 15.2-46.1 20-70.7 17.1-23.7-3.4-46.8-15.3-61.5-34.5-16.2-22.8-22.4-49-17.7-76.6C79.9 293.8 86.8 279 99 267q.9-.9 1.7-1.8c4.8-5 9.9-9.1 15.4-13.1q1.3-.9 2.5-1.8 6.6-4.7 13.2-9.4c25.8-18.3 45.4-40.5 64-65.8 21-28.7 42.1-48.8 77.9-56.7 23.2-2.8 47.5-.1 67.5 12.4 2.7 1.5 2.7 1.5 5.3.6 3-1.7 5.8-3.5 8.7-5.4 32.4-21.1 69.4-34.3 107.8-39 1.2-.2 1.2-.2 2.4-.3 32-4 65.7-3.1 97.6 1.3zM252 599q.4 1.1.8 2.2c5.2 13 12.4 23 22.2 32.8q.7.7 1.5 1.5c12.2 12.2 26.4 21.4 41.5 29.5q.9.5 1.7 1c68.7 37.3 159.8 41.6 236.3 34q2.1-.2 4.2-.4c65.9-6.4 137.2-20.2 181.8-73.6 1.7 3.1 2.7 6.2 3.5 9.6q.4 1.7.9 3.5l.8 3.7q.3 1 .5 1.9c10.5 44 16.9 89.9 10.6 135.1q-.4 3.3-.8 6.6c-.9 7.1-2.2 13.9-4.3 20.8-6.8 22.3-8 44.3-8.9 67.5l-1.1 23.8q-.1 2.9-.2 5.9c-.6 13.4-1.4 26.7-2.5 40.1q-.1 1.2-.2 2.3-.2 3.2-.5 6.4-.2 1.7-.3 3.5c-.5 3.4-1.1 6.2-2.5 9.3-2.8 1.2-5.2 2-8.1 2.6q-1.3.3-2.5.6-4.1 1-8.1 1.9-2.8.6-5.6 1.3-6.7 1.6-13.4 3.1-4.4 1-8.7 2C641 989.3 588.8 992.9 538 992q-2.1 0-4.1-.1A618.36 618.36 0 0 1 473 988q-1.6-.2-3.2-.4c-39.3-4.3-78-11.9-115.8-23.6q-1.6-.5-3.3-1c-27.6-8.7-54.6-19.4-80.7-32q-1.1-.5-2.1-1-7-3.4-13.9-7-1.4-.7-2.9-1.5c-33-17.3-63.5-37.6-92.1-61.5q-.8-.6-1.5-1.3c-7.5-6.2-14.7-12.6-21.8-19.1q-1.9-1.8-3.9-3.6c-6.4-5.6-12.5-11.5-18.5-17.6q-1.3-1.3-2.7-2.7C83.9 789 83.9 789 81.4 775.8c1.7-10.2 8.4-18.9 14.3-27.1q2-2.6 3.9-5.3c9.8-13.7 20.4-26.6 31.9-38.8q3-3.2 5.8-6.4c5.9-6.4 11.8-12.8 18.4-18.5 4.2-3.6 8.3-7.4 12.3-11.2 4.7-4.4 9.4-8.7 14.2-12.9q3.4-3 6.8-6.1 6.4-5.8 13-11.5.7-.6 1.5-1.3c6.9-6 13.9-11.9 21.1-17.5l16.1-12.9c8.9-7.3 8.9-7.3 11.3-7.3z" fill="#fdb500"/><path d="M344 132c-1.5 3.8-3.7 5.5-6.9 8-37.6 30.1-51.9 72.5-57.1 118.9q-.3 2.9-.6 5.8c-1.4 12.8-3.1 25.4-5.2 38q-.2 1.2-.4 2.4c-2.2 12.7-4.5 25.4-7.8 37.9l-.6 2.2c-7.3 27-22.9 50.6-47.4 64.8-23.9 12.4-51.1 16-77.1 8.4-24.3-7.7-43.4-23.1-55.9-45.4-11.4-22.8-13.4-49.2-5.9-73.4C83.6 287 89.5 276.4 99 267q.9-.9 1.7-1.8c4.8-5 9.9-9.1 15.4-13.1q1.3-.9 2.5-1.8 6.6-4.7 13.2-9.4c25.8-18.3 45.4-40.5 64-65.8 21-28.7 42.1-48.8 77.9-56.7 24.7-3 48.9.9 70.3 13.6zm442.5 3.2c3.7 3.1 7.1 6.5 10.5 9.8l2.4 2.2c6 5.8 11.1 12.3 16.2 19 11.6 15 23.3 30 36.4 43.8q1.1 1.2 2.3 2.4c11.8 12.1 25.8 21.6 39.5 31.3 27.7 19.6 46.7 39.4 52.7 74 .2 2.1.4 4.2.5 6.3q.1 1.3.1 2.7c.5 23-6.2 44.6-21.1 62.3q-.9 1.1-1.8 2.2c-15.3 18.3-39.7 28.7-63.2 30.8-28 1.3-52.2-6.2-73-25q-1.5-1.2-3.1-2.5c-22.4-19.2-30.4-49.8-35.5-77.6q-.8-4-1.5-8c-3.2-16.6-5.6-33.3-7.3-50.2-4.3-44.4-17.5-84.3-51.6-114.7-4.2-3.5-8.6-6.7-13-10 1-3 1-3 3.2-4.4 32.3-16.1 77.7-18.3 107.3 5.6z" fill="#e58b00"/><path d="M505.6 338.8q3.6 0 7.2 0c20.1-.1 44.9.6 60.6 14.9 6.7 7.3 8.3 14.9 8 24.7-1.7 15.9-9.4 30.3-21.7 40.5-9.9 7.3-22.2 13.1-34.7 13.1 4.9 14.3 12.1 27.1 25.9 34.3 18 8.4 37.9 9.2 56.6 2.5 16.9-6.9 25.3-17.2 32.5-33.8 1.1-3.1 2.1-6.2 3.1-9.4 1.6-4.6 3.4-8.3 7.2-11.5 5-2 9.1-1.6 13.9.4 4.5 2.5 6.4 5.7 7.8 10.5 2 14.7-7 30.8-15.3 42.2-8.1 10.3-17.4 19.7-29.2 25.5-3.6 1.9-6.5 3.5-9.5 6.3-1.2 3.7-1.4 7-1.6 10.9-.9 14.7-10.5 29.9-20.4 40.1-2.4-3-4-6-5.6-9.4-3.6-7.3-8.2-13.4-13.4-19.6q-1-1.1-1.9-2.3c-7.2-7.9-18.3-14.9-29.1-15.7q-1.7-.1-3.5-.3c-8.3-.3-16.5.3-23.5 5.3-1.1 2.5-1.1 2.5-1 5 1.8 2.2 1.8 2.2 3.4 3.6 1.9 1.6 3.5 3.4 5.2 5.2q.9.9 1.8 1.8c4.5 6.5 5.5 14.2 6.8 21.8q.3 1.5.5 3c1 6 1.7 11.6 1.3 17.6-2 2-2 2-4.9 2.4-3.1-.4-3.1-.4-4.7-2.1-1.5-2.4-2-4.2-2.6-7-.3-1.3-.3-1.3-.5-2.7q-.3-1.4-.6-2.9c-3.5-16.1-8.9-35-23.6-44.6-8.8-4.7-17.9-7.3-27.8-4.3-9.4 4.2-15.3 11.7-19.2 21.1-4.7 13.5-6.3 25.8-4.1 40.1-6.6-3.3-11.6-7.9-17-13q-1-.9-2.1-1.9C415 537.3 407.7 517.9 406 498q-1.1-.4-2.1-.7c-21-8-37.7-24.7-47.6-44.7-1.2-2.8-2.3-5.7-3.3-8.6q-.6-1.7-1.3-3.4c-1.3-6.6-2.4-14 .5-20.2 2.5-3.5 4.8-5.8 8.8-7.4 4.6-.4 7-.5 11.2 1.5 5.4 4.9 7 11.1 9.2 17.8 4.3 13.6 11.1 25.3 23.8 32.4 18.1 8.7 37.6 11.5 57.1 5.6 16.7-5.9 26-15.9 33.7-31.3 1.2-2.7 2.1-5.2 3-8l-3.3.2c-14.4-.1-28.4-7.1-38.6-17q-1-1.1-2.1-2.2c-.8-.8-.8-.8-1.7-1.6-9.6-10-13.8-23.7-13.7-37.2.2-8.9 2.6-14.8 9-21 15.8-12.5 37.7-13.4 57-13.4z" fill="#013f4e"/><path d="M261 557q1 0 2 0 1.6 1.9 3.1 4c9.9 12.7 21.9 23.6 34.9 33q.9.6 1.7 1.3c50.6 36.3 117.6 47.2 178.4 50.2q1.2 0 2.3.1 5.6.3 11.1.5c7.3.3 13.5 1.2 20.2 4 12.4 5 29.3 2.8 41.3-2.1q1.1-.5 2.2-1c3.5-1.3 7.1-1.7 10.8-2.1q2.5-.3 4.9-.5 1.2-.2 2.5-.3c17.5-2.1 34.5-4.9 51.6-9.1q1.5-.3 3-.7c39-9.2 76.1-25 105.8-52.3 2.9-2.6 6-4.8 9.2-7 2 8.7 2.2 17.3 2.3 26.2q0 1.7.1 3.4c0 15.6-6.6 23.4-17.1 34.4-10.6 10.3-22.6 18.5-35.3 26q-.9.5-1.8 1.1c-37.2 22-83.7 29.8-126.2 33.8q-3.9.3-7.8.7c-18.2 1.8-36.4 2.6-54.8 2.6-1.4.1-1.4.1-3 .1-63.4-.1-129.8-8-186.4-38.3q-1.7-.9-3.5-1.9c-14.8-8-27.4-18.5-39.5-30.1q-1-.9-2-1.9c-8.8-8.1-19.1-21.9-20.2-34.1-.4-14.9.7-27.7 10.2-40z" fill="#018fb4"/><path d="M560 506.4c17.7 9.5 30.9 28 37.1 47 3.9 15.6 2.6 29.7-3.1 44.6q-.6 1.5-1.1 3.1c-6.4 16.5-16.3 32.5-29.9 43.9q-1 0-2 0 0 1 0 2-3.4 1.2-6.8 2.4c-.9.4-.9.4-1.9.7-13 4.7-28.2 4.5-41.3-.1q-1.3-.4-2.6-.9c-22.1-8-38-30.3-48-50.7-10.3-22.3-17.7-45.5-9.4-69.4 4.4-11.3 10-20 21.3-25.1 8.8-2.9 17.6-1 25.7 3.1 14.8 8.9 21.7 26 26 42 .9 4 1.6 7.9 2.3 12 .5 3.2.5 3.2 2.7 6 3 .3 3 .3 6 0 1.4-1.2 1.4-1.2 1.2-4.8-.1-5.7-1-11.1-2-16.7q-.2-1.5-.4-3c-1.4-8.1-3.5-15.7-9.3-21.8q-.9-1-1.8-2l-4.2-3.9c-1.5-1.8-1.5-1.8-1.4-4.2.9-2.6.9-2.6 3.1-4.1l2.7-1.2q1.3-.7 2.7-1.3c10.9-4.5 23.9-2.5 34.4 2.4z" fill="#eb6028"/><path d="M661 271c8.5 6.4 14.7 13.8 20 23q.6.9 1.2 1.9c2.5 5 2.5 10.6 1.8 16.1-2.1 4.2-3.7 6.2-8 8-4.8.8-8.2.4-12.6-1.8-4.1-3.3-6.6-7.8-9.4-12.3-5.2-7.7-11.2-12-20-14.9-9.4-1.2-16.2.8-24 6-5.6 4.4-10.6 9.4-15.4 14.6-3.8 3.4-7.4 3.9-12.3 3.8-4-.7-5.6-2.5-8.3-5.4-2.3-4-2.6-7.4-2-12 3.3-8.8 8.4-15.5 15-22q1-1 1.9-2c20-19 50.1-17.7 72.1-3z" fill="#013e4e"/><path d="M426.1 268.8c9.6 7.2 20.3 17.2 22.5 29.4.1 4.5 0 8.5-2.4 12.4-3.8 4.1-6.3 4.6-12 4.9-6.4-1.4-10.7-6.9-15-11.4-7.3-7.7-14.9-13.1-25.8-13.4-8.7.1-14.9 3.1-21.3 9-3.2 3.5-5.8 7.4-8.4 11.3-3.2 4.7-6.5 8.3-12.3 9.5-4.1 0-6.7-.1-10.4-2.2-3.5-4.1-4.5-7.7-4.3-13.1C338.5 292 349 280.1 359 272c20.3-14.3 45.5-16.8 67.1-3.2z" fill="#023e4f"/><path d="M315.7 828.3c4.6.3 7.2 2.4 10.4 5.5 20.2 23.4 24.4 58.9 27.9 88.2q.2 1.4.3 2.8c.9 7.9.8 15.9.8 23.9q0 2.1-.1 4.2 0 5 0 10.1c-6.8-.5-12.6-2.5-19-5q-.1-1.2-.1-2.4c-1.9-53.7-1.9-53.7-21.8-102.3-4.3-6-5.9-10.2-5.6-17.7.9-4.8 2.3-6.4 7.2-7.3z" fill="#e48700"/><path d="M655 902q1.5 0 3 0c2.9 4.4 2.8 7.8 2 13-6.3 19.2-19.4 33.5-33.5 47.5q-.8.7-1.5 1.5-3.8 3.7-7.6 7.4-1.3 1.4-2.8 2.8c-1.2 1.3-1.2 1.3-2.5 2.5-3.7 4.1-4.3 6.8-4.1 12.3-2.8.9-4.4 1.1-7.2 1.1q-1.2 0-2.5 0-1.2 0-2.5 0-1.2 0-2.5-.1-3.2 0-6.3 0c-.6-8.8 1.1-13.8 6.1-20.9 3.1-3.6 7-6.4 10.7-9.4 6.4-5.2 12.3-11 18.2-16.7q.8-.8 1.7-1.6c11.2-10.7 19.9-22.5 28.4-35.5 1.9-2.9 1.9-2.9 2.9-3.9zm-95.9 4.5c3.1.8 4.3 2.8 5.9 5.5 4.1 8.2.5 23.7-.5 32.2q-.3 2.1-.5 4.2-.6 5.4-1.2 10.8-.7 5.6-1.3 11.1-1.2 10.9-2.5 21.7h-21c1.2-14.7 2.6-29.2 4.5-43.8q.6-4.5 1.2-9c4.3-33.4 4.3-33.4 15.4-32.7z" fill="#e58700"/></svg>