<svg xmlns="http://www.w3.org/2000/svg" width="1024" height="1024" xmlns:v="https://vecta.io/nano"><path fill-rule="evenodd" d="M507.1 84.7q4.1 0 8.1 0c15 0 29.8.1 44.7 2q2.1.3 4.1.6 4.7.5 9.4 1.2 1.8.2 3.5.4c44.3 5.9 89.8 20 125.5 47.8q.8.7 1.6 1.3c4.4 3.3 8.8 6.6 12.6 10.7 7.7 8.6 13 13.5 24.5 15.5 15.2 2.7 30.9 13.1 42.9 22.5q1.5 1.1 3 2.3c19.4 14.2 35.6 32.1 51 50.4q1.5 1.8 3 3.6c19.1 22.7 36.5 46.6 53.4 70.9q2.7 3.9 5.4 7.7l19.8 28.7q1.8 2.8 3.6 5.6c16.9 25.4 34.1 52.1 41.3 82.2q.3.9.5 1.9c5.1 20.7 3.7 40.8-3 61-8.9 22.7-25.5 40.6-47.6 50.7-21.7 9.2-49.1 12-71.4 3.3-40.9-16.8-62.8-55.2-79.6-93.8q-.7-1.6-1.4-3.2c-1.7 8.4-3.6 16.6-6 24.8q-.5 2-1.1 3.8c-6.5 22.5-12.9 47.3-26.5 66.7-1.5 1.9-1.5 1.9-2.4 3.7.2 2.5.9 3.8 2.3 5.9 8.4 11.2 9.8 23.5 8.7 37.1-1 3.7-1 3.7-1.3 5.8.5 3.4.5 3.4 6 8.8q1.2 1.3 2.5 2.4 4 4 8 7.8 4.2 4 8.3 8 2.6 2.6 5.2 5.2c4.5 4.3 9 8.6 13.1 13.3 1.8 2.1 3.7 4.2 5.7 6.3q1.1 1.1 2.2 2.2 1.4 1.3 2.6 2.6l20.2 20.4q.9 1 1.9 2 5.2 5.6 10.3 11.4c1.6 2 3.3 3.8 5.1 5.6 3.4 3.3 6.6 6.8 9.6 10.5 3.6 4.6 7.4 8.9 11.4 13.3 10.2 11.2 20.2 22.6 29.8 34.4q1.9 2.4 3.8 4.8c11.2 13.5 22 27.3 32.1 41.6q1.9 2.8 3.9 5.6c5.3 7.3 10.5 14.7 15.3 22.4q.7 1.2 1.4 2.3c2.7 4.4 5.2 8.5 6.9 13.3-11.2 14.9-25.1 28-39.5 39.8-.8.6-.8.6-1.5 1.2q-9.9 8.2-20.3 15.8c-.9.6-.9.6-1.7 1.2-58.3 42.6-129.4 66.9-200.1 79.3q-2 .4-3.9.7c-30.9 5.3-62 9.2-93.3 10.8q-1.9.1-3.7.2c-73.4 3.6-147.9.6-220.7-9.4q-2.2-.3-4.3-.6c-21.7-2.9-43.2-6.8-64.4-12.3l-2.8-.8q-1.3-.3-2.6-.6-1.2-.4-2.4-.7c-2.1-.5-2.1-.5-3.8-1.6-2.4-6.2-2.4-6.2-3.6-12.7q-.4-1.6-.7-3.2c-9.5-50.1-14.8-100-14.9-151.1v-3.8c0-59.6 7.5-115.5 25-172.4q.5-1.4.9-2.8.8-2.7 1.6-5.3c1.7-5.3 4.3-10.9 3.1-16.4-3.9-13.2-3-24.4 3.2-36.7.6-1.2.6-1.2 1.2-2.3q.6-1.2 1.2-2.3c1.5-2.3 1.5-2.3 2-5-1-2.1-2.2-4-3.6-5.9-18.5-37.7-18.5-37.7-28.1-79-.8-3.5-1.9-6.8-3.3-10.1-11.7 26.1-24.5 52.9-46.5 71.9q-1.3 1.1-2.5 2.1c-10.2 8.9-21.2 15-34.1 18.9-26.6 7.5-52.9 5.6-77.1-7.9-20.9-12.2-33.4-34-39.8-56.6-7.9-34.5 2.7-66.6 19.4-96.5q.8-1.5 1.6-2.9c17.9-32.1 39.5-62.3 61-92q1.5-2.1 3.1-4.2.8-1.1 1.6-2.3 2.5-3.4 4.9-6.8c7.2-10 14.5-19.8 22.1-29.4q2.4-3.1 4.8-6.2c5.9-7.6 11.8-15 18-22.2q1.3-1.5 2.5-2.9c10.6-12.7 22.7-24 35.4-34.6q.8-.7 1.6-1.4c13.4-11.3 29.4-23.5 47-26.9 5.5-.9 9.8-1.1 13.6-5.5 6.8-8.1 6.8-8.1 14.8-15.2l1.6-1.4c51.1-45.9 127.8-57.8 194.1-57.3z" fill="#d9870c"/><path d="M723 560c2.5.4 3.8.7 5.6 2.6 7.8 11.7 9.5 23.7 8.4 37.4-.5 1.8-.5 1.8-1.1 3.6-.4 3.1-.1 4.2 1.7 6.8 2.5 2.8 5.2 5.4 7.9 7.9q1.5 1.5 3 3 3.9 3.8 7.9 7.6 4.8 4.7 9.5 9.3 3.7 3.6 7.4 7.2c4.6 4.5 9 9 13.2 13.8 2.3 2.7 4.7 5.1 7.2 7.5q.7.8 1.5 1.6 2.4 2.3 4.8 4.7c12.2 12 12.2 12 17.4 18.2 2.7 3.1 5.6 6.1 8.5 9.1 4 4.3 7.9 8.6 11.5 13.1 3.8 4.8 7.9 9.2 12.1 13.6 5 5.3 9.8 10.6 14.3 16.2 2.6 3.3 5.3 6.5 8.1 9.6 4.9 5.8 9.7 11.7 14.3 17.6q2.8 3.6 5.7 7.2c13.4 16.4 25.3 33.8 37.1 51.4q.9 1.4 1.9 2.8 2.6 3.9 5.2 7.8l1.6 2.4 1.4 2.2q.6 1 1.3 2c.6 1.8.6 1.8-.2 3.9-9.4 14.8-23.9 28.2-37.7 39-2.7 2.1-5.3 4.3-7.9 6.6C820.5 957.3 721 984.3 627 995q-1.2.1-2.4.3c-58.7 6.7-118.7 6.2-177.6 2.7q-1.6-.1-3.2-.2c-50.9-3.1-102.1-7.7-151.7-20q-1.1-.3-2.1-.6c-11.4-2.8-11.4-2.8-15-5.2-.8-2.7-1.4-5.3-1.9-8.1q-.3-1.3-.5-2.6c-2.1-10.7-3.9-21.5-5.6-32.4q-.3-1.6-.5-3.3c-11.7-73.7-14.8-149.7-2.5-223.6q.2-1.5.5-3c4.1-25.3 11.3-50 18.9-74.4q.4-1.1.7-2.2.7-2.1 1.3-4.2c1.9-5.9 3-9.8 1.2-15.8-3.2-12.1-1.7-23.3 4-34.5 1.4-2.4 2.8-4.7 4.4-6.9 3.7 1.5 5.4 3.6 7.8 6.8 22.3 27.8 55.9 46 89.2 57.2q1.8.6 3.7 1.3c18.7 6.2 37.7 10.4 57.3 12.3 2.6.3 5.1.8 7.7 1.4 5.4 1.1 10.7 1.4 16.3 1.6q1.5.1 3.1.1c32 1.1 64.3 2.1 95.9-3.7q1.9-.3 3.8-.7c51.2-9.4 109.1-28.2 140.4-73q1.4-2.2 2.8-4.3z" fill="#d8860c"/><path d="M729 162c35.3 2.8 65.3 31.1 89.1 54.9q1.3 1.3 2.6 2.6c5.1 5.1 9.9 10.3 14.3 15.9 2.4 3.1 4.9 6 7.4 8.9 5.7 6.8 11.2 13.7 16.6 20.7q.9 1.2 1.8 2.4c7.8 10 15.4 20.1 22.5 30.6q5.5 8.2 11.3 16.2c6 8.2 11.7 16.4 17.4 24.8q.6.9 1.2 1.8c62.4 92 62.4 92 53.7 141.9-4.7 23.9-16.9 45.2-36.4 60.2-22.7 15.3-49.5 19.6-76.4 15.5-29.4-5.8-52.2-29.6-68.4-53.2-7.1-10.9-12.7-22.7-18.3-34.3q-1.4-2.9-2.8-5.7c-3.2-6.5-4.7-12.4-5.4-19.6q-.2-1.7-.4-3.4c-2.2-24.4-1.3-48.8 1.9-73.1q1-7.4 1.9-14.9.8-6.5 1.7-13.1c8-61.7 1.9-123.9-33.9-176-1.4-2.1-1.4-2.1-1.4-3.1zm-436 1q-1.2 1.3-2.4 2.6c-23 26.9-31.3 62.2-35.6 96.4-.3 1.9-.3 1.9-.5 3.8-.5 4-.7 8.1-.7 12.2q0 1.1 0 2.2 0 3.6 0 7.2 0 1.2 0 2.5c.1 25.8 3.2 51 6.7 76.5 10.8 77.6 10.8 77.6-5.3 108.2l-3.9 8c-4.8 9.9-9.7 19.5-16.3 28.4q-1.1 1.5-2.2 3c-17.3 23.7-38.4 40.2-67.8 46-23.8 3.7-48.1.7-68.3-13-15.7-11.9-27.3-27-34.1-45.6q-.3-.9-.7-1.9c-6.8-19.9-6.3-44.6.1-64.5q.4-1.2.8-2.4c3.5-10.8 8.2-21 13.4-31.1q.7-1.4 1.4-2.8c9.2-17.3 20.1-33.5 31.1-49.7q2.7-4.1 5.5-8.2c6.8-10 13.7-20 20.9-29.8 3-4.1 5.9-8.3 8.8-12.4 13.2-18.8 27.1-37 41.6-54.8q2-2.4 4-4.9c4.3-5.3 8.8-10.5 13.4-15.6q2.7-3 5.3-6.1c7.7-8.8 16-16.9 25.1-24.1q2.7-2.1 5.2-4.3c14.4-12.3 34.9-26.2 54.5-25.8z" fill="#b15f03"/><path d="M723 560c2.5.4 3.8.7 5.6 2.6 8.3 12.4 10.1 25.7 8 40.2-3 11.9-11.7 22.2-19.6 31.2q-.8.9-1.6 1.9c-12.2 13.2-29.8 22.6-46.4 29.1q-1.5 0-3 0 0 1 0 2c-6.4 3.2-11.8 5.6-19 6q0 1 0 2c-7 2.9-13.7 5.4-21.2 6.6-1.8.2-1.8.2-2.8 1.4q-2.1.5-4.3.9-5.8 1.1-11.7 2.5c-15.6 3.6-31.1 6.6-47 8.6q-1.4.2-2.8.4c-22.1 2.6-44.5 1.9-66.6 1.6q-3.4 0-6.9 0c-22.1-.2-50-1.4-70.5-10.6-3.6-1.6-6.9-2.3-10.8-3-4.6-.8-9-1.8-13.4-3.4q0-1 0-2-1.2-.2-2.5-.4c-9.9-1.9-18.4-5.2-27.5-9.6q-1-.5-2.1-1-6.1-3-12.1-6.1-2.3-1.2-4.7-2.3c-21.8-11.3-45.1-29.4-53.1-53.5-3.6-13-2.6-25.1 3.6-37.2 1.4-2.4 2.8-4.7 4.4-6.9 3.7 1.5 5.4 3.6 7.8 6.7 22.3 27.9 55.9 46.1 89.2 57.3q1.8.6 3.7 1.3c18.7 6.2 37.7 10.4 57.3 12.3 2.6.3 5.1.8 7.7 1.4 5.4 1.1 10.7 1.4 16.3 1.6q1.5.1 3.1.1c32 1.1 64.3 2.1 95.9-3.7q1.9-.3 3.8-.7c51.2-9.4 109.1-28.2 140.4-73q1.4-2.2 2.8-4.3z" fill="#e54429"/><path d="M506.2 388.7q3.4.1 6.9 0c8.8 0 17.2.6 25.9 2.3q1.1.2 2.2.4c15.2 3.2 31 10.1 40.8 22.6 8.4 13 10.4 27.8 7.4 43-4.7 16.3-16.7 29.3-31.2 37.9-8 4.4-19.9 10.1-29.2 10.1 4.7 15.3 9.8 28.9 24.4 37.3 12.9 6.6 25.5 7.5 39.6 3.4 4.9-1.7 9.6-4.2 14.2-6.7 5.5-2.9 9.7-3.7 15.8-2 2.4 1.3 2.4 1.3 4 2.9q.8.8 1.7 1.6c2.8 3.2 2.6 6.1 2.5 10.2-.4 4.2-1.7 6.9-4.7 9.8-17.5 14.2-40.9 16.8-62.5 15.5-12.1-1.3-22.6-6-33-12q-1.3-.8-2.7-1.5c-5.9-3.7-10.5-8.5-15.3-13.5q-1.5-1.5-3-3-.9 1-1.7 2.1c-13.9 16.1-33 26.5-54.3 28.1-20.9 1-43.3-1.1-60.4-14.7-3.5-3.4-5.4-6.5-5.8-11.5.3-5 2.3-8 5.6-11.7 3.1-2.6 6.5-2.6 10.4-2.6 3.9.5 7.1 2.3 10.6 4.1 9.5 4.9 18.2 7.8 29 7.7h2.8c7.4-.2 13.3-1.7 19.8-5.5q1.2-.6 2.4-1.3c11.9-7 17.8-19 21.4-31.9q.6-2.4 1.2-4.8-.9-.1-1.8-.2c-18.7-2.6-38.7-13.7-50.3-28.5-9.4-13.8-11.1-29-9.9-45.3 2.3-11.9 10.4-20.9 20-28 17.7-10.9 36.7-14.4 57.2-14.3z" fill="#00404e"/><path d="M663.5 276.5c10.1 6 17 14.5 20 25.7 2.3 12.5.1 25-6.8 35.6-6 7.9-15 12.7-24.7 14.2-11.9 1-21.6-2-30.9-9.5-7.8-7.1-11.4-16.5-12.3-26.9-.4-10.8 2.6-21 9.2-29.6 11.5-12.4 29.9-16.3 45.5-9.5zm-265.9 3c8.2 5.9 13 13.8 15.4 23.5.4 3.1.5 6.2.4 9.3q0 1.2 0 2.5c-.3 12.4-4.4 21.4-13.2 29.9-9.9 7.1-20.3 8.4-32.2 7.3-9.5-2.2-17.4-8.2-23-16-6.1-9.9-7.5-21.3-5.5-32.7 2.6-9.9 8-18.5 16.5-24.3 13.2-7.2 28.4-7.1 41.6.5z" fill="#013f4e"/><path d="M682 844c2.8 2.1 3.7 3.5 4.4 6.9.4 7.4-2.7 11.1-7.3 16.6q-2.1 2.6-4.1 5.3-1 1.3-2.1 2.6c-21.9 29.3-27.5 65.6-31.6 101L639 993c-4.6 1.5-9.3 1.1-14.1 1q-1.4 0-2.9 0c-.2-10.7.4-20.9 1.8-31.5l.2-2.2c5.2-42.2 14.7-83.3 46-114.3 4-2.7 7.3-2.8 12-2z" fill="#af5d02"/><path d="M467 902c3.5 3.6 4.5 5.9 4.5 10.9q0 1.9.1 3.7-.1 2.1-.1 4.1 0 1.1 0 2.2c-.2 25-2.5 50.1-4.5 75.1h-20c-.1-12.9.3-25.5 1.3-38.3l.2-2.8q.7-9.4 1.5-18.9.1-1.2.2-2.4.6-7.2 1.2-14.3.2-1.8.3-3.6c.6-6 1.3-10.1 5.3-14.7 3.1-1.6 6.6-1.9 10-1z" fill="#b05e02"/></svg>