<svg xmlns="http://www.w3.org/2000/svg" width="1024" height="1024" xmlns:v="https://vecta.io/nano"><path d="M508.8 75.8h2.9c72 .2 151 15.2 207.3 63.2q1.1 1.1 2.2 2.3.9.9 1.8 1.7c3.4-.2 3.4-.2 6-.6 25.3-3.2 50.2 5.1 70.3 20.5l8.7 7.1c.8.7.8.7 1.6 1.3 9.6 7.9 18.4 16.4 27.2 25.3q3.2 3.3 6.5 6.6 2.2 2.1 4.3 4.2c1 1 1 1 1.9 2 3.8 3.8 7.5 7.8 11 11.8 2.1 2.4 4.2 4.8 6.4 7.1 4 4.4 7.9 9 11.6 13.6q2.7 3.4 5.5 6.7c8.4 10.2 16.3 20.7 24 31.4.9 1.2.9 1.2 1.8 2.5A444.02 444.02 0 0 1 934 320q.7 1.1 1.3 2.3c20.8 35.4 31.6 74.6 21.3 115.5q-.3 1.1-.6 2.2-.3 1-.6 2.1c-7.6 27.8-26.3 53.4-51.5 67.9-11.2 6.1-22.5 9.5-34.9 12q-1.2.3-2.5.6c-25.4 4.1-50.2-5.6-71.5-18.6v2.1c-1.2 31.7-20.3 64.5-42.9 85.7-48 43.2-120.5 53.6-182.2 60.2q-1.1.1-2.3.3c-13 1.3-26 1.9-39.1 1.9q-1.1 0-2.3 0-6.1 0-12.1 0-4.9 0-9.8.1c-50.8.3-101.5-5.8-150.3-20.3l-2.8-.8c-25.3-7.7-51.4-18.5-72.2-35.2q-.8-.6-1.5-1.2c-25.5-20-40.4-48.9-48.5-79.8q-.3-1-.5-2-1.3-5-2.5-10-.9.7-1.9 1.3c-20.6 13.9-47.4 20.3-72 15.6-29-6.3-53.4-23.9-69.5-48.7C63 441.9 59 405.6 66.9 370c9.1-37.2 33.2-72 56.1-102q1.3-1.7 2.6-3.5c13.2-17.2 27-34 41.8-49.8q2.5-2.6 4.9-5.3 9.4-10.1 19.1-19.9.9-1 1.9-2c4.4-4.3 9-8.5 13.7-12.5q1.6-1.4 3.1-2.7c20.2-17.4 41.2-30.5 68.7-30.4q1.3 0 2.7 0c4.5 0 8.7.2 13.2 1.1 2.8.3 3.9.3 6.3-1.3q2.2-2 4.3-4.1c38.6-36.7 99.1-51.9 150.1-58.9q1.8-.2 3.6-.4c16.6-2.2 33.1-2.5 49.8-2.5z" fill="#fcc100"/><path d="M778 624c2 3 2.9 5.4 4 8.8q.5 1.8 1.1 3.6.6 1.9 1.1 3.8.3 1 .7 2c8.9 29.1 15.8 58.7 19.4 88.9q.2 1.8.5 3.7.5 4.9 1 9.9.2 2.4.5 4.9c1.9 19.6 2 39.1 2 58.7q0 5.4 0 10.8c.2 24.4-.7 48.4-3.1 72.7q-.3 3.6-.6 7.1-.2 2.5-.4 4.9-.1 1.1-.2 2.3c-.5 4.8-1.5 7.3-5.2 10.4q-2.6 1.6-5.4 3.1-1.4.8-2.9 1.7L782 926q-2.1 1.2-4.2 2.5c-32.6 18.8-71.5 28.8-107.7 38.4q-5.6 1.5-11.2 3.1c-13.1 3.5-26.2 6.1-39.5 8.2q-1.1.2-2.2.4c-28.2 4.6-56.6 5.9-85.1 5.8q-6.2 0-12.4 0c-22.7.1-45.1-1.1-67.7-3.4q-1.6-.2-3.2-.3-8.4-.9-16.7-2c-1.2-.1-1.2-.1-2.5-.3-18.3-2.3-36.5-5.6-54.6-9.4q-1.9-.4-3.9-.8A568.2 568.2 0 0 1 250 928l-2.7-1.2c-11.7-5.4-23.2-11.1-34.5-17.3q-4.1-2.2-8.2-4.3-3.9-2-7.8-4.1-1.9-1-3.8-1.9c-10.1-5-10.1-5-12-9.6-.4-3.2-.2-6.3 0-9.6q0-2.5-.1-5l-.1-17.9q0-1.6 0-3.3c0-17 .4-33.9 2.2-50.8q.2-1.7.4-3.5C190 738.7 213 681.4 244 629q1 0 2 0 1.6 2.4 3.1 4.9c12.1 19.6 31.6 30.6 51.9 40.1q1 .5 2 1c55.5 25.7 123.4 34.3 184 35h2.3c24.7.3 49.1.1 73.7-2q1.9-.2 3.8-.3c63.5-5.1 152.2-13.9 198.6-62.7 5.2-6.4 9.8-13.3 12.6-21z" fill="#fcc000"/><path d="M801.1 164.3q3.5 2.8 6.9 5.7.8.6 1.6 1.3c9.6 7.9 18.4 16.4 27.2 25.3q3.2 3.3 6.5 6.6 2.2 2.1 4.3 4.2.9 1 1.9 2c3.8 3.8 7.5 7.8 11 11.8 2.1 2.4 4.2 4.8 6.4 7.1 4 4.4 7.9 9 11.6 13.6q2.7 3.4 5.5 6.7c8.4 10.2 16.3 20.7 24 31.4q.9 1.2 1.8 2.5A444.02 444.02 0 0 1 934 320q.7 1.1 1.3 2.3c20.8 35.4 31.6 74.6 21.3 115.5q-.3 1.1-.6 2.2-.3 1-.6 2.1c-7.6 27.8-26.3 53.4-51.5 67.9-11.2 6.1-22.5 9.5-34.9 12q-1.2.3-2.5.6c-24.2 3.9-49.3-4.6-69.5-17.6-1.8-1.8-1.2-4.9-1.2-7.4q0-2-.1-4 0-1.1 0-2.1c-.3-13.7-1.3-27-3.7-40.5q-.4-2.2-.8-4.3l-3.6-20.1q-1.3-7.3-2.6-14.6-.2-1.2-.4-2.4c-2.2-12.9-3-25.5-3-38.6q0-4.8 0-9.6-.1-10.2-.1-20.3c-.1-65.8-2.2-136.9-49.5-187.9-2.1-2.3-4-4.7-6-7.2q-1-1-2-2c16.5-16.5 63.2 9.4 77.1 20.3zm-522.2-22.4q1.3 0 2.6 0c5.3 0 10.3.2 15.5 1.1q.5 1 1 2-1 1-2 2-.7.7-1.4 1.4-1.6 1.6-3.3 3.2C270.7 171 258.6 198.3 251 225q-.3 1-.6 2c-2.4 8.6-4.1 17.2-5.5 26q-.3 1.4-.5 2.8L243 266q-.1 1.1-.3 2.2c-2.9 25-2.1 50.4-2.2 75.5-.1 31.9-1.9 62.1-8.1 93.4q-.9 4.7-1.9 9.5-.5 2.9-1.1 5.8c-1.6 8.4-2.6 16.3-2.1 24.9q0 2.3.1 4.6.1 3.6.3 7.1c.7 13.2.7 13.2-2.7 17.5-2.6 1.9-5.1 3.2-8 4.5q-.9.5-1.9 1c-8.2 4.2-17.2 6.8-26.1 9-1.3.3-1.3.3-2.7.7-23.1 5.1-48.2-.8-68.2-13.1C89.4 489.1 72 462 65 428.2c-10-52.8 16.1-99.5 44.6-141.9 4.3-6.2 8.8-12.3 13.4-18.3q1.3-1.7 2.6-3.5c13.2-17.2 27-34 41.8-49.8q2.5-2.6 4.9-5.3 9.4-10.1 19.1-19.9.9-1 1.9-2c4.4-4.3 9-8.5 13.7-12.5q1.6-1.4 3.1-2.7c20.2-17.4 41.2-30.5 68.8-30.4z" fill="#eea100"/><path d="M253 571c3.3 3.2 6.2 6.4 8.9 10.1 31.5 38.5 89 53.5 135.6 62.4q3.2.6 6.5 1.3c8.9 1.9 17.9 3.1 27 4.3q1.8.2 3.7.5 6.1.7 12.3 1.4 1.2.1 2.5.3c17.6 1.9 35.3 2 53 2q4.8 0 9.6 0c80.2.5 184.1-8.8 244.9-67.3 4.3-4.4 8.6-8.9 12-14q1 0 2 0 2.7 6.5 5.3 13.1.9 2.3 1.8 4.6c4.1 12.1 4 28.7-1.4 40.4-20.3 34.9-62.4 50-99.5 59.9q-6.2 1.6-12.4 3.2c-1 .2-1 .2-1.9.5-17.5 4.3-35 7.9-52.8 10.4q-1.4.2-2.8.3c-12.8 1.9-25.7 3.4-38.7 4.4q-1 .1-2.1.2-7.2.6-14.5 1c-1.1.1-1.1.1-2.3.1-13.1.8-26.2 1.1-39.3 1.1q-1.4 0-2.9 0c-43.2-.1-86.1-4-128.5-12.2q-1.8-.3-3.6-.7c-42-8.1-99.5-22.8-125-60.4q-.6-.9-1.2-1.8-.6-.9-1.1-1.7c-4.8-7.6-6.6-15.1-6.5-24q0-1.3 0-2.7c.3-13.6 4.9-24.9 11.4-36.7z" fill="#019ec0"/><path d="M576.7 374.1c5.5 4.6 9.8 9.6 13.3 15.9q.6 1 1.2 2c4.3 7.8 4 17.6 2.1 26.1-5.7 16.8-19 31.7-34.2 40.5-9.8 4.5-23.2 10.1-34.1 9.4 6.1 18.5 16.7 30.2 33.6 39.4 21 10.3 44.3 9.9 66.2 2.8 9.1-3.4 16.9-7.8 24.2-14.2.9-.8.9-.8 1.8-1.5 8.8-8.1 13.3-18.3 17-29.4 1.9-4.9 4.6-8.5 9.1-11.2 3.9-1.6 7.9-1.4 12.1-.9 3.6 1.7 5.4 3.3 7.9 6.4 4 12.6-.4 25-6.2 36.3-3.3 5.9-7.1 11.2-11.7 16.3q-1.2 1.3-2.4 2.7c-20.1 21.2-49.1 32.3-78 33.5-27.1.8-56.2-5.9-76.4-24.9-4.2-4-8.2-8.1-12.2-12.3q-.9 1.1-1.9 2.3c-17.8 20.5-42.5 31.6-69.4 34.5-33 2.1-64.4-5.8-89.7-27.8-13.9-12.4-25.6-28.5-27.3-47.6-.4-10.3-.4-10.3 2-14.1 4-4 6.6-5.5 12.2-5.7 4.8.1 7.5 1.2 11.1 4.4 3.5 3.8 5.2 7.7 6.8 12.6 6 16.9 17 29.4 33.2 37.4 21.6 9.8 45.5 11.2 68 3.2 18.9-7.5 30.9-18.7 39-37.2.7-2.3.7-2.3 1-4l-2.1-.2c-16.9-2.3-33-9.6-45.9-20.8-1.1-1-1.1-1-2.3-2-9.4-8.6-16.4-20.2-17-33.2q0-2.1 0-4.2 0-1.1 0-2.3c.2-11.9 5.1-19.8 13.6-28 33.1-27.9 100.7-30.5 135.4-4.2zm88.7-104.3q1.9 1.6 3.6 3.2.8.8 1.7 1.6c7.4 7.7 9.7 19 9.6 29.4-1 10.7-6.7 19.3-14.7 26.2-8.8 6.1-19.1 7-29.4 5.3-9.4-2.2-17.5-6.3-23-14.3-5.5-9.6-8.1-19.1-5.5-30.1 3.4-10.1 9-19.2 18.6-24.3 12.7-5.9 27.4-5.4 39.1 3z" fill="#014453"/><path d="M393.6 267.6c7.3 4.2 12.5 9.5 15.4 17.4q.4 1.2.9 2.4c3.5 10.2 2.8 18.8-1.9 28.6-5.6 9.5-13.5 15.8-24 19-9.6 2.2-18.4.8-27.2-3.6-7.7-6.5-12.1-12.7-14.8-22.4q-.3-.9-.6-1.9c-1.8-8.9-1.2-18.3 3.6-26.1 11.1-15.4 30.9-21.1 48.6-13.4z" fill="#014353"/><path d="M696 841c3 1.8 3 1.8 5 5 1.2 7.5.3 13.8-4 20q-1.7 2-3.4 4.1c-13.8 17.2-13.4 42.6-15.2 63.5q-.6 7.3-1.2 14.6-.2 1.6-.3 3.3C676 962 676 962 674 966c-1.9 1.1-1.9 1.1-4.2 1.7l-2.5.6q-1.3.3-2.6.6-1.3.3-2.6.6c-4.1 1-7.8 1.6-12.1 1.5-.2-9 .4-18 1.2-27q.1-1.1.2-2.3c1-11.1 2.2-22.1 3.7-33.2q.3-2.1.6-4.3c2.7-20.6 9.2-37.8 22.3-54.2q1-1.3 2.1-2.7c4.7-5.6 8.9-7.3 15.9-6.3zm-167 61c3.8 2.9 5.5 5.5 7 10a39.34 39.34 0 0 1 .2 4.9q0 1.4 0 2.9 0 1.5 0 3.1 0 1.6 0 3.2c-.2 19.4-1.6 38.6-3.2 57.9h-24c-.1-12.7.2-25.3 1-38q.1-1 .1-2.1.5-6.9 1-13.9.1-2.4.3-4.7c1-15.6 1-15.6 6.6-22.3 3.5-1.7 7.2-1.6 11-1z" fill="#eb9b00"/></svg>