<svg xmlns="http://www.w3.org/2000/svg" width="1024" height="1024" xmlns:v="https://vecta.io/nano"><g fill="#024753"><path fill-rule="evenodd" d="M507.8 76.6q2 0 3.9 0c15.8 0 31.5.3 47.2 2.2q1.1.1 2.1.2c45.9 5 89.7 16.3 128.8 41.5l2.8 1.8c6.8 4.5 14.6 9.6 18.6 16.9q.4.9.8 1.8c8.2-3.9 16.6-6.1 25.7-6.4 32.2.8 60.3 25.3 82 46.9q1 1 1.9 2c9 9 17.8 18.2 26.2 27.8q2.6 3 5.2 5.9c7.9 8.7 15.6 17.5 22.9 26.7q3.5 4.4 7.1 8.8c6 7.3 12 14.7 17.7 22.2q1.2 1.6 2.3 3.1 3.9 5.1 7.7 10.3.7.9 1.3 1.7c21 28.3 41.5 59 49.5 93.8q.3 1.1.5 2.2c2.3 9.6 3.2 19 3.3 28.9v3.9c0 6-.1 12-.7 18-6.3 45.1-27.8 87-64 115.3q-1.3 1-2.6 1.9c-17.9 13.3-37.1 20.7-59.5 20.4-19.4-.7-38.2-10.2-51.5-24.2q-1-1.1-2-2.2c-32.1-34.6-35.5-88.4-36-133.2q0-1.4 0-2.8c-1.4 6.3-2.4 12.5-3.2 18.9-1.4 10.3-3 20.4-5 30.6q-1.1 6-2.3 12.1c-4.5 24.4-17.7 87.2-3.1 108.5 10.2 12.3 12.9 30.7 12.5 46-.2 5.4-1.3 10.9 2.3 15.3 2.8 2.5 2.8 2.5 4.8 5.1 4.2 5.3 8.6 10.3 13.1 15.2 2.5 2.7 5.1 5.3 7.5 8.1 4 4.8 8.3 9.2 12.7 13.7q1.4 1.3 2.7 2.6c7.4 7.4 14.9 14.7 22.6 21.8q2.5 2.3 5.1 4.6c9.4 8.9 19.1 17.6 29.2 25.9q2.6 2.1 5.2 4.2 1.5 1.2 2.9 2.4 3 2.5 6.1 5 1 .9 2 1.8c3.2 2.6 6.2 4.9 8.2 8.6-1.2 4.6-1.2 4.6-4.1 8.5q-.9 1.2-1.8 2.3-2.7 3.7-5.5 7.3-1.9 2.4-3.7 4.9c-7.1 9.3-14.4 18.4-22.2 27.2q-1.5 1.7-3 3.4c-4.6 5.4-9.3 10.5-14.3 15.5-1.4 1.3-1.4 1.3-2.7 2.6-11.6 11.6-23.3 22.9-36 33.4q-1.5 1.3-3 2.5c-41.5 34.5-88.1 62.6-139.4 79.8q-1.8.6-3.6 1.2c-28.1 9.3-56.4 16.5-85.8 20.4q-3.1.4-6.2.9c-24 3.6-47.8 4.1-72 4.1q-1.2 0-2.4 0c-26.8 0-53-1.1-79.4-5.1-1.5-.3-1.5-.3-3-.5-13.9-2.1-27.9-4.3-41.8-7l-2.3-.4c-28.5-5.4-63.8-14-85.6-34.3-17.7-38.2-17.7-38.2-16.8-81.5q0-5.6.1-11.3 0-3.8 0-7.6 0-1.8 0-3.6c.2-52.8 11.6-109.6 32.6-158.1q.5-1.1.9-2.2.9-1.9 1.7-3.8c1.4-2.9 2.2-4.1 1.4-7.3-4.9-9.9-5.6-19.9-5.6-30.8q0-2 0-3.8c0-6.5-.3-12.8 1.2-19.1 2.5-7.1 6.1-19.4 13.1-23.1q1-.5 1.9-.9c-.3-36.4-.1-72.6-7.2-108.4-1.4-7.1-2.5-14.2-3.4-21.3-1.4-11.5-3.3-22.9-5.4-34.3q-.1 4.7-.3 9.4c-.1 1.9-.1 1.9-.1 3.9-1.4 42.9-7.7 95.9-40.7 127.2-17.7 15.5-36 22.9-59.6 21.7-24.3-2.3-51-17.9-66.9-36.1-1.8-2.2-3.7-4.4-5.7-6.5-19.9-21-32.8-48.7-39.1-76.8q-.3-1.4-.6-2.8c-2.2-10.2-3.4-20.1-3.4-30.5q0-3.4 0-6.8c-.1-14.2 1.7-27.3 6.2-40.9.5-1.4.5-1.4.9-2.9 3-8.6 6.1-17 10.3-25.1q.5-.9 1-1.8c13.4-26.3 31.2-50.8 49.7-73.6q3.6-4.5 7.1-8.9c5.5-7.2 11.2-14.1 17.1-21q3.2-3.6 6.3-7.2 3-3.6 6.1-7.2 1.4-1.5 2.7-3.1c3.4-4 6.8-7.8 10.5-11.5 1.8-1.8 3.5-3.5 5.2-5.4 7.2-8.4 15-15.9 23.2-23.3q2.3-2.1 4.6-4.2c14.5-13.5 29.4-27 47.3-36.1 1.6-.7 1.6-.7 3.2-1.5 13.3-6.6 30.2-7.6 44.5-3.2q1.2.4 2.3.8 1.2.4 2.4.8.9.3 1.8.6c12-11.5 25.2-20.1 39.8-27.8q1.1-.6 2.2-1.2c49.7-26.5 105.2-34.3 160.8-34.4z"/><path d="M746 640c3.8 1.5 5.7 3.8 8.2 7 3.7 4.6 7.5 9.1 11.5 13.4q2.8 3.2 5.7 6.5c9.4 10.8 19.4 21 29.5 31.2q1.3 1.3 2.7 2.6c4.4 4.4 8.8 8.6 13.5 12.7 3.2 2.7 6.2 5.6 9.2 8.5 5.1 4.8 10.3 9.4 15.8 13.8a309.24 309.24 0 0 1 12.3 10.5c3 2.5 5.9 5.1 9 7.5q1.4 1.1 3 2.3 1.3 1 2.6 2c2.4 2.4 2.7 3.7 3 7-.9 2-.9 2-2.4 3.9q-.8 1.1-1.6 2.2-.8 1.2-1.8 2.3-.8 1.2-1.8 2.5-2.7 3.5-5.4 7.1c-.7 1-.7 1-1.5 2-6.4 8.4-13.3 16.5-20.2 24.5q-1.6 1.9-3.2 3.7-2.5 2.9-5.1 5.8-1.1 1.3-2.3 2.6c-6.8 7.5-13.8 14.6-21 21.8q-.7.7-1.4 1.4c-5.6 5.6-11.3 11.1-17.3 16.2q-1.6 1.4-3.2 2.9c-9 7.8-18.3 15-27.8 22.1q-1.1.8-2.2 1.6C735.5 901.3 716 912.9 696 924q-1.2.7-2.4 1.3c-31.4 17.5-66.7 29.3-101.6 37.7q-1.4.3-2.9.7c-14 3.3-28.1 5.9-42.4 7.8q-3.7.5-7.5 1.1c-23.2 3.4-46.3 3.8-69.7 3.8q-3.6 0-7.1.1c-27.8 0-55.2-1.8-82.7-6.3q-1.1-.1-2.4-.3c-51.7-8.2-51.7-8.2-76.3-16.9q-1.4-.5-2.8-1c-17.6-6.2-38.4-13.7-49.2-30-5.6-11.7-8.3-24.1-9.7-36.9-.2-1.8-.2-1.8-.3-3.7-1.3-13.4-1.5-26.7-1.4-40.2q0-1.9 0-3.8c.1-19 .7-37.6 3.4-56.4q.2-1.6.4-3.3c5.1-37.9 11.9-87.1 33.6-119.7 3.5 1.2 4 2.1 6.1 5 29.4 38.8 92.2 53.5 137.7 60.2q3.1.4 6.2.8c1.8.3 1.8.3 3.7.5 83.8 11.4 186 12 288.8-43 13.7-10.8 25.3-23.8 28.5-41.5z"/></g><path d="M794 159.3c5.3 4.3 10.4 8.8 15.4 13.4q2.2 1.9 4.3 3.8c5.6 4.7 10.7 9.8 15.9 14.9q1.2 1.2 2.4 2.5a260.02 260.02 0 0 1 12.4 13.3c2.4 2.7 5 5.4 7.5 8.1 4.4 4.8 8.7 9.7 12.8 14.8 2.6 3.3 5.4 6.5 8.2 9.7 5.4 6.3 10.5 12.7 15.6 19.3q2.4 3.1 4.8 6.1c7.7 9.7 15 19.6 22.1 29.6q2.3 3.2 4.7 6.4c18.6 25.8 34.5 53.7 41.9 84.8q.2 1 .5 2.1c4.7 20.3 4.3 42.7-.5 62.9q-.2 1.1-.5 2.3c-6.9 30.2-20.2 59-42.1 81.3q-2.1 2.2-4.2 4.4c-17.6 18.5-42.2 34.4-68.3 35.3-23.9.3-42.8-7.5-60.1-24.2-20.5-21.2-28.7-50.8-33.8-79.1q-.2-1.3-.5-2.6c-1.2-6.8-1.9-13.6-2.5-20.4q-.2-1.9-.3-3.8c-2.4-27.9 1.7-54.6 5.8-82.1 3.7-24.8 4.8-49.3 4.9-74.4v-3.4c.1-20.5-1.3-40.7-6.2-60.6q-.3-1.6-.7-3.2c-2.5-10.1-5.7-19.8-9.5-29.5q-.4-1.1-.8-2.1c-6.9-17.6-17.5-34.8-31.2-47.9q3.1-1.2 6.1-2.4 1.7-.7 3.5-1.4c26.7-9.3 52.1 6.3 72.4 22.1zM319 128c0 3 0 3-1.3 4.5l-5.6 4.5q-1 .7-2.1 1.5-1 .7-2 1.5-2 1.5-4 3l-2-1q-.4 1.1-.8 2.2c-1.3 2.9-2.7 4.8-4.8 7.2-23.9 29.3-37 71.3-39 108.8q0 1.2-.1 2.3c-.5 9.7-.5 19.3-.5 29q0 1.4 0 2.9c0 15.3.5 30.4 2.2 45.6q.1 1.1.2 2.2c2.5 21.6 5.4 43 9.4 64.4 3.8 23.5-1.3 52.4-6.6 75.4q-.3 1.3-.6 2.6c-3.2 13.7-7.3 26.6-13.4 39.4-.5.9-.5.9-.9 1.9-3.8 7.8-8.3 14.6-14.1 21.1q-1.1 1.2-2.2 2.5c-12.9 13.7-30.3 23.8-49.4 24.9-28.1.7-51.4-11.3-72.4-29.4q-1.3-1.1-2.7-2.3c-5.2-4.6-9.9-9.3-14.3-14.7q-1.1-1.4-2.3-2.8C73.4 505 63 481.2 57 456c-.5-1.8-.5-1.8-.9-3.7-2.1-8.4-3.2-16.6-3.3-25.3q-.1-1-.1-2.2c-.1-15.6-.3-30.7 4.3-45.8q.3-1.2.7-2.4c13.9-46.2 45.7-85 75.8-121.8q2-2.4 3.9-4.8c8.5-10.4 17.3-20.6 26.4-30.5q3-3.4 5.9-6.8c2.7-3.1 5.6-6 8.6-8.9 1.7-1.8 3.3-3.7 5-5.6 6.3-7.3 13.2-14.1 20.6-20.3 2.6-2.3 5-4.7 7.5-7 18.6-17.3 41.5-35 67.7-35.2q1.5 0 3 0c6.9 0 12.5 1.1 18.9 3.3 2 .8 2 .8 4 1 2.1-1.5 3.8-3 5.6-4.8 5.3-5.1 5.3-5.1 8.4-7.2z" fill="#02353d"/><path d="M431 413q-.4 1-.9 2.1c-5.3 13.9-4.4 28.8 1.4 42.4 3.5 7.7 7.9 14.2 13.5 20.5q.8.9 1.6 1.9c11.8 13 29.8 19.9 46.4 24.1.9 15.4-2.1 29.4-11.8 41.8-8.2 8.9-20.9 12.6-32.8 13.4-17.9.1-33.6-5.9-48-16.6-4-2.7-7.2-3.4-12.1-3.1-4.9 1-7.5 3.6-10.7 7.2-2.1 4.3-2.4 7.6-1.6 12.3 5.3 11.4 21.5 19.1 32.8 23.6 23.2 8.1 49.8 10.2 72.7-.3 7.8-3.9 14.7-8.8 21.5-14.3q2.5-2 5-4c3.3 1.4 5.8 3.4 8.6 5.7 7.5 6.4 15.2 10.9 24.4 14.3q1.7.6 3.4 1.3c18.6 5.8 41.3 4.9 59.6-1.3q1-.3 2.1-.7c12.8-4.2 28.7-10.3 36.1-22.3 1.4-3.6 1.3-7.2.8-11-2.1-4.4-4.6-7.1-9-9.3-4.8-1.7-8.9-1.7-13.4.4-2.6 1.6-5.1 3.2-7.6 4.9-7.6 5-15.3 8.3-24 11q-1.1.4-2.3.8c-13.3 3.6-28.3 1.6-40.5-4.5-10.9-6.4-16.5-15-20-27q-.6-2.7-1.2-5.3-.3-1.5-.7-3c-.5-4.7-.4-9.3-.3-14q1.3-.3 2.6-.6c15.1-3.6 30-9.6 41.4-20.4 1.1-1 1.1-1 2.3-2 10.5-9.8 15.9-21.5 19.7-35q.3-1 .6-2c1.8-9.1 1-18.5-2.7-27-.9-2-.9-2-.9-4 9.5-4.6 19.9-4.5 29.9-1.1 25.6 11.4 40.4 46.6 52.1 70.1q.6 1.1 1.2 2.3c13.2 26 27.9 61.5 18.9 91.1-8 23.4-28.4 41-50 51.7-16.1 7.6-32.7 12.2-50.1 15.9-1.1.2-1.1.2-2.2.5-24.2 5.4-48.8 6-73.5 5.8q-4.4 0-8.7 0c-20.6 0-40.8-.7-61.1-4.1q-1.5-.3-3.1-.5c-37.1-6.3-75.8-18.2-99.7-49.4Q324 571.5 328.5 543c7.9-41 30.6-100.1 64.5-126.7 11.4-7.4 25.6-9.5 38-3.3z" fill="#eca10b"/><path d="M285 576q.3 1.7.7 3.4c4.9 24.4 15.6 41.5 36.3 55.3 5.8 3.8 11.9 7.1 18 10.3a66.96 66.96 0 0 0 2.7 1.4c48.8 24 112.8 26.8 166.1 26.8q1.5 0 3.1 0c28-.1 55.5-2.1 83.1-6.2q1-.2 2.1-.3c26.4-3.9 52.5-9.6 76.9-20.7q1.2-.5 2.5-1.1c15.6-7 15.6-7 29.5-16.9q1.3-1.1 2.6-2.2c13.3-12.3 19.5-29.4 23.4-46.8 4.1 3.7 6.4 7.3 8.6 12.4q.4 1 .9 2.1c7.3 18 10.3 37.8 3 56.3-4.3 9.1-9.6 16-16.5 23.2q-.8.9-1.6 1.8c-40.7 44.7-125.9 53.3-182.4 56-52.2 2.2-105-.7-156-12.8q-1.6-.4-3.2-.8c-37.1-8.7-84.9-24.1-107.5-57.4-7.7-12.7-8.5-25.5-8.6-40q-.1-1.8-.1-3.7c-.1-11.4 2.4-21.3 8-31.2q.8-1.6 1.7-3.2c3.6-5.7 3.6-5.7 6.7-5.7z" fill="#ec4b1b"/><path d="M578.5 403.8c7.8 6.9 12.9 14.9 13.8 25.5.5 19.4-6.7 35.9-19.6 50.2-11.5 12.2-28.1 21.5-44.7 24.5q-2 0-4 0c1.5 16.3 3.3 31.9 15.7 43.7 11.5 9.5 25.8 11.6 40.3 10.3 14.4-1.9 27.6-8.5 39.4-16.9 4-2.8 7.9-2.7 12.6-2.1 5.5 2 9.4 5.8 12 11 .5 4.5.5 8-1.5 12.1-8.8 10.1-19.5 16-31.9 20.6q-1.1.5-2.2.9c-11.9 4.3-23.6 5.9-36.3 5.8q-1.9 0-4 0c-20.8-.4-37.4-7.2-53.4-20.3-2.2-1.7-4.1-3-6.7-4.1q-1.3 1.1-2.7 2.2c-20.7 16.6-42.6 25.1-69.3 22.8-21.1-2.6-44.4-10.7-59-27-2.6-4.2-2.7-8.2-2-13 2.5-5 6-8.5 11-11 7.5-1.3 11.9.7 17.9 4.9 10.9 7.4 22.8 13.3 36.1 14.1q1.2.1 2.4.2c12.6.6 27.6-3.1 37.2-11.6 10.7-11.9 12.6-27.3 13.4-42.6-1-.1-1-.1-2-.3-15.8-2.4-30-10.2-42-20.7q-1-.9-2.1-1.8c-11.7-10.9-20.3-27-21.1-43.1-.2-13.5 1.7-21.9 11-32.1 32.1-31.4 107.6-29.6 141.7-2.2z" fill="#033036"/><path d="M672 285c7.6 5.3 12.8 11.7 16.3 20.1 2.2 12.5.6 22.8-6 33.6-5.3 7.5-11.4 12.7-20.3 15.3q-.9.3-1.8.6c-9.7 2-19.5.6-28.1-4.2-8.9-6-13.6-13-16.1-23.4-1.2-14.3 1.7-22.9 10.5-33.9 11.9-13.2 29.8-15.3 45.5-8.1z" fill="#023137"/><path d="M368.9 281.7q1.1 0 2.3-.1c8.7 0 16.1 3 22.6 9.1 7.6 8.1 9.8 16.1 9.7 27-.4 9.8-3.7 18.1-10.5 25.3-7.2 6.6-15.1 11.3-25 12q-1.4.1-2.7.2c-9.3.4-16.3-1.5-23.5-7.3-7.5-7-10.9-14.8-11.2-24.8-.2-9.7.6-16.9 6.4-25.1q.7-1 1.3-2c7.4-9.8 18.7-14.4 30.6-14.3z" fill="#023136"/><path d="M405.8 228.5c6.8 4.7 14.2 10.5 17.2 18.5 1 5.6.3 10.2-3 15-5 5.3-9.5 7.7-16.9 8.2-17 .5-34-6.5-47.1-17.2-4.2-4.2-6.7-7.8-7.4-13.8.1-5 2-8.6 5.4-12.2 14.9-10.7 36.8-7.5 51.8 1.5zm257.2-3.1c4.3 3.4 6.7 6.2 7.4 11.8-.8 7.9-4.6 12.8-10.6 17.8-13.9 10-30.5 16.3-47.8 15-6.3-1.4-11.2-4.3-14.8-9.7-1.9-5.3-2.3-9.5-.2-14.8 6.9-12.4 18.3-19.4 31.7-23.4 10.9-2.4 24.8-3.3 34.3 3.3z" fill="#eca30b"/><path d="M356 848c2.2 1.4 2.2 1.4 4 4 .6 3.5.5 7 .5 10.6q0 1.6 0 3.2-.1 5.3-.1 10.7 0 3.6 0 7.3-.1 9.8-.1 19.5-.1 9.9-.1 19.8-.1 19.4-.2 38.9-1 .1-2 .2-1.4.1-2.8.2-1.3.2-2.6.3c-2.3.3-4.4.7-6.6 1.3q0-1.5 0-3-1 0-2 0-.2-21-.3-42 0-9.7-.1-19.5-.1-9.4-.1-18.8 0-3.6 0-7.2-.1-5-.1-10 0-1.5 0-3c0-4.7.1-6.8 2.9-10.6 3.5-2.5 5.5-2.6 9.7-1.9zm115 20c2.5 2.1 3.8 3.9 4.3 7.1v8.3q0 1.6-.1 3.3 0 3.6-.1 7.3-.1 6.4-.2 12.9-.2 13.3-.4 26.7-.1 6.3-.1 12.7-.2 12.3-.4 24.7h-17l.2-60.2q0-5.5.1-11 0-5.5.1-10.9 0-3.1 0-6.1l.1-3.7v-3.2c.6-3.6 2-5.3 4.5-7.9 3.2-1.6 5.6-.8 9 0z" fill="#023137"/></svg>