<svg xmlns="http://www.w3.org/2000/svg" width="1024" height="1024" xmlns:v="https://vecta.io/nano"><path d="M512 75l4 2q0 3.2.1 6.5 0 1.8 0 3.7c-.1 3.8-.1 3.8-.6 7.6-.8 6.2-.7 12.4-.7 18.6q-.1 3.4-.1 6.8c-.1 9 .8 17 3.3 25.8 3.7-.5 5.9-1.4 8.9-3.7q1-.8 2.1-1.7 1.1-.8 2.2-1.7 2.3-1.8 4.6-3.6 1.1-.9 2.2-1.7c12.6-9.9 28.3-20.3 45-18.6q.5.5 1 1c-.4 8.1-2.9 15.4-5.4 23.1-3.2 9.9-5.9 19.6-7.6 29.9q1.5.3 3.1.6c14.3 3.1 28.3 6.9 42.4 10.8 10.8 2.9 21.6 5.8 32.6 8.1a20.48 20.48 0 0 1 2.4.5c4.7.9 8.8 1.3 13.5 0 1.3-1.8 1.3-1.8 2-4 1.4-1.7 1.4-1.7 3-3.4q.9-1 1.8-1.9c.9-1 .9-1 1.9-2q.9-1 1.8-1.9 2.7-2.9 5.5-5.8c.9-.9.9-.9 1.8-1.9 3.7-3.8 7.4-7 11.9-9.8 1-.6 1-.6 1.9-1.1 14.8-9.2 32.5-10.4 49.4-7.2 49.5 12.6 96.4 50.5 129.1 88.8 2.3 2.6 4.7 5.1 7 7.6 4.6 4.9 8.7 10.1 12.8 15.4q.8 1 1.6 2.1 2.3 3 4.5 6.1.7 1 1.5 2c3.1 4.6 4.1 7.9 4 13.6q0 1.9 0 3.8c-.7 5-2.3 8.3-5.7 12-3.7 2.1-6.6 2.2-10.8 1.6q-2.5-.9-5-2-2 0-4 0 .6 1.3 1.2 2.7c4 9.3 6.4 18.3 7.8 28.3l.4 2.7c2 17 3.2 37.5-7.3 51.9-2.1 1.4-2.1 1.4-4.9 1.7-7.8-3.1-12.1-11.9-16.3-18.8-1.9-2.5-3.1-3.2-5.9-4.5-3.7 12.9-7 25.9-9.8 39.1-2.5 11.1-6.5 21.8-15.1 29.5-4.2 1.9-5.7 1.9-10.1.4-21.4-14.6-32.7-44-42-67-5 6.7-5 6.7-6.9 14.6q0 1.5-.1 3.1 0 1.6 0 3.3-.1 1.7-.1 3.5c-1.1 36.1 17.6 68.6 35.9 98.4 2.5 4.1 4.9 8.2 7.1 12.4q.7 1.2 1.3 2.5c.9 2.6.9 3.7-.2 6.2-4.9 3.5-10.2 3.9-16 3-2.4-.9-4.7-1.9-7-3q.6 1.5 1.2 3c7.9 20.7 12.1 39.5 12.1 61.7v3.9c0 9.9-.7 18-6.3 26.4-3.3 1.7-6.5 1.8-10 1-5.7-3.5-9.2-8.6-13-14q-.2 1.1-.4 2.2c-7 42.2-7 42.2-18.8 51.5q-.9.7-1.8 1.3c-2-1.6-4-3.3-6-5q-.9 1.6-1.8 3.2c-11.8 20.9-26.7 40.4-46.2 54.8q-1.5 1.1-3 2.2c-11 7.9-24 16.7-37 20.8q-1.5-.5-3-1c-.2-.9-.2-.9-.3-1.8q-.8-4-1.6-8-.2-1.4-.5-2.8-.3-1.4-.5-2.7-.3-1.3-.5-2.5c-.5-2.5-.5-2.5-2.6-5.2q-.7 1.1-1.4 2.3A135.08 135.08 0 0 1 636 722q-2.8 3-5.5 5.9l-1.4 1.6c-3.1 3.3-6 6.8-8.8 10.4-3.7 4.5-7.4 8-12.3 11.1-1.5 1-1.5 1-3.1 1.9-3.8 1.4-6 1.3-9.9.1-4.1-4.2-5-7-5.4-12.7-1-13-4.6-25-8.6-37.3-3 2.9-5.1 5.6-7.2 9.1-9 14.2-20.8 26.2-33.9 36.5-2.9 2.4-5.7 4.9-8.6 7.4-9.5 8.4-9.5 8.4-14.2 11.8q-.9.7-1.8 1.3c-4.3 1.6-8.9 1.9-13.3.1-1.9-1.2-3.7-2.5-5.6-3.9q-1-.7-2-1.5c-7.1-5.2-13.9-10.7-20.6-16.3q-2.4-1.9-4.7-3.8c-12.1-9.5-22.6-20.6-32.1-32.7q-2-2.3-3.9-4.6-.9-1-1.7-1.9c-1.4-1.6-1.4-1.6-3.4-2.5q.1 1.6.2 3.2c0 7.1-1.9 13.9-3.3 20.8-1.4 6.8-2.3 13.5-2.6 20.4-.3 2.6-.3 2.6-2.3 4.6-15.5 0-27.2-6.4-38.2-17.1-8.6-8.8-16.3-18.1-23.8-27.9-1.6 5.2-2.6 10.3-3.4 15.7q-.3 1.2-.6 2.3-1 .5-2 1c-2.6-1-5.1-2.1-7.6-3.3q-1.2-.6-2.3-1.1c-17.6-8.6-33-20.1-47.1-33.6q-1.3-1.2-2.6-2.5c-12-11.5-22-25.6-29.4-40.5q-.9.5-1.7 1c-2.3 1-2.3 1-6.3 1-13-12.4-17.4-38-18-55-3.9 3.8-7.5 7.9-11.1 12-2.7 2.9-4.4 3.9-8.3 4.4-3.6-.4-3.6-.4-5.8-1.8-11.3-16.5-5.5-42.4-2.4-60.4 2.2-11.7 6.7-22.5 11.6-33.2q-.9.2-1.9.4c-13.4 2.9-13.4 2.9-19 .2-2.1-1.6-2.1-1.6-3.1-2.6.3-6.6 2.2-11.2 5.4-16.9q.7-1.2 1.4-2.5l7.9-14.2c9.3-16.6 18.1-33 23.3-51.4q.5-1.7 1-3.5c2.8-10.5 3.1-20.6 3.1-31.6 0-1.8 0-1.8-.1-3.7q0-4.6 0-9.2c-2.6-.7-5.3-1.3-8-2q-.6 1.1-1.1 2.1C203 428.2 203 428.2 188 434.9c-3.2.8-5.1.6-8.1-1-18.3-14.2-19-47.9-21.9-68.9-2.4-.2-2.4-.2-5 0-3.9 4-6.7 9.2-9.6 13.9-5.4 8.6-5.4 8.6-9.8 9.7-3.9-.9-5.6-3.4-7.6-6.6-7.8-16.7-5.9-36.8-3.2-54.6q.2-1.5.4-3.2c1.5-8.7 3.6-17.3 7.8-25.2q-1.3.6-2.6 1.1-1.8.7-3.5 1.5-1.7.7-3.5 1.4c-3.7 1.1-5.7 1.1-9.4 0-1.9-1.5-1.9-1.5-3.3-3.3q-.7-.9-1.5-1.8c-2.1-3.3-2.4-6.4-2.4-10.2q0-1.1 0-2.2c.7-7.8 4.1-12.6 8.8-18.7q.9-1.3 1.9-2.6c7.2-9.6 14.8-18.7 23-27.4q2.9-3.3 5.8-6.6c3.5-4.1 7.3-7.9 11.1-11.8q1-.9 1.9-1.9c4.4-4.3 9-8.5 13.7-12.5q1-.8 1.9-1.7C207.5 173.1 247 146.2 294 149c23.5 2.8 41 19 55.1 36.7 1.8 2.3 1.8 2.3 3.9 4.3 4.6-.4 8.9-1.4 13.3-2.8q1.8-.5 3.7-1.1 1.9-.6 3.8-1.2 2-.6 4-1.2 4.1-1.2 8.2-2.5 5.8-1.7 11.6-3.5 3.6-1.1 7.1-2.1 1.6-.5 3.3-1 1.5-.5 3.1-1 1.3-.4 2.6-.8c2.5-.8 2.5-.8 5.3-2.8-.5-15.2-4.1-29.8-8.5-44.3-1.6-5.4-1.6-5.4-.5-8.7 11.3-1.6 21.4 6.2 30 12.7a355.61 355.61 0 0 1 18.9 15.6q.8.7 1.6 1.4 1.5 1.3 3.1 2.7c2.7 2.4 4.8 4.2 8.4 4.6q.1-1.5.2-3.1c2-22.8 11.3-45.9 26.8-62.9q1.3-1.6 2.5-3.2c3.2-3.6 6.8-6.7 10.5-9.8z" fill="#fcc405"/><path d="M263 712c3.1 1.6 3.6 4.3 5.1 7.4 12.7 26.5 45.3 39.9 71.5 49.1 44.5 15 92.4 22.6 139.4 22.7q2.3 0 4.5 0 7.2.1 14.4 0 1.3.1 2.5.1c39.1 0 77-2.6 115.6-9.3q1.1-.2 2.2-.4c18.6-3.2 36.8-7.7 54.8-13.6l3-1c23.6-7.8 55.9-20 69-43q2.7-5.4 5-11c24.5 10.5 48.5 61.9 59 85 1.2 3.7 1.6 7.2 1 11-2.9 3.7-5 4.9-9.6 5.5-7.6 0-14.7-4.3-21.4-7.5q.5.9 1 1.8c29.8 56 29.8 56 29 72.2-5.2 3.1-9.9 5.3-16 4-2.9-1.1-5.8-2.4-8.6-3.8-2.4-1.3-2.4-1.3-5.4-2.2 2.4 8.2 5.6 15.7 9.4 23.4 2.6 5.4 2.6 5.4 2.6 7.6-2.3 1.6-4.6 3-7.1 4.4-1.1.6-1.1.6-2.2 1.3-24 13.7-48.7 25-74.7 34.3l-2.9 1c-25.4 9.1-51.5 15.5-78 20.9q-1.3.3-2.7.5c-17.9 3.7-35.8 6.5-54 8.2q-1.8.2-3.7.4c-17.4 1.6-34.8 2.2-52.3 2.1q-1.4 0-2.9 0c-91.8-.2-183.1-17.8-334.5-102.1q-.9-.7-1.9-1.4c-1.1-1.6-1.1-1.6-.9-4.3.9-3.5 2.1-6.3 3.7-9.5q.5-.9.9-1.7 1.5-2.9 3-5.7.5-.9 1-1.9c8.7-16.8 18.5-32.8 30-47.9 2.1-2.8 4.1-5.7 6.2-8.6q-1.2.6-2.5 1.3c-7 3.6-13.5 6.5-21.5 4.7-1.8-1.3-1.8-1.3-3-3-.2-11.3 9.5-20.3 16.5-28.3q3.8-4.3 7.5-8.7 1.5-1.8 3-3.5c9.2-10.7 9.2-10.7 18.1-21.7 3.4-4.2 6.9-8.3 10.6-12.3q2.4-2.6 4.7-5.2 1.2-1.3 2.3-2.7l2.2-2.4c2.2-2.3 4.5-4.2 7.1-6.2z" fill="#fcc305"/><path d="M266 650c3.1 2.9 5.2 6.3 7.5 9.9C287.3 681 305.4 698 327 711q1.4.9 2.9 1.8c7.2 4.3 14.5 7.8 22.1 11.2 2.2-3.7 2.9-7.6 3.6-11.8q.2-1 .4-2.1.5-2.5 1-5.1c3.8 3.7 7.3 7.6 10.7 11.7 20.2 23.8 20.2 23.8 49.2 33.2q1.5.1 3.1.1c2-2 1.6-6 1.8-8.8.8-8 2.2-16 3.8-23.9A202.39 202.39 0 0 0 428 702c3 1.3 4.8 2.6 6.9 5.1q.8.9 1.6 1.9c.8 1 .8 1 1.7 2q1.7 2.1 3.5 4.1.8 1 1.7 2c10 11.8 20.5 22.2 32.8 31.5q2.7 2.1 5.4 4.3 5.1 4.1 10.4 8.1.8.6 1.6 1.3c7.8 6 7.8 6 17.1 7.5 5.2-1.8 9.2-5.3 13.3-8.8q.8-.7 1.6-1.4 5.4-4.4 10.6-9 2.7-2.3 5.4-4.6c12.3-10.3 22.6-20.5 31.4-34q2-2.9 4.1-5.8.8-1.2 1.7-2.5.6-.8 1.2-1.7c2 1 2 1 2.8 3q1.4 4.4 2.7 8.9.5 1.6 1 3.2c2.1 7.6 3.4 15 3.8 22.8.3 5.1 1.4 8.2 4.7 12.1 3.6 1.5 5.9 1.4 9.5.1 11-5.3 17.8-15.1 25.2-24.4 2.3-2.7 4.7-5.1 7.2-7.5 4.8-4.6 8.3-9.7 11.8-15.4 1-1.6 2.2-3.2 3.3-4.8q1.5 0 3 0 1 4.1 1.9 8.1.3 1.2.6 2.3c1 4.2 1.9 8.4 2.5 12.6 6.1-1.9 11.7-4.1 17.3-7.2q1.1-.6 2.2-1.2c26.9-14.6 48.9-36.3 64.5-62.6 1.8 2.8 2.6 4.6 3.5 7.7q.4 1.3.8 2.7.4 1.5.8 2.9.4 1.4.8 2.9c4.5 15.8 6 34.4-.9 49.8q-.5 1.2-1.1 2.4c-6.8 13.8-19.6 22.8-32.6 30.2q-.8.5-1.7 1c-12.9 7.1-26.3 12.8-40.3 17.4q-1.1.4-2.3.8c-18 5.9-36.3 9.9-55 13.2q-1.2.2-2.5.4-18.7 3.3-37.5 5.6-1.1.1-2.3.3c-24.1 2.9-48.3 3-72.6 3q-2.4 0-4.8 0c-26 .1-51.9-.7-77.7-4.5q-1.1-.2-2.2-.4c-42.5-6.2-91.3-15.8-126.4-42.4q-1.3-1-2.7-2-3.7-2.9-7.3-6-.9-.8-1.9-1.6c-11.1-10-16.3-25.1-17.3-39.7-.7-15.8 1.6-30.4 5.2-45.7z" fill="#019bb5"/><path d="M502.1 461.6q4 0 8.1-.1c19.4-.1 41.2 2.5 55.8 16.5 7.6 8.2 10.7 15.3 10.4 26.6-1.6 13.2-9.2 23.2-19.1 31.6-11.4 8.7-25.8 15.3-40.3 14.8.8 17 1.5 33.1 13.9 46.2 10.4 8.9 22 12.4 35.5 12.2q1.5 0 3-.1c13-.2 25.2-3 34.9-12 3.5-3.6 5.6-7.5 7.5-12.1 1.4-2.6 2.7-3.7 5.2-5.2 3.2-.5 5-.7 8 0 3.4 2.7 4.7 4.2 5.4 8.3.5 8.9-3 14.2-8.6 20.8-12.5 13.3-28.4 21.4-46.8 22.3-21.4.6-41.8-3.3-58-18.4-9-9.2-9-9.2-9-12q-1 0-2 0-.3 1.1-.7 2.2c-5.3 11.5-18.9 19.1-30.3 23.4-21.2 7.4-43.8 6.6-64.2-2.7-10.4-5.5-19.1-13.5-24.8-23.9q-.6-1-1.1-1.9c-1.7-4-1.5-7.9-.9-12.1 1.3-3 2.3-3.8 5-6 2.9-.8 5.1-.7 8 0 4 2.7 5.6 6.2 7.7 10.4 4.6 8.6 12.1 13.5 21.3 16.6 15.4 4.7 33.2 3.6 47.7-3.3 10.3-5.5 17-14.1 20.4-25.2 1.3-5.4 1.4-10.9 1.5-16.5q.1-1.6.1-3.2.2-3.9.3-7.8c-1.5.1-1.5.1-3 .1-4.2-.1-7.7-.9-11.6-2.2l-2.1-.6c-15.3-5.2-29.7-14.6-37.3-29.3-4.5-9.9-6.9-18.8-3.6-29.5 3.7-9.1 10.8-16.2 19.6-20.5q1.1-.5 2.2-1.1c13.2-5.9 27.6-6.4 41.9-6.3zm-101.8-88.1c8.6 4.7 15.4 12 18.3 21.4 1.7 8.7.6 17.7-3.9 25.3-5.4 7.6-11.8 13.2-21.1 15.4-10.9 1.8-19.7-.1-28.9-6.2-6.5-5.3-10.7-13.1-11.7-21.4-1-9.7 1.3-18.2 7.5-25.8 10.5-11 25.9-14.4 39.8-8.7z" fill="#013c45"/><path d="M721 202c8.1 3.4 10.6 11.9 13.7 19.5 3.6 8.8 6.5 17.9 9.4 26.9q1.3 4.1 2.7 8.3c2.9 8.8 5.7 17.7 8.3 26.6 2.4 8.1 5 16 7.7 23.9 4.8 14.2 9.3 28.4 13.2 42.8q.4 1.6.9 3.2.4 1.5.8 3.2.4 1.4.8 2.9c.8 4.2.2 7.8-1.5 11.7-2.1 3.1-2.1 3.1-4 5-1.8-.1-1.8-.1-4-1-1.7-2.7-1.7-2.7-3.4-6.2q-.4-.9-.9-1.9c-3.1-6.6-5.8-13.4-8.4-20.2q-.4-1-.8-2c-5.8-15-10.9-30.2-16-45.5q-3.1-9.3-6.2-18.6-.4-1-.7-2-4.6-13.9-9.5-27.6c-.6-1.4-.6-1.4-1.1-3-4.3-11.7-8.9-22.9-15.7-33.4-1.5-3.1-1.7-5.2-1.3-8.6 4-5.3 9.9-4.9 16-4z" fill="#f4a900"/><path d="M641 487c13.6 3.3 25.1 13.6 35 23q.9.8 1.8 1.6c20.1 18.7 32.2 49 33.3 76 .8 38 .8 38-8 50-2.6 1.8-4.9 2.1-8.1 2.4-1.5-3-1.1-5.7-1.2-9.1q0-2.2 0-4.5-.1-1.1-.1-2.3c-.6-38.1-6-72.7-33.2-101-7-6.7-13.8-11.5-22.7-15.2-6.6-2.7-10.8-4.8-14.7-10.9-1.1-3-1.6-4.9-1.1-8 5.3-3.6 12.7-2.7 19-2zm-249 2l1 1c-.2 4.6-1 8-4.2 11.5-4.1 3.3-9 5.3-13.8 7.5-21.2 9.8-36.7 28.3-45 50-6.6 20-8.4 40.9-8.7 61.8q0 2.8-.1 5.6-.1 6.8-.2 13.6c-4.7 1.2-4.7 1.2-7.6-.6-2.7-2.7-3.8-4.9-5.1-8.5l-1.2-3.1c-2.5-8.7-3.5-17.1-3.4-26.2q0-1.5 0-3.1c.5-34.5 11.8-65.7 36.6-90.2 12.9-12.3 33.6-28.6 51.7-19.3z" fill="#f3a800"/><path d="M643.2 373.8c8.3 5.6 14.5 12.2 18.1 21.6 1.8 9.3.4 17.4-4 25.8-6.7 8.2-14.7 13.7-25.4 15.2-9.1.4-16.3-2-23.3-7.8q-1.8-1.8-3.6-3.6l-2.3-2.3c-5.3-8.3-6.9-16.9-5.7-26.7 2.3-9.3 7.1-15.4 15.2-20.4 8.2-4.7 22-6.1 31-1.8z" fill="#013c45"/><path d="M303 202c2.5 1.4 4 2.9 6 5-.6 4.5-2.4 7.9-4.6 11.8-8.2 14.8-13.4 30.7-18.9 46.8-5.4 16.1-11.3 32-17.3 47.9-1.9 5-3.7 10-5.4 15-5.7 17-13.9 33.6-23.8 48.5-5.9-1.9-5.9-1.9-7-3 .4-5.1 1.4-9.5 3.1-14.3 1.1-3.2 1.8-6.4 2.6-9.7 2.5-10.2 5.8-20.2 9.1-30.2q2-6.2 4-12.4 7.7-23.8 15.6-47.6.3-1.1.7-2.2 5-14.9 10.2-29.7 1-2.9 2-5.7c4.1-11.7 9.8-22.4 23.7-20.2z" fill="#f4a900"/><path d="M614.7 297.7l2.4-.1q2.5 0 5 0 3.8 0 7.5 0c20.2-.2 36.9 5.8 53.4 17.4q1.7 1 3.4 2.1 1.3.9 2.6 1.9 0 1 0 2 1 0 2 0c4.2 5.8 5.1 10.9 4 18-1.6 2.7-1.6 2.7-4 4-6 .9-10-1.8-15-4.7-26.9-14.7-53.2-14.6-82.3-7.2-3.9.9-6.8 1.4-10.7.9-4.5-3.6-6.7-6.6-7.4-12.3.6-5.5 2.3-8.9 6.4-12.4 9.8-6.8 20.8-9.6 32.7-9.6z" fill="#f4a901"/><path d="M385.8 297.7q3.1.1 6.2 0c15.5 0 30.5.8 42.5 11.6 3 3.4 2.8 7.2 2.8 11.4-.5 3.6-2 5.6-4.3 8.3-6.4 3.8-13.4 2.2-20.3.6q-2.1-.5-4.3-1.1c-26.3-6.8-50.4-1.3-74 10.9-4.2 2.1-7.6 3.8-12.4 3.6-3.5-2.1-3.9-3.8-5-7.7-.3-5 1.1-8.4 4-12.3 16.2-18.4 41.1-25.4 64.8-25.3z" fill="#f3a800"/></svg>