<svg xmlns="http://www.w3.org/2000/svg" width="1024" height="1024" xmlns:v="https://vecta.io/nano"><path fill-rule="evenodd" d="M504.1 95.8q1.5 0 3 0c15.7 0 31.2.3 46.9 2.2-.3 2.4-.7 4.7-1 7l3-6c30.5.6 60.7 4.7 90 13.6 4.7 1.5 11.1 4.7 15.8 2.6 4.8-3.8 10-6.3 15.7-8.3 57.8 1.9 57.8 1.9 110.4 29.6l3.1 1.5q4.9 2.4 9.7 4.8 4.7 2.4 9.5 4.8c40.2 19.9 93 39.6 112.7 83.3 7.7 60.8 7.7 60.8-16.1 119.1-9.7 24.1-17.7 48.7-22.5 74.3a295.81 295.81 0 0 1-2.7 12.9c-3.9 14.7-10.3 28-23.8 36.1-7.5 3.6-17.5 4.5-25.5 1.8q-1.2-.6-2.3-1.1c-9.5-4.3-15.9-10.9-21.9-19.3-4.4-6.2-9.2-11.9-14.1-17.7-1 2-1 2-1.3 4.9q-.2 2.9-.5 5.8-.1 1.1-.2 2.1c-2.6 34.1-8 66.5-19.1 98.8q-.4 1.2-.8 2.4-.8 2.2-1.6 4.5c-1.7 4.9-4.4 10.5-2.8 15.7 7.8 15.6 7.2 33.8 6.3 50.8q-.4 1.9-.8 3.8c-.2 4.1-.2 4.1 3.4 9q1.6 2.1 3.2 4.3.9 1.2 1.8 2.3 3.3 4.4 6.4 8.9c5.7 8.3 11.7 16.4 18 24.3l7.5 9.7c3.9 5.4 8 10.5 12.4 15.6 3.5 4.1 7 8.2 10.3 12.5a244.3 244.3 0 0 0 16.2 18.9q1.7 1.8 3.4 3.6 2.8 3 5.7 6.1 2.9 3 5.7 6.1c.9 1 .9 1 1.8 1.9 6.4 6.8 14.7 13.8 18 22.8-9.7 21.4-9.7 21.4-27.6 39.5-.7.9-.7.9-1.4 1.7-4.3 5.1-8.8 9.9-13.5 14.6l-2.3 2.3c-5.6 5.6-11.2 11.1-17.1 16.3q-2.1 1.8-4.1 3.6-1 .8-2 1.7-3.2 2.8-6.3 5.6c-30.8 28-66.3 51.9-103.9 69.6-1.4.7-1.4.7-2.8 1.3-18.9 8.9-38.4 16.7-58.4 22.7q-2.3.6-4.6 1.3c-24.5 8.4-51.5 12.7-77.2 15.4q-4.5.4-9.1.8c-16.1 1.8-32.2 2.1-48.4 2q-4.1 0-8.3 0c-18.6 0-37.1-.2-55.6-2.3q-5.3-.7-10.6-1.3c-21.8-2.4-43.2-6.3-64.6-11.1-1.1-.3-1.1-.3-2.2-.5-49.9-11.2-100.5-30.6-143.4-58.3q-1.5-1-2.9-1.9-1.3-.9-2.6-1.7-1.3-.9-2.6-1.7c-2.8-1.9-5.3-4-7.7-6.4-3.3-3.9-3.5-7.3-3.5-12.3q0-1.6.1-3.2 0-5.1.1-10.3.1-3.5.1-7.1c.1-12.1.3-24.2 1.1-36.3.2-1.9.2-1.9.3-3.8q.5-7 1.1-13.9.1-1 .2-2a539.7 539.7 0 0 1 5.1-40l.6-3.1c2.8-16.3 6.4-32.3 10.9-48.2q.6-1.9 1.1-3.8c6.3-22.1 12.3-44.6 21.9-65.6 1.9-3.7 3.7-7.2 2.5-11.4-5.3-13-2.7-27.1.6-40.2 1.7-6.4 3.6-12.2 3-18.8-13.9-27.9-20.1-60.9-23.1-91.6q-.1-1.4-.3-2.7c-1.1-11-1.8-21.8-1.7-32.9q.1-1.4.1-2.8-1 0-2 0c-.8 2.9-.8 2.9-2.2 4.8q-.7.9-1.5 1.9-.8 1.1-1.6 2.2-.9 1.1-1.8 2.2c-10.1 13.1-20.2 26.4-36.9 30.9-8.6.9-15.2-.1-22.6-4.4-14.3-9.7-18.4-26.7-21.8-42.5-4.4-21.2-8.5-42.2-16.5-62.3-16-39.8-37.3-83.5-25.5-127 10.2-31.7 36.2-50.8 64.1-66.5l2.3-1.3c23.4-13.2 47.5-25.1 71.8-36.6q7.3-3.5 14.6-7c14.1-7.1 28.2-13.8 43.2-18.7q1.2-.3 2.4-.7c9-3 17.4-4.2 26.9-4.4q1.8 0 3.5 0c9.4-.1 18.2.6 26.7 5 2.3 1.6 4.4 3.1 6.9 4.4 3.4.5 3.4.5 8.7-1.3C398.2 101.2 433.5 98.8 467 98l2 8-1-9c12.1-.9 24.1-1.2 36.1-1.2z" fill="#f1e1b5"/><path d="M251 628c2.9 2.8 5.3 5.6 7.8 8.8 40 50.1 118.7 64 178.4 72.5q1.6.2 3.2.5 5.3.7 10.6 1.2 1.2.1 2.4.3c18.4 1.9 36.8 2 55.3 2q4.9 0 9.9 0c21.6.2 42.9-.7 64.4-3.3q1.8-.2 3.7-.4C648.2 702.1 724.4 685 767 636c1.6-2.3 2.8-4.5 4-7 4.2 1.4 5.6 4.4 7.9 7.9q1.5 2.2 2.9 4.4l1.6 2.4c8.5 12.4 17.7 24.4 27 36.3q2.8 3.6 5.6 7.2c4.2 5.5 8.5 10.9 13 16.1q4.2 4.9 8.1 9.9c4.1 5.1 8.5 10 12.9 14.8q2.1 2.3 4.2 4.7l11.7 12.7q3.6 3.8 7.1 7.6.8.8 1.5 1.6 2.1 2.3 4.1 4.5 1.2 1.2 2.3 2.4c6.1 7.3 6.1 7.3 6 11.6-3 9.5-10.5 17.4-16.9 24.9q-2.3 2.8-4.5 5.6c-3.6 4.4-7.3 8.6-11.2 12.8q-1.9 2.2-3.8 4.3c-4.7 5.6-9.8 10.7-14.9 15.9q-1.2 1.2-2.5 2.4c-4.3 4.3-8.7 8.5-13.4 12.5l-6.3 5.7c-5.6 5.1-11.5 9.7-17.4 14.2q-3.2 2.5-6.4 5.1c-9.2 7.3-18.6 14.2-28.6 20.5-1.2.7-1.2.7-2.3 1.5-34.1 21.7-70.5 40-109.3 51.5-2.6.7-5 1.6-7.5 2.4-6 2-12.1 3.5-18.2 4.9-1 .2-1 .2-1.9.5-22.9 5.3-46.4 9.5-69.8 11.2q-1.5.1-3 .3c-13.2 1-26.4.9-39.6.9q-4.2 0-8.3 0c-18.5.1-36.7-.5-55.1-2.2q-1.2-.1-2.5-.2-6.8-.7-13.7-1.6l-2-.2c-15.8-1.9-31.3-4.8-46.8-8q-1.8-.4-3.7-.8c-13.3-2.7-26.4-5.8-39.3-10.2q-4.5-1.5-9.1-3c-93.3-30.1-93.3-30.1-122.9-61-1.2-2.3-1.1-3.8-1.2-6.4q0-1.3 0-2.7 0-1.5 0-3.1 0-1.5 0-3.1 0-5.2-.1-10.3v-3.6c.1-21.7 1.1-43.2 3.3-64.8q.2-1.7.4-3.5c.7-6.5 1.6-13 2.6-19.5.3-1.7.3-1.7.5-3.3C228.6 655.1 228.6 655.1 251 628z" fill="#f1e0b4"/><path d="M467 98c15.2 67.5 23.5 144.3 5 212-.3 1.2-.3 1.2-.7 2.5-4.3 15.6-11.6 29.3-22.3 41.5q-1 1.2-2.1 2.4c-8.3 9.5-17.2 18.6-26.9 26.6l-2.2 1.8c-3.6 2.8-7.3 5.2-11.1 7.6-13.6 9.1-26.5 18.8-38.3 30.2q-2 1.9-4 3.8c-26.6 25.3-45.6 63.9-46.7 100.9q-.1 4-.1 7.9 0 1.1 0 2.2c.2 28.4 7.6 57.1 16.6 84 .8 2.6.8 2.6.8 4.6-29.4-9.1-62.9-28.8-79-56q0-1.5 0-3-1 0-2 0c-12.6-30.1-20.8-60.5-24-93-.2-1.5-.2-1.5-.3-3-1.2-12-2-23.9-1.7-36q-1 0-2 0c-.4.8-.4.8-.7 1.6-1.7 3.1-3.7 5.7-5.9 8.5q-.6.8-1.3 1.7-2 2.6-4.1 5.2-1.2 1.5-2.4 3.1c-8.3 10.4-16.7 17.6-29.6 21.9-10.5 1-18.5-.9-26.8-7.6-9.7-9.3-14-21.9-16.6-34.8q-.3-1.4-.6-3-1.7-8.2-3.3-16.4c-4.7-23.4-12.5-45.4-21.2-67.6-30.3-77.4-30.3-77.4-14.9-114.4 4.6-10.2 9.9-18.9 17.4-27.2l1.7-1.9c9.7-10.3 22.2-17.9 34.3-25.1 1.1-.7 1.1-.7 2.2-1.3 17.5-10.4 35.7-19.5 53.8-28.7q1-.5 2.1-1.1 13.9-7 27.9-13.9 1.5-.8 3.1-1.5c70.2-34.6 70.2-34.6 103.5-24.8 4.2 1.6 7.9 3.6 11.4 6.4 5.4 2.4 11.8-1 16.9-2.9 29.5-10.2 63-13.4 94.1-13.2zm90.7.9c30.5.9 60.3 5.4 89.5 14.1 7.6 2.8 7.6 2.8 15.2 1.9q1.1-.8 2.2-1.6c9.6-6.2 19-8 30.3-7.7q1.7 0 3.4 0c8.3.2 15.7 1 23.7 3.4q2.1.6 4.2 1.1c28.9 8.3 56.1 23.5 82.8 36.9q6.9 3.4 13.8 6.8c16 7.9 31.8 16.1 47.2 25.2q1.3.8 2.6 1.5c10.6 6.4 20.3 13.1 29.4 21.5q1.2 1.1 2.5 2.2c15.3 14.2 24 34.8 24.8 55.5.3 11.8-.3 22.9-3.3 34.3q-.3 1.2-.6 2.4c-6 23.9-15.5 47-24.7 69.8-2 5-4 10.1-5.6 15.2q-.3 1.2-.7 2.3c-2.5 8.1-4.5 16.3-6.6 24.6q-.2.9-.5 2c-2.1 8.4-4 16.8-5.6 25.4-2.9 13.8-8.5 26.2-19.7 35.3-8.5 5.4-17.1 5.7-27 5-13.7-3.5-23.7-15.8-31.4-26.9-3-4.3-6.1-8.2-9.6-12.1-1.4 2.8-1.4 5.5-1.6 8.6q-.2 2.1-.4 4.2 0 1.1-.1 2.3c-2.6 32.2-7.8 63.1-18 93.9q-.3 1.2-.7 2.3c-4.6 13.9-10 25.2-19.2 36.7q-.8 1-1.6 2.1c-16.1 19.6-41.1 32.2-64.4 40.9q-1 0-2 0c1.7-11.5 4.7-22.5 8-33.6 5.4-18.2 8.4-36.2 8.4-55.2q0-1.1 0-2.3c-.1-44.7-19.6-84.6-50.6-116.1-12.2-12.1-26.4-22.6-40.9-31.7-7.8-5-14.3-11.7-20.9-18.1q-2.8-2.7-5.6-5.4c-16.9-16.2-29.1-36-35.4-58.6q-.4-1.2-.7-2.4c-2.2-7.4-3.4-14.9-4.4-22.5q-.2-1.8-.4-3.6-.7-4.7-1.2-9.4-.3-2.1-.6-4.2c-2-15.7-2-31.5-2-47.4q0-4.5 0-9c-.2-24.7.7-49.2 6.1-73.4q.4-1.8.8-3.6c7.1-32.4 7.1-32.4 11.1-32.6zM771 629c4.2 1.4 5.6 4.4 7.9 7.9q1.5 2.2 2.9 4.4.8 1.2 1.6 2.4c8.5 12.4 17.7 24.4 27 36.3q2.8 3.6 5.6 7.2c4.2 5.5 8.5 10.9 13 16.1q4.2 4.9 8.1 9.9c4.1 5.1 8.5 10 12.9 14.8q2.1 2.3 4.2 4.7l11.7 12.7q3.6 3.8 7.1 7.6.8.8 1.5 1.6 2.1 2.3 4.1 4.5 1.2 1.2 2.3 2.4c6.1 7.3 6.1 7.3 6 11.6-3 9.5-10.5 17.4-16.9 24.9q-2.3 2.8-4.5 5.6c-3.6 4.4-7.3 8.6-11.2 12.8q-1.9 2.2-3.8 4.3c-4.7 5.6-9.8 10.7-14.9 15.9q-1.2 1.2-2.5 2.4c-4.3 4.3-8.7 8.5-13.4 12.5l-6.3 5.8c-5.6 5-11.5 9.6-17.4 14.1q-3.2 2.5-6.4 5.1c-9.2 7.3-18.6 14.2-28.6 20.5q-1.2.7-2.3 1.5c-34.2 21.7-72.8 43.4-112.7 52.5q-1-.5-2-1c.5-1.1.5-1.1 1.1-2.2 37.3-74.8 53.4-155.4 43.3-238.6q-.7-6-1.3-12.1-.5-5-1.1-10.1l16.6-7.3c23.3-9.9 56.9-26.7 68.4-50.7z" fill="#c76a01"/><path d="M254 567q1 0 2 0 .7 1.4 1.5 2.9c12 20.8 32.6 34.4 53.5 45.1q1 .5 2 1.1c37.1 19.4 81.1 27.1 122.3 32.6q1.1.2 2.2.4c23.6 3.1 47.2 4.3 70.9 4.3h3.7c22.7-.1 45.1-1.5 67.6-4.1q3.3-.4 6.5-.8c38.6-4.3 80.3-11 115.8-27.5q1.1-.5 2.1-1c14.3-6.6 29-14.8 40-26.2 1.9-1.8 1.9-1.8 3.9-1.8q.4-.9.8-1.7c1.3-2.6 2.9-4.3 4.9-6.4 4.5-4.9 7.9-10.2 11.3-15.9 3.7 2.4 3.8 3.7 5.1 7.9q.4 1.5.9 3.2c2.6 9.7 3.4 19.4 3.4 29.5q0 1.7 0 3.4c.1 11.7-2.7 20.1-10.9 28.5q-1.2 1.3-2.5 2.5-1.2 1.2-2.5 2.5c-11.9 11.3-26 19.8-40.5 27.5q-1 .5-1.9 1c-43.2 22.9-93 32.5-141.1 38-1.2.1-1.2.1-2.5.3-17.6 2-35.2 2-52.9 2q-4.9 0-9.9 0c-28.9.2-57.4-1.3-86-6.1q-1.2-.2-2.4-.4C368 699.1 309.1 685.3 268 648q-1.2-1-2.3-2.1c-11.5-10.8-18.8-22.2-19.3-38.2-.2-13.7 4.1-27.5 7.6-40.7z" fill="#099aa4"/><path d="M251 628c2.9 2.8 5.3 5.6 7.8 8.8 15.2 19.1 36.6 30.6 58.2 41.2q-.4 1.5-.7 3c-20.8 83.2-25.6 184.1 19.8 261.2.9 1.8.9 1.8.9 3.8-40.8-10.7-103.6-29.3-130.9-63.1-2.2-3.9-1.8-8.1-1.7-12.5q0-1.5 0-3.1 0-5.1.1-10.2 0-3.5.1-7c.2-20.5 1.3-40.8 3.4-61.1q.2-1.7.4-3.5c.7-6.5 1.6-13 2.6-19.5.3-1.7.3-1.7.5-3.3C228.6 655.1 228.6 655.1 251 628z" fill="#c76a02"/><path d="M544 400q1 .2 2 .4c13.8 2.9 26.2 8.4 35 19.6 6.2 9.6 8.7 17.8 6.3 29.2-6.6 23-23.1 39.1-43.3 50.8-5.8 3.1-11.5 5.8-18 7q.1 6.9.2 13.8 0 2.3.1 4.6 0 3.4.1 6.8v2.1c.1 5 1.5 7.8 4.6 11.7 19.2 15.5 40.8 20.5 65 19 12.5-1.5 24.4-7.4 34.4-14.9 4.4-3.2 7.1-4.4 12.6-4.1 4.3 2.2 7.6 4.8 10 9 1.3 6.2-.3 10.7-3.6 15.9q-.7 1.1-1.4 2.1-1 1.5-2.1 3.1c-11.4 12.8-33.4 19.1-50 20.1-28.6 1-54.2-4.7-77.9-20.8-4-2.9-4-2.9-8.7-2.9q-1.1.7-2.3 1.5-1.2.7-2.4 1.5l-2.5 1.7c-20.1 12.9-43.3 19.2-67 19.2H433c-11.9 0-22.8-1.4-34-5.4q-1.7-.6-3.5-1.2c-2.9-1.2-5.7-2.4-8.5-3.8q-1.4-.7-2.9-1.4c-7.8-3.9-12.7-8.4-17-15.9-1.5-5-2.1-9.5-1.1-14.7 1.8-3.1 3.7-4.6 7-6 9.4-2.3 17 2.6 25 7 18.2 9.9 39.6 14.3 60.1 8.5q3-1.2 5.9-2.5.9-.4 1.9-.9c15.9-6.7 15.9-6.7 28.1-18.1 1.3-3.7 1.1-7.3 1.1-11.2q0-1 0-2 0-3.3 0-6.5 0-2.3-.1-4.5 0-5.4 0-10.8-1-.3-1.9-.5c-14.3-4.1-25.9-11.8-37.1-21.5q-1.3-1.1-2.6-2.2c-10.7-10.1-19.3-24.2-20.6-39.1-.2-11 2.8-18.7 10.2-26.7 1-1 1-1 1.9-2.1 11.6-11.3 26.6-14.5 42.1-16.9q1.8-.3 3.7-.6c17.5-2 36.2-1.2 53.3 2.6z" fill="#13373c"/><path d="M712 158c17.7 11.2 29.6 35 39 53q.6 1.2 1.3 2.4c22 42.6 28.6 91.7 32.9 138.8 1.2 12.5 2.7 24.9 4.6 37.2q.1 1.3.3 2.6c1.8 11.7 3.8 23.2 6.2 34.7q.3 1.8.7 3.7c1.4 6.5 1.4 6.5 4 12.6-3.7-1.2-4.8-2.9-7-6q0-1 0-2-.8-.3-1.7-.6c-8.4-5.1-14-18.3-16.3-27.4-4.6-20.1-7-40.5-8.7-61-4.9-60.4-18.4-133.7-65.7-176.2-1.6-1.8-1.6-1.8-2.2-4.2.8-3.7 2.8-5.2 5.6-7.6 2.7-1.4 4.1-.8 7 0zm-401.7-.9c3.7.9 3.7.9 6.2 3 1.8 3.4 1.9 5.1 1.5 8.9-1.6 2.1-1.6 2.1-3.9 4.1-26.9 25.2-43.2 63.8-52.1 98.9q-.3 1.3-.7 2.7c-2.8 11.4-4.8 22.9-6.2 34.5-.2 1-.2 1-.3 2l-5.8 51.2c-2.8 26.5-2.8 26.5-4.6 37.1q-.1 1-.3 2c-3 17.1-12.1 29.6-24.1 41.5q.4-1.9.8-3.9c7.3-34.6 11.2-69.9 14.2-105.1q.1-1.3.2-2.6.1-1.3.2-2.5c.8-9.7 2-19.3 3.6-28.9q.2-1.3.4-2.7c6.8-41.4 21.2-82.5 46.6-116.3q.7-.9 1.4-1.9c16.1-21.5 16.1-21.5 22.9-22z" fill="#9b5303"/><path d="M679.6 291.6c7.7 5.5 12.2 12.3 14.4 21.4q.3 1.2.7 2.4c1.3 10.8-.4 20.5-6.9 29.5-3.7 4.3-7.8 7.4-12.8 10.1q-.9.5-1.9 1c-7.8 3.7-17.7 3.1-25.9.6-10.9-4.7-16.8-12.9-21.2-23.6-2.8-8.4-1.9-19.1 1.9-27q.5-1 1.1-2 .8-1.5 1.7-3.1c12.7-15.9 31.2-20 48.9-9.3zM378 290c9.1 5.4 14.6 13.6 17.5 23.7 2 9.8.1 19.9-4.9 28.7-6.1 8.6-13.2 13.4-23.6 15.6-11.4.9-20.2-1.1-29.2-8.3-7.2-6.7-11-15-12.1-24.8-.4-11.6 3-21 10.9-29.6 11.6-10.9 27.4-12.6 41.4-5.3z" fill="#13383f"/></svg>