<svg xmlns="http://www.w3.org/2000/svg" width="1024" height="1024" xmlns:v="https://vecta.io/nano"><path d="M267 88q1 .5 2 1.1c26.1 13.5 48.7 32.4 70.2 52.3q3.8 3.6 7.7 7 1.2 1.1 2.4 2.1 2.7 2.5 5.4 4.9c6.8 6.1 13.2 12.5 19.5 19.1q3.7 3.9 7.5 7.7 2.5 2.6 5 5.3 3.7 3.9 7.5 7.7 1.1 1.2 2.2 2.4c4 4.1 4 4.1 9.2 5.7 2.6-.3 4.9-.7 7.4-1.3q2.1-.4 4.3-.8 2.2-.5 4.5-.9c10.4-2.1 20.8-3.6 31.3-5 1.2-.1 1.2-.1 2.4-.3q7.7-1.1 15.5-2l3-.4c10.6-1 21.4-.8 32.1-.8q1.6 0 3.3 0c15.9 0 31.7.3 47.6 2.2q1.6.2 3.3.4c39.5 5 39.5 5 53.1 9.4 2.7.5 2.7.5 4.8-1.3l2.3-2.3q1.3-1.3 2.6-2.6l2.7-2.9q1.5-1.4 2.9-2.9 3.8-3.8 7.6-7.7 4.5-4.7 9.1-9.3 3.6-3.6 7.1-7.3c4.4-4.5 8.9-8.9 13.8-13 1.8-1.6 3.5-3.3 5.2-5 3.7-3.7 7.5-7.1 11.5-10.5q1.6-1.4 3.2-2.7 3.6-3.1 7.2-6.2 3.4-2.9 6.8-5.9c24.7-21.4 58.6-46.2 92.9-45.5 8.9.9 17.1 5.6 22.7 12.5 9.1 13.1 12.7 29.4 15.2 44.8q.2 1.4.5 2.8c5.7 37.8 3.6 77.4-.5 115.2q-.2 1.7-.3 3.4c-3.8 37.1-9.1 79-24.3 113.3q-.7 1.7-1.5 3.4-.6 1.3-1.3 2.7c-1 5.2.8 9.3 2.4 14.2q.4 1.1.7 2.2l6.4 18.5q.5 1.4 1 2.9c15 47 15 47 44.5 85.1 2 1.6 2 1.6 3.4 3.3.2 3.8.2 3.8-1 7-3.9 4-8.5 4.1-13.9 4.3q-1.6.1-3.3.1l-3.6.2q-1.7 0-3.5.1-4.4.2-8.7.3c1.9 4.5 3.9 8.9 6.1 13.3 5 9.7 5.4 19.8 2.3 30.3-5.8 16.5-15.4 29.8-27.4 42.4q-.8.9-1.7 1.8c-9.7 10.2-19.9 19-31.3 27.2l-2.2 1.6q-3.3 2.3-6.6 4.6-.9.7-1.9 1.4c-3.4 2.3-6.5 4-10.3 5.4q-1 1-2 2c.4 2.9 1.5 5.1 3.1 7.6 5.5 11 .3 25.7-3.2 36.8-7.4 19.4-24.5 34.2-41.9 44.6q-1 0-2 0 .2 1.1.4 2.2c9.4 56.3-8.4 116.7-32.9 166.8q-1.5 2.9-2.7 5.9c-1.9 4.5-3.3 7.4-7.9 9.5q-2.4.8-4.9 1.6c-1.4.5-1.4.5-2.8.9-21.9 7.4-44.3 12.6-67.1 16.4q-1.2.1-2.4.3c-23.6 3.9-47 5.6-71 5.6q-1.3 0-2.7 0c-41.7-.1-81.7-5.9-121.8-17.2q-2.1-.6-4.1-1.1-2.9-.8-5.8-1.7c-1.6-.4-1.6-.4-3.3-.9-5.3-2.3-8.2-6.1-10.9-11q-.8-1.4-1.6-2.8c-.7-1.5-.7-1.5-1.6-2.9-.8-1.6-.8-1.6-1.7-3.1q-1.7-3.2-3.5-6.4-2.4-4.4-4.9-8.8c-15.7-28.3-27.6-57.1-34.1-88.9q-.3-1.2-.5-2.4c-2.1-10.7-2.4-21.3-2.3-32.2q0-3.2 0-6.4 0-2.1 0-4.2 0-1.9 0-3.8c.1-3.2.5-6.2 1.1-9.4q-1.3-.4-2.6-.8C303 734.1 291 724.3 280 714l-1.9-1.7c-14.2-13-20.4-33.5-21.7-52.2.1-5.4 2.5-8.3 6.1-12.2 1.8-1.9 1.8-1.9 1.5-4.9q-.8-.4-1.7-.8c-9.4-4.9-17.9-11.7-26.3-18.2q-1.3-1-2.6-2c-22.8-18.2-48.5-42.4-52.4-73-.9-9.3 1.1-15.7 5-24q1.4-3.4 2.8-6.7 1.1-2.7 2.2-5.3c-1.5.2-1.5.2-3 .5-4.2.6-8.3.7-12.5.8h-2.2c-5.2 0-8.7-.8-13.3-3.3-2-3-2-3-1.9-5.4 1.1-3.2 2.5-4.5 5-6.8 23.7-22.8 33.9-59.5 44.5-89.7q1.9-5.4 3.8-10.8 1-2.8 2-5.6.4-1.2.9-2.4c2.4-7.3 1-12.8-1.5-20-5.4-15.7-9.8-31.6-13.4-47.9q-.2-1.3-.5-2.7c-9.2-42.3-13.1-85.3-13.1-128.6q0-5.4 0-10.8c-.1-17.3.8-34.4 3.9-51.4q.3-1.4.6-2.8c3-15.7 7.6-34.2 21.5-43.8 16.8-10.1 39.1-2.8 55.2 5.7z" fill="#003a4c"/><g fill="#fbeecc"><path d="M523.2 284.8c9.4 6.3 12.5 15.7 14.8 26.2.9 5 1.5 10 2 15q.2 2.3.5 4.6a595.23 595.23 0 0 1 2.1 26.6c2.6 41 5.7 86 38.1 115.2 9.8 8.1 21 13.8 32.3 19.6q1 .5 2.1 1.1c4.6 2.4 9.2 4.6 13.9 6.9q1.4.7 2.9 1.4 19.2 9.3 38.5 18.3c80.1 37.1 80.1 37.1 95.7 74.9 3.5 12.9 1.5 28-4.8 39.5-4.4 7.1-4.4 7.1-7.1 9.5q-.6.7-1.2 1.4c.3 3 1.6 5.1 3.1 7.6 5.5 11 .3 25.7-3.2 36.8-7.4 19.4-24.5 34.2-41.9 44.6q-1 0-2 0 .2 1.1.4 2.2c9.4 56.3-8.4 116.7-32.9 166.8q-1.5 2.9-2.7 5.9c-1.9 4.5-3.3 7.4-7.9 9.5q-2.4.8-4.9 1.6c-1.4.5-1.4.5-2.8.9-21.9 7.4-44.3 12.6-67.1 16.3q-1.2.2-2.4.4c-23.6 3.9-47 5.6-71 5.6q-1.3 0-2.7 0c-41.7-.1-81.7-5.9-121.8-17.2q-2.1-.6-4.1-1.1-2.9-.8-5.8-1.7c-1.6-.4-1.6-.4-3.3-.9-5.3-2.3-8.2-6.1-10.9-11q-.8-1.4-1.6-2.8c-.7-1.5-.7-1.5-1.6-2.9-.8-1.6-.8-1.6-1.7-3.1q-1.7-3.2-3.5-6.4-2.4-4.4-4.9-8.8c-15.7-28.3-27.6-57.1-34.1-88.9q-.3-1.2-.5-2.4c-2.1-10.7-2.4-21.3-2.3-32.2q0-3.2 0-6.4 0-2.1 0-4.2 0-1.9 0-3.8c.1-3.2.5-6.2 1.1-9.4q-1.3-.4-2.6-.8C303 734.1 291 724.3 280 714l-1.9-1.7c-14.2-13-20.4-33.5-21.7-52.2.1-5.4 2.5-8.3 6.1-12.2 1.8-1.9 1.8-1.9 1.5-4.9q-1.8-3.1-3.8-6.1c-7.4-11.6-10.3-24.5-7.6-38.1 7.8-27.6 31.9-44.3 55.6-57.8 13-7.2 26.3-13.7 39.8-20 49.3-21.6 49.3-21.6 94-51q1-.8 2-1.6c14.8-13.3 21.7-34.7 26-53.4q.4-1.8.9-3.7c3.4-16 5-32.3 6-48.6q1-15.4 2.7-30.7.3-2.3.5-4.5c1.5-14.8 3.3-30.1 14.4-40.9 7.9-4.9 20.2-5.8 28.7-1.8z"/><path d="M708 735c12.9 19.3 1 67.2-3.2 88.5-5.9 27.8-15.9 54-28.3 79.5q-1.5 2.9-2.7 5.9c-1.9 4.5-3.3 7.4-7.9 9.5q-2.4.8-4.9 1.6-1.4.5-2.8.9c-21.9 7.4-44.3 12.6-67.1 16.3q-1.2.2-2.4.4c-23.6 3.9-47 5.6-71 5.6H515c-41.7-.1-81.7-5.9-121.8-17.2q-2.1-.6-4.1-1.1-2.9-.8-5.8-1.7c-1.6-.4-1.6-.4-3.3-.9-5.3-2.3-8.2-6.1-10.9-11q-.8-1.4-1.6-2.8-.7-1.4-1.6-2.9c-.8-1.6-.8-1.6-1.7-3.1q-1.7-3.2-3.5-6.4-2.4-4.4-4.9-8.8c-15.7-28.3-27.6-57.1-34.1-88.9q-.3-1.2-.5-2.4c-2.1-10.7-2.4-21.4-2.3-32.2q0-3.3 0-6.5 0-2.1 0-4.2 0-1.9 0-3.8c.1-2.9.4-5.5 1.1-8.3 4.8 1.5 9.5 3.2 14.2 4.9 37.1 14 75.2 22.3 114.5 26.8q3.3.4 6.5.8c63 7.5 126.6 1.9 187.8-14.5q1.6-.4 3.2-.8c21.3-5.8 42-13.3 61.8-23.2z"/></g><path d="M265 645c3.6 1 5.9 2.7 8.6 5.2 4.4 3.9 9.1 7 14.2 9.9 1.4.9 1.4.9 2.9 1.7 19.5 11.2 39.9 20.3 61.3 27.2q1.6.5 3.2 1c25.7 8.3 52.1 13.9 78.8 17.6q4.3.6 8.5 1.2c38 5.7 77.3 5.6 115.5 2.2q1.7-.1 3.4-.3c48.5-4.2 98.2-14 142.1-35.5q3.2-1.6 6.3-3.1c11.3-5.5 22.9-11.1 32.8-18.9q1.4-1.1 2.9-2.2 1.2-1 2.5-2 2-1.5 4-3 1.2 1.9 2.4 3.8.7 1.1 1.4 2.2c5.2 8.8 1.7 20.3-.6 29.6-6.1 23.3-24 40.4-44.2 52.4-14 7.9-28.9 13.9-44.1 18.9q-1 .4-2 .7c-21.2 7-42.9 11.9-64.9 15.8q-4.3.8-8.6 1.7c-45 8.7-92.8 8.6-138.3 3.1q-3.3-.3-6.6-.7c-56.7-6.4-123.7-19.3-166.5-59.5q-.9-.8-1.9-1.7c-14.2-13-20.4-33.5-21.7-52.2.1-6.6 4.1-10.6 8.6-15.1z" fill="#f55927"/><path d="M258 676c2 1 2 1 3 4q.6 1.9 1.2 3.8c3.8 12 9.9 21.3 18.8 30.2q1.2 1.2 2.5 2.5c10.6 10.3 23.3 17 36.5 23.5v3.2q-.1 6.1-.1 12.2 0 2.6-.1 5.2c-.1 15.2 1.1 29.6 4.4 44.5q.3 1.5.6 2.9c8.2 35.7 24.5 69.6 43.8 100.6 1.8 3 2.5 6 3.4 9.4-4.1-.6-7.5-1.5-11.3-3q-1.5-.7-3-1.3-1.7-.7-3.3-1.4-1.7-.8-3.5-1.5C322.3 898.4 294 885.3 268 868q-1.1-.8-2.3-1.5c-20.7-13.7-40.1-28.8-58.4-45.5q-3.1-2.7-6.2-5.4c-8-6.9-15.3-14.6-22.1-22.6q-1.5-1.7-3-3.4-1.6-1.9-3.2-3.7-.8-.9-1.5-1.8c-8.2-9.5-8.2-9.5-8.4-13.5 1.6-3.7 4-6.4 6.7-9.4q.8-.9 1.6-1.9c3.5-3.9 7.1-7.7 10.9-11.4 1.7-1.7 3.2-3.4 4.8-5.2 5.1-5.9 10.6-11.4 16.2-16.9q2.8-2.8 5.6-5.6c5.4-5.4 10.8-10.8 16.6-15.8 2.8-2.3 5.4-4.8 8-7.3 4.9-4.6 10-8.9 15.2-13.1 3.3-2.6 6.4-5.3 9.5-8z" fill="#003a4c"/><path d="M511.4 485.8c16.7-.4 36.7 2.2 49.8 13.5 7.2 6.8 10.9 13.6 11.2 23.6.1 14.4-4.6 24.6-14.4 35.1-10 8-21.2 14.9-34 17 3.2 12.4 9.3 20.3 20.4 27.1 12.7 6.8 26.1 9.3 40.2 5.3 7.1-2.4 13.5-5.9 19.8-9.9 3.8-2.3 5.9-3.5 10.4-3.6 3.5 1.2 5.5 2.5 8.2 5.1 1.7 3.5 1.4 7.2 1 11-5.9 12.4-20 17.7-32.1 22.2-20.6 5.8-42.7 2-61.2-8-7.7-4.4-14.4-10.1-19.7-17.2q-.7.8-1.5 1.7c-9 9.6-20.2 16.6-32.5 21.3l-2.9 1.2c-7.9 2.8-15.4 3.2-23.7 3.2q-1.6.1-3.2.1c-17.3-.2-33.2-6.6-46.1-18.1-3.5-4-5.4-6.5-5.1-11.9.5-3.4 1.1-4.6 3.1-7.5 3.6-2.5 5.6-3.1 9.9-3 4.3 1.5 7.9 4 11.7 6.4 12.3 7.9 26.7 10.6 41 8 11.6-3.2 24.9-10.9 31.3-21.4 1.6-3.9 2.9-7.9 4-12l-1.9-.4c-13.3-3.1-24.6-9.8-34.1-19.6q-1-.9-2-1.9c-8.4-8.7-10.7-18.4-10.5-30.2.3-8.1 2.2-15.4 7.8-21.5 15.4-13.3 35.6-14.6 55.1-15.6z" fill="#011b22"/><path d="M248.9 126.1c21.7 7.3 39.7 25.3 55.5 41.2q.7.7 1.5 1.4c5.6 5.6 10.9 11.3 16.1 17.3q2.2 2.4 4.4 4.8c4.7 5.3 9.2 10.7 13.6 16.2q.9 1.1 1.9 2.3.8 1 1.7 2 .7.9 1.4 1.8c1.5 2.9 1.6 4.6 1 7.9-2.1 2.2-3.9 3.8-6.3 5.5-1 .8-1 .8-2 1.5q-3.3 2.5-6.7 5-1.2.9-2.4 1.7-4.8 3.6-9.7 7.1c-5.9 4.4-11.5 8.9-17 13.7-2.7 2.3-5.5 4.6-8.3 6.8-12.8 10.4-24.9 22.1-35.6 34.7q-2.3 2.7-4.7 5.5-1.6 1.9-3.2 3.8c-5.8 6.7-5.8 6.7-8.5 6.9-3.5-1.6-4.2-3.7-5.6-7.1-10.4-31.3-16.1-65.2-16.2-98.1q0-1.7 0-3.4 0-3.5 0-7-.1-5.2-.1-10.5c-.2-45.4-.2-45.4 10.4-58.4 5.5-5.2 11.7-4.5 18.8-2.6zm538 .7c8 6 9.1 19.9 10.7 29.1 6.9 49.4 3.3 108.7-15.6 155.1q-1 1-2 2c-3.6-.1-4.9-.9-7.6-3.3q-1.3-1.5-2.6-3.1-1.4-1.4-2.7-2.9-2.6-3-5.1-6.2c-5.3-6.6-10.9-12.7-16.9-18.7q-2.2-2.2-4.4-4.4c-6.2-6.2-12.8-11.9-19.7-17.4q-1.6-1.4-3.2-2.8c-6.3-5.4-12.7-10.4-19.3-15.3q-1.2-.8-2.5-1.8-5.5-4-11.1-8-1.7-1.3-3.5-2.5-1.6-1.1-3.1-2.2c-3-3.1-3.3-5.1-3.3-9.4 1.3-2.4 1.3-2.4 3.3-4.6l2.2-2.6q1.2-1.4 2.5-2.8 1.3-1.6 2.7-3.2 7.3-8.8 15-17.3 1.9-2.1 3.8-4.2c12.1-14.1 25.4-27.4 40.5-38.3q1.2-.9 2.5-1.9c9.9-7.4 26.8-18.7 39.4-13.3z" fill="#0a5d77"/><path d="M748 698q1 0 2 0c3.4 10.3 6.3 20.5 8.5 31.1q.2 1.1.4 2.1c7.4 35.3 10.3 71.1 10.3 107.2q0 1.3 0 2.7 0 4 0 7.9 0 1.2 0 2.4-.1 3.3-.2 6.6 0 1.2-.1 2.4c-.4 6-.4 6-2.7 8.6l-2.2 1.2q-1.3.8-2.5 1.5-1.2.6-2.5 1.3-2 1.2-4.1 2.5c-23.1 13.6-47.1 26-72 36.1q-1.3.6-2.6 1.1-1.2.5-2.4 1c-1.1.4-1.1.4-2.1.8-1.8.5-1.8.5-3.8-.5 1.3-6 3.3-11 6-16.4 13.6-28 22.7-57 28-87.6q.2-1.3.5-2.7.6-3.8 1.2-7.6.2-1.1.4-2.2c1.7-11.1 2.1-22.1 2-33.3q0-2 0-4c0-8.8-.2-17.5-1.1-26.2q1-.6 2.1-1.3c13.7-8.5 27.5-19 35.8-33.2q.5-.7 1.1-1.5z" fill="#003a4c"/><path d="M396.1 414.3c7.8 5.3 13 12.4 14.9 21.7 1 7.9-1 15.1-4.6 22.1-6.9 8.3-13.1 13.1-23.9 14.3-10.2.5-17.9-1.6-25.7-8.3-6.7-7.1-9.2-15.8-9-25.4.7-8.8 4-15.5 10.2-21.7 10.9-8.8 26.1-9.9 38.1-2.7zM661 416c3.2 2.4 5.6 4.5 7.7 7.9q.6.9 1.2 1.9c4.2 8.3 4.8 17.8 2 26.6-3.9 8.4-9.1 14-17.5 18-7.9 2.9-18.7 3.4-26.5-.2-8.5-5.5-13.7-11.6-16.9-21.2-.7-11.7-.6-20 7.2-29.3 11.8-12.5 28.6-12.9 42.8-3.7z" fill="#001419"/><path d="M409.6 363.9c3.3 2.9 5.1 4.5 5.9 9-.7 4.2-2.2 5.5-5.5 8.1-3.3.7-3.3.7-7.1.8q-1 0-2 .1-2.2 0-4.4.1c-3.7.1-7.4.3-11.2.5q-1.1 0-2.2.1c-8.3.5-16.1 2.1-24.1 4.4-15.5 4.4-15.5 4.4-20.9 1.4-2.8-3.3-3.3-5-3.1-9.4 3.5-7.7 12.6-11.1 20-14 15.2-5.5 39.8-10.2 54.6-1.1z" fill="#0b5a71"/><path d="M682.3 373.6c2.9 2.4 3.7 4.1 4.1 7.8-.4 3.6-.4 3.6-2 6-3.7 2.5-7 2.8-11.3 2.2q-1.6-.4-3.2-.8-1.9-.4-3.8-.8-3.1-.8-6.2-1.5c-12.8-3.1-25.5-4.2-38.6-4.7q-1.9-.1-3.9-.2-1.8-.1-3.5-.1c-3.1-.5-4.1-1-5.9-3.5-1.4-2.9-1.3-4.8-1-8 2.9-5.3 7.6-7.1 13-9 20.4-5.5 45.3 1 62.3 12.6z" fill="#0b5a70"/><path d="M291 263q1 .5 2 1c-12.6 12.8-12.6 12.8-17.3 16.7-4.7 4-8.7 8.6-12.7 13.3q-1-.5-2-1c9.2-10.2 18.5-20.1 29-29q.5-.5 1-1z" fill="#003241"/><path d="m258 676q0 1.5 0 3-2.1 1.8-4.2 3.5c-2 1.7-3.5 3.5-5.1 5.4-3.6 4.3-7.7 7.6-12.7 10.1q-1.5 0-3 0c4.8-5.1 9.9-9.5 15.3-13.8 3.3-2.7 6.5-5.4 9.7-8.2z" fill="#01465d"/><path d="M435 605l6 1q0 1 0 2c14.1-.6 14.1-.6 28-3-3.4 3.8-7.1 4.4-12 5-7.7.4-14.6.4-22-2q0-1.5 0-3z" fill="#eeeee4"/><path d="M317 739q1.5.5 3 1l-1 28c-2-2-2-2-2.2-4.7q0-1.7 0-3.4 0-1.8 0-3.7 0-1.9.1-3.8v-3.9q0-4.8.1-9.5z" fill="#253843"/><path d="M555 939q0 1.5 0 3l-36-1q0-.5 0-1c24.8-1.2 24.8-1.2 36-1z" fill="#f2e7c5"/><path d="M255 629c2.7 2.4 4.4 5.1 6.2 8.2q.8 1.3 1.6 2.7.6 1 1.2 2.1c-3.4 0-4.1-.5-6.7-2.5q-.9-.7-1.9-1.4c-.7-.5-.7-.5-1.4-1.1q1-.5 2-1l-1-7z" fill="#082c3a"/><path d="M508 486h14q0 1.5 0 3h-19q0-.5 0-1 2.5-.5 5-1 0-.5 0-1z" fill="#1f363a"/><path d="M367 910c2.3 2.7 3.9 4.6 5 8-4.2-.5-6.8-1.2-10-4q2.5-.5 5-1 0-1.5 0-3z" fill="#044558"/><path d="M765 613q1 .5 2 1c-1 8.6-1 8.6-2 12q-1.5 0-3 0c.9-4.9.9-4.9 2-6q.6-3.5 1-7z" fill="#eeeddf"/><path d="M705 803q.5 0 1 0c.9 5 .9 9 0 14-2-2-2-2-2.2-4.1q0-1.1 0-2.3 0-1.2 0-2.4c.2-2.2.2-2.2 1.2-5.2z" fill="#ebe8d4"/><path d="M763 632q.5 1.5 1 3c-.9 1.8-.9 1.8-2.3 3.7q-.7.9-1.4 1.9-.6.7-1.3 1.4-1 0-2 0c.5-4.4 3.2-6.8 6-10z" fill="#073141"/><path d="M749 648q1 .5 2 1l-6 7q-2-.5-4-1l8-7z" fill="#f53316"/><path d="M435 605l6 1q0 1 0 2 3 0 6 0 0 .5 0 1-2.2.1-4.3.1-1.2.1-2.4.1c-2.3-.2-2.3-.2-5.3-2.2q0-1 0-2z" fill="#f6f1de"/><path d="M416 929l7 1q.5 1.5 1 3l-8-1q0-1.5 0-3z" fill="#eae4d0"/><path d="M265 645c4.4 1.4 6.3 3.3 9 7q-.8-.5-1.7-.9c-2.4-1.2-4.7-1.7-7.3-2.1q-.5-1.5-1-3 .5-.5 1-1z" fill="#ec3818"/><path d="M764 630q.5 1 1 2 1.5.5 3 1-1.5 0-3 0 0 1 0 2 1 .5 2 1-2 1.5-4 3-1-.5-2-1 1-1.5 2-3 .6-2.5 1-5z" fill="#024657"/><path d="M748 698q.5 0 1 0c.4 2.3.4 2.3 0 5-3 2.3-3 2.3-6 4 1.5-3.1 3.1-6.1 5-9z" fill="#0c3454"/><path d="M602 599q1 .5 2 1-.5 1.5-1 3l-7 1c3.8-3.9 3.8-3.9 6-5z" fill="#051217"/><path d="M477 333l3 2c.2 3.1.2 3.1 0 6q-1.5.5-3 1v-9z" fill="#164553"/><path d="M516 280q0 1 0 2 1 .5 2 1l-12-1q0-.5 0-1c6.6-1 6.6-1 10-1z" fill="#011927"/><path d="M321 788q1.5.5 3 1l-1 8c-2.3-3.4-2.2-5-2-9z" fill="#f3f2e6"/><path d="M402 595q1 1.5 2 3l-5 3q-.5-1.5-1-3 2-1.5 4-3z" fill="#132427"/></svg>