<svg xmlns="http://www.w3.org/2000/svg" width="1024" height="1024" xmlns:v="https://vecta.io/nano"><path d="M244.9 79.9c16.4 9.9 31.6 21.4 46.3 33.6q3.8 3.2 7.7 6.2c4.3 3.6 8.4 7.3 12.6 11.1 2.5 2.2 5.2 4.4 7.9 6.5 4.7 3.9 9 8 13.3 12.4 3.2 3.2 6.5 6.3 10 9.2 2.1 1.9 3.9 3.8 5.8 5.9q.9 1.1 1.9 2.1 1.9 2.1 3.8 4.3c3.4 3.7 3.4 3.7 8.1 4.9 2.7-.5 5.1-1.3 7.7-2.1q2.6-.7 5.2-1.3 1.4-.4 2.8-.8c25.9-6.8 52.3-10.4 78.9-13 1.2-.1 1.2-.1 2.4-.3 15.4-1.4 30.8-1.8 46.3-1.8q1.5 0 3 0c43.6.1 86.7 4.9 128.6 17.5q1.2.3 2.5.7c1.1.3 1.1.3 2.2.7 2.8.4 4.3.3 7.1-.7 2.5-1.9 4.6-4.2 6.8-6.4q.9-1 1.9-2 3.1-3.1 6.1-6.2 3-3.1 6.1-6.2 1.9-1.9 3.7-3.9c3.8-3.7 7.6-7.3 11.6-10.8 2.6-2.2 5.1-4.5 7.6-6.9 4.6-4.2 9.3-8.2 14.1-12.1q3.5-2.8 6.9-5.7c64.6-54 64.6-54 99.3-52.2 9.6 1 16.8 5 22.9 12.4 5.5 8.7 8.6 18 11 28l.6 2.6c7.9 37.7 3.4 79.5-1.6 117.4q-.2 1.9-.5 3.9c-4 30.9-10.2 61.4-18.8 91.4q-.5 1.5-.9 3.1c-.8 2.6-.8 2.6-2.2 6.2-.9 5.3 1 9.3 2.9 14.2 6.8 19.2 11.2 39 13.5 59.2q.1 1.2.3 2.4c5.8 55-5.9 112.8-39.3 157.6l-2 2.8C781 587 781 587 771 592q.1 1.3.2 2.5c1.8 22.9 2.3 45.5-8.2 66.5 1 2.2 1 2.2 2.5 4.6q.9 1.4 1.7 2.8 1 1.6 1.9 3.2c26.4 44.5 66.9 121.9 56.4 176.2-3.8 11.2-13.7 19.3-23.5 25.2q-1.7 1-3.4 2.1c-57.1 34-130 43.5-195 50.2q-1.1.1-2.3.2-8.6.9-17.3 1.5-1.7.1-3.4.3c-25.4 1.8-50.8 2.1-76.3 2.1q-1.5 0-3.1 0c-32.6 0-64.9-.7-97.4-4.1q-4.2-.4-8.5-.9C331.4 918 244.6 908.5 194 865q-1-.9-2.1-1.8c-4.5-4.1-7.2-8.8-9.9-14.2q-.5-1-1-2c-1.1-13.8 0-27.5 3-41q.3-1.3.6-2.7c10.3-47.5 28-95.2 56.2-135 2.6-3.7 2.6-3.7 3.1-8-.8-2.1-1.7-4-2.8-5.9-4.8-9.1-6.2-20.1-6.2-30.3q0-2 0-3.9 0-1 0-2.1 0-3 0-6c0-6.8.2-13.4 1.1-20.1q-.9-.4-1.9-.9c-2.5-1.3-4.1-2.9-6-4.9l-2.2-2.2q-.9-1-1.9-2-1.2-1.2-2.5-2.5-1.2-1.2-2.5-2.5c-.9-.8-.9-.8-1.8-1.7-20.6-20.1-32.8-46.4-42.2-73.3q-.4-1.1-.7-2.1c-3.6-10.4-5.2-21.4-6.9-32.2q-.4-2.4-.8-4.8c-3.5-20.7-3.2-44.2.1-64.9q.5-3.2.9-6.3c2.4-18.5 6.6-37.7 13.9-54.8 2.3-6 .6-10.1-1.5-15.9q-.8-2.8-1.6-5.6-.5-1.5-.9-3c-3.7-13-6.8-26.1-9.5-39.4q-.3-1.4-.6-2.9c-8.1-39.6-12.5-79.6-12.7-120v-2.9c-.3-24.8.7-57 18.9-75.9 20.6-19.1 51.1-3.4 71.3 8.6z" fill="#f7edd9"/><path d="M761 661q1 0 2 0c1.3 1.8 1.3 1.8 2.8 4.4l1.7 2.9q.9 1.5 1.8 3.1.9 1.7 1.9 3.3c25.3 44.3 64.6 119.7 54.3 173.1-3.8 11.2-13.7 19.3-23.5 25.2q-1.7 1-3.4 2.1c-57.1 34-130 43.5-195 50.2q-1.1.1-2.3.2-8.6.9-17.3 1.5-1.7.1-3.4.3c-25.4 1.8-50.8 2.1-76.3 2.1q-1.5 0-3.1 0c-32.6 0-64.9-.7-97.4-4.1q-4.2-.4-8.5-.9C331.4 918 244.6 908.5 194 865q-1-.9-2.1-1.8c-4.5-4.1-7.2-8.8-9.9-14.2q-.5-1-1-2c-1.1-13.8 0-27.5 3-41q.3-1.3.6-2.7c10.3-47.5 28.4-92.3 54.6-133.2.7-1 .7-1 1.4-2.1 3.1-4.9 3.1-4.9 5.4-6a13.93 13.93 0 0 0 1.5 1.9c18.8 23.9 46.1 35.9 74.5 45.1q1.4.5 2.9 1c43.9 14.2 90.3 18.5 136.1 21q1 .1 2.1.1c9.3.5 18.6.8 27.9.9q1.2 0 2.5 0c76.9 1.3 188.4.9 256.9-57.4 6.4-6.1 6.4-6.1 10.6-13.6z" fill="#f8eeda"/><path d="M244.9 79.9c16.4 9.9 31.6 21.4 46.3 33.6q3.8 3.2 7.7 6.2c4.3 3.6 8.4 7.3 12.6 11.1 2.5 2.2 5.2 4.4 7.9 6.5 4.7 3.9 9 8 13.3 12.4 3.2 3.2 6.5 6.3 10 9.2 2.1 1.9 3.9 3.8 5.8 5.9q.9 1.1 1.9 2.1 1.9 2.1 3.8 4.3c3.4 3.7 3.4 3.7 8.1 4.9 2.7-.5 5.1-1.3 7.7-2.1q2.6-.7 5.2-1.3l2.8-.8c21.5-5.6 45.6-11.8 68-10.9 5.9 18.5 5.5 39 5.4 58.2q0 5.8 0 11.6c0 15.6-1 30.7-3.4 46.2q-.3 2-.6 4c-5.9 40-19.2 82.2-43.4 115q-1.1 1.6-2.3 3.2c-5.8 7.7-12 14.8-18.7 21.8q-.7.7-1.4 1.5c-17.3 18.2-38.4 32-60.6 43.5q-1 .5-2 1c-44.4 23-95.5 30.5-145 30-2.4-6.6-3.9-13.1-5.1-20q-.2-1.5-.5-3.1-.5-3.1-1-6.1-.4-2.5-.8-5c-3.5-20.6-3.2-44.1.1-64.8q.5-3.2.9-6.3c2.4-18.5 6.6-37.7 13.9-54.8 2.3-6 .6-10.1-1.5-15.9q-.8-2.8-1.6-5.6-.5-1.5-.9-3c-3.7-13-6.8-26.1-9.5-39.4q-.3-1.4-.6-2.9c-8.1-39.6-12.5-79.6-12.7-120v-2.9c-.3-24.8.7-57 18.9-75.9 20.6-19.1 51.1-3.4 71.3 8.6zm584.5-11.3C840 76.9 844 90.3 847 103l.6 2.6c7.9 37.7 3.4 79.5-1.6 117.4q-.2 1.9-.5 3.9c-4 30.9-10.2 61.4-18.8 91.4q-.5 1.5-.9 3.1c-.8 2.6-.8 2.6-2.2 6.2-.9 5.3 1 9.3 2.9 14.2 6.8 19.2 11.2 39 13.5 59.2q.1 1.2.3 2.4c.9 8.6 1 17.3 1 26q0 1.2 0 2.4c0 21.3-2.2 42.7-8.3 63.2-3 3-14.4 1.2-18.8 1.3-46.7-.1-94.1-12.2-135.2-34.3-1-.5-1-.5-1.9-1-28.4-14.9-54.4-37-73.1-63q-.6-.8-1.2-1.6c-36-49-48-113.1-48-172.7q-.1-1.5-.1-3.2c0-16 .7-31.6 3.3-47.5q.3-1.6.5-3.3c.3-1.6.3-1.6.5-3.3q.3-1.5.5-3.1c.5-2.3.5-2.3 1.5-3.3 5.3-.2 10.2.2 15.5 1.1q1.1.2 2.1.4 3.4.5 6.8 1.1 1.1.2 2.3.4c18.1 3.2 36.2 6.7 53.7 12.4 3.1.7 4.5.7 7.6-.4 2.5-1.9 4.6-4.2 6.8-6.4q.9-1 1.9-2 3.1-3.1 6.1-6.2 3-3.1 6.1-6.2 1.9-1.9 3.7-3.9c3.8-3.7 7.6-7.3 11.6-10.8 2.6-2.2 5.1-4.5 7.6-6.9 4.6-4.2 9.3-8.2 14.1-12.1q3.5-2.8 6.9-5.7c81.8-68.5 81.8-68.5 115.6-46.2z" fill="#707b7d"/><path d="M236 593q.7.5 1.4 1c53.6 36.2 115.5 52.2 179.3 59.3l2.1.2c26.6 2.9 53.3 3.8 80 3.8q5.9-.1 11.7 0c26.6 0 53.2-1 79.7-4.1 1.1-.1 1.1-.1 2.2-.3 60.2-6.9 125.7-21 174.8-58.6 1.8-1.3 1.8-1.3 2.8-1.3 4.2 22.3 4.3 48.9-7.7 68.9-27.3 39.5-82.3 52.6-126.7 60.9-25.6 4.7-51.4 7.4-77.4 9.1q-2.2.1-4.4.2c-12.8.9-25.7 1.1-38.6 1h-3.1c-17 0-34.1-.2-51.1-1.1q-1.1-.1-2.3-.1c-46.3-2.6-92.4-7.6-136.7-21.9q-1.3-.4-2.6-.8c-23.9-7.6-47.4-18.3-65.4-36.2q-1.1-1-2.1-2.1c-12.1-12.5-17-29.8-17-46.9v-3.9q0-1 0-2 0-3 0-6.1c0-6.4.1-12.6 1.1-19z" fill="#f4a700"/><path d="M555 409c5.9 6.2 6.4 10.7 6.3 19.1-.9 11.9-8.5 21.7-16.8 29.8-6.5 5.5-13.9 9.5-21.5 13.1-1 10.8 1.9 20.2 8.3 28.9 8.4 9.9 19.7 15.3 32.6 16.3 13.6.4 26.4-3.2 36.6-12.5l7-7.2c4.1-4 7.2-5.9 12.9-5.9 5 .1 7.9 1 11.6 4.4 2.8 4.5 2.6 8.9 2 14-3.2 11.3-14.4 20.2-24 26-20.5 10.3-44.8 13.9-67 7-15.4-5.3-28-14.1-38-27q0-1 0-2c-2.9 2.8-5.6 5.7-8.3 8.9-11.8 13.4-29.1 21-46.7 23.1-24.5 1.5-46.7-3.1-65.8-19.4-6.6-6.2-12.1-12.9-12.9-22.3.3-4.4 2.2-6.9 5.2-10 3.4-2.9 6.6-2.6 10.9-2.6 6.3.7 9.7 4.3 13.8 8.6 10.2 10.5 23.2 16.7 37.8 17 12 0 22.7-3.7 32-11.3 7.4-7.4 12.7-16.8 13.1-27.5q0-1.1 0-2.3-.1-1.2-.1-2.4 0-.9 0-1.8l-2.9-1.4c-8.5-4.3-15.5-8.8-22.1-15.6q-1-1-2-2c-7.9-8.4-12.7-19.1-12.3-30.8.8-5.7 3.4-9.8 7.8-13.5 21.4-14.4 82.1-15.6 102.5 1.3z" fill="#00262a"/><path d="M223.9 123.6c17.5 5.9 33.1 18.6 47.1 30.4q1.7 1.4 3.3 2.7c8.2 6.9 15.8 14.2 23.2 21.8q3.2 3.3 6.5 6.5 1.6 1.6 3.1 3.1.8.8 1.6 1.6 3.7 3.7 7.3 7.3c-3.5 3.6-7 6.6-11 9.6-6.9 5.2-13.5 10.8-20 16.4-1.1 1-1.1 1-2.2 1.9q-2.9 2.6-5.8 5.1-1 .9-2 1.8c-13 11.3-25.5 23.5-36 37.2q-1.4 1.7-2.8 3.4c-6.2 7.4-11.7 15.1-16.7 23.3q-1.7 2.7-3.5 5.3-1 0-2 0a551.47 551.47 0 0 1-16.3-68.3q-.1-1.1-.3-2.2c-3.2-18.8-4.7-37.4-4.6-56.4q0-4.3 0-8.7 0-2.8 0-5.6 0-1.3 0-2.6c.1-11.1.9-22.9 9.2-31.2 6.5-4.7 14.3-4 21.9-2.4zm567.8-1q1.9 0 3.8 0c4.7.5 7.2 1.8 10.2 5.4 7.5 12.2 7.8 25.4 7.7 39.3q0 1.1 0 2.4c-.2 25.7-2.8 51-7.4 76.3q-.4 2.3-.8 4.6c-1.5 8.9-3.7 17.6-6.2 26.4q-.9 3.2-1.8 6.5-2.6 9.3-5.2 18.5c-2.9-2.8-5.1-5.5-7.2-9-3.9-6.3-8.3-12.1-12.8-18q-1-1.3-2-2.6c-4.5-5.8-9.4-11.2-14.4-16.6q-3.1-3.3-6-6.8c-7.2-8.3-15.2-15.9-23.6-23-1.5-1.3-1.5-1.3-2.9-2.6-7.6-6.7-15.6-12.8-23.8-18.8q-1.1-.8-2.3-1.7-1.1-.7-2.1-1.5c-1.8-1.3-3.3-2.8-4.9-4.4q6.2-6.2 12.4-12.4 2.1-2.1 4.2-4.3 3-3 6.1-6.1l1.8-1.8c4.3-4.4 8.9-8.4 13.5-12.4q1.5-1.3 3-2.6c40.4-34.9 40.4-34.9 60.7-34.8z" fill="#526268"/><path d="M355.3 325.3c9.7 6 16.4 13.5 19.5 24.4 2.8 12.7 1.2 23-5.5 34-6.6 9.3-16.3 14.4-27.3 16.3-9.8 1-19-1.4-26.9-7.3-7.7-6.6-12.9-13.6-15.1-23.7-.9-13.4-.1-24.1 8.7-34.9 12.1-12.6 30.7-16.5 46.6-8.8zm339.4 3.2c5.6 4.3 9 9.2 12.3 15.5a44 44 0 0 0 1.1 1.9c3.7 7.8 2.9 19.4.8 27.5-3.5 9.7-10.3 18.2-19.5 23-10.6 4.3-20.2 5.1-30.9.7-5.5-2.5-9.5-5.7-13.5-10.1q-.7-.8-1.5-1.6c-6.9-8.3-9.3-18.6-8.9-29.2 1.3-11.1 6-19.9 14.6-27 2.2-1.6 4.4-2.9 6.8-4.2q.9-.5 1.8-1c11.8-5.6 26.5-2.4 36.9 4.5z" fill="#00272b"/></svg>