<svg xmlns="http://www.w3.org/2000/svg" width="1024" height="1024" xmlns:v="https://vecta.io/nano"><path fill-rule="evenodd" d="M513.6 163.6c9.2 9.2 10.5 20.6 10.5 33q0 1.6 0 3.3v3.5q0 5.6 0 11.2 0 1.9 0 3.9l-.5 42q-.1 1.6-.2 3.3-.3 7.8-.9 15.6c-1.1 13 .2 21.7 5.6 33.5 9.9 23.7 9.5 56.5 3.9 81.1q1.9-.1 3.9-.1c5.2 0 10.3.4 15.4.9q1.2.1 2.4.2c4.4.5 7.8 1.1 11.3 4 .4 3.6.4 3.6 0 7-2 2-2 2-4 2.2h-2.6q-1.3 0-2.7 0-1.5 0-3 0-1.5 0-3 0c-7.3-.1-14.5-.4-21.7-1.2q-.1.9-.3 1.8c-1.2 6.6-3.2 12.5-5.8 18.7q-.5 1.3-1.1 2.7c-2.5 6.3-2.5 6.3-3.8 8.8q.9.2 1.9.4 11.1 2.5 22.1 5.1 2 .5 4 1c17.8 4.1 35 8.7 52 15.5q2.8 1.1 5.5 2.2c31.2 12.2 61 28.7 85.5 51.8q2.1 1.8 4.2 3.6c7.8 6.9 7.8 6.9 10.8 10.4q0 1 0 2 1 0 2 0c3.2 3.5 6.1 7.3 9 11q1.1 1.4 2.3 2.9c17.9 23.2 30.1 50.9 37.7 79.1q.3 1.1.6 2.1c2.3 9 4 18.1 5.6 27.3.2 1.5.2 1.5.5 3 1.9 11.9 2.5 23.5 2.4 35.6q0 3.7 0 7.4 0 2.4 0 4.7 0 1.1 0 2.2c0 3.4-.1 6.5-1.1 9.7 17.4-2.9 33.9-11.2 44.4-25.7q.8-1.1 1.6-2.3.8-1.1 1.6-2.3c14.5-22.5 14.9-50.9 9.9-76.4-1.4-6.2-3.3-12.3-5.5-18.3q-.4-1-.7-2c-2.1-5.9-4.3-11.7-6.8-17.5-3.2-7.8-5.9-15.6-8.3-23.7q-.4-1.5-.8-3c-3.7-12.6-4.8-24.7-4.8-37.8q-.1-3.8-.1-7.7c-.2-18.1 4.4-34.2 12.5-50.3q.5-.9.9-1.8c4.8-9.5 10.9-17.4 18.1-25.2l2.4-2.6c14.5-15.2 34.3-25.3 55.4-25.9 9-.1 17.2.1 25.2 4.5 1.1.5 1.1.5 2.1 1 6.9 3.6 12.5 10.7 14.9 18 .8 10.5-1 17-7.8 25-5.9 5.3-12.6 8.1-20 10.8-16.7 6.4-25.6 15.7-33.7 31.5-9.9 23.9-.9 49.3 8.2 71.8 7.1 17.7 13.7 35.9 16.3 54.9q.3 1.6.5 3.2c.5 4.1.7 8.1.7 12.2q0 1.2 0 2.4 0 2.6 0 5.1 0 3.8 0 7.5c.2 41.8-14.1 79.5-43.6 109.4-10 9.9-21 17.7-33.6 24.2q-1 .5-2 1c-10.9 5.6-22.1 9.7-34 13q-1.7.5-3.4 1c-11.1 2.8-22.6 2.6-34 2.8-2.3.2-4.3.5-6.6 1.2 3.3.7 6.4 1.1 9.8 1.2a26.2 26.2 0 0 0 2.8.1 31.08 31.08 0 0 0 3.1.1q3.3.1 6.7.2 1.7.1 3.5.2c27.9.8 55.7 2.3 83.5 4q3.6.3 7.2.5c28.5 1.7 28.5 1.7 36.4 5.7q-.5 2-1 4c-10.4 2.5-20.7 4-31.4 5.1q-2.4.2-4.8.5c-54.3 5.8-109.1 7.1-163.7 8q-1 0-2.1 0l-153.7.5q-16.4 0-32.8 0-19.4 0-38.8 0-2.1 0-4.1 0h-2.1q-7 0-14 0c-46.6.1-93.1-.6-139.6-2q-1 0-2 0c-126.1-3.8-126.1-3.8-144.9-12.1q0-2 0-4c4.8-2.2 8.7-3.6 14-4q1.6-.1 3.2-.3c7.8-.4 8.7-.4 10.8 1q0-.8 0-1.7-1.5-.5-3-1c-4.7-9.8-4.5-22.2-1.4-32.5 4.4-11.3 11.2-18.5 22.1-23.8 8.9-4.8 13.1-17.4 16.3-26.5q1.3-4.5 2.5-9 .4-1.7.9-3.4c2.2-8.5 3.9-17.2 5.4-25.9q.3-1.6.6-3.4c3.7-23.2 3.9-46.5 3.9-69.9q-.1-3.7-.1-7.4c0-26.2-.5-52.4-1.9-78.5a313.08 313.08 0 0 1-.3-13.7q-1.1-.4-2.2-.8c-8.1-3.4-15.1-8.7-21.8-14.2-.8-.6-.8-.6-1.5-1.3-10.3-8.5-19.2-17.2-27.5-27.7q-1-1.3-2.1-2.6-1-1.2-2-2.5-.8-1-1.7-2.1C162 453 162 453 162 451q-5.9 1.4-11.8 2.8-1.6.3-3.3.7c-6.5 1.6-12.8 3.4-19.2 5.7-3 .9-5.5 1-8.7.8-1.9-1.2-1.9-1.2-3-3-.4-2.4-.4-2.4 0-5 2.7-3.2 5-4.7 9-5.9q1.5-.4 3-.8 1.5-.5 3.1-.9c1.4-.5 1.4-.5 3-.9 6.5-2 13.1-3.4 19.9-4.5q-.4-1-.9-2.1-2-4.6-4-9.3-.7-1.6-1.4-3.3c-2.5-6.1-4.5-11.8-5.7-18.3q-.9 0-1.9.1-10.5.5-21.1.9c-1.2 0-1.2 0-2.5.1q-3.1.1-6.3.2h-3.4c-2.8-.3-2.8-.3-4.7-1.7-1.6-2.3-1.6-3.8-1.1-6.6 2.4-3.1 4.2-4.3 8-5 10-1.2 20-1.1 30-1q-.2-.8-.4-1.6c-1.4-5.6-1.9-10.9-1.9-16.6q0-1.3 0-2.6 0-2.7 0-5.4 0-4-.1-8.1c0-14.9 1.3-29.4 6.5-43.5q.3-1.1.7-2.2c1-2.9 2-5.6 3.3-8.3 1.2-3.5.9-6.4.6-10.1q-.1-1-.1-2.1c-.4-4.6-.9-9.1-1.4-13.6-2-19-2.5-38-2.6-57.1q0-3 0-6c-.2-38.8-.2-38.8 8.2-47.7q.8-.7 1.8-1.4.9-.7 1.8-1.5c2.9-2.2 5.4-2.7 9-2.6 18.3 2.7 36.6 18.1 50.6 29.4q1.7 1.3 3.4 2.7c7.5 5.7 14.8 11.7 21.9 17.8q2.7 2.4 5.5 4.7 1.9 1.6 3.8 3.2.8.8 1.7 1.5c2.4 2.1 4.7 4.1 6.7 6.5 1.9 1.9 1.9 1.9 4.7 1.5q1.6-.5 3.3-.9 2.2-.5 4.4-.9 3.6-.8 7.3-1.6c10.5-2.3 20.9-2.7 31.6-2.7q1 0 2.1 0 5.4 0 10.8 0 4.3 0 8.7-.1c21.3-.1 42.6 0 63.4 5.7 2.7.6 4.9.8 7.7.6 2-1.3 2-1.3 3.8-3.2q1.1-1 2.1-2 1.1-1.1 2.2-2.2 2.3-2.3 4.6-4.5 1.1-1 2.2-2.1c3.4-3.2 7-6.1 10.7-9 2.4-2 4.7-4.1 7-6.2 6.4-5.9 13.4-11.1 20.3-16.2q2.8-2.2 5.6-4.3c13.9-10.4 35.3-25.7 53.1-17.7zM181 808q1.5.5 3 1c-.8-.6-.8-.6-1.5-1.2-1-.9-1-.9-2-1.7q-.7-.5-1.4-1.1c.4.6.9 1.3 1.9 3zm135.1-143.1c-8.8 40.6-24.2 80.5-41.4 118.2-1.4 2.9-2.7 5.8-3.9 8.8q-.4 1.1-.8 2.1-1 0-2 0-.5 1.5-1 3c4.1-1.3 4.1-1.3 8.4-1.2 1.4-.1 1.4-.1 2.7-.1q4.3-.1 8.7-.1c13.1-.3 26.1-.4 39.2-1.6q0-2.7 0-5.4-.1-1.1-.1-2.2c0-4.9.1-9.6 1.1-14.4 3-10.2 8.5-18.2 17.7-23.7q1.2-.7 2.3-1.3c6.6-4 13.3-4.7 20.9-5.4q3-.3 6.1-.6c4.1-2 4.1-2 11.5-21.3q.4-1.1.8-2.1c2-5.1 3.4-10.3 4.7-15.6-20.8-8.9-41.3-20.3-59.5-33.7A322.09 322.09 0 0 0 318 659c-1 2-1 2-1.9 5.9zM451.2 780c-.6 1.1-.6 1.1-1.1 2.1-1.7 3.1-3.4 6.1-5.8 8.7-1.6 1.5-2.4 3.2-3.3 5.2 3.1-2.1 4.6-2.3 8.2-2.4q1.1 0 2.1 0 3.3-.1 6.6-.2 2.3 0 4.6-.1 5.3-.1 10.6-.2c1.5-.1 1.5-.1 2.9-.1q-.6-2-1-4c-.5-14.2 4.9-35.4 14.4-46.5q1.3-1.3 2.6-2.5c-.9-.5-.9-.5-1.9-1q-1.3-.7-2.5-1.3c-4.7-2.5-9.6-4.1-14.6-5.7-6.3 16.5-13.3 32.5-21.8 48z" fill="#02264c"/><path d="M511.5 451.5c5.7.4 11.4 1.7 16.9 2.9l3.7.8c22.4 5.1 44.7 10.8 65.9 19.8q1.5.6 3 1.3c25.9 10.9 50.4 23.6 72 41.7q.9.7 1.8 1.5c11.2 9.3 21.3 19 30.2 30.5q.7.8 1.3 1.7c25.8 33.4 38.1 74.1 43.7 115.3.2 1.1.2 1.1.3 2.1 3.7 27.4 1.3 57-8.3 82.9q-.7 1.8-1.3 3.6c-7.1 17.7-19.2 33.2-36.7 41.4-9.6 3.7-18.8 4.1-28.9 4.1h-3.6q-4.8 0-9.6 0-5.1 0-10.2 0-9.5 0-19.1 0-10.9 0-21.8 0-22.4-.1-44.8-.1c-.1-4.7.1-8.3 1.9-12.7q.5-1.3 1-2.7c1.1-2.6 1.1-2.6 2.3-4.8 1-2.3.6-3.4-.2-5.8-3.3-.5-3.3-.5-7 0-6.4 6.9-7.5 17.1-9 26h-20c0-7.8 0-7.8 1.9-11.9 2-4.6 3.1-9.1 4.1-14.1-5.6-.6-5.6-.6-10.3 1.8-4 7.5-6.1 14.7-6.7 23.2-4.5.4-4.5.4-6.8-1.3-3.1-4.3-2.9-9.6-2.2-14.7 3.2-9.3 8.1-15.8 16.7-20.5 14.9-7.1 30.2-4.9 45.8-1.9 5.9 1.1 11.4 1.8 17.5 1.4 2.3-1.9 2.3-1.9 2.4-5.4 0-3.6 0-3.6-2.3-5.2-4.4-2-8.9-2.8-13.7-3.8-12.5-2.7-22.7-6-32.4-14.6q-.9-.7-1.9-1.5c-10.2-9-15.9-26-17-39.2q-.1-1.1-.1-2.3l-.2-3.5c-.9-23.8 9.2-44.9 24.5-62.7 15.5-16.5 32.9-24.3 54-31.2 1.1-.3 1.1-.3 2.1-.7q2.9-.9 5.8-1.8c2.9-.8 2.9-.8 3.8-3.1.3-3 .3-3 0-6-3.8-2.5-6.7-2.4-11-2-2.9.6-5.6 1.5-8.3 2.4q-1.2.4-2.3.8c-31.5 11.3-56.5 30.8-71.2 61.4-7.8 17-12.9 37.6-8.5 56.1q.3 1.2.5 2.4c3.7 15.3 9.8 28.4 20.8 39.7 2 2.2 2 2.2 2 4.2-1.1.2-1.1.2-2.3.5-12.2 2.7-22.4 8-29.8 18.4-4.9 8.3-7.1 15.6-7.9 25.1-4.4.3-8.6.5-13 0-2.7-2.6-2.7-2.6-4-6q-.6-1.6-1.3-3.2c-1.9-10.7 1.2-18.9 7.2-27.6 2.6-2.7 5.2-4.9 8.1-7.2-.7-3.2-.7-3.2-3.4-4.4q-1.6-.8-3.2-1.5-1.6-.8-3.4-1.6-1.7-.8-3.6-1.7-1.7-.8-3.6-1.7-4.4-2.1-8.8-4.1.4-1.2.8-2.3c6.8-20.5 12.6-41.1 17.9-62q.5-1.8.9-3.7 1.4-5.2 2.7-10.5.4-1.6.8-3.2c1.3-5.2 2.4-9.9 1.9-15.3-1.9-2.3-1.9-2.3-4.9-2.1-3.4.8-3.4.8-4.6 4-1.9 4.9-3.2 10-4.4 15.1q-.9 3.3-1.7 6.6-.5 1.8-.9 3.5c-5.9 23-12.4 45.6-20.5 67.9q-.6 1.8-1.3 3.6C452.4 753.3 444 774 430 790q-1 1.2-2.1 2.4c-4.8 5.2-9.5 8.2-16.7 8.8q-4.6.1-9.2 0c-1.6 0-1.6 0-3.2-.1q-3.9 0-7.8-.1c.7-10.4.7-10.4 3.1-15.3 1.8-3.7 2-5.7.9-9.7-3.3-.6-3.3-.6-7 0-6.7 7-7.8 15.6-9 25h-22c-.4-7.8 0-13.4 3.2-20.5.9-2.9.6-4.6-.2-7.5-1.7-.9-1.7-.9-4-1-4.6 2.7-6.4 6.1-8 11-.6 3-.9 5.9-1.2 8.9l-.2 2.4q-.3 2.8-.6 5.7c-3.9-1.4-5.8-2.4-8-6-2.2-6.7-2.1-15.3.6-21.9 5.1-9.6 12.1-14.7 22.4-18.1q5.2-.3 10.5-.3c5.6-.3 8.9-1.5 13.5-4.7 16.5-18 20.2-53.2 24.9-76.4q.2-1.1.4-2.2c3.9-17.6 3.9-17.6 4.7-35.4-2.8-2.3-2.8-2.3-5.6-1.8-2.6.6-2.6.6-4.4 2.8-.6 2-.6 2-.9 4.3q-.3 1.4-.5 2.8-.2 1.4-.5 2.9-.2 1.5-.5 3-.8 4.9-1.6 9.7-.8 4.8-1.6 9.6-.5 3-1 5.9c-.9 5.1-1.9 9.9-3.4 14.8-4.6-1.4-8.9-3.3-13.2-5.5q-1.1-.5-2.1-1.1c-21.1-10.7-39.7-23-57.7-38.4q-.8-.7-1.6-1.4c-6.2-5.3-11.7-10.9-16.8-17.3q-1.5-1.9-3.1-3.9-1.5-1.9-3.1-3.8c-3-3.8-3-3.8-7.6-5.1-2.8.3-2.8.3-4.7 1.6-1.7 3.1-.8 5.5-.1 8.9 1.5 2.6 1.5 2.6 3.7 5q1.2 1.4 2.4 2.9c2.1 2.3 4.4 4.4 6.8 6.5q.9.9 1.9 1.8c2 1.9 2 1.9 4 3.4 2.3 2.1 3.2 3.5 4.2 6.4-.5 6.2-2.2 12-4 18q-.6 2.4-1.3 4.8c-1.3 4.9-2.8 9.8-4.2 14.7q-.4 1.3-.8 2.7c-28.4 96.5-28.4 96.5-50.7 109.8-3.4 1.1-6.1 1.1-9.7 1.1q-1.7-.1-3.6-.1-1.3 0-2.7 0 .2-3.3.4-6.6.1-1.9.2-3.8c.4-3.4 1.2-6.3 2.4-9.6.3-2.7.3-2.7 0-5-1.1-1.3-1.1-1.3-3.8-1.4-3.4.1-3.4.1-5.4 3-4.1 8-4.3 15.4-4.8 24.4h-18c-.1-15.9-.1-15.9.6-21.4q.2-1.8.4-3.6c-1.1-1.3-1.1-1.3-3.9-1.3-3.1 0-3.1 0-4.8 1.9-3.7 7.1-3.5 13.6-3.3 21.4-2.9-1.4-4.9-2.6-7-5-2.3-6.8-2.2-16.3.6-23 1.2-2.1 1.2-2.1 2.4-4q.6-.9 1.2-1.9c2.9-3.8 5.9-5.8 10.2-8 14.9-7.7 20.1-24.3 25-39.4 11-35.2 13.3-71.7 12.9-108.3q0-5.1 0-10.1c0-15.5-.2-31-1-46.5-.3-8.3-.4-16.5-.4-24.8q0-2.1.1-4.2 0-4.9 0-9.8 7.4 2.4 14.8 5.1c12 4.2 23.9 7.8 36.3 10.3q1.7.4 3.5.7c15.7 3.1 31.1 4.3 47.2 4.1q1.3 0 2.6 0c48.7-.2 97-12.6 134.6-45.2q1.2-1 2.4-2c12.6-11.2 12.6-11.2 23.6-23.9l1.4-2q1.4-1.9 2.6-3.8c2.4-3.2 3.6-4.2 7.5-4.8zM504 175c4.3 3.2 5.6 7 6.5 12.1.5 4.3.7 8.5.7 12.9v2.6q0 4.3.1 8.7 0 1.4 0 3c0 19-1 38-2.2 57q-.1 1.6-.2 3.2-.2 2.9-.4 5.8c-.7 9.8-1.2 17.5 3.2 26.5 3.2 7 5.5 13.9 7.2 21.4q.3 1.3.6 2.6c2.2 10 2.7 19.6 2.7 29.8q0 1.9 0 3.9c0 9.5-.2 19.4-3.2 28.5q-1.4.1-2.9.2c-28.1-.7-28.1-.7-54.1 5.8-.3 3.4-.3 3.4 0 7 2.1 2.2 3.3 3 6.4 3.1 1.4-.2 1.4-.2 2.7-.3q1.3-.2 2.7-.4 1.6-.2 3.2-.4c8.2-1.1 16.3-1.1 24.6-1.1a49.48 49.48 0 0 1 3.9.1q4.8 0 9.5 0c-.5 3.7-1.2 6.9-2.7 10.3q-.5 1.2-1 2.3-.6 1.2-1.1 2.4-.5 1.2-1.1 2.4c-2 4.5-4.3 8.5-7.1 12.6q-1.5-.2-3.1-.5-5.7-.8-11.4-1.6-2.5-.4-4.9-.8-3.6-.5-7.2-1-1-.2-2.2-.3c-4.8-.7-9.4-1.1-14.2-.8-2.3 1.9-2.3 1.9-2.4 4.9.1 3.1.1 3.1 1.9 4.7 3.3 1.8 6.5 2.4 10.1 3q1.1.2 2.2.4 3.5.6 6.9 1.2 2.4.4 4.8.8 5.7 1 11.5 2c-3.9 5.9-8.2 10.9-13 16q-1.1 1.2-2.2 2.4C466.2 480.6 451 490.5 435 499q-1.1.6-2.1 1.1c-28.8 15.1-61.1 20.3-93.3 20.2q-4.3 0-8.6.1c-16.6 0-32.8-1.8-49-5.6q-1.3-.4-2.7-.7c-24-5.8-47.5-15.1-67.3-30.1q-1-.7-1.9-1.5c-7.9-6-15.3-12.4-22.3-19.3q-.9-.9-1.8-1.8c-4.1-4.1-7.2-8.4-10-13.4q1.2-.2 2.4-.5 5.2-1.1 10.5-2.3l3.7-.8 3.5-.8q1.6-.3 3.3-.7c2.9-.7 2.9-.7 4.6-3.9.3-2.5.3-2.5 0-5-2-2.4-2-2.4-6-2.2-5.3.1-10.5 1.1-15.8 2.2q-2.7.6-5.4 1.1-1.2.3-2.4.5c-2.5.4-4.9.5-7.4.4q-2.2-4.4-4.3-8.9c-.6-1.2-.6-1.2-1.2-2.5-2.8-5.7-4.8-11.4-6.5-17.6 8.5-.1 16.9-.1 25.4.8 4.8.4 9.8.7 14.6.2 2.4-1.9 2.4-1.9 2.3-5.5-.1-1.7-.1-1.7-.3-3.5-3.6-2.4-6.6-2.6-10.7-3.1l-2.3-.2c-8.1-.8-16.2-1.1-24.3-1.4-1.5 0-1.5 0-3-.1H154c-2-.2-2-.2-3-1.2-2.3-10.1-2.4-20.3-2.4-30.6q0-1.2 0-2.4c.1-14 1.2-26.7 6.2-39.8q.5-1.3 1-2.5.9-2.3 1.9-4.6c5-11.9 2-26.1.9-38.5-2-20.9-3-41.6-3-62.6q0-1.7-.1-3.4 0-4.9.1-9.8 0-1.4 0-2.9c.1-6.7.4-14.9 5.4-19.9 27.4 1.5 61.5 38.2 81 56q2.7 2.4 5.4 4.9 1.2 1 2.4 2.2 1.1.9 2.2 1.9.9.9 1.7 1.8c5.2 2.7 12.2.1 17.7-1.2 7.4-1.7 14.8-3 22.4-3.7q1.4-.1 2.8-.3c9.7-.8 19.5-1 29.3-.9q1.4 0 2.8 0c20.9.1 42.4.6 62.8 6 5.5 1.5 11.1 2.5 16.4-.1 4.6-3.6 8.8-7.7 13.1-11.6q1.6-1.5 3.1-2.9 1.7-1.5 3.3-3 .9-.8 1.7-1.6 3.9-3.5 7.7-7.1C484.7 172 484.7 172 504 175z" fill="#fb9100"/><path d="M798.4 170.1c22.6 18.6 37.4 44.6 40.6 73.9 2.1 28.7-6.9 57.5-25.7 79.5-18.6 21.1-43.9 35.2-72.3 37.5-29.3 1.7-57.6-6.7-80-26-17.7-15.8-29-35.1-35-58q-.4-1.4-.7-2.8c-5.9-27.5.8-56.9 15.7-80.3 18.2-25.7 43.4-41 74.3-46.5 29.8-3.3 59.5 4 83.1 22.7z" fill="#fe5e2b"/><path d="M904.1 410.3c3.7 3 6.4 6 7.9 10.7.1 5.9-1.1 9.3-5.2 13.5-3 2.4-6.2 3.4-9.8 4.5-18.6 6.5-34.1 15.7-42.9 33.8q-1 2.1-1.9 4.2-.4 1-.9 1.9c-11.8 27.5-1.2 56.4 8.4 82.6 4.5 12.1 8.8 24.2 12.2 36.6q.3 1.1.6 2.2c3.1 12.2 3.9 24.2 3.8 36.8v2.3c-.2 38.8-12.3 71.7-38.3 100.6q-.9 1-1.8 2c-9.7 10.3-21.7 17.6-34.2 24q-1.6.8-3.3 1.7c-15 7.1-33.5 11.5-50.1 11.4q-1.9-.1-3.8-.1-1.4 0-2.8 0 .7-1.3 1.5-2.5c8.4-14.8 13.6-30.8 16.5-47.5l2.8-.2c19.8-2.1 37.3-11 50.2-26.4 19.2-24.9 23.4-53.8 20.4-84.5-2.8-19-10.5-37.5-17.2-55.3-12.1-32.4-18.4-67.7-4.2-100.6 5-11 10.7-21.1 19-30q1.1-1.3 2.3-2.6c9.7-10.4 21.2-17 34.7-21.4 1-.4 1-.4 2-.7 10.3-3.3 25-2.8 34.1 3z" fill="#fa9200"/><path d="M458.1 791.9l6.6.1c7.8.1 7.8.1 11.3 1 2.3 2.9 2.3 2.9 4 6 2.3 2.5 3.8 3.8 7.2 4.3 3.5.2 7 .1 10.5.1 6.7.1 6.7.1 9.9 2.9a65.47 65.47 0 0 1 2.4 2.7c7.5 5.1 15.4 4.6 24.1 4.5q2.5 0 4.9 0 6.6 0 13.3 0 6.9 0 13.9 0 11.7 0 23.4-.1 13.5 0 27 0 14.4 0 28.8-.1 4.1 0 8.3 0 6.5 0 13 0 2.4 0 4.7 0c18.2 0 35.2-1.9 50.6-12.3q1.4-1.5 2.7-3.1c2.5-2.5 3.2-2.9 6.8-3.5a52.08 52.08 0 0 1 3.9.1q1.1.1 2.2.1 3.8.1 7.5.3 2.6.1 5.3.2 7.6.4 15.2.7 5.3.3 10.7.5l76.2 4.2q1.2.1 2.3.2c21.6 1.5 21.6 1.5 29.2 5.3q-.5 2-1 4c-10.4 2.5-20.7 4-31.4 5.1q-2.4.2-4.8.5c-54.3 5.8-109.1 7.1-163.7 8H681l-153.7.5q-16.4 0-32.8 0-19.4 0-38.8 0-2.1 0-4.1 0h-2.1q-7 0-14 0c-46.6.1-93.1-.6-139.6-2q-1 0-2 0c-126.1-3.8-126.1-3.8-144.9-12.1q0-2 0-4c4.8-2.2 8.7-3.6 14-4 1.6-.1 1.6-.1 3.2-.3 3.3-.1 6.4-.2 9.8.3 2.7 2.8 2.7 2.8 5 6 5.3 3.1 11 5.1 17.2 5.2h2.5q1.3 0 2.6 0 1.4 0 2.8 0 2.9 0 5.8 0 4.4.1 8.8.1c14.3.1 28.6 0 40.3-9.3q1.8-2.3 3.5-4.6c3.3-3.9 5.5-5.1 10.5-5.5q3.5-.1 7 0 1.9 0 3.8 0 5.8 0 11.7 0 4 0 8 0 9.7 0 19.5.1.6 1.2 1.2 2.5c.8 1.6.8 1.6 1.5 3.3q.8 1.5 1.6 3.2c3 5.3 6.1 7.7 11.8 9.4 6.3 1.3 12.8 1 19.1 1q2.4 0 4.8 0 4.9.1 9.8 0 6.3 0 12.6.1 4.9 0 9.7 0 2.4 0 4.7 0c12.5.1 23.8-1.4 33.2-10.5q.9-1.2 1.8-2.5c6-8.2 11.8-9 21.3-8.6z" fill="#abc5cb"/><path d="M698 204c1.8 1.1 1.8 1.1 3.5 2.7q1 1 2.1 1.9 7.8 7.6 15.4 15.3 1.8 1.8 3.5 3.6 4.3 4.2 8.5 8.5c5.4-4.5 10.2-9.2 14.9-14.4 16.2-17.4 16.2-17.4 21.8-18 4.5 0 6.7 1.9 10 4.9 2.5 2.8 2.8 5.5 2.8 9.3-1 4.4-4.4 7.1-7.5 10.2q-2 2-4.1 4.1-1.4 1.4-2.8 2.8c-3.9 3.9-7.6 7.9-11.1 12.1q-1.7 2-3.4 4-1.3 1.5-2.6 3 1.3 1.3 2.6 2.6c5.4 5.3 10.7 10.6 15.6 16.4 3.1 3.5 6.5 6.7 9.8 9.9 2.4 2.5 2.9 3.4 3.3 6.9-.5 5-2.8 7.8-6.5 11.1-4.1 1.6-7.6 1.3-11.8.1-2.9-1.9-5.1-4.2-7.4-6.7q-1-1-2-2-3.1-3.1-6.2-6.4-2.1-2.1-4.2-4.3-5.1-5.3-10.2-10.6c-6.7 3.2-11.5 9.2-16.3 14.8q-1.8 2.1-3.7 4.2-.7.7-1.3 1.5c-10 11.1-10 11.1-15.6 12-5.2-.1-8.3-2.8-12-6.3-1.7-3.4-2-6.5-1.1-10.2 3.5-5.2 8.5-9.5 13-13.9q.8-.8 1.6-1.6 3.3-3.2 6.6-6.4 2.5-2.3 4.9-4.7.8-.8 1.5-1.5c1.6-1.5 1.6-1.5 3.4-3.9-.3-3.2-1.5-4.9-3.8-7.1q-.8-.8-1.7-1.7-.9-.9-1.9-1.9-1-.9-1.9-1.9-3.1-3-6.2-6-3.1-3.1-6.2-6.1-1.9-1.9-3.8-3.8c-3.7-3.6-5.6-5.5-5.9-10.8 0-3.5.5-5.4 2.8-8.2 4.2-4.1 7.9-4.5 13.6-3.5z" fill="#feebda"/><path d="M321.9 375.5q3.2.1 6.3 0c18 .1 18 .1 23.8 5.3 3.8 4.2 5.4 7.2 5.3 13.1-.6 4.4-3.3 7.1-6.4 10.1-2.7 1.9-5.5 3.3-8.5 4.9-4.5 2.4-7.3 4.2-9.4 9.1-.3 3.8-.3 3.8 0 7q2.5 1.1 5.1 2.1 1.6.7 3.3 1.4 3.6 1.5 7.4 2.9c15 5.7 30.9 14.5 38.2 29.6.6 3.6.4 5.1-1.1 8.4-1.9 1.6-1.9 1.6-5.1 2.3-5.4-1-8-3.9-11.8-7.7-11.1-10.8-26.9-20.8-42.9-21.1-17.3 1-32.8 9.1-44.5 21.6q-.9.9-1.7 1.9c-3 3.3-4.1 4.5-8.6 5.1-3.3-.5-3.3-.5-6.3-2.6-2-2.9-2-2.9-2.2-5.7 5.1-13.3 18.7-22.4 31.2-28.2q7-2.8 14.1-5.3c1.3-.5 1.3-.5 2.6-.9q1.2-.4 2.4-.9c2.2-.9 2.2-.9 3.9-3.9.6-4.1.6-4.1 0-8-4.2-5.2-9.3-7.3-15.2-9.9-4.8-2.2-7.3-4.2-9.8-9.1-1-4.2-.9-8.2 1-12.1 7-9.2 18.2-9.5 28.9-9.4z" fill="#02264c"/><path d="M268.4 333.8c3.6.2 3.6.2 5.3 1.4 2.3 3.1 1.9 6.2 1.8 10-.8 4.8-3.1 7.4-6.5 10.8q-1.1 1.1-2.2 2.3c-9.8 9.5-19.7 12.9-33 12.9q-1.3.1-2.7.1c-9.6.1-17.7-2.2-24.8-8.9-2.7-2.9-4.2-4.7-4.9-8.6.8-3.5 1.5-4.8 4.6-6.8 5.4-.1 8.9 1.9 13.2 4.8 6.1 4 15.8 3 22.8 2.2 7.7-2.3 13.5-6.3 18-13q.6-.9 1.2-1.7 1.4-2.2 2.8-4.3c1-1 1-1 4.4-1.3z" fill="#03264c"/><path d="M387 334c2 2.2 2 2.2 3.8 5.1 5.1 7.6 11.8 12.9 20.7 15.5 9.7 1.7 19.8 1 28.2-4.3 3.2-1.8 5.7-1.6 9.3-1.3 2 2 2 2 2.4 5.3-.5 4.5-1.4 6.3-4.4 9.7-10.9 8.5-23.8 8-37 7-11.3-1.6-20.4-7.3-27.6-16.1-3.9-5.2-4.7-9.2-4.8-15.6.4-2.3.4-2.3 1.5-4.1 2.8-1.8 4.6-1.7 7.9-1.2z" fill="#03244d"/><path d="M166.2 801.7c3.3-.1 6.4-.2 9.8.3 2.8 2.7 2.8 2.7 5 6 5.5 3.2 11.2 5.1 17.6 5.2a25.28 25.28 0 0 1 2.7.1h2.9q1.5 0 3 .1 4.8.1 9.6.2 3.2 0 6.4.1 7.9.2 15.8.3 0 .5 0 1-1.3.1-2.6.1-1.6.2-3.3.3l-3.3.2c-2.9.1-2.9.1-4.8 2.4-3.5.5-7.1.3-10.7.3q-1.6 0-3.3 0c-9.1-.1-18.1-.7-27.1-1.6q-1.9-.2-3.8-.4c-21.7-2.2-21.7-2.2-31.1-6.3q0-2 0-4c5.8-2.7 10.7-3.7 17.2-4.3z" fill="#acc5cc"/><path d="M572 780c1 2 1 2 .3 4.4l-1.2 2.8c-1.5 4-2.5 7.6-3.1 11.8q23.7-.1 47.5-.2 11-.1 22-.1 9.7-.1 19.3-.1 5.1-.1 10.2-.1 5.6 0 11.3-.1 1.7 0 3.4 0c8.6-.1 17.2-1.1 24.9-5.2q1.2-.6 2.4-1.2l2 1c-16.3 9.5-33.5 8.4-51.8 8.3q-4.1 0-8.1 0-9.5 0-19-.1-10.8 0-21.6 0-22.3-.1-44.5-.2c-.1-4.7.2-8.3 1.9-12.8q.5-1.3 1-2.7c1.1-2.5 1.1-2.5 3.1-5.5z" fill="#f3a803"/><path d="M187 812q1.4.2 2.8.5c4.9.7 9.8.7 14.7.8q1.5 0 3 .1 4.7.1 9.4.2 3.2 0 6.4.1 7.9.2 15.7.3 0 .5 0 1-1.3.1-2.6.1-1.6.2-3.3.3l-3.3.2c-2.9.1-2.9.1-4.8 2.4-2.4.2-2.4.2-5.4.2q-1.6 0-3.3 0h-3.4q-1.7 0-3.4 0c-5.9 0-11.6-.3-17.5-1.2q.5-1 1-2-3-1-6-2 0-.5 0-1z" fill="#d7ecf0"/><path d="M746 659q1.5 0 3 0c1.7 12.1 2.3 23.9 2.1 36.1q0 2.4 0 4.9 0 6-.1 12c-1.6-2.9-2.3-5-2.3-8.3q0-1.3-.1-2.6v-2.7q0-1.4-.1-2.8-.1-4.4-.1-8.9-.1-3-.1-6-.2-7.3-.3-14.7-1 0-2 0v-7z" fill="#efa703"/><path d="M668 820h48c-4.1 3.1-4.7 3.4-9.4 3.4h-3.3q-1.7-.1-3.4-.1-1.8 0-3.5 0c-9.6-.1-19-.9-28.4-2.3q0-.5 0-1z" fill="#97b1b8"/><path d="M185 769q1 0 2 0-.5 1.8-1 3.6c-1.4 5.5-1.6 10.9 0 16.4q1 .5 2 1 .3-1.3.6-2.6l.8-3.3q.4-1.6.7-3.3c.9-2.8.9-2.8 2.9-4.8q-.2.9-.4 1.8c-1.6 6.8-1.8 13.2-1.6 20.2-2.9-1.4-4.9-2.6-7-5-1.2-3.6-1.2-6.5-1.2-10.3q0-1.9 0-3.9c.2-3.7.9-6.4 2.2-9.8z" fill="#f1ad03"/><path d="M242 816q4 .3 7.9.6 3.1.2 6.1.4 0 .5 0 1l-33 1q0-.5 0-1l-12-1q0-.5 0-1a178.3 178.3 0 0 1 31 0z" fill="#9fbac2"/><path d="M497 634q1 .5 2 1c.3 5.8-.7 10.8-2.1 16.4q-.3 1.3-.7 2.6-.7 2.8-1.4 5.5-1 4.2-2.1 8.4-.6 2.7-1.3 5.4l-.6 2.6c-1.6 5.9-1.6 5.9-3.8 8.1l1-13q1 0 2 0 .1-.8.3-1.7c1.2-7.5 3.1-14.9 5-22.2 1.2-4.5 2-8.4 1.7-13.1z" fill="#090e5a"/><path d="M396 783q.5 1 1 2l-2.2 5.7c-1.1 2.9-1.1 2.9-1.8 8.3l21 1q0 .5 0 1h-23c1.1-11.3 1.1-11.3 5-18z" fill="#e4a307"/><path d="M268.1 333.9l2.9.1q-.9.1-1.9.3c-2.2.5-2.2.5-3.1 2.5q-.5 1.1-1 2.2-2 2-4 4-.7.9-1.4 1.9c-4.5 5.7-9.5 9-16.6 11.1q-1.5-.5-3-1 1.4-.6 2.9-1.3c7-3.3 12.8-6 17.1-12.7q.6-.9 1.2-1.7 1.4-2.2 2.8-4.3c1-1 1-1 4.1-1.1z" fill="#0a1058"/><path d="M667 167q0 1.5 0 3l-5 4.1c-9.2 7.1-9.2 7.1-15 16.9-2.1 1.2-2.1 1.2-4 2 1.5-4.7 4.2-7.8 7.5-11.3q.8-.9 1.6-1.7c4.6-4.9 9.5-9.1 14.9-13z" fill="#ef7133"/><path d="M213 815q0 .5 0 1l12 1q0 .5 0 1-6 0-12 .1-1.7 0-3.4 0c-6 0-11.7-.2-17.6-1.1q0-.5 0-1c7-.7 13.9-1.1 21-1z" fill="#cde0e4"/><path d="M536 773.8c3 .2 3 .2 5 1.2.3 5.3.3 6.6-3 11l-1-11c-5.9 2.4-7.6 7.5-10 13-.9-2.5-1.2-3.6-.1-6.1q.7-1 1.4-2 .7-1 1.4-2.1c2.7-3.8 2.7-3.8 6.3-4z" fill="#0d1657"/><path d="M378 793q.5 0 1 0v8h-22q0-1 0-2h20q.5-3 1-6z" fill="#e3a207"/><path d="M467 712c1.2 3.7.5 4.6-.9 8.2-1.5 3.6-2.3 6.3-2 10.2-.1 3.6-.1 3.6-1.4 5.2-1.7 1.4-1.7 1.4-4.7 3.4 1.1-6.2 3-12 5.1-18q.4-1.1.8-2.3c2-5.6 2-5.6 3.1-6.7z" fill="#101754"/><path d="M542 642q.5 0 1 0c.2 2.3.2 2.3 0 5l-3 3q0 1.5 0 3-1 0-2 0l-.6 2.2q-2.1 7.9-4.4 15.8-1 0-2 0c1.7-8.4 4.6-22.6 11-29z" fill="#edb305"/><path d="M158 804l-3 5q2 1.5 4 3-2.2-.1-4.4-.3-1.2 0-2.4-.1c-2.2-.6-2.2-.6-3.5-2.6q-.3-1-.7-2c3.3-3.1 5.6-3.3 10-3z" fill="#bed5db"/><path d="M761.3 795.8q1.1-.1 2.2-.1c2.1 0 2.1 0 5.5.3q1 1.5 2 3-5.4.1-10.8.1l-3.1.1q-1.5 0-3 0-1.3 0-2.7 0c-2.4-.2-2.4-.2-5.4-2.2 5.1-.8 10.1-1.2 15.3-1.2z" fill="#94afb8"/><path d="M815 456c1.4 4.2-.3 7-1.9 10.9-2.6 6.3-2.6 6.3-3.1 13.1-1 2.8-1 2.8-2 5q-1-.5-2-1c1.8-10.2 4.6-18.7 9-28z" fill="#edaf06"/><path d="M506 285q.5 0 1 0 0 1.1 0 2.2c.2 8.4 2.2 14.6 5.6 22.1 2.5 5.4 2.5 5.4 1.4 8.7l-3-9q-1 0-2 0-.2-1.1-.4-2.2c-.5-2.8-.5-2.8-1.6-5-1.2-3.5-1.2-6.4-1.1-10.1q0-1.9 0-3.8c.1-1.4.1-1.4.1-2.9z" fill="#f4bb03"/><path d="M531 734q1.7 1.7 3.5 3.5 1.6 1.6 3.2 3.1l4.3 4.4q0 1 0 2l-14 3c1-2 1-2 3.8-3.1 3.2-.9 3.2-.9 7.2-.9q-.9-1-1.8-2.1l-2.2-2.8q-1.1-1.3-2.3-2.7C531 736 531 736 531 734z" fill="#f1bb04"/><path d="M228 702c1.3 4.3.7 7.6 0 12q-1 0-2 0-.3 1.2-.6 2.3-.4 1.5-.8 3.1-.4 1.5-.7 3c-.9 2.6-.9 2.6-2.9 4.6 1.7-8.5 4.3-16.7 7-25z" fill="#f0b105"/><path d="M525 784c1.2 3.7.7 5.9.1 9.7q-.3 1.7-.6 3.6-.3 1.3-.5 2.7c-4.8.2-4.8.2-6.8-1.5q-.6-.7-1.2-1.5.5-1.5 1-3l2 3q1.5.5 3 1 .1-1 .1-2l.3-2.7q.1-1.4.2-2.7c.4-2.6 1.1-4.4 2.4-6.6z" fill="#f8b702"/><path d="M745 774l1.6 1c2.8 1.2 5.1 1.4 8.2 1.6l2.9.3q1.2 0 2.3.1c-3.7 2.4-6.9 2.2-11.3 2.1q-1.8 0-3.8 0-1.4-.1-2.9-.1 1.5-2.5 3-5z" fill="#f5ae02"/><path d="M407 686q.5 0 1 0c.1 4.6-.1 8.5-1 13q.5 1 1 2c-1.6 2.4-3 4.1-5 6 .7-7.2 2.3-14 4-21z" fill="#f1ad03"/><path d="M281 513c7.1-.4 12.5 0 19 3q0 .5 0 1-3.1-.2-6.1-.4-1.7-.1-3.5-.2c-3.4-.4-6.2-1.2-9.4-2.4q0-.5 0-1z" fill="#f2ac02"/><path d="M761 240q1 1.5 2 3-6 5-12 10-1-.5-2-1l12-12z" fill="#fe3416"/><path d="M180 185c4.7 1.6 8.3 4.2 12.3 7.1q1 .7 2 1.4 2.3 1.8 4.7 3.5c-1.8.6-1.8.6-4 1q-1.5-1-3-2 .5-.5 1-1c-1.4-.8-1.4-.8-2.8-1.7q-1.9-1.1-3.7-2.2-.9-.5-1.9-1.1c-1.6-.9-3.1-2-4.6-3q0-1 0-2z" fill="#f3b704"/><path d="M312 794h13l4 9q-.5 1-1 2c-4-6.8-4-6.8-4-9l-12-1q0-.5 0-1z" fill="#bbd1d7"/><path d="M828 748q1 .5 2 1-2.9 2.6-5.8 5.1-2 1.7-3.9 3.5L816 761c-2.2-.4-2.2-.4-4-1q1.5-1 3-2.1 1.9-1.4 3.9-2.8.9-.7 1.9-1.4 1-.6 1.9-1.3.9-.6 1.8-1.3c1.7-1.2 1.7-1.2 3.5-3.1z" fill="#061259"/><path d="M408 510q-3.9 1.3-7.9 2.5-1.1.4-2.2.7c-5.7 1.8-5.7 1.8-7.9 1.8q0-1.5 0-3 3.7-.8 7.3-1.6l2.1-.4c3.4-.7 5.3-1.1 8.6 0z" fill="#f2ac03"/><path d="m646 500c4.2 1.5 7.6 3.5 11.3 6 1.5 1.1 1.5 1.1 3.2 2.1 2.5 1.9 2.5 1.9 3.5 3.9-4.1-1.4-7.5-3.5-11.1-5.9-2-1.3-2-1.3-4.9-2.1-1.2-2.1-1.2-2.1-2-4z" fill="#ecb106"/><path d="M486 759c1.2 3.5.8 4.4-.4 7.8-1.3 4.1-2.1 7.9-2.6 12.2q-.5 0-1 0-.1-3.7-.2-7.3 0-1-.1-2.1c0-5.2 0-5.2 1.7-7.5q.8-.5 1.6-1.1.5-1 1-2z" fill="#091357"/><path d="M532 634q.5 1 1 2c-.7 1.8-.7 1.8-1.9 3.8-1.6 3.1-2.7 5.7-3.1 9.2q-1 0-2 0-1 2-2 4c.5-5 2.1-8.5 4.6-12.9q.9-1.7 1.9-3.5c.7-1.3.7-1.3 1.5-2.6z" fill="#0c1057"/><path d="M186 396c7.2-.4 7.2-.4 10.5 1.1 1.5 1.9 1.5 1.9 1.9 5.5q-.2 1.7-.4 3.4-1.5 1-3 2l1-8c-2.1-.6-3.8-1-6-1q0-1 0-2-2-.5-4-1z" fill="#070d5a"/><path d="M473 489q1 .5 2 1-1 .8-2.1 1.6-1.3 1.1-2.7 2.2-1.3 1.1-2.7 2.2c-2 1.6-3.8 3.2-5.5 5q-1-1-2-2l13-10z" fill="#f6b702"/><path d="M433 514q.5 2 1 4c-1.8 1.1-1.8 1.1-4 2-2.3-.9-2.3-.9-4-2l7-4z" fill="#f1a303"/><path d="M182 455c3.4 1.1 4.4 2.2 6.7 4.9q.9 1 1.9 2.1c1.4 2 1.4 2 1.4 5q-2.5-2.4-5-4.9-1.4-1.3-2.8-2.7C182 457 182 457 182 455z" fill="#f6bb02"/><path d="M293 238l11 1q-.5 1-1 2h-11q.5-1.5 1-3z" fill="#e78c06"/><path d="M269 763c1 3 1 3 0 5.5q-.7 1.3-1.4 2.7-.7 1.3-1.5 2.7-.5 1-1.1 2.1-.5 0-1 0 0-3 0-6 1.5-.5 3-1c1.2-3 1.2-3 2-6z" fill="#f3af03"/><path d="M542 642q.5 0 1 0c.2 2.3.2 2.3 0 5l-3 3q0 1.5 0 3-1.5 0-3 0c1.2-4 2.6-7.5 5-11z" fill="#e6a507"/><path d="M154 405h9q-.5 1-1 2h-7q-.5 1-1 2 0-2 0-4z" fill="#161d4f"/><path d="M186 393c7.4-.3 7.4-.3 11 2-3.2 1.6-6.4 1.1-10 1q-.5-1.5-1-3z" fill="#eb8d03"/><path d="M470 700q.5 0 1 0c.4 7.5.4 7.5-1.5 10q-.7.5-1.5 1c.9-7.6.9-7.6 2-11z" fill="#121953"/><path d="M311 632q1 0 2 0 1 1 2 2 1-.5 2-1 1 1 2 2-2 1.5-4 3c-4-4.9-4-4.9-4-6z" fill="#e69a06"/><path d="M566 771q2.5 0 5 0 .5 1 1 2l-7 1q.5-1.5 1-3z" fill="#dc9107"/><path d="M532 760q2.5.5 5 1c-2.4 1.9-4.1 3-7 4q1-2.5 2-5z" fill="#19224b"/></svg>