<svg xmlns="http://www.w3.org/2000/svg" width="1024" height="1024" xmlns:v="https://vecta.io/nano"><path d="M510 118c.8-.3.8-.3 1.7-.5 3.4-.7 6.1.1 9.4.8q2 .4 4.1.9 1.9.4 3.8.8 2.7.5 5.4 1c3.8.8 7.5 1.9 11.2 3.2q2.5.8 5.2 1.6c8.2 2.3 15.7 5.5 23.4 9.1q1.2.6 2.5 1.2 1.1.5 2.2 1c2 .9 4 1.4 6.1 1.9q0 1 0 2c2.3.7 4.6 1.3 7 2q0 1 0 2 1 .3 2 .6c2.7 1.3 4.3 2.4 6.6 4.2 4.4 3.4 8.9 5.3 14 7.3 11.1 4.6 21.7 10.1 32.3 15.8 2.2 1.2 2.2 1.2 5.1 2.1q1.5 1.5 3 3 2.2 1.2 4.4 2.4c3.9 2.1 6.5 4.4 9.6 7.6q2 1.6 4.1 3.1c16.3 12.5 30.7 32.1 33.5 52.9q.1.9.2 1.9.3 3.1.7 6.2c.6 4.9.6 9.7.6 14.7q0 1.2 0 2.4c0 4.1-.1 7.8-1.1 11.8q-.2 1.1-.4 2.1c-1 4.9-2.4 9.1-4.5 13.6q-1.3 2.8-2.4 5.6c-1.7 4-3.9 7.5-6.3 11q-.7 1-1.4 2c-3.8 5.7-8.2 10.8-13 15.7q-.8.9-1.7 1.8c-4.1 4.5-8.9 8.1-13.8 11.7-2.7 2-5.2 4-7.5 6.5 1.7 3.2 3.4 5.4 6.2 7.7q1.4 1.1 2.8 2.3 0 1 0 2 2.4 2.6 5 5c3.3 3.2 6.4 6.6 9.4 10.2 2.1 2.3 4.3 4.6 6.6 6.8q3.1 3.2 6.1 6.5.7.8 1.5 1.7c3 3.2 5.7 6.4 8.4 9.8q1.1 1.1 2.3 2.3c2.2 2.2 4.4 4.5 6.5 6.8q.8 1 1.7 2c1.5 1.9 1.5 1.9 2.5 4.9q1 0 2 0 2 3 4 6c2.4 2.5 4.8 4.8 7.3 7.2 1.7 1.8 1.7 1.8 1.7 3.8q1 0 2 0c1.6 1.8 1.6 1.8 3.6 4.3q4.4 5.7 8.9 11.2 5.3 6.4 10.5 13 3.2 4 6.6 8.1 5.8 7.1 11.4 14.4.7.9 1.5 1.9c2.4 3.4 4.6 7 6.8 10.5 1.5 2.5 1.5 2.5 3.1 4 3.1 3.2 5.6 6.9 8.2 10.5q.8 1.2 1.7 2.5.9 1.2 1.8 2.4l1.5 2.1c1.3 2 2.4 4 3.4 6.1q1.8 2.5 3.6 5c2.4 3.5 4.4 7.3 6.4 11q3 5.2 6 10.4c2.2 3.8 4.1 7.7 6 11.6q.5.9.9 1.8c5.7 11.1 10.8 22.4 15 34.2 1.2 3.3 2.5 6.5 3.8 9.8 1.7 4.4 2.7 8.4 3.3 13.2q.7 2.2 1.4 4.4c1.6 4.4 3 8.9 3.6 13.6q-.5 1-1 2 1 1 2 2c.4 2.2.4 2.2.6 4.9.2 3.5.2 3.5.9 6.9 2.3 10 1.7 21 1.7 31.3q0 1.8 0 3.8c0 7.2-.5 14.1-1.7 21.3-.6 3.3-.9 6.5-1.3 9.8-1.3 11.1-5.3 22.1-8.7 32.8q-.3 1-.7 2c-1 2.8-2.4 5.5-3.8 8.2q-1 2-2 4.1-1 2.1-2.1 4.2-.5 1.1-1 2.2c-2.7 5.4-2.7 5.4-4.9 6.5q0 1.5 0 3c-4.7 8.3-10.9 15.7-17 23-1.1 1.4-1.1 1.4-2.1 2.8q-1 1.1-1.9 2.2-1 0-2 0 .1.9.3 1.8c.6 6.1.6 6.1-1.7 9-2.1 1.6-4.2 2.9-6.6 4.2q-1 .5-2.1 1.1c-5.5 2.6-11.4 3.8-17.4 5-1.1.3-1.1.3-2.3.5-17.2 3.3-34.7 4-52.1 4.9q-1.8.1-3.7.2l-67.6 2.7q-1.8 0-3.6.1-3.4.1-6.8.2c-4.1.1-8.3.2-12.4.8-5.1.7-10.2.6-15.4.6q-1.6 0-3.3 0-6.9-.1-13.9-.1c-11.4-.1-22.7-.1-34.1.5-12.9.7-25.7.7-38.6.6q-5.2 0-10.3 0-5 0-10 0-1.9 0-3.8 0c-9.4 0-9.4 0-13.9-.6-4.1-.6-8-.6-12.1-.6q-1.2 0-2.3 0-3.7.1-7.4.1-4.8 0-9.6.1-1.1 0-2.2 0c-4.5 0-8.7-.5-13.1-1.1q-3.3-.1-6.5-.1-1.8 0-3.6.1-1.8 0-3.7 0-3.7 0-7.3.1-1.7 0-3.3 0c-2.6-.1-2.6-.1-4.6-1.1q-2.7-.1-5.4-.1-1.6 0-3.2.1-1.7 0-3.4 0-3.3 0-6.6.1h-3c-2.4-.1-2.4-.1-4.4-1.1q-2.4-.1-4.7-.1-1.4 0-2.8.1-1.5 0-3 0-2.9 0-5.8.1-1.3 0-2.6 0c-2.1-.1-2.1-.1-4.1-1.1q-3.8-.1-7.5 0c-7.2.1-7.2.1-9.5-1-3.1-.1-6.1 0-9.2.1-2.8-.1-2.8-.1-5.8-1.1q-3.1-.1-6.1 0-3 .1-5.9 0-.5-.5-1-1-2.2-.1-4.5 0-2.3.1-4.5 0-.5-.5-1-1c-3.5-.3-6.9-.4-10.4-.6-3.5-.4-6.3-1.2-9.6-2.4q-1.8-.1-3.7-.2c-5.6-.6-12.3-3.8-16.3-7.8-.4-2.2-.4-2.2 0-5 6-6.6 14.3-8.1 22.9-8.8 2.8-.3 5.4-.7 8.1-1.2q-.5-1.1-1-2.2c-3.2-11.9 0-21.8 5.9-32.2 2.4-3.7 4.8-6.7 8.1-9.6.9-1 .9-1 1.8-1.9 3.4-3.2 7.3-5.6 11.2-8.1q.5.5 1 1 .5-1 1-2c6.5-3.1 12.8-5.3 20-5.8 4.7-.5 8-2.1 11.2-5.6 5.2-9 6.7-20.2 8.2-30.3q.3-2 .7-4 .6-4.1 1.3-8.2.9-5.9 1.9-11.7c4.9-30.4 8.1-61.1 10.2-91.8.4-6.4.4-6.4 1.5-8.6q.1-3.3.1-6.6-.1-1.8-.1-3.6 0-1.4 0-2.8 1 0 2 0-.5-1-1-2c-.5-11.1.2-22.4.6-33.5q.1-2.6.2-5.2.2-5.5.4-10.9.3-6.9.5-13.8.2-5.4.4-10.8.1-2.5.2-5.1c.4-9.6.9-19.1 1.7-28.7 3.3-.8 4.7-1.1 8 0 2.6-4 2.6-4 2.4-8.6-1.2-2.6-1.2-2.6-3.8-3.3-1.4-.1-1.4-.1-2.8-.3-3.3-.4-6.2-.9-9.4-1.9-2.8-.7-5-1.1-7.8-1.3-6.6-.7-12.5-3.1-18.6-5.6q-1.4-.4-2.8-.9c-17-5.9-34.1-19-42-35.4-3.9-9.3-7.5-19.9-7.2-30.1 0-2.9-.1-5.3-.5-8.1-1.1-7.5-.4-14.6.9-22.1q.6-3.5 1.2-7.1.4-2.3.9-4.5c.5-2.4.5-2.4.5-5.8-1.8-2.5-1.8-2.5-4.5-4.1q-1.4-1-2.8-2-1.3-1-2.7-1.9c-12.8-9.5-22.3-25.6-26-41q0-2 0-4-1-.5-2-1c-.8-33.9-.8-33.9 4-47q.5-1.5 1.1-3.1c2.7-7.2 6.6-13.4 10.8-19.8q1.9-2.8 3.6-5.8c1.6-2.4 3.1-3.9 5.3-5.7 3.9-3.3 7.6-6.9 11.2-10.6 3-3 6.5-5.4 10-8q1.3-1 2.7-2c5-3.7 9.9-7.1 15.3-10q2.8-1.5 5.5-3 1.4-.8 2.9-1.6 3.2-1.7 6.4-3.6c3-1.7 6.1-3.3 9.2-4.8q2-1 4.1-2 .9-.5 1.9-.9c2.4-1.3 4.7-2.7 7-4.1 5.3-3.2 10.4-6.3 16-9q1.1-.6 2.3-1.2c4.7-2.4 9.3-4.5 14.4-6.1 2.4-.7 4.7-1.7 7-2.6 11.1-4.5 22.6-6.9 34.3-9.1q1.1-.2 2.3-.5c18.1-3.8 48.4-9.1 65.7-.5zm-47 519c-2.2 2.2-2.4 3-3 6-.3 1.3-.3 1.3-.5 2.6q-.3 1.4-.6 2.8-.7 3.1-1.3 6.3-.4 1.7-.8 3.5l-5 22.2q-1 4.4-2 8.9-.3 1-.5 2.1-1.4 6.2-2.8 12.4l-4.3 18.5-3.2 14.8c-1.1 5.6-2.5 11.2-3.8 16.8q-.4 1.7-.8 3.3C424.5 798 424.5 798 416 809c3 4.1 3 4.1 7 7.1 3.2-.1 5.7-1.8 8-4.1q2.8-.1 5.6-.1 1.6 0 3.4 0 1.7 0 3.6 0 1.7 0 3.6.1 4.4 0 8.8 0c1.9-3.6 2.3-6.2 2.4-10.3.4-5.4 1.1-9 3.6-13.7q.7-1.4 1.4-2.8c5.6-11 12.8-18.6 24.5-22.6 3-.9 6.1-1.5 9.1-2 2.5-.8 3.4-1.5 5-3.6 3.1-9.8 4.1-20.5 5.5-30.7q.3-2.3.6-4.7.7-4.8 1.4-9.7.9-6.2 1.7-12.4.7-4.8 1.4-9.6.3-2.3.6-4.5.5-3.2.9-6.4.3-1.8.5-3.7c.4-3.1.5-6.1.4-9.3q-1.6-.9-3.3-1.8l-22.3-11.9q-2.3-1.3-4.7-2.5c-5.5-2.9-10.3-6.4-15.2-10.1-2.3-1.6-3.8-2.5-6.5-2.7zm155 72q-.7 2-1.4 4.1c-.4 1.1-.4 1.1-.7 2.2-1.1 3.2-2 6.5-2.9 9.7-10.5 36.9-10.5 36.9-15.4 49-.7 2.1-.7 2.1-1 4.8-.7 3.6-1.7 6.9-3 10.5q-.6 1.8-1.2 3.7c-1.4 3-1.4 3-4.4 5q-2 0-4 0c-3.7 2.7-4.9 4.3-5.7 8.9q-.2 2-.3 4.1-.3 1.8-.7 3.7c-.3 3.5.1 5.2 1.7 8.3 3.7-1.5 5.4-3.5 7.8-6.6q.9-1.2 1.8-2.5.7-.9 1.4-1.9 1 .5 2 1 2.2.1 4.4.1h2.5 2.7q1.4 0 2.7-.1 3.4 0 6.7 0c1.3-2.1 1.3-2.1.3-4.8-1.4-8.9 3.8-18.1 8.5-25.3 1.4-1.8 1.4-1.8 1.2-3.9l4-2q0-1 0-2l2.3-.4c2.9-.5 2.9-.5 5.7-2.6q3-.6 6-1a562.69 562.69 0 0 0 18-3q0-1.5 0-3c-2.1-1.7-2.1-1.7-4.9-3.4-15.4-10.9-23.3-27.2-29.1-44.6-1.5-4.8-1.5-4.8-5-8z" fill="#f99500"/><path d="M603 152c15 6.3 29.6 13.2 43.9 20.9 2.2 1.2 2.2 1.2 5.1 2.1q1.5 1.5 3 3 2.2 1.2 4.4 2.4c3.9 2.1 6.5 4.4 9.6 7.6q2 1.6 4.1 3.1c16.3 12.5 30.7 32.1 33.5 52.9l.2 1.9q.3 3.1.7 6.2c.6 4.9.6 9.7.6 14.7q0 1.2 0 2.4c0 4.1-.1 7.8-1.1 11.8q-.2 1.1-.4 2.1c-1 4.9-2.4 9.1-4.5 13.6q-1.3 2.8-2.4 5.6c-1.7 4-3.9 7.5-6.3 11q-.7 1-1.4 2c-3.8 5.7-8.2 10.8-13 15.7q-.8.9-1.7 1.8c-4.1 4.5-8.9 8.1-13.8 11.7-5.4 3.9-5.4 3.9-8.5 9.5q-1.5-.5-3-1c-2.3 1.3-2.3 1.3-4.7 3.2-8.4 6.1-15.8 9.7-26.3 8.8-12.2-2.3-22.4-9.3-30-19-13.1-20.5-13.4-44.7-13.2-68.4q.1-4.2.1-8.5 0-9.1.1-18.1.1-10.5.1-21.1 0-4.1.1-8.3c.1-13.1-.6-25.5-5.3-37.8-4.5-12.6-4.5-12.6-2.9-18.8 2.6-4.9 5.2-6.3 10.4-8.2 6.1-1.9 12.3-2.7 18.6-3.4 2.9-.1 2.9-.1 4-1.4z" fill="#002444"/><path d="M702 562c2.4 1.6 2.4 1.6 4 4 .6 3.4.6 5.2-1.4 8.1-2.3 1.7-4.5 2.8-7.1 4.1-28.4 13.7-47.8 43.3-58.1 72.2-8.4 25.1-8.8 53.1 3 77.2 2.6 4.9 5.5 9.3 9.1 13.5 1.5 1.9 1.5 1.9 2.6 4.1 1.2 2.4 2.5 2.7 4.9 3.8q1.1 1 2.2 1.9c10.8 8 30 7.8 43.1 9.7 19.8 2.8 19.8 2.8 23.4 5.1 1.3 2.3 1.3 2.3 1.2 5.4-.9 2.9-.9 2.9-2.9 4.9-9.2.8-18.3-.3-27.4-1.8q-1.8-.2-3.6-.5-5.7-.8-11.4-1.7-3.9-.6-7.7-1.2-9.5-1.4-18.9-2.8 0-1 0-2-2.4-1.7-4.8-3.3c-14.6-10.4-23.6-25.9-29.2-42.6-1.1-3.5-2.5-6.8-4-10.1-1.6 2.9-2.4 5.4-2.9 8.6-.6 3.6-1.5 6.7-3 10-2.2 5.2-3.4 10.6-4.6 16.2-1.1 4.9-2.7 9.5-4.5 14.2q-.8 2.2-1.5 4.5c-1.2 3.5-2.4 7-3.9 10.5-.7 2.1-.7 2.1-1 4.8-.7 3.6-1.7 6.9-2.9 10.4q-.6 1.8-1.3 3.7c-1.4 3.2-2.3 4.5-5.4 6.1q-2 0-4 0c-2.4 1.4-2.4 1.4-4 4-.5 2.7-.8 5.2-1 8l-.6 3.7c-.4 2.9-.4 4.6.6 7.3 3.7-1.5 5.4-3.5 7.7-6.6l1.9-2.5q.7-.9 1.4-1.9 1 .5 2 1 2.1.1 4.1 0c13.6 0 13.6 0 17.1 2.7 1.4 2.1 1.4 2.1 2.5 4.3 2.5 3.8 7.1 4.7 11.3 6q-.1-1.4-.2-2.8c-.4-12.2 1.9-22 9.2-32.2 2-2 2-2 5.4-2.4 3.6.4 3.6.4 6.1 2 1.5 2.4 1.5 2.4 1.6 5.6-1 3.3-1.7 4.8-3.5 7.6-4.2 6.9-4 15.3-4.6 23.2h22q-.2-2.4-.3-4.9c0-5.7 1-10.6 2.5-16q.4-1 .7-2.1c1.6-5.4 4-9.8 8-13.9 3-1.6 4.9-1 8.1-.1 2 2 2 2 2.4 5-.1 3.2-.9 5.4-2.2 8.3-3.3 7.5-4 15.7-5.2 23.7q1.3 0 2.6-.1l50.9-1.1q2.3 0 4.6-.1 9.3 0 18.6-.1 5.8 0 11.6-.1 2.2 0 4.4 0c11.1-.1 21.8-.9 31.5-6.7q1.4-.8 2.8-1.6 1-.6 2-1.2c.5 3.1.6 5.9 0 9-2.2 2.8-4.9 4.3-8 6q-1 .5-2.1 1.1c-5.5 2.6-11.4 3.8-17.4 5q-1.1.3-2.3.5c-17.2 3.3-34.7 4-52.1 4.9l-3.7.2-67.6 2.7q-1.8 0-3.6.1-3.4.1-6.8.2c-4.1.1-8.3.2-12.4.8-5.1.7-10.2.6-15.4.6h-3.3q-6.9-.1-13.9-.1c-11.4-.1-22.7-.1-34.1.5-12.9.7-25.7.7-38.6.6q-5.2 0-10.3 0-5 0-10 0h-3.8c-9.4 0-9.4 0-13.9-.6-4.1-.6-8-.6-12.1-.6q-1.2 0-2.3 0-3.7.1-7.4.1-4.8 0-9.6.1-1.1 0-2.2 0c-4.5 0-8.7-.5-13.1-1.1q-3.3-.1-6.5-.1-1.8 0-3.6.1h-3.7q-3.7 0-7.3.1-1.7 0-3.3 0c-2.6-.1-2.6-.1-4.6-1.1q-2.7-.1-5.4-.1c-1.6 0-1.6 0-3.2.1q-1.7 0-3.4 0-3.3 0-6.6.1h-3c-2.4-.1-2.4-.1-4.4-1.1q-2.4-.1-4.7-.1-1.4 0-2.8.1-1.5 0-3 0-2.9 0-5.8.1-1.3 0-2.6 0c-2.1-.1-2.1-.1-4.1-1.1q-3.8-.1-7.5 0c-7.2.1-7.2.1-9.5-1-3.1-.1-6.1 0-9.2.1-2.8-.1-2.8-.1-5.8-1.1q-3.1-.1-6.1 0-3 .1-5.9 0-.5-.5-1-1-2.2-.1-4.5 0-2.3.1-4.5 0-.5-.5-1-1c-3.5-.3-6.9-.4-10.4-.6-3.5-.4-6.3-1.2-9.6-2.4q-1.8-.1-3.7-.2c-5.6-.6-12.3-3.8-16.3-7.8-.4-2.2-.4-2.2 0-5 6-6.6 14.3-8.1 23-8.8 2.2-.2 2.2-.2 5.3-.9 4.3-.5 6.1 1.3 9.5 3.7 3.4 2.1 6.4 3 10.2 4q-.1-1.6-.1-3.3c-.4-13.3 1.6-26 10.6-36.4 1.5-1.3 1.5-1.3 4.4-1.7 3.1.4 3.1.4 5.5 2 2.3 3.4 2.2 5.3 1.6 9.4-1.1 2.1-2.4 4-3.8 6-4.4 7.2-3.8 16.8-4.2 25h25l-.4-7.9c-.1-7 .8-13.2 3.1-19.8q.4-1.2.7-2.3c1.8-4.8 4-8.3 7.6-12 3.6-1.1 3.6-1.1 7-1 2.4 1.6 2.4 1.6 4 4 1.1 5.3-1.4 9-3.8 13.5-3.8 7.7-3.8 16.1-4.2 24.5 23.1 0 23.1 0 44-8.8 2-1.2 2-1.2 5-1.2q1.4 1.3 2.8 2.6l3.2 2.4c3.7-.6 5.4-1.4 8-4 2.5-.2 2.5-.2 5.6-.2q1.6 0 3.3 0c1.8 0 1.8 0 3.5.1q1.8 0 3.5 0 3.3 0 6.5.1 2.8 0 5.6 0 .8 1.6 1.6 3.3c2.7 4.7 6.3 7 11.4 8.7q.1-1.4.1-2.9c.7-13.2 3.3-24.5 11.3-35.3 2.6-1.8 2.6-1.8 6.2-1.9 3.4 1.1 3.4 1.1 5.4 2.8 1.4 3.3 1.1 4.9 0 8.3q-1.2 2-2.4 3.9c-5.6 8.5-5.1 18.2-5.6 28.1h26q-.5-2-1-4c-1.4-12.6 2.2-27 10-37 1.9-2.1 1.9-2.1 4-3 3.5.1 5.3.4 7.9 2.7 1.6 3.3 1.1 4.8.1 8.3q-1.2 2.5-2.4 4.9c-4.6 8.8-5.1 17.2-5.6 27.1 25.1-.6 25.1-.6 45.7-13.6 7.2-8.9 9.8-20.7 13-31.5q.6-2.1 1.3-4.3l12.7-44c24.7-87.3 24.7-87.3 37.3-110.8q1.4-2.6 2.8-5.3c10.4-19.3 38.1-55.7 63.2-53.5z" fill="#012041"/><path d="M389.9 310.5q1.7 0 3.4 0c10.3 0 19.5 2.2 27 9.5 4.7 5.5 6.4 11.4 6.1 18.5-1.2 7.8-5.2 13.8-11.4 18.5-6 3.6-11.1 5.8-18 7v19q2.4.1 4.8.3c24.2 2 49.9 9.3 68.5 25.4 2.2 3 2.2 4.7 1.7 8.3-2.1 2.9-2.1 2.9-5 5-4.9.4-7.4-1.1-10.9-4.1-15.5-12.7-39.6-17.5-59.1-18.9q-2-.2-4-.4c-11.4-.7-20.1 2.7-29.1 9.8-2.4 2.2-4.7 4.3-6.9 6.6-1 1-1 1-3.7 1.4-3.3-.4-3.3-.4-6.2-2.5-2.1-2.9-2.1-2.9-2.2-6.3 3.1-9.9 13.4-15.4 22-20.2 4.3-2.3 8.4-3.8 13.1-5.4l1-18q-2.5-.5-5-1c-8.6-3.6-16-8.9-20.2-17.4-1.9-6.2-2-13.9.7-20 7.5-12.4 19.8-15.3 33.4-15.1z" fill="#021e3e"/><path d="M362 153l-2.5 2.2c-30.9 28.1-51.7 64.5-54.6 106.8-.8 15.9 1.6 30.9 8.1 45.5 2.2 5.5 1.8 9.4-.3 14.8q-2.2 4.9-4.7 9.7-1 2-2 4-.4-.9-.7-1.8c-1.5-2.6-3.1-3.8-5.5-5.6q-1.2-.9-2.4-1.8-2.1-1.6-4.2-3.2c-11.8-9.3-20.7-25-24.2-39.6q0-2 0-4-1-.5-2-1c-.8-33.9-.8-33.9 4-47q.5-1.5 1.1-3.1c2.7-7.2 6.6-13.4 10.8-19.8q1.9-2.8 3.6-5.8c1.6-2.4 3.1-3.9 5.3-5.7 3.9-3.3 7.6-6.9 11.2-10.6 3-3 6.5-5.4 10-8q1.3-1 2.7-2c5-3.7 9.9-7.1 15.3-10q2.8-1.5 5.5-3 1.4-.8 2.9-1.6 3.2-1.7 6.4-3.6c3-1.7 6.1-3.3 9.2-4.8q1.1-.6 2.2-1.2c1.8-.8 1.8-.8 4.8.2z" fill="#002345"/><path d="M428.5 582.9c5.1 2.2 8.3 7 11.6 11.2 8 9.8 17 18.1 26.9 25.9q1.8 1.5 3.5 2.9c7.8 6.5 15.8 12 24.6 17q2.9 1.7 5.8 3.4c7.3 4.3 7.3 4.3 15.1 7.7 0-1.8 0-1.8-.1-3.7 0-9.5 1.1-18.9 2-28.3q.3-3.8.6-7.5.4-5.4.9-10.7.1-1.7.3-3.4c.8-8.5.8-8.5 3.7-11.6 2.6-1.8 2.6-1.8 5.7-1.8 2.9 1 4 1.6 5.9 4 .1 2.9 0 5.6-.2 8.5q-.1 1.3-.2 2.5-.1 1.4-.2 2.8-.4 6.1-.8 12.3c-1.1 16.2-2.8 32.3-4.9 48.5q-.5 3.7-1 7.3c-6.2 49-6.2 49-10.3 68.4l-.6 2.7c-2.5 11.2-2.5 11.2-7.1 14.8-2.9 1.3-5.6 1.7-8.7 2.2q.3-1.9.7-3.9c2.8-15.7 5.2-31.6 7.4-47.4q.8-5.4 1.6-10.8.6-4.1 1.2-8.3.4-3 .8-5.9.3-1.8.5-3.6.3-1.5.5-3.1c.3-3.1.4-6 .3-9q-1.5-.8-3.1-1.5l-21.5-11.1q-2.3-1.3-4.7-2.6c-5.4-2.9-10.2-6.3-15-10-2.6-1.9-2.6-1.9-5.7-2.7-3.7-1.3-6-3.5-8.8-6.2l-1.7-1.5q-1.8-1.8-3.6-3.5-2-2-4-3.9c-24.3-23.2-24.3-23.2-25.3-32.7.4-3.3.4-3.3 2.6-5.8 2.8-1.5 2.8-1.5 5.3-1.6z" fill="#021e41"/><path d="M503.4 452.1c1.6 1.9 1.6 1.9 2.2 5.3-.6 3.6-.6 3.6-2.7 5.7-3.3 2.2-6.1 3.1-10 4-1 .3-1 .3-2 .5-17 4.2-33.9 4.6-51.4 4.6q-4.7 0-9.5 0c-12.1.1-24-.5-36-2.2q.5-1.2 1-2.3c1-2.6 1.7-4.9 2-7.7-1.6-3.1-1.6-3.1-4.2-3.7q-1.2-.3-2.4-.5c-1.3-.2-1.3-.2-2.5-.5q-.9-.1-1.9-.3 0-.5 0-1 3.6.2 7.3.4l2 .2c3 .1 6.1.3 9.1.6 10.9 1.1 21.9 1 32.9 1a34.2 34.2 0 0 0 3.2.1c17.9 0 35.1-.8 52.5-4.9 3.9-.8 6.8-.9 10.4.7z" fill="#031c40"/><path d="M158.8 375.3c3.4 1.1 6.4 2.8 9.5 4.6 7.9 4.4 15.5 7.6 24.7 7.1l1 1q3.1-.1 6.2-.3c1.7-.1 1.7-.1 3.4-.3 3.4-.3 3.4-.3 6.4-1.4 12.7-4.2 26.2-1.7 38.3 3.4 5.3 2.7 9.6 5.4 12.7 10.6.2 3.1.2 3.1-1 6-3.1 2.4-3.1 2.4-6 4q-1.1-.6-2.2-1.2c-13.5-7.4-23.5-12.3-39.1-8.3-14.4 3.3-29.5 3.6-42.7-3.5q-1.5-.5-3-1c-3.2-1.1-5.7-2.5-8.6-4.3q-1.4-.9-2.8-1.8c-2.8-2-4.7-4-6.6-6.9.1-3.2.6-5.2 2.1-8 2.8-1.4 4.8-.5 7.7.3z" fill="#5c95af"/><path d="M464 254c3.1 3.1 4 6.8 5.3 10.9 2 5.9 3.3 9 8.7 12.1 6.4 3 13.6 3 20.3 1 6.9-5.1 10.4-10.5 12.8-18.7.9-2.3.9-2.3 3.9-4.3 3.1.2 3.1.2 6 1 3 4.5 2.7 8.7 2 14-2.8 7.9-7.2 14.2-14.4 18.7q-1.3.9-2.7 1.7c-8.6 4.7-19.3 5.2-28.7 2.9-2.3-.9-4.2-2-6.2-3.3q-1-.7-2.1-1.3c-7.8-5.3-13.1-12.4-14.9-21.7-.9-8.8-.9-8.8 1.3-11.8 2.9-2 5.3-1.6 8.7-1.2z" fill="#031838"/><path d="M388.4 251.6c3.6.4 3.6.4 5.5 1.9 2.8 6.5.9 12.5-1.6 18.8-4.3 9.2-11.2 14.9-20.6 18.6-7.5 2.2-16.1 2.2-23.5-.7-7.9-4.3-14.3-11.1-17.4-19.6-1.2-5.3-1.9-9.6.8-14.6 2.4-2 2.4-2 5.5-2.5 3.3.6 3.9.9 5.9 3.5.8 2.5.8 2.5 1.5 5.4 1.5 5.8 2.6 9.2 7.5 12.9 4.8 2.5 9.7 2.6 15 1.7 5.6-2.2 9.3-5.6 12-11q1.6-4.7 3.1-9.4c1.4-3.9 2.1-4.5 6.3-5z" fill="#031837"/><path d="M237.4 422.8q1.5 0 2.9 0c2.8.2 4.4.6 6.7 2.2.9 3.4.9 3.4 1 7-1.7 2.5-2.8 3-5.8 3.7q-1.6.3-3.2.5c-7.1 1.6-12.1 4.5-18 8.8-8.7 6.2-17.2 12.3-28 14q-1.5.2-3 .5c-7.5.9-13.4.5-20-3.5-1.4-2.8-1.3-4.9-1-8 1.5-2.2 1.5-2.2 4-4 2.8-.1 5.1 0 7.8.4 5.6.7 9.7.5 15.2-1.4q1.1-.4 2.2-.8c6-2.4 10.6-6 15.7-9.9 7-5.1 14.8-9.4 23.5-9.5z" fill="#5d95b0"/></svg>