<svg xmlns="http://www.w3.org/2000/svg" width="1024" height="1024" xmlns:v="https://vecta.io/nano"><path d="M676 136c4.2 3.2 4.6 8 5.4 12.9 2.6 19.8.8 40.5-2.4 60.1q-.2 1.5-.5 3c-3.3 19.5-8.3 39.4-15.3 57.8-3 8.9 1.1 18.6 3.5 27.2 3.4 12.3 4.7 24.3 4.6 37q0 1.9 0 3.8c-.1 11.9-.5 24.8-4.3 36.2q-1.3 0-2.5.1c-14.6.3-29.1.7-43.6 1.8q-1.5.1-3.1.2c-5.2.4-9.3.9-13.8 3.9-2.2 3.2-2.2 3.6-1.6 7.2q.3 1.9.6 3.8c7.3 2.4 16.1 1.1 23.7.5 11.7-.9 23.5-.6 35.3-.5-.5 3.5-1.1 6.7-2.5 10q-.5 1-1 2.1-.5 1.1-1 2.3-.5 1.1-1.1 2.3c-4.1 9.1-8.9 18-14.4 26.3-6.4-1.1-12.6-2.7-18.8-4.4-13.9-4.5-13.9-4.5-28.2-5.6-2.6 2-2.6 2-4 5-.2 3.1-.2 3.1 1 6 3.3 3.2 7.3 4.3 11.6 5.7q1.1.4 2.2.7 3.5 1.2 7 2.3 2.3.8 4.7 1.5 5.7 1.9 11.5 3.8c-3.4 6.1-8.3 10.7-13.2 15.6q-.7.7-1.5 1.5c-8.2 8.1-16.6 15.6-26.3 21.9q-1.1.7-2.3 1.5c-39.1 25-82.9 37.6-129.4 37.7H453q-3.5 0-6.9 0-5.2 0-10.3 0c-18.2.1-36-.9-53.9-4.4q-1.7-.3-3.4-.6C323.4 511.3 275.3 488.4 242 442c2.3-2.3 3.1-2.4 6.2-3q1.2-.2 2.5-.5c1.4-.2 1.4-.2 2.7-.5q1.4-.3 2.8-.5 7.1-1.4 14.2-2.4c3.5-.7 4.8-1.2 7.9-3.3 2-2.7 2-2.7 1.8-5.9-.9-2.9-.9-2.9-2.6-4.8-7.6-3.4-18.3-.3-26.2.8q-2 .3-4 .6c-7.7 1.1-7.7 1.1-15.3 2.5-6.5-11.3-10.1-23.7-14-36 9-.1 17.9-.2 26.8.5 5 .4 10 .7 15 .8 1.6.1 1.6.1 3.4.1 2.9-.1 2.9-.1 4.7-2.2 1.5-3 1.6-4.9 1.1-8.2-2.3-3.3-4.4-4.3-8.3-5q-2.6-.4-5.2-.7-1.4-.2-2.8-.4c-8-1-16.1-1.4-24.2-1.7-4.5-.2-9-.7-13.5-1.2-5.8-30.4-2.8-66.6 9.8-95.1 3.4-9.2-1.2-19.9-3.6-29-3.4-13.2-6.7-26.3-8.2-39.9q-.1-1-.3-2.1c-.9-7.8-.9-15.7-.9-23.6q-.1-3.6-.1-7.2c-.2-25.8-.2-25.8 5.7-33 2.6-2.1 2.6-2.1 6.5-2.2 36.2 6.4 77 31.3 103.9 55.9 4.2 2.3 8.8 2.7 13.4 1.7 2.4-.8 4.7-1.7 7.1-2.6 18.7-6.7 38.8-10.5 58.7-11.9q1.6-.1 3.3-.3c9.3-.6 18.7-.9 28.1-.9h2.2c13.5 0 26.9.7 40.4 2.2 1.4.2 1.4.2 2.9.3 20.7 2.3 41.3 5.5 61 12.5 5.7 2 10.9 3.7 16.7 1q1.3-.8 2.5-1.7 1.4-.9 2.9-1.9l10.7-8.2c68.7-53.2 68.7-53.2 98.3-49z" fill="#f89500"/><path d="M665 427c23.9 7.3 47.9 25.2 67 41q1.3 1 2.6 2.1c17.9 14.4 35.3 30.7 49.4 48.9q2.4 2.8 4.8 5.6c14.2 17 26.8 36.1 36.2 56.2q1.7 3.6 3.4 7.2c25.8 54.4 35.6 121.3 15.3 179-7.2 19.6-17.3 36.8-31.7 52-1 1-1 1-2 2.1-33.6 35.3-87.2 44.6-133.3 49.7-15.9 1.8-31.9 3.7-46.8 9.8q-2.4.9-4.7 1.8-3.5 1.3-6.9 2.7c-5.6 2.1-11.2 2.2-17 2.3q-1.3.1-2.5.1c-5.4 0-8.5-.9-12.8-4.5-3.9-4.5-4.4-8.6-4.3-14.4.8-7.5 5.9-13.6 11.3-18.6 9.8-7.4 21.1-10.9 33-13q1.5-.2 2.9-.5c9.6-1.7 19.2-2.7 28.9-3.7q7.5-.8 15-1.6 1.5-.1 3-.3c65-6.8 65-6.8 119.7-39.5 2.1-3.3 2.8-5.8 2.1-9.7q-.3-.8-.6-1.7c-7-.6-10 .8-15.4 5-29.9 21.8-69.3 26.7-105.1 30.7q-1.7.2-3.4.4a137.16 137.16 0 0 1-18.1.9c.9-4.7 1.8-8.9 4.1-13.2 1.8-3.4 2.4-5.9 1.9-9.8q-1-1.5-2-3c-3.5-.5-5.4-.3-8.6 1.4-7 7.5-8.6 16.8-10.4 26.6l-14 1c.3-5.3 1.1-9.7 3.1-14.6 1.7-4.5 2.5-7.7 1.9-12.4-1.9-2.4-1.9-2.4-5.2-2.2-4.8 1.5-6 3.5-8.5 7.7-4.1 8-4.9 15.6-5.3 24.5-5.7-1.6-5.7-1.6-8-5-1.3-12.2.7-22.2 7.9-32.4 6.4-7.9 13.9-12.8 24.1-14.6 13-.9 26.1.1 39.1 1.5 12.7 1.3 25.3 1.8 38 1.9q1.3 0 2.6 0 3.7 0 7.3 0 1.1 0 2.2 0c4.6 0 7.9-.9 11.8-3.4 1.4-2.9 1.4-4.8 1-8-2.8-2.9-4.4-3.9-8.4-4.4q-2 .1-4 .1-2.3.1-4.5.2h-2.4c-13.7.4-27.2.1-40.8-1.5q-1-.1-2-.2c-14-1.5-25.4-6.6-34.9-17.2-15.4-19.9-22.9-45.2-19.7-70.2 4.1-23.5 17.8-47.4 36.7-61.8 7.8-5.3 16.1-9 25-12 2.9-1.1 5.6-2 8-4 1.6-3.4 1.6-3.4 1-7-1.7-3.2-1.7-3.2-5-5-15.6-.8-32.3 10.8-43.4 20.6q-2.3 2.2-4.6 4.4-.9.9-1.9 1.8c-30.5 28.7-36.2 77.9-45 116.7q-4.5 19.5-9.5 38.9-.8 3-1.5 6c-10.3 40-10.3 40-23.9 49.4-10.1 5.6-19.9 6.4-31.2 6.2-.4-8.3-.1-14.9 3.1-22.6 1.3-3.4 1.4-5.8.9-9.4-1.9-2.3-1.9-2.3-4.8-2.4-3.3.4-4.8 1-7 3.6-5.2 7.7-6.8 15.5-6.9 24.6l-.3 5.2c-3.2 1.6-6.6 1.1-10.1 1.1q-1.1 0-2.2 0c-5.6 0-5.6 0-6.7-1.1-.9-14.1-.9-14.1 1.5-18.9 1.9-3.9 2.4-7.8 1.5-12.1-2.9-2.4-2.9-2.4-6.6-1.9-3.4.5-3.4.5-4.5 2.7-.4 1.1-.4 1.1-.9 2.2q-.6 1.1-1.2 2.2c-4.3 8.4-5.1 16.6-5.8 25.8-4.7-.7-4.7-.7-7.3-3.4-3.6-5.5-3.2-11.2-2.7-17.6 1.8-7.7 5.9-14 12-19 5.2-3 10.7-5.1 16.3-7.2 6.5-2.5 11.2-4.6 14.7-10.8 2.7-7.7 3.8-15.6 4.6-23.7q.2-1.6.4-3.2c1.7-15.5 2.2-30.8 2.2-46.4q0-2.8 0-5.7 0-5.9 0-11.8 0-7.6 0-15.1 0-5.9 0-11.8 0-2.7 0-5.5.1-3.9 0-7.8.1-1.2.1-2.3c-.1-3.8-.2-5.5-2.3-8.7-3.3-1.2-3.3-1.2-7-1-2.9 1.9-2.9 1.9-5 5-.4 2.9-.5 5.2-.3 8.1q0 1.2 0 2.4.1 2.5.2 5 .1 3.7.2 7.3.2 7.2.4 14.3.1 2.5.1 5 .2 5.9.4 11.9c-20.9-11.3-38.8-24.6-56-41q-1.1-1-2.3-2.1c-3.6-3.4-6.8-6.9-9.7-11q-.8-1.1-1.6-2.2-1.5-2.2-3-4.4c-2.5-3.6-3.6-5.1-8.1-6.3-3.3-.2-3.3-.2-6.3 1-1 3.9-1.7 7.4-.1 11.1 1.6 2.5 3.3 4.7 5.1 6.9q.6.8 1.3 1.5c3.1 3.9 6.4 7.7 9.7 11.5q1 1.2 2.1 2.5c3.3 3.8 3.3 3.8 7 7.1 2.7 3.4 2.2 5.5 1.8 9.7q-.1 1-.2 2.1-.3 3.3-.7 6.6-.2 1.9-.4 3.9-.6 5.7-1.3 11.5-.1 1-.2 2.1c-2.9 23.4-7.4 46.4-12.2 69.5q-.2 1.2-.4 2.3c-1.8 8.6-3.8 17-6 25.4l-.6 2.2c-3.4 11.9-9.2 22.1-20.2 28.4-8.3 4-16.5 5-25.7 4.7-.4-8.1-.3-14.4 3.1-21.7 1.4-3.6 1.3-6.5.9-10.3-1.9-2.2-1.9-2.2-4.8-2.6-4.1.8-5.3 2.1-7.8 5.4-5.7 9.1-6.1 18.7-6.4 29.2q-4.2.1-8.4.1-1.2.1-2.4.1c-2.1 0-4.1-.1-6.2-.2-2.6-2.6-2.3-3.9-2.3-7.6.1-4.9.9-8.7 2.6-13.2 1.2-3.7 1.3-7.4.7-11.2-1.8-2.3-1.8-2.3-4.4-2.2-2.7.1-2.7.1-5.6 1.2-1 2.2-1 2.2-2 5q-1 1.8-2 3.6c-2.7 5.2-3.3 10.7-4 16.4q-.3 2.1-.6 4.2-.2 1.4-.4 2.8c-3.9-1.3-5.9-2.5-8-6-2.1-6.4-1.9-13.7.7-19.9q1.1-2.1 2.3-4.1c.9-1.6.9-1.6 1.7-3.2 5.7-7 13.2-10.3 21.3-13.8 7.3-3.2 13.5-6.3 16.8-13.9 2.3-6.6 3.3-13.3 4.3-20.2q.2-1.9.5-3.7 2.3-17.1 3.4-34.2l.2-3.5c1.1-15.8 1-31.5 1.1-47.3q0-6.2.1-12.3.1-11.6.1-23.2.1-13.2.2-26.4.1-27.2.3-54.3c1.2.2 1.2.2 2.4.3q5.4.8 10.9 1.6 1.8.3 3.7.6c73.9 10.6 154.1 2.5 215.5-42.9 6.1-4.5 11.8-9.5 17.5-14.6q1-.9 2-1.8c8.7-7.9 16.8-15.9 24-25.2q3.6 1.6 7.2 3.1 1.1.5 2.2 1c3.5 1.5 6.9 3 10.3 4.7l3.4 1.6q1.5.8 3 1.5c4 1.5 7.3 1.8 11.3.1 2-2.5 2.1-4.7 2.2-8-1.2-3.8-5-5.6-8.3-7.6q-1.4-.7-2.8-1.4-1.5-.8-3.1-1.6-1.6-.8-3.2-1.7-1.6-.8-3.3-1.6-3.9-2.1-7.9-4.1c1.6-3.2 3.3-6.2 5.1-9.3l1.7-2.7 1.2-2z" fill="#f89600"/><path fill-rule="evenodd" d="M673.9 121.5q1.1 0 2.2-.1c5.4.1 8.5 1.6 12.9 4.6 11.2 11.6 9.3 33.4 9.2 48.2-.4 18.8-2.6 37.6-7.2 55.8q-.4 1.5-.8 3c-2.4 9.6-4.9 19.2-8 28.6-.4 1.3-.4 1.3-.9 2.6q-.8 2.3-1.6 4.7c-2.7 8-.7 14.4 1.7 22.3 7.8 27.1 7.3 55.3 1.6 82.8 1.8.1 1.8.1 3.6.1 30.9 1.4 30.9 1.4 37.4 7.9.3 3.9.2 6.7-2 10-6.5 3.3-18 1-25.1.2-5.9-.4-11.9-.3-17.9-.2l-7 21q3 1 6 2c13.3 5.5 25.5 13 37.5 21q.9.6 1.9 1.2 17.6 11.8 33.7 25.7.8.8 1.7 1.5c10.4 9 20.1 18.3 29.2 28.6q1.2 1.3 2.4 2.6C825.8 541 854 595.8 866 656q.2 1.2.5 2.4c2.7 13.5 2.8 27 2.8 40.7q-.1 1.3-.1 2.7c0 13.3-.2 26.6-2.9 39.8q-.2 1.2-.5 2.5c-8.9 41.3-29.4 81.3-65.4 105-36.4 23-75.9 32.1-118.1 36.9-19.3 2.2-37.2 4.4-55.2 12.2-12.4 5.3-27.9 7.5-41.1 3.4-7.3-3.2-13.8-8.8-17.6-15.9-3.2-8.3-4.2-18.3-1.4-26.9 1.7-3.4 3.3-6.1 6-8.8q-.8 0-1.7 0L383 847q-1.6-.1-3.2-.1c-22-.9-43.9-2.1-65.8-4.9q-1.4-.2-2.8-.3c-9.6-1.2-19.3-2.7-27.2-8.7-.8-2.2-.8-2.2-1-4 5.3-5 10.1-7.7 17-10q.1-1.8.1-3.6c.8-19.5 5.8-31.6 19.9-45.4 5.3-4.5 10.9-6.7 17.5-8.6 3.9-1.2 5.3-2.1 7.4-5.6 10.3-34.9 9.4-74.2 9.3-110.3q0-6 0-12 0-11.2-.1-22.4 0-12.8 0-25.6 0-26.2-.1-52.5-1.1-.3-2.2-.6-1.5-.4-3-.8-1.4-.4-2.9-.8C298 517.4 253.4 489.3 226 447q0-1 0-2c-12.6 3-24.8 7.2-36.8 12.2-3.2 1.2-5.8 1.2-9.2.8-2.4-1.6-2.4-1.6-4-4-.7-4.1-.6-6.1 1.8-9.6 8.6-7.3 26.8-15.4 38.2-15.4q-.7-1.4-1.3-2.9c-3.4-7.4-6.5-14.9-9.1-22.7q-.3-1.1-.7-2.2-.4-1.1-.7-2.1l-.6-1.9c-.8-3-1.2-6.1-1.6-9.2q-1.4.1-2.9.2-5.3.3-10.7.7-2.3.1-4.6.2c-22.8 1.5-22.8 1.5-26.8-1-2.4-2.5-2.9-3.5-3.3-7 .3-3.1.3-3.1 2-5.2 9.5-7.7 31.7-4.6 43.3-4.9q-.2-.8-.5-1.7c-.5-2.4-.6-4.4-.7-6.8q0-1.3 0-2.7 0-1.4 0-2.9-.1-1.5-.1-3.1 0-3.2 0-6.4 0-3.2-.1-6.5c-.2-19.9 2.4-38.4 8.1-57.5q.9-3.1 1.8-6.2.4-1.3.8-2.7c1.4-5 1.8-8.1.4-13.2q-.4-1.6-.9-3.3-.5-1.8-1-3.6-1-3.7-2-7.4c-.4-1.8-.4-1.8-.9-3.6-7.7-29.7-18-81.6-1.4-110 4-5.5 7.8-8.8 14.7-9.9 17.8-.3 34 6.9 49.8 14.5q1.2.6 2.4 1.2c22.4 10.6 45.3 23.6 63.4 40.6 3.3 1.8 5.6 1 9.2.2q3.3-1.1 6.6-2.3c15.9-5.5 32.7-8.6 49.4-10.7 1.2-.2 1.2-.2 2.4-.3 47.2-5.9 102.4-1.9 147.5 13.8 4.6 1.6 4.6 1.6 9.1.5l6.6-4.9c26.7-20.6 55.7-38.4 87.4-50.1q1-.4 2-.7c6.9-2.6 13.6-3.7 20.9-3.8zM636 149q-1.1.5-2.3 1.1c-20 9.9-38.7 22.1-56.7 35.4q-5 3.7-10 7.2-.9.7-1.8 1.3c-4.8 3.5-7.1 4.4-13.2 4-3.2-.9-6.4-2-9.5-3.1-32.8-11-68.6-14.1-103-14.1q-1.1 0-2.2 0c-13.2 0-26.2.6-39.3 2.2q-1.3.2-2.6.3c-17.1 2.1-34.2 5.6-50.3 11.9-5.2 1.9-9.7 2.4-15.1.8-2.9-1.6-5.3-3.6-7.8-5.8q-2.2-1.7-4.5-3.5-1.1-.9-2.3-1.9c-23-17.6-64.3-46.8-94.7-45.7-3.3 1.1-3.9 1.9-5.7 4.9-3.2 11.2-3.5 22.5-3.4 34.1q0 1.2 0 2.4c.1 13.3.9 26.4 3.4 39.5q.3 1.4.5 2.8c1.8 8.9 3.8 17.7 6.2 26.4q.4 1.6.8 3.2.8 2.9 1.7 5.8c2.4 8.6 1.7 15.1-1.4 23.5-10 28.1-13.4 59.9-7.8 89.3 9.2 1.1 18.5 1.6 27.8 2.2 19.7 1.2 19.7 1.2 24.9 4.5 1.7 3.1 1.8 4.9 1.3 8.3-1.1 2.2-1.1 2.2-3 4-2.8.4-2.8.4-6.2.3q-1.9 0-3.9-.1l-14.8-1c-7.7-.5-15.4-.3-23.1-.2 5.8 18.5 5.8 18.5 14 36q1.1-.2 2.3-.4 5.1-.7 10.2-1.5 1.8-.3 3.6-.6c24.9-3.8 24.9-3.8 30-.4 1.9 2.9 1.9 2.9 2 6-1.3 3.4-2 4.1-5.1 5.9-2.7.6-5.2 1.1-7.9 1.5q-2.3.4-4.5.7l-2.3.4c-3.5.6-6.8 1.3-10.2 2q-1.7.3-3.4.7c-2.8.5-2.8.5-4.7 2.7 13.9 18.2 28.6 34.5 48 47q1.5 1 3 2c26.9 17.3 57.8 25.9 88.9 31.8q1.5.3 3 .6c18.6 3.4 37.4 4 56.2 4q1.7 0 3.4 0c26.9-.1 53.6-1.7 79.5-9.4 1.1-.3 1.1-.3 2.3-.7 23.5-7 45.8-18.1 65.7-32.3q.8-.6 1.7-1.2c8.8-6.2 16.5-13.7 24.1-21.3q.8-.7 1.5-1.5c5.9-5.3 5.9-5.3 9.7-12q-1.6-.5-3.2-1-5.8-2-11.6-3.9-2.5-.8-5-1.7-3.6-1.2-7.3-2.4-1.1-.3-2.2-.7c-4-1.4-6.8-2.4-8.7-6.3.1-3.1.4-5.2 2.3-7.7 3-2.3 5.8-1.3 9.4-.9 6.3 1.1 12.5 2.9 18.6 4.6q3 .8 6 1.7 2.7.7 5.4 1.5c3.1.8 6.2 1.3 9.3 1.8 4.9-7.8 9.5-15.6 13.4-23.9q.5-1.1.9-2.1c4.1-8.2 4.1-8.2 5.7-17-19.4-.2-19.4-.2-38.7.8-14.9 1-14.9 1-20.3-.8-1.1-5.1-1.1-5.1-1-8 2.5-3.3 4.1-4.7 8-6 3.5-.5 7.1-.7 10.7-1q1.6-.1 3.3-.3c14.3-1 28.6-1.4 43-1.7q.7-3.7 1.4-7.4l.4-2.1c5-25.8 3.3-52.4-4.9-77.2-3.3-10.3-.5-18.3 2.8-28.4 5.7-17.9 10.7-36.2 13.3-54.9q.2-1.1.3-2.2c5.3-33.4 5.3-33.4-2.6-64.7-9.3-6.2-32.9 7.6-41.7 11.9zm29 278c-1.8 2.4-1.8 2.4-3.6 5.3q-.9 1.5-1.8 3c-1.7 2.7-1.7 2.7-2.6 5.7q.8.4 1.7.8 3.9 1.9 7.8 3.8 1.3.7 2.7 1.3c11.7 5.8 11.7 5.8 15.8 10.1 1 3.1.7 4.6 0 8-1.6 2-1.6 2-4 3-5 .4-8.2-.7-12.7-2.8-.9-.5-.9-.5-1.9-.9q-2.9-1.4-5.8-2.8-2-.9-3.9-1.9-4.9-2.3-9.7-4.6c-2.8 2.8-5.6 5.5-8.2 8.5-6.6 7.2-13.3 14.1-20.8 20.5q-1.4 1.2-2.8 2.5c-48 42.9-111.5 56.7-174.2 56.7q-1.1.1-2.3.1c-11.5-.1-22.8-.6-34.3-1.6q-1.9-.2-3.8-.4c-7.3-.7-14.4-1.7-21.6-2.9l-2.6-.4q-3.2-.5-6.4-1 0 1.1 0 2.2-.1 27.1-.3 54.1-.1 13.1-.1 26.2-.1 11.4-.1 22.9-.1 6-.1 12c-.4 100.1-.4 100.1-13.8 114.1-4.5 4-9 6.3-14.5 8.5-10.9 4.6-18.9 9.6-23.9 20.7-2.2 6.4-2.2 13.5.1 19.9 1.7 2.4 3.1 3.9 5.7 5.4q1 0 2 0 .1-1.6.3-3.1c1.8-17.8 1.8-17.8 7.3-25 1.6-1.8 1.6-1.8 1.4-3.9 6.1-1 6.1-1 8-1 2.4 2.4 2.3 2.9 2.3 6.1 0 3.4-.6 6-1.8 9.2-2 5.4-2.2 11-1.5 16.7 2 2.4 2 2.4 5.9 2.2q2.4 0 4.7-.1h2.5q2.9 0 5.9-.1 0-1.5.1-3.1c.4-11 1.4-21.4 9.3-29.7 1.6-1.2 1.6-1.2 4.9-1.8 2.7.6 2.7.6 4.7 2.6.5 5 .1 8.1-2 12.6-2.8 6.3-2.4 12.6-2 19.4 12.8.8 24.2-2.2 34-10.7 17.7-18.4 19.3-53.1 24-77.3q.4-1.8.7-3.7c3.1-16 5.2-32 7.1-48.2q.2-1.5.3-2.9.5-4.1 1-8.2.1-1.2.3-2.5c1.3-7.8 1.3-7.8-1.2-14.8q-1.2-1.1-2.5-2.2c-5.9-5.5-10.7-11.5-15.5-17.9q-1.6-2.1-3.2-4c-3.3-4.2-4.9-7.1-5-12.6.4-2.4.4-2.4 1-4 5.8-1.3 5.8-1.3 8-1 3.4 2.8 6 6.1 8.6 9.7 9.5 12.7 20.9 23.6 33.4 33.3q1.4 1.2 2.9 2.4c10.5 8.4 22 15.6 34.1 21.6q0-1.5-.1-3-.2-5.7-.3-11.4-.1-2.4-.2-4.9-.2-7.1-.3-14.3-.1-3.7-.3-7.4-.1-2.5-.1-4.9l-.2-2.2c0-4 .4-5.7 2.8-8.9 2.7-2 2.7-2 6.4-2 3.3 1 3.3 1 5.3 4 .2 2.6.3 5.2.3 7.8v2.4q0 4 0 8 0 2.8 0 5.6 0 5.9 0 11.7-.1 7.5 0 14.9c.1 81.2.1 81.2-11.6 94.3-3.6 2.8-7.9 4.3-12.1 5.9-11.1 4.4-19.8 8.8-25 20.1-2.5 6.9-2.8 14-.3 20.9 2 3 2 3 4.7 5.4q2 0 4 0 .1-1.6.2-3.3c.9-9.8 2.8-17.1 7.8-25.7q.5-1.5 1-3c6.6-1.2 6.6-1.2 10 1 1.1 5.1 0 9.2-2.3 13.8-1.6 5.3-1.1 11.7-.7 17.2 1.8 1.8 4.3 1.1 6.7 1.1q1.1 0 2.2 0 1.1 0 2.3 0c4 .1 4 .1 7.8-1.1.2-2.5.3-4.9.3-7.3.4-8.8 2.3-17.1 8.1-23.9 3.2-2.2 4.9-2.4 8.6-1.8 2 2 2 2 2.4 4.9-.1 3.4-1.1 6-2.4 9.2-2.6 6.6-2.4 12.9-2 19.9 13 .6 25-1.6 35.6-9.5 7.5-7 10.8-15.9 13.6-25.5q.5-1.5.9-3c3.8-12.9 7-25.9 10.3-38.9q.7-3.2 1.5-6.3l12.2-51c8.6-37.9 21-75.9 55.1-98.4 8.6-5.4 21.5-12.9 31.8-11.4 2.9 2.1 2.9 2.1 5 5 .3 3.6.3 3.6-1 7-3.8 3.1-8.8 4.3-13.3 5.9-22.4 7.9-37.4 24.9-47.6 45.9-2.8 5.9-5.4 11.9-7.1 18.2l-.6 2.1c-5.8 22.6.8 46.5 12 66.3 7 11.5 15.8 20.1 28.6 24.6 4.9 1.1 9.9 1.8 14.9 2.3q1 .1 2.1.3c13.7 1.6 27.3 1.7 41.1 1.3q1.1-.1 2.3-.1 3.1-.1 6.2-.2c4 .5 5.6 1.5 8.4 4.4.6 3 .6 3 0 6-2.2 2.8-3.5 3.8-7 5q-3.8.2-7.7.2-1.2 0-2.3 0-3.9 0-7.7.1h-2.6c-13.3 0-26.3-.8-39.6-2.2-8.1-.9-16.2-1.4-24.5-1.5q-1.4 0-2.8 0c-11.3.1-20.4 3.6-28.7 11.2-7.5 7.8-11.3 17.5-11.3 28.1q-.1 1.1-.1 2.2c0 3.1.1 5.5 1.5 8.3 2.2 2 3.9 2.3 6.8 2.6q0-1.2.1-2.5c.5-10.5 2.5-20.6 9.9-28.5 3.7-1.1 3.7-1.1 7-1 2 2 2 2 2.3 5.1-.3 4.2-1.4 7.7-2.8 11.5-1.6 4.4-2.5 7.6-2.5 12.4l14-1 1.2-6.4c1.7-7.7 3.8-14.4 9.2-20.2 3.2-1.7 5.1-1.9 8.6-1.4 2.4 3.6 2.5 4.7 2 9-1.2 2.6-2.5 5-3.8 7.5-1.6 3.3-2 5.9-2.2 9.5 8.4.2 16.7-.7 25.1-1.6q1.1-.2 2.3-.3c34.6-4 73-9.4 101.3-31.5 3.4-2.6 5.6-4.1 10-4.1q1.6.2 3.3.5c1 4.1 1.4 6.2-.5 10.1-30.9 36.3-96.4 38.2-140.2 43-38 2.9-38 2.9-68.7 23-5.1 6.4-6.4 11.8-5.6 19.9 1.9 5.4 4.9 8.5 10 11 13.1.8 23.4-.6 35.7-5.5 19.5-7.7 39.8-9.7 60.5-12.1 49-5.7 101.2-20.5 133.4-60.5 11.1-14.5 19.2-31.5 24.4-48.9q.6-1.9 1.1-3.8c1.9-6.6 3.4-13.2 4.6-19.9q.2-1 .3-2c7.9-46.1-1.8-95.8-20-138.3-.5-1.1-.5-1.1-1-2.3-6.7-16.1-14.9-31.4-25-45.7q-.6-.8-1.2-1.7c-13.8-19.8-29.6-38.3-46.7-55.4l-2.6-2.6c-5.2-5.1-10.3-10-16.1-14.4q-2.5-2-4.9-4.1C719.8 456.9 685.3 427 665 427zM428 807q-1 2.5-2 5l22-1c1.6-14 3.9-24.5 13.9-34.9 1-1.1 1-1.1 2.1-2.1 5.6-5.6 11.6-8.1 18.9-10.7q1.4-.4 2.6-.8l2.5-.8c2.2-.7 2.2-.7 4-1.7 4.4-6.6 4.4-6.6 6.3-29.6q.3-3.3.6-6.6c.8-9.3 1.3-18.5 1.1-27.8-11.9-5.1-22.7-11.1-33.1-18.9q-.9-.7-1.8-1.4-.9-.7-1.8-1.4c-2.6-2-5.2-3.2-8.3-4.3-5.8 45.8-10.4 93.6-27 137zm155 4q2.5 0 5 0c.6-5.7 2-11.1 3.4-16.6q.3-1.2.6-2.4-1.5 0-3 0l-6 19z" fill="#012549"/><path d="M277 542c3.8 2.6 6.1 5.3 8.5 9.3 1 1.5 1 1.5 2 3.1q1 1.7 2 3.4 1.1 1.8 2.1 3.5 6.9 11.5 13.6 23.1.8 1.3 1.6 2.7c9.8 17.5 15.3 35.4 11.5 55.6-.9 2.9-2 5.5-3.3 8.3q-.6 1.3-1.3 2.7C308.1 664 299.9 670 289 674c-10.7 3.1-24.7 2.5-34.6-2.5-12.2-7.5-20.3-16.7-24-30.8-4.7-32.4 14.5-59.5 30.6-85.7q.9-1.5 1.9-3.1c.9-1.5.9-1.5 1.9-3q.8-1.4 1.6-2.7c3-4.2 5.7-4.8 10.6-4.2z" fill="#012647"/><path d="M448.3 367.3q1.2.2 2.4.4c6.3 1 12.3 2.9 16.4 8.2 2.5 5.6 1.8 12.2.1 17.9-5.2 11.6-14.9 16.5-26.2 21.2l-1 13q1.9.1 3.9.1c19.5 2 40.3 12.6 53.8 26.5 2 2.4 2.7 4.4 3 7.5-.7 3.9-.7 3.9-2.8 6.9-2.9 2-2.9 2-5.7 2.7-4.1-.9-6-2.9-9-5.7-16.4-15-37-20.9-58.8-20.3-17.9.8-36.6 9.8-49.5 22.2-3 2.7-3.5 3.1-7.7 3.3-3.8-1.4-5.2-2.6-7.2-6.2-.8-4.2-.2-5.7 2.1-9.4 2.8-3.7 5.9-6.4 9.6-9q1-.7 2-1.5c14.2-9.9 30.9-16.4 48.3-17.1.6-4.7.7-8.5-1-13-3.5-3-7.8-4.6-12-6.3-7.4-3-10.4-7.4-13.8-14.5-2-5.3-3.3-10.7-1.6-16.3 2.2-4.3 5.3-6.5 9.4-8.9 14.6-4.5 30.3-4 45.3-1.7z" fill="#022449"/><path d="M274 560c2.4 3 4.1 6 5.8 9.4l1.6 3.3q.8 1.7 1.7 3.4c4.3 8.8 8.8 17.6 13.7 26 6.3 10.9 9 23.2 6.7 35.7-2.3 8.2-6.4 14.4-13.5 19.2-8.4 4.3-17.9 4.3-26.8 1.4-7.3-3-12.5-7-15.6-14.4-5.5-15.8-1.5-29.5 5.4-44 2-4.1 4.4-8 6.7-11.9 5.2-9.1 9.7-18.7 14.3-28.1z" fill="#db5328"/><path d="M377.8 308.8c3.2 1.2 3.2 1.2 5.2 2.7 1.6 4 1.2 7.4 0 11.5-1.6 3-3.7 5.5-6 8q-.8.9-1.6 1.8c-13.4 13-31.6 16.7-49.5 16.6-8-.2-14.6-1.1-21.9-4.4q-1.4-.7-2.9-1.3c-8.5-4.2-15.6-10-19.5-18.8-.9-2.9-1.1-4.9-.6-7.9 1.6-2.9 1.6-2.9 4-5 3.4-.6 3.4-.6 7 0 2.4 2 2.4 2 5 5 6.5 7.2 14 13.3 24.1 14.2 14.9.4 27.8-.4 39.9-10.2q2.6-2.4 5-5c6.7-6.9 6.7-6.9 11.8-7.2z" fill="#02234a"/><path d="M496.4 309.1c4.4 1.1 5.4 2.4 8.2 6 7.5 8.8 17.8 15.1 29.7 16.1q3.5.1 7.1.1 1.2 0 2.5 0c10.1-.2 17.7-2.3 25.1-9.3q2.1-2.4 4.1-4.8c2.6-3.1 3.6-4.1 7.6-5.5 4.1.4 5.6 1.1 8.3 4.3 1.4 3.6 1.5 5.8 0 9.4-6.3 11.4-16.7 18.4-29 22.2-6.3 1.6-12.4 1.7-18.9 1.7-1.5 0-1.5 0-3 .1-16.4 0-32.4-6.9-44.1-18.4-3.5-4-6.3-7.8-6.7-13.3.7-3.7.7-3.7 2.8-6.8 2.9-1.9 2.9-1.9 6.3-1.8z" fill="#03234a"/><path d="M610 714c1.6 3.1 2.9 6.2 4.2 9.5 4 9.7 9.3 18.2 16 26.3 1.7 2 3.3 4.1 4.8 6.2q-1.1.2-2.2.4C618.9 759.5 608 766 600 778c-2.6.2-2.6.2-5 0 .7-5.6 2-10.8 3.6-16.3C603 746 606.4 730 610 714z" fill="#f69e01"/><path d="M346 777q-2 .5-4 1 0 1 0 2l-6 2-1 7q.5-.5 1-1c6.3-.5 6.3-.5 8.7 1.2 1.8 2.5 1.7 4.1 1.6 7.1q0 1.4 0 2.8c-.3 2.9-.3 2.9-1.3 5.8-1.2 3.6-1.2 6.7-1.1 10.5l.1 6.6 14 1q-.1-2.6-.2-5.4c0-6 1.1-11 3.2-16.6 1.1 3.2.9 3.9 0 7q-.3 4.1-.6 8.3c0 1.1 0 1.1-.1 2.2q-.2 2.8-.3 5.5-4.2.1-8.4.1-1.2.1-2.4.1c-2.1 0-4.1-.1-6.2-.2-2.6-2.6-2.3-3.9-2.3-7.6.1-4.9.9-8.7 2.6-13.2 1.2-3.7 1.3-7.4.7-11.2-1.8-2.3-1.8-2.3-4.4-2.2-2.7.1-2.7.1-5.6 1.2-1 2.2-1 2.2-2 5q-1 1.8-2 3.6c-2.7 5.2-3.3 10.7-4 16.4q-.3 2.1-.6 4.3-.2 1.3-.4 2.7c-3.9-1.3-5.9-2.5-8-6-2.1-6.4-1.9-13.7.8-19.9q1-2.1 2.2-4.1.9-1.6 1.8-3.2c4.8-6.1 16.1-15.5 24.2-12.8z" fill="#f3ab02"/><path d="M497 777q-2.5 1-5 2 0 1.5 0 3 0 1.5 0 3-1.5 1-3 2l7 3q-.5 1-1 2-1.5-1-3-2c-3.6 0-3.6 0-7 1-1.1 1.8-1.1 1.8-2 4l-1.2 2.2c-4.3 8.4-5.1 16.6-5.8 25.8-4.7-.7-4.7-.7-7.3-3.4-3.6-5.5-3.2-11.2-2.7-17.6 1.8-7.7 5.9-14 12-19 13.8-7.7 13.8-7.7 19-6zm-4 2l2 1z" fill="#f6ab02"/><path d="M662 391c-.5 3.6-1.1 6.8-2.6 10.1q-.5 1-1 2.1-.5 1.1-1 2.2-.5 1.1-1 2.2-1.2 2.7-2.4 5.4c-1.1-3.4-1-3.7.4-6.8q.5-1.1 1-2.2.5-1.1 1-2.2.5-1.1 1.1-2.3 1.2-2.7 2.5-5.5-1.2 0-2.4.1-5.4.2-10.8.4-1.8.1-3.7.1-12 .5-24.1.4.5-1.5 1-3c14-1.3 28-1.1 42-1z" fill="#f4a802"/><path d="M471 801q3 0 6 0l-2 21q-1.5 0-3 0c-2.8-3.2-3.9-5.3-4.4-9.6.4-3.2 1-5.5 2.4-8.4q.5-1.5 1-3z" fill="#f89400"/><path d="M274 560c3.9 4.9 6.4 10.5 9.3 16.1q.8 1.6 1.7 3.3.8 1.6 1.6 3.2l1.5 2.9c.9 2.5.9 2.5-.1 5.5l-12.1-23.2c-.8-1.8-.8-1.8-1.9-2.8q-.6 1.2-1.2 2.4-2.1 4.3-4.2 8.7-1 1.8-1.9 3.7-1.3 2.7-2.7 5.4-.8 1.6-1.6 3.3C261 591 261 591 259 592c1.3-4.3 3-8.2 5-12.3q.9-1.7 1.8-3.5.9-1.8 1.8-3.6 1-1.8 1.9-3.7 2.2-4.4 4.5-8.9z" fill="#eb6721"/><path d="M613 377q0 .5 0 1l-7 1q0 2 0 4-1 0-2 0v7c3.1.9 5.9 1.1 9.2 1.1q1.5 0 3 0 1.5 0 3.1 0 1.5 0 3.1-.1 3.8 0 7.6 0 0 .5 0 1c-5.8.7-11.6 1.1-17.4 1.3q-1.7.1-3.5.1c-3.7-.5-4.8-1.4-7.1-4.4-1-2.9-1-2.9-1-6 3.5-5.5 5.7-6.1 12-6z" fill="#0c1156"/><path d="M669 316c2 4.1 2.3 5.8 2.3 10.2q0 1.9 0 3.8 0 1.9 0 3.9 0 1.8 0 3.8c0 8.6-.9 16.8-2.3 25.3q-.5 0-1 0l-1-10q1 0 2 0v-37z" fill="#eec304"/><path d="M609 653q1 .5 2 1-.3.9-.6 1.8c-1.7 5.5-3 11-4 16.7q-.6 3.7-1.4 7.5-1 0-2 0-.5 3-1 6-.5 0-1 0c.6-7.5 2.4-14.3 4.6-21.6l1-3.3q1.2-4.1 2.4-8.1z" fill="#121851"/><path d="M225 262c2.5 4.5 2.1 8.1 1 13-1.5 5.1-3.2 10-5 15q-1 3-2 6c-1.8-4.1 0-7.6 1.4-11.6 1.9-5.8 3.2-11.1 3.5-17.3.1-2.1.1-2.1 1.1-5.1z" fill="#101453"/><path d="M635 391h27c-1.1 6.8-1.1 6.8-2.6 10.1q-.5 1-1 2.1l-1 2.2q-.5 1.1-1 2.2-1.2 2.7-2.4 5.4c-1.4-4.1.2-6.3 1.9-10 2.4-4.8 2.4-4.8 3.1-10l-24-1q0-.5 0-1z" fill="#c9a814"/><path d="M689.8 580.6c2.9 3.1 3.2 5.2 3.2 9.4-1.4 2.4-1.4 2.4-3 4q-1-.5-2-1 1-1 2-2 .6-3.5 1-7-2-.5-4-1 0-1 0-2l-14 2c4.5-4.5 11.3-5.5 16.8-2.4z" fill="#090f54"/><path d="M492 310q1.5.5 3 1-1 0-2 0-.2.9-.4 1.9c-.6 2.1-.6 2.1-2.6 4.1.4 4.7 2.1 9.2 5.5 12.5l4.5 3.5q-.5 1-1 2c-5.4-4.1-10.1-8.1-11.4-15.1-.2-3.6.1-5.5 2.4-8.4q1-.7 2-1.5z" fill="#121155"/><path d="M754 801q-3.4 1.3-6.9 2.5-.9.4-1.9.7c-5 1.8-5 1.8-7.2 1.8q-.5 1-1 2l-7.6.6c-1 .1-1 .1-2.1.1q-2.7.2-5.3.3c3-1.6 5.8-2.6 9.1-3.5q1.4-.4 2.9-.8 1.5-.4 3.1-.8 2.9-.8 5.9-1.6 1.3-.3 2.7-.7c5.6-1.5 5.6-1.5 8.3-.6z" fill="#0e1155"/><path d="M606 442c8 1.5 15.4 4.2 23 7-2.2 3.9-4.3 6.3-8 9 .4-.8.4-.8.9-1.7 1.1-2.4 2.1-4.8 3.1-7.3-6-1.7-11.8-3.3-18-4q-.5-1.5-1-3z" fill="#f3cc05"/><path d="M627 790q0 1 0 2-1.5 0-3 0-.4.9-.8 1.8c-1.2 2.2-1.2 2.2-3.1 4-2.5 2.7-3.3 5-4.3 8.4q-.6 1.7-1.1 3.3-.3 1.2-.7 2.5-.5 0-1 0c.2-7.6 2.3-12.9 7-19 2.6-2.4 3.4-3 7-3z" fill="#0a0c5a"/><path d="M502 771q1 .5 2 1c-8.1 4.2-16.3 8.1-25 11q0-1 0-2 1.9-1 3.9-2 1-.6 2.2-1.1c1.9-.9 1.9-.9 3.9-.9q0-1 0-2c3.7-1.6 7.1-2.4 11-3q1-.5 2-1z" fill="#0e1651"/><path d="M681 454c3.9 1.9 3.9 1.9 5 3 .3 2.9.5 5.2 0 8-2.6 3-4.1 3.9-8 4.4-3.3-.4-5.3-1.5-8-3.4q1-.5 2-1 1 .5 2 1 3 .1 6 0 1-2 2-4 1 1 2 2c.3-4.4.3-4.4-1.5-8.4q-.7-.8-1.5-1.6z" fill="#080f57"/><path d="M216 301q.5 0 1 0c-.7 8.7-1.8 17.3-3 26q-.5 0-1 0 0-4.6-.1-9.3 0-1.3 0-2.6 0-1.3 0-2.6v-2.3c.1-2.2.5-4.1 1.1-6.2q1 0 2 0 0-1.5 0-3z" fill="#091454"/><path d="M787 838q.5 1 1 2-2.5 2.5-5 5 0-1 0-2-1.7.8-3.4 1.7-2.2 1.1-4.3 2.2-1.1.6-2.3 1.2-1 .5-2.1 1.1-1 .4-2 1c-1.9.8-3.8 1.3-5.9 1.8 2.4-2.6 4.8-4.1 7.9-5.7q1.4-.7 2.8-1.5 1.5-.7 3-1.5 1.5-.8 3-1.5 3.6-1.9 7.3-3.8z" fill="#0a1155"/><path d="M350 325q2.5 0 5 0c-4 4.7-10.2 5.8-16 7-5.3.4-10.7.2-16 0q0-.5 0-1l3.9-.4q2.5-.2 5.1-.5 1.3-.1 2.5-.2c5.4-.5 10.3-1.5 15.5-2.9q0-1 0-2z" fill="#efca05"/><path d="M604 805q.5 0 1 0 0 1.2.1 2.5.1 1.6.1 3.3.1 1.5.2 3.2c.7 3.5 1.9 4.7 4.6 7l-.1-3.8c-.1-3.5 0-4.1 2.1-7.2v13c-6-2-6-2-8-5l-.1-6.7v-3.6q.1-1.3.1-2.7z" fill="#f3d004"/><path d="M434 650q1.7 1.4 3.4 2.9.9.8 1.9 1.6 1.9 1.7 3.7 3.5l-.4 8.1q-.1 1.2-.1 2.3-.3 2.8-.5 5.6-1-.5-2-1 0-1.1.1-2.2c.3-9.3.3-9.3-4.2-17q-.9-.9-1.9-1.8 0-1 0-2z" fill="#f6c405"/><path d="M300 317c2 1 2 1 2.9 3.5q.5 1.2 1.1 2.5c1.8.6 1.8.6 4 1q2.4 1 4.8 2.1 1.1.5 2.4 1.1.9.4 1.8.8 0 .5 0 1c-4.9.6-7.3.2-11.3-2.9a69.1 69.1 0 0 1-5.7-5.1q0-2 0-4z" fill="#efa103"/><path d="M548 523h7c-3.3 3.6-6.9 4.7-11.4 6.3q-1.2.4-2.4.8-1.1.4-2.2.8-1 .3-2 .7c-2.3.5-3.8.1-6-.6q3.4-1.3 6.9-2.5c1-.4 1-.4 1.9-.7 5-1.8 5-1.8 7.2-1.8q.5-1.5 1-3z" fill="#0c1355"/><path d="M762 853q-1.3.5-2.7 1-1.8.7-3.6 1.4l-3.6 1.3c-3.2 1.2-3.2 1.2-6.1 3.3l-5.7.6q-1.5.1-3 .3-1.1 0-2.3.1c4.2-2.8 8.7-4.1 13.5-5.7q1.4-.5 2.9-1 1.4-.5 2.8-.9 1.3-.5 2.6-.9c2.2-.5 2.2-.5 5.2.5z" fill="#0d0f57"/><path d="M521 520c-1 1-1 1-3.6 1.1l-2.4-.1q-.5 1-1 2c-2.3.6-2.3.6-5 1q-1 .3-1.9.6c-2.9.5-5.3 0-8.1-.6 3.5-2 7.1-2.8 11-3.7q1.8-.4 3.7-.8c2.9-.4 4.6-.5 7.3.5z" fill="#081254"/><path d="M600 687c1.2 3.6.8 6.3.1 10q-.2 1.5-.5 3.1c-1.3 6.2-1.3 6.2-2.6 8.9q-1 0-2 0 1-4.9 1.9-9.9l.6-2.8q.3-1.4.5-2.7c.3-1.3.3-1.3.5-2.5.5-2.1.5-2.1 1.5-4.1z" fill="#131752"/><path d="M610 714c1.8 3.6 2.5 6.1 3 10q-1-1-2-2l-3 11q-1 0-2 0l4-19z" fill="#e8c408"/><path d="M598 766c1.5 2.6 2 3.9 2 7q-1.5 0-3 0 0 1.5 0 3 1.5 0 3 0 0 1 0 2-2.5 0-5 0c.5-4.3 1.2-8 3-12z" fill="#e7bc08"/><path d="m483 670c5 1.8 9.4 4.4 14 7-3 1-4.8 1.5-8 1-1.6-2.3-1.6-2.3-3-5-1.6-1.8-1.6-1.8-3-3z" fill="#0c1653"/><path d="M637 606c0 3.1-.5 4.3-2 7q-.5 1-1 2-3 1.6-6 3c1.4-3.2 3.3-5.6 5.6-8.3q1-1 1.9-2.1.8-.8 1.5-1.6z" fill="#051355"/><path d="M830 795q.5 1 1 2l-2 5q-1 0-2 0-.5.9-.9 1.9-1.1 2-2.1 4.1-1-.5-2-1l8-12z" fill="#0c1256"/><path d="M288 488c4.8 1.6 8.8 4.3 13 7q-1.5.5-3 1-3-2-6-4-2 0-4 0 0-2 0-4z" fill="#0d1552"/><path d="M279 480c4.9.4 6.8 2.5 10 6q.9.9 1.8 1.8.6.6 1.2 1.2c-5-1.6-9-4.6-13-8q0-.5 0-1z" fill="#edc406"/><path d="M610 721c3.4 2.7 4 5.9 5 10-1.5-1.4-1.5-1.4-3-3q0-1 0-2-1 0-2 0-.5 1.5-1 3l1-8z" fill="#f78b00"/><path d="M624 661q1 .5 2 1 0 2 0 4-1 0-2 0l-1 9q-.5 0-1 0 .2-3.2.4-6.4.2-1.8.3-3.7c.3-2.9.3-2.9 1.3-3.9z" fill="#f0bd04"/><path d="M727 465c3.9 1.7 6.8 4.2 10 7-2.6 0-4.5-.2-7-1q-1.5-3-3-6z" fill="#f1bf05"/><path d="M251 439q0 1 0 2-2.5.5-5 1 .5 2.5 1 5l-5-5c3-3 4.8-3 9-3z" fill="#e9c70a"/><path d="M627 790q0 1 0 2-1.5 0-3 0-.4 1-.9 1.9C622 796 622 796 620 797q-.5-1.5-1-3c4.6-4 4.6-4 8-4z" fill="#09174f"/><path d="M294 489c3.4 1.2 5.6 2.3 8 5q.8.8 1.7 1.7l1.3 1.3c-5-1.3-7.6-3.1-11-7q0-.5 0-1z" fill="#efb904"/><path d="M248 448c3 0 3 0 6 1q0 1 0 2-1 0-2 0 1.5 2 3 4-.5 1-1 2-1.5-1.7-3-3.4-.8-.9-1.7-1.9C248 450 248 450 248 448z" fill="#f4bd03"/><path d="M346 777q-2 .5-4 1 0 1 0 2c-3.3.8-4.7 1.1-8 0q2.1-1 4.3-2.1l2.4-1.1c2.3-.8 2.3-.8 5.3.2z" fill="#f0c005"/><path d="M492 310q1.5.5 3 1-1 0-2 0-.2.9-.3 1.9c-.7 2.1-.7 2.1-3.7 4.1 0-4 0-4 1.5-5.8q.7-.6 1.5-1.2z" fill="#0a1c51"/><path d="M744 818c-3 3-5.8 2.6-10 3q1-.5 2-1 0-1 0-2c2.9-1.4 4.9-.6 8 0z" fill="#091654"/><path d="M456 450c4.1.6 7.3 2 11 4q-1.5.5-3 1-1-.5-2-1-.5 1-1 2c-.1-.9-.1-.9-.3-1.9-.5-2.3-.5-2.3-2.8-3.4q-.9-.3-1.9-.7z" fill="#f8c402"/><path d="M300 317c2.5 1.3 3.2 2.6 4.6 5.1q.7 1.1 1.4 2.2.5.8 1 1.7c-2.8-1.4-5.1-2.5-7-5q0-2 0-4z" fill="#f7ba02"/><path d="M473 663c3.9 1.3 6.2 2.9 9 6q-1.1-.5-2.3-.9-2.8-1.1-5.7-2.1-.5 1-1 2 0-2.5 0-5z" fill="#091454"/><path d="M850 655q1.5 0 3 0l-1 11q-.5 0-1 0l-1-11z" fill="#030e55"/><path d="M581 312c3.7.5 5.6 1.1 8 4q-.5 1.5-1 3-1-1-2-2-1.5 0-3 0 0-1.5 0-3-1-1-2-2z" fill="#020f56"/><path d="M318 188c3.8 1.6 6.2 4 9 7-2.3-.7-4.6-1.3-7-2q0-1.5 0-3-1 0-2 0 0-1 0-2z" fill="#f2c203"/><path d="M622 657c1.2 3.7 1.1 7.2 1 11q-1.5 0-3 0c.9-7.6.9-7.6 2-11z" fill="#112d44"/><path d="M564 501q1 1.5 2 3-1.4.2-2.9.4-1.5.3-3.1.6-.5 1-1 2-.5-1.5-1-3l6-3z" fill="#16214b"/><path d="M219 305c.3 6.6.3 6.6-2 10l-1-9c2-1 2-1 3-1z" fill="#ea9007"/><path d="M669 358q.5 0 1 0l1 10q-1.5 0-3 0l1-10z" fill="#1a2248"/></svg>