<svg xmlns="http://www.w3.org/2000/svg" width="1024" height="1024" xmlns:v="https://vecta.io/nano"><path d="M852 180c5.8 4 9.6 8.9 11 16 .9 9.4-.5 16.6-6.4 24.1q-2.2 2.4-4.3 4.9c-13.8 15.7-20.6 34.6-19.6 55.4 1.5 14.9 6.4 28.6 11.2 42.6 17 49.7 12.7 95.4-10.2 142.6-11 22.3-11 22.3-19.2 31-5.2 5.8-5.5 11.4-5.9 18.9-.2 3.5-.5 7-.8 10.4q-.1 1.1-.2 2.1c-.9 9.9-3 19.4-5.6 29q-.3 1.1-.6 2.3c-6.8 24.5-20 46.5-34.6 67-3.7 5.5-4.4 9.1-3.8 15.7q.5 2.2 1 4.3c2.6 10.8.4 20.3-2.9 30.7q-.6 2-1.2 4c-6 19.2-13 38.1-20.5 56.8q-.9 2.3-1.9 4.7c-8.4 21.1-17.5 43.1-39.3 53.2-17.6 7-37.9 5.8-55.6-.4-6.6-2.9-12.6-7.7-15.6-14.3-3.2-10.4-.8-20.6 4-30 6.3-10 14.6-17.1 25.9-20.6 2.5-.5 4.8-.5 7.4-.5q1.3.1 2.7.1h2c5.7-16.3 9.5-33.1 13-50-.8-.3-.8-.3-1.7-.5-5.2-1.7-10-3.7-14.9-6.2q-.9-.5-1.9-1-2.2-1.1-4.5-2.3-.4 1.1-.9 2.2c-32.5 78.3-32.5 78.3-58.7 89.9-13.1 4.7-31 5.6-44.1.2-5.8-3.2-11-6.5-13.7-12.8-2.6-10.5-.8-20.2 4.4-29.5 5.5-9 13.3-15.6 22.8-20.1 3.4-3 4.1-6.7 5.2-10.9q.5-1.8 1.1-3.7 1.8-6.4 3.6-12.9.6-2.2 1.2-4.5 1.6-5.4 3.1-10.9-1.1.1-2.3.2l-18.4 1.4q-1.1 0-2.2.1-2.5.1-5.1.3-.1 1.6-.2 3.2c-.8 6.3-2.9 12.2-4.8 18.2q-.3 1-.6 2c-29.2 92.7-29.2 92.7-63.7 110.8-18.9 8.5-44.5 8.8-63.7 1.8-6.6-2.9-11.8-7.7-15.1-14.2-2.9-9.4-1.7-20.5 2.6-29.2 6.9-11.8 16.6-20.6 29.5-25.6q3.2-.6 6.4-1.1c3.3-.8 5.1-1.3 7.4-3.9 1.7-3.2 3-6.5 4.2-10q1-2.7 2.1-5.4C465 690 469.6 674.1 474 658c-1.9-.1-1.9-.1-3.8-.3-16.9-1.4-32.2-5-48.2-10.7q-.6 1.7-1.3 3.4C378.6 759.1 378.6 759.1 338 778c-4.3 1.7-8.5 2.9-13 4q-1.4.3-2.8.7c-15.8 3.2-36.7 3.3-51-5.1-1.7-1.3-1.7-1.3-3.2-2.6q-1.4-1.2-2.7-2.4c-5.8-6.7-7.7-12.9-7.6-21.6 1-10.9 7.3-22 15.3-29.3 6-4.9 11.7-8.5 19.2-10.5 7.7-1.8 7.7-1.8 13.2-7.2q1.4-3 2.6-6 1-2.2 2-4.4c7.4-16.5 13.4-33.5 19-50.6q-1 0-2 0c-6.6.1-12.9-.3-19.4-1.2l-2.8-.4c-40.3-5.9-77.9-22.1-103.1-55.2-24.3-33-34.7-74.8-28.5-115.4q.8-4.9 1.8-9.8.2-1.2.5-2.4c3.1-15.9 7.5-35.6 15.7-49.7 1.1-2.7.7-4.1-.2-6.9-1.2-2.3-1.2-2.3-2.7-4.6q-.9-1.3-1.8-2.6-.9-1.4-1.8-2.8c-5-7.6-9.7-15.3-14.3-23.2-.7-1.2-.7-1.2-1.4-2.5-10.8-19-10.8-19-10-28.3 1.8-2.8 3.1-4.5 6-6 7.9-.6 14.9.3 22.5 2.6q1.5.5 3.1.9c17.1 5.1 34.1 10.6 51.1 16.1q1.1.4 2.2.7 2.8.9 5.5 1.9c7.5 2.3 13.6-.4 20.7-2.9 8-2.8 16.1-5.3 24.4-7.2q1.2-.3 2.5-.6c14-3 27.8-3.9 42.1-3.8q1.2 0 2.4 0c18.3.1 35.7 1.8 53.4 6.8l2.4.6q1.1.3 2.1.6c8.7 1 16.6-2.1 24.6-5q1.9-.7 3.8-1.4 5-1.7 10-3.5 4.9-1.8 9.9-3.5 15.6-5.5 31.2-11.1 1.9-.7 3.8-1.4 3.5-1.3 7.1-2.5c29.2-10.5 29.2-10.5 37.1-7 3 2.4 3.9 4.5 4.5 8.4.3 15.9-6.8 28.8-14.3 42.3q-1.6 3-3.1 6c.8-.4.8-.4 1.7-.9 34.8-18.1 70.9-29.6 110.4-29.5h2.6c13.8.1 26.9 1 40.3 4.4q1.5.4 3 .7c32.4 8.3 59.9 24.1 84 47.3q1.2 1.1 2.4 2.2c5.6 5.4 10.3 11.3 15 17.5 2.5 3.2 5 6.2 7.6 9.3q1.4-3.7 2.9-7.5.4-1 .8-2.1c10.2-26.9 4.6-55.1-5.7-81-6.7-17-10.4-32.5-10.5-50.8v-4c.4-29.9 13.5-56.8 33.8-78.3C815.2 184 834 170.4 852 180z" fill="#fd9b03"/><path d="M852 180c5.8 4 9.6 8.9 11 16 .9 9.4-.5 16.6-6.4 24.1q-2.2 2.4-4.3 4.9c-13.8 15.7-20.6 34.6-19.6 55.4 1.5 14.9 6.4 28.6 11.2 42.6 17 49.7 12.7 95.4-10.2 142.6-11 22.3-11 22.3-19.2 31-5.2 5.8-5.5 11.4-5.9 18.9-.2 3.5-.5 7-.8 10.4q-.1 1.1-.2 2.1c-.9 9.9-3 19.4-5.6 29q-.3 1.1-.6 2.3c-6.8 24.5-20 46.5-34.6 67-3.7 5.5-4.4 9.1-3.8 15.7q.5 2.2 1 4.3c2.6 10.8.4 20.3-2.9 30.7q-.6 2-1.2 4c-6 19.2-13 38.1-20.5 56.8q-.9 2.3-1.9 4.7c-8.4 21.1-17.5 43.1-39.3 53.2-17.6 7-37.9 5.8-55.6-.4-6.6-2.9-12.6-7.7-15.6-14.3-3.2-10.4-.8-20.6 4-30 6.3-10 14.6-17.1 25.9-20.6 2.5-.5 4.8-.5 7.4-.5q1.3.1 2.7.1h2c5.7-16.3 9.5-33.1 13-50-.8-.3-.8-.3-1.7-.5-5.2-1.7-10-3.7-14.9-6.2q-.9-.5-1.9-1-2.2-1.1-4.5-2.3-.4 1.1-.9 2.2c-32.5 78.3-32.5 78.3-58.7 89.9-13.1 4.7-31 5.6-44.1.2-5.8-3.2-11-6.5-13.7-12.8-2.6-10.5-.8-20.2 4.4-29.5 5.5-9 13.3-15.6 22.8-20.1 3.4-3 4.1-6.7 5.2-10.9q.5-1.8 1.1-3.7 1.8-6.4 3.6-12.9.6-2.2 1.2-4.5 1.6-5.4 3.1-10.9-1.1.1-2.3.2l-18.4 1.4q-1.1 0-2.2.1-2.5.1-5.1.3-.1 1.6-.2 3.2c-.8 6.3-2.9 12.2-4.8 18.2q-.3 1-.6 2c-29.2 92.7-29.2 92.7-63.7 110.8-18.9 8.5-44.5 8.8-63.7 1.8-6.6-2.9-11.8-7.7-15.1-14.2-2.9-9.4-1.7-20.5 2.6-29.2 6.9-11.8 16.6-20.6 29.5-25.6q3.2-.6 6.4-1.1c3.3-.8 5.1-1.3 7.4-3.9 1.7-3.2 3-6.5 4.2-10q1-2.7 2.1-5.4C465 690 469.6 674.1 474 658c-1.9-.1-1.9-.1-3.8-.3-16.9-1.4-32.2-5-48.2-10.7q-.6 1.7-1.3 3.4C378.6 759.1 378.6 759.1 338 778c-4.3 1.7-8.5 2.9-13 4q-1.4.3-2.8.7c-15.8 3.2-36.7 3.3-51-5.1-1.7-1.3-1.7-1.3-3.2-2.6q-1.4-1.2-2.7-2.4c-5.8-6.7-7.7-12.9-7.6-21.6 1-10.9 7.3-22 15.3-29.3 6-4.9 11.7-8.5 19.2-10.5 7.7-1.8 7.7-1.8 13.2-7.2q1.4-3 2.6-6 1-2.2 2-4.4c7.4-16.5 13.4-33.5 19-50.6q-1 0-2 0c-6.6.1-12.9-.3-19.4-1.2l-2.8-.4c-40.3-5.9-77.9-22.1-103.1-55.2-24.3-33-34.7-74.8-28.5-115.4q.8-4.9 1.8-9.8.2-1.2.5-2.4c3.1-15.9 7.5-35.6 15.7-49.7 1.1-2.7.7-4.1-.2-6.9-1.2-2.3-1.2-2.3-2.7-4.6q-.9-1.3-1.8-2.6-.9-1.4-1.8-2.8c-5-7.6-9.7-15.3-14.3-23.2-.7-1.2-.7-1.2-1.4-2.5-10.8-19-10.8-19-10-28.3 1.8-2.8 3.1-4.5 6-6 7.9-.6 14.9.3 22.5 2.6q1.5.5 3.1.9c17.1 5.1 34.1 10.6 51.1 16.1q1.1.4 2.2.7 2.8.9 5.5 1.9c7.5 2.3 13.6-.4 20.7-2.9 8-2.8 16.1-5.3 24.4-7.2q1.2-.3 2.5-.6c14-3 27.8-3.9 42.1-3.8q1.2 0 2.4 0c18.3.1 35.7 1.8 53.4 6.8l2.4.6q1.1.3 2.1.6c8.7 1 16.6-2.1 24.6-5q1.9-.7 3.8-1.4 5-1.7 10-3.5 4.9-1.8 9.9-3.5 15.6-5.5 31.2-11.1 1.9-.7 3.8-1.4 3.5-1.3 7.1-2.5c29.2-10.5 29.2-10.5 37.1-7 3 2.4 3.9 4.5 4.5 8.4.3 15.9-6.8 28.8-14.3 42.3q-1.6 3-3.1 6c.8-.4.8-.4 1.7-.9 34.8-18.1 70.9-29.6 110.4-29.5h2.6c13.8.1 26.9 1 40.3 4.4q1.5.4 3 .7c32.4 8.3 59.9 24.1 84 47.3q1.2 1.1 2.4 2.2c5.6 5.4 10.3 11.3 15 17.5 2.5 3.2 5 6.2 7.6 9.3q1.4-3.7 2.9-7.5.4-1 .8-2.1c10.2-26.9 4.6-55.1-5.7-81-6.7-17-10.4-32.5-10.5-50.8v-4c.4-29.9 13.5-56.8 33.8-78.3C815.2 184 834 170.4 852 180zM512 329c-1.8.6-1.8.6-3.5 1.3q-16.9 5.9-33.7 11.9-11 3.9-22 7.8-7.4 2.6-14.8 5.2-3.6 1.3-7.1 2.6-5.1 1.8-10.1 3.5-1.5.6-3 1.1c-7 2.5-13 4.4-20.4 2.5q-1.6-.4-3.1-.8-1.6-.5-3.3-.9c-9.3-2.4-18.4-4.3-28-5.2-1.4-.2-1.4-.2-2.9-.3-32.6-3.3-66.4.7-96.4 14.3-7.3 3.1-13.2 1-20.4-1.4l-2.2-.8q-2.3-.8-4.6-1.5-6-2.1-12.1-4.1-1.2-.4-2.4-.9-10.6-3.5-21.2-6.9-1.5-.5-3-1c-5.3-1.7-10.5-3.1-15.8-4.4.6 4.8 2.6 8.6 4.9 12.8q.6 1.1 1.2 2.3c4 7.4 8.8 14.1 13.6 21q3.1 4.5 6 9 .9 1.5 1.9 3c1.6 3.4 1.9 5.2 1.4 8.9-1.3 3-1.3 3-3.1 6.2-7.6 14.4-12.3 30-15.9 45.8q-.2 1-.5 2.1c-7.8 34.5-1.7 72 16.5 102.2 19.6 30.4 46.7 48.9 82 56.7 31.6 6.5 69.7 10 99.2-6.3 2.8-1.4 3.8-1.7 7-1.6 2.9.9 4.8 2.1 7.2 4 21.5 15.7 49.2 23.4 75.6 22.9q.4-1.2.8-2.3.5-1.5 1-3.1.5-1.5 1-3c1.2-2.6 1.2-2.6 4.2-4.6 3.6.2 3.6.2 7 1 3.5 5.2 1.5 11.2.4 17.1q-1.1 5.1-2.4 10.2c-.5 1.9-.5 1.9-.9 3.8C473 727.9 473 727.9 457 738c-2.9 1.2-5.9 2.1-8.9 2.9-6.6 2.1-12.1 4.1-17.1 9.1q-.8.8-1.7 1.6c-4.8 5.2-8.4 11.4-8.8 18.7.6 4.2 1.4 5.8 4.5 8.7 2.9 1.7 5.4 2.3 8.8 2.6q1.1.1 2.4.3.9 0 1.8.1v-2.9c.3-9.1 1.6-16.4 7-24.1 2.6-2.4 3.6-3 7.1-3.3 2.9.3 2.9.3 4.9 2.3.5 4.4 0 7.3-2 11.1-2.8 5.8-2.4 11.6-2 17.9 11.1 1 24-1.4 33-8.3q1-.8 2-1.7c1.1-1 1.1-1 2.3-1.9 35.8-33.2 54.9-113.6 57.7-160.1q.3-8.8.4-17.6 0-2.9.1-5.9.1-1.8.1-3.6c.4-2.9.4-2.9 1.7-4.8 2.9-1.9 5.4-1.5 8.7-1.1 3.3 3.1 3.9 6.4 4.2 10.8.2 15.4-.3 30.1-2.9 45.3-.4 2.3-.4 4.6-.3 6.9 6.8.2 12.7-.5 19.3-2.1l2.9-.6c11.1-2.7 22.6-6 32.8-11.3-.5-3.7-1.4-6-3.7-8.9-13.2-19.3-16.6-45.2-12.6-67.9 4.6-21 16.2-41.7 33.9-54.1 3-1.4 5.2-1.4 8.4-1.1 2.4 1.6 2.4 1.6 4 4 .6 3.4.6 3.4 0 7-2.2 2.4-2.2 2.4-5 5-14.6 13.5-25.3 30.1-26.3 50.6-.7 28.6 9.8 52.5 29.4 73.3q1.9 2.1 3.9 4.1.9 1 1.7 2c9.5 10.4 22.8 16.5 35.4 22.2 5.2 2.3 9.3 4.3 12.9 8.8 2.5 7.6.4 15.4-1.2 23q-.3 1.7-.7 3.4c-7.4 35.3-7.4 35.3-18.5 45.9-4.6 2.2-8.5 2.2-13.5 2.4-6.7.6-10.9 3.5-15.5 8.3-4.7 5.9-7.3 12.5-6.6 20 2.8 4.1 6.3 4.9 11 6 1.6-1.6 1.4-3.8 1.8-6 1.2-7.1 3.8-12.4 8.6-17.6 2.6-1.4 2.6-1.4 5.8-1.3 2.8.9 2.8.9 4.8 3.9-.1 5.1-2.4 9-4.9 13.3-1.4 3.4-1.3 6.1-1.1 9.7q4.7.2 9.4.3a23.48 23.48 0 0 1 2.7.1c9.3.1 16.2-3 23-9.4 22.8-24.2 32.1-66.9 41.9-98q.5-1.5 1-3.1c4-12.8 4-12.8 2-25.9-2.3-10-1.2-18 4.1-26.8 2.7-4.4 5.6-8.6 8.4-12.9 24-36.5 38.2-79.4 30.4-123.5-.8-3.7-1.8-7.2-2.9-10.8q-.3-1.1-.7-2.3c-6.9-22-18.4-42.5-34.2-59.5-1.9-2-3.7-4.1-5.5-6.3-25.9-29.4-67-46.4-105.6-48.9-57.1-2.1-108.7 16.4-154 51 1.5 4 3.4 7.8 5.3 11.7 4 8.5 7.1 17.2 9.7 26.3q.3 1.1.6 2.2c6.7 23.4 5.8 52.4-.6 75.8q-.4 1.3-.7 2.6c-6.3 22.4-19.2 51-39.3 64.4-3.9.4-6.1.5-9.5-1.6-1.6-2.6-2.1-4.3-1.4-7.4 1.7-3.7 4.6-6.4 7.4-9.3 23.9-25.5 33.5-60.6 32.6-94.8-1.1-23.5-9.2-52.8-24.8-70.9-1.9-2.9-1.7-4.6-1.3-8 2-2.7 2-2.7 4.9-5.4q.8-.7 1.5-1.5 2.5-2.3 5-4.7c10.6-10.1 20.4-20.4 27.4-33.5q.6-1 1.1-2c6.4-10.5 6.4-10.5 7.1-21.9z" fill="#021e3d"/><path d="M842 194c2.7 1.6 3.7 2.9 4.6 5.9.4 4-.1 6.4-2.3 9.7-2.4 2.9-4.8 5.6-7.3 8.4-14.8 18.3-22.2 39.4-21 63 1.5 13.8 5.4 26.4 9.9 39.4 16.7 48.5 15 92.2-7.4 138.7-7.3 14.6-7.3 14.6-11.5 20.9q-1 0-2 0l-.8-3.5c-2.4-9.8-5.4-19-9.5-28.3-4.3-9.6-4.3-9.6-3-13.2a228.28 228.28 0 0 1 3.5-7c14.5-29.2 14.1-61.4 4-92.1l-6-16.3c-10.1-27.1-12.1-54.3.1-81.1 8.1-17.2 21.5-35.5 39.3-43.7 3.3-1.1 5.9-1.2 9.4-.8z" fill="#fc9d03"/><path d="M394.3 631.7c2.8 1.3 5.4 2.8 8 4.4q1.3.8 2.7 1.7 1 .6 2 1.2c-12.6 31.3-26.8 61.9-43.9 91q-.7 1.3-1.5 2.7c-10.5 17.5-21.7 28.5-41.7 33.6-5.7 1-11.2 1-16.9.7-1.5-7.1-.6-10.9 2.9-17.3 1.3-3.1 1.4-5.4 1.1-8.7-.9-2.1-.9-2.1-3-3-4.4-.1-6.4.4-9.7 3.4-5.5 7.7-6.9 15.3-6.3 24.6-6-1.1-10-2.2-14-7-1.6-6.4.2-12 3.4-17.6 6.3-9.4 14.5-14.3 25.2-17.3 9.7-2.9 13.5-7.4 18.4-16.2 9.3-17.5 15.4-36.1 21.6-54.9q.4-1 .8-2.1.8-2.7 1.7-5.4c.9-2.5.9-2.5 1.9-3.5q2.2-.4 4.4-.8c10-1.5 34.3-12.2 42.9-9.5z" fill="#fc9c03"/><path d="M831.8 721.8c6.9 4.9 11.7 10.9 14.2 19.2.3 2.5.2 4.5 0 7q1 .1 2.1.3c8.8 1.3 14.7 3.6 20.3 10.6 3.8 5.6 5.2 10.4 4.6 17.1-1.2 5.5-3.4 9.2-7.9 12.7-5.8 3.7-12.8 4.8-19.6 5.5q-1.2.1-2.4.2c-10 .9-20 .9-30.1.9q-4.9 0-9.8.1c-32.4.1-32.4.1-43-8.9-3.6-3.6-5.2-7-5.4-12.1.8-8.2 5.1-15 11.2-20.4 4.5-3.1 8.6-5.1 14-6q.2-1.3.3-2.6c2.1-10.1 8.3-18.6 16.7-24.4 11.5-7 23.3-6.4 34.8.8z" fill="#021f39"/><path d="M626 641.7c2.2 1.4 3.8 3 5.6 4.9q1 1 2 2.1 1 1.1 2.1 2.2 1 1.1 2.1 2.2c5.1 5.5 5.1 5.5 6.2 8.9-.8 2.5-.8 2.5-2 5.6q-.7 1.7-1.5 3.5-.8 1.9-1.6 3.8-.4.9-.8 1.9c-8.3 19.9-17 40.3-29.1 58.2q-.8 1.1-1.5 2.3c-4.4 5.8-11.4 9.4-18.5 10.7q-2.1.1-4.3.1c-1.8-.1-1.8-.1-3.7-.1-.2-4.9-.2-7.7 2-12 .4-3.6.4-3.6 0-7-3.3-2.2-4.2-2.7-8-2-6.1 5.8-8.1 12.8-9 21-3-.3-4.8-.9-7.3-2.6-1.9-2.7-2.3-4.8-2.1-8.1 1.7-9 7.2-15 14.4-20.3q4.2-2.7 8.5-5.3c5.3-3.7 7.4-8.4 9.3-14.4q.4-1.1.7-2.2.8-2.4 1.6-4.8 1.2-3.7 2.4-7.3c2.2-6.8 4.4-13.5 6.2-20.4 2.8-11.5 2.8-11.5 7.3-15 3.3-1.5 6.5-2.6 10-3.6q2.1-1 4.1-2c2.9-1 2.9-1 4.9-.3z" fill="#fc9d03"/><path d="M319.2 522.8c2.5 3.1 2.8 5.2 2.8 9.2-1.9 5.9-6.4 10.1-11 14q-1.3.7-2.7 1.4c-2.6 1.4-2.6 1.4-3 4.5q-.1 1.6-.1 3.3-.1 1.6-.2 3.3 0 1.2 0 2.5 1.7 0 3.5-.1c18.3.1 40.6 7.7 54.1 20.2 1.6 2.1 2 3.4 2.2 6-1 4.6-1.9 6.3-5.8 8.9-6.2.5-10.1-2.8-15-6.2-15.4-9.6-37-13.9-54.8-10-7.2 2.4-12.9 5.7-18.7 10.5-2.9 2-5 2.5-8.5 2.7-3.6-2.2-5.6-3.7-6.8-7.8 1.9-7.5 8.8-12.4 15-16.6 5.6-3.2 12.2-6.6 18.8-6.6q-.5-1-1-2 0-1 .1-2.1c0-2.9-.2-5.1-1.1-7.9-2.6-2.4-5.3-4.2-8.3-6.1-4.4-3.1-7.1-6.7-8.1-12-.2-3.3.1-5.5 2-8.2 12.6-8.7 33.4-8.2 46.6-.9z" fill="#021e3f"/><path d="M817 733c5.4 1.8 9 5.2 12 10 1 2.5 1.7 5 2.4 7.6 1.2 4.8 2.3 8.6 6.6 11.4q2.9.5 5.8.8c5.6.9 8.6 1.8 12.2 6.2.4 3.3.4 3.3 0 6-11 6.7-29.3 4.2-41.8 4.2q-1.1 0-2.3 0c-29.5 0-29.5 0-39.9-4.2.2-3.6.9-4.9 3.4-7.6 3.6-2.9 7.7-3.7 12.1-4.6 2.8-.9 3.8-1.4 5.5-3.8 1.1-2.9 1.1-2.9 1.9-6.2 2.3-7.9 5.1-14.1 12.1-18.8 3.2-1.6 6.5-1.3 10-1z" fill="#6b450b"/><path d="M401.2 473.9c3.6 1.4 4.9 2.7 6.8 6.1.4 3.8-.1 5.9-2.6 8.9-8.7 8.5-22.2 16.2-34.5 16.5-12.2-.2-23.7-6.8-32-15.3-2.3-2.9-2.9-4.1-3.6-7.8.7-3.3.7-3.3 2.8-5.8 4-2.1 5.6-1.9 9.9-.5 3.5 2.2 6.7 4.6 10 7 5.8 4 12.2 4.1 19 3 6.5-2.5 12.5-5.7 18-10 3-2 3-2 6.2-2.1zM223 475c3.1 1.9 3.1 1.9 6.2 4.4 7.2 5.9 12.6 6.4 21.8 5.6 5.3-1.4 9.6-4.4 14.2-7.3 3.7-2.2 6.3-3.8 10.8-2.7 2.8 2 3.8 3.6 5.2 6.8-.3 4.4-2 6.1-5 9.2-9.6 8.5-22.1 13.5-34.9 13.3-11.1-1.1-21.4-8-28.3-16.5-1-1.8-1-1.8-1.1-5.5 2.1-6.2 4.6-8.1 11.1-7.3z" fill="#041e3f"/></svg>