<svg xmlns="http://www.w3.org/2000/svg" width="1024" height="1024" xmlns:v="https://vecta.io/nano"><path d="M637.8 135.8q1.1 0 2.2 0c35.9.1 72.4 6.2 104 24.2a32.97 32.97 0 0 0 1.9 1c9.6 5.4 18 11.5 26.1 19q.8.7 1.7 1.5c19.3 17.8 33 42.9 34.5 69.5.3 27.8.3 27.8-3.2 40-.2.9-.2.9-.5 1.9-3.3 12.6-8.5 24.2-15.8 35-1.3 2-1.3 2-1.7 4.1.8 2.7 2 4.8 3.4 7.2 8.1 14.6 7.7 34.9 3.6 50.7-6 19.1-17.2 33.8-35.1 43.2-26.7 13.4-57.8 14.3-87 13.8q-1.1 0-2.3 0-2.2 0-4.4-.1c-1.7 0-3.5.1-5.2.2-2.4 1.9-2.4 1.9-2.4 5.4 0 3.6 0 3.6 2.2 5.3 2.3 1.4 3.7 1.8 6.4 2q1.3 0 2.7.1c6.6.4 13.1.6 19.7.8q2.3 0 4.5.1 5.5.2 10.9.3c.2 8.9-.4 17.7-1 26.6q-.3 3.9-.6 7.9-.4 5.7-.8 11.4c-3.7 52.3-6.8 104.4-6.9 156.9q0 2.8 0 5.6c-.2 24.3-.2 24.3 1.1 48.5q.1 1.1.2 2.2c.8 6.3 2.3 12.6 6.1 17.7 3.8 2.9 7.7 4.2 12.2 5.7 6.5 2.1 12 4.6 17.7 8.5q1.3.8 2.6 1.7c5.8 5.6 9.1 12.3 9.7 20.2-.1 4.3-1.4 6.8-4.3 10.1-2.6 1.2-2.6 1.2-5 2q-.3-1.6-.7-3.2c-2.7-13.1-2.7-13.1-11.3-22.8-3.6.3-3.6.3-7 1-.7 6.2 1.3 10.4 3.8 16 1.5 3.8 2 7 2.2 11-3.4 3.4-13.3 2.1-17.8 2.1-2.2-.1-2.2-.1-3.2-1.1q-.3-3-.5-6c-.7-8-1.6-15.3-6.5-22-3-1.5-5.7-1.2-9-1-2.2 1.7-2.2 1.7-2.1 3.8.5 4.3 1.3 8.2 2.7 12.3 1.4 4.5 1.7 8.2 1.4 12.9-12.2.7-25.4-.7-35-9-4.8-5.6-6.6-11.2-8.4-18.3q-.4-1.7-.9-3.4c-8.2-32.4-13.8-65.5-18.1-98.7q-.2-1.9-.5-3.9c-1.8-14.7-1.8-14.7.3-17.6q.9-.9 1.9-1.7c1-1 1-1 2-1.9q1.1-1 2.3-1.9 2.1-1.9 4.2-3.8 1.1-1 2.1-1.9c17.9-15.9 17.9-15.9 28.4-35.9-.1-2.9-.1-2.9-1.4-4.9-2.7-1.6-4.8-1.4-7.9-1.1-3.1.6-3.1.6-4 2.7q-.5 1.2-1 2.3c-5.4 8.4-11.8 15.1-19 22q-3.7 3.7-7.3 7.4c-10.2 10.7-26.6 27.3-41.7 29.6-1-1-1-1-1.1-3.6q0-1.7 0-3.5 0-2 0-4c0-1.1 0-1.1.1-2.1q0-3.3 0-6.6 0-9.4.1-18.8 0-5.8.1-11.5 0-2.2 0-4.4 0-3.1 0-6.1v-3.5c0-3.1 0-3.1-2.2-5.9-2.2-.4-2.2-.4-4.6-.2q-1.2.1-2.5.1c-.9 0-.9 0-1.9.1-.8 3.5-1.2 6.8-1.3 10.3q-.1 1.6-.1 3.2-.1 1.7-.1 3.4-.1 1.8-.2 3.6c-.4 14.1-.5 28.1-.5 42.2q-.1 1-.1 2c0 22.9.7 45.6 3.1 68.3q.3 2.9.6 5.8.5 5.1 1.1 10.2.2 1.4.3 2.8c.9 6.6 2 12.9 6.7 17.8 2.8 2.1 5.8 3.6 8.9 5.2 6.8 3.6 10.7 8 14.5 14.4 1.8 6.4 2.6 13.1-.6 19-2.3 1.8-3.5 2.2-6.3 2.8l-.6-3q-.3-2-.7-4.1-.2-.9-.4-2c-1-5.4-2.3-10.9-6.3-14.9-3-.3-3-.3-6 0-2.3 1.9-2.3 1.9-2.3 5 .1 4.1 1.4 7.7 2.6 11.6.9 3.3 1 6 .7 9.4-1 1-1 1-4.4 1.1q-2.1 0-4.2 0c-1 0-1 0-2.1-.1q-2.7 0-5.3 0-.1-1.4-.3-2.7c-1.1-8.7-2.1-16.3-8.1-22.9-3.3-1.8-5-1.5-8.6-.4q-.5.5-1 1c0 4.8.9 9.2 2.6 13.6 1.4 4 1.7 7.2 1.4 11.4-11.7.7-26.1-.3-36-7-5.2-5.1-6.8-10.6-8.8-17.6q-.6-1.7-1.1-3.4c-3.9-13.3-7.3-26.7-10.6-40.1q-.5-2-1-4C491 698.7 486 676.5 482 654q-.2-1.3-.5-2.7l-9.2-56.3-.4-2.8q-1-6.8-1.8-13.7-.3-2.4-.7-4.8-.1-1.1-.2-2.2c-.5-3.3-1.1-5.3-3.1-8-2.1-1.8-2.1-1.8-5.2-1.4-3 .7-3 .7-4.9 2.9-.2 9.8 1.7 19.7 3.1 29.4q.1 1.1.3 2.2c5.4 37.5 11.4 75 20.7 111.8.2 1 .2 1 .5 2q1.2 4.6 2.4 9.1.4 1.6.8 3.2.4 1.4.8 2.8c.5 2.9.4 4.7-.6 7.5-2.9 2.6-6.3 4.4-9.7 6.4q-1.3.8-2.7 1.7c-6.6 3.9-6.6 3.9-10.9 3.9-2.8-1-5.5-2.1-8.1-3.4-7.9-3.9-15.4-5-24-5.7q-1.6-.2-3.1-.3-3.8-.3-7.5-.6 0-1 0-2c1.5-1.4 1.5-1.4 3.5-3.1 19.1-16.4 30.6-38.6 32.5-63.9 1-17.8-.4-34.1-9-50q-.8-1.5-1.7-3.1c-3.2-5.8-6.4-10.4-11.3-14.9q0-1 0-2-.9-.4-1.8-.8c-2.3-1.2-3.7-2.5-5.5-4.3-8.1-7.3-19.8-13.6-30.7-14.9-3.4.4-4.6.6-7 3-.2 3.6-.2 3.6 0 7q.8.4 1.7.7 2.3 1.1 4.7 2.2 2.4 1 4.8 2c18.2 7.6 31.4 20.6 38.9 38.8 7.4 21.2 3.8 46.3-5.8 66.2-3.6 7-8.1 13.1-13.3 19.1q-.9 1.1-1.9 2.2c-10.7 11.7-25.5 18.4-40.1 23.9-2.2.8-2.2.8-4 2.9-.5 3-.5 3 0 6 2 2 3.3 2.9 6.1 3.2 6.2-.9 12.4-2.1 18.5-3.5 17.4-3.7 38.3-3.9 54.2 4.9 8 5.2 12.2 12.4 15.2 21.4.5 6.1-.6 9.2-4.5 13.8-1.5 1.2-1.5 1.2-4.5 1.2q-.1-1.3-.2-2.6c-1-8.7-2.9-16-7.8-23.4-2.8-2.3-2.8-2.3-5.6-1.8-2.6.6-2.6.6-4.4 2.8-.6 4 .2 6.6 1.9 10.2 2.5 5.1 3.2 10.2 3.1 15.8-1 1-1 1-3 1.1q-1.3 0-2.7 0-1.4 0-2.9 0-1.4 0-3 0-1.5 0-3-.1-3.7 0-7.4 0-.1-1.3-.2-2.6c-1-9.1-2.8-18.7-9.8-25.2-3.1-1.8-5.6-1-9-.2-1.3 1.1-1.3 1.1-1.4 3.8.1 4.8 2.2 8.7 4.2 12.9 1.5 4.1 1.9 8 2.2 12.3-19.7.5-39.2-.3-58.9-1.3q-1.7-.1-3.5-.2c-12.4-.6-24.8-1.5-37.2-2.9-1.6-.1-1.6-.1-3.1-.3-8.1-.9-16.5-3.2-22.3-9.3-2.9-4.4-4.7-9.1-6.3-14-3.6-11.2-8.2-21.2-13.7-31.5-6.1-11.5-11.5-22.9-15-35.5q-.5-1.8-1-3.6c-11.6-46.3 2.9-95.4 25-136.4q.6-1.2 1.3-2.4c5.4-10.2 11-20.2 17.7-29.6q.7-1 1.4-2c12.8-18.1 26.5-35.2 41.4-51.5q1.8-2.1 3.6-4.2c4.6-5.3 9.5-10.4 14.5-15.3 1.3-1.3 1.3-1.3 2.6-2.7q3.5-3.5 7.1-7 2.2-2.2 4.4-4.4 7.7-7.8 15.4-15.5 7.2-7.2 14.4-14.4 6.1-6.2 12.3-12.4 3.7-3.6 7.4-7.3 4.1-4.2 8.2-8.3l2.4-2.4c11.5-11.4 11.5-11.4 16.9-14.6 3.6.3 6 2.2 8.9 4.2 12.1 7.9 25.9 12.1 40.3 9.2 12.9-4 22.5-11.9 28.8-23.8 23.1-45 30-107.8 30.3-157.8q0-1.7 0-3.4c.1-9.7-1.7-17.5-6.9-25.8l-1.8-3q-1.8-2.8-3.6-5.6c30.1-16.4 64.8-23.2 98.8-23.2z" fill="#f79500"/><path d="M738 142l2 .9c13.6 6.3 25.8 14.1 37.2 23.8 3.1 2.6 6.4 5.1 9.6 7.6 6.7 5.2 13.2 10.7 19.6 16.3 1.7 1.4 3.3 2.8 5 4.1q1.3 1.1 2.6 2.3 0 1 0 2 1 0 2 0c19.2 18.1 33.1 44.7 34.3 71.1.7 27.7-8.2 51.4-26.8 72q-1.1 1.3-2.3 2.6c-2.2 2.3-2.2 2.3-4.5 4.1-3.4 2.8-5.4 5.2-6.1 9.6-.3 4.1-.3 8.2-.4 12.2-.3 23.6-9.5 44.6-26.2 61.4-16.7 15.6-42 26.3-65 26l-7.3 110.9c0 1.2 0 1.2-.1 2.5q-.7 13.4-1.3 26.9-.3 5.8-.6 11.5c-1 18.1-.9 36.3-.9 54.5q0 7.2 0 14.5 0 5.7 0 11.3 0 2.7 0 5.4c-1.1 17-1.1 17 3.7 32.3 1.7 1.4 3.3 2.1 5.4 2.8l2.3.8q1.1.4 2.4.9c7.2 2.7 13.5 5.6 19.4 10.7q1.1.9 2.2 1.8c7.2 6.7 12.4 15.1 13.1 25 .4 14.4.4 14.4-3.8 19.7-.8.7-.8.7-1.5 1.5q-1.3 1.4-2.7 2.8c-13.5 10.2-33.3 9.4-49.4 9.4q-3.7.1-7.5.1c-17.3.1-35.6-1.6-49.4-13.2-12.3-12.5-15-31.4-18.4-47.8l-.6-2.8c-5.9-28.9-10.8-58.1-14-87.5-3.5 0-4.5.7-7.4 2.6-5.9 3.7-12.2 6.6-18.6 9.4-.4 22.3.4 44.8 3.4 66.9q.1 1.2.3 2.5c.5 4 .5 4 3.1 6.9q1.1.4 2.2.7c11.4 6.4 19.9 13.2 24.4 25.8 1.1 3.9 1 7.8 1 11.8q0 1.2 0 2.5c0 6.7-1.7 11.6-6.5 16.5-11.6 11-30.2 9.7-45.1 9.7q-4.1-.1-8.3 0c-37.7 0-37.7 0-50.7-11.5-6.6-6.8-9.4-15.8-12-24.7q-.5-1.7-1-3.4L489 747q-3.4 1.6-6.9 3.3-.9.5-1.9.9c-3.4 1.7-5.1 2.6-7.2 5.8.8 2.7.8 2.7 2.3 5.5 4.2 8.5 5.3 17.7 3.1 27.1-2.9 6.4-8.7 11.6-15.3 14.2-34.5 9.6-75.8 4.7-111.2 2.5q-4.4-.3-8.8-.6l-37.2-2.7q-1.1-.1-2.2-.2c-12.5-1.4-24.2-5.6-32.3-15.6-3-4.8-5.2-10-7.4-15.2q-.9-.1-1.8-.1c-31-2.2-62.1-8.6-87.2-27.9-1.4-1.1-1.4-1.1-2.9-2.2-19-14.7-29.3-35.9-32.6-59.4-2.5-20.4 1.4-39.5 13.4-56.2 2.3-2.4 3.9-3.3 7.1-4.2 3.9.1 6.1.2 9 2.9 2.7 4.2 4.1 8.6 5.7 13.3 5 14.3 11 27.5 21.3 38.8q.8.9 1.6 1.8c9.5 10.6 21.9 15.7 35.4 19.2q-.3-1.3-.7-2.7c-2.3-11-2.6-21.8-2.6-33v-2.2c-.1-37.9 12.2-72.7 29.3-106.1.6-1.1.6-1.1 1.1-2.2 8.2-16.3 18.3-31.4 29.4-45.8q2.3-3 4.5-6.1c6.6-9 13.6-17.5 21-25.9q1-1.1 2-2.3l14-15.7q1.1-1.3 2.3-2.6c7.7-8.5 15.8-16.6 23.9-24.8q2.2-2.1 4.4-4.3 4.5-4.5 9-9 5.7-5.8 11.5-11.5 4.5-4.5 8.9-9 2.1-2.1 4.3-4.2c13.3-13.3 13.3-13.3 19.2-18.3 2.3-2 4.4-4.1 6.5-6.3 4.2-4.2 8.5-8.2 13-12q-1.1-1.3-2.3-2.6-1.9-2.2-3.7-4.4-1.2-1.4-2.5-2.9c-16.7-20-23.9-40.6-24.1-66.4v-2.1c-.2-28.7 13.4-52.8 33-73.1 21-20.9 47.6-34.2 74.6-45.5q5.4-2.3 10.9-4.6 1.3-.6 2.6-1.1 7-3 13.9-6.4c61.7-29.9 139-31.5 201.6-2.9zm-198 16c0 3.8 1.2 5.1 3.3 8.2 22.2 33.9 1.9 100.6-5.8 137.6-11.4 53.3-11.4 53.3-30.9 68.1-10.5 6.6-21.1 8.6-33.4 6.7-8.5-2.1-18.2-6.1-24.8-11.9-2.2-1.9-2.2-1.9-4.6-1.7-4.3 1.6-7.1 4.6-10.3 7.8q-1.1 1.1-2.3 2.1-3.6 3.6-7.2 7.1-1.2 1.2-2.4 2.4-9.1 8.9-18 17.9-2.9 2.9-5.8 5.7-5.9 6-11.9 11.9-6.8 6.9-13.7 13.7-5.9 6-11.8 11.9-3.5 3.5-7.1 7-3.9 3.9-7.8 7.9-1.1 1.1-2.3 2.3c-4.6 4.6-9 9.3-13.2 14.3q-1.4 1.7-2.9 3.3c-16.5 19.1-31.8 39.1-45.1 60.7l-1.4 2.4c-27.2 44.5-45.6 98.4-33.7 150.6 3.5 14.2 8.9 27.3 15.9 40.1 5.9 10.9 11.1 21.7 14.6 33.6 2.3 7.4 5.5 13.8 12.5 17.7 8.8 4.1 18.6 4.4 28.2 5.1l2.3.2c29.2 2.3 58.3 3.7 87.6 3.3-.4-5.5-1.1-10.1-3.6-15.1-2-4.7-3.3-7.9-2.4-12.9 3-2 3-2 6.4-1.9 4.4 1.1 5.3 2.1 7.6 5.9 4.2 7.3 5.1 14.8 6 23q5.2 0 10.4.1 1.5 0 3 0 1.5 0 2.9 0 1.3 0 2.7 0c2 .1 2 .1 3-1.1.1-6.7-1.2-12-4.1-18-1.3-2.8-1.5-5-.9-8 2.1-2.4 3.3-2.9 6.4-3.2 4.7 2.2 6.6 6.8 8.5 11.4 2.1 5.5 2.7 11 3.1 16.8 3.8-.8 5.5-2 8-5 2.1-6.3 1-11.5-1.6-17.4-5.4-9.8-12.9-15.2-23.4-18.6-17.9-4.6-37.5-2.6-55.3 2.1-4 1-6.7.9-10.7-.1-2-2-2-2-2.4-4.9.4-3.1.4-3.1 2-4.6 3-1.9 6.1-3 9.4-4.2 11.2-4.4 20.9-10.4 30-18.3q.9-.8 1.9-1.6c15.5-14.5 24.6-36.1 25.4-57.1q.1-3.5.1-7.1.1-1.7.1-3.4c-.2-18-6.7-32.2-19.5-44.8q-1.1-1.1-2.2-2.2c-8.2-7.8-17.7-12-28.2-15.8-2.6-1-2.6-1-3.6-2-.5-6.4-.5-6.4 1.3-8.7 2.6-2 5-1.4 8-.9 12.2 2.9 22.9 9.5 31.9 18.1 1.7 1.7 1.7 1.7 3.8 1.5q.4.9.8 1.8c1.2 2.1 2.3 3.6 4 5.3 5.8 6.8 9.5 14 12.5 22.4.3 1 .3 1 .7 2.1 3.1 9 4.3 17.7 4.3 27.2q-.1 1.5-.1 2.9c-.4 28.9-11.7 52.1-31.9 72.1-2.3 2.2-2.3 2.2-4.3 3.2q0 1 0 2 .9.1 1.8.1c13.1.9 24.9 2 36.6 8.2 4 1.9 4.6 2 8.6.7 2.8-1.3 5.4-2.8 8.1-4.4q1-.6 2.1-1.2c3.4-1.9 6.7-3.9 9.8-6.4-.7-5.3-1.7-10.4-3-15.6q-.6-2.5-1.2-5.1-.4-1.4-.7-2.7c-9-37.9-15.5-76.1-21.1-114.6q-.2-1.5-.4-2.9-.7-4.5-1.3-9l-.4-2.7c-.7-4.9-1.2-9.5-.9-14.4 1.6-2 1.6-2 4-3 3.1.1 3.1.1 6 1 2 3.1 2.4 4.4 2.9 8q.2 1.5.4 3.1.3 1.7.5 3.4.5 3.7 1.1 7.4.2 1.9.5 3.9C479.7 647 491.3 704.3 507 761q.5 1.7.9 3.4 1.1 4 2.4 8 .2 1.1.5 2.2c1.9 5.9 5.3 10.7 10.7 13.9 10.8 3.5 21.2 4.9 32.5 4.5.5-6-1-10.5-3.1-16-1-3.2-1.3-5.7-.9-9 3-2 3-2 5.9-2 4.1 1.3 6.1 3.3 8.1 7 2.4 6.5 3.4 13.1 4 20q3.7 0 7.4.1 1.1 0 2.2 0 2.7 0 5.4-.1c1.3-1.1 1.3-1.1 1.3-3.9-.1-3.3-.8-6-1.8-9.1-1.4-4.3-2-7.6-1.5-12 2-2 2-2 4.9-2.3 3.1.3 3.1.3 4.7 1.6 4.9 6 5.3 15.3 6.4 22.7 3.9-1.3 6-2.4 8-6 1.3-7.1.2-13.5-3.4-19.8-4.8-6.6-11-10.1-18.2-13.8-5.2-3-6.8-6.8-8.4-12.4q-.6-3.6-1-7.2-.1-1.1-.2-2.1-.3-2.3-.5-4.5-.4-3.3-.8-6.5c-2.8-24.4-3.8-48.8-3.7-73.3q0-4 0-8l.6-40.5q.1-1.7.2-3.5 0-1.5.1-3.1 0-1.4.1-2.8.3-3.7 1.2-7.5 2.2-.1 4.4-.2 1.2 0 2.4-.1 1.1.2 2.2.3c2.4 3.6 2.2 5.1 2.2 9.4q0 1 0 2 0 3.1 0 6.3 0 2.2 0 4.5 0 5.8-.1 11.6 0 5.9 0 11.9 0 11.6-.1 23.3 1 .5 2 1c14.3-5 26.6-16.3 37.5-26.6 2-2 4.1-3.8 6.3-5.6 3.1-2.6 5.6-5.5 8.2-8.5 2.3-2.7 4.7-5.3 7.1-7.9 6.6-6.4 6.6-6.4 9.9-14.4q2.2-.4 4.3-.7l2.4-.4c2.3.1 2.3.1 4.1 1.2 1.8 2.9 1.7 4.5 1.2 7.9-1.4 2.7-3.1 5-5 7.3q-.8 1-1.6 2.1c-6.6 8.4-14 16-21.4 23.6q-.9 1-1.9 2l-1.8 1.8q-.8.8-1.6 1.7c-1.7 1.5-1.7 1.5-3.7 2.8-2.2 1.4-3.6 2.5-5 4.7-.2 2.6-.2 2.6.2 5.6.2 1.8.2 1.8.3 3.5q.3 1.9.5 3.9.2 2 .5 4 .7 6.8 1.6 13.5.2 1.2.3 2.5c3.7 27.6 9.1 54.9 15.6 82q.3 1.4.7 2.8.9 3.7 1.9 7.5.2 1 .5 2.1c1.8 6.7 5.3 12.2 11.3 15.9 9.4 5.2 20 6.3 30.6 5.7.5-6.6-1-11.7-3.1-17.9-.9-3.2-1.2-5.7-.9-9.1 2-2 2-2 5.4-2.4 3.6.4 3.6.4 5.9 2 4.2 5.9 5.2 11.6 5.8 18.8 0 5.2 0 5.2 1.9 9.6 6.4.4 12.7 0 19-1 1.5-3.9.4-6.6-.8-10.5-.5-1.7-.5-1.7-1.1-3.4-1-3-1-3-2.2-5.3-1.4-2.9-1-5.7-.9-8.8 3.2-.7 3.2-.7 7-1 6.8 4.3 8.9 11.5 10.8 19q.7 3.5 1.2 7c3.4-1 4.9-1.9 7.3-4.6 2.5-5 2.5-8.8.9-14-3.5-9.3-8.9-15.4-18-19.7-4.1-1.7-8.3-3.3-12.5-4.9-1.5-.7-1.5-.7-3.1-1.3q-1.5-.5-2.9-1.1c-3.3-1.7-5.3-3.5-7.7-6.4-.8-2.6-1.4-4.9-1.7-7.6q-.4-1.9-.7-3.9c-1.6-11.3-1.8-22.5-1.8-33.9q0-2.5 0-5.1-.1-8.2 0-16.4c-.1-1.4-.1-1.4-.1-2.8 0-53.6 3.3-106.9 7.1-160.3q.4-5.6.8-11.2.3-3.9.6-7.7c.5-8.1 1-16 .8-24.1q-1.4 0-2.8-.1-5.2-.1-10.3-.3-2.2 0-4.5-.1l-20.2-.8-2.2-.2c-2.6-.6-4.1-1.7-6-3.5-.4-3.6-.4-3.6 0-7 2-2 2-2 5.2-2.2q2.1 0 4.1.1 2.3 0 4.6 0 1.2 0 2.4.1c34.8.5 75.7-1.3 102.5-26.6 15.4-16.4 19.8-36 19.5-57.8-.3-9.6-2.6-17.9-7.6-26.1-1.3-2.6-1.3-2.6-1.7-5.5 2-4.8 4.8-8.9 7.8-13.1 13.8-21.2 16.7-53.3 12.1-77.5-.8-3.5-1.8-7-2.9-10.4q-.3-1-.7-2.1c-10.3-31.1-33.5-55.1-62.4-69.9-63.1-31.1-137.7-28.8-200.9 0z" fill="#012b52"/><path d="M696.2 313.6h2.4q2.4 0 4.8 0 3.7 0 7.4 0c18.2 0 18.2 0 25.1 5.9 4.5 5.4 4.6 9 4.5 15.9-.9 8.3-4.9 13.8-11.1 19.1-2.3 1.5-2.3 1.5-5 2.6-3.2 1.4-5.1 2.3-7.3 4.9-1.3 5.9-.6 12.1 0 18q1.4.3 2.9.6c15.7 3.4 29.1 9.5 40.1 21.4 1.4 2.8 1.3 4.9 1 8-1.6 2.4-1.6 2.4-4 4-4 .7-5.5.3-8.9-1.9q-1-1-2.1-2.1 0-1 0-2-.8-.4-1.6-.8-2.7-1.4-5.4-2.8c-20.5-11-43.9-11-66-4.4-10.3 3.4-19 8.3-26.9 15.8-4.4 4.1-4.4 4.1-8.3 4.8-3.5-.8-4.8-1.6-6.8-4.6-.7-2.8-.7-2.8 0-6 10.8-16.2 31.9-23.8 50-28 6.3-1.2 12.6-2.1 19-3q0-8.8 0-18c-2.2-1-4.3-2.1-6.6-3.1-9.1-4.6-15.3-9.2-19.4-18.9-1.3-5.3-1.7-10 .2-15.2 5.1-8 13-10.3 22-10.2z" fill="#022a53"/><path d="M159 640c2.9 3.4 4.2 6.8 5.8 10.9 9.6 25 26.3 45.6 51.1 56.5 5 2.1 10.2 3.2 15.6 4.2 2.9.5 5 1 7.3 3 1.7 3.4 3.3 7 4.8 10.5 3.3 7.7 7.1 15 11.3 22.1a25.29 25.29 0 0 1 1.3 2.2q.5.9 1.1 1.9c.7 1.7.7 1.7-.3 4.7-26.6 1.5-56.5-7.5-76.9-25.1q-1-.9-2.1-1.9-1-.9-2.1-1.8c-10.1-9.3-16.1-21.2-19.9-34.2q-.5-1.8-1.1-3.6c-1.4-5.9-1.3-11.9-1.3-18q0-1.8 0-3.7c.1-9.7 1-18.9 5.4-27.7z" fill="#f49900"/><path d="M274.5 286.6c3.5.4 3.5.4 5.4 1.5 1.6 2.8 1.4 4.7 1.1 7.9l-3.4 7.2c-4.5 8.4-6.2 15.8-3.7 25.2 2.7 6.9 7.8 12.5 12.4 18.2 11.6 14.3 19.2 28.3 17.9 47.3-1.1 10.3-6 23.4-14.2 30.1-5.9.6-5.9.6-8.9-1.1-1.6-2.8-1.4-4.7-1.1-7.9a58.3 58.3 0 0 1 3.9-6.9c5.3-8.5 7.2-16.4 5.5-26.4-2.6-10.2-9.1-18.1-15.6-26.1-6-7.6-12.1-15.2-14.8-24.6q-.3-.9-.5-1.8c-2.9-13.8 1.6-25.4 8.3-37.4 2.4-3.5 3.3-4.7 7.7-5.2zM234 361c2 2 2 2 2.6 5-.1 4.8-3.1 7.9-5.9 11.6-3.7 5.2-4.4 11.1-3.7 17.4 2 10.9 8.4 20.9 14.3 30.3 5.9 9.9 8.1 19.1 6.7 30.7-2.3 8.7-7.2 16.2-13 23-3.2 1.6-6.5 1.5-10 1-2.1-1.6-2.1-1.6-3-4-.1-3.7.2-6 2.5-8.9q1.9-2.1 3.8-4.1c3.8-4.5 5.4-9.9 5-15.8-1.4-9.8-6.9-17.6-11.9-25.8-7.8-12.8-11.4-25.4-8.4-40.4 3.3-10.4 8.8-21.6 21-20z" fill="#002d51"/><path d="M434 463c2.5 1.5 2.5 1.5 4 4 1.1 7.9-3.6 14.8-8 21-3.7 4.9-7.6 9.6-11.5 14.2q-1.9 2.3-3.7 4.5c-7.1 8.3-17.3 19-28.5 20.9-3.3-.6-3.3-.6-6.3-2.7-2-2.9-2-2.9-2.3-6.2 2.3-6.6 7.9-10.5 13.1-15 11.9-10.3 22.8-21.9 30.2-35.9 3.3-5.8 6.8-6.6 13-4.8z" fill="#d78400"/><path d="M653.6 256.1c3.4.9 3.4.9 5.4 2.9.7 4.9.5 7.8-2.4 11.9-9.4 11.2-21.8 21-36.6 23.1-13.7 1.1-25.2-1-36-10-3.2-3.6-4-5-3.9-9.8.9-3.2.9-3.2 3.9-5.2 5.9 0 9.1 2.2 13.9 5.6 6.1 4.1 12.9 4.1 20.1 3.4 12.7-3 21.6-10.8 30-20.3 2-1.7 2-1.7 5.6-1.6z" fill="#032754"/><path d="M721 258c2.2 2 4 3.9 5.9 6.2 4.2 4.9 8.1 9.1 14.1 11.8q1 .5 2.1.9c7.5 3 15.3 3.5 22.8.3 2.6-1.3 4.4-2.5 6.7-4.5 3.3-2.3 5.5-2.2 9.4-1.7 2.4 3.5 2.5 4.8 2 9-3.2 6.4-8.5 10.8-15.2 13.1-12.8 2.9-25.8 1.6-37.1-5-8-5.1-17.2-12-20.7-21.1.2-3.6.2-3.6 1-7 3.5-2.4 4.8-2.7 9-2z" fill="#032755"/><path d="M360 533c3 2.1 3 2.1 5 5 .2 4.4-.8 6.6-3.1 10.4-4.7 5-10.9 8.1-16.8 11.4q-3.2 1.8-6.4 3.7-2.1 1.2-4.3 2.4-.9.6-1.9 1.2c-6.6 3.7-12.9 6-20.5 4.9-2.6-1.6-2.6-1.6-4-4-.2-3.4-.2-3.4 1-7 4.7-4.5 10.6-7.6 16.4-10.6 7.5-4.1 14.6-8.6 21.5-13.6 4.5-3.2 7.4-4.6 13.1-3.8z" fill="#d68400"/></svg>