<svg xmlns="http://www.w3.org/2000/svg" width="1024" height="1024" xmlns:v="https://vecta.io/nano"><path d="M236.7 142.3q3.7 1.3 7.3 2.7l2.8 1c5.6 2.1 10.7 4.9 15.9 8 2.8 1.7 5.6 3.2 8.5 4.8 6 3.2 11.6 6.9 17.3 10.7q1.6 1 3.1 2.1c9.7 6.5 19.1 13.3 28.4 20.4q.9.7 1.9 1.5c7.5 5.7 14.7 11.6 21.7 17.8a245.09 245.09 0 0 0 13.6 11.2c2.4 2.1 3.9 3.9 5.8 6.4 3.4 4.4 6.6 8.3 12 10.1 8.3-.2 16.3-3.4 24.1-6 6.6-2.3 13.4-3.9 20.3-5.3q1.8-.3 3.6-.7c13.2-2.6 26.6-4.3 39.9-5.8q2.2-.2 4.3-.5c13.6-1.6 27.1-2.1 40.8-2h3.2c42.1.1 83.8 5.2 124.5 16.6q1 .3 2.1.6 2.7.7 5.3 1.5c3.1.6 4.9.7 7.9-.4 2-1.6 2-1.6 3.8-3.6 3.2-3.4 6.5-6.5 10.1-9.6 2.3-2 4.6-4.1 6.9-6.2 5.3-4.7 10.7-9.2 16.2-13.6q1.7-1.4 3.4-2.7c79.2-64.4 79.2-64.4 115.6-61.3 4.9 1.4 7.4 3.9 9.8 8.3 7.4 17.4 7.6 37.6 7.5 56.1q0 1.4 0 2.9c0 17.7-1.2 35.1-3.3 52.7-.2 1.4-.2 1.4-.3 2.9-2.8 25.1-7.6 50.4-13.9 74.8-3.8 15.1-.6 26.6 5.9 40.4 5.5 12.4 8.6 25.7 11.3 38.9q.3 1.5.6 3c7.4 38.2 4.8 79.2-3.6 117q-1.8.1-3.7.1c-29 .9-29 .9-57.8 3.8-1.7.3-1.7.3-3.4.5-5.1.8-8.8 1.6-13.1 4.6-2.7 4-2.7 7.3-2 12 1.9 2.5 3.2 3.6 6 5q3.2-.1 6.4-.3 1-.1 2.1-.2 5.3-.3 10.6-1c15.9-2.1 31.9-1.7 47.9-1.5-11.4 55.6-51.9 106.2-96 140-.9.7-.9.7-1.9 1.4-8.3 6.4-16.8 12.2-25.9 17.4q-2.3 1.3-4.6 2.6c-28.3 16.4-59.5 27.9-91.6 34.6q-1.5.3-3 .6-9.7 2.1-19.6 3.8-3.3.6-6.7 1.2c-69.5 12.7-140.7-2.5-203.7-32.5q-1.7-.8-3.5-1.7-1.6-.8-3.2-1.6-1.4-.6-2.8-1.3c-4.2-2.5-6.7-5.1-8.4-9.7q-.4-1.2-.9-2.4-.5-1.3-.9-2.7c-3.3-8.5-7-16.7-11.3-24.8q-1.5-2.9-3-5.8c-9.6-19-21.4-36.9-34-54.1-.6-.8-.6-.8-1.2-1.7-4.4-6-9-11.8-13.7-17.5q-.7-.8-1.5-1.7c-3.1-3.7-4.4-4.9-9.2-5.6-4.6.1-6.8 1.8-10 4.9-4.9 5.4-9.5 11.1-14 16.9a48.93 48.93 0 0 1-4.4 4.7c-30-50.4-30-50.4-30-66 12.7-.4 25.2.3 37.9 1.4q1.1.1 2.3.2c6.6.6 13.2 1.3 19.8 2.4 6.4.5 6.4.5 12-2 2.3-3 2.3-6.2 2.6-9.9-.9-3.4-2.9-4.9-5.6-7.1-22.6-8-51.2-6.5-75-7-2.1-6.9-3.4-13.9-4.6-21q-.5-2.6-1-5.3c-2.3-13-2.6-26-2.6-39.2q0-1.2 0-2.4c.1-32.5 3.6-70 19.3-99.1 7.2-13.9 4.1-27 .7-41.4-3.7-16.1-6.8-32.1-9.3-48.4q-.7-4.3-1.4-8.5c-6.4-37.6-13.8-92.4 5.5-127 6.7-8.1 18.3-5.5 27.1-2.5z" fill="#fe8e00"/><path d="M297 152c3.4 2.3 6.7 4.6 10 7q1.6 1.2 3.3 2.3c10.6 7.5 21 15.2 31.1 23.5q3.6 3 7.3 6 6.7 5.3 13.4 10.7 1 .8 2.1 1.7c4.4 3.6 8.6 7.4 12.6 11.5 4.7 2.8 10 1.5 15 .2q2.7-.8 5.4-1.5c25.7-6.8 52.4-10.3 78.8-12.4q1.7-.1 3.5-.3c9.7-.7 19.4-.9 29.1-.9q1.2-.1 2.5-.1c18.4.1 36.6 1.3 54.9 3.3q1.1.1 2.3.3c20.3 2.2 40.1 5.5 59.9 10.2q1.1.3 2.3.5 3 .7 6 1.5c3.6.5 6 .4 9.5-.5a53.68 53.68 0 0 0 5.7-5q1.6-1.5 3.2-3 .7-.8 1.5-1.5c4-3.8 8.4-7.1 12.6-10.5q2.6-2.1 5.1-4.2c12.2-10 24.9-19.4 37.8-28.4q3.1-2.1 6.1-4.2c27.6-19.4 60.1-39.6 95-36.2 3.9 1 6.8 2.5 10 5q1 .7 1.9 1.5c14.5 12.7 16.8 36.5 18.1 54.5l.2 10.3q0 1.4 0 2.8 0 4.6 0 9.1v3.1c0 15-.4 29.8-2.2 44.7q-.3 3.1-.7 6.1c-2.6 24.1-7.2 47.6-12.5 71.2-.2 1-.2 1-.5 2-.9 4.3-2.1 8.5-3.3 12.7-1.5 8.6 2 15.9 5.1 23.7 20.7 53 24.2 113 10.9 168.3q1.2.1 2.5.1c53 2.9 53 2.9 62.5 8.9 2.1 3.2 2.3 4.3 2.4 7.9q.1 1.3.2 2.6c-.8 3.6-2.6 4.5-5.6 6.5-9.1 1.5-18.9-.6-27.9-1.9q-4-.5-8.1-1.1-1-.1-2.1-.2c-9.6-1.3-19.2-2.1-28.9-2.8q-.2.9-.3 1.9c-1.2 6.1-2.8 11.8-4.9 17.7q-.4 1.2-.9 2.6a302.13 302.13 0 0 1-25.4 53.6c-.9 1.6-.9 1.6-1.9 3.2-4.2 6.9-8.7 13.5-13.6 20q-.7 1-1.5 2c-6.6 8.8-13.8 17-21.5 25q-.9.9-1.7 1.8c-6.2 6.4-12.5 12.7-19.6 18.1q-3.2 2.5-6.3 5.1c-8.8 7.3-17.8 13.9-27.4 20q-1 .6-2 1.3c-41.8 26.7-88 41.7-136.7 50q-1.3.2-2.6.5-4.3.6-8.7 1.2c-1 .1-1 .1-2 .3-13.7 1.7-27.2 2-41 1.9q-5.1 0-10.3 0c-15 0-29.6-.5-44.5-2.9q-1.5-.2-3.2-.5c-36.9-6.3-71.9-18.3-106-33.8v2.1c.6 26.4.6 26.4-3 38.9q-.4 1.5-.8 3c-6.7 22.5-22 40.5-42.2 52-6 3.2-12.4 5.2-19 7q-1 .3-2 .6c-15.4 3.9-34.2 3-49-2.6q-1.5-.6-3.1-1.1c-13-5.1-23.2-12.2-32.9-21.9q-1-1-2-2c-14.4-15.1-21.6-38.2-21.3-58.7 1.4-39.2 21.1-74.2 41-106.9q.8-1.4 1.7-2.9a123.65 123.65 0 0 1 4.1-5.9c1.7-2.4 1.7-2.4 1.5-5-1.4-3.7-3.4-7-5.5-10.4-11.9-19.8-21.1-40.3-28.5-62.2q-.5-1.4-1-2.9c-1.3-3.6-2-6.3-2-10.1q-7.8.6-15.6 1.3-1.1.1-2.3.2c-10.6.9-21.2 2-31.7 3.6-16.3 2.3-16.3 2.3-21.5-1.2-2.1-3.2-2.9-5.1-2.9-8.9.9-3.2.9-3.2 3-6 5.4-2.3 10.5-3.7 16.3-4.6q1.2-.1 2.4-.3c15.5-2.4 30.6-3.4 46.3-3.1q-.2-1-.3-2c-3.8-22.2-6.9-44-6.9-66.6q0-1.1 0-2.1c0-11.6.5-22.9 2.2-34.3q.2-1.6.5-3.3c2.8-20.3 7.4-39.6 14.8-58.7q.5-1.5 1.1-2.9 1-2.7 2.2-5.4c4.6-11.9 2.4-23.5-.8-35.5q-1-3.8-1.9-7.7-.5-1.9-1-3.8c-4.1-16.7-6.5-33.6-8.7-50.7q-.1-1.3-.3-2.6c-2.2-17.9-3.1-35.7-3.1-53.8q0-4 0-8.1c-.1-14.1.8-28 4.1-41.9.2-1.1.2-1.1.5-2.2 3-12.8 7.3-23.8 18.6-31.4 30.1-14.5 68.2 11.2 93 27zm-87-8c-6.7 11.4-8.4 24.4-9.7 37.4q-.2 1.8-.4 3.6c-4.7 46.6 3.7 95.5 14.1 140.9q.2 1 .5 2.2 1.2 5.1 2.4 10.3c2.3 10.1 2.5 17.8-1.2 27.5q-.6 1.8-1.3 3.7c-1.2 2.9-2.5 5.7-3.8 8.5-13.1 28-15.8 62.1-15.8 92.6q0 1.2 0 2.4c0 10.7.2 21.2 1.9 31.8q.5 3.6 1 7.3c.8 13.2.8 13.2 5.3 24.8q2.7.2 5.4.2 1.7.1 3.5.1 1.9 0 3.8.1c56.2 1.6 56.2 1.6 65.2 8.9 2.1 2.7 2.7 3.5 2.5 6.8-.6 5.5-.6 5.5-2.4 7.9-6 4.6-17.1 1.5-24.1.6-16-2-31.7-2.7-47.9-2.6 4.8 23.4 17.5 45.9 30 66 3.2-3.1 6-6.2 8.7-9.7C259.1 601 259.1 601 263 599c4.7-.5 6.9-.7 11 1.9 19.6 18.9 34.4 45.7 48 69.1q.7 1.1 1.4 2.3c4.9 8.5 9.4 17.1 13.4 26l1.2 2.6c1.6 3.6 3 6.9 3.9 10.8 1.3 6 3.4 9.1 8.5 12.3 6 3.4 12.3 6.2 18.6 9q1.7.8 3.4 1.5c27.2 12.1 55.4 20.7 84.6 26.5q1.7.3 3.4.7c34.8 6.6 72.9 5.8 107.6-.7q3.4-.6 6.8-1.2L594 756q1.3-.3 2.6-.5c46.5-9.5 90.7-30.7 127.4-60.5l2.6-2c7.3-5.7 14-12 20.8-18.4q1.9-1.9 4-3.8c5.7-5.5 10.5-11.8 15.3-18.1q1.7-2.3 3.5-4.5c16.6-21.3 43.8-60.3 43.8-88.2-19.7-.4-38.7.1-58.3 2.7-8.8.9-8.8.9-12.7-1.7-2-3-2.3-3.9-2.4-7.4q0-1.1-.1-2.2c.7-3.5 2-5 4.5-7.4 3.4-1.1 3.4-1.1 7.3-1.7q1.9-.3 3.9-.6 2.4-.4 4.8-.7 1.5-.2 3.1-.5c11.7-1.7 23.5-2.2 35.3-2.6q3.2-.2 6.3-.3 7.7-.3 15.3-.6c12.4-55.7 11.5-117.3-13-169.7-5.1-11.7-2.9-23.1.1-35.1q.9-4.2 1.9-8.3.2-1.1.5-2.2c6.1-26.6 10.1-53.5 12.5-80.7.2-1.7.2-1.7.3-3.4.9-10.5.9-21 .9-31.6q.1-1.4.1-2.9c.8-31.8.8-31.8-11.3-60.1-5.4-4.1-11.5-3.8-18-3-24.4 5.4-46.8 19.9-67 34-1.6 1.1-1.6 1.1-3.2 2.3-13.4 9.3-26.3 19.2-38.8 29.7-.8.6-.8.6-1.6 1.3-8.3 7-16.6 14.1-24.5 21.7-.8.7-.8.7-1.6 1.5q-1.6 1.5-3.1 3c-3 2.8-5.1 4.1-9.2 4.5-2.7-.5-2.7-.5-5.7-1.3q-1.7-.4-3.4-.9l-3.5-1q-3.7-1-7.4-2c-1.8-.4-1.8-.4-3.7-.9-7.4-2-14.8-3.5-22.3-4.9q-1.6-.3-3.2-.6c-75.1-13.6-148.5-7.5-221.8 12.6q-.8-.8-1.7-1.7c-7.3-7.5-15.1-14.1-23.2-20.7-2.9-2.4-5.8-4.9-8.6-7.4-7-6.1-14-11.8-21.5-17.2q-2.8-2.2-5.7-4.3c-13.7-10.2-27.7-19.8-42.3-28.7q-.9-.6-1.8-1.1c-12.7-7.8-46.9-28.2-60.2-13.9z" fill="#012143"/><path d="M265 626c3 1.3 4.7 2.5 6.7 5.2q.7.9 1.4 1.9.8 1 1.5 2.1l1.6 2.2c28.8 39.3 63 90 56.5 140.9-.8 4.1-2.1 7.9-3.7 11.7q-.6 1.5-1.3 3.1c-7.8 17.1-21.8 29.5-39.2 36.3-6.1 1.9-12.1 3.3-18.5 3.6q-1.2.1-2.4.1c-18.4.5-35.5-5.8-49.4-17.9-9.5-9-15.6-19.7-19.2-32.2q-.3-1.1-.6-2.2c-9.6-39.5 17-80.6 36.6-112.7 9-14.7 19-28.8 30-42.1z" fill="#65cdf9"/><path d="M496.7 526.8q1.8 0 3.6 0 3.9 0 7.7 0 5.8 0 11.6 0 3.7 0 7.5 0 1.7 0 3.4-.1c11 .1 20.9.9 29 8.8 5.1 5.7 6 10.9 5.8 18.3-1 10.3-5.7 17.4-13.3 24.2-19.6 16-19.6 16-28 16v39l11 1c16.3 2.9 32.1 11.7 44 23q.8.7 1.6 1.4c14.3 13.3 14.3 13.3 14.9 22.8-.6 4.2-1.5 5.9-4.5 8.8-3.2 1.6-6.5 1.5-10 1-3.9-1.9-6.6-4.5-9.6-7.6-16-16.4-36.3-26.6-59.4-26.9-24.6.3-43.9 12-60.7 29.2q-.9.9-1.7 1.8c-3 2.8-5.4 3.5-9.5 3.9-3.7-.1-6.3-1-9-3.7-2.3-3.7-1.9-7.6-1.1-11.7 6.9-17.5 28.2-30.4 44.5-37.6 8.3-3.2 16.6-5.4 25.5-5.4v-39q-2.5-.5-5-1c-13.7-6.5-28.3-16.5-34.9-30.6-2.1-6.5-2.5-14.5-.2-20.9 3.7-6.3 9.3-10.8 16.1-13.5 6.9-1.1 13.7-1.2 20.7-1.2z" fill="#012146"/><path d="M401.8 432.6c9.9 7.4 16.3 16.4 19.2 28.4 1.6 14.1-1.2 25.8-10 37-6.5 8.2-15.9 12.6-26 15-14.6 1.2-25.8-1.6-37.2-10.7-7.7-7.1-13.2-17.7-14.2-28.1-.4-13.3 2.4-23.8 11.3-34.1 15.3-15.7 38-18.4 56.9-7.5zm272.9 3.3c8.7 7.2 14.7 17 16.1 28.2.7 13.1-1.4 24.1-10.1 34.3-9.4 9.7-20.1 14.6-33.8 15.1-13.6-.5-24.7-6.4-34-16.2-8.3-10.3-10.8-22.1-9.5-35 2.1-11.6 8.3-21.9 18-28.7 17.8-10.8 36.4-9.7 53.3 2.3z" fill="#011e3e"/><path d="M705 393c14.5 11.9 14.5 11.9 15.5 19.9-.2 4.8-2.2 6.9-5.5 10.1-3.3 1.6-6.5 1.6-10 1-5.1-2.5-9.3-6.2-13.6-9.8-10.8-8.8-23-14.6-36.4-18.2q-1-.3-2-.6c-6.3-1.6-12.3-1.7-18.8-1.6q-1.5 0-3.2 0c-5.6.1-11.1.3-16.6 1-4 .3-5.2.3-9-1.4-2.7-2.7-4.2-4.8-5.4-8.4.1-4.9 1.6-7.6 5-11 27.7-18.3 76.8 1.6 100 19z" fill="#021d3e"/><path d="M397 369l2.1.2c8.4.6 15.9 1.6 22.5 7.2 2.4 2.8 2.5 6.1 2.4 9.6-1.7 4.1-4.1 6.8-8 9-4.3.5-8.5.3-12.7-.5-24.3-3.7-48.6 3.7-68.3 18-3.1 2.3-6.1 4.7-9.1 7.2-4.8 3.8-7.7 4.9-13.9 4.3-3.7-2-5.7-3.5-8-7-.7-4.5-.1-7.5 2.2-11.3 15.2-20.8 44.7-32.2 69.1-36.3 7.2-1 14.4-.9 21.7-.4z" fill="#021d3f"/></svg>