<svg xmlns="http://www.w3.org/2000/svg" width="1024" height="1024" xmlns:v="https://vecta.io/nano"><path d="M452.7 284.8q2 0 4.1 0 4.3 0 8.6 0 4.3 0 8.7 0c31-.1 31-.1 44.9 2.2 1.6.2 1.6.2 3.1.5 30.4 5.2 59.2 16.4 84.8 33.4 4.2 2.7 7.1 4.3 12.1 4.1q1.2-.7 2.4-1.4c3.9-2.4 7.1-2.4 11.6-1.6 9.3 3.5 17.3 10.5 25.1 16.5q2.6 2 5.3 4c7.5 5.6 14.4 11.8 21.2 18.3 2.6 2.5 5.3 4.9 8.2 7.2 13.7 12.2 26.2 30.9 27.4 49.5.4 28.1-6 54.1-25.2 75.5q-1.2 1.4-2.4 2.8c-4.5 5.2-4.5 5.2-6.6 7.2q-1 0-2 0c-2.8-6.6-4-13-5-20.1q-.3-1.8-.5-3.7c-1.4-10.3-2.2-20.7-2.9-31.1-1.5-20.4-4.2-40.4-9.2-60.3q-.2-1.1-.5-2.3c-.9-3.1-1.6-5.2-3.9-7.5-2.8-1.4-4.8-1.4-8-1-2.4.9-2.4.9-4 3-1.6 6.3-.2 10.7 1.7 16.7 6.2 21.2 7.7 43 8.9 64.9 1 18.8 3 35.6 10.3 53 10 24.1 14.2 52.6 4.3 77.5-8.5 19.7-21.3 33.7-41.2 41.9-12.6 4.4-25.7 2.5-38-2q-.9-.3-1.9-.6c-9.1-3.1-18.2-6.8-23.3-15.4-1.3-3.4-1.5-6.5-.8-10 2.9-5.2 7.9-8.6 12.6-12.1 13-10.1 25.4-24.4 27.7-41.4.2-7-1.2-11.8-5.7-17.2-9.9-9.7-24.2-10.5-37.2-10.5q-3.3-.1-6.5-.1c-16.9-.1-35.7 2.1-49 13.4-4.9 4.9-7.6 9.7-8 16.6.3 11.2 6.1 18.7 14 26.2 9.2 8.1 19.6 14.9 30.3 20.9 1.8 1.2 1.8 1.2 3.8 4.2.4 4.5.5 7-1.4 11.1-13.6 15.2-35.9 21.3-55.6 22.7-31.3 1.6-64.5-7.8-88.1-28.9-2.9-2.8-5.3-5.9-7.7-9.1-2.7-3.5-2.7-3.5-6.4-5.6-3.3-.2-5.5.6-8.3 2.4-1.5 2.5-2.3 4.3-2.1 7.3 3 10 13.8 20.1 22.3 25.6 10.1 6.5 13.7 12.2 17.6 23.5 1.8 4.8 4.8 8.9 7.7 13q1 1.4 1.9 2.8c7.5 10.7 7.5 10.7 17.1 19.2q0 1 0 2 .8.4 1.7.8c2.5 1.3 4.9 2.9 7.2 4.4 4.3 2.8 8.5 4.8 13.2 6.7 5.6 2.5 5.6 2.5 6.9 5 .4 2.5.2 4.6 0 7.1q0 3.5.1 7.1-.1 2.9-.1 5.9c-7-.5-13.4-1.7-20.1-3.6q-1.3-.4-2.7-.8c-20.2-6.1-39.6-15.5-56.2-28.6-1.1-.9-1.1-.9-2.3-1.7-9.7-7.4-19.3-15.5-26.7-25.2-2.3-2.7-3-3.1-6.6-4.2-4.1.1-6.5 1.2-9.4 4.1.2 6.4 2.7 10 6.6 15q.8 1.1 1.6 2.1c3.3 4.2 6.6 8 10.8 11.4 2.3 1.7 4.3 3.7 6.4 5.7 22.8 20.5 57.1 38.6 87.8 42.5q1.3.2 2.6.4 2.5.3 5 .5c2.3.2 4.1.5 6.2 1.4 1.9 3.2 1.9 3.2 3 7q.5 1.4.9 2.9.4 1.3.9 2.7c6.1 18.5 17.8 33 34.9 42.2 19.2 9.4 42.2 7.8 62.1 1.4 9.3-3.4 9.3-3.4 17.2-9.2q1.5 0 3 0 1.8 8.8 3.6 17.7.6 3 1.3 6 1.7 8.7 3.5 17.4.6 2.9 1.2 5.7.8 4 1.6 8.1.3 1.1.5 2.3c1.1 5.4 1.9 10.8 2.6 16.2q.1 1 .2 2.1c.5 4.4.5 8.8.5 13.3q0 1.7 0 3.5 0 1.3 0 2.7-86.1.2-172.2.4-10.2 0-20.5 0h-2q-32.8.1-65.5.2-34.7.1-69.4.1-18.9.1-37.8.1L79 891q2.1-4.5 4.3-9 .6-1.3 1.2-2.6c10.9-23 22.9-45.4 36.8-66.7q2-3.2 4-6.3l21.8-33q1.6-2.5 3.3-5 6.2-9.3 12.4-18.6l13-19.8q.7-1.2 1.4-2.4 2.4-3.8 4.8-7.6.8-1.3 1.7-2.7a651.37 651.37 0 0 0 22.9-39.8q1.9-3.5 3.9-7c20-36.4 33.9-76.5 44.5-116.5q1 .2 2.1.4 1.4.3 2.9.5l2.8.6c15.9 2.6 32.9 3.7 47.1-5.3q2.1-1.6 4.1-3.2.9-.7 1.9-1.5c32.1-29.2 31.7-99.9 37.3-139.8q2-14.5 4.1-28.9c3.3-23.2 4.9-45-4.2-67-1-2.6-1.6-5-2.1-7.8 33.4-10.1 66.7-17.1 101.7-17.2z" fill="#fa9600"/><path d="M471.8 267.8q1.5-.1 3.1-.1c12.8 0 25.4.5 38.1 2.3l2.9.4c5.4.7 10.7 1.6 16.1 2.6q1.9.3 3.9.7c23.2 4.8 46.3 14.4 66.5 26.8l2.4 1.4q1 .6 2.1 1.3c2.7 1 4.3.6 7.1-.2q2.8-.2 5.7-.3 1.4-.1 2.9-.1c8.3 1 15.8 5.5 23 9.5q1.3.7 2.6 1.4c8.3 4.7 16.1 9.9 23.8 15.5q1.6 1.1 3.2 2.3c6.4 4.6 12.2 9.6 17.9 15a270.17 270.17 0 0 0 8 7.1c10.1 9.1 17.9 19.9 24.9 31.6a25.29 25.29 0 0 0 1.3 2.2c9.9 18 11.1 45.9 6.2 65.7-1 3.4-2.2 6.8-3.5 10.1-.5 1.6-.5 1.6-1.1 3.2-5.6 14.8-14.8 27.7-24.9 39.8q-.7.8-1.4 1.7c-1.1 1.5-2.4 2.9-3.6 4.3q-1 0-2 0-.4.9-.8 1.7c-1.2 2.3-1.2 2.3-3.4 4-2.2 2.3-2.2 2.3-1.5 6 .6 3.8 1.4 7.6 2.3 11.4 3.5 18.2 3.7 40.3-2.6 57.9q-.4 1.1-.7 2.1c-6.3 17.5-17.2 35-33.2 45.1-5.9 3.9-7.6 7.3-9.1 14.1-3.4 12.9-8.2 25.4-17 35.7-2.7 3.3-3.4 5.2-3.2 9.5.4 4.1 1 8.1 1.7 12.1.8 5.4 1.2 10.9 1.5 16.4q.1 1.3.2 2.6c.5 14.8-2.6 32.2-11.4 44.5-5.9 10.5-.4 26.8 1.8 37.9q1.6 8.1 3.1 16.3l.6 3.3c1.8 9.7 3.3 19.4 4.7 29.1a16.6 16.6 0 0 0 .3 2.2c2.5 17.7 2.5 17.7 2.7 26.1-1 1-1 1-4.2 1.1h-3.9q-1.9-.1-3.9-.1h-3q-.1-1.3-.2-2.5c-1.4-17.3-3.3-34-7-50.9-1.5-6.7-2.8-13.3-4.1-20q-.7-3.5-1.5-7.1-.4-2.2-.8-4.3l-.8-3.9c-.6-3.3-.6-3.3-.6-7.3q-.8.5-1.6.9-3.7 2.1-7.4 4.1-1.1.6-2.3 1.3c-9.5 5.2-20.8 8.3-31.7 8.7q-1.9.1-3.8.2c-18.8.5-36.4-3.6-50.6-16.4-12.9-12.2-19.9-27.9-24.6-44.8q-1.7-.2-3.5-.4c-37.5-5.2-74.5-22.5-102.2-48.5-2.2-2.1-2.2-2.1-4.5-3.9-5.2-4.2-9-8.9-12.9-14.4q-.7-1-1.4-2.1c-4.3-6.3-4.3-6.3-3.5-10.7 2.2-3.3 3.9-4 7.7-5.2 3.8-.3 5.5.7 8.4 3.1 3.2 3.2 6.2 6.7 9.2 10.1 25.1 29.2 63.2 44 99.7 52l-2-22q-2.6-1-5.3-2.1c-25.3-10.6-43.2-33.7-53.4-58.6q-1.2-3.1-2.3-6.3c-2.2-1.8-2.2-1.8-4.9-3.6-10.6-7.5-22-16.8-28.1-28.4-.6-4.4-.5-6.3 2-9.9 3.1-2.1 5.2-3 9-2.8 4.2 1.4 6.5 5.2 9 8.7 15.4 21 45.4 30.2 70 34 27.1 3.5 52.6-2 74.8-18.1 3.5-3.1 4.1-5.2 4.6-9.8-.1-3.2-.4-4-2.2-6.7-2.7-2-5.2-3.5-8.2-5.1-13.3-7-31.6-19.9-36.8-34.5-1.6-6.2-1.9-12.2.9-18.1 5.3-8.7 12.4-13.4 21.6-17q1-.4 1.9-.7c10.9-3.9 22.4-4.4 33.8-4.4q3.2 0 6.4 0c11.9-.1 26.1 1.7 35.2 10.3 5.1 5.6 7.7 10.2 7.5 18-3.2 19.9-17.2 34.6-32.7 46.3-3.1 2.3-5.8 4.4-7.8 7.8-.5 4.6-.5 6.9 1.5 11.1 9.3 10.7 25.5 16.8 39.5 18.1 16.3 1 30.5-3.6 43.1-14.3 15.9-15 23.7-35.7 24.4-57.3.2-19.1-3.9-36.2-11.5-53.6-7.6-17.8-8.6-38.6-9.2-57.8-.6-20.6-3-42.5-10-62-.9-3.8-.7-6.4.2-10.2 2.6-2.9 4.2-3.9 8-4.5 3.9.7 5.2 1.6 8 4.5 1.4 3.3 2.2 6.7 3 10.1q.4 1.6.8 3.2c5.1 22.9 7.5 46.1 9.2 69.5 1 13.7 2.6 26.9 6 40.2 18.2-14 30.4-37.9 34.6-60.2 2.5-24.1-1.1-43.7-16.3-63-5.3-6.4-10.7-12.5-17.1-17.9-2.2-1.9-4.3-3.9-6.5-5.9-5-4.7-10.2-9-15.8-13-2.7-1.8-5.2-3.8-7.8-5.8-5.8-4.5-11.6-8.7-18.1-12.2q-1-.6-2-1.1c-3.6-1.6-7.2-1.4-11-.9q-2.5 1.5-5 3c-6.4-.2-10.4-2.7-15.5-6.1q-2.4-1.5-4.8-3-1.2-.7-2.4-1.5c-32.1-19.9-70.9-29.5-108.4-29.6q-.9 0-2 0-5.2 0-10.5 0-4.2 0-8.5-.1c-37.7-.3-75.1 4-111.1 15.8-1.8.5-1.8.5-4.8.5q.6 1.3 1.2 2.7c11.6 26.2 8.8 51.4 5.4 79.2q-.1 1.3-.3 2.6c-.9 7-2 13.8-3.2 20.7-1.9 11.3-3.5 22.6-5 33.9-12.1 88-12.1 88-37.1 108.9-12.2 8.9-28 9.6-42.5 7.4-4.9-.9-9.8-1.8-14.5-3.4q-.1.9-.3 1.9c-1.3 7.8-3.4 15.2-5.8 22.7q-.3 1-.6 1.9c-16.3 51.9-39.8 101-69.7 146.5l-8.9 14.2c-2.3 3.7-4.7 7.2-7.3 10.7-5.5 7.5-10.6 15.4-15.7 23.2q-1.5 2.3-2.9 4.5c-19.4 29.5-38.5 59-53.9 90.7-3.5 7-7.2 13.8-10.9 20.7H66c.7-3.6 1.4-6.4 2.7-9.8q.5-1.3 1-2.7.6-1.3 1.1-2.8.5-1.3 1.1-2.7c9.2-24.1 22-46.2 35.8-67.9q2-3.2 4-6.5c6.3-10 12.8-19.9 19.4-29.7 6.1-9.2 12.1-18.5 17.9-27.9q1-1.6 2.1-3.3 3-4.8 5.9-9.7c.7-1.1.7-1.1 1.4-2.3 7.5-12.4 14.6-25 21.4-37.8q3.1-5.7 6.2-11.3c17.2-30.7 31.5-63.2 41.2-96.9q1.1-3.7 2.3-7.3c1.6-4.7 3-9.4 4.3-14.2q.3-1.2.7-2.4c1.7-6 1.7-6 .5-11.8-2.5-1.8-2.5-1.8-5.7-3.2-12.7-6.3-23.2-15-33.3-24.8q-1.4-1.3-2.8-2.6c-18-17-31.7-41.6-32.5-66.7-.2-12.9.1-24.5 4.3-36.7q.6-1.9 1.2-3.8c5.6-17.1 15.8-32 27.8-45.2q1.3-1.7 2.7-3.4 1.1-1.3 2.3-2.6 1 0 2 0 .5-1.5 1-3c2.4-2.6 5.3-4.8 8-7q.8-.6 1.5-1.3c24-19.6 50.7-31.9 79.9-41.8 3.3-1.1 6.5-2.3 9.7-3.5 8.2-2.9 16.5-5.2 24.8-7.5q5-1.4 9.9-2.9c45-13.1 89.1-20.1 136-20.3z" fill="#012a59"/><path d="M860.3 198.8c7.3 5.9 12.1 12.5 13.1 22.1.6 11.8-2.4 20.6-8 31-.7 1.2-.7 1.2-1.4 2.5q-1.4 2.6-2.8 5.1c-2.6 4.5-2.6 4.5-3 9.6q.4.9.8 1.9c5-.5 9.9-1.1 14.8-2.1 13.6-2.3 28.8-1.9 40.9 5.4 6.5 4.8 10.4 10.8 12.3 18.7 1.1 9.9 0 19.1-5.8 27.3-6.7 8.2-16.5 14.4-27.2 15.7-12 .9-22.3-1.2-33.4-5.8-4.2-1.4-7.1-1.5-11.6-1.2-1.4 1.1-1.4 1.1-1.2 4.1 0 3.9 0 3.9 1.2 7.2 2.3 8.3 2.4 18-1.7 25.7q-.7 1-1.3 2-.6 1-1.2 2.1c-4.3 6.5-10.5 10.5-17.8 12.9-8.7.6-16.1-1.5-23-7-6.4-6.1-8.1-11.6-8.4-20.4.2-8.6 2.6-12.6 8.2-19 4.1-4.6 7.3-8.3 7.7-14.7-.8-2.9-2.2-4-4.5-5.9-3.3-.8-3.3-.8-6.9-1.1q-2.1-.2-4.2-.4-1.1-.1-2.2-.2c-20.5-2-38.1-6.3-56.7-15.3q-1.2-.6-2.4-1.2c-15.4-7.3-30.1-15.4-43.6-25.8 3-1 4.1-1 7.2-.7q1.2.2 2.5.3 1.3.2 2.7.4 1.4.1 2.9.3 6.1.7 12.1 1.4c18.5 2.2 37 3.7 55.6 3.3q1.2 0 2.4-.1c21.7.4 21.7.4 40.6-7.9.9-7.6-.9-13.2-4-20.1-4.3-10.6-6.8-20.7-2.7-31.8 4.6-10.4 11.3-17.6 21.7-22.1 9.9-2.5 19.3-1.1 28.3 3.7z" fill="#90c3e2"/><path d="M841.6 179.8q1.5-.1 3.1-.1c13.2-.1 23.9 4 33.6 13.1 9.3 9.8 12.3 21.2 12 34.5-.7 9.1-3.7 17.3-7.3 25.7q.8 0 1.7 0c16.6.4 32.5 1.3 45.5 13 8.5 8.9 13.7 20.1 14 32.4-.4 16.2-7.7 30.5-19.2 41.6-16.9 13.1-35.6 13.2-56 11q-.6 1.8-1.2 3.6-.4 1.2-.8 2.4-1.1 3.3-2.1 6.6c-3.9 12.9-10.2 23.5-22.1 30.7a61.08 61.08 0 0 1-5.8 2.7q-1.3.6-2.6 1.2c-10.9 3.7-22 2.2-32.4-2.2-10-5.4-18.1-13.6-22.2-24.4-2.4-10.4-2.5-23.7 2.2-33.6q.5-.5 1-1 .1-2.5 0-5c-4.8-1.7-9.5-3.1-14.4-4.2-34.1-7.3-66-24-93.6-44.8q-1.2-.9-2.3-1.7c-3.9-3.1-5.9-5.4-6.7-10.3-.2-4.1-.4-7.3 2.3-10.6 3.7-3.5 6.4-5.1 11.6-5.1q1.2.1 2.3.1 1.2.1 2.4.1c9.9.4 19.8 1.6 29.6 2.7 14 1.6 27.8 2 41.9 2q4.9 0 9.8 0c11.5.1 22.7-.3 34.1-2.2q-.6-1.8-1.3-3.6-.8-2.4-1.6-4.7-.5-1.2-.9-2.4l-.8-2.3q-.4-1-.7-2.1c-3.6-10.2-3.4-24.7 1-34.6 2.2-4 4.5-7.7 7.3-11.3q.8-1 1.6-2.1c9.4-10.6 23.2-15.1 37-15.2zm-24.8 26.5c-7 8.8-9.4 18.2-8.3 29.4 1.1 5.5 3.4 10.8 5.7 15.9 2.5 5.7 4.1 11.2 2.8 17.5-2.4 3-4.6 3.7-8.2 4.6q-1.3.4-2.7.8c-7 1.4-14 1.8-21.2 2.2q-1.2 0-2.5.1c-12.3.6-24.6.4-37-.5q-1.8-.1-3.7-.2c-17-1.2-33.8-3.1-50.7-5 2.7 2.8 5.3 5.4 8.6 7.5q1 .6 2.1 1.2 1.1.7 2.2 1.4a46.46 46.46 0 0 0 2.3 1.4c29 17.2 56.1 28.8 89.7 32q1 .1 2.1.2 2.9.3 5.8.6c3.7.8 5 1.7 7.2 4.7.5 4.3.4 7-2.1 10.6q-2.8 3.4-5.8 6.6c-6.1 6.6-7.6 12.7-7.4 21.7.7 8.1 4.2 13.7 10.3 19.1 4 2.6 8.2 4.5 13 5q1.8.2 3.7.4c6.5-.1 12.2-3.6 17-7.7 6.6-7.9 10.6-13.4 10.5-24.1q.1-1.9.1-3.8c-.3-3.9-1.2-7.1-2.3-10.8-.2-3.9-.2-3.9 0-7 1-1 1-1 4.5-1.2 4.8 0 8.8 1.4 13.2 3.1 13.9 5.3 27.4 6.1 41.3.1 8.9-4.7 15.4-11.5 19-21 2.4-9.6 1.9-19.3-3-28-4.6-7.4-12-11.8-20.4-13.8-3.5-.6-7-.9-10.6-1.2q-1.5-.1-3-.2c-6.7-.2-13 .8-19.5 2.1-3.6.8-6.8 1.3-10.5 1.1-.9-3-1.2-4.6-.1-7.5q.8-1.3 1.5-2.7.8-1.5 1.6-3 .9-1.5 1.7-3.1c7-12.5 11.4-23.2 9.3-37.7-2.7-8.8-7.8-15.6-15.9-20.1-14.9-6.8-29.4-2.2-40.3 9.3z" fill="#002a58"/><path d="M583 646q1.5.5 3 .9c4.2 1.4 7.8 2.6 10.6 6.1 1.4 3 2.4 5.9 3.4 9q.8 2.3 1.6 4.5c7.2 20.1 13.9 42.4 13.7 63.9v2.7c-.3 16.3-4.9 30-16.3 41.9-12.3 11.2-28.4 17.7-45.1 17.2-15.7-1.3-30-4.9-40.9-17.2-14.2-18.1-17.1-40-19.2-62.3-1.7-17.4-4.5-33.9-9.3-50.7-.5-2-.5-2-.5-4q1.1-.1 2.2-.1c19.7-1 35.8-3.8 53.8-11.9 2.1 5.4 3.9 10.8 5.4 16.5l.6 2.4c5.6 21.8 9 43 9.6 65.5q0 1.4.1 2.8v2.5c.3 2.5 1 4.2 2.3 6.3 3.1 1.5 5.6 1.3 9 1 2.6-2 3.8-3.2 4.5-6.4q0-1.3 0-2.7 0-1.5 0-3 0-1.6-.1-3.3 0-1.6 0-3.4c-.5-24.8-6.2-49.5-12.5-73.5-.9-3.7-.9-3.7-.9-5.7 16.7-2.8 16.7-2.8 25 1z" fill="#ea5911"/><path d="M257.8 106.6c3.4.1 4.2.4 7.3 2.4 2 3.2 2.5 5 1.8 8.8-1.5 3.8-4.2 6.6-6.9 9.7-6.5 8-8 16.5-7 26.5 1.1 2.7 2.3 4.6 4 7q0 1 0 2 .8.4 1.6.8 2.7 1.3 5.3 2.7c6.3 3.3 12.6 6.2 19.3 8.6 13.4 4.8 25.7 12.4 32.5 25.2 4.4 9.3 5.7 17.2 5.7 27.4q.1 1.4.1 2.9c-.1 6.3-.7 12.7-3.5 18.4-2.7 2.5-3.8 3-7.5 3.4-4.1-.5-5-1.2-7.5-4.4-.4-2.5-.4-2.5-.3-5.4v-3.1q.1-1.7.2-3.3c.3-9-.1-15.6-3.8-23.8q-.4-1.1-.9-2.2c-6.2-11.5-20.4-16-32.1-20.2-13.2-4.9-23-15-28.9-27.7-4-8.8-4.4-18.2-1.2-27.3 12.6-27.5 12.6-27.5 21.7-28.4zm159.8-33.2c3.4.6 3.4.6 5.8 2.2 2.3 3.5 2.4 5.3 1.6 9.4-2 3-4.5 5.4-7 8-7.8 8.7-15.8 19.6-16.1 31.7.6 11.4 6.5 19.2 13.7 27.9 9.8 11.8 15.5 23.8 14.8 39.4-1.5 15.2-9.2 28-19.4 39-3 2-3 2-6.5 1.9-3.5-.9-3.5-.9-5.4-2.6-1.4-3-1.4-5-1.1-8.3 1.3-2.4 1.3-2.4 3.1-4.6 8.4-11.3 12.2-21.4 10.9-35.4-2.9-10.6-9.4-19.5-15.9-28.2-8.9-12.3-11.9-22.5-10.1-37.8 1.1-4.4 2.8-8 5-12q.9-1.7 1.8-3.5c4.3-8.3 9.6-14.8 16.2-21.5q1.3-1.4 2.6-2.8c2.4-2.2 2.4-2.2 6-2.8zm121.3 33.1c2.6.6 3.5 1.4 5.1 3.5.6 2.7.6 2.7 0 6-1.5 2.1-3.2 3.9-4.9 5.7-7.4 8.1-12.7 15.2-12.6 26.3.4 4.8 2 9.2 3.5 13.8 3 9.1 3.9 16.6 3 26.2q-.1 1.4-.2 2.9c-1.7 12.9-9.2 23.8-17.8 33.1-1.3 1.4-1.3 1.4-2.5 2.8-2.5 2.2-2.5 2.2-6.1 2.6-3.4-.4-3.4-.4-6.4-2.4-1-3.3-1-3.3-1-7 2.3-3.3 4.6-5.6 7.5-8.4 9.6-10.1 10.8-22 10.7-35.4-.5-7.7-2.5-15.1-4.9-22.5-2.5-7.9-2.1-15.2 1.7-22.7 3.7-6.9 3.7-6.9 6-10q1 0 2 0 .4-.8.8-1.7c1.4-2.7 3.2-4.9 5.2-7.3q.8-1.4 1.7-2.8c3.1-2.9 5.1-2.7 9.2-2.7z" fill="#002a59"/><path d="M464.4 455.9c5.3 3.1 8.9 7.2 11.9 12.4 2 8 .4 14.5-3.3 21.7-3.7 5.8-8.5 8.9-15 11-6.4 1-12.5.7-18.2-2.6-5-3.9-8.5-9.2-9.8-15.4-.6-6-.3-11.7 3-17 8.2-9.1 19.2-14.7 31.4-10.1z" fill="#01295a"/><path d="m602.6 455.1c6.5 3.6 11 7.4 13.8 14.5 1.6 6.6 0 12.8-3.2 18.7-1.8 2.6-3.8 4.6-6.2 6.7q-1.3 1.1-2.6 2.3c-5.1 2.5-9.8 2.5-15.4 1.7-5.4-1.9-9.2-5.5-12-10.5-2.5-6.4-4.1-14.2-2.1-20.9 5.1-10.6 16.7-15.9 27.7-12.5z" fill="#02295a"/><path d="M464.6 396.8q1.2-.1 2.5-.1c4.8 0 8 .1 11.9 3.3 1.6 3.1 1.4 5.5 1 9-2.6 3.3-4 4.8-8.2 5.6q-1.8 0-3.7 0c-12.4.3-23.9 4.2-35.1 9.4q-1.3.6-2.7 1.2c-4.2 2-7.9 4.1-11.5 7-3.5 2.8-6.2 4-10.8 3.8-2.8-1.8-4.5-3-6-6-.6-4.2-.4-7 2.1-10.4 14.2-14.9 40.6-22.7 60.5-22.9z" fill="#02285b"/><path d="M596.6 399.2q2.3.8 4.6 1.7 1.3.4 2.6.9c6.8 2.5 13.4 5.5 19.9 8.8q1.4.6 2.8 1.3c14.1 7.2 14.1 7.2 17.2 13.6.4 4.2-.3 6-2.7 9.5-2.5 2.1-3.8 2-7.1 1.8-4.7-1-8.1-2.9-12.2-5.4-12.9-7.4-26.1-13.3-40.8-16.3-2.9-1.1-2.9-1.1-4.8-3.5-1.4-3.2-1.7-5.1-1.1-8.6 6.4-7.6 12.6-6.5 21.6-3.8z" fill="#03295b"/><path d="M632 652q-.7 2.9-1.4 5.8-.4 1.5-.7 3.2c-.8 2.6-1.6 4.7-2.9 7h-7c-1.6-2.5-2.1-3.6-1.5-6.5 2.8-7.1 2.8-7.1 6.5-9.1 3-.4 3-.4 7-.4z" fill="#f39d03"/><path d="M484 658h21q0 .5 0 1l-3.9.4q-2.5.3-5 .5-1.2.2-2.5.3l-2.5.3q-1.1.1-2.2.2c-2 .2-2 .2-3.9 1.3q-.5-2-1-4z" fill="#f76308"/><path d="M691 271l15 2q0 .5 0 1h-9q2.5.5 5 1-.5 1.5-1 3c-4.9-1.5-6-3-10-7z" fill="#a6d8ee"/><path d="M255 554c3 1 3 1 4 3q-1 0-2 0-.3 1-.6 2l-.8 2.8q-.4 1.3-.7 2.6c-.8 2.4-1.7 4.4-2.9 6.6-1.3-3.9-.2-6.4.9-10.2l.6-2q.8-2.4 1.5-4.8z" fill="#eba005"/><path d="M157 758q1.5 1.5 3 3-1.4 1.8-2.8 3.5-.8 1-1.6 2C154 768 154 768 151 768l6-10z" fill="#ea9c06"/><path d="M472 747l9 1 3 9-2 1-3-8-7-1q0-1 0-2z" fill="#e6a007"/><path d="M242 597c2 3 2 3 1.6 5.2q-.3.9-.6 1.8-1 0-2 0l-2 9q-1 0-2 0l5-16z" fill="#eda104"/><path d="M354 386c2 4 2.2 5.7 2 10q-2 .5-4 1l2-11z" fill="#112f52"/><path d="M526 529c0 3 0 3-1.5 4.7q-.7.6-1.5 1.3-2-1.5-4-3l7-3z" fill="#102859"/></svg>