<svg xmlns="http://www.w3.org/2000/svg" width="1024" height="1024" xmlns:v="https://vecta.io/nano"><g fill-rule="evenodd"><path d="M428.8 100.6q5 0 9.9 0c18.6 0 36.9 1.7 55 6q1.6.4 3.3.8c22.1 5.5 44.9 12.8 64.2 25.3 3.4 2.1 6.5 3.4 10.4 4.5 28.8 9 55.6 23.9 77.4 44.8q1.3 1.3 2.7 2.5c15.3 14.7 29.1 36.7 30.5 58.4.7 35-8.1 61.3-32.8 87-7.8 8-16.1 14.8-25.4 21.1 1.5 4.5 4 8.2 6.7 12.1l1.5 2.1c8.4 12 17.1 23.7 26 35.2l27.9 36.8q3 3.9 5.9 7.7c26.2 34.7 50.4 71.3 70.7 109.7q1.8 3.3 3.6 6.6c23.8 42.8 36.9 90.8 37 139.8q0 1.2 0 2.5c0 18.6-2.1 36.4-6.3 54.5 16.2-10.8 27.3-23.6 37-40.3 7.2-12.2 7.2-12.2 12-14.7 4.8-.9 9-1.1 13.4 1.3 6.1 4.9 8.9 11.2 10.6 18.7 1.4 26.3-6.2 53.4-23.7 73.5q-1.2 1.2-2.3 2.5-1 1.2-2.1 2.4c-20.1 21.6-52.6 30.2-81.1 31.9-10.1.7-16.6 2-25.2 7.5-15.5 9.8-36 13.2-53.9 15.9-1 .2-1 .2-2.2.4-14.9 2.1-30 2.1-45 2.1h-2.8c-56-.1-56-.1-71.3-13.6-4.1-4.8-6.8-10.3-6.4-16.6q-1 0-2 0c-4.8.1-9.3 0-14-1q-.3 1-.6 2c-5.6 12.1-15.3 18.4-27.4 23-21 7.1-43.8 7.3-65.8 7.4q-1.3 0-2.6 0c-20 .1-43.4-1.8-58.7-16.4-3-3.4-5.7-6.9-7.9-11q-.6.7-1.3 1.4c-10.7 11.4-25.6 13.5-40.6 14.7-1.6.1-1.6.1-3.2.3-10.9.8-21.9.9-32.9.9q-5.1 0-10.1.1c-22.1 0-45.7-1.2-62.7-17.1-6.4-6.8-7.8-13.7-7.5-22.9 1.7-17 11.1-30.1 23.4-41.3 13.8-11 30.7-14.6 47.9-15.1q.4-1 .8-2.1 1.3-3.1 2.7-6.2c3.9-8.5 6.5-17 8.4-26.1q.4-1.8.8-3.6c2.7-12.7 5-25.5 7.2-38.4q.3-1.8.6-3.7c4.2-24.4 7.9-48.9 11.5-73.3q1.5-9.9 3-19.8l14-99.8q-.9-.1-1.8-.2c-23.1-2.3-46.1-14.4-63.2-29.8l-1.7-1.5c-13.1-12-22.2-25.8-28.3-42.5-.7-1.7-.7-1.7-1.3-3.5-5.4-17.1-5.1-39.8.5-56.7 1-3.5 1-3.5-.2-6.8-2.2-1.7-2.2-1.7-4.9-3.2-21.3-13-37-31.2-43.7-55.4-1.6-6.4-1.9-12.5-1.8-19.1q0-1.7 0-3.4c.6-31 17.2-57.5 39.1-78.5 12.6-11.8 26.7-21.2 41.6-29.9q2.3-1.3 4.5-2.6c1.1-.7 1.1-.7 2.3-1.3 3.4-2.1 6.8-4.1 9.9-6.6 22.4-17.6 52.1-27 79.4-33.3q1.5-.4 3-.7c19.3-4.2 38.8-5.5 58.4-5.4zm3.5 575.1q-.4 1.2-.8 2.4c-.5 1.3-.5 1.3-.9 2.6l-1 3-9.3 27.4-7.8 23.1q-.5 1.3-.9 2.6-2.2 6.1-4.4 12.3c-3.1 8.5-6 17.1-8.2 25.9 9.3-4.8 18.5-8.1 28.7-10.2 2.8-.5 5.5-1.1 8.3-1.8 3.4-3.4 3.4-3.4 8.4-27.4q.2-1.3.5-2.5c3.3-16 6.4-32 9.1-48.1q-2.5-1.7-5.1-3.5-1.1-.7-2.1-1.4c-4.1-2.8-8-5.5-12.8-7.1-1 1-1 1-1.7 2.7z" fill="#fca400"/><path d="M428.8 100.6q5 0 9.9 0c18.6 0 36.9 1.7 55 6q1.6.4 3.3.8c22.1 5.5 44.9 12.8 64.2 25.3 3.4 2.1 6.5 3.4 10.4 4.5 28.8 9 55.6 23.9 77.4 44.8q1.3 1.3 2.7 2.5c15.3 14.7 29.1 36.7 30.5 58.4.7 35-8.1 61.3-32.8 87-7.8 8-16.1 14.8-25.4 21.1 1.5 4.5 4 8.2 6.7 12.1l1.5 2.1c8.4 12 17.1 23.7 26 35.2l27.9 36.8q3 3.9 5.9 7.7c26.2 34.7 50.4 71.3 70.7 109.7q1.8 3.3 3.6 6.6c23.8 42.8 36.9 90.8 37 139.8q0 1.2 0 2.5c0 18.6-2.1 36.4-6.3 54.5 16.2-10.8 27.3-23.6 37-40.3 7.2-12.2 7.2-12.2 12-14.7 4.8-.9 9-1.1 13.4 1.3 6.1 4.9 8.9 11.2 10.6 18.7 1.4 26.3-6.2 53.4-23.7 73.5q-1.2 1.2-2.3 2.5-1 1.2-2.1 2.4c-20.1 21.6-52.6 30.2-81.1 31.9-10.1.7-16.6 2-25.2 7.5-15.5 9.8-36 13.2-53.9 15.9-1 .2-1 .2-2.2.4-14.9 2.1-30 2.1-45 2.1h-2.8c-56-.1-56-.1-71.3-13.6-4.1-4.8-6.8-10.3-6.4-16.6q-1 0-2 0c-4.8.1-9.3 0-14-1q-.3 1-.6 2c-5.6 12.1-15.3 18.4-27.4 23-21 7.1-43.8 7.3-65.8 7.4q-1.3 0-2.6 0c-20 .1-43.4-1.8-58.7-16.4-3-3.4-5.7-6.9-7.9-11q-.6.7-1.3 1.4c-10.7 11.4-25.6 13.5-40.6 14.7-1.6.1-1.6.1-3.2.3-10.9.8-21.9.9-32.9.9q-5.1 0-10.1.1c-22.1 0-45.7-1.2-62.7-17.1-6.4-6.8-7.8-13.7-7.5-22.9 1.7-17 11.1-30.1 23.4-41.3 13.8-11 30.7-14.6 47.9-15.1q.4-1 .8-2.1 1.3-3.1 2.7-6.2c3.9-8.5 6.5-17 8.4-26.1q.4-1.8.8-3.6c2.7-12.7 5-25.5 7.2-38.4q.3-1.8.6-3.7c4.2-24.4 7.9-48.9 11.5-73.3q1.5-9.9 3-19.8l14-99.8q-.9-.1-1.8-.2c-23.1-2.3-46.1-14.4-63.2-29.8l-1.7-1.5c-13.1-12-22.2-25.8-28.3-42.5-.7-1.7-.7-1.7-1.3-3.5-5.4-17.1-5.1-39.8.5-56.7 1-3.5 1-3.5-.2-6.8-2.2-1.7-2.2-1.7-4.9-3.2-21.3-13-37-31.2-43.7-55.4-1.6-6.4-1.9-12.5-1.8-19.1q0-1.7 0-3.4c.6-31 17.2-57.5 39.1-78.5 12.6-11.8 26.7-21.2 41.6-29.9q2.3-1.3 4.5-2.6c1.1-.7 1.1-.7 2.3-1.3 3.4-2.1 6.8-4.1 9.9-6.6 22.4-17.6 52.1-27 79.4-33.3q1.5-.4 3-.7c19.3-4.2 38.8-5.5 58.4-5.4zm-58.7 24.1q-1.6.4-3.3.8c-34.1 8.4-71.7 22-90.8 53.5-22.9 38.3-18.2 85.6-9.5 127.7 1.1 6.9.4 12.7-1.4 19.4q-.3 1.1-.6 2.3-.9 3.5-1.9 7-.6 2.4-1.2 4.8-.3 1.1-.6 2.3-1.4 5.2-2.8 10.5-.4 1.3-.7 2.6c-5.2 20.3-1.9 43.1 8.6 61 15.5 25.4 41.6 40.2 70 47 31.3 7.1 69.1 9.5 100.4 1.3 4.1-1 6.7-1 10.7.1 2.9 2.4 3 3.8 3.4 7.6-.4 3.4-.4 3.4-1.5 5-2.8 2-5.6 2.6-8.9 3.5q-1 .2-2 .5c-14.2 3.5-28 4.6-42.6 4.6q-1 0-2 0c-13.2 0-26.3-.9-39.4-2.2q-.1 1.3-.3 2.6c-2.5 24.1-5.6 48.1-9.2 72.1q-.8 5.3-1.6 10.7C319.3 729.3 319.3 729.3 306 757q-.5 1-.9 1.9c-2.8 5.3-6.1 8.4-11.3 11.3-4.4 1.2-8.9 1.6-13.4 2.1-15.6 2-27.5 7.2-37.8 19.4-5.2 7.5-8.7 16.2-7.6 25.3 2.2 4.4 4.9 7.4 9 10q3.5.6 7 1 .1-1.3.3-2.6c1.3-11.1 3.2-23.4 11.7-31.4 2.8-1.4 4.9-1.3 8-1 2 1.5 2.9 2.5 3.4 4.9 0 5.4-1 9-3.4 13.8-2.7 6.1-3.3 12.7-3 19.3 2.9.8 5.5 1.1 8.5 1.1q1.3 0 2.6 0 1.3 0 2.6 0 1.4 0 2.7-.1 3.3 0 6.6 0 .1-1.5.3-3.1c1.2-11.3 3.4-21.3 9.7-30.9 3.5-2.3 4.9-2.5 9-2 2.4 1.6 2.4 1.6 4 4 .4 4.7-.5 7.9-2.4 12.1-2.4 5.4-3.7 9.3-3.7 15.1q.1 1.4.1 2.8 0 1 0 2c8.9.4 17.5-.3 26.3-1.4q1.5-.2 3.1-.4c12.8-1 12.8-1 22.6-8.2 4.3-6.5 7.6-13.2 10.4-20.4q.7-1.6 1.3-3.3c11.8-30.4 21.8-61.6 32.2-92.5q.6-1.8 1.3-3.6 1.2-3.5 2.3-7 2.9-8.5 5.9-16.9.6-1.6 1.2-3.2 1.1-3 2.2-6 .5-1.3 1-2.7l.8-2.3c.5-2.7-.1-3.8-1.6-6.1q-2-2.2-4.2-4.3-1.2-1.2-2.5-2.5-1.4-1.2-2.7-2.6c-7.9-7.7-15.2-15.5-21.6-24.6-.7-.9-.7-.9-1.3-1.9q-2-2.8-3.9-5.6-.6-.8-1.2-1.7c-2.4-3.7-3.1-6.4-2.6-10.8.9-2.4.9-2.4 3-4 3.3-1 5.7-1 9 0 3.3 2.9 5.6 6.4 8 10 6.6 9.5 14 17.7 22 26q1.2 1.3 2.5 2.6c7.8 8 16.5 14.8 25.5 21.4q1 .7 2 1.5c2.6 1.9 4.9 3.5 8 4.5 3.2-12.6 5.3-25.5 7.5-38.4q2-11.4 4-22.8.7-3.8 1.3-7.6.3-2 .7-4 .2-1.6.5-3.3c1.3-3.7 3-5.5 6-7.9 4-.8 5.5-.3 8.9 1.9 5.1 7.6-.7 23.9-2.3 32.7q-.6 3-1.1 5.9-.8 4.7-1.7 9.4-2.2 12.2-4.3 24.4L463 729q-.4 2-.8 4-1.1 5.3-2.2 10.5-.6 2.9-1.2 5.8c-2.1 9.5-5.1 22.1-13.6 27.9-4.4 2.2-9.1 3.2-14 4.2-14 3.3-24.5 8-32.5 20.4-4.4 7.8-7.1 16.2-5.7 25.2 2.2 4.4 4.8 7.4 9 10q3.5.6 7 1l.4-3c1.6-10.5 4.1-21.8 12.1-29.4 3.1-2 4.9-2.2 8.5-1.6 2.6 1.6 2.9 2.8 3.7 5.7.4 4-.6 5.7-2.5 9.2-3.7 7.4-4.6 14-5.2 22.1 3.4.8 6.4 1.1 9.9 1.1q1.3 0 2.6 0 1.4 0 2.8 0 1.4 0 2.8-.1 3.5 0 6.9 0 .2-1.8.5-3.7c1.3-9.8 2.9-18.5 7.5-27.3q.5-1 1-2c1.7-3.3 2.9-4 6.5-5.1 3.5.1 3.5.1 5.9 1.2 2.3 2.7 2.6 4.3 2.6 7.9-.8 2.2-1.9 4.2-2.9 6.3-2.8 6.7-4.4 14.4-4.1 21.7 26.9-.8 26.9-.8 50-13 1.4-2.2 2.6-4.3 3.7-6.7.5-1 .5-1 1-2.1 14.6-30.8 23.7-63.7 33.3-96.3 38.7-131.6 38.7-131.6 60-143.9 3.5-.5 3.5-.5 7 0 2.5 2.1 2.5 2.1 4 5-.2 6-3.2 11-5.8 16.3q-.7 1.5-1.5 3.1-3.1 6.3-6.2 12.6c-26.3 53.2-42.8 110.2-59.3 167-2.3 7.8-4.6 15.5-7.5 23-.9 2.1-.9 2.1-.7 5l9 1q.5-1.8 1.1-3.6c5.2-15.6 13.6-29.4 28.1-37.5 10.8-5.2 23-6.7 34.8-7.9-1.4-3.7-3.1-6.8-5.3-10.1-13.2-20.6-18.1-46.3-14.1-70.4 6.6-27.2 26.3-52.1 50-66.5 11.2-6.5 25.1-13.2 38.4-11 2.7 1.4 2.7 1.4 4 4 .1 3.1 0 6-1 9-2.7 1.8-4 2.4-7 3-15.6 3.7-27.9 9-40 20q-1 .9-2.1 1.8c-16.3 15.3-26.4 35.3-27.3 57.7.4 11.7 3.2 23 8.4 33.5.7 1.5.7 1.5 1.5 2.9 3.1 6 6.9 11 11.4 15.9q.7.8 1.4 1.6c7.6 8 14.5 12.5 25.4 14.8q1.6.4 3.2.8 6.8 1.6 13.7 2.9a59.31 59.31 0 0 1 3.7.7q1.6.2 3.2.5c2.5.9 2.5.9 4.4 3.3 1.4 3.4 1.2 5.1.1 8.6-1.6 2.1-2.5 2.9-5.1 3.4-9.1 0-17.7-1.9-26.5-3.8q-2.4-.5-4.7-.9l-17.8-3.9c-15.6-3.1-33.6 1.4-47.2 9-8.4 6.8-15.8 15.1-17.7 26.2q-.3 3.7-.4 7.4 0 2-.1 4c.6 4.5 2 5.8 5.5 8.6 3.8 2 6.8 2.1 11 2q0-1.3 0-2.6c.5-11.8 3.1-23.2 11-32.4 2.8-1.4 4.9-1.2 8-1 2.4 1.1 2.4 1.1 4 3 1.1 5.8-1.1 9.7-3.8 14.7-2.1 4-2.3 7.4-2.3 11.9v2.8c0 2.7 0 2.7 1.1 5.6 5.2 1.1 10.3 1.2 15.6 1.2q1.4 0 2.9 0c43.3.3 90.2-.9 124.5-31.2q1-.8 2-1.6c11.3-10.3 19.4-25 24-39.4q.4-1.1.8-2.3c2-6.2 3.7-12.4 5.2-18.7.3-1.3.3-1.3.7-2.7 6.8-29.5 5.8-63.8-.7-93.3l-.6-2.8c-2.7-13.1-6.6-25.7-11.4-38.2q-.4-1.2-.9-2.4c-14.4-38.2-35-75.3-58.7-108.6q-2.3-3.3-4.7-6.8c-7.5-10.7-15.1-21.3-23-31.8q-2.6-3.6-5.2-7.2l-21.3-28.1-10.9-14.4q-2.3-3.1-4.7-6.2c-6.5-8.6-12.9-17.2-19.1-26.1q-.9-1.2-1.8-2.5c-2.4-3.4-4.7-6.7-6.5-10.5-1.5-3.2-2.5-5.2-5.2-7.4-3.8-1.1-7.8-1.2-11.7-1.4-8-.4-15.2-2.4-21-8.3-1.2-1.5-1.2-1.5-3.3-1.3q-.4-.9-.8-1.7c-1.3-2.4-2.7-4.4-4.3-6.6-20.7-29.4-28.9-69-36.8-103.6q-.4-1.5-.7-3c-8.1-34.9-8.1-34.9-7.8-49.1q0-1.2.1-2.4c.3-12.6 4.6-25.1 13.5-34.3 2-1.8 3.5-3.1 5.8-4.3q0-1 0-2c-22.4-9.6-44.9-16.2-69-20q-1.6-.3-3.3-.5c-11.2-1.7-22.3-1.8-33.6-1.8q-4.7 0-9.4-.1c-18.5 0-36.7 1.7-54.6 6.1zm62.2 551q-.4 1.2-.8 2.4c-.5 1.3-.5 1.3-.9 2.6l-1 3-9.3 27.4-7.8 23.1q-.5 1.3-.9 2.6-2.2 6.1-4.4 12.3c-3.1 8.5-6 17.1-8.2 25.9 9.3-4.8 18.5-8.1 28.7-10.2 2.8-.5 5.5-1.1 8.3-1.8 3.4-3.4 3.4-3.4 8.4-27.4q.2-1.3.5-2.5c3.3-16 6.4-32 9.1-48.1q-2.5-1.7-5.1-3.5-1.1-.7-2.1-1.4c-4.1-2.8-8-5.5-12.8-7.1-1 1-1 1-1.7 2.7z" fill="#02205d"/></g><path d="M387.6 332.9c5.7 4.8 10.8 10 11.7 17.7 0 9.8-2 16-8.7 23.2-8.5 7.2-16.4 9.2-27.6 10.2l1 24 7.1-.3c22.6-.4 48.1 7.3 65.3 22.4 2.9 3.1 4.5 5.5 5.8 9.5-.2 3.4-.2 3.4-2.2 6.8-3 2.6-3 2.6-6.4 3-4.3-.5-5.7-1.6-8.9-4.6-5.2-4.6-10.2-7.4-16.7-9.8q-1.3-.5-2.7-1c-24.3-8.5-51.8-10.7-75.7-.3-2.2 1.1-4.3 2.3-6.4 3.6-3.8 2-6 2.4-10.2 1.7-3.2-2.7-3.9-4.4-4.5-8.5.6-4.2 1.6-5.4 4.5-8.5 10.2-7.1 21.5-12 34-13q-.1-1.2-.2-2.4c-.7-7.9-.9-15.7-.8-23.6q-1.6-.1-3.3-.1c-8.5-1.1-16-6.1-21.3-12.7-4.2-6.5-6.7-13.4-5.4-21.2 2.2-7.7 6.6-13.2 13.3-17.4 17.5-9.4 41.5-10.5 58.3 1.3z" fill="#021f5e"/><path d="M466.9 248.9c6.6 4.3 10.5 11.2 12.6 18.6 2.1 11.2.4 22.2-6 31.7-3.9 4.7-8.9 8.5-15.2 9-6.4.2-11.3.2-16.3-4.2-7.5-7.3-11-14.2-11.2-24.7-.1-12.6-.1-12.6 3.2-18.3q.6-1.1 1.2-2.3c6.8-11.5 19.4-15.8 31.7-9.8z" fill="#011f5d"/><path d="M851 723q1 0 2 0c1 15.2-2.2 30.4-9 44-.7 1.4-.7 1.4-1.3 2.8-10.3 20.1-28 32.5-49 39.4-8.1 2.6-16.2 5-24.7 4.8q1.3-2 2.6-3.9.8-1.3 1.7-2.6 1.6-2.3 3.2-4.6c2.3-3.4 4.3-6.5 5.9-10.3 2.6-6.6 4.5-10.7 11.2-13.7q4.2-1.6 8.4-3.1c8.1-3.3 22-11.9 26-19.8q1 0 2 0 .4-.8.7-1.7c1.5-2.7 3.3-4.7 5.4-7 6.1-7.4 10.6-15.7 14.9-24.3z" fill="#faa601"/><path d="M326.4 252.4c4.9 2.9 8.5 8.1 10.2 13.4 1.9 9.4 2.1 22.7-2.2 31.3-3.2 4.4-7.1 8.1-12.4 9.9-12.6.9-12.6.9-18-3-7.1-6.5-10.1-14.1-10.6-23.5-.2-8.9 1.1-16.2 6.6-23.5 7.5-6.7 16.9-8.6 26.4-4.6z" fill="#011f5e"/></svg>