<svg xmlns="http://www.w3.org/2000/svg" width="1024" height="1024" xmlns:v="https://vecta.io/nano"><g fill-rule="evenodd"><path d="M823 183q1.5.7 3 1.5c44.2 22 90.6 47.1 107.4 96.6q.3 1 .7 2c3.8 12.2 5.4 24 5.3 36.7q0 3.2 0 6.4c0 21.5-4.7 43-20.1 58.9-3.5 3.5-6.2 5.9-11.3 5.9q.8 1.5 1.6 3c4.7 9.1 8.6 18.1 11.4 28q.4 1.2.7 2.5c5.3 20.8-.2 41.5-10.7 59.5-9.3 15.2-22.7 29.3-40.1 34.7-3 .5-5.9.4-8.9.3-.3 1.1-.3 1.1-.7 2.2-6 12.8-23.9 21.4-36.5 26.2-14.9 5.3-29 6.9-44.7 6.9q-1.1 0-2.2 0c-16.8 0-33.8-1.3-49.9-6.3-2.6 57.4.5 114.5 9.6 171.3l.6 3.7q.3 1.7.6 3.4.2 1.5.5 2.9c1.8 6.7 6.2 10.6 11.9 14 3.4 1.9 6.8 3.6 10.2 5.4 13.3 7.1 25.5 16.9 30.7 31.5 3.3 14.3 1.4 28.9-5.7 41.7-7.2 11-16.1 16.7-28.8 20-11.3 2.3-22.2 2.5-33.6 2.5q-3.2 0-6.3 0-8.6 0-17.1 0-9.3 0-18.5 0-17.1 0-34.1 0-15.8 0-31.5 0-1.1 0-2.2 0-4.2 0-8.5 0-39.8 0-79.6-.1-35.4 0-70.8 0-2.2 0-4.5 0-1.1 0-2.3 0-5.6 0-11.3 0-1.1 0-2.2 0-29.6 0-59.2 0-3.2 0-6.4 0-2.1 0-4.2 0-14.7 0-29.4 0-19 0-37.9 0-9.1 0-18.3 0-8.3 0-16.7 0-3 0-6 0c-21 0-40.4-.7-56.6-15.7q-1.2-1.3-2.4-2.6-.8-.8-1.6-1.5c-15.7-16.2-20.2-42.4-24.8-63.6q-.8-3.6-1.6-7.3c-4.5-20-4.1-40.9 7-58.7 4.3-6.3 9.1-12.1 14.5-17.4 8.2-7.3 8.2-7.3 12.9-16.7-.3-2.4-.3-2.4-1.4-5.8q-.3-2-.6-4l-.4-3q-1 .1-2.1.1c-21.3.8-42.3-9.8-58.1-23.4-14.3-13.4-23.2-29.8-27.8-48.7q-.3-1.1-.6-2.3c-7.4-30-6.2-64.7 8.9-92.1 6.5-10.5 15.6-20.9 27.7-24.6 4.3 0 6.2.3 9.4 3.2 1.9 3.3 1.9 5 1.6 8.8-1 2.7-1 2.7-2.3 5.5-10.5 24.4-7.5 53.6 1.9 78 2.5 6 5.5 11.3 9.4 16.5q.9 1.2 1.7 2.4c6.5 8.1 15.7 13 25.3 16.6q0-.9-.1-1.8c-.7-40.1 19.5-83.8 43.1-115.2q.7-.9 1.4-1.9a261.12 261.12 0 0 1 16.6-19.9c1.8-2 3.5-4 5.2-6 9.3-10.7 20.5-19.7 31.8-28.2q.9-.7 1.9-1.4c32-24.4 65.1-45.9 101.1-64.1q5.7-2.9 11.3-5.9 7-3.8 14.2-7.4 22.7-11.2 44.9-23.6c6.3-3.6 12.7-7 19.1-10.5l2.6-1.4q1.3-.7 2.6-1.4 3.2-1.8 6.3-3.7c3-1.6 3-1.6 5-1.6q0-1-.1-2.1c-.9-35.3 8.7-62.3 32.6-88.6 22.7-23.8 55.3-38.3 88.2-39.4q4.1 0 8.2 0 1.4 0 2.9 0c5.8 0 11.6.2 17.4 1.1 2.6 0 4.6-.3 7.1-.9 7.3-1.6 14.8-1.8 22.3-2.2l2.3-.2c47.4-2.4 94.8-.1 138.1 21.3zM616.9 649.8c-1.6.7-3.2 1.3-4.9 1.8q-1 .4-2.1.7-2.3.7-4.5 1.4-1.2.4-2.3.7-1.2.4-2.3.8-1 .3-2 .6c-3.3 2.2-3.3 2.2-5.8 10.5q-.4 1.9-.9 3.7-.5 2.1-1 4.2-1.4 6-2.9 11.9-.3 1.2-.6 2.5c-9.6 38.7-17.6 80.9-42.2 113.3q-1.2 1.6-2.4 3.1c-3.9 5.1-7.8 10.2-12.7 14.4-2.9 2.2-2.9 2.2-8.3 7.6h153c-45-80-45-80-53.6-174.7q-.2-1.7-.4-3.3c-2 0-2 0-4.1.8zm-240 44.4c-20.9 28.4-50.9 40.4-83.8 49.3q-1.1.2-2.1.5c0 2 0 2 1.7 4 10.2 10.8 19.2 22.4 24.6 36.4 3.7 11.5 4.7 23.4-.3 34.6l-5 8h94c-2-2-2-2-4.9-3.7-8.4-4.5-15.5-9.1-21.8-16.3-9.3-12.2-9.7-28.7-7.9-43.4q.3-1.8.6-3.6c2.5-15.7 6.5-30.7 11.4-45.8q.8-2.2 1.5-4.4.3-1.1.7-2.1c1.8-5.5 3.3-11 4.4-16.7-5.1-.1-9.4-.7-13.1 3.2z" fill="#f49a00"/><path d="M823 183q1.5.7 3 1.5c44.2 22 90.6 47.1 107.4 96.6q.3 1 .7 2c3.8 12.2 5.4 24 5.3 36.7q0 3.2 0 6.4c0 21.5-4.7 43-20.1 58.9-3.5 3.5-6.2 5.9-11.3 5.9q.8 1.5 1.6 3c4.7 9.1 8.6 18.1 11.4 28q.4 1.2.7 2.5c5.3 20.8-.2 41.5-10.7 59.5-9.3 15.2-22.7 29.3-40.1 34.7-3 .5-5.9.4-8.9.3-.3 1.1-.3 1.1-.7 2.2-6 12.8-23.9 21.4-36.5 26.2-14.9 5.3-29 6.9-44.7 6.9q-1.1 0-2.2 0c-16.8 0-33.8-1.3-49.9-6.3-2.6 57.4.5 114.5 9.6 171.3l.6 3.7q.3 1.7.6 3.4.2 1.5.5 2.9c1.8 6.7 6.2 10.6 11.9 14 3.4 1.9 6.8 3.6 10.2 5.4 13.3 7.1 25.5 16.9 30.7 31.5 3.3 14.3 1.4 28.9-5.7 41.7-7.2 11-16.1 16.7-28.8 20-11.3 2.3-22.2 2.5-33.6 2.5q-3.2 0-6.3 0-8.6 0-17.1 0-9.3 0-18.5 0-17.1 0-34.1 0-15.8 0-31.5 0-1.1 0-2.2 0-4.2 0-8.5 0-39.8 0-79.6-.1-35.4 0-70.8 0-2.2 0-4.5 0-1.1 0-2.3 0-5.6 0-11.3 0-1.1 0-2.2 0-29.6 0-59.2 0-3.2 0-6.4 0-2.1 0-4.2 0-14.7 0-29.4 0-19 0-37.9 0-9.1 0-18.3 0-8.3 0-16.7 0-3 0-6 0c-21 0-40.4-.7-56.6-15.7q-1.2-1.3-2.4-2.6-.8-.8-1.6-1.5c-15.7-16.2-20.2-42.4-24.8-63.6q-.8-3.6-1.6-7.3c-4.5-20-4.1-40.9 7-58.7 4.3-6.3 9.1-12.1 14.5-17.4 8.2-7.3 8.2-7.3 12.9-16.7-.3-2.4-.3-2.4-1.4-5.8q-.3-2-.6-4l-.4-3q-1 .1-2.1.1c-21.3.8-42.3-9.8-58.1-23.4-14.3-13.4-23.2-29.8-27.8-48.7q-.3-1.1-.6-2.3c-7.4-30-6.2-64.7 8.9-92.1 6.5-10.5 15.6-20.9 27.7-24.6 4.3 0 6.2.3 9.4 3.2 1.9 3.3 1.9 5 1.6 8.8-1 2.7-1 2.7-2.3 5.5-10.5 24.4-7.5 53.6 1.9 78 2.5 6 5.5 11.3 9.4 16.5q.9 1.2 1.7 2.4c6.5 8.1 15.7 13 25.3 16.6q0-.9-.1-1.8c-.7-40.1 19.5-83.8 43.1-115.2q.7-.9 1.4-1.9a261.12 261.12 0 0 1 16.6-19.9c1.8-2 3.5-4 5.2-6 9.3-10.7 20.5-19.7 31.8-28.2q.9-.7 1.9-1.4c32-24.4 65.1-45.9 101.1-64.1q5.7-2.9 11.3-5.9 7-3.8 14.2-7.4 22.7-11.2 44.9-23.6c6.3-3.6 12.7-7 19.1-10.5l2.6-1.4q1.3-.7 2.6-1.4 3.2-1.8 6.3-3.7c3-1.6 3-1.6 5-1.6q0-1-.1-2.1c-.9-35.3 8.7-62.3 32.6-88.6 22.7-23.8 55.3-38.3 88.2-39.4q4.1 0 8.2 0 1.4 0 2.9 0c5.8 0 11.6.2 17.4 1.1 2.6 0 4.6-.3 7.1-.9 7.3-1.6 14.8-1.8 22.3-2.2l2.3-.2c47.4-2.4 94.8-.1 138.1 21.3zm-155-3l1.2 2.2c5.6 10 9.8 19.1 8.8 30.8q-.1 1.5-.2 3.1c-2.2 22.7-9.1 44.5-16.2 66l-1 2.8c-28.3 84.4-28.3 84.4-65.6 103.1-13.9 6.5-28.7 8.9-43.6 3.9-14.1-5.9-23.9-15.7-31.4-28.9-.5-.9-.5-.9-1-1.7-8-14.2-12.8-30.1-15-46.3-4.1 1.3-7.8 2.8-11.6 4.8q-1.5.8-3.1 1.6l-3.3 1.7-3.4 1.8c-5.7 3-11.4 6-16.9 9.3-6.2 3.6-12.6 6.8-19 10q-9.6 4.7-19.1 9.8-6.9 3.7-14 7.2c-14.3 7.4-28.2 15-42 23.3q-3.4 2-6.9 4c-8.4 4.9-16.5 10.3-24.5 16q-3.5 2.4-7.1 4.9c-13.8 9.5-27.7 19.2-40 30.6-1.9 1.8-3.9 3.5-5.9 5.2-10.9 9.6-20.5 20.1-29.2 31.8q-.6.8-1.3 1.7c-14.6 19.5-25.3 40.6-33.1 63.6q-.6 1.9-1.2 3.8c-11.4 34.7-11.8 72.2-1.2 107.1 1.8 6.5 1 11.9-1.6 18.1-3.8 6.4-9.4 11.7-14.8 16.7-11.1 10.5-18.6 23.8-19.4 39.2-.4 20.4 4.7 41.7 11.6 60.8q.6 1.7 1.1 3.4c4.4 12.4 11.5 24.5 23.4 30.9 5.4 2.4 10.6 3.3 16.5 3.7 2.4-10.1 1.9-20.1-2.1-29.6-1.4-3.7-1.5-6.4-.9-10.4 1.6-2.1 1.6-2.1 4-3a42.24 42.24 0 0 1 10 2c.9 2.1.9 2.1 2 5q1 1.8 2 3.7c5.1 10.2 5 22.2 3 33.3q2.8-.2 5.7-.4 1.6-.2 3.2-.3c2.8-.3 5.4-.7 8.1-1.3 1.4-4.1 1.2-7.9 1.3-12.2q0-1.2 0-2.5c0-5.1-.7-8.9-2.6-13.5-1-2.5-1-4.7-.9-7.3.1-1.3.1-1.3.1-2.6q0-.9.1-1.9c3.6-1.2 6.2-1.4 10-1 5.8 4.2 8.5 11.2 10 18q.2 2.2.3 4.3.1 1.2.1 2.4.1 1.3.2 2.5 0 1.3.1 2.6.2 3.1.3 6.2c4.9-2.8 7.8-5.5 10.3-10.7 2.5-11.1-.6-20.9-6.2-30.7-5.3-7.9-11.4-14.8-18.1-21.6l-2.6-2.8c-4.2-4.3-4.2-4.3-9.6-6.6-2 0-3.9.2-5.8.4-3.6-1.6-4.8-2.7-7-6-.6-3.7-.4-5.4 1.7-8.6 4.4-4.1 11.1-3.8 16.9-4.4 31.6-3.8 60.7-12.9 83.4-36l2.5-2.5c18.6-19.6 26.1-44.2 25.8-70.9-.3-7.3-1.8-13.7-4.3-20.6q-.5-1.6-1.1-3.2c-8.1-21.4-24.7-35.3-43.5-47-2.5-1.9-3.5-2.9-4.4-5.8.2-3.6.2-3.6 1-7 3.1-2.1 5-2.6 8.7-2.5 16.2 3.4 34.7 24.2 43.7 37.4 14.4 22.1 20.4 48.8 15.4 74.9-1.6 7-3.7 13.9-5.8 20.8-1.1 3.1-1.1 3.1-1 5.4 6-.3 11.9-.8 17.9-1.6 21.3-2.8 42.7-4.1 64.1-5.4.8-6.4 1.2-12.7 1.5-19.1q.1-2.9.2-5.8.2-4.5.3-9c1.3-33 1.3-33 4.9-47.4q.3-1 .5-2.1c1-4 2.2-7.3 4.6-10.6 3.1-1.6 5.5-1.4 9-1 3 2 3 2 5 5 .1 5.8-1.9 11.2-3.5 16.8-1.9 7.2-2.6 14.5-3.3 22q-.3 3.5-.7 7.1c-.6 5.3-.8 10.6-1 16-.1 1.6-.1 1.6-.1 3.3q-.4 10.9-.6 21.9c-.3 18.4-.8 36.7-2.2 55q-.1 1.1-.1 2.3a383.19 383.19 0 0 1-3 26q-.2 1.2-.3 2.4c-1.2 7.5-1.2 7.5-3.2 10.2-2.5 1.1-4.9 1.9-7.4 2.7-7.6 2.7-13.5 6.1-19.6 11.3-1 .9-1 .9-2.1 1.7-5.9 5.4-9.4 12.6-10.1 20.6-.1 6.5.3 13 4.5 18.4 1.5 1.5 1.5 1.5 3.7 3.3q1.3-1.3 2.7-2.6c7.4-6.4 17.1-9.5 26.3-12.6 2-.6 2-.6 3-1.8 3.5-.4 5.4-.4 8.4 1.5 1.8 2.8 2.1 5.1 2.2 8.4-1 3.4-2.9 4.9-5.6 7.1-2.5 1.2-4.9 2.2-7.6 3.1-4.6 1.6-8.2 3.1-11.4 6.9 19 .8 31.7-3.1 46.1-16.3 34.8-32.7 44-77 55.6-121.6q5.8-22.2 12-44.4.4-1.4.7-2.8 1.1-3.8 2.2-7.6.3-1.1.6-2.2c1.3-4.8 2.9-9.5 4.8-14.1 3.2-1.6 6.5-1.4 10-1 2.2 1.5 2.8 2.6 4 5 .3 5.6-.6 10.6-2 16 37.4-14 70-40.1 87.2-76.7 4.4-10 7.1-20.8 9.3-31.4.7-2.7 1.3-4.2 3.5-5.9 6.7-.6 11.8 1 18 3.2 8.1 2.7 16.3 4.9 24.7 6.7l2.9.6c26.6 5.3 59.7 4.9 83.4-9.5 7.9-4.8 7.9-4.8 13-12q-2.4-1.5-4.8-3-1.3-.8-2.6-1.7c-2.7-1.6-2.7-1.6-6.6-1.3-2 1.1-2 1.1-3.9 2.7-11.5 8-24.3 10.4-37.9 10.6q-1.2 0-2.5.1c-12 0-22.2-3.6-32.8-9.3-7-3.6-13.9-7-21.3-10-4.1-1.8-7.8-4.1-11.6-6.5-6.6-3.5-13-3.9-20.2-4-14.6-.6-29.2-3.6-40.3-13.9-5.4-6-9.4-12.5-9.8-20.8.3-4 .9-5.8 3.3-8.9 2.7-1.4 5-1.1 8-1q1.5.5 3 1c.8 2 .8 2 1.4 4.6 2.3 8.3 6 14.1 13.6 18.4 6 2.9 12.1 3.1 18.7 3.2 14.5.4 25 2.9 37.3 10.8 19.7 12.1 41.9 23.4 65.5 18.9 9.4-2.3 18.3-7.5 23.5-15.9 7-12.9 7-12.9 10-27q-1.4-.6-2.7-1.2c-14-6.4-21.4-14.7-27.3-28.8-2-6-2.2-13.5-.2-19.5 2.9-5.2 6.7-7.5 12.2-9.5 1.5-.6 1.5-.6 3.1-1.3 15.4-2.9 35.3-.4 48.9 7.3 5 4.1 9.5 9.6 10.2 16.2.3 10.3-1.9 20.2-8.6 28.2-5.1 5.3-10.5 9.2-18.1 10-3.6 1.2-3.6 1.2-4.7 3.8-1.1 3-2 6-2.8 9.1q-.5 1.6-.9 3.2c-2 6.7-2 6.7-1.1 13.5 5.5 6 14 10.1 22.1 10.5 6.6.1 11.8-4 16.3-8.4q.7-.7 1.5-1.5.7-.7 1.5-1.5c13.9-14.5 21.1-32.5 21.2-52.5-.4-16.1-9.3-29.2-17.5-42.6-5.9-10.7-3-24.6-1.8-36.4 2.3-23.5 4.4-48.8-3.3-71.6q-.5-1.6-1-3.2c-4.7-14.2-11.8-27.1-21-38.8q-1.3-1.7-2.6-3.4C845 223 828.7 209.1 809 199c-1-.5-1-.5-2.1-1.1-29.1-15.2-60.5-20.1-93-20.1h-2.4c-14.6 0-29 .8-43.5 2.2zm-51.1 469.8c-1.6.7-3.2 1.3-4.9 1.8q-1 .4-2.1.7-2.3.7-4.5 1.4-1.2.4-2.3.7-1.2.4-2.3.8-1 .3-2 .6c-3.3 2.2-3.3 2.2-5.8 10.5q-.4 1.9-.9 3.7-.5 2.1-1 4.2-1.4 6-2.9 11.9-.3 1.2-.6 2.5c-9.6 38.7-17.6 80.9-42.2 113.3q-1.2 1.6-2.4 3.1c-3.9 5.1-7.8 10.2-12.8 14.4-2.8 2.2-2.8 2.2-8.2 7.6h153c-45-80-45-80-53.6-174.7q-.2-1.7-.4-3.3c-2 0-2 0-4.1.8zm-240 44.4c-20.9 28.4-50.9 40.4-83.8 49.3q-1.1.2-2.1.5c0 2 0 2 1.7 4 10.2 10.8 19.2 22.4 24.6 36.4 3.7 11.5 4.7 23.4-.3 34.6l-5 8h94c-2-2-2-2-4.9-3.7-8.4-4.5-15.5-9.1-21.8-16.3-9.3-12.2-9.7-28.7-7.9-43.4q.3-1.8.6-3.6c2.5-15.7 6.5-30.7 11.4-45.8q.8-2.2 1.5-4.4.3-1.1.7-2.1c1.8-5.5 3.3-11 4.4-16.7-5.1-.1-9.4-.7-13.1 3.2z" fill="#01284d"/></g><path d="M708 561q.5 0 1 0 0 1.7 0 3.6c-.5 39.7.8 79.2 6.5 118.6l1.4 12.4c1.4 13.3 3 26.5 6 39.7q.4 1.5.7 3c1.9 7.4 4.2 11.4 10.6 15.9q1.8 1.1 3.6 2.1.9.6 1.9 1.2 5.3 3 10.8 5.9 1.1.5 2.3 1.1 2.1 1.2 4.3 2.2c9 4.6 14.2 9.9 17.9 19.3.8 3.1.8 3.1 1 6q.2 1.8.3 3.6c-.1 6.7-1.9 14.8-6.4 19.8-1 .8-1 .8-1.9 1.6q.1-1.8.1-3.6c.5-14.1.5-14.1-6.3-26-3.9-2-6.4-1.8-10.8-1.4-2.6 2.6-2.2 4.3-2.3 7.8.2 2.3.2 2.3 1.3 4.6 3.4 8.9.3 18.2-3 26.6q-3 0-6 0 .1-1.7.1-3.6c.4-12.9-.8-23.5-10.1-33.4-2.6-2.2-3.6-2.9-7-3.4-3.4.5-4.8.8-7 3.4-1.3 6.2 1.4 10.2 4.6 15.4 3.9 7.1 2.5 14.2.4 21.6-14.7 1.2-27.4-4.4-38.6-13.6-22.2-20.7-26.7-54.4-32.1-82.7q-.8-4-1.6-8c-9-46-9-46-10.5-64.6-.2-2.1-.5-4.2-.8-6.3-.3-4-.5-6.9.6-10.8 3.9-3.7 8.3-5.7 13-8 6.8-4.7 13-10.3 19-16q.8-.7 1.5-1.4C688 599 701 581.3 708 561z" fill="#f39a00"/><path d="M473 683c.1 10.1-.1 20.1-.7 30.2q-.2 3.1-.4 6.2-.4 5.8-.9 11.6c-.1 1.7-.1 1.7-.3 3.5-.8 7.6-.8 7.6-3.2 10-1.9 1.1-3.8 1.8-5.9 2.6-8.5 3.5-14.2 8.3-20.6 14.9q-1 1-2 2c-7.7 7.9-14.3 20.6-14.2 31.7.1 5.9 1.1 11.6 2.2 17.3-12.1-.6-23.7-5.7-32.3-14.3-9.3-14.7-8.3-33.2-4.7-49.7q.3-1.2.5-2.4c9.4-43.5 9.4-43.5 16.5-57.6 8.8-2.3 18.3-2.7 27.3-3.6q2-.2 3.9-.3c11.6-1.1 23.2-2.2 34.8-2.1z" fill="#e18405"/><path d="M85 589c4.3 3.1 4.9 6.8 5.8 11.8 3.9 18.5 13.9 38.7 29.7 50 2.4 1.5 4.9 2.9 7.5 4.2q2.5 1.4 5 2.7 1.1.6 2.2 1.2c1.8 1.1 1.8 1.1 3.8 3.1.7 6.9.7 6.9-1.9 10.9-2.5 2.5-3.4 3-6.9 3.3-13.2-.9-26.2-15.2-34.7-24.5-11.9-13.8-23.2-34.3-23.9-52.8.4-3.9.9-5.9 3.4-8.9 3.1-1.6 6.6-1.7 10-1z" fill="#022749"/><path d="M742.3 310.8c6.6 3.6 10.4 10.2 12.7 17.2 1.2 16.5 1.2 16.5-4 23-5.4 6.1-12 8.9-20.1 9.5-5.7-.7-9.8-2.8-13.4-7.4-5.2-8-6.4-14.7-5.5-24.1 1.6-7.1 5.1-12.7 11-17 6-2.9 13-3.3 19.3-1.2z" fill="#02284e"/><path d="M855 321c5.9 2.6 10.2 6.4 13.1 12.2 2 6.3 2.2 15.6-.3 21.9-2.5 4.1-4.8 7.7-9.1 10.3-5.7 1.3-9.8 1.4-14.9-1.4-5.2-3.6-8.6-8.8-9.8-15-.8-8.7.2-16.2 5.7-23.2 4.7-4.6 8.8-6.4 15.3-4.8z" fill="#02274f"/><path d="M131.1 826.5q1.6 0 3.2 0h3.3 3.4q3.6 0 7.2 0 5.6.1 11.1 0 3.5.1 7 .1 1.6 0 3.3 0 1.5 0 3.1 0 1.4 0 2.8 0c3.3.5 6.1 2 8.5 4.4.6 7.2.6 7.2-1.8 10.4-3.3 2.4-6 2.7-10 2.8q-1.4 0-2.9 0h-3.1q-1.6 0-3.3 0-3.4 0-6.8 0-5.2.1-10.4.1-3.3 0-6.6 0-1.5 0-3.1.1c-9-.1-9-.1-13-3.4-1.9-2.5-2-3.8-1.9-7 1.6-5.5 4.5-7.5 10-7.5z" fill="#012649"/><path d="M128.8 772.3c4.1.9 6 2.8 9 5.6 5.1 4.8 10.6 9.2 16.6 12.9 2.9 1.8 5.5 3.3 7.6 6.2.6 2.9.6 2.9 0 6-2.5 3.4-4.1 4.8-8.3 5.8-8.3.4-15.7-5.7-21.7-11-10.4-9.5-10.4-9.5-11.6-13.9 0-3.9.4-5.6 2.7-8.9 2.9-2 2.9-2 5.7-2.7z" fill="#022749"/></svg>