<svg xmlns="http://www.w3.org/2000/svg" width="1024" height="1024" xmlns:v="https://vecta.io/nano"><path fill-rule="evenodd" d="M768 217q1.1 1 2.3 2c6.1 5.4 12 11.1 17.8 16.9q2.2 2.2 4.4 4.4c6.3 6.2 12 12.8 17.5 19.7q1.3 1.5 2.6 3.1c56 65.2 86 154.7 85.7 240.1q0 1.5 0 3.1c0 18.7-1 37.1-3.3 55.7q-.2 1.4-.3 2.8c-7.6 60.5-31.6 122.5-68.7 171.2l-2.3 3.1q-7.1 9.7-14.7 18.9-1.1 1.4-2.3 2.9c-6.9 8.4-14.6 16.2-22.3 23.9q-.8.8-1.6 1.6c-6.2 6.3-12.5 12.2-19.4 17.7-2.4 1.9-4.6 3.9-6.8 5.9-5.3 4.7-10.9 8.9-16.6 13q-.9.7-1.9 1.4c-11.3 8.2-23 15.6-35.1 22.6q-1.1.7-2.3 1.4c-56.5 32.5-122.7 50-187.9 49.7q-1 0-2 0-6.9 0-13.8-.1-1.3 0-2.7 0c-71.6-.9-145.8-28-203.3-70-1-.7-1-.7-2-1.5-8.7-6.3-17-12.9-25.2-20q-2.1-1.7-4.2-3.4c-6.9-5.5-13.1-11.4-19.3-17.6q-2.3-2.4-4.7-4.7A310.03 310.03 0 0 1 220 764q-1.4-1.6-2.9-3.3C172.6 709.8 144.5 646.2 132 580l-.6-3.1c-16.8-90-1-185.8 61.1-289.1 7.3-10.6 15.2-20.6 23.6-30.3q2.5-2.9 4.8-5.9c5.4-6.7 11.1-12.9 17.2-18.9q2.2-2.2 4.5-4.4c5.3-5.3 10.7-10.5 16.4-15.3q1-.8 1.9-1.7c10.3-8.7 20.9-16.7 32.1-24.3q.9-.7 1.9-1.3c26.8-18.4 55.6-32.6 86.1-43.7l2.8-1c86.3-31.4 188.6-27.4 384.2 76zm-303.5-23.1q-1.1.2-2.1.4c-49.2 7.7-98.7 27.1-138.6 57.3q-.9.7-1.8 1.4-4.6 3.5-9.1 7.1c-2.1 2.1-2.8 2.9-2.9 5.9 2.1 2.7 2.1 2.7 3.6 4.2q.8.9 1.7 1.7 2.8 2.8 5.6 5.7 2.1 2 4.2 4.1 5.8 5.8 11.6 11.6 6.3 6.2 12.6 12.6 11.6 11.6 23.3 23.2 11.6 11.6 23.2 23.1c.7.8.7.8 1.4 1.5q3.7 3.6 7.3 7.3 25.9 25.9 51.8 51.7 25.2 25.2 50.4 50.3.8.8 1.6 1.6 7.8 7.8 15.6 15.6 15.9 15.9 31.9 31.8.7.7 1.4 1.5 44.1 43.9 88.1 87.8 1 1 2 2 1.8 1.8 3.7 3.7.8.8 1.6 1.6.8.8 1.6 1.6 1.4 1.4 2.8 2.8c2.4 2.5 4.8 4.8 7.5 7 2.5 1.9 2.5 1.9 4.7 4.2q2.2 2.2 4.4 4.4.9.9 1.7 1.7.9.9 1.9 1.8 10.4 10.4 20.7 20.8 6.5 6.4 12.9 12.9 6.4 6.3 12.7 12.6 2.4 2.4 4.8 4.8 3.5 3.5 6.9 6.9 1.1 1.1 2.2 2.1c4.4 4.5 8.8 9 12.9 13.8 1.9 2.4 1.9 2.4 3.7 4 4 0 4 0 5.5-1.4q.7-.9 1.4-1.9.8-1 1.6-2.1.9-1.2 1.7-2.3 2.6-3.5 5.2-7.1 1.4-2 2.9-3.9c12-16.1 21.3-34.4 29.5-52.6q.6-1.4 1.2-2.7c22.9-51 34.1-112.9 25.4-168.8q-.2-1.1-.4-2.2c-3.9-24.6-10.9-48-19.9-71.1q-1-2.6-2-5.3c-5.5-14.5-12.5-28-20.5-41.2q-2-3.4-4-6.7c-4.4-7.4-8.8-14.8-14-21.8-2-2.5-4-5.1-5.9-7.7-15-21-34-38.7-54.7-54q-3-2.2-6-4.5C647.5 212 580.6 191 513.6 190.8q-1.4 0-2.7 0c-15.7 0-30.9.7-46.4 3.1zM257.6 316c-6.9 8.4-12.7 17.1-18.2 26.5q-.7 1.3-1.4 2.5c-11.7 20.3-22.1 41.2-29.2 63.5q-.4 1.3-.8 2.5c-14.6 46.6-19.6 98.1-11.3 146.3q.3 1.4.5 2.7c4.2 24.3 10.3 46.8 19.5 69.7a32.35 32.35 0 0 0 1.3 3.3c5.9 14.5 13.3 28 21.4 41.4l1.6 2.6c4.6 7.6 9.5 14.9 15 21.9 1.8 2.3 3.7 4.6 5.4 7 10.7 14.9 23.2 28.5 37.5 40.1 2.8 2.2 5.5 4.4 8.2 6.7 13.3 11.7 27.3 22.4 42.8 31.1 1.1.6 1.1.6 2.1 1.2 35.5 20.2 73.9 35.4 114.7 40.7q1.2.2 2.3.3c12.4 1.7 24.7 2.4 37.2 2.4h3c50.8 0 99.6-11.6 145.1-34.1q3.4-1.7 6.9-3.3c13.3-6.3 25-14.2 36.9-22.9q1.4-1 2.7-2 1.4-1 2.7-1.9 1.2-1 2.5-1.9c2.9-2.2 4.6-3.9 6-7.3q-3.2-3.2-6.3-6.3-2.1-2.1-4.1-4.1L700 743q-18.2-18.2-36.4-36.4-10.7-10.6-21.3-21.2-9.4-9.4-18.8-18.8-4.9-4.9-9.9-9.9-4.7-4.7-9.4-9.4-1.8-1.8-3.5-3.5-2.5-2.4-4.9-4.9-.7-.7-1.5-1.4c-2.3-2.4-4.6-4.7-6.8-7.2-5-5.9-10.4-11.3-15.8-16.8q-1.8-1.7-3.6-3.5-4.9-4.9-9.9-9.9-5.4-5.4-10.7-10.7-9.4-9.4-18.7-18.7-13.7-13.6-27.3-27.2-22.1-22.2-44.3-44.3-1.3-1.4-2.7-2.7-10.7-10.7-21.5-21.5-9.4-9.4-18.8-18.8-1.4-1.4-2.7-2.7-22.2-22.2-44.4-44.4-13.7-13.6-27.4-27.3-9.4-9.4-18.9-18.9-5.4-5.4-10.9-10.9-6-5.9-11.9-11.9l-1.9-1.9-22.2-22.9c-3-3.3-5.6-6.7-9.9-8.3-2 3.1-4.1 6.1-6.4 9z" fill="#fe9400"/><g fill="#00295c"><path d="M510.9 190.8q1.3 0 2.7 0c67 .2 133.9 21.2 187.4 61.9q3 2.3 6 4.5c20.7 15.3 39.7 33 54.7 54 1.9 2.6 3.9 5.2 5.9 7.7 5.2 7 9.6 14.4 14 21.8q2 3.3 4 6.7c8 13.2 15 26.7 20.5 41.2q1 2.7 2 5.3c9 23.1 16 46.5 19.9 71.1q.2 1.1.4 2.2c8.7 55.9-2.5 117.8-25.4 168.8q-.6 1.3-1.2 2.7c-8.2 18.2-17.5 36.5-29.5 52.6q-1.5 1.9-2.9 3.9-2.6 3.6-5.2 7.1-.8 1.1-1.7 2.3-.8 1.1-1.6 2.1-.7 1-1.4 1.9C758 710 758 710 754 710c-1.8-1.6-1.8-1.6-3.7-4-4.1-4.8-8.5-9.3-12.9-13.8q-1.1-1-2.2-2.1-3.4-3.4-6.9-6.9-2.4-2.4-4.8-4.8-6.3-6.3-12.7-12.6-6.4-6.5-12.9-12.9-10.3-10.4-20.7-20.8-1-.9-1.9-1.8-.8-.8-1.7-1.7-2.2-2.2-4.4-4.4c-2.2-2.3-2.2-2.3-4.7-4.2-2.7-2.2-5.1-4.5-7.5-7q-1.4-1.4-2.8-2.8-.8-.8-1.6-1.6-.8-.8-1.6-1.6-1.9-1.9-3.7-3.7-1-1-2-2-44-43.9-88.1-87.8-.7-.8-1.4-1.5-16-15.9-31.9-31.8-7.8-7.8-15.6-15.6-.8-.8-1.6-1.6-25.2-25.1-50.4-50.3-25.9-25.8-51.8-51.7-3.6-3.7-7.3-7.3c-.7-.7-.7-.7-1.4-1.5q-11.6-11.5-23.2-23.1-11.7-11.6-23.3-23.2-6.3-6.4-12.6-12.6-5.8-5.8-11.6-11.6-2.1-2.1-4.2-4.1-2.8-2.9-5.6-5.7-.9-.8-1.7-1.7c-1.5-1.5-1.5-1.5-3.6-4.2.1-3 .8-3.8 2.9-5.9q4.5-3.6 9.1-7.1.9-.7 1.8-1.4c39.9-30.2 89.4-49.6 138.6-57.4q1-.1 2.1-.3c15.5-2.4 30.7-3.1 46.4-3.1zm-171.8 73q-.5.6-1.1 1.2c1.8 5.6 5.6 10.2 10 14q1 0 2 0 .5 1.5 1 3c1.5 1.5 1.5 1.5 3.4 3 5.3 4.6 10.3 9.5 15.2 14.5q1.6 1.6 3.2 3.1 4.2 4.2 8.4 8.5 4.4 4.4 8.9 8.8 7.4 7.5 14.8 14.9 8.6 8.6 17.2 17.2 7.4 7.4 14.8 14.7 4.4 4.5 8.8 8.9 4.1 4.1 8.3 8.2 1.5 1.6 3 3.1c5.5 5.5 10.9 11.1 16 17.1q1 1.1 1.9 2.3.8.9 1.5 1.8c3 3.3 6.1 6.3 9.5 9.2q2.2 1.8 4.2 3.7 1.1 1 2.2 2 .9.9 1.8 1.8c1.8 1.4 1.8 1.4 3.7 1.1 3.1-1.3 5.2-3.5 7.5-5.9q.8-.7 1.6-1.5 2.6-2.6 5.1-5.2 1.8-1.8 3.6-3.6 3.8-3.7 7.5-7.5 4.8-4.8 9.6-9.6 4.6-4.6 9.1-9.2.9-.9 1.8-1.8 2.5-2.5 4.9-5c.8-.7.8-.7 1.5-1.4 6-5.5 6-5.5 9-12.4-1.2-2.2-2.5-3.4-4.5-4.9-3.4-2.7-3.4-2.7-4.5-4.9-.4-3.5-.3-5.5 1.5-8.6 6.1-7 6.1-7 10.5-7.4 3.4.5 5.2 1.8 7.7 4.1q1.1.9 2.1 1.9c3.6 3.3 7 6.7 10.4 10.1l2.3 2.3q3.5 3.5 7 7 2.4 2.4 4.8 4.9 5.9 5.8 11.7 11.7c3.7-1.6 6.1-3.9 9-6.7q.7-.7 1.4-1.4 2.4-2.4 4.7-4.7 1.6-1.7 3.3-3.3 3.4-3.4 6.8-6.9 4.4-4.4 8.8-8.8 3.4-3.3 6.8-6.7 1.6-1.7 3.2-3.3 2.3-2.2 4.6-4.5 1.2-1.3 2.6-2.6c2-1.9 2-1.9 1.8-4.1q.8.7 1.6 1.4c3.7 3.3 7.5 6.5 11.4 9.6-3.2-7.3-10-12.1-16.3-16.6-1.7-1.4-1.7-1.4-3.6-3.9-2.1-2.5-3.7-3.6-6.3-5.3-6-3.8-12-8.5-14.8-15.2-.5-3-.6-5 1.1-7.7 2.6-3.2 4.4-5 8.5-5.8 4.4.6 6 2.3 9.1 5.3 2.3 2.2 4.6 4.2 6.9 6.3 5.1 4.6 10 9.4 14.9 14.3q2.3 2.3 4.5 4.6 4.8 4.8 9.6 9.6 5.6 5.6 11.2 11.2 2.2 2.3 4.4 4.5c4.6 4.6 9.2 9.1 14.2 13.3 3.6 3.2 5.5 5.1 6 10-.6 4.9-.6 4.9-2.4 7.4-3.3 2.4-7 2.9-11 3-2.3-2.1-2.3-2.1-5-5q-1.5-1.4-2.9-2.7-.8-.7-1.6-1.4-.8-.8-1.6-1.5c-6.2-5.6-12.1-11.5-17.9-17.4-2.9 1.3-4.9 2.7-7 5l-1.7 1.9c-.9 1-.9 1-1.9 2-6.7 7.4-13.7 14.5-20.8 21.5-4.2 4.1-8.2 8.4-12.1 12.9-2.2 2.5-4.7 4.8-7.1 7.1-1.6 1.8-2 3.2-2.4 5.6l2.5 2.1c9.4 7.8 18.3 16 26.1 25.5q.7.7 1.4 1.4 1 0 2 0c.3.8.3.8.6 1.7 2.2 3.6 5.7 5.9 9.1 8.3 3.1 2.4 4.3 3.8 5.3 7.6 0 3.7-.4 4.9-2.7 7.7q-.8 1-1.6 2c-2.8 2.8-4.9 3.7-8.8 3.8-4.8-.8-8.1-4.1-11.7-7.2-2.2-2-2.2-2-5.2-3.9-3.3.3-4.9 1.6-7.2 3.9l-1.8 1.8q-.9.9-1.8 1.9-.9.9-1.8 1.8c-3 3-5.8 6.1-8.6 9.3-4 4.6-8.3 8.8-12.6 13q-2.5 2.5-5 4.9-3.9 3.8-7.9 7.7-3.8 3.7-7.5 7.4-1.2 1.1-2.5 2.3-1 1.1-2.1 2.2-1 .9-2 1.8c-1.4 2-1.4 2-1.2 4.4 1.3 3.5 3.2 5.3 5.9 7.9q.7.8 1.5 1.6 2.5 2.5 5 5 1.7 1.7 3.5 3.4 3.6 3.7 7.3 7.3 4.7 4.6 9.3 9.3 3.6 3.6 7.2 7.2 1.8 1.7 3.5 3.4 2.4 2.4 4.8 4.8 1.4 1.4 2.8 2.8c2 2.1 2 2.1 4.2 1.9q.5 1.5 1 3 1 0 2 0 0 1 0 2 1 0 2 0 0 1 0 2c1.4 1.5 1.4 1.5 3.4 3 5.2 4.4 10 9.3 14.8 14.2q1.5 1.5 3 3 3.2 3.2 6.4 6.5 5.1 5.1 10.2 10.2 1.7 1.7 3.4 3.5.9.8 1.8 1.7 11.8 11.9 23.6 23.8 7.9 8 15.9 16 4.2 4.3 8.4 8.5 4 4 7.9 8 1.5 1.4 2.9 2.9 2 2 4 4 1.1 1.1 2.2 2.2c2 1.7 2 1.7 4.3 1.4 2.6-1.3 3.4-2.9 4.9-5.4q.9-1.5 1.8-3 .5-.8 1-1.7 1.8-2.9 3.5-5.8 3.9-6.5 7.6-13 .5-.9 1.1-1.8c24.2-42.6 37.6-90.9 37.3-139.8q0-5.2 0-10.4c0-13.7-.9-27-3-40.5q-.7-4.8-1.4-9.5c-1.6-11.4-5.2-22.2-9-33q-.5-1.4-.9-2.8c-12.6-36.5-29.4-71.1-55.8-99.7q-2.8-3.1-5.5-6.2c-10.5-12-22.1-23.6-34.8-33.3q-1.6-1.3-3.1-2.5c-9.4-7.8-19.5-14.2-29.9-20.5q-1.1-.7-2.2-1.4c-82.1-50.5-182.5-55-327.7 12.2z"/><path d="M686.2 326.9c-.2 2.6-.7 4.4-1.5 6.5q-.4.8-.8 1.7l-.7 1.8q-.4.9-.8 1.9-.9 2.2-1.8 4.4c-6.2-5.2-12.3-10.7-18.2-16.7-3.6-3.6-7.3-7.2-11.1-10.4q-1.8-1.7-3.6-3.5c-1.6-1.6-1.6-1.6-3.3-2.7.2-2.6.8-4.4 1.7-6.6q.4-.9.8-1.9.4-.9.8-1.9.4-1 .8-2 1-2.4 2-4.8c3.6 3 7 6.3 10.5 9.8q1.5 1.5 3 2.9 3.1 3.2 6.2 6.3 3.7 3.6 7.3 7.2 1.5 1.5 3 2.9.8.9 1.7 1.8.8.8 1.6 1.6c1.2 1.2 1.2 1.2 2.4 1.7z"/></g><g fill="#fe9400"><path d="M563.1 109.7c1.8 2.8 2.2 5 2 8q-.1 1.2-.1 2.5l-.2 2.5q-.1 1.3-.2 2.6-.2 3.2-.4 6.3c-20.3 1-40.4 1.4-60.7 1.4-12.4 0-24.8 0-37.2.6-4.1.1-8.2.2-12.3.1-5.4 0-5.4 0-10.6.7-1.9-2.9-2.3-5.2-2.1-8.3q.1-1.3.2-2.6.1-1.4.2-2.7.1-1.4.2-2.8.2-3.4.5-6.8c11.8-.6 23.4-.7 35.2-.7q5.1 0 10.1 0 10.7 0 21.4-.1 12.5 0 24.9 0 5 0 10 0 3 0 6.1 0 2.6 0 5.3 0c4.1 0 4.1 0 7.7-.7z"/><path d="M677.9 152.6c.9 3.2.5 5.5-.6 8.3q-.5 1.1-.9 2.2l-1 2.4q-.5 1.2-1 2.4-1.2 2.9-2.5 5.9c-19.5-5.6-38.7-11.6-57.9-18.1-11.8-4-23.5-7.9-35.4-11.3-4-1.2-7.9-2.4-11.8-3.8-5.1-1.7-5.1-1.7-10.2-2.8-.9-3.3-.5-5.6.7-8.5q.5-1.2 1-2.4.5-1.2 1-2.5.6-1.3 1.1-2.6 1.3-3.1 2.6-6.2c11.4 3.1 22.5 6.7 33.7 10.5q4.7 1.6 9.5 3.2 10.2 3.4 20.3 6.8 11.8 4 23.6 7.9 4.8 1.6 9.5 3.2 2.8 1 5.7 1.9 2.5.9 5.1 1.7c3.9 1.4 3.9 1.4 7.5 1.8z"/><path d="M775 203.8c.3 3.4-.4 5.6-2 8q-.7 1.1-1.3 2.1l-1.4 2.2q-.7 1.1-1.4 2.2-1.7 2.6-3.5 5.3c-18.2-9-36-18.3-53.8-28.1-10.9-6-21.7-11.9-32.8-17.4l-10.9-5.8c-4.7-2.6-4.7-2.6-9.6-4.6-.3-3.4.5-5.6 2.2-8.2q.7-1.1 1.4-2.2.8-1.1 1.5-2.3.7-1.2 1.5-2.3 1.8-2.9 3.7-5.7c10.6 5.1 20.9 10.6 31.2 16.3q4.4 2.5 8.9 4.9 9.4 5.1 18.7 10.3 10.9 6 21.9 12 4.3 2.4 8.7 4.8 2.6 1.4 5.3 2.9 2.3 1.3 4.7 2.6c3.6 2 3.6 2 7 3z"/></g><path d="M629 119q1.3.4 2.7.8c63.6 19.5 121.1 55.1 167.6 102.4q4.6 4.7 9.3 9.3a200.7 200.7 0 0 1 15.2 16.7c2.2 2.8 4.5 5.5 6.9 8.2 41.8 50.2 68.1 112.7 79.3 176.6q.3 1.4.5 2.9c4.3 24 5.9 47.7 5.8 72q-.1 5.2 0 10.4c0 13.4-.6 26.4-2.3 39.7q-.2 2-.5 4c-3.8 31.2-11.6 60.5-22.5 90q-.6 1.8-1.3 3.6c-11.3 30.1-25.9 59.2-44.7 85.4q-1.6 2.3-3.3 4.6c-8.7 12.2-17.9 23.8-28.2 34.8q-2.4 2.6-4.9 5.3-1.7 1.9-3.5 3.7-.8.9-1.6 1.8-4.6 5-9.5 9.8-1.3 1.4-2.7 2.8c-5.6 5.7-11.2 11-17.5 15.9-2.5 2-4.9 4.1-7.3 6.2-47.4 41-107.8 67.2-168.5 81.1q-1.2.3-2.5.6c-14.9 3.4-29.9 5.2-45.1 7q-3.5.4-7.1.9c-5.5.7-11 .7-16.6.7q-1.7 0-3.6 0-3.7 0-7.5 0-5.6.1-11.3.1c-22.2.1-44.2-1.6-66-6.1q-2-.4-4-.8c-71.8-14.6-138.1-47-191.8-97.2-2.9-2.7-5.8-5.3-8.8-7.8q-1.3-1.2-2.7-2.4 0-1 0-2-.9-.4-1.7-.7c-6.6-3.7-11.6-10.5-16.4-16.2q-2-2.2-4.1-4.4c-7.6-8.1-14.2-16.8-20.8-25.7l-1.4-1.8c-51.2-69.1-79.9-155.8-79.8-241.8q0-1.2 0-2.4c.2-57.1 10.9-114.1 35.2-166q.7-1.5 1.4-3c9.3-20.2 19.8-39.7 32.6-58q.7-1 1.4-2.1c9.2-13.2 18.6-26.1 29.6-37.9q.8-.9 1.7-1.8 3.8-4 7.6-8.1 4.6-4.8 9.1-9.8c4.6-5.1 9.3-10.2 14.6-14.6 2.3-2 4.6-4 6.8-6.1 5.3-4.7 10.7-9.2 16.2-13.6q1.5-1.2 3-2.4c16.3-12.8 33.9-23.4 52-33.6 1.1-.6 1.1-.6 2.3-1.3 41.6-23.4 87.1-36.8 134.1-43.4q1.1-.2 2.3-.4c57.5-8.2 116.8-2.6 172.3 14.1zm-180.8 5.8q-1.6.2-3.2.5c-19.8 3.2-39.1 8.2-58 14.7q-1.4.5-2.8.9c-13.4 4.7-26.4 10-39.2 16.1-1.3.6-1.3.6-2.7 1.3-26.3 12.6-50.7 28.2-73.3 46.7q-.8.7-1.6 1.3c-16.8 13.9-33.8 28.8-47.2 46-2.1 2.6-4.2 5-6.4 7.5-7.6 8.6-14.3 17.8-20.8 27.2q-.7.9-1.4 1.9C175.7 311.8 162.2 337 152 363q-.4 1.1-.9 2.2C138.3 397.4 131 431.6 127 466l-.4 3c-8 69.9 6.3 144.8 36.4 208l1.2 2.6C187.1 728 222.6 775 265 808q1.8 1.5 3.5 2.9c63.1 52.7 145.9 85.7 228.5 87.1a37.48 37.48 0 0 1 3.3.1c44.5.9 89.3-4.8 131.5-19.3q3.4-1.2 6.8-2.3c48.2-15.9 91.5-43.2 129.4-76.5q1.4-1.2 2.8-2.5c13.6-12.2 27-25 38.2-39.5q2.5-2.9 4.9-5.8c5.4-6.5 10.3-13.3 15.1-20.2q.6-.9 1.2-1.8C866.4 678 889.3 617.1 896 554q.2-1.4.3-2.8c3.6-32.4 3.8-66.9-1.3-99.2q-.3-1.7-.5-3.5C888.9 413.1 879 378.6 864 346q-1.1-2.4-2.1-4.8c-5.6-12.1-12-23.7-18.9-35.2q-.7-1.2-1.5-2.5c-7.1-11.8-15-22.7-23.5-33.5-1.1-1.4-1.1-1.4-2.1-2.8q-2.9-3.6-5.9-7.2c-1.2-1.5-1.2-1.5-2.5-3-7.4-8.9-15.5-17.2-23.6-25.4q-.8-.8-1.7-1.7c-7.1-7.1-14.3-13.7-22.2-19.9q-1.5-1.3-3.1-2.6c-14.2-12.2-29.8-22.7-45.9-32.4q-1.3-.8-2.6-1.6C658.9 143.8 603.1 127.9 546 122q-1.1-.1-2.2-.3c-6.5-.7-12.9-.9-19.3-.9h-3.3q-3.5 0-6.9 0-5.1 0-10.3 0c-18.7-.1-37.3 1-55.8 4z" fill="#01285c"/><path d="M264 307c4.3 1.6 6.9 5 9.9 8.3 7.2 7.8 14.7 15.4 22.2 22.9l1.9 1.9q5.9 6 11.9 11.9 5.5 5.5 10.9 10.9 9.5 9.5 18.9 18.9 13.7 13.7 27.4 27.3 22.2 22.2 44.4 44.4 1.3 1.3 2.7 2.7 9.4 9.4 18.8 18.8 10.8 10.8 21.5 21.5 1.4 1.3 2.7 2.7 22.2 22.1 44.3 44.3 13.6 13.6 27.3 27.2 9.3 9.3 18.7 18.7 5.3 5.3 10.7 10.7 5 5 9.9 9.9 1.8 1.8 3.6 3.5c5.4 5.5 10.8 10.9 15.8 16.8 2.2 2.5 4.5 4.8 6.8 7.2q.8.7 1.5 1.4 2.4 2.5 4.9 4.9 1.7 1.7 3.5 3.5 4.7 4.7 9.4 9.4 5 5 9.9 9.9 9.4 9.4 18.8 18.8 10.6 10.6 21.3 21.2 18.2 18.2 36.4 36.4l1.6 1.6q2 2 4.1 4.1 3.1 3.1 6.3 6.3c-1.4 3.4-3.1 5.1-6 7.3q-1.3.9-2.5 1.9-1.3.9-2.7 1.9-1.3 1-2.7 2c-11.9 8.7-23.6 16.6-36.9 22.9q-3.5 1.6-6.9 3.3c-45.5 22.5-94.3 34.1-145.1 34.1h-3c-12.5 0-24.8-.7-37.2-2.4q-1.1-.1-2.3-.3c-40.8-5.3-79.2-20.5-114.7-40.7-1-.6-1-.6-2.1-1.2-15.5-8.7-29.5-19.4-42.8-31.1-2.7-2.3-5.4-4.5-8.2-6.7-14.3-11.6-26.8-25.2-37.5-40.1-1.7-2.4-3.6-4.7-5.4-7-5.5-7-10.4-14.3-15-21.9l-1.6-2.6c-8.1-13.4-15.5-26.9-21.4-41.4-.7-1.6-.7-1.6-1.3-3.3-9.2-22.9-15.3-45.4-19.5-69.7q-.2-1.3-.5-2.7c-8.3-48.2-3.3-99.7 11.3-146.3q.4-1.2.8-2.5c7.1-22.3 17.5-43.2 29.2-63.5q.7-1.2 1.4-2.5c5.5-9.4 11.3-18.1 18.2-26.5 2.3-2.9 4.4-5.9 6.4-9zm2 30c-1.7 1.8-3 3.6-4.4 5.6q-.7.9-1.3 1.9c-21.3 31.1-35.4 67.6-43.4 104.3q-.4 1.7-.8 3.4-1.1 5.4-2.1 10.8-.2 1-.4 2.1c-2.7 14.2-3.1 28.2-3 42.7q0 5.5-.1 11.1c-.1 39.1 8.7 75.5 25.4 110.7q1.6 3.6 3.2 7.2C252.3 665.7 271 694 293 717q.8.9 1.7 1.8c4.2 4.4 8.8 8.1 13.5 11.9 2.6 2.1 5 4.4 7.3 6.8 4.8 4.9 10.1 9.2 15.5 13.5q1.5 1.2 3 2.4c8.1 6.6 16.7 11.6 25.8 16.4q2.9 1.6 5.8 3.2c17.5 9.8 36.6 16.8 55.3 24q1 .4 2.1.8c8.6 3.4 17 6.3 26 8.2 1.5.3 1.5.3 3.1.7 17.1 3.6 33.6 4.8 51 4.7q1.4 0 2.9 0c17.2 0 34.5-1.1 51.6-4.2q1.4-.3 2.8-.5c39.3-7.3 92.8-21.5 122.6-49.7q.5-1.5 1-3c-1.2-1.9-1.2-1.9-3-3.7q-1-1.1-2-2.2-4.6-4.8-9.3-9.5-1-1-2.1-2.1-2.2-2.2-4.5-4.4-3.5-3.6-7-7.1-7.6-7.5-15.1-15-8.7-8.7-17.5-17.4-3.4-3.5-6.9-6.9-2.2-2.2-4.3-4.3-1-1-1.9-1.9c-5.3-5.3-10.2-10.8-14.8-16.6-2.1-2.3-3.9-4.1-6.3-6.1-4.2-3.7-8.3-7.5-12.4-11.3q-1.1-1-2.2-2.1-7.5-7.1-14.8-14.4-.9-.9-1.8-1.8c-2.9-2.9-5.7-5.8-8.3-8.9-5.8-6.6-12-12.8-18.2-19.1q-2.3-2.3-4.6-4.6-3.3-3.4-6.6-6.8-1.1-1-2.1-2.1-.9-.9-1.9-1.9l-1.7-1.7c-1.7-1.3-1.7-1.3-3.7-1-2.2 1-3.3 2-4.9 3.8q-.9.9-1.7 1.8-.9 1-1.8 2-2.1 2.2-4.1 4.4-1.1 1.2-2.2 2.4c-6.7 7.2-13.6 14-20.5 20.9q-4.1 4.2-8.3 8.4-2.6 2.6-5.3 5.3-1.2 1.2-2.4 2.5c-7.6 7.5-15 13.3-26 13.7-3.9 0-7.2-.6-10.9-1.8-7.9-2.6-14.7-2.2-22.4 1.1-3.8 2.1-6.9 4.9-10.1 7.9-2.4 1.5-2.4 1.5-5.5 1.4-3.7-1.1-5.4-3-7.9-5.9-4 1.6-6.8 4.5-9.7 7.5q-.8.7-1.6 1.5c-2.8 2.5-2.8 2.5-3.7 6q-.9.4-1.8.7c-2.6 1.5-4.2 3.3-6.2 5.6-5.1 5.9-10.5 11.3-16 16.8q-2.5 2.5-4.9 5c-14.7 14.6-14.7 14.6-19.2 15.5-3.6-.7-5.3-2.1-7.9-4.6-1.6-3.3-1.5-5.4-1-9 1.3-1.8 1.3-1.8 3-3.7q.9-1 1.9-2.1l11.2-11.3c6-5.8 6-5.8 11.5-12 2.5-3 5.2-5.4 8.2-7.9 4.2-3.8 8.2-7.7 12.3-11.7q1.3-1.2 2.6-2.5 1.3-1.2 2.5-2.5 1.1-1.1 2.3-2.2c1.7-2 1.7-2 1.3-4.3-1.3-2.8-3.3-4.7-5.5-6.8-1.9-2.9-1.7-4.6-1.3-8 .9-2.8 2.1-5.4 3.4-8.1q.9-2 1.9-4.1 1.4-3.2 2.9-6.4c2-5.9 1.6-13.4-.2-19.4-2.3-8.1-2.2-15.7 1.8-23.1 3.5-5.4 7.7-9.8 12.4-14.1 2.1-2.1 3.9-4.1 5.8-6.3 6-7 12.8-13.3 19.3-19.8 9-8.9 9-8.9 17.4-18.2 1.3-1.5 1.3-1.5 3.3-3.5-.1-5.4-2.1-7.7-5.9-11.4q-1.4-1.3-2.8-2.6c-2-2.2-2-2.2-4.3-2q0-1 0-2-1 0-2 0 0-1 0-2c-1.3-1.3-1.3-1.3-3.2-2.8-5.8-5-11.1-10.4-16.6-15.8q-2.7-2.7-5.4-5.4c-5.3-5.4-10.5-10.7-15.4-16.4-1.9-2.2-4-4.1-6.2-5.9-2.6-2.2-4.3-3.8-6.2-6.7q-1 0-2 0-.3-.8-.6-1.6c-1.9-3.3-4.4-6-7.4-8.4q-1 0-2 0 0-1 0-2a117.88 117.88 0 0 0-5-5q-1.9-1.9-3.9-3.8-1-1.1-2.1-2.2-4.9-4.8-9.7-9.6-2.6-2.6-5.1-5.1-3.7-3.7-7.4-7.4-1.1-1.1-2.3-2.3-1.1-1.1-2.2-2.1c-.9-1-.9-1-1.8-1.9-1.5-1.6-1.5-1.6-2.5-3.6q-1 0-2 0-.3-.8-.7-1.7c-1.6-2.9-3.7-5-6.1-7.3q-.7-.7-1.4-1.5-1.5-1.4-3-2.9-2.3-2.3-4.5-4.5c-7.6-8.8-7.6-8.8-17.3-13.1z" fill="#01275a"/><path d="M437 508c4 1.6 6.7 4.4 9.7 7.5q.8.8 1.7 1.6 2.7 2.8 5.5 5.6 1.9 1.9 3.8 3.8 5 5 10 10.1 5.1 5.1 10.2 10.2Q488 556.9 498 567c-8.5 10.3-18.1 19.6-27.5 29.1q-4.8 4.9-9.6 9.9-4.6 4.8-9.3 9.5-1.8 1.8-3.5 3.6c-9.1 9.5-9.1 9.5-14 10.4-2.6-.2-4.7-.7-7.1-1.5l-3.7-1q-1.6-.5-3.3-1c-11.1-1.2-20.5.6-30.1 6.2-1.9.8-1.9.8-3.8.8-3.2-1.5-5.4-4-7.8-6.6q-.8-.7-1.6-1.5-1.9-2-3.7-3.9c1.7-5.3 3.8-10.4 5.9-15.6 4.3-10.6 3.7-19.4.8-30.5-.7-2.8-1-5-.7-7.9 1.2-1.8 1.2-1.8 3-3.5q1-1 2-2 1-1 2.1-2.1 1.1-1.1 2.3-2.2 3.5-3.4 7-6.8 3.5-3.5 7-6.9 2.2-2.1 4.3-4.3 1-.9 2-1.9.9-.9 1.8-1.7c1.7-1.7 1.7-1.7 3.5-4.6q1 0 2 0 .4-.8.7-1.7c1.6-2.8 3.4-4.6 5.7-6.8q1.2-1.3 2.5-2.6 1.4-1.3 2.7-2.7 1.4-1.3 2.7-2.6 3.4-3.3 6.7-6.6z" fill="#3ca5d9"/><path d="M576 375q1.7 1.4 3.3 2.8 1 .8 1.9 1.6l6.8 6.5 2.4 2.3 5.8 6.5c3.7 4.3 7.7 8.3 11.7 12.3q1.1 1.1 2.2 2.2 3.4 3.4 6.8 6.8 2.4 2.3 4.7 4.7 5.7 5.6 11.4 11.3c-3.8 4.6-7.8 8.9-12 13.1q-.9.9-1.7 1.7-2.8 2.8-5.6 5.6-1.9 1.9-3.8 3.8-5.1 5.1-10.2 10.2-5.2 5.1-10.4 10.3-10.1 10.2-20.3 20.3c-6.6-5.4-12.6-11.5-18.6-17.5q-1.7-1.7-3.4-3.4-4.3-4.3-8.7-8.7-4.4-4.5-8.9-8.9-8.7-8.8-17.4-17.5c1.3-2.9 2.7-5 4.9-7.2q.9-.9 1.8-1.8 1-1 2-2 1-.9 2-2 2.1-2 4.2-4.1 3.2-3.2 6.4-6.4 2-2.1 4-4.1 1-.9 2-1.9c4.5-4.5 4.5-4.5 6.7-4.5q.4-.9.8-1.8c1.2-2.2 2.3-3.5 4-5.2q.8-.9 1.7-1.7.9-.9 1.8-1.8.9-.9 1.9-1.9 3-2.9 5.9-5.9 2-1.9 4-3.9 5-4.9 9.9-9.8z" fill="#3da5d9"/><path d="M661 326c3.2 1.4 5.3 3 7.7 5.5q1 1 2 2l2 2.1q1.1 1.1 2.2 2.2 2.5 2.6 5.1 5.2c-8.2 9.6-16.6 18.8-25.6 27.6-5.5 5.4-10.9 10.9-16 16.7-1.6 2-3.4 3.8-5.3 5.6-2.4 2.3-2.4 2.3-4.1 5.1-3.3-1.4-5.4-3.2-7.9-5.7q-1-1.1-2.1-2.2-1.1-1.1-2.2-2.2-1.2-1.2-2.3-2.3-2.8-2.8-5.5-5.6c4.7-5.7 9.7-10.8 14.9-16q2.3-2.2 4.5-4.4 4.7-4.7 9.4-9.4 5.5-5.5 11-10.9 2.2-2.2 4.4-4.4 1.3-1.3 2.7-2.7 1.1-1.1 2.3-2.3c1.9-1.8 1.9-1.8 2.8-3.9z" fill="#4e79b4"/></svg>