<svg xmlns="http://www.w3.org/2000/svg" width="1024" height="1024" xmlns:v="https://vecta.io/nano"><g fill-rule="evenodd"><path d="M505.4 125.7q1.7 0 3.4 0c17.2 0 34 .6 51 2.9q4.6.6 9.2 1.1c36.8 4.5 76.1 14.6 108.9 32.2l7.1 3.5c32.1 15.4 61.1 36.4 88 59.6q1.1 1 2.3 2c6.7 5.7 12.8 11.9 18.5 18.5 2.4 2.7 4.8 5.3 7.3 7.9 5.9 6.3 11.7 12.7 16.9 19.6l1.2 1.6c16.6 21.8 30 45.8 41.8 70.4q.8 1.7 1.7 3.4c6.1 12.4 10.8 25.5 15.3 38.6.5 1.5.5 1.5 1.1 3.1 5.3 15.6 8.6 31.5 11.8 47.6q.3 1.5.6 3c12 62 8.5 129.9-11.7 190q-1.2 3.6-2.3 7.1c-4.1 12.3-9.3 24.1-14.9 35.8q-1.7 3.6-3.4 7.2c-7.3 15.9-14.8 31-25.2 45.2q-1.7 2.3-3.3 4.7-4.1 5.7-8.2 11.3-2 2.7-4 5.4c-4.8 6.6-10 12.7-15.5 18.6q-1.7 1.8-3.3 3.6-2.7 2.9-5.5 5.8-5.3 5.7-10.6 11.6c-3.9 4.4-8.1 8.2-12.6 12q-1.6 1.4-3.2 2.8c-6.2 5.4-12.4 10.5-19.1 15.2-2.9 2.1-5.7 4.3-8.4 6.5-21.9 16.9-44.4 29.5-69.5 40.7-1.1.6-1.1.6-2.3 1.1-14.6 6.5-29.3 12.8-44.7 17.2-1.5.4-1.5.4-3 .9-67.6 18.8-137.6 22.9-205.4 3.3-3.2-.9-6.3-1.7-9.5-2.5-20.1-5.4-39.5-12.9-58.3-21.9q-3.6-1.8-7.2-3.4c-16.2-7.4-31.2-16-45.6-26.5q-2.4-1.8-4.9-3.6c-7.1-5.1-14-10.4-20.9-15.8q-1.3-1-2.7-2.1c-8.9-7.1-17.1-15-25.3-22.9q-1.1-1.1-2.2-2.2c-8.9-8.5-17.2-17.2-24.5-27.1q-1.9-2.5-3.9-5c-15.8-19.5-30.5-40.6-41.3-63.4q-1.9-3.9-3.9-7.9c-21.2-42.3-32-88.7-38.2-135.4q-.1-1-.3-2c-.8-6.3-.9-12.5-.9-18.7q0-1.7 0-3.4c-.2-45.5-.2-45.5 3.2-65.9l.6-3.8c3.1-19.5 7.5-38.4 13.4-57.2l1-3.2c6.9-21.9 15.2-42.4 26.6-62.3q1.9-3.3 3.7-6.7 2.7-4.8 5.5-9.6 1.3-2.4 2.6-4.7c10.4-18.2 22.3-34.1 36.1-49.7q2.9-3.4 5.7-6.8c12.2-14.6 25.3-27.9 40.1-39.9q2.7-2.1 5.3-4.3c7-5.9 14.4-11.1 22.1-16.2q3.7-2.6 7.5-5.1c10-6.8 19.9-13.2 30.8-18.5 1.3-.6 1.3-.6 2.6-1.3q7.4-3.5 14.8-7l9.7-4.8c27.3-14.1 60.5-21.1 90.7-26.3q1.2-.2 2.5-.4c18.3-2.9 36.6-3.6 55.1-3.5zM246 337.7q-1 1.7-2 3.3c-18.1 28.3-31.8 59.4-40.4 91.9-19.1 76.2-10.3 163.6 30 232q1.8 3.1 3.5 6.1c8.1 15 17.7 28.6 28.3 41.8q1.3 1.6 2.6 3.2c8.7 11.2 18.5 21.4 29.2 30.7q3.2 2.7 6.3 5.6a202.76 202.76 0 0 0 14.1 12c64.4 50.2 148.5 74.8 229.9 65q1.3-.1 2.5-.3c33.6-3.7 67.7-13.3 97.8-28.9q2.5-1.2 4.9-2.5c14.2-7.2 28.9-14.2 41.2-24.3 3.1-2.6 6.2-5.1 9.5-7.5 3.2-2.2 3.2-2.2 8.6-8.8q-5.3-5.3-10.7-10.6-2.2-2.2-4.4-4.4-3.2-3.2-6.4-6.4-1-1-2-2c-3.9-3.9-7.7-7.8-11.3-11.9l-5.3-5.9q-.8-.9-1.6-1.7c-1.8-1.8-3.2-3.1-5.5-4.3q-.9-.4-1.8-.8c0-2 0-2-1.2-3.4q-.8-.8-1.6-1.6-.9-.9-1.8-1.8l-1.9-1.9c-3-3-6-6-9.2-8.7a272.28 272.28 0 0 1-13.6-12.7c-1.3-1.4-1.3-1.4-2.6-2.7q-3.6-3.6-7.2-7.2-3.7-3.7-7.4-7.4-3-2.9-5.9-5.9-1.4-1.4-2.8-2.8c-4.7-4.7-9.4-9.4-13.7-14.5-1.6-1.9-1.6-1.9-3.1-3.4q-1.5-.5-3-1c0-2 0-2-1.5-3.8q-1.1-1-2.1-2-1.1-1.2-2.2-2.3c-1.3-1.2-1.3-1.2-2.5-2.4q-1.1-1.2-2.3-2.4-1.2-1.1-2.3-2.3c-2.1-2-3.8-3.6-6.4-5q-.8-.4-1.7-.8 0-1 0-2l-1.8-1.4c-2.2-1.5-2.2-1.5-4-3.3q-.9-.9-1.8-1.8-1.1-1.1-2.1-2.1-1.1-1-2.1-2.1-1.1-1-2.1-2.1c-1-1-1-1-2.1-2-1.9-1.9-3.7-3.9-5.5-5.9a195.91 195.91 0 0 0-10.7-11.6q-1-1-1.9-1.9-3.2-3.3-6.5-6.5-2.4-2.4-4.7-4.7-5.1-5.1-10.3-10.3-8.2-8.2-16.4-16.4-12.3-12.2-24.6-24.5-.7-.8-1.5-1.5Q463 507 457 501q-5.2-5.2-10.4-10.4-.8-.8-1.5-1.5-11.7-11.6-23.3-23.2-8.2-8.3-16.5-16.6-5.3-5.2-10.5-10.4-2.4-2.4-4.9-4.9-3.4-3.4-6.7-6.7-1.1-1.1-2.1-2.1a197.4 197.4 0 0 1-10.9-11.5c-1.9-2.2-3.9-4.5-6-6.6q-1.3-1.4-2.6-2.7c-2.5-2.4-4.9-4.8-7.4-7a220.3 220.3 0 0 1-12.2-11.3q-1.1-1-2.1-2c-3.2-3.3-6.5-6.5-9.5-10-4.5-5.2-9.3-10.1-14.2-15q-2.3-2.4-4.7-4.8c-4.8-4.7-9.5-9.5-14.6-13.9-4-3.4-7.7-7.1-11.4-10.8-6.3-6.5-12.5-12.8-19.5-18.6-7.2 8.6-14.1 17.1-20 26.7zm233.3-142c-1.2.2-1.2.2-2.3.3-46.8 4.6-92.3 21.4-132.3 45.9q-1.2.8-2.4 1.5c-4.5 2.9-8.6 5.8-12.6 9.3q-1.8 1.7-3.7 3.3c-2.8 1.8-5.4 3.3-7.6 5.7q-.8 1-1.6 1.9-1.4 1.7-2.8 3.4 6.8 6.7 13.5 13.5 2.8 2.7 5.6 5.5 4 4 8.1 8.1 1.3 1.3 2.6 2.6 1.2 1.2 2.5 2.4 1.2 1.2 2.3 2.4c2 2 3.9 3.9 5.7 6 5.2 6.2 5.2 6.2 18.3 19.2q2.2 2.2 4.3 4.3 4.8 4.8 9.5 9.5 7.6 7.5 15.1 15.1 17.5 17.4 35 34.9 16.2 16.2 32.4 32.3 7.6 7.7 15.2 15.3 4.9 4.8 9.7 9.6 2.2 2.2 4.5 4.5c6.4 6.3 12.9 12.6 18.8 19.4 1.8 2.2 3.7 4.2 5.6 6.3 1.4 1.3 1.4 1.3 2.7 2.6q2.3 2.4 4.7 4.7 1.6 1.7 3.3 3.3 3.5 3.5 7 7 4.5 4.5 9 9 3.5 3.6 7.1 7.1 1.7 1.7 3.4 3.4c5.7 5.7 11.4 11.4 17.4 16.7 2.1 1.9 4.2 3.7 6 5.8 5.4 6.4 5.4 6.4 18.4 19.3q2.2 2.2 4.4 4.4 4.7 4.7 9.5 9.5 7.7 7.6 15.3 15.3 17.7 17.6 35.3 35.3 16.4 16.3 32.7 32.6 7.7 7.7 15.4 15.4 4.9 4.8 9.8 9.7 2.3 2.3 4.5 4.5c7.4 7.3 14.7 14.6 21.6 22.3 2.8 3.2 4.9 5.6 8.8 7.2 2-3.1 2-3.1 4.5-6 6.8-8.2 12.8-16.6 18.2-25.7l1.3-2.3c21.3-36.6 36.8-76.8 42.6-118.8q.2-1.6.4-3.2a339.62 339.62 0 0 0 3.3-45.1q0-1.2-.1-2.3c0-13-.2-26-2.1-38.9q-.2-1.1-.4-2.2c-1.5-10.3-3.7-20.5-6-30.6-.4-1.5-.4-1.5-.7-2.9-10-44.4-31.2-87.6-60.3-122.7q-1.3-1.7-2.7-3.3c-5.8-7.3-11.7-14-18.4-20.5-.8-.7-.8-.7-1.6-1.5-7.5-7.2-15.1-14.4-23.3-20.9q-1.4-1.1-2.7-2.1c-56.6-45.3-126.7-69.2-199.1-69.3h-3c-9.8.1-19.8-.1-29.6 1z" fill="#f78f00"/><path d="M266 311c7 5.8 13.2 12.1 19.5 18.6 3.7 3.7 7.4 7.4 11.4 10.8 5.1 4.4 9.8 9.2 14.6 13.9q2.4 2.4 4.7 4.8c4.9 4.9 9.7 9.8 14.2 15 3 3.5 6.3 6.7 9.5 10q1 1 2.1 2a220.3 220.3 0 0 0 12.2 11.3c2.5 2.2 4.9 4.6 7.4 7q1.3 1.3 2.6 2.7c2.1 2.1 4.1 4.4 6 6.6a197.4 197.4 0 0 0 10.9 11.5q1 1 2.1 2.1 3.3 3.3 6.7 6.7 2.5 2.5 4.9 4.9 5.2 5.2 10.5 10.4 8.3 8.3 16.5 16.6 11.6 11.6 23.3 23.2.7.7 1.5 1.5 5.2 5.2 10.4 10.4 6 6 11.9 11.9.8.7 1.5 1.5 12.3 12.3 24.6 24.5 8.2 8.2 16.4 16.4 5.2 5.2 10.3 10.3 2.3 2.3 4.7 4.7 3.3 3.2 6.5 6.5.9.9 1.9 1.9a195.91 195.91 0 0 1 10.7 11.6c1.8 2 3.6 4 5.5 5.9 1.1 1 1.1 1 2.1 2q1 1.1 2.1 2.1 1 1.1 2.1 2.1 1 1 2.1 2.1.9.9 1.8 1.8c1.8 1.8 1.8 1.8 4 3.3l1.8 1.4q0 1 0 2 .9.4 1.7.8c2.6 1.4 4.3 3 6.4 5q1.1 1.2 2.3 2.3 1.2 1.2 2.3 2.4c1.2 1.2 1.2 1.2 2.5 2.4q1.1 1.1 2.2 2.3 1 1 2.1 2c1.5 1.8 1.5 1.8 1.5 3.8q1.5.5 3 1c1.5 1.5 1.5 1.5 3.1 3.4 4.3 5.1 9 9.8 13.7 14.5q1.4 1.4 2.8 2.8 2.9 3 5.9 5.9 3.7 3.7 7.4 7.4 3.6 3.6 7.2 7.2c1.3 1.3 1.3 1.3 2.6 2.7a272.28 272.28 0 0 0 13.6 12.7c3.2 2.7 6.2 5.7 9.2 8.7l1.9 1.9q.9.9 1.8 1.8.8.8 1.6 1.6c1.2 1.4 1.2 1.4 1.2 3.4q.9.4 1.8.8c2.3 1.2 3.7 2.5 5.5 4.3q.8.8 1.6 1.7c1.8 1.9 3.5 3.9 5.3 5.9 3.6 4.1 7.4 8 11.3 11.9q1 1 2 2 3.2 3.2 6.4 6.4 2.2 2.2 4.4 4.4 5.4 5.3 10.7 10.6c-5.4 6.6-5.4 6.6-8.6 8.8-3.3 2.4-6.4 4.9-9.5 7.5-12.3 10.1-27 17.1-41.2 24.3q-2.4 1.3-4.9 2.5c-30.1 15.6-64.2 25.2-97.8 28.9q-1.2.2-2.5.3c-81.4 9.8-165.5-14.8-229.9-65a202.76 202.76 0 0 1-14.1-12q-3.1-2.9-6.3-5.6c-10.7-9.3-20.5-19.5-29.2-30.7q-1.3-1.6-2.6-3.2c-10.6-13.2-20.2-26.8-28.3-41.8q-1.7-3-3.5-6.1c-40.3-68.4-49.1-155.8-30-232 8.6-32.5 22.3-63.6 40.4-91.9q1-1.6 2-3.3c5.9-9.6 12.8-18.1 20-26.7zm2 33c-1.6 2.1-1.6 2.1-3.2 4.7q-.9 1.5-1.9 3.1-.9 1.6-1.9 3.2l-1.8 3C240 390 225 424.9 219 462q-.2 1-.4 2.1c-2.7 15.5-3.1 30.7-3 46.5q0 1.8 0 3.7c0 16.9.4 33.3 3.8 49.9.6 2.8 1.1 5.6 1.6 8.4 4.7 25.5 14.5 50.3 26 73.4l1.2 2.4c8 16.1 17.6 31.5 28.8 45.6 1 1.3 1 1.3 2.1 2.6 13.6 17.2 29.5 34 46.9 47.4l3 2.4c14.4 11.4 29.9 20.8 46 29.6q1 .6 2.1 1.1c19.8 10.8 41.2 18.2 62.9 23.9q1.4.4 2.8.7c21.9 5.7 44 7.8 66.6 7.7q4.8 0 9.7 0c19.4 0 38.3-2.1 57.2-6.5 1-.2 1-.2 2-.5 20.7-4.8 40.6-12 59.7-21.4q1.4-.7 2.8-1.4c10.5-5.2 20.8-10.7 30.6-17.2q1.2-.7 2.4-1.5 1-.7 2.1-1.4.9-.6 1.8-1.2.6-.7 1.3-1.3c0-4.4-2.8-6.4-5.7-9.4q-.8-.8-1.6-1.7c-3.2-3.4-6.4-6.6-9.7-9.9q-1.5-1.5-3.1-3.1c-5.2-5.3-10.4-10.5-16.1-15.3-4.6-4-8.8-8.4-12.8-13.1-4.5-5.2-9.4-10-14.2-14.9q-1.5-1.5-3-2.9-3-3.1-6-6.1-3.9-3.9-7.8-7.8-3-3-6-6-1.4-1.5-2.9-2.9-1.9-2-3.9-4-1.2-1.1-2.3-2.3c-1.7-1.8-1.7-1.8-3.9-1.6q-.5-1.5-1-3-2.2-1.9-4.5-3.7c-1.8-1.6-3.1-3.4-4.5-5.3q-1 0-2 0-.3-.8-.6-1.7c-1.9-3.1-4.4-5.2-7.1-7.6-4.8-4.2-9.2-8.7-13.3-13.7-4 1.6-6.2 4.2-9 7.4-5.4 6-10.9 11.7-16.6 17.4q-2.4 2.3-4.7 4.6c-4.7 4.8-9.5 9.4-14.6 13.8-4.1 3.6-7.9 7.4-11.7 11.3q-2.2 2.2-4.4 4.3c-4.7 4.7-9.2 9.5-13.6 14.5-13.6 15.9-34.1 30.7-55.4 32.7-5.3.3-10.5.4-15.7.4q-2 .1-4 .1c-23.5-.2-44-10.2-61-26.1-19.5-20.4-27.9-46.6-27.5-74.4.7-22.7 10.7-43.7 26.2-60q1.9-1.6 3.7-3.2c3.9-3.4 7.6-7 11.3-10.7q1-.9 2-1.9 3.1-3.2 6.3-6.4 2.2-2.2 4.4-4.4 5.9-5.9 11.7-11.7 5.9-5.9 11.8-11.9 9.6-9.5 19.1-19.1 4.4-4.4 8.7-8.7-6.4-7.6-13.2-14.9-1-1-1.9-2c-3.3-3.5-6.6-6.8-10.2-9.9-6.4-5.7-12.4-11.8-18.4-17.8q-3.1-3.1-6.2-6.2-6.6-6.7-13.2-13.3-7.7-7.7-15.4-15.4-3-3.1-6.1-6.2c-8.2-8.2-8.2-8.2-16.9-16-6.5-5.6-12.4-12-17.9-18.5-2.4-2.8-4.9-5.3-7.6-7.8q-1 0-2 0-.4-.9-.8-1.8c-1.2-2.2-2.4-3.7-4.2-5.4q-.8-.9-1.7-1.8-.9-.8-1.8-1.8-.9-.8-1.8-1.8-.9-.8-1.7-1.7-.8-.8-1.6-1.6c-1.4-1.3-1.4-1.3-3.4-1.1zm129.4 191.4q-7.4 7.4-14.9 14.8-6.5 6.4-13 12.9-2.8 2.8-5.6 5.6c-6.9 6.9-14.3 13.6-20.4 21.2-12.5 16.7-16.5 36.4-14.1 56.8 3.6 20 16.2 36.2 32 48.4 15.2 11 32.7 15.4 51.3 12.5q1.2-.3 2.3-.6c19.1-4.7 30.7-14.8 44.2-28.5q3.4-3.5 6.9-7 5.9-5.8 11.7-11.7 7.5-7.6 15-15.1 5.9-5.9 11.7-11.8 2.1-2.1 4.2-4.2 4-4 8-8.1 1.3-1.3 2.5-2.5 1.2-1.2 2.3-2.3 1.1-1.1 2.1-2.1c2.4-2.5 4-4.6 5.4-7.7q-4.1-4.1-8.2-8.1-1.7-1.7-3.4-3.4c-5.6-5.6-11.3-11.1-16.5-17.1-4.5-5.4-9.6-10.1-14.9-14.8-2.3-2-4.5-4-6.5-6.3-3.8-4.5-7.9-8.8-12.1-13l-2.4-2.4q-2.6-2.6-5.1-5.2-4.1-4-8.1-8-2.6-2.7-5.3-5.3c-1.3-1.3-1.3-1.3-2.5-2.6q-1.3-1.2-2.4-2.4-1.2-1.1-2.3-2.3c-3.6-3.5-7.4-6.8-11.3-10.1q-15.3 15.2-30.6 30.4z" fill="#012b5f"/></g><path d="M428 505c3.9 3.3 7.7 6.6 11.3 10.1q1.1 1.2 2.3 2.3 1.1 1.2 2.4 2.4a60.16 60.16 0 0 0 2.5 2.6q2.7 2.6 5.3 5.3 4 4 8.1 8 2.5 2.6 5.1 5.2l2.4 2.4c4.2 4.2 8.3 8.5 12.1 13 2 2.3 4.2 4.3 6.5 6.3 5.3 4.7 10.4 9.4 14.9 14.8 5.2 6 10.9 11.5 16.5 17.1q1.7 1.7 3.4 3.4 4.1 4 8.2 8.1c-1.4 3.1-3 5.2-5.4 7.7q-1 1-2.1 2.1-1.1 1.1-2.3 2.3-1.2 1.2-2.5 2.5-4 4.1-8 8.1-2.1 2.1-4.2 4.2-5.8 5.9-11.7 11.8-7.5 7.5-15 15.1-5.8 5.9-11.7 11.7-3.5 3.5-6.9 7c-13.5 13.7-25.1 23.8-44.2 28.5q-1.1.3-2.3.6c-18.6 2.9-36.1-1.5-51.3-12.5-15.8-12.2-28.4-28.4-32-48.4-2.4-20.4 1.6-40.1 14.1-56.8 6.1-7.6 13.5-14.3 20.4-21.2q2.8-2.8 5.6-5.6 6.5-6.5 13-12.9 7.5-7.4 14.9-14.8 15.3-15.2 30.6-30.4z" fill="#f5f2ed"/><path fill-rule="evenodd" d="M759 713.4c-7-5.7-13.2-12.1-19.5-18.5-3.7-3.8-7.4-7.4-11.4-10.9-5.1-4.3-9.8-9.1-14.6-13.9q-2.4-2.4-4.7-4.8c-4.9-4.9-9.7-9.8-14.2-15-3-3.5-6.3-6.7-9.5-9.9q-1-1-2.1-2.1a220.3 220.3 0 0 0-12.2-11.3c-2.5-2.2-4.9-4.6-7.4-7q-1.3-1.3-2.6-2.6c-2.1-2.2-4.1-4.4-6-6.7a197.4 197.4 0 0 0-10.9-11.5q-1-1-2.1-2-3.3-3.4-6.7-6.8-2.5-2.4-4.9-4.9-5.2-5.2-10.5-10.4-8.3-8.3-16.5-16.6-11.6-11.6-23.3-23.2-.7-.7-1.5-1.4-5.2-5.3-10.4-10.5-6-5.9-11.9-11.9-.8-.7-1.5-1.5-12.3-12.2-24.6-24.5-8.2-8.2-16.4-16.4-5.2-5.1-10.3-10.2-2.3-2.4-4.7-4.8-3.3-3.2-6.5-6.5-.9-.9-1.9-1.8c-3.7-3.8-7.3-7.6-10.7-11.6-1.8-2.1-3.6-4-5.5-5.9l-2.1-2.1q-1-1-2.1-2.1-1-1-2.1-2.1-1-1-2.1-2.1-.9-.9-1.8-1.8c-1.8-1.7-1.8-1.7-4-3.3l-1.8-1.4q0-1 0-2-.9-.3-1.7-.7c-2.6-1.4-4.3-3.1-6.4-5.1q-1.1-1.1-2.3-2.3-1.2-1.2-2.3-2.4l-2.5-2.3q-1.1-1.2-2.2-2.3-1-1.1-2.1-2.1c-1.5-1.8-1.5-1.8-1.5-3.8q-1.5-.5-3-1c-1.5-1.5-1.5-1.5-3.1-3.4-4.3-5.1-9-9.8-13.7-14.5q-1.4-1.4-2.8-2.8-2.9-2.9-5.9-5.9-3.7-3.7-7.4-7.4-3.6-3.6-7.2-7.2l-2.6-2.6c-4.4-4.4-8.9-8.7-13.6-12.7-3.2-2.8-6.2-5.8-9.2-8.8l-1.9-1.9q-.9-.8-1.8-1.8-.8-.8-1.6-1.6c-1.2-1.4-1.2-1.4-1.2-3.4q-.9-.4-1.8-.8c-2.3-1.2-3.7-2.5-5.5-4.3q-.8-.8-1.6-1.6l-5.3-5.9c-3.6-4.2-7.4-8.1-11.3-11.9q-1-1-2-2.1-3.2-3.2-6.4-6.4-2.2-2.2-4.4-4.3-5.4-5.4-10.7-10.7c5.4-6.6 5.4-6.6 8.6-8.8 3.3-2.3 6.4-4.9 9.5-7.5 12.3-10.1 27-17.1 41.2-24.3q2.4-1.2 4.9-2.5c30.1-15.6 64.2-25.2 97.8-28.9q1.2-.1 2.5-.3c81.4-9.8 165.5 14.8 229.9 65 4.9 3.9 9.6 7.9 14.1 12.1q3.1 2.8 6.3 5.5c10.7 9.3 20.5 19.5 29.2 30.7q1.3 1.6 2.6 3.2c10.6 13.2 20.2 26.8 28.3 41.8q1.7 3.1 3.5 6.1c40.3 68.5 49.1 155.9 30 232.1-8.6 32.4-22.3 63.5-40.4 91.8q-1 1.7-2 3.4c-5.9 9.5-12.8 18.1-20 26.6zm-2-33c1.6-2 1.6-2 3.2-4.7q.9-1.5 1.9-3.1.9-1.5 1.9-3.2l1.8-3c19.2-32 34.2-66.9 40.2-104q.2-1 .4-2c2.7-15.5 3.1-30.8 3-46.5q0-1.9 0-3.8c0-16.9-.4-33.3-3.8-49.9-.6-2.8-1.1-5.6-1.6-8.4-4.7-25.5-14.5-50.3-26-73.4-.6-1.1-.6-1.1-1.2-2.3-8-16.2-17.6-31.6-28.8-45.7-1-1.3-1-1.3-2.1-2.6-13.6-17.2-29.5-34-46.9-47.4l-3-2.4c-14.4-11.4-29.9-20.8-46-29.6q-1-.5-2.1-1.1c-19.8-10.7-41.2-18.2-62.9-23.9q-1.4-.3-2.8-.7c-21.9-5.7-44-7.8-66.6-7.7q-4.8.1-9.7 0c-19.4 0-38.3 2.2-57.2 6.6l-2 .4c-20.7 4.8-40.6 12-59.7 21.4q-1.4.7-2.8 1.4c-10.5 5.2-20.8 10.7-30.6 17.2q-1.2.7-2.4 1.5-1 .7-2.1 1.4-.9.6-1.8 1.3-.6.6-1.3 1.2c0 4.4 2.8 6.4 5.7 9.4q.8.8 1.6 1.7c3.2 3.4 6.4 6.7 9.7 9.9q1.5 1.6 3.1 3.1c5.2 5.3 10.4 10.5 16.1 15.3 4.6 4.1 8.8 8.5 12.8 13.1 4.5 5.2 9.4 10.1 14.2 14.9q1.5 1.5 3 3 3 3 6 6 3.9 3.9 7.8 7.8 3 3 6 6 1.4 1.5 2.9 2.9 1.9 2 3.9 4 1.2 1.1 2.3 2.3c1.7 1.8 1.7 1.8 3.9 1.6q.5 1.5 1 3 2.2 1.9 4.5 3.8c1.8 1.5 3.1 3.3 4.5 5.2q1 0 2 0 .3.9.6 1.7c1.9 3.1 4.4 5.2 7.1 7.6 4.8 4.3 9.2 8.7 13.3 13.7 4-1.5 6.2-4.1 9-7.3 5.4-6 10.9-11.8 16.6-17.4q2.4-2.4 4.7-4.7c4.7-4.8 9.5-9.4 14.6-13.7 4.1-3.6 7.9-7.5 11.7-11.4q2.2-2.1 4.4-4.3c4.7-4.7 9.2-9.4 13.6-14.5 13.6-15.8 34.1-30.6 55.4-32.7 5.3-.3 10.5-.4 15.7-.4q2 0 4 0c23.5.2 44 10.2 61 26 19.5 20.4 27.9 46.6 27.5 74.4-.7 22.7-10.7 43.7-26.2 60q-1.9 1.7-3.7 3.3c-3.9 3.4-7.6 6.9-11.3 10.6q-1 1-2 2-3.1 3.1-6.3 6.3-2.2 2.3-4.4 4.5-5.9 5.8-11.7 11.6-5.9 6-11.8 11.9-9.6 9.6-19.1 19.2-4.4 4.3-8.7 8.6 6.4 7.6 13.2 14.9 1 1 1.9 2c3.3 3.5 6.6 6.8 10.2 10 6.4 5.7 12.4 11.7 18.4 17.7q3.1 3.2 6.2 6.3 6.6 6.6 13.2 13.3 7.7 7.7 15.4 15.4 3 3 6.1 6.1c8.2 8.3 8.2 8.3 16.9 16 6.5 5.6 12.4 12 17.9 18.5 2.4 2.8 4.9 5.3 7.6 7.8q1 0 2 0 .4.9.8 1.8c1.2 2.2 2.4 3.7 4.2 5.5q.8.8 1.7 1.7.9.9 1.8 1.8.9.9 1.8 1.8.9.9 1.7 1.7.8.8 1.6 1.6c1.4 1.3 1.4 1.3 3.4 1.1zM627.6 489.1q7.4-7.5 14.9-14.8 6.5-6.5 13-13 2.8-2.8 5.6-5.5c6.9-6.9 14.3-13.6 20.4-21.3 12.5-16.7 16.5-36.4 14.1-56.8-3.6-20-16.2-36.1-32-48.4-15.2-11-32.7-15.4-51.3-12.4q-1.2.2-2.3.5c-19.1 4.7-30.7 14.8-44.2 28.5q-3.4 3.5-6.9 7-5.9 5.8-11.7 11.7-7.5 7.6-15 15.2-5.9 5.8-11.7 11.7-2.1 2.1-4.2 4.2-4 4.1-8 8.1-1.3 1.3-2.5 2.5-1.2 1.2-2.3 2.3-1.1 1.1-2.1 2.2c-2.4 2.4-4 4.5-5.4 7.6q4.1 4.1 8.2 8.2 1.7 1.7 3.4 3.3c5.6 5.6 11.3 11.1 16.5 17.1 4.5 5.4 9.6 10.2 14.9 14.9 2.3 1.9 4.5 3.9 6.5 6.2 3.8 4.5 7.9 8.8 12.1 13l2.4 2.4q2.6 2.6 5.1 5.2 4.1 4 8.1 8.1 2.6 2.6 5.3 5.3c1.3 1.2 1.3 1.2 2.5 2.5q1.3 1.2 2.4 2.4 1.2 1.2 2.3 2.3c3.6 3.6 7.4 6.9 11.3 10.1q15.3-15.1 30.6-30.3z" fill="#012b5f"/><path d="M597 519.4c-3.9-3.2-7.7-6.5-11.3-10.1q-1.1-1.1-2.3-2.3-1.1-1.2-2.4-2.4c-1.2-1.3-1.2-1.3-2.5-2.5q-2.7-2.7-5.3-5.3-4-4.1-8.1-8.1-2.5-2.6-5.1-5.2l-2.4-2.4c-4.2-4.2-8.3-8.5-12.1-13-2-2.3-4.2-4.3-6.5-6.2-5.3-4.7-10.4-9.5-14.9-14.9-5.2-6-10.9-11.5-16.5-17.1q-1.7-1.6-3.4-3.3-4.1-4.1-8.2-8.2c1.4-3.1 3-5.2 5.4-7.6q1-1.1 2.1-2.2 1.1-1.1 2.3-2.3 1.2-1.2 2.5-2.5 4-4 8-8.1 2.1-2.1 4.2-4.2 5.8-5.9 11.7-11.7 7.5-7.6 15-15.2 5.8-5.9 11.7-11.7 3.5-3.5 6.9-7c13.5-13.7 25.1-23.8 44.2-28.5q1.1-.3 2.3-.5c18.6-3 36.1 1.4 51.3 12.4 15.8 12.3 28.4 28.4 32 48.4 2.4 20.4-1.6 40.1-14.1 56.8-6.1 7.7-13.5 14.4-20.4 21.3q-2.8 2.7-5.6 5.5-6.5 6.5-13 13-7.5 7.3-14.9 14.8-15.3 15.2-30.6 30.3z" fill="#49a9e1"/><path d="M498.7 103.9q1.9 0 3.9 0c51.4.2 104.8 3.8 152.8 24q4.2 1.7 8.4 3.4c17.8 7.2 35.3 15.3 51.7 25.2 2.6 1.6 5.3 3 7.9 4.4C740 170 755.6 180.7 770 193q1.7 1.4 3.4 2.8c17.7 15.1 35.4 30.8 49.3 49.5 1.7 2.3 3.5 4.5 5.3 6.7 20.5 25.7 37.5 53.4 52.7 82.5q1.1 2.1 2.2 4.2c9.1 17.3 15.3 35.2 20.7 54q.4 1.4.9 2.9c6.4 22 11 43.3 13.2 66.2q.2 2.7.6 5.4c.7 6.8.9 13.5.9 20.3q0 1.8 0 3.6 0 3.8 0 7.5 0 5.6 0 11.3c.1 21-.7 42.1-4.1 63q-.2 1.6-.5 3.3-.8 4.9-1.6 9.8c-.2 1.4-.2 1.4-.5 2.8-9.3 55-31 108.7-63.5 154.2q-.8 1.1-1.6 2.2-4.8 6.8-9.8 13.6-1.6 2.2-3.2 4.4c-6.6 9.1-13.5 17.7-21.4 25.8q-1.3 1.3-2.5 2.6-3.7 3.8-7.5 7.5-1.5 1.6-3 3.1c-5.9 6-12 11.6-18.6 16.9-2.8 2.2-5.4 4.5-8 7-4.9 4.5-10 8.8-15.4 12.9q-1.4 1.1-2.9 2.2c-11.4 8.5-23.8 15.6-36.1 22.8q-1.4.8-2.7 1.6-8.1 4.8-16.3 9.4-.9.5-1.9 1.1c-35.8 20.3-75.8 32.2-116.1 39.9q-1.2.2-2.3.5c-75.1 14.9-157 2.3-226.7-27.5q-1.3-.6-2.7-1.2C318.1 874 286.7 856.7 260 834q-1.6-1.3-3.1-2.6c-6.5-5.4-12.8-11-19-16.7-2.1-2-4.4-4-6.6-5.9-12.4-10.8-24.1-22.6-33.8-35.8q-2.6-3.5-5.3-7c-17-22-32.3-44.8-44.3-70q-1.5-3.2-3-6.4c-6.2-12.6-11.7-25.5-16.9-38.6q-.5-1.3-1-2.5c-15.3-38.5-22.3-82.2-23-123.5q0-1.2 0-2.4c-.6-26.2.1-51.7 4-77.6q.2-1.6.5-3.3c3.1-22.1 9.8-43.1 16.9-64.1q.4-1.2.8-2.4c6-17.6 13.6-34.2 22.1-50.7q.6-1.1 1.1-2.2c5.8-11 11.8-21.9 18.6-32.3q.7-1.1 1.4-2.2c6.7-10.4 13.8-20.4 21.3-30.2q1.6-2 3.2-4.1c9.1-12 19.3-23 30-33.6q2.8-2.8 5.7-5.7c5.9-5.9 11.9-11.8 18.4-17.2q1.5-1.3 3-2.6c29.2-25.2 63-43.5 98-59.4 1.2-.6 1.2-.6 2.5-1.1 21.2-9.6 43.2-15.2 65.9-20.1q4.8-1.1 9.7-2.2c15.2-3.7 30.4-5.3 45.9-6.6 1.5-.1 1.5-.1 3-.3 7.6-.7 15.1-.9 22.7-.8zm-68.8 29.4q-4.4 1-8.8 2c-28.6 6.4-54.9 15.7-81.1 28.7q-2.5 1.2-4.9 2.4c-13.8 6.7-26.5 14.3-39 23.1q-3.3 2.3-6.5 4.6c-25.6 17.8-49.5 38.6-69.1 62.9q-2.7 3.3-5.5 6.4c-13.2 14.8-23.9 30.5-33.5 47.8q-2.4 4.4-4.9 8.7c-24.4 42.6-39.9 87.7-47.4 136.3q-.1 1-.3 2.1-.4 3.1-.9 6.1-.2 1.8-.5 3.6c-1.2 9.3-1.7 18.6-1.7 28q-.1 1.6-.1 3.3 0 5.3 0 10.6 0 1.8 0 3.7c0 17.1.5 33.6 3.8 50.5q.7 4.3 1.4 8.6c5.2 34.1 14.8 70 30 101 1.3 2.7 2.6 5.5 3.8 8.3 6.2 13.3 13 25.8 21.3 38a46.13 46.13 0 0 0 1.9 2.8c8.1 12 16.5 23.5 25.8 34.6a159.88 159.88 0 0 1 5 6.5c6.7 8.5 14.2 16.1 21.9 23.8q1.2 1.2 2.4 2.4c4.8 4.9 9.8 9.5 15 13.9q1.6 1.4 3.2 2.8c5.9 5 11.8 9.8 18.1 14.3l8.3 6.1c41.7 31.3 91.1 51.3 141.6 63.2q3.7.8 7.3 1.7c66 15.7 136.9 7.3 200.5-14.1q1.3-.4 2.6-.9c31.8-10.9 63.3-26.1 90.4-46.1q.8-.6 1.7-1.2 5.2-3.9 10.3-7.8.8-.6 1.6-1.2c10.8-8.3 21.4-16.6 31.4-25.8q1.4-1.2 2.8-2.5 1.4-1.3 2.9-2.6 1.3-1.1 2.6-2.2c2.8-2.8 5.3-5.7 7.9-8.6 2.3-2.7 4.7-5.2 7.1-7.7 12-12.5 22.1-25.7 31.7-40 2.3-3.5 4.8-6.8 7.2-10.1 28.8-39.4 45.4-90.9 54-138.4q.2-1 .4-2c2.7-14.7 4.6-29.2 5.5-44.1l.2-2.1c.8-14.2 1.1-28.4.7-42.7q0-1.5-.1-3c-.8-31.7-8.2-64.9-17.9-95-.5-1.5-.5-1.5-.9-3-4.5-14.4-9.9-28.3-16.1-42q-.5-1.2-1.1-2.4c-5.4-12.2-11.7-23.7-18.5-35.2q-1.9-3.2-3.7-6.5c-12.5-21.4-28-40.3-45-58.1q-2.5-2.6-4.8-5.2c-10.2-11.3-21.3-21.1-33.3-30.4-2.2-1.6-4.2-3.4-6.3-5.1-7.7-6.2-16-11.6-24.3-17.1-1.1-.8-1.1-.8-2.3-1.5-13-8.7-26.7-15.9-40.7-23q-3.7-1.9-7.3-3.8c-32.8-17.5-73-27.3-109.7-31.4-3.2-.3-6.4-.8-9.6-1.2-41.6-5.2-85.6-4.3-126.5 5.2z" fill="#012b5f"/></svg>