<svg xmlns="http://www.w3.org/2000/svg" width="1024" height="1024" xmlns:v="https://vecta.io/nano"><path d="M535 165l3.3 1.1q4.8 1.6 9.6 3.2 1.5.5 3 1 1.3.5 2.7.9 1.2.4 2.4.9c2.1 1 3.4 2.1 5 3.9q-1.4.6-2.9 1.2-1.9.8-3.8 1.5-.9.4-1.9.8c-9 3.8-13.6 9.6-17.2 18.4-7 24.3 5.2 55.4 11.2 79q.4 1.6.8 3.3c12.5 53.1 12.5 53.1 46.5 93.5 10.3 5.6 21.2 5.8 32.4 2.6 4.4-1.5 7.3-3.3 10.9-6.3q1 0 2 0c.4.8.4.8.8 1.7 5.3 11.7 10.8 22.7 18.2 33.3q1.2 1.8 2.5 3.6c4.4 6.4 9 12.3 14.3 18 2.3 2.5 4.4 5 6.5 7.7 3.5 4.4 7.3 8.6 11.2 12.7 4.6 4.9 8.9 9.9 13.1 15.1 2.9 3.5 5.8 6.9 8.8 10.3q1.7 1.9 3.3 3.9 2.4 2.6 4.7 5.3c7.8 9 14.9 18.4 21.8 28q2.5 3.4 5.1 6.8c34.4 46.4 56.9 99.9 57 158.1q0 1.2 0 2.5c0 10.1-.5 19.9-2.3 30l-.4 2.4c-3.5 18.5-9.4 36.2-18.6 52.6-.8 1.5-.8 1.5-1.7 3-11.9 20-31 34.2-52.3 43q-1.2.5-2.3 1c-7.5 2.9-15 4.4-22.9 5.6q-1 .2-2 .3c-22.3 3.6-44.3 4.4-66.8 4.1 2.4-15.5 2.4-15.5 5.7-21.3 2.9-5.2 2.8-9.9 2.3-15.7-4.7-.4-8-.5-12.3 1.7-6.6 5.7-9 11.9-10.7 20.3a109 109 0 0 0 0 14q-3.6 0-7.1.1-1 0-2 0c-4.1 0-7.9-.3-11.9-1.1 1.2-9 3.3-16.3 7.8-24.1 1.6-3.8 1.2-6 .2-9.9-3.8-2.5-5.5-2.6-10-2-6.8 3.8-9.4 9.9-11.6 17-1.4 5-2 9.9-2.4 15-5.6-1.8-8.8-5.2-12-10-.7-7.4 2.6-13.3 7-19 13.1-15.4 29.2-24.3 49.5-26.2 10.1-.4 19.8 2.4 29.4 5.4 9.9 3.1 9.9 3.1 20.1 2.8 2.8-2.1 3-2.8 3.5-6.4-.6-4.6-2-5.6-5.5-8.6-3.1-1.3-3.1-1.3-6.5-2.2-8.2-2.7-14-7.2-20.5-12.8q-1-.8-2.1-1.6C635 724.3 626.3 703.9 624 688c-.8-14.5-1.5-29.4 4-43l.8-2c10.4-25.3 28.5-44.4 53.8-55 5.2-2.1 10.6-4 16-5.7q1.2-.4 2.4-.9 1.1-.3 2.2-.7c2-.7 2-.7 3.8-2.7.7-3.4.7-3.4 0-7-3.4-3.6-6.2-4.3-11-4.6-17.6.8-36.2 12.6-49.4 23.6-2.6 2-2.6 2-4.8 3-2.4 1.3-2.7 2.6-3.8 5q-2 2.4-4.2 4.6c-19.9 21.8-28.2 50.7-27 79.8 1.3 19.8 9.2 41.6 22.2 56.6q0 1.5 0 3-1.7.1-3.4.3c-14.5 1.2-26.6 4.6-39.2 12.1q-1.1.6-2.2 1.3c-3.8 2.4-6.6 4.6-9.4 8.1-2.5 3.1-2.5 3.1-5.5 4q-1.4-.1-2.8-.2-1.5-.1-3.1-.2c-5.8-.7-11.6-1.4-17.4-2.4 2.1-7.2 4.5-14.3 7.1-21.3q.5-1.6 1.1-3.2 1.9-5.2 3.8-10.3 1.3-3.6 2.6-7.1 7.8-21.2 15.8-42.3l9.7-25.8q4.9-13.4 10-26.8l1-2.7q2.5-6.7 5-13.3.9-2.4 1.8-4.8.4-1.1.8-2.2c4.1-10 4.1-10 5.7-20.6.1-1.2.1-1.2.1-2.4-.3-2.4-.3-2.4-2.3-4-3.4-1.9-5.6-1.2-9.2-.2-3.8 3.9-5.6 8.3-7.5 13.3q-.5 1.2-1 2.6l-14.8 39.6q-3.5 9.3-7 18.7-1.3 3.5-2.6 7.1-11.9 31.9-23.9 63.8-2.1 5.6-4.2 11.2c-5.3 14.3-10.8 28.6-16.9 42.6q-.6 1.5-1.2 3c-5.6 12.4-13 25.5-25.9 31.3a82.42 82.42 0 0 1-16.9 4.4l-2.5.4c-7.6 1.1-15 1.3-22.6 1 4.4-19.3 4.4-19.3 9.8-26.2 2-2.9 2.3-5.3 2.2-8.8-1.4-2.6-1.4-2.6-4-4-4.5-.9-7.4-.2-11.1 2.3-7.8 6.3-10.3 18.2-11.9 27.7-.2 3-.1 6 0 9-1.7 1.7-3.9 1.1-6.2 1.1q-1 0-2.1 0-.9 0-2 0c-3.7 0-7.1-.2-10.7-1.1-.9-9.4 2.9-18.2 7.2-26.4 2.4-4.5 3.7-7.5 2.8-12.6-2-2.4-2-2.4-5.6-2.5-4.5.2-7.2 1.6-10.6 4.4-7.8 8.9-8.8 22.8-10.8 34.1-8.7-3.9-8.7-3.9-11-7.8q-.6-.9-1.2-1.9c-1.6-4.5-1.2-8.2.4-12.7 7.2-14.3 16.5-24.6 31.9-29.9 3.1-.7 5.9-1 9-1.2 5.4-.3 10.5-1.1 14.9-4.5 2.2-4 3.6-7.8 4.7-12.2q.4-1.7.9-3.5l.8-3.7q.9-3.6 1.8-7.2.4-1.7.8-3.5 1.4-5.5 2.9-10.9l5.8-22.7q.5-2 1-4 1.9-7.5 3.7-14.9 1.8-7.4 3.7-14.7c.2-1 .2-1 .5-2q3.9-15.9 8.1-31.6 2.6-10.2 5.2-20.4.5-2.1 1-4.2c2.9-11.1 2.9-11.1 3.1-22.5-3.2-2.1-5.2-2.4-9-2.7-3.2 1.1-4.5 3.8-6 6.7-1.1 2.8-2 5.8-2.8 8.7q-.4 1.3-.8 2.6l-8.6 31.9q-1.4 5.2-2.8 10.4l-7.8 31.5c-1.1 4.7-1.1 4.7-2.2 6.9-5.2 1.7-10.6 1.3-16 1.3q-1.8.1-3.6.1c-8 .1-14.1-1.1-21.4-4.4q-1.2-.5-2.4-1c-12.1-5.5-21.4-12.6-30.7-22.1q-2.9-2.9-5.8-5.7c-14.3-13.9-14.3-13.9-16.1-18.2.4-3.9 1.8-7.6 3.1-11.4 2.5-8 2.5-8 1-16-2.9-2.2-5.3-2.1-8.8-2.2-3.4.9-4.4 2.7-6.3 5.6-1.1 2.5-2 5-2.9 7.6-4.6 12.9-10.3 27.6-23.1 34.4-2.7-10.4-2.5-18.8.3-29.1 1-4.1.9-7.7.7-11.9-4.1-2-6.6-2.4-11-1-5 3.7-6.6 8.1-8 14-.4 4-.5 8-.4 12q-.1 1.5-.1 3.1c0 6.2.8 10.7 3.6 16.2.9 1.7.9 1.7.9 3.7q-3.9 0-7.8.1-1.1 0-2.2 0c-3.3 0-5.9-.1-9-1.1-.9-6.9-1.1-13.8-1.1-20.7q0-1.2 0-2.5c0-4.7.4-9.1 1.1-13.8.3-3.4.5-6.6 0-10-2.7-2.7-4.4-2.9-8.1-3.4-2.9.1-2.9.1-4.6 1.8-6.2 12.2-6.9 27.3-4.3 40.6-6.3-5.1-9.4-13.2-11-21-1-15.5-1.4-30.7 5-45q.7-1.6 1.5-3.3c1.4-3 2.9-5.8 4.5-8.7l1.3-2.3c7.6-12.7 22.4-24.9 36.7-28.7 3.5-.5 7-.5 10.5-.5h2.9c26.6.7 49.8 18.1 67.6 36.5 1.9 1.9 3.7 3.6 5.7 5.2 4.4 3.8 8.5 7.8 12.7 11.7 11 11.9 11 11.9 25.1 17.3q1.2 0 2.4 0c2.3 0 2.3 0 4.1-2.2.5-4.7.1-7.4-2.7-11.3-2.7-3.4-5.8-6.4-8.8-9.5-1.1-1.1-1.1-1.1-2.3-2.2q-2.3-2.3-4.6-4.6-3.5-3.6-7-7.1-2.3-2.2-4.5-4.5c-1.1-1-1.1-1-2.1-2.1-3.9-3.8-7.8-7.2-12.2-10.3-2.6-2-4.8-4.3-7.1-6.7-2.7-2.7-5.7-5.2-8.7-7.7 1.3-3.8 2.7-4.4 5.9-6.6 12.1-8.5 19.9-18.2 26.1-31.4q1.5.2 3.1.5c6.3.8 12.5.7 18.8.7q1.8 0 3.6 0c16.3.1 31.5-2.3 47.3-6.3q3.9-1 7.8-2c21.7-5.4 39.1-14.6 54.5-31.2q.7-.8 1.4-1.5c3.5-4 5.8-7 5.8-12.3q-.1-1.9-.3-3.9c-3.1-2-5-2.7-8.7-2.6-5.1 1.4-8.7 5.9-12.3 9.6-19.8 18.6-40.9 25.7-67 31q-1.8.4-3.7.8c-9 1.5-18 1.4-27.1 1.5q-1 0-2.1 0-2.9 0-5.9 0-1.7 0-3.5 0c-2.7-.3-2.7-.3-4.7-2.3-.5-7.1.8-14 2-21q1.9-.1 3.8-.3c20.7-1.7 42.9-6.3 57.2-22.7 8-10 18.4-24.7 18.3-37.9-.5-3.4-2.2-5.5-4.3-8.1-3.2-2.1-5.2-2.3-9-2.5-3 .7-4.1 2-6 4.5-.5 2.9-.5 2.9-.4 6-.5 10.7-5.6 19-12.9 26.6-9.2 8.2-18.7 12.8-30.7 15.4l-2.5.6c-9.8 1.6-19.1.3-28.5-2.6q-1.6-.4-3.2-.8c-14.3-4-25.3-10.3-33.5-22.9-1.3-2.3-1.3-2.3-1.3-4.3q1.4-.3 2.9-.7c12.4-3 25.3-6.8 32.4-18.4 4.1-7.8 5.6-16.9 2.9-25.5-4.5-9-12.3-13.5-21.5-16.7-13.3-3.6-30.3-2.8-43 3q-1.9 1.1-3.7 2.3-1.3.8-2.7 1.6c-7.4 4.8-11.8 9.9-14.3 18.4-1.1 7.7-.7 14.6 4 21 6.4 8.1 15.6 13.7 25.7 15.4q2.7.4 5.3.6c-3.3 6.2-8.1 9.3-14 13q-1 .6-2 1.3-3.2 2-6.4 4.1-1.1.6-2.2 1.3l-2 1.3q-.8.5-1.7 1.1c-6 3.3-13.4 2.6-19.8 1.3-11.5-3.5-21-11.3-27.2-21.5-7.9-16.3-7.7-33.5-2.1-50.3 2.6-7.3 5.3-14.4 9.4-21 2.1-5.4 1-11-.1-16.5-7.3-37 .3-78.2 20.7-110 5.2-7.6 11.1-14.4 17.4-21.1l2.5-2.7c52.9-55.7 148.2-45 213.5-23.3z" fill="#fdaa00"/><path d="M438.4 129.7q3.9.1 7.7 0c10.8 0 21.2.8 31.9 2.3l3.1.4c35.2 5 70 15.6 102.2 30.4q4.6 2.1 9.2 4.1c37.3 16.8 76.7 40 92.5 80.1 2.6 8.1 4.7 16.5 5 25q.1 1.9.2 3.9c.2 9.1-.5 17.3-3.2 26.1q-.4 1.3-.8 2.7c-4.5 13.4-11.3 25.4-20.2 36.3q-1.2 1.5-2.5 3.1c-6 7.6-6 7.6-9.5 9.9 0 23.8 24.9 48.4 39.5 65.3q3 3.4 6 6.9 6.9 8.2 14 16.3 2.4 2.8 4.9 5.7 1.6 1.8 3.2 3.6c6.4 7.4 12.6 14.9 18.6 22.6q2.8 3.7 5.7 7.2c7 8.6 13.5 17.5 19.8 26.6q1.6 2.2 3.2 4.4c12.9 17.8 23.4 37.7 33.1 57.4 1.1-26.6-8.9-54.8-16.9-79.8l-.8-2.3c-3-9.3-6.2-18.4-9.8-27.5-2.6-6.6-4.9-13.3-7.1-20.1q-.5-1.8-1.1-3.6c-10.7-34.1-18.3-69.4-1.2-102.9 5-9.3 10.7-17.9 17.9-25.8q1.2-1.4 2.5-2.8c6.8-7.1 14-12.3 22.5-17.2l2-1.2c7.5-3.1 18.5-3.5 26.1-.7 6.1 3.5 9.7 7.2 11.9 13.9 1.3 12.4-2.8 21.5-8.1 32.4-16.2 34.5-3.8 69.3 7.8 103 3.8 11 7.1 22.2 10.4 33.3q1.2 4.5 2.6 8.9c3.2 11 5.5 22.1 7.6 33.5q.1 1 .3 2c3.6 20 4.8 39.8 4.7 60.1q0 5.5.1 10.9c0 19.5-1.7 38.4-6.1 57.4q-.4 1.7-.8 3.4c-9.8 41.5-27.1 77.4-54.1 110.4q-3.3 4.1-6.5 8.3-.6.7-1.3 1.6c-3 3.9-5.8 7.9-8.7 12a118.54 118.54 0 0 1-11.9 14.6c-2.1 2.2-2.1 2.2-4.1 5q-1 1.1-1.9 2.2-1 0-2 0 0 1 0 2c-1.8 1.6-3.7 3.1-5.6 4.6q-.9.7-1.8 1.4c-34 25.3-77.2 29.6-118.4 29.3q-5.9 0-11.8 0c-42.4 0-42.4 0-59.4-6.3q-1.3-.4-2.6-.9c-9.3-3.7-14.7-9.7-19.3-18.5-4.1-9.6-2.1-19 .9-28.6l-17-2c-5 7.3-9.8 14.5-14 22.3-9.2 16.2-21.5 24.4-39.1 29.6-28.2 7.1-74.8 10.4-101.5-3.2-2-1.4-3.7-2.9-5.4-4.7l-1.9-1.9c-8.1-8.7-10.9-18-11.5-29.8.4-10 8.4-17.9 14.4-25.3q.9-1.1 1.8-2.3c10.8-13.2 25-18.6 41.4-20.4q1.4-.2 2.8-.3c3-7.8 5.4-15.6 7.6-23.6q.8-3.2 1.7-6.3c.4-1.6.4-1.6.9-3.1l2.5-8.3c1.3-4.1 1.6-7.5 1.3-11.7q-1.1 0-2.3.1c-28.7.8-28.7.8-41.7-5.1q-.9-.4-1.9-.8c-14.4-6.7-26-16.9-37.5-27.8-2.5-2.5-2.5-2.5-5.6-4.4q0-1 0-2-1 0-2 0c-1.6-1.7-3-3.6-4.5-5.5s-1.5-1.9-4.5-1.5q-1.7 1.7-3.4 3.4C327 659 312.5 666 296 667q-1.5.1-3 .2c-15 .5-30.3-4.2-41.4-14.5-13.7-14.7-16.4-33.2-15.7-52.5 1.2-26.2 12.9-49.1 31.6-67 11.1-9.6 24.1-19.4 39.3-19.3 1.7.1 1.7.1 3.5.1q1.3 0 2.7 0-.6-1.1-1.2-2.3-.8-1.5-1.6-3.1-.8-1.5-1.6-3c-3.8-8.5-5.1-15.9-4.9-25.2q0-1.4 0-2.9c0-9.2 1.9-17 5.3-25.5q-1.1-.1-2.2-.3c-16.8-2.3-31.1-10.5-41.8-23.7-11.9-17.6-17.3-38.3-13.3-59.3 1.7-7.6 4.3-14.8 7.4-21.9 1-3.3 1.3-4.7-.1-7.8-2.1-1.6-4.1-2.9-6.4-4.2-16.9-10.3-27-24-32-43.1-3.1-14.6-2-27.7 2.4-41.7q.5-1.6 1-3.3c4.6-13.3 12.9-25.2 22-35.7q1-1.2 2-2.4c35.4-41.2 93.8-64.7 145.9-74.8q1.1-.3 2.3-.5c14.1-2.6 28-3.6 42.2-3.6zM407 150q-1.4.2-2.9.5c-40.4 6.7-75.2 23.6-99.9 57.1-21.8 32.2-30.4 74-23.7 112.3q.4 2.1.8 4.2c1.3 7.7.7 12.8-2.9 19.7-9.6 19.3-14 37.6-7.7 58.6 4.1 11.6 12.2 21.2 23.3 26.6 7.1 3 16.3 5.2 23.8 2.3 5.7-2.7 11.1-6.2 16.4-9.7q1.3-.8 2.6-1.6c5-3.2 8.7-6.2 12.2-11-2.9-1.6-5.3-2.3-8.6-2.7-10.2-1.9-18.5-8.9-24.4-17.3-3.3-6.7-3.2-14.3-.9-21.3 3.1-6.8 6.5-10.9 12.9-14.7q.9-.7 1.9-1.4c5.6-3.9 11.5-5.3 18.1-6.6q1.7-.3 3.4-.7c15-1.3 28.2.2 40.8 8.9 5.5 5.5 8.1 10.4 8.4 18.2-.5 10.2-4.1 17.7-11.6 24.6-7.5 6.3-18.5 9.3-28 11 4.1 11.3 12.7 18 23.1 23.1 19 8.4 37.2 10.3 56.9 3.9 12.5-4.9 23.8-14.2 29.9-26.2 2.3-5.3 2.7-10.2 2.7-16 .5-3.5 1.5-4.7 4.4-6.8 4.7-.6 6.8-.7 10.9 1.8 3.7 3.9 4.4 6.5 4.3 12-.3 3.6-1.7 6.7-3.2 10q-.5 1-1 2c-9.3 20-22.7 32.1-43 40.2-10.3 3.6-21.2 4.1-32 5-1.9 10.4-1.9 10.4-2 21 3.3 3.3 7.4 2.3 11.8 2.3q2.1 0 4.1 0 1 0 2 0c11.6 0 22.8-.9 34.1-3.3q1.2-.3 2.5-.5c24.4-5.3 42.5-13.5 60.6-30.7 7.9-7.5 7.9-7.5 11.1-8.4 3.7.3 5.7.5 8.8 2.6.7 6.3-.2 8.8-4 14-17.1 21-37 29.9-63 36.3q-3.9.9-7.8 2c-21.5 5.5-45.3 7.1-67.2 3.7-.6 1.2-.6 1.2-1.1 2.4-7.1 14.2-17.7 24.8-30.9 33.6 1.6 4.2 4.7 6.8 8 9.8q.8.7 1.6 1.4c3.1 2.9 6.4 5.6 9.8 8.1 7.3 5.9 13.8 12.6 20.3 19.2q3.5 3.4 6.9 6.8 2.2 2.2 4.3 4.4 1.1 1 2.1 2 .9 1 1.9 1.9.8.9 1.7 1.7c3.4 4.1 3.8 7.4 3.4 12.7-2 2-2 2-5.9 2.6-9.7-.2-17.3-9.4-23.5-16-2.7-2.7-5.6-5.2-8.5-7.7-2.8-2.5-5.5-5.1-8.2-7.6-23.1-22.1-46.1-40.4-79.5-39.7-11.4.6-19.1 6-27.4 13.4q-1.5 1.2-3 2.5c-13.1 10.9-20.6 26.9-24 43.5-.3 4.7-.3 9.3-.3 14q-.1 1.9-.1 3.8c-.1 12.6 2.8 22.2 10.4 32.2 1.2-1.9 1.2-1.9.6-3.7-3-11.9-.7-26.8 5.4-37.3 1-1 1-1 3.8-1.2 3.8.2 5.5.5 8.2 3.2.7 4.5.2 8.8-.5 13.3-.6 4.3-.6 8.6-.6 13v2.5c0 6.1.3 12.1 1.1 18.2 3.8 1.3 7.3 1.1 11.2 1.1 1.1 0 1.1 0 2.3-.1q2.7 0 5.5 0-.4-1-.9-2.1-.5-1.4-1.1-2.9-.5-1.3-1.1-2.6c-1.3-5-1.2-10-1.2-15.2q0-1.6-.1-3.2c0-7.8.8-14.6 5.7-21 3.1-2.3 4.9-2.9 8.7-3 2.9.9 2.9.9 5 2 .3 5.4-.1 9.7-1.5 14.9-2.4 9.1-1.9 17 .5 26.1 13.6-8.3 19.9-24.1 24.9-38.7 2.3-6.4 2.3-6.4 5.1-8.3 3.1-.6 5.9-.5 9 0 2.8 2.1 2.9 3.5 3.4 6.9-.2 4.9-1.9 9.4-3.4 14q-.5 1.5-1 3.1-.4 1.3-.8 2.6c-.3 3.4.8 4.4 3 7 5 5.8 10.4 11.2 15.8 16.7a60.16 60.16 0 0 1 2.6 2.5c8.3 8.3 16.6 14.7 27 20q1.4.7 2.8 1.5c9.7 5 17.5 6 28.4 5.9q1.8 0 3.7 0c6.3.1 6.3.1 12.5-1.2 1.1-2.5 1.1-2.5 1.8-5.6q.5-1.9 1.1-3.9.5-2.2 1.1-4.5.7-2.6 1.3-5.2 1.9-7.2 3.7-14.5l11-42.1q.4-1.4.8-2.8c4.4-15.6 4.4-15.6 8.2-19.4 7.3-.5 7.3-.5 11 2 1.3 6.3-.7 12.9-2.2 18.9q-.4 1.5-.7 2.9-1.2 4.7-2.3 9.3-.9 3.3-1.7 6.6l-12.8 50.4q-5.3 20.7-10.3 41.6-2.9 12.1-6.3 24c-1.7 6-3.1 12.1-4.5 18.2-1.7 4.5-4.4 7.2-8.8 9.4-3 .6-5.7.8-8.8 1-14 1-24.2 7.4-33.4 17.7-4.8 6-8.4 13-9.9 20.6 1 4.9 3.2 8.8 6.7 12.4 2.3 1.2 4.6 2.1 7 3q.1-.8.3-1.6c4.9-27.7 4.9-27.7 12.5-34.1 4.2-2.8 7.3-3 12.2-2.3 2 2 2 2 2.3 5.2-.3 4.3-1.5 6.8-3.6 10.6-4.3 8.1-7.3 15.9-6.7 25.2 4.3 1.1 8.4 1.1 12.8 1.1q1 0 2.1-.1 2.6 0 5.1 0c1.3-2.1 1.3-2.1.8-5.2-.1-10.1 3.7-24 10.8-31.5 3.1-2.5 5.2-3.3 9.1-3.9 3.3.6 3.3.6 5.8 2.2 1.5 2.4 1.5 2.4 1.6 5.6-1 3.5-1.7 4.8-3.8 7.6-5.1 7-6.4 15.9-8.3 24.2 16.7.7 37.1.1 50.3-11.2 20.3-19.8 28.6-52 38.2-77.9q1.3-3.6 2.7-7.2 4-10.8 8-21.6 1.2-3.2 2.4-6.4 4.6-12.5 9.2-24.9 2.6-6.8 5.1-13.6 2-5.5 4.1-11 .4-1 .8-2.1 4.5-12.1 8.9-24.1 2.1-5.7 4.2-11.4.9-2.4 1.8-4.9c7.2-19.6 7.2-19.6 13.3-23.7 6.5.5 6.5.5 9 3 1.1 7.1-.7 13.2-3.1 19.8q-.5 1.5-1.1 3-1.9 5.1-3.8 10.2-.7 2-1.5 4-3.8 10.2-7.7 20.4-6.4 16.8-12.7 33.7-.5 1.4-1 2.7-2 5.5-4 10.9-4.2 11.2-8.4 22.5-4 10.7-8 21.5-2.6 6.9-5.2 13.9-1.1 2.9-2.2 5.9-1.3 3.5-2.6 6.9-.5 1.5-1.1 3-.4 1.3-.9 2.6c-.8 2-.8 2-.7 4 6.8 1.1 13.6 2.2 20.5 2.6q1.4.1 2.8.2c3.6-1.1 4.7-3 7-5.9 2.9-3.3 6.4-5.3 10.1-7.5q1.2-.7 2.4-1.5c12.8-7.4 25.6-9.8 40.2-10.9-.6-3.5-2-5.5-4.1-8.3-15.2-21.2-21.4-49.9-17.2-75.5 2-10.4 5.4-20.4 9.3-30.2q.6-1.6 1.3-3.2c4.5-10.1 12.1-19.4 20.1-27.1 1.8-1.6 1.8-1.6 1.6-3.7q.8-.4 1.7-.7c2.9-1.6 5.2-3.6 7.7-5.7 13.1-10.5 32-21.8 49.2-21 3.9.6 5.6 1.5 8.4 4.4.6 3.6.6 3.6 0 7-2.7 2.5-5.4 3.7-8.9 4.8q-1.4.4-2.9.9-1.5.5-3 1c-15.9 5.3-27.9 12-40.2 23.3q-1 .9-2 1.7c-10.2 9.2-17 22.7-22 35.3q-.6 1.6-1.3 3.3c-2.9 8.6-3.1 16.9-3.1 25.9q-.1 1.7-.1 3.6c.2 19.7 8.6 40.9 22.5 55.2 2.5 2.3 5.2 4.5 7.9 6.6 1.1.8 1.1.8 2.2 1.7 5.6 4.1 11.1 6.9 17.8 8.9 2.9.9 4.9 1.6 7 3.7 1.7 3.2 1.5 5.6 1.1 9.1-1.5 2.1-2.5 2.9-5 3.4-7.5 0-14.2-1.8-21.3-3.8q-3.4-1-6.9-2-1.5-.4-3-.8c-16.2-4.4-32.2-.4-46.8 7.2-3.3 2.1-6.1 4.4-9 7q-1.4 1.2-2.8 2.5c-6.9 6.4-13.6 13.8-14.5 23.6.4 4.3 2.4 6.8 5.3 9.9 3.2 2.4 3.2 2.4 7 3 .1-1.2.1-1.2.3-2.5 1.4-10.3 3.1-19.9 10.7-27.5 3.7-2.5 5.6-2.5 10-2 2.5 1.6 2.5 1.6 4 4 .1 5.6-2.2 9.4-4.7 14.2-2.6 5.5-4.3 11.7-4.3 17.8 4.7.9 9.1 1.1 13.9 1.1q1 0 2.1-.1 2.5 0 5 0-.1-1.3-.1-2.6c-.4-11 .7-21.7 8.5-30.1 3.4-2.8 6-3.6 10.4-3.4q1.1 0 2.4 0c.9.1.9.1 1.8.1.6 7.3-.1 11.8-3.7 18.1-2.7 5.9-3.3 12.5-4.3 18.9 33.4.4 70.4.9 101-14 1.8-.8 1.8-.8 3.6-1.7 28.4-14.4 45.7-39.5 55.7-69.1 6.3-19.8 8.9-38.8 9-59.4q0-1.3 0-2.6c-.1-13.3-.7-26.2-3.3-39.2q-.2-1.1-.5-2.3c-1-4.9-2.2-9.8-3.5-14.7q-.3-1-.5-2.1c-9.9-37.3-29.4-71.2-52.5-101.9q-1.3-1.7-2.5-3.4c-8.1-10.9-16.7-21.3-25.5-31.6q-2.8-3.3-5.6-6.6-.7-.8-1.4-1.7-4.4-5.2-8.7-10.6c-3.1-3.7-6.2-7.1-9.6-10.4-3.1-3.1-5.9-6.4-8.7-9.7q-1.2-1.4-2.5-2.9C665 415.8 647.1 394.4 639 370c-2.6 1-4.9 1.9-7.2 3.4-9.2 5.1-19.5 6.1-29.8 4-11.9-3.8-19.3-12.2-26-22.4q-1-1.4-2-2.9c-14.4-22.1-21-48.9-27.2-74.2q-1.4-5.4-2.7-10.7c-3-11.8-5.7-23.5-8-35.4q-.3-1.5-.6-3.2c-2.8-14.5-3.2-28 5-40.9 5-6.3 13.2-8.8 20.5-11.7-2.5-3.1-5.2-4-8.9-5.3q-1.8-.6-3.7-1.2-1.9-.7-3.8-1.3-2-.7-4-1.4-5.8-1.9-11.6-3.8-1.4-.5-2.9-1c-37.9-12.4-79.5-18.4-119.1-12z" fill="#011a4c"/><path d="M829 302c2 2 2 2 2.1 5.3-.6 4.2-2.4 6.9-4.8 10.4-5.6 8.6-8 18.3-10.3 28.3q-.3 1.2-.6 2.3c-.9 5.4-.6 10.9-.6 16.4q-.1 3.2-.1 6.5c-.1 9.6 1 18.4 3.3 27.8q.3 1.2.6 2.5.9 3.3 1.8 6.6.4 1.2.8 2.5c2.7 9.4 5.7 18.7 8.7 28.1q.4 1.2.8 2.5l7.6 23.7c5.7 17.7 9.8 35.7 13.3 54q.6 2.9 1.1 5.7c3.4 17.2 3.7 34.3 3.7 51.8q0 1.6.1 3.3c0 19.6-1.5 38.9-6.1 58.1q-.4 1.5-.8 3.2c-5.8 23.7-13.7 49.6-27.6 70q-.5 0-1 0c-.2-5.3.1-10.2 1-15.4 1.1-7.5 1.3-14.8 1.3-22.4q0-1 0-2c0-10.4-.7-20.6-2.2-30.8-1.3-8.6-1.5-16.9-.6-25.5.8-8.1.7-16.3.7-24.4q0-1.3 0-2.6c-.1-12.1-.1-24-2.2-35.9q-.3-1.6-.6-3.3c-6.3-35.2-17.4-69-30.2-102.4-11.9-31-23.6-67.7-9.7-99.9 3.6-7.8 8.2-14.7 13.5-21.4q.8-1 1.6-2.1c8.1-9.8 21.6-23.7 35.4-20.9z" fill="#fcaa00"/><path d="M246 762q1.2 1 2.4 2.1c4.6 3.4 9 4 14.6 4.5 9.6 1.4 18.6 6.8 24.7 14.4 4.7 7.4 6.5 15.3 5.3 24-2.1 6.7-7.6 11.2-13.6 14.4-20.1 9-43.9 8.9-65.6 8.9q-4.7-.1-9.3 0c-54.5 0-54.5 0-67.3-12-5.5-6.4-6.8-12-6.2-20.3 1.2-7.9 6.4-13.9 12.3-19 9.1-6.7 18.8-10.8 29.8-12.9 7.9-1.6 13.4-4.4 19.9-9.1 17.6-10.5 37-6.7 53 5z" fill="#011a4c"/><path d="M222.4 766.6c6.6 2.4 12.1 6.3 17.7 10.4 5.3 3.7 9.3 4.5 15.6 5.3 7.7 1.2 14.7 2.5 20 8.6 2 3.2 1.7 5.5 1.3 9.1-1.9 4.9-5.4 6.9-10 9-2.9.9-5.9 1.6-8.9 2.2q-1.2.2-2.3.5c-9.4 1.9-18.3 2.5-27.8 2.5h-3.8q-3.9 0-7.9 0-6 0-12 0c-43.8.1-43.8.1-55.5-8.6-1.8-2.6-1.8-2.6-2.1-5.5 3.2-7.9 10-11.3 17.3-14.8 5.2-2.2 9.8-3.5 15.3-4.1 6.3-.9 10.4-2.8 15.7-6.2q3.7-2.1 7.4-4.3 1.8-1 3.7-2c5.5-3.2 10-3.7 16.3-2.1z" fill="#fcab00"/><path d="M352 431c-.6 4.5-1.8 8.1-3.8 12.2-5.1 11.5-11 27.1-8.2 39.8 2.3 3 3.3 3.9 7.1 4.5 2.9-.2 2.9-.2 4.5-2.1 1.7-2.9 2.3-5.5 3.1-8.8 1.9-7.9 4.7-15.5 7.6-23.2q.5-1.3 1-2.7c.4-1.2.4-1.2.9-2.5.7-2 1.3-4.1 1.8-6.2 4 .6 6.9 1.9 10.4 3.8 6.7 3.4 13.5 5.8 20.6 8.2-1.8 18.3-6.2 40.4-21 53-14.5 11-14.5 11-20.4 11.1-14.2-2.4-26.1-13-34.6-24.1-3.3-5-2.7-10.2-2-16 1-3.9 2.4-7.6 3.8-11.4 1.7-4.6 2.4-8.2 2.1-13.2.1-2.8.1-2.8 1.1-5.4 3.5-2.8 7.1-4.8 11.1-6.9 4.4-2.2 7.7-5.2 11.3-8.7 1.6-1.4 1.6-1.4 3.6-1.4z" fill="#fb5a15"/><path d="M494.4 291l2.6 2q1.5 1 3 2.1c4.8 4 8.1 10.1 10 15.9.4 5 .7 9.5-1.4 14.1-2.2 2.6-3.4 2.9-6.8 3.5-4.9-.8-6.2-2.5-9.2-6.2-1.6-2.3-2.9-4.7-4.2-7.2-3.1-5.7-7-8.6-13.1-10.7-6.6-1.5-13.3-1.5-19.2 1.9-3.7 2.8-6.8 6.1-10 9.5-2.7 2.7-3.6 3-7.4 3.5-3.7-.4-3.7-.4-6.6-2.9-2.1-2.9-3.1-5.7-2.8-9.3 2.8-8.5 12.3-14.9 19.7-19.2 15-7.2 31.4-5.2 45.4 3z" fill="#041c50"/><path d="M351.3 280.3c5.9 4 12.6 9.7 14.7 16.7 1.3 11.3 1.3 11.3-1.9 15.4-2.1 1.6-2.1 1.6-4.9 1.8-5.7-2.2-9.6-6.9-13.1-11.9-4.7-5.1-10.8-7.6-17.7-7.9-5.7.3-9.9 2-14.4 5.6q-1.8 2.1-3.6 4.3c-2.8 3.5-2.8 3.5-5.4 4.4-4.1.3-5.9-.6-9-3.3-2.3-4-2.7-5.8-2-10.4 5.2-10.6 15.9-16.3 26.4-20.3 11.1-2.2 21.1-.1 30.9 5.6z" fill="#031f5b"/></svg>