<svg xmlns="http://www.w3.org/2000/svg" width="1024" height="1024" xmlns:v="https://vecta.io/nano"><path d="M488.7 194.8q3.6 0 7.2 0c10.8-.1 21.4.7 32.1 2.2q1.9.2 3.8.5c17.7 2.5 34.7 6.4 51.9 11.5q4.6 1.4 9.1 2.6c12.2 3.4 22.1 8 32.7 15.1 5.8 3.8 11.8 5.5 18.5 7.3 18.8 5 36.8 11.6 54.2 20.1q1.8.8 3.6 1.7c11.6 5.7 22.4 12.3 32.7 20q1.2.9 2.4 1.8c7 5.2 13.6 10.7 20.1 16.4q1.3 1.2 2.7 2.4 3.7 3.2 7.3 6.6c1.1 1 1.1 1 2.2 2.1 18.2 17.4 34.5 41.4 40.8 65.9a30.3 30.3 0 0 0 .9 2.8c4.3 14.3 2.7 29.9-.9 44.2-.2 1-.2 1-.5 2-4.5 17.2-13 31.7-23.5 46l-1.9 2.7C770.2 486.9 750 505.8 727 511c-13.1 1.3-24.9.7-35.8-7.3q-2.1-1.8-4.2-3.7-.9-.8-1.8-1.7C676 489 671 475.7 669 463q-.3-1.5-.6-3c-.8-5.9-.6-12-.6-17.9V440c0-12 .5-24 1.2-35.9 5.2-48.6 5.2-48.6-9-92.4-2.1-1.8-3.2-2.7-6-2.8-4.1.4-6.4.6-9.6 3.2-2.2 4.4-2.1 7.6-.6 12.3l1 2.8c4.2 11.9 5.4 24.5 5.3 37v2.9c0 9.7-.5 19.5-1 29.2-4.5 60.7-4.5 60.7 19.8 114.4 4.7 5.1 9.3 9.4 15.4 12.7q1.1.7 2.3 1.3 2.3 1.3 4.6 2.4c4 2.2 5.5 3.2 7.2 7.4q.4 2.3.6 4.5.2 1.4.4 2.8.7 5 1.3 9.9c5.6 41.7 14.7 83.9 30 123.1q2 5 3.9 10.1c8.1 21.3 17.5 42.1 28.2 62.2q.8 1.4 1.5 2.8c3.3 6 7 11.3 11.2 16.7 1.5 2.4 1.5 2.4 1.5 6.4-1.7 2.1-1.7 2.1-4 4.3q-1.2 1.2-2.5 2.4-5.2 4.8-10.5 9.3-1.3 1.2-2.7 2.4c-24.2 21-51.5 38.8-80.3 52.6q-3 1.5-6 3c-22.2 10.8-45.3 17.7-69 24q-1.6.4-3.2.8c-11.9 3.1-23.9 5.1-36.1 6.9q-1 .2-2.1.4c-17.5 2.6-34.9 3.1-52.6 3.1-1.3.1-1.3.1-2.7.1-15-.1-29.5-1-44.3-3.3q-1.8-.3-3.6-.5c-32.8-4.8-67.9-12.9-97.4-28.5-.4-7.2.9-14 2.2-21q1.1-5.7 2.1-11.4.2-1.1.4-2.4c1.6-8.6 3-17.3 4.4-26q.2-1.2.4-2.3c2.4-15 4.5-29.9 6.5-44.9 10.5-.5 20.7 1 31.1 2.6q1.3.2 2.6.4c20.2 3 39.9 7.4 59 15 4.8 1.8 8.1 2.3 13.3 1 2.6-1.4 2.6-1.4 4-4 .6-3.1.9-5.9 0-9-22.2-21.5-69.3-22.6-98.4-25.9-43.7-5-82.7-19.5-111.1-54.8-16.6-21.3-26.6-48.7-30.5-75.3q-.3-1.9-.6-3.8c-3.5-29.9 3.3-60.6 15.9-87.7 6.7-14.5 9.4-26.9 9.3-42.7q0-4.5 0-9 0-9.5 0-19.1-.1-12.5 0-25 0-1.5 0-3c.1-16.2 1.3-31.7 4.4-47.7q.4-2.5.9-5c5.1-28.7 18.5-56 36.1-79q.6-.8 1.3-1.6c34.6-44.9 89.9-64.6 144.3-72 10.4-1.3 20.7-1.6 31.1-1.6z" fill="#faa200"/><path d="M578 112q1.1.2 2.2.4c42.1 7.4 83.7 20.5 121.3 41.2q2.6 1.5 5.2 2.9c14.1 7.6 27.4 16 40.3 25.5l2.3 1.7c19.9 14.8 39.6 31.2 55.8 50.1l5.7 6.3c6 6.4 11.5 13.1 16.8 20q1.4 1.9 2.9 3.8c47.7 61.7 79.4 140.8 79.7 219.3q0 1 0 2 0 5.4 0 10.7 0 4.3.1 8.6c.2 26.3-.9 52.5-6.7 78.2q-.4 2.2-.9 4.4-1.3 5.9-2.7 11.9-.3 1.4-.6 2.9c-14.6 63-46.9 121.1-90.2 168.7q-2.2 2.4-4.3 4.8c-8 9-16.4 17.9-25.7 25.7q-2.7 2.3-5.4 4.7C718.4 855.2 649.3 884.3 577 898q-1.5.3-3 .6c-62.5 11.8-130.4 5-190.4-15.7q-1-.3-2.1-.7c-13.5-4.6-26.6-10.1-39.5-16.2-1.1-.5-1.1-.5-2.3-1.1q-6.9-3.3-13.7-6.9-1.2-.6-2.3-1.2c-17.1-9.1-33.1-19.4-48.7-30.8q-1.5-1.1-3.1-2.2c-6.3-4.7-12.4-9.7-18.4-14.8q-2.9-2.6-6-5c-6.8-5.4-13-11.2-19.1-17.4q-1.3-1.3-2.7-2.6c-5.2-5.3-10.1-10.7-14.7-16.5-1.9-2.4-4-4.7-6.1-6.9-14.7-16.2-26.8-34.9-37.8-53.7q-1.1-1.9-2.2-3.7c-24.7-42-40.4-89.1-48.1-137.1q-.3-1.4-.5-2.8-.7-4.6-1.3-9.3-.1-1-.3-2c-1.9-15-2-29.9-2-45q0-4.1 0-8.2c-.2-18.1.7-35.8 3.3-53.8q.2-1.1.3-2.2.8-5.8 1.9-11.6l.6-3.4c5.4-28.6 14.4-56.2 26.2-82.8q.4-1 .9-2c17.3-38.8 41.4-74.2 69.9-105.6q2.2-2.4 4.4-4.9c7.4-8.3 15.2-16.4 23.7-23.7 2.5-2.1 4.8-4.3 7.2-6.6 6.4-5.7 13.1-11 19.9-16.2q1-.7 2-1.5c27.9-21.2 59.4-37.9 92-50.5q1.5-.6 3-1.2c24.5-9.4 50-16.7 76-20.8q1.8-.3 3.7-.6c42.2-6.4 88.2-6.7 130.3.6zM321 259c-25.5 26.7-41.4 63.8-47 100q-.2 1.3-.4 2.6c-2 13.3-3 26.3-2.9 39.8q0 4.5-.1 9 0 12.7 0 25.5.1 7.9 0 15.8 0 2.9 0 5.9c.1 17.6-3.8 30.9-11 47-16.9 38.8-19.4 79.3-5.6 119.4q.3 1 .7 2c5.7 16.2 13.6 32.4 25.3 45a34.67 34.67 0 0 0 2.5 2.9c27 31.2 65.4 43.7 105.1 48.2 81.8 9.3 81.8 9.3 98.4 25.9.7 4.2.7 7.9-1.6 11.5-3.6 2.2-7.2 3-11.4 2-2.3-.7-4.5-1.6-6.7-2.5-19.4-7.1-38.9-11.4-59.2-14.4l-2.6-.4c-9.6-1.5-18.8-2.6-28.5-2.2q-.3 1.9-.5 3.9l-9.7 64.7q-.2 1-.4 2l-3.2 17.6q-.2 1.1-.5 2.2-.5 2.9-1.1 5.9c-.6 4-.7 7.6-.6 11.7 44.3 21.5 95.9 32.6 145 32.2q3.9 0 7.8 0c17.7 0 34.8-1.1 52.3-3.9q1.2-.2 2.5-.4c67.2-10.6 130-37.3 182.4-80.9 1.5-1.2 1.5-1.2 3-2.5q8.8-7.3 17.2-14.9.8-.8 1.7-1.5c2.7-2.6 4.6-4.7 6.1-8.1q-.6-.8-1.3-1.5c-5-6.2-8.9-12.7-12.8-19.7q-.4-.9-.9-1.8c-21.9-39.9-38.1-82.8-49-127q-.4-1.8-.9-3.6-2.7-11.2-5.1-22.4-.3-1.5-.7-3.1c-3.1-15.2-5.5-30.4-7.6-45.8q-.1-1-.3-2.1-.4-2.9-.8-5.8c-.5-2.9-1-4.8-2.6-7.2-2.5-1.5-4.9-2.9-7.5-4.2-18.1-9.7-29.4-25.3-35.7-44.6-3.7-12.9-5.1-25.7-5-39.1v-2c0-15.6.7-31.1 1.5-46.7.5-9.7.8-19.5.8-29.2q.1-1.3.1-2.6c-.1-12.8-2-25.2-6.4-37.2-1.5-4.7-1.6-7.9.6-12.3 3.2-2.6 5.3-2.9 9.3-3.4 3.1.4 4.8 1.4 7.3 3.3 4.2 7.4 5.6 16.7 7 25q.3 1.5.5 3c1.4 8.7 1.8 17.1 1.8 25.9-.1 1-.1 1-.1 2.1 0 12-.5 24-1.2 36.1-4 49.7-4 49.7 15.7 93.9 7.1 7.7 16.4 12.8 26.9 13.3 24.3.5 41.6-10.8 58.8-27.2 8.8-8.6 15.9-17.8 22.6-28.1q1.2-1.7 2.3-3.5c14.4-22.3 22-50.6 16.4-77-6.8-28-24.3-50.9-43.7-71.5q-1-1.1-2.1-2.2c-4.7-4.9-9.8-9.2-15.2-13.4q-1.8-1.5-3.7-3c-31.4-25.1-67.3-42.8-106.4-52.6-7.9-2-14.3-5.2-21-9.8-10.3-7-22-10.1-33.8-13.5q-1.2-.4-2.5-.7c-30-8.6-60-14-91.2-14h-2.5C427.4 195 365.2 214 321 259z" fill="#01214d"/><path d="M508.3 134.6q1.5 0 3.1 0c55.1.1 110.4 11.6 160.6 34.4q1.3.6 2.7 1.2c18.3 8.2 35.9 18.2 52.3 29.8q1 .7 2 1.4c10.5 7.3 20.5 15.1 30 23.6q1.4 1.2 2.8 2.4c6.5 5.9 12.7 12 18.9 18.1q2.2 2.2 4.3 4.3c6.1 6.1 11.6 12.5 17 19.2q1.3 1.5 2.6 3.1c16.2 18.8 29.5 39.9 41.2 61.8q1.7 3 3.4 5.9c11.5 20.7 20.4 43.4 26.8 66.2q.4 1.4.8 2.8c5.2 18.3 8.5 36.8 10.9 55.7q.2 1.4.3 2.8c1.7 13.3 2.2 26.5 2.2 39.9a16.2 16.2 0 0 1 .1 2.2c-.1 26.5-2.3 52.8-8.3 78.6q-.4 1.9-.9 3.9c-11.3 48.6-30.5 94-59.1 135.1q-.8 1.1-1.6 2.3c-18.7 27-18.7 27-27.4 29.7-5-5.4-8.6-11.1-12.1-17.6q-.8-1.6-1.7-3.2c-27-51.5-43.8-107.7-53.6-164.8q-.2-1.6-.5-3.1c-3.6-21-3.6-21-4.1-31.3q1.6-.3 3.3-.7c23.6-5.2 42.1-16.7 59.7-33.3q1.1-1 2.2-2c26.9-25.4 45.5-63.1 48.1-100 .8-33.5-15.6-64.7-36.3-90q-.7-.8-1.4-1.7c-10.7-13-22.3-25-35.6-35.3q-1.4-1.2-2.9-2.3c-32.4-25.9-72.4-44.6-112.7-54.1-6.2-1.5-10.2-3.7-15.1-7.8-8.1-6.3-18.2-9.4-28-12.3q-3.1-.9-6.1-1.9c-9.3-2.9-18.7-5.3-28.2-7.6q-1.5-.4-3.1-.7c-13.8-3.3-27.7-5.8-41.9-7.3-1.3-.1-1.3-.1-2.6-.3-25.9-2.6-53.8-2.3-79.4 2.3q-1.6.3-3.2.6c-34.9 6.3-70.2 18.8-99.8 38.4q-2.4 1.6-4.9 3.2c-18 11.8-18 11.8-35.1 24.8-.8.6-.8.6-1.5 1.2-8.6 7-16.6 14.5-24.7 22.1q-3.5 3.3-7.1 6.6c-7 6.4-13.7 12.8-19.8 20q-1.9 2.1-3.8 4.2c-27.5 29.2-55.6 74.4-55.4 115.6q0 1.7 0 3.5c.3 23.2 9 40.4 25.2 56.7 9 8.3 19 14 31.1 16.1-1.4 5.3-3.1 10.4-5.1 15.5-3.8 9.6-6.6 19.4-8.9 29.5q-.2 1.1-.5 2.3c-6.5 30.9-3.2 64.2 7.5 93.7q.7 1.9 1.3 3.8c7.2 18.9 17 38.5 31.9 52.5 1.7 1.7 3.3 3.4 4.8 5.3 3.3 3.9 7 7.2 11 10.4q1.4 1.1 2.7 2.2c10.3 7.9 21.7 13.5 33.2 19.3q3.1 1.5 6.2 3.1c6.4 3.3 12.7 5.8 19.6 7.8q1.4.4 2.8.8 3.2.9 6.5 1.8c-.4 13.5-2.5 26.7-4.8 40q-.5 3.1-1.1 6.3-1 6.2-2 12.4-1.1 6.4-2.1 12.9l-.6 3.2q-.5 3-.9 6.1c-1 6.2-2.5 12.1-4.5 18.1-29-3.6-61.2-35.1-81.9-54.1-2-1.8-4.2-3.7-6.3-5.5-3.3-2.8-6-5.9-8.8-9.2-2.4-2.6-4.9-5-7.4-7.5a132.58 132.58 0 0 1-12.2-13.7q-2.6-3.2-5.3-6.4c-14.4-17.1-26.4-36-37.1-55.6q-.7-1.3-1.5-2.7C161.4 658 149.9 624.8 142 590q-.4-1.8-.8-3.7c-11.1-49.5-11.6-104.9.1-154.4q1.1-4.6 2.1-9.2c11.9-52.4 37.1-101.8 70.6-143.7q1.1-1.4 2.3-2.9c4.3-5.4 8.8-10.6 13.5-15.7q2.1-2.3 4.1-4.6c10.6-12 21.9-24 34.6-33.9 2.7-2.1 5.3-4.3 7.9-6.6 12.4-10.3 25.9-19.3 39.8-27.3q2.7-1.5 5.4-3.1c19.2-11.2 39.5-20.3 60.4-27.9q1.4-.5 2.9-1.1c19.9-7.1 40.3-12.1 61.1-15.9l3.9-.8c19.3-3.7 38.8-4.6 58.4-4.6z" fill="#b0d8f8"/><path d="M427.1 506.2c5.8 5.5 10.5 11.2 11.2 19.3.2 18.6-6.3 31.6-18.3 45.5q-.8.9-1.6 1.9c-7.8 8.6-19.2 15.1-30.4 18.1q-1 0-2 0v26l11 1q3.2.5 6.5 1.2 1.6.4 3.3.8 1.7.4 3.4.8l3.7.8c25.1 5.8 46.4 15.5 65.1 33.4q1 .9 2 1.8c5.3 5 10.4 10.5 11.6 18-.9 4.8-2.9 8-6.6 11.2-3 1.1-5.8 1.3-9 1-4.5-2.3-7.2-6.2-10-10.2-14.7-19.2-42.8-28.7-65.8-32.4-5.4-.7-10.7-.7-16.1-.7q-1.7 0-3.5 0c-17.3.3-30.8 5.2-43.6 17.3-1.9 2.3-3.7 4.6-5.4 7.1-2.8 3.4-5.2 3.9-9.5 4.3-3.2 0-5-.7-7.5-2.7-3-3.2-3.5-4.7-3.9-9 .6-6.7 4.9-10.4 9.5-14.9 1.8-1.8 3.3-3.7 4.9-5.7 8.3-9.5 20.3-15.6 31.9-20.1q1.5 0 3 0l-1-29-12-5c-3.8-2.6-6.8-5.7-10-9q-1-1-2.1-2c-11.7-11.9-17.4-28.5-17.3-44.9.3-8.9 3.3-14.9 9.4-21.3 7.7-7 15.9-7.9 26-8.8q1.1-.1 2.2-.3c19.4-2.2 54.4-5.7 70.9 6.5z" fill="#01214c"/><path d="M572 391q1.5 1.1 3.1 2.3c10.1 9.6 15.9 22.1 16.2 35.9.2 17.5-3.3 28.8-15.4 42.1-10.9 10.5-24.6 14.1-39.4 14.1-14.5-.4-26.4-6.7-36.4-17.1-10.6-12.6-14.3-27.1-13.1-43.3 2.3-14.6 9.5-27.6 21.5-36.4 20.2-13.1 44.3-12.1 63.5 2.4z" fill="#ea3220"/><path d="M358.2 398.3c8.5 6 13.5 13.2 16.6 23.1 1 11.3-.4 21.3-7.1 30.6-6.2 7.4-13.3 11.2-22.9 12.4-9.7.3-17-1.8-24.5-7.9-6.6-6.2-10.9-14.8-11.5-23.8-.3-11.8 2-20.9 10.2-29.7 11.1-10.1 25.9-12.5 39.2-4.7z" fill="#01204d"/><path d="M556 405c6.5 4.3 10.4 10 13.3 17.2 2 10.8 1.2 20.6-4.7 30.1-5.4 6.9-12.7 10.9-21.3 12.3-10 .4-17.9-1.9-25.5-8.5-6.7-7.1-10.2-16-10-25.9.9-9.8 5.5-16.9 12.6-23.5 10.2-8.1 24.4-8.3 35.6-1.7z" fill="#01224c"/><path d="M551 340l2.5.6c13.3 3.2 25.6 7.7 37.2 15l1.8 1.2c3.1 2 5.6 3.9 7.5 7.2.5 5 .1 8-3 12-3.8 2.5-5.5 2.5-10 2-2.8-1.1-5.3-2.6-7.8-4.1-21-11.8-44.6-16.3-68.4-15.6-11 .2-11 .2-15.8-4.3-2.2-2.7-2.9-4.5-3.5-7.9.7-4.4 2.5-6 5.5-9.1 13.3-6.7 40.2-.2 54 3z" fill="#03204e"/><path d="M363.1 337.6q1.9 0 3.8-.1c10.2-.1 10.2-.1 13.9 2.9 3.1 3.6 3.5 5.8 3.5 10.6-.5 3.1-2.1 4.8-4.3 7-2.5 1.3-4.3 1.2-7.1 1.2-22.6.6-46.7 2.5-65 17.5-3.4 2.3-6.9 1.9-10.9 1.3-3.2-1.8-4.6-3.2-6.3-6.4-.8-2.9-1.2-4.7-.7-7.6 12.5-15.8 35.8-22.4 54.8-25.6 6.1-.7 12.2-.7 18.3-.8z" fill="#021f4d"/></svg>