<svg xmlns="http://www.w3.org/2000/svg" width="1024" height="1024" xmlns:v="https://vecta.io/nano"><path fill-rule="evenodd" d="M293.4 265.7c32.4 8.9 32.4 8.9 58.6 31.6 1 .9 1 .9 2 1.7 4.4 3.8 8.7 7.6 12.8 11.6q.8.8 1.5 1.6 6.1 6.1 12 12.6l14 15A564.67 564.67 0 0 1 409 356q2.2 2.6 4.4 5.1.7.8 1.4 1.5c2 2.5 3.4 3.6 6.2 5.4 2.6 0 4.8-.5 7.3-1.2q2.6-.8 5.3-1.4 1.3-.3 2.6-.6c23.5-5.3 47-7.2 71.1-7.1q5.9 0 11.8.1 3.9 0 7.8 0 2 0 3.8 0c10.8 0 21.5.5 32.2 2.2a16.6 16.6 0 0 1 2.2.3c5.8.9 11.4 2 17.1 3.2q1.2.3 2.3.6l8.5 1.9c2.9.9 5.6 1.7 8.6 2.3 4-.5 4-.5 9.4-6.7q1.8-2.3 3.7-4.5l1.6-1.8c3.2-3.7 6.4-7.3 9.7-10.8l7.6-8.3c4-4.7 8.1-9.1 12.5-13.4q1.3-1.3 2.5-2.5c10.2-10.2 20.4-20.1 31.6-29.1l2.8-2.2c11.8-9.7 24.2-18.4 39.2-22.4 9.5-2 17.7.2 25.8 5.4 13.8 12.1 19 30.4 20.9 48.1l.2 2.5c.9 9.9 1.2 19.7 1.1 29.7q0 4.7 0 9.4c0 16.6-.5 33.2-1.8 49.8l-.2 2.6c-.7 8.7-1.7 17.4-2.7 26.2q-.4 3.4-.8 6.9c-.6 5.9-1.2 11.9-2.2 17.8-2.1 11.2-1 18.3 4.2 28.4 11.9 23.1 16.8 49.5 16.4 75.2q-.1 1.7-.1 3.4c16-.3 34.6-2.5 50 3 2.6 2 3.8 3.1 4.5 6.3q-.1 1.2-.1 2.3c-.1 3.3 0 4-2.4 6.4-4.6 3-8.3 3.3-13.5 3.3h-2.9q-4.7 0-9.3-.1-3.2 0-6.4 0-8.6-.1-17.2-.2-.9 0-1.7 0c-2.8 26-2.8 26-10.4 51.1q-.3 1-.6 1.9c12.6 0 28.9 6 40 12 2.9 3 3.9 4.3 4.5 8.5-.6 4.2-1.1 5.8-4.5 8.5-11 .1-11 .1-21.8-3.1q-1.9-.5-3.8-1.1-3.1-.9-6.2-1.8-2.2-.6-4.4-1.3-5-1.4-10.1-2.9-1.4-.4-2.7-.8c-.9 4.6-.9 4.6-3.3 8.7-.8 1.7-.8 1.7-1.7 3.3-5.6 10.6-11.5 20.7-18.7 30.3q-.7.9-1.3 1.7c-6.1 8.2-12.4 15.9-19.8 22.9q-2.5 2.4-4.9 4.8c-8.7 8.4-17.7 16-27.5 23q-.9.7-1.8 1.3c-50.8 36.5-113.4 48.9-174.8 49.1q-1.3 0-2.4 0c-15 .1-29.8-.4-44.7-2.8q-3-.5-6-.9c-15.9-2.4-31.2-6.1-46.5-11.2q-1.1-.4-2.2-.8c-13.5-4.5-26.5-9.5-39-16.1q-1.2-.7-2.4-1.3c-46.9-24.7-83.3-60.2-106.6-108q-.7-1.5-1.4-3-7.8 1.9-15.5 3.9-3.6.9-7.2 1.9-1.8.4-3.6.9-1.9.5-3.7 1-1.8.4-3.6.9-3.2.8-6.4 1.4c-4.4.3-6.2.5-9.9-2.1-2.6-3.6-2.7-5.5-2.1-9.9 8.5-7.7 8.5-7.7 19.9-11.2q1.6-.5 3.1-1c5.7-2 11.2-3.9 17.3-4.5q1.9-.2 3.7-.3c-6.3-16.3-9.8-32.8-11.8-50.1q-.1-1-.2-1.9-7.7-.1-15.5-.3-3.2-.1-6.3-.1-4.7-.1-9.3-.2-1.5-.1-3-.1-1.4 0-2.9 0-1.3-.1-2.6-.1c-2.9-.1-4.6-.3-7.4-1.2-2.7-2-4.7-3.6-5.5-7-.1-3.3.1-5.5 2.2-8.1 15.2-5.9 15.2-5.9 32.3-5.1q2.4 0 4.8 0 5.6.1 11.2.2 1.5 0 3 0 0-2.9 0-5.8v-2.4c0-5.4-.1-10.7.6-16.1q.2-1.4.4-2.7c2.7-18.5 7.6-35.5 15.4-52.4l1.6-3.5q.8-1.7 1.6-3.3c2.9-6.1 2.6-10.7 1.7-17.3q-.3-2.1-.6-4.3-.2-1.1-.3-2.3c-4.6-32.9-6.6-65.8-6.7-99q0-2 .1-3.9 0-5.6 0-11.1 0-1.8 0-3.5c.1-22 1.5-46.8 15.2-65 6.7-7.9 14-12.5 24.4-13.7z" fill="#fe9e00"/><path d="M335.9 284.5q.7.6 1.5 1.2 2.6 2.1 5.3 4.2c16.3 12.9 31.9 27.3 45.5 43 2.9 3.4 5.9 6.6 9 9.8q8 8.5 15.9 17.1 2 2.1 3.9 4.2.9 1.2 1.8 2.5c2.2 1.9 2.2 1.9 5.7 1.2q2.1-.6 4.3-1.2 2.4-.6 4.8-1.2 1.3-.3 2.7-.7c4.8-1.1 9.6-1.9 14.5-2.7 1.4-.3 1.4-.3 2.7-.5 18.9-3.1 37.6-3.7 56.7-3.7q5.9.1 11.8 0c17.7 0 34.8.9 52.2 4.2q1.3.2 2.7.5c7.1 1.3 14.1 3 21 5 3.1.6 4.2.6 7.1-.4 1.7-1.3 1.7-1.3 3.2-2.9l1.8-1.8q.9-.9 1.8-1.9c1-.9 1-.9 1.9-1.9 3.6-3.7 7.2-7.5 10.5-11.5 3.2-3.6 6.5-7.1 9.8-10.7q2.5-2.7 5-5.5c5.6-6.3 11.4-12.4 17.4-18.4q1.3-1.3 2.6-2.6c6-6.1 12.3-11.5 19-16.8q1.9-1.6 3.8-3.2c13.5-11.2 30.6-24.3 49-24 10.3 1 17.6 5.8 24.3 13.6 9.2 12.3 12.6 28.2 14 43.2a26.6 26.6 0 0 0 .3 2.8c.9 10.7.9 21.5.9 32.3-.1 1.6-.1 1.6-.1 3.2-.1 36.4-2.4 73.1-8.4 109-1.1 6.8-.2 11.6 2.5 17.8l1.4 3.3a55.21 55.21 0 0 1 1.6 3.4c10.9 25.4 16 49.9 15.7 77.6q1.4 0 2.8 0c42.4-.7 42.4-.7 49.6 4.8 2.3 3.1 2.2 5.3 2.1 9.1-.5 2.1-.5 2.1-2.8 4.6-3.6 2-6.2 2.6-10.2 2.6h-2.7q-1.4 0-2.9 0h-3.1q-4.7 0-9.5 0-3.2 0-6.5-.1-7.9 0-15.8 0-.2 1.7-.4 3.5c-.9 8.8-1.9 17.3-4 25.8q-.3 1.4-.6 2.8c-1.7 7.1-3.7 14-6 20.9a39 39 0 0 0 3.4.3c4.9.7 9.6 2 14.4 3.5q1.3.4 2.6.8c19.3 6 19.3 6 23.6 12.4.6 4 .3 6.3-1.4 9.9-4 3.2-7.6 2.6-12.6 2.1-5.7-1.2-11.2-2.8-16.7-4.4q-2.3-.6-4.5-1.2c-6-1.7-11.9-3.4-17.8-5.4-.4 1.2-.4 1.2-.7 2.4-8.6 24-25.9 45.4-43.3 63.6q-.8.8-1.5 1.6c-7.4 7.8-15.1 14.7-23.7 21.1q-2.6 1.9-5.2 4c-59 45.6-143.6 59.5-216.4 51q-2.6-.3-5.2-.7-1.5-.2-3-.4c-65.6-9-133.1-38.6-175-91.6q-1.2-1.4-2.4-2.9c-11-14-20-29-27.6-45.1q-.5-1-1-2-1.3.3-2.7.7-2.9.7-5.9 1.4-6.8 1.7-13.6 3.5-1.5.4-3.2.8-3.1.8-6.3 1.7c-5.2 1.3-9.9 2.4-15.3 1.9-3.7-2.6-4.8-4-5.6-8.5.8-4.4 2.2-5.6 5.6-8.5 7.7-4.3 16.2-6.8 24.6-9.4 1.2-.4 1.2-.4 2.6-.8 4-1.2 7.6-2.2 11.8-1.8q-.6-1.6-1.2-3.3c-2.7-7.9-5.2-15.7-7-23.8-.3-1-.3-1-.5-2-1.6-7.6-2.4-15.2-3.3-22.9h-3.9q-7.3-.1-14.6-.3-3.1 0-6.2 0-4.6-.1-9.1-.2h-2.8c-5.2-.1-9-.5-13.4-3.5-2.1-3.2-2.3-5.2-2.5-9 .7-2.9 2.2-4 4.5-6 10.4-3.8 21.5-3.4 32.4-3.2q2.4 0 4.8.1 5.9 0 11.8.1v-3.4c-.1-8.1-.1-16 1.3-24l.4-2.7c2.6-16.5 6.4-31.9 13.7-46.9.6-1.3.6-1.3 1.3-2.7q1.2-2.5 2.5-4.9c3.3-6.9 2.9-12 1.8-19.4q-.4-3.5-.8-7-.5-4-1-8c-3.7-31.1-5.4-61.7-5.4-93q-.1-1.9-.1-3.8c-.2-61.5-.2-61.5 20.1-82 19.3-17.6 44.8-3.2 62.1 10.3zm-53.5 7.2c-10 13-11 29.8-10.9 45.5q0 2.4 0 4.8 0 5.1 0 10.1.1 6.3 0 12.6c0 30.3 1.9 60.3 6.1 90.3q.4 2.4.7 4.9c.9 7.3.9 7.3 2.3 14.6 1.1 6.3.2 10.8-2.3 16.6l-.8 2q-.9 2.1-1.8 4.1-2.3 5.4-4.5 10.8-.4 1.1-.9 2.2c-3 7.4-5.4 14.9-7.3 22.8q-.3 1.3-.7 2.7c-2.6 12.3-3.5 25.7-3.3 38.3q1.2.2 2.4.4 5.3 1 10.6 2 3.3.7 6.5 1.3c27.4 5 27.4 5 38.3 7.9q1 .3 2.1.6c2.9.8 4.9 1.6 7 3.7 1.6 3.1 1.4 5.7 1.1 9.1-1 2.8-1.4 3.7-4 5-5.9.5-11.5-.3-17.3-1.5q-1.1-.2-2.3-.4-3.6-.7-7.1-1.5c-18-4.1-18-4.1-36.3-5.6.5 15.2 3.2 32.3 10 46q9.5-1.6 19.1-3.3c34.7-6.2 34.7-6.2 45.9-2.7q.4 2.4.7 4.7.2 1.4.4 2.7c-.1 2.6-.1 2.6-1 4.8-3.3 2.9-7 3.3-11.2 4.2q-1.4.3-2.9.6c-14.2 3-28.6 5.5-43 8 5 28.7 36.8 59.2 59 76a83.68 83.68 0 0 0 3.1 2.4c9.5 7 19.6 12.9 29.9 18.6q1 .6 2 1.1c11.9 6.4 24.4 11.2 37 15.9a15.71 15.71 0 0 1 2.3.9c9.6 3.6 19.3 6.1 29.3 8.3q1.5.3 3.2.7c20 4.2 40.2 5.6 60.6 5.4q5.4 0 10.7 0c55.8 0 109.8-11.1 156.9-42.3q.9-.6 1.9-1.2c18.5-12.4 35.6-28.1 49.1-45.8q1.2-1.6 2.4-3.2C739 679.6 739 679.6 746 660q-1.6-.3-3.2-.6-6.1-1.1-12.2-2.2-2.6-.4-5.2-.9c-8.8-1.6-17.7-3.3-26.5-5.3q-1.9-.5-3.8-1c-3-1-4.4-1.4-6.1-4-.8-6.9-.8-6.9 1.6-10.2 3.2-2.4 6-2.4 9.8-2.2q1.1 0 2.3 0c16.9.5 33.7 4.3 50.3 7.4 3.1-6.4 5.2-12.7 6.7-19.6q.3-1.4.6-2.9c1.7-7.9 2.5-15.5 2.7-23.5-10.7.5-21 2.4-31.5 4.5q-2.4.5-4.9 1-7.7 1.5-15.4 3.1c-3.8.7-7.4.9-11.2.4-2.1-1.5-2.1-1.5-3-4-.7-5.5-.7-5.5 0-8 3.7-4.7 7.7-6.4 13.3-7.9q1.2-.3 2.6-.7c16.7-4.4 34-6.7 51.1-9.4-.3-13.5-1.1-26.7-4-40l-.4-2c-2.8-12.3-7.6-23.9-12.5-35.5-4.5-10.6-5.8-17.1-3.4-28.4 2-9.9 2.9-19.9 4-29.9q.6-5.2 1.2-10.5c2.6-22.7 3.3-45.1 3.3-67.9q.1-5.7.1-11.3 0-4.5 0-8.9 0-2.1 0-4.2c.2-16.3-1.8-33.9-13.3-46.4-3.9-3.5-7.2-4.8-12.3-4.6-21.4 4.5-41.2 26.4-56.7 40.6q-1.5 1.3-2.9 2.6c-12.6 11.3-23.9 23.8-35.1 36.4q-3.4 3.7-6.7 7.5-2.4 2.6-4.7 5.2-1.2 1.4-2.3 2.7-1.1 1.2-2.2 2.5c-3.3 3.2-5.6 4.9-10.3 5.5-4.7-.5-8.8-1.7-13.3-3.2-13-4.3-26.2-6.6-39.7-7.9l-2-.2c-26.9-2.5-55-2.7-81.8.9-1.2.2-1.2.2-2.4.3-14.7 1.9-29.5 4.9-43.6 9.7-3.4.6-5.7.8-8.7-1-7.4-6.2-13.8-13.9-20.3-21q-1.5-1.6-3-3.2l-10.4-11.5c-11.6-12.9-23.6-25.9-37.3-36.5-2.3-1.8-4.4-3.7-6.5-5.6-12-10.7-26.6-23.7-43.6-23.5-4.8.6-7.6 3.6-10.8 7z" fill="#02123b"/><path d="M552 110c2.7 1.8 4.5 3.1 6 6 .2 4.9-.3 9.3-1.4 14.1q-.2 1-.5 2.1-.7 3.3-1.5 6.7-.5 2.3-1 4.7l-10.4 43.1q-.3 1.3-.6 2.6-.6 2.3-1.2 4.7c-1 4-1.7 7.9-2.4 12q1.1 0 2.3 0 10.8-.2 21.6-.3 5.6 0 11.2-.1 5.3-.1 10.7-.1 2 0 4.1 0c12-.3 12-.3 15.9 2.9 2.9 3.4 3.1 4.9 2.8 9.2-1.1 4.6-3.8 7.8-6.6 11.4q-1.1 1.5-2.3 3-3.2 4.2-6.4 8.3-1.9 2.5-3.9 5-6.8 9.1-14.1 17.8l-9 11.4q-5 6.5-10.2 12.8-6.4 8-12.5 16.1c-5.4 7.1-11 14.1-16.7 21-3.1 3.8-6.1 7.7-9.1 11.6-3.2 3.5-5.6 5.8-10.3 6.6-3.5-.6-3.5-.6-6.4-2.2-5.2-8.5-1.8-21.8-.4-31.3l.6-3.7q2-14 4.5-27.9.2-1.4.5-2.8.2-1.2.4-2.4c.3-2.5.3-4.8.3-7.3h-2.3q-10.9 0-21.7-.1-5.6-.1-11.1-.1-5.4 0-10.8-.1-2 0-4.1 0c-12 0-12 0-15.3-3-1.9-3-2.6-5.4-2.3-9 6.2-26.5 32.8-53.7 48.9-75.4q2.4-3.3 4.8-6.5c6.6-8.9 13.4-17.5 20.4-26q2-2.4 4-4.9c4.3-5.3 8.7-10.4 13.3-15.4 2.9-3.3 5.6-6.8 8.3-10.4 4.3-4.8 7.6-5.8 13.9-4.1z" fill="#fe9d00"/><path d="M509 579.7q3.9 0 7.8 0c24.7 0 24.7 0 33.2 6.3 5.1 5.6 6.4 10.6 6.3 18-1 10.7-7.6 18-15.4 24.8-10.4 8.2-10.4 8.2-15.9 8.2-.7 5.2-1 10.1 1 15 3.9 4.6 9.4 7.4 14.5 10.5 4.2 2.5 8 5.4 11.9 8.2q1.2.9 2.3 1.7c15.7 11.4 15.7 11.4 17.3 14.6.6 5.3-.7 7.9-4 12-3.4 1.7-6.4 1.7-10 1-8-3.6-15-9-22-14.2l-14.4-9.9q-1.2-.9-2.6-1.8-3-2-6-4.1c-6.1 3.1-11.6 6.8-17.1 10.9-5 3.7-10.3 7.1-15.5 10.5q-1.6 1.1-3.2 2.2c-11.7 7.7-11.7 7.7-19.2 6.4-4-3.3-4.7-4.9-5.9-9.9.3-3.8 1.8-5.4 4.5-8 5-4 10.2-7.7 15.4-11.3q4.4-3.1 8.7-6.3 1.2-.8 2.5-1.7 2.3-1.8 4.7-3.5 1.1-.8 2.2-1.6.9-.7 1.9-1.4c2-1.3 2-1.3 7-3.3v-16l-6-2c-11.1-6-19-13.4-24.3-24.8-1.5-7.1-1.8-14.1 2-20.5 4.9-6.4 11.5-8.1 19.2-9.4 6.4-.9 12.8-.7 19.1-.6z" fill="#01123c"/><path d="M360 513c2.1 1.5 3.9 3.3 5.8 5.1 9.8 8.5 23.1 11.5 35.7 11.2 12.6-1 22.3-6 32.2-13.7 5.6-4.2 5.6-4.2 9.7-4.3 4 .8 5.8 1.8 8.6 4.7 1.6 3.1 1.3 5.6 1 9-7 12.3-21.8 19.2-34.8 23.5-20.7 5-42.1 1.3-60.2-9.5-3.2-2.2-6.1-4.4-9-7q-1.1-1-2.2-1.9c-2.9-3.4-3-6.8-2.8-11.1 1.2-3 2.1-4.4 4.8-6.1 3.9-1.6 7.3-1.1 11.2.1zm224-1c2.8 1.4 5.2 3.2 7.7 5.2 6.8 5 13.1 8.3 21.3 10.8q1 .3 1.9.6c12.3 2.4 25.3-.2 36.2-6.4 3.4-2.3 6.4-4.8 9.5-7.6 3.6-2.4 7.1-2.8 11.4-2.6 3.7 1.6 4.8 2.7 7 6 .5 5 .2 8-3 12-12.2 13-29.7 19.6-47.2 20.2-21.9.4-40.6-6.1-56.8-21.2-1.9-3.7-1.5-7.9-1-12 3.3-5.2 7.1-6.1 13-5z" fill="#02123d"/></svg>