<svg xmlns="http://www.w3.org/2000/svg" width="1024" height="1024" xmlns:v="https://vecta.io/nano"><path d="M603 149c4 7 4.2 14.1 4.3 22q0 1.1 0 2.3.1 3.8.1 7.6 0 1.4 0 2.7c.1 19.8-1.7 39.4-3.6 59-2.5 22.7-2.5 22.7 1 45.1q.8 3.1 1.6 6.2.4 1.5.8 3.1c2.7 10.4 5.4 21.2 5.8 32q0 1 .1 2c.8 24.3-5.6 45.7-17.1 67q-.6 1.1-1.2 2.2c-4.7 8.9-9.7 17.6-15.7 25.8-2.8 3.9-4.2 7.1-4.1 12 2 2.7 2 2.7 5 5q.8.7 1.7 1.4 2.8 2.3 5.7 4.6c20 16.1 40 33.2 56.6 53q1.1 1.3 2.3 2.7C687.6 552.1 713 607.6 725 669q.3 1.4.6 2.9c2.4 12.4 2.6 24.6 2.7 37.2q0 2.8.1 5.6c.1 11.2-.4 21.6-3 32.5-1.2 5.2-2.1 10.4-1.4 15.8q1 1.5 2 3c4.7.4 4.7.4 9-1 .9-2.3 1.7-4.5 2.4-6.8q.3-1.1.6-2.2c2.1-7.3 2.9-14.6 3.8-22.1 1.5-11.6 4.4-19.9 10.2-29.9 14-28.3 13.5-65.7 8-96l-.4-2.4c-6.3-36.1-19.2-70.3-32-104.5q-6.1-16.3-11.7-32.9-.3-.9-.6-2c-12.3-36.5-16.9-77.7.7-113.5 4.9-9.7 11.2-18.3 18-26.7q.7-.8 1.4-1.7a52.85 52.85 0 0 1 9.6-9.3q1 0 2 0 0-1 0-2c2.4-1.8 4.9-3.4 7.4-4.9q1.1-.7 2.3-1.4c7.7-4.7 15.1-8.2 24.3-6.7 4.1 1.3 7.1 3 10 6.1 1.5 4.5 1.8 8.3 1 12.9-3.3 6.7-8.5 11.8-14.1 16.7q-2 1.9-4.1 3.8-1 .9-2 1.8c-17 15.7-27.7 34.9-29.6 58.1q-.1 3.3-.2 6.6-.1 1.3-.2 2.6c-1.2 31.6 13.6 64.4 24.9 93.1 18.3 46.3 33.5 92.5 33.5 142.7q0 4.2 0 8.5c.1 14.6-.8 28.9-4.3 43.2q-.3 1.3-.6 2.6c-7.6 29.7-21.8 58.2-43.3 80.3q-1.2 1.3-2.5 2.7c-24.2 25.4-55.2 34.7-89.5 37.3q-1.9.2-3.9.3c-40.6 3.1-81.5 1.9-122.1 1.7q.2-3.6.4-7.2 0-1 .1-2c.2-5 1.5-8.6 3.8-13 .9-1.9.9-1.9.2-4.6-1.7-2.5-3.1-4.4-5.5-6.2-2.5-.5-2.5-.5-5 1-7.3 7.7-8.1 19.9-9 30-9-3-9-3-12-7-1.1-7.1-1.1-15.1 2.7-21.3q.7-.8 1.3-1.7.7-.9 1.4-1.9c3.9-5 7.8-7.6 14.2-8.8q1.9-.2 3.9-.4c1.9-.2 1.9-.2 3.8-.5q2.4-.2 4.7-.4 1.4-.1 2.9-.3c10-.8 20.1-.9 30.2-.8q4.3 0 8.7 0c9.1 0 18.2.1 27.2.9 4.2.3 8.4.4 12.6.5q1.2 0 2.3 0c3.3 0 5.7-.1 8.6-1.6 1.8-1.8 1.8-1.8 1.9-5.2-.1-3.4-.1-3.4-1.7-5.4-3.9-2.5-8.7-2.4-13.3-2.7q-2.2-.2-4.5-.4-3.5-.3-7.1-.5-3.4-.3-6.8-.6-1.1-.1-2.1-.1c-11.5-1-21-8.3-28.7-16.5-13.9-17.2-19.8-36.9-17.6-58.8 2.5-21.8 10.8-46.6 26.4-62.5q1 0 2 0 .3-.8.6-1.7c2-3.2 4.7-5.2 7.6-7.5q1-.7 1.9-1.4c5.4-4.2 11-7.8 16.8-11.2 3.5-2.5 5.6-4.8 8.1-8.2-.1-3.1-1.2-4.3-3-7-8.7-1.4-14.8 2.4-22 7q-.9.5-1.7 1.1c-27.1 17.5-42.6 44.4-49.9 75.4-4.9 23.9-2.5 51.2 10.3 72.3 2.7 4 5.6 7.6 8.7 11.2 2.6 3 2.6 3 2.6 5q1 0 2 0 0 1 0 2-1.5.1-3 .1-5.7.3-11.3.6-2.5.1-4.9.2c-17 .7-17 .7-32.4 7.2q-1.2.8-2.4 1.6-1 .6-2 1.3-1 .5-2 1c.6-6.2 1.6-11.9 3.2-17.8q.7-2.6 1.4-5.1.4-1.3.7-2.7c5-18.5 9.4-37.1 13.5-55.8 1-4.9 2.2-9.7 3.4-14.4q1.4-5.7 2.7-11.4.2-1 .5-2.1 1-4.4 2-8.9c2-8.5 4.1-16.8 6.8-25.2 1-3.4 1.3-6 .8-9.6-1.7-3.3-1.7-3.3-5.4-3.9-3.6-.5-3.6-.5-5.7 1.5-6.9 8.6-8.5 22.5-10.9 33q-1.6 7.1-3.2 14.2-.3 1.5-.7 3l-12.6 52.3q-1.8 7.2-3.6 14.4c-15.3 62.6-15.3 62.6-26.9 74.5q-1 0-2 0-.5 1.5-1 3c-10.9 9.5-22.3 12.2-36.4 12.1q-1.4 0-2.8-.1-3.4 0-6.8 0c-.5-15.9-.5-15.9 3-24-.2-2.8-.7-4.5-2-7q-3.5-.6-7-1c-6.2 7.2-7.4 18.8-9 28-3.5-.3-5.5-.6-8.3-2.9-3.4-4.3-3.1-8.9-2.7-14.1 1.9-9.5 6-16.5 14-22 3.3-1.5 6.6-2.6 10.1-3.6 9.8-2.6 9.8-2.6 16.9-9.3 2.5-5.5 4.1-10.9 5.4-16.8q.3-1.4.6-2.8c2.7-12.4 4.9-24.9 7.1-37.4q1.4-8.2 2.9-16.3.3-1.9.7-3.9 3.7-20.7 7.8-41.3c2.3-9.9 2.3-9.9-.1-19.2-2.4-1.7-2.4-1.7-5.5-1.3-3.1.8-3.1.8-5.9 2.9-.7 2.7-1.3 5.2-1.8 7.9q-.5 2.7-1 5.4-.2 1.6-.5 3.2-1.2 6-2.4 12.1-.2 1.1-.4 2.3-.5 2.3-.9 4.7l-9.4 49.6q-2 11.2-4.1 22.4l-.6 3.4c-2.7 14.5-2.7 14.5-7.4 17.7-4.8 1.8-9.6 3.1-14.5 4.3l6.4-30c2.4-10.2 4.5-20.3 6.2-30.6 1.1-7 2.5-13.9 3.9-20.8 6-26.6 6-26.6 6.5-53.6-1.8-2.2-1.8-2.2-3.9-2.2q-3.1.1-6.1.2c-2.7 5.6-3.9 10.8-4.8 16.9q-.3 1.5-.5 2.9-.5 3.1-1 6.2-1.3 8-2.7 16-.2 1.6-.5 3.2c-2 11.9-4.4 23.8-7 35.5q-.9 3.9-1.7 7.9-1.8 7.9-3.6 15.8-.7 3.1-1.4 6.2c-2.4 10.5-4.8 21-7.9 31.3q-.4 1.2-.7 2.4c-5.3 17.2-13.7 33.8-30.2 42.7-9.5 4.3-21.4 8.8-31.8 5q-1.1-.5-2.2-1 .2-4 .4-8 0-1.1.1-2.3c.2-3.8.6-7.3 1.6-11.1 1.2-3.5 1.2-3.5-.1-6.5-2.6-2.7-4.3-2.9-8-3.1q-1.5.5-3 1l-5 28c-4.4-.7-6.7-1.9-10-5-2.6-7.9-.6-15.9 2.8-23.2 1.9-3.6 4.1-6.1 7.2-8.8q.8-.7 1.6-1.4c3.7-2.4 7.7-3.4 11.9-4.7q2.5-.7 5.1-1.5 1.1-.3 2.3-.7c3.2-1.1 3.2-1.1 6.1-2.7q1.1-2.5 2-5 .5-1.1 1-2.3c3.3-8.4 4.8-17 6.3-25.8q.5-2.5 1-5 .9-5.2 1.8-10.4 1.2-6.6 2.4-13.1c2.9-16.3 5.9-32.6 7.9-49q.6-4.6 1.4-9.1c4.1-24.8 4.5-49.8 4.7-74.9q.1-8.7.3-17.4 0-3.2 0-6.4.2-15.9.7-31.9.1-1.8.1-3.7c.3-8 .8-16 1.4-24q.3-3.5.4-7.1c0-1.5 0-1.5.1-3.1-.7-3.9-2.5-5.2-5.5-7.8-.8-.7-.8-.7-1.5-1.4q-2.6-2.1-5.1-4.3c-17.3-14.7-17.3-14.7-23.5-22.1a181.87 181.87 0 0 0-5.9-6.5c-15-16-15-16-15-20.7 1.2-.2 1.2-.2 2.5-.3q4.6-.6 9.2-1.2 2.9-.4 5.9-.8 1.9-.3 3.8-.5 1.7-.3 3.5-.5c3.2-.7 5.4-1.7 8.1-3.7 1.2-2.4 1.2-2.4 1-5-2.2-2.8-3.6-3.9-7-5l-8.6-.2q-1.2 0-2.5 0c-8.7.1-17.3 1-25.9 2.2-7.7-14.6-7.7-14.6-9-22 4.4-.1 8.6-.1 13 .5 4.6.6 9.3.6 13.9.7q1.2 0 2.3 0c2 0 3.9-.1 5.8-.2 2.4-1.9 2.4-1.9 2.3-5.4 0-3.4 0-3.4-1.4-5.2-2.6-1.9-4.9-2.3-8.1-2.8q-.9-.2-1.9-.4a301.53 301.53 0 0 0-13.2-2.1q-1.6-.2-3.2-.5-3.3-.5-6.5-.9-1.5-.2-3.1-.4-1.3-.2-2.7-.4c-2.2-.9-2.2-.9-3.5-3.3-6.5-23.1-.7-50.7 7.7-72.5 2.3-7.9 1.8-16.1 1.8-24.2v-2.2c0-9.9-.4-19.7-1.2-29.6-.9-11.5-1.2-23-1.3-34.5q0-2.8 0-5.6c-.3-27.8-.3-27.8 4.3-37 13.8.8 24.3 10.2 35 18q1.1.8 2.2 1.6c8.3 6.1 16.2 12.4 23.8 19.4q1.9 1.6 3.7 3.2c4 3.5 7.8 7.2 11.5 10.9q.9.9 1.9 1.8c2.5 2.6 4.9 5.1 7.1 7.9 1.8 2.3 3 3.3 5.8 4.2 5.1-.2 9.8-1.2 14.8-2.4 25.5-6.3 50.7-5.7 76.5-1.4 15.6 2.9 15.6 2.9 29.7-2.8 5.4-4.4 10.5-9.1 15.5-14 3.1-2.9 6.3-5.6 9.5-8.4q1.5-1.3 3.1-2.7c47.5-41.2 47.5-41.2 65.9-40.3z" fill="#fe9e00"/><path d="M611.9 134.6c6.9 5.4 9.9 11.8 11.1 20.4.2 3 .2 6 .2 9q.1 1.3.1 2.7 0 4.4 0 8.7 0 1.5 0 3.1c.1 24.5-.4 50.4-5.3 74.5-1.2 14.8.2 28.1 4.4 42.3 3.7 12.8 6.2 26.4 6.6 39.7q0 1 .1 1.9c.8 18.1-3 34.6-10.1 51.1q-.5 1.1-.9 2.2c-5 11.4-11 22.2-17.7 32.8q-.8 1.4-1.8 2.9-.7 1.3-1.6 2.6c-1.2 3-1 4.5 0 7.5 2 2.1 2 2.1 4.6 4q1.5 1.2 3.1 2.4.8.6 1.6 1.3c10.9 8.6 20.8 18.2 30.6 27.9q.8.9 1.7 1.8c7.3 7.2 14 14.6 20.4 22.6q1.4 1.6 2.8 3.3c44.4 50.9 70.6 113.2 79.8 179.8.2 1.9.2 1.9 1.4 2.9q1-4.7 1.9-9.5l.6-2.7c4.6-22.9 3.3-46-1.5-68.8l-.6-2.8c-1.3-6.4-2.8-12.8-4.4-19.2-.4-1.5-.4-1.5-.7-2.9-5.8-23.1-15-44.7-24.3-66.5-4.4-10.5-8.3-21.1-12-31.8q-1.4-3.8-2.7-7.6c-2.8-8-5.1-16-7.1-24.3q-.3-1.2-.6-2.6c-2.5-10.7-2.8-21.2-2.8-32.2q-.1-1.1-.1-2.3c.1-11.2.6-21.9 3.3-32.8q.3-1.1.5-2.2c5.5-23 15.5-44.2 31.5-61.8q1.2-1.4 2.5-2.8c10.3-10.9 25.4-22.2 40.8-23.4q4.2-.1 8.3-.1 1.4-.1 2.9-.1c9.8-.1 17.7 2.7 24.8 9.5 5.6 6.2 6.4 12 6.1 20.3-1.6 13.1-9.6 22.4-19.2 30.7-17.1 15-31.5 31.2-33.2 54.9-1.7 30.3 9.5 58.6 20.7 86.2 12.1 29.9 23.1 59.9 30.9 91.2q.3 1.3.7 2.6c5.2 20.9 6.9 41.2 7 62.7q0 1.4 0 2.9c-.1 21.1-1.4 42-7.3 62.4q-.3 1-.6 2.1c-4.9 16.8-12.2 33.6-22.4 47.9l-1.5 2.1c-25.2 35.4-54.6 62.8-99 70.3-32 5-64.9 4.8-97.2 5.3q-1.7 0-3.4 0-3.1.1-6.2.1-1.4 0-2.9 0-1.2 0-2.4.1c-2.6.1-4.9.6-7.4 1.1-13.7.8-27.5.4-41-2q-1.8-.3-3.7-.6c-11.1-2.1-20.5-5.3-27-15-2.3-4.3-2.5-8.3-2.9-13.2q-.1-1.7-.2-3.5-.1-1.3-.2-2.7l-1.6 3.4c-7.3 14.7-19.8 25.3-35.1 30.9-18.7 6-43.7 4.6-61.3-4.3-6.7-4.3-10-9.8-13-17-.6.6-.6.6-1.1 1.3-11.6 12.3-27.4 18.8-44.1 19.9-15.6.4-31.2-2.4-44.4-10.9-4.3-4.2-6.5-8.8-6.9-14.8q-.1-2.3 0-4.7 0-1.2 0-2.5c.4-11.1 3.5-20.6 10.5-29.3q.7-.9 1.5-1.9c6.3-7 14.8-10.3 23.6-13 3.9-1.4 4.6-1.7 6.8-5.4q.6-2.3 1.1-4.7.7-2.7 1.4-5.3c2.2-8.7 4-17.3 5.5-26.1q.2-1.1.4-2.1c2.6-14.2 4.7-28.4 6.8-42.7q1-6.4 2-12.9c4.2-26.1 5.9-52.2 6.4-78.6q.1-2.8.1-5.6.2-7.3.3-14.5.2-8.7.4-17.4.2-7 .3-14.1c.2-8.3.4-16.5 1.1-24.8q.1-2.1.3-4.2.2-3.7.7-7.4c.3-5.2.3-8-3-12.2-2.8-2.5-5.7-4.8-8.7-7.1q-2.2-1.9-4.4-3.9c-2.1-1.8-4.2-3.5-6.3-5.2-2.5-2.1-4.3-4.4-6.3-6.9l-2.2-2.2c-10.7-10.7-20.1-22.7-27.8-35.8-17.7 2.8-35.4 5.6-52.9 9.7q-1.8.5-3.7.9c-4.3 1.1-8.5 2.1-12.6 3.5-2.7.9-4.7 1.2-7.5 1.2q-1.1 0-2.2.1c-2.7-.5-3.5-1.3-5.1-3.4-.5-2.9-.5-2.9 0-6 4.1-4.3 8.8-5.5 14.4-6.9q1.3-.4 2.8-.8c9.5-2.6 19.2-4.7 28.9-6.6q4.4-.9 8.8-1.8 2.9-.6 5.7-1.1 1.3-.3 2.7-.6c3.9-.8 7.6-1.4 11.7-1.2-1.9-6.7-4.1-13.3-6.3-19.8-.8-2.5-1.7-5-2.2-7.6q-.3-.8-.5-1.6c-2.4-1.2-4.2-1.3-6.8-1.6q-1.5-.1-3-.2l-3.3-.4q-1.6-.1-3.4-.3-3.5-.3-7.1-.7-5.4-.5-10.8-1-3.5-.3-6.9-.6-1.7-.2-3.4-.4c-6.9-.6-13.8-1.1-20.8-1.4-3-.5-4.4-1.3-6.5-3.4-.5-3.7-.6-6 1.4-9.2 4.1-2.8 8.1-2 12.9-1.6q1.5.1 3 .2 3 .2 5.9.4 3.7.3 7.4.5c9.6.5 9.6.5 12.8 1.2 3.7.7 7.3.8 11.1 1 4.6.2 9 .4 13.5 1.5q-.2-1.3-.4-2.6c-3.6-23.8-3.6-44.8 5-67.5q.4-1.2.9-2.4.4-1 .8-2.1c2.4-8.1 1.9-16.5 1.9-24.8q0-1.1 0-2.3c0-8.9-.3-17.8-1.2-26.7-1.2-11.4-1.2-22.8-1.2-34.3q-.1-1.3-.1-2.7c0-10 .3-20 1.1-30q.2-1.3.3-2.6c.8-8.9 3.7-16.4 10.5-22.6 5-3.8 9-4.8 15.4-4.4 2.7.9 5.2 2.2 7.8 3.6q1 .5 2.1 1.1c9.6 5 18.3 11.1 26.8 17.8 3.1 2.4 6.3 4.7 9.5 7.1 4.7 3.5 9.1 7.3 13.5 11.3q3.2 2.9 6.4 5.7c6.3 5.5 12 11.4 17.5 17.7q1.6 1.9 3.4 3.7c6.8.3 13.8-1.7 20.4-3.3 10.1-2 20.3-2 30.6-2q1.3 0 2.5 0c12.8 0 24.9.9 37.5 3.3q1.3.3 2.6.5 2.4.5 4.8 1c4.1.7 6.6.9 10.1-1.4q1.7-1.3 3.3-2.7.8-.7 1.6-1.4c2.6-2.1 5-4.4 7.4-6.8 2.2-2.2 2.2-2.2 4.2-2.2q0-1 0-2 2.2-2 4.6-3.8c4.7-3.8 9.2-7.7 13.5-11.8 5.1-4.8 10.3-9.3 15.9-13.4q1.7-1.3 3.3-2.5c39.7-30.2 39.7-30.2 57.6-20.9zM573 161q-1 .7-2.1 1.5c-14.3 10.1-27.4 21.3-40.3 33.2-3.5 3.1-7.2 6.1-11 9.1-2.5 2.1-4.9 4.3-7.3 6.5-5.9 5.2-10.2 8-18.2 7.9-5.7-.4-11.3-1.4-17-2.3-15.1-2.5-29.7-3.8-45.1-2.9q-1.2.1-2.5.1c-10 .7-19.6 2.7-29.3 5.3-5.1 1.3-9 1.9-14.2.6-4-2.5-6.7-5.9-9.7-9.5-8.4-9.3-17.4-17.8-27.3-25.5q-1.6-1.3-3.2-2.6c-22.1-19.5-22.1-19.5-48.8-28.4-5.3 12.2-4.3 26.5-4.2 39.6q0 1.4 0 2.8c0 12.8.4 25.4 1.5 38.1.7 9.4.9 18.8 1 28.2q0 1 0 2.1c0 10.7-.9 19.9-4.7 29.9-6.9 19.7-10.7 44.9-4.6 65.3q.5 1 1 2c3 .7 3 .7 6.6 1.2q1 .1 2 .3 3.2.5 6.4.9c22.7 3.3 22.7 3.3 27 7.6.3 3.5.3 3.5 0 7-2 2-2 2-5.6 2.2q-2.2 0-4.5 0-1.1 0-2.3 0c-4.6-.1-9.1-.3-13.6-1-3.7-.4-7.3-.3-11-.2 1.8 8.1 4.7 14.9 9 22l3.3-.4c8.3-1.1 16.6-1.8 25-1.9q1.1 0 2.3-.1c4.9 0 8.2.7 12.4 3.4 1 1.9 1 1.9 1 4-.8 2.5-1.5 3.7-3.7 5.1-2.9 1.2-5.7 1.5-8.8 2q-1.9.2-3.8.5-1.9.3-3.9.5-2 .3-4 .6-4.9.6-9.8 1.3c3.6 9.6 11.8 17 18.7 24.5 1.9 2.1 3.8 4.2 5.6 6.4 7.5 8.7 16.4 16.1 25.6 22.9 2.6 1.9 4.3 3.4 6.1 6.2.2 2.6.2 2.6.2 5.8q0 1.5 0 3.1c-.1 3.6-.4 7.1-.7 10.7-.5 7-.8 14.1-1 21.1q0 1.1-.1 2.1l-.6 32q0 3.2-.1 6.4l-.2 17.3c-.2 25.2-1 50.3-5.1 75.2-.5 3-.9 6-1.3 9-2 16.5-5.1 32.8-8 49.1q-1.2 6.6-2.4 13.2-.9 5.1-1.8 10.2-.4 2.4-.9 4.8c-1.7 9.9-4.1 18.7-8 28q-.5 1.5-1 3c-2.8 1.7-5.7 2.6-8.8 3.6q-1.4.4-2.8.8-2.8.9-5.7 1.8c-5.4 1.7-9 3.2-12.7 7.8q-1 1.2-2.1 2.4c-5.2 7.2-6.5 14.9-5.9 23.6 1.8 4.2 3.9 6.1 8 8q1.5 0 3 0 .2-1.1.4-2.1.7-4.8 1.5-9.7.3-1.6.6-3.3c.3-1.6.3-1.6.5-3.3q.3-1.4.5-2.9c.4-2.3.9-4.5 1.5-6.7 3.3-.8 3.3-.8 7-1 2.5 1.8 3.6 3.2 4.9 5.9.1 2.1.1 2.1-.9 4.7-1.2 4.1-1.4 8-1.6 12.3q-.1 1.1-.1 2.3-.2 2.9-.3 5.8c9.8 4.3 20.4 1.5 30-2.1 15.7-6.9 24.6-19.9 31-35.3 1.7-4.5 3.1-9.1 4.4-13.7q.5-1.6.9-3.2c3.2-11 5.7-22.3 8.2-33.5q.7-3.2 1.4-6.5c4.7-21.1 9.3-42.2 12.8-63.6l.4-2.5q.9-6 1.9-12 .3-2.1.6-4.3l.6-3.8c.9-3.8 2.1-6.9 3.8-10.5 6.1-.2 6.1-.2 8 0 2.4 2.4 2.3 3.8 2.4 7.1q0 1 0 2.1 0 1.1 0 2.3c-.3 10.2-2.3 20.3-4.1 30.4q-.6 2.9-1.1 5.9-2.9 16-6.3 32c-1 4.4-1.8 8.9-2.7 13.4q-1.9 9.5-4 18.9-.3 1-.5 2.1-1.3 5.3-2.5 10.6-.5 2-.9 3.9-.4 1.8-.8 3.5c-.8 2.8-.8 2.8.5 4.8q3.7-1.1 7.3-2.2 1-.3 2.1-.6c3.2-1 5.3-1.8 7.5-4.4 1.3-3.4 2.3-6.8 3-10.3q.3-1.1.5-2.2c3.4-15 5.9-30.1 8.5-45.1l9.7-52q.6-3.2 1.1-6.4.4-1.9.7-3.9.3-1.6.6-3.2c1-2.7 1-2.7 3.4-4.6 3.3-1.4 5.2-1.2 8.6-.1 4.8 7.1 1 17.5-.5 25.4q-.4 2.1-.8 4.3-1.3 7.2-2.7 14.3-.2 1.3-.5 2.5-2.2 12-4.5 23.9l-4.7 25.1q-.2 1.1-.4 2.2-.9 5.2-1.8 10.4c-4.9 27.8-4.9 27.8-11.1 33.9-3.9 2.6-8.2 3.8-12.6 5.1-8.8 2.7-15.9 5.2-21 13.4-3.6 7-5.2 13.6-4.4 21.5 1.2 3.4 2 5.3 4.9 7.4 2.4.8 2.4.8 6.1.6q.1-.8.3-1.7c3.9-20.7 3.9-20.7 8.7-26.3 3.4.3 3.4.3 7 1 2 3 2 3 1.8 5.8-.8 3.2-.8 3.2-1.8 5.9-1.2 4-1.2 7.5-1.1 11.7q0 1.1 0 2.2 0 2.7.1 5.4c17.9.5 33.2-.1 47-13q0-1 0-2 1 0 2 0c14.2-16.2 17.9-38.5 22.9-58.8q1.6-6.3 3.2-12.6l12.5-51q.4-1.4.7-2.9l6.8-28.8q.4-2.1.9-4.1.8-3.6 1.6-7.2c5.2-22.8 5.2-22.8 11.4-27.6 3.6.1 3.6.1 7 1 2.5 3.8 2.3 5.5 2 10-.7 2.7-1.4 5.3-2.3 7.9-2.4 7.8-4.3 15.7-6.1 23.7q-1.3 5.7-2.6 11.4-.2 1.1-.5 2.3c-2.4 10.8-5.1 21.6-7.7 32.4q-1.1 4.7-2.3 9.4l-6.9 28.1q-.3 1.1-.6 2.4-1.5 5.9-3.1 11.8-.6 2.2-1.1 4.3-.3 1-.6 2c-.9 3.5-1.4 6.7-1.2 10.3 1.4-.8 1.4-.8 2.7-1.7q1.9-1.1 3.7-2.2.9-.5 1.8-1.1c10.1-5.9 21.5-5.6 32.9-6.1q2.4-.2 4.9-.3 6-.3 12-.6 0-1 0-2-1 0-2 0-.4-.9-.8-1.7c-1.3-2.5-2.9-4.4-4.8-6.6-17-20.9-19.9-48.5-17.1-74.5.8-5.2 2.1-10.2 3.7-15.2l.6-2.1c9.2-30.3 27.9-53.7 55.5-69.1 5.1-2.6 9.2-4 14.9-2.8 2.1 1.7 2.1 1.7 3 4-.5 5.2-2.5 6.9-6.4 10.1-3.6 2.6-7.4 5-11.2 7.4-10.6 6.2-10.6 6.2-17.4 15.5q-1 0-2 0c-17.3 18.3-27 47.1-27 72 .8 20.5 7.6 39.8 23 54 7.6 6.7 14.4 11.3 24.8 11.9 3.9.2 7.8.5 11.7.8q3.4.3 6.7.5c10.3.7 10.3.7 14.8 2.8 1.5 3.1 1.3 5.6 1 9-2.5 2.8-4 3-7.8 3.3q-2.3 0-4.6-.1-1.1 0-2.2 0c-4.6 0-9.1-.3-13.7-.7-9.6-.7-19.3-.7-28.9-.7q-1.5 0-3 0c-11.7 0-23.4.2-35 1q-1.5.1-3.1.2c-7.8.7-15 2.3-20.7 8-4.9 6.5-7.2 11.1-7.4 19.4 0 1.9 0 1.9-.1 3.9.2 3.8.2 3.8 2.6 6.6 3.4 2.5 5.8 3.2 9.9 4.1q.2-1.9.5-3.8c2.8-20.5 2.8-20.5 9.5-27.2 3.8 0 5.1 1.1 7.9 3.7 2.1 3.3 2.1 3.3 1.5 6.4q-.7 1.4-1.4 2.9c-2 4.2-2.4 8.2-2.6 12.8-.1 1.1-.1 1.1-.1 2.1q-.2 2.6-.3 5.1c63 .8 63 .8 126-2q1.9-.1 3.8-.3c26.9-2.2 53.3-8.8 74.2-26.7q1.3-1.1 2.6-2.2a238.3 238.3 0 0 0 7.4-6.8l2.6-2.4c30.2-28.6 48.4-75.5 49.6-116.7q.1-6.7.1-13.5-.1-4.1 0-8.2c0-35.7-8.2-69.3-19.8-102.9l-1-3c-4.7-13.5-9.5-26.9-14.8-40.1C741.2 437 741.2 437 742 406q0-1.6.1-3.2c.9-23.9 11.1-43.2 27.9-59.8q1-1 2-2c3.2-3.3 6.5-6.5 10.1-9.4 4.8-4.2 9.2-8.8 10.4-15.2.1-3.8-.3-6.7-1.5-10.3-3.9-4.1-8.6-6.3-14.3-6.6-8.8.5-16.1 4.5-23.4 9.1q-.9.6-1.9 1.2c-1.5 1-3 2.1-4.4 3.2q0 1 0 2-.8.3-1.7.7c-2.9 1.7-5 3.8-7.3 6.3q-.9.9-1.8 1.9c-25.1 27.1-32.5 58.5-31.4 94.7 1.7 35.2 17.7 69.9 30 102.5 21.9 58.6 42.2 124.1 16.2 184.8q-1.2 2.4-2.5 4.7c-4.1 7.7-5.7 14.4-6.6 23.1-1 8.3-2.1 16.4-4.5 24.5q-.3 1-.7 2.1c-.5 1.6-1.1 3.1-1.7 4.7-3 1.5-5.7 1.2-9 1-3-4.5-2.5-9-1.6-14.3q.7-3.4 1.6-6.9c2.1-10 2.6-19.6 2.4-29.8q0-4.1 0-8.3C728 618.1 681.1 538 620.1 477c-4.2-4.3-8.7-8.1-13.5-11.9-2.7-2.2-5.2-4.5-7.7-6.9-3.3-3-6.7-5.8-10.3-8.5q-1.2-.8-2.4-1.7-2.3-1.7-4.6-3.3c-3.6-2.5-5.3-4-6.9-8.1.4-4.7 2-7.3 4.7-11.1q1.4-2.1 2.8-4.3.7-1 1.4-2.1c22-33.2 34.4-67.9 27.1-107.9A258.75 258.75 0 0 0 608 300q-.2-1-.5-2.1-1.4-5.2-2.8-10.4c-4.2-15.2-2.4-29.4-.9-44.9 2-20.5 3.7-40.9 3.6-61.5q0-1.3 0-2.6c.6-15.4.6-15.4-4.4-29.5-10.8-1.2-21.6 6-30 12z" fill="#01184c"/><path d="M420.6 355.7l3.2-.1c10.4-.1 18.6 3.2 26.2 10.4 3 4.3 3.7 7.8 3 13-3.7 7.9-11.3 10.9-19 14q-1.5 0-3 0c2.5 5.9 6.4 11.2 12.2 14.1 3.2 1 5.7 1.1 9 1 1.8 0 1.8 0 3.6-.1q3.7-.1 7.4-.2 1.8 0 3.6 0 1.6-.1 3.2-.1c3.4.3 5.3 1.3 8 3.3.6 1.9.6 1.9.5 4q0 1 0 2.1c-.6 2.5-1.5 3.3-3.5 4.9-2.2.7-2.2.7-4.8 1.2q-1.4.2-2.8.5-1.5.2-3 .5-1.4.3-2.9.5c-7.1 1.3-7.1 1.3-9.5 1.3q0 1.6-.1 3.3c-.5 13.9-2.8 26.3-12.9 36.7-8.2 7.6-15.4 9.4-26.4 9.3-7.7-.6-14.2-3.7-19.6-9.3-7.2-10.3-9.5-18.6-9.2-31 0-1.7 0-1.7.1-3.5q0-4.3.1-8.5-1.7-.8-3.4-1.7-2.3-1.1-4.5-2.2-1.1-.5-2.2-1.1-1.1-.5-2.2-1.1-1-.4-2-.9c-1.7-1-1.7-1-3.7-3 .3-4.1.7-6.5 3-10 2.2-.4 2.2-.4 4.9-.3h2.6c2.6.3 4.2 1.1 6.5 2.3 8.5 1.6 14.8-1.9 22-6q1.1-.5 2.3-1c2-.9 2-.9 2.4-3.6q.2-1.2.3-2.4-1.2-.3-2.5-.7c-7.1-2.7-13-6.3-16.5-13.3-.2-2-.2-2-.3-4.3q0-1.1 0-2.3c.4-3.2 1.4-4.9 3.3-7.4 2.8-2 2.8-2 6-3.7q1.6-.9 3.2-1.8c5.8-3 11-2.8 17.4-2.8z" fill="#02174b"/><path d="M286 484c5.3 5 5.2 12.1 6 19q.3 2.2.6 4.4.2 2.3.5 4.5.2 1.1.3 2.2c.5 4 .7 7.9.6 11.9 7.2-5.4 14.2-10.9 20.8-17.1 3.1-2.6 5.8-4.7 9.8-5.2 2.4.3 2.4.3 5.4 2.3.9 3.1.7 5.9 0 9-1.9 2.9-4.3 4.9-7 7q-1.3 1.1-2.7 2.3-5.5 4.5-11.1 8.8c-2.3 1.7-2.3 1.7-3.2 3.9q1.1.4 2.1.8c5.2 2.1 10.1 4.7 15 7.1q1.7.8 3.3 1.7 1.6.7 3.2 1.6 1.5.7 2.9 1.4c2.3 1.3 3.9 2.4 5.5 4.4.5 3.6.5 5.3-1.6 8.4-3.1 2.1-4.7 1.9-8.4 1.6-3.2-1.3-3.2-1.3-6.7-3.1q-.9-.4-1.8-.9-2.9-1.5-5.8-3-2.9-1.5-5.9-3-2.6-1.3-5.2-2.7c-2.3-1.4-2.3-1.4-3.6-1.3q.3 1.3.5 2.7 1 5 2 10 .4 2.1.9 4.3c3.8 19.5 3.8 19.5 3.6 24-2.4 2.9-3.9 3.8-7.6 4.6-3.5-.9-4.4-2.7-6.4-5.6-1-2.9-1-2.9-1.6-6.1q-.4-1.7-.8-3.5-.4-1.8-.7-3.6-.4-1.8-.8-3.7-.7-3.4-1.4-6.9-1.3-6.1-2.7-12.2-3 2.7-5.9 5.4-.9.8-1.8 1.7c-4.4 4-8.5 8.1-12.6 12.4-1.7 1.5-1.7 1.5-3.7 1.5q-.3.8-.6 1.7c-2.1 3.4-4.8 5.6-8.4 7.3-3.6 0-5.8-.3-8.9-2.2-1.8-3-1.8-4.4-1.1-7.8 2.4-3 5.1-5.5 8-8q.9-.8 1.9-1.7 1.9-1.7 3.8-3.3 4.2-3.7 8.4-7.5 1.4-1.3 2.9-2.7c3.4-3.1 6.7-6.5 10-9.8-11.3-6.1-22.7-11.9-34.3-17.3l-2.8-1.4q-1.3-.5-2.5-1.1c-3.5-1.8-6.6-3.4-9.4-6.2.1-3.8.5-6.3 2.6-9.5 2.8-1.7 4.2-1.7 7.3-1.1 4.4 1.3 8.4 3.8 12.3 6.2 10 5.6 20.2 10.2 30.8 14.4-1.3-12.4-1.3-12.4-3.1-24.6-2-11.4-2-11.4.2-15.4 3.2-1.7 5.4-1.6 8.9-1z" fill="#001a4e"/><path d="M395.1 323.1c2.3 2.1 3.7 4 4.9 6.9-.1 3.5-.8 4.8-3.2 7.4-3.6 2-4.9 1.6-8.8.6l-5.3-3.3c-14.3-8.4-27.5-9.2-43.7-8.7q-1.9.1-3.8.1l-3.5.2q-1.3-.2-2.7-.3c-2.1-3.2-2.3-5.2-2.5-9 .7-3 2-4.1 4.5-6 21.5-7.2 46.6-2.1 64.1 12.1z" fill="#02174b"/><path d="M524.7 307.2l2.4.1c6.2.4 13.3 1.1 17.9 5.7.6 7 .6 7-1.2 10.1-1.8 1.9-1.8 1.9-4.4 2.3q-1.6-.1-3.2-.1-1.7-.1-3.5-.1-1.8-.1-3.6-.1c-11.7-.5-21.6.7-32.4 5.3q-1.5.7-3 1.3c-2.3 1.1-4.4 2.3-6.5 3.6-3.8 2-6 2.3-10.2 1.7-2.4-1.7-2.4-1.7-4-4-.4-3-.4-4.5 1.4-7 14-13.6 31-19.6 50.3-18.8z" fill="#03174c"/><path d="M427 416q2 1.4 3.9 2.9 1.1.8 2.3 1.6c1.8 1.5 1.8 1.5 2.8 3.5.8 10.9.4 20.4-6.4 29.4-4.2 4.1-7.7 5.8-13.5 6.2-4.8-.2-7.8-1.6-11.4-4.7-5.5-6.2-6.8-13.8-6.7-21.9.8-10.8.8-10.8 3.7-13.8 2.8-1.4 5.2-1.8 8.3-2.2q.1 1.8.1 3.6.2 2.4.3 4.8 0 1.2.1 2.4c0 4.6 0 4.6 2.5 8.2 2.1.4 2.1.4 4.5.3q1.2 0 2.4.1 1-.2 2.1-.4c2.3-3.5 2.6-6.5 3.1-10.6.8-7.2.8-7.2 1.9-9.4z" fill="#fca100"/></svg>