<svg xmlns="http://www.w3.org/2000/svg" width="1024" height="1024" xmlns:v="https://vecta.io/nano"><path d="M426.4 126.6q1.6 0 3.2 0c38.6-.2 75.7 7.9 106.4 32.4 3 2 4.8 2.3 8.3 2.7 22.6 2.6 43.5 14.7 62.7 26.3a46.46 46.46 0 0 0 2.3 1.4c25 15 56.6 35.6 66.3 64.4 4.3 23.8-5.6 51.3-18.8 70.9-2.7 3.9-5.7 7.6-8.8 11.3q-1.2 1.4-2.4 2.9c-6.2 7.1-13 12.7-20.6 18.1q-1.2.9-2.4 1.7c-11.3 7.5-26.1 12.4-39.6 10.3-3.5-1.6-3.5-1.6-6-4q-.7-.7-1.5-1.4c-18.5-19-17.7-55.7-18.3-80.2-.6-29-.6-29-9.2-56.4-3.8-2.5-5.6-2.5-10-2-3.1 1.9-3.1 1.9-5 5-1.1 6.5 1.1 12.2 3 18.4 2.3 8.4 2.2 16.8 2.4 25.3.5 57.4.5 57.4 27 105.7 8.9 7.5 17.4 8.7 28.7 8.6 5.5.8 8.6 4.9 11.9 9 2.4 3.4 4.6 6.9 6.8 10.4q1.9 3 3.7 5.9.9 1.5 1.8 3l7.1 11.1c15.3 23.5 29.5 47.5 43 72q2.8 5 5.7 10.1c14.3 25 27.6 50.6 37.9 77.5q.6 1.6 1.3 3.3c19.2 50.2 32.3 104.1 19.7 157.7q-.3 1.4-.7 2.9c-2.9 12.3-6.7 23.8-12.3 35.1q-.7 1.5-1.5 3c-11 21.4-29.6 41.5-52.8 49.3-9.7 3-18.7 3.9-28.8 3.8q-1.5 0-3.1 0-4.9 0-9.8 0-3.3 0-6.7-.1-8.1 0-16.3 0c-2.1-3.7-3.4-6.6-3.4-10.9q0-1.3 0-2.6 0-2.7 0-5.4c0-5 0-5-2.4-9.2-3.8-1.5-6.1-1.4-10.2-.9-2.6 3.4-3.6 6.6-4.4 10.7q-.3 1.6-.6 3.3-.4 1.6-.7 3.3-.3 1.7-.7 3.4-.8 4.2-1.6 8.3h-14c-.2-5.9.4-10.3 2-16 .4-3.1.6-5.9 0-9-2-2.8-2-2.8-5-4-3.8-.1-5.4.4-8.2 3-4.8 7.9-5.4 15.9-5.8 25-4.2-.8-5.5-2.5-8-6-2.1-4.3-1.6-9.8-.3-14.3C543 808 551.6 798 564 792c14.7-5.1 29.5-2.4 43.6 3.2 6.7 2.5 12.2 3.3 19.4 2.8 1.6-4.1 2.6-7.6 2-12-2.8-3.4-5.4-4.8-9.5-6.1q-1.6-.6-3.2-1.2-3.4-1.1-6.7-2.2c-17.8-6.1-27.5-15.3-35.9-32.1-8.2-18.9-8.2-41-1.7-60.4q.3-1 .7-2.1c7.7-24.1 20.3-44.7 43.2-56.9q4.6-2.3 9.2-4.4c2.9-1.6 4.3-2.7 5.9-5.6.5-4.1.4-6.3-1.6-9.9-2.5-2.2-3.9-2.8-7.2-2.6-19.8 4.4-39.5 20.9-50.4 37.3-17.4 27.6-26.9 62.5-20.6 95 2.7 12 7.5 22.2 14.3 32.4 1.5 2.8 1.5 2.8 1.2 5.2q-.3.8-.7 1.6l-3 .6c-13.6 2.7-23.8 8.3-32.2 19.7-2.7 4-5.1 8.1-7.4 12.3-1.4 2.4-1.4 2.4-3.4 3.4-3.6.1-3.6.1-7 0-1-1-1-1-1.2-3.6.2-3.9 1.2-6.9 2.4-10.5 3.1-9.6 5.4-19.4 7.7-29.2q.3-1.4.6-2.9c4.8-21.1 8.3-42.4 11.5-63.8q.3-1.9.6-3.9 1-6.6 1.9-13.1 1.4-9.7 3.1-19.3.4-2.5.9-4.9.8-4.8 1.7-9.6c1.2-7.2 2.4-13.9.8-21.2-2.3-2.9-3.8-3-7.5-3.5-3.5.2-3.5.2-5.7 2.3-4.4 8-5.5 17.5-6.9 26.4q-.2 1.8-.5 3.5-.6 3.7-1.1 7.4-.9 5.7-1.8 11.5-1.2 7.7-2.4 15.4c-14.2 91.3-14.2 91.3-27.1 121q-.4 1-.9 2.1c-4.6 11.1-9.6 22.5-21.3 27.5-6.7 2.2-12.8 2.5-19.8 2.4-1.5-3-1.1-6.2-1-9.5q0-2.3.1-4.6 0-3.6.1-7.3 0-3.4.1-6.9 0-1.1 0-2.2c0-4 0-4-1.6-7.5-2.9-1.7-5.4-1.3-8.7-1-2.5.8-2.5.8-4 3-2.3 7.5-2.9 15.5-3.8 23.3q-.1 1.4-.3 2.8-.2 1.3-.3 2.6c-.7 2.7-1.6 4.3-3.6 6.3-3.1.4-3.1.4-6.7.3q-1.7-.1-3.6-.2c-1.3 0-1.3 0-2.7-.1.4-6.8.8-13.6 2.1-20.3 1-5.2.8-9.5-.1-14.7-3.6-1.2-6.2-1.3-10-1-4.3 2.6-5 6.6-6.3 11.2-1.1 4.6-1.5 9.2-1.9 13.9q-.1 1.5-.2 2.9-.3 3.5-.6 7-1.5.5-3 1c-5.3-3.4-7.6-6.9-9-13-1.3-7.7 1.3-14.3 5-21 8.2-11.5 18.4-16.4 31.7-19.7 4-1 6.7-1.8 9.8-4.5 2.9-5.4 3.8-11.1 4.5-17.1l.2-2.1q.4-3.5.7-7 .2-1.2.3-2.4c2-18.9 3.4-37.8 4.8-56.8q.4-5.3.8-10.5.5-6.5.9-12.9l.2-2.4q.5-6.7.9-13.3.3-3.6.6-7.2.2-2.5.4-4.9.1-1.1.2-2.3c.3-4.6-.1-7.3-3-10.9-2.8-2.3-2.8-2.3-5.9-1.9-3.7 1.1-4.9 1.7-7.1 4.9-2.6 8.7-2.8 18.1-3.5 27.1q-.2 2.5-.4 4.9-.5 6.4-1 12.9-.8 10.3-1.6 20.6-.3 3.6-.5 7.2-.2 2.2-.4 4.4c-.1 2-.1 2-.3 3.9-.3 3-.3 3-1.3 5-16.8-7.3-26.1-26.6-33.8-41.9-4.6-9.1-9.6-17.7-15.2-26.1q-.6-.9-1.2-1.9-2.6-3.8-5.1-7.6-3.2-4.6-6.2-9.4-.5-1-1.2-2-1.1-1.8-2.2-3.6c-2.2-3.6-4.2-5.7-8.1-7.5-3.6.1-5.4.6-8.4 2.6-2.3 3.4-1.9 5.4-1.6 9.4 1.1 2.6 2.2 4.8 3.7 7.2q.6 1 1.2 2.1c2.3 4 4.9 7.8 7.7 11.5 10.8 14.7 10.8 14.7 9.4 24.4q-.7 3.7-1.5 7.2c-.7 3.8-1.1 7.5-1.5 11.3-2.3 20.7-6.4 41-11 61.3q-.4 1.8-.8 3.6c-13.3 59.2-13.3 59.2-28.1 72.2q-.9.8-1.9 1.7c-4.9 3.3-9.7 3.8-15.4 3.8q-1.9 0-3.8.1l-3-.4c-2.4-3.7-2.2-5.4-2.2-9.8q0-.9.1-1.9 0-3.2 0-6.3.1-3.1.1-6.3 0-2.8.1-5.7c0-3 0-3-1.1-6q-2.1-.3-4.2-.6-1.2-.1-2.4-.3c-2.4-.1-4.2.2-6.4.9-2.2 9.3-3.8 18.6-5 28.2q-.2 1.3-.4 2.6-.1 1.2-.3 2.4c-.3 1.8-.3 1.8-1.3 2.8q-3.5.1-7.1.1-1.9-.1-3.9-.1h-3c.4-5.8 1-11.5 2.1-17.2 1.7-8.4 1.7-8.4-.7-16.3-3.4-2.1-5.5-2.1-9.4-1.5-4.6 4.4-6.1 9.5-6.8 15.7q-.2 1.6-.3 3.2-.4 3.4-.8 6.7-.1 1.6-.3 3.2c-.2 1.5-.2 1.5-.3 3q-.3 1.1-.5 2.2-1 .5-2 1c-4.3-2.6-6.8-4.5-9-9-1.7-10.4 1.1-19.2 6.8-27.7 8.5-10.5 20.3-14.6 33-17.3 4.2-1.3 6.2-3.3 8.4-7.1 3.3-8.6 4-17.3 4.7-26.3q.3-4 .7-8c2.8-32.1 3.7-64.4 4.8-96.7q.2-6.7.5-13.5 0-1.4.1-2.8.1-2.7.2-5.5.1-4 .3-8 .5-15.4 1.1-30.8.1-1.7.1-3.5.3-6.6.5-13.1l1.1-32.7q0-1.4 0-2.9.2-6.7.3-13.3c.1-7.8.4-15.3 2.4-22.8 4.5-1.4 7.3.2 11.4 2.1 52.6 22.6 114.2 20.7 167 0 18.7-7.6 36-18.2 51.6-31.1q.8-.7 1.7-1.4c17.4-13.5 17.4-13.5 27.8-31.9 0-3.1-.1-5.2-2.1-7.6-3.4-1.5-5.6-2.2-9.4-2.1-5.3 3.2-9.2 8.2-13.2 12.9-10.4 11.9-22.9 21.2-36 29.9q-2.2 1.5-4.3 2.9c-28.4 18.4-67.1 25.8-100.4 25.7q-1.1 0-2.2 0c-13.3-.1-25.9-1.5-38.9-4.4q-1.4-.3-2.9-.6c-30.8-7-57.1-19.7-80.1-41.4-1.1-1-1.1-1-2.1-2-18.1-17.3-27.6-42.2-28.4-66.8-.2-17.4 4.4-32.6 9.4-49.1 6.7-22 10.5-42.5 12-65.4.6-9.3 1.4-18.4 3-27.5q.3-1.2.5-2.4c2.3-11.4 7.2-21.6 12.2-32q1.6-3.2 3.1-6.4c14.2-29.4 32.5-50.8 63.6-62.5 7.6-2.6 15.4-4.5 23.2-6.3q3.1-.7 6.1-1.5c3.5-.9 6.9-1.5 10.4-2.1q1.2-.2 2.4-.4c16.6-2.7 33.2-2.9 50-3z" fill="#fda000"/><path d="M537.3 135.9c4.8 3 10.3 4.4 15.7 6.1 23.6 8 44.8 17.9 66 31q1.2.7 2.4 1.5c14.4 8.9 27.9 18.9 40.8 30.1q2.5 2.1 5 4.2c14 11.6 23.6 26.9 27.6 44.6.7 10.4.3 20.3-1.8 30.6q-.4 1.8-.7 3.7c-6.9 31.5-26.6 63.7-53.3 82.3-5.5 3.5-11.3 6.8-17 10 .5 4.3 1.5 7.3 3.7 11q.8 1.4 1.6 2.8.9 1.4 1.8 2.9.8 1.5 1.8 3c3.5 5.8 7.1 11.3 11.2 16.7 7.9 10.9 14 23.1 20.6 34.7q4.6 8.2 9.3 16.4 7.1 12.4 14.1 24.9 5.5 9.7 11.1 19.4l14.7 26.2q1 1.9 2.1 3.8c6.1 10.7 9.9 22.2 13.8 33.8 2.9 8.7 6 17.3 9.5 25.9 4.7 12 8.4 24.1 11.7 36.5q.4 1.5.8 3c1.6 6.3 2.9 12.5 3.8 18.9q.2 1.2.4 2.4c1.9 12.7 2.2 25.4 2.1 38.2q0 4 0 8c0 8.3 0 16.3-1.1 24.5 27.3-15.1 43.7-44.4 52.4-73.6 4.1-14.4 5.8-28.5 6.1-43.5.3-9.5 2.2-18.2 8.9-25.4 2.4-2.3 4.1-3.4 7.5-3.8 6.5.6 12.9 4.6 17.4 9.4 18.2 24.2 21.4 62.7 17.5 91.8-4.8 32.9-15.3 63.3-36.8 89.1q-1.2 1.4-2.4 2.9c-5.3 6.1-11.2 11.2-17.6 16.1q-1.2.9-2.3 1.9c-16.3 12.8-36 20.5-55.7 26.1q-1.2.3-2.4.7c-6.6 1.9-13 3.3-19.9 3.6-13.6.7-13.6.7-24.1 9-15.3 16.1-40.3 22.4-61.7 23q-3.8.1-7.5.1-2.1 0-4.2.1-5.4 0-10.8.1-4.3.1-8.6.1-12.8.2-25.6.3-3.4 0-6.7 0-5.7.1-11.3.1-2.1 0-4.2.1c-12.3.1-24.1 0-34-8.2-7.2-8-11.5-15.5-11.1-26.3 0-.8 0-.8.1-1.7-5-.1-9.3.3-14 2-3.1 3.8-5 7.8-7.1 12.2-6 11.5-17.2 17.2-29 21-5.3 1.4-10.3 1.9-15.7 2q-1 0-1.9 0-3.2 0-6.4 0-1.1 0-2.3 0-5.8 0-11.6 0-6 .1-12 .1-4.6 0-9.2 0-2.2 0-4.4 0c-13.2.2-22.4-1.7-32.1-10.9-7.2-7.7-8.6-18-8.5-28.2.8-12.4 5.9-25.7 15.2-34.2 6.3-5.5 12.7-9.6 20.3-13q.9-.4 1.9-.9c4.6-1.9 8.8-2.7 13.8-3.1q.4-4.7.7-9.4c.3-3.6.3-3.6.9-6.6.6-3.5.5-5.6-.6-9-3.8-5-8.9-9-13.7-13-3.9-3.4-7.7-6.9-11.4-10.4q-1.1-1-2.1-2c-5.5-5-9.7-10.5-13.8-16.6q-.6 3.2-1.2 6.4-.6 2.8-1.1 5.7-1.4 7-2.6 14.1c-2.4 12.7-5.2 25.2-8.3 37.7q-1.1 4.4-2.1 8.7c-2.9 11.6-6.4 22.9-10.2 34.1q-.3 1.1-.7 2.1c-5 15-12 31.1-25.8 40.2-8.4 3.9-16 6.1-25.3 6.2q-1.1 0-2.2 0-3.5.1-7 .1H286q-6.4 0-12.9.1-5.3 0-10.6 0-6.4.1-12.8.1-2.5 0-4.9.1c-9.3.1-16.9-.2-24.8-5.6-.9-.6-.9-.6-1.7-1.2-6.7-4.9-9.9-11.8-11.3-19.8-1-10-1.1-20.1 4-29q.7-1.2 1.3-2.5c8.9-16 22.3-24.4 39-30.6 1.1-.4 1.1-.4 2.2-.9q2.8-1 5.5-2c2.6-33.9 4.1-67.9 5.4-101.9q.7-19.1 1.5-38.3.4-9.9.8-19.8.4-8.1.7-16.1.4-9.2.7-18.3.1-1.4.2-2.9.9-22.2 1.4-44.3c.6-26.7.6-26.7 4-32.1 1.6-2.2 1.6-2.2.9-4.3-2.3-2.9-5.1-5.3-8-7.7q-1-.8-1.9-1.6c-3.7-3.1-7.5-6.1-11.3-9.1-22.7-18.5-37.7-45.8-41.2-74.9-.6-7.2-.6-14.5-.6-21.8.1-7 .1-7-2.8-13.1l-7.9-4.9c-22.4-14-35.6-35.9-41.4-61.3-4.2-23.9 1.3-46.3 14.8-66.1 16.3-22.1 38.3-36.5 61.9-50.1 17.7-10.2 34.8-21.7 50.8-34.4 27.2-20.9 59.3-31.1 93-36q1.1-.2 2.3-.4c49.5-7.2 113.1-3.7 155 26.3zM304 156q-1.2.9-2.3 1.8C289 168.2 280.4 183.5 273 198q-.8 1.6-1.7 3.3c-10.4 20-10.4 20-16.3 41.7q-.2 1.3-.5 2.7c-1.4 8.1-1.9 16.1-2.4 24.3-1.5 25.1-6.3 47.7-13.9 71.8-9.2 29.2-10.9 57.9 2.8 86.2 17.2 31.3 48.8 52.6 82.5 62.8 6.8 1.9 13.6 3.6 20.5 5.2q1.4.3 2.8.7c33.4 7.3 67.7 3.9 100.2-5.7q1.2-.4 2.5-.7c11.1-3.3 21.4-7.7 31.5-13.3q.9-.5 1.9-1.1c18-10 35.8-24 48.9-40.1 4.5-5.5 4.5-5.5 8.3-7 3.8.3 7.1 1.4 9.9 4.2.8 6.2-.3 9.5-3.9 14.5-31.5 38.4-79.4 62.3-128.1 69.5q-1 .2-2 .3c-38.6 5.7-83.9.9-119-16.6-2.4-.8-3.6-.4-6 .3-1.9 7.9-2.4 15.6-2.5 23.7q-.1 2-.1 4-.1 4.4-.2 8.7-.3 11.9-.6 23.7-.1 1.2-.1 2.4l-2.3 62.3q-.2 5.8-.5 11.6 0 1.1-.1 2.3-.6 15.4-1.1 30.8c-.7 23.3-1.7 46.6-3.5 69.8q-.1 1.6-.3 3.3c-2.9 36.6-2.9 36.6-10.7 43.4-1.8.7-1.8.7-3.8 1.2q-1.2.3-2.3.5l-2.4.6c-10.6 2.8-20.8 6.6-27.5 15.7-5.4 9.4-8.2 17.1-7 28 1.6 4 3.9 6.4 7.8 8.4q1.1.3 2.2.6c1.7-1.7 1.4-3.8 1.6-6.1q.2-1.5.4-3.1.3-3.3.6-6.6c.9-7.3 2-13.8 7.4-19.2 3.8-.4 6.1-.5 9.4 1.5 3.5 5.5 1.3 13.1.1 19.1q-.4 2.2-.8 4.4l-.4 1.9c-.4 2.7-.3 5.4-.3 8.1h14c1.4-4.2 2.3-7.2 2.8-11.4q.2-1.4.3-3 .2-1.5.4-3c.7-6.4 1.5-12.5 3.5-18.6q2.1-.3 4.3-.6 1.1-.1 2.3-.3c2.5-.1 4.2 0 6.4.9 1.2 3.5 1.1 6.1 1 9.8q0 2 0 4 0 3.2-.1 6.3 0 3.1-.1 6.2v3.7c0 3.2 0 3.2 2.2 6 9.3 1.4 17.2.1 24.8-5.3 17.4-15.1 21.5-45.6 26.2-66.7q.3-1.5.7-3 1.9-8.5 3.7-17.1.9-4.5 1.9-8.9c2.8-13 5.1-25.9 6.7-39q.2-1.6.4-3.3.7-5.3 1.4-10.6.2-1.7.4-3.4c1-8.8.7-14-4.6-21.4a353.68 353.68 0 0 1-11.7-18.3q-.7-1.2-1.5-2.4c-2.8-4.7-4.1-8-3.4-13.6 2.1-3 3.5-3.8 6.9-4.9 3.8-.1 5.1.7 8.1 2.9 1.9 2.4 1.9 2.4 3.8 5.6q1.1 1.9 2.3 3.8.7 1 1.3 2.1c1.8 2.9 3.7 5.6 5.5 8.4 8.9 13.2 16.7 26.5 23.9 40.7 7 13.6 16.7 27.3 29.2 36.4q1 0 2 0c1.4-2.9 1.4-5.6 1.6-8.9q.1-1 .2-2.1.2-2.3.4-4.6.2-3.7.5-7.3.8-10.4 1.6-20.8.5-6.4 1-12.8.2-2.4.4-4.8c1.7-22.3 1.7-22.3 5.1-27.3 2.9-1.8 4.7-2.4 8.2-2.4 3.4 2.1 4.7 3.2 6 7l-.4 8.1c0 1.2 0 1.2-.1 2.4q-.2 3.7-.5 7.5-.1 1.1-.2 2.3-.5 7.8-1.1 15.7-.1 1.2-.2 2.4-.4 6.6-.9 13.1-.4 5.3-.8 10.5l-4.6 54.1q-.2 2.4-.4 4.8c-2.1 20.1-2.1 20.1-7 25.5-3.3 1.9-6.2 2.7-9.9 3.5-10.9 2.6-21 6.8-27.9 16.1-5 8.5-8.6 16.2-6.5 26.2 1.6 5.1 3.9 7.9 8.5 10.8q1.5-.5 3-1 .1-.9.1-1.8.4-4 .7-8.1.1-1.3.2-2.8c.7-7.2 1.6-14.7 5.8-20.9 3.1-2 5.5-1.7 9.2-1.4q1.5.5 3 1c1 6.6.8 12.1-.4 18.6-1.1 5.6-1.8 10.8-1.6 16.4q3.2.2 6.3.3c1.8 0 1.8 0 3.6.1 3.1-.1 3.1-.1 4.7-2 1.7-3 2.1-5.4 2.5-8.7q.2-1.9.4-3.8.3-1.9.5-3.8.5-3.8.9-7.6.2-1.7.4-3.4c.7-3.3 1.8-5.4 3.7-8.1 3-1.5 5.6-1.2 9-1 1.7 1 1.7 1 3 3a97.18 97.18 0 0 1 .3 7.7q-.1 1.1-.1 2.2 0 3.6-.1 7.2 0 3.5-.1 7.1 0 2.2 0 4.5c-.2 3.8-.2 3.8 1 7.3 9.4.5 19.6-.6 27-7 5.3-5.4 8.9-10.9 12.1-17.8q.6-1.4 1.3-2.8c4-8.9 7-18 9.6-27.4q.4-1.4.8-2.9c8.8-31.9 13.8-64.7 18.7-97.4l5.4-34.3q.3-2.2.7-4.4c3.5-21.1 3.5-21.1 8.4-25 3.5-.4 6.1-.4 9.4.9 2.9 3.7 2.8 8.8 2.4 13.3q-.4 3.5-1.1 7-.2 1.2-.4 2.5-.7 4.2-1.4 8.4-.5 2.9-1 5.8-.7 4.4-1.5 8.8l-4 24.7q-.9 5.8-1.8 11.6-.6 4.1-1.2 8.2c-2.8 18.4-6.3 36.6-10.5 54.8q-.3 1.4-.7 2.8c-2.1 9-4.2 18-7.5 26.7-.8 2.9-.9 5.5-.7 8.5 1.2 1.4 1.2 1.4 4.3 1.3 4.4-.4 4.9-1 7.7-4.3q2-3.1 3.9-6.3c7-11.6 15.1-20.1 28.7-23.7q4.7-1.1 9.4-2c.9-1.7.9-1.7 1-4-1.5-2.9-1.5-2.9-3.6-6-13.9-21.5-16.7-47.9-12.3-72.9q.8-3.6 1.9-7.1.3-1.2.7-2.4c8.7-28.9 22.3-55.4 49.5-70.8 16-8.6 16-8.6 23.8-7.8 3.2 2.7 3.9 4.4 4.5 8.5-.6 4.2-1.6 5.5-4.5 8.5-2.4 1.5-5 2.6-7.6 3.8-16.6 7.9-28.4 19.1-37.4 35.2q-.7 1.1-1.4 2.3c-3.1 5.8-5.2 12-7.3 18.2q-.4 1.3-.9 2.7c-3.2 9.7-4.8 18.8-4.7 29.1q0 1.5 0 3c.3 18.2 6 36 18.6 49.5 7.7 7.1 16.8 10.6 26.6 13.8q3.3 1.1 6.6 2.3 1.4.4 2.9.9c2.9 1.3 4.6 2.8 6.6 5.2.2 2.3.2 2.3-.2 4.6q-.2 1.1-.3 2.3c-.5 2.1-.5 2.1-1.5 5.1-8.4.6-14.6-.9-22.4-4-13.4-4.8-28.8-7.4-42.3-1.3-12 7-20.9 17.1-25.3 30.3-.5 5.1-.6 8.9 1.9 13.5 2 2.5 2 2.5 4.1 4.5q1.5 0 3 0c.1-1.8.1-1.8.3-3.7 1.3-16 1.3-16 6.7-22.3 3-2 3-2 6-1.8 3.1.8 4.1 1.3 6 3.8 1 5.6-.5 10.6-2 16-.2 3-.1 6 0 9h14l1.3-6.7c3.9-19.5 3.9-19.5 6.7-22.3 6.7-.5 6.7-.5 10.2.9 3 3.5 2.4 7.5 2.4 11.9q0 2.7 0 5.3v2.4c.5 3.2 1.9 5.7 3.4 8.5q9.6.1 19.2.2 3.3 0 6.5 0c26.2.3 48-3.2 67.8-21.8 20.4-20.1 31.7-43.6 38.2-71.4q.3-1.3.6-2.6c3.1-13.9 4-27.4 4-41.5q-.1-4.1 0-8.2c0-68.3-33-135.9-66.7-193.9l-6.9-12.3c-9.8-17.7-20.2-34.9-31.1-52q-2.5-4-5-7.9-5.3-8.3-10.6-16.6c-.8-1.3-.8-1.3-1.7-2.6q-2.3-3.7-4.7-7.3-.7-1.1-1.4-2.2c-5.8-9-5.8-9-14.8-13.7q-1.8.1-3.6.1c-13.1-.3-21.9-5.1-30.9-14.3-8.3-9.8-12.3-21.6-14.9-34q-.3-1.2-.5-2.4c-4.5-20.9-5.4-42-5.9-63.3-.3-11.5-1-22.5-4.7-33.5-1.3-4-1.4-6.5-.9-10.8 2.1-3 2.1-3 5-5 3.5-.6 3.5-.6 7 0 9 7.5 9.6 20.8 10.6 31.8q.2 2.1.4 4.2.2 1.7.3 3.4c.5 6.1.7 12.1.8 18.3.7 36.3.7 36.3 11.6 70.6q.5 1 1 2.1c3.2 6 7.2 10.5 13.3 13.6 17.1 2 32.6-4.9 46-15q.8-.6 1.7-1.3c22.5-17.3 36.4-41.5 43.3-68.7q.4-1.4.8-2.9c2.5-11.6 3.1-24.5-2.8-35.1q-.6-1.2-1.2-2.4c-4-7.4-9.6-13.2-15.4-19.2q-1.7-1.7-3.2-3.4c-23.9-25.3-69-54.3-104.3-58.2-9-1.1-14.5-5.2-21.6-10.6-17-13-38.4-19.8-59.3-23.2q-1.6-.3-3.3-.5c-12.4-1.8-24.6-1.9-37-1.8h-3.4c-39.8.1-86.5 4-119.3 29.3z" fill="#011e56"/><path d="M376.9 362.6c5 3.4 9.3 6.9 12.1 12.4 1.5 10.6-3.2 20.4-9.2 28.9-6.9 8.1-15.5 12.7-25.8 15.1.4 2 .4 2 2 4 4.8 2 9.6 3.5 14.6 4.8 19.7 5.1 38.4 16.4 49.4 34 1.7 3.8 1.7 6.1 1 10.2-1.4 3-1.4 3-4 5-3.1.7-5.9.9-9 0-3.3-2.9-6-6.1-8.8-9.4-5.2-5.9-10.1-10.2-17.2-13.6q-1.3-.7-2.7-1.4c-2.7-1.3-5.5-2.5-8.3-3.6q-1.1-.5-2.2-1c-14.3-5.3-31.1-2.5-44.8 3-7 3.3-12.6 8-18.3 13.2-3.5 2.3-5.6 2.2-9.7 1.8-2.9-1.5-4.5-2.7-5.7-5.8-.7-3.7-.5-5.7 1.1-9.1q1.2-1.6 2.6-3.1c.9-1 .9-1 1.7-2.1 9.3-10.2 21.6-15.1 34.4-19 2.8-.6 2.8-.6 3.9-1.9q.1-3 0-6-1-.4-1.9-.9c-10.9-5.1-17.9-11.7-23-22.8-2.1-6.4-2.5-14.4-.2-20.8 1.2-2 2.5-3.7 4.1-5.5q.7-.8 1.4-1.6c14.6-14.5 45.6-14.5 62.5-4.8z" fill="#011e57"/><path d="M835 615q1 0 2 0c8 15.4 10.2 31.5 10.3 48.7q0 1 0 2.1c-.1 40.6-13.8 80.6-42.7 109.6-17.2 16.3-39.9 25.9-62.6 31.6l-2.4.6-2.4.6q-1.1.3-2.2.5c-2.2.3-3.8 0-6-.7q.9-1.6 1.9-3.2c7.7-13.3 14.4-27.2 17.6-42.3.9-3.5 1.7-5.2 4.8-7.2q2.3-1.2 4.7-2.3c36.4-19.7 56-52.1 68-91 4.6-15.5 7.3-31 9-47z" fill="#fba100"/><path d="M177 461c2.5 1.6 2.5 1.6 4 4 .7 6 .7 6-1.4 8.9-1.6 1.1-1.6 1.1-3.6 1.1l-1 7q1.6 1.1 3.2 2.2c24.5 16.5 24.5 16.5 27.4 28.4 2.6 17.5-6.6 32.1-16.5 45.7q-.8 1-1.6 2.1-.7.9-1.4 1.9c-2.5 3.9-2.9 8.2-2.1 12.7 2 2.7 2 2.7 5 5 8 6.8 14.4 12.5 15.3 23.5.2 8.9.1 18.6-6.3 25.5-5.5.8-5.5.8-8 0-2.6-2.2-3.9-3.9-4.2-7.3-.1-3.6.2-7.3.4-11 .2-5.8-.1-9.1-4.2-13.7-2-1.9-4-3.6-6.1-5.4-6.2-5.5-8.5-8.9-9.2-17.1-.3-7.8.2-13.8 4.3-20.5q.7-1.2 1.5-2.5 2.7-4.3 5.5-8.5 1.8-2.8 3.7-5.6 1.2-1.9 2.4-3.7c2.9-4.5 4.1-7.7 4.2-13q.1-1.4.1-2.8c-.5-3.9-1.9-5.9-4.4-8.9-2.2-1.6-4.4-3-6.8-4.4-16.5-10.2-16.5-10.2-19.2-19.6-1.1-6.5 0-11.4 3.5-17 4.4-5.9 8.1-8.1 15.5-7zm537-65c2.4 1 2.4 1 4 3 1.1 7-1.3 11.2-5 17-1.9 3.8-1.5 7.9-1 12 3.3 9.1 11.6 12.9 19.8 16.8 11.5 5.5 20.8 11.7 25.2 24.2 2.7 9.3 2.9 17.6 0 26.8-2.2 7.2-3.6 15-1.4 22.4 2 2.7 4.4 3.6 7.4 5 7.3 3.8 15.9 8.7 19 16.8.3 3.6.4 6.1-1 9.4-2.6 2.1-4.8 2.2-8 2.1-3.4-.8-5-2.8-7-5.5q-.5-1.5-1-3c-1.8-.8-1.8-.8-4-1.3-8.2-2.5-15.4-7.4-20-14.7-6.1-11.8-4.7-22.4-.9-34.6 1.9-7 1.8-13.7-1.1-20.4q-.4-1.4-.9-2.8c-1.4-2.7-2.3-2.9-5.1-4.2q-2.2-1.3-4.4-2.7c-4-2.4-8.1-4.6-12.3-6.8-9.5-5.1-16.3-11.1-20.4-21.3-2.7-9.9-1.8-21.2 3.1-30.2 4.4-6.3 7.1-8.5 15-8z" fill="#001e55"/><path d="M325.3 287.5c6.1 3.6 10.4 8.7 12.7 15.3 1.9 7.7 1.2 15.5-2.7 22.4-3.6 4.9-8.6 8.8-14.3 10.8-8.1 1.1-14.3-.4-21-5-5.2-4.5-7.6-10.4-8.4-17.1-.3-8.6 1.2-15.3 7.1-21.8 7.3-6.6 17.3-8.7 26.6-4.6z" fill="#021e56"/><path d="M459.4 290.6c6.3 2.8 10.6 8.1 14 13.8 2 8.9.4 16.2-4.5 23.8-4.2 4.6-9.7 7.3-15.9 8.2-6.5.3-11.8-.4-17-4.4-4.7-4.4-7.7-8.7-8.3-15.3-.1-8.2.1-14.3 6-20.4 7.6-6.9 15.7-8.2 25.7-5.7z" fill="#011d57"/><path d="M343.4 215.1c4.2 1.1 5.3 2.3 7.6 5.9 1.6 3.1 1.3 5.5 1 9-5.9 16.5-22.3 26-37.2 33.3-6 2.7-12.1 4.9-18.4 6.8q-1.1.3-2.2.6c-4.7 1.3-8.4 1.4-13.2.3-3.7-2.6-4.8-4-5.6-8.5.7-4.1 1.7-5.5 4.6-8.5 2.8-1.2 2.8-1.2 5.9-2 19.3-5.4 37.2-12.5 48.1-30q.7-1.3 1.5-2.7c2.3-3.5 3.7-4.3 7.9-4.2z" fill="#031d57"/><path d="M437 217c4.3 3.4 7 7.8 9.4 12.6 6.8 12.7 25.3 18.7 38.2 23 5 1.7 9.9 3.4 12.4 8.4.4 4.5.5 7-1.5 11-2.9 2.3-4.5 2.4-8.1 2.3-4.6-.6-8.7-2.2-13-3.8q-1.4-.5-2.9-1.1c-16.6-6.4-36-15.6-44.9-31.9-2.1-4.9-3.4-9.2-2.6-14.5 3.6-5.5 6.4-7 13-6z" fill="#021d58"/></svg>