<svg xmlns="http://www.w3.org/2000/svg" width="1024" height="1024" xmlns:v="https://vecta.io/nano"><path d="M674.7 176.8l2.2.2c14.3 1.6 28.1 5.5 41.9 9.3q3.4.9 6.7 1.8 1 .3 2 .6c4 1.1 7.4 1.4 11.5 1.3q3.5 1 6.9 2.2 2 .7 4 1.4a15.87 15.87 0 0 1 2 .7q3 1 6.1 1.9c9.3 2.6 17.6 6.2 26.1 10.8q2.7 1.4 5.3 2.8c15.2 7.8 30.1 18.4 41.6 31.2q0 1 0 2 1 0 2 0c12.3 14.3 19.1 30.4 22 49q.2 1.5.5 2.9c3.6 29.8-9.3 64.6-27.4 88-1.7 2.1-3.4 4.2-5.2 6.2-2.3 3.5-2.8 5.8-2.9 9.9.6 2.3.6 2.3 1.8 4.3 7.6 15.7 7 38.3 1.7 54.6-1.7 4.8-3.5 9.5-5.5 14.1q-.6 1.5-1.3 3c-7.7 16.6-21.5 31.5-37.7 40q-2 1.1-3.9 2.2L772 519c.6 4.2 1.6 8 3 12q1 0 2 0c3.1 4 5.2 8.3 7 13q2 3.5 4 7 1 1.8 2.1 3.6 1.7 3 3.5 6c1.6 2.7 2.4 5.4 3.4 8.4q.6 1 1.1 2.1c.9 1.9.9 1.9.9 5.9q1 0 2 0 .6 1.5 1.3 3.1c1 2.4 2.1 4.7 3.3 7 1.4 2.9 1.4 2.9 2.5 5.6.9 2.5.9 2.5 2.9 5.3 1.5 2.7 2 3.8 2 7q1 .5 2 1v8q1 0 2 0 .4 1 .8 2.1 1.3 3.1 2.6 6.1c1.5 3.5 2.7 7 3.8 10.6.7 2 1.5 3.9 2.4 5.9 2.6 6.1 3.8 11.7 4.4 18.3q1 0 2 0 .4 1.3.8 2.6c3 10.4 3 10.4 7.9 20 1.5 2.7 1.6 4.4 1.3 7.4q1 0 2 0c.2 1.7.2 1.7.3 3.5.6 4.5 2 8.3 3.7 12.5q1.1 2.7 2.2 5.4.5 1.2 1 2.5c.8 2.1.8 2.1.8 4.1q1 0 2 0 .2 1.6.4 3.3c.5 3.6.5 3.6 1.6 6.7q1 .5 2 1 1.1 3 2 6 .9 2 2 4 .4.9.9 1.8c1.2 2.4 2.6 4.6 4.1 6.9l1.6 2.4c1.3 2 1.3 2 3.4 2.9q0 1 0 2 1 0 2 0 0 1 0 2 1 0 2 0 0 1 0 2 1 0 2 0 0 1.5 0 3c2.9 1.5 5.7 2.6 8.7 3.6l2.5.8q.9.3 1.8.6 0 1 0 2c1.4-.1 1.4-.1 2.9-.1 3.1.1 3.1.1 5.1 2.1q3.4.8 6.7 1.5c7.2 1.4 13.1 3.2 19.4 6.9a30.71 30.71 0 0 0 3.1 1.7c2.6 1.8 4.7 3.6 6.8 5.9-3.7 4.7-7.5 8.3-12.4 11.7-1.7 1.2-1.7 1.2-2.6 3.3-1.1-.1-1.1-.1-2.3-.1-2.9.1-4.1.7-6.7 2.1-4.3 1.5-8.1 2.1-12.6 2.4-4.4.4-6.8 1.2-10.4 3.6-3.8.7-3.8.7-7 1q0-1 0-2-.8.5-1.6 1c-3.1 1.3-5.2 1-8.5.6-4.5-.6-4.5-.6-8.9.4q-4 .1-8.1 0c-5.1-.3-5.1-.3-9.9 1q-4.2.3-8.3.5-2.3.1-4.6.2-1 .1-2 .1c-2.2.2-2.2.2-4.4.7-3.2.6-6.2.6-9.5.6h-3.9q-.9 0-2 0-3 0-6.1 0-1.9 0-3.8 0-1.8 0-3.6 0c-2.8-.1-2.8-.1-4.8-1.1q-3.1-.1-6.1-.1-1.7.1-3.3.1H780q0-1 0-2-.9 0-1.8 0-4 0-8 .1-1.4 0-2.8 0-1.4 0-2.7 0-1.3 0-2.5 0c-2.2-.1-2.2-.1-5.2-1.1q-.5.5-1 1-3.5.1-7 0 0-1 0-2c-1.4 0-1.4 0-2.8.1-3.2-.1-3.2-.1-5.4-.7-2-.6-2-.6-4.8.6q0-1 0-2c-1.1.1-1.1.1-2.2.1-2.8-.1-2.8-.1-5.1-1-2.8-1.3-2.8-1.3-6.6-1.4-6.9-.6-16.4-3.6-21-8.9q-.5-.9-1.1-1.8c1.3-3.9 3.6-5.2 7.2-7.1 2-1 2-1 4.5-2.7 2.3-1.2 2.3-1.2 6.3-1.2q.5-1 1-2 1.5.5 3 1c2.6-.7 2.6-.7 5-2q.5-1 1-2l2.2-.4c3.6-.8 5.2-2 7.8-4.6q1.6-3.5 3-7 .8-1 1.6-2c2-2.9 2-5.6 2.4-9l.6-2.1c.6-4.2.2-8.2 0-12.3q-.2-2.5-.3-5l-.2-2.4c-.1-1.9-.1-3.8-.1-5.7.3-2.4.3-2.4-1-3.5q0-2.4.1-4.8c.1-5.6-1-10.4-2.5-15.7-.6-2.5-.6-2.5.4-5.5-.4-2.6-.4-2.6-1-5q-1.5 0-3 0 .1-.9.3-1.9c.2-1.2.2-1.2.3-2.4q.2-1.2.4-2.4c.2-2.6.2-2.6-2-5.3q.5-3.5 1-7c-.1-4.8-.5-8.9-2.5-13.3-1.9-4.6-2-8.8-2.2-13.7-.3-2.9-1-4.4-2.3-7-.1-2.5-.1-2.5 0-5.2.1-5.7-.2-11.6-3.1-16.7-1.1-2.6-1.1-4.5-1-7.4q0-1.3 0-2.7c.1-1 .1-1 .1-2q-1 0-2 0 .3-.8.7-1.7c.4-3.2-1-4.5-2.7-7.3-.6-3.1-.9-6.1-1.2-9.2-.4-5.2-1.6-9-3.8-13.8q-1.2-3.8-2.3-7.7c-.7-2.2-1.6-4.2-2.7-6.3-1.2-2.9-2.2-5.6-2.9-8.6-.8-3.4-.8-3.4-2.8-5.1L706 542c.4-2.1.4-2.1 1-4q-6-.3-11.9-.6-1.7 0-3.4-.1c-11-1.1-11-1.1-20.9 2.4-2.1 2.6-2.5 4.2-3 7.5l-.4 3.2c-.8 6.8-1.3 13.7-1.8 20.5-1.4 18.3-1.4 18.3-2.5 26-4 30.9-3.2 62.8-1.4 93.8q.1 1.8.2 3.6.2 1.5.3 3.1.1 1.2.2 2.6c.4 2.2.4 2.2 2.5 3.1q1 .4 2.1.9c1.4 1.6 1.4 1.6 2.7 3.4 3.3 3.9 6.9 5.8 11.5 8 13.3 6.6 24.7 15.3 29.8 29.6 3.1 9.6 2.3 17-2 26-4.2 5.5-9.6 8.4-16.4 9.6-9.9 1.3-19.5 1.7-29.5 1.4q-1.2 0-2.3-.1c-21.8-.7-44.4-4.1-60.8-19.7-13-14.5-18.2-35.2-20.5-54.2-.5-3.3-1.5-6.2-2.7-9.4-3.9-12.4-4.7-25.8-5.9-38.7q-.4-5.1-.9-10.2-.1-1.2-.2-2.4c-.5-4.6-1.4-8.8-2.8-13.3-4.9-.2-9 .3-13.7 1.6l-3.8 1q-1 .3-2 .6-2.9.8-5.8 1.6c-11.2 2.5-11.2 2.5-19.9 9-.9 2.3-1.2 4.3-1.4 6.7-.2 1.3-.2 1.3-.3 2.7l-.2 2.9q-.1 1.5-.3 3.1c-3.2 26.3-3.2 26.3 2.9 50.8 3.8 3.7 8.5 6.2 13 8.9 11.9 7.2 18.9 16.5 22.5 30.1.4 3.3.5 6.6.5 9.9a22.6 22.6 0 0 1 .1 2.6c.1 6.8-2 10.6-6.6 15.5-5.9 5.7-13.4 7.4-21.3 8.2q-1.2.1-2.4.2c-25 2.2-54.6 3.2-75.3-13.4-1.2-2.1-1.2-2.1-2-4q-1.1-.9-2.3-1.8c-5.2-4.3-7.9-10.3-10.5-16.5q-1.4-3.1-2.8-6.1c-9.1-19.5-14.4-41.2-16.1-62.7-.1-1.9-.1-1.9-1.3-2.9q-.4-2.1-.7-4.3-.2-1.3-.4-2.6-.1-1.5-.3-2.9-.4-2.9-.8-5.8l-.4-2.8q-.7-4.9-1.5-9.9-.2-1.3-.5-2.7c-.2-2-.2-2-1.4-3-9.7-.7-19.5.2-29.2.7l-3.6.2c-1.7.2-1.7.2-3.4.3q-1.5.1-3.1.2c-3.3.7-4.6 2-6.7 4.6-2.3 5.7-2.3 12-2 18q0 1 .1 2c.6 10 3.7 24.6 10.9 32 3.7 2.8 7.3 4.6 11.6 6.3 10.9 4.2 20.8 11.1 26.5 21.6 4.1 9.6 5.2 18.9 2 29-2.7 6.2-5.8 9.6-12.1 12.1-11.2 3.4-21.9 4.6-33.6 4.5q-3.7-.1-7.3 0c-14.5-.1-29.6-.6-41.1-10.5-2.4-2.5-4.2-5.1-6-8q-1.1-1.8-2.3-3.5-2.4-3.7-4.7-7.4-2-3.1-4-6.1 0-1.5 0-3-1 0-2 0-1.7-4-3.4-8-.5-1.2-1-2.5-3.2-7.5-6.3-14.9-.6-1.6-1.3-3.2-1.3-3.2-2.6-6.3c-2-4.8-4-9.5-6.4-14.1q-1.2-3-2.4-5.9c-2.8-6.8-2.8-6.8-6.6-13.1-3.2-1.2-4.6-1.2-7.8.1q-1.3.9-2.8 1.7-1.3.8-2.8 1.7-1.3.7-2.6 1.5-1.1.5-2.3 1.1c-1.9.8-1.9.8-2.7 2.9-.8 10-.7 19.4 5 28 4.6 4.5 9.7 7 15.4 9.8 13.6 7 20.6 15.4 25.5 29.9 2.1 8.6 1.9 18.9-2.7 26.7-7.8 10.5-24 13.9-36.2 15.8-18.3 2.3-44.4 2-60.5-8.2q-1.2-1-2.5-2-1.2-.9-2.4-1.8c-7-5.9-10.6-14.8-13.6-23.2q-.5-1.3-1-2.6c-1-2.4-1-2.4-1.9-5.8-1.5-4.8-3.5-9.3-5.6-13.9-1.4-3.6-2.5-7.1-3.6-10.8l-3.4-10.5q-.6-1.8-1.2-3.7l-2.8-7.5c-1.9-5-3.2-10.1-4.6-15.3q-.4-1.5-.8-2.9c-4.1-15.1-4.6-28.3.9-43q1.2-3.3 2.4-6.6.8-2.1 1.6-4.3c2-5.6 3.9-11.2 2.1-17.1q-.8-1.4-1.5-2.9-.9-1.6-1.7-3.3-.5-.9-.9-1.8c-1.9-3.8-3.5-7.6-5.2-11.4l-1-2.2q-1-2.2-1.9-4.4-.9-1.9-1.8-3.9c-1.6-3.6-2.7-7.1-3.6-11-.9-3.6-1.8-7.1-3.1-10.6-1.7-4.6-1.9-9.2-2.2-14.1.1-2.4.1-2.4-1.2-3.4-.3-3.9-.2-7.8-.2-11.7q0-1.6 0-3.3c0-5.5.3-9.8 2.2-15 .2-3.5.2-3.5.1-7.1-.1-4.2 0-7.8.9-11.9 0-2.2-.1-4.5-.2-6.7.2-2.8 1.2-4.8 2.2-7.3 1.2-5.2 1.7-9.7 1-15-2.7-4.1-6.2-6.9-10-10-6.3-6.5-11.6-13.8-17-21q-.9-1.2-1.9-2.5c-5-6.9-9.1-14.2-13.1-21.7q-1.3-2.3-2.5-4.5c-2.3-5.2-3.7-10.6-5.1-16q-1-3.4-1.9-6.7-.4-1.5-.8-3.1-.8-2.8-1.7-5.5c-2-20-2.8-40.6 3-60q.3-1.1.6-2.2c3.7-12.1 3.7-12.1 6.4-14.8q.4-1.3.9-2.7c5.3-15.8 18.8-30.8 33.3-38.5 7.5-2.2 13.5-2.4 20.7.9 3.3 2 4.6 3.7 6.1 7.3 1.3 7.3-1.3 13.4-4 20-10.5 27.8-11.5 52.6-.2 80.4 1.2 2.7 1.2 2.7 2.8 5.3 1.4 2.3 1.4 2.3 1.4 5.3q1 0 2 0c1.1 1.7 1.1 1.7 2.4 4.2 2.7 4.8 6 8.7 9.7 12.7.8.9.8.9 1.6 1.7 3.8 4.2 3.8 4.2 8.3 7.4 5-.1 7.6-1.9 11.4-5.1q1.4-1.2 2.9-2.5 2.4-2.1 4.7-4.2c9.1-8.2 19.1-14.9 29.7-21q1.1-.7 2.3-1.4c11.1-6.3 22.6-10.5 34.7-14.4q3.4-1.1 6.7-2.2 2-.7 4.1-1.3c3.1-1 6.2-2.2 9.2-3.5 2.5-1.1 4.6-1.9 7.2-2.4q4.1-1 8.1-2.1c9.1-2.7 18.2-4.9 27.6-6.5 5.2-.9 10.1-2.2 15.2-3.7 7-2.2 14.4-2.7 21.7-3.7q1.4-.1 2.8-.3 1.4-.2 2.9-.4c12.5-1.6 24.8-3.7 37.2-5.7q3.7-.6 7.3-1.1 1.8-.2 3.6-.5 1.6-.2 3.2-.4c2.8-.4 2.8-.4 4.5-3.6.2-2.4.2-2.4.1-5.1q0-1.5 0-3-.1-1.6-.1-3.3c-.2-22.5-.2-22.5 5-30.6.7-1.2.7-1.2 1.4-2.5 6.7-11.3 16.1-19.8 26.6-27.5q1.5-1.1 3-2.3c9.2-7.1 9.2-7.1 14-9.6 2.8-1.6 5.5-3.3 8.2-5 5.9-3.6 11.7-6.9 17.8-10.1q.8-.5 1.7-.9c8.8-4.8 17.7-8.5 27.2-11.7 7.3-2.4 14.2-5.3 20.9-9 4.7-2.3 9.3-3.6 14.3-4.7 2.5-.6 4.9-1.3 7.3-2.1 10.9-3.8 22-6.5 33.2-8.8q1.8-.4 3.7-.8c19.4-4 39.7-4.1 59.4-2.2z" fill="#fd9801"/><path d="M674.7 176.8l2.2.2c14.3 1.6 28.1 5.5 41.9 9.3q3.4.9 6.7 1.8 1 .3 2 .6c4 1.1 7.4 1.4 11.5 1.3q3.5 1 6.9 2.2 2 .7 4 1.4a15.87 15.87 0 0 1 2 .7q3 1 6.1 1.9c9.3 2.6 17.6 6.2 26.1 10.8q2.7 1.4 5.3 2.8c15.2 7.8 30.1 18.4 41.6 31.2q0 1 0 2 1 0 2 0c12.3 14.3 19.1 30.4 22 49q.2 1.5.5 2.9c3.6 29.8-9.3 64.6-27.4 88-1.7 2.1-3.4 4.2-5.2 6.2-2.3 3.5-2.8 5.8-2.9 9.9.6 2.3.6 2.3 1.8 4.3 7.6 15.7 7 38.3 1.7 54.6-1.7 4.8-3.5 9.5-5.5 14.1q-.6 1.5-1.3 3c-7.7 16.6-21.5 31.5-37.7 40q-2 1.1-3.9 2.2L772 519c.6 4.2 1.6 8 3 12q1 0 2 0c3.1 4 5.2 8.3 7 13q2 3.5 4 7 1 1.8 2.1 3.6 1.7 3 3.5 6c1.6 2.7 2.4 5.4 3.4 8.4q.6 1 1.1 2.1c.9 1.9.9 1.9.9 5.9q1 0 2 0 .6 1.5 1.3 3.1c1 2.4 2.1 4.7 3.3 7 1.4 2.9 1.4 2.9 2.5 5.6.9 2.5.9 2.5 2.9 5.3 1.5 2.7 2 3.8 2 7q1 .5 2 1v8q1 0 2 0 .4 1 .8 2.1 1.3 3.1 2.6 6.1c1.5 3.5 2.7 7 3.8 10.6.7 2 1.5 3.9 2.4 5.9 2.6 6.1 3.8 11.7 4.4 18.3q1 0 2 0 .4 1.3.8 2.6c3 10.4 3 10.4 7.9 20 1.5 2.7 1.6 4.4 1.3 7.4q1 0 2 0c.2 1.7.2 1.7.3 3.5.6 4.5 2 8.3 3.7 12.5q1.1 2.7 2.2 5.4.5 1.2 1 2.5c.8 2.1.8 2.1.8 4.1q1 0 2 0 .2 1.6.4 3.3c.5 3.6.5 3.6 1.6 6.7q1 .5 2 1 1.1 3 2 6 .9 2 2 4 .4.9.9 1.8c1.2 2.4 2.6 4.6 4.1 6.9l1.6 2.4c1.3 2 1.3 2 3.4 2.9q0 1 0 2 1 0 2 0 0 1 0 2 1 0 2 0 0 1 0 2 1 0 2 0 0 1.5 0 3c2.9 1.5 5.7 2.6 8.7 3.6l2.5.8q.9.3 1.8.6 0 1 0 2c1.4-.1 1.4-.1 2.9-.1 3.1.1 3.1.1 5.1 2.1q3.4.8 6.7 1.5c7.2 1.4 13.1 3.2 19.4 6.9a30.71 30.71 0 0 0 3.1 1.7c2.6 1.8 4.7 3.6 6.8 5.9-3.7 4.7-7.5 8.3-12.4 11.7-1.7 1.2-1.7 1.2-2.6 3.3-1.1-.1-1.1-.1-2.3-.1-2.9.1-4.1.7-6.7 2.1-4.3 1.5-8.1 2.1-12.6 2.4-4.4.4-6.8 1.2-10.4 3.6-3.8.7-3.8.7-7 1q0-1 0-2-.8.5-1.6 1c-3.1 1.3-5.2 1-8.5.6-4.5-.6-4.5-.6-8.9.4q-4 .1-8.1 0c-5.1-.3-5.1-.3-9.9 1q-4.2.3-8.3.5-2.3.1-4.6.2-1 .1-2 .1c-2.2.2-2.2.2-4.4.7-3.2.6-6.2.6-9.5.6h-3.9q-.9 0-2 0-3 0-6.1 0-1.9 0-3.8 0-1.8 0-3.6 0c-2.8-.1-2.8-.1-4.8-1.1q-3.1-.1-6.1-.1-1.7.1-3.3.1H780q0-1 0-2-.9 0-1.8 0-4 0-8 .1-1.4 0-2.8 0-1.4 0-2.7 0-1.3 0-2.5 0c-2.2-.1-2.2-.1-5.2-1.1q-.5.5-1 1-3.5.1-7 0 0-1 0-2c-1.4 0-1.4 0-2.8.1-3.2-.1-3.2-.1-5.4-.7-2-.6-2-.6-4.8.6q0-1 0-2c-1.1.1-1.1.1-2.2.1-2.8-.1-2.8-.1-5.1-1-2.8-1.3-2.8-1.3-6.6-1.4-6.9-.6-16.4-3.6-21-8.9q-.5-.9-1.1-1.8c1.3-3.9 3.6-5.2 7.2-7.1 2-1 2-1 4.5-2.7 2.3-1.2 2.3-1.2 6.3-1.2q.5-1 1-2 1.5.5 3 1c2.6-.7 2.6-.7 5-2q.5-1 1-2l2.2-.4c3.6-.8 5.2-2 7.8-4.6q1.6-3.5 3-7 .8-1 1.6-2c2-2.9 2-5.6 2.4-9l.6-2.1c.6-4.2.2-8.2 0-12.3q-.2-2.5-.3-5l-.2-2.4c-.1-1.9-.1-3.8-.1-5.7.3-2.4.3-2.4-1-3.5q0-2.4.1-4.8c.1-5.6-1-10.4-2.5-15.7-.6-2.5-.6-2.5.4-5.5-.4-2.6-.4-2.6-1-5q-1.5 0-3 0 .1-.9.3-1.9c.2-1.2.2-1.2.3-2.4q.2-1.2.4-2.4c.2-2.6.2-2.6-2-5.3q.5-3.5 1-7c-.1-4.8-.5-8.9-2.5-13.3-1.9-4.6-2-8.8-2.2-13.7-.3-2.9-1-4.4-2.3-7-.1-2.5-.1-2.5 0-5.2.1-5.7-.2-11.6-3.1-16.7-1.1-2.6-1.1-4.5-1-7.4q0-1.3 0-2.7c.1-1 .1-1 .1-2q-1 0-2 0 .3-.8.7-1.7c.4-3.2-1-4.5-2.7-7.3-.6-3.1-.9-6.1-1.2-9.2-.4-5.2-1.6-9-3.8-13.8q-1.2-3.8-2.3-7.7c-.7-2.2-1.6-4.2-2.7-6.3-1.2-2.9-2.2-5.6-2.9-8.6-.8-3.4-.8-3.4-2.8-5.1L706 542c.4-2.1.4-2.1 1-4q-6-.3-11.9-.6-1.7 0-3.4-.1c-11-1.1-11-1.1-20.9 2.4-2.1 2.6-2.5 4.2-3 7.5l-.4 3.2c-.8 6.8-1.3 13.7-1.8 20.5-1.4 18.3-1.4 18.3-2.5 26-4 30.9-3.2 62.8-1.4 93.8q.1 1.8.2 3.6.2 1.5.3 3.1.1 1.2.2 2.6c.4 2.2.4 2.2 2.5 3.1q1 .4 2.1.9c1.4 1.6 1.4 1.6 2.7 3.4 3.3 3.9 6.9 5.8 11.5 8 13.3 6.6 24.7 15.3 29.8 29.6 3.1 9.6 2.3 17-2 26-4.2 5.5-9.6 8.4-16.4 9.6-9.9 1.3-19.5 1.7-29.5 1.4q-1.2 0-2.3-.1c-21.8-.7-44.4-4.1-60.8-19.7-13-14.5-18.2-35.2-20.5-54.2-.5-3.3-1.5-6.2-2.7-9.4-3.9-12.4-4.7-25.8-5.9-38.7q-.4-5.1-.9-10.2-.1-1.2-.2-2.4c-.5-4.6-1.4-8.8-2.8-13.3-4.9-.2-9 .3-13.7 1.6l-3.8 1q-1 .3-2 .6-2.9.8-5.8 1.6c-11.2 2.5-11.2 2.5-19.9 9-.9 2.3-1.2 4.3-1.4 6.7-.2 1.3-.2 1.3-.3 2.7l-.2 2.9q-.1 1.5-.3 3.1c-3.2 26.3-3.2 26.3 2.9 50.8 3.8 3.7 8.5 6.2 13 8.9 11.9 7.2 18.9 16.5 22.5 30.1.4 3.3.5 6.6.5 9.9a22.6 22.6 0 0 1 .1 2.6c.1 6.8-2 10.6-6.6 15.5-5.9 5.7-13.4 7.4-21.3 8.2q-1.2.1-2.4.2c-25 2.2-54.6 3.2-75.3-13.4-1.2-2.1-1.2-2.1-2-4q-1.1-.9-2.3-1.8c-5.2-4.3-7.9-10.3-10.5-16.5q-1.4-3.1-2.8-6.1c-9.1-19.5-14.4-41.2-16.1-62.7-.1-1.9-.1-1.9-1.3-2.9q-.4-2.1-.7-4.3-.2-1.3-.4-2.6-.1-1.5-.3-2.9-.4-2.9-.8-5.8l-.4-2.8q-.7-4.9-1.5-9.9-.2-1.3-.5-2.7c-.2-2-.2-2-1.4-3-9.7-.7-19.5.2-29.2.7l-3.6.2c-1.7.2-1.7.2-3.4.3q-1.5.1-3.1.2c-3.3.7-4.6 2-6.7 4.6-2.3 5.7-2.3 12-2 18q0 1 .1 2c.6 10 3.7 24.6 10.9 32 3.7 2.8 7.3 4.6 11.6 6.3 10.9 4.2 20.8 11.1 26.5 21.6 4.1 9.6 5.2 18.9 2 29-2.7 6.2-5.8 9.6-12.1 12.1-11.2 3.4-21.9 4.6-33.6 4.5q-3.7-.1-7.3 0c-14.5-.1-29.6-.6-41.1-10.5-2.4-2.5-4.2-5.1-6-8q-1.1-1.8-2.3-3.5-2.4-3.7-4.7-7.4-2-3.1-4-6.1 0-1.5 0-3-1 0-2 0-1.7-4-3.4-8-.5-1.2-1-2.5-3.2-7.5-6.3-14.9-.6-1.6-1.3-3.2-1.3-3.2-2.6-6.3c-2-4.8-4-9.5-6.4-14.1q-1.2-3-2.4-5.9c-2.8-6.8-2.8-6.8-6.6-13.1-3.2-1.2-4.6-1.2-7.8.1q-1.3.9-2.8 1.7-1.3.8-2.8 1.7-1.3.7-2.6 1.5-1.1.5-2.3 1.1c-1.9.8-1.9.8-2.7 2.9-.8 10-.7 19.4 5 28 4.6 4.5 9.7 7 15.4 9.8 13.6 7 20.6 15.4 25.5 29.9 2.1 8.6 1.9 18.9-2.7 26.7-7.8 10.5-24 13.9-36.2 15.8-18.3 2.3-44.4 2-60.5-8.2q-1.2-1-2.5-2-1.2-.9-2.4-1.8c-7-5.9-10.6-14.8-13.6-23.2q-.5-1.3-1-2.6c-1-2.4-1-2.4-1.9-5.8-1.5-4.8-3.5-9.3-5.6-13.9-1.4-3.6-2.5-7.1-3.6-10.8l-3.4-10.5q-.6-1.8-1.2-3.7l-2.8-7.5c-1.9-5-3.2-10.1-4.6-15.3q-.4-1.5-.8-2.9c-4.1-15.1-4.6-28.3.9-43q1.2-3.3 2.4-6.6.8-2.1 1.6-4.3c2-5.6 3.9-11.2 2.1-17.1q-.8-1.4-1.5-2.9-.9-1.6-1.7-3.3-.5-.9-.9-1.8c-1.9-3.8-3.5-7.6-5.2-11.4l-1-2.2q-1-2.2-1.9-4.4-.9-1.9-1.8-3.9c-1.6-3.6-2.7-7.1-3.6-11-.9-3.6-1.8-7.1-3.1-10.6-1.7-4.6-1.9-9.2-2.2-14.1.1-2.4.1-2.4-1.2-3.4-.3-3.9-.2-7.8-.2-11.7q0-1.6 0-3.3c0-5.5.3-9.8 2.2-15 .2-3.5.2-3.5.1-7.1-.1-4.2 0-7.8.9-11.9 0-2.2-.1-4.5-.2-6.7.2-2.8 1.2-4.8 2.2-7.3 1.2-5.2 1.7-9.7 1-15-2.7-4.1-6.2-6.9-10-10-6.3-6.5-11.6-13.8-17-21q-.9-1.2-1.9-2.5c-5-6.9-9.1-14.2-13.1-21.7q-1.3-2.3-2.5-4.5c-2.3-5.2-3.7-10.6-5.1-16q-1-3.4-1.9-6.7-.4-1.5-.8-3.1-.8-2.8-1.7-5.5c-2-20-2.8-40.6 3-60q.3-1.1.6-2.2c3.7-12.1 3.7-12.1 6.4-14.8q.4-1.3.9-2.7c5.3-15.8 18.8-30.8 33.3-38.5 7.5-2.2 13.5-2.4 20.7.9 3.3 2 4.6 3.7 6.1 7.3 1.3 7.3-1.3 13.4-4 20-10.5 27.8-11.5 52.6-.2 80.4 1.2 2.7 1.2 2.7 2.8 5.3 1.4 2.3 1.4 2.3 1.4 5.3q1 0 2 0c1.1 1.7 1.1 1.7 2.4 4.2 2.7 4.8 6 8.7 9.7 12.7.8.9.8.9 1.6 1.7 3.8 4.2 3.8 4.2 8.3 7.4 5-.1 7.6-1.9 11.4-5.1q1.4-1.2 2.9-2.5 2.4-2.1 4.7-4.2c9.1-8.2 19.1-14.9 29.7-21q1.1-.7 2.3-1.4c11.1-6.3 22.6-10.5 34.7-14.4q3.4-1.1 6.7-2.2 2-.7 4.1-1.3c3.1-1 6.2-2.2 9.2-3.5 2.5-1.1 4.6-1.9 7.2-2.4q4.1-1 8.1-2.1c9.1-2.7 18.2-4.9 27.6-6.5 5.2-.9 10.1-2.2 15.2-3.7 7-2.2 14.4-2.7 21.7-3.7q1.4-.1 2.8-.3 1.4-.2 2.9-.4c12.5-1.6 24.8-3.7 37.2-5.7q3.7-.6 7.3-1.1 1.8-.2 3.6-.5 1.6-.2 3.2-.4c2.8-.4 2.8-.4 4.5-3.6.2-2.4.2-2.4.1-5.1q0-1.5 0-3-.1-1.6-.1-3.3c-.2-22.5-.2-22.5 5-30.6.7-1.2.7-1.2 1.4-2.5 6.7-11.3 16.1-19.8 26.6-27.5q1.5-1.1 3-2.3c9.2-7.1 9.2-7.1 14-9.6 2.8-1.6 5.5-3.3 8.2-5 5.9-3.6 11.7-6.9 17.8-10.1q.8-.5 1.7-.9c8.8-4.8 17.7-8.5 27.2-11.7 7.3-2.4 14.2-5.3 20.9-9 4.7-2.3 9.3-3.6 14.3-4.7 2.5-.6 4.9-1.3 7.3-2.1 10.9-3.8 22-6.5 33.2-8.8q1.8-.4 3.7-.8c19.4-4 39.7-4.1 59.4-2.2zM574 202c0 4.1 0 4.5 2.4 7.4 12.4 16.5 5.6 48.5 3.1 67.4q-.3 1.6-.5 3.2l-.4 3.1c-5.4 37.3-14.3 81.5-44.6 106.9-4.5 3.3-9.2 6.2-14 9q-1.1.8-2.3 1.6c-3.2 1.7-5.4 1.8-9 1.8q-1.9.1-3.7.1-2 0-3.9-.1-2 0-4 0c-13.4-.2-23.4-1.5-33.1-11.4q-1.2-.9-2.4-1.9c-13.7-11.3-25.8-33.4-29.3-50.5q-.3-1.9-.7-3.8-.3-1.4-.6-2.8-7.8 1.2-15.6 2.4-2.7.4-5.3.8-7.7 1.2-15.5 2.4-2.6.4-5.3.8-4 .6-7.9 1.2l-2.4.4c-3.1.5-6 1-9 2l.2 3.6c.8 22.9-8 41.4-23.2 58.4-6.6 6.4-14.4 11.6-23 15q-1.3.6-2.7 1.2C307 425.5 289 425 275 419c-16.8-8.2-26.3-20.2-34-37-4.5 1.6-8.2 3.9-12.1 6.6q-1 .6-2 1.3c-11.6 7.9-21.8 17.4-31.9 27.1q-1.3 1.3-2.7 2.5c-24.5 24-41.8 58.7-42.5 93.2-.3 26.6 4.3 48.8 14.8 73.2q.8 2 1.7 4 .4 1 .8 2 1.2 2.8 2.4 5.7 1.4 3.1 2.8 6.3c4.9 11.8 3.9 21-.8 32.6q-2.7 6.2-5.5 12.2c-7.2 16 .8 33.8 6.2 49q1.8 5 3.5 10 2.4 7 4.9 13.9.4 1.3.9 2.6c3.4 9.5 6.9 18.9 10.7 28.2q.5 1.2 1 2.4c3.8 9 9.2 16.3 17.8 21.2 6.8 2.4 13.8 2.6 21 3 .1-6.1.1-11.9-1-18-.3-4.6-.4-8.7 1.1-13.1 1.9-1.9 1.9-1.9 5.4-2.4 3.7.5 4.3.7 6.5 3.5 4.3 9.5 3.7 20.8 4 31q2.1 0 4.2.1 1.2 0 2.4 0c3.4-.1 6.2-1 9.4-2.1.4-7.5.4-13.3-3-20-2-4.1-2.4-7.8-1-12 7.1-.5 7.1-.5 10.7 1.4 6.2 7.1 7.2 15.5 8.3 24.6 4.4-2.5 6.3-4.1 8-9 .9-8.3-2.1-14.4-6.6-21.2-6.5-8-15.6-10.8-25.2-13.6-4.3-1.3-7.4-2.4-10.2-6.2-6.4-13.9-10.5-33.7-8-49 3.1-4.5 8.2-6.1 13.1-8.3 7.6-3.5 14.3-7.3 20.9-12.7q1.4-1 2.8-2.1c17.9-14.1 30.4-32.5 35.2-54.9q.3-1.2.6-2.3c2.7-16.6-.7-34-8.6-48.7q-.7-1.3-1.4-2.6c-4.7-8.3-10.5-14.7-17.8-20.9-4.6-3.9-4.6-3.9-5.7-7.3-.1-4 .6-5.9 2.9-9.2 2.8-.9 2.8-.9 6-1 2.6 1.5 2.6 1.5 5.1 3.6q1.2 1.1 2.6 2.3c1.8 1.6 3.6 3.3 5.3 5.1q1 1 2 2 1 0 2 0 .4.8.8 1.7c1.4 2.6 3 4.7 4.8 7 15.9 21.6 20.2 47.2 16.4 73.5-1.5 9.5-1.5 9.5-3.2 14-.9 3.2-1 4.7.2 7.8 7.9 6.1 19.3 8.7 28.8 11.4q2.8.8 5.5 1.6c16.8 4.6 36.8 3.2 53.7 0 .2-11.1.3-22.1-1-33.1-.8-7.1-1.2-14.2-1.3-21.3q0-1.4 0-2.7c0-4.4.2-7.9 2.3-11.9 3.2-.8 3.2-.8 7-1 2.7 1.7 2.7 1.7 5 5 .6 4 .4 8 .2 12q-.1 3.6-.1 7.1-.1 1.8-.1 3.6c0 8.1 1 16.2 2 24.3q.2 1.6.4 3.3 1.3 10.3 2.8 20.6.8 6.2 1.6 12.4c2.2 16.4 4.8 32.7 8.2 48.9q.2 1.2.5 2.4c2.2 10.7 5.1 21 8.5 31.4q.5 1.4.9 2.8c4.8 14.5 10.4 27.3 23.7 35.9 7.9 3 16 4.8 24.4 4.3.2-4.6-.3-8.2-1.6-12.7-1.2-6.3-.8-13 .6-19.3 6-1.1 6-1.1 8-1 3 2.1 3.7 4.5 4.6 7.9q.4 1.3.8 2.6.3 1.2.6 2.5.3.9.5 1.9c.5 2.1.7 4.1.8 6.2q.1 1.1.1 2.3.1 1.2.2 2.3 0 1.2.1 2.5.2 2.9.3 5.8 3.7 0 7.4.1 1.1 0 2.2 0 2.7 0 5.4-.1c1.7-1.7 1.2-3.6 1.2-5.9 0-5-.8-9.1-2.4-13.8-.8-2.5-1.5-4.8-1.8-7.3 1.5-2.4 1.5-2.4 4-4 3.5-.1 3.5-.1 7 1 2.3 2.3 2.3 2.3 4 5q.5.8 1 1.6c1.5 3.6 1.7 7.3 2.1 11.1q.2 1.2.3 2.5.3 2.9.6 5.8c4.3-2 6.9-4.7 9-9 .9-9.7-3.3-17.2-9.3-24.6-5-5.6-11.5-8.9-18-12.5q-3.8-2-7.5-4.2-1.2-.7-2.4-1.4C510 721 510 721 509 718q-.1-2.8-.1-5.6c-.1-1.7-.1-1.7-.1-3.5v-3.8q0-1.9 0-3.9 0-4.2 0-8.4 0-4.2 0-8.4c-.1-24.2.8-48.4 4-72.5q.3-1.9.5-3.9c1.1-7.5 2.3-14.8 4.2-22.2q.3-1.1.6-2.3c1.1-4.1 2.4-6.9 5.9-9.5 2.8-.5 5.1-.2 8 0 3 5.1 1.8 9.7.5 15.2q-.9 3.2-1.9 6.5c-3.1 10.7-5 21.1-4.6 32.3 31-3.2 62.2-22 86-41 7.8-5.9 7.8-5.9 12.6-6.4q1.2.2 2.4.4c.5 4.5 1 9-1.1 13.2-10.1 12.1-27.5 23.3-41.7 30.1-2.5 1.5-2.5 1.5-2.7 4.3q0 1.6.1 3.1.1 1.8.2 3.6.1 1.8.2 3.7.1 1.8.2 3.6.4 5.7.9 11.5.1 1 .2 2.1c4.2 55.4 4.2 55.4 30.1 102.2 9 7 21.3 9.9 32.6 9.6.2-5.2-.1-9.8-1-14.9-2.5-13.9-2.5-13.9 1-19.1 3.6-.2 3.6-.2 7 0 7.3 10.7 8.2 23.4 9 36h15c0-7.5-.6-12.6-5.7-18.1-2.3-2.9-2.3-2.9-2.6-6.3q.1-1.3.3-2.6c7-1.3 7-1.3 11.2.1 8.6 5.9 10.6 14.2 12.8 23.9 2.7-.9 4.7-1.7 6.8-3.6 2.1-4.1 1.9-8.1.6-12.3-6.5-14.8-20.6-22.1-34.6-28.3q-1-.5-2.1-1c-.9-.4-.9-.4-1.9-.8-2.2-1.2-3.9-2.2-5.8-4-.8-2.5-1.3-4.7-1.6-7.2q-.2-1.1-.4-2.2c-1.2-7.4-2.1-14.9-2.7-22.5q-.1-1.1-.2-2.2c-3.1-38.3-1.7-77 2.7-115 .9-7.2 1.5-14.3 1.3-21.5v-2.5q0-3-.1-5.9c-2.7-1.3-4.8-1.2-7.8-1.2-39.9-.9-73.6-9.8-106.2-33.8q-.9-.7-1.9-1.4c-4.1-3.1-8.1-6.3-12.1-9.6q-.8-.7-1.7-1.4c-16.6-13.8-29.2-33.7-37.3-53.6q-.5-1.1-1-2.2c-1.6-4-2.8-7.5-2-11.8 2.7-2.4 4.6-2.9 8.1-3.4 2.9.4 2.9.4 4.4 1.9 1.7 2.8 2.8 5.7 4 8.7 6 15.3 14.2 28 25.5 39.8q1.7 2 3.4 4.1c4.3 4.9 9.4 8.8 14.6 12.9q1.5 1.2 3 2.4c25.8 20.9 58.2 32.3 91.3 31.9q3.6-.1 7.2-.1 2.3 0 4.6 0 1.1 0 2.2 0c4-.1 7.8-.4 11.7-1.2.3-1.3.3-1.3.7-2.6 3.8-13.4 8.8-18.5 20.3-26.4q1.2-.8 2.4-1.7c11.8-7.7 25.9-11 39.6-13.3v-8c-1.1-.4-1.1-.4-2.3-.9-11.4-4.5-20.2-9.5-26.6-20.2-2.2-6-2.1-13.1-.5-19.2 3.6-7.1 11.6-10.4 18.4-13.7q1.4-.7 2.8-1.4c9.8-4.1 20.2-4 30.1-.5 8.5 3.7 14.1 7.5 18.1 15.9q.5 1 1.1 1.9c3 6.8.6 14.7-1.9 21.3-3.6 8.1-9.2 11.5-17.2 14.8l-6 2q-.2 2.1-.3 4.2l-.2 2.4c.7 3.6 2.6 4.4 5.5 6.4q2.5 1.5 5 2.9c8.1 4.8 12.9 10.2 18 18.1 12.8-3.6 23.7-16.1 30.4-27.2 11.5-20.5 12.3-42.2 6.2-64.6-1.9-6.3-4-12.4-6.4-18.5-2.5-6.8-2.8-12.2-.9-19.3 7.9-32.7 5.8-63.2-5.4-94.7q-1.3-3.9-2.6-7.7-.4-1-.7-2.1c-.9-2.8-1.1-5-.6-7.9 1.5-1.9 1.5-1.9 4-3 3-.4 5.2-.1 8 1 1.1 1.6 1.1 1.6 2 3.5q.5 1.1 1 2.2.5 1.1 1 2.3c.4 1 .4 1 .9 2.1 4.8 11.5 7.7 23 9.7 35.2q.4 2.9.9 5.8c1.4 7.7 1.8 15.2 1.7 23.1q0 1.7 0 3.5-.2 14.2-1.2 28.3c8.4-3.6 12-14.4 15.3-22.4 7.4-19.3 10.3-40.4 1.7-59.8-8.2-16.9-19.9-31.5-33-44.8q-1.1-1.1-2.2-2.2c-6.6-6.3-23.2-20.8-32.8-20.8 1.3 3.6 3 6.6 5.1 9.8 3 4.8 3.5 7.7 2.9 13.2-6.2 1.5-6.2 1.5-9.8-.6-1.3-1.2-1.3-1.2-2.6-2.3q-1.4-1.3-2.8-2.5-1.4-1.3-2.8-2.6-2.4-2.2-4.9-4.3-1-1-2.2-2c-2-1.9-2-1.9-4.9-3.8q-1-.9-2-1.9 0-1.6 0-3.3c-.6-3.7-.6-3.7-2.7-5.1-2.5-1.3-5.1-2.5-7.7-3.6q-1.4-.6-2.8-1.3C679 180.5 627.5 179.9 574 202z" fill="#011a47"/><path d="M743 495c4.2 3.5 8.1 7.2 12 11q.9.8 1.7 1.7 2.6 2.5 5.2 5.1.8.8 1.6 1.6c9.7 9.7 9.7 9.7 11.5 16.6q1 0 2 0c3.1 4 5.2 8.3 7 13q2 3.5 4 7 1 1.8 2.1 3.6 1.7 3 3.5 6c1.6 2.7 2.4 5.4 3.4 8.4q.6 1 1.1 2.1c.9 1.9.9 1.9.9 5.9q1 0 2 0 .6 1.5 1.3 3.1c1 2.4 2.1 4.7 3.3 7 1.4 2.9 1.4 2.9 2.5 5.6.9 2.5.9 2.5 2.9 5.3 1.5 2.7 2 3.8 2 7q1 .5 2 1v8q1 0 2 0 .4 1 .8 2.1 1.3 3.1 2.6 6.1c1.5 3.5 2.7 7 3.8 10.6.7 2 1.5 3.9 2.4 5.9 2.6 6.1 3.8 11.7 4.4 18.3q1 0 2 0 .4 1.3.8 2.6c3 10.4 3 10.4 7.9 20 1.5 2.7 1.6 4.4 1.3 7.4q1 0 2 0 .2 1.7.3 3.5c.6 4.5 2 8.3 3.7 12.5q1.1 2.7 2.2 5.4.5 1.2 1 2.5c.8 2.1.8 2.1.8 4.1q1 0 2 0l.4 3.3c.5 3.6.5 3.6 1.6 6.7q1 .5 2 1 1.1 3 2 6 .9 2 2 4c.4.9.4.9.9 1.8 1.2 2.4 2.6 4.6 4.1 6.9q.8 1.2 1.6 2.4c1.3 2 1.3 2 3.4 2.9q0 1 0 2 1 0 2 0 0 1 0 2 1 0 2 0 0 1 0 2 1 0 2 0 0 1.5 0 3c2.9 1.5 5.7 2.6 8.7 3.6l2.5.8q.9.3 1.8.6 0 1 0 2c1.4-.1 1.4-.1 2.9-.1 3.1.1 3.1.1 5.1 2.1q3.4.8 6.8 1.5c7.1 1.4 13 3.2 19.3 6.9q1.5.8 3.1 1.7c2.6 1.8 4.7 3.6 6.8 5.9-3.7 4.7-7.5 8.3-12.4 11.7-1.7 1.2-1.7 1.2-2.6 3.3q-1.1-.1-2.3-.1c-2.9.1-4.1.7-6.7 2.1-4.3 1.5-8.1 2.1-12.6 2.4-4.4.4-6.8 1.2-10.4 3.6-3.8.7-3.8.7-7 1q0-1 0-2-.8.5-1.6 1c-3.1 1.3-5.2 1-8.5.6-4.5-.6-4.5-.6-8.9.4q-4 .1-8.1 0c-5.1-.3-5.1-.3-9.9 1q-4.2.3-8.3.5-2.3.1-4.6.2-1 .1-2 .1c-2.2.2-2.2.2-4.4.7-3.2.6-6.2.6-9.5.6q-1.9 0-3.9 0-.9 0-2 0-3 0-6.1 0h-3.8q-1.8 0-3.6 0c-2.8-.1-2.8-.1-4.8-1.1q-3.1-.1-6.1-.1-1.7.1-3.3.1H780q0-1 0-2h-1.8q-4 0-8 .1-1.4 0-2.8 0h-2.7-2.5c-2.2-.1-2.2-.1-5.2-1.1q-.5.5-1 1-3.5.1-7 0 0-1 0-2c-1.4 0-1.4 0-2.7.1-3.3-.1-3.3-.1-5.5-.7-2-.6-2-.6-4.8.6q0-1 0-2c-1.1.1-1.1.1-2.2.1-2.8-.1-2.8-.1-5-1-2.9-1.3-2.9-1.3-6.7-1.4-6.9-.6-16.4-3.6-21-8.9q-.5-.9-1.1-1.8c1.3-3.9 3.6-5.2 7.2-7.1 2-1 2-1 4.5-2.7 2.3-1.2 2.3-1.2 6.3-1.2q.5-1 1-2 1.5.5 3 1c2.6-.7 2.6-.7 5-2q.5-1 1-2 1.1-.2 2.3-.4c3.5-.8 5.1-2 7.7-4.6q1.6-3.5 3-7 .8-1 1.6-2c2-2.9 2-5.6 2.4-9q.3-1.1.6-2.1c.6-4.2.2-8.2 0-12.3q-.2-2.5-.3-5-.1-1.2-.2-2.4c-.1-1.9-.1-3.8-.1-5.7.3-2.4.3-2.4-1-3.5q0-2.4.1-4.8c.1-5.6-1-10.4-2.5-15.7-.6-2.5-.6-2.5.4-5.5-.4-2.6-.4-2.6-1-5q-1.5 0-3 0 .1-.9.3-1.9.2-1.2.3-2.4.2-1.2.4-2.4c.2-2.6.2-2.6-2-5.3l1-7c-.1-4.8-.5-8.9-2.5-13.3-1.9-4.6-2-8.8-2.2-13.7-.3-2.9-1-4.4-2.3-7-.1-2.5-.1-2.5 0-5.2.1-5.7-.2-11.6-3.1-16.7-1.1-2.6-1.1-4.5-1-7.4q0-1.3 0-2.7.1-1 .1-2-1 0-2 0 .3-.8.7-1.7c.4-3.2-1-4.5-2.7-7.3-.6-3.1-.9-6.1-1.2-9.2-.4-5.2-1.6-9-3.8-13.8q-1.2-3.8-2.3-7.7c-.7-2.2-1.6-4.2-2.7-6.3-1.2-2.9-2.2-5.6-2.9-8.6-1-3.2-1.6-4.4-4.1-6.4q.5-1 1-2c-1.1-2.9-2.7-5.6-4.1-8.4q-.6-1.1-1.2-2.3c-2.3-4.4-4.4-7.6-8.7-10.3q-3.5-1.1-7-2-1-1-2-2c.2-2.8.6-4.5 2.4-6.7 13.7-10.7 40.1-25 56.6-13.3z" fill="#fd9801"/><path d="M314.2 635.1c3.6 1.1 6.9 2.7 10.3 4.2 9.5 4.3 19.3 7.3 29.5 9.7q-.3 1-.6 2-.4 1.3-.8 2.7-.4 1.3-.8 2.6c-3.7 13-1.2 24.1 2.6 36.6a137.37 137.37 0 0 1 2.1 8.7c2.1 8.5 6.4 14.5 13.5 19.4 2.9 1.3 5.8 2.2 8.9 3 12.2 3.8 21.2 9.6 27.5 21.1 1.7 3.7 2.1 6.8 1.6 10.9-1.8 4.3-4 5.7-8 8q-.1-1.6-.3-3.3-.2-2.1-.4-4.3l-.2-2.1c-.6-5.3-2.1-8.9-5.1-13.3-2.8-2.3-2.8-2.3-6.1-1.8l-2.9.8c-1.3 2.6-.9 4.1-.6 6.9q.1 1.3.2 2.7c.3 2.5.3 2.5 1.4 5.4.1 4 0 8 0 12h-13q0-1.7-.1-3.5c-.3-8.9-1.1-16.6-4.1-25.1-.8-2.4-.8-2.4-.8-4.4q-2.2-.1-4.3-.2-1.2 0-2.4-.1c-2.4.1-2.4.1-4.1 1.6-2 2.8-1.5 5.3-1.2 8.7q.5 1.3 1 2.7c1.2 3.8 1.2 7.3 1.1 11.2q0 1 0 2.1 0 2.5-.1 5c-9.3.5-18.1-.8-26-6-6.8-6.2-10.8-13.6-14.9-21.8q-.9-1.8-1.8-3.6-2.7-5.3-5.3-10.6-.7-1.4-1.4-2.9c-6.7-13.5-12.7-27.3-18.4-41.2q-1.2-2.9-2.4-5.8-.6-1.3-1.2-2.6-.5-1.2-1-2.4c-.7-2.5-.6-3.7.4-6.1 1.5-1.8 1.5-1.8 3.3-3.6q1-1 2.1-2 1-1 2.1-2 2.1-2 4.2-4.1.9-.8 1.8-1.8c1.6-1.5 1.6-1.5 2.5-3.5q1 0 2 0l.6-1.6c1.3-2.2 2.5-3.9 4.2-5.7q.7-.8 1.5-1.6c1.7-1.1 1.7-1.1 3.9-1z" fill="#fd9802"/><path d="M145 267l1 1c-.5 5.9-2.4 11-4.7 16.4-4.7 12-5.9 24.2-5.7 36.9q0 1.1 0 2.2c0 11 .8 21 4.4 31.5q.4 1.1.7 2.3c5 15.6 12.6 29.1 22.4 42.2 2.6 3.4 5 6.9 7.4 10.4 1.4 1.9 2.8 3.5 4.5 5.1q-.7.8-1.5 1.6c-7.5 8.2-13.5 17.2-19.4 26.6-4.1 6.5-4.1 6.5-6.1 8.8q-1 0-2 0c-1.3-1.4-1.3-1.4-2.7-3.3q-.8-1-1.6-2.1-.9-1.1-1.8-2.3-.8-1.1-1.7-2.3-2.6-3.5-5.2-7-.7-.9-1.3-1.8c-6.8-9.2-12.4-19.1-17.7-29.2q-.6-1.1-1.1-2.2c-5.5-10.6-9.2-21.2-11.9-32.8q-.3-1.2-.6-2.4c-1.4-6.3-1.8-12.3-1.7-18.8q0-1.5 0-3c.1-8.3 1.1-15.8 3.3-23.8q.3-1 .6-2.1c5.5-19.5 16-40.6 34.4-51 2.7-1.2 5-1.1 8-.9z" fill="#fc9904"/><path d="M735.7 514.1c4.8 1.9 6.8 6.6 9.3 10.9q1.6 2.6 3.2 5.2 2.3 3.9 4.6 7.8 1.8 3.1 3.7 6.2c5.3 8.7 10.1 17.5 14.5 26.7q1.6 3.2 3.1 6.4c20 40.8 32.2 85.3 42.8 129.3q.5 2.1 1 4.2.2 1 .5 2c1.4 5.7 3.1 11.3 5 16.8 1.3 4 1.8 7.3 1.6 11.4-3.1 1.6-5.5 1.4-9 1-9.1-6.2-12.1-19.7-14.5-29.8q-.4-1.7-.9-3.5-1.3-5.3-2.6-10.7-1.5-6-3-12.1-.4-1.4-.7-2.9-2.9-11.4-5.9-22.8-.4-1.6-.9-3.2c-1.6-6-3.4-11.8-5.6-17.6-1.1-2.9-2-5.9-2.9-8.9a277.78 277.78 0 0 0-6-17.5q-.6-1.7-1.3-3.5c-3.4-8.7-7.3-17.1-11.6-25.4q-1.7-3.3-3.3-6.6c-.6-1.1-.6-1.1-1.1-2.2q-1.1-2.1-2.1-4.2c-1.4-2.8-2.8-5.5-4.6-8.1q0-1.5 0-3-1 0-2 0-.5-1-1-2.1c-3.4-6.9-7.1-13.7-10.9-20.4-2-3.4-3.7-6.8-5.1-10.5q-1 0-2 0c-3-5.2-3-5.2-2.9-8.8 2-5 6-4.8 10.6-4.1z" fill="#e67b00"/><path d="M664.1 348.7c5.1 3.6 8.6 8.1 9.9 14.3.7 6.3-1 11.5-4 17-3.6 4.2-8.2 6.6-13.6 7.4-7.8.2-12.3-1.6-17.9-6.8-3.9-4.2-5.4-8.4-5.6-14 .3-6.8 2.6-11.5 7.1-16.6 7.1-5.4 16.5-5.7 24.1-1.3z" fill="#031945"/><path d="M764.3 347.8c6.8 2.9 11.8 6 15 12.9 1.7 5.4 1.5 10.9-.5 16.1-3.1 5.5-5.7 9.2-11.8 11.2-5.6.6-11.7 1.1-16.9-1.4-5.4-4.5-9.1-9.6-10.1-16.6-.5-6.2.1-11 4-16 6.2-5.1 12.1-8.9 20.3-6.2z" fill="#031946"/><path d="M679 291c2.4 1.6 2.4 1.6 4 4 0 6.1-2.4 12-6.4 16.6-1.7 1.5-3.4 2.5-5.4 3.5-3.6 1.9-6.9 4-10.3 6.2-12.9 8.5-26.6 15.1-42.3 15.2-3.3-.6-4.5-2-6.6-4.5-1.5-3.1-1.3-5.6-1-9 2.2-3 3.4-3.9 7.1-4.6q1.8-.1 3.6-.2c18.2-1.8 33.2-12.2 46.6-23.9 3.8-3.2 5.8-3.8 10.7-3.3z" fill="#041844"/><path d="M744 292c2.5 2.1 4.4 4.6 6.4 7.2 6.3 7.8 12.3 13.6 21.4 17.9 1.1.5 1.1.5 2.1 1.1 4.7 2.2 9.4 4.2 14.3 5.9 1.8.9 1.8.9 3.8 3.9-.1 3.4-.2 5.3-2.8 7.7-3.9 2.3-7.8 1.9-12.2 1.3-12.1-3.1-22.2-10.5-32-18-1.1-.9-1.1-.9-2.3-1.7-5.8-4.7-10-10.1-11.3-17.6.8-3.4 2.1-5.2 4.6-7.7 3.1-1.6 4.7-1 8 0z" fill="#051943"/></svg>