<svg xmlns="http://www.w3.org/2000/svg" width="1024" height="1024" xmlns:v="https://vecta.io/nano"><path d="M693 60q1.2.3 2.3.6c38.1 9.3 82.5 31.1 104 65.4 5.8 10.3 9.1 20.5 11.7 32q.8.2 1.7.3c15.4 4.5 30 18.8 41.3 29.7l2.2 2c9.6 9.2 17.2 20.4 23.8 32q.5.9 1 1.8c9.8 17.6 15.4 37.2 15.3 57.4q-.1 1.6-.1 3.3c-.3 26.9-7.7 52.4-26.2 72.5q-.9 1-1.7 2c-6 6.5-15 13.3-24 14.3-5.5 0-9.6-.1-14.3-3.3-1.5-3.1-1.1-6.3-1.1-9.6q0-1.1.1-2.2 0-2.6 0-5.2l-1.6.8c-19.9 9.6-19.9 9.6-28.4 12.2-1.1.3-1.1.3-2.1.7-7.2 1.9-14.6 1.5-21.9 1.3a11.27 11.27 0 0 0 .3 1.8q.6 4.2 1.1 8.4.2 1.5.4 2.9c1.8 12.6 2.5 25.1 2.5 37.8q0 1.2 0 2.4c0 15.5-1.6 30.4-4.3 45.7q-.4 2.3-.8 4.6-1 5.7-2.2 11.4c-.2 1.1-.2 1.1-.5 2.3-6.9 33-19.6 64.5-36.5 93.7q-.7 1.3-1.5 2.6C721.2 603 706.6 621.8 690 640q-1.1 1.3-2.3 2.6c-6.8 7.7-13.9 14.8-21.7 21.4q-1.3 1.1-2.7 2.3c-14.9 12.6-30.4 23.8-47.2 33.7q-2.6 1.5-5.1 3-1.5.7-3.1 1.5c-4.6 3.9-6.2 9-8.5 14.4q-.7 1.7-1.4 3.5-1.4 3.3-2.8 6.6-1.5 3.7-3.1 7.3c-3 7.2-3 7.2-2.1 14.7 1.7 3.2 1.7 3.2 3.9 6.4q.6.9 1.2 1.8c3.6 5.5 7.4 10.9 11.2 16.4q.6.9 1.3 1.9.6.9 1.3 1.8c1 1.5 1.9 3 2.7 4.6 1.3 2.4 1.3 2.4 4.4 3.1q2.8.4 5.5.6c44.2 4.4 44.2 4.4 59.6 14.4 5.4 3.2 11.8 3.9 17.9 5q3.9.8 7.9 1.5l2 .4c17.1 3.4 33.6 7.5 50.1 13.1q1.2.4 2.4.8c13 4.4 27.7 10.3 37.6 20.2q0 1 0 2 1 0 2 0c3.4 5.4 6 9.5 5 16-4.4 12.5-13.5 19.4-25 25.2-44.9 21.3-98.2 26.1-147 30.8-1.4.1-1.4.1-2.9.3-65.9 6.4-138.5 8.2-204.1-1.3q-2.6-.2-5.1-.4c-126.7-8.7-126.7-8.7-159.9-45.6-3.9-5.4-4-10.5-3-17 5-12.6 19.3-19.8 31-25 12.6-5.2 25.4-9.3 38.7-12.4q3.4-.9 6.8-1.8c17.4-4.6 35.2-6.9 53-9.4q2.5-.4 5.1-.8c14.9-2.2 29.8-3.6 44.8-4.8q3.3-.3 6.6-.5 8-.7 16-1.3-.6-1.1-1.3-2.2c-14.3-25.7-14.3-25.7-20-37.4-.8-1.7-.8-1.7-1.7-3.4q-.5-1.1-1-2.3c-3.1-6.4-6.4-8.6-12.9-11.1-18.9-8.2-32.9-21.4-45.4-37.6-1.5-2.1-1.5-2.1-3.7-3l-1.8 2.9c-5.7 9.5-12 18.4-18.8 27.2L347 740c-12.8 17-26.8 33.1-42 48q-1.2 1.2-2.4 2.4C288.7 804 273.3 815.2 256 824q-.9.5-1.8.9c-17.4 8.9-35.8 14.1-54.7 18.5q-3 .7-6.1 1.5c-15.3 3.9-31 5.4-46.8 5.5q-1.6 0-3.4 0c-9.1 0-17-1.3-23.8-7.8-3.6-4.3-3.6-9.1-3.5-14.5 1.5-14.2 9-26.6 17.1-38.1q.6-.9 1.2-1.7c6.2-9.1 12.9-17.7 19.8-26.3q1.2-1.5 2.4-3c4.3-5.4 8.8-10.6 13.5-15.7q2.8-3.1 5.6-6.3 5.1-5.8 10.2-11.5 2.2-2.4 4.3-4.8c7.3-8.3 15.2-16 23-23.7-1.9.2-1.9.2-3.8.5-5.6.6-11.1.8-16.8.8q-1.4.1-3 .1c-7.1.1-12.6-1-18.1-5.8-4.9-5.7-2.7-18.5-2.3-25.6 3.1-34.9 11.8-70.9 23-104q.3-1 .7-1.9 2.7-8.1 5.4-16.2.4-1.1.8-2.3c2.8-8.3 5.7-16.5 9.1-24.6q.6-1.4 1.1-2.8c15.3-37 33.1-72.3 55.9-105.2q.7-1.1 1.5-2.2c20.6-29.9 45.2-60.2 73.9-82.7 2.4-1.9 4.7-3.9 7-5.9 6-5.2 12.3-10.1 18.7-14.8 10.7-7.9 10.7-7.9 20.9-16.4l1.7-1.5c19.4-16.9 31.4-36.1 39.3-60.5 3.1-9.4 6.4-18.7 10-28q.5-1.2.9-2.4c4.3-11.3 9-22.2 15.1-32.6q.5-.9 1.1-1.9c8.7-14.8 19-28.8 30.9-41.1.9-.9.9-.9 1.8-1.9 8.9-9.2 17.7-17.8 28.2-25.1q.8-.6 1.6-1.2c16.3-11.7 34.3-21 53.4-26.8q1.2-.4 2.4-.8c13.4-4.3 26.6-6.7 40.6-8.2q1.2-.1 2.4-.3c24.8-2.8 52.2-1.6 76.6 4.3z" fill="#929658"/><path d="M693 60q1.2.3 2.3.6c38.1 9.3 82.5 31.1 104 65.4 5.8 10.3 9.1 20.5 11.7 32q.8.2 1.7.3c15.4 4.5 30 18.8 41.3 29.7l2.2 2c9.6 9.2 17.2 20.4 23.8 32q.5.9 1 1.8c9.8 17.6 15.4 37.2 15.3 57.4q-.1 1.6-.1 3.3c-.3 26.9-7.7 52.4-26.2 72.5q-.9 1-1.7 2c-6 6.5-15 13.3-24 14.3-5.5 0-9.6-.1-14.3-3.3-1.5-3.1-1.1-6.3-1.1-9.6q0-1.1.1-2.2 0-2.6 0-5.2l-1.6.8c-19.9 9.6-19.9 9.6-28.4 12.2-1.1.3-1.1.3-2.1.7-7.2 1.9-14.6 1.5-21.9 1.3a11.27 11.27 0 0 0 .3 1.8q.6 4.2 1.1 8.4.2 1.5.4 2.9c1.8 12.6 2.5 25.1 2.5 37.8q0 1.2 0 2.4c0 15.5-1.6 30.4-4.3 45.7q-.4 2.3-.8 4.6-1 5.7-2.2 11.4c-.2 1.1-.2 1.1-.5 2.3-6.9 33-19.6 64.5-36.5 93.7q-.7 1.3-1.5 2.6C721.2 603 706.6 621.8 690 640q-1.1 1.3-2.3 2.6c-6.8 7.7-13.9 14.8-21.7 21.4q-1.3 1.1-2.7 2.3c-14.9 12.6-30.4 23.8-47.2 33.7q-2.6 1.5-5.1 3-1.5.7-3.1 1.5c-4.6 3.9-6.2 9-8.5 14.4q-.7 1.7-1.4 3.5-1.4 3.3-2.8 6.6-1.5 3.7-3.1 7.3c-3 7.2-3 7.2-2.1 14.7 1.7 3.2 1.7 3.2 3.9 6.4q.6.9 1.2 1.8c3.6 5.5 7.4 10.9 11.2 16.4q.6.9 1.3 1.9.6.9 1.3 1.8c1 1.5 1.9 3 2.7 4.6 1.3 2.4 1.3 2.4 4.4 3.1q2.8.4 5.5.6c44.2 4.4 44.2 4.4 59.6 14.4 5.4 3.2 11.8 3.9 17.9 5q3.9.8 7.9 1.5l2 .4c17.1 3.4 33.6 7.5 50.1 13.1q1.2.4 2.4.8c13 4.4 27.7 10.3 37.6 20.2q0 1 0 2 1 0 2 0c3.4 5.4 6 9.5 5 16-4.4 12.5-13.5 19.4-25 25.2-44.9 21.3-98.2 26.1-147 30.8-1.4.1-1.4.1-2.9.3-65.9 6.4-138.5 8.2-204.1-1.3q-2.6-.2-5.1-.4c-126.7-8.7-126.7-8.7-159.9-45.6-3.9-5.4-4-10.5-3-17 5-12.6 19.3-19.8 31-25 12.6-5.2 25.4-9.3 38.7-12.4q3.4-.9 6.8-1.8c17.4-4.6 35.2-6.9 53-9.4q2.5-.4 5.1-.8c14.9-2.2 29.8-3.6 44.8-4.8q3.3-.3 6.6-.5 8-.7 16-1.3-.6-1.1-1.3-2.2c-14.3-25.7-14.3-25.7-20-37.4-.8-1.7-.8-1.7-1.7-3.4q-.5-1.1-1-2.3c-3.1-6.4-6.4-8.6-12.9-11.1-18.9-8.2-32.9-21.4-45.4-37.6-1.5-2.1-1.5-2.1-3.7-3l-1.8 2.9c-5.7 9.5-12 18.4-18.8 27.2L347 740c-12.8 17-26.8 33.1-42 48q-1.2 1.2-2.4 2.4C288.7 804 273.3 815.2 256 824q-.9.5-1.8.9c-17.4 8.9-35.8 14.1-54.7 18.5q-3 .7-6.1 1.5c-15.3 3.9-31 5.4-46.8 5.5q-1.6 0-3.4 0c-9.1 0-17-1.3-23.8-7.8-3.6-4.3-3.6-9.1-3.5-14.5 1.5-14.2 9-26.6 17.1-38.1q.6-.9 1.2-1.7c6.2-9.1 12.9-17.7 19.8-26.3q1.2-1.5 2.4-3c4.3-5.4 8.8-10.6 13.5-15.7q2.8-3.1 5.6-6.3 5.1-5.8 10.2-11.5 2.2-2.4 4.3-4.8c7.3-8.3 15.2-16 23-23.7-1.9.2-1.9.2-3.8.5-5.6.6-11.1.8-16.8.8q-1.4.1-3 .1c-7.1.1-12.6-1-18.1-5.8-4.9-5.7-2.7-18.5-2.3-25.6 3.1-34.9 11.8-70.9 23-104q.3-1 .7-1.9 2.7-8.1 5.4-16.2.4-1.1.8-2.3c2.8-8.3 5.7-16.5 9.1-24.6q.6-1.4 1.1-2.8c15.3-37 33.1-72.3 55.9-105.2q.7-1.1 1.5-2.2c20.6-29.9 45.2-60.2 73.9-82.7 2.4-1.9 4.7-3.9 7-5.9 6-5.2 12.3-10.1 18.7-14.8 10.7-7.9 10.7-7.9 20.9-16.4l1.7-1.5c19.4-16.9 31.4-36.1 39.3-60.5 3.1-9.4 6.4-18.7 10-28q.5-1.2.9-2.4c4.3-11.3 9-22.2 15.1-32.6q.5-.9 1.1-1.9c8.7-14.8 19-28.8 30.9-41.1.9-.9.9-.9 1.8-1.9 8.9-9.2 17.7-17.8 28.2-25.1q.8-.6 1.6-1.2c16.3-11.7 34.3-21 53.4-26.8q1.2-.4 2.4-.8c13.4-4.3 26.6-6.7 40.6-8.2q1.2-.1 2.4-.3c24.8-2.8 52.2-1.6 76.6 4.3zm-189.4 82.7c-11.1 12.5-20.1 26.4-27.6 41.3q-.6 1.1-1.1 2.3c-6.2 12.4-10.6 25.3-14.9 38.5-8.4 25.9-18.7 50.4-38 70.2q-1.2 1.2-2.4 2.5c-5.8 6-12 11.3-18.6 16.5q-1.8 1.5-3.6 2.9l-17.5 13.6c-6.9 5.2-13.4 10.8-19.9 16.5q-1.1 1-2.3 2-2.9 2.5-5.7 5-1.1 1-2.2 1.9c-10.2 9.1-20 18.7-28.8 29.1-1.3 1.4-1.3 1.4-2.6 2.9-58.7 66.7-94.2 154-115.7 239.3q-.9 3.5-1.8 7c-3.4 11.7-5.6 23.8-7.9 35.8 19.1-1.3 38.6-7.6 55.2-17q2.7-1.5 5.4-2.9c13.7-7.3 25.2-17.4 36.4-28.1 1.4-1.4 1.4-1.4 2.9-2.8 6.2-6 11.8-12.4 17.1-19.2q.7-.9 1.5-1.9c9.1-11.4 16.7-23 23.5-35.8q.8-1.5 1.7-3 1.5-3 3.1-6 .7-1.3 1.4-2.7.6-1.2 1.3-2.5c1.8-2.6 3.6-3.7 6.5-5.1 3.8.1 6.1.3 9.2 2.7 2.9 3.7 2.5 6.9 2.3 11.5-3.5 26.6-22.7 53.3-40.4 72.5-2 2.2-3.9 4.3-5.7 6.5-3.2 3.7-6.7 6.7-10.4 9.8q.5 1 1 2c49-13.5 92.9-38.2 123-80q.6-.8 1.2-1.6c7.1-9.6 12.5-20.1 17.8-30.8 8.5-16.8 8.5-16.8 14-21.6 3.4-.6 6.6-.5 10 0 2.6 1.9 3.6 3.2 5 6 .7 6.7-.7 12.5-2.9 18.9-.4 1.3-.4 1.3-.9 2.7-7.1 19.9-18.8 38.3-32.5 54.3-1.8 2.2-1.8 2.2-3.7 5.1 23-8.5 43.5-24.2 61-41q1-.9 2-1.9c32.5-31 59-73.6 68-118.1q.3-1.4.6-2.9c4.2-22.3 2.1-46.3-10.3-65.7-1.6-2.3-3.4-4.3-5.3-6.4l-2.3-2.7c-16.8-19.4-37.5-25.4-62-28.8-12.4-1.8-12.4-1.8-16.6-6.7-1.5-3.7-1.8-6.8-1.1-10.8 2.2-4.1 5-6.1 9.4-7.5 23.1-4.4 50.9 3.4 70.3 16.2 22.8 15.6 40.4 38.9 45.9 66.4q.2 1.4.4 2.9l.6 3.6c6.2 52-18.7 107.5-50 147.6q-2.3 2.9-4.6 5.8-1.3 1.6-2.6 3.2c-3.7 4.7-7.5 9-11.7 13.1-1.8 1.8-3.3 3.6-4.9 5.5-25 28.8-66.8 55-103.7 64.8-10.1 2.3-10.1 2.3-18.3 7.9-1.3 3.1-2 6.2-2.8 9.5-1.3 3.2-2.8 6.4-4.2 9.5q-1.1 2.3-2.1 4.6-.5 1-.9 2c-.8 2-1.4 3.8-1.8 5.9 1.7 3.1 4.5 5.5 7 8q.8.8 1.6 1.7c7.3 7.6 14.4 14.8 23.4 20.3q1.4.9 2.9 1.8c19.3 12 42.1 13.9 64.1 9.2 27.5-6.9 49.3-21.7 64-46q.6-1 1.2-2c1.7-2.6 3.2-3.9 6.2-4.5 4.2-.2 6.7-.1 10.2 2.4 2.3 3.5 2.5 5.5 2.5 9.7-.1 1.5-.1 1.5-.1 3.1v2.3c13.6-.9 25.1-6.7 37-13q.9-.5 1.9-1c9.2-5 17.7-10.7 26.1-17q.9-.6 1.7-1.3c12.5-9.3 24.4-19.7 34.3-31.7q1.2-1.3 2.4-2.7c38.8-44.5 64.3-101 72.1-159.5.5-3.8.5-3.8 1.5-6.8 1-7.2 1.2-14.4 1.2-21.7q0-1.5 0-3 0-3.1 0-6.2.1-4.6.1-9.3c.1-19.2-1-41.5-10.7-58.7-1.7-5.9 1.4-14.1 2.7-20.1q.4-1.6.7-3.2 1.2-5.3 2.4-10.6.8-3.7 1.6-7.4 3.9-18.1 7.9-36 1.4-6.3 2.8-12.5c.3-1.6.3-1.6.7-3.1q5.4-24.7 10.5-49.5l5-22.9c.4-1.9.4-1.9.9-3.8q.7-3.3 1.5-6.5c2.9-12.5 3.1-26.6-3.8-37.9-1.7-2.1-3.5-3.8-5.5-5.6-1-1-1-1-2-2.1-7.2-6.9-15.5-12.2-23.9-17.5q-2.8-1.8-5.6-3.7c-16.9-10.8-34-16.2-53.5-20.7l-2.4-.6Q673.3 86 667 85q-1.9-.3-3.8-.6c-59.9-8.9-119 14.1-159.6 58.3z" fill="#003655"/><path d="M454.7 797.7c2.9-.1 5.4-.2 8.3.3 2.7 2.6 2.7 2.6 4.3 5.9l1.6 3.3c1.1 2.8 1.1 2.8 1.1 4.8q-1 0-1.9.1c-36.6.1-36.6.1-68.3 16.1-1.8 1.8-1.8 1.8-3.8 1.8-.4.8-.4.8-.7 1.6-1.3 2.4-1.3 2.4-3.4 5.4-2.8 4.9-2.9 10.6-1.9 16 2.6 3.4 3.5 3.9 7.8 4.5 5.7-.3 10-2.9 14.6-6.1 17-11.7 36.7-12.9 56.7-12.2q1.5 0 3.1.1c9.7.4 17.9 2.7 26.2 7.6 1 .5 1 .5 2.1 1.1q21.9 12.9 40.9 29.9c4 3.5 6.8 4.9 12.2 5.4 3.6-.3 4.9-.7 7.4-3.3 2.1-6.2 1.8-12.1-1-18.1-2.5-4.6-5.8-8.4-9.4-12.2-1.6-1.7-1.6-1.7-1.6-2.7 23.5-.8 39.8 5 57.6 20.1 4.1 3.3 8.3 3.4 13.4 2.9 4.6-1.9 6.9-4.5 9-9 1.2-8.1 0-15.8-4-23-5.1-6.8-10.6-11.9-18-16q0-.5 0-1c5.6-.2 10.4.3 15.8 2.1q1 .3 2.1.6c12.6 4.3 21.2 12 28.2 23.2 1.9 3 2.7 4 5.9 5.7 4.4.6 7.5.5 11.2-2.3 3.4-4.4 2.3-10 1.8-15.3-.5-2.5-1.1-4.6-2-7 4.3 2 8 3.8 11.5 7 4.6 4.1 9.4 7.1 15.7 7.6 3.8-.3 3.8-.3 6.8-2.5 2.8-4.3 2.9-7.2 2-12.1-2.7-8.3-8.6-16-16.3-20.2q-.8-.4-1.7-.8.5-1 1-2 .9.2 1.9.4 2.8.6 5.6 1.2 3.3.7 6.6 1.3a397.76 397.76 0 0 0 15 3c26 4.8 61.5 12.7 80.9 32.1q0 1 0 2 1 0 2 0c3.4 5.4 6 9.5 5 16-4.4 12.5-13.5 19.4-25 25.2-44.9 21.3-98.2 26.1-147 30.8q-1.4.1-2.9.3c-65.9 6.4-138.5 8.2-204.1-1.3q-2.6-.2-5.1-.4c-126.7-8.7-126.7-8.7-159.9-45.6-3.9-5.4-4-10.5-3-17 5-12.6 19.3-19.8 31-25 12.6-5.2 25.4-9.3 38.7-12.4q3.4-.9 6.8-1.8c16.8-4.4 34-6.7 51.1-9.2q5.3-.7 10.5-1.5c11.8-1.8 23.6-2.8 35.5-3.8q1.3-.1 2.5-.2 6.9-.6 13.9-1 2.8-.2 5.7-.4z" fill="#f8c464"/><path d="M685.8 115.6q1.1 0 2.3 0c11.4 0 22 .8 32.9 4.4q1 .3 2.1.6c16.3 5.1 30.9 12.8 44.9 22.4q1.4 1 2.8 1.9c6 4.4 6 4.4 6.8 7.4 1.8 12-1.1 23.2-3.8 34.8q-.7 2.6-1.2 5.2-.9 4-1.8 8-2.2 9.5-4.2 19l-7.4 34.6q-1.1 5-2.2 10l-.4 2q-.5 2-.9 4-.6 3-1.3 6-2.4 11.3-4.9 22.6-.3 1.3-.5 2.6-1 4.6-2 9.2-.2 1-.5 2-.2 1-.4 2-.6 2.9-1.2 5.7-1 4.4-1.9 8.9-.5 2.4-1 4.9-.2 1.2-.4 2.4c-.7 3.1-1.2 5.3-3.4 7.7-2.4 1.2-4.6 1.7-7.2 2.1-1.4.4-1.4.4-2.7.7-9.2 2.5-17.9 2.8-27.4 2.7q-1.1 0-2.3 0c-12.3 0-23.8-1-35.6-4.4q-1.1-.3-2.2-.6c-25.5-6.9-49.2-21.8-67.8-40.4-1.3-1.3-1.3-1.3-2.6-2.5-19.5-20.1-28.1-48.2-27.7-75.8.2-7 .8-13.8 2.3-20.7q.3-1.5.6-3c3.7-16.2 11.6-31.4 22.4-44l2-2.4c23-27.1 61.1-40.3 95.8-40z" fill="#fddaa0"/><path d="M362 659q.5 1 1 2l-2.5 5.4q-.9 1.6-1.7 3.3-1 1.8-1.9 3.6-.5.9-1 1.9c-16.5 31.4-37.2 59.3-61.9 84.8q-1.2 1.2-2.4 2.5c-15.2 15.4-34.5 32.1-54.6 40.5q-1-.5-2-1 .8-.7 1.6-1.4c5.7-5 11.2-10.3 16.6-15.7q1-.9 2-2c4.5-4.4 8.7-9.1 12.8-13.9q1.5-1.7 2.9-3.4c6.5-7.4 12.8-15.1 18.8-22.9q2-2.5 4-5 1.2-1.6 2.5-3.2l2.2-2.8c1.9-3.2 2.2-5 1.6-8.7-1.4-2.3-1.4-2.3-3.3-4.3q-.9-.9-1.9-2c-2.2-2.1-4-3.5-7.1-4.2-6.3 1.2-10.6 7.4-14.6 12.1q-9.7 11.1-20.2 21.5c-1.7 1.7-3.4 3.6-5 5.5-4.4 5-9.1 9.7-13.8 14.5q-1.3 1.2-2.6 2.6c-4.5 4.4-9 8.7-13.7 12.8q-2.4 2-4.7 4.2c-7.1 6.6-14.3 12.7-22.1 18.3q-.9.6-1.7 1.3c-11.1 8-34.3 24.6-48.7 22.3q-.8-.3-1.6-.6c11.8-22.6 28.2-41.9 44.8-61.1q4.6-5.3 9-10.8l8.1-9.8q.9-.9 1.7-1.9c1.4-1.4 1.4-1.4 3.4-1.4q.4-.9.8-1.8c1.2-2.3 2.6-3.9 4.4-5.7q.9-1 1.9-2 .9-1.1 2-2.1 2-2.2 4.1-4.4 1-1 2-2.1 3.4-3.6 6.6-7.3c3.8-4.2 7.8-8.2 11.9-12.2 2-2.1 3.9-4.2 5.8-6.4 12.6-14.7 12.6-14.7 18.3-15.3q1.8-.1 3.6-.3 2-.1 4-.3l2.2-.2c14.1-1.1 27.7-3 41.4-6.9 1.6-.4 1.6-.4 3.2-.9 12.5-3.6 24.7-7.5 36.6-12.8 2.4-1 4.6-1.8 7.2-2.3z" fill="#36757f"/><path d="M802 186c23.7 7.3 43.7 28.5 55.3 49.7 12 23.1 14.1 50.5 6.7 75.3-1.1 3.5-2.4 6.7-4 10q-.6 1.3-1.2 2.6c-2.4 5.1-4.7 8.5-8.8 12.4q-.5-1.4-1.1-2.9c-10.5-26.9-26.1-48.7-52.9-61q-2.5-1.1-5-2.1-3.5-1.5-7-3 .2-.9.4-1.8 1-4.6 2-9.3.4-1.8.8-3.6 2.3-11.1 4.7-22.2 1.3-6.4 2.7-12.8.6-3.2 1.3-6.4 1-4.5 1.9-9 .3-1.4.6-2.8c1-4.5 2-8.8 3.6-13.1z" fill="#36767f"/><path d="M709 182c6.5 5.4 11.2 11.5 15 19q.5.9 1 1.8c2.3 4.7 2.4 9.7 2.5 14.9a16.2 16.2 0 0 0 .1 2.2c0 4-.4 5.9-2.9 9.1-4.3 3.2-7.5 3.3-12.7 3-2.7-.4-2.7-.4-5-2-1.2-2.1-2.1-4.3-3-6.5-1.2-3.1-2.7-5.9-4.2-8.8-.8-1.7-.8-1.7-1.8-4.7-1.8-1.1-1.8-1.1-4-2q-1.1-.6-2.3-1.3c-5.7-3.1-10.2-4.8-16.7-3.7-7.4 2.5-11.8 6-15.6 12.8q-.9 1.6-1.8 3.2-1.4 2.6-2.8 5.2c-2 3.9-3.7 6.2-7.8 7.8-5 .5-8 .1-12-3-3.7-3.9-3.6-7.7-3.6-12.9.3-9.5 5.4-18.7 11.9-25.5 17.7-16.3 44.2-22.9 65.7-8.6z" fill="#013555"/><path d="M561.8 712.8h2.4q2.9.1 5.8.2c-2.2 7.9-5.1 15.3-8.3 22.9-2.8 6.3-2.8 6.3-2.7 13.1 1.6 3.3 3.6 6.3 5.6 9.4q.8 1.3 1.7 2.7 1.8 2.9 3.7 5.8l10.3 16.3q1 1.5 2 3.2.9 1.4 1.9 2.9.8 1.3 1.6 2.6c1.2 2.1 1.2 2.1 1.2 4.1h-32l-6.2-12.1q-8.4-16.2-17.2-32.2-.6-1.1-1.3-2.3-1.3-2.5-2.7-4.9-.7-1.2-1.4-2.4-.7-1.1-1.3-2.2c-.9-1.9-.9-1.9-.9-4.9a84.81 84.81 0 0 1 6.3-4.1c7.3-4.5 15.1-9.4 20.5-16.1 3.4-2.7 6.7-2.2 11-2z" fill="#f2d399"/><path d="M496 746q.4.8.8 1.6c5.7 11 11.6 22 17.8 32.7l7.1 12.7c6.1 11.4 12.3 20.7 23.3 28q0 .5 0 1-1 .1-2 .1c-4.8.4-9.4.9-14.1 1.8-7.6 1.5-15.2 2.3-22.9 3.1-1-3-1-3-.4-4.9.6-3-.5-4.5-1.9-7.2l-1.6-3q-.9-1.6-1.8-3.3l-1.8-3.4q-2.7-5.1-5.5-10.2-.8-1.4-1.6-2.9-4.4-8.1-8.8-16.2-4.4-8.1-8.9-16.2-.8-1.6-1.7-3.2-.8-1.4-1.6-2.9L469 751c-1-2-1-2-1-3q4.5-.5 8.9-1 1.3-.1 2.6-.3c5.5-.6 10.9-.8 16.5-.7z" fill="#f3d399"/><path d="M774 321c12.9-.3 24.4 2.5 36 8q0 1.5 0 3c-13.2 6.9-24 10.4-39 11-1.3-2.6-.8-3.7-.2-6.6.3-1.3.3-1.3.5-2.7q.3-1.4.6-2.8.3-1.4.6-2.9.8-3.5 1.5-7z" fill="#387780"/></svg>