<svg xmlns="http://www.w3.org/2000/svg" width="1024" height="1024" xmlns:v="https://vecta.io/nano"><path d="M238.9 36.5c14.5 2.3 28.4 16.1 39.7 24.9 4 3.1 8.2 6.1 12.3 9 7.9 5.7 15.6 11.5 23.1 17.6q1 .8 2.1 1.7c8.3 6.7 16.5 13.5 24.3 20.9 2.3 2.1 4.8 4.2 7.2 6.3 4.7 4.1 8.3 8.9 12 14 5.5 7.6 5.5 7.6 13.4 12.1 7.6-.3 13.5-2.7 20.5-5.7 12.6-5.2 25.1-8.6 38.5-11.3q1.2-.3 2.5-.5c42.6-9.2 93.3-2.5 133.2 14 8 3.6 8 3.6 16.3 2.5 6.7-4.1 12.3-9.1 17.7-14.7 3.3-3.3 6.9-6.1 10.5-9 2.7-2.2 5.3-4.5 7.9-6.9 3.9-3.5 7.9-6.8 12-10.1q4.4-3.5 8.7-7c6.3-5.2 12.7-10.2 19.2-15.1q5-3.7 9.8-7.5.9-.7 1.8-1.4 4.5-3.6 9-7.2 10.5-8.5 21.4-16.7 1.2-.9 2.4-1.8c5.8-4.3 11.3-8 18.9-8q1.2 0 2.5 0c2.7.5 3.5 1.2 5.2 3.4.9 2 .9 2 1.6 4.3q.4 1 .8 2.2c1.4 5.8 1.7 11.6 1.7 17.7q0 1.1 0 2.3 0 2.5 0 4.9 0 3.6 0 7.3c0 13.9-.2 27.7-2.5 41.4-1.3 7.5-2.3 15.1-3.3 22.6q-1.4 11-2.9 22-.4 3-.8 6L721 202q-.2 1.1-.4 2.2-.5 2.8-1.1 5.7c-.4 1.8-.4 1.8-.7 3.7-.8 3.4-.8 3.4-1.9 6.3-2.7 9.2.3 16.3 3.9 24.9 5.5 13.6 9.6 26.7 12 41.3q.3 1.9.6 3.9c1.9 11.4 1.8 22 .7 33.5l-.2 2.9c-1.5 16.8-1.5 16.8-3.9 21.6q-1.4 0-2.7.1-12.8.3-25.6.6-6.6.2-13.2.4-6.4.1-12.7.3-2.4.1-4.9.1-3.4.1-6.7.2c-2 .1-2 .1-3.9.1-3.8.2-3.8.2-7.3 1.2-1.9 4-2.5 7.6-2 12 1.3 2.4 2.1 3.7 4.7 4.6 2.9.5 5.6.5 8.5.5h3.9q2 0 4.1 0 2.1 0 4.2 0 5.5 0 11.1 0 5.6 0 11.3-.1 11.1 0 22.2 0c-.5 4.3-1.2 8-3 11.9l-1.2 2.6q-.6 1.3-1.2 2.6-1.3 2.7-2.5 5.3-.5 1.1-1.1 2.3c-1.1 2.4-2 4.8-3 7.3-6.3-.6-11.9-2.1-17.9-4.1l-2.8-1q-4.5-1.4-8.9-2.9-4.4-1.5-8.8-2.9-2.7-1-5.5-1.9c-5.3-1.8-10.4-3.2-16.1-3.2-2.3 4.4-2.8 9.1-2 14 2.6 3.7 6.8 4.5 10.9 5.8q1.1.4 2.3.8 3.8 1.2 7.5 2.4 3.7 1.2 7.4 2.4 2.3.8 4.6 1.5c4.8 1.6 9.6 3.3 14.3 5.1-2.9 13.1-17.8 21.6-28 28.8q-3.3 2.4-6.5 4.9C637.8 466 637.8 466 632 466c-1.5 4.6-1.7 8.4.4 12.9 1.4 2.2 1.4 2.2 3.6 3.1 6.8.7 10.6-.9 16.3-4.5q2.1-1.3 4.2-2.5.9-.6 1.8-1.2c1.7-.8 1.7-.8 4.7-.8 28.9 85.9 17.9 161.6-9.6 246.1-3.3 10.1-6.3 20.4-9.2 30.7L633 787.9q-1.2 3.9-2.4 7.9l-11.7 37.5c-2.1 5.7-2.1 5.7-1.9 11.7 1.9 2.7 4.1 5 6.4 7.4 11.3 11.4 16 23.4 16.1 39.2q0 1.4 0 2.8c-.1 5-.2 8.7-3.5 12.6-5.9 5-11.9 8.1-19.7 8h-2.4q-1 0-1.9 0-.1-1.6-.2-3.2-.2-6-.5-11.9-.2-2.6-.3-5.1-.2-3.7-.4-7.4c0-1.2 0-1.2-.1-2.3-.2-4.1-.6-7.5-2.5-11.1-2.9-2.4-4.3-3-8.1-2.9-2.9.9-4.1 1.5-5.9 3.9-1.6 3.2-1.1 6.7-1.1 10.3q0 1.2 0 2.5 0 3.9 0 7.8 0 2.7.1 5.3 0 6.6 0 13.1h-26c0-13 0-13 1-17 .3-3.3.3-6.6.3-9.9.1-1.4.1-1.4.1-2.7 0-4.3 0-6.8-2.1-10.5-3.2-2.7-5.2-2.6-9.2-2.3-2.3.3-2.3.3-4.1 2.2-2.1 4.6-2.2 9.2-2.3 14.2q0 1.2-.1 2.4-.1 3.7-.2 7.4 0 2.5-.1 5-.2 6.1-.3 12.2-3.1.1-6.2.2-1.8 0-3.6 0c-4.1-.3-6-1.4-8.8-4.3-6.6-8.9-6.6-17.3-6.7-28q0-1 0-2.1c.1-10.9.6-21.6 1.6-32.4l.2-2.2q.2-2.2.4-4.4.1-1.1.2-2.3.1-1.1.3-2.3l2.2-28.9.2-2.9c1.1-17.7 1.7-35.4 2.3-53.2.5-16.2 1.3-32.4 2.5-48.6l.2-2.7q.2-3.8.5-7.6.1-1.1.2-2.2.4-5.4 1-10.8c.6-4.7.7-9.3.7-14q0-1.2 0-2.5c0-4.6-.4-8.4-2.2-12.8-4.1-1-7.8-1.5-12-1-4.3 4.1-5.8 7.1-6.2 13v3.4q-.1 2.1-.1 4.1-.1 4-.2 8.1c-.3 11.4-1 22.7-1.7 34.1q-.9 15.3-1.8 30.6 0 1.1-.1 2.2-.3 5.6-.6 11.2-.6 10.6-1.2 21.3-.1 3.6-.3 7.2-1.2 20.4-2.3 40.8-.2 3.3-.4 6.7-.2 4.6-.5 9.2-.1 1.3-.1 2.6-.4 6.6-1 13.1c-.5 4.8-.7 9.5-.8 14.3q0 1.2-.1 2.4-.1 3.7-.2 7.4 0 2.5-.1 5-.2 6.2-.3 12.3c-8.6 2-17.1 2.3-25.9 2.3q-3.4-.1-6.8 0c-7.3 0-14.2-.3-21.3-2.3q.1-1.7.1-3.5c.3-14-.5-27.9-1.5-41.8q-.1-1.4-.2-2.9-.3-4.1-.6-8.2-.1-1.2-.2-2.5-.5-6-1.1-11.9c-.6-5.8-.9-11.6-1.1-17.3q-.2-3.6-.4-7.2-.1-1.9-.2-3.8-.5-10-1-20 0-1-.1-2l-2.5-42.3q-1.1-18.1-1.8-36.2c0-1.9 0-1.9-.1-3.7q-.3-8.9-.6-17.8-.1-3.2-.2-6.4v-2.9c-.3-8.7-.3-8.7-3.9-16.5-3.2-2.2-6.8-2.2-10.6-2.1-3.1 1.3-4.5 2-6 5l-.2 7.9q0 1 0 2c0 5.7.5 11.3 1.1 16.9 1.4 12.7 1.9 25.5 2.4 38.3q.3 5.2.5 10.3.1 1 .1 2.1.1 2.1.2 4.3.2 3.2.3 6.4.9 20.4 2 40.9.2 3.7.3 7.4c.6 11.3 1.2 22.6 2.5 33.9 1.1 8.5 1.7 17.1 2.2 25.7q.3 4.2.6 8.5c.7 9 1.1 17.9 1.1 26.9q0 1.2 0 2.4c0 8.4-.6 15.5-6.1 22.1-2.8 2.8-4.3 3.9-8.3 4.4-1.8-.1-1.8-.1-3.5-.1q-1.7-.1-3.5-.2c-1.4 0-1.4 0-2.7-.1-.6-5.7-1.1-11.4-1.2-17.1q-.1-1.5-.1-3.1-.1-3.1-.1-6.3c-.2-6.5-.8-11.4-5.4-16.4-3.4-1.6-5.6-1.1-9.2-.1-2.7 2.4-3.2 4.5-3.4 8q-.1 2.5-.1 4.9 0 1.3-.1 2.6 0 4.1-.1 8.3 0 2.7-.1 5.5-.1 6.9-.2 13.7l-24-1c0-12.3 0-12.3.3-17.1q.1-1.5.2-3.1.2-3.1.4-6.3c.3-5.7.4-9.6-2.9-14.5-1.2-1.4-1.2-1.4-4.9-1.2-3.2 0-3.2 0-6 1.6-2.4 3.6-2.5 7.1-2.8 11.3q-.1 1.2-.2 2.4-.3 3.7-.6 7.3-.4 4.9-.8 9.7-.1 1.1-.2 2.3c-.2 3-.5 5.7-1.5 8.6-9 .9-16.2-2.2-23.3-7.8-5.2-6.6-3.3-20.2-2.7-28.2 1.8-9.9 6.9-17.4 13.5-24.8q1.2-1.4 2.5-2.9 1.2-1.3 2.4-2.6c1.7-2.9 1.9-4.3 1.2-7.6-1.4-4.8-3-9.5-4.6-14.2-4.5-13.2-8.6-26.5-12.5-39.9q-4.3-14.3-8.5-28.6-1.1-3.7-2.2-7.4-7.4-24.7-15-49.3c-9-29.1-16.9-58.2-21.6-88.4-.1-1.2-.1-1.2-.3-2.3-3.2-22.2-3.5-45.9.1-68q.2-1.3.4-2.7c3.7-22.9 10.1-45.4 17.6-67.3 5.6 1.6 10.3 4.3 15.3 7.3 4.6 2.6 7.4 3.1 12.7 1.7 2.5-1.4 2.5-1.4 4-4 .6-3 .9-5.9 1-9q-.7-.4-1.4-.9c-6-4-12-8.2-17.9-12.4q-5.4-3.9-11-7.6c-26.3-17.7-26.3-17.7-32.7-31.1 6.8-3.7 13.9-6.1 21.3-8.5q6.9-2.2 13.7-4.5 1.6-.5 3.2-1 1.5-.5 3-1c1.3-.5 1.3-.5 2.6-.9 2.6-1.3 3.7-2.6 5.2-5.1.3-2.3.3-2.3-.1-4.6q-.1-1.1-.2-2.3c-.9-2.8-2.1-3.7-4.7-5.1-6.6-.8-12.8 1.9-18.8 4.4-5.6 2.2-11.3 4-17 5.9q-1.6.5-3.3 1c-5.6 1.8-11 3.2-16.9 3.7-13-27-13-27-13-31h2.3q11 .1 22 .2 5.6 0 11.3 0 5.4.1 10.8.1 2.1 0 4.2 0c10.1.3 10.1.3 19.4-3.3 1.5-3.1 1.2-5.6 1-9-1.7-3.7-1.7-3.7-5-6q-2.3-.2-4.7-.3c-1.4-.1-1.4-.1-2.9-.1q-1.6-.1-3.2-.1l-3.4-.2q-3.5-.1-7-.2-5.3-.2-10.6-.4c-13.7-.6-27.4-.8-41.2-.7-7.4-21.5-6.5-45-2-67q.2-1.1.5-2.3c2.6-13 5.7-26.2 10.9-38.4 2.4-6.5 1.1-11.8-.4-18.3q-1.2-5.4-2.3-10.9-.3-1.5-.7-3.1c-4.7-22.5-7.7-45.3-10.3-68.2q-.7-6.3-1.5-12.5c-1.4-10.8-2.6-21.7-3.4-32.6q-.1-1.6-.2-3.3c-.8-10.3-1-20.4.2-30.6q.1-1.1.3-2.3c.7-5.4 1.4-10.6 3.9-15.5q.4-.9.9-1.9c3.2-5.1 7.6-4.9 13-4.6z" fill="#f38600"/><path d="M256 19c4.6 2.3 8.8 5.1 13 8q2 1.3 3.9 2.6C281.2 35.2 289.1 41 297 47q2.9 2.2 5.7 4.3 1.5 1.1 3 2.3 3.6 2.6 7.2 5.2c8 6 15.9 12.2 23.5 18.8q2.5 2.2 5.1 4.4c9.2 7.8 18.3 15.6 26.6 24.3q1.1 1.1 2.2 2.2 2.1 2.2 4.2 4.5.9 1 1.9 2 .9.9 1.8 1.8c1.8 1.4 1.8 1.4 4.2 1 2.7-.8 5.4-1.6 8-2.5q1.6-.6 3.2-1.1 3.2-1.1 6.4-2.1c13.8-4.6 27.7-6.6 42.1-7.8q1.1-.1 2.3-.2c11.6-.9 23.1-1.5 34.7-1.2q5 .1 9.9.2c24.1.6 45.8 4 69 10.4q1.2.3 2.4.7 2.3.6 4.6 1.2c7.6 2.6 7.6 2.6 14.9 1.6q.8-.8 1.7-1.7l2-2c1.2-1.1 1.2-1.1 2.4-2.3q3.3-2.9 6.7-5.8 1.8-1.5 3.7-3.1l1.8-1.6q2.5-2.1 5-4.3c6.4-5.5 12.9-10.6 19.6-15.6 5.6-4.1 11-8.5 16.4-12.9q6.2-5.1 12.6-10c6.8-5.2 13.6-10.4 20-16.3 14.5-13.2 37.1-28.1 57.5-27.8 6.3.9 11 5.2 14.9 10 10.6 15.4 10.2 34.3 10 52.2q0 1.4 0 2.7c0 14.9-.6 29.7-2.2 44.5q-.2 1.6-.3 3.3c-1.3 11.6-2.7 23.2-4.6 34.8-.9 6.2-1.5 12.4-2.1 18.7-1.1 12.3-2.7 24-6 36-3.1 11.2-2.4 18.6 2.1 29.3 13.1 33 17.9 70.3 7.9 104.9q1.1-.1 2.1-.1c8.6-.2 16.8.5 25.3 1.5q1.6.2 3.4.4c16.1 1.9 16.1 1.9 18.7 5 .5 2.4.8 4.4.7 6.8q.1 1.2.1 2.4c-.3 2-.3 2-2.3 4-2.6.2-5 .2-7.6.2q-1.1 0-2.1 0c-4 0-7.9-.4-11.9-.9-5.8-.6-11.6-.7-17.4-.9q-2 0-4.1-.1-4.9-.2-9.9-.3c-.2.9-.2.9-.5 1.7-2.1 7.3-4.8 14.2-7.6 21.2q-1.4 3.3-2.7 6.6-.6 1.4-1.2 2.9c-.8 2.2-1.5 4.3-2 6.6q1.2.5 2.5.9 4.7 1.8 9.3 3.5 2 .8 4.1 1.5c23.8 8.9 23.8 8.9 28.1 15.1.2 4.3-.6 6.4-2.9 9.9-4.4 3-7.9 2.7-13.1 2.1-4.5-1.3-8.8-2.9-13.2-4.7q-3.6-1.4-7.1-2.7-1.7-.7-3.5-1.4c-6-2.3-12.1-4.3-18.2-6.2q-.4.9-.8 1.8c-1.3 2.4-2.8 4-4.9 5.9-2.6 2.6-5.2 5.2-7.6 8-3.1 3.7-6.4 7.1-9.8 10.5q-.7.7-1.5 1.5-.7.7-1.4 1.5-.8.7-1.5 1.4c-1.5 1.4-1.5 1.4-3.2 2.6-2 1.3-2 1.3-4.3 3.8.3 4.7 1.5 8.9 2.9 13.3l1.2 3.5q.6 1.8 1.2 3.7c5.8 17.7 10.1 35 12.7 53.5q.3 1.9.6 3.9c1.6 12.8 1.6 25.4 1.5 38.2q0 3.2 0 6.4 0 7.8-.1 15.5 1.4.2 2.9.4c15.7 2.8 29 20.9 37.6 33.2 8.6 12.5 14.7 26 19.5 40.4q.6 1.7 1.2 3.4c3.6 12.2 4.6 25 5.8 37.6 5.2-6.3 9.5-12.9 13.4-20.1q.9-1.5 1.7-3.1L796 668q.5-.9 1-1.9c2.5-4.8 4.4-9.8 6.1-15l.8-2.2c3.6-10.9 4.4-21.2 4.3-32.7q0-1.1 0-2.2c-.1-33.4-6.9-63-19.2-93.9-11.6-29.1-11.6-29.1-6.9-40.3 3.2-6.3 8.5-10.3 14.8-13.1 12-2.7 22.1 2.2 32.1 8.3 31.7 20.1 48.6 57.6 56.7 93.2 4.2 19.5 6.7 38 6.6 57.9q0 4.5.1 9c0 13.6-1.2 26.6-3.4 39.9l-.4 2.6c-3.5 21.9-10.7 44-21.6 63.4q-.7 1.4-1.4 2.8c-9.3 18.1-22.7 33.5-36.6 48.2q-1.1 1.1-2.2 2.3c-4.3 4.4-8.9 8.4-13.8 12.2l-8.5 7.2c-6.3 5.3-12.9 9.8-19.7 14.3q-1.8 1.2-3.5 2.4c-8 5.2-16.1 10.2-24.3 14.8-3 1.6-3 1.6-5 3.8q.6 1.5 1.2 3.1c5.2 13 7.1 25 7.8 38.9 1.5.3 1.5.3 3.1.7 11.1 2.5 22 5.6 32.9 9.3q1.5.5 3.1 1c7.1 2.6 12.2 6.6 16.9 12.5 1.4 3.6 1.7 5.7 1 9.5-6.5 12.6-26.7 18-39.4 22.2-18.8 5.9-38.3 9.4-57.6 12.8q-1.6.3-3.1.6c-18.9 3.3-37.6 5.8-56.7 7.5q-2 .2-4 .4c-24.5 2.3-49 4.1-73.5 5.3q-4 .2-8 .4c-29.1 1.7-58 2.1-87.1 2.1q-9-.1-18 0c-41 0-81.9-1-122.9-4.2l-3.4-.2c-19.4-1.5-38.8-3.2-58.2-5.6q-3.2-.4-6.5-.8C175.3 952 175.3 952 151 929c-2.3-3.2-3.5-5.4-3.1-9.4.7-4.5 2.3-6.9 5.7-9.9 11.5-8.2 29.2-15.7 43.4-15.7q0-1.4-.1-2.9c-.3-23.4 6.2-42.8 22.2-60.2 1.9-1.9 1.9-1.9 3.9-2.9-.5-4.7-2.7-7.8-5.4-11.5-6.5-9.2-11.1-19.2-15.6-29.5-.5-1.1-.5-1.1-.9-2.1-5.1-11.8-7.7-24.3-10.1-36.9q-.3-1.3-.5-2.7c-.6-4.3-.7-8.4-.7-12.7q0-1.3 0-2.7 0-2.9 0-5.7-.1-4.3-.1-8.6c-.1-17.7 2.4-33.9 8.3-50.6q.5-1.5 1-3c7.6-19.8 20.5-36.6 35.2-51.6q.8-.8 1.6-1.6c2.5-2.5 4.7-4.5 7.8-6.3 5.5-3 5.5-3 8.2-8.5.3-3.8.3-7.4.1-11.2q0-3.1 0-6.3.1-2.1.1-4.3c-.1-34.5 9-71.8 20.8-104.2 1.1-3.3 1.7-5.6.2-9-1.7-1.7-1.7-1.7-3.9-3.1-9-6.6-16.1-15.7-23-24.4-2.2-2.7-4.6-5.1-7.1-7.5q-5.7 1.9-11.3 3.9-2 .7-4 1.3c-9 3.1-18 6.3-26.9 9.8-4 1.6-7.4 2.7-11.8 2-3.6-2.9-5.7-6.7-6.8-11.1 1.3-4.5 3.8-6.6 7.8-8.9 2.9-1.2 5.8-2.1 8.7-2.9 3.4-1.1 6.6-2.5 9.9-4 4.2-1.9 8.5-3.6 12.8-5.4 1.4-.5 1.4-.5 2.8-1.1q1.2-.5 2.5-1 1.2-.5 2.4-.9c1.9-.7 1.9-.7 3.9-.7q-.5-1.2-1-2.3-1.8-4.4-3.5-8.7-1.2-2.8-2.3-5.6c-2.6-6.4-5.1-12.8-7.2-19.4-9.6-.1-19.2-.1-28.9.5q-10.5.6-21 .8c-1.5.1-1.5.1-2.9.1q-1.4 0-2.7 0-1.2 0-2.4.1c-2.1-.5-2.1-.5-3.9-2.4-2-3.5-1.6-6-1.2-10.1 2-3.4 5.3-3.9 9-5l7.7-1.1q1.1-.1 2.3-.2c13-1.4 25.9-1.9 39-1.7q-.3-1.5-.6-3.1-.4-2.1-.8-4.2-.2-.9-.4-2c-6.4-32.9-2.2-68.7 11-99.5 2.3-9.3.4-18.7-1.5-27.9q-1-5.3-2.1-10.6-.2-1.1-.4-2.2c-4.8-24.9-7.9-50.1-10.9-75.2q-.4-3.3-.8-6.5c-1.8-15.2-2.8-30.2-2.8-45.4v-2.2c-.1-17.3 1.7-34.5 13.3-48.2 2.5-2.3 5.1-4.2 8-6q1.4-.9 2.8-1.9c10.3-3.6 21.5 0 31.2 3.9zm-29.6 21.2c-9.8 16.4-6.7 40.1-5.2 58.2l.2 2.3c1.4 17.1 3.6 34.1 6 51.1q.8 5.9 1.6 11.9 1.5 11.2 3.2 22.4.2 1 .4 2.1c1.8 11.6 4 23.2 6.6 34.7q.4 1.7.8 3.4.3 1.5.6 3c.8 5.6-1.5 10.5-3.4 15.8-11.1 32.7-17.1 67.9-8.2 101.9 1.2 1.4 1.2 1.4 4.7 1.1q2.6-.1 5.2-.1c11.9-.1 23.8.2 35.7.6q3.5.2 7 .2 5.2.2 10.4.4 1.5 0 3.2 0c7.2.3 7.2.3 10.4 2.7 2.6 3.9 2.8 6.4 2.4 11.1-2.4 3.2-4.2 4.3-8 5q-3.1.1-6.2.1-1.9 0-3.9 0-2 0-4.1 0-2.1 0-4.2 0-5.5 0-11.1 0-5.6 0-11.3-.1-11.1 0-22.2 0 .7 2.1 1.4 4.2.4 1.2.8 2.4c1.2 3.6 2.7 7.1 4.3 10.6q.4 1 .9 2 2.6 6 5.6 11.8c5.8-.6 10.9-1.7 16.4-3.7 1.2-.3 1.2-.3 2.4-.7q3.7-1.3 7.3-2.5 2.5-.9 5-1.7 4.5-1.5 9-3.1 1-.3 2-.7 2.6-.9 5.2-1.8c4-1.2 7.1-1.4 11 .1 2.3 2.8 2.6 5.3 3.1 8.7-.6 3.7-2.6 5-5.4 7.4-2.6 1.3-5.3 2.1-8.1 3q-1.1.3-2.3.7-3.7 1.2-7.4 2.4-3.7 1.1-7.4 2.3-2.2.7-4.5 1.4c-5.1 1.6-9.6 3.7-14.3 6.2 8 13.5 19.1 22.2 32 30.7 3.1 2 6.1 4.2 9.1 6.4 6 4.3 12 8.3 18.2 12.2 2.7 1.7 2.7 1.7 3.7 2.7.2 3.8 0 7.5-2.2 10.7-1.4 1.4-1.4 1.4-4.8 3.3-6.2-.2-10.6-2.6-15.8-5.6q-2.3-1.2-4.5-2.5-1-.5-2-1.1c-1.7-.9-1.7-.9-3.7-.8-28.4 85.9-18.5 157.3 7.9 241.8l11 36.5q2.9 9.6 5.7 19.1.6 1.8 1.1 3.7 5.1 17 10.3 34 .9 2.9 1.7 5.8 1.3 4.1 2.5 8.1.3 1.2.7 2.4c1.6 5.3 3.4 10.4 5.5 15.4.7 2.8.4 4.5-.4 7.2-1.9 2.6-1.9 2.6-4.2 5.2-11.9 14.2-15.9 26.1-15 44.6.5 4.8 1.3 8.3 4.8 11.9 6.8 5 12.9 6.8 21.4 6.3 1.2-3.6 1.4-7.1 1.7-10.8q.2-2.4.4-4.7.2-3.7.5-7.4.3-3.6.6-7.2.1-1.1.1-2.2c.3-3.6.6-6.7 2.7-9.7 3.2-1.6 6.5-1.5 10-1 2.9 2.2 3 4.1 3.7 7.6.5 5.5.1 11-.3 16.5-.4 6-.4 11.8-.4 17.9l24 1v-8.4q.1-4 .2-8 0-2.8 0-5.6 0-4 .1-8 0-1.2 0-2.5c.1-4.3.3-6 3-9.6 2.7-1.9 2.7-1.9 6.3-2 4 1.3 5.2 2.5 7.4 6.1 1 2.9 1.2 5.1 1.3 8.2q0 1.5.1 3.1 0 1.6.1 3.2c.3 7.9.7 15.7 1.5 23.5 9.1 1 9.1 1 17.1-2.6 6.9-7.3 7.1-16.1 7.1-25.6q0-1.2 0-2.5c-.1-11-1-21.9-1.9-32.8q-.4-5.7-.8-11.3-.3-3.6-.5-7.2-.2-1.6-.3-3.3c-.3-4.1-.6-8.2-1.2-12.3-.7-4.8-.9-9.7-1.1-14.6l-.2-3.3q-.3-5.5-.6-11-.2-3.9-.4-7.7-1-19.9-1.9-39.8-.1-3.2-.3-6.4-.1-2.1-.2-4.2 0-1-.1-2.1-.2-5.1-.4-10.2c-.9-19.3-.9-19.3-2.6-38.6-.7-5.5-.9-11-1-16.5q0-1.1-.1-2.3c0-3.1.2-5.4 1.6-8.1 3.2-2.8 6.7-2.8 10.8-2.6 3.7 1.6 4.8 2.7 7 6 1.4 4.8 1.3 9.8 1.4 14.7q.1 3.1.2 6.1 0 1.7.1 3.3c.8 25.1 2.2 50.2 3.7 75.3q.3 5.4.7 10.7 0 1.1.1 2.1l1.9 36.3c.6 14.1 1.6 28.2 2.8 42.3 1.3 13.9 2.3 27.8 2.2 41.8q0 1.5-.1 3.1 0 3.6 0 7.3c7.8 2.2 15.5 2.3 23.6 2.3q3.4-.1 6.8 0c8 0 15.7-.4 23.6-2.3q0-1.4.1-2.8.1-5.5.2-10.9.1-2.3.1-4.7c.3-11.9 1-23.7 1.8-35.6q1-14.1 1.8-28.2c0-1 0-1 .1-2.1q.4-6.4.7-12.7.2-3.4.4-6.8 1.4-24.6 2.7-49.2c0-1 0-1 .1-2.1q.5-10.4 1-20.8.1-1.7.2-3.4.2-3.2.3-6.3.4-7.3 1-14.6c.4-4.7.6-9.3.7-13.9q.1-2.2.1-4.3.1-3.3.1-6.6 0-3.3.1-6.5.1-1.9.1-3.9c.5-4.8 2-8.5 4.6-12.5 4.1-2.5 9.4-1.2 13.8-.1 2 5 2.3 9.3 2.2 14.6q.1 1.1.1 2.2c0 5.8-.6 11.5-1.2 17.2-1.3 12.4-2 24.7-2.7 37.1l-.2 3.6-1.6 41c-.4 15.7-1.4 31.3-2.5 47-.2 1.8-.2 1.8-.3 3.7l-2.6 33.9c-1 10.2-1.6 20.3-1.6 30.5q0 2 0 4.1c-.1 10.8 1.7 19.2 9.4 27.1 3.6 2.4 5.4 2.2 9.7 2.1h3.6q1.3-.1 2.7-.1 0-1.5 0-3.1.1-5.7.3-11.5 0-2.4 0-4.9.1-3.6.2-7.2 0-1 0-2.2c.1-4.9.8-10.4 4.5-14.1 1.9-.3 1.9-.3 4.3-.4q1.2 0 2.4-.1c2.3.5 2.3.5 4.6 2.4 2.4 4.4 2.2 8.2 2 13.2q0 1.3 0 2.7c-.1 4-.3 7.3-1.3 11.2v13h26l-.1-8q0-3.8 0-7.6 0-2.6-.1-5.3 0-3.8 0-7.6v-2.4c0-7 0-7 2.2-10.1 3-1.7 4.7-2 8.1-1.8 3 .8 4.1 1.3 5.9 3.8 1.2 4 1.3 8.1 1.5 12.3q.1 1.1.2 2.4.2 3.8.4 7.5.1 2.6.2 5.2.4 6.3.7 12.6c10.2.3 16.3-2.4 24.5-8.5 3.3-3.2 2.7-7.6 2.8-11.9.2-17.3-4-28.6-15.3-41.6-2.9-3-2.9-3-5.9-5.8-3-5.9.5-13.7 2.5-19.6q.5-1.6 1.1-3.2 1.2-3.8 2.5-7.5.3-1.1.6-2.1c3.2-9.7 6-19.5 8.9-29.3q.5-1.5 1-3 4.8-16.5 9.7-33 1.2-4.2 2.5-8.4.8-2.8 1.6-5.5l8.4-28.1C681.7 627.8 692 553.4 663 473c-5.3.6-9.2 3.4-13.6 6.2-4.6 2.9-7.9 3.3-13.4 2.8-2.4-1.9-3.6-3.3-5-6-.1-3.7-.2-6.5 1-10q3-1 6-2c2.6-1.3 5-2.9 7.5-4.4q1-.7 2.1-1.4c6-3.8 11.6-8.1 17.1-12.6 3-2.4 6.1-4.6 9.2-6.9 12.9-9.1 12.9-9.1 20.1-22.7q-6.3-2.2-12.5-4.5-2.2-.7-4.3-1.5-3.1-1.1-6.1-2.2-1.1-.4-2.1-.7c-5.4-1.9-10.9-3.6-16.4-5.1-2.6-1-3.9-1.8-5.6-4-.8-4.9-.3-9.6 2-14 6.1-.4 10.7 1 16.4 3q1.3.4 2.7.9 4.2 1.5 8.4 3 4.2 1.4 8.4 2.9 2.6.9 5.2 1.8c9.2 3.5 9.2 3.5 18.9 4.4q2.7-6 5.4-12.1.8-1.7 1.6-3.4.7-1.6 1.5-3.3.7-1.6 1.4-3.1c1.2-3.4 1.7-6.5 2.1-10.1h-2.4q-11 .1-22 .1-5.6 0-11.3.1-5.5 0-10.9 0-2.1 0-4.2 0-2.9 0-5.8 0H661c-3.1-.2-5.2-.7-8-2.2-2.4-3.5-2.3-4.8-2-9 .7-3.3.7-3.3 2-6 3.5-1.4 7.4-1.2 11.2-1.3q1 0 2.1-.1 3.5-.1 7.1-.1 2.4-.1 4.9-.2 6.4-.1 12.8-.3 6.6-.2 13.1-.3 12.9-.4 25.8-.7c3.9-11.5 4.6-23.9 5-36q0-1.2.1-2.4c.2-7.9-.9-15.5-2.3-23.3q-.2-1-.3-2c-2.1-12.2-5.2-23.5-9.8-35.1q-.6-1.5-1.3-3-1.2-3.1-2.5-6c-3.6-8.8-3.9-15-.7-23.9 1.4-4.1 1.8-8.4 2.4-12.7.6-5.2 1.3-10.4 2.3-15.6 1.5-8.1 2.5-16.2 3.6-24.3q.3-2.4.6-4.8 1.3-9 2.4-18.1l3.4-22.9c2.2-13.7 2.3-27.6 2.3-41.4q0-3.7 0-7.3c.1-10.7-.3-20.5-5.2-30.2-2.4-2.4-3.2-2.3-6.5-2.4-10.8.3-18.7 7.6-26.8 14q-2.5 2.1-5.1 4.1-7.1 5.5-14.1 11.1c-7.1 5.8-14.3 11.3-21.6 16.8-6.8 5-13.3 10.1-19.7 15.7-3.7 3.2-7.5 6.2-11.3 9.3-5.7 4.5-11.2 9.2-16.5 14.2l-8.4 7.5q-2.2 1.8-4.2 3.8c-10.8 9.8-10.8 9.8-15.8 10-6.2-.7-11.2-2.7-16.9-5.3-18-7.7-37.7-11.4-57.1-13.8q-1.1-.1-2.3-.3c-25.1-2.7-52.1-2.3-76.7 3.3q-1.6.4-3.3.7c-12.2 2.9-24.1 6.3-35.5 11.7-5.2 2.5-11.4 4.9-17.2 2.9-4-2.1-6.4-4.7-9-8.3-6-8-12.1-15.6-19.7-22-2.2-1.9-4.3-3.9-6.4-5.9-6.4-5.9-13.2-11.4-20.1-16.7q-2.6-2-5.2-4.1c-7.2-5.8-14.7-11.3-22.2-16.7-3.9-2.8-7.7-5.6-11.5-8.7-19.8-16.8-19.8-16.8-43.9-23.4-3.4.6-4.4 1.1-6.6 3.7z" fill="#013757"/><path d="M761 892c7.4 0 14.3 2 21.3 4.3a50.93 50.93 0 0 1 3.1.9q4.3 1.4 8.6 2.8c1.1.3 1.1.3 2.2.7 8.8 2.9 15 6.5 20.8 13.8 1.4 3.6 1.7 5.7 1 9.5-6.5 12.6-26.7 18-39.4 22.2-18.8 5.9-38.3 9.4-57.6 12.8q-1.6.3-3.1.6c-18.9 3.3-37.6 5.8-56.7 7.5q-2 .2-4 .4c-24.5 2.3-49 4.1-73.5 5.3q-4 .2-8 .4c-29.1 1.7-58 2.1-87.1 2.1q-9-.1-18 0c-41 0-81.9-1-122.9-4.2q-1.6-.1-3.4-.2c-19.4-1.5-38.8-3.2-58.2-5.6q-3.2-.4-6.5-.8C175.3 952 175.3 952 151 929c-2.3-3.2-3.5-5.4-3.1-9.4.7-4.5 2.3-6.9 5.7-9.9 11.5-8.2 29.2-15.7 43.4-15.7.3 1.7.3 1.7.7 3.5 2.1 8.3 6.8 13.9 14 18.6 18.3 10.4 45.2 8.6 65.5 7.4q3.7-.2 7.3-.4 2.6-.1 5.2-.3c10.9-.6 20-.9 29.5 5.1 11.1 6.9 24.6 6.5 37.2 6.5q2.4 0 4.9 0 5.1 0 10.2-.1 6.5 0 13 0 5 0 10.1 0 2.4 0 4.8 0c16.5.1 16.5.1 31.9-5.2l3-1.6c2.2-1.2 4.2-2.4 6.2-3.8 4.2-2.8 7.9-2.8 12.9-2.9 1.9-.1 1.9-.1 3.9-.1q8.8-.1 17.7-.2 4.7-.1 9.3-.2 5.7-.1 11.4-.1 2.1 0 4.2-.1c7.3-.2 12.7-.3 18.2 4.8q1 1.1 2 2.1c7.5 7.7 22.2 7.8 32.4 8.1q4.1 0 8.1 0c1.5 0 1.5 0 3-.1q3.2 0 6.3 0 4.5 0 9 0 7.2 0 14.5-.2 2.9 0 5.9 0c14.6 0 30.5-.4 42.9-9.1 10.9-6.6 28.4-2.8 40.7-1.9C703 925 728 926.3 746 916q1.7-.8 3.4-1.7c6.5-5.7 9.1-12.9 10.6-21.3q.5-.5 1-1z" fill="#fbdc80"/><path d="M433 330q.2.9.4 1.8c4.7 18.9 10.8 29 26.9 40 4.3 3 7.1 5 8.7 10.2-6.6 9-15.9 14.3-26.9 16.6-10.6 1.4-19.5 1.4-28.2-5.2-4-3.3-7.4-7-10.7-11-2.2-2.5-3.6-2.4-7-2.7-3.1 0-4.3.3-7.1 1.9-2.1 2.3-3.2 4.1-3.4 7.2 1 7 5.2 14.5 10.9 18.8 15.8 9.5 32.9 15.5 51.5 12 9.7-2.4 19.8-7.1 27.8-13 2.1-.6 2.1-.6 5.2.8q1.9 1.1 3.7 2.2c15.7 8.9 34.1 13.7 52 9.3 12.2-4 25.3-10.4 31.8-22 1.8-4.2 2.1-7.4 1.4-11.9-1.8-3.2-1.8-3.2-5-5-4-.7-6.3-1-9.9 1.1-3 2.5-5.5 5.4-8 8.5-4.4 5.3-10.3 8.4-17.1 9.4-13.1 1.2-24.3-1.9-34.7-9.9-2.5-2.2-4.5-4.3-6.3-7.1-.1-2.1-.1-2.1 1-4 2.2-1.9 2.2-1.9 5-3.8q1.5-1.1 3-2.1 1.5-1 3-2.1c10.5-7.6 16.6-14.6 21-27q.5-1.4 1.1-2.9c1-3.4 1.5-6.6 1.9-10.1 23 2.6 46.3 5.5 64 22q.9.8 1.8 1.7c5.7 5.8 9 13.2 12.4 20.6q1 2 2 4.1c1.3 4.1 1.1 8.2 1.1 12.5v2.9c-.3 16.2-4.5 30.9-15.3 43.2q-1 1.2-2.1 2.5c-5.4 6.2-11.3 11.5-17.9 16.5q-1.1.9-2.3 1.8c-25.8 19.4-60.8 25.6-92.3 25.7q-1.1 0-2.3 0c-32.2.1-68-9.8-92.4-31.6q-1.8-1.7-3.5-3.6c-1.2-1.4-1.2-1.4-3.2-2.3q0-1 0-2-.8-.3-1.7-.7c-10.6-6.1-16.1-18-19.5-29.1-4.2-16.1-3.4-35 4.6-49.7 11.7-18.1 31.2-27.9 51.6-32.5q1.5-.3 3-.7c6.7-1.4 13.2-1.5 20-1.3z" fill="#fcdc7f"/><path d="M699 618c10.1 1.6 21.3 16.7 27.3 24.8 7.9 11.2 13.2 23 16.7 36.2q.3.9.6 1.9c3.7 12.7 3.8 25.5 3.8 38.7v2.6c0 9.5-.2 18.6-2.4 27.8q-.2 1.1-.5 2.3c-4.7 23-13.9 51.4-30.5 68.7-2.7 1.4-5.1 1.4-8.1 1.6q-1.9.2-3.8.4-3.9.4-7.8.7-1.9.2-3.8.4-1.6.1-3.4.3c-3.4.6-5.4 1.5-8.1 3.6-.5 4.7-.6 8.9 2 13 3.1 2.1 5.5 2 9.1 1.6a116.39 116.39 0 0 1 14.5-.9q1.2-.1 2.4-.1c7.3-.1 12.2 2.1 17.8 6.7 11.7 11.8 14.9 25 15.5 41.4-.1 3.3-.3 5.2-1.6 8.3-5.9 4.3-13.5 5.2-20.7 5l-.2-1.9q-.3-4.3-.7-8.7-.1-1.4-.2-3c-.5-9.3-.5-9.3-4.7-17.4-3.1-1.4-4.9-1-8.2 0-2 1.6-2.9 2.7-4 5q-.2 3-.3 6.1c-.1 1.8-.1 1.8-.1 3.7q-.1 1.9-.2 3.8c0 1.9 0 1.9-.1 3.9q-.2 4.7-.3 9.5-5.9 0-11.8.1-3 0-6 0c-18.9 0-18.9 0-23.2-2.1 0-.8 0-.8.1-1.7.5-12.8-.3-23.4-5.1-35.3q-.4-1.2-.9-2.5c-2.3-5.7-5.7-10.9-8.9-16.2q-.6-.9-1.2-1.8c-.5-.9-.5-.9-1-1.7l-1-1.8q-.6-1.1-1.3-2.1c-1.1-4.4.3-7.8 1.5-12.1q.4-1.3.8-2.8 1.4-4.6 2.7-9.2 1-3.3 2-6.6l16.4-53.7c10.8-34.6 21.1-69.5 30.2-104.7q1-3.9 2-7.8c1.8-6.6 3.2-13.1 3.5-20 .2-2 .2-2 1.2-4zm-444 0c2 2.9 2.3 4 2.8 7.3q.1 1.3.3 2.7.2 1.5.5 3c4.3 27.8 13 54.4 21.7 81.1 3.8 11.7 7.4 23.4 10.4 35.3 1.9 7.3 4.2 14.4 6.6 21.5 5.1 15 9.4 30.1 13.6 45.3q1.4 4.9 2.8 9.8.4 1.3.8 2.5.6 2.2 1.2 4.4c1.6 5.6 2.2 9.3-.5 14.7q-1.1 1.9-2.3 3.8c-8.1 13.7-13 27.2-13.5 43.2q-.1 1.3-.1 2.7-.2 3.4-.3 6.7c-9.3 1.9-18.3 2.2-27.8 2.1-4.7 0-9.4-.1-14.2-.1v-32h-11c-3.1 4.1-3.5 5.5-4.1 10.4q-.2 1.9-.4 3.8c-.3 1.9-.3 1.9-.5 3.8q-.5 3.7-1.1 7.4-.3 1.6-.5 3.2l-.4 2.4c-7.2-.3-13.8-1-20-5-4.7-7-1.9-17.4-.3-25.3 2.7-12.6 10.5-22.6 21-29.8 3.6-1.4 7.2-1.1 11-1.1q1.2 0 2.4 0c4.1.1 8.1.3 12.1.9 4.7.4 6.7-.4 10.8-2.7 1.2-2.5 1.2-4.2 1.3-6.9q0-1.3 0-2.7c-.1-2.4-.1-2.4-1.6-4.2-3-2.2-6-2.4-9.6-2.7q-1.5-.1-2.9-.2-3.1-.2-6.1-.5-1.4-.1-2.9-.2l-2.7-.2c-4.3-.7-6.9-1.7-9.8-5q-1.2-1.6-2.3-3.3c-.7-.9-.7-.9-1.3-1.8-13.5-19.9-21.9-40.5-26.6-64q-.6-2.8-1.2-5.6c-6.4-30.1.8-70.1 17.4-95.9 7.1-10.2 16.9-21.9 27.3-28.8zm559.5-127c19.8 9.9 31.1 28.8 40.5 48q.9 1.7 1.8 3.5c10.1 21.9 14.7 48.5 15.2 72.5q0 1.7.1 3.4c.7 27.1-2.4 52.5-10.1 78.6q-.3 1-.6 2.1c-8.4 29-24.8 55-45.4 76.9q-.9 1-1.8 2c-6.2 6.4-13.2 11.7-20.2 17q-.9.7-1.8 1.4c-13.3 10.1-27.4 19-42 27.2l-2.2 1.3c-4.2 2.3-8.2 3.9-13 5.1.5-5.8 2.9-10 5.7-15 6.5-12.2 11.6-24.4 16-37.6q.6-1.6 1.1-3.4c1.9-5.6 3.4-11 4.5-16.9 1.5-6.6 4.4-9.7 9.6-13.8 19.1-16.7 32.7-39.1 42.3-62.4 1.1-2.5 2.3-4.9 3.5-7.3 20.5-45.5 10.6-104.5-5.7-149.6q-3.5-8.9-7.5-17.7-.6-1.5-1.3-3-.6-1.3-1.2-2.7c-1.1-2.9-1.6-5.6-2-8.6 5-2.4 9.2-3.1 14.5-1z" fill="#f38700"/><path d="M495.1 316q1.4.3 2.8.7c9.8 2.5 18.7 6.7 27.1 12.3.6 6-.5 10.6-2.8 16.1-.3 1-.3 1-.7 2.1-4.8 12.3-13.9 19.7-24.5 26.8-2.4 1.6-4.7 3.3-7 5 .7 4.8 3.7 7.9 7.4 10.9 10.7 7 22.3 10 35.1 7.6 9-2.6 14.9-8.6 20.8-15.6 2.6-2.9 3.6-2.9 7.5-3.2 3.3 0 4.2.3 7.1 2.2 2.8 2.8 3.1 3.7 3.5 7.7-.1 6.8-4.1 12.2-8.6 17.1-12.8 12-28.8 16.1-45.9 15.7-14.3-.8-27.3-8.1-39.9-14.4-2.2 1.2-4.3 2.4-6.4 3.7-6 3.5-11.9 6.2-18.6 8.3q-1.4.5-2.8 1.1c-15.5 4.4-33.4-.3-47.1-7.8-8.2-4.9-14.6-11.9-17.1-21.3-.2-4.8.4-6.3 3.6-9.9 2.9-2.1 5.6-3 9.3-2.7 5.7 1.7 9.5 6.8 13.1 11.3 3.7 4.5 8.5 6.5 14 8.3 14.4 1 26.2-1.5 38-10 2-1.9 3.4-3.7 5-6-1.4-4.7-3.6-6.6-7.6-9.4q-1.6-1.2-3.2-2.3-2.9-2.1-5.7-4.1c-10.8-7.8-15.8-18-18-31q-.3-3.1-.5-6.2c19.2-11.8 39.6-18.5 62.1-13z" fill="#013656"/><path d="M617 845c3.4 3 6.2 6.5 9 10q1.1 1.3 2.2 2.6c8.3 10.6 11.2 20.7 11.3 34q0 1.4 0 2.8c-.1 5-.2 8.7-3.5 12.6-5.9 5-11.9 8.1-19.7 8q-1.2 0-2.4 0H612q-.1-1.6-.2-3.2-.2-6-.5-11.9-.2-2.6-.3-5.1-.2-3.7-.4-7.4c0-1.2 0-1.2-.1-2.3-.2-4.1-.6-7.5-2.5-11.1-2.9-2.4-4.3-3-8.1-2.9-2.9.9-4.1 1.5-5.9 3.9-1.6 3.2-1.1 6.7-1.1 10.3q0 1.2 0 2.5 0 3.9 0 7.8 0 2.7.1 5.3 0 6.6 0 13.1h-26c0-13 0-13 1-17 .3-3.3.3-6.6.3-9.9q.1-1.4.1-2.7c0-4.3 0-6.8-2.1-10.5-3.2-2.7-5.2-2.6-9.2-2.3-2.3.3-2.3.3-4.1 2.2-2.1 4.6-2.2 9.2-2.3 14.2q0 1.2-.1 2.4-.1 3.7-.2 7.4 0 2.5-.1 5-.2 6.1-.3 12.2-3.1.1-6.2.2-1.8 0-3.6 0c-4.1-.3-6-1.4-8.8-4.3-4.9-6.7-6.5-12.6-6.5-20.8q0-1 0-2 0-2.2 0-4.3 0-3.2 0-6.4 0-5.2.1-10.4 0-3 0-6c.2-8.9.2-8.9 2.3-11.8 1.9-1.3 3.6-2.1 5.8-2.8q1-.5 2.1-.9c7.4-3 15-5 22.8-6.5q1.3-.3 2.7-.6c17.9-2.3 40-1.8 56.3 6.6z" fill="#fbdc80"/><path d="M429 850c5.6 5.6 3.2 28.4 3.3 36.4-.1 9.1-.3 17.4-6.3 24.6-2.8 2.8-4.3 3.9-8.3 4.4q-1.7-.1-3.5-.2-1.7 0-3.5-.1-1.3 0-2.7-.1c-.6-5.7-1.1-11.4-1.2-17.1q-.1-1.5-.1-3.1-.1-3.1-.1-6.3c-.2-6.5-.8-11.4-5.3-16.4-3.5-1.6-5.7-1.1-9.3-.1-2.7 2.4-3.2 4.5-3.4 8q-.1 2.5-.1 4.9c0 1.3 0 1.3-.1 2.6q0 4.1-.1 8.3 0 2.7-.1 5.5-.1 6.9-.2 13.7l-24-1c0-12.3 0-12.3.3-17.1q.1-1.5.2-3.1.2-3.1.4-6.3c.3-5.7.4-9.6-2.9-14.5-1.2-1.4-1.2-1.4-4.9-1.2-3.2 0-3.2 0-6 1.6-2.4 3.6-2.5 7.1-2.8 11.3l-.2 2.4q-.3 3.7-.6 7.3-.4 4.9-.8 9.7l-.2 2.3c-.2 3-.5 5.7-1.5 8.6-9 .9-16.2-2.2-23.3-7.8-5.2-6.6-3.3-20.2-2.7-28.2 1.6-8.7 5.6-15.1 11-22q1.3-1.8 2.7-3.7 1.4-1.9 2.9-3.8.6-.9 1.3-1.9c4.5-5.8 8.8-6.5 15.8-7.5 26.4-3.1 52.4-3.8 76.3 9.9z" fill="#fbdc7f"/><path d="M416.3 261.4c7.4 6.8 12.7 15.6 14.2 25.6.1 4.6 0 7.2-2.4 11.1-3.7 3.3-6.7 3.3-11.6 3.2-3.9-.5-6.1-2.3-8.5-5.3l-4.4-7.5c-4.5-7.2-11.6-12.8-19.6-15.5-8.6-.9-14.8.3-22 5q-.9.6-1.8 1.2c-7.4 5.5-12.4 14.5-17.3 22.1-1.9 2.7-1.9 2.7-4.9 4.7-3.9-.1-7.5-1-10.7-3.2-2.4-2.6-3.3-4.9-4.1-8.3 1-12.3 10.4-22.4 18.8-30.5q1-1 2-2.1c20.7-19.6 51.1-18 72.3-.5z" fill="#023657"/><path d="M578.3 247.8c11.4-.4 21.4 2.6 30.7 9.2q1.2.8 2.4 1.7C621.5 266.1 628 275 632 287c.5 4.6.6 7.9-1.7 11.9-3.3 3-5.3 3.9-9.5 4.8-6.1-1.2-8.4-5.8-11.8-10.7-6.1-8.6-13.3-17.4-24-20-8.1-.9-15.3-1-22 4q-1.1.8-2.2 1.6c-5.5 4.5-9.3 9.7-13 15.8-1.7 2.5-3.1 4-5.8 5.6-4.8.6-7.9-.4-12-3-2.8-2.5-3-3.8-3.3-7.7.1-4.6 1.5-8.1 3.7-12.2q.5-1 1.1-2.1c6.6-12.2 17-20.1 30.1-24.3 5.7-1.6 10.8-2.5 16.7-2.9z" fill="#023757"/></svg>