<svg xmlns="http://www.w3.org/2000/svg" width="1024" height="1024" xmlns:v="https://vecta.io/nano"><path d="M444.6 60.9q3.6.5 7.2 1C482.6 66 511.9 75.7 540 89q1.3.6 2.6 1.2c32.4 15.3 74.4 40.6 95.1 71.4 3 3.1 4.5 3.1 8.7 3.4 2 .2 2 .2 3.9.3a13.4 13.4 0 0 0 2 .1l10.6.9a16.2 16.2 0 0 1 2.2.1c8.2.8 16.2 2.3 24.3 4.1q4.2.8 8.3 1.6C768 185.6 834.6 223.3 889 269q1.5 1.2 2.9 2.4c9.2 7.7 17.8 15.9 26.2 24.4q3.3 3.4 6.7 6.7c6.8 6.8 13.4 13.6 19.3 21.1 1.9 2.4 3.9 4.7 6 7 4 4.5 7.7 9.1 11.3 14q.9 1.3 1.9 2.6c20.7 28 20.7 28 20.3 41.4-1.1 6.1-4.1 10.5-7.6 15.4q-.6.8-1.2 1.6c-4.9 6.8-10.1 13.1-15.8 19.2a104 104 0 0 0-6 7.2c.8.3.8.3 1.7.7 5.5 3.1 9.9 8.4 12.3 14.3 1.8 11.5-2.2 19.8-8.7 28.9-4.5 6.2-9.3 12.2-14.3 18.1q-.6.8-1.3 1.6c-14.3 17-29.4 34.3-46.9 48.2a214.19 214.19 0 0 0-7.3 6.1c-25.9 22.4-56.6 40.6-88 54l-8.7 4c-7 3.3-14.2 6-21.6 8.5q-1 .3-2.1.7c-19.7 6.7-39.9 11.5-60.3 15.7q-1.5.3-3 .6c-4.9 1-9.6 1.7-14.6 2-9.2.3-9.2.3-17.1 4.2-3.6 4.1-6.3 8.6-8.9 13.3-10 17.3-28.6 34.1-44.2 46.1q-.8.6-1.6 1.3c-39.1 29.9-87.3 53.4-137.4 54q-1.3 0-2.7.1c-8.5 0-14.2-2.6-20.5-8.3-7.8-9.1-7.4-21.9-6.8-33.1 2.5-31.1 14.6-61.3 32-87-4.4-2-8.9-3.6-13.5-5.1C431.1 608.8 393 590.1 360 567q-1-.7-1.9-1.4c-15.8-11-31.3-22.3-45.5-35.3q-3.2-2.8-6.4-5.6c-4.2-3.7-8.3-7.4-12.3-11.3-1.1-1-1.1-1-2.2-2.1-19.5-18.4-19.5-18.4-27.7-28.3-2.2 2.8-4.1 5.7-5.9 8.8-8 13.8-17.2 26.7-27.7 38.6q-1.5 1.7-3 3.5c-10.1 11.7-21.1 22.7-33.4 32.1q-1.7 1.3-3.3 2.7C156.8 595.3 100.4 625.9 55 621c-7.2-1.4-14-4.8-18.4-10.8-4.2-7.3-4.8-15-3.6-23.2 1.5-4 3.5-7.4 5.8-11 2.5-4.1 4.8-8.2 7.1-12.4q1.6-2.7 3.2-5.5.7-1.3 1.5-2.7 1.3-2.2 2.5-4.4C81 502.4 98.2 440.7 98.2 384.6q.1-1.1.1-2.3C98.2 315.8 73.5 254.8 37 200c-1.7-6.5-2.6-14.8.6-20.9C42.4 173 48 167.9 56 166.7c2.2-.2 4.4-.2 6.6-.2h2.5c10 .3 19.4 2.7 28.9 5.5 1.2.3 1.2.3 2.4.7 11.6 3.5 22.6 8.1 33.6 13.3 1.1.5 1.1.5 2.1 1 9.4 4.5 18.2 9.4 26.9 15q1.3.8 2.7 1.7c13.4 8.6 26.5 18.3 38.1 29.2 1.9 1.8 3.9 3.6 5.9 5.3 12.4 10.8 23.6 22.6 33.3 35.8 1.1 1.5 1.1 1.5 2.3 2.9 10.2 13.2 18.7 27.5 26.7 42.1 4-3.2 7.6-6.5 11-10.4 5.1-5.8 10.5-11.2 15.9-16.7q2.5-2.4 4.9-4.9c5.6-5.5 11.2-10.9 17.2-16q2.6-2.3 5.1-4.6c10.4-9.4 10.4-9.4 12.9-9.4q.3-1 .7-2c1.7-4 4.1-7.3 6.6-10.8 30.5-45 43.1-96.5 45.9-150.2.1-1 .1-1 .1-2.1q.2-2.8.3-5.6c.9-7.6 4.9-13.6 10.5-18.8 13.9-10.9 29-8.9 45.5-6.6z" fill="#013e4a"/><path d="M604.4 197.6q1.8 0 3.5 0c20 0 39.4 1.5 59.1 4.5q3.1.5 6.2 1c8.1 1.2 15.9 2.7 23.8 4.9-1.4 3.7-2.9 6.3-5.5 9.4-42.2 51.6-58.7 120.5-58.7 185.9q-.1 1.3-.1 2.7c.1 14.5.8 28.7 3.3 43q.2 1.3.4 2.6c6.3 37.5 19.8 75.6 41.2 107.2 3.5 5.4 3.5 5.4 3 9.1q-.8 1.6-1.6 3.1-.5 1-1.1 2a268.13 268.13 0 0 1-4 7.4q-.8 1.3-1.6 2.7c-12.2 20.9-25.9 41.1-42.4 58.8-1.8 1.9-3.5 3.9-5.1 5.9-7.7 8.8-16 16.9-25.2 24.1q-2.5 2-5 4.2c-28.6 24.5-73.9 48-112.6 46.9-.3-6.8.7-12.9 2.1-19.5q.4-1.6.7-3.2c2-8.8 4.6-17 8.2-25.3q.4-1 .9-2c13.1-30.5 33.6-55.2 58.5-76.8 7-5.7 7-5.7 9.8-13.9q0-1.6.1-3.2 0-1.5 0-3.1c-.3-3.4-1.4-5.2-3.3-8q0-1 0-2c-4.6-2.4-8.9-3-14-2-9.4 4.2-17.3 12-25.2 18.5q-3.7 3.1-7.5 6.1-1.1.8-2.2 1.7-1 .8-2.1 1.7-1.1 1.1-2.3 2.3c-3.7 2.3-6.6 1.5-10.7.7-2.6-.7-5.2-1.5-7.8-2.3q-1.1-.4-2.2-.7-3.5-1.2-6.9-2.4-1.2-.4-2.5-.8c-14.2-4.8-28-10.3-41.6-16.8q-1.4-.6-2.7-1.3c-38.5-18.1-73.4-42.8-104.8-71.4q-2.3-2.1-4.7-4.2c-6.9-6.1-13.5-12.6-20-19.1q-2.8-2.8-5.5-5.5c-7.8-7.7-14.9-15.7-21.5-24.4-4.8-6.5-4.8-6.5-11.8-10.1-7.9-1-7.9-1-15 2.1-3.2 2.8-5 6.1-6.7 10q-.5 1.1-1 2.1-1 2.2-2 4.4-2.6 5.6-5.3 11.2-.5 1.1-1.1 2.2c-3.7 7.8-8 15-12.9 22q-1.1 1.5-2.2 3.1c-12.2 16.8-26.4 32.1-42.8 44.9-1.4 1.1-1.4 1.1-2.8 2.3-25.2 20.2-67.5 47-101.2 44.7 1.3-3.5 2.8-6.2 5-9.2 4.9-6.8 8.8-14.2 12.8-21.6q1.6-2.9 3.2-5.7c21.4-38 33.1-82.5 39-125.5q.2-1.4.4-2.9c7.4-56.4-.6-115.8-25.4-167.1q-1.1-2.4-2.3-4.8c-7-14.6-14.6-30.3-24.9-42.9C76 203 76 203 76 201c7.7 1.9 14.9 4.4 22.3 7.4l3.1 1.4c42.7 18.3 85.5 47.8 112.6 86.2q.6.9 1.3 1.8 4.5 6.5 8.7 13.2 1 1.6 2.1 3.2c7.3 12.3 13 25.7 17.9 39.1q.4 1.2.9 2.5.8 2.2 1.6 4.5c1.8 5.1 4 7.6 8.5 10.7 4.5 1.9 9.5 1.5 14 0 6.3-4.2 10.5-10.6 15-16.5 10.1-12.8 21.2-24.7 32.7-36.3q1-1.1 2.1-2.2c4.6-4.5 9.3-8.8 14.2-13q1.6-1.4 3.1-2.8c58.1-51 133.6-85.4 209.9-97.7q4.2-.7 8.4-1.6c16.7-3 33.1-3.3 50-3.3z" fill="#65999c"/><path d="M740.5 218.3c5.4 1.5 10.4 3.8 15.5 6a36.47 36.47 0 0 0 1.9.8c34.9 15.3 67.2 34.2 97.1 57.9 1.2 1 1.2 1 2.5 2 19.1 15 37.7 31.5 53.5 50q1.3 1.5 2.6 3a428.42 428.42 0 0 1 20.8 25.9q2.4 3.1 4.9 6.2 1.5 2 3.1 4c.7.8.7.8 1.4 1.7 2.5 3.2 3.2 5.1 3.3 9.1-.9 4.8-3.5 8.1-6.5 11.8q-.8 1.1-1.6 2.1-2.5 3.1-5 6.2-.7.9-1.4 1.8c-8.2 9.9-19.3 20.1-32.7 21.4l-6.8.2q-1.2 0-2.3 0c-6.8.1-11.8-1.8-16.9-6.3q-.8-.9-1.6-1.9-.8-1-1.7-2c-1.6-2.1-2.9-4.3-4.2-6.5-2.1-3.4-3.6-5.3-7.4-6.7-4-.7-7.4-.7-11.1 1-3 2.1-4.6 3.8-5.5 7.4-.7 10.5 4.7 18.8 11.3 26.4 4.9 5.1 10.1 8.8 16.3 12.2q1.5.9 3.1 1.8c7.2 3 14.5 3.6 22.2 3.5q1.4 0 2.8 0c10.8-.2 19.6-2.9 29.4-7.2 2.5-1.1 2.5-1.1 5.5-2.1-.4 5.9-3 9.2-6.5 13.7q-.8 1-1.6 2.1-2.5 3.1-4.9 6.2-1.2 1.5-2.5 3.1c-4.3 5.4-8.8 10.5-13.4 15.6q-2.7 3-5.3 6c-7.9 9.1-16.6 17.6-25.8 25.3q-1.2 1.1-2.5 2.2c-18.2 15.6-38.4 28.5-59.5 39.8q-.9.5-1.8 1c-17.3 9.2-35.7 16.5-54.1 23.2q-1.6.6-3.2 1.2-1.4.6-3 1.1-1.2.5-2.6 1c-2.5.6-3.9.4-6.3-.5-37.7-29.3-60.3-92-69-137l-.6-2.8c-6.7-32.5-6.6-70.6-.4-103.2l.6-3.1c4.3-22 10.4-44.5 21.4-64.1q1.5-2.8 3-5.7c8.8-16.3 19.7-31.3 31.6-45.5 1.2-1.4 2.4-2.9 3.5-4.4l1.7-2.3q.7-.9 1.3-1.8c2.6-1.5 4.6-1.2 7.4-.8z" fill="#2b7171"/><path d="M510.3 781.8l3.5-.1c38.5 0 76.8.6 115.2 3.3q1.6.1 3.2.2 21.5 1.5 42.8 3.8 1.3.1 2.6.3c134.6 14.4 134.6 14.4 161 44.5 3.4 4.5 4.1 7.7 3.4 13.2-6.4 13-21.7 18.8-34.6 23.4-16.5 5.6-33.1 10.6-50.2 14q-1.1.3-2.2.5c-14.9 3-29.8 5.4-44.8 7.5q-4.5.6-8.9 1.3c-13.3 2.1-26.7 3.4-40.2 4.5q-5.2.4-10.5.9-12.3 1-24.6 1.9-1.3.1-2.7.2c-35.2 2.5-70.1 3.3-105.3 3.1q-7.5 0-15 0c-40.3.1-80.7-.5-120.9-4.2q-2.9-.2-5.9-.5-26.2-2.3-52.2-5.6l-3-.4c-109.6-13.8-109.6-13.8-135.5-41.7-2.5-3.3-3-6.6-2.9-10.7 1.1-6.2 6.3-10.4 11-14.1 22.2-15.4 51.4-20.8 77.4-26.1q1.8-.4 3.6-.7c50.8-10.4 102.7-14.8 154.5-17.2q2.9-.1 5.8-.2c25.1-1.2 50.2-1.1 75.3-1.1z" fill="#febc3b"/><path d="M422 91c30.4 1.9 59.9 11.4 88 23q1.2.5 2.5 1c25.7 10.8 49.8 25.5 71.5 43q.8.7 1.7 1.4 2.2 1.8 4.3 3.6 0 .5 0 1-1.4.1-2.8.2c-69.3 5.8-130.1 23-192.2 54.8-1-2-1-2-.2-4.6q.7-1.6 1.3-3.2c.7-1.8.7-1.8 1.5-3.6q.3-.9.7-1.9 2-4.8 3.9-9.6.4-1 .8-1.9c13-33 16.3-68.1 19-103.2z" fill="#669a9d"/><path d="M585.3 276.7c3.7 3.1 7.3 6.5 8 11.4.2 4.6.3 7.9-2.7 11.5-3.4 3.4-7.2 6.3-10.9 9.2-9.6 7.8-20.7 18.6-22 31.4-.2 12.6 2.7 18.4 11.2 27.5 4.1 4.4 6.3 8.2 6.5 14.4-.3 6.9-2.7 10.4-7.8 15-2.4 2.1-4.7 4-7.3 5.8-6.2 5.7-9.9 13.8-10.5 22.2-.6 14.5 3.5 25.1 13.2 35.9 3.2 3.2 6.5 6.1 10 9q2.3 1.9 4.5 3.8a31.92 31.92 0 0 0 1.9 1.6c3 3 3.6 5.2 3.9 9.4-.2 5.7-2.1 9.8-5.9 14.1-3.9 3.4-6.6 3.5-11.6 3.4-13.7-1.6-25.7-15.2-33.8-25.3-11.5-15.5-18.5-33.5-17-53 2.5-14.2 9.6-26.6 18.5-37.6 1.8-2.8 2.1-4.2 1.5-7.4-1.4-2.2-1.4-2.2-3.2-4.2-9.9-11.9-9.8-25-8.8-39.8 2.8-20.3 19.6-38.8 35-51.4 8.2-6.2 17.1-12.1 27.3-6.9zm-88.9.9c4.8 4.5 6.8 8.1 7 14.5 0 4.2-.9 6.6-3.4 9.9-2.6 2.1-2.6 2.1-5.6 4.2C485 313.1 477 320 471 330q-.6 1.1-1.3 2.2c-3.3 6.3-3.8 12.8-2.7 19.8 2.7 7 7.8 12.3 12.9 17.6 4.1 4.7 5.7 9 5.4 15.1-1.1 7.8-5.2 11.3-11.2 15.8q-.9.7-1.9 1.4c-4.6 3.6-8.3 7-11.2 12.1q-.6.9-1.2 1.9c-4.5 8-3.9 18.5-2.2 27.3 4.3 13.4 15.1 23.4 25.7 32.2 3 2.9 3.7 5.1 4 9.3-.2 6.2-1.9 10.6-5.8 15.3-3.6 2.6-7.3 2.8-11.6 2.5-14.1-2.6-27.3-18.6-35.1-29.7-10.2-15.9-15.6-32.5-12.1-51.3 3.5-12.7 10.3-23.1 18.5-33.1q.7-1 1.5-2 .7-.8 1.4-1.7c1.1-1.7 1.1-1.7.7-3.8-1.1-2.8-2.8-4.8-4.7-7.2-7.9-10.7-9.2-21.5-8.1-34.7 2.7-17.2 11.4-30.5 23-43q1-1.1 2-2.2c4-4.3 8.5-7.8 13.2-11.2q.9-.6 1.8-1.3c7.6-5.3 15.6-7.8 24.4-3.7z" fill="#003d4a"/><path d="M829.8 316.3c8.2 6.2 14.9 12.7 18.2 22.7.5 4.9.6 8.9-1.6 13.4-3.8 4.2-6.6 6.3-12.3 7.3-4.5-.3-7-2.5-10.2-5.6-2.5-2.8-4.5-5.8-6.5-9-3.7-5.5-9-8.6-15.4-10.1-7.6-1.1-13.8.4-20 5-4.9 5.1-6.7 10.8-8.3 17.5-1.1 4-3 6.5-6.5 8.6-4.2 1.7-8.7 1.6-13.2.9-3.2-1.7-5.4-3.8-7-7-1.1-13.7 1.1-24.2 10.2-35q.9-1 1.8-2 .8-.9 1.5-1.9c17.3-19.2 48.9-18.4 69.3-4.8z" fill="#003d49"/></svg>