<svg xmlns="http://www.w3.org/2000/svg" width="1024" height="1024" xmlns:v="https://vecta.io/nano"><path d="M496.9 26.9C580 25.4 661.8 43.1 807 126q.8.6 1.6 1.3c9.1 6.9 17.8 14.2 26.4 21.7q1.4 1.2 2.8 2.4c7.1 6.4 13.8 13.1 20.5 19.8q.7.7 1.5 1.4c5.6 5.6 11 11.3 16.2 17.4q1.4 1.6 2.8 3.1c8.6 9.9 16.5 20.3 24.2 30.9q.8 1.1 1.6 2.2c12 16.4 22.6 33.7 32.2 51.6q1.8 3.3 3.7 6.7C972.2 342.9 989.6 409 995 475q.1 1.2.2 2.4c.5 5.2.7 10.4.8 15.6q0 1.7.1 3.4c1.6 78.5-14.8 155-49.1 225.6q-1.3 2.8-2.7 5.6c-9.4 19.7-20.8 38.5-33.3 56.4q-.6.9-1.2 1.8c-8.5 12.1-17.3 23.9-26.8 35.2q-.7.8-1.3 1.6c-14.1 16.8-29 33.6-45.7 47.7-2.5 2.1-4.8 4.3-7.1 6.4-5.8 5.3-11.8 10-17.9 14.8q-3.2 2.4-6.3 4.9c-20.8 16.5-43.4 30.8-66.8 43.5q-2.9 1.6-5.8 3.3c-20.7 11.4-42.8 20.1-65.1 27.8q-1.5.5-3.1 1.1c-29.2 9.9-60.2 16.6-90.9 19.9l-2 .2c-36.1 4-72.9 4.6-109 .8q-1.5-.2-3.1-.3-10.5-1.2-20.9-2.7-1.4-.2-2.9-.4c-48-7-94.9-22.1-137.9-44.5q-3.7-1.9-7.4-3.7C259.5 926 230.9 906.9 205 885q-.8-.7-1.6-1.4c-12.6-10.6-24.6-21.7-36.3-33.4q-1.3-1.3-2.7-2.6c-5-5.1-9.8-10.2-14.4-15.6q-1.4-1.6-2.9-3.2c-7.8-9-15-18.3-22.1-27.8q-.8-1.1-1.7-2.2c-7.8-10.7-15.3-21.6-22.3-32.8q-.6-.9-1.2-1.8c-49.3-79.3-73.2-170.7-58.5-368.5C56.5 332.9 85.2 271.6 124 220l1.6-2.2c7.4-9.9 15.2-19.5 23.4-28.8q1.1-1.3 2.3-2.6 3.3-3.7 6.7-7.4.7-.8 1.5-1.6c17.2-19 36.2-35.9 56.5-51.4q1-.8 2.1-1.6c19-14.5 39-26.9 59.9-38.4q1.3-.7 2.7-1.5c65.5-35.9 141.5-56 216.2-57.6zM460 81q-1.6.2-3.2.4C412.2 87 368.8 99.3 328 118q-2.4 1.1-4.8 2.2c-26.5 12-51.8 27.4-74.5 45.5q-3.3 2.5-6.6 5-2 1.7-4.1 3.3-1.2 1-2.5 2c-6.9 5.5-13.4 11.4-19.8 17.4q-2.7 2.5-5.4 5c-5.5 5.1-11 10.1-15.8 15.9-1.5 1.7-3.2 3.4-4.9 5-3.6 3.6-6.9 7.5-10.1 11.6q-2.5 3.1-5.2 6.2c-16.8 19.5-31.1 42.3-43.3 64.9l-1.4 2.6c-7.7 14.2-14.5 28.5-20.6 43.4q-.6 1.4-1.2 2.8C93.9 385.6 85.4 421.9 81 459q-.1 1-.3 2.1c-1.8 15.7-1.9 31.6-1.8 47.5q0 4.5 0 9.1c0 16.9.6 33.6 2.9 50.4q.1.9.2 2c1.7 13.1 4 26 7 38.9q.4 1.6.7 3.2c6.4 27.2 15.6 53.5 27.3 78.8q.6 1.4 1.3 2.8c14.9 32.9 34.6 64.4 57.7 92.2a31.92 31.92 0 0 1 1.6 1.9q5.1 6.1 10.4 12.1 1.2 1.4 2.5 2.8c6 6.7 12.3 13.1 18.7 19.5q1.2 1.3 2.5 2.6c5 4.9 10 9.6 15.3 14.1q.9.8 1.9 1.6C296.7 898 383.5 937.7 475 944l2.3.2c45.2 3.2 91.7.8 135.7-10.2l3.1-.8c31.1-7.8 61.5-18.2 89.9-33.2q3.2-1.6 6.5-3.3c22.4-11.4 43.5-25.3 63.5-40.7l1.7-1.3c7.4-5.7 14.5-11.6 21.4-18 2.1-2 4.3-3.9 6.5-5.8 5.1-4.5 10-9.3 14.8-14.1q2.3-2.3 4.7-4.6c5.6-5.7 10.9-11.4 15.8-17.6 2-2.5 4.1-4.9 6.2-7.2 3.9-4.3 7.4-8.8 10.9-13.5q.9-1.2 1.9-2.5c34.5-46.7 59-98.4 74.1-154.4.3-1.2.3-1.2.7-2.5 14.1-51.8 15.9-110.6 8.3-163.5q-.2-1.6-.4-3.2c-12.2-85.5-51.8-168.4-111.1-231.2q-2.3-2.5-4.6-5c-5.1-5.7-10.4-11.1-16.2-16.2q-3-2.7-5.9-5.5c-7.4-6.9-14.9-13.4-23-19.5q-2.7-2.1-5.4-4.2c-17-13.2-35.3-24.5-54.1-34.9q-3-1.7-6.1-3.4c-43.5-24.2-94.1-39.2-143.3-45.5q-3.8-.5-7.5-1c-17.9-2.5-35.9-2.6-53.9-2.6h-3.4C492 78.8 476 79 460 81z" fill="#fdfdfd"/><path d="M547 445q1.2.3 2.4.7c20.8 6.1 40 16.4 56.6 30.3q1.3 1.1 2.7 2.2c5.9 5.2 11.4 10.8 16.9 16.4 3.9 3.9 7.9 7.7 12.2 11.2q.6.6 1.2 1.2 0 1 0 2 1 0 2 0c1.4 1.4 1.4 1.4 3 3.4 4.4 5.1 9.1 9.8 13.8 14.5q2.2 2.1 4.3 4.2 3.7 3.7 7.4 7.4 4.4 4.4 8.8 8.8 2.8 2.7 5.5 5.4c4.4 4.4 8.7 8.9 12.7 13.6q2.1 2.4 4.2 4.6c28.8 30.6 47.3 68.8 46.6 111.4-1.1 26.3-10.4 54.1-28.3 73.7q-.6.7-1.3 1.4c-18.2 19.8-43.9 33.1-71 34.8-29.8.8-54.4-6.1-82.5-15-41.9-13.4-79-8.6-120.2 4.8-35.8 11.6-73 17.8-108 0-25.1-13.3-43.9-35.4-52.7-62.5-11-36.2-8-74.5 9.8-108q.9-1.7 1.9-3.5c.8-1.4.8-1.4 1.5-2.8 9.1-15.7 21.7-29.4 34-42.6q2.4-2.6 4.9-5.3c6.4-6.9 13-13.8 19.8-20.4 2-2.1 3.9-4.2 5.8-6.4 4.7-5.4 9.7-10.4 14.7-15.4l1.6-1.6q4-4 8-8.1 4.1-4.1 8.2-8.2 3.2-3.2 6.4-6.5 1.5-1.5 3.1-3c9.3-9.5 19.4-17.8 30.8-24.8q.9-.6 2-1.3c32.8-19.8 73.9-27.4 111.2-16.6z" fill="#fefefd"/><path d="M443.6 212.3c27.2 21.3 42 53.9 46.6 87.5 3.6 30.6-.2 62.9-18.5 88.4-2.1 2.7-4.4 5.3-6.7 7.8q-.9 1-1.9 2.1c-9.2 10.1-21.1 16.1-34.1 19.9q-1.2.4-2.4.7c-17.8 4.9-37.3-.2-53-9.1-4.1-2.5-7.8-5.5-11.6-8.6-1.5-1.1-1.5-1.1-3-2.3-15.3-12.9-24.8-33.2-30.3-52.1q-.3-1.2-.7-2.5c-3.9-14.2-5.6-27.7-5.4-42.4q0-1.2 0-2.5c0-12.1.6-23.6 4.4-35.2q.3-1 .6-2.1c4.8-14.8 11.8-28.3 22.4-39.9l2.2-2.4c24.3-25.8 63.3-28.3 91.4-7.3zm219.1-.4c2.6 1.9 4.9 4 7.3 6.1q1.3 1.2 2.6 2.3c18.7 17.8 27.9 44.3 28.7 69.7.2 14.6-.2 28.8-3.3 43q-.2 1.2-.5 2.4c-5.2 23.7-15.1 45.5-32.5 62.6q-1.1 1.1-2.3 2.3c-15.8 14.9-34.8 19.4-56 19-16.9-.7-31.2-8.2-43.7-19.3-1-.9-1-.9-2.1-1.8-15.9-14.7-22.7-35.6-26.9-56.2q-.3-1.2-.5-2.4c-6.2-34.9 4.4-75 24.4-103.7 13-17.9 30.4-31.8 52.5-36.4 18.9-2.7 36.6 1.6 52.3 12.4zm144.5 152.9c16.3 12.8 26.7 30.1 29.5 50.8 2.3 27.4-3.1 54.5-16.7 78.4q-.8 1.4-1.6 2.9C807 516 791.2 529.2 771 538q-1.2.6-2.5 1.2c-12.3 4.6-28.8 3-40.5-2.2-15.9-7.7-27.6-21.7-34-38-1.6-5.3-2.9-10.6-4-16q-.3-1.4-.6-2.8c-4-31.4 4.8-63.7 24-88.9C724 377.8 736 366.7 752 360c1.4-.6 1.4-.6 2.9-1.3 17.1-6.3 37.4-4.2 52.3 6.1zm-519.7 3.8c2.3 1.7 4.4 3.5 6.5 5.4l1.6 1.5c8.3 7.8 15.4 15.7 21.4 25.5q1 1.7 2.1 3.4c15.1 26 20.2 58.3 12.9 87.6-4.8 17.1-14.9 32.3-30 42-13.4 7.1-28.3 9.7-43.3 6.1-24.8-7.8-45-27.3-57-50.1-13.8-27.2-20-60.2-10.5-89.8 6.3-17.8 18-31.5 34.8-40.2 21-9.1 43-3.1 61.5 8.6z" fill="#fefefe"/></svg>