<svg xmlns="http://www.w3.org/2000/svg" width="1024" height="1024" xmlns:v="https://vecta.io/nano"><path d="M363 24c13.6 9.2 25.1 21 35 34l1.5 1.9C412 76.4 422.2 94.3 431 113q.8 1.7 1.7 3.5C449.6 153.4 465.1 199 464 240q1-.2 2-.3 11-1.9 22-3.7 1.1-.2 2.3-.4c17.6-2.9 33.9-1.5 51.3 1.4q2.7.4 5.4.9 6.5 1 13 2.1.1-1.2.3-2.4C568 175.1 587 110.9 627 61q1.1-1.4 2.2-2.7c13.8-17.2 32-39.9 55.4-42.6 10.1-.5 18.7 2.9 26.4 9.3 3.3 3.3 5.7 7 8 11l1.8 3.1c18.6 43.7-2.1 117.9-18.8 159.8q-1.5 3.5-3 7.1-.5 1.2-1 2.4c-9.5 22.1-20.2 43.9-33.5 63.9q-.9 1.4-1.9 2.8-1.8 2.7-3.6 5.3-.8 1.2-1.6 2.4c-.7 1.1-.7 1.1-1.5 2.2-1.1 1.9-1.1 1.9-.7 4.1 1.3 3.1 3.3 5.6 5.2 8.3 26.1 38.2 34 82.1 33.6 127.6q1-.5 2-1 3.8-.5 7.7-1 1.2-.1 2.3-.2 2.5-.3 5-.6 3.7-.4 7.5-.8c7.9-.9 15.9-1.6 23.9-1.8 1-.1 1-.1 2.1-.1 3.9-.1 5.4.4 8.4 2.9 2.7 3.4 2.8 5.2 2.6 9.4-.8 3.5-2.8 5.1-5.5 7.2-2.3 1.2-4 1.2-6.5 1.4l-2.9.2c-1.6.2-1.6.2-3.2.3q-16 1.2-32 2.7-1 .1-2.1.2-6.2.6-12.3 1.2-.1.9-.1 1.9c-.5 5.5-1.3 10.4-2.9 15.6q-.5 1.8-1.1 3.6c-.9 2.9-.9 2.9-1.9 4.9l3.8.4c13 1.4 25.9 4.6 38.3 8.7 1 .3 1 .3 2.1.7 10.5 3.6 10.5 3.6 12.8 8.2.7 7.1.7 7.1-2 10.5-7 3.5-14.3.8-21.4-1.2-8.7-2.4-17.4-4.4-26.2-6.2q-1.5-.3-3.1-.6c-4.9-1-9.4-1.8-14.3-1.5q-.4.8-.8 1.5c-4.9 10-10 19.2-17.1 27.8-1.9 2.5-3.6 5-5.1 7.7q.9 1.1 1.8 2.2c29 36.1 38.4 79.5 37.2 124.8q1.1.4 2.3.9c3.5 1.5 6.1 3.8 8.8 6.3q.9.8 1.7 1.6c23.6 22.6 40.4 56.7 41.7 89.5q.1 6.1 0 12.1 0 1.3 0 2.6c-.1 12.7-.6 24.8-4.5 37q-.4 1.2-.7 2.4c-6.3 19.4-16 37.2-30.1 52.1-1.4 1.4-1.4 1.4-1.2 3.5 1.6 1.4 1.6 1.4 3.6 2.8 6.2 4.5 11.2 8.7 15.5 14.9q.7 1 1.3 1.9c6.9 10.1 8.8 19.5 10.6 31.4q1 .3 2.1.7 4.8 1.5 9.7 3 1.6.5 3.3 1c27.5 8.7 27.5 8.7 32.1 16.3 1.2 3.1 1.1 5.6.8 9-2.7 4.9-5.7 7.5-10.6 10q-1 .5-2 1c-76.9 38-188.8 33.9-277.7 33q-3.8 0-7.6 0c-213-2-213-2-252.3-40.8-2.1-3.8-2.4-5.8-1.6-10 2.5-6.8 10-9.7 16.2-12.5 22.2-9.7 22.2-9.7 32.6-9.7q.1-1.1.1-2.3c1.2-18.4 9.4-32.3 22.9-44.7 2.6-2 5.1-3.5 8-5-1.6-3.8-4-6.5-6.7-9.6-4.7-5.5-8.7-11.1-12.3-17.4q-1-1.6-2-3.3c-8.6-15-13.6-31.6-16-48.7q-.3-1.9-.5-3.8c-4.3-35.6 6.2-72.2 28-100.6 7.2-9.1 14.7-18 24.5-24.6q1 0 2 0 0-1.3 0-2.5-.1-4.8-.1-9.6 0-2.1-.1-4.1c-.1-9.2.5-17.8 2.2-26.8q.3-2 .6-4.1c4.9-27.6 15.5-53 33-75 1.6-1.9 1.6-1.9 3.4-4.9-.5-3.7-2.1-5.6-4.6-8.4-4.5-5.5-7.9-11.4-11.4-17.7q-3-5.5-6-10.9c-14.7 1.5-28.7 4.4-42.9 8.3-6.9 1.8-13 3.3-20.1 2.7-3.1-2-3.8-3.4-4.9-6.9-.1-3.8.6-5.2 2.9-8.1 13.3-8.8 35.2-15 51-15q-.4-1.5-.8-3.1c-2.1-8-3.8-15.6-4.2-23.9q-1.5-.1-3.1-.1c-11-.5-22-1.2-33-2q-2.3-.2-4.7-.4-3.4-.2-6.8-.5-1.9-.1-3.9-.3c-3.9-.8-5.7-1.9-8.5-4.7-1.8-3.5-1.5-7.2-1-11 1.8-3.1 1.8-3.1 5-5 11.1-1.3 23.1.9 34.3 2q3 .3 6 .6 7.4.7 14.7 1.4 0-.9 0-1.9c-1-43.2 6.4-95.6 37.2-128.9q.8-.8 1.7-1.6c1.3-1.5 1.3-1.5.8-3.4-.8-2.6-2.1-4.6-3.6-6.9q-.9-1.4-1.8-2.8l-2-3.1c-8.3-13-15.4-26.5-22.3-40.4q-.7-1.4-1.4-2.8c-11.7-23-20.3-47.2-26.6-72.2q-.4-1.6-.8-3.2c-5.8-22.9-10.2-46.6-10.4-70.4q-.1-1.4-.1-2.9 0-3.1 0-6.2 0-3.1-.1-6.2c-.2-17.9.9-32.3 13.7-45.9 14.3-13.7 32.9-10.7 48.7-1.2z" fill="#003e60"/><path d="M346.5 36.5c10.8 3.7 18.4 13 25.5 21.5q1.2 1.4 2.5 2.8c22.6 25.9 39.3 57.8 50.5 90.2q.6 1.7 1.2 3.4c10.7 30.8 17.9 62.6 19.6 95.3.3 4 .8 7.5 2.2 11.3 4.2 2.8 7.1 1.9 12 1 4.3-.9 8.6-2 12.8-3.1 12.4-3.1 24.4-4.3 37.1-4.2q1.1 0 2.2 0c16.6.1 32.2 2 48.2 6 7.8 2 7.8 2 15.7 1.3 2.8-3.1 3.4-5.4 3.8-9.5.1-1.6.1-1.6.3-3.3q.1-1.8.3-3.6c3.6-37.4 11.4-75 26.6-109.6q.6-1.4 1.2-2.8c13.9-31.7 31.7-60.9 56-85.7q.8-.9 1.7-1.7c4.6-4.7 9.6-9.1 16.1-10.4 5.8.1 9.6.4 14 4.6 13.8 17.6 10.3 46.2 7.9 67.1-2.9 22.8-7.9 45.1-14.9 66.9l-.8 2.6c-10.3 32.1-26.4 62.1-45.3 90.1q-.6.9-1.2 1.9-4.5 6.7-9.4 13.1c-1.8 3.2-2.2 5.7-2.3 9.3 1.5 2.7 1.5 2.7 3.8 5.1q1.3 1.4 2.5 2.8c.7.8.7.8 1.4 1.5 19.4 22.8 30.2 51.4 35.3 80.6q.3 1.7.6 3.5c2.1 13.7 1.6 27.7 1.4 41.5h-1.9q-4.4.2-8.7.3-1.5 0-3.1.1c-5.4.2-9.6.5-14.3 3.6-1.5 3.1-1.3 5.6-1 9 1.9 2.4 3.3 3.7 6 5q2.2.2 4.4.3 1.2.1 2.5.1l2.7.2q1.4 0 2.7.1 3.4.2 6.7.3c-2.9 15.7-2.9 15.7-6 23q-1.8-.2-3.8-.5c-10.4-1.4-10.4-1.4-20.5 1.1-2 2.4-2 2.4-2.3 5.8.8 4.7 1.7 5.9 5.6 8.6 3.6 1.3 7.3 2.2 11 3-4.4 9.2-10.2 16.5-17 24q-1 1.1-2 2.3c-20.4 21.3-47.7 32.5-76 38.7q-1.4.3-2.8.6c-27.1 6.1-59 6.2-86.2.4q-1.4-.3-2.9-.6c-40.7-8.7-73.7-28.2-97.2-62.8-.9-1.6-.9-1.6-.9-3.6l2.4-.2c7.2-.7 7.2-.7 12.9-4.5 2.1-4.1 2.1-6 .7-10.3-2.3-2.3-3.6-3-6.8-3.3q-1.6 0-3.3.1-1.7 0-3.4 0-7.3.4-14.5 1.2-1.3-4.3-2.5-8.7-.4-1.2-.7-2.5c-1.2-4-2.1-7.6-1.8-11.8q1.7-.1 3.5-.1 2.3-.1 4.6-.2 1.1 0 2.2-.1c5.2-.2 9-1.3 13.7-3.6q.3-2.2.6-4.3.1-1.2.3-2.4c.2-2.5.2-2.5-.9-5.3-5.5-2.7-11.4-2.4-17.4-2.6q-1.5-.1-3.1-.1-3.7-.2-7.5-.3c-1.1-46.2 7.9-90.6 39.2-125.8q.7-.8 1.4-1.6 1.4-1.6 2.9-3.2c2-2.2 3.4-3.9 4.1-6.8-.9-3.8-3.1-6.5-5.5-9.5q-1.5-2-3-4-.8-1.1-1.6-2.1c-33.3-44.5-54.3-98.3-63.2-152.8q-.2-1-.3-2c-9.2-56.6-9.2-56.6 3.8-75.9 5.7-6.8 11.1-7.6 19.7-5.8zM388 537l1.6 1.1q3.7 2.4 7.4 4.9l2.5 1.7c33.3 21.6 74.3 29.8 113.5 29.6q1.2 0 2.4 0c40.3-.2 82.3-8.4 115.6-32.3q3-2 6-4c22.2 26.4 33.1 58.9 35 93l.2 2.8c1.8 34.1-5.9 67.9-14.7 100.5q-2.5 9.6-5 19.1-3.6 14.1-7.2 28.1-4.7 17.7-9.2 35.4-2.2 8.5-4.4 16.9-1.7 6.5-3.4 12.9-.8 3.2-1.6 6.4-1.2 4.5-2.4 8.9-.3 1.4-.7 2.7c-1.3 5.3-2 9.9-1.6 15.3 1.8 2.3 3.3 3.8 5.5 5.6 8.5 7.8 15 17.1 15.7 28.9.2 15.6.2 15.6-4.7 21.3-3.8 3.5-6.4 4.6-11.5 5.2q0-.9-.1-1.8-.1-4.1-.3-8.3 0-1.4-.1-2.8c-.2-6.3-.5-12.2-4.2-17.5-3.3-2.3-5.4-2.2-9.3-1.6-2.4 1.9-3.7 3.3-5 6q-.2 2.9-.3 5.9c-.1 1.7-.1 1.7-.1 3.5q-.1 1.8-.2 3.7 0 1.9-.1 3.8-.2 4.5-.3 9.1h-13q-.1-2.8-.1-5.8-.1-3.7-.2-7.5 0-1.8-.1-3.8 0-1.7-.1-3.6 0-1.7-.1-3.4c-.4-3.2-1.2-4.6-3.4-6.9-3.8-1.3-7.7-1.5-11.4 0-4.5 5.7-4 13.5-4.2 20.4-.1 1.6-.1 1.6-.1 3.1q-.2 3.8-.3 7.5-2.6.1-5.3.1c-1.4.1-1.4.1-2.9.1-2.9-.2-4.1-.6-6.4-2.3-4.5-5.4-4.6-10.2-4.1-16.9 1-11.3 2.6-22.5 4-33.8q.7-5.3 1.3-10.6c.2-1.1.2-1.1.3-2.2q.3-2.2.6-4.4.4-3.3.8-6.7 1.9-14.9 3.7-29.7c.2-1.1.2-1.1.3-2.1q.6-5 1.2-10 4.2-34.6 8.6-69.2.4-3 .8-6.1.7-5.7 1.4-11.4c.2-1.7.2-1.7.5-3.4q1.2-9.7 2.8-19.4c1.4-9 1.4-9-1.7-17.1-3.5-2.3-5.7-3.1-9.9-2.9-4.1 2.8-5.3 5.1-6.2 10q-.5 3.1-.8 6.3c-.3 1.7-.3 1.7-.5 3.4q-.8 5.7-1.5 11.3-.5 3.8-1 7.7-1.5 11.4-2.9 22.9-.8 5.8-1.5 11.5-1.2 9.7-2.4 19.4-1.4 11.1-2.8 22.2-1.4 10.8-2.7 21.6-.6 4.5-1.2 9.1l-5.5 47.1-4 33.5-15-1v-6.9q-.2-32-.3-64.1-.1-16.5-.2-32.9-.1-14.4-.1-28.8-.1-7.6-.1-15.2 0-7.1-.1-14.3 0-2.6 0-5.2 0-3.6 0-7.2 0-1 0-2.1c0-4.8 0-4.8-1.2-9.3-2.7-.9-4.6-1.2-7.4-1.3q-1.2-.1-2.3-.1c-3.3.6-4.3 1.8-6.3 4.4-.4 2.6-.5 4.8-.5 7.4q0 1.1 0 2.3-.1 3.8 0 7.6-.1 2.7-.1 5.4 0 7.3 0 14.7 0 7.6-.1 15.3 0 14.6 0 29.1-.1 16.5-.1 33.1-.1 34-.2 68.1l-16 1c-.2-2-.2-2-.3-4.1-1.2-14.1-2.8-28.1-4.6-42.2q-1.2-8.9-2.4-17.9-.4-3.3-.9-6.6l-7.1-56.3q-.7-5.4-1.4-10.9-.7-5.3-1.4-10.6-.4-3.9-.9-7.8-1.6-12-3-24-.7-5.5-1.4-11-.3-2.6-.6-5.2c-.9-14.1-.9-14.1-5.7-26.9-3.2-2.1-5.4-2.6-9.3-2.5-3.7 1.9-3.7 1.9-6 5-1.5 5.8.3 12.2 1.3 18 2 12.7 3.6 25.4 5.1 38.1q.7 5.2 1.3 10.5 2.6 20.5 5.1 41.1.4 3.1.8 6.2.2 2 .5 4.1l.2 2q.8 6.1 1.5 12.2l5.3 41q.5 3.7.9 7.4 1 6.7 1.9 13.4c1.5 10.4 2.4 20.7 2.6 31.2q0 1.4.1 3c0 4.5-.1 7.8-2.9 11.4-3.8 3.4-6.5 3.5-11.4 3.5q-1.5-.1-3-.1H449q0-1.1 0-2.3-.2-5.2-.3-10.4 0-1.8-.1-3.6 0-1.7-.1-3.5c0-1.6 0-1.6-.1-3.2-.5-3.4-1.4-5.3-3.4-8-3-1.1-5.8-1.2-9-1-2.6 1-2.6 1-4 3-1.1 3.3-1.2 6.4-1.3 9.9q-.1 1.6-.1 3.3-.1 1.8-.2 3.5c0 1.8 0 1.8-.1 3.6q-.2 4.4-.3 8.7h-13q-.1-2.6-.1-5.3-.2-3.4-.3-6.9 0-1.7-.1-3.5c0-1.6 0-1.6-.1-3.3q0-1.6-.1-3.1c-.3-3-1-5.2-2.3-7.9-2.3-1.7-4.1-2-6.9-2.4-4.2.6-5.5 2.1-8.1 5.4-.9 3.4-1.2 6.8-1.3 10.3-.1 1.5-.1 1.5-.1 3q-.1 1.5-.2 3c0 1.6 0 1.6-.1 3.1q-.2 3.8-.3 7.6c-5.2-.7-8.6-1.9-12-6-4.4-9.7-4.9-21.4-1.9-31.7 4.1-8.7 10.4-15.3 17.9-21.3 3.4-5.5 1.6-11.4.2-17.5q-1.5-6.1-3.2-12.2-.6-2.3-1.2-4.6-1.3-4.9-2.6-9.8-3.1-11.6-6.2-23.2-1-3.9-2.1-7.8l-15.7-61.1q-2.1-8.4-4.3-16.9c-7.2-28.1-13.3-55.7-13.2-84.9q0-3.7-.1-7.3c0-14.9 1.6-29.6 6.2-43.8q.3-1.3.7-2.5c6.4-19.8 15.3-37.3 28.5-53.4z" fill="#73a5ad"/><path d="M286 914q.2.8.4 1.7c3.1 10.2 8.9 18.1 17.6 24.3 6.1 3.3 12 6.1 19.1 6.1q1.5 0 3.1 0 1.7 0 3.4 0 3.6 0 7.1 0 5.6 0 11.2 0 5.4 0 10.8 0 1.7 0 3.4 0c5.7.1 9.1.5 13.4 4.3q.9.9 1.8 1.9c7.3 7.4 18.3 7.9 28 8h4q2.1 0 4.2.1 4.4 0 8.7 0 5.6 0 11.1 0 4.3.1 8.6.1 3.1 0 6.1 0c10.3 0 21.9-1.4 30-8.5 4.2-4.8 6.4-9 9-15h50l4 9c5.1 7.7 11.6 11.4 20.4 13.6 5.6.9 11.2.7 16.8.7q2 0 4.1 0 4.3 0 8.6 0 5.5-.1 11 0 4.2 0 8.5 0 3 0 6 0c13.8-.1 25.2-1.6 35.6-11.3q.5-1 1-2 1 0 1.9 0 10.2.1 20.3 0 3.8 0 7.5 0c17.7.2 31.5-.7 45-13 5.4-6.1 8.7-12.4 11.3-20 15.6 1.8 37.6 7.5 48 20 1.6 3.1 1.3 5.6 1 9-2.7 4.9-5.7 7.5-10.6 10q-1 .5-2 1c-76.9 38-188.8 33.9-277.7 33q-3.8 0-7.6 0c-213-2-213-2-252.3-40.8-2.1-3.8-2.4-5.8-1.6-10 2.5-6.8 10-9.7 16.2-12.5 10.1-4.4 22.5-9.7 33.6-9.7z" fill="#fdd261"/><path d="M334 677c2.4 2.4 2.5 3.6 3 7l.5 3.2.6 3.6c7.7 45.4 21.3 90.1 33.3 134.6q.5 1.9 1.1 3.9 2.4 9.2 4.9 18.4.9 3.3 1.8 6.6.4 1.4.8 2.9c1.4 5.3 2.7 10.4 3 15.8-2.1 1.9-2.1 1.9-5 4-2.1 2.8-3.8 5.8-5.6 8.8q-.7 1.2-1.5 2.4c-5.6 9.3-7.4 16.4-7.6 27.2q0 1.8-.1 3.7-.1 4.4-.2 8.9h-17c-.1-2.7-.1-2.7-.1-5.4q-.1-3.6-.2-7.2c0-1.7 0-1.7-.1-3.5-.2-6.3-.4-11.4-3.6-16.9-3.1-1.6-5.5-1.4-9-1-3.3 2.6-4.8 4.1-5.7 8.2q0 1.8 0 3.6c-.1 2-.1 2-.1 3.9q0 2.1 0 4.1 0 2.1-.1 4.1-.1 5.1-.1 10.1-2.4-.4-4.8-.9-1.3-.2-2.7-.5c-5.1-1.2-8.2-3.9-11.2-8.2-2.7-4.9-5.2-9.7-5.3-15.4 1.6-4 4.1-6.9 7-10 1.1-1.3 1.1-1.3 2.3-2.6 8.5-9.2 17.9-14.4 30-17.4 3.1-1.2 4.1-2.1 5.7-5 1.1-3.3 1.1-3.3 0-7-4.2-4.8-9.4-8.6-14.6-12.4-21-16.2-32-43.2-35.5-68.7a125.41 125.41 0 0 1-.9-22.9q.1-1 .1-2.1c1.7-27.5 13.3-53.6 31.9-73.9q2.5-2.1 5-4zm355 0c21.7 18.2 34.8 46 37.8 74.1 2.1 33.8-5.4 64.3-27.6 90.5-5.2 5.7-11.3 10.5-17.5 15.1-3.4 2.5-4.5 3.5-5.4 7.9.9 4.5 1.9 5.7 5.7 8.4 2.9 1.1 5.8 2 8.8 2.9 10.6 3.6 17.8 9.9 25.2 18.1q.9 1 1.8 2c2.6 3.1 3.2 4.9 3.3 8.9-1.6 7.3-4.8 13.9-10.1 19.1-4.3 2.3-8.2 3.3-13 4q0-1.2 0-2.5-.1-5.6-.2-11.1-.1-1.9-.1-3.9c0-9.2 0-9.2-4.7-16.5-2.2-.8-2.2-.8-4.6-.6q-1.1.1-2.3.1c-2.6.6-3.5 1.4-5.1 3.5-1.1 3.3-1.2 5.9-1.3 9.4-.1 1.9-.1 1.9-.1 3.8q-.1 2-.2 4 0 2-.1 4-.2 4.9-.3 9.8h-18q.1-2.4.2-4.8c.6-16.3.6-16.3-5.2-31.2q-.6-.9-1.1-1.9c-5.8-9.5-5.8-9.5-13.9-17.1 1.9-8.8 4.2-17.5 6.4-26.3q.7-2.5 1.4-5.1 1.4-5.4 2.8-10.8 1.7-6.7 3.5-13.5 7-27.3 14.2-54.5l10.6-40.7q.3-1.3.7-2.7c3.5-14.1 6.5-28 8.4-42.4z" fill="#73a5ad"/><path d="M541 424c3.6 3.6 5.2 6.5 5.4 11.6-.1 6.1-2.2 9.9-6.4 14.4-5.6 4.7-11.6 8.6-18 12 .5 5.2 1.9 9.7 5 14 2.3 1.8 4.4 2.8 7 4q1 .5 2 1c10.3 1.1 19.4-1.8 28-7.4 3.4-2.8 6-6.2 8.7-9.6 2.3-2 2.3-2 5.4-2.4 3.3.5 5.2 1.4 7.9 3.4 2 4 1.6 8.9.4 13.1-5.3 11.6-15.9 16.7-27.3 21-9.6 2.8-22.7 4.2-32.2.3-5.3-2.9-9.6-7.1-13.9-11.4-1 .9-1 .9-1.9 1.8-10.2 9-19.9 11.9-33.4 11.5-14.6-1.2-26.6-6.6-36.7-17.3-2.7-3.4-4.2-6.7-4.5-11.1.6-4.5 1.4-6.6 4.5-9.9 3.4-1.2 3.4-1.2 7-1 3 2 5.1 3.8 7.3 6.7 4.9 6.5 12.6 10.8 20.7 12.3 6.4.6 12.4.3 18-3 4.8-4.5 7.3-10.1 10-16q-1.2-.3-2.4-.6c-9.7-3.7-17.9-9.7-23.6-18.5-1.5-4.3-2-7.7 0-12 2.5-4.2 4.9-7.9 9.8-9.5 2.6-.5 5.1-.5 7.8-.5q1.4 0 2.8 0c2.6.1 2.6.1 5.6 1.1 4.8.4 9.4 0 14.1-1 8.5-1.8 15.1-.9 22.9 3z" fill="#014463"/><path d="M605 368c6.9 4.8 11.6 10.3 15 18q.5 1 1 2.1c2 4.8 2.6 8.7 2 13.9-1.6 2.5-1.6 2.5-4 4-5.1.6-7.9-.1-12-3-1.8-2.3-1.8-2.3-3.5-4.8q-.9-1.3-1.8-2.7-.8-1.2-1.7-2.5c-3.3-4.7-6.4-7.3-12-9-7.3-.7-12.9.7-18.8 5.1-2.5 3.3-3.8 6.6-5.1 10.6-1.3 2.7-2.5 3.8-5.1 5.3-3.5-.1-6-.3-8.9-2.4-3-4.3-2.8-9.5-2.1-14.6 3.4-9.9 9-16.5 18.3-21.4 11.2-5.3 27.8-4 38.7 1.4zm-141.6 1.4c6.6 4.6 10.8 10.8 12.6 18.6 1.1 10.6 1.1 10.6-1.8 14.3-3.1 2.4-5.3 2.8-9.2 2.7-4.1-2.7-5.3-5.5-6.4-10.1-1-3.7-1.4-4.7-4.3-7.4-7.4-3.4-14.7-5.1-22.5-2.4-4.7 3.2-7.4 7.2-10.2 12-2.5 3.9-4.7 6.4-8.6 8.9-4.4.8-6.2.5-10-1.9-2.4-3.7-2.5-5.3-1.8-9.5 3.4-11.5 10.3-21.3 20.6-27.6 12.8-5.8 29.6-4.5 41.6 2.4z" fill="#014362"/></svg>