<svg xmlns="http://www.w3.org/2000/svg" width="1024" height="1272" xmlns:v="https://vecta.io/nano"><path d="M558 45q2.3.3 4.6.6C603.8 50.8 646 64.7 680 89q1.5 1 3 2.1c7.5 5.5 14.3 11.5 21 17.9q1 .9 2 1.8c26.8 25.4 48.8 70.2 50.2 107.3 0 3 0 5.9-.2 8.9-2.3.3-2.3.3-5 0-2.3-2-2.3-2-4-4q.1 1.8.1 3.6c.6 30.3-4.1 60.8-14.1 89.4q1.6-.1 3.2-.1c6.4.2 11.6 2.4 16.6 6.3 11.7 14.7 12.6 29.6 11.2 47.8-2 16.1-9.3 30.2-19 43q-.7 1-1.5 2.1c-6.3 8-16.4 15.9-26.5 17.9-5.7.4-11.3.2-17 0q-.2 1.9-.3 3.9c-4 34.9-24.8 72-47.7 98.1q-1.2 1.3-2.4 2.7c-9.2 10.4-9.2 10.4-14.2 14.4-3.2 3.9-3.2 6.8-3.2 11.7q-.1 1.2-.1 2.4-.1 2.9-.1 5.8l2.2.8c10.2 4.3 18 11.6 25.8 19.2q1 .9 2 1.8c5.9 5.6 12.3 12.9 16 20.2q2.9 1.3 5.9 2.4c16.7 6.4 33 14.3 48.9 22.4q2.4 1.3 4.9 2.6c15.1 7.7 29.9 15.7 44.3 24.6q1.4.9 2.8 1.7c12.2 7.6 24 15.4 35.2 24.3q1.4 1.1 2.9 2.2c7.8 6.3 15.1 13.2 22.3 20.1q2.2 2.1 4.5 4.2c5.7 5.5 10.4 11.6 15.1 17.9q1.7 2.2 3.3 4.4c13 17.3 21.3 36.7 27.9 57.2q.4 1.1.8 2.3c9.6 29.6 13.8 61.3 19 92q1 5.5 2 11 2.6 14.7 4.6 29.5.2 1.2.4 2.4c7.8 57.5 11.5 115.5 15 173.5q.3 4.6.6 9.3.4 7.4.8 14.8.1 1 .2 2.1c1.5 25.6 1.5 25.6-4.8 34-6.4 6.4-15.4 9.1-23.6 12.1q-1.8.6-3.6 1.3c-27.8 9.7-57.4 17.4-86.4 22.3q-3.5.7-7 1.4c-21.9 4.2-43.7 8.1-65.9 10.7q-3.4.5-6.8.9c-20.7 2.5-41.4 4.8-62.2 6.6q-1.3.1-2.7.2-9.7.9-19.4 1.6-1.6.1-3.2.3c-19.3 1.5-38.6 2.2-57.9 2.8q-4.4.1-8.8.2c-20 .6-40 .8-60.1.7q0-.9 0-1.8.3-22.3.3-44.6 0-10.8.1-21.6.1-9.4.1-18.8 0-5 .1-10c.2-15.4-.4-26.2-11.3-37.8-.9-.8-.9-.8-1.7-1.7-2.5-2.7-4.5-5.6-6.5-8.6q-1.2-1.7-2.5-3.4-.6-.9-1.2-1.8l-13.6-18.4q-4.4-6-8.8-12-1.7-2.4-3.5-4.7-3.5-4.8-7.1-9.7-8.8-12-17.8-24l-14.1-19q-.8-1.1-1.7-2.3-.7-1-1.5-2.1c-1.3-1.8-1.3-1.8-3.3-3.7q.1 1.1.1 2.2c.2 4.5.2 8-1.5 12.2-6.1 6.1-15.3 9.7-24 9.8q-2.3-.1-4.7-.1c-5.1-.2-9.8 0-14.9.9-12.4.8-24.1-.3-35.8-5.1-5.8-2.3-12.1 1-17.6 3.2-5.9 2.1-11.5 2.1-17.8 2.1q-1.4 0-2.8 0h-2.6q-1.2 0-2.4 0c-2-.2-2-.2-4-2.2.7-.7.7-.7 1.4-1.5 2.6-4.2 2.6-8.6 2.6-13.5q1.6-.1 3.3-.1 2.2-.2 4.4-.3 1.1 0 2.2-.1c4.1-.2 7.3-.7 11.1-2.5q-.8-.7-1.6-1.4c-26.7-25.5-45.2-64.1-54.7-99.2-1.3-4.7-2.9-7.4-6.3-10.8-9.3-11.1-7.4-36.4-6.2-50.1 2.9-25.6 13.8-51.3 34.3-67.7 7.4-5.8 14.8-10.3 23.5-13.8q2-1 4-2c.2-6.7-.2-13.1-1.1-19.7-1.8-13.9-2.2-27.7-2.3-41.8v-2.8c-.2-36.1 7.6-72.1 33.4-98.7q.9-1 1.9-2.1c6.2-6.8 14.8-12.9 23.5-16.2q1.3-.8 2.6-1.7c.5-2.7.8-5.3 1-8q.2-1.9.3-3.9.4-5.3.6-10.7.2-2.3.3-4.6c.9-10.9.9-10.9-3.9-20.4q-2.1-2.2-4.3-4.4c-16-21.3-26-48.3-32-74q-1.5 0-3 0c-14.4-.5-25.2-4.1-36-14-1.1-1-1.1-1-2.3-2-15.4-14.3-25.5-36.1-26.9-56.9-.2-15.1 2.7-27.5 13.2-38.5 3.1-3 6-5 10-6.6q-2-8.9-4.2-17.8c-7.6-31.4-12.3-64-6.8-96.2q.3-1.8.6-3.6c5.7-32.7 22.1-62.9 49.2-82.6C348 108.9 362.9 100 377 100q.3-1 .6-2c2-4.3 5.1-7.5 8.4-11q.8-.8 1.5-1.7c9.8-10.6 22.6-17.4 35.5-23.3q1.5-.7 3-1.4c40.4-17.7 88.7-21.4 132-15.6z" fill="#faf3e6"/><path d="M558 45q2.3.3 4.6.6C603.8 50.8 646 64.7 680 89q1.5 1 3 2.1c7.5 5.5 14.3 11.5 21 17.9q1 .9 2 1.8c26.8 25.4 48.8 70.2 50.2 107.3 0 3 0 5.9-.2 8.9-2.3.3-2.3.3-5 0-2.3-2-2.3-2-4-4q.1 1.8.1 3.6c.6 30.3-4.1 60.8-14.1 89.4q1.6-.1 3.2-.1c6.4.2 11.6 2.4 16.6 6.3 11.7 14.7 12.6 29.6 11.2 47.8-2 16.1-9.3 30.2-19 43q-.7 1-1.5 2.1c-6.3 8-16.4 15.9-26.5 17.9-5.7.4-11.3.2-17 0q-.2 1.9-.3 3.9c-4 34.9-24.8 72-47.7 98.1q-1.2 1.3-2.4 2.7c-9.2 10.4-9.2 10.4-14.2 14.4-3.2 3.9-3.2 6.8-3.2 11.7q-.1 1.2-.1 2.4-.1 2.9-.1 5.8l2.2.8c10.2 4.3 18 11.6 25.8 19.2q1 .9 2 1.8c10 9.4 17.3 21.3 24 33.2q.9 1.6 1.9 3.3c12.5 23.5 18.3 51.3 20.1 77.7l.2 2.1c.4 5.6.6 11.2.8 16.9q.1 1.7.1 3.4c.6 24.6-1.2 48.8-3.4 73.2-.7 8.5-1.3 16.9-1.7 25.4 1.1.4 1.1.4 2.2.7 12.5 4.1 23 10.8 29.6 22.4 7 14.5 8 27.4 3.2 42.9-4.9 13.2-14.8 22.1-27.3 28.1-11.7 4.4-26.3 3.2-37.7-1.5-4.5-2.4-8.3-5.1-12-8.6q-.8-.8-1.7-1.6c-10.3-10.9-12.9-24.5-12.6-38.8.7-13.3 6.9-23.9 16.3-33 9.4-7.6 9.4-7.6 14-7.6q.1-1.3.2-2.6.7-10.8 1.5-21.5.1-1.2.2-2.4.4-4.8.8-9.7c1.6-19.2 2.5-38.3 2.5-57.6q0-4.9 0-9.8c.1-16.2-.8-31.9-4.4-47.7q-.3-1.4-.6-2.9c-6.5-27.7-18-56-41.2-73.8q.5.9 1 1.8c2.4 5.4-1.5 12.7-3.5 18-12.8 31.5-30.7 60.5-54 85.5q-2.9 3.2-5.8 6.5c-3.8 4.4-8 8.6-12.1 12.8q-1.1 1-2.2 2.1c-4.6 4.7-9.4 9.1-14.4 13.3q-.9.8-1.8 1.5-2.5 2.1-5 4.3-.8.6-1.6 1.4-2.3 1.9-4.6 3.8-1 1-2.1 2-.9.5-1.9 1c-4-1.3-7.3-3.3-10.7-5.6q-.8-.6-1.7-1.1-2.6-1.8-5.2-3.5-.9-.7-1.8-1.3c-15.8-10.5-31-21.5-45.1-34.2q-2.9-2.5-5.8-5c-30.2-26.6-30.2-26.6-42.7-41.3q-1.1-1.2-2.2-2.5c-10.8-12.7-20.7-26.2-28.8-40.7-1-1.8-2.1-3.5-3.2-5.3-4.6-7.6-5.3-12.9-3.3-21.3.6-2.5 1.3-4.9 2.5-7.2-17.7 10.4-26.7 29-32.2 48.2-3.8 15.4-4.1 30.7-4 46.4q0 1.5 0 3c0 11 .1 22 1 33q.1 1.2.2 2.5c.6 5.4 1.9 10.4 3.4 15.5.6 2.4.6 2.4.6 5.4q1.8.1 3.6.2c17.1 2 31.5 12 43.4 23.8l2.3 2.3c21.7 22.6 27.2 52.7 26.9 82.9-.5 21.8-.5 21.8-8.2 29.8-4 2.3-7.5 2.5-12 2-3.9-1.6-6.6-3.4-9-7-.3-2.8-.3-2.8-.2-6.1-.1-1.6-.1-1.6-.1-3.3.2-2.8.6-5.1 1.3-7.9 1.2-5.1 1.3-10 1.3-15.3v-2.9c-.4-21.1-7.1-41.8-21.7-57.5-11.2-10.1-25.1-14-39.9-13.3-13.7 1.2-24.4 8.6-33.7 18.3-15.6 18.8-17.5 41.5-16 65 .7 4.1 1.9 8 3.2 12 1.2 4.3 1.2 7.8-.2 12-1.8 3-3.2 4.5-6.2 6.4-4.2.9-7.7 1-11.8-.4-6.6-4.8-8.6-11.3-10-19l-.6-3.3c-4.6-29.3-.1-59.3 16.8-84 10.5-14.4 23.3-25 39.8-31.7q2-1 4-2c.2-6.7-.2-13.1-1.1-19.7-1.8-13.9-2.2-27.7-2.3-41.8v-2.8c-.2-36.1 7.6-72.1 33.4-98.7q.9-1 1.9-2.1c6.2-6.8 14.8-12.9 23.5-16.2q1.3-.8 2.6-1.7c.5-2.7.8-5.3 1-8q.2-1.9.3-3.9.4-5.3.6-10.7.2-2.3.3-4.6c.9-10.9.9-10.9-3.9-20.4q-2.1-2.2-4.3-4.4c-16-21.3-26-48.3-32-74q-1.5 0-3 0c-14.4-.5-25.2-4.1-36-14-1.1-1-1.1-1-2.3-2-15.4-14.3-25.5-36.1-26.9-56.9-.2-15.1 2.7-27.5 13.2-38.5 3.1-3 6-5 10-6.6q-2-8.9-4.2-17.8c-7.6-31.4-12.3-64-6.8-96.2q.3-1.8.6-3.6c5.7-32.7 22.1-62.9 49.2-82.7C348 108.9 362.9 100 377 100q.3-1 .6-2c2-4.3 5.1-7.5 8.4-11q.8-.8 1.5-1.7c9.8-10.6 22.6-17.4 35.5-23.3q1.5-.7 3-1.4c40.4-17.7 88.7-21.4 132-15.6z" fill="#fdb069"/><path d="M329 615c1.7 4 .1 7.2-1.3 11.1-2.9 8.8-4.5 17.7-5.7 26.9-.3 1.8-.3 1.8-.5 3.7-.6 4.6-.7 9.1-.7 13.7q0 1.4 0 2.7 0 4.3 0 8.7-.1 1.4-.1 2.9c0 14.4.7 28.4 2.6 42.6 1.5 11.7 1.5 11.7.7 16.7-2.1 2-2.1 2-5 3q-1.5.7-3.1 1.5-1.7.8-3.4 1.6c-7.6 3.7-14 8.4-20.5 13.9q-1 .8-2 1.7c-17.9 16.2-26.8 43.2-28.1 66.5-.4 9.6 0 19 1.4 28.5.1 1.2.1 1.2.3 2.4 1 6.4 2.6 13.3 7.5 17.8 3.2 3.5 3.8 7.9 5 12.4 3.6 12.4 8.4 24 13.9 35.7q.6 1.2 1.2 2.5c10.3 21.4 24.3 40.6 39.8 58.5-5 2-9.1 2.2-14.4 2.1q-1.1 0-2.2 0-2.7 0-5.4-.1a45.69 45.69 0 0 0 .7 3.6c.5 4.3-.5 6.7-2.7 10.4q0 1 0 2c18.6.7 18.6.7 36.2-5.1 4.2-2 9 .1 13.1 1.5 12.8 4.4 25.9 4.5 39.2 2.8 3.1-.3 6.2-.1 9.4 0 8.7.1 17-2.1 24.1-7.2 3-3.8 3.3-6.6 3.2-11.3q-.1-1.6-.1-3.3 0-1.2-.1-2.4c4.9 3.4 8 7.7 11.4 12.6q1.9 2.5 3.8 5.1.9 1.3 1.9 2.7 4.4 6.1 8.9 12.1 1.8 2.4 3.5 4.7a35.34 35.34 0 0 1 1.7 2.4l35.1 47.5q1.7 2.4 3.4 4.8 4.6 6.1 9.1 12.2.9 1.3 1.9 2.6 1.7 2.4 3.5 4.8.8 1.1 1.6 2.2a13.93 13.93 0 0 0 1.5 1.9c1.6 2.3 1.6 2.3 3.2 4 5.1 5.9 5.3 10.8 5.2 18.4q0 1.8 0 3.6 0 5.8-.1 11.7 0 4 0 8.1-.1 9.5-.2 19.1-.1 10.9-.1 21.7-.1 22.4-.3 44.8c-63.5.3-63.5.3-92.5-1.2q-3.2-.1-6.4-.3c-51.9-2.3-103.7-6.9-155.1-14.6q-6.9-1-13.9-2c-32.7-4.5-32.7-4.5-35.1-6.9q-2.8-.2-5.6-.4c-7.5-.5-14.7-1.9-22.1-3.4q-1-.2-2.1-.5c-14.3-3-28.6-6.3-42.8-9.7q-1.6-.4-3.2-.7l-34.2-8.9q-1.5-.5-3-.9c-10.7-3.1-20.7-6.5-27.1-16.1-1.3-3.6-1.2-7.1-1.2-10.8q0-1.2 0-2.5 0-4.2 0-8.3.1-1.5.1-2.9c.1-31.7 2.2-63.3 5-94.8q.5-5 .9-10 1-11.4 2.1-22.7.2-2.5.4-4.9c2.4-24.4 5.2-48.7 8.9-73q.2-1.7.5-3.4 3.8-25.4 8.4-50.8 1.2-6.6 2.3-13.2c9-56.9 23.1-115.2 65-157.4q2.4-2.4 4.7-4.8c6-6.2 12.2-11.7 19-16.9l1.8-1.4c10-7.8 20.4-14.8 31.2-21.6 1-.7 1-.7 2.1-1.3 19.8-12.6 40.6-23.4 61.8-33.3q4.2-1.9 8.4-3.9 4.5-2.1 8.9-4.2 1.7-.8 3.5-1.6 1.5-.7 3.1-1.5c1.4-.6 1.4-.6 2.8-1.3 2.4-.9 2.4-.9 5.4-.9q0-1 0-2z" fill="#faf3e6"/><path d="M558 45q2.3.3 4.6.6C603.8 50.8 646 64.7 680 89q1.5 1 3 2.1c7.5 5.5 14.3 11.5 21 17.9q1 .9 2 1.8c26.8 25.4 48.8 70.2 50.2 107.3 0 3 0 5.9-.2 8.9-2.3.3-2.3.3-5 0-2.3-2-2.3-2-4-4q.1 1.8.1 3.6c.5 26.8.5 73.7-18.7 94.8q-.8.9-1.7 1.8c-5.9 6.3-8 15.4-10.5 23.4-1.5 4.7-3.2 8.4-6.2 12.4q-2.5-.5-5-1l1-19-7 1q-3.5.1-6.9.1-1.7-.1-3.5-.1H686q.1 1.1.1 2.3c.6 17.1-5 32.5-16.5 45.1-11.2 11.8-25.7 20.3-42.2 21q-2.9 0-5.8 0-1.5 0-3-.1c-18.2-.4-33.1-6.7-46-19.5-10.6-11.4-17.2-25.6-17.9-41.2-.3-3.8-.6-4.4-3.2-7.5-1.7-1.1-1.7-1.1-3.5-2.1q-1-.6-1.9-1.2c-6.5-3.4-13-3.9-20.1-2.8-5.1 1.9-10.1 4.1-14 8-.5 2.9-.9 5.8-1.3 8.7-2.4 16.9-9.2 32.2-22.7 43.3-17.3 12.7-36.2 16.5-57.3 13.7-17.3-3.3-31.8-14.6-41.7-28.7-7.5-12-11-25.9-10-40q-1 0-1.9 0c-19.6.2-19.6.2-24.1-2q0 .9 0 1.9c.2 12 .2 12-1 17.1q-1 1-2 2c-2.4-.1-2.4-.1-5-1-2.4-3.4-3.9-7.1-5.4-11-4.2-11-9.5-22.7-20.8-28-6.8-2.6-12.7-2.5-19.8-1-11-36.8-18.6-75.6-12-114q.3-1.8.6-3.6c5.7-32.7 22.1-62.9 49.1-82.6C348 108.9 362.9 100 377 100q.3-1 .6-2c2-4.3 5.1-7.5 8.4-11q.8-.8 1.5-1.7c9.8-10.6 22.6-17.4 35.5-23.3q1.5-.7 3-1.4c40.4-17.7 88.7-21.4 132-15.6z" fill="#012949"/><path d="M381 589q-.2 1.2-.4 2.4-.3 1.5-.5 3.2-.3 1.5-.6 3.1-.2 1.6-.5 3.3-.4 1.7-.8 3.4c-.3 4.8 1.2 7.4 3.5 11.4q.6 1.1 1.2 2.2c10.5 18.5 23.1 36 37.7 51.4q3.1 3.3 6 6.7c5.9 6.8 12.3 13.1 19.1 18.9 2.4 2.1 4.7 4.2 6.9 6.3 6.3 5.8 12.7 11.4 19.4 16.7q1.7 1.4 3.3 2.7c9.4 7.7 19.1 14.7 29 21.5q2.8 1.8 5.5 3.7 4.1 2.8 8.2 5.6l2.6 1.8q1.1.7 2.3 1.5 1.1.7 2.1 1.5c2 1 2 1 4.1-.1 7-4.6 13.3-10.3 19.4-15.9q2.4-2.2 4.8-4.3c10.5-9.3 20.8-19.2 29.7-30q1.4-1.6 2.7-3.2c22-26.1 42-56.7 51.5-89.8.8-2 .8-2 2.8-3 1.2 65.4-13.7 128.8-29.1 192.1q-1 4.4-2.1 8.8-4.3 18.4-8.9 36.8-.4 1.4-.7 2.8L585.1 905q-2.5 9.5-5 19.1c-30.3 117.7-30.3 117.7-43.2 150.7-1.1 4-1.1 7.5-1 11.6v2.2q0 2.7.1 5.4l1-1.4 39.9-60.4 39.2-60.2q2.8-4.4 5.6-8.7c11.4-17.9 22.6-35.9 33.3-54.3 4.3 1.6 6.3 4.5 9 8-6.9 11.7-14 23.2-21.5 34.6q-5.8 8.8-11.3 17.9c-4.1 6.7-8.3 13.3-12.7 19.8-2.6 3.8-5 7.6-7.5 11.5l-20.2 30.6q-3.8 5.6-7.6 11.2-1.3 2-2.6 4-3.4 5-6.7 10.1c-4.3 6.7-8.7 13.2-13.9 19.3-23.6 27.6-24.5 55-23.3 89.7l.4 21.1.9 43.2h-11q0-2.2 0-4.5.3-21 .3-41.9 0-10.8.1-21.6.1-9.4.1-18.8 0-5 .1-10c.2-15.4-.4-26.2-11.3-37.8q-.9-.8-1.7-1.7c-2.5-2.7-4.5-5.6-6.5-8.6q-1.2-1.7-2.5-3.4-.6-.9-1.2-1.8l-13.6-18.4q-4.4-6-8.8-12-1.7-2.4-3.5-4.7-3.5-4.8-7.1-9.7-8.8-12-17.8-24l-14.1-19q-.8-1.1-1.7-2.3-.7-1-1.5-2.1c-1.3-1.8-1.3-1.8-3.3-3.7q.1 1.1.1 2.2c.2 4.5.2 8-1.5 12.2-6.1 6.1-15.3 9.7-24 9.8q-2.3-.1-4.7-.1c-5.1-.2-9.8 0-14.9.9-12.4.8-24.1-.3-35.8-5.1-5.8-2.3-12.1 1-17.6 3.2-5.9 2.1-11.5 2.1-17.8 2.1q-1.4 0-2.8 0-1.3 0-2.6 0-1.2 0-2.4 0c-2-.2-2-.2-4-2.2.7-.7.7-.7 1.4-1.5 2.6-4.2 2.6-8.6 2.6-13.5q1.6-.1 3.3-.1 2.2-.2 4.4-.3c1.1 0 1.1 0 2.2-.1 4.1-.2 7.3-.7 11.1-2.5q-.8-.7-1.6-1.4c-27.3-26.1-47.8-67-55.4-103.6.9.1.9.1 1.8.1 5.1.2 8.8 0 13.2-3.1 2.7-3.6 3.2-6.3 2.9-10.7-.5-3.6-1.3-6.9-2.4-10.3-1.8-6.5-2-12.6-1.9-19.3 0-1.8 0-1.8.1-3.6.3-19.4 5.9-37.5 19.6-51.9 11.5-11 23.6-15.8 39.4-15.5 13.7.6 26 6.9 35.3 16.8 13.6 17 19.1 36.2 19.3 57.7q0 1.4 0 2.8c0 5.2-.6 9.9-1.8 15-1.2 4.9-1.2 10-.5 15 2.5 3.6 3.9 4.6 8 6 5.2.4 8.6 0 13-3 10.1-12.6 6.9-37.2 5.7-52.3-3.2-26.2-16.1-50.9-36.4-68-11.6-8.7-24.1-14-38.3-16.7-2.7-7.9-4.1-15.7-5-24q-.1-1.3-.3-2.6c-.9-9.7-.9-19.5-.9-29.2q0-4.4 0-8.7c-.1-29.4 4.7-59 25.2-81.5 8.3-8 8.3-8 12-8z" fill="#1ea3ad"/><path d="M382 553q.5 0 1 0 .1 1.5.3 3c2 13.2 14.1 21.8 23.7 30q1.4 1.2 2.9 2.5c7.1 6.2 14.5 11.9 22.3 17.3q2.6 1.8 5.2 3.6C457.5 623.5 480 634 504 639q1 .3 2.1.5c7.1 1.6 14 1.8 21.3 1.7a38.6 38.6 0 0 0 3.4.1c32.7-.1 58.4-16.3 81.2-38.3q1-.9 1.9-1.8c6.5-6 16.8-16.5 17.7-25.4q.2-1.9.4-3.8c11.2 4.2 19.6 11.9 28 20q1 .9 2 1.8c10 9.4 17.3 21.3 24 33.2q.9 1.6 1.9 3.3c12.5 23.5 18.3 51.3 20.1 77.7q.1 1 .2 2.1c.4 5.6.6 11.2.8 16.9q.1 1.7.1 3.4c.6 24.6-1.2 48.8-3.4 73.2-.7 8.5-1.3 16.9-1.7 25.4q1.1.4 2.2.7c12.5 4.1 23 10.8 29.6 22.4 7 14.5 8 27.4 3.2 42.9-4.9 13.2-14.8 22.1-27.3 28.1-11.7 4.4-26.3 3.2-37.7-1.5-4.5-2.4-8.3-5.1-12-8.6q-.8-.8-1.7-1.6c-10.3-10.9-12.9-24.5-12.6-38.8.7-13.3 6.9-23.9 16.3-33 9.4-7.6 9.4-7.6 14-7.6q.1-1.3.2-2.6.7-10.8 1.5-21.5.1-1.2.2-2.4.4-4.8.8-9.7c1.6-19.2 2.5-38.3 2.5-57.6q0-4.9 0-9.8c.1-16.2-.8-31.9-4.4-47.7q-.3-1.4-.6-2.9c-6.5-27.7-18-56-41.2-73.8q.5.9 1 1.8c2.4 5.4-1.5 12.7-3.5 17.9-12.8 31.6-30.7 60.6-54 85.6q-2.9 3.2-5.8 6.5c-3.8 4.4-8 8.6-12.1 12.8q-1.1 1-2.2 2.1c-4.6 4.7-9.4 9.1-14.4 13.3q-.9.8-1.8 1.5-2.5 2.1-4.9 4.2l-1.7 1.5q-2.3 1.9-4.6 3.8-1 1-2.1 2-.9.5-1.9 1c-4-1.3-7.3-3.3-10.7-5.6q-.8-.6-1.7-1.1-2.6-1.8-5.2-3.6-.9-.6-1.8-1.2c-15.8-10.5-31-21.5-45.1-34.2q-2.9-2.5-5.8-5.1c-30.2-26.5-30.2-26.5-42.7-41.2q-1.1-1.2-2.2-2.5c-10.8-12.7-20.7-26.2-28.8-40.7-1-1.8-2.1-3.5-3.2-5.3-4.6-7.6-5.3-12.9-3.3-21.3.6-2.5 1.3-4.9 2.5-7.2-17.7 10.4-26.7 29-32.2 48.2-3.8 15.4-4.1 30.7-4 46.4q0 1.5 0 3c0 11 .1 22 1 33q.1 1.2.2 2.5c.6 5.4 1.9 10.4 3.4 15.5.6 2.4.6 2.4.6 5.4q1.8.1 3.6.2c17.1 2 31.5 12 43.4 23.8q1.1 1.1 2.3 2.3c21.7 22.6 27.2 52.7 26.9 82.9-.5 21.8-.5 21.8-8.2 29.8-4 2.3-7.5 2.5-12 2-3.9-1.6-6.6-3.4-9-7-.3-2.8-.3-2.8-.2-6.1-.1-1.6-.1-1.6-.1-3.3.2-2.8.6-5.1 1.3-7.9 1.2-5.1 1.3-10 1.3-15.3v-2.9c-.4-21.1-7.1-41.8-21.7-57.5-11.2-10.1-25.1-14-39.9-13.3-13.7 1.2-24.4 8.6-33.7 18.3-15.6 18.8-17.5 41.5-16 65 .7 4.1 1.9 8 3.2 12 1.2 4.3 1.2 7.8-.2 12-1.8 3-3.2 4.5-6.2 6.4-4.2.9-7.7 1-11.8-.4-6.6-4.8-8.6-11.3-10-19q-.3-1.6-.6-3.3c-4.6-29.3-.1-59.3 16.8-84 10.5-14.4 23.3-25 39.8-31.7q2-1 4-2c.2-6.7-.2-13.1-1.1-19.7-1.8-13.9-2.2-27.7-2.3-41.8q0-1.4 0-2.8c-.2-36.1 7.6-72.1 33.4-98.7q.9-1 1.9-2.1c6.4-7 14.8-12.5 23.5-16.4 2.7-1.2 2.7-1.2 3.4-3.5q0-1.1.1-2.2 0-1.9.1-3.8z" fill="#fdaf68"/><path d="M413 151q2.5 1.5 5.1 2.9 1.6 1 3.3 2 3.4 2 6.8 4.1c41.8 25.8 88.3 43 135.8 55a25.04 25.04 0 0 1 2.6.7c39 10.1 79.3 12.9 119.4 12.3 11.5 31.4 19 65.5 20 99-4.4 1.1-8.8 1.1-13.3 1.1q-1.1 0-2.3-.1-2.7 0-5.4 0-.3-.9-.7-1.8c-4-10.3-8.4-19.6-15.6-28.1-1.7-2.1-1.7-2.1-3.7-5.1q1 0 2 0 .2-2.1.3-4.1.1-1.2.2-2.3c-.7-3.8-2.8-6.1-5.5-8.6-14.2-8.9-28.4-11.2-44.9-11.3q-1.5 0-3 0c-9.6-.1-18 1.9-26.6 6.2q-1.5.8-3 1.5c-2.6 1.7-4 2.9-5.5 5.6.2 4.2.7 6.5 3 10q-1 .8-1.9 1.7c-12.6 10.9-18 22.1-24.1 37.3q-1.2-.5-2.5-1.1-1.6-.6-3.3-1.3-1.5-.7-3.2-1.4c-9.4-3.7-20.5-3.7-29.8.2q-2.6 1.3-5.2 2.6-1.5.5-3 1-.5-1.6-1.1-3.1c-5.1-14.3-11-26.4-23.9-34.9q.5-.8.9-1.6c1.5-3.2 2-5.8 2.1-9.4-6.4-8.8-18.2-10.8-28.2-12.6-19.9-2.3-40.9-.4-57.3 12.1-1.7 1.7-2.6 3.2-3.5 5.5q.4 3.5 1 7c0 4 0 4-1.5 5.9q-1 1-2.1 2c-7.3 7.8-11.4 17.9-14.4 28.1-6.3.1-12.3-.2-18.6-1q-1.2-.1-2.4-.3-3-.3-6-.7c-1.6-22-1.6-22 1.8-28.3 2.4-2.1 2.4-2.1 5.2-4.2 3.9-3.2 6.5-6.8 9.4-10.9.8-1.1.8-1.1 1.6-2.3 18.9-27.1 32.7-56.8 39-89.3q.3-1.7.7-3.5c1.9-12.1 1.5-24.3 1.3-36.5z" fill="#fcb069"/><path d="M381 589q-.2 1.1-.4 2.3-.3 1.5-.5 3.1-.3 1.5-.6 3-.2 1.8-.5 3.6-.2 1.1-.4 2.2c-.9 7.2 0 13.6 1.3 20.7q.3 1.8.7 3.8c9.2 50.1 26.2 98.8 43.4 146.6l22.6 65.7q3.6 10.6 7.2 21.2.5 1.3.9 2.6.5 1.2.9 2.5l17.4 52.4 8.6 26.1 15 46.5 1.2 3.6q1.2 3.8 2.3 7.5.6 1.8 1.2 3.7l1.2 3.8q5.6 17.7 11.2 35.4 1 3.2 2 6.4 1.4 4.4 2.8 8.8a30.3 30.3 0 0 1 .9 2.8c2.3 6.8 4.8 13.5 7.5 20.2 1.3 4.1 1.3 7.2 1.1 11.5-3.3-3.1-5.9-6.4-8.4-10.1q-1.4-1.9-2.7-3.8-.7-1-1.4-2-3.9-5.4-7.7-10.8c-.9-1.1-.9-1.1-1.7-2.3l-14.1-19.2q-5.7-7.7-11.2-15.5l-12.4-17q-6-8-11.8-16.2c-4.7-6.6-9.6-13.1-14.6-19.5-6.8-8.8-13.1-17.8-19.3-27q-2.9-4.3-5.8-8.6-1.1-1.5-2.1-3.1-2.1-2.9-4.1-5.9l-1.9-2.7q-.8-1.1-1.6-2.4C406 927 406 927 406 925q-1 0-2 0c.6-3.3 1.4-6.5 2.5-9.7q.4-1.4.9-2.8.4-1.4.9-2.8c2.7-8.1 4.9-16.1 6.6-24.5 1.3-3.8 3.2-5.5 6.1-8.2 8.5-13.5 5.5-40.8 2.7-55.8-6.3-27.4-19.7-51.7-43.8-67.3-9.3-5.6-19.3-8.9-29.9-10.9-2.7-7.9-4.1-15.7-5-24q-.1-1.3-.3-2.6c-.9-9.7-.9-19.5-.9-29.2q0-4.4 0-8.7c-.1-29.4 4.7-59 25.2-81.5 8.3-8 8.3-8 12-8zm-8.5 190.1c14.6 11.2 23.5 29.2 26.9 47 .7 6 .8 12.1.9 18.1q0 1.4 0 2.8a57.44 57.44 0 0 1-1.9 14.9c-.6 3-.6 5.9-.6 9q0 1.6 0 3.3c.1 2.9.1 2.9 1.2 5.8-.8 4.6-2.1 9.2-3.3 13.7q-.3 1-.6 2c-8.5 31.8-23.2 63.2-47.1 86.3-24.5-11.1-41-52.2-50.1-75.8-8.8-23.7-8.8-23.7-7.1-34.3.2-3.6-.6-6.1-1.7-9.5-5.9-19.7-3.2-43.2 5.9-61.4 7.6-14 18.9-24.6 34-30 15-3.7 31-.6 43.5 8.1z" fill="#f9f3e7"/><path d="M289 880c2 1 2 1 2.8 3.1q.4 1.4.8 2.8.4 1.6.9 3.2.4 1.7.9 3.4c9.9 33.2 26.7 64.2 51.6 88.5 21.3-9.4 34.2-45.2 41.9-65.1 4.3-11.7 7.2-23.8 10.1-35.9q1.1.5 2.3.9c3.9 1.6 6.7 2.2 10.9 2.2q1.3-.1 2.7-.1h2.1c-1.9 14.3-6.8 28.6-12 42q1 0 2 0c1.6 2.2 3.1 4.3 4.5 6.6q.7 1 1.4 2 1.4 2.2 2.9 4.4 3.7 5.7 7.5 11.5.7 1.1 1.5 2.2c5.8 8.7 11.9 17 18.2 25.3q3 4 6.1 8.1.7.9 1.4 1.9c4.3 5.7 8.4 11.4 12.5 17.1q5.9 8.2 12 16.4l21.6 29.7q2.4 3.4 4.8 6.7.8 1.1 1.6 2.3 7 9.6 14.2 19.2A431.27 431.27 0 0 1 527 1094q.5-2.5 1-5 1 .5 2 1l4-9q1 .5 2 1v12q1.1-1.7 2.3-3.5l38.6-58.3 39.2-60.2q2.8-4.4 5.6-8.7c11.4-17.9 22.6-35.9 33.3-54.3 4.3 1.6 6.3 4.5 9 8-6.9 11.7-14 23.2-21.5 34.6q-5.8 8.8-11.3 17.9c-4.1 6.7-8.3 13.3-12.7 19.8-2.6 3.8-5 7.6-7.5 11.4l-20.2 30.7q-3.8 5.6-7.6 11.2-1.3 2-2.6 4-3.4 5-6.7 10.1c-4.3 6.7-8.7 13.2-13.9 19.3-23.6 27.6-24.5 55-23.3 89.7l.4 21.1.9 43.2h-11q0-2.2 0-4.5.3-21 .3-41.9 0-10.8.1-21.6.1-9.4.1-18.8 0-5 .1-10c.2-15.4-.4-26.2-11.3-37.8q-.9-.8-1.7-1.7c-2.5-2.7-4.5-5.6-6.5-8.6q-1.2-1.7-2.5-3.4-.6-.9-1.2-1.8l-13.6-18.4q-4.4-6-8.8-12-1.7-2.4-3.5-4.7-3.5-4.8-7.1-9.7-8.8-12-17.8-24l-14.1-19-1.7-2.3q-.7-1-1.5-2.1c-1.3-1.8-1.3-1.8-3.3-3.7q.1 1.1.1 2.2c.2 4.5.2 8-1.5 12.2-6.1 6.1-15.3 9.7-24 9.8q-2.3-.1-4.7-.1c-5.1-.2-9.8 0-14.9.9-12.4.8-24.1-.3-35.8-5.1-5.8-2.3-12.1 1-17.6 3.2-5.9 2.1-11.5 2.1-17.8 2.1q-1.4 0-2.8 0-1.3 0-2.6 0-1.2 0-2.4 0c-2-.2-2-.2-4-2.2q.7-.7 1.4-1.5c2.6-4.2 2.6-8.6 2.6-13.5 1.6-.1 1.6-.1 3.3-.1q2.2-.2 4.4-.3 1.1 0 2.2-.1c4.1-.2 7.3-.7 11.1-2.5l-1.6-1.4c-27.3-26.1-47.8-67-55.4-103.6q.9.1 1.8.1c5.2.2 8.6-.2 13.2-3.1q.5-.5 1-1z" fill="#c3d2d8"/><path d="M632 572c11.2 4.2 19.6 11.9 28 20l2 1.8c10 9.4 17.3 21.3 24 33.2l1.9 3.3c12.5 23.5 18.3 51.3 20.1 77.7l.2 2.1c.4 5.6.6 11.2.8 16.9q.1 1.7.1 3.4c.6 24.6-1.2 48.8-3.4 73.2-.7 8.5-1.3 16.9-1.7 25.4q1.1.4 2.2.7c12.5 4.1 23 10.8 29.6 22.4 7 14.5 8 27.4 3.2 42.9-4.9 13.2-14.8 22.1-27.3 28.1-11.7 4.4-26.3 3.2-37.7-1.5-4.5-2.4-8.3-5.1-12-8.6q-.8-.8-1.7-1.6c-10.3-10.9-12.9-24.5-12.6-38.8.7-13.3 6.9-23.9 16.3-33 9.4-7.6 9.4-7.6 14-7.6q.1-1.3.2-2.6.7-10.8 1.5-21.5.1-1.2.2-2.4.4-4.8.8-9.7c1.6-19.2 2.5-38.3 2.5-57.6q0-4.9 0-9.8c.1-16.2-.8-31.9-4.4-47.7q-.3-1.4-.6-2.9c-6-25.8-16.7-54.6-38.4-71.5-6.1-4.8-6.5-11.5-7.4-18.8-.5-5.2-.7-10.3-.4-15.5z" fill="#093150"/><path d="M383 561q-.2 5.3-.4 10.6 0 1.5-.1 3.1c-.5 12.4-.5 12.4-4.6 16.3l-2.5 1.7C357.7 606.3 349 629.5 346 651c-1.4 10.7-1.2 21.5-1.2 32.3q0 1.4 0 2.9c0 11.2.1 22.3 1 33.4q.1 1.2.2 2.5c.6 5.4 1.9 10.4 3.4 15.5.6 2.4.6 2.4.6 5.4q1.8.1 3.6.2c17.1 2 31.5 12 43.4 23.8q1.1 1.1 2.3 2.3c21.7 22.6 27.2 52.7 26.9 82.9-.5 21.8-.5 21.8-8.2 29.8-4 2.3-7.5 2.5-12 2-3.9-1.6-6.6-3.4-9-7-.3-2.8-.3-2.8-.2-6.1-.1-1.6-.1-1.6-.1-3.3.2-2.8.6-5.1 1.3-7.9 1.2-5.1 1.3-10 1.3-15.3v-2.9c-.4-21.1-7.1-41.8-21.7-57.5-11.2-10.1-25.1-14-39.9-13.3-13.7 1.2-24.4 8.6-33.7 18.3-15.6 18.8-17.5 41.5-16 65 .7 4.1 1.9 8 3.2 12 1.2 4.3 1.2 7.8-.2 12-1.8 3-3.2 4.5-6.2 6.4-4.2.9-7.7 1-11.8-.4-6.6-4.8-8.6-11.3-10-19q-.3-1.6-.6-3.3c-4.6-29.3-.1-59.3 16.8-84 10.5-14.4 23.3-25 39.8-31.7q2-1 4-2c.2-6.7-.2-13.1-1.1-19.7-1.8-13.9-2.2-27.7-2.3-41.8q0-1.4 0-2.8c-.2-36.1 7.6-72.1 33.4-98.7q.9-1 1.9-2.1c5.8-6.3 19.1-17.9 28.1-17.9z" fill="#042f4d"/><path d="M384 521c3.5 2.7 6.5 5.5 9.4 8.9s6 6.3 9.4 9.2l7.4 6.7c9.9 9 20.7 16.8 31.9 24q1.8 1.2 3.6 2.3c17.4 11.6 37.8 19.8 58.3 23.9q1.3.3 2.7.6c7.6 1.4 14.9 1.7 22.6 1.7q1.7-.1 3.5-.1c27.1-.3 54.1-8.2 76.2-24.2q1.5-1.1 3-2.2c11.1-7.4 11.1-7.4 19-17.8q1 .5 2 1c.6 25.9.6 25.9-7.3 34.4q-1.3 1.3-2.7 2.6-1.4 1.5-2.8 3.1c-2.6 3-5.4 6-8.2 8.9q-.9 1-1.9 2.1c-18.2 19.4-45 34.7-72 36-14.9.5-28.8 0-43.1-4.1q-1.1-.3-2.2-.6C466.7 630 443 615.9 422 599q-1.3-1-2.6-2c-5.5-4.3-10.7-8.9-15.8-13.6q-3.4-3.1-6.9-6.1c-2.5-2.2-5-4.5-7.5-6.8q-.8-.8-1.7-1.5c-4-5.2-4.9-10.2-4.8-16.7q0-1 0-2.1 0-2.3 0-4.5.1-3.4.1-6.8c0-6 0-11.9 1.2-17.9z" fill="#f48b3b"/><path d="M477.3 298.1c12 8.4 18.8 21.3 22.3 35.4 2.4 15.6-1.4 30.8-10.6 43.5-8.1 9.9-18.6 16.1-31 19q-.9.3-1.9.5c-13 3-28.1.3-39.7-5.9-13.3-8.6-22.1-21.1-25.7-36.5-2.6-15.7.5-30.8 9.3-44.1 18.5-24.3 52.1-27.6 77.3-11.9zm142.5-9.4q1.3 0 2.6 0c15.2.3 27.3 5.4 38.3 15.8 12.1 13.2 15.2 27.9 14.5 45.1-1.2 14.7-9.6 26.6-20.2 36.2-12.8 10.3-28 12.7-44 11.2-4.5-.9-8.7-2.2-13-4q-1.1-.4-2.2-.9c-12.1-5.3-20.8-15.4-26.2-27.2-5.3-14.1-5.6-29.4-.1-43.5 6.8-15.1 17.3-24.3 32.5-30.4 6-1.8 11.5-2.4 17.8-2.3z" fill="#fcb169"/><path d="M289 880c2 1 2 1 2.8 3.1q.4 1.4.8 2.8.4 1.6.9 3.2.4 1.7.9 3.4c9.9 33.2 26.7 64.2 51.6 88.5 21.3-9.4 34.2-45.2 41.9-65.1 4.3-11.7 7.2-23.8 10.1-35.9q1.1.5 2.3.9c3.9 1.6 6.7 2.2 10.9 2.2q1.3-.1 2.7-.1h2.1c-2.1 15.8-7.6 31.5-14 46q-.5 1.2-1 2.4c-8.6 19-18.6 36.6-32 52.6q-1.4 1.7-2.8 3.4-1.1 1.3-2.2 2.6c15 2.7 15 2.7 29.3-.4 1.6-1.7 1.6-1.7 3-3.6 4.5-5.2 12-7.8 18.7-8.5 10.8-.4 10.8-.4 14.9 2.8 3.6 4.6 3.7 9.1 3.1 14.7-2.3 5.5-6.1 7.4-11.3 9.9-6.4 2.6-11.9 3.4-18.8 3.2-5.1-.2-9.8 0-14.9.9-12.4.8-24.1-.3-35.8-5.1-5.8-2.3-12.1 1-17.6 3.2-5.9 2.1-11.5 2.1-17.8 2.1q-1.4 0-2.8 0-1.3 0-2.6 0-1.2 0-2.4 0c-2-.2-2-.2-4-2.2q.7-.7 1.4-1.5c2.6-4.2 2.6-8.6 2.6-13.5 1.6-.1 1.6-.1 3.3-.1q2.2-.2 4.4-.3 1.1 0 2.2-.1c4.1-.2 7.3-.7 11.1-2.5l-1.6-1.4c-27.3-26.1-47.8-67-55.4-103.6q.9.1 1.8.1c5.2.2 8.6-.2 13.2-3.1q.5-.5 1-1z" fill="#90a5ab"/><path d="M819.9 872.7c3.1.3 3.1.3 4.8 2 1.6 2.8 1.7 4.6 1.7 7.9q0 1.7 0 3.4 0 1.9 0 3.9 0 2 0 4 0 5.6-.1 11.1 0 6 0 12 0 10.4 0 20.8 0 15 0 30 0 24.4-.1 48.8 0 23.7 0 47.3v3q0 7.3 0 14.6-.1 60.8-.2 121.5c-3.9 1.2-6.9 2-11 2l.4-282.2q.1-5.4.1-10.9.1-8.4.2-16.7 0-3 0-5.9 0-3.9.1-7.8 0-1.2 0-2.3c.1-6.1.1-6.1 4.1-6.5z" fill="#c4d3d9"/><path d="M228.4 864.6c2.6.4 2.6.4 4.2 2 1.8 3.2 1.9 5.6 2 9.2q0 1 .1 2.1.1 3.4.2 6.8.1 2.4.2 4.8.2 6.3.4 12.7.3 6.3.5 12.5.4 11.9.8 23.7.2 6.4.5 12.8c.6 18.5.9 37.1.8 55.6q0 5.8 0 11.5 0 9.6 0 19.3 0 9.7 0 19.4l-.5 92.8q-.1 1.5-.1 3c-.4 18.4-1.3 36.8-2.5 55.2l-9-2 .2-63q0-1.3.1-2.6 0-5.4.1-10.7c.8-59.8 1.2-119.6-.3-179.4-.1-1.3-.1-1.3-.1-2.6l-1.7-48.1c-.3-6.9-.5-13.8-.5-20.8q0-1.7 0-3.4 0-1.6 0-3.3 0-1.4 0-2.8c.3-3.4 1.4-4.2 4.6-4.7z" fill="#c3d2d8"/><path d="M693.9 845.4q1.1 0 2.4.1c6.5.2 11.3 1.7 16.7 5.5q1.4.9 2.8 1.8c6.9 7 9.6 15.7 9.6 25.3-.2 7.7-2.4 13.8-6.5 20.2-8.8 8.3-17.1 10.3-28.8 10-8.1-.4-14.3-4.6-19.6-10.3-6.7-8.9-7.4-19.3-6.5-30 2.3-7.9 7.8-14.7 14.7-19.1 5.1-2.8 9.4-3.6 15.2-3.5z" fill="#fbb168"/><path d="M464 461c2.4 1.5 2.4 1.5 4.6 3.6 10 8.4 21.1 13.5 33.4 17.4q1 .3 2.1.6c23.9 7.2 52.1 5.3 74.3-6.4 4-2.3 7.8-4.7 11.6-7.2 3.6.2 3.6.2 7 1 2.3 3.5 2.5 4.9 2 9-9.5 13-28.6 18.7-43.7 21.8-30.5 4.6-63.3-1.2-88.9-18.6-4.4-3.3-8.4-6.6-11.4-11.2-.5-3.6-.7-5.8 1.1-8.9 2.8-1.6 4.8-1.4 7.9-1.1z" fill="#062749"/><path d="M740.9 970.7q1.6 0 3.1-.1c4.5.6 7.1 2.5 10.3 5.6 2 3.3 2.4 6 2.7 9.8q1.1.4 2.3.8c4.6 2.1 6.7 5.7 8.7 10.2 1 5.4.7 9.5-1.6 14.5-3.8 4-7.2 5.6-12.7 5.8-4-.1-7.7-.9-11.6-2.1-2.8-.3-4.5.7-7.1 1.8-5.5.8-10.4.9-15.1-2.3-4.8-4.4-5.6-7.6-6.1-13.8.4-5.8 3.8-9.3 7.4-13.4 1.8-1.5 1.8-1.5 3.8-1.5q.1-1.5.2-3.1c1-4.9 2.3-6.4 5.8-9.9 3.3-2.1 6.1-2.3 9.9-2.3z" fill="#1ea1ac"/><path d="M361.9 773.3c2.1.7 2.1.7 4.1 2.7-12.6 12.8-12.6 12.8-16.9 16.4-2.7 2.3-5.4 4.8-7.9 7.4q-1 1-2.1 2-4.6 4.6-9.1 9.2c1.4 3.8 3.1 6.9 5.3 10.3q1 1.5 2.1 3.1 1 1.6 2.2 3.3 1.1 1.7 2.3 3.5 2.4 3.6 4.8 7.2 3.2 5 6.4 9.9l18.8 28.5q.7 1.1 1.5 2.3 3.7 5.5 7.5 11 1.3 2.1 2.7 4.1.6.9 1.3 1.9c2.1 3.2 3.7 6.3 5.1 9.9q1 .5 2 1l-4 10c-3.9-2-4.7-2.6-7-6q-.8-1.3-1.6-2.6-.9-1.3-1.8-2.7-.9-1.4-1.8-2.8-3-4.6-5.9-9.1-2-3-3.9-5.9-3.8-5.8-7.5-11.6-4.5-6.8-9-13.5-5.8-8.8-11.4-17.7-7.3-11.5-14.8-23c-5.1-7.8-5.1-7.8-4.3-14.1 1.9-3.1 4.4-5.5 7-8q1.4-1.5 2.9-2.9c4.9-5 9.8-9.9 15.2-14.4 2-1.7 2-1.7 3.8-3.9 4.5-5.3 7.1-6.7 14-5.5z" fill="#c3d2d8"/><path d="M398 936c3.1 3 5.5 6 7.9 9.6 4.4 6.5 9 12.8 13.6 19.1 2.9 4.1 5.8 8.1 8.5 12.3q-1.2 0-2.5.1c-10.9.5-20.7 3.1-29.5 9.9-1.1 1.3-1.1 1.3-2.1 2.6-4.1 3.4-7.2 3-12.2 2.8h-2.5c-5.3-.1-10.1-.9-15.2-2.4 1.4-3.2 3.1-5.3 5.5-7.8 12.1-13.4 20.5-30.1 28.5-46.2z" fill="#f9f4e8"/><path d="M324 626c1.3 3.8.5 5.7-.4 9.6-1.4 5.9-2 11.3-1.6 17.4q-.5 0-1 0-.2 1.1-.5 2.2c-1.9 7.7-4.3 15.2-6.9 22.7q-1.4 3.8-2.7 7.6-.3 1-.7 2.1l-7.9 23.7q-.8 2.4-1.6 4.9c-3.9 11.7-3.9 11.7-6.7 23.8q1.1.3 2.3.7c5.1 1.8 9.9 4 14.7 6.3q0 1 0 2c-3.3 2.8-6.5 5-10.9 5.1-13.4-4.6-13.4-4.6-16.1-8.1-2.2-11.8 2.3-23.5 5.8-34.6q.8-2.9 1.7-5.8 2.3-7.4 4.6-14.7 1.3-4.2 2.6-8.3 1.9-6.3 3.9-12.5.7-2.3 1.4-4.6c4.4-14.2 10-28.2 20-39.5z" fill="#c3d3d9"/><path d="M691 633c16.2 14.7 22.4 37.8 29.8 57.7q1.9 5.2 4 10.4c3.3 8.2 6.3 16.6 9.1 25q.6 1.7 1.3 3.5c4 11.9 4 11.9 2.8 17.4-2.4 2.3-5 3.6-8 5q-1.2.6-2.4 1.2-3.8 1.9-7.5 3.6-1.3.6-2.6 1.2c-6.4 3-6.4 3-7.5 3v-12l16-8c-.7-5.2-1.4-8.7-3.2-13.4q-.7-1.7-1.4-3.6-.7-1.9-1.5-3.8-.7-1.9-1.5-3.8a525.92 525.92 0 0 0-9.9-24.6c-1.7-3.9-3.2-7.7-4.5-11.8q-.5 0-1 0-1.2-5.2-2.4-10.3-.3-1.4-.6-2.9c-1.6-6.6-2.9-13.2-4-19.8q1 0 2 0-1-3-2-6l-2 1-3-9z" fill="#c4d3d9"/><path d="M543.4 371.8c8.1 3.8 12.8 23.7 16 31.7 2.2 6.2 3 11.9 3.1 18.4a15.48 15.48 0 0 0 .1 2.1c-.1 5.9-1.9 10.2-6 14.4-8.3 7.2-16.4 8.8-27 8.9q-1 0-2.1.1c-3 0-5-.1-7.5-1.8-1-1.6-1-1.6-.9-4.1 1.1-3.1 2.1-3.8 4.9-5.5 3.1-.4 3.1-.4 6.7-.5 7.1-.4 13.1-1 18.9-5.5 4-8.3.9-17.2-2-25.5-2.1-6-4.5-11.9-7-17.8q-.5-1.2-1-2.4c-.5-1.1-.5-1.1-.9-2.2-.8-2.5-.9-4.5-.7-7.1 1.6-2.6 2.4-3 5.4-3.2z" fill="#e87626"/><path d="M428.2 979c2.6 2.1 3.8 3.9 4.8 7 .5 4.5.4 8.1-1.4 12.3-6.9 7.2-16.9 9.8-26.7 10.1-5.6-.1-8.8-.4-12.9-4.4-2-4-1.7-8.6-1-13 6-11.3 25.8-17.2 37.2-12zm-139.2-.3l6.4 2.9q1 .5 2.1 1c4.6 2.5 7.5 5.1 10.5 9.4 1.1 4.1 1 8.2-1.1 11.9-2.3 2.9-4.3 4.9-8 5.4-9.7.3-20.6-2.1-28.2-8.4-3.3-3.5-4.6-5.5-5-10.3.4-5.2 2-7.4 5.7-10.9 5.9-2.8 11.4-3.1 17.6-1z" fill="#0c3351"/><path d="M464 331c4.8 3.5 9.9 7.3 12 13 .4 2.8.2 5.2 0 8-2 2-2 2-5.3 2.6-3.7-.6-3.7-.6-5.2-2.2q-1.5-2.2-2.9-4.4c-3.3-4.2-8.4-5.9-13.6-7-6.2-.6-10.7.9-16 4-2.8 2.4-2.8 2.4-5 5-4.3 4.9-4.3 4.9-7.6 5.5-2.4-.5-2.4-.5-4.2-1.6-2-3.2-1.7-5.2-1.2-8.9 4.4-8.1 11.5-14.2 20.1-17.3 9.7-2.4 20-1.3 28.9 3.3z" fill="#052446"/><path d="M635.6 329.7c6.2 3.3 11.2 7 14.4 13.3 1 3.7 1.5 5.9-.1 9.4-1.9 1.6-1.9 1.6-4.8 2.1-3.8-.6-4.7-1.6-7.1-4.5-5.5-5.9-10.7-8.6-18.6-9.4-5.5.1-10 2.3-14.4 5.4-1.5 1.8-1.5 1.8-2.7 3.8-2.3 3.2-2.3 3.2-5.9 4.3-3.4-.1-3.4-.1-5.3-1.1-1.8-3.3-1.6-5.3-1.1-9 3.3-7.6 8.7-11.5 16-15 1.2-.6 1.2-.6 2.3-1.1 8.5-2.8 19.2-1.6 27.3 1.8z" fill="#052447"/><path d="M699.9 862.7c4.7 2.3 7.3 5.4 9.1 10.3.8 5.8-.7 10.3-4 15-3.1 3-5.5 3.5-9.8 3.6-5.3-.2-8.2-1.1-11.9-5-3.4-4.3-3.9-8.2-3.3-13.6 1.7-4.9 4.5-8 9.1-10.3 3.8-1.4 7-1.4 10.8 0z" fill="#ec8232"/><path d="M365.8 990q1.7.1 3.5.2 1.9.2 3.8.3 2 .2 4 .4 2 .1 4 .3 5 .4 9.9.8.1 1 .1 2.1l.3 2.7.2 2.7c.5 3.3 2 5.2 4.4 7.5-5.4 1.5-10.4 2.4-16 2.4q-1.1 0-2.2 0c-10.1-.2-19.9-2.6-28.8-7.4 3.1-3.3 6.5-6 10.2-8.6 4.5-3.4 4.5-3.4 6.6-3.4z" fill="#68828c"/><path d="M308.6 341.6c6.8.8 11.8 6.2 16 11.4 7.7 10.6 15.5 23.5 13.4 37-1 1-1 1-4.1 1.1q-1.4-.1-2.9-.1-.6-1.6-1.2-3.2-.4-1.1-.8-2.2-1.1-2.8-2.1-5.7c-5.2-14.3-11.8-22.8-23.9-31.9 2.3-5.9 2.3-5.9 5.6-6.4z" fill="#f17a28"/><path d="M743 343c2 3 2 3 1.9 5-1.2 2.7-2.8 3.7-5.2 5.4-10.5 7.5-14.8 19.1-17.3 31.3-1.4 6.3-1.4 6.3-4.4 8.3-4.4-.4-4.4-.4-6-2-1.1-12.9 4.3-26.7 12.2-36.8C735 341.9 735 341.9 743 343z" fill="#f07a28"/><path d="M725.5 936.3c4.4.9 5.8 2.2 8.5 5.7 1.9 3.9 2.3 7.2 2.3 11.5q0 1.6.1 3.3c-.4 3.6-1.3 5.4-3.4 8.2-3 2-3 2-5.9 1.9-4-1.2-5-2.3-7.1-5.9-2.4-5.9-3.9-11.6-3-18 1.9-4 4.1-5.8 8.5-6.7z" fill="#1ea0aa"/><path d="M759 938c2.5 1.8 2.5 1.8 4 5 1 8.4.1 15.5-4.8 22.5-3.2 2.1-5.4 2-9.2 1.5-2.6-1.8-3-2.9-4-6q-.2-3.7-.3-7.3 0-1.9 0-3.9c.3-4.1 1.2-6.4 3.3-9.8 3.7-2.5 6.7-2.8 11-2z" fill="#1d9faa"/><path d="M709.9 960.6c3.7.8 5.6 2.7 8.1 5.4 2.9 5 3.5 8.4 2 14-1.2 1.9-1.2 1.9-3 3-3.8.6-5.7.2-9.1-1.6-3.6-3-6.4-5.7-7.2-10.4-.2-3.1.2-5.6 1.3-8.5 2.6-1.9 4.8-2.1 7.9-1.9z" fill="#1e9faa"/><path d="M777 961c2.1 1.6 2.9 2.5 3.4 5.1 0 5.4-.6 8.6-4.4 12.9-3.5 3-5.1 4-9.8 3.9-3.2-.9-3.2-.9-5.2-3.9-.5-5.6-.2-9.2 3-14 4.7-4.2 6.8-5.5 13-4z" fill="#1d9faa"/><path d="M707 798c4.7 3 7.9 5.4 11 10-.4 4.4-2.2 8.6-3.8 12.8q-.3 1-.7 2c-.7 2-.7 2-2.5 5.2-2.6 1-2.6 1-5 1-1.6-1.6-1.2-3.2-1.2-5.4.1-8.6 1.2-17.1 2.2-25.6z" fill="#c3d2d9"/></svg>