<svg xmlns="http://www.w3.org/2000/svg" width="1024" height="1323" xmlns:v="https://vecta.io/nano"><path d="M483.1 42.6h2.9c16.6.1 32.6 1.2 49 4.4q1.6.3 3.2.6c25.6 5 50.6 13.6 75.3 21.9 14 4.8 28 9.3 42.5 12.5l2.7.6c17.6 3.8 35.4 4.6 53.3 5.4 4.9 14.6-1.6 31-7.5 44.4-1.6 3.7-1.6 3.7-2.5 7.6 1.1 2.4 2.3 4.6 3.6 6.8 24.7 44.1 15.6 106.6 6.4 154.2q-.5 1-1 2 .9-.5 1.9-1c6.9-2.2 13.5-1.7 19.9 1.6 9.9 6.3 14.9 16.2 18.1 27.2 4.5 20.9-.9 44.6-12.2 62.6-7.4 11.2-17.3 21.1-30.7 24.6-3.1.2-6.2.2-9.4.1q-1.2 0-2.5 0-3 0-6.1-.1-.2 1.2-.5 2.5c-8 43.3-18.9 85.2-50.2 118q-1.1 1.2-2.3 2.5-.8.9-1.6 1.7c-1.9 3.1-1.8 5.4-1.7 9q0 1 0 2 0 2.1 0 4.1.1 3.1.1 6.2c0 7.4.3 14.8 1 22.2.3 4.2.3 8.5.2 12.8q.8.3 1.6.7c18.5 10.2 30.4 33.7 36.2 53 4.7 16.7 5.8 32.8 5.6 50.1v3.3c-.1 15.9-.7 31.2-3.4 46.9q-1.5 9.2-3 18.4-.2 1.2-.4 2.5c-1.9 11.6-3.4 23.1-4.4 34.8l-.2 2.1c-.6 7.4-1.1 14.7-1.2 22.1-.1 1.9-.1 1.9-.1 3.8q-.1 3.4-.1 6.9c-.1 8.4-.1 8.4-2.8 11.9-2.7 2.4-5.2 4.1-8.5 5.8-13.3 7.5-20.1 18.3-25.2 32.2-3.7 13.7-.7 28.8 5.5 41.3 5.7 9.6 13.2 17.4 23.4 22.2q1.3.6 2.7 1.2c13.3 5.4 28.2 3.9 41.3-1.4 14.6-6.7 23.4-17.6 29-32.4 4-16 1-32.3-7.3-46.3-6.2-9-14-14.2-23.5-19.2-5.6-3.3-5.6-3.3-8.2-5.9-.5-2.8-.6-5-.6-7.8q0-1.1 0-2.3.1-3.7.2-7.4 0-2.6 0-5.1c.3-19.8 3-38.8 6.1-58.2l4.1-27.4q.2-1.3.4-2.6c1.1-9.5 2-19 2-28.6q0-1.5 0-2.9 0-3.1 0-6.1.1-4.5.1-9c.1-16.2-1-32.3-6-47.8q-.4-1.2-.7-2.4c-2.8-8.5-6.6-16.5-10.6-24.4q-.5-1-1-2c9.2 2.7 16.5 8.8 23.9 14.8 10.6 8.4 23.2 14.2 35.2 20.4 14.6 7.5 28.8 15.4 42.9 23.8q2.8 1.6 5.5 3.3c9 5.3 17.9 10.7 26.5 16.7q1 .7 2 1.4c10.1 7.1 19.7 14.5 29 22.6 1 .8 1 .8 2 1.7 17.5 14.7 32.2 32.2 43 52.3.5 1 .5 1 1.1 2.1 41.6 79.1 41.7 186.3 53.2 330.3q.9 13.1 1.8 26.1.3 3.8.6 7.7.4 5.5.8 11c3 39.5 3 39.5-4.1 48.9-51.4 56.2-191.7 60.1-262.3 67.5q-5.7.6-11.4 1.2c-22.8 2.5-45.8 3.9-68.7 5.2l-3 .2c-94.1 5.1-189.4 2.7-334-15.2q-1.4-.2-2.9-.4c-48.2-7.3-95.8-17.2-142.1-32.6q-1.5-.5-3.1-1c-18.6-6.2-39.6-13.4-50.1-31.2-4.5-9.9-1.6-23.4-.7-33.8q.1-2.2.3-4.4.5-6 1-11.9.3-3.7.6-7.5 1.4-17.2 2.8-34.5.3-4 .6-8L88.6 969q.6-4.5 1.1-9c19.5-164.1 19.5-164.1 66.3-216q1.4-1.6 2.9-3.2c5-5.7 10.2-11 16.1-15.8q1.2-1.1 2.5-2.2c29.2-24.9 63.3-44.3 97.2-61.9l3-1.6q6.3-3.3 12.7-6.6c6.5-3.2 12.3-6.7 17.8-11.4 2.3-1.9 4.6-3.5 7-5.2q1.1-.8 2.3-1.5 2.3-1.6 4.5-3c5.2-3.5 8-7.2 11-12.6 5.2-8.1 10.7-15.7 17-23 .8-.9.8-.9 1.6-1.9 9.3-10 21.8-17.8 34.4-23.1q1 0 2 0l.1-13.4v-3.8c0-6.9-.6-11.1-5.3-16.3q-2.4-2.2-4.8-4.5c-2-2.3-3.8-4.8-5.6-7.3q-.7-.9-1.4-1.9c-4.5-6.3-8.4-12.9-12-19.8-.5-1.1-.5-1.1-1.1-2.1-12.7-24.8-24.7-57.7-23.9-85.9q-1.3.5-2.6 1c-7.9 2.4-16 2.1-23.5-1.3-16.1-9.1-27.7-24.9-32.7-42.5-5.1-19.2-5.2-37.7 4.1-55.5 4.8-7.8 11.2-11.9 19.7-14.7q3.6-.1 7.2-.1 1.9.1 3.8.1h3q-.2-1.5-.4-3c-5.4-37.4-5.4-37.4-6.6-53q-.2-1.9-.3-3.9c-2.6-35.4-3.1-79.6 21.1-108.5 4.4-5 8.4-9.4 14.3-12.5 3-1.9 3.8-2.7 4.9-6.1q.7-3.7 1.3-7.3C349.5 97.1 356.9 89 365 81q1.2-1.2 2.4-2.4C388.7 58.1 419.7 49.5 448 45q1.5-.3 3-.5c10.7-1.8 21.3-1.9 32.1-1.9z" fill="#fef7ec"/><path d="M483.1 42.6h2.9c16.6.1 32.6 1.2 49 4.4q1.6.3 3.2.6c25.6 5 50.6 13.6 75.3 21.9 14 4.8 28 9.3 42.5 12.5l2.7.6c17.6 3.8 35.4 4.6 53.3 5.4 4.9 14.6-1.6 31-7.5 44.4-1.6 3.7-1.6 3.7-2.5 7.6 1.1 2.4 2.3 4.6 3.6 6.8 24.7 44.1 15.6 106.6 6.4 154.2q-.5 1-1 2 .9-.5 1.9-1c6.9-2.2 13.5-1.7 19.9 1.6 9.9 6.3 14.9 16.2 18.1 27.2 4.5 20.9-.9 44.6-12.2 62.6-7.4 11.2-17.3 21.1-30.7 24.6-3.1.2-6.2.2-9.4.1q-1.2 0-2.5 0-3 0-6.1-.1-.2 1.2-.5 2.5c-8 43.3-18.9 85.2-50.2 118q-1.1 1.2-2.3 2.5-.8.9-1.6 1.7c-1.9 3.1-1.8 5.4-1.7 9q0 1 0 2 0 2.1 0 4.1.1 3.1.1 6.2c0 7.4.3 14.8 1 22.2.3 4.2.3 8.5.2 12.8q1 .5 2 1v1.8c-.1 4.5 0 8.9.5 13.5 2 23.5 1 47.4-2.5 70.7l-.6 3.9c-12.2 85.7-36.3 170.7-61.6 253.4q-1.2 4-2.4 7.9c-6.8 22.5-13.9 44.8-21.5 67.1q-.9 2.8-1.9 5.7l-27 76.5-1 2.7q-1.4 3.8-2.9 7.6-.4 1.1-.8 2.3-2.5 6.5-5.3 12.9c-2.3-3.5-3.6-7.1-5-11q-.5-1.2-.9-2.4-1.5-4-2.9-8-1-2.9-2.1-5.7-2-5.7-4.1-11.5-2.2-6.1-4.5-12.2C459.3 990.3 434.7 903.5 412 816q-.4-1.7-.9-3.4c-14.1-54.3-28.3-110.7-28.3-167q0-1.4 0-2.7c0-14.7 0-29.5 3.2-43.9-24.8 17.6-37.3 43.4-42.5 72.8-3.4 21.3-2.9 42.8-2.5 64.2q0 1.1 0 2.2.2 6.8.4 13.5 0 1.7.1 3.4 0 1.5.1 3 0 1.3.1 2.6c.3 2.6.8 4.2 2.3 6.3 1.9 1.2 1.9 1.2 4.1 2.1q1.3.5 2.6 1 1.3.6 2.7 1.1c22.1 9.6 38.3 24.1 47.6 46.8 5.7 14.9 7.4 29.6 7.4 45.4q0 1.1 0 2.3c-.1 9.4-.4 18.5-2.1 27.8q-.2 1.2-.4 2.5c-1.5 6.9-4.6 12.8-8 19-1 2.3-1.7 4.6-2.3 7.1q-.4 1.6-.8 3.1-.4 1.7-.9 3.4c-9.7 36.6-22.8 72.9-48.8 101.2-2.5 2.6-4.8 5.4-7.1 8.2 14.4 2.5 14.4 2.5 28.2-.1q1.6-1.5 3-3.2c6.8-6.5 16.8-8.4 26-8.2 3.2.6 5.2 1.6 7.8 3.5 3 4.5 3.9 8.7 3 14-2.7 6-7.2 8.5-13 11-7.2 2.5-15.2 3-22.6 1.5-4-.6-7.7-.5-11.7-.4-11.7.3-22.4-.1-33.2-5.3-5.2-1.6-9.9.3-14.8 2.1-11.6 4-23 3.5-35.1 3.1-2.4 0-4.3.3-6.6 1-9.6.9-19.3-1-27.3-6.6-3.4-2.8-5.5-5.9-5.9-10.4.3-5.4 2.4-8.2 6.2-12 5.3-2.7 12.8-1.6 18.3 0 5.7 2.3 11.9 4.9 16.1 9.6 2 1.7 3 1.8 5.6 1.8h2.3c1.2-.1 1.2-.1 2.4-.1q1.2 0 2.4 0c5 0 9.2-.7 13.9-2.3q-1.2-1.4-2.4-2.8-.9-1-1.7-2-1.9-2.2-3.9-4.4c-25.4-29.7-37.4-67.2-47.1-104.3q-.4-1.7-.9-3.5-.5-1.9-1-3.8c-.8-3.3-.8-3.3-2.9-5.5-11.2-14.6-8.1-43.7-6-60.8 2.8-19.7 9.9-36.8 22.9-51.9q.8-1 1.6-2.1c10-12.3 24.3-19.9 38.8-25.5l3.6-1.4q1-.4 1.9-.7c3.5-1.4 5-2.1 7.1-5.3.3-3.2.3-3.2.3-6.8q0-1.1 0-2.1 0-2.3 0-4.6.1-3.6.1-7.2.1-7.7.1-15.4.1-8.8.1-17.6.1-3.6.1-7.1c.1-13.9 1.3-27.7 4.1-41.4q.3-1.2.5-2.5c2.5-11.6 6.4-22.7 11.7-33.3q.7-1.3 1.3-2.7c12.1-23.4 31.2-40.2 54.7-51.3q1 0 2 0l.1-13.4v-3.8c0-6.9-.6-11.1-5.3-16.3q-2.4-2.2-4.8-4.5c-2-2.3-3.8-4.8-5.6-7.3q-.7-.9-1.4-1.9c-4.5-6.3-8.4-12.9-12-19.8q-.5-1-1.1-2.1c-12.7-24.8-24.7-57.7-23.9-85.9l-2.6 1c-7.9 2.4-16 2.1-23.5-1.3-16.1-9.1-27.7-24.9-32.7-42.5-5.1-19.2-5.2-37.7 4.1-55.5 4.8-7.8 11.2-11.9 19.7-14.7q3.6-.1 7.2-.1 1.9.1 3.8.1h3q-.2-1.5-.4-3c-5.4-37.4-5.4-37.4-6.6-53q-.2-1.9-.3-3.9c-2.6-35.4-3.1-79.6 21.1-108.5 4.4-5 8.4-9.4 14.3-12.5 3-1.9 3.8-2.7 4.9-6.1q.7-3.7 1.3-7.3C349.5 97.1 356.9 89 365 81q1.2-1.2 2.4-2.4C388.7 58.1 419.7 49.5 448 45q1.5-.3 3-.5c10.7-1.8 21.3-1.9 32.1-1.9z" fill="#b85b00"/><path d="M436.6 149c32.4 13.6 64.7 25.4 99.4 32q1.2.2 2.4.5c38.6 7.7 84.2 4 120.9-9.8 3-.8 4.8-.6 7.7.3 20.5 22.1 16.4 69.1 16.3 96.3q-.1 3.2-.1 6.3c0 31.1-1 61.7-6.2 92.4q-.3 1.7-.6 3.4c-4.1 24.3-11.4 56.5-32.6 72.3-4.6 2.2-4.6 2.2-7.8 1.3-3-2.7-5.2-6-7.6-9.2-10.1-13.4-22.8-21.3-39.4-24.4-15.8-2.1-32.5-1-48 2.6q-1.8.4-3.6.8-3.3.8-6.6 1.6c-13.2 3-25.9 1.8-39-1.3-26.5-5.8-57.2-10.5-81.5 4.7-7.7 5.5-13.6 12.2-18.8 20-1.4 2-2.6 3.7-4.5 5.2-4.5.3-7.1-1.6-10.4-4.4-4.9-4.6-8.3-9.7-11.6-15.6q-.9-1.6-1.8-3.1c-12.1-22.8-16.6-49.4-19.4-74.8q-.1-1.1-.2-2.3c-2.1-18.9-2.1-37.7-2-56.7q0-5.3 0-10.6c0-96.5 0-96.5 27.4-124.5 20.9-17.6 44.4-12.8 67.6-3z" fill="#fcb56c"/><path d="M637 635q.5 0 1 0c.5 17.2-.6 33.9-3 51q-.3 1.9-.6 4c-12.2 85.7-36.4 170.7-61.6 253.3q-1.2 4-2.4 7.9c-6.8 22.5-13.9 44.8-21.5 67.1q-.9 2.8-1.9 5.7l-27 76.5q-.5 1.3-1 2.7-1.4 3.8-2.9 7.6-.4 1.1-.8 2.3-2.5 6.5-5.3 12.9c-2.3-3.5-3.6-7.1-5-11-.5-1.2-.5-1.2-.9-2.4q-1.5-4-2.9-8-1-2.9-2.1-5.7-2-5.7-4.1-11.5-2.2-6.1-4.5-12.2C459.3 990.3 434.7 903.5 412 816q-.4-1.7-.9-3.4c-28.5-109.9-28.5-109.9-28.2-161.9q0-1.8.1-3.7 0-4.5 0-9c2.3 3 4.2 6 6.2 9.3 5.6 9.5 12.3 17.6 19.8 25.7.7.8.7.8 1.4 1.5 23 25.1 57.1 43 91.3 44.6 36 1.2 70.2-6.4 97.4-31 15.9-14.9 30-32.5 37.9-53.1z" fill="#09a2a8"/><path d="M388 571q.2 7 0 13.9 0 2.7 0 5.5c-.3 5-1 7.6-4.7 11.1-2.2 1.8-4.5 3.3-6.8 5-19.8 13.9-29 42.6-33 65.3-3.4 21.3-2.9 42.8-2.5 64.2q0 1.1 0 2.2.2 6.8.4 13.6 0 1.6.1 3.3 0 1.5.1 3 0 1.3.1 2.6c.3 2.6.8 4.2 2.3 6.3 1.9 1.2 1.9 1.2 4.1 2.1q1.3.5 2.6 1 1.3.6 2.7 1.2c22.1 9.5 38.3 24 47.6 46.7 5.7 14.9 7.4 29.6 7.4 45.4q0 1.1 0 2.3c-.1 9.4-.4 18.5-2.1 27.8q-.2 1.2-.4 2.5c-1.5 6.9-4.6 12.8-8 19-1 2.3-1.7 4.6-2.3 7.1q-.4 1.6-.8 3.1c-.4 1.7-.4 1.7-.9 3.4-9.7 36.6-22.8 72.9-48.8 101.2-2.5 2.6-4.8 5.4-7.1 8.2 14.4 2.5 14.4 2.5 28.2-.1q1.6-1.5 3-3.2c6.8-6.5 16.8-8.4 26-8.2 3.2.6 5.2 1.6 7.8 3.5 3 4.5 3.9 8.7 3 14-2.7 6-7.2 8.5-13 11-7.2 2.5-15.2 3-22.6 1.5-4-.6-7.7-.5-11.7-.4-11.7.3-22.4-.1-33.2-5.3-5.2-1.6-9.9.3-14.8 2.1-11.6 4-23 3.5-35.1 3.1-2.4 0-4.3.3-6.6 1-9.6.9-19.3-1-27.3-6.6-3.4-2.8-5.5-5.9-5.9-10.4.3-5.4 2.4-8.2 6.2-12 5.3-2.7 12.8-1.6 18.3 0 5.7 2.3 11.9 4.9 16.1 9.6 2 1.7 3 1.8 5.6 1.8h2.3c1.2-.1 1.2-.1 2.5-.1q1.1 0 2.3 0c5 0 9.2-.7 13.9-2.3q-1.2-1.4-2.4-2.8-.9-1-1.7-2-1.9-2.2-3.9-4.4c-25.4-29.7-37.4-67.2-47.1-104.3q-.4-1.7-.9-3.5-.5-1.9-1-3.8c-.8-3.3-.8-3.3-2.9-5.5-11.2-14.6-8.1-43.7-6-60.8 2.8-19.7 9.9-36.8 22.9-51.9q.8-1 1.6-2.1c10-12.3 24.3-19.9 38.8-25.5q1.8-.7 3.6-1.4 1-.4 1.9-.7c3.5-1.4 5-2.1 7.1-5.3.3-3.2.3-3.2.3-6.8q0-1.1 0-2.1 0-2.3 0-4.6.1-3.6.1-7.2.1-7.7.1-15.4.1-8.8.1-17.6.1-3.6.1-7.1c.1-13.9 1.3-27.7 4.1-41.4q.3-1.2.5-2.5c2.5-11.6 6.4-22.7 11.7-33.3q.7-1.3 1.3-2.7c8.9-17 34.2-51.3 56.7-51.3z" fill="#012441"/><path d="M355 802c14.1 11 22.9 25.6 25.7 43.4 2 17.2.3 34.5-3.3 51.4a36.01 36.01 0 0 0-.6 6.6q-.1 1-.1 2.1c.2 2.7.2 2.7 2 5.5 2.5 5.5.1 11-1.5 16.5l-1 3.6c-5 17.9-11.1 35.2-19.2 51.9q-.5 1.1-1 2.2c-7 14.4-18.5 36.1-33.8 43.1q-1.1.3-2.2.7c-32.2-26.5-50.6-73.6-56-114-.3-3.8.3-5.7 2-9 .7-5.6-.1-11.1-1-16.6-3.6-25.8-1-51.2 14.7-72.5 18.7-23.6 49.3-32.2 75.3-14.9z" fill="#fef7ed"/><path d="M632 546q.5 0 1 0 0 1.3.1 2.5.1 4.8.3 9.6 0 2.1.1 4.1c.2 8 .6 16 1.3 23.9.3 4.3.3 8.6.2 12.9q1 .5 2 1v1.8c-.1 4.7.1 9.3.5 14q.1 1.5.2 3.1.3 3.1.6 6.2c.7 10.2-3.2 17.3-8.3 25.9-.5.9-.5.9-1.1 1.9-5.4 9.1-11.7 17.3-18.9 25.1q-.8.9-1.7 1.8c-23.6 25.5-53.7 38.6-88.3 40.3-25.9.9-49.2-3.4-72-16.1q-.9-.5-1.9-1c-26.6-14.6-49.5-37.8-63.1-65-.5-9.4.4-18.8 1.4-28.2q.2-2 .4-4.1.4-4 .8-8 .5-4.8 1-9.6.2-2.4.5-4.8l.2-2.2c.3-3.5.7-5.1 2.7-8.1q3.3 3.2 6.5 6.4.9.9 1.9 1.8.9.9 1.8 1.8.8.8 1.6 1.6c1.2 1.4 1.2 1.4 1.2 3.4q.8.3 1.6.6c3.3 1.9 5.7 4.6 8.3 7.3 6.5 6.8 13.5 12.6 21.1 18.1q.9.6 1.8 1.3c16.4 11.9 35.1 20.3 55.2 23.7q1 .2 1.9.3c35 4.9 71.8-7.3 99.8-28 10.5-8 20-17 29.4-26.2q.8-.8 1.6-1.7c5.2-5.2 7.6-7.7 7.8-15.1q.1-2 .1-4 .1-2 .1-4 0-2.1.1-4.2.1-5 .2-10.1z" fill="#fbb265"/><path d="M633 546q.5 0 1 0v26q3 .5 6 1c9.2 4.3 16.8 9.8 24 17q1.3 1.2 2.6 2.5 1.2 1.2 2.4 2.5.9.9 1.8 1.9C685 612.2 685 612.2 685 618l2 1c5.5 8.8 9.3 19.1 12.4 28.9q.3 1.1.7 2.2c4.5 15.6 5.4 31.7 5.2 47.9q0 4.4 0 8.8c0 18.5-1.9 36.7-4.7 55q-.3 2.2-.6 4.4l-4.7 28.9c-2.2 12.3-2.6 24.9-2.8 37.4q-.1 2.5-.2 5c-.7 9.3-.7 9.3 2.3 17.6 2.1 1.3 4.1 2.1 6.4 2.9 15.2 9.2 26.1 19.1 31.1 36.8 3.6 15 .9 29.1-6.4 42.5-8 13-20.3 20.6-35 24.3-14.5 2.2-27.6.3-40-7.8-12.9-9.8-21.4-23.7-23.7-39.8-1.3-15.7 2.4-29.7 12.4-42 5.7-6 11.7-10.3 18.8-14.2 2.8-1.8 4.1-3 5.8-5.8.5-2.4.5-2.4.4-5.1q0-1.5.1-3.1 0-1.7 0-3.4c.7-26.5 3.7-52.4 8-78.5 3-18.6 4.9-36.6 4.9-55.5q0-4.8 0-9.7c.2-31.8-8-64.9-30.9-88.3-5.3-5.3-5.3-5.3-11.5-9.4-.7-3.2-.9-6.5-1.1-9.7q-.2-1.5-.3-3c-1-13.4-.8-26.9-.6-40.3z" fill="#022442"/><path d="M389 545l7 6c7.1 6.1 14.2 11.9 22 17q1.4.9 2.9 1.9c34.7 22.2 78.4 32.5 119.2 24.5q3-.6 5.9-1.4c1.1-.3 1.1-.3 2.2-.5 21.9-5.4 43.9-14.6 61.8-28.5q1.6-1.2 3.2-2.4c5.7-4.3 11.2-8.6 16.4-13.4 1.4-1.2 1.4-1.2 2.4-1.2 1.9 25.9 1.9 25.9-2 32a58.01 58.01 0 0 1-7.3 6.7c-2.5 1.9-4.6 4.2-6.8 6.5-26.7 28.1-64 47.6-103.1 49-29.1.6-57-9.4-79.8-27.2q-1.3-1-2.5-2c-9.1-7.1-17.5-14.8-25.5-23q-2.5-2.5-5-5-5-5-10-10-1 1-2 2l1-31z" fill="#f18a2b"/><path d="M263 911c1.5 2.8 2.4 5.2 3 8.3q.3 1.3.5 2.6l.6 2.7c7.7 34.7 21.3 79.4 50.9 102.4 1.9 1.1 1.9 1.1 4 1 3.7-2.5 6.8-5.8 10-9q1-1 2.1-2.1c25.5-27.2 36.2-66.5 44.9-101.9q1 .2 2.1.5c3.3.6 6.4.6 9.7.6 1.8-.1 1.8-.1 3.5-.1q1.3 0 2.7 0c-9.4 40.7-23 82.7-52 113.9-2.5 2.6-4.7 5.3-7 8.1 14.4 2.5 14.4 2.5 28.2-.1q1.6-1.5 3-3.2c6.8-6.5 16.8-8.4 26-8.2 3.2.6 5.2 1.6 7.8 3.5 3 4.5 3.9 8.7 3 14-2.7 6-7.2 8.5-13 11-7.2 2.5-15.2 3-22.6 1.5-4-.6-7.7-.5-11.7-.4-11.7.3-22.4-.1-33.2-5.3-5.2-1.6-9.9.3-14.8 2.1-11.6 4-23 3.5-35.1 3.1-2.4 0-4.3.3-6.6 1-9.6.9-19.3-1-27.3-6.6-3.4-2.8-5.5-5.9-5.9-10.4.3-5.4 2.4-8.2 6.2-12 5.3-2.7 12.8-1.6 18.3 0 5.7 2.3 11.9 4.9 16.1 9.6 2 1.7 3 1.8 5.6 1.8h2.3c1.2-.1 1.2-.1 2.5-.1q1.1 0 2.3 0c5 0 9.2-.7 13.9-2.3q-1.2-1.4-2.4-2.8-.9-1-1.7-2-1.9-2.2-3.9-4.4c-22.5-26.3-34.9-59.4-44-92.3q-.3-1.1-.6-2.2-.9-3.1-1.7-6.3-.5-1.8-1-3.6c-.7-3.3-.8-6.1-.7-9.4q1.1.1 2.2.1c7.4.3 7.4.3 13.8-3.1z" fill="#819597"/><path d="M644 951q3 .5 6 1 0 1 0 2 1 .5 2 1c-1.3 3.4-2.7 6.2-4.8 9.2q-.8 1.2-1.7 2.4-.9 1.2-1.8 2.5-1.9 2.7-3.8 5.4-1 1.4-2 2.8l-8.4 12.2L609 1019q-3.6 5.1-7.2 10.3-.9 1.2-1.8 2.5-5.3 7.6-10.6 15.3c-4.3 6.4-8.9 12.7-13.4 19-4 5.4-7.8 11-11.6 16.5-4.5 6.7-9.2 13.2-14 19.6-4.4 5.7-8.5 11.7-12.6 17.7l-10.4 14.8q-1.4 2-2.7 4c-1.7 2.3-1.7 2.3-3.7 4.4-8.9 10.2-7.1 23.3-7 36.2q0 5.1 0 10.3-.1 9.7 0 19.5 0 11.1 0 22.2-.1 22.9 0 45.7h-9q0-.9 0-1.9.3-23.2.3-46.5 0-11.2.1-22.4.1-9.8.1-19.6 0-5.2.1-10.4c.2-17.1-1-28.4-12.9-41.3-2.9-3.2-5.2-6.7-7.6-10.3q-.9-1.1-1.7-2.3-8.3-11.9-16.6-23.8-3.5-5-7.1-10-1.7-2.5-3.5-5-4.3-6.2-8.7-12.4-10-14.3-19.8-28.7-6.8-10-13.7-19.9-9.9-14.2-19.6-28.4-3.2-4.8-6.6-9.6-.7-1-1.4-2-1.3-1.9-2.6-3.7c-2.8-4-3.3-6.9-2.8-11.8 1-2.9 1-2.9 2-5 8.4 7.6 14.3 17.9 20.7 27.2q6.6 9.8 13.4 19.5 8.9 12.7 17.6 25.4 3.4 5 6.8 9.9 4 5.9 8.1 11.8l32.6 46.5 13.9 19.7q2.4 3.5 4.9 7 .9 1.3 1.8 2.6.9 1.2 1.9 2.4.8 1.1 1.6 2.3c1.9 1.9 3.1 2.3 5.7 2.7l19.5-27.5 14.6-20.7c3.9-5.4 7.7-10.8 11.4-16.3 4.7-7 9.6-13.8 14.6-20.7 5.8-8 11.5-16.1 17.1-24.3q3.5-4.9 7-9.9 11.4-16.3 22.7-32.6 5.3-7.7 10.7-15.3.9-1.4 1.9-2.8 6.2-9 12.5-17.9z" fill="#d6d9d5"/><path d="M732.8 303.6c9.9 6.3 14.9 16.2 18.1 27.1 4.5 21-.9 44.7-12.1 62.7-7.5 11.3-17.4 21-30.8 24.6-3.8.3-3.8.3-7.7.3q-1.9 0-3.9.1c-3.4-.4-3.4-.4-5.1-1.5-1.9-2.8-1.4-4.9-1.1-8.3q0-.9.1-1.9.3-3.2.6-6.4.2-2.3.4-4.5.4-4.8.9-9.6.5-5.9 1.1-11.9 1.1-13.6 2.5-27.2.3-3 .6-6 .5-5.1 1.1-10.3.1-1.5.3-3c1-9.2 4.1-17.5 11.2-23.8 7.6-4.5 16-4.3 23.8-.4z" fill="#fcb76d"/><path d="M314.4 304.6c6.1 3.6 9.2 8.8 11.6 15.4 1.2 4.8 1.4 9.8 1.6 14.8q.2 2.9.4 5.9.1 1.6.2 3.2c1 17.8 2.2 35.6 3.9 53.4.6 6.3 1.1 12.4.9 18.7-7 3.2-14.8 3.3-22.2 1-16-7.3-27.2-22-33.8-38-6.5-19.3-7.9-39.5.8-58.3 6.8-12.9 21.7-22.9 36.6-16.1z" fill="#fcb76e"/><path d="M432 435c5.8 1.1 11.6 2.4 17.3 3.8 18.4 4.6 36.9 7.3 55.8 7.4q1.5 0 3.1 0 3.2 0 6.5 0 4.8.1 9.7.1c16.9.1 33.4-1 49.5-6.4q1.3-.3 2.5-.7c3.2-1 6.4-2.1 9.5-3.4 2.1-.8 2.1-.8 5.1-.8-.4 11.3-7 20.4-15 28-22.8 19.3-50.8 22-79.7 19.8-20.7-2.4-42.3-12.6-55.7-28.8-8.8-11.6-8.8-11.6-8.6-19z" fill="#fef6eb"/><path d="M328 627l1 2-3.2 8.1c-8.6 21.3-10.9 43.8-11 66.7q0 3.6 0 7.3-.1 10.3-.1 20.6 0 6.3-.1 12.6 0 2.4 0 4.8 0 3.4-.1 6.7 0 1.9 0 3.9c-.6 3.9-1.8 5.5-4.5 8.3-1.9 1.1-1.9 1.1-3.8 1.8q-1 .3-2.1.7-1.1.4-2.2.7-1 .4-2.1.8-4.4 1.5-8.8 3 .5-2 1-4c-1.6-.3-1.6-.3-3.2-.7-17.8-4.4-17.8-4.4-20.8-9.3-.3-4.9.3-8.9 1.8-13.6.2-1 .2-1 .5-2q.7-2 1.3-4.1 1.7-5.6 3.4-11.3.4-1.2.7-2.4c2.4-7.8 4.6-15.7 6.8-23.5q1.6-5.4 3.1-10.7c2.4-8.1 4.6-16.1 6.5-24.2 3.3-14 6.4-23.3 18.9-31.2q2.4-1.4 4.8-2.8c3-1.6 5.6-3.6 8.4-5.6q1.9-1.3 3.8-2.6z" fill="#fdf7ed"/><path d="M694.8 875.7c9.7 5.6 16 12.6 19.5 23.4 2.5 10.7.1 19.7-5 29.1-6.5 8-14.1 13.2-24.3 14.8-11.4.9-19.4-.7-28.3-8.1-7.1-6.8-10.7-14.6-11-24.3-.2-11.8 2.7-21 11-29.7 10.5-8.8 25.7-11 38.1-5.2z" fill="#f09031"/><path d="M720.7 642.8c3.9.2 6.2 1.4 9.7 3.2q1.6.8 3.2 1.7 1.2.6 2.4 1.3-1 1-2 2l-7-3q.3 1 .6 2 5 16.7 10 33.5.4 1 .7 2 1.2 4.2 2.5 8.3 3.6 12.3 7.3 24.5 1.9 6 3.7 12.1.8 2.8 1.7 5.5 1.1 3.9 2.3 7.7.3 1.1.7 2.2c1.4 5 2.4 10 1.5 15.2-4.1 4-9.8 5.6-15.1 7.6q-2.8 1-5.6 2-1.5.6-3 1.2-8.3 3.1-16.6 6.3-1.9.8-3.8 1.5-2.7 1-5.3 2.1-1.6.6-3.1 1.2c-2.6 1-2.6 1-4.5 3.1q.6.5 1.3 1.1.9.7 1.8 1.5 1 .8 2.1 1.7 2.3 1.8 4.5 3.7 6.1 5 12.1 10 1.2.9 2.4 1.9 2.2 1.8 4.4 3.7c1.1.8 1.1.8 2.1 1.6q.9.8 1.8 1.5c3.4 2.9 3.4 2.9 4.1 6.2-.3 6-4.3 10.5-7.6 15.1q-.7 1-1.5 2.1-4.9 7-10 13.9-1.9 2.5-3.8 5.1-.8 1.2-1.8 2.5-.7.9-1.4 2c-1.9 1.8-2.8 2.3-5.5 2.4-2.9-1.4-2.9-1.4-6.1-3.3q-1.6-1-3.2-1.9C694 855 694 855 692 853a96.53 96.53 0 0 1-.3-7.6q0-1.1 0-2.3 0-3.7 0-7.5.1-1.2.1-2.5c0-12.5.3-24.8 2.2-37.1l.4-2.4c2.3-15 2.3-15 4.6-18.6 2.2-1.2 2.2-1.2 5-2.3q1.6-.6 3.2-1.3c.9-.3.9-.3 1.8-.7q3.2-1.2 6.3-2.4 5.9-2.4 11.9-4.7 3.7-1.4 7.4-2.9 2.4-.9 4.8-1.8c1.1-.4 1.1-.4 2.2-.9 5.2-2 5.2-2 7.4-2q-.5-1.7-1-3.4-6.5-21.8-13-43.6-.3-.9-.6-1.9-3.5-11.9-7-23.8-1.4-4.8-2.9-9.7-1.6-5.4-3.2-10.9-.5-1.6-1-3.3c-1.5-5.1-2.9-10.1-3.3-15.4 1-1 1-1 3.7-1.2z" fill="#d5d9d5"/><path d="M200.1 889.3c1.9.7 1.9.7 3.9 2.7l.2 5.8q.1 1.8.1 3.7-.1 2.1-.1 4.2 0 2.2 0 4.4 0 6.1 0 12.1 0 6.6 0 13.1 0 11.3 0 22.7 0 16.3 0 32.7 0 26.6 0 53.1-.1 25.8-.1 51.6 0 1.6 0 3.2 0 8 0 16 0 66.2-.1 132.4l-6 1q-1.5-1-3-2c-.4-2.5-.4-2.5-.4-5.8q0-1.8 0-3.7 0-2.1 0-4.2 0-2.2 0-4.4 0-6.1 0-12.1 0-6.5 0-13.1 0-12.8 0-25.6 0-10.3 0-20.7 0-1.5 0-3 0-3 0-6 0-28.2 0-56.3 0-24.2 0-48.4 0-28 0-56.1 0-3 0-6 0-1.4 0-2.9 0-10.4 0-20.8 0-12.7 0-25.3 0-6.5 0-12.9 0-5.9 0-11.8 0-2.2 0-4.3 0-2.9 0-5.8 0-1.6 0-3.3.2-1.2.4-2.5c3-2 3-2 5.1-1.7z" fill="#d6d9d5"/><path d="M825.1 889.2c1.9.8 1.9.8 3.9 2.8.3 2.5.3 2.5.3 5.8q0 1.8 0 3.7 0 2.1 0 4.2 0 2.2 0 4.4 0 6.1 0 12.1 0 6.6 0 13.1.1 11.3.1 22.7 0 16.3.1 32.7 0 26.6.1 53.1 0 25.8.1 51.6 0 1.6 0 3.2 0 8 0 16 .2 66.2.3 132.4h-10q-.1-67.8-.2-135.5 0-8 0-16 0-1.6 0-3.2 0-25.8 0-51.6-.1-26.5-.1-52.9 0-16.3 0-32.7 0-11.2 0-22.3 0-6.5-.1-13 0-5.9 0-11.8 0-2.1 0-4.3 0-2.9 0-5.8v-3.3c.4-2.6.4-2.6 1.8-4.5 1.6-1.1 1.6-1.1 3.7-.9z" fill="#d5d9d5"/><path d="M744 1014c4.1 3.7 6.8 8.3 9.6 12.9 2 3.1 4.5 5.7 6.9 8.3 3.2 3.9 2.8 8.3 2.8 13.1-.5 4.7-2.9 7.2-6 10.5-6.7 3.5-12.7 2-19.6-.2-4.7-1.1-9-.3-13.6.9-5.1 1.2-11.4 1.8-16.1-.5-3.5-2.7-5.7-5.8-6.3-10.1 0-9 3.8-13.6 9.3-20.3 1.9-2.4 3.3-4.8 4.7-7.5 2.5-4.7 5.2-7.2 10.2-9.3 6.5-1.6 12.3-1.1 18.1 2.2z" fill="#0aa0a5"/><path d="M445.6 249.3q1.4.1 2.9.3c5.2.7 8.7 1.4 12.5 5.4 1.6 3.2 1.6 6.5 1 10-1.9 3.4-1.9 3.4-5 6-6 1.6-11.7.8-17.8-.4-20-3.7-39.3-.9-56.5 10.5-2.4 1.3-4.1 1.4-6.7.9-2.5-2.5-2.3-3.3-2.3-6.8.1-6.7 2.7-11.3 7.3-16.2 16.9-14.3 44.2-12.2 64.6-9.8z" fill="#032953"/><path d="M642 259.3c4.3 3.7 7.6 9 8.2 14.6.1 5.5.1 5.5-1.3 8.2-2.9 1.4-4.8.6-7.9-.1-2.6-1.5-2.6-1.5-5.1-3.3-14.6-9.7-34-12-51-8.6q-2.8.6-5.6 1.2c-4.9 1-8.1 1.4-12.5-1.1-2.8-2.2-2.8-2.2-4.8-5.2-.4-4.5-.6-6.9 1.5-10.9 3.3-2.8 6.3-3.4 10.5-4.1q1.4-.3 2.9-.6c21.7-3.7 46.4-3.1 65.1 9.9z" fill="#022852"/><path d="M285.3 819.6c2.7.4 2.7.4 4.9 2.6q1 1.5 2.1 3 1.1 1.5 2.1 3l8.5 12.6q5.1 7.7 10.3 15.3l2.2 3.3q9 13.1 18 26.3 2.5 3.6 4.9 7.1 7 10.2 14 20.4 1.3 2 2.7 3.9 3.5 5.2 7.1 10.3.7 1.1 1.5 2.2 1.4 2 2.9 4.1c2.3 3.3 4.4 6.4 5.5 10.3-.9 3.8-.9 3.8-2 7q-1 0-2 0-.5 1-1 2c-5.2-7-10.1-14.1-14.9-21.4l-28.4-41.7q-17.5-25.7-34.8-51.5-.7-1.1-1.4-2.1c-6.5-9.8-6.5-9.8-6.3-13.1 1.1-3.1 1.1-3.1 4.1-3.6z" fill="#d6d9d5"/><path d="M510 307.3c2 .7 2 .7 4 2.7.6 7.6-1 14-3 21.3l-1 3.5q-1.4 5.5-2.9 10.9-1.5 5.6-3 11.1-.9 3.4-1.9 6.8-.4 1.5-.8 3.1-.4 1.4-.7 2.7c-1.8 7-3.5 14.8-.2 21.5 3.9 4.8 7.9 5.8 13.9 6.5 3.8-.4 6.9-1.4 10.5-2.7 2.5-.8 4.5-1.1 7.1-.7l2 2c-.1 3.4-.1 3.4-1 7-6.3 5.8-15.9 6.5-24.1 6.3-6.6-.7-13.3-2.2-17.9-7.3-5.4-10.2-3.2-22.4-1.1-33.3q.3-1.7.6-3.5c2.2-11.3 4.9-22.5 7.6-33.6q.3-1.4.7-2.7.9-3.8 1.9-7.6.3-1.2.6-2.4c1-4 2.2-7.5 4.7-10.9 2-1 2-1 4-.7z" fill="#d65b11"/><path d="M604 303c4.7 2.2 7.1 6.3 9 11 1.4 4.7 1.2 9.4 1.3 14.3q0 1.3 0 2.7c.1 7.3-1.1 12.7-5.2 18.9-3.5 3.5-6.7 4.2-11.5 4.5-5.5-.2-8.6-2.3-12.3-6.2-5.4-9.4-4.7-23.4-2.6-33.7 3.8-10.2 11-12.8 21.3-11.5z" fill="#012344"/><path d="M431 303c6.1 3 9 7.2 11.3 13.6 2.1 10 1.8 22.4-3.5 31.4-2.7 3.5-5.6 5.7-9.9 6.3-5.5.1-8.6-.5-12.9-4.3-6.8-8.3-6.8-18.8-6.2-29 .6-5.8 2.8-10.8 6.8-15.1 4.5-3.6 8.7-3.5 14.4-2.9z" fill="#022243"/><path d="M695 794c5 3.6 9.7 7.4 14.3 11.4 5.7 4.8 11.6 9.3 17.7 13.6-.6 3.5-2 5.8-4.1 8.7q-.9 1.4-1.9 2.8-1 1.5-2 2.9-1 1.5-2.1 3-2.9 4.3-5.9 8.6-1.5 2.2-3 4.3-3 4.4-6 8.7 2 1 4 2c-5.1-.5-10.3-3.3-14-7q-.2-3.7-.2-7.5 0-1.1 0-2.3 0-3.8 0-7.5 0-1.3 0-2.6c0-32.8 0-32.8 3.2-39.1z" fill="#fdf7ed"/><path d="M299 648h6q1 1 2 2c-.4 6.2-1.9 11.8-3.7 17.7q-.4 1.4-.8 2.8-.9 3-1.8 6-2.4 8-4.8 16.1-.4 1.6-.9 3.3-4.9 16.4-9.5 32.8-.9 3-1.7 6.1-1.3 4.2-2.4 8.4l-.8 2.6q-.3 1.1-.6 2.3l-.6 2c-.5 2.2-.5 2.2-.4 5.9q.8.3 1.7.7 3.9 1.5 7.9 3.1 1.3.5 2.7 1.1 7.4 2.9 14.7 6.1c-2.5 3.8-4.4 4.2-8.6 5.7q-1.8.6-3.6 1.3-1.4.5-2.8 1 .5-2 1-4-1.6-.3-3.2-.7c-17.8-4.4-17.8-4.4-20.8-9.3-.3-4.9.3-8.9 1.8-13.6.2-1 .2-1 .5-2q.7-2 1.3-4.1 1.7-5.6 3.4-11.3.4-1.2.7-2.4c2.7-8.7 5.1-17.4 7.6-26.2q7.6-26.8 15.7-53.4z" fill="#d6d9d5"/><path d="M391.4 1026.8q1.6-.1 3.4-.1c3.5.3 5.3 1.2 8.2 3.3 3 4.5 3.9 8.7 3 14-2.7 6-7.2 8.5-13 11-7.7 2.7-17 3.7-24.6.3-3-1.6-4.2-3.1-5.4-6.3-.8-6.9-.8-6.9 2.1-11 2.9-3.3 6.1-5 10-6.8q1-.5 1.9-.9c5-2.4 8.8-3.5 14.4-3.5z" fill="#02233f"/><path d="M260.3 1028c5.3 2.1 10.2 4.5 14.7 8q1.1.9 2.3 1.8c2.4 3.2 2.9 6.2 2.7 10.2-1.6 3.7-3.6 5.9-7 8-9.1 2.8-18.8.8-27.3-3.1-5-2.8-7.6-5.5-9.7-10.9-.4-4.6.6-7.9 3.4-11.4 5.6-5.6 13.8-4.7 20.9-2.6z" fill="#03233f"/><path d="M686 894c3.9 2 6.3 5 8 9 .7 5 .6 8.9-1.8 13.4-2.8 3.3-4.7 5.4-9 6-8.3 0-8.3 0-12.3-2-3.2-4-4.7-7.7-5.3-12.9.6-5.3 2.5-8.7 6.5-12.4 4.6-1.7 9-1.9 13.9-1.1z" fill="#ab5200"/><path d="M716.9 976.1c5.1 1.5 7.3 4.5 9.9 9 2.3 6 2.1 12.5-.1 18.5-1.7 2.4-1.7 2.4-4.7 4.4-4.1.6-5.7.2-9.2-2-4.7-4.4-5.9-9.8-6.2-16.1.1-5 1.5-7.9 4.4-11.9 3-2 3-2 5.9-1.9z" fill="#0b9ea3"/><path d="M750.1 975.9c4.2 1.6 5.9 4.2 7.9 8.1.7 7.4.5 13.8-4 20-2.7 2.9-4.1 3.9-8.1 4.5-3.6-.6-4.7-1.6-6.9-4.5-3-5-2.7-10.4-2-16 2.2-5.8 6.5-11.9 13.1-12.1zM775 999c2.4 2 2.4 2 4 5 0 6.1-1.5 10-5 15-3.3 2.9-5.3 3.9-9.7 4.5-3.3-.5-3.3-.5-5.2-2-1.8-4.2-2-8.2-.4-12.4 3.6-6.7 8.6-11 16.3-10.1z" fill="#0aa1a6"/><path d="M693.3 999.4c4.9.8 7.5 2.8 10.7 6.6 2.7 4.7 3.7 8.6 3 14-1.6 2.5-1.6 2.5-4 4-4.8.1-8.1-1.1-11.7-4.4-3.1-3.8-4.1-8.1-4.7-12.8.7-4.8 1.8-6.5 6.7-7.4z" fill="#099ca1"/></svg>