<svg xmlns="http://www.w3.org/2000/svg" width="1024" height="1262" xmlns:v="https://vecta.io/nano"><path d="M472.3 48.8q2-.1 3.9-.1 4.1 0 8.2 0 4.1 0 8.2-.1c28.9-.3 28.9-.3 42.4 4.4q2 .6 4 1.3c4.8 1.5 9.6 3.1 14.2 5 7.4 2.9 14.3 4.4 22.1 5.6C603.7 69.5 628 83.6 649 103q.9.8 1.8 1.6c9.2 8.7 17 18 24.2 28.4q.7 1.1 1.5 2.2c13.6 20 23.3 41.8 30.5 64.8q.4 1.3.8 2.5c13.6 42.5 15.9 87.7 19.3 131.9l6 64.7q.1 1.5.3 3.1c2.2 19.8 5.9 39.3 11 58.5q.4 1.7.9 3.4c7.3 27.3 18.4 53 30.3 78.6 37.9 81.4 37.9 81.4 27.4 123.3q-1 1-2 2l-15-15c3 3.7 5.8 6.8 9.2 10.1 5.4 5.3 10.2 10.9 14.8 16.9q1.1 1.4 2.3 2.9c56.7 73.8 55.1 183.8 62.1 299.9l4.2 66.6 3.9 61.2c.3 6.4.7 12.7 1.3 19.1.7 8.1 1.1 15.2-4.1 22-26 28.7-82 36-117.6 42.7q-3.3.6-6.6 1.3c-11.9 2.3-23.9 4.1-35.9 5.7q-1.7.3-3.4.5c-34.3 4.8-68.6 7.6-103.2 9.5q-1.3.1-2.7.1-4.6.3-9.3.5-1.1.1-2.3.1c-16.1.8-32.1 1.1-48.2 1.1q-2 0-3.9 0-9.2 0-18.4 0-9.3 0-18.6.1c-35.9.1-71.7-.7-107.6-3.3q-1.6-.1-3.2-.2c-28.1-2.1-56-4.8-83.8-8.8q-1.2-.2-2.4-.3c-143.9-20.6-143.9-20.6-169.1-52.6-3.5-5.7-3.6-10.5-3.2-17q.1-1.2.1-2.5l2.8-36.6q.8-9.5 1.5-19l.2-2.1q1.4-18 2.7-36c1-15.2 2.3-30.3 3.7-45.4q1.7-18.6 3-37.2c14.2-196.2 14.2-196.2 59.3-267.6q.7-.8 1.3-1.6 1.8-2.2 3.6-4.4c1.8-2.6 1.8-2.6.9-5.6q-.7-1.5-1.4-3.1-.7-1.6-1.4-3.2-.7-1.6-1.5-3.3c-5.1-11.7-8.2-23.5-8.3-36.4q0-1.1 0-2.2c-.3-31.1-.3-31.1 3.2-44.9q.4-1.4.7-2.9c4.5-17.5 10.4-34.1 17.3-50.8 11.7-28.1 20.2-57 24.3-87.3q.2-1.6.5-3.2c2.9-24 3.5-48.1 4-72.2.8-35.1 1.8-70 8.2-104.6q.3-1.7.6-3.5c10-53.4 31.2-114.5 74.3-150.7q2.2-1.9 4.2-3.8c33.5-31.5 82.3-52 128.2-52.2z" fill="#00223f"/><path d="M604 553c12.9 1 21.2 6.4 29.8 16 10.5 13 12.7 28.6 12.5 44.8v2.1c-.3 28.6-6.7 72.2-24.7 96-2 1.4-3.6 1.8-5.9 2.2q-1.3.3-2.6.5-1.4.3-2.8.6c-13.7 3-25.8 8.3-36.3 17.8q-1.1 1-2.3 2c-18.9 17.6-28.9 48-29.9 73.6-.5 7.6-.5 7.6 2.2 14.4.3 2.9.3 2.9.3 6.6q0 2 0 4 0 1.1 0 2.2c.5 38 7.7 75.1 28.7 107.2-5 1.6-9.6 2.3-14.9 2.3q-1-.1-2.1-.1c-5.4-.1-10-.4-15-2.2-2.5-3-3.8-5.3-5-9-1.8-1.1-1.8-1.1-4-2q-1.2-.6-2.5-1.3-1.2-.6-2.6-1.3-1.2-.6-2.6-1.3c-5.6-2.7-11.1-2.7-17.3-2.1-3.1 1.8-4.4 2.9-6 6-.6 5.6-.8 10.4 1.8 15.4 6.1 6 16.8 9.6 25.2 9.8 2.6-.1 4.8-.3 7.4-.8 3.3-.4 4.8-.2 7.8.5 13 2.9 26.7 1.7 39.1-2.7 4.1-.3 6.9 1.7 10.3 3.6 10.3 5.4 19.4 7.5 31 7.9 3.4.3 3.4.3 5.9 1.3 8.1 3.2 19.5 1.6 27.3-1.7 3.6-2.1 5.2-3.6 7.2-7.3.7-3.2.7-5.8 0-9-3-4.2-6-6-11-7-8.8-1-16.4.4-24 5q-1 1.3-2.1 2.6c-1.9 2.4-1.9 2.4-4 3-7.4-.2-17-1.2-22.8-6.2q-.5-.7-1.1-1.4 1-.5 1.9-1.1c31.6-18.9 54.3-57 65.8-91 1.8-4.8 3.8-5.8 8.3-7.9 4.1-4.9 6-10.7 8.1-16.6q.5-1.5 1-3c8.7-24.6 11.4-52.6.1-76.8-7.1-13.1-16.8-21.5-29.5-28.8-2.7-1.8-2.7-1.8-4.7-4.8.3-7.1 2.1-13.4 4.3-20.1 10.6-33.7 17.9-71.4 6.7-105.9 48.7 11.2 97.5 38.1 133 73q.9.9 1.9 1.8c69.9 69.1 69.5 183.6 78.5 319l4.2 66.6 3.9 61.2c.3 6.4.7 12.7 1.3 19.1.7 8.1 1.1 15.2-4.1 22-26 28.7-82 36-117.6 42.7q-3.3.6-6.6 1.3c-11.9 2.3-23.9 4.1-35.9 5.7q-1.7.3-3.4.5c-34.3 4.8-68.6 7.6-103.2 9.5-1.3.1-1.3.1-2.7.1q-4.6.3-9.3.5-1.1.1-2.3.1c-16.1.8-32.1 1.1-48.2 1.1q-2 0-3.9 0-9.2 0-18.4 0-9.3 0-18.6.1c-35.9.1-71.7-.7-107.6-3.3q-1.6-.1-3.2-.2c-28.1-2.1-56-4.8-83.8-8.8q-1.2-.2-2.4-.3c-143.9-20.6-143.9-20.6-169.1-52.6-3.5-5.7-3.6-10.5-3.2-17q.1-1.2.1-2.5l2.8-36.6q.8-9.5 1.5-19l.2-2.1q1.4-18 2.7-36c1-15.2 2.3-30.3 3.7-45.4q1.7-18.6 3-37.2C168.5 756.1 168.5 756.1 211 688q1.1-1.5 2.1-3.1c29.8-41 79.7-72 127.9-85.9q1 .5 2 1c-.7 1.2-.7 1.2-1.5 2.4C322 635.5 312.8 673.2 308 711q-.2 1.9-.5 3.8c-1.3 10.6-1.8 21.3-2.2 32q-.1 2.3-.1 4.5-.4 9.5-.7 18.9-.1 5.8-.3 11.7-.1 2.2-.2 4.4-.1 3-.2 6.1c0 1.7 0 1.7-.1 3.5-1.1 4.9-4.3 7.2-8.3 9.9q-1.4.8-2.8 1.6c-11.4 7.1-17.5 16.4-20.6 29.6-1.5 14.4.8 27.5 9 39.6 6.1 7.5 15.5 13.4 25 15.4 14.7 1.3 27.3-.4 39-10 10.4-9.7 14.8-21.7 15.4-35.6-.2-13-5.1-24.6-13.9-34.1-4.7-4.3-10.3-7.4-15.8-10.6-2.7-1.7-2.7-1.7-3.7-3.7q-.1-2.1-.1-4.1c-.1-1.3-.1-1.3-.1-2.7q0-1.4 0-2.8 0-1.5 0-3 0-4.8 0-9.6v-3.3c.1-35.4 3.1-69.8 10.2-104.5q.3-1.4.6-2.8C345 629.7 358 588.7 389 567c4.2-2.6 7.9-4.6 13-4-1.3 6-2.8 11.8-4.4 17.7-6 21.3-9.2 43.1-11.2 65.1q-.1 1-.2 2.2c-1.4 15.9-1.6 31.8-1.5 47.9q0 3.3 0 6.7c.1 23.8.5 47.6 2.3 71.4q.1 1.2.2 2.5c2.4 32.3 6.4 64.4 10.8 96.5q.2 1.5.4 3c6.6 48 15.4 95.8 26.2 143q1.6 6.9 3 13.9c1.2 6.1 2.5 12.1 4.1 18q.3 1.4.7 2.7.8 3.2 1.6 6.4c1.7-2.6 2.6-4.5 3.7-7.3q.4-1.3.9-2.7.5-1.4 1-2.9.6-1.5 1.2-3.1 1.8-5.1 3.6-10.2 1.3-3.6 2.5-7.1 5.4-15 10.7-30c19.4-54.6 39.4-108.9 61.5-162.5q1.5-3.5 2.9-7.1l25-59.1c47.2-103.7 47.2-103.7 57-215z" fill="#fef7eb"/><path d="M478 132c1.7 3.2 2.9 6.5 4.1 9.9 7.4 19.1 20.4 35.9 33.9 51.1q.7.8 1.4 1.6c10.9 12.3 22.8 23.2 35.6 33.4q1.7 1.4 3.3 2.7c13.1 10.8 27 20.4 41.4 29.5q1.1.7 2.3 1.5c3.9 2.5 7.8 4.7 11.9 6.8 10.8 5.6 10.8 5.6 13.1 10.6 1.4 5.2 1.6 10.4 1.8 15.8.4 5.8 1.3 11.6 2.2 17.3q.2 1.7.5 3.5c.9 6.4 2.2 12.2 4.5 18.3 2.2 1 2.2 1 5 1 5.1-3.5 7.5-7.1 10-12.7q1-2.1 2.1-4.3c.4-1 .4-1 .9-2.1 2.1-4.1 4.5-8 7-11.9q.6-.9 1.1-1.8c3.8-5.2 9.9-8.5 16.3-9.6 6.3-.3 11.8 1 16.7 5.2 5.2 5.4 8.3 11.2 10.9 18.2q.5 1.2 1 2.5c5.9 17.9 1.3 37.7-6.9 54q-2 3.8-4.1 7.5-.8 1.5-1.7 3.1c-4.8 8.1-11.4 15.6-19.3 20.9-.8 2.2-.8 2.2-1.4 4.7-1.4 5-2.8 7.8-6.6 11.3-4.7 2.4-9 2.4-14 1-5.4-2.7-7.5-5.7-10-11q0-1 0-2c-2.5.5-2.5.5-5 2-1.3 2.3-2.2 4.4-3.1 6.9q-.3 1-.7 2-.9 2.2-1.7 4.4l-4.3 11.4-.8 2.2c-10.2 26.5-10.2 26.5-19.2 34.7-5.8 5.9-6 11.4-6 19.2q.1 4.1.2 8.3.1 2.8.1 5.7c.3 16.3.9 32.5 4.1 48.5 13.4 67.7-28.9 150.4-55.1 210.8-32.1 74.3-61.3 149.6-88.4 225.8q-2.6 7.4-5.3 14.8-3.7 10.5-7.5 21-4.3 12-8.6 24.1-1.5 4.3-3 8.6-.9 2.3-1.7 4.6c-2-3-2.7-5.1-3.6-8.5q-.4-1.7-.8-3.4-.5-1.9-.9-3.7-.5-1.9-1-3.9-3.2-13.1-5.7-26.5-1.7-8.8-3.7-17.6c-10-45.5-18-91.6-24-137.7q-.5-4.3-1.1-8.6c-3.3-25.6-6.3-51.2-8.1-76.9q-.2-3.3-.4-6.6c-1.6-23.1-1.9-46.2-2-69.3q0-3.3 0-6.6c-.1-16 .2-31.9 1.7-47.8q.1-1 .2-2.1c2.3-25.5 6.1-51.7 14.8-75.8.8-2.3.8-2.3.6-6q1 0 2 0c.8-10 1.5-19.9 1.7-29.9q.1-2.4.3-4.8c.7-9.8.7-9.8-3.5-18.2-3.1-2.3-6.2-4.2-9.5-6.1-6.8-5.1-12.7-10.4-18-17-1-1.2-1-1.2-2.1-2.4-6.6-7.6-11.3-15.7-15.9-24.6q-.5-.9-1-1.8c-8.2-16.1-13.3-33.6-17-51.2q-1 0-2 0-.3 1.3-.6 2.6c-1.7 4.2-4.1 7.3-7.4 10.4-3.7 1.2-7.1 1.5-11 1-4.8-2.4-7.6-5.2-10-10-.3-2.9-.5-5.7-.5-8.6q-.3-1.2-.5-2.4c-1.8-1.2-1.8-1.2-4-2-13.5-9.6-21.3-28.8-24.6-44.5-1.9-11.7-1.4-24.3 2.6-35.5q.4-1.3.9-2.7c3.2-8.8 8.5-17 17.1-21.3 4.6-1 8.5-.5 12.7 1.6 11.5 7.6 14.5 21 17.5 33.7 1.1 4.6 2.4 8.6 4.8 12.7q1 .5 2 1-.1-1.2-.1-2.5-.7-11.5-1-23-.2-6-.6-11.9c-1.5-25.4-1.5-25.4 3.8-32.2 5.1-4.4 11-7 17.3-9.4 3.3-1.3 5.9-2.9 8.8-4.9q1.2-.8 2.4-1.6 1.1-.8 2.3-1.6 1.2-.8 2.6-1.7c26.9-18.3 53.8-40 73.5-66.2q1.4-1.9 2.9-3.8 4.6-6 9.1-12.2c.6-.9.6-.9 1.3-1.7 5.9-8.1 10.5-16.4 14.8-25.5q1.9-3.9 3.9-7.8.6-1.2 1.2-2.4.4-.8.8-1.6z" fill="#bb601f"/><path d="M605 585c14.4 46.2-37.6 137.9-55.5 179.1-32.1 74.3-61.3 149.6-88.4 225.8q-2.6 7.4-5.3 14.8-3.7 10.5-7.5 21-4.3 12-8.6 24.1-1.5 4.3-3 8.6-.9 2.3-1.7 4.6c-2-3-2.7-5.1-3.6-8.5q-.4-1.7-.8-3.4-.5-1.9-.9-3.7-.5-1.9-1-3.9-3.2-13.1-5.7-26.5-1.7-8.8-3.7-17.6c-10-45.5-18-91.6-24-137.7q-.5-4.3-1.1-8.6c-3.3-25.6-6.3-51.2-8.1-76.9q-.2-3.3-.4-6.6c-1.6-23.1-1.9-46.2-2-69.3q0-3.3 0-6.6c-.2-27.2 1.2-54.3 5.9-81.1l.6-3.9c1.7-9.9 1.7-9.9 3.8-13.7 2.3 3.7 4.3 7.5 6.3 11.4 7.5 14.7 16.5 27.8 26.7 40.6q1.1 1.3 2.1 2.7c14.3 17.9 30.6 32.6 48.9 46.3 5.7-3.1 11.2-6.3 16.5-10q1-.7 2-1.4c11.9-8.3 23.3-17.3 34.5-26.6q2.6-2.1 5.3-4.3c21.9-17.9 44.5-37.1 61.7-59.7q1-1.3 2.1-2.7 2.5-3.1 4.9-6.3z" fill="#139aa0"/><path d="M597 492q.5 0 1 0 0 .8.1 1.7.2 3.9.3 7.7.1 1.3.2 2.7c.2 5.7.7 11.3 1.4 16.9q.5 0 1 0 .1 1 .1 1.9c1.1 15.4 1.1 15.4 3.5 30.7 5 25.9 5 25.9-.6 35.5-2.1 3-4.7 5.7-7.3 8.3-1.7 1.6-3.3 3.4-4.9 5.1-6.5 7.3-13.3 14.1-20.2 21q-1.1 1.1-2.2 2.2c-4.6 4.7-9.4 9-14.4 13.3q-1.8 1.6-3.7 3.2c-7.3 6.4-14.7 12.7-22.3 18.8q-1.7 1.4-3.4 2.8c-14.8 12.1-30.4 23-46.6 33.2-34.7-21.7-62.3-56.7-80.8-92.8-1-1.8-2-3.5-3.1-5.2-2.8-7.6.6-16 3-23.4q.8-2.6 1.6-5.2.4-1.1.8-2.3c.7-2.4.7-2.4.5-6.1q1 0 2 0 .5-1.5 1-3c6-1.3 10.5-1.8 15.9 1.6q1.2.9 2.4 1.7c12.6 8 26.9 9 41.3 9q3.3-.1 6.6 0c12.8 0 25.1-1.2 37.2-5.4q1.4-.5 2.7-1c24.6-8.6 46.7-26.1 64.6-44.7 2.3-2.2 2.3-2.2 4.3-2.2q.4-.9.8-1.8c1.2-2.2 2.5-3.7 4.3-5.6 3.9-4.3 6.9-9.1 10-14q1.4-2.3 2.9-4.6z" fill="#ba5f1f"/><path d="M648.4 742.3c11.2 8.6 16.5 19.8 18.6 33.7 1.5 16.8-3.5 31.3-9.6 46.7q-.6 1.7-1.3 3.4-.6 1.5-1.2 3c-1.3 4.3-1.5 7.5.4 11.6 1.2 5.4-1.4 9.3-3.7 14.2q-.7 1.5-1.4 3.1-2.1 4.5-4.2 9-.5 1.2-1.1 2.4c-12.5 26.7-30.2 50.1-54.9 66.6q-1.5.5-3 1c-11.6-13.1-17.5-27.4-22-44q-.3-1.1-.6-2.2c-4.1-15.4-5.6-30.5-5.8-46.3q0-2.2-.1-4.3c-.3-13.1-.3-13.1 3-17q1.2-1.1 2.5-2.2c1-3.1 1.1-5.5 1.3-8.7 1.6-23.5 8.3-47.2 25.9-63.7 15.5-13.3 39.3-18.2 57.2-6.3z" fill="#fdf7ec"/><path d="M544 824q1.3.7 2.7 1.5c3.2 1.4 4.8 1.8 8.2 1.7q1.1-.1 2.3-.1c.9 0 .9 0 1.8-.1q0 1.3 0 2.6c.7 36.6 3.2 77.2 28 106.4 8.5-4 15.1-9.8 22-16q1.1-1 2.2-1.9c21-19.7 32.9-48.1 43.8-74.1 3.9 0 5.7.5 9.3 2q1.3.6 2.7 1.1c1 .5 1 .5 2 .9-.7 5.1-2.8 9.4-4.9 14q-.6 1.3-1.2 2.6c-7.3 16-15.4 31.3-25.9 45.4q-1 1.4-2 2.7l-6 7.3q-.6.7-1.3 1.5C619.5 931 610.5 939 600 946c8.2 4 16 5.1 25 6q.4-.9.8-1.8c2.5-4.4 7.5-6.4 12-8.5 8-1.7 15.8-1.5 23.2 2.3 2.6 2.2 3.7 3.7 4.4 7.1.4 4.2-.1 7.3-2.7 10.7-7 7-15.8 7.6-25.1 7.6-4-.1-6.9-.9-10.6-2.4q-3.4-.2-6.8-.3c-10.6-.5-20.8-3.2-29.6-9.3-4.2-2.4-6.7-2.5-11.5-1.4q-2.1.6-4.3 1.3c-10.9 3.1-22.8 2.8-33.8.1-3.1-.6-5.9 0-9 .6-10.1 1.1-19.9-3.2-28-9-2.9-2.4-3.9-4.1-4.4-7.8-.4-9-.4-9 2.8-12.9 4.3-3.8 7.5-3.7 13.2-3.7 8.9 1 16.8 5.3 22.7 12 1.7 2.4 1.7 2.4 2.7 5.4 5.7 1.9 11.2 2.2 17.2 2.2q1 .1 2 .1c4.3 0 7.8-.7 11.8-2.3l-1.7-2.5c-10.1-15-15.9-30-20.3-47.5q-.5-1.8-.9-3.7c-.8-3.4-1.5-6.8-2.1-10.3l-.4-2.2c-3.1-17.3-2.9-34.4-2.6-51.8z" fill="#5d8994"/><path d="M598 481q.5 0 1 0c.8 5.9.5 10-3 14.9q-2 2.6-4 5.1-2.1 2.9-4.1 5.8c-5.8 7.8-5.8 7.8-8.9 11.2q-1 0-2 0-.5 1.5-1 3c-1.5 1.5-1.5 1.5-3.4 3.1a169.66 169.66 0 0 0-8.8 7.9c-27.6 24.7-57.8 40.1-95.2 40.2q-3.3.1-6.6.1c-12.8.1-25.3-1-36.8-7.4q-1-.5-2-1c-2.8-1.5-5.5-3.1-8.2-4.9-2.8 0-2.8 0-5.7.4q-1.5.1-3 .3-1.1.2-2.3.3c-1.3-3.4-.7-6.2-.3-9.8.5-3.6.5-7.2.6-10.9q0-1.1.1-2.3.1-3.8.2-7.5 0-2.5.1-5.1.2-6.2.3-12.4 1.1.6 2.2 1.2c25.5 13.9 47.3 21 76.6 21q3.3 0 6.6 0c8.4.1 16.4-.5 24.6-2.2l3.4-.6c22.7-4.8 44.2-17.3 61.6-32.4.8-.7.8-.7 1.7-1.4 5.8-5.2 11.3-10.5 16.3-16.6z" fill="#923c02"/><path d="M341 885q2 0 4 0 .5 1 .9 2.1 10.2 23 20.7 45.9 2.1 4.6 4.3 9.3l1.4 3.1q1.3 3 2.6 5.9c3.5 7.5 7.2 15 10.9 22.4q2.5 5 5 10c13.3 26.9 13.3 26.9 27.4 53.3 5.5 9.9 10.6 20 15.8 30q1.5 0 3 0c1.6-1.5 1.6-1.5 3-3.6q.9-1.2 1.8-2.4.9-1.3 1.9-2.7 2-2.7 4-5.5 1.1-1.4 2.2-2.9l10.4-13.8c4.4-5.7 8.7-11.4 12.8-17.3 4.9-6.9 10.1-13.6 15.3-20.2q4.4-5.6 8.7-11.3a401.82 401.82 0 0 1 16.6-20.5c2.3-2.8 4.3-5.7 6.3-8.8l9 1c-1.5 4.7-4.3 7.9-7.5 11.5-5.4 6.1-10.3 12.4-15.2 18.8l-6.8 8.7-21.2 27.8-28.7 38.5q-.9 1.2-1.8 2.4-1.7 2.2-3.6 4.3c-3 3.6-4.5 6.2-4.8 10.9q-.1 1.5-.2 3-.5 8.2-.7 16.4-.1 1.9-.1 3.9-.2 5.1-.3 10.3-.1 3.2-.2 6.4L436 1210h-9c-.1-14.9.1-29.9.4-44.8q.1-1.4.1-2.8.2-10.2.5-20.5.1-5.9.3-11.8 0-1.4.1-2.9.2-11 .4-22.1.2-7.2.5-14.5c.4-11.6-.5-19.2-6.9-29.2q-1-1.8-2-3.5-2.1-3.6-4.3-7.2c-3.2-5.5-6.1-11.2-9-16.9q-2.3-4.6-4.7-9.2-.9-1.7-1.8-3.4-2.7-5.3-5.4-10.4-15.4-28.9-29.1-58.7-4.8-10.5-9.7-20.9-.6-1.2-1.3-2.5-2.4-5.1-4.8-10.2C337.7 892 337.7 892 339 888q1-1 2-2 0-.5 0-1z" fill="#daded8"/><path d="M232 775c4.6.6 4.6.6 6 2-.2 10-1.9 20.2-3 30.2l-4.8 45.5q-.1 1.9-.3 3.9c-1.4 15.8-2.1 31.6-2.1 47.5q0 1.2 0 2.4c.1 26.7 3.7 52.3 8.2 78.5q.3 1.8.6 3.7l2.1 11.8q.4 2.4.9 4.9.4 2.7.9 5.4c2.2 12.6 1.8 25.3 1.8 38q0 1.9 0 3.9c0 25.3-1.2 50.5-2.7 75.7-1 15.9-1.8 31.8-1.7 47.7q0 1.4.1 2.9 0 3.5 0 7c-7.7-1.3-15.2-3-22.7-5.1q-1.5-.4-3-.9-3.7-1-7.3-2c3-2 3-2 5.2-1.7q1.2.4 2.5.8 1.2.4 2.4.8 1.5.5 3.1 1 2.6.8 5.2 1.6 2.3.8 4.6 1.5 0-1.8-.1-3.6c-.1-12.7.3-25.4 1-38q0-1.3.1-2.6.3-5.2.6-10.5c2.8-52.2 4.7-102.3-5.6-153.9-8-40.2-7.3-80.2-3.3-120.8q.5-4.2.9-8.4c1.8-19 3.7-38.1 6.6-57q.2-1.6.5-3.2c1-6.7 1-6.7 3.3-9z" fill="#dbded8"/><path d="M742.5 819.8c2.5.2 2.5.2 4.5 2.2.2 2.4.2 2.4 0 5.4l-.1 3.4q-.1 1.9-.2 3.8-.1 3-.2 6-.2 4.1-.4 8.3-.2 4.9-.4 9.8-.3 6.9-.6 13.9-.8 17.9-1.5 35.7-.5 12.8-1 25.5-.7 15.6-1.3 31.2 0 1.4-.1 2.8c-2.7 76-1.5 152.2-1.2 228.2q1.4-.3 2.8-.6c3.2-.4 3.2-.4 6.2 1.6q-3.9.6-7.8 1.1-1 .2-2.2.4c-4.1.5-6.4.6-10-1.5q.2-27.4.3-54.8.1-12.7.2-25.4l1-100.9q0-1.8 0-3.6l1.9-65.4q.1-3.8.3-7.6 0-.9.1-2 .3-9.3.6-18.6.4-10.6.8-21.1.2-6.4.5-12.9l2.1-47.9q.2-3 .4-5.9.1-1.7.2-3.5.1-1.5.2-3c.6-3.4 1.5-4.3 4.9-4.6z" fill="#daded8"/><path d="M331.3 819.4c7.1 5.1 11.5 11 13.7 19.6.9 8.7.8 16.5-4 24q-.7 1.1-1.3 2.1c-4.2 6.2-9.2 9.5-16.1 12.2-8.7 1.7-15.8 1-23.6-3.3-7.8-5.4-13.3-12.6-15-22-1-10.6.9-18.5 7.6-26.8 10.2-10.8 25.7-13.6 38.7-5.8z" fill="#ee9439"/><path d="M618.8 1042.7c11.2 6.1 19.9 18.9 26.1 29.7 2 6.5 2.4 13-.6 19.2-4.9 5.2-4.9 5.2-9.1 5.8q-1.5-.1-3.1-.1-1.5 0-3 0c-3.1-.3-3.1-.3-6.1-1.3-8.5-2.8-17-1.4-25 2-5.3.5-8.5-.2-13-3-4.4-4.7-4.4-9.9-4.3-16.1 1-10.9 8.2-18.2 15.3-25.9q1-1.1 2-2.2c5.3-5.7 12.7-11.3 20.8-8.1z" fill="#13979e"/><path d="M537.6 416.6c2.4.4 2.4.4 4.2 1.5 1.8 2.8 1.5 4.7 1.2 7.9-10 15.7-30.3 24.1-47.6 28.7-24.4 5.1-49.3.2-70.5-12.6-12.9-9.2-12.9-9.2-15.9-15.1-.3-2.9-.3-2.9 0-6 1.7-1.9 1.7-1.9 4-3 4.7.3 6.6 2.3 9.7 5.7 12.1 12.6 27.9 17.1 45.1 17.6q3.5 0 7 0h3.7c13.5-.2 25.3-2.3 37.5-8.3q1.3-.6 2.6-1.3c6.1-3.3 10.1-7.3 14.3-12.7 2.1-2 2.1-2 4.7-2.4z" fill="#042041"/><path d="M584 264c4.2 3.4 7.9 6.9 10 12 .5 6 .5 6-1.1 8.9-3.1 1.7-5.5 2-8.9 1.1q-2.6-1.5-5-3.2c-13.2-9-30.2-12-45.8-9.1q-3.5.8-7 1.7c-3.7.7-6.5.4-10.2-.4-2.5-2.1-2.5-2.1-4-5-.1-4.3.5-6.3 3.1-9.7 18.5-14.6 50.3-8.2 68.9 3.7z" fill="#022041"/><path d="M414.9 251.6q1.3-.1 2.6-.1c9.7.2 18.1 2.7 25.4 9.3 1.7 3.5 1.3 6.6.1 10.2-1.9 2.6-1.9 2.6-5 4-4.5.1-8.9-.6-13.4-1.5-18.9-3.5-37.7.9-53.6 11.5-3.1-.2-3.1-.2-6-1-2-3-2-3-1.9-6.3 1.8-7.5 6.8-12.3 12.9-16.7 11.7-7 25.5-9.3 38.9-9.4z" fill="#022040"/><path d="M656 843q1 .4 2 .8c3.6 1.5 7.3 2.8 11 4.2-.7 5.1-2.8 9.4-4.9 14q-.6 1.3-1.2 2.6c-7.3 16-15.4 31.3-25.9 45.4l-2 2.8c-3.9 4.9-8.1 9.6-12.3 14.3q-.8.8-1.6 1.7c-2.3 2.5-3.8 4.1-7.1 5.2-2.1-3.4-2.3-6-2-10 .9-2.2.9-2.2 2-4q.5-1.5 1-3c-1.6 1.7-3.3 3.3-5 5q-1-.5-2-1c.8-.7.8-.7 1.5-1.4 19.9-18.9 32.2-43.9 42.6-68.9q.6-1.2 1.1-2.6.5-1.1 1-2.3c.8-1.8.8-1.8 1.8-2.8z" fill="#5b8793"/><path d="M468.6 320.7c2.4.3 2.4.3 3.4 1.3.6 6.9-1.1 11.5-4 17.7q-1.2 2.8-2.5 5.5-.6 1.4-1.2 2.9c-2.1 4.8-4 9.6-5.8 14.5q-.5 1.3-1 2.6c-2.5 6.7-4.4 12.6-3.5 19.8 2 4.3 4.9 5.6 9.1 7.3 8.7 2.9 16.2 2.1 24.9-.3 2.9-.2 2.9-.2 5 0 2 2 2 2 2.4 4.4-.4 2.6-.4 2.6-2.2 4.7-10.8 6.4-22.3 5.9-34.1 2.9-7.5-2.5-13.1-6.9-17.2-13.8-4-9.5-.1-19.7 3.5-28.7q1.8-4.3 3.6-8.5.7-1.6 1.4-3.2 2.1-4.8 4.2-9.6.7-1.5 1.4-3c7.3-15.9 7.3-15.9 12.6-16.5z" fill="#042041"/><path d="M661 764c2.8 1.4 3 3.1 4 6l1 3c-1 1.5-1 1.5-2.6 3.2-3.5 3.8-6.5 7.9-9.5 12.2q-.9 1.1-1.7 2.3-8.7 12.1-17.2 24.3l-18.6 26.1q-6.8 9.4-13.3 18.9-5 7.3-10.1 14.5-6.1 8.6-12 17.2-.7 1-1.3 1.9-.7 1-1.3 1.9-.6.9-1.2 1.8-1.2 1.7-2.3 3.5-1.4 2.1-2.9 4.2-1 0-2 0l-1 2q-.3-2.1-.6-4.2-.1-1.2-.3-2.4c-.3-5.6 2.6-9.2 5.7-13.5q.7-1.1 1.4-2.1l13-18.1q5.2-7.3 10.3-14.7c4.4-6.5 9-12.9 13.6-19.2q5.5-7.7 11-15.4l1.5-2.1q2.2-3.1 4.4-6.3 10.1-14.4 20.5-28.7 5.8-8.1 11.5-16.3z" fill="#daddd7"/><path d="M544 824q1.3.7 2.7 1.5c3.2 1.4 4.8 1.8 8.2 1.7q1.1-.1 2.3-.1c.9 0 .9 0 1.8-.1q0 1.3 0 2.6c.4 21.2 2 41.4 6.4 62.2.8 4.1 1.2 8.1 1.6 12.2q-1 0-2 0-.5 1-1 2-1 0-2 0-.5 1.5-1 3-1-.5-2-1l-1 2q-1-.5-2-1 0-1 0-2-1 0-2 0c-7.6-27.8-10.7-54.2-10-83z" fill="#5e8a94"/><path d="M421.9 312.4c6.2 4.7 11.6 10 14.1 17.6.4 3.3.6 5-1.1 7.9-2.9 1.7-4.6 1.6-7.9 1.1-2.5-2.1-4.4-4.3-6.5-6.8q-.7-.9-1.5-1.9-.7-.9-1.4-1.7c-4.5-4.4-10.4-4.1-16.3-4-5 .6-8.5 2-12.3 5.4-1.9 2.6-3.6 5.1-5.2 7.9-1.8 2.1-1.8 2.1-4.9 3-2.9.1-2.9.1-5.3-.9-1.6-2-1.6-2-2.2-5.1 1.3-8.5 5.4-14.8 12.1-20.2 10.6-7.2 27-9.2 38.4-2.3z" fill="#042041"/><path d="M569.4 315.4c5 3.5 9.8 8.1 12.6 13.6.5 7.2.5 7.2-1.1 10-2.9 1.5-4.7 1.5-7.9 1-2.3-2.3-3.9-4.8-5.6-7.6-4.7-4.7-11.6-6.6-18.2-6.8-6.2.3-10.7 3.3-15.2 7.4q-1.2 1.6-2.4 3.2c-2.6 2.8-2.6 2.8-6.2 3.9-3.4-.1-3.4-.1-5.3-1-1.8-3.4-1.9-6.5-1.1-10.1 4.8-8.9 12.9-14.1 22-18 9.5-2.9 19.9-.5 28.4 4.4z" fill="#032041"/><path d="M522.3 926c7.4 3 13 6.4 17.7 13 1.2 3.6 1.3 6.2 1 10-2.3 4.3-4.4 7.1-9 9-9.9 1.4-20.1-3.3-28-9-2.9-2.4-3.9-4.1-4.4-7.8-.4-9-.4-9 2.8-12.9 5.6-5 12.9-4.4 19.9-2.3z" fill="#02223d"/><path d="M661 944c2.6 2.2 3.7 3.7 4.4 7.1.4 4.2-.1 7.3-2.7 10.7-7.5 7.4-17.1 7.6-27 7.6-3.9-.4-6.4-1.3-9.7-3.4-3-4.5-2.7-8.7-2-14 3-5.8 7.7-7.8 13.7-10.1 8.1-2.2 15.9-1.8 23.3 2.1z" fill="#02213c"/><path d="M663 387c4.6 3.9 7.5 8.5 10 14q1 .5 2 1-1 1-2 2-.7 2.4-1.3 4.8c-1.4 4.9-2.9 7.7-6.7 11.2-4.7 2.4-9 2.4-14 1-4.2-2.1-7.1-4.5-9.3-8.8-1.8-5.5-2-11.3.4-16.6 4.6-6.8 12.6-12.3 20.9-8.6z" fill="#e8b213"/><path d="M325 384c4.7 1.7 7.3 3.8 10 8 1.8 5.7 2.3 12.9 0 18.5-2.6 4.2-5.2 7.9-10 9.5-4.7.4-7 .5-11.3-1.6-5.7-5-7.4-9.4-7.9-16.8.4-6.8 3.1-11.1 8.2-15.6 3.7-2.5 6.7-2.5 11-2z" fill="#e9b314"/><path d="M667 616q.5 0 1 0 .5 3 1 6 .5 0 1 0l.9 3.7c2.3 10 4.8 20 7.5 29.9q.4 1.6.8 3.2 1.8 6.5 3.6 13 1.3 4.9 2.6 9.7.4 1.5.9 3 .3 1.4.7 2.8.3 1.2.7 2.4c.4 2.7.1 4.7-.7 7.3-5.2 6.3-12.8 11.2-19.3 16.1l-2.4 1.8q-1.1.8-2.2 1.7c-1 .7-1 .7-2 1.5-2.8 1.2-4.3.9-7.1-.1-2.4-2.9-2.4-2.9-4-6q.5-1.5 1-3 1.5 1.5 3 3 6.1-4.3 12.1-8.7 2.5-1.8 5.1-3.5 1.3-.9 2.7-1.9 1.3-.9 2.5-1.7c2-2.2 2-2.2 1.5-5.8q-.4-2.2-.9-4.4-.2-1.1-.5-2.3-.9-3.6-1.8-7.2-.3-1.3-.7-2.6-1.6-6.3-3.2-12.5-.3-1.1-.6-2.2-.7-2.9-1.5-5.8c-.7-3.3-.8-6.1-.7-9.4q-1 0-2 0l1-28z" fill="#daded8"/><path d="m633.6 1002.9c4.8 1.6 7.3 4 9.7 8.5 1.9 7.4 0.2 14-3.3 20.6-3.2 3.9-6.2 6.6-11.2 7.7-4-1-6.6-2.9-8.9-6.4-2.2-5.8-2-14.1 0-19.9 1.2-2 2.5-3.7 4.1-5.4q0.7-0.8 1.4-1.6c2.7-2.7 4.4-3.4 8.2-3.5z" fill="#13949c"/><path d="M600 1003c5.1 3.2 8.4 7.1 10 13 .9 8.1 1.3 14.4-4 21-3.2 1.6-6.5 1.5-10 1-5.2-3-7.3-6.6-9.3-12.2-1.4-5.4-2-11.5.1-16.8 3.4-5.4 7-6.7 13.2-6z" fill="#13939b"/><path d="M556 913c1.6 2.4 2.9 4.6 4.2 7.2l1.3 2.4q1.3 2.6 2.6 5.1c2.7 5.3 5.7 10.3 8.9 15.3-5 1.6-9.6 2.3-14.9 2.2q-1 0-2.1 0c-5.4-.1-10-.4-15-2.2-2.5-3-3.8-5.3-5-9q-1 0-2 0 0-1 0-2 2.5.5 5 1 1-1.3 2-2.6 1.3-1.8 2.7-3.5.6-.9 1.3-1.8c8.3-10.7 8.3-10.7 11-12.1z" fill="#dbded9"/><path d="M685 320c3 1.3 4.5 2.2 6.3 4.9.8 2.4.8 4.5.7 7.1-1.7.8-1.7.8-4 1q-2.5-2-5-4c-3.1-.4-4.5-.4-7 1.4-4.3 4.8-7.1 9.4-9.5 15.3q-.4.9-.8 1.9c-1.4 3.9-2.2 7.2-1.7 11.4 1.4 1.6 1.4 1.6 3 3 .4 2.2.4 2.2.4 4.5q0 1.2 0 2.3c-.5 2.7-1.3 3.6-3.4 5.2-3.4.4-5.5.2-8.7-1.2-2.3-1.8-2.3-1.8-3-4.4.2-17.3 8.1-33.1 19.8-45.6 3.8-3.6 7.8-3.3 12.9-2.8z" fill="#5d2400"/><path d="M309 320c6.6 4.1 9 11.2 12 18q.7 1.5 1.3 3.1c2.6 7 3.1 13.7 3.2 21q0 1.4.1 2.8c-.1 6.5-.1 6.5-2.4 9.2-3 1.2-5.1 1.3-8.2.9-1.9-1.1-1.9-1.1-3-3-.4-2.9-.4-2.9 0-6q.7-.9 1.5-1.8c3.2-4.7 1.6-11.2.9-16.6-1.4-6.8-4.5-13.7-9.4-18.6-4.7-.5-7.1.5-11 3q-1.5 0-3 0c.2-4.3.6-6.5 3.4-9.9 4.2-3.2 9.6-3.2 14.6-2.1z" fill="#5b2400"/><path d="M571.2 1026.5c4.6.1 7 1.4 10.3 4.6 4.3 5.4 6.2 11 5.8 17.9-.4 2.8-1.5 4.8-3.3 7-3.2 1.6-5.5 1.3-9 1-5.3-2-8.3-4.9-11-9.8-2.1-4.7-2.7-8.1-2-13.2 2.2-4.6 4-7.3 9.2-7.5z" fill="#12939b"/><path d="M657.9 1030.4c2.9.8 4.6 2.3 6.3 4.8 1.8 4.1 1.5 7.8.1 11.9-2.6 5.8-6.1 8.7-11.2 12.2-3.2 1.1-5.8 1.1-9.1.7-2.9-2.2-3.8-3.5-5-7-.6-6 .6-10.1 4-15 4.2-5 8.1-8.2 14.9-7.6z" fill="#13939b"/><path d="M318 647c1.7 5.2-.7 10.3-2.2 15.4-.4 1.8-.4 1.8-.9 3.5q-.5 1.7-.9 3.3-.5 1.5-.9 3.1c-1.2 3-2.7 4.5-5.1 6.7-1.5 2.2-2.9 4.5-4.3 6.8q-.5.8-1.1 1.8-1.3 2.2-2.6 4.4c2.1 3.7 2.1 3.7 5.1 6.7 3 3.6 2.7 7.7 2.9 12.3l-3 1c-4.1-3.8-7.9-7.9-11.5-12.1q-1-1.2-2.1-2.5c-1.4-2.4-1.4-2.4-1.4-4.7 1.5-3.9 3.6-7.3 5.8-10.9q.7-1.2 1.5-2.4c4.1-6.5 8.3-12.9 12.6-19.3 2.9-4.3 5.6-8.6 8.1-13.1z" fill="#dcded8"/><path d="M302 736q1 0 2 0c1.3 2.6 1.1 4.7 1.1 7.6q-.1 1.5-.1 3.1 0 1.1 0 2.3-.9.4-1.8.8c-2.2 1.2-3.6 2.4-5.2 4.2q.7 2.4 1.4 4.8.4 1.3.8 2.7.9 2.8 1.8 5.5.1 2.6.1 5.1 0 1.5 0 3 0 1.5 0 3.1 0 1.5-.1 3.1 0 3.9 0 7.7c-2.5-2.5-3.1-4.6-4.3-7.9q-.7-1.8-1.3-3.6-.7-1.9-1.4-3.8-1.3-3.7-2.7-7.4-.6-1.6-1.2-3.3c-1-3-1-3-2.3-5.6-.9-2.7-.9-3.8.2-6.4 1.2-1.6 1.2-1.6 2.7-3.2q.8-.8 1.6-1.7.8-.8 1.7-1.7c3.9-3.9 3.9-3.9 7-8.4z" fill="#dbded8"/><path d="M558 920q1 0 2 0l1.6 3c3.6 6.8 7.2 13.5 11.4 20-5 1.6-9.6 2.3-14.9 2.3-1-.1-1-.1-2.1-.1-5.3-.1-10-.3-15-2.2-1.6-3.1-1.6-3.1-2-6q.6.7 1.1 1.4c5.3 4.6 12.6 4 19.3 4.2q1.5.1 3.1.1 3.7.2 7.5.3 0-1 0-2-1.3-.2-2.5-.3c-3.9-.8-7.3-2.2-10.9-3.8q-.9-.4-1.9-.8-2.4-1.1-4.7-2.1c.6-3.7 2.3-6.2 4.4-9.3q1-1.3 1.9-2.7.8-1 1.7-2z" fill="#faf7ed"/><path d="M564 727c1.5 4.6 0 6.8-2 11q1.5.5 3 1c-1.4 4.6-3.3 8.4-5.8 12.5-9.5 16.3-15 33.8-17.2 52.5-1.9-3.5-2.2-6-2-10l-3 2c-1.4-4.1-.1-5.7 1.7-9.6.4-1 .4-1 .9-2q1.4-3.2 2.8-6.4 1-2.2 2-4.4 1.4-3.3 2.9-6.6 3.7-8.2 7.2-16.6.5-1.1.9-2.2c3-7 5.8-14.1 8.6-21.2z" fill="#edf1ed"/></svg>