<svg xmlns="http://www.w3.org/2000/svg" width="1024" height="1248" xmlns:v="https://vecta.io/nano"><path d="M487 126c2.3 3.5 3.9 7.3 5.6 11.1 14.4 32.8 36 61.9 64.4 83.9q.8.7 1.7 1.3c8.1 6.4 16.5 12.2 25.2 17.7 14.3 9 28.1 18 40.1 30q1 1 2.1 2c16.8 17.7 18.2 47 20.9 70 2-.2 2-.2 4-1 1.1-1.8 1.1-1.8 1.6-4.1q.4-1.3.8-2.6.4-1.4.8-2.8c4.7-15.1 11.2-32.3 25.6-40.6 6.3-2.7 12.3-3.2 18.9-1 8.2 3.6 13.2 9.3 17.2 17.2 6.7 17.6 1.5 40-5.4 56.7-5.7 12.1-12.4 22.3-22.8 30.8-3.4 2.9-5 5.5-6.7 9.5-2 3.7-5.3 6.1-9 7.9-5.2.5-9.6.6-14.4-1.6-2.9-2.7-4.6-5.1-6.6-8.4-3.2 1.5-4.7 2.5-6.3 5.8q-.5 1.6-1 3.3l-1.2 3.8q-.3.9-.6 1.9c-7.2 24-17.9 49.2-35.9 67.2-.1 2.8-.1 5.5-.1 8.3q0 1.3 0 2.7a907.92 907.92 0 0 0 .9 33.1q.2 5.1.4 10.1.1 4.2.3 8.4.1 3 .1 6c.4 7.9 1.7 11.9 7.4 17.4 2.9 2.9 4.2 5.7 5.8 9.4q.4.9.9 1.9c13.9 32.1 4.9 71.9-6.6 103.3-10.9 27.6-10.9 27.6-17.9 30.6q-1.6.4-3.2.8c-13.9 4.3-24.7 9.6-36 19q-2 1.5-4 3c1.4-4.4 3.1-8.6 5-12.8q1-2.1 1.9-4.1.5-1.1 1-2.3c17.4-38.3 33.2-77.7 46.1-117.8-4.7 3.9-8.9 7.9-12.8 12.5-7.6 8.7-15.3 17.2-24.2 24.5q-1.3 1.1-2.6 2.2c-8 7-16.5 13-25.4 18.8-1.1.7-1.1.7-2.2 1.5-9.3 6.1-18.9 11.8-28.8 17-1.4.7-1.4.7-2.8 1.5-20.1 10.3-20.1 10.3-30.4 7.4-2.2-.9-4.3-1.8-6.5-2.8q-1.1-.6-2.3-1.1c-28.9-13.7-54.1-39-67.2-68.3-.9-2.5-1-4.5-.8-7.2q-1 0-2 0c-.2 1.3-.2 1.3-.3 2.7-.9 6.6-1.8 13.1-3.1 19.6-11.1 60.7-8.9 123.5-4.6 184.7q.1 1.3.2 2.6 1.1 16.2 2.8 32.4.1 1.1.2 2.2c6.9 65.3 15.8 134.1 35.8 196.8 4.1-8.7 7.7-17.6 11.1-26.6q.9-2.3 1.8-4.7l30.2-79.1L519 823q.4.8.8 1.7c1.3 2.5 2.7 4.9 4.2 7.3 1.2 2.4 1.1 3.7 1 6.3v2.7q0 1.5-.1 2.9c-.2 36 7.8 75.3 30.1 104.1q.5 1 1 2c-9.2.4-18.4.5-27-3-1.9-2.8-1.9-2.8-3-6-5-5.7-10.7-8.6-18.2-9.3-5.1-.2-8.8-.2-13.4 2-3.9 3.8-5.4 5.6-5.5 11.2.9 4.9 3.3 8 7.1 11.1 6.4 4.1 12.6 4.2 19.9 3.9 5.8-.1 10.3 1 15.5 3.1 5.7 2.2 11.1 2.2 17.1 2.2q1.3 0 2.7 0c5.1 0 9.8-.4 14.9-1.5 5.8-1.1 9 .2 14.1 2.9 10.8 5.4 24.6 6.2 36.1 3.1 4.9-1.1 7.8.3 12.3 2.3 6.9 2.8 13.3.8 20-1.8 3.8-1.9 5.5-4.5 7.4-8.2.4-4.6.4-7.1-1.5-11.3-4.5-4.9-9.4-5.9-15.9-6.2-6 .2-10.6 2.2-15.6 5.5q-.7.8-1.4 1.6c-5.9 5.2-20.1 3.9-27.6 3.4q-1.5-.5-3-1 0-1 0-2c1.5-1.1 1.5-1.1 3.7-2.4 5.4-3.5 9.8-7.6 14.4-11.9 2-1.9 4-3.6 6.1-5.3 2.3-2 4.2-3.8 6.1-6.1l7.9-8.9c14-15.5 25-33.6 34.7-51.9 3.1-5.7 6.3-11 10.1-16.3 2.5-4 4.2-8 5.9-12.4.6-1.3.6-1.3 1.1-2.6 8.6-22.3 15-51.3 5.5-74.1L685 757q-.8-1.6-1.6-3.2c-9.1-16.8-24.5-29.7-42.7-35.5-4.5-1.3-9.1-2.4-13.7-3.3 1.6-5.3 3.5-10.3 5.8-15.4 5.4-12.4 9-25.1 11.9-38.3q.3-1.3.7-2.7c2.8-13.4 4-26.6 4-40.3q0-3.4 0-6.9c.1-11.4-1.8-21.6-5.4-32.4 9.7 2.5 18.8 6.4 28.1 10.2 1.2.6 1.2.6 2.5 1.1C740.4 617.5 808.7 650.2 843 716q.5.9 1 1.8c11.2 21 18.5 45.9 23 69.2q.3 1.3.5 2.6c5.4 28.2 7.7 56.8 9.9 85.4q.2 2.9.5 5.8c2 25.6 3.2 51.3 4.5 77q1.1 22 2.3 44 .3 5.4.5 10.8 1 17.4 1.9 34.9.5 9.8 1 19.7.3 5.1.6 10.2.6 11 1.1 22.1.2 3.6.4 7.2.3 5.3.5 10.6.1 1.6.2 3.2c.5 10.7-1.2 19.2-8.5 27.3-51.7 48.9-167 53.9-292.6 63.1q-2.8.1-5.6.2c-24.5 1.2-49.1 1.1-73.6 1.1q-7.4 0-14.7.1c-32 .1-63.7-.7-95.5-3.1q-5.1-.4-10.1-.8-8.7-.6-17.3-1.3-1.5-.2-3-.3c-16.7-1.4-33.3-3.1-49.9-5.5q-3.4-.5-6.8-.9c-147.5-20.7-147.5-20.7-178.3-56.4-1.8-3.6-2.3-6.5-2.3-10.5q0-1.6 0-3.3 0-1.7 0-3.6.1-1.8.1-3.7c.1-13.8 1.1-27.4 2.2-41.2q.3-4.3.6-8.7c12.5-163.8 12.5-163.8 25-240.7q.6-3.4 1.1-6.8c7.1-43.8 17-89.8 43.3-126.5 1.1-1.5 1.1-1.5 2.1-3 11.5-15.7 24.5-30 39.9-42q.9-.7 1.8-1.4c14.8-11.5 30.3-21.5 46.8-30.3q2.4-1.3 4.9-2.6c12.7-7 25.7-13.2 38.9-19.3q1.2-.5 2.4-1 3.3-1.5 6.6-3c.9-.5.9-.5 1.9-.9 4.5-2 9.1-3.8 13.7-5.5q-1.9 3.9-4.1 7.6c-16 28-26.2 57.9-32.9 89.4l-.6 2.7c-7.3 34.2-8.5 69.4-9.4 104.3q-1.1.3-2.2.6l-3 .8q-1.4.3-2.9.7c-11.2 3.4-19.7 9.8-25.8 19.8-6.3 11.8-8.2 23.9-5.2 37 4 12.4 11.5 21.8 23 27.8 11.3 5.3 23.5 6.1 35.4 2.3 11.6-4.5 21.3-11.6 26.7-23 5-12.1 6.1-24.7 1.3-37.2-5.5-11.8-13-19.5-24.3-25.8-1.6-67.5 6.5-148 49-203 1.1-1.4 1.1-1.4 2.2-2.9 3.1-3.9 6.1-7.6 9.8-10.8q.7-.7 1.5-1.4 2.1-2 4.3-3.8c2.3-3.2 2.5-4.3 2.8-8.1q.1-1.4.2-3 .1-1.5.2-3 .1-1.4.2-2.8c.3-6.1.5-12.3.6-18.4q.1-3.4.2-6.7c1.1-12 1.1-12-2.2-23.1-3.4-3.6-7.5-5.7-11.8-8q-2.7-2.2-5.3-4.6-1.2-1.1-2.4-2.3-1.2-1-2.3-2.1-1-.9-1.9-1.7C360.3 468 348.9 436.1 341 404q-1.1 1.4-2.2 2.9c-2.7 3.4-5.1 4.9-9.4 5.4-6 .1-9.7-.1-14.4-4.3-2.4-2.6-3.9-4.8-5.3-7.9-1.8-3.3-3.4-4.9-6.3-7.2-18.7-16.3-25.5-41.9-27.7-65.8-.4-9.8 2.2-19.7 8.6-27.4 5.4-5.4 10.1-8.8 17.9-9 6.9.1 10.3 1 15.4 5.8 7.2 7.7 15.4 23.7 15.4 34.5q1 0 2 0v-57l19-10 13.5-7.2c2.8-1.4 5.5-2.7 8.5-3.8q-1.1 1.1-2.3 2.2c-1.3 1.4-1.3 1.4-2.7 2.8q-.9.9-1.9 1.7c-1.8 3.6-1.3 7.5-.1 11.3 3.6 2.4 4.8 2.5 9 2 2.5-1.2 4.9-2.4 7.3-3.8 13.1-6.9 26.4-9.3 41.1-7.9l3.5.4q1.6.2 3.2.4c3.5-.1 5.1-1 7.9-3.1 1.4-2.9 1.3-4.8 1-8-2.5-4.7-5.5-5.9-10.3-7.4-4.9-1.1-9.7-1.1-14.7-1.1h-3.3c-9.6.2-17.8 2.1-26.7 5.5q-3 1-6 2c2.8-3.2 6.3-5.2 9.8-7.5 12.8-8.4 24.3-17.9 35.2-28.5q1-.9 2-1.9c8.2-8 16.1-16 23-25.1q1.4-1.8 2.8-3.6c13.4-17.3 26.2-36.5 33.2-57.4z" fill="#fef9ec"/><path d="M491.9 34.7q1.3 0 2.6 0c15.8 0 31 1.3 46.5 4.3a20.48 20.48 0 0 1 2.4.5c57.5 10.9 109.6 46.7 142.4 94.7 30.6 45.5 42 100.2 48.2 153.8l.2 2 5 47.4c2.4 25.3 5 50.5 8.8 75.6q.2 1.1.3 2.2c5.9 38.4 14.5 76.2 26.8 113.1 5.6 17.1 11 33.9 13.9 51.7q.2 1.3.5 2.7c2.3 13 2.8 25.9 2.9 39q0 1.2 0 2.4c.1 9-.3 17.3-3.4 25.9q-1-.6-2.1-1.3c-2.9-1.8-2.9-1.8-6.1-3-4.1-1.7-7.6-4.1-11.3-6.6-9.7-6.4-19.7-12-29.8-17.6q-2.5-1.4-4.9-2.7C706.6 603 676 591.8 646 580c0 2.5.7 4.6 1.4 7 2.7 9.6 3.2 18.7 3 28.6q0 1.2 0 2.4c-.3 33.9-8.3 66.7-23.4 97q1.8.1 3.6.2c16.6 1.9 30.8 11.3 42.4 22.8q.9.9 1.9 1.8c4.1 4.2 6.7 8.9 9.4 14.1q.4.9.9 1.9c4.9 10 6.3 19 6.2 30.1v3.9c-.3 20.5-5.8 47.2-19.3 63.5-2.7 3.5-4.6 7.3-6.6 11.3-7.3 14.2-15.8 27.8-25.5 40.4l-1.9 2.5c-4.1 5.2-8.4 10.1-12.8 15q-2.3 2.5-4.6 5.1c-6.6 7.5-13.7 13.7-21.6 19.8q-.8.7-1.7 1.4c-4.2 3.2-4.2 3.2-6.4 3.2q0 1 0 2c17.2 1.3 17.2 1.3 32.4-4.4q1.3-1.3 2.6-2.6c6.5-3.7 13.1-4 20.3-2.5 4.6 1.5 7.1 3.5 9.7 7.5 1.6 3.2 1.5 6.5 1 10-3 6-7.1 8.9-13.3 11.2-6.8 1.4-11.7 1.4-18.2-1.3-4.7-1.9-7.2-1.9-11.9-.5-11.8 2.8-27.5.6-37.8-5.8-4.4-2.4-8.2-1.1-12.9-.2-12.2 1.9-24 1.3-35.7-2.4-5.1-1.6-9.6-2.1-14.9-1.8-7.2 0-12.9-1.4-18.4-6-3.1-3.1-5.2-6-6-10.4.1-4.1.5-5.7 3.1-8.8 5.7-5 9.2-5.4 16.6-5.3 7.8.7 13.1 4.5 18.9 9.4 1.8 2.3 2.1 4 2.5 6.9q.9.1 1.8.2 1.2.1 2.5.2 1.1.2 2.3.3c2.4.3 2.4.3 4.3.8 3 .7 5.8.6 8.9.6q1.7-.1 3.5-.1 1.3 0 2.7 0-.8-1.1-1.7-2.1c-17.4-22.3-24.8-51.2-28.3-78.9q-.2-1.3-.3-2.7c-.6-5-.7-10-.7-15.1.1-1.5.1-1.5.1-3.1q0-3.1.1-6.3 0-1.4.1-2.9 0-1.3 0-2.6c-.4-2.9-1.3-3.4-3.3-5.3-1.2-3.2-1.2-3.2-2-6q-.4 1-.8 2.1-1.3 3.2-2.6 6.4-1.4 3.8-2.9 7.6-3.7 9.3-7.3 18.5L470.8 949l-28.8 75.4q-.6 1.6-1.3 3.3-4.2 10.7-8.7 21.3c-2-1-2-1-2.7-2.9q-.4-1.3-.7-2.5-.4-1.5-.9-3-.4-1.6-.8-3.3-.5-1.7-.9-3.4c-6.6-25.3-11.5-51.2-16-76.9-.3-1.9-.3-1.9-.7-3.8-9.1-50.8-16-101.7-19.3-153.2q-.1-1.2-.2-2.5C385.7 734.3 385.7 669 400 607q1 0 2 0a8.58 8.58 0 0 1 .3 1.7C406.7 626 420 641.3 432 654q1.1 1.2 2.2 2.4c12.3 13.1 32.1 27.9 50.6 30 19.8-.3 42.4-17.7 58.2-28.4q1.7-1.2 3.4-2.3c10.2-6.9 20.6-14.1 29-23.1 1.7-1.7 3.5-3.2 5.4-4.8 6.6-5.7 12.3-12.5 18.1-19 .6-.8.6-.8 1.3-1.6q1.9-2.1 3.8-4.2c2-2 2-2 4-2-12.3 46.2-32.9 90.3-52 134 1.8 0 2.9-1.8 4.2-3 10.6-9.3 23.4-14.5 37-17.8 8.4-3.7 12.7-19.2 15.9-27.3 12.2-32 21.9-73.5 7.3-106.1-3.9-8.2-3.9-8.2-10-14.7-3.9-5.1-3.4-10.9-3.6-17.2q-.2-2-.3-4.1-.2-5.4-.4-10.7-.2-4.8-.4-9.7-.4-8.6-.6-17.2-.2-4.6-.4-9.1c-.6-14.2-.6-14.2 3.2-18.4q.9-.8 1.9-1.7c18.1-16.5 28.5-47.6 34.2-70.6 1.3-3.1 3.2-4.5 6-6.4a37.11 37.11 0 0 1 4.9 5.6c2.7 3.1 4.6 4.2 8.7 4.7 6 .1 9.8 0 14.4-4.3 2-2.7 3.7-5.4 5.3-8.4 1.6-2.5 3.1-3.9 5.4-5.9 14.2-12.2 21.7-27.8 26.3-45.7q.4-1.3.7-2.7c2.9-12.2 3.7-28.5-2.2-39.9-4.5-7.1-9.1-12.2-17.5-14.4-8-1.2-14.3.4-21 5-11.3 9.2-16.7 25.8-20.8 39.2q-.4 1.3-.8 2.6-.3 1.1-.7 2.3c-.7 1.9-.7 1.9-2.7 3.9-2.1-.4-2.1-.4-4-1q-.1-1.3-.3-2.7C642 307.1 637 280.6 611 259c-4.3-3.1-8.7-6-13.2-8.9q-1.8-1.2-3.6-2.4-5.1-3.4-10.2-6.7c-26.9-17.6-51.2-37.7-70-64q-.7-.9-1.3-1.8C502.5 161 494.1 145.3 488 129c-2.1 2.1-2.9 3.7-4.1 6.5-8.7 19.1-19.6 36.2-32.9 52.5q-.6.8-1.3 1.6c-6.6 8.2-13.8 15.7-21.3 23.2q-1.2 1.3-2.6 2.7c-8.2 8.1-17 15.4-26.4 22.2-1 .7-1 .7-1.9 1.4-4.8 3.4-9.6 6.7-14.5 9.9q1.3-.5 2.6-1l3.4-1.4q1.7-.6 3.4-1.3c8.2-2.9 15.3-3.6 24-3.6q1.7 0 3.3-.1c6.9 0 14.3.2 20 4.7 2.2 2.5 3.3 4.5 3.9 7.8-.7 3.6-2 5.3-4.6 7.9-3.4 1.1-5.4.9-8.9.6-17.2-1.4-31.6.2-46.7 8.8-4 2.2-6.8 3.1-11.4 2.6-2.3-.9-2.3-.9-4-3-1-3.1-1.3-5.8-1-9 1.4-2.6 2.8-3.9 5-6q1-1 2-2-1.7.9-3.4 1.9c-10 5.7-20.2 11-30.6 16.1l-4 2-1 57q-1 0-2 0-.6-1.6-1.2-3.1-2-5.5-4-10.9-1-2.5-1.9-5c-2.8-7.8-6.9-14.3-13.9-19-5.9-2-12.8-2.3-18.6.1-8.8 5.5-13 12.8-15.7 22.6-4.4 20.7 4.1 47 15.3 64.3 4.5 6.3 9.4 11.4 15.3 16.3 2.4 2.3 3.5 4.9 4.8 7.9 1.7 3.4 4.6 5.2 7.9 6.8 5.3.5 9.7.7 14.4-1.8 2.3-2 4.5-4 6.6-6.2q.2.9.4 1.9c9 38.9 25.2 72.4 56.6 98.1q1.5.8 3.1 1.6c3.7 2 6.7 3.8 8.9 7.4 2.1 7.9 1.2 16.3.8 24.4q-.1 3.3-.1 6.7L411 561q-.1 1.5-.2 3-.1 1.5-.2 3c0 1.3 0 1.3-.1 2.6-.9 4.3-3.7 6.6-6.9 9.3q-2 1.8-3.9 3.6-.9.8-1.9 1.7C345.5 635.3 341.5 728.7 340 797q1.2.4 2.4.9c11.8 4.9 18.8 15.8 23.6 27.1 3.9 11.6 2.9 23.8-2 35-2 3.6-4.3 6.8-7 10q-.8 1-1.6 2c-7.9 8.7-19.2 13.2-30.7 14.3-12.9.5-23.9-2.8-33.7-11.3-8.6-8.1-14.3-18-15.3-30-.4-14.8 3.2-27 13.3-38.3 8.1-7.7 16.9-11.9 28-12.7q0-1.1 0-2.2c-1.2-66.3 6.6-142.8 45-198.8q.5-1 1-2c-44.6 20-87.9 40.4-125.6 72.1-2.3 1.9-4.8 3.4-7.4 4.9q-2.5 2-5 4c-4.2-5.8-6.8-11.7-8.8-18.5q-.3-1-.6-2.1c-3.1-10.8-2.8-21.9-2.8-33q-.1-1.2-.1-2.4c.1-17.2 1.8-33.8 5.5-50.7q.3-1.5.7-3c2.2-10.2 4.9-20.3 7.6-30.5 7.8-29 14.3-58 18.5-87.8q.2-1.7.5-3.5c4.3-30.9 7-62.1 8.6-93.3C261 211.7 261 211.7 290 158.8q1.5-2.8 2.9-5.6c12-23.3 28.7-45.5 49.1-62.2q1.2-1.1 2.5-2.2c40.8-35.3 93.8-54 147.4-54.1z" fill="#002242"/><path d="M487 126c2.3 3.5 3.9 7.3 5.6 11.1 14.4 32.8 36 61.9 64.4 83.9q.8.7 1.7 1.3c8.1 6.4 16.5 12.2 25.2 17.7 14.3 9 28.1 18 40.1 30q1 1 2.1 2c16.8 17.7 18.2 47 20.9 70 2-.2 2-.2 4-1 1.1-1.8 1.1-1.8 1.6-4.1q.4-1.3.8-2.6l.8-2.8c4.7-15.1 11.2-32.3 25.6-40.6 6.3-2.7 12.3-3.2 18.9-1 8.2 3.6 13.2 9.3 17.2 17.2 6.7 17.6 1.5 40-5.4 56.7-5.7 12.1-12.4 22.3-22.8 30.8-3.4 2.9-5 5.5-6.7 9.5-2 3.7-5.3 6.1-9 7.9-5.2.5-9.6.6-14.4-1.6-2.9-2.7-4.6-5.1-6.6-8.4-3.2 1.5-4.7 2.5-6.3 5.8q-.5 1.6-1 3.3l-1.2 3.8q-.3.9-.6 1.9c-7.2 24-17.9 49.2-35.9 67.2-.1 2.8-.1 5.5-.1 8.3q0 1.3 0 2.7a907.92 907.92 0 0 0 .9 33.1q.2 5.1.4 10.1.1 4.2.3 8.4.1 3 .1 6c.4 7.9 1.7 11.9 7.4 17.4 2.9 2.9 4.2 5.7 5.8 9.4q.4.9.9 1.9c13.9 32.1 4.9 71.9-6.6 103.3-10.9 27.6-10.9 27.6-17.9 30.6q-1.6.4-3.2.8c-13.9 4.3-24.7 9.6-36 19q-2 1.5-4 3c1.4-4.4 3.1-8.6 5-12.8q1-2.1 1.9-4.1.5-1.1 1-2.3c17.4-38.3 33.2-77.7 46.1-117.8-4.7 3.9-8.9 7.9-12.8 12.5-7.6 8.7-15.3 17.2-24.2 24.5q-1.3 1.1-2.6 2.2c-8 7-16.5 13-25.4 18.8-1.1.7-1.1.7-2.2 1.5-9.3 6.1-18.9 11.8-28.8 17-1.4.7-1.4.7-2.8 1.5-20.1 10.3-20.1 10.3-30.4 7.4-2.2-.9-4.3-1.8-6.5-2.8q-1.1-.6-2.3-1.1c-23.4-11.1-42.8-29-57-50.5-.6-1-.6-1-1.3-2-7.4-11.3-11.8-20.3-9.7-34q.2-1.4.3-2.9c.9-6.6 2.7-11.9 5.6-17.8 3.7-10.9 2.7-24.2 2.9-35.5q.1-3.4.2-6.7c1.1-12 1.1-12-2.2-23.1-3.4-3.6-7.5-5.7-11.8-8q-2.7-2.2-5.3-4.6-1.2-1.1-2.5-2.3-1.1-1-2.2-2.1-1-.9-1.9-1.7C360.3 468 348.9 436.1 341 404q-1.1 1.4-2.3 2.9c-2.6 3.4-5 4.9-9.3 5.4-6 .1-9.7-.1-14.4-4.3-2.4-2.6-3.9-4.8-5.3-7.9-1.8-3.3-3.4-4.9-6.3-7.2-18.7-16.3-25.5-41.9-27.7-65.8-.4-9.8 2.2-19.7 8.6-27.4 5.4-5.4 10.1-8.8 17.9-9 6.9.1 10.3 1 15.4 5.8 7.2 7.7 15.4 23.7 15.4 34.5q1 0 2 0v-57l19-10 13.5-7.2c2.8-1.4 5.5-2.7 8.5-3.8q-1.1 1.1-2.3 2.2c-1.3 1.4-1.3 1.4-2.7 2.8q-.9.9-1.9 1.7c-1.8 3.6-1.3 7.5-.1 11.3 3.6 2.4 4.8 2.5 9 2 2.5-1.2 4.9-2.4 7.3-3.8 13.1-6.9 26.4-9.3 41.1-7.9l3.5.4 3.2.4c3.5-.1 5.1-1 7.9-3.1 1.4-2.9 1.3-4.8 1-8-2.5-4.7-5.5-5.9-10.3-7.4-4.9-1.1-9.7-1.1-14.7-1.1h-3.3c-9.6.2-17.8 2.1-26.7 5.5q-3 1-6 2c2.8-3.2 6.3-5.2 9.8-7.5 12.8-8.4 24.3-17.9 35.2-28.5 1-.9 1-.9 2-1.9 8.2-8 16.1-16 23-25.1q1.4-1.8 2.8-3.6c13.4-17.3 26.2-36.5 33.2-57.4z" fill="#f8a25d"/><path d="M608 601c-9.3 35.1-23.9 68.7-38.2 102.1q-1.3 3-2.6 6-2.2 5.3-4.4 10.5-.9 1.9-1.7 3.9-1.1 2.7-2.3 5.4-.7 1.6-1.4 3.2c-2.6 5.4-6.2 9.9-10 14.6-15.5 19.8-25.3 46.7-26.8 71.7-.3 3.7-1.3 6.6-2.7 9.9q-.7 1.6-1.4 3.2-.7 1.7-1.5 3.5c-9.2 21.9-17.8 43.9-26.1 66.2l-11 29q-2 5.3-4 10.6-.5 1.3-1 2.6-4.1 10.7-8.1 21.5-8.2 21.7-16.6 43.5-1.1 2.8-2.2 5.6c-4.5 11.8-9.2 23.4-14 35-2-1-2-1-2.7-2.9q-.4-1.3-.7-2.5-.4-1.5-.9-3-.4-1.6-.8-3.3c-.5-1.7-.5-1.7-.9-3.4-6.6-25.3-11.5-51.2-16-76.9q-.3-1.9-.7-3.8c-9.1-50.8-16-101.7-19.3-153.2l-.2-2.5C385.7 734.3 385.7 669 400 607q1 0 2 0 .2.8.3 1.7C406.7 626 420 641.3 432 654q1.1 1.2 2.2 2.4c12.3 13.1 32.1 27.9 50.6 30 19.8-.3 42.4-17.7 58.2-28.4q1.7-1.2 3.4-2.3c10.2-6.9 20.6-14.1 29-23.1 1.7-1.7 3.5-3.2 5.4-4.8 6.6-5.7 12.3-12.5 18.1-19 .6-.8.6-.8 1.3-1.6q1.9-2.1 3.8-4.2c2-2 2-2 4-2z" fill="#0da5aa"/><path d="M604 497q.5 0 1 0c1.1 6.5 1.3 12.9 1.4 19.5q.2 3.7.3 7.5.2 6.1.4 12.2.1 5.2.4 10.5.1 2.9.1 5.9c.4 7.9 1.7 11.9 7.4 17.4 2.9 2.9 4.2 5.7 5.8 9.4q.4.9.9 1.9c13.9 32.1 4.9 71.9-6.6 103.3-10.9 27.6-10.9 27.6-17.9 30.6q-1.6.4-3.2.8c-13.9 4.3-24.7 9.6-36 19q-2 1.5-4 3c1.4-4.4 3.1-8.6 5-12.8q1-2.1 1.9-4.1.5-1.1 1-2.3c17.4-38.3 33.2-77.7 46.1-117.8-4.7 3.9-8.9 7.9-12.8 12.5-7.6 8.7-15.3 17.2-24.2 24.5q-1.3 1.1-2.6 2.2c-8 7-16.5 13-25.4 18.8-1.1.7-1.1.7-2.2 1.5-9.3 6.1-18.9 11.8-28.8 17q-1.4.7-2.8 1.5c-20.1 10.3-20.1 10.3-30.4 7.4-2.2-.9-4.3-1.8-6.5-2.8q-1.1-.6-2.3-1.1c-23.4-11.1-42.8-29-57-50.5q-.6-1-1.3-2c-7.4-11.3-11.8-20.3-9.7-34q.2-1.4.3-2.9c.9-6.6 2.7-11.9 5.6-17.8 3.2-9.5 2.4-20.5 2.7-30.5q0-2.2.1-4.3.2-5.3.3-10.5l10.6 8.1c23.5 18 52.9 24.9 82.2 21.6 38.8-5.6 70-29.6 95.7-57.9q2.3-2.4 4.5-4.8z" fill="#f8a15d"/><path d="M614.6 738.6h2.9c13.3 0 25.8 5.1 35.6 14.3 9.8 10.8 14.7 22.9 14.2 37.5-1.3 15.2-6 30.7-12.5 44.4-1.6 3.4-2.1 5.6-1.6 9.3.3 8.2-4.3 15-8.2 21.9q-.6 1-1.2 2.1c-13.9 25.1-38.3 65.1-67.4 74.8-2.4.1-2.4.1-4.1-.9-24.1-25.6-32.4-62-32.6-96.3q0-1.9 0-3.9 0-1.8 0-3.7 0-1.6-.1-3.3c.5-3.2 1.1-3.8 3.4-5.8.6-2.6 1.1-5.1 1.5-7.8q.4-2.3.8-4.6.1-1.1.3-2.3c3.3-20.2 9.7-39.6 23.4-55.3q1-1.1 1.9-2.3c11.8-12.7 26.6-18.3 43.7-18.1z" fill="#fef8ed"/><path d="M540 833v2.1c.5 27.6 2.9 57 16 81.9q.7 1.3 1.3 2.7c4.3 8.4 9.9 15.8 16.7 22.3 35.6-11 59.6-56.7 76.1-87.1 1-2 1-2 1.9-4.9 2.5 1.2 4.7 2.5 7 4 2.7.2 2.7.2 5.7.1q1.5 0 3 0 1.1-.1 2.3-.1c-1.7 6-4.6 11.2-7.6 16.6-.8 1.5-.8 1.5-1.7 3-3.9 7.1-8 13.8-12.7 20.4q-1 1.4-2 2.8c-6.4 9-13.3 17.5-20.7 25.7q-2.3 2.5-4.6 5.1c-6.6 7.5-13.7 13.7-21.6 19.8q-.8.7-1.7 1.4c-4.2 3.2-4.2 3.2-6.4 3.2q0 1 0 2c17.2 1.3 17.2 1.3 32.4-4.4q1.3-1.3 2.6-2.6c6.5-3.7 13.1-4 20.3-2.5 4.6 1.5 7.1 3.5 9.7 7.5 1.6 3.2 1.5 6.5 1 10-3 6-7.1 8.9-13.3 11.2-6.8 1.4-11.7 1.4-18.2-1.3-4.7-1.9-7.2-1.9-11.9-.5-11.8 2.8-27.5.6-37.8-5.8-4.4-2.4-8.2-1.1-12.9-.2-12.2 1.9-24 1.3-35.7-2.4-5.1-1.6-9.6-2.1-14.9-1.8-7.2 0-12.9-1.4-18.4-6-3.1-3.1-5.2-6-6-10.4.1-4.1.5-5.7 3.1-8.8 5.7-5 9.2-5.4 16.6-5.3 7.8.7 13.1 4.5 18.9 9.4 1.8 2.3 2.1 4 2.5 6.9q.9.1 1.8.2l2.5.2c1.1.2 1.1.2 2.3.3 2.4.3 2.4.3 4.3.8 3 .7 5.8.6 8.9.6q1.7-.1 3.5-.1 1.3 0 2.7 0-.8-1.1-1.7-2.1c-17.4-22.3-24.8-51.2-28.3-78.9q-.2-1.3-.3-2.7c-1.1-10.4-.8-20.9-.7-31.3q1.4 0 2.8 0 1.7 0 3.6.1 1.7 0 3.6 0c2.3-.1 3.9-1.1 6-1.1z" fill="#929f9c"/><path d="M609 564c10.3 6.7 15.1 21.5 17.8 32.9 6.9 38.7-5.9 80.9-24.7 114.4-2.6 3.3-4.1 3.7-8.1 4.7-13.9 4.3-24.7 9.6-36 19q-2 1.5-4 3c1.4-4.4 3.1-8.6 5-12.8q1-2.1 1.9-4.1.5-1.1 1-2.3C600.3 644 600.3 644 609 564z" fill="#fcf7ec"/><path d="M605 486c1.2 9.2 1.2 9.2-1.5 13.2-2.1 2-4.3 3.9-6.5 5.8q-1.8 2-3.5 4c-17.8 20.6-41 36.6-66.5 46-1.2.5-1.2.5-2.3.9-25.9 9.7-56.9 6.9-81.8-4-10.1-4.7-19.3-10.8-27.9-17.9q-1.1-.8-2.3-1.7c-2.7-3.6-2.1-7.2-2-11.6q.1-1.2.1-2.5.1-3.1.2-6.2a34.68 34.68 0 0 1 2.6 1.5C447.1 533 483.5 542.2 522 533q1.5-.3 3.1-.6c28.7-6.3 54-23.1 75.1-42.9 3.7-3.5 3.7-3.5 4.8-3.5z" fill="#dc670d"/><path d="M339 882c3.4 1 4 2.1 5.8 5.3q.9 2.1 1.7 4.2.5 1.1 1 2.3 1.1 2.5 2.2 5 2.8 6.7 5.6 13.4l1.2 2.7c13.3 31 27.6 61.6 45 90.6q1.9 3.2 3.8 6.5c6.5 11.1 13.8 21.8 21 32.5q2.9 4.2 5.7 8.5c4.4-3.6 8.3-7.3 12-11.7 2.4-2.8 5-5.5 7.5-8.3 6.7-7.3 13.2-14.8 19.7-22.4q5.6-6.6 11.4-13.2 6-6.9 12-14 .7-.7 1.4-1.5c2.4-2.9 4.6-5.7 6.7-8.8 7.7-10.8 7.7-10.8 14.5-12 2.8-.2 2.8-.2 4.8-.1-4.5 10.1-14.3 18.8-21.5 27.2q-3 3.5-6 7.1-1.5 1.7-3 3.4-3.8 4.5-7.6 8.9l-14.1 16.1a226.11 226.11 0 0 0-9 10.5c-3.9 4.9-8.1 9.4-12.4 13.9q-2.9 3.1-5.7 6.1-2.1 2.2-4.2 4.3c-3.9 4.3-4.9 7.5-5.1 13.3q-.1 1-.1 2-.2 3.1-.3 6.2c-.1 1.9-.1 1.9-.1 3.8q-.3 6-.4 12 0 1.1-.1 2.3l-1 51.9-1.4 59h16c-8.2 5.4-24.3 1.6-34 1q0-.5 0-1l10-1q0-1.7.1-3.5.3-16.3.6-32.6.2-8.4.4-16.8l2.4-80.6c.5-11-1.5-17.8-8.1-26.6-2.6-3.5-4.8-7.2-7.1-10.8q-.7-1.2-1.5-2.4c-10.5-16.7-20.2-33.9-29.5-51.2q-1.8-3.4-3.6-6.7c-15.9-29.1-28.8-60.3-41.7-90.8q1.2-.7 2.5-1.4c1.2-.8 1.2-.8 2.5-1.6q0-.5 0-1z" fill="#d1d4cc"/><path d="M351 607c1.3 3.5.8 5.3-.8 8.7l-1.2 2.8q-.7 1.5-1.4 3.1c-9.1 21.2-15.8 42.8-20.6 65.4q-.3 1.3-.6 2.7c-7.3 34.2-8.5 69.4-9.4 104.3q-3.1.8-6.2 1.5l-3.6.8c-3.2.7-3.2.7-7.2.7q-2.4-6.2-4.7-12.3-.7-1.7-1.4-3.5-1.3-3.4-2.6-6.9-1.3-3.2-2.6-6.4-.5-1.5-1.1-2.9l-1-2.6c-.7-2.9-.5-4.6.4-7.4 1.8-1.9 3.4-3.6 5.4-5.3q.8-.7 1.6-1.4c3.5-3.1 7.1-6.1 10.8-9.1q1.3-1 2.6-2.2 2.5-1.9 5-3.7c4.2-3.1 6.3-5.8 7.5-10.9.1-4.4-.9-6.8-3.9-10-3.8-3.7-7.9-7.1-12-10.4q-3-2.5-5.9-5.1-1.1-.9-2.3-1.9c-2.2-2.4-2.5-3.8-2.8-7 .9-2.3.9-2.3 2.3-4.6q.8-1.3 1.7-2.6.9-1.5 1.8-2.9.9-1.5 1.9-3.1 3.1-4.9 6.3-9.8l1.1-1.7C321 643.4 334 623.7 351 607z" fill="#e5e4db"/><path d="M742.7 808.3q1.1.4 2.3.7c.2 7.9-.3 15.6-1.1 23.5-4.1 41.2-6.6 82.7-7.4 124.2q-.1 1.5-.1 3l-.5 90.5q0 8.5 0 17l.9 95.2c.3 10.5.3 21.1.2 31.6-3.7 2-3.7 2-6.3 1.6-.8-.3-.8-.3-1.7-.6-2-31.6-2.2-63.3-2.2-94.9q0-4.4 0-8.9 0-15.6 0-31.3 0-14.3 0-28.7 0-12.5 0-25 0-7.4 0-14.8c-.1-38.7 1.4-77.3 4.3-115.9q.4-5.3.8-10.7l3.6-42.2q.1-1.7.3-3.4.2-1.6.3-3.2.2-1.3.3-2.7c1-3.8 2.3-5.5 6.3-5z" fill="#d1d4cc"/><path d="M219 783c4.6.6 4.6.6 6 2q0 2.2-.2 4.5l-.3 2.9q-.1 1.6-.3 3.2-.1 1.7-.2 3.4-.8 8.9-1.7 17.8c-3.7 35.4-5.6 70.8-5.7 106.4q0 3 0 6c-.1 19.4 1.2 38.5 3.4 57.8q.2 1.7.4 3.4 1.3 10.8 2.7 21.6c3.1 24.4 5.3 48.3 5.2 72.9q-.1 1.8-.1 3.5c0 18.6-.6 37.1-2.2 55.6q-.2 2.2-.4 4.3c-2.3 26.5-2.3 26.5-3.6 32.7-3.9 1.1-5.5.9-9-1q.3-1.5.6-3c8.3-48.4 9-101.4 2.4-150q-.5-3.8-1-7.6-1-7.6-2-15.1l-2.7-21.8q-.2-1.6-.3-3.2-.6-4.6-1-9.3-.1-1.5-.3-3c-1-11.3-.9-22.7-.8-34.1q0-5.3 0-10.7c0-22.3.6-44.6 2.4-66.8q0-1.2.1-2.5l3.8-42.4q.4-3.4.7-6.7.4-4.6.9-9.3.2-1.4.3-2.8.1-1.3.3-2.6.1-1.1.2-2.3c.4-1.8.4-1.8 2.4-3.8z" fill="#d2d4cc"/><path d="M609 1068c10.1 7.3 17.7 17.9 21 30 .8 5.7.3 10.1-3 15-5.7 5.1-9.3 5.2-16.8 5.2-3.6-.2-6.7-1.2-10.2-2.2-5.7-.5-10.6-.3-16.1 1.6-5.1 1.7-9.6 2-14.9.4-4.2-2.5-7.2-5.4-9-10-1.7-9.8 2.7-18.6 7.8-26.8 10.1-14.2 24.6-22.5 41.2-13.2z" fill="#0da3a9"/><path d="M334.1 811.8c8.9 5.5 13.6 12.4 16.9 22.2.8 9.8-.8 18.2-7 26-6.8 7-12.6 10.1-22.4 10.5-8.3-.2-14.4-3.2-20.5-8.8-6.8-7.4-8.6-15.4-8.5-25.2.9-8.1 5.4-15.6 11.5-21.1 8.5-6.3 20.1-8 30-3.6z" fill="#f38f41"/><path d="M423.4 415.2c2.9.9 4.2 1.9 6.4 3.9q1 1 2 1.9 1.1 1 2.2 2c18.6 16.3 42.3 18.4 66 17 15.8-1.8 29.6-9.9 40.9-20.9 4.3-4.1 4.3-4.1 8.9-4.2 3.2 1.1 3.2 1.1 5.2 4.1.4 2.3.4 2.3 0 5-1.7 2.2-3.2 3.9-5.1 5.8l-1.7 1.5c-19 17.9-43.2 23.6-68.7 22.8-23-1.2-43.2-9.9-59.5-26.1q-.9-.8-1.8-1.6c-1.2-1.4-1.2-1.4-1.6-4.3.4-3.1.4-3.1 2.1-5.5 2.3-1.6 2.3-1.6 4.7-1.4z" fill="#031e41"/><path d="M473.6 309.7c2.4.3 2.4.3 4.4 2.3 1 6.9-.6 13.5-2.6 20.1q-.4 1.3-.8 2.7c-3 10-6.8 19.8-11.6 29.1q-.5 1-1 1.9-1.3 2.5-2.7 5.1c-1.8 4.4-2 8.2-.4 12.8 4.6 5.1 11.4 6.8 18.1 7.3 4.3.1 8.2 0 12.4-.6q1.8-.2 3.6-.4c2 2 2 2 2.5 4.9-.5 3.1-.5 3.1-3.3 5.4-5.6 2.9-10.6 2.9-16.9 3q-1.3.1-2.6.1c-9.1.1-16.4-3.1-23-9.3-4.5-5.4-6.1-11.8-6-18.8 1-7.5 4.6-13.6 8.2-20.2 5.7-10.7 10.1-21.3 13.1-33.1q.7-2.6 1.6-5.2l.6-2c1.4-3.2 2.9-4.7 6.4-5.1z" fill="#051f41"/><path d="M654 758q2.6 2.4 5 5 0 1 0 2 1.5 0 3 0l1 3q-2-.5-4-1-.4 1.3-.8 2.7c-1.1 3.1-2.5 5.8-4.1 8.8l-1.8 3.1-2 3.3q-.5.9-1 1.8c-6.5 11.2-13.5 22-20.7 32.8-2.2 3.4-4.4 6.9-6.5 10.4a711.64 711.64 0 0 1-13.2 20.4q-1 1.5-2 3-5.8 8.7-12 17.1c-2.9 4-5.7 8-8.5 12.1-8.9 12.7-18.1 25.1-27.4 37.5l-5-4c.5-4.5 1.3-6.9 4.2-10.2 6.4-7.6 12.1-15.7 17.8-23.8q.8-1.1 1.6-2.2c27.7-38.9 54.8-79.2 76.4-121.8z" fill="#d1d4cc"/><path d="M592 252c8 6.1 8 6.1 10 11 .6 5 .8 6.9-2.1 11.1-2.9 1.9-2.9 1.9-5.7 2.1-3.7-1.4-6.4-3.3-9.6-5.6-13.3-8.4-26.8-8.9-42.1-8.3q-1.7 0-3.5 0c-1.5.1-1.5.1-3.1.1-3.7-.5-5.3-1.9-7.9-4.4-1.5-2.9-1.4-4.8-1-8 2.4-4.1 4.6-6.2 9.1-7.9 18.2-4.5 40.5-.9 55.9 9.9z" fill="#042041"/><path d="M666 589q1.9.2 3.9.3l2.2.2c1.9.5 1.9.5 3.9 3.5l1.1 8.1.3 2.5q.5 4 .9 8.1.5 4.3 1 8.5.3 3 .7 5.9l4.1 33.4c3 23.5 3 23.5 3.2 32.9q.1 1.5.1 3c-.5 3.5-1.6 4.4-4.4 6.6-2.8 1.7-5.6 3.2-8.4 4.8-6.8 3.6-6.8 3.6-13.4 7.6q-.9.6-1.8 1.2-2.2 1.5-4.5 3c-3.6 1.7-6 1.9-9.9 1.4-1.9-2-1.9-2-3-4q12.2-8 24.8-15.6l2.6-1.6q1.3-.7 2.5-1.5 1.1-.7 2.3-1.3c1.8-1 1.8-1 3.8-1-1.2-19.8-3.6-39.4-6.3-59.1q-1.2-9.2-2.4-18.5-.4-3.1-.9-6.3c-1-7.4-1.8-14.7-2.4-22.1z" fill="#d1d4cb"/><path d="M432.4 305.4c6 4.3 10.9 9.6 13.6 16.6.5 3.5.7 6.8-1.1 10-3.1 1.6-5.4 1.5-8.9 1-2.7-2.6-4-5.1-5.6-8.5-2.7-4.9-7.3-6.8-12.4-8.5-6.8-1.3-13 .8-19 4-3.1 2.5-4.9 4.9-7.1 8.2-1.9 2.8-1.9 2.8-4.9 4.8-6.5-.5-6.5-.5-9-3-.9-6.5.7-10.3 4.2-15.7 11.9-15.5 33.5-18.7 50.2-8.9z" fill="#041f41"/><path d="M577.3 306.3c6 4.2 11.8 10.4 13.7 17.7.5 5.2.5 5.2-1.2 7.9-2.5 1.6-3.9 1.7-6.8 1.1a33.1 33.1 0 0 1-5-6.8c-3.4-5.2-7-7.7-13-9.2-7.4-.9-13.9-.6-20 4-2.3 2.3-2.3 2.3-4 5q-1.1 1.6-2.2 3.2L537 332c-1 1-1 1-4.4 1.2-3.6-.2-3.6-.2-5.3-1.5-1.6-2.2-1.6-3.1-1.4-5.8 1.2-7.5 5.6-12.9 11.3-17.7 12.6-9.1 26.6-9.7 40.1-1.9z" fill="#041e41"/><path d="M342 629c1.3 3.8.5 5.2-.9 9l-1.3 3.7-.7 1.9c-8 23-12.9 46.4-17.1 70.4q-.5 0-1 0 0-1.8-.1-3.6c-.7-5.4-3.7-7.8-7.7-11.2l-1.9-1.7c-3-2.6-6.1-5.2-9.3-7.5 1.3-3.6 2.9-6.7 5-9.9q.8-1.3 1.7-2.8 1-1.4 1.9-2.9 1-1.4 1.9-3 2.8-4.2 5.5-8.4.6-1 1.3-2c7.1-10.9 14.8-21.6 22.7-32z" fill="#fcf8ee"/><path d="M513.6 931.6c5.8 2.4 12.5 6.7 15.4 12.4.5 3.7.8 7.4-.9 10.9-2.9 3.7-5.6 5.3-10.1 6.1-9 .8-17 .1-24.1-5.8-3.1-3.1-5.2-6-6-10.4.1-4.1.5-5.7 3.1-8.8 6.7-5.9 13.8-6.5 22.6-4.4z" fill="#021f3c"/><path d="M652 947c4 4.2 5.4 7.1 5.3 12.9-.7 4.8-3.5 7.5-7.1 10.3-7 3.9-14.1 5.1-21.9 3.1-4.1-1.5-6.8-2.8-9.9-6.1-1.7-3.9-2.5-7.1-1.4-11.2 3.2-5.5 7.7-9.1 13.5-11.4 7.6-1.9 14.6-1.1 21.5 2.4z" fill="#011f3c"/><path d="M334.1 379.1c3.7 2.6 6.1 4.7 7.9 8.9.7 6.7 1.2 13.4-3 19-5.2 4.7-8.4 5.4-15.2 5.3-5.2-.5-7.8-3.2-11.1-6.9-3.8-5.4-3.5-11-2.7-17.4 2.1-4.9 5.1-8 10-10 5.4-1.6 9.1-1.7 14.1 1.1z" fill="#fdc022"/><path d="M673 378c4.9 2.3 7.8 5.1 10 10 .7 5.9.9 11.1-1.7 16.6-6.8 7.2-6.8 7.2-11.7 7.6-6.1.2-9.9.1-14.6-4.2-4-4-4.3-7.5-4.5-13 .2-7.2 1.8-10.4 7-15.4 5.2-2.4 9.9-2.4 15.5-1.6z" fill="#fdc121"/><path d="M620 1021c3.7 3.4 6.6 6.8 7.2 11.9.3 7.7-1.9 14.5-6.7 20.6-3.4 3.4-5.1 4.3-9.9 4.9-4.6-.5-6.4-2-9.6-5.4-2.6-4.3-2.6-9.1-2-14 2-7.6 5.6-14.4 12.5-18.5 3.4-.7 5.2-.6 8.5.5z" fill="#0ea2a8"/><path d="M579 1021c6.2 3.1 8.8 8.7 11.1 15 1.7 5.6 1.7 9.9-.4 15.4-3.4 5.2-3.4 5.2-6.8 6.3-4 .5-6.3.5-10.2-1.1-6-5.7-9.7-12.7-10-21.1.1-5.4 1.8-8.9 5.5-12.9 3.7-2.1 6.7-2.6 10.8-1.6z" fill="#0da2a7"/><path d="M696 317c3.8 2 5.6 3.5 8 7 .3 2.6.3 2.6 0 5-3.6 2.4-4.6 2-8.8 1.4-3.9-.4-5.9-.5-9.6.9-6.6 6.8-9.8 15.2-13.2 23.9-2.5 6.4-2.5 6.4-5.4 8.8-2.6-.2-2.6-.2-5-1-2-4-.6-9.1.7-13.2q1.3-3.4 2.9-6.7c.5-1.1.5-1.1 1-2.3 4.4-9.3 9.4-17.5 18.4-22.8 3.7-1.2 7.1-1.5 11-1z" fill="#dc660d"/><path d="M318 728c1.8 3.6 1.1 7.3 0 11-2 2.7-4.5 4.6-7.1 6.7q-1 .8-2 1.6a243.41 243.41 0 0 1-8 6.2q-1 .8-2 1.5c-.8.7-.8.7-1.7 1.3-1.5 1.7-1.5 1.7-1 4.5.8 3.4 2 6.5 3.4 9.7q.7 1.9 1.5 3.7 1.2 2.9 2.4 5.8 1.2 2.8 2.3 5.6.7 1.7 1.4 3.4c.9 3.5.5 4.9-1.2 8q-3 0-6 0-2.4-6.2-4.8-12.3-.6-1.7-1.3-3.5-1.3-3.4-2.6-6.9-1.3-3.2-2.6-6.4-.5-1.5-1.1-2.9-.5-1.3-1-2.6c-.7-2.9-.5-4.6.4-7.4 1.8-1.9 3.4-3.6 5.4-5.2.8-.8.8-.8 1.6-1.5 4.4-3.9 8.9-7.6 13.4-11.2L318 728z" fill="#d1d4cb"/><path d="M552 1048c5.5 2.7 8.3 6.7 11 12 1.6 4.8 1.6 8.6-.4 13.4-1.6 2.6-1.6 2.6-3.6 3.6-4.1.4-6.4.3-10.1-1.6-4.5-3.7-8.4-7.6-9.9-13.4-.4-5-.1-8 3-12 3.8-2.5 5.5-2.5 10-2z" fill="#0fa1a7"/><path d="M644 1048c2.8 1.8 4.5 3.1 6 6 .5 4.8.6 8.8-1.6 13.3-8.4 9.4-8.4 9.4-14.8 10-3.6-.3-3.6-.3-5.8-2-2.8-3.6-2.5-6.6-2.3-11.1.8-5.2 3.1-9.3 6.5-13.2 4.2-2.9 6.9-3.6 12-3z" fill="#0ea1a7"/><path d="M307 320c11.1 5.2 16.7 20.2 21 31 1.2 4.4 2.1 9.8 0 14-2.3-.2-2.3-.2-5-1-1.4-2.3-1.4-2.3-2.5-5.3q-.6-1.6-1.3-3.2-1.2-3.5-2.5-7c-3.3-9.8-3.3-9.8-10.7-16.5-3.3 0-6.7.1-10 .2-3-.2-3-.2-5-2.2.1-3.7 1-5 3.4-7.8 4.3-3.7 7.3-3.4 12.6-2.2z" fill="#db660d"/><path d="M542 931c3.4 3.2 6.1 6.8 8.7 10.6q.6.9 1.2 1.8c2.9 4.3 2.9 4.3 4.1 6.6-9.5.4-17.8-.4-27-3 1.3-5.4 3.5-7.8 7.6-11.4q.8-.6 1.6-1.3 1.9-1.7 3.8-3.3z" fill="#fbf7ed"/></svg>