<svg xmlns="http://www.w3.org/2000/svg" width="1024" height="1278" xmlns:v="https://vecta.io/nano"><path d="M491.3 60.9c47.2-1 114.9 3.5 151.7 37.1l3.1 2.3c9.2 8.5 17.4 19.6 20.9 31.7.1 3.4.1 3.4 0 6q1.9.3 3.9.7c11.2 2.5 20.4 9.9 26.7 19.4 7.7 12.8 15.4 28.3 15.6 43.6v2.7q0 1.4 0 2.9v3.1q0 5 .1 10 0 1.7 0 3.4c-.1 18.3-.8 36.1-3.3 54.2q-.2 1.8-.5 3.7c-2.9 20.5-2.9 20.5-5.5 30.3q1.2 0 2.3.1c9.8.5 16.3 2.6 23.1 9.8 8.9 11.7 10.2 27.1 8.3 41.3-3.3 19.7-12.8 40.7-29.3 52.7-11.3 7.6-20.1 8.5-33.4 8.1-.4 1.2-.4 1.2-.7 2.5-22.2 74.7-22.2 74.7-43.8 94.9-4.4 4.3-5.2 7.6-5.3 13.7q.1 1.5.1 3 0 1.6 0 3.3 0 3.3.1 6.7.1 5.1 0 10.2c-.5 21.1-.5 21.1 8.2 39.6q.9.8 1.8 1.7.8.8 1.7 1.7c1.9 1.8 1.9 1.8 4.4 3.6 18.4 15.1 27.3 41.5 30 64.4 2.7 28-2 55.5-6 83-3.1 21.2-5.4 42.4-7.5 63.7q-1.1.3-2.3.7c-13.8 4.3-25.6 11.3-32.7 24.4-7 13.9-8.9 26.7-5 41.8 4.2 12.8 14.5 23.5 26 30.1 12.2 5.8 25.9 7.1 38.9 3.4 5.9-2.1 11-4.8 16.1-8.4l1.9-1.3c8.7-6.7 15.5-18.9 17.1-29.7 1.4-17.3-1.5-30.5-13-44-4.4-5.2-8.7-8.4-15-11q-1.9-.8-3.7-1.6-1.7-.7-3.3-1.4c.7-17.3 2.8-34.2 5.4-51.3 7.6-50.5 13.5-98.8-5.4-147.7 8.4 2.5 16.3 6.2 24.3 9.8q1 .5 2.1 1c98.3 45 98.3 45 127.6 76.2q0 1 0 2 2 1 4 2 0 1 0 2 1 0 2 0 2.1 2.4 4.1 4.9 1.2 1.5 2.5 3 1.2 1.5 2.4 3.1 1 1.2 2.1 2.4c5.8 7.1 10.4 14.6 14.9 22.6q1 1.7 2 3.5c13.5 24.4 19.1 53 23.4 80.2.2 1.1.2 1.1.3 2.1 2.3 15 4.2 29.9 6 44.9q.4 3.2.8 6.5l9.3 87.7q.3 3.2.6 6.4 3.4 34.9 6.6 69.7.1 1.1.2 2.2 1.2 13.4 2.4 26.8.3 3.7.7 7.4c1 11.4 1.9 22.7 2 34.1 0 1.2 0 1.2.1 2.5 0 11.6-4.3 19.5-12.1 27.8-15.2 14.4-37 22-56.5 28.4q-1.8.6-3.7 1.2c-20.2 6.4-40.9 10.8-61.7 14.6q-1.8.3-3.5.6c-32.2 5.9-64.5 9.9-97 13.1q-1.5.2-3.1.4c-25.2 2.5-50.4 4.1-75.7 5q-1.8 0-3.7.1-27.6.9-55.3 1.4-1.6.1-3.3.1c-23.8.4-47.7.3-71.5-.1q-1.1 0-2.3 0c-23-.3-46-1-69-2.5q-4.8-.3-9.7-.5c-187.8-10.9-187.8-10.9-265.6-50.2-1.3-.6-1.3-.6-2.6-1.3-11.5-6.2-21.5-13.9-26.3-26.4-1.3-4.4-1.3-8.5-1.2-13.1 0-1.5 0-1.5.1-3 .2-12.4 1.4-24.7 2.6-37q.3-3.5.6-6.9l10.4-102q.2-1.2.3-2.5l10.7-84.9q1-7.5 2-15c3.9-29.4 9.1-58.2 18.7-86.3q.7-2.2 1.4-4.3c7.8-23.1 21.1-44.8 38.1-62.2q2.4-2.4 4.7-4.9c34.3-35.9 84.1-59.3 129.4-78.2 1-.4 1-.4 2.1-.9 10.9-4.5 10.9-4.5 13.3-4.5q-2.2 7.4-4.5 14.8-.8 2.5-1.5 5-.4 1.2-.7 2.4c-5.3 17.8-5.8 36.2-6 54.6q0 3.3-.1 6.5-.1 7.9-.2 15.7-1.8.5-3.7 1-2.4.6-4.8 1.3-1.2.3-2.4.6c-13.9 3.8-24.2 10.9-34.1 21.1q-1 1-2 2c-16.8 17.6-21.6 42.3-21.4 65.8q0 1.1 0 2.2c-.2 22.9-.2 22.9 9.2 42.9 4.2 2.1 8.7 1.7 13.2 1.1 3-1.8 4.5-2.9 6-6 .6-6.2-.1-11.9-1.5-17.9-1.7-7.9-1.9-15.6-1.9-23.7q0-2 0-4c0-18.8 5.4-34.5 18.7-47.8 13.1-12.5 26.5-16.2 44.2-15.9 13.9.6 27.2 6.8 36.7 17.1 14 17.2 16.8 36.7 15.8 58.2-.6 5.3-1.5 10.4-2.6 15.6-1.1 5.9-.7 10.3 2.6 15.4 4.2 2.6 8.2 2.5 13 2 3.8-1.4 4.7-2.5 6.5-6.2 4.8-11.5 5-24.4 4.9-36.7q0-1.1 0-2.3c-.1-25-7.4-47.8-25.1-66.1-12.6-12.4-28.2-18.3-45.3-21.7-1.1-4.4-1.2-8.7-1.2-13.2q0-1.2 0-2.4 0-2.5 0-5-.1-3.8-.1-7.6c-.1-14.6 1.6-28.9 6.1-42.9q.3-1.3.7-2.5c6.9-21.4 17.7-40.3 36.5-53.4q2.2-1 4.5-2c2.8-1.7 3.4-2.8 4.4-5.9 1.8-11.8 1.4-23.9 1.1-35.7q0-5.1.1-10.1-.1-3.2-.1-6.4 0-1.5.1-3c-.2-5.4-.9-8.3-4.8-12.1q-1.1-1-2.2-2c-3-2.6-5.2-5.6-7.5-8.8q-.7-1-1.4-1.9c-5-7.1-9.2-14.5-13.2-22.1q-.5-.9-1-1.9c-9.3-17.7-20-41.9-20-62.1q-1.4.1-2.9.1c-15.1.5-25.3-3.9-36.5-14.4-15.1-15.7-23.1-37.9-23-59.5.4-12.4 4-23.3 12.5-32.4 4.5-4.2 8.7-6 14.9-6.1q2 .1 4 .3-.3-1-.6-2.1c-2.6-10.5-4.1-21.1-5.4-31.9q-.2-1.2-.3-2.5c-1.8-13.9-1.9-27.9-1.9-41.9-.1-1.3-.1-1.3-.1-2.7 0-14.8.4-29.8 4.4-44.2q.3-1.1.6-2.3c12.2-42.8 42.3-78.3 80.5-100.3 29.4-16.3 62.8-23.4 96.1-24.2z" fill="#fcf4e8"/><path d="M491.3 60.9c47.2-1 114.9 3.5 151.7 37.1l3.1 2.3c9.2 8.5 17.4 19.6 20.9 31.7.1 3.4.1 3.4 0 6q1.9.3 3.9.7c11.2 2.5 20.4 9.9 26.7 19.4 7.7 12.8 15.4 28.3 15.6 43.6q0 1.3 0 2.7 0 1.4 0 2.9 0 1.6 0 3.1 0 5 .1 10 0 1.7 0 3.4c-.1 18.3-.8 36.1-3.3 54.2q-.2 1.8-.5 3.7c-2.9 20.5-2.9 20.5-5.5 30.3q1.2 0 2.3.1c9.8.5 16.3 2.6 23.1 9.8 8.9 11.7 10.2 27.1 8.3 41.3-3.3 19.7-12.8 40.7-29.3 52.7-11.3 7.6-20.1 8.5-33.4 8.1-.4 1.2-.4 1.2-.7 2.5-22.2 74.7-22.2 74.7-43.8 94.9-4.4 4.3-5.2 7.6-5.3 13.7q.1 1.5.1 3v3.3q0 3.3.1 6.7.1 5.1 0 10.2c.1 12.4.5 24 4.7 35.7 8 25.7-3.2 65.3-8.1 91q-.3 1.7-.6 3.4c-14.9 78.7-42 155.1-68.4 230.6q-.4 1.1-.8 2.2-4.1 11.8-8.4 23.5-1.5 4.1-2.9 8.2l-25.5 69.8q-.4 1.1-.8 2.2-1.1 3-2.3 6-.6 1.6-1.2 3.3c-.9 2.4-1.9 4.6-3.1 6.8-1.5-1.5-1.4-2.9-1.7-5-1.4-7.1-3.8-13.9-6.2-20.7q-1.9-5.4-3.7-10.7-1-3-2.1-5.9l-12.8-37.8q-3.1-9-6.1-18-.3-1-.7-2-4.9-14.4-9.8-28.9l-26.1-79.4q-1.2-4-2.5-7.9c-7.3-23.5-13.8-47-19.8-70.8q-.7-2.9-1.4-5.7c-6.8-26.8-12.5-53.8-16.1-81.2q-.2-1.7-.5-3.5c-2-16.5-2.8-32.9-2.8-49.6v-2.7q0-3.9 0-7.7 0-1.2 0-2.4c.1-4.4.8-7.9 2.3-12.1 1.8-11 1.2-22.4 1-33.5q0-5.1.1-10.2-.1-3.2-.1-6.4 0-1.5.1-3c-.2-5.4-.9-8.3-4.8-12.1q-1.1-1-2.2-2c-3-2.6-5.2-5.6-7.5-8.8q-.7-1-1.4-1.9c-5-7.1-9.2-14.5-13.2-22.1q-.5-.9-1-1.9c-9.3-17.7-20-41.9-20-62.1q-1.4.1-2.9.1c-15.1.5-25.3-3.9-36.5-14.3-15.1-15.8-23.1-38-23-59.6.4-12.4 4-23.3 12.5-32.4 4.5-4.2 8.7-6 14.9-6q2 0 4 .2-.3-1-.6-2.1c-2.6-10.5-4.1-21.1-5.4-31.9q-.2-1.2-.3-2.5c-1.8-13.9-1.9-27.9-1.9-41.9q-.1-1.3-.1-2.7c0-14.8.4-29.8 4.4-44.1q.3-1.2.6-2.4c12.2-42.8 42.3-78.3 80.5-100.3 29.4-16.3 62.8-23.4 96.1-24.2z" fill="#feaf66"/><path d="M491.3 60.9c47.2-1 114.9 3.5 151.7 37.1l3.1 2.3c9.2 8.5 17.4 19.6 20.9 31.7.1 3.4.1 3.4 0 6q1.9.3 3.9.7c11.2 2.5 20.4 9.9 26.7 19.4 7.7 12.8 15.4 28.3 15.6 43.6q0 1.3 0 2.7 0 1.4 0 2.9 0 1.6 0 3.1 0 5 .1 10 0 1.7 0 3.4c-.1 18.3-.8 36.1-3.3 54.2q-.2 1.8-.5 3.7c-2.8 19.7-2.8 19.7-4.7 26.9-1.1 3.2-1.1 3.2.2 5.4l-3.8.4c-2.2.5-2.2.5-4.2 1.6-2.2 3.7-2.8 7.9-3.6 12.1-1.6 3.4-3.2 4.1-6.7 5.4q-1 .3-2.1.7-1 .4-2.1.7c-15 5.1-15 5.1-22.5 5.1q.1 1.2.1 2.5c.6 17.6-4.7 32.4-16.8 45.3-12.7 13-28.8 19.1-46.9 19.6-18.7-.6-34.8-8.2-47.6-21.8-5.1-6-8.7-12.4-11.8-19.6q-.5-1.1-1-2.3c-1.6-4.2-2.1-8.1-2.1-12.6.4-9.3.4-9.3-2.7-17.7-2.4-1.6-4.5-2.5-7.2-3.4q-1.4-.5-2.9-1.1c-7.5-2.2-15.6-2.1-22.7 1.4-3.4 1.8-6.1 3.6-8.4 6.7-.7 3-.8 5.9-1 8.9-1.5 18.8-8.4 33.1-22 46.1-13.2 11.1-29.3 15.8-46.5 15.3-19.4-1.9-34.2-11-46.4-25.7-9-12.5-12.9-26.2-12.1-41.6q-1.5-.3-3-.7c-7-1.7-14-3.5-20.9-5.6q-1.7-.5-3.4-1.1c-2.7-1.6-2.7-1.6-4.1-5l-1.1-7.9c-.4-2-.4-2-1.5-3.7-3.2-1.6-6.5-2.4-10-3-2.9-11.2-4.6-22.5-6-34q-.2-1.2-.3-2.5c-1.8-13.9-1.9-27.9-1.9-41.9q-.1-1.3-.1-2.7c0-14.8.4-29.8 4.4-44.1q.3-1.2.6-2.4c12.2-42.8 42.3-78.3 80.5-100.3 29.4-16.3 62.8-23.4 96.1-24.2z" fill="#b75e00"/><path d="M629 624q.5 0 1 0c-.5 12.3-1.7 24.3-3.8 36.5q-.4 2.5-.8 5.1-1 6.1-2 12.3-.5 2.8-1 5.6c-13.1 80.3-42.6 159-69.4 235.5q-.4 1.1-.8 2.2-4.1 11.8-8.4 23.5-1.5 4.1-2.9 8.2l-25.5 69.8q-.4 1.1-.8 2.2-1.1 3-2.3 6-.6 1.6-1.2 3.3c-.9 2.4-1.9 4.6-3.1 6.8-1.5-1.5-1.4-2.9-1.7-5-1.4-7.1-3.8-13.9-6.2-20.7q-1.9-5.4-3.7-10.7-1-3-2.1-5.9l-12.8-37.8q-3.1-9-6.1-18-.3-1-.7-2-4.9-14.4-9.8-28.9l-26.1-79.4q-1.2-4-2.5-7.9c-7.3-23.5-13.8-47-19.8-70.8q-.7-2.9-1.4-5.7c-8.1-32.2-14.6-64.7-17.8-97.8q-.2-1.9-.4-3.9c-.6-6.5-1-12.9-.9-19.5 2.4 2.3 4.7 4.8 6.9 7.4 9.4 10.7 19.4 20.4 31.1 28.6q1.6 1.1 3.2 2.3c23.4 15.8 48.7 24.2 76.9 24q1.1 0 2.2 0c11.1 0 21.9-.4 32.7-3.3l2.2-.6c16.6-4.5 32.4-12.5 45.8-23.4q.8-.7 1.7-1.3c12.6-10.2 23.2-21.9 30.3-36.7z" fill="#00a4ae"/><path d="M646 171q-.1 1.3-.1 2.7c-.4 12.2 1.5 23.5 4.1 35.3.2 1.1.2 1.1.5 2.2 2.7 12.6 7.8 24.3 12.8 36.1 4.6 11.1 8.3 22.2 10.4 34q.3 1.9.7 3.8c1.4 8.9 1.7 17.5 1.7 26.5q0 1.8-.1 3.6 0 4.4 0 8.8c-9.4 3.3-9.4 3.3-14.1 3.7q-1.9.1-3.9.3l-.8-2.6c-5.2-16.2-14.6-29.4-30.1-37.3-15.4-7.3-35.1-9.6-51.5-4-18.1 7.3-29.6 19.3-37.6 36.9q-.5 2-1 4-3.7-1.5-7.4-3c-4.9-2.1-9.3-3.6-14.6-4q-1.1-.1-2.2-.2c-9.8-.5-18.6 3-26.8 8.2q-.4-1.2-.8-2.5c-3.6-10-8.2-18.3-16.2-25.5q-.8-.8-1.7-1.6c-13.6-13-30.3-15.3-48.4-14.8-16.2.8-29.8 8.9-40.9 20.4-7 7.9-10.4 16.2-14 26l-16-4c-1.7-102.7-1.7-102.7 25.8-132.4 6-5.5 11.9-8.8 20.2-9.2 13.1.5 26.1 3.8 38.9 6.7 13.2 2.9 26.5 4.7 39.9 6.5q3.9.5 7.9 1.1c13.9 1.9 27.8 2.5 41.8 2.5q1.1 0 2.2 0c12.9 0 25.5-.6 38.3-2.2q1.3-.2 2.6-.3c27.6-3.5 52.2-11.2 76.5-24.8 1.9-.9 1.9-.9 3.9-.9z" fill="#feaf66"/><path d="M630 596c17.7 8.5 29.7 30.4 36 48 11.3 35.5 4.8 72.4-.5 108.3-3.1 21.2-5.4 42.4-7.5 63.7-1.1.3-1.1.3-2.3.7-13.8 4.3-25.6 11.3-32.7 24.4-7 13.9-8.9 26.7-5 41.8 3.8 11.7 12.8 21.6 23 28.1q-1.5.5-3 1l-9-8c-3 3.7-5.9 7.5-8.6 11.4q-.7 1-1.3 1.9-2.7 3.7-5.3 7.4c-10.2 14.4-20.7 28.6-31.5 42.6q-3.8 5-7.7 10-.8 1.1-1.6 2.2-5.5 7.2-10.9 14.4c-5.5 7.4-11.1 14.6-16.8 21.9q-4.2 5.4-8.4 10.8c-5.8 7.6-11.8 15-17.9 22.4q-.8.9-1.5 1.9-2.1 2.5-4.2 5.1-1.2 1.4-2.5 2.9-.9 1.1-1.8 2.1-.5 0-1 0-.1-4.2-.1-8.4-.1-1.2-.1-2.4v-2.4q0-1 0-2.1c.7-8.4 3.7-16.1 6.6-23.9q1.4-3.6 2.8-7.3.7-1.9 1.4-3.7 3.4-9.1 6.7-18.2.7-1.8 1.4-3.7l51.5-146.4q1.1-3.5 2.3-7c21.2-62.8 38.8-127.7 47.5-193.5q.2-1.3.4-2.5c1.9-14.5 1.8-28.9 1.6-43.5z" fill="#fbf3e8"/><path d="M623 555q1 0 2 0v1.8c.4 18.8.4 18.8 5.1 36.8 2.9 10.7 3.5 26.1-1.9 36.1-1.9 2.9-3.9 5.6-6.2 8.3q-1.2 1.4-2.4 2.9c-2.1 2.4-4.4 4.8-6.6 7.1q-1.5 1.8-2.9 3.6C591 673.9 559.6 686.8 531 690c-5.4.3-10.7.4-16.1.4h-2.2c-11.9-.1-23.2-1-34.7-4.4q-1-.3-2-.6c-24.2-7.5-45-21.9-63-39.4q-.8-.8-1.7-1.6-2.7-2.6-5.3-5.2-.8-.8-1.6-1.6-.8-.8-1.6-1.6-.7-.6-1.3-1.3c-4.4-5-6-8.4-6-15.1v-2.1q.1-2.1.1-4.3 0-3.3 0-6.6c.1-6.3.4-11.6 2.4-17.6q.4-3.7.6-7.4.1-1 .2-2 .2-3.3.3-6.5.2-2.2.3-4.4.3-5.3.6-10.7c4.3 3.6 8.4 7.3 12.5 11.2 10.7 9.9 22.6 17.9 35.5 24.8q1.7.9 3.4 1.8c29 15.4 62.9 18.6 94.6 10.2q1-.3 2.1-.5c27-7 56.7-24.2 72.8-47.6q1.1-1.4 2.1-2.9z" fill="#feae64"/><path d="M396 596q0 1.6 0 3.2c.8 49.5 7.3 96.8 19 144.8q.3 1.3.6 2.6c16.9 69.1 40.1 136.6 63.1 203.8q4.6 13.3 9.1 26.7.7 2.2 1.5 4.4 3 8.9 6 17.8 1.7 5.2 3.5 10.4 1 2.8 1.9 5.7c1.6 4.8 3.2 9.5 5.1 14.2 2.5 6.8 1.1 12-1.8 18.4q-1 2-2 4c-7.7-8.1-15-16.3-22-25q-1.5-1.8-3-3.7c-7.6-9.2-14.9-18.7-22-28.3q-1.8-2.4-3.5-4.7l-16.8-23.1q-3.2-4.5-6.4-8.9c-7.7-10.4-14.9-21-22.1-31.7q-.7-1.2-1.5-2.3-2.1-3.2-4.2-6.4-.7-1-1.4-2c-1.7-2.6-3.1-4.9-4.1-7.9.5-2.1.5-2.1 1.5-4.7q.5-1.4 1-2.8.6-1.6 1.1-3.1c3.5-10 5.9-19.8 7.6-30.2 1.4-8.2 1.4-8.2 4.3-11.4 3.2-3.6 3.9-6.4 4.8-11.1q.3-1.2.5-2.5c4.9-29.4 2-60.5-15.5-85.3-13.9-17.6-31.5-26.5-53.3-30.9-1.1-4.4-1.2-8.7-1.2-13.2q0-1.2 0-2.4 0-2.5 0-5-.1-3.8-.1-7.6c-.1-14.6 1.6-28.9 6-42.9q.4-1.3.8-2.5c5.4-17 21.9-56.4 43.5-56.4z" fill="#faf3e8"/><path d="M626 564c12.2 3.5 22.6 13.7 32 22q1.1 1 2.2 1.9c6.6 6.2 11.7 13.7 16.8 21.1q.9 1.2 1.7 2.5c2.5 3.6 3.8 6.8 4.7 11.1.8 3.3 2 6.5 3.1 9.6q.6 1.8 1.3 3.6c.9 2.5 1.9 4.9 3.2 7.2q.5 0 1 0 1 5 1.9 10l.6 2.8c7.3 37.8.1 77.4-5.6 115-2.4 16-4.2 32-4.9 48.2q1.1.4 2.2.7c12.5 4.3 22.4 13.5 28.4 25.5 5.1 12 7.2 26.9 2.4 39.5-7.3 16.1-17.1 26.2-33.7 32.6-13.2 4.2-28.1 2.5-40.2-3.8-12.9-7.7-23.3-19.3-27.1-34.1-2.7-14.8-.2-29.3 8.2-42 7.9-10.3 17.5-18.8 30.7-21.1q1.5-.1 3.1-.3v-1.8c-.1-6.9.4-13.7 1.2-20.6l.4-3.6c1.6-14.6 3.7-29.1 5.8-43.6q1.4-10.2 2.9-20.5.2-1.7.4-3.5c5.1-36.2 4.2-74.6-17.8-105.5q-1.9-2.5-3.9-4.9-.8-1-1.6-2c-3.1-3.9-6.6-7.1-10.5-10.3-7.1-6.2-8.9-13.3-9.8-22.6-.2-4.4.4-8.7.9-13.1zm-226 2c.1 4 .1 8 0 12v2c-.4 12.1-.4 12.1-4 16.3-2.6 1.8-5.2 3.3-8 4.7-23.2 15.9-34.2 43.3-39.3 70-2 11.6-2 22.9-1.9 34.6q0 3 .1 6 0 7.2.1 14.4 1.3.2 2.6.4c21 3 38.7 13.3 51.6 30.2 5.6 7.8 9.6 16.5 12.8 25.4q.6 1.7 1.3 3.5c5.3 18.1 4.6 40.9 1 59.3q-.2 1.1-.4 2.3c-1.2 5.1-3.2 8.2-6.9 11.9-5.4 1.8-10.3 1.9-15.4-.7-3.8-3.3-4.5-5.6-4.9-10.5.3-3.7 1-7 1.8-10.5 4.3-19.1 2.5-42.3-7.2-59.4-8-12.4-19.2-22.1-33.9-25.5-18.1-2.2-33.5-.7-48.4 10.6-12.3 10.2-19.7 24.3-22 40-.2 4.3-.2 8.6-.2 12.9q-.1 3-.1 6.1c-.1 8.2.8 15.7 2.6 23.7 1.1 5.3 2.3 11.3-.4 16.3-2.4 3-4.4 4.8-8.3 5.3q-1.4 0-2.9.1-1.3 0-2.8.1c-4-.7-6.5-2.4-8.9-5.5-1.4-3.1-2.1-6.2-2.8-9.4l-.6-2.6c-2.2-9.1-2.8-17.8-2.8-27.1q-.1-3.4-.1-6.7c-.2-25.3 7.4-47.8 25.3-66.2q.9-1 1.7-1.9c9.5-10.2 23.8-17.3 37.3-20.1q2.5 0 5 0 0-2 0-4-.1-7.5-.2-14.9 0-3.2 0-6.4c-.2-18.3.6-36.3 6.2-53.9q.4-1.2.7-2.5.8-2.4 1.5-4.8.8-2.7 1.6-5.3.4-1.4.8-2.8.3-1.2.7-2.5c.7-1.9.7-1.9 2.7-2.9q1-2.5 2-5c5.6-11.2 12.8-20.6 21-30q1-1.2 2.1-2.4c8.1-8.7 27.2-24.6 39.9-24.6z" fill="#011730"/><path d="M628.2 298.9c11.9 8.7 18.9 19.3 22.4 33.5 2.1 13.8.1 28.8-7.6 40.6-9 11.6-20.6 21-35.4 23.7-17.5 1.9-33-1.5-47.1-12.7-10.1-9.3-16.9-22.3-17.8-36-.6-15.3 3.5-28.5 13.6-40.2 19.3-20.5 48-23.7 71.9-8.9zM457 299c11 8.2 19.5 19.3 22 33 1.8 16.7-.6 31.5-11 45-9 10.8-21.1 17.7-35 20-15.5 1.1-28.3-1.6-41-11l-2-1.4c-9.4-7.4-16.3-19.7-18-31.6-.9-12.1-.9-23.1 5-34q.8-1.5 1.6-2.9c7-12.1 17.8-20.2 31-24.5 16.5-4.2 32.9-1.6 47.4 7.4z" fill="#fdb067"/><path d="M424.9 280.6q1.6 0 3.2.1c17.2.3 31.5 6.2 43.9 18.3 7.1 7.9 11.3 16.2 15 26q.7-.5 1.4-1c10-6.7 19.7-8.2 31.5-6.4 6.2 1.4 11.6 4.4 17.1 7.4q.2-1.3.3-2.7c2.5-12.2 12.8-24.1 22.7-31.3 11.6-6.8 22.3-10.6 35.9-10.4q1.6 0 3.2.1c17 .3 32 6.1 44.1 18.2 7.2 7.7 14.8 18.4 14.8 29.1 12.9-3 25.5-6.6 38-11q-.4 3.1-1 6.2-.3 1.8-.6 3.6c-1.7 3.9-3.1 4.7-7 6.3-4.3 1.6-8.7 2.9-13.1 4.1-1.4.5-1.4.5-2.9.9-4 1.1-7.2 1.9-11.4 1.9q.1 1.2.1 2.5c.6 17.6-4.7 32.4-16.8 45.3-12.7 13-28.8 19.1-46.9 19.6-18.7-.6-34.8-8.2-47.6-21.8-5.1-6-8.7-12.4-11.8-19.6q-.5-1.1-1-2.3c-1.6-4.2-2.1-8.1-2.1-12.6.4-9.3.4-9.3-2.7-17.7-2.4-1.6-4.5-2.5-7.2-3.4q-1.4-.5-2.9-1.1c-7.5-2.2-15.6-2.1-22.7 1.3-3.4 1.9-6.1 3.7-8.4 6.8-.7 3-.8 5.9-1 8.9-1.5 18.8-8.4 33.1-22 46.1-13.2 11.1-29.3 15.8-46.5 15.3-19.4-1.9-34.2-11-46.4-25.7-9-12.5-12.9-26.2-12.1-41.6q-1.5-.3-3-.7c-7-1.7-14-3.5-20.9-5.6-1.7-.5-1.7-.5-3.4-1.1-2.7-1.6-2.7-1.6-4-5-.4-1.8-.4-1.8-.7-3.6q-.3-1.1-.6-2.2-.7-2.4-1.4-4.8c3.7.7 7.2 1.6 10.7 2.8q1.7.5 3.3 1a44.75 44.75 0 0 0 3.4 1.1q1.7.6 3.4 1.1 7.6 2.5 15.2 5 .2-1 .4-2.1c3.8-15.7 14.3-28 27.6-36.9 3.6-2 7.2-3.6 11-5q1.1-.4 2.2-.8c6.6-2.2 12.7-2.7 19.7-2.6zM392 301q-1.1.8-2.2 1.6c-5.7 4.6-9.4 10-12.8 16.4q-.8 1.4-1.5 2.9c-5.8 12.5-5.5 28.5-.8 41.3 2.1 4.6 4.4 8.7 7.3 12.8q.7 1 1.4 2.1c8.1 10.3 20.8 16.8 33.6 18.9 15.2 1.5 29.5-1.8 41.8-11.1 10.6-9.2 19-20.9 20.4-35.3.9-16.4-1.4-29.6-12.2-42.6q-.8-.9-1.6-1.9c-9.2-10.1-22.6-15.4-36-16.3-14.2-.3-25.8 2.5-37.4 11.2zm162.2 9c-9.8 12.2-12.6 26.7-11.2 42 2.4 13.3 9.4 25.6 20 34 14.1 9.6 28.4 12.9 45.3 10.5 14.5-3.1 26.4-12.1 35.2-23.9 7.1-12.1 9.6-27.4 6.7-41.2-.9-3.2-2-6.3-3.2-9.4q-.4-1.1-.8-2.2c-4.9-11.1-16.1-21-27-26-24.1-9.2-47.8-2.8-65 16.2z" fill="#050e27"/><path d="M624 528q.5 0 1 0v27q-1 0-2 0-.4.8-.7 1.7c-1.5 2.7-3.4 4.8-5.5 7.1l-2.2 2.5c-5.4 5.7-10.8 10.9-17.2 15.6-1 .8-1 .8-2.1 1.6-14.9 10.9-31.4 18.8-49.3 23.5q-1.1.3-2.2.6c-33.6 8.7-67.7 2.8-97.8-13.6-1.6-.9-1.6-.9-3.2-1.7-10.5-5.9-19.7-13.1-28.5-21.2q-3.3-3-6.7-5.9-.9-.9-1.9-1.7-2.1-1.8-4.1-3.6c-4.1-5-2.7-13.2-2.7-19.3q0-1.5.1-3.1 0-3.7 0-7.5c4.3 3.2 8.5 6.4 12.4 10.1 11.6 10.6 25.4 18.4 39.6 24.9q1.5.7 3.1 1.4c27.6 12.2 61.6 16.5 90.9 8.6q1.2-.3 2.4-.6c29.3-7.3 53.3-22.3 74.2-43.9q1.2-1.3 2.4-2.5z" fill="#ee7c24"/><path d="M392 858c1.1.2 1.1.2 2.1.5 3 .5 5.7.6 8.7.6l3-.1q1.1 0 2.2 0c-.2 43.2-28.3 89.5-58 119l10.1 1.4 2.8.4c5.3.7 5.3.7 10.1-1q1.8-1.6 3.4-3.3c2.4-2.3 5.2-3.2 8.3-4.3q1.6-.6 3.3-1.2c5.8-1.9 10.9-2.7 17-2 3.9 2 5.6 3.4 8 7 .7 4.5.4 8.1-1.4 12.3-5.3 5.5-12.1 7.4-19.6 7.7q-1.8.1-3.6.2c-11.5.5-11.5.5-15.3-2.7q-1.1-1.2-2.1-2.5 1 2 2 4c-11.2 3.3-23.1.6-33.2-4.6-4.5-2.2-7.9-1-12.5.5q-2.9 1.1-5.7 2.2c-3.9 1.4-7.1 2-11.1 2q-1.3 0-2.6 0-1.3 0-2.6 0c-1.4 0-1.4 0-2.7-.1q-3.3 0-6.6 0 .7-1.1 1.5-2.2c1.6-2.9 1.8-4.4 1.7-7.6q-.1-1.2-.1-2.4 0-.9-.1-1.8 1.7-.2 3.4-.4 2.2-.3 4.4-.5 1-.2 2.2-.3c3.4-.4 6.7-.9 10-1.8q-.8-1-1.6-1.9-3.1-3.8-6.1-7.5-1.8-2.3-3.7-4.5C288 938.6 265 899.5 265 867q1-.1 2-.1c5.1-.4 8.8-.7 13-3.9 1.5 4.1 2.6 8.3 3.5 12.5 6.3 26.6 17.4 51.4 33.5 73.5q.6.9 1.3 1.8c6.6 9.3 6.6 9.3 14.7 17.2 4.8-.1 7.4-2.8 10.6-6.1q.8-.8 1.6-1.6c14.3-15 24.6-33.4 32.8-52.3q.8-1.8 1.6-3.6c6.3-14.9 9.7-30.5 12.4-46.4z" fill="#92afb2"/><path d="M628 903l6 5c-4.2 6.9-8.8 13.5-13.6 20-3.6 4.8-7 9.7-10.5 14.6a444.65 444.65 0 0 1-14.4 19.5q-4.8 6.2-9.6 12.5-1 1.3-2.1 2.7-6.3 8.3-12.5 16.7-5.1 6.7-10.3 13.4-5.6 7.4-11.1 14.8c-10.9 14.5-22.3 28.4-34.3 42q-.8.9-1.6 1.8-1.3 1.1-2.6 2.3c-4 4.9-3.1 11.3-3 17.4q0 2.1 0 4.2 0 5.7.1 11.4 0 5.9 0 11.9.1 11.2.1 22.5.1 12.8.1 25.6.1 26.4.3 52.7h-8q0-1.2 0-2.4.2-28.4.2-56.8 0-13.7.1-27.5.1-11.9.1-23.9 0-6.4.1-12.7c1.2-19.3 1.2-19.3-5.7-36.4-2.4-2.4-5-4.3-7.8-6.3q-2.5-2.8-4.8-5.8c-2.5-3.2-5.2-6.3-8-9.3-6.2-6.9-11.6-14.5-17.2-21.9q-1.9-2.5-3.7-4.9-11.5-15.3-22.7-30.9-2.4-3.4-4.9-6.8-9.8-13.5-19.2-27.2-2.5-3.7-5-7.3-3.4-5-6.8-10-.7-1-1.5-2.1-1.6-2.4-3.2-4.8l4-7c3 2.8 5.2 5.6 7.5 9q.9 1.5 1.9 3c1.1 1.6 1.1 1.6 2.1 3.2 6.7 10.1 13.5 20 20.5 29.8q.8 1.1 1.5 2.2c27.9 38.9 27.9 38.9 58 76.1q2.4 2.8 4.8 5.6 1.6 1.9 3.3 3.8.7.9 1.5 1.8c1.9 2.2 3.8 4.4 5.9 6.5l3-10q2 0 4 0v19q1.9-2.3 3.8-4.7 4.6-5.6 9.3-11.1c5.4-6.3 10.6-12.9 15.7-19.6q3-3.9 6-7.9l25.6-33.6 11.5-15a597.19 597.19 0 0 0 16.8-22.5q4.2-5.9 8.5-11.7c7.6-10.1 14.8-20.4 21.8-30.9z" fill="#c6cdca"/><path d="M685.2 838.3c8.6 6 14.4 13.3 16.8 23.7 1.4 10-1.1 18.4-6.8 26.6-6.5 7.8-14.1 12.1-24.2 13.4-9.5.8-18.5-2-26-8-7.2-6.6-11.2-13.5-12.4-23.2-.4-9.2 1.7-17 7.4-24.4 11.7-12.5 29.7-17.1 45.2-8.1z" fill="#f79e42"/><path d="M801 845q2.5.5 5 1v344l-7 1q-.1-65.7-.1-131.4 0-7.7 0-15.5 0-1.5 0-3.1 0-25-.1-50 0-25.6 0-51.3 0-15.8 0-31.6 0-10.9 0-21.7 0-6.3 0-12.5-.1-5.8 0-11.5 0-2.1 0-4.2-.1-2.8 0-5.6 0-1.5 0-3.1c.2-2.5.2-2.5 2.2-4.5z" fill="#c4cbc9"/><path d="M717.6 979.4c10.1 6.8 19.2 19.9 22.4 31.6.7 4.7.5 8.1-1.7 12.4-3.5 4-5.7 5.4-11.1 6-3.1-.1-5.5-.8-8.5-1.9-6.2-2.3-13.3-2.6-19.7-.5-6.2 2.1-12.7 2.1-18.6-.7-3.1-3-4.2-5.5-4.6-9.8.7-11.2 6.8-19.1 13.8-27.5q.6-.8 1.3-1.6c7.2-8.4 16.1-12.1 26.7-8z" fill="#01a3ac"/><path d="M218 845c3.5.5 3.5.5 5 2q.1 2.7.1 5.5 0 1.7 0 3.6 0 2 0 4 0 2.1 0 4.2 0 5.9 0 11.7 0 6.3 0 12.6 0 10.9 0 21.8 0 15.8 0 31.6 0 25.6 0 51.2 0 24.9 0 49.7 0 1.6 0 3.1 0 7.7 0 15.4-.1 63.8-.1 127.6l-8 1q.5-1 1-2 .1-2.8.1-5.6 0-1.7 0-3.6 0-1.9 0-4 0-2.1 0-4.2 0-5.8 0-11.6 0-6.3 0-12.6 0-10.8-.1-21.7 0-15.7 0-31.4 0-25.5 0-51 0-1.6 0-3.1-.1-21.7-.1-43.4 0-1.5 0-3.1 0-1.5 0-3 0-25.5 0-50.9-.1-15.6-.1-31.3 0-10.8 0-21.5 0-6.2 0-12.4 0-5.7 0-11.3 0-3.1-.1-6.1.1-1.8.1-3.6 0-1.6 0-3.2c.2-2.4.2-2.4 2.2-4.4z" fill="#c4cbc9"/><path d="M450.3 449.7c3.4.4 4.9 1.6 7.5 3.8 9.4 7.2 20.6 13 32.2 15.5q1.3.3 2.6.6c25.7 5.2 50.6-.7 72.4-14.6q1.3-1.1 2.7-2.2c2.3-1.8 2.3-1.8 5.5-2.2 2.8.4 2.8.4 4.8 2.4.4 3.3.5 5.2-1.4 8-20 17.4-46.6 23.6-72.6 22-20-1.5-40.9-8.3-56-22q-.9-.7-1.7-1.5c-1.3-1.5-1.3-1.5-1.1-4.6.9-3.4 1.5-4.7 5.1-5.2z" fill="#060f27"/><path d="M447.6 265.2q1.3.3 2.5.6c6.1 1.6 11.4 4 15.4 9.1.7 3 .3 5.2-.5 8.1-2.1 2.6-3.7 3.5-7 3.9-5 .5-8.9-1-13.4-2.9-13.1-5.1-30.8-3.4-43.7 1.7q-1.4.6-2.9 1.3-2.5 1-5 2c-2.5-1.6-2.5-1.6-5-4-.8-3.4-.8-3.4 0-7 6.1-8.3 18.8-12.6 28.5-14.5 10.8-1.5 20.5-.9 31.1 1.7z" fill="#b75e01"/><path d="M358 757l6 2c0 9.5-16.7 22.2-23 28.9q-4.5 4.8-9 9.7-.8.8-1.5 1.6-1.8 1.9-3.5 3.8c1.3 2.7 2.7 5.2 4.3 7.7q.6 1 1.3 2.1.8 1.2 1.5 2.4.8 1.2 1.6 2.5 2.7 4.1 5.3 8.3.9 1.5 1.9 3l19.1 29.8q1.6 2.4 3.2 4.8 4.3 6.7 8.8 13.3 2 2.9 3.9 5.9 1 1.4 2 2.8c4.1 6.3 4.1 6.3 4 9.6-.5 1.9-.5 1.9-1.9 4.8q-1.5 0-3 0c-1.5-2.1-2.8-4.1-4.1-6.4q-1.4-2.2-2.7-4.4l-1.5-2.5c-3.3-5.3-6.7-10.4-10.1-15.6q-1.7-2.6-3.4-5.2-1.6-2.4-3.2-4.9-8.6-13-16.9-26.2-1.1-1.6-2.2-3.3-2-3.2-4.1-6.4-.9-1.5-1.9-3.1-.9-1.4-1.9-3-2.1-3.2-4.3-6.3-1.1-1.6-2.3-3.2-1-1.4-2-2.9c-1.4-2.6-1.4-2.6-1.3-4.7 1.1-2.3 2.4-3.7 4.3-5.5l2-2q1.1-1.1 2.2-2.1c4.8-4.7 9.4-9.4 13.8-14.4 2.3-2.7 4.7-5.3 7.2-8 3.9-4.2 7.7-8.5 11.4-12.9z" fill="#c6cdca"/><path d="M630.2 273c2.6 1.9 4.2 3.3 5.8 6 .1 3.6.1 3.6-1 7-2.3 2.3-2.3 2.3-6 3-3.1-1-5.8-2.2-8.7-3.6-7.8-3.3-15.5-3.8-23.9-3.8q-1.6 0-3.2 0c-8.9.1-16 1.8-24.2 5.4q-1.5.5-3 1c-2.8-1.5-5-3.6-7-6-.8-3.8-.4-5.3 1.5-8.6 18.2-17.3 50.2-12 69.7-.4z" fill="#b85e01"/><path d="M434 322c6.1 2.8 8.9 7.2 11.3 13.3 1.7 8.7.6 15.7-3.3 23.7-2.2 3.1-4.3 4.8-8 6-5.5.5-10.4.7-15.5-1.6-4.7-4.5-7.3-8.6-7.7-15.1-.4-14.9-.4-14.9 4.2-21.3 6-5.6 11-5.7 19-5z" fill="#03112a"/><path d="M601 322c5.5 2.4 8.4 6.7 11 12 2.2 6.8 1.8 14.7-1 21.2-2.7 4.9-5.6 8.1-11 9.8-5.2.7-9.6.6-14.4-1.6-5.1-4.7-7.4-8.9-7.8-15.8-.2-7.5-.3-14.2 4.2-20.6 5.9-5.6 11.1-5.7 19-5z" fill="#02102a"/><path d="M504 350c3-.4 3-.4 6 0 2 3 2 3 1.7 5.3q-1.2 4.6-2.6 9.2-.5 1.8-1.1 3.8-.3 1-.6 2l-9 31.5q-.3 1.3-.7 2.7c-1.6 5.9-2 11.4-1.7 17.5 5.5 2.8 9.8 3.4 15.9 3.3q1.2-.1 2.3-.1c3.8 0 7.5-.3 11.2-.8 3.6-.4 3.6-.4 5.7.7.9 1.9.9 1.9 1.1 4.4-1.2 2.5-1.2 2.5-4.6 4.1-5 1.8-9.8 1.8-15 1.8h-2.7c-7.6 0-15.2-1.1-20.9-6.5q-.8-.7-1.7-1.5c-3-3.2-2.5-6.4-2.5-10.5.3-4.9 1.6-9.5 2.9-14.2q.4-1.5.8-3.1.9-3.3 1.8-6.6 1.4-5 2.7-10 .9-3.2 1.8-6.5.4-1.4.8-2.9c5.1-18.6 5.1-18.6 8.4-23.6z" fill="#cd580d"/><path d="M408.5 969.8c2.5 2.2 4.3 3.9 4.8 7.3.1 5.4-.4 8.8-4.3 12.9-5.3 3.3-10.8 4.7-17 5q-1.8.1-3.6.2c-11.5.6-11.5.6-15.3-2.3-2.5-3.5-3.2-5.5-3.1-9.9 1.8-4.8 5.5-7.6 10-10 19.3-8 19.3-8 28.5-3.2z" fill="#01172f"/><path d="M278.6 968.9c8.1 2.7 15.5 5.8 20.4 13.1.5 3 .6 5-1 7.7-2.2 2.7-3.7 4.2-7 5.3-10.1.6-22.2 1.1-30.6-5.4-2.9-3.2-4.3-5.2-4.5-9.5.3-4.1.8-5.8 3.5-9 5.8-4.7 12.2-4 19.2-2.2z" fill="#02162d"/><path d="M675.1 852.7c4.3 2.2 6.9 4.9 8.9 9.3.8 5.7.8 10.4-1.7 15.6-4.4 4.6-8.4 6.1-14.6 6.7-5.8-.5-9.2-2.7-13.1-6.9-3-4.6-3.2-9-2.6-14.4 4.5-9.4 13-13.7 23.1-10.3z" fill="#b75e00"/><path d="M321 667c2.3 3.4 2.1 4.1 1.6 8-.6 5.8-.8 11.5-.9 17.4q0 1.5-.1 3.1-.1 4.8-.2 9.7 0 3.3-.1 6.6-.2 8.1-.3 16.2l-17 4c-1.1-5.6-1.1-5.6-.1-9.4.4-1.3.4-1.3.7-2.5q.4-1.4.8-2.8.4-1.4.9-2.9 6.8-23.9 14.7-47.4z" fill="#c6cdcb"/><path d="M693.4 941.1c4.4 1.1 5.8 2.4 8.6 5.9 3.4 5.8 3.6 10.6 2 17-1.3 2.7-2.9 4.9-5 7-7 .7-7 .7-10.8-2.1-3.7-4.9-5.8-9.5-5.6-15.8.7-3.7 2.2-7 4.4-10.1 3-2 3-2 6.4-1.9z" fill="#05a0a9"/><path d="M753 963c2.4 1.9 3.7 3.3 5 6 .1 8-1.8 13.3-7.1 19.4-2.7 2.3-4.8 2.6-8.3 2.9-3.6-.3-3.6-.3-6-2.2-2.9-3.8-2.9-6.3-2.6-11.1 2-5.9 4.8-10.7 9.9-14.4 3.2-.9 5.8-1 9.1-.6z" fill="#05a0aa"/><path d="M724.5 940.9c3.4 1.1 5.5 2 7.6 4.9 2.2 5.5 2.2 12.8.1 18.3-1 1.6-1 1.6-3.2 3.9q-.6.9-1.2 1.9c-2.5 1.6-4.9 1.7-7.8 1.6-3.8-.9-5-3.3-7-6.5-1.9-4.3-1.8-9.7-.3-14.2 2.6-5.5 5.2-9.7 11.8-9.9z" fill="#03a0a9"/><path d="M313.2 339.9c5.7.9 9.1 3.8 12.8 8.1 7 9.6 13.2 22.9 12 35-1.2 2-1.2 2-3 3-2.7-.3-2.7-.3-5-1q-.4-1.5-.9-3c-4.5-18.2-4.5-18.2-16.1-32q-3-1.1-6-2c-.7-2.3-.7-2.3-1-5 2.1-2.9 3.7-3.4 7.2-3.1z" fill="#cc580d"/><path d="M717 340c2 2 2 2 2.1 5.1q0 1.4-.1 2.9-.9.3-1.8.6c-6.8 2.5-10 5.8-13.2 12.4a122.19 122.19 0 0 0-7 23q-.5 1-1 2c-2.9.2-2.9.2-6 0-3.1-4.7-2.1-8.6-1-14 3.3-12 8.5-23.7 19-31 3.1-1.6 5.6-1.5 9-1z" fill="#cc570c"/><path d="M673 964c4.9 2.7 7.3 6.8 9 12 .7 4.5.5 7.9-1.4 12-1.6 2-1.6 2-3.6 3-4.1.4-6.5.3-10.2-1.6-5.3-4.6-7.5-9.9-8.1-16.8.3-3.8 1-5.6 3.3-8.6 3.5-1.8 7.3-.8 11 0z" fill="#03a0a9"/><path d="M698 678c2.1 3.1 2.9 5.6 4 9.1q.6 1.8 1.2 3.7.6 2 1.2 4 .6 1.9 1.2 3.9c2.4 7.9 4.7 15.8 6.7 23.8.6 2.5.6 2.5 1.7 4.5q.1 3.5 0 7c-6.5 3.5-12.8 6.1-20 8l-1-9q1 .5 2 1c2.5-1 2.5-1 5.1-2.4q1.4-.7 2.8-1.5 1-.5 2.1-1.1-.9-3.9-1.8-7.9-.3-1.1-.5-2.2c-.9-4-2-7.8-3.3-11.7-1.8-5.9-1.7-11.7-1.6-17.8q0-1.7.1-3.4 0-4 .1-8z" fill="#c7cecb"/><path d="M663 747c2.1 3.4 2.1 5.7 1.7 9.7q-.2 1.6-.4 3.2-.1 1.5-.3 3.1l-.2 2.7c-.3 4.2-.6 6.5-3.8 9.3-13.9-15.1-13.9-15.1-14.1-19.5 1.3-2.9 1.8-3.1 4.7-4.3q2.2-.8 4.5-1.5 1.1-.4 2.3-.8 2.8-1 5.6-1.9z" fill="#c8cecc"/><path d="M321 671q.5 0 1 0l-1 57-10 1q.8-3.4 1.6-6.9.7-2.9 1.4-5.8c1.1-4.8 2.4-9.6 3.8-14.4 1.8-7 1.8-14.2 2-21.5.1-3.2.4-6.2 1.2-9.4z" fill="#f9f6ef"/><path d="M332 331c4 .7 7.9 1.8 11.8 3.1 1.8.5 1.8.5 3.5 1.1l2.7.8q-.2 2.6-.4 5.2-.1 1.4-.2 2.9c-.4 2.9-1.2 5.2-2.4 7.9q-2.5 0-5 0-1.9-3.8-3.9-7.7-.5-1.1-1.1-2.2c-1.8-3.6-3.6-7.3-5-11.1z" fill="#ba5d02"/><path d="M690 331q1 .5 2 1-2.3 5-4.8 9.9-.6 1.4-1.3 2.9-.6 1.3-1.3 2.7-.6 1.3-1.2 2.6c-1.4 1.9-1.4 1.9-3.5 2.7-1.9.2-1.9.2-3.6-.8-1.9-2.9-1.6-5.3-1.5-8.7q.1-1.7.1-3.6 0-1.3.1-2.7 2.9-1.2 5.8-2.4 1.6-.7 3.3-1.4 2.9-1.2 5.9-2.2z" fill="#b95d02"/></svg>