<svg xmlns="http://www.w3.org/2000/svg" width="1024" height="1185" xmlns:v="https://vecta.io/nano"><path d="M496.2 38.7q3.9 0 7.7-.1c25-.1 50.8 5.1 72.4 18.2 6.3 3.5 12.1 4.3 19.1 5.1 8.3 1.1 15.8 3.3 23.6 6.1q1.5.6 3.1 1.1c33.8 13.2 58.5 40.4 76.9 70.9q.5.9 1.1 1.8c21 34.7 31.5 74.3 34.6 114.6 2.5 32.2 14 59.9 32.7 85.9 15.8 22.3 24.6 46.1 20 74-2.2 9.2-6.3 17.7-10.4 26.3-4.4 9.6-5.8 19.5-3.1 29.9 1.3 3.2 2.6 6.4 4.1 9.5q1.4 3.2 2.7 6.5.7 1.4 1.3 2.8c4.7 12.3 2.7 27.8-2 39.7-10.1 22.3-28.4 38.6-50.9 47.6-9.7 3.5-21.4 6.5-31.1 2.4q.7.4 1.5.7c76.8 37.9 76.8 37.9 105.5 65.3l2.2 2c37.5 35.8 50.3 90.8 57.8 140q.3 1.6.5 3.3c4.1 26.8 6.2 53.8 8.5 80.7q.1 1.7.3 3.5l8.3 113.5q.3 5.5.7 10.9.6 8.7 1.1 17.4.2 3.2.5 6.4c.7 10.7 1.2 21.3 1.3 31.9q0 1.3 0 2.6c0 6.3-.8 11.4-4.2 16.8q-.7 1-1.3 2.1c-22.4 32.4-80.4 40.1-115.9 46.6q-9.4 1.7-18.8 3.3-1 .2-2 .3c-37.4 6.3-75.3 10.2-113.1 12.5q-4.4.3-8.8.6c-38.5 2.7-77 2.9-115.6 2.9q-1.9-.1-3.8-.1c-37.3 0-74.4-.5-111.6-3q-2-.1-4-.3c-32.4-2.1-64.5-5.3-96.6-10.4q-4.3-.6-8.6-1.2c-38.2-5.5-79.6-13.4-113.9-31.3q-1.6-.8-3.2-1.6c-11.4-6.2-20.4-14.5-24.3-27.1-3-14.7.3-31.7 1.5-46.5q.7-8.7 1.4-17.3.3-3.4.5-6.8 1.3-15.8 2.4-31.6.1-1.1.2-2.2.3-4.4.6-8.8l6.1-74.3q.9-8.3 1.6-16.7C168.1 721.2 168.1 721.2 208 669q1.1-1.4 2.2-2.9c27.6-34.9 69.5-56 108.8-75.1q-1.6-.1-3.3-.2c-22-1.8-41-10.3-57.7-24.8q-1.6-1.3-3.2-2.5c-11.3-10.1-19.3-23.1-23.8-37.5q-.4-1.1-.7-2.3c-4-14.7-.6-30.6 4.4-44.5 3.1-9 4.1-15-.1-23.8-1.8-3.5-3.7-7-5.6-10.4q-1.8-3.4-3.6-6.7-1.2-2.2-2.3-4.3c-8.3-15.2-9.7-34-5.6-50.7 5.7-18.4 15-35 26.5-50.3 20.2-27.2 30-54 34-87.6 7.3-60.3 41.1-121.9 88.8-160 26.2-20 54.8-34.3 86.9-42.1q1.2-.3 2.4-.7c13.4-3.1 26.5-4 40.1-3.9z" fill="#001f3c"/><path d="M613 532c6.3 2.4 10.2 6.4 15 11q1 .9 2 1.9c22.9 22.8 29.3 62.7 29.3 93.5-.2 22.4-3.8 44.6-7.1 66.6-3 20.2-4.6 40.6-6.2 61q-1.3.5-2.6 1c-15.3 5.7-25.1 13.3-32.1 28.1-5 11.5-4.5 24.1-.3 35.9 5.7 12.9 14 21.7 27.1 27.3 12.6 4.4 24.7 3.9 36.9-1.3 13.4-6.8 21.3-17.2 26.1-31.4 3.2-13.3.7-26-5.9-37.8-7-10.9-15.7-15.6-27.2-20.8-.7-27.8 2.9-55.1 6.5-82.6q.6-4.6 1.2-9.2.3-2.2.6-4.4c1.5-10.8 2.1-21.5 2.1-32.5q0-1.2 0-2.4c-.1-24.8-6.4-47.5-14.4-70.9l52 25q2.8 1.4 5.6 2.7c30.2 14.8 58.9 31 83.4 54.3l2.2 2c37.5 35.8 50.3 90.8 57.8 140q.3 1.6.5 3.3c4.1 26.8 6.2 53.8 8.5 80.7q.1 1.7.3 3.5l8.3 113.5q.3 5.5.7 10.9.6 8.7 1.1 17.4.2 3.2.5 6.4c.7 10.7 1.2 21.3 1.3 31.9q0 1.3 0 2.6c0 6.3-.8 11.4-4.2 16.8q-.7 1-1.3 2.1c-22.4 32.4-80.4 40.1-115.9 46.6q-9.4 1.7-18.8 3.3-1 .2-2 .3c-37.4 6.3-75.3 10.2-113.1 12.5q-4.4.3-8.8.6c-38.5 2.7-77 2.9-115.6 2.9q-1.9-.1-3.8-.1c-37.3 0-74.4-.5-111.6-3q-2-.1-4-.3c-32.4-2.1-64.5-5.3-96.6-10.4q-4.3-.6-8.6-1.2c-38.2-5.5-79.6-13.4-113.9-31.3l-3.2-1.6c-11.4-6.2-20.4-14.5-24.3-27.1-3-14.7.3-31.7 1.5-46.5q.7-8.7 1.4-17.3.3-3.4.5-6.8 1.3-15.8 2.4-31.6l.2-2.2q.3-4.4.6-8.8l6.1-74.3q.9-8.3 1.6-16.7C168.1 721.2 168.1 721.2 208 669q1.1-1.4 2.2-2.9c30.2-38.2 76.9-59.4 119.6-80.6q4.6-2.3 9.3-4.6 8.9-4.4 17.9-8.9c0 3.4-.8 5.6-2 8.7q-.6 1.8-1.3 3.6-.7 1.8-1.4 3.7c-4.1 11.2-7.7 22.3-10.3 34l-.6 2.3c-4.8 20.9-4.7 42.4-5.4 63.7q-1.6.3-3.3.6-2.1.4-4.3.8c-1.1.1-1.1.1-2.2.3-17.4 3.2-31.9 13.2-42.1 27.6-17.2 25.3-19.7 55.1-14.1 84.7 1.5 7.9 1.5 7.9 5 15q.9 3.5 1.6 7c7.5 34 21.9 69.5 47.4 94-2.7 2.7-4.4 3-8.1 3.1q-1.8 0-3.6 0-1.7-.1-3.6-.1-1.3 0-2.7 0v9q-.5 0-1 0v-2c-.3-3-.7-5.2-2-8-8.2-6.1-17-7.8-27-7-3.4 1.2-5.2 2-7.4 4.7-1.1 4.2-1.1 7.9.3 12 4.3 4.7 9.8 6.3 16.1 6.6 7.3.1 7.3.1 14.4-.8 3.2-.6 6.3-.5 9.6-.4 9.7.2 17.7-.1 26.2-4.9 2.8-1.2 2.8-1.2 5.5-.6q2.7 1.1 5.4 2.4c9.8 4.3 20.4 3.8 30.9 4q.5-1 1-2l1.6 1c8 3.3 18.4 1.2 26.2-1.7 2.6-1.5 3.7-2.8 5.2-5.3.7-4 .6-7.7-1.1-11.4-4.2-3.5-9.8-4.2-15.2-4.1-5 .9-9.5 3-14.1 5-9.5 4-17.8 5-27.6 1.5q1.2-1.4 2.5-2.9 1.8-2 3.5-4.1.9-1 1.8-2.1c6.7-8 12-16.9 17.2-25.9q.6-1 1.2-2c10.5-18.3 19.7-40.9 23.3-61.7.5-2.3.5-2.3 2.9-4.7 4.7-4.7 5.3-11.3 6.6-17.6q.2-1.1.5-2.2c5.3-26.1 5.4-53.4-8.5-76.8-2.1-3.2-4.4-6.1-7-9q-.8-.9-1.5-1.8c-9.9-10.8-23.6-16.3-37.5-19.2-.8-49.5 2.7-103.5 39.1-141.2 4.4-4.3 9.1-8.1 13.9-11.8q1 .5 2 1-.2 1.4-.4 2.9-.6 5.4-1.3 10.9-.2 2.3-.5 4.6-.4 3.4-.8 6.8-.2 1-.3 2c-1.3 11.3-1.9 22.5-1.9 33.8v3.6c-.1 26.3 0 52.3 3.2 78.4q.3 2.5.6 5c11.3 95.1 37.8 187.3 71.2 286.2a21.36 21.36 0 0 1 .9 2.7q1.3 3.7 2.6 7.4.3 1.1.7 2.2c1.2 3.3 2.3 6.4 4 9.5 57.7-149.2 57.7-149.2 113-326q.4-1.8.9-3.7c5.2-22.3 9.5-45.3 10.1-68.3q.1-1.8.1-3.7c.3-11.9-.6-23.6-1.4-35.4-.5-8-.8-15.9-.7-23.9z" fill="#f9f1e4"/><path d="M561 117q.5 0 1 0 .1 1.4.3 2.8c2.9 28.5 13.8 52.9 31.7 75.2q1.2 1.5 2.4 3c5.8 7.2 12.2 13.7 18.9 20.1 28.7 28.2 37.2 57 40 96.7q.1 1.5.2 3.2.1 1.4.2 2.8c.1 2.2.1 2.2 1.3 3.2q2.5.1 5 0c3.2-5.9 6-11.8 8.2-18.1 3.7-10.7 8.1-18.3 18.4-23.9 5.1-2.2 8.9-1.4 13.9.6 10.1 5 16.2 12.9 19.9 23.5 5.1 18.5.1 37.6-9.1 54-3.5 5.6-7.8 10.2-12.3 14.9-1.1 1.2-1.1 1.2-2.3 2.4-4 4.1-4 4.1-5.7 5.6q-1 0-2 0-.1 1.5-.2 3.1c-1 4.9-2.4 8.1-6.5 11.2-5.2 3-10.3 3.7-16.3 2.7-4.8-1.7-8.2-4.7-11-9q0-1.5 0-3-1 0-2 0-.1.9-.1 1.8c-.5 6.3-1.7 12.1-3.5 18.1q-.4 1.4-.8 2.8c-5.8 19.4-15.1 44.1-30.6 58.1-4.6 4.3-6.5 7.5-6.9 13.9q-.1 4 0 7.9.1 2.1.1 4.3 0 5.7.1 11.3.1 4.5.1 9c.1 18.3.9 36.6 2.2 54.9 6.1 91.9-36.8 187-67.6 271.5q-2.9 7.9-5.8 15.9L504 961.2q-1.4 4-2.9 7.9-2 5.4-4 10.8-1 2.7-2 5.5-.6 1.5-1.2 3.1-.5 1.2-1 2.6c-.9 1.9-.9 1.9-2.9 2.9-33.4-92.2-62-187.2-79.7-311.6q-.3-2.3-.6-4.7c-2.6-21.3-3-42.6-3-64.1v-3.8c0-15.7.5-31.2 2.3-46.8q.2-1.9.4-3.8.4-3.1.8-6.3c1.7-14.1 2.4-28.2 2.7-42.5a164.29 164.29 0 0 1 .6-9.9c1.1-10.7 1.1-10.7-3.1-20.2-2.7-2.6-5.7-4.8-8.7-7-19.7-15-28.7-45.9-35.7-68.3q-.4-1.1-.7-2.3-1.7-5.4-3.3-10.7-.8 1.4-1.7 2.7c-2.9 4.1-5.5 6.7-10.3 8.3-6 .6-10.1-.6-15-4-4-3.4-6.1-6.2-6.7-11.4-1-5.5-4.3-7.4-8.6-10.6-11.6-8.8-17.5-21.4-21.7-35q-.4-1.2-.8-2.4c-3.8-15.3-1.9-31.3 5.6-45 3.6-5.6 8-10 14.2-12.6 6.8-1 12.4 0 18 4 11.6 9.3 15.9 23.6 21 37l5-2q.1-1.6.2-3.3.5-6.1 1-12.1.2-2.6.4-5.3.2-3.7.5-7.5.1-1.2.2-2.4c1.8-22.6 27.7-43 44-57.3q.9-.7 1.8-1.5c2.3-1.9 4.5-4 6.7-6 4.3-3.8 8.6-7.5 13.1-11.1q3.4-2.7 6.8-5.5c9.4-7.9 19.2-15.1 29.3-22q.9-.6 1.8-1.3c15.1-10.3 30.7-19.8 46.4-29.2 17.6-10.7 36.1-22 47.8-39.5z" fill="#faa356"/><path d="M615 577q.5 0 1 0c2 90.5-37.5 181.1-68 264.6q-2.9 7.9-5.8 15.9L504 961.2q-1.4 4-2.9 7.9-2 5.4-4 10.8-1 2.7-2 5.5-.6 1.5-1.2 3.1-.5 1.2-1 2.6c-.9 1.9-.9 1.9-2.9 2.9-33.4-92.2-62-187.2-79.7-311.6q-.3-2.3-.6-4.7c-3.7-30.8-3-61.7-2.7-92.7q.9 1.1 1.8 2.3c4.2 5.1 8.7 9.9 13.2 14.7q.9 1 1.8 2c13.8 14.8 34.6 24.8 54.2 29q1.8.4 3.8.9c30.5 6.7 64.4 1.3 91.2-14.9 16-10.3 29.2-23.6 40-39.2q1-1.4 2-2.8z" fill="#03989c"/><path d="M614 497q0 .8 0 1.7 0 8.9-.1 17.8 0 3.3 0 6.6 0 4.8 0 9.5 0 1.5 0 3c0 6.5.4 12.9 1.1 19.4 1.7 22.2 1.7 22.2-3.4 29.3q-2.2 2.4-4.6 4.7-2.2 2.5-4.3 5-2.3 2.5-4.7 5-1.2 1.3-2.5 2.7c-21.3 22.5-51 34.5-81.7 35.6-12.2.2-23.9-.5-35.8-3.3q-1.7-.4-3.4-.7c-24.8-6.2-44.3-21.1-61.6-39.3q-.8-.8-1.7-1.6c-4.9-5.3-3.6-12.5-3.4-19.2.3-5.4 1-10.8 1.8-16.2 2.2-16.7 3.1-33.2 3.3-50q.7.6 1.4 1.2c9.1 7.8 18.2 14.8 28.6 20.8q1.4.8 2.8 1.6c27.9 15 63.4 19.4 94.2 11.4 1.9-.4 1.9-.4 3.8-.9 25.8-6.7 48.8-23.7 66.8-42.9 1.4-1.2 1.4-1.2 3.4-1.2z" fill="#faa255"/><path d="M373.5 721c12.1 10.4 20.3 23.8 21.9 39.9.4 15.1-2.6 30-7.9 44.1-1 3.8-.1 7.3 1.2 10.8.4 3.1-.4 5.3-1.4 8.3q-.6 1.8-1.2 3.6-.7 2-1.3 4c-.4 1-.4 1-.7 2-21.6 63.6-21.6 63.6-46.1 77.3-13.4-11.3-21.9-24.7-30-40l-1.8-3.4c-5.7-11.4-9.4-23.4-13.2-35.5q-.9-2.9-1.9-5.7-1-3.1-1.9-6.3l-1-3.3c-.3-3.8 1.4-4.9 3.8-7.8.3-2.4.3-2.4-.1-4.9q-.2-1.5-.4-3-.5-3.1-1-6.3c-3.6-22.4-1.5-42.8 11.6-61.9 8.4-10.8 19.5-18.2 33.1-20.6 13.6-1.5 27.3 0 38.3 8.7z" fill="#f9f1e4"/><path d="M289 815q.3 1.1.6 2.1c13.9 51.6 13.9 51.6 47.2 91.7q1.1.6 2.2 1.2c28.3-20.9 39.5-62.3 50-94l1.8 1c2.7 1.2 4.6 1.2 7.4 1.1h2.8q1-.1 2-.1c-.6 5.7-1.6 10.7-3.4 16.1l-.8 2.2q-.8 2.4-1.6 4.8-1.1 3.5-2.3 7c-4.6 13.9-10.3 27.3-17.9 39.8q-.6 1-1.3 2.1c-6.2 10.2-13.2 19.5-21.7 28 7.7 3.3 15.9 2.9 23.6 0q2.7-1.1 5.3-2.3c8.1-3.6 14-5.2 22.5-2.5 3.2 1.4 5.2 2.5 6.6 5.8.6 4.3.6 7.8-1.3 11.8-8.2 6.7-18.5 7.2-28.7 6.2-2.4-1-2.4-1-4-2q-.5.5-1 1c-13 1.2-24.4.5-36-5.6-4.4-.6-7.4 1.3-11.3 3.3-4.3 2-8.2 2.4-12.9 2.4q-1.4 0-2.9-.1-1.5 0-3 0-3 0-6-.1-1.3 0-2.6 0c-2.5 0-2.5 0-5.3 1.1-9.6.7-19.9 1.2-27.7-5.4-2.9-3.5-2.6-7.3-2.3-11.6 1.4-3.3 2.6-4.7 5.5-6.8 8.8-3 16.3-1.1 24.7 2.4 3.4 1.7 5.5 3.4 7.8 6.4q.5-.5 1-1c3.3-.3 6.5-.4 9.8-.6 2.9-.4 4.7-.9 7.2-2.4q-.8-.7-1.6-1.4C294.6 891.4 281.5 852 274 817q2.9-.5 5.8-1l3.3-.6c2.9-.4 2.9-.4 5.9-.4z" fill="#5d9296"/><path d="M612 477l2 1c1.2 16.9 1.2 16.9-1.5 21.5-2.1 1.7-4.2 3.1-6.5 4.5q-1.8 1.8-3.5 3.7c-16.6 16.7-39.8 29.5-62.5 35.3-1.7.5-1.7.5-3.5.9-33.3 7.2-70.4 1.2-99.3-17-3.6-2.4-7.1-5-10.5-7.7-1.6-1.1-3.3-2.2-5-3.2-3.6-2.5-5.5-4.2-7.7-8-1.3-7.9-.7-16 0-24a261.19 261.19 0 0 1 11.1 9.9c5.5 4.8 11.5 8.5 17.9 12.1q.9.5 1.8 1c29.6 16.3 67.2 21.6 99.9 12.2 26.2-8.1 48-22.9 67.3-42.2z" fill="#e46919"/><path d="M672.4 785.4c7.3 5.3 12.2 11.9 14.6 20.6 1.1 10.8-.2 20.6-7.1 29.3-6.3 6.7-14.8 10.8-24 11-10.1-.1-17.5-3.8-24.7-10.8-6.5-7.5-8.6-15.4-8.5-25.1.8-9.8 6-17 13.3-23.4 11.3-7.2 24.5-8.6 36.4-1.6z" fill="#f48018"/><path d="M616 844c1.6 1.3 1.6 1.3 3 3-.4 3.1-1.5 5-3.6 7.4q-.7.9-1.6 1.9-.8 1-1.7 2.1-1.8 2.1-3.6 4.3-.8 1.1-1.8 2.2c-2.5 3-4.9 6.2-7.3 9.3a458.64 458.64 0 0 1-12.5 15.2c-3.4 4-6.7 8.1-10 12.2l-9.5 11.7q-2.4 2.9-4.7 5.7l-18.6 22.2q-5.2 6.1-10.2 12.4c-5.8 7.3-11.8 14.4-17.8 21.6-3.7 4.3-7.4 8.7-11 13.2-2.1 2.6-2.1 2.6-4.4 4.7-5.8 5.6-6.3 10.8-6.4 18.5q0 1.6-.1 3.2-.1 5.1-.2 10.2c0 1.7 0 1.7-.1 3.4l-.2 24.8q0 3.9-.1 7.8-.1 9.1-.1 18.3-.1 10.4-.2 20.9-.1 21.4-.3 42.8-3 0-6 0v-2.1q.5-25.9.7-51.8.1-12.6.3-25.1.2-10.9.2-21.8 0-5.8.2-11.6c.9-19.9.9-19.9-7.7-37.2-1.7-1.7-3.3-3.3-5.1-4.9-2.5-2.3-4.3-4.9-6.2-7.6q-4.7-6.4-9.6-12.6-7-8.8-13.7-17.7-5.2-6.8-10.5-13.5c-5.2-6.6-10.2-13.3-15.1-20.1-2.7-3.9-5.5-7.6-8.4-11.3-5-6.4-9.7-13.1-14.3-19.7-1.7-2.4-3.4-4.7-5.2-7.1-5.1-6.7-5.1-6.7-4.5-11q.4-1.4.9-2.9c4 3.7 7 7.6 10 12.2q1.5 2.1 2.9 4.3.8 1.1 1.6 2.3c8.4 12.2 17.4 24.1 26.4 35.9l11.9 15.7c5.3 7.2 10.8 14.2 16.4 21.2 3.5 4.2 6.8 8.5 10.1 12.9q5 6.5 10 12.9c.9 1.2.9 1.2 1.8 2.3q4.8 6.3 9.9 12.3c3.1-.6 3.1-.6 3.9-2.7q.5-1.1 1.1-2.3 2.5-3.1 5.1-6.1 1.5-1.7 3-3.5.7-.8 1.5-1.7L515 968q7.9-9.7 15.9-19.2L544 933l14.4-17.3q5.7-6.7 11-13.6c4.3-5.5 8.8-10.9 13.3-16.1q5.2-6 10.1-12.2 2.6-3.3 5.3-6.6c6.2-7.6 12.3-15.2 17.9-23.2z" fill="#c9cac2"/><path d="M683.9 922.4c10.3 5.8 18.4 16.5 22.1 27.6.4 4.8.6 9.4-1.2 13.9-2.2 2.6-3.9 4.4-6.8 6.1-4.4-.1-7.7-.8-11.7-2.6-7.9-3.1-16.5-2.1-24.2.9-3.6 1.2-6.3 1.1-10.1.7-3.6-2.2-5.4-4.2-7-8-1.7-10.2 3.6-19.2 9.1-27.4 7.1-9.5 18-16.3 29.8-11.2z" fill="#04969a"/><path d="M231 765q2 1 4 2-.2 7.6-.4 15.3 0 2.6-.1 5.2-.1 3.7-.2 7.5 0 1.3-.1 2.7-.1 6.8-.5 13.6c-.9 20.3-.9 40.5-.9 60.7q0 4.6 0 9.2c0 28.4.4 56.7 1.7 85.1 1.5 33.4 1.6 66.7 1.6 100.1q0 8.8-.1 17.6 0 17 0 34-3-.5-6-1v-3.2l-2-131.4q0-1-.1-2.1l-1.1-32.1c-.8-14.6-.9-29.2-.9-43.8q0-3.8 0-7.6 0-7.8 0-15.7 0-9.9 0-19.9c-.1-55.5-.1-55.5 1.1-79.2 0-1 0-1 .1-2q.1-3.1.2-6.2.1-1.9.2-3.8.3-1.5.5-3 1.5-1 3-2z" fill="#c7c9c1"/><path d="M778 769q2.5.4 5 1c.2 24-.3 47.8-1.3 71.8q-.5 10.2-.9 20.4-.1 2.5-.2 5l-1.2 37.2-1.7 52.2c-1.4 38.1-1.9 76.2-2.2 114.3q-.1 8.5-.2 17.1-.2 16.5-.3 33-3 .5-6 1-.1-34.9-.1-69.9 0-3.3 0-6.5 0-17.6.2-35.2.1-1.5.1-3.1.2-13 .6-26.1 0-1.6.1-3.4 0-1.9.1-3.8.1-2.3.1-4.5 2.1-67.8 4.8-135.6.2-4.6.4-9.1.1-2.2.1-4.5.5-12.6.9-25.3v-2.5q.2-5.9.3-11.8.1-2.1.1-4.2.1-1.9.1-3.7c.2-2.8.2-2.8 1.2-3.8z" fill="#c9cbc3"/><path d="M452.3 408.7c3.5.4 4.5 1.5 7 3.9 16.7 14 41.1 14.6 61.7 13.4 14.5-1.4 27.7-6.6 39.1-15.7 2.5-1.7 3.9-1.8 6.9-1.3 2 3 2 3 2.1 6.3-2.2 7.5-8.8 10.7-15.4 14.3-24.4 12.1-54.4 12.5-80 4.5-9.4-3.3-18.6-7.1-23.9-16.1-1.1-2.7-1-5.1-.8-8 1-1 1-1 3.3-1.3z" fill="#041b3b"/><path d="M467 246c2.5 3.8 2.5 5.6 2 10-2.2 2.6-3.9 4.5-7 6-4.4.2-8.1 0-12.4-1-14.4-3.1-31.1-1.7-44.2 5.3-3.6 1.8-5.5 2.3-9.4 1.7-2-2-2-2-2.4-4.8.7-5.8 4-9.1 8.4-12.8 16-11.8 47.9-16.7 65-4.4z" fill="#021d3b"/><path d="M611.7 252.7c5.1 4.9 5.1 4.9 5.5 8.2v2.1q.1 1 .1 2.1-.1.9-.3 1.9c-3 2-3 2-5.6 1.9-3-.8-5.1-1.8-7.8-3.3-13.6-7-29.2-6.7-43.9-4.1-8.6 1.5-8.6 1.5-12.5-.4-3.1-2.2-4.1-3.8-4.9-7.5.8-4.3 2.3-6.9 5.7-9.6 18.2-9.9 48.8-4.5 63.7 8.7z" fill="#031c3b"/><path d="M497.1 298.6c2.9.4 2.9.4 4.9 2.4-.9 19.5-9.9 40.8-17.9 58.4-1.9 4.3-2.5 7.8-2.1 12.6 2.8 4.2 6.2 4.9 11 6 3.6.3 3.6.3 7.3.2 2 0 2 0 3.9-.1 4.1-.1 8-.5 11.9-1.1h1.9c2 2 2 2 2.1 4.9-1.3 3.6-2.7 4.6-6.1 6.3-9.7 3.8-22.6 2.9-32-1.2-5.2-2.9-8.4-6.1-11.3-11.3-1.7-6.4-.8-11.4 1.8-17.4q.8-2 1.7-3.9.4-1.1.9-2.2c5.6-13.3 10.1-26.6 13.6-40.7q.3-1.5.8-3.2.3-1.4.6-2.8c1.5-4.1 2.5-6.3 7-6.9z" fill="#041a3b"/><path d="M663.3 797.1c4.6 3.2 8.4 7.3 9.7 12.9.1 7.3-1.3 12.1-6.4 17.5-4.5 3.9-8.9 4.2-14.8 3.9-5.1-.8-7.7-3.2-11.1-7-3.5-5-3.3-10.5-2.7-16.4 2.4-4.9 5.7-7.8 10-11 5.2-1.7 10.1-1.7 15.3.1z" fill="#031d3e"/><path d="M350 368c5.2 2.5 8.4 6.2 11.3 11.2 1.5 5.7 1.7 10.9-1 16.2-4 4.6-7.3 7.3-13.5 7.9-6.2-.5-10.8-2.9-15.2-7.4-3.3-4.2-4-8.7-4.6-13.9q1 0 2 0 .1-1.3.1-2.6c1.2-4.5 3.6-7.2 6.9-10.4 4.2-2.1 9.4-1.4 14-1z" fill="#efab01"/><path d="M682.3 367.6c5.1 4.4 7.8 7 8.8 13.8.2 5.4-.7 9.3-4.1 13.6-6.1 4.8-11.4 5.8-19 5-4.8-1.7-8.3-4.7-11-9-1.8-5.4-.6-10.7 1-16 4.9-8.6 15.5-11.7 24.3-7.4z" fill="#f0aa01"/><path d="M441 294c5 2.5 8.5 6 11 11 .9 7.9.7 13.9-4.4 20.3-3.4 3.6-6 4.9-11 5.2-3.9-.2-6.5-1-9.3-3.9-5-6.2-6-11.7-5.7-19.6.7-5.4 3.1-7.9 7.1-11.4 4.3-2.1 7.6-2.4 12.3-1.6z" fill="#031c3b"/><path d="M582 295c3.9 3.4 7.8 7.4 8.2 12.8.2 8.7-.9 13.7-5.9 20.6-3.3 2.3-6.3 2.9-10.3 2.6-6.4-3.2-10.2-8.1-12.5-14.8-1.2-5.3-.3-9.8 2.3-14.5 5-6 10.3-9.6 18.2-6.7z" fill="#021c3b"/><path d="M354.5 714.1q1.2.4 2.5.9c-3.7 4.5-7.7 8.7-11.9 12.7q-1.6 1.6-3.2 3.2-2.5 2.4-5.1 4.8-2.4 2.3-4.9 4.7-.7.7-1.5 1.4c-1.6 1.6-1.6 1.6-3.4 4.2.1 4 1.3 7.1 3 10.7q.6 1.3 1.3 2.6.7 1.4 1.4 2.9.7 1.5 1.5 3 17.8 36.5 38.6 71.4c4.5 7.5 4.5 7.5 6.2 11.4-.8 2.9-.8 2.9-2 5-3.2-3-5.4-6-7.6-9.8q-.5-.8-1-1.7-1.6-2.7-3.2-5.5c-.6-1-.6-1-1.1-1.9-11.7-20.1-22.5-40.7-32.9-61.4q-.5-1.2-1.1-2.4-1.7-3.4-3.4-6.7-.5-1-1-2c-5.7-11.6-5.7-11.6-5.6-14.8 1.2-2.3 2.6-3.8 4.5-5.6 2.6-2.5 5.1-5 7.5-7.8 3.7-4.2 7.5-8.4 11.5-12.5q.9-1 1.9-2.1c4.7-4.8 4.7-4.8 9-4.7z" fill="#c8c9c1"/><path d="M297.2 915.6c3.7 1.8 5.6 2.9 7.8 6.4.8 4 .4 7.1-1.2 10.9-3 3.5-5.9 4-10.4 4.4q-2.1.1-4.1.1-1 0-2.1 0c-6.6-.2-12.8-1.5-17.9-5.8-2.9-3.5-2.6-7.3-2.3-11.6 1.4-3.3 2.6-4.7 5.5-6.8 8.8-3 16.3-1.2 24.7 2.4z" fill="#021d37"/><path d="M407.3 914.1c2.6 1.4 3.6 2.2 4.7 4.9.6 4.3.6 7.8-1.3 11.8-7.5 6.1-15.9 6.6-25.3 6.6-3.7-.4-5.5-1.1-8.4-3.4-1.9-2.8-2.3-5.2-2.3-8.6v-2.3c.3-2.1.3-2.1 2.3-5.1 10-5.1 19.5-8.6 30.3-3.9z" fill="#011d38"/><path d="M773 940q1.5 0 3 0 .2 20.4-.4 40.7l-1.1 81.6q-.1 9.8-.2 19.6-.2 19-.3 38.1-1.5 0-3 0V946q.5 0 1 0 .5-3 1-6z" fill="#d1d1c9"/><path d="M696 885c2.6 2.2 4.5 4.9 6 8 .5 6.7-.1 12.5-4.5 17.8-2.9 2.7-4.8 4.1-8.6 4.8-3.6-.8-5.3-2-7.9-4.6-2.4-4.1-2.7-8.4-2-13 1.4-4.8 3.1-8.2 6.8-11.6 3.9-1.7 6-2.2 10.2-1.4z" fill="#059398"/><path d="M663 885c4.9 2.7 8 6.5 9.6 11.8 1 5.6.5 10.5-2.5 15.3-2.4 2.2-3.5 2.8-6.8 3.3-4.7-.6-7.2-2.8-10.3-6.4-3.1-5.2-4-11.1-3-17 3.4-6.3 5.8-7.8 13-7z" fill="#069297"/><path d="M718 906c3.2 2.6 3.9 4.2 4.5 8.3-.8 5.9-3 10.6-7.3 14.7-4.3 2.7-6.2 2.8-11.2 2-3.4-2.7-3.9-4.5-4.5-8.8.3-5.9 2.9-10.3 6.7-14.7 4-2.1 7.4-2.4 11.8-1.5zm-77-1c4.8 3 8.2 6.6 10 12 .8 4.9.7 7.9-2.1 12.1-2.9 1.9-2.9 1.9-5.7 2.7-4.9-1.2-7.9-4-11.2-7.8-2.4-3.9-3-7.2-3-11.8 1.8-5.9 5.8-8.4 12-7.2z" fill="#059297"/><path d="M701 312l3 2q-.5 2.5-1 5-.8.1-1.7.2c-6.2 1.1-10.3 2.9-14.3 7.8-4 6.6-6.7 13.5-8.8 20.9-1.2 2.1-1.2 2.1-3.7 3q-1.2.1-2.5.1c-2-2-2-2-2.2-4 1.1-12 6.2-22.8 15.3-30.9 5.1-3.8 9.6-5.4 15.9-4.1z" fill="#db5e12"/><path d="M319.6 311.5c7.1.2 11.5 3.5 16.3 8.5 7 8.2 10.8 17.2 10.3 28q-.1 1-.2 2c-2.4.6-2.4.6-5 1-2.6-2.6-3.2-5.5-4.2-8.9-2.4-7.7-5.5-16-12.2-20.9-2.5-1.1-4.2-1.7-6.9-1.9q-1.8-.1-3.7-.3c-.6-2.4-.6-2.4-1-5 2.4-2.4 3.2-2.4 6.6-2.5z" fill="#da5d12"/><path d="M341 615c2.1 4.3-.9 10.4-2.2 14.8-2.4 6.7-5.7 12.9-8.9 19.1q-1.6 3.3-3.2 6.5-1 2.1-2 4c-2.2 4.5-4 8.9-5.7 13.6q1.2.4 2.4.7c4.3 1.6 8.5 3.4 12.6 5.3v7q-4.7-2.2-9.3-4.4-1.3-.6-2.7-1.2-1.2-.6-2.6-1.2-1.1-.6-2.3-1.1C315 677 315 677 312 675c1.2-5.3 3.7-10.1 5.9-15.1q.8-1.6 1.5-3.2c4.6-9.8 9.5-19.3 14.6-28.7q1.1-2 2.2-4.1 2.4-4.4 4.8-8.9z" fill="#c9cac1"/><path d="M654 678c1.2 6.7.6 12.4-.4 19q-.3 1.4-.5 2.9-.5 3.6-1.1 7.1-1.5 0-3 0-1.5-2.5-3-5a238.2 238.2 0 0 0-9.9-10.2q-1-1-2-2.1-.9-.9-1.9-1.9c-1.2-1.8-1.2-1.8-1-4 .8-1.8.8-1.8 1.8-2.8q2.1-.4 4.2-.8 1.2-.2 2.5-.4 1.4-.2 2.7-.4 1.4-.2 2.7-.4c6.6-1 6.6-1 8.9-1z" fill="#cbccc4"/><path d="M228 831q1.5 0 3 0v101q-2.5-.5-5-1l.4-51.7q.1-5.9.2-11.9c.3-24.5.3-24.5 1.4-36.4z" fill="#d1d1c8"/><path d="M671 712q.1.9.3 1.9c.5 2.3.5 2.3 2.5 3.1l2.2 1 3.4 3.9c2.7 3.1 5.3 5.7 8.6 8.1-.6 3.8-1.7 6.8-3.4 10.2q-.7 1.5-1.4 3l-1.5 3.1q-.7 1.5-1.5 3.1-4 8.3-8.2 16.6-1.5 0-3 0c-.5-6.1.9-9.5 3.7-14.7q1.1-2.1 2.2-4.2.5-1 1.1-2.1c2.3-4.5 4.1-9.3 6-14q-.9-.4-1.8-.9c-6.1-3.1-6.1-3.1-8.2-6.1-.8-4-1-7.9-1-12z" fill="#cacac2"/><path d="M681 634c2.2 3.3 2.9 5.9 3.9 9.7q.3.9.6 1.9.5 2.1 1.1 4.2.8 3.1 1.7 6.2.5 2 1 4.1.5 1.8 1 3.6c.6 2.9.8 5.4.7 8.3l-2.6 1q-1.6.6-3.3 1.3-1.6.7-3.3 1.3c-3 1.2-3 1.2-4.8 4.4-1.3-6.4-1.3-6.4.1-8.9 2.5-1.5 5-1.7 7.9-2.1q-.4-1.6-.9-3.3c-2.7-10.8-3.6-20.6-3.1-31.7z" fill="#cbcbc3"/><path d="M653 683q.5 0 1 0c.2 7.2-.7 13.9-2 21q-.5 0-1 0c-.4-1.3-.4-1.3-.7-2.7-1.5-3.7-3.2-5.7-5.9-8.6-4.4-4.5-4.4-4.5-4.4-6.7l13-1q0-1 0-2z" fill="#f8f2e5"/></svg>