<svg xmlns="http://www.w3.org/2000/svg" width="1024" height="1257" xmlns:v="https://vecta.io/nano"><path d="M393 570q-.1 1.5-.2 3-.4 5.4-.7 10.8l-.5 6.1c-.8 10.5 2.5 15.8 9.1 23.5q1.7 2.1 3.4 4.3c13.8 17.7 30.4 33.4 47.9 47.3q1.7 1.4 3.3 2.7c16.4 13.5 34 25 52.2 35.8q3.3 2 6.5 4 1.6 1 3.2 2 1.3.8 2.6 1.7c2.2 1 2.2 1 4.2.1 1-.6 1-.6 2-1.3q1.2-.7 2.3-1.4c7.6-4.7 14.7-10 21.7-15.6q1.4-1.1 2.8-2.3c16.1-12.9 31.7-27.3 44.2-43.7q1.1-1.5 2.3-3c14.7-19.1 23.8-40 25.7-64 7.4 1.2 11.7 9.7 15.8 15.4 34.8 48.8 38.2 105 32.9 162.7q-.1 1.7-.3 3.5c-1.6 18.6-3.6 37.3-8.4 55.4q-1.4.3-2.7.7c-7.7 2-14 4.3-20.3 9.3q-1.2.9-2.5 1.9c-7.4 6.3-13.8 18.3-14.7 28.2-.4 15.5.6 28.7 11.2 40.9 5.9 6.2 12 10.8 20 14q1.3.5 2.7 1.1c13.9 3.8 29 1.3 41.3-5.8 11.2-7.5 18.8-19 21.6-32.2 2-16.1-.7-28.9-10.6-42.1-6-7.2-13.3-11.6-22-15 .4-5.7 1.2-11.3 2.4-16.9 1.5-7.6 2.4-15.1 3.2-22.7q.2-1.7.4-3.4c1.4-12.6 2.2-25.2 2.2-38q0-1.9 0-3.9 0-4 0-8.1 0-4 .1-8.1c.1-15.4-.2-30.4-2.9-45.6q-.6-3.8-1.2-7.5c-3.6-22.7-11.4-50.2-24.5-69.2-1.7-2.6-1.7-2.6-1.7-4.6 8 2.2 15.6 5.1 23.3 8.3q.9.4 1.8.8c13.7 5.7 27 11.9 40.3 18.2q5.1 2.4 10.2 4.8c30.5 14.3 60.7 30.7 85.4 53.9.9.8.9.8 1.8 1.7 34.6 32.7 49.2 84.5 56.1 130q.2 1.2.4 2.5 1.4 8.9 2.7 17.8.2 1.1.3 2.3c10.7 71.9 15.5 145.2 19.3 217.8q.4 8.2 1 16.3c1.1 13.4 1.6 26.7 1.8 40.1q0 2.7 0 5.4c.2 15.6-2.2 25.7-13.4 37.2-6 5.6-12.8 9.8-20 13.9q-1.6 1-3.2 1.9c-64 36.9-157.9 39.5-229.6 44.8q-4.4.3-8.9.7-18.6 1.5-37.3 2.6-1.3.1-2.7.2c-68.1 4-137.8 4.5-205.8-1q-3.6-.3-7.2-.5c-9.8-.7-19.5-1.7-29.3-2.7-1.3-.1-1.3-.1-2.7-.3-144.5-15.1-144.5-15.1-205.3-44.7l-2-1c-14.2-6.8-27.8-16-34.4-30.9-1.5-4.7-1.9-9.1-1.8-14.1q0-1.2 0-2.4c.2-12.4 1-24.7 1.8-37.1q.2-3.2.4-6.5l11.3-150.3q.8-7.6 1.5-15.2c9.4-99.9 9.4-99.9 19.2-133.5q.6-2.3 1.2-4.6c5-18.4 11.9-35.6 20.8-52.4q.9-1.7 1.8-3.5c7.5-13.8 17.4-26.2 28.2-37.5q1-1.1 2.1-2.2c3.4-3.6 6.5-6.4 10.9-8.6 2.6-1.5 4.8-3.3 7.1-5.1C230 645 248.2 635.9 266 627q1.6-.8 3.3-1.7c16.8-8.4 33.7-16 51-23.2q1.5-.6 2.9-1.3 4.2-1.7 8.3-3.4 1.2-.5 2.5-1c5.8-2.4 5.8-2.4 8-2.4-1.1 3.4-2.3 6.8-3.7 10.1-5.8 13.3-9.4 26.7-12.3 40.9q-.3 1.3-.5 2.6c-4.2 21.1-3.4 43.5-1.6 64.7q0 1.3.1 2.7c-1.5 1.5-3.1 1.4-5.2 1.8-19.7 3.8-38.8 15.1-50.8 31.2-10.6 16.5-16.6 33.1-16.4 52.9v3.8c.1 9.9 1 19.6 2.2 29.4q.1 1 .3 2.1c.8 8.5.8 8.5 4.9 15.8a120.59 120.59 0 0 1 2.1 8.1c4.7 18.9 11.5 37.2 19.9 54.8q1.4 2.9 2.7 5.8c8 16.8 18.8 31.5 31.3 45.1 1.8 2 3.4 4 5 6.2-4.8 1.8-9.5 2.7-14.6 3.4q-1.1.2-2.2.3c-3.8.5-5.7.6-8.9-1.5q-1.1-1.1-2.3-2.2c-9.2-4.3-18.7-6.1-28.8-6.4q-1.9-.1-3.8-.2c-4.3.7-5.7 2.3-8.4 5.6q-.5.5-1 1c-.6 4.9-.9 8.7 1.9 12.9 8.8 6 17.3 7.3 27.7 7.3q1.1 0 2.3 0c3.1 0 5.6 0 8.5-1.2 2.7-1 4.8-1.3 7.7-1.5q1.4 0 2.9-.1 1.5-.1 3-.2c10.5-.8 18.4-3.1 27.9-7.6 4.2-.8 6.5.6 10 2.7 8.2 4.6 15.5 6 25 6.3q2.5.1 5 .2h2.3c1.8.2 1.8.2 3.8 1.2 19 1.1 19 1.1 36.4-5.5 2.7-2.8 3.2-5.2 3.5-9-.3-3.9-.9-6.3-3.6-9.2-5.9-4-12.7-3.1-19.4-1.9q-3.4.6-6.8 1.4-1 .2-2.1.4c-5.6 1.4-10.7 3.5-14.9 7.6-3.6 2-7.2.7-11.2 0q-1.2-.3-2.4-.5c-3.3-.6-6.4-1.3-9.5-2.3 1.3-3 2.8-5 5.2-7.3 27.8-27 41.9-67.5 52.1-103.9q.5-1.6 1-3.3.4-1.4.8-2.9c1-2.8 2.3-5 3.9-7.6.6-2.6 1.2-5.1 1.6-7.7q.2-1 .4-2.1c5.3-29.8 4.8-63.6-13-89.2-2.8-3.5-5.8-6.8-9-10l-2.1-2.1c-10-9.5-21.9-14.8-34.9-18.9q-3-1-6-2-.5-3-.9-6.1-.3-1.6-.6-3.4c-.2-1.7-.2-1.7-.5-3.5q-.3-1.5-.5-3.1c-4.4-37.5 3.6-80.2 26.5-110.9 15.6-19 15.6-19 21-19z" fill="#f9f2e5"/><path d="M648 166c13.3 8.4 20.5 26.3 24.1 40.9 8 34.9 7.9 71.8 8.5 107.4q0 3.8.1 7.5.2 9.1.3 18.2c3.3-9.5 6.5-19 8.7-28.9q.6-2.5 1.2-5 .3-1 .5-2.1c.6-2.2 1.5-4 2.6-6 7.4-.8 12.1 2 17.9 6.5 7.9 7.1 11.7 16.8 12.3 27.2.5 25.4-6.9 48.3-24.2 67.3-5.7 5.9-12.9 11.8-21.3 12.1q-1.3 0-2.7-.1 0 1.1-.1 2.2c-.8 16-5.5 30.9-10.9 45.8q-.6 1.8-1.3 3.7c-6.3 16.8-15.2 32.5-26.7 46.3q-1 1.5-2 3-1 0-2 0-.3 1-.6 2.1c-2 4-4.9 7-8.4 9.9q-1 0-2 0c-.3 29.6-.3 29.6 1.6 59.2 2.2 23.1-10.8 45.2-24.6 62.8q-3.3 3.8-6.7 7.5l-5.5 6.2c-9.9 11.4-20.8 22.2-32.8 31.3q-2 1.6-4 3.1c-21.5 16.7-21.5 16.7-28 18.9-1.7-.7-1.7-.7-3.7-1.8-1.1-.7-1.1-.7-2.2-1.3q-1.2-.7-2.4-1.5-1.3-.7-2.5-1.5-4.1-2.4-8.2-4.9-1.3-.8-2.7-1.7c-22.9-14-44.3-29.9-64-48.1q-3.1-3-6.4-5.8c-7.2-6.2-13.7-13.1-19.9-20.4q-1.2-1.3-2.3-2.7-3.3-3.8-6.4-7.7-1.3-1.6-2.6-3.2c-6.1-7.2-8.7-12.9-8.1-22.6q.2-1.9.4-3.8.1-2 .2-4c.6-9.5.6-9.5 1.8-12-28 21.7-41.2 53.9-46.1 88.3-2.4 19.1-1.4 38.7 1.1 57.7q.9.2 1.7.4c16.6 3.5 30.2 10.8 42.3 22.6q.9.8 1.9 1.7c14.6 13.3 20.9 34.2 22.1 53.3.5 13.6.6 27.3-1.3 40.8q-.2 1.2-.4 2.5c-1 6-2.9 11.4-5.3 17-2.7 6.7-4.8 13.6-6.8 20.6-3.3 11.7-7.3 23-12.2 34.1q-.6 1.3-1.1 2.6c-7.7 17.1-16.4 33.4-28.9 47.4q-1.2 1.4-2.5 2.7-2.2 2.6-4.6 5.1c-1.7 2-3.3 4.1-4.9 6.2 3.5.7 7 1.3 10.6 1.9l3 .6c5.4 1 5.4 1 10.4-.7q1.7-1.6 3.4-3.3c2.7-2.6 5.6-3 9.2-3.8q1.9-.5 3.9-.9l3.5-.8q1.3-.3 2.6-.6c6-1 12.3-1.8 18 .8 3.3 2.4 5 4.5 6.2 8.5.3 4 0 7-2.1 10.5-7.3 7.4-18.1 7.9-28 8-10.2.1-10.2.1-12.7-1.2q-3.1-.1-6.3-.2c-11.9-.4-22.6-2-32.6-9-3.9-1.4-7.2.8-10.7 2.4-8.4 3.8-16.3 4.6-25.4 5.2q-1.5.1-2.9.1-1.3.1-2.6.2c-2.8.3-4.9 1.3-7.5 2.3a112.33 112.33 0 0 1-8.2.3q-1.1-.1-2.3-.1c-10-.2-19.1-1.6-27-8.3-2.2-4.3-2.3-8.2-1.5-12.9 2.1-3.4 3.7-4.8 7-7 14.7-1.6 29.7 1.8 42 10 2.2 0 2.2 0 4.7-.5q1.3-.2 2.7-.4 1.4-.2 2.8-.5l2.8-.4q3.5-.6 7-1.2c.2-2.1.2-2.1-1.5-3.6l-2.2-2c-12.2-12-21.2-26.4-29.3-41.4-.5-1-.5-1-1.1-2-10.8-19.9-17.6-41.4-24-63-1.8-6.3-1.8-6.3-4.9-12-1-4.6-1.5-9.2-2.1-13.8q-.2-1-.3-2.1c-3.8-30.1-3.9-59.9 15.3-85.1 13.4-16.8 33.6-29.2 55.1-32q-.1-1.3-.2-2.6c-1.8-24.5-1.7-48.3 3.2-72.4q.3-1.3.5-2.7c2.8-13.2 7.4-25.6 12.6-38.1.8-2 1.4-4 1.9-6.2q1 0 2 0 .4-.8.8-1.6c10.5-20.5 26.3-37.4 47.2-47.4q1.5 0 3 0 .2-12.9.1-25.7 0-6 .1-12c.6-24.3.6-24.3-10-45.7-3.1-4.2-5-9.4-7-14.2q-.7-1.6-1.4-3.2C371.4 433 368 422.7 365 412q-1.4.2-2.8.5c-11.6 1.5-20.2.1-30.1-6.4-16.6-12.7-26.1-33.2-28.9-53.7q-.1-2.2-.2-4.4-.1-1.7-.2-3.5c-.5-15.3 5.1-27.6 15.4-38.8 4.4-4.2 8.1-5.9 14.2-6.3 6.1.2 9.3 2.4 13.6 6.6q.9.9 1.8 1.7c5 5.1 8.6 10.9 12.3 16.8 6.3 12 6.3 12 16.5 19.8 4.1-.4 5.6-1.4 8.4-4.3 1.2-2.4 1.1-4 1.1-6.7q0-1.5 0-3V327q0-1.7 0-3.4-.1-7.1-.1-14.3c-.3-47.6-.3-47.6 13.7-66 7.1-9.7 5.5-21.2 5.2-32.6-.3-13.8.2-27.2 10.2-37.9 7.6-7.2 13.7-9.3 24-9.1q1.4 0 2.8 0c9.7.2 18.9 1.6 28.3 3.7 9.3 2 18.7 3.5 28.2 4.8q1.8.2 3.8.5c40.2 5.2 80.6 2.3 119.2-10.4 9.8-3 17.6-1.2 26.6 3.7z" fill="#8e3d03"/><path d="M342 594c-1.1 3.4-2.3 6.8-3.7 10.1-5.8 13.3-9.4 26.7-12.3 40.9q-.3 1.3-.5 2.6c-4.2 21.1-3.4 43.5-1.6 64.7q0 1.3.1 2.7c-1.5 1.5-3.1 1.4-5.2 1.7-19.7 3.9-38.8 15.2-50.8 31.3-10.6 16.5-16.6 33.1-16.4 52.9v3.8c.1 9.9 1 19.6 2.2 29.4.1 1 .1 1 .3 2.1.8 8.5.8 8.5 4.9 15.8a120.59 120.59 0 0 1 2.1 8.1c4.7 18.9 11.5 37.2 19.9 54.8q1.4 2.9 2.7 5.8c8 16.8 18.8 31.5 31.3 45.1 1.8 2 3.4 4 5 6.2-4.8 1.8-9.5 2.7-14.6 3.4q-1.1.2-2.2.3c-3.8.5-5.7.6-8.9-1.5q-1.1-1.1-2.3-2.2c-9.2-4.3-18.7-6.1-28.8-6.4q-1.9-.1-3.8-.2c-4.3.7-5.7 2.3-8.4 5.6q-.5.5-1 1c-.6 4.9-.9 8.7 1.9 12.9 8.8 6 17.3 7.3 27.7 7.3q1.1 0 2.3 0c3.1 0 5.6 0 8.5-1.2 2.7-1 4.8-1.3 7.7-1.5q1.4 0 2.9-.1 1.5-.1 3-.2c10.5-.8 18.4-3.1 27.9-7.6 4.2-.8 6.5.6 10 2.7 8.2 4.6 15.5 6 25 6.3q2.5.1 5 .2h2.3c1.8.2 1.8.2 3.8 1.2 19 1.1 19 1.1 36.4-5.5 2.7-2.8 3.2-5.2 3.5-9-.3-3.9-.9-6.3-3.6-9.2-5.9-4-12.7-3.1-19.4-1.9q-3.4.6-6.8 1.4-1 .2-2.1.4c-5.6 1.4-10.7 3.5-14.9 7.6-3.6 2-7.2.7-11.2 0q-1.2-.3-2.4-.5c-3.3-.6-6.4-1.3-9.5-2.3 1.3-3 2.8-5 5.2-7.3 14.9-14.4 24.7-33.3 33.8-51.7q1 0 2 0c1.7 2.2 3.2 4.5 4.8 6.8 6.4 9.6 13.3 18.9 20.2 28.2q.8 1 1.6 2.1l21.1 27.6q4.3 5.5 8.5 11.1c8.1 10.5 16.3 20.9 24.8 31.2q5.6 6.8 11.1 13.7 4.3 5.3 8.6 10.5 2.3 2.7 4.5 5.5 7 8.6 14.3 17.1c3.6 4.2 4.6 6.1 4.6 11.6v3.5q0 1.9 0 3.9 0 2 0 4.1 0 5.5 0 11 0 5.7 0 11.5 0 10.9 0 21.8 0 12.4 0 24.8-.1 25.5-.1 51c-4 1.5-7.4 2.3-11.7 2.3q-1.6 0-3.3 0-1.8 0-3.7 0-1.8 0-3.8 0-5.1 0-10.3 0-3.2 0-6.4 0c-28.7 0-57.2-1.3-85.8-3.3l-2.5-.2c-10.5-.7-21-1.7-31.5-2.8-1.3-.1-1.3-.1-2.7-.3-144.5-15.1-144.5-15.1-205.3-44.7l-2-1c-14.2-6.8-27.8-16-34.4-30.9-1.5-4.7-1.9-9.1-1.8-14.1q0-1.2 0-2.4c.2-12.4 1-24.7 1.8-37.1q.2-3.2.4-6.5l11.3-150.3q.8-7.6 1.5-15.2c9.4-99.9 9.4-99.9 19.2-133.5q.6-2.3 1.2-4.6c5-18.4 11.9-35.6 20.8-52.4q.9-1.7 1.8-3.5c7.5-13.8 17.4-26.2 28.2-37.5q1-1.1 2.1-2.2c3.4-3.6 6.5-6.4 10.9-8.6 2.6-1.5 4.8-3.3 7.1-5.1C230 645 248.2 635.9 266 627q1.6-.8 3.3-1.7c16.8-8.4 33.7-16 51-23.2 1.5-.6 1.5-.6 2.9-1.3q4.2-1.7 8.3-3.4 1.2-.5 2.5-1c5.8-2.4 5.8-2.4 8-2.4z" fill="#f9f2e5"/><path d="M625 580q.5 0 1 0c2.4 9.9 2.4 19.7 2.3 29.8q0 1.3 0 2.7c-.1 19.6-1.4 39-3.3 58.5q-.1 1.1-.2 2.3c-2.5 25.3-5.9 50.5-9.8 75.7q-.3 1.8-.6 3.7c-5.3 34-14.3 67.9-24.4 100.9q-1.1 3.6-2.1 7.3c-2.9 10.1-6.2 20-9.6 29.8q-2.3 6.8-4.6 13.6-.5 1.3-1 2.7-4 11.8-7.9 23.5c-9.8 29.7-19.7 59.4-31.4 88.4-.5 1.2-.5 1.2-.9 2.4-4.3 10.7-8.8 21.2-13.5 31.7q-1 0-2 0c-33.8-76.9-61.2-156.8-84.1-237.6q-.6-2.3-1.3-4.6-.9-3.4-1.9-6.7-1.7-6.1-3.4-12.1c-3.9-13.2-7.4-26.5-10.8-39.9q-.8-3.4-1.7-6.7c-5.5-21.4-10.7-42.7-14.8-64.4q-.4-2.1-.8-4.1c-4.9-25.6-7.6-49.7-7.2-75.9 3.3 3.2 6 6.7 8.6 10.5 4.9 7.1 10.5 13.2 16.4 19.5q2.4 2.6 4.7 5.3c6.1 6.7 12.4 12.8 19.3 18.7q1.4 1.2 2.8 2.4c8.8 7.6 17.9 14.7 27.2 21.6q1 .7 2 1.5c11.4 8.4 23.3 15.8 35.5 23q3.3 2 6.5 4 1.6 1 3.2 2 1.3.8 2.6 1.7c2.2 1 2.2 1 4.2.1q1-.6 2-1.3 1.2-.7 2.3-1.4c7.6-4.7 14.7-10 21.7-15.6q1.4-1.1 2.8-2.3c16.1-12.9 31.7-27.3 44.2-43.7q1.1-1.5 2.3-3c14.7-19.1 23.8-40 25.7-64z" fill="#11adb2"/><path d="M561 52q1.2.2 2.4.4c5.3 1 10.4 2.2 15.6 3.6q1.1.3 2.3.6c23.4 6.4 48 18.2 67.7 32.4.9.6.9.6 1.8 1.3 13.6 9.8 23.8 21.2 32.2 35.7q.6 1.1 1.3 2.2c6.1 10.6 10.9 21.3 14.8 32.8q.5 1.6 1.1 3.3c10.1 31.4 7.6 68.9.8 100.7q-.4 2.2-.8 4.4c-4.3 24.9-10.5 49.8-19.2 73.6q-.5 0-1 0v-2c-.5-41.6-.5-41.6-2.8-83.2l-.5-9.6c-1.1-26-4.6-57.6-23.7-77.2-8.3-6.8-16.3-9.8-27-9-3.3.7-6.4 1.7-9.6 2.7-50.5 15.3-102.1 13.9-153.1 1.9-12.5-2.3-31.2-5.3-42.4 1.8-8.4 7-13.5 15.6-14.9 26.6-.2 6.8 0 13.5.2 20.3.3 12.8-.7 22.7-8.7 33.3-11.1 15.2-10.7 32-10.4 50.1q0 1.7 0 3.4.1 7.1.2 14.1.1 5.2.2 10.4 0 1.6 0 3.2c.1 8.2.1 8.2-2.8 11.8-3.4 3-5.2 3.6-9.7 3.4-5.1-3.6-8.1-7.7-11.3-13q-1.5-2.3-2.9-4.6-.7-1.1-1.4-2.2c-6-9.6-11.9-17.9-21.4-24.2q-3-.6-6-1c-7.7-35.9-11.3-69.4-6-106q.2-1.5.4-3c4.1-27 16.5-51 33.6-72q.7-.9 1.5-1.9C390.4 81.9 428.3 60.8 473 52q1-.2 2.1-.5c27.2-5.7 58.7-4.4 85.9.5z" fill="#001e42"/><path d="M394 544q0 4.3.1 8.6 0 1.2 0 2.4 0 3.5-.1 7l-.1 3.7c-1.3 4.8-4.2 6.9-7.9 10-6.7 5.9-12.1 11.8-17 19.3q-1 1.5-2 3.1c-8.9 14.6-14.8 31.2-18 47.9q-.2 1.1-.4 2.3c-4.3 22.3-3.5 45.3-.6 67.7q.9.2 1.7.4c16.6 3.5 30.2 10.8 42.3 22.6q.9.8 1.9 1.7c14.6 13.3 20.9 34.2 22.1 53.3.5 13.6.6 27.3-1.3 40.8q-.2 1.2-.4 2.5c-1 6-2.9 11.4-5.3 17-2.7 6.7-4.8 13.6-6.7 20.6-3.4 11.7-7.4 23-12.3 34.1-.6 1.3-.6 1.3-1.1 2.6-7.7 17.1-16.4 33.4-28.9 47.4q-1.2 1.4-2.5 2.7-2.2 2.6-4.6 5.1c-1.7 2-3.3 4.1-4.9 6.2 3.5.7 7 1.3 10.6 1.9l3 .6c5.4 1 5.4 1 10.4-.7q1.7-1.6 3.4-3.3c2.7-2.6 5.6-3 9.2-3.8q1.9-.5 3.9-.9 1.7-.4 3.5-.8 1.3-.3 2.6-.6c6-1 12.3-1.8 18 .8 3.3 2.4 5 4.5 6.2 8.5.3 4 0 7-2.1 10.5-7.3 7.4-18.1 7.9-28 8-10.2.1-10.2.1-12.7-1.2q-3.1-.1-6.3-.2c-11.9-.4-22.6-2-32.6-9-3.9-1.4-7.2.8-10.7 2.4-8.4 3.8-16.3 4.6-25.4 5.2q-1.5.1-2.9.1l-2.6.2c-2.8.3-4.9 1.3-7.5 2.3a112.33 112.33 0 0 1-8.2.3q-1.1-.1-2.3-.1c-10-.2-19.1-1.6-27-8.3-2.2-4.3-2.3-8.2-1.5-12.9 2.1-3.4 3.7-4.8 7-7 14.7-1.6 29.7 1.8 42 10 2.2 0 2.2 0 4.7-.5q1.3-.2 2.7-.4c1.4-.2 1.4-.2 2.8-.5l2.8-.4q3.5-.6 7-1.2c.2-2.1.2-2.1-1.5-3.6q-1.1-.9-2.2-2c-12.2-12-21.2-26.4-29.3-41.4-.5-1-.5-1-1.1-2-10.8-19.9-17.6-41.4-24-63-1.8-6.3-1.8-6.3-4.9-12-1-4.6-1.5-9.2-2.1-13.8q-.2-1-.3-2.1c-3.8-30.1-3.9-59.9 15.3-85.1 13.4-16.8 33.6-29.2 55.1-32q-.1-1.3-.2-2.6c-1.8-24.5-1.7-48.3 3.2-72.4q.3-1.3.5-2.7c2.8-13.2 7.4-25.6 12.6-38.1.8-2 1.4-4 1.9-6.2q1 0 2 0 .4-.8.8-1.6C352.2 575 373.2 544 394 544z" fill="#011d40"/><path d="M395 496c2.2 2.7 4.4 5.5 6.3 8.4q.6.9 1.2 1.9.6.9 1.3 1.9c25.3 38.4 64.5 71.5 110.4 80.9 6.7 1.2 13.4 1.2 20.2 1.2q1.8 0 3.7.1c25.7 0 48.4-12.1 66.6-29.7 4.7-4.8 8.7-10 12.5-15.5l1.8-2.2q1 0 2 0 .1 1.4.2 2.9.3 5.6.6 11.1.1 2.4.3 4.8.1 2.3.2 4.6.2 2.3.3 4.6.3 5.9.7 11.7.1 1.1.2 2.3.2 2.1.3 4.3c.5 7.1-1.3 13.1-3.8 19.7l-1.2 3.1c-6.1 15.5-15.1 29.3-26.5 41.4l-5.5 6.2c-9.9 11.4-20.8 22.2-32.8 31.3q-2 1.6-4 3.1c-21.5 16.7-21.5 16.7-28 18.9-1.7-.7-1.7-.7-3.7-1.8q-1.1-.7-2.2-1.3-1.2-.7-2.4-1.5-1.3-.7-2.5-1.5-4.1-2.4-8.2-4.9-1.3-.8-2.7-1.7c-22.9-14-44.3-29.9-64-48.1q-3.1-3-6.4-5.8c-7.2-6.2-13.7-13.1-19.9-20.4q-1.2-1.3-2.3-2.7-3.3-3.8-6.4-7.7-1.3-1.6-2.6-3.2c-6.1-7.2-8.7-12.8-8.1-22.4q.1-1 .2-2c.2-2.1.3-4.3.4-6.5.5-10.6.5-10.6 1.3-15.8.5-3.8.8-7.7 1-11.6q.1-1.1.2-2.3c.5-11 .7-21.9.9-32.9q0-3.4.1-6.7.2-8.1.3-16.2z" fill="#8e3d03"/><path d="M353 743q1.3.4 2.7.8c8.5 3.1 15.3 8.5 21.3 15.2q.8.9 1.6 1.8c12.8 15.2 14.5 33.3 13.4 52.2-.6 7.3-1.5 14.6-2.3 21.9-1.3 8.4-1.3 8.4 1 16.3 1.7 3.6 1 5.7-.3 9.4q-1.2 3.2-2.4 6.4-.9 2.9-1.8 5.9c-7 22.9-15.6 46.8-30.2 66.1q-.9 1.2-1.7 2.4c-4.4 5.8-9.3 11.2-14.3 16.6q-.8.9-1.5 1.8c-1.3 1.4-1.3 1.4-3.5 3.2-5.8-.5-9.4-6-13-10-7.6-9.1-14-18.8-20-29q-.6-1-1.2-2c-9.8-17-16.6-35.6-22.5-54.3q-.5-1.7-1.1-3.4-.4-1.5-.9-3.1-.4-1.4-.8-2.8c-.7-3.7 0-5.6 2.1-8.7 2.6-5 1.4-10.1.3-15.5-1.7-9-2.3-17.9-2.3-27q0-2.9-.1-5.9c0-17.3 5.7-32.6 17.5-45.3 16.3-15.7 38.7-19.8 60-13z" fill="#f9f2e5"/><path d="M621 553c24.5 9.3 42.8 27.4 54 51 14.1 31.6 23.1 64.8 23.2 99.5v3.9q0 4.1 0 8.2 0 4.1 0 8.2c.1 16.5-.3 32.8-2.2 49.2l-.4 3.6q-.4 4.2-1 8.5-.2 1.4-.3 2.9c-1.4 10.1-3.3 20-5.3 30 .9.3.9.3 1.8.5 11.2 3.6 20 11.3 26 21.5 4 7.9 6.6 15 6.5 23.9-.1 1.1-.1 1.1-.1 2.2-.1 5.1-.5 9.1-2.2 13.9q-.5 1.4-.9 2.8c-4.9 13.2-13.6 22.4-26.1 28.7-11.2 4.8-26.1 6.2-37.7 1.9q-2.2-1.1-4.3-2.4-1.2-.6-2.5-1.3c-10.6-5.8-17.6-13.8-22.5-24.7q-.5-1.1-1-2.2c-4.1-10.7-3.9-26 .7-36.4 7.4-14 15.5-23.4 30.8-28.8 2.6-.6 4.8-.7 7.5-.6q.2-1.6.4-3.3c.5-4.2 1.2-8.4 2-12.6 2.5-14.2 4.1-28.5 5.4-43q.1-1.8.3-3.6c1.7-19.5 2.8-38.9 1.9-58.5-.1-1.4-.1-1.4-.1-2.8-2-37.6-17.5-77.5-41.9-106.2q-.7-.9-1.5-1.9c-2.1-2.7-3.2-4-6.5-5.1v10c-2.5-2.5-2.4-3.8-2.6-7.3q-.2-1.6-.3-3.3-.1-1.7-.2-3.4-.2-1.6-.3-3.3c-.5-6.6-.7-13.1-.6-19.7z" fill="#021d41"/><path d="M259 853l1.7 1c2.5 1.1 4.1 1.2 6.9 1.2q1.1 0 2.3 0c2.3-.1 2.3-.1 5.1-1.2q.3 1 .6 2c11.3 36.3 24.5 70.9 50.2 99.7q.7.8 1.4 1.6c1.8 1.9 3.5 3.5 5.8 4.8 4.8-.3 8.5-6.1 11.6-9.5 19.8-22.5 31.3-50.3 40.4-78.6q.5-1.5 1-3 2.5-8 5-16c1.1.2 1.1.2 2.2.5 5.3 1 10 1.2 14.8-1.5-8.3 36.7-22.6 76.5-48 105q-1.2 1.4-2.5 2.7-2.2 2.6-4.6 5.1c-1.7 2-3.3 4.1-4.9 6.2 3.5.7 7 1.3 10.6 1.9l3 .6c5.4 1 5.4 1 10.4-.7q1.7-1.6 3.4-3.3c2.7-2.6 5.6-3 9.2-3.8 1.9-.5 1.9-.5 3.9-.9q1.7-.4 3.5-.8 1.3-.3 2.6-.6c6-1 12.3-1.8 18 .8 3.3 2.4 5 4.5 6.2 8.5.3 4 0 7-2.1 10.5-7.3 7.4-18.1 7.9-28 8-10.2.1-10.2.1-12.7-1.2q-3.1-.1-6.3-.2c-11.9-.4-22.6-2-32.6-9-3.9-1.4-7.2.8-10.7 2.4-8.4 3.8-16.3 4.6-25.4 5.2-1.5.1-1.5.1-2.9.1q-1.3.1-2.6.2c-2.8.3-4.9 1.3-7.5 2.3-2.8.2-5.4.3-8.2.2q-1.1 0-2.3 0c-10-.2-19.1-1.6-27-8.3-2.2-4.3-2.3-8.2-1.5-12.9 2.1-3.4 3.7-4.8 7-7 14.7-1.6 29.7 1.8 42 10 2.2 0 2.2 0 4.7-.5l2.7-.4q1.4-.2 2.8-.5 1.4-.2 2.8-.4 3.5-.6 7-1.2c.2-2.1.2-2.1-1.5-3.6l-2.2-2c-12.2-12-21.2-26.4-29.3-41.4q-.5-1-1.1-2c-9-16.7-15.3-34.6-21-52.7q-.6-1.9-1.2-3.8c-2.7-9-2.7-9-2.7-13.5z" fill="#789f98"/><path d="M394 478l8.6 11.1c4.2 5.4 8.5 10.5 13.2 15.5a73.37 73.37 0 0 1 5.1 6c12.7 14.9 32 25.4 49.1 34.4q1 .5 1.9 1c18.9 10.2 37.8 13.5 59 13.4q4.3 0 8.5.1c19 .1 35.1-3 51.6-12.5q1.7-1 3.5-2c6.6-3.9 12.8-8.3 18.8-13 2.7-2 2.7-2 7.7-5v16q-1 0-2 0-.4.8-.8 1.7C606.9 565.8 582.7 582 560 589c-8.4 2.1-16.7 2.3-25.4 2.3q-1.8 0-3.7.1c-8.4 0-15.8-1.2-23.9-3.4q-1.2-.3-2.3-.6c-29.4-7.4-52.3-25.1-73.9-45.7q-2.4-2.2-4.7-4.4c-5.5-5.2-10.2-10.7-14.7-16.6-.8-1-.8-1-1.5-2-5.1-6.7-9.3-13.6-13.9-20.7l-1 46q-.5 0-1 0v-66z" fill="#561a02"/><path d="M391 905c3.9 1.5 5.3 3.5 7.4 7 3.6 5.5 7.2 10.7 11 16q.9 1.2 1.7 2.4 5.8 7.9 11.7 15.7 2.9 3.9 5.7 7.8c5.4 7.7 11.1 15.1 16.9 22.5l10.2 13.2c5.8 7.7 11.9 15.2 18 22.7q2.7 3.3 5.4 6.7l22.8 27.8q5.2 6.2 10.4 12.4 1.1 1.3 2.2 2.7c1.6 2.1 1.6 2.1 1.6 4.1q1.7-1.7 3.5-3.5 1.5-1.5 3.1-3c4.3-4.2 8.1-8.7 11.9-13.4 2.8-3.5 5.7-6.8 8.6-10.2 3.8-4.4 7.5-8.8 11-13.4 2-2.7 4.2-5.3 6.4-8q8.4-10.3 16.6-21 5-6.6 10.1-13.1 9-11.6 17.6-23.4l13.3-17.6 14.2-19.1q.9-1.1 1.7-2.3.8-1 1.6-2.1a86.61 86.61 0 0 1 3.8-4.7c2-2.3 2-2.3 1.6-6.2 4.2.7 7.4 2.9 11 5q-1 .5-2 1-1 2-2 4-1.4 2-3 3.9-.8 1.1-1.7 2.3-1 1.2-1.9 2.4c-4.5 5.7-9 11.4-13.2 17.4-13.3 18.4-27 36.4-41.3 54.1q-4.3 5.4-8.6 11c-8.2 10.7-16.7 21.1-25.4 31.3q-4.3 5.1-8.5 10.3c-3.6 4.4-7.4 8.7-11.3 12.9l-7.7 8.8q-1.6 1.9-3.4 3.6c-.3 2.5-.3 2.5-.3 5.5q0 1.7 0 3.5v3.9q0 2 0 4.1-.1 5.5-.1 11.1 0 5.8-.1 11.6 0 10.9-.1 21.9 0 12.5-.1 25-.2 25.7-.3 51.4l25 1q0 .5 0 1h-39q1.5-1 3-2c.5-1.8.5-1.8.4-4q.1-1.2.1-2.5 0-1.3 0-2.7c0-1.3 0-1.3.1-2.7q0-4.4.1-8.7 0-3 .1-5.9.1-7.3.2-14.5.5 0 1 0 .3-18.5.5-37 0-8.6.2-17.2.1-8.3.2-16.5 0-3.2.1-6.4c.5-13.6.5-13.6-5.3-25.5q-2.3-2.3-4.7-4.4-1.9-2.2-3.6-4.4-1.7-2.1-3.4-4.1-8-9.7-16-19.5-.7-.9-1.5-1.8l-18.4-23q-4.2-5.3-8.5-10.7c-6.5-8-12.8-16.3-19.1-24.5q-2-2.7-4.1-5.3c-9.7-12.6-19.1-25.4-28.4-38.3l-1.6-2.2q-1.4-2-2.9-4.1-1.6-2.2-3.2-4.4c-.9-1.2-.9-1.2-1.7-2.4q-.8-1.1-1.6-2.1c-1.3-2.8-.9-4.3 0-7.2 1.1-2.3 1.1-2.3 2-4z" fill="#ced0c9"/><path d="M693 834.9c8.3 5.7 12.9 13.7 16 23.1.9 12.7-.7 23-9 33-7.6 7.7-16.3 11.1-26.9 11.4-10.6-.2-18.6-4.1-26.1-11.4-8.2-9.9-10-19.5-9.2-32.1.4-4.2 1.9-7.4 4.2-10.9q.7-1 1.4-2.1c11.8-17 31.8-21 49.6-11z" fill="#d86b00"/><path d="M800.5 812.9c2.5.1 2.5.1 3.5 1.1q.1 3 .1 5.9 0 1.9 0 3.9 0 2.2 0 4.4 0 2.3 0 4.6 0 6.3 0 12.7 0 6.8.1 13.6 0 13.4 0 26.7 0 10.9 0 21.8 0 30.7 0 61.5v3.4q0 1.6 0 3.3 0 27 0 53.9 0 27.7 0 55.3 0 15.6 0 31.1.1 13.2 0 26.5 0 6.7.1 13.5 0 6.1-.1 12.3 0 2.3.1 4.5 0 3-.1 6.1 0 1.6 0 3.4c-.2 2.6-.2 2.6-2.2 4.6l-5-1q0-71.1-.1-142.1 0-8.4 0-16.8 0-1.6 0-3.4 0-27 0-54.1 0-27.7 0-55.4 0-17.2 0-34.3 0-11.7 0-23.4 0-6.8 0-13.6 0-6.2 0-12.4 0-2.2 0-4.5 0-3 0-6.1 0-1.7 0-3.4c.1-3.4.2-3.5 3.6-3.6z" fill="#cfd0c9"/><path d="M554.5 306c3.9 1.1 5 1.8 7.5 5l1.8 8.4c3.5 19.2 10.7 38.6 23.2 53.9 3.7 4.8 5.1 8 4.6 14.1-2.3 10.3-8.3 18.7-17 24.5-12.9 7.6-27.9 9.2-42.5 6.3-6.7-1.9-12.1-4.2-17.1-9.2-.7-7-.7-7 1.6-10.5 3.2-2 4.6-2.1 8.4-1.5 2.6.9 5 1.9 7.5 3 9 3.6 20.3 3.2 29.3.1 5-2.4 9.2-5.8 11.2-11.1.7-5.3-1.1-8.3-4.1-12.4-8.9-13.1-14.3-27.7-18.6-42.9q-.3-1.1-.6-2.2c-2-7.1-3.3-14.1-2.7-21.5 2.2-3.6 3.2-4 7.5-4z" fill="#021c42"/><path d="M220.5 812.9c2.5.1 2.5.1 3.5 1.1q.1 4.4.1 8.8 0 1.4 0 2.8 0 4.9 0 9.7 0 3.6 0 7.1 0 10 0 19.9 0 6.3 0 12.6l-.5 175.4q0 12.9-.1 25.8-.1 16-.1 31.9-.1 8.3-.1 16.5 0 7.7-.1 15.3 0 2.8 0 5.6c0 13.2-.5 26.4-1.2 39.6-3.7 1.1-3.7 1.1-6.3.1q-.8-.6-1.7-1.1 1 0 2 0 0-1.6 0-3.3l.4-309q0-5.4.1-10.7.1-10.9.2-21.8 0-3.5 0-7 0-4.7.1-9.3 0-1.4 0-2.7c.1-7.1.1-7.1 3.7-7.3z" fill="#cecfc8"/><path d="M716.6 992.1c9.5 6.6 16.7 14.7 20.4 25.9 1.2 12.5 1.2 12.5-2.2 16.7-3.7 3-6.2 4-10.9 4.8-4.1-.5-6.3-1.6-9.9-3.6-3.6-1.8-5.6-2.9-9.7-3.1-2.9 1-5.1 2.2-7.7 3.8-4.6 2.7-8.3 3.5-13.6 2.4-4.8-2.4-7.6-5.2-10-10-1.5-7.9 1.4-15.1 5.8-21.6 9.2-12 22.5-24.8 37.8-15.3z" fill="#12adb2"/><path d="M478.3 437.4c3.3.7 5.5 2.2 8.3 4.1 15.1 9.5 31.4 13.9 49.1 13.8q1.6-.1 3.2-.1c18.4-.2 34.5-3.7 50.6-12.6 4-2.2 7-3.2 11.5-2.6 2.9 2 4.6 3.5 5.5 7 .1 2.1.1 2.1-.5 6-18.3 17.1-48.4 19.8-71.9 19.3-21.2-.8-45.1-5.8-61.8-19.7-1.9-2.4-1.8-4.7-1.7-7.6.9-4.2 3.7-6.5 7.7-7.6z" fill="#021c43"/><path d="M348 742q1.5.5 3 1-.5.5-1 1l6 2c-5.3 10.9-12.8 19.9-20.5 29.2q-2.9 3.5-5.8 7.2-.9 1.1-1.8 2.3-1 1.1-1.9 2.3-2.2 2.8-4.5 5.6-1 1.3-2 2.6-.8.9-1.5 1.8c1.8 4 4.3 7.5 6.8 11.1.7 1.1.7 1.1 1.5 2.1 4.2 6.1 8.5 12.1 12.9 18.1q5.2 7.2 10.2 14.6c4.7 6.9 9.6 13.6 14.5 20.2 4.9 6.5 9.6 13.1 14.1 19.9q.9 1.3 1.8 2.6c1.2 2.4 1.2 2.4.8 4.6q-.4 1.1-.9 2.1-.5 1.1-.9 2.1-.4.8-.8 1.6-1.5 0-3 0c-1.8-2.3-3.4-4.5-4.9-6.9q-1.5-2.3-3-4.5-.8-1.1-1.6-2.3c-2.4-3.6-4.8-7.1-7.3-10.6l-1.5-2.1-11.4-15.7c-10.5-14.1-20.5-28.5-30.1-43.1-2.2-3.4-2.2-3.4-4.6-6.6-3.6-4.7-3.6-4.7-3.4-7.2.9-2.2 1.9-3.6 3.4-5.4q.8-1 1.6-2 .9-1 1.7-2 1.8-2.2 3.6-4.4.9-1.1 1.8-2.2c6.7-8.1 12.9-16.6 19.1-25l1.9-2.5c2.7-3.7 5.4-7.4 7.7-11.5z" fill="#ced0c9"/><path d="M501 257c3.1 2.5 3.9 3.4 4.6 7.4-.7 4.3-2.3 6.9-5.6 9.6-3.4.6-3.4.6-7.3.5q-1 0-2.1 0-3.3-.1-6.6-.3c-13.3-.4-25.9-.5-38.4 4.9-4.8 2-9.3 3.6-14.6 3.9-2.6-2.1-3.7-3.7-4.4-6.9-.3-4-.1-5.4 2.5-8.7 5.2-4.3 11.5-6.3 17.9-8.4q1-.3 2-.7c15.6-4.9 36.3-6.3 52-1.3z" fill="#021c42"/><path d="M328 624c1.5 3 .6 5.8 0 9q-.7 4.2-1.4 8.3-.6 3.9-1.4 7.7c-2.6 14.4-2.4 28.6-2.3 43.1q0 1.3.1 2.6 0 2.4 0 4.8c.1 5-.3 9.6-1 14.5-9.3 0-16.2-4.5-24-9-.6-19.1 7.6-37.8 15.5-54.8q.8-1.7 1.6-3.4c3.8-8 8.2-15.4 12.9-22.8z" fill="#d0d1ca"/><path d="M655.8 269.1c2.7 2.3 3.1 3.2 3.5 6.6-.4 4.2-1.6 6.2-4.3 9.3-3.1 1.1-4.5 1.2-7.5 0q-1.2-.8-2.6-1.6c-10.8-6.3-20.1-9.6-32.6-9.5h-2.7c-4.6 0-9 .2-13.5 1-3.8.4-3.9.2-7.2-2.3-2.6-3.9-2.6-7-1.9-11.6 2.9-3.7 5.2-4.6 9.8-5.3 20.8-2.5 41.7.6 59 13.4z" fill="#011c42"/><path d="M275.3 965.8c7.8 1.7 15.5 3.7 21.8 8.9 1.5 3.8.9 7.4-.1 11.3-2.4 4.1-4.5 5.6-9 7a112.33 112.33 0 0 1-8.2.3q-1.1-.1-2.3-.1c-10-.2-19.1-1.6-27-8.3-2.2-4.3-2.3-8.2-1.5-12.9 5.7-9.5 16.6-8.2 26.3-6.2z" fill="#031e40"/><path d="M412.6 966.2c3.3 2.4 5 4.5 6.2 8.5.3 4 0 7-2.1 10.5-7.8 7.9-19.8 8-30.2 8.2q-1.1.1-2.3.1c-5.2 0-8.1-1.1-12.2-4.5-2.9-4.3-3-8-2-13 2.7-4.9 7.5-6.3 12.6-7.8 3.1-.8 6.3-1.5 9.4-2.2l2.6-.6c6-1 12.3-1.8 18 .8z" fill="#011e41"/><path d="M624.1 307.1c4.5 3 8.2 6.7 9.9 11.9 1.1 14.3 1.1 14.3-2.6 20.4-3.6 4.1-7.5 6.3-12.9 7.2-5.6-1-9.4-3.2-13.1-7.4-4.3-6.5-4.6-13.6-3.4-21.2 1.9-4.6 4.6-7.8 8.4-11.1 4.9-1.7 8.9-1.5 13.7.2z" fill="#011b43"/><path d="M473 308c5.5 2.8 10 7.1 12 13 .9 8.2.1 14.4-5 21-4.5 4.3-8.5 5.5-14.6 5.4-5.3-.9-8.3-4.9-11.3-9-2.1-6.7-2.4-14.4.5-20.9 4.2-7.1 10.2-10.6 18.4-9.5z" fill="#011c42"/><path d="M679.1 849.7c4.3 1.8 7.5 4.2 10.1 8.2 2.1 5.4 1.5 11.1-.3 16.5-2.9 4-6.1 7-10.9 8.6-5.5.8-9.8.7-14.4-2.6-4.1-3.5-6.3-6.6-6.9-12-.2-4.5 0-7.7 1.8-11.8 6-6.3 12-9.7 20.6-6.9z" fill="#001e43"/><path d="M332 330c5.7 1.4 9.9 3.8 14 8 1.3 2.4 2.2 4.4 3 7a30.3 30.3 0 0 0 .9 2.8c2.3 7.7 4.1 15.5 5.8 23.4.4 1.5.4 1.5.7 3.1 1.6 7.3 1.6 7.3 1.6 10.7-9.7.6-9.7.6-14.4-1.6-4.5-4.1-8.4-7.8-8.9-14 .1-6 2.6-10.5 6.6-14.9q.8-.7 1.7-1.5c-.9-3.7-1.9-5-4.9-7.3-4.2-2.2-8.1-1.9-12.7-1.6-2.4-.1-2.4-.1-4.4-2.1-.7-6.9-.7-6.9 1.6-10.5 3.4-2.1 5.4-2 9.4-1.5zm373.9-2.3q1.6-.1 3.2-.1c3.6.5 4.7 1.5 6.9 4.4.3 2.8.3 2.8 0 5q-1.5.6-3.1 1.3-.9.4-1.9.9-2.8 1.1-5.6 2.2c-5.4 2.4-5.4 2.4-9.4 6.6-.5 3-.6 5.8-.7 8.8-.8 10-6.4 19.6-12.9 27-1.4 1.2-1.4 1.2-3.4 1.2q.1-8.8.3-17.5 0-3 0-6 .1-4.2.2-8.5 0-1.3 0-2.7c.1-5.7 1.2-10 3.5-15.3q1 .5 2 1c2.8-1.4 2.8-1.4 5.9-3.4 5.3-3.2 8.9-4.8 15-4.9z" fill="#672300"/><path d="M686 627c3 2.8 4.9 5.4 6.8 9q.7 1.5 1.5 3 .7 1.5 1.5 3.1.8 1.6 1.6 3.3c7.6 15.5 12.8 31 17 47.8.4 1.8.4 1.8 1.6 2.8q.1 3 0 6-3.4 1.8-6.9 3.5-.9.5-1.9 1c-5 2.5-5 2.5-7.2 2.5v-11l4-2q-2.8-9.6-6.1-19.1c-.9-3-1.5-5.9-1.9-8.9l-2 1q-.1-.8-.3-1.7c-1.8-10.1-3.7-19.9-7-29.6-1-3.7-1-6.9-.7-10.7z" fill="#d0d2ca"/><path d="M684.6 942.6c4.5 0 6.7 1.7 10 4.6 3.8 4.8 3.8 9.9 3.7 15.9-.4 4.1-1.5 5.9-4.3 8.9-3 1.5-4.6 1.5-8 1-5-3.3-9.2-7.2-11-13-.5-3.8-.6-7.3 0-11 2.4-3.1 2.4-3.1 5-5 1-1 1-1 4.6-1.4z" fill="#11abb1"/><path d="M727 943c3 1.8 5.4 3.8 7 7 .8 6.5-.2 11.6-4 17-3.2 3.8-5.7 5.8-10.7 6.7-3.3-.7-3.3-.7-5.7-3.1-3.5-5.6-3.2-11-2.6-17.6 3.3-7 8-11.3 16-10z" fill="#12acb1"/><path d="M752 969c2.7 1.8 4.5 3.1 6 6 .6 4.6.4 8.1-1.6 12.3-3.9 4.3-7.1 7.2-13 8.4-4.2-.9-5.7-2.3-8.3-5.7-1.8-3.2-1.8-5.4-1.1-9 3.7-7.2 9.6-12.8 18-12z" fill="#14acb1"/><path d="M661 968.6c6 1.2 9.5 5.8 13 10.4 1.6 3.1 1.3 5.5 1 9-1.9 3.4-1.9 3.4-5 6-4.6 1.1-8.1.5-12.3-1.6-3.7-3.3-6.3-5.9-7.1-10.8-.2-4.2.1-7 1.9-10.7 2.9-2.2 4.9-2.6 8.5-2.3z" fill="#13aeb2"/><path d="M696 765c4.1.6 6.8 1.9 10.3 4.2a38.44 38.44 0 0 1 2.6 1.7c2.1 2.1 2.1 2.1 3.2 4.8-.1 4.7-2.1 7.6-4.5 11.5q-.7 1.1-1.4 2.2c-3.8 6.1-7.7 12.1-12.2 17.6q-.5 0-1 0c-1.2-7.6-.7-14.5.4-22.1q.2-1.6.4-3.2.4-3 .8-6 .8-5.3 1.4-10.7zm-22-54v10l-7 2c-.2 2.1-.2 2.1 1.3 3.4q1.7 1.5 3.4 3.1c1.3 1.5 1.3 1.5 1.3 4.5q1 0 2 0c.3 6 .3 6 0 8l-3 3q-4.2-4.1-8.3-8.3-1.2-1.1-2.4-2.3l-2.3-2.3q-1-1-2.1-2.1c-4.7-4.9-4.7-4.9-5.5-8.5.6-2.5.6-2.5 3.2-4.5 3.5-2.1 6.7-3.2 10.7-4.3q1.8-.5 3.7-1c3-.7 3-.7 5-.7z" fill="#cfd1ca"/><path d="M322 655q.5 0 1 0l-1 49c-10.1-2.3-10.1-2.3-14-4 .5-4.8 1.2-8.5 3-13q.7-2.8 1.4-5.6c2.2-9.2 5.1-18 9.6-26.4z" fill="#f8f4e9"/></svg>