<svg xmlns="http://www.w3.org/2000/svg" width="1024" height="1024" xmlns:v="https://vecta.io/nano"><path d="M741.6 159.7q1.7 1.6 3.4 3.1c22.2 21.1 37.7 50.9 46 80.1l.6 2.2c1.1 4 1.6 7.7 1.4 11.9q.8.2 1.7.4c7.9 2.2 15.3 5.4 22.7 8.7q2.1.9 4.1 1.8c31.7 13.9 62.5 30 91.5 49.1l1.8 1.2c10 6.6 10 6.6 11.2 11.8-.2 6.1-1.6 9.8-5.3 14.6q-.7.9-1.4 1.8-2.1 2.8-4.3 5.6-.7.8-1.4 1.7C902 368.2 888.7 381.8 874 393q-1.9 1.5-3.7 3c-14.9 11.8-31 22-48.3 30q.6 1.4 1.2 2.8c13.6 32.2 23.6 64.7 29.8 99.2q.3 1.9.7 3.8c10.6 61.6 3.5 128.3-16.7 187.2q-.5 1.4-1 2.9c-4.1 11.9-8.7 23.5-14 34.9q-1.5 3.4-3.1 6.8c-17.4 38-42.1 71.3-70.9 101.4q-.8.8-1.6 1.7c-6.7 7-13.7 13.3-21.4 19.3q-1.9 1.5-3.8 3c-36.4 28.7-78.9 47.6-124.2 57q-1.1.2-2.2.4c-5.2 1.1-10.5 1.9-15.8 2.6q-1.4.2-2.9.4c-37.3 5.3-76.8 4.6-114.1-.4-1.1-.1-1.1-.1-2.2-.3C374.9 937.2 290.2 906.4 187 831q-.7-.6-1.5-1.3c-8.7-7.2-16.8-14.7-24.7-22.7q-2.6-2.7-5.3-5.3c-5.7-5.7-11.3-11.5-16.5-17.7q-1.4-1.6-2.9-3.2c-7.1-8.3-13.9-16.8-20.4-25.6q-2.6-3.4-5.1-6.7a416.74 416.74 0 0 1-18.1-26l-1.7-2.7C83 707.5 76.5 697 79 682c5-19 13.7-37.3 22-55l.8-1.8c16.5-35.3 35.1-69.5 59.2-100.2q.7-.9 1.4-1.8c18.6-23.7 39.5-43.8 64.5-60.6q.8-.6 1.7-1.2.8-.5 1.6-1.1.9-.5 1.8-1.1c2-1.2 2-1.2 4.8-2.3 4.5-1.9 7.5-3.3 9.5-7.9.8-3.8 1.3-7.6 1.7-11.5q.3-2.1.5-4.2.6-4.2 1.1-8.5c.5-4.9 1.2-9.8 1.9-14.7q.4-2.7.7-5.3c7.6-55.5 20.7-108.9 46.8-158.8.6-1.1.6-1.1 1.1-2.1 9-17.1 19.8-32.9 31.9-47.9q1.2-1.5 2.5-3.1c6.6-8 13.8-15.4 21.1-22.8q.8-.7 1.5-1.5c6.3-6.3 12.8-12.2 19.9-17.6q1.6-1.3 3.2-2.6c75.7-59.4 177.6-73.8 361.4 11.3z" fill="#fecb37"/><path d="M405.4 461.1c32.4 27 52.8 60.9 58.6 102.9q.3 1.9.6 3.9c7.2 59.9-22.5 119.5-58.2 165.3-3.8 5-7.9 9.7-12.1 14.3q-2.8 3-5.4 6.1c-4.6 5.2-9.4 10.1-14.3 15q-1.4 1.3-2.8 2.7c-5.1 5.1-10.3 10-15.8 14.7l-3 2.6c-20.9 18.1-44.1 33.6-68 47.4q-1.1.7-2.3 1.3c-44.5 25.7-44.5 25.7-53.6 24.4-2.5-.8-4.3-2-6.4-3.5q-1.2-.8-2.5-1.7c-1.3-.9-1.3-.9-2.6-1.9q-1.3-.9-2.7-1.9c-7.5-5.3-14.8-10.9-21.9-16.7q-.8-.7-1.7-1.4c-12.1-10-23.5-20.7-34.6-31.8q-.7-.7-1.5-1.4c-5.6-5.6-11-11.3-16.2-17.4q-1.4-1.6-2.9-3.2c-7.1-8.3-13.9-16.8-20.4-25.6q-2.6-3.4-5.1-6.7a416.74 416.74 0 0 1-18.1-26l-1.7-2.7C83 707.5 76.5 697 79 682c5-19 13.7-37.3 22-55q.4-.9.8-1.8c16.5-35.3 35.1-69.5 59.2-100.2q.7-.9 1.4-1.8c16.6-21.1 34.9-39.4 56.6-55.2q.9-.7 1.8-1.4c54.7-39.4 129.3-48.8 184.6-5.5z" fill="#0b5355"/><path d="M793 256q1.5.6 3 1.2c25.7 10.1 50.9 21.5 75 34.8q1.3.7 2.7 1.5c13.4 7.4 26.5 15.1 39.3 23.5q.9.6 1.8 1.2c10 6.6 10 6.6 11.2 11.8-.2 6.1-1.6 9.8-5.3 14.6q-.7.9-1.4 1.8-2.1 2.8-4.3 5.6-.7.8-1.4 1.7C902 368.2 888.7 381.8 874 393q-1.9 1.5-3.7 3c-15.5 12.3-32.3 22.7-50.3 31q-1.7.8-3.4 1.6c-7 3.2-14.1 5.6-21.5 7.7q-1.3.4-2.6.8c-13.3 3.7-13.3 3.7-18.8 1.7-3.8-2.5-5.3-4.3-6.6-8.7-.1-4 .5-5.8 2.9-9.1 4.4-2.8 9.4-4.6 14.4-6.3 28.1-9.6 51.8-26.9 73.6-46.7q-3.5.8-7 1.6l-2.3.6q-6.7 1.5-13.3 3.3c-34.9 9.3-81.6 15.3-114.7-3.2-11.1-7.3-21-17.1-24.3-30.3-2.7-18.5 1.7-31.9 12.4-47.1 21.6-28.4 47.2-51.4 84.2-36.9z" fill="#0b5055"/><path d="M867.8 330.7q3 1.8 6.2 3.3 0 1 0 2c-44.6 11.7-102.4 26.3-146 4.3-2.4-1.5-3.7-2.8-5-5.3-.2-5.3 3.7-8.6 7.1-12.3q.8-1 1.8-2 2.5-2.9 5.1-5.7c1.1-1.3 1.1-1.3 2.3-2.5 35.1-37.3 94.1-1.8 128.5 18.2z" fill="#fda30b"/><path d="M600.8 264.4q2.1 1.8 4.2 3.6l1.9 1.6c10.8 10.1 17.9 25.3 19.5 40-.6 4.9-2.1 8.4-5.9 11.7-4.6 3-8.2 3.4-13.5 2.7-4.7-2.3-7.8-5.3-10-10q-1-3.1-1.9-6.3c-2.7-9.2-6.5-15.5-14.7-20.5-7.9-4.1-15.5-5.7-24.2-3.5-9.5 3.1-16 7.6-20.9 16.4-1.5 3.3-2.4 6.6-3.2 10.2-1.5 5.4-2.8 8.5-7.4 11.8-3.9 2.1-7.3 2.2-11.7 1.9-4.7-1.7-7.2-3.9-10-8-3.4-10.3 1.4-21 5.8-30.2 8.3-15.8 21.5-26.2 38.5-31.9 19.1-5 37.8-1.3 53.5 10.5z" fill="#0c5056"/><path d="M510 284q.5 1 1 2-1.1 2.8-2.4 5.6c-3 7.6-4.4 15.2-3.6 23.4 1.8 2.7 3.7 4.7 6 7-3.1-.3-4-1-6.2-3.4-3-4.4-3.4-8.4-2.8-13.6 1.8-7.4 4.3-14.3 8-21z" fill="#113658"/><path d="M614 277c9 7.3 12.4 21.9 14.1 32.9.3 4.1-.3 6.1-3 9.3q-1.5 1.4-3.1 2.8-1-.5-2-1 1-1.1 1.9-2.3c3.3-4.3 3.3-7.5 3.1-12.7-1.7-9-5.1-16.6-9.6-24.5-1.4-2.5-1.4-2.5-1.4-4.5z" fill="#f4ec31"/><path d="M449 656c1.1 3.4 1 3.8-.4 6.8q-.5 1.2-1.1 2.3-.5 1.2-1.1 2.4-.5 1.2-1.1 2.4c-2.8 6.2-5.9 12.2-9.3 18.1q-.5-1-1-2 1.3-3 2.9-5.8c2-3.8 3.5-7 4.1-11.2q1 0 2 0 .3-.9.6-1.8.4-1.2.8-2.5.4-1.1.7-2.3a62.21 62.21 0 0 1 2.9-6.4z" fill="#0b2c59"/><path d="M241 857q1.5.5 3 1-.9.1-1.9.2c-2.4.6-2.4.6-3.3 3.2q-.4 1.3-.8 2.6-.5 1-1 2c-2.4-.3-2.4-.3-5-1q-1-1.5-2-3 .9-.4 1.9-.8 1.2-.6 2.5-1.1 1.2-.6 2.4-1.1 2.1-1 4.2-2z" fill="#f7d432"/><path d="M282 837q.5 1 1 2-1.4.4-2.9.8L277 841q-.5 1.5-1 3c-1.9 1-1.9 1-4.4 1.9-4.7 1.7-9.1 3.8-13.5 6.2-2.1.9-2.1.9-5.1-.1q.9-.5 1.9-.9 4.3-2.2 8.7-4.3c1.4-.8 1.4-.8 3-1.5 5.2-2.6 10.4-5.3 15.4-8.3z" fill="#f7ed30"/><path d="M859 368c-1.8 2.2-3.7 4.3-6 6-3.3.1-3.3.1-6-1q-1-1.5-2-3 2.9-.8 5.9-1.6 1.6-.4 3.3-.8c2.8-.6 2.8-.6 4.8.4z" fill="#f0d035"/><path d="M573 284c7.4 1.1 13 5.3 17.4 11.1 4.8 6.8 4.8 6.8 4.2 10.2-.3.8-.3.8-.6 1.7q-.6-1.2-1.2-2.5c-.8-1.6-.8-1.6-1.5-3.3q-.8-1.6-1.6-3.3c-1.7-2.9-2.9-4.1-5.7-5.9l-2.4-2c-2.7-2.1-5.5-3.5-8.6-5q0-.5 0-1z" fill="#f3e931"/><path d="M249 450q1 .5 2 1-1.7.9-3.4 1.9-2.2 1.2-4.4 2.4-1.1.6-2.2 1.2-1.1.6-2.2 1.2-1 .6-2 1.1c-1.9 1.2-3.3 2.6-4.8 4.2q-1-1-2-2 3.1-1.9 6.1-3.8.9-.5 1.8-1.1c3.6-2.2 7.2-4.4 11.1-6.1z" fill="#06263e"/><path d="M868 332q3 1 6 2 0 1 0 2l-9 2q-.5-1-1-2 1 0 2 0 1-2 2-4z" fill="#f1b40d"/><path d="M248 445q1 .5 2 1-.5 1-1 2 1.1-.5 2.3-1.1c2.7-.9 2.7-.9 5.7.1l-11 5c0-5 0-5 2-7z" fill="#efd92f"/><path d="M142 552q1 2 2 4-1.5.5-3 1-2.1 2.9-4 6-.5-1-1-2l6-9z" fill="#0a2f32"/><path d="M859 368q-2 2-4 4l-5-2c2.7-2.7 5.5-3.8 9-2z" fill="#f2ec35"/><path d="M238 456q.5 1 1 2-.9.4-1.8.8c-2.2 1.2-3.6 2.4-5.2 4.2q-1-1-2-2l8-5z" fill="#062b2f"/></svg>