<svg xmlns="http://www.w3.org/2000/svg" width="1024" height="1024" xmlns:v="https://vecta.io/nano"><path d="M556.3 93.6q1.7 0 3.6 0c17.7.1 34.7.7 52.1 4.4q3.1.6 6.2 1.2A247.92 247.92 0 0 1 651 108q1.8.6 3.7 1.2c26.7 9.3 50.9 23.4 72.3 41.8q1.4 1.2 2.8 2.4 3.6 3.2 7.2 6.6c.8.7.8.7 1.5 1.4 20 18.8 41 49.4 42.6 77.6q0 2.5-.1 5l1.6.4c34.2 9 63.4 38.1 81.1 67.6 6.3 10.7 10.9 22 14.3 34q.3 1 .6 2c3.3 11.2 3.8 22.5 3.8 34.2q0 1.1.1 2.1c.1 25.1.1 25.1-5.5 34.7-3.8-.5-6-1.5-9-3.9-5.5-3.8-11.4-5.2-18-6.1q-1.5-.3-3.1-.6c-2.9.3-2.9.3-4.2 2-1.3 2.1-2.4 4.2-3.5 6.4q-1.3 2.4-2.6 4.7-.7 1.2-1.4 2.4c-2.8 4.8-6.4 9-10.2 13.1q-.8.9-1.6 1.8c-12.2 13-25.1 22-41.1 29.6-3.3 1.5-3.3 1.5-6.3 3.6 3.9 22.5 8.1 45 12.9 67.3q.3 1.5.6 2.9 2.9 13.5 5.8 26.9c5.4 24.5 10.7 49 13.7 73.9q.2 1.3.3 2.7c7.1 70.2-7.2 148.6-49.3 206.3-.6.8-.6.8-1.2 1.7-5.7 7.7-11.8 14.9-18.4 21.9q-2 2.1-4 4.2c-41.9 43.8-112 59.7-170.2 61.5-7.4.2-14.8.2-22.1.1q-3.2 0-6.4 0c-21.4 0-42.4-.8-63.6-4.1q-3.3-.5-6.7-1c-19-2.8-37.8-6.2-56.4-11.3-1.6-.4-1.6-.4-3.2-.9-24.4-6.7-48-15.2-70.8-26.1q-1.3-.6-2.6-1.3c-19.7-9.4-38.5-20.2-56.4-32.7q-.9-.6-1.8-1.2c-16.4-11.4-31.9-24.1-46.7-37.5q-3.1-2.8-6.3-5.6c-4.3-3.7-8.3-7.6-12.3-11.6q-1-1-2-2.1c-4.5-4.5-8.7-9.2-12.9-14q-1.6-1.8-3.1-3.5C177 770.3 162 751.3 149 731q-.8-1.2-1.6-2.5C104 660.9 104 660.9 107 640c3-10.1 8.9-18.5 15-27q.7-1 1.4-2c9.1-12.5 19-24.1 29.4-35.5q1.9-2.1 3.7-4.3c4.3-4.9 8.8-9.6 13.4-14.3q1-1 2.1-2c4.5-4.5 9.1-8.8 14-12.9q1-.8 1.9-1.6c25.1-21.3 25.1-21.3 36-26.9 2.9-2.1 3.1-4.1 4.1-7.5q1-2.9 2.1-5.8c16.6-45.9 28.4-92.6 39.8-140 14.4-60.4 32.3-119.7 73.1-168.2q1.5-1.8 2.9-3.6c10.9-12.9 22.7-25.1 36.1-35.4l3-2.4c24.6-19.4 52.2-34.2 82-43.6q1.2-.4 2.5-.8c14.6-4.6 29.4-7.8 44.5-10.2q1.7-.3 3.4-.6c12.9-1.9 25.8-1.8 38.9-1.8z" fill="#fef1ca"/><path d="M353 486q1.2.2 2.3.5c12.5 2.8 24.1 7.1 35.7 12.5q1 .5 2 .9c36 17.2 62.4 49.8 75.7 86.9 6.8 20.1 9.7 40.2 9.6 61.3q-.1 4.1 0 8.2c0 61.8-26 122.8-63.9 170.9q-2.1 2.7-4.2 5.4c-17.8 23.1-37.8 46.8-61.2 64.4q-.9.9-1.9 1.8c-3 1.7-4.8.9-8.1.2-2.5-1-2.5-1-5.1-2.3q-1.4-.7-2.8-1.4-1.5-.8-3.1-1.6-1.6-.7-3.2-1.6c-16.2-8.3-31.8-17.7-46.8-28.1q-.9-.6-1.8-1.2c-16.4-11.4-31.9-24.1-46.7-37.5q-3.1-2.8-6.3-5.6c-4.3-3.7-8.3-7.6-12.3-11.6q-1-1-2-2.1c-4.5-4.5-8.7-9.2-12.9-14q-1.6-1.8-3.1-3.5C177 770.3 162 751.3 149 731q-.8-1.2-1.6-2.5C104 660.9 104 660.9 107 640c3-10.1 8.9-18.5 15-27q.7-1 1.4-2c9.1-12.5 19-24.1 29.4-35.5q1.9-2.1 3.7-4.3c4.3-4.9 8.8-9.6 13.4-14.3 1-1 1-1 2.1-2 4.5-4.5 9.1-8.8 14-12.9 1-.8 1-.8 1.9-1.6 46.6-39.5 102.5-68.3 165.1-54.4z" fill="#f1971f"/><path d="M813.3 259.1c20.1 14.1 37.3 30.6 49.7 51.9q.5.9 1.1 1.8c5.3 9.3 9.7 18.9 12.9 29.2q.4 1.2.7 2.4c3.7 12.6 4.8 25 4.8 38q0 1.1 0 2.2c.1 24.8.1 24.8-5.5 34.4-3.8-.5-6-1.5-9-3.9-5.5-3.8-11.4-5.2-18-6.1q-1.5-.3-3.1-.6c-2.9.3-2.9.3-4.2 2-1.3 2.1-2.4 4.2-3.5 6.4q-1.3 2.4-2.6 4.7-.7 1.2-1.4 2.4c-2.8 4.8-6.4 9-10.2 13.1q-.8.9-1.6 1.8c-17.4 18.7-40.6 34.6-66.9 35.7-15.6.3-27.3-4.8-38.7-15.6-24.4-25.9-29.2-65.5-28.3-99.5 1.3-23.5 11.4-46.9 22.5-67.4l1.6-3.1c10.2-18.2 24.8-38 44.8-45.8 19.2-5.5 39.3 5.7 54.9 16z" fill="#1a5253"/><path d="M692 346q.5 0 1 0 0 2.5 0 5 1.5.1 3.1.2c4.3.6 7.4 2.8 10.8 5.4 30.9 21.4 67.5 26.3 104.2 26.9 11.8.2 22 .6 32.7 6.1q1 .5 2.1 1c11.1 5.9 20.9 13.9 29.1 23.4q0 1 0 2 1 0 2 0 .5-1 1-2-.5 2.5-1 5c-3.8-.5-6-1.5-9-3.9-5.5-3.8-11.4-5.2-18-6.1q-1.5-.3-3.1-.6c-2.9.3-2.9.3-4.2 2-1.3 2.1-2.4 4.2-3.5 6.4q-1.3 2.4-2.6 4.7-.7 1.2-1.4 2.4c-2.8 4.8-6.4 9-10.2 13.1q-.8.9-1.6 1.8c-17.4 18.7-40.6 34.6-66.9 35.7-15.6.3-27.3-4.8-38.7-15.6-23.6-25-28-61.3-28.1-94.2q0-1.6 0-3.2c0-5.6.4-10.3 2.3-15.5z" fill="#1a5152"/><path d="M589.8 237.9q2.1 1.5 4.2 3.1.9.7 1.9 1.3c8.9 6.9 15 18.7 17.1 29.7 1.1 16.2-2.3 29.1-12.6 42-8.4 9.2-20.3 14.6-32.7 15.3-15.7.6-28.6-3.7-40.4-14.5-10.3-11.1-14-24.2-13.6-39.1 1.1-12.7 7-24.4 16.4-33.1 3.7-3 7.6-5.4 11.9-7.6 1.2-.6 1.2-.6 2.4-1.3 14.2-6.3 32.5-4 45.4 4.2z" fill="#124243"/><path d="M692 346q.5 0 1 0 0 2.5 0 5 1.5.1 3.1.2c4.3.6 7.4 2.8 10.8 5.4 30.9 21.4 67.5 26.3 104.2 26.9 11.8.2 22 .6 32.7 6.1q1 .5 2.1 1c11.1 5.9 20.9 13.9 29.1 23.4q0 1 0 2 1 0 2 0 .5-1 1-2-.5 2.5-1 5c-3.8-.5-6-1.5-9-3.9-7.1-5-15.6-5.7-24-7.1q0-1 0-2-.8-.2-1.7-.4c-3.3-.9-6.4-2.3-9.6-3.7-5.9-2-12.1-2.1-18.3-2.1q-2.5 0-5.1-.1-1.3 0-2.6 0c-21.4-.4-42.1-1.6-62.7-7.7-1.9-.5-1.9-.5-3.8-1.1-17.5-5.4-34.7-14.2-47.2-27.9q-.5 2-1 4-1 0-2 0c-.4-14.8-.4-14.8 2-21z" fill="#063534"/><path d="M692 362q1.7 1.4 3.4 2.8.9.8 1.9 1.6c1.7 1.6 1.7 1.6 3.7 4.6-3.1-1.4-4.5-2.5-7-5l-1 17c-3.2-4.3-3.4-5.2-3.2-10.3.1-1.6.1-1.6.1-3.2q0-1.2.1-2.5 1 0 2 0 0-2.5 0-5z" fill="#235858"/><path d="M867 410c5.7 1.5 5.7 1.5 7.4 4.1l.6 1.9q1 0 2 0 .5-1 1-2-.5 2.5-1 5c-3.6-.3-5-1-7.8-3.4-2.2-2.6-2.2-2.6-2.2-5.6z" fill="#082a2a"/><path d="M688 373q.5 0 1 0 .2 1.4.4 2.8c.5 3.1.5 3.1 1.3 5.4.3 1.8.3 1.8-1.7 4.8-1.3-2.6-1.1-4.7-1.1-7.6q.1-1.5.1-3.1 0-1.1 0-2.3z" fill="#eee9c8"/></svg>