<svg xmlns="http://www.w3.org/2000/svg" width="1024" height="1024" xmlns:v="https://vecta.io/nano"><path d="M588 95l2.5.4c4.8.7 9.7 1.6 14.5 2.6l2 .4c53.5 10.2 108.3 36.4 146.4 76 1.7 1.7 3.5 3.2 5.3 4.7 18.7 16.3 35.5 38.4 47 60.2 3.7 6.9 6.4 10.4 13.9 12.9q2.4 1 4.8 1.9 1.2.5 2.4 1c8.9 3.7 16.9 9.7 24.2 15.9q1.2 1 2.4 1.9c31.1 26.8 49.2 70.3 52.5 110.7 2.3 38.5-4.7 80-30.5 110-5 5.3-9 8.5-16.5 8.9-4.7-.2-7.4-1.2-10.9-4.5-4.9-6.3-7.7-12.8-10.2-20.3q-1-2.9-2-5.8-.4-1.3-.8-2.6c-1-2.4-2.3-4.3-4-6.3-4.6 3.6-7.9 6.5-10.7 11.6-8.6 14.5-20.6 25.7-34.3 35.4q.4 1.1.9 2.3c18.7 50.2 35.3 102 35.3 156a25.28 25.28 0 0 1 .1 2.7c-.1 61.6-14.4 120.4-57.3 166q-1 1.1-2 2.2c-38.8 40.6-100.2 59.6-154 67.8q-1.8.3-3.7.6c-21.9 3.4-43.8 3.8-65.9 3.8q-3.3 0-6.7.1c-20.4 0-40.4-1.1-60.7-3.5q-1.3-.2-2.6-.3-6.8-.8-13.6-1.9-1-.1-2-.3c-26.4-4.1-52.3-10.4-77.8-18.5q-1.4-.4-2.8-.9c-56.3-17.6-108-46.3-153.2-84.1q-.8-.6-1.6-1.3c-19.1-16-36.9-33.2-52.4-52.7q-1.4-1.7-2.7-3.3c-65.2-79.4-65.2-79.4-64.2-115.2 1.4-3.9 3.1-7.6 4.8-11.3q.6-1.2 1.2-2.5c4.2-8.5 8.9-16.6 13.9-24.7.6-.9.6-.9 1.2-1.9 24.6-39.6 55.3-70 96.9-91.5 3-1.6 3-1.6 5.9-3.6.4-2.2.4-2.2.3-4.7q0-1.4 0-2.9 0-1.6-.1-3.3 0-1.6 0-3.3 0-3.6-.1-7.2-.1-9.3-.1-18.7v-3.7c0-14.1.6-28.1 2-42.2q.1-1 .2-2c7.3-75.2 31-145.6 79.8-204q.6-.8 1.3-1.6c11.8-14.4 24.9-28 39.7-39.4q1.7-1.4 3.5-2.8c27-22.3 58.4-38.9 91.5-50.2q1.4-.5 2.8-1C490 91.5 539.9 87.5 588 95z" fill="#549863"/><path d="M224 482q.5 0 1 0v12q1.6-.6 3.3-1.2c42.6-14.8 90.3-16.8 131.6 3 7.1 3.6 13.7 7.6 20.1 12.2q.8.6 1.7 1.2c37.7 27.2 61 68.3 68.7 113.8 2.3 15 3 29.8 2.6 45q0 2-.1 4c-2.3 65.3-37.7 124.1-77.9 173.3q-3.6 4.4-7.1 8.9c-3.6 4.5-7.3 8.9-11 13.2q-4.1 4.8-7.9 9.6c-8.3-2.2-15.9-5.4-23.7-8.9q-.9-.5-1.9-.9c-37.5-17-71.8-38.8-103.4-65.2q-.8-.6-1.6-1.3c-19.1-16-36.9-33.2-52.4-52.7q-1.4-1.7-2.7-3.3c-65.2-79.4-65.2-79.4-64.2-115.2 1.4-3.9 3.1-7.6 4.8-11.2q.6-1.3 1.2-2.6c4.2-8.5 8.9-16.6 13.9-24.7q.6-.9 1.2-1.9C144 550.8 178.6 509.8 223 495l1-13z" fill="#185d5b"/><path d="M844.3 265.4c35.3 27.9 54.3 68.1 61 112.2 4.3 39-2.8 81.9-27.6 113.4-8.9 10.3-8.9 10.3-16.1 11.4-4.2.2-7-.1-10.8-1.8-6.9-6.4-10.1-14.2-13-22.9q-1-2.9-2-5.8-.4-1.3-.8-2.6c-1-2.4-2.3-4.3-4-6.3-4.6 3.6-7.9 6.5-10.7 11.6-11.7 19.7-29.9 36.1-52.3 42.2-14.4 3-27.2 2.2-39.9-5.6-10.3-7.1-18-15.4-24.1-26.2q-.8-1.3-1.6-2.7c-16.2-30.5-19.6-67.5-19.6-101.4q-.1-1.5-.1-3c.1-38.3 5.3-79.5 33.4-108q1.4-1.5 2.9-2.9 1.2-1.2 2.3-2.3c34.5-32.6 87.4-25.3 123 .7z" fill="#efa529"/><path d="M604.7 281.3c3.7 3 7 6.3 10.3 9.7q1 .9 2 1.9c8.9 9 14.2 22.3 15.3 34.7-.6 6.7-3.2 11.2-8.3 15.4-4.7 2.9-9.8 2.1-15 1-5.3-2.7-9-6-10.9-11.7l-1-3.1c-3-9.6-8.3-17.6-17.4-22.4-9.3-4.3-19.5-5.7-29.5-2.7-9.5 3.8-17.1 10-21.4 19.3-1.3 3-2.2 6.1-3.1 9.3-1.9 5.9-5.9 8.8-11.2 11.7-4.8 1.2-8.8 1.3-13.2-1.1-4.7-3-7.8-6.9-9.3-12.3-1.9-13.9 5.7-26.4 13.7-37.1 23.8-28.6 68.8-35.3 99-12.6z" fill="#175d5c"/><path d="M728 390c3.6 3 5.5 6.5 7.7 10.6 3.6 6.7 7.9 12.1 13.3 17.4l2 2c16.8 16.3 40.7 23.5 63.2 27.8l2 .4q2.8.5 5.6 1c4.8 1.2 7.4 2.7 10.2 6.8.5 2.9.5 2.9 0 6-2.5 3.1-4.2 4.6-8.1 5.4-28.4 1.4-61.3-13-82.9-30.4q-1.3-1.1-2.7-2.1c-10-8.4-20.1-21.2-22.8-34.2-.2-3.7.4-5.6 2.6-8.7 3.6-2.5 5.5-2.7 9.9-2z" fill="#5c350e"/><path d="M333 172q1 .5 2 1-.8.8-1.6 1.6-3.6 3.6-7.2 7.2-1.3 1.2-2.5 2.4l-2.5 2.5q-1.1 1.1-2.2 2.2c-1.8 1.9-3.4 3.9-5 6.1q-1-.5-2-1c6.5-7.8 13.8-14.9 21-22z" fill="#39864c"/><path d="M319 186c0 4.4-2.1 5.8-5 9q-1-.5-2-1l7-8z" fill="#458e56"/><path d="M388 132q0 1.5 0 3-2.9 1.6-6 3-1-.5-2-1l8-5z" fill="#3e894f"/></svg>