<svg xmlns="http://www.w3.org/2000/svg" width="1024" height="1024" xmlns:v="https://vecta.io/nano"><path d="M564.9 84.8q1.4-.1 2.7-.1c45.1.1 89.5 10 129.4 31.3q1.7.9 3.5 1.9c48.9 26.9 84.7 71.7 100.6 125 5.9 20.8 5.9 20.8 5.9 27.1q-1.5-.1-3.1-.1c-23-.6-41.7 9.2-58.4 24.7-27.7 26.8-40.9 68-41.7 106.1q-.1 4.5-.1 9 .1 3.4 0 6.8c0 13.9 1.2 27.5 4.5 41q.3 1.3.6 2.7c4.5 17.6 12.5 36.8 28.3 47.2 7.2 3.8 14.2 4.9 22.2 4.8q1.2 0 2.4 0c5.8-.1 11.5-.5 17.3-1.2 35 82.6 46.4 183 13.6 287.9-4 9.9-8.5 19.7-13.6 29.1q-.5 1-1.1 2c-10.2 18.7-23 34.9-37.9 50q-.9.9-1.8 1.8c-3.7 3.8-7.6 7.3-11.8 10.6q-.9.7-1.9 1.4c-10.9 8.4-22.3 15.7-34.5 22.2q-.9.5-1.9 1c-45.7 25.1-101.9 32.3-153.3 32.2h-2.9C445.5 949 357.6 928.8 270 879q-1.1-.7-2.3-1.4c-26.2-16.2-52.7-34.8-74.2-57.1-1.6-1.6-3.3-3-5.1-4.5-6-5.2-11.2-11.2-16.6-17q-2.6-2.9-5.3-5.7c-6.5-6.9-12.6-13.9-18.5-21.3q-1.4-1.7-2.8-3.4c-7.5-9.2-14.5-18.8-21.2-28.6l-1.3-1.9C82.4 679.5 82.4 679.5 85 660c6-18 23.8-33.8 36.5-47.4q2.2-2.3 4.3-4.7c8-8.8 16.1-17.4 25.2-25.2 2.3-1.9 4.4-3.9 6.6-5.9 5.7-5.1 11.6-9.8 17.6-14.4q2.7-2.1 5.4-4.2c9-7 9-7 12.4-8.9 4.3-3.3 6.3-7.5 8.7-12.3q.8-1.5 1.5-3.1c21-42.1 30.3-87.5 37.9-133.5 4.8-29 10.5-57.5 19.9-85.4q.5-1.5 1-3.1c19.6-58.3 54.9-116.8 104-154.9q1.7-1.4 3.4-2.8C399 129.8 433.6 112 470 100q1.3-.4 2.7-.9c20.6-6.8 41.8-10.6 63.3-13.1 1.1-.1 1.1-.1 2.2-.3 8.9-1.1 17.8-.9 26.7-.9z" fill="#0086cf"/><path d="M424 548q.8.7 1.7 1.4c30.8 26.1 48.4 64.7 51.9 104.6 1.3 16.9 0 33.2-2.6 50q-.3 1.9-.6 3.9c-9.4 56.3-46.3 105.9-85.6 145.4q-.8.9-1.7 1.7c-17.3 17.3-37.3 32.3-57.9 45.4q-1.1.7-2.3 1.4c-1 .7-1 .7-2.1 1.3q-.9.6-1.9 1.2c-3.6 1.3-6.4-.1-9.9-1.6q-1.6-.9-3.2-1.7-.9-.5-1.8-.9-2.9-1.5-5.8-3-.9-.5-1.9-1.1c-10.3-5.3-20.4-10.9-30.3-17q-1.1-.7-2.3-1.4c-26.2-16.2-52.7-34.8-74.2-57.1-1.6-1.6-3.3-3-5.1-4.5-6-5.2-11.2-11.2-16.6-17q-2.6-2.9-5.3-5.7c-6.5-6.9-12.6-13.9-18.5-21.3q-1.4-1.7-2.8-3.4c-7.5-9.2-14.5-18.8-21.2-28.6q-.6-.9-1.3-1.9C82.4 679.5 82.4 679.5 85 660c6-18 23.8-33.8 36.5-47.4q2.2-2.3 4.3-4.7c8-8.8 16.1-17.4 25.2-25.2 2.3-1.9 4.4-3.9 6.6-6 6.2-5.5 12.8-10.6 19.4-15.7q1.8-1.4 3.5-2.7 4.8-3.7 9.5-7.3 1-.8 2-1.5c5-3.8 10.5-6.6 16-9.5q2.3-1.3 4.6-2.5C278 501.9 364.5 498.3 424 548z" fill="#054343"/><path d="M850 292c10.5 8 20.7 16.7 29 27q1.1 1.4 2.3 2.8c9.5 11.6 16.6 24.6 22.1 38.6q.4 1.1.9 2.3c5.7 15.3 7.4 31.1 7.2 47.2q-.1 4.2 0 8.3c-.1 8.5-.4 16.8-1.8 25.3q-.2 1-.4 2c-1 5.2-2.5 9.7-6.3 13.5-2.2-.3-2.2-.3-5-1q-1.5-.4-3.1-.8-3.3-.8-6.6-1.6c-3.3-.6-6-1-9.3-.6-2 1.7-2 1.7-3.4 4.1-21.4 29.6-64.1 46.1-98.6 52.9-14.5 2.2-28 2.4-41.1-4.7-21.5-17.3-29.1-43.9-32.3-70.4-.8-8.2-1-16.4-.9-24.6q0-1.2 0-2.4c0-12.8.7-25.3 3.3-37.9q.2-1.2.5-2.5c7.3-34.9 23.6-68 53.9-88.2 32-20.5 61.1-10.2 89.6 10.7z" fill="#febb09"/><path d="M703 403c3.8 1.5 7 3.2 10.5 5.5 42.8 26.9 95.8 36.5 145.2 42.7L879 454c-12 25-49.6 42-74.2 50.7-18.9 6.3-44.4 14-63.7 5.4-16.4-8.6-25.4-24.7-30.8-41.8-6.6-21.8-7.6-42.6-7.3-65.3z" fill="#febc09"/><path d="M609 255c11.3 8.7 19.6 20.8 22.6 34.9 2.1 16.7-.5 32.3-10.6 46.1-8.5 10.5-21.3 19.4-35 21-19.6 1.4-34.8-1.2-50.1-14.1-11.4-10.7-17.8-24.2-18.4-39.8-.2-16.9 6.1-31.3 17.7-43.5 20-18.2 51.7-20.7 73.8-4.6z" fill="#054241"/><path d="M704 385c4.3.6 7.3 2.1 11 4.3 38.4 21.2 83.4 32.6 126.1 40.8 7.9 1.6 15.8 3.3 23.6 5.4q1.1.3 2.2.6c12.2 3.5 24 10.2 31.1 20.9q-1.9-.3-3.9-.5-2.8-.4-5.5-.7-1.6-.3-3.1-.5-9.2-1.2-18.3-2.2C812 446.7 757.3 435.8 709 407l-1.8-1c-4-2.4-4-2.4-4.8-5q.1-1.1.2-2.2 0-1.1.1-2.3.2-1.3.3-2.5.1-1.3.2-2.6.4-3.2.8-6.4z" fill="#c57001"/><path d="M889 449c4.3 1.6 6.3 4.5 9 8q-3.1-.5-6.2-.9-1.7-.3-3.5-.6-4.2-.6-8.3-1.5 0-.5 0-1l8-1q.5-1.5 1-3z" fill="#bc5e07"/><path d="M173 564c0 4.1-1.7 5.5-4.3 8.4-2.1 2-4 2.7-6.7 3.6-1.8 1.5-1.8 1.5-3 3q-1-.5-2-1 2.9-2.7 5.8-5.3l1.6-1.5c2.8-2.6 5.5-5 8.6-7.2z" fill="#072929"/><path d="M214 535q1 .5 2 1-3.9 2.6-7.8 5.1-1.1.7-2.2 1.4-1.1.7-2.2 1.4-1 .6-2 1.3c-1.8.8-1.8.8-4.8-.2 2.6-4.9 2.6-4.9 6-6q0 1 0 2 1.2-.7 2.3-1.3 1.5-.9 3.1-1.8 1.5-.8 3-1.7 1.3-.6 2.6-1.2z" fill="#0488da"/><path d="M709 359q.5 0 1 0 .4 3.4.7 6.8.2 1.9.4 3.8c-.1 3.4-.1 3.4-1.6 5.3q-.7.6-1.5 1.1-1-.5-2-1 .5-2.9.9-5.8.3-1.5.6-3.2l1.5-7z" fill="#efc011"/><path d="M275 280q.5 1 1 2-1.1 3-2.4 5.9c-1.5 3.4-2.7 6.5-3.6 10.1q-1.4 3-3 6c-1.2-3.6-.8-4.3.6-7.6.6-1.4.6-1.4 1.1-2.7q.6-1.4 1.2-2.8.5-1.4 1.1-2.8c2.8-6.9 2.8-6.9 4-8.1z" fill="#0c70c6"/><path d="m717 487c3.7 1.2 4.3 2.5 6.4 5.7 2.7 4 5.5 7.7 8.6 11.3q-1.5 0-3 0c-4.9-5-8.8-10.8-12-17z" fill="#137be2"/><path d="M386 855c0 3 0 3-1.4 4.7q-.9.8-1.8 1.7c-.9 1-.9 1-1.9 1.9q-3.3 3-6.9 5.7-1-.5-2-1c4.5-4.6 9-9 14-13z" fill="#0093e5"/><path d="m789 271q0 1 0 2c-4.4 1.1-8.5 1.1-13 1 4.2-2.8 8.1-4.9 13-3z" fill="#efc112"/><path d="M704 385c3.7.5 5.6 1.1 8 4q-2.5-.5-5-1-.5 1-1 2-1-.5-2-1 0-2 0-4z" fill="#c36710"/><path d="M717 336q1.5 1 3 2l-2 6q-1.5-1.5-3-3 1-2.5 2-5z" fill="#f5c00d"/><path d="M441 788q.5 1 1 2l-2.4 4.1q-.7 1.1-1.5 2.2-.5.8-1.1 1.7-1-.5-2-1l6-9z" fill="#0093e6"/><path d="M871 454h8q-1 2-2 4-1.5 0-3 0 0-1.5 0-3-1.5-.5-3-1z" fill="#fdc214"/><path d="M757 285q0 1.5 0 3c-1.8 1.8-1.8 1.8-4 3q-1.5-.5-3-1c4.8-5 4.8-5 7-5z" fill="#efc112"/></svg>