<svg xmlns="http://www.w3.org/2000/svg" width="1024" height="1024" xmlns:v="https://vecta.io/nano"><path d="M547 78.8q4.4-.1 8.7-.1c13.3-.1 26.2 1.1 39.3 3.3l3.5.6q4 .7 7.9 1.6l2.9.6c36.2 8.5 68 26.5 94.7 52.2q.8.8 1.7 1.6c8.1 7.7 15.3 15.7 22 24.6q2 2.7 4 5.4c6.2 8.2 11.7 16.7 17 25.5q.6 1 1.2 2c1.1 1.9 1.1 1.9 2.4 4.8 3.8 4.7 13.3 4.8 19 5.7q2.8.5 5.6 1 1.4.2 2.9.5l60.9 10.6q18.5 3.4 37 6.6l36.5 6.6q2.8.5 5.6 1.1c12.3 2.4 12.3 2.4 17.1 6.8 1.7 3.4 1.2 5.5.1 9.2-4.8 5-10 6.7-16.6 8.6l-3.3 1q-3.6 1.1-7.2 2.2-6.2 1.9-12.4 3.8-9.2 2.9-18.4 5.8-1.2.4-2.4.7-2.4.8-4.9 1.5-4.7 1.5-9.5 3-2.4.7-4.8 1.5-5.9 1.8-11.7 3.6l-20.7 6.3q-4.4 1.3-8.9 2.7-2 .6-4.1 1.2c-8.3 2.3-14.1 4.8-20.1 11.1q-1.9 1.8-3.9 3.6c-28.1 28.7-38.7 70.5-38.5 109.6.4 24.5 5.1 49 9.3 73.1 2.2 12.8 3.9 25.7 5.1 38.7.1 1.3.1 1.3.3 2.7 6.7 72.2-5.5 147.1-37.3 212.3q-.5 1.1-1.1 2.3-3.3 6.9-6.9 13.7-.5 1-1.1 2.1c-12.5 23.8-28.3 45.6-45.9 65.9q-.9 1.1-1.9 2.2c-11.5 13.3-23.6 26.4-37.1 37.8q-1.5 1.3-3 2.7c-8.7 7.5-17.7 14.5-27 21.3q-.9.7-1.8 1.3c-16 11.8-32.8 22.1-50.2 31.7q-1.2.7-2.5 1.4c-25.9 14.2-54.4 26.5-84.5 26.8q-1.1.1-2.3.1c-31.6.3-62.7-2.5-93.7-9.3-1.6-.4-1.6-.4-3.3-.7C306.9 928.4 250 903.9 202 869q-1.1-.8-2.3-1.6c-9.2-6.7-18.2-13.4-26.8-20.9-2.9-2.5-5.8-4.9-8.8-7.2-3.6-3-7-6.1-10.3-9.5-1.8-1.8-3.6-3.4-5.4-5-4.7-4-9.1-8.3-13.5-12.7-1.1-1.2-1.1-1.2-2.3-2.3-4.7-4.8-9.2-9.7-13.6-14.8q-1.4-1.7-2.9-3.3c-41.8-48.3-41.8-48.3-41.4-68.3 1.1-12 7.5-24.1 12.3-35.1.5-1.1.5-1.1 1-2.3 6.4-14.8 13.1-29.4 20-44q.9-1.8 1.7-3.6c11.3-23.8 23.2-47 36.6-69.6q2.4-3.9 4.7-7.9c11.2-19.3 24.2-37.4 38-54.9q1.1-1.4 2.3-2.9 2.8-3.6 5.7-7.1 1-1.3 2.1-2.6a282.26 282.26 0 0 1 14.5-16.6q3.9-4.3 7.7-8.6c4-4.6 8.3-8.8 12.6-13 23.2-23.1 33.5-45.4 35.8-77.9 5.3-69 22.4-139.1 66.3-194.3q1.1-1.4 2.2-2.7c13.1-16.4 28-32.7 44.8-45.3q.9-.7 1.9-1.5c10.5-7.9 21.4-14.9 32.9-21.3q3-1.6 5.9-3.3c37.4-21 80.8-30.1 123.3-30.1z" fill="#93a252"/><path d="M753 203q1.7.4 3.5.7c12.6 2.6 25.2 4.8 37.8 6.9l78.8 13.9q5.6 1 11.2 2 5.1.9 10.3 1.9 2.3.4 4.7.8 7.3 1.4 14.7 2.8 1.2.2 2.4.5 3.7.7 7.4 1.4 1.1.3 2.2.5c4.6 1 7.7 2.2 11 5.6 1.1 3.4 1.1 3.4 1 7-2.6 4.6-4.9 6.2-9.9 7.9q-1.4.5-3 1.1-8.1 2.6-16.2 5.2-1.9.6-3.9 1.2-4 1.2-8 2.5-5.3 1.6-10.6 3.3-21.3 6.6-42.7 13.2-2.9.9-5.8 1.8-9 2.8-18.1 5.5-3.2 1-6.4 2-1.5.4-3 .9c-8.9 2.7-8.9 2.7-16.5 8q-.7.8-1.5 1.6l-1.6 1.6q-.9.9-1.8 1.7c-28.9 30.2-39.9 71.9-39.3 112.8.5 23.8 5.2 47.6 9.2 71 2.2 12.8 3.9 25.7 5.1 38.7q.1 1.3.3 2.7c6.7 72.2-5.5 147.1-37.3 212.3q-.5 1.1-1.1 2.3-3.3 6.9-6.9 13.7-.5 1-1.1 2.1c-12.5 23.8-28.3 45.6-45.9 65.9q-.9 1.1-1.9 2.2c-11.5 13.3-23.6 26.4-37.1 37.8q-1.5 1.3-3 2.7c-8.7 7.5-17.7 14.5-27 21.3-.9.7-.9.7-1.8 1.3-16 11.8-32.8 22.1-50.2 31.7q-1.2.7-2.5 1.4c-23.5 12.9-52 27.1-79.5 25.6 4.4-3.8 9.3-6.5 14.4-9.4 24.3-13.7 47.7-28.7 70.6-44.6q.9-.7 1.9-1.3a517.76 517.76 0 0 0 50.6-40.4q2.1-1.9 4.2-3.8c5.9-5 11.4-10.4 16.9-15.9q1.3-1.4 2.7-2.8c5.1-5.1 10-10.3 14.7-15.8q1.3-1.5 2.7-3.1c21.4-25 38.4-52.6 53.3-81.9q.6-1.2 1.3-2.4c40.5-79.4 42-168.1 28.1-253.9-3.1-19.5-6-38.7-5.7-58.5v-2.4c.1-11.7.2-23.3 2.3-34.8q.2-1.1.4-2.3c3.1-16.2 8.7-31.9 13.9-47.6 3.7-10.9 5-23.6-.2-34.2-4.4-7.5-10.8-10.7-18.5-14.6q-1.7-.9-3.5-1.8-1.6-.8-3.2-1.6c-3.9-2.6-6.2-5.5-7.5-10-.2-19.9 22.7-39.8 35.5-53.5 2.3-2.4 4.6-5 6.8-7.6q1.1-1.4 2.3-2.8z" fill="#195351"/><path d="M480.9 428.1c21.3 9 34.6 36.3 43 56.4 4.5 11.3 7.2 22.6 9.1 34.5q.3 1.6.5 3.3c.5 3.8.7 7.6.7 11.5q0 1.1 0 2.2c.3 37.9-7.3 72.5-25.2 106.2q-1.4 2.6-2.6 5.2c-11.5 22.7-27.3 43.5-43.8 62.7q-1.8 2.1-3.4 4.2c-6.1 7.7-12.9 14.6-19.8 21.5q-2.9 2.9-5.8 5.8c-6.1 6-12.1 11.9-18.6 17.4q-1.7 1.5-3.5 3.1c-9.1 8.1-18.7 15.6-28.5 22.9q-1.2.9-2.4 1.8c-9.7 7.3-19.5 14.4-29.7 21q-2.9 1.9-5.8 3.8c-18.5 12.1-37.6 23-57.1 33.4q-1.4.7-2.8 1.5c-20.5 10.9-41.3 21.3-62.8 30.1-1.8.8-3.6 1.5-5.4 2.4-11.7-7.6-22.9-15.7-34-24 3-2.5 5.9-3.9 9.5-5.4 1.7-.6 1.7-.6 3.4-1.3q1.9-.7 3.7-1.5c16.5-6.7 32.6-14.2 48.6-21.9q2.4-1.2 4.9-2.4c13.6-6.6 26.8-13.9 39.9-21.5q1.4-.8 2.8-1.6c14.8-8.5 29.1-17.7 43.2-27.4q1.2-.8 2.4-1.7c18.7-12.8 36.4-26.8 53.1-42q2.1-1.9 4.2-3.8c5.6-4.7 10.7-9.8 15.9-14.9q1.2-1.2 2.4-2.5c4.9-4.9 9.5-9.9 14-15.1q1.3-1.5 2.7-3.1c11.6-13.5 22-27.7 31.3-42.9q.7-1.1 1.4-2.3c23.4-38.3 38.5-84.8 27.9-129.8-5.3-20.4-14.2-37.8-28.5-53.3-5.3-5.7-8.3-9.7-9.3-17.5.2-4.9 2.3-8.5 5.5-12.1 5.7-4.9 12.1-5.1 18.9-2.9z" fill="#195453"/><path d="M575.3 186.6q1.3 0 2.7 0c14.6.3 26.1 5.7 36.8 15.6 9.9 10.5 14.8 22.8 14.6 37.1q0 1.4 0 2.8c-.4 15.6-6.6 28.1-17.9 38.8-11.9 9.8-26.1 14.4-41.5 13.1-16.4-2.6-29.6-11.2-39.5-24.5-7.9-13.1-10-29.4-6.6-44.4 1.1-3.2 2.5-6.1 4.1-9.1q.8-1.4 1.5-2.9c7.5-12.8 19.1-21 33-25.5 4.3-1 8.4-1.1 12.8-1z" fill="#1a504e"/><path d="M478 944q1 1.5 2 3c5.7-.5 11.3-1.1 17-2-4.5 4.5-14.2 4.8-20.4 5.2q-3.8 0-7.6-.2c2.9-2.4 5.6-4.5 9-6z" fill="#0b383c"/><path d="M430 948h16q0 1.5 0 3-3.2.1-6.3.2-1.8 0-3.6.1c-3.1-.3-3.1-.3-6.1-3.3z" fill="#97a75a"/><path d="M198 495c0 4.5-2.3 7.5-5 11-1.9 1.6-3.8 2.8-6 4 1.6-3.5 3.7-6.2 6.1-9.2q1-1.3 2.1-2.7c.9-1 1.8-2.1 2.8-3.1z" fill="#809134"/><path d="M515 468c2.7 2.7 3.8 4.2 5.3 7.5q.5 1.2 1 2.3c.7 2.2.7 2.2-.3 5.2l-2-6q-1 0-2 0l-2-9z" fill="#15444d"/><path d="M761 525l3 2c.3 3.5.3 3.5 0 7q-1 1-2 2c-1.2-2.4-1.1-3.9-1.1-6.6q.1-1.2.1-2.5 0-.9 0-1.9z" fill="#255b5a"/><path d="M385 735q1 .5 2 1l-8 7q-1-.5-2-1c4.2-5.7 4.2-5.7 8-7z" fill="#aab050"/><path d="M194.2 850.9q.9.6 1.8 1.1l-5 1q-1-1-2-2c3-1 3-1 5.2-.1zM189 853q1 .5 2 1-1.5 1.5-3 3-1-1.5-2-3 1.5-.5 3-1z" fill="#1c5d5c"/></svg>