<svg xmlns="http://www.w3.org/2000/svg" width="1024" height="1024" xmlns:v="https://vecta.io/nano"><path d="M721 157c3.9 3.4 7.8 7 11.5 10.6q2 1.9 4.1 3.8c26 24.7 45.5 61.2 51.4 96.6q0 2 0 4 .8.2 1.7.4c28.1 6.9 54.1 22.1 75.3 41.6q.9.8 1.7 1.6c23.5 21.6 39.9 51.7 41.7 83.9.6 19.9.6 19.9-5.4 26.5-2.6.9-4.4 1.2-7.1 1.3q-1.1.1-2.4.1l-2.5.2q-1.3 0-2.6.1c-6.1.3-12.2.4-18.4.3q-.5 1.7-1 3.4c-10.1 30-32.4 59.8-61 74.2-11.5 5.6-11.5 5.6-17 7.4q.7 3.1 1.5 6.1.3 1.1.5 2.2 1.8 7 3.8 14c8.5 30.7 14.8 62 18.2 93.7q.2 1.6.4 3.3c7.2 70.7-6.1 147.4-51.5 204q-5.2 6.3-10.7 12.3-2.2 2.4-4.3 4.8C704.6 904 639.1 926.9 574 934q-1.1.1-2.2.3c-6.9.7-13.8.9-20.8.9q-1.9 0-3.8 0-5.9 0-11.9 0c-1 .1-1 .1-2 .1-20.3 0-40.2-.3-60.3-3.3q-2.1-.3-4.2-.6c-50.6-7.5-100.2-20.5-147-41.2q-3.8-1.6-7.6-3.2c-23.9-10.1-46.6-24.3-67.4-39.7q-2.9-2.1-5.7-4.1c-13.3-9.8-25.5-20.6-37.6-31.8q-2.3-2.2-4.7-4.3c-7.2-6.5-13.9-13.3-20.4-20.5q-2.1-2.4-4.3-4.7c-6-6.4-11.7-13-17.1-19.9q-.8-1-1.6-2c-19.1-24.1-36.2-49.4-51-76.4q-1.9-3.5-3.8-6.9c-4.6-8.4-8.6-16.9-12.5-25.6q-.7-1.5-1.4-3.1c-5.3-12.2-9.4-24.8-5.5-38.1 5.9-14.4 17.2-27.1 27.1-38.8q1.9-2.3 3.7-4.6c5.7-7.1 11.8-13.6 18.2-20 .7-.8.7-.8 1.5-1.5 7.7-7.7 15.5-14.7 24.3-21q1.8-1.4 3.5-2.7c13.2-10.1 37.4-28.3 54.5-28.3q-.1-1.8-.1-3.6C212.6 423.2 228 352.8 256 293q.7-1.5 1.4-3.1c22.2-48 55.1-95.5 97.6-127.9q1.5-1.2 3-2.4c13.1-10.4 27.1-19.1 41.7-27.3q2.2-1.2 4.4-2.5C489.2 81.2 593.4 83.7 721 157z" fill="#fed231"/><path d="M259.2 483.8q1.3 0 2.7 0 2.7 0 5.5 0 4.2-.1 8.3-.1c16.4-.1 32 1.5 47.5 7q1.5.5 3 1c8.7 3.1 16.8 6.8 24.8 11.3q1.5.8 3.1 1.6c8.9 5 16.9 11.1 24.9 17.4q.9.7 1.8 1.4l4.2 3.6q0 1 0 2 1 0 2 0 0 1 0 2 1 0 2 0c1.4 1.3 1.4 1.3 3 3.2.9 1.2.9 1.2 1.9 2.3l2.1 2.5q1.1 1.3 2.3 2.7c22.1 25.7 35.4 56.1 41.7 89.3q.2 1 .4 2.1c10.9 60.5-12.3 124.1-46.1 173.5-7.1 10.1-14.5 19.8-23 28.9-2 2.2-4 4.5-5.9 6.7-3.5 4-7.3 7.4-11.4 10.8q-1.3 1.2-2.7 2.3c-9.5 8.1-19.6 15.2-30.3 21.6q-.9.6-1.9 1.2c-5.9 3.5-9.2 5.4-16.1 3.9-2.7-1.2-2.7-1.2-5.4-2.7q-1.5-.9-3.1-1.8-1.5-.9-3.2-1.8-1.6-1-3.3-1.9c-14.2-8.1-28.1-16.8-41.2-26.5q-2.9-2.1-5.7-4.1c-13.3-9.8-25.5-20.6-37.6-31.8q-2.3-2.2-4.7-4.3c-7.2-6.5-13.9-13.3-20.4-20.5q-2.1-2.4-4.3-4.7c-6-6.4-11.7-13-17.1-19.9q-.8-1-1.6-2c-19.1-24.1-36.2-49.4-51-76.4q-1.9-3.5-3.8-6.9c-4.6-8.4-8.6-16.9-12.5-25.6q-.7-1.5-1.4-3.1c-5.3-12.2-9.4-24.8-5.5-38.1 5.9-14.4 17.2-27.1 27.1-38.8q1.9-2.3 3.7-4.6c5.7-7.1 11.8-13.6 18.2-20q.7-.8 1.5-1.5c7.7-7.7 15.5-14.7 24.3-21q1.8-1.4 3.5-2.7c9.3-7.2 19.1-13 29.5-18.3q1.1-.5 2.2-1.1c20.9-10.7 44.3-18 68-18.1z" fill="#f8a209"/><path d="M786 266c2 2 2 2 2 6q.8.2 1.7.4c28.1 6.9 54.1 22.1 75.3 41.6.9.8.9.8 1.7 1.6 23.5 21.6 39.9 51.7 41.7 83.9.6 19.9.6 19.9-5.4 26.5-2.6.9-4.4 1.2-7.1 1.3q-1.1.1-2.4.1-1.2.1-2.5.2-1.3 0-2.6.1c-6.1.3-12.2.4-18.4.3q-.5 1.7-1 3.4c-10.1 30-32.4 59.8-61 74.2-11.5 5.6-11.5 5.6-17 7.4q-1 1.5-2 3 0-1 0-2-.8.2-1.6.4c-16 3.9-33 2.7-47.2-5.9-23-15.4-35.3-42.6-40.6-69.1-2.3-13-3-26.1-3-39.3q0-1.3 0-2.6c.1-21.9 3-42.8 10.4-63.5q.4-1.1.8-2.2c5.5-15.2 13.4-29.7 24.2-41.8q.8-.9 1.6-1.8c8.7-9.7 22.4-17.6 35.4-19.2 3-.1 5.9-.1 8.9-.1q1.1 0 2.4.1 2.8 0 5.7 0 0-1.5 0-3z" fill="#feb915"/><path d="M612.7 261.8c12.6 9.5 21.6 22.8 25.3 38.2.6 5.6.8 10.4-1.8 15.6-3.8 4.2-6.7 6.2-12.5 6.6-5.1-.3-8.1-1.7-11.8-5.1-2.4-3.8-3.4-7.7-4.8-12-1.7-4.8-4.3-8.9-7.1-13.1q-.9-1.4-1.8-2.8c-8-8-17.9-10.7-29-10.7-9.6.3-17.6 5-24.5 11.5-5.9 6.7-8.7 14.3-11.3 22.8-1.6 3.7-3.4 5.6-6.4 8.2-5.1 1.7-9.9 1.9-14.8-.5-4-2.6-5.8-6-7.2-10.5-1.9-11 4.3-22 10-31 2.5-3.5 5.2-6.8 8-10q.8-1 1.7-2c23-24.6 62.2-23 88-5.2z" fill="#0a5c50"/><path d="M741 374c4.9 2.8 8.1 6.2 11.8 10.4 14 15.6 34.9 20.3 55.2 21.6l14.4.2q3.5 0 7.1 0 10.1.1 20.2.1 6.2 0 12.4.1 2.3 0 4.7 0c12.3 0 23 1.6 32.2 10.6 2 2.8 4 5.5 4 9-2.8.9-4.8 1.2-7.7 1.4q-1.4.1-2.8.2l-3.1.2-3.3.2q-5.2.3-10.5.6-1.7.1-3.6.2c-98.7 5.5-98.7 5.5-134-25.8q-1-.9-2-1.8c-4.5-4.2-8.7-8.9-9.2-15.3.4-4.7 1.9-7.6 5.2-10.9 3.1-1.6 5.6-1.3 9-1z" fill="#0b5c50"/><path d="M558 280q1 1 2 2-1.8.8-3.6 1.7c-5.2 2.6-9.2 5.4-12.4 10.3q-1 0-2 0c2.9-6.8 9.4-11.2 16-14z" fill="#f2e42d"/><path d="M478 103q.5 1 1 2l-7 1q-1-1-2-2c2.7-1.4 5-1.1 8-1z" fill="#fdcc27"/></svg>