<svg xmlns="http://www.w3.org/2000/svg" width="1024" height="1024" xmlns:v="https://vecta.io/nano"><path d="M541.6 84.8h3.6q3.8 0 7.6 0 5.7-.1 11.3-.1c15.5-.1 30.6.9 45.9 3.3q1.9.3 3.8.6 4.3.8 8.6 1.7 1.6.3 3.1.6c48.6 10.3 97.1 31.3 131.5 68.1q0 1 0 2 1 0 2 0c1.8 2 3.4 4 5 6.1l1.5 1.9c18.1 23.6 33.3 51.7 35.5 82q1.2.1 2.5.3c4.3.9 8 2.4 12.1 4.3q1.1.5 2.4 1c21.9 10.1 41.4 26.2 56 45.4l2.2 2.8C890.3 323 899.6 343 906 365q.4 1.3.8 2.7c4.2 14.9 4.7 29.6 4.8 45q0 1.4 0 2.8c.2 35.7-9.8 72-34.6 98.5-6.4 6-6.4 6-10 6-3.2-1.6-3.7-3.7-5-7-.7-3.1-1.3-6.3-1.8-9.4-1.7-9.1-4.4-17.2-8.2-25.6-3.8-.4-3.8-.4-5.5 1.2-.7.8-.7.8-1.4 1.7-19.6 20.5-51.9 37.8-80.1 41.1 3.3 18.1 7.1 36 11.1 53.9 4.1 17.9 8 35.9 11 54l.4 2.5q2.6 15.3 4.5 30.6.2 1.3.3 2.6c3.7 29.2 4.3 61.5-1.3 90.4q-.3 1.6-.6 3.3c-10.1 54.2-34 104.5-79.4 137.7q-.8.6-1.7 1.3C672.4 925 626.7 937.6 582 943c-1.1.1-1.1.1-2.1.3-15.5 1.9-31 2-46.6 2q-4.2 0-8.4 0c-93.9.6-187.6-25.5-332-127.6q-2.9-2.7-5.8-5.3c-7.6-6.8-14.5-14-21.3-21.5q-2.7-2.9-5.4-5.7c-7.2-7.6-13.9-15.4-20.2-23.7l-5.1-6.2c-14.6-18.3-27.5-38-39.1-58.3l-1.4-2.4c-5.9-10.4-11.4-20.9-16.4-31.7q-.6-1.4-1.3-2.8c-3.2-7.3-4.5-15-2.1-22.7 3.5-8 9.7-14.8 15.2-21.4q.7-.8 1.4-1.7c12.9-15.8 27-31.1 42.6-44.3q1.4-1.2 2.7-2.4c6.2-5.3 12.4-10.3 19-15.1l2.3-1.7c3.8-2.7 7.7-5.3 11.9-7.5 10.6-5.8 15.9-10.5 20.2-21.9 1-2.7 2.1-5.3 3.3-7.9 15-34.3 23.4-70.4 30-107.1C234 347.5 250.2 287.7 283 237q.7-1.1 1.4-2.2c10.7-16.5 22.3-32 35.5-46.5q2.8-3.1 5.6-6.4 8.4-9.6 18.2-17.9 2.6-2.3 5.2-4.6c15.6-13.9 33-25.1 51.1-35.4q1.1-.6 2.3-1.3C422.9 111 445.2 102.4 468 96q1.4-.4 2.8-.8c15.9-4.4 31.9-7.3 48.2-9.2q1.1-.1 2.2-.3c6.8-.7 13.5-.9 20.4-.9z" fill="#85a09f"/><path d="M379.6 548.3c3 2.7 6 5.5 8.9 8.3q2.2 2.1 4.5 4.2c31.7 30.1 52 77.5 53.3 121.1q0 5.2 0 10.4v2.2c-.1 20.7-2.4 40.7-8.3 60.5q-.5 1.5-.9 3.1c-12.9 42.2-34.7 82-64.8 114.5q-3 3.1-5.8 6.5c-6.6 7.5-13.8 14.5-21.5 20.9-1.3 1.1-1.3 1.1-2.5 2.2q-1.3 1.2-2.7 2.3-1.2 1-2.4 2.1c-2.4 1.4-2.4 1.4-4.7 1.3-3.6-1.2-7-2.6-10.5-4.1q-1.1-.6-2.3-1.1c-17.6-8-34.6-17.2-50.9-27.7-1.3-.9-1.3-.9-2.7-1.7-26.1-16.7-50.7-34.5-73.4-55.6q-2.9-2.7-5.8-5.3c-7.6-6.8-14.5-14-21.3-21.5q-2.7-2.9-5.4-5.7c-7.2-7.6-13.9-15.4-20.2-23.7l-5.1-6.2c-14.6-18.3-27.5-38-39.1-58.3q-.7-1.2-1.4-2.4c-5.9-10.4-11.4-20.9-16.4-31.7q-.6-1.4-1.3-2.8c-3.2-7.3-4.5-15-2.1-22.7 3.5-8 9.7-14.8 15.2-21.4q.7-.8 1.4-1.7c12.9-15.8 27-31.1 42.6-44.3q1.4-1.2 2.7-2.4c25.5-22.2 54-39.5 86.3-49.6q1-.3 2-.6c51.9-16 113-3.9 154.6 30.9z" fill="#276261"/><path d="M828.6 261.9c17.4 10.4 33.1 23.9 45.4 40.1q1.1 1.4 2.2 2.8C890.3 323 899.6 343 906 365l.8 2.7c4.2 14.9 4.7 29.6 4.8 45q0 1.4 0 2.8c.2 35.7-9.8 72-34.6 98.5-6.4 6-6.4 6-10 6-3.2-1.6-3.7-3.7-5-7-.7-3.1-1.3-6.3-1.8-9.4-1.7-9.1-4.4-17.2-8.2-25.6-3.8-.4-3.8-.4-5.5 1.2q-.7.8-1.4 1.7c-22.3 23.3-59.4 41.1-91.6 43.3-9.9.2-19.7-1.1-27.4-7.9-7.6-8-10.7-18.3-13.2-28.9q-.4-1.6-.8-3.2c-5.4-22.7-7.5-45.2-7.5-68.5q0-1.5 0-3c.1-45.9 8.8-97.3 37.4-134.7q.9-1.3 1.9-2.5c24-31.4 51.6-32 84.7-13.6z" fill="#efb71f"/><path d="M706 386c3.7 1.6 6.1 3.9 8.9 6.8q1.3 1.2 2.6 2.5c2.5 2.7 2.5 2.7 4.9 5.7 19 23 52.8 31.4 80.6 37q7.3 1.5 14.6 3 1.7.3 3.5.7c16.2 3.3 31.1 9.4 40.9 23.3 7.5 11.8 7.3 25.2 7.6 38.8q.1 2.2.1 4.4.2 5.4.3 10.8-2 .5-4 1c-2.5-2.9-3.5-5.2-4.2-8.9q-.3-1.4-.5-2.9-.3-1.5-.6-3c-1.9-9.6-4.6-18.3-8.7-27.2-3.8-.4-3.8-.4-5.5 1.2q-.7.8-1.4 1.7c-22.3 23.3-59.4 41.1-91.6 43.3-9.9.2-19.7-1.1-27.4-7.9-7.6-8-10.7-18.3-13.2-28.9q-.4-1.6-.8-3.2c-5.3-22.2-7.4-44.2-7.3-67q0-4.7 0-9.3 0-3 0-6 0-1.3 0-2.7c.1-4.5.3-8.8 1.2-13.2z" fill="#eca917"/><path d="M592 250c9.7 7.9 16.7 19.5 18.2 32 1.3 14.2-1.9 27.2-11 38.6-8.4 9.2-19.4 15.9-32.1 16.6-9.1.3-16.8 0-25.1-4.2q-1.3-.6-2.6-1.3c-12.7-7-20.5-17.9-24.8-31.6-2.6-13.5-.4-26 6.5-37.8 7.7-11.3 18-17.8 31-21.7 14.6-2.3 27.8.8 39.9 9.4z" fill="#114548"/><path d="M706 386c3.7 1.6 6.1 3.9 8.9 6.8q1.3 1.2 2.6 2.5c2.5 2.7 2.5 2.7 4.9 5.7 19 23 52.8 31.4 80.6 37q7.3 1.5 14.6 3 1.7.3 3.5.7c16.2 3.3 31.1 9.4 40.9 23.3 7.5 11.8 7.3 25.2 7.6 38.8q.1 2.2.1 4.4.2 5.4.3 10.8-2 .5-4 1c-2.5-2.9-3.5-5.2-4.2-8.9q-.3-1.4-.5-2.9-.3-1.5-.6-3c-2.8-13.8-6.2-28.8-17.9-37.9-10.5-6.8-22.5-9-34.6-11.1-22.7-4.1-44.4-9.9-65.2-20.2q-1.5-.7-3.1-1.5c-9.7-4.9-19-11.8-26.3-19.8-1.6-1.8-1.6-1.8-3.6-3.5-3.1-3-4.8-5-5.5-9.4 0-5.4.5-10.5 1.5-15.8z" fill="#ad6b0b"/><path d="M781.8 305.8q1-.1 2.1-.1c4.7 0 8 .6 12.1 3.3 2.8 2.8 3.5 4.9 3.5 8.9-.1 3.6-.5 5.8-2.8 8.7-4.3 3.9-8.2 3.7-13.8 3.7-5.6-.6-9.3-2.9-13.4-6.5-2.1-4-2.3-7.4-1.5-11.8 3.8-6.1 7-6.2 13.8-6.3z" fill="#b06f0a"/><path d="M520 265c1 3 1 3 1 5q-1 0-2 0c-2.2 7.3-2.6 14.5-3 22q-1 0-2 0c-.6-9.7.5-18.7 6-27z" fill="#123133"/><path d="M764 522q.5 1 1 2-.5 1.5-1 3-1.5-.5-3-1-2.2-.2-4.4-.3-1.3-.1-2.6-.1-1.3-.1-2.7-.2-1.3 0-2.7-.1-3.3-.2-6.6-.3 0-.5 0-1l22-2z" fill="#679abb"/><path d="M358 887c0 3 0 3-1.4 4.7q-.9.8-1.8 1.7c-.9 1-.9 1-1.9 1.9q-3.3 3-6.9 5.7-1-.5-2-1c4.5-4.6 9.1-8.9 14-13z" fill="#99adab"/><path d="M759 259q1 .5 2 1-1.8 2.2-3.7 4.3-1 1.2-2.1 2.4c-2.2 2.3-4.4 3.8-7.2 5.3 1.5-3.7 3.8-6 6.6-8.8q1.2-1.1 2.5-2.4c.9-.9.9-.9 1.9-1.8z" fill="#f8be0c"/><path d="M864 511l4 2q0 2.5 0 5 1 .5 2 1-2 .5-4 1c-1.5-3.4-2-5.2-2-9z" fill="#bc7712"/><path d="M706 386c4 2 4 2 5 4q-1.5 0-3 0l-1 12q-.5 0-1 0v-16z" fill="#ad5c02"/><path d="M705 405l7 6q-.5 1-1 2c-2.4-1.2-2.4-1.2-5-3-.8-2.7-.8-2.7-1-5z" fill="#f5ba18"/><path d="M188 528q.5 1 1 2 1.5.5 3 1c-4.6 3-4.6 3-8 3 1.1-2.2 2.5-4 4-6z" fill="#95aaa9"/></svg>