<svg xmlns="http://www.w3.org/2000/svg" width="1024" height="1024" xmlns:v="https://vecta.io/nano"><path d="M155 64c3.2 0 5.3.4 7.8 2.5l5.8 6.4q2.2 2.3 4.3 4.7 1.1 1.1 2.1 2.3c44.7 48 115.6 67.2 178.6 74.8q3.1.4 6.2.8c18.9 2.4 38.3 1.7 57.4 1.8q1.1 0 2.3 0c30 0 59.7-1.2 89.6-3.1 83.7-5.4 174.7-4.2 245.9 46.8q.9.6 1.8 1.3c32 23 54.9 57.2 61.4 96.3.6 4.4.8 8.6.9 13q0 1.5 0 3 .1 3 0 5.9c.1 2.7.2 5 .9 7.5 2.8 2.1 2.8 2.1 5 3 3.8 1.9 6.3 5.1 9.1 8.2q1 1 2 2.1c21.4 23.7 37.9 51 46.9 81.7q.5 1.6 1 3.2c6.6 23.8 7.2 54.8 1 78.8q-.3 1.2-.6 2.4c-5.6 21.7-15.7 41.5-31.4 57.6q-.8.9-1.6 1.7c-1.4 1.3-1.4 1.3-3.9 1.7-3-.5-3.7-1-5.5-3.4-.5-2.7-.5-2.7-.6-6.1l-.2-3.7q-.1-1.9-.1-3.9c-.8-17.1-.8-17.1-6.1-33.3q-.8 1.2-1.7 2.5c-18.9 28.1-45.7 42.7-78.3 50.5-1 .2-1 .2-2.1.5q-5.4 1.3-10.9 2.5.3 1.5.5 3c2.3 12.8 3.8 25.6 5.2 38.5q.5 5.3 1.1 10.6c3.4 30.6 4.5 61 4.5 91.8q-.1 6.9 0 13.7c0 19.4-.2 38.5-2.1 57.8q-.3 3.5-.6 7c-1.4 18.1-4 35.8-7.6 53.6-.4 1.8-.4 1.8-.7 3.7-3.2 15.3-7 30.4-11.5 45.4q-.4 1-.7 2.1-.9 3.1-1.9 6.1-.5 1.7-1.1 3.5c-1.9 5.5-3.3 9.3-8.8 12q-.9.4-1.9.9-1.1.5-2.1 1-3.6 1.7-7.3 3.3-1.4.6-2.8 1.3c-39 18.1-80.6 28.2-123.2 33.7q-1.8.3-3.7.5c-15.3 2.1-30.8 1.9-46.2 1.9q-1.1 0-2.2 0c-22.8 0-45.3-.6-67.9-4.4q-1.7-.3-3.5-.6c-7.6-1.2-15-2.7-22.5-4.4q-1.6-.4-3.3-.7C376.6 942.7 324 919.2 277 888q-1.1-.7-2.2-1.4c-15.7-10.4-30.7-21.8-45-34.2-2.7-2.3-5.4-4.5-8.2-6.7-5.3-4.3-10-8.9-14.7-13.7-2.6-2.7-5.2-5.3-8.1-7.7-2.4-1.9-4.2-3.8-6.2-6.1-2.4-2.8-4.8-5.4-7.5-8-3.9-3.9-7.3-8-10.7-12.2q-3.1-3.8-6.3-7.5c-46-53.2-46-53.2-47.4-78.1 1.4-10.9 9.9-19 17.3-26.4q1-1 2-2.1c4.1-4.2 8.5-8.1 13-11.9q1.6-1.4 3.2-2.7 8.9-7.7 17.9-15.3.7-.7 1.5-1.3c2.4-2 4.7-3.9 7.1-5.7 2.5-2.2 3.7-4.1 5.3-7q1.7-2.3 3.4-4.5c16.7-21.8 30.3-46.9 40.4-72.4l1.2-3.1c7.7-20.1 13.5-40.8 19.2-61.5 16.4-59.1 35.2-117.8 76.8-164.5q1-1.1 2-2.2c5.7-6.5 11.7-12.7 17.9-18.9q1.3-1.3 2.8-2.8c5.5-5.5 11.1-10.5 17.3-15.3q1-.9 2-1.8 0-1 0-2-1.3-.2-2.7-.5C328.6 283.2 288.4 275 252 257c-1.2-.6-1.2-.6-2.3-1.1-45.9-22.7-45.9-22.7-52.7-40.9.5-3.5.5-3.5 2-5 6-.5 11 .7 16.8 2.2 15.3 3.8 31.2 4 46.9 3.9q4 0 8.1 0 2.6 0 5.2 0h2.4c4.7 0 9-.3 13.6-1.1q-.9-.3-1.8-.6c-34.6-11.5-66.5-27.1-93.2-52.4l-2.6-2.4c-21.2-20.3-41.9-52.2-42.9-82.4-.1-9.4-.1-9.4 3.5-13.2z" fill="#fef4d8"/><path d="M155 64c3.2 0 5.3.4 7.8 2.5l5.8 6.4q2.2 2.3 4.3 4.7l2.1 2.3c44.7 48 115.6 67.2 178.6 74.8q3.1.4 6.2.8c18.9 2.4 38.3 1.7 57.4 1.8q1.1 0 2.3 0c30 0 59.7-1.2 89.6-3.1 83.7-5.4 174.7-4.2 245.9 46.8q.9.6 1.8 1.3c32 23 54.9 57.2 61.4 96.3.6 4.4.8 8.6.9 13q0 1.5 0 3 .1 3 0 5.9c.1 2.7.2 5 .9 7.5 2.8 2.1 2.8 2.1 5 3 3.8 1.9 6.3 5.1 9.1 8.2q1 1 2 2.1c21.4 23.7 37.9 51 46.9 81.7q.5 1.6 1 3.2c6.6 23.8 7.2 54.8 1 78.8q-.3 1.2-.6 2.4c-5.6 21.7-15.7 41.5-31.4 57.6q-.8.9-1.6 1.7c-1.4 1.3-1.4 1.3-3.9 1.7-3-.5-3.7-1-5.5-3.4-.5-2.7-.5-2.7-.6-6.1l-.2-3.7q-.1-1.9-.1-3.9c-.8-17.1-.8-17.1-6.1-33.3q-.8 1.2-1.7 2.5c-19 28.2-45.7 42.6-78.3 50.5q-1 .3-2 .5c-3.6.9-7.2.8-10.9.9q-1.2 0-2.4.1c-4 0-6.8-.1-10.1-2.7-8.8-9.6-9.2-24.5-10.6-36.8q-.1-1.1-.3-2.2c-6.6-55.6 8.3-110.8 42.9-155l1.4-1.8q.8-1 1.6-2c7.1-9 14.5-17.7 22.4-26q.9-1 1.8-2c6.5-7 16.7-15.8 26.5-16.1q1.3 0 2.7.1c-10.5-38.7-28.7-76.4-64-98q-1.6-1-3.3-2.1c-20.2-12-42.7-18-65.4-23.2q-1.5-.4-3.1-.7c-17.5-3.9-35.4-4.4-53.3-4.3q-4.8 0-9.7-.1c-14.6 0-28.8 1.2-43.2 3.4q-1.9.3-3.9.6c-39.7 6.3-77.2 19.8-113.1 37.4q-2.7 1.3-5.3 2.6c-13.3 6.4-26 13.8-38.7 21.4q-1.5.9-3 1.8c-12.7 7.5-12.7 7.5-24.9 15.8l-2.3 1.7q-2.1 1.6-4.1 3.2c-3.5 2.7-5.1 3.5-9.6 3.5q-2.6-.5-5.1-1-2.8-.5-5.5-1c-37-6.5-74.6-15.4-108.5-32-1.2-.6-1.2-.6-2.3-1.1-45.9-22.7-45.9-22.7-52.7-40.9.5-3.5.5-3.5 2-5 6-.5 11 .7 16.8 2.2 15.3 3.8 31.2 4 46.9 3.9q4 0 8.1 0 2.6 0 5.2 0h2.4c4.7 0 9-.3 13.6-1.1q-.9-.3-1.8-.6c-34.6-11.5-66.5-27.1-93.2-52.4q-1.3-1.2-2.6-2.4c-21.2-20.3-41.9-52.2-42.9-82.4-.1-9.4-.1-9.4 3.5-13.2z" fill="#fee799"/><path d="M292.4 608.8q1-.1 2.1-.1c11.7.1 23 .8 34.5 3.3q1.2.3 2.4.5c40.9 9.4 74.2 33.1 96.6 68.5 15.1 25.8 20.4 53.7 20.4 83.3q0 1.4 0 2.8c-.1 15.6-1.3 30.5-4.4 45.9q-.5 2.6-1 5.3c-5.2 27-15.6 53.8-27 78.7l-1 2.2c-4.4 9.5-9.6 18.5-14.7 27.6q-1 1.7-2 3.4c-1 1.6-1 1.6-1.9 3.3q-.8 1.4-1.7 2.9c-1.7 2.6-3.5 4.5-5.7 6.6-58-19.7-112.8-50.4-159.2-90.6-2.7-2.3-5.4-4.5-8.2-6.7-5.3-4.3-10-8.9-14.7-13.7-2.6-2.7-5.2-5.3-8.1-7.7-2.4-1.9-4.2-3.8-6.2-6.1-2.4-2.8-4.8-5.4-7.5-8-3.9-3.9-7.3-8-10.7-12.2q-3.1-3.8-6.3-7.5c-46-53.2-46-53.2-47.4-78.1 1.4-10.9 9.9-19 17.3-26.4q1-1 2-2.1c4.1-4.2 8.5-8.1 13-11.9q1.6-1.4 3.2-2.7 4.5-3.9 9-7.7 1.8-1.6 3.6-3.1 2.5-2.2 5.1-4.4 1.4-1.2 3-2.5c32.7-27.4 72.8-42.8 115.5-42.8z" fill="#ebdbb0"/><path d="M823.3 329.6c4.3 2.5 7.5 5.9 10.8 9.6q1 1 2 2.1c21.4 23.7 37.9 51 46.9 81.7q.5 1.6 1 3.2c6.6 23.8 7.2 54.8 1 78.8l-.6 2.4c-5.6 21.7-15.7 41.5-31.4 57.6q-.8.9-1.6 1.7c-1.4 1.3-1.4 1.3-3.9 1.7-3-.5-3.7-1-5.5-3.4-.5-2.7-.5-2.7-.6-6.1q-.1-1.8-.2-3.7-.1-1.9-.1-3.9c-.8-17.1-.8-17.1-6.1-33.3q-.8 1.2-1.7 2.5c-19 28.2-45.7 42.6-78.3 50.5q-1 .3-2 .5c-3.6.9-7.2.8-10.9.9-1.2 0-1.2 0-2.4.1-4 0-6.8-.1-10.1-2.7-8.8-9.6-9.2-24.5-10.6-36.8q-.1-1.1-.3-2.2c-6.6-55.6 8.3-110.8 42.9-155q.7-.9 1.4-1.8.8-1 1.6-2c7.1-9 14.5-17.7 22.4-26l1.8-2c8.3-8.9 21.9-20.4 34.5-14.4z" fill="#d9be85"/><path d="M517.2 409.6c18.8 16.4 31.9 38.9 34 64 1.2 27.3-6.7 50.9-24.6 71.6-18.3 19.6-41.4 29-67.7 31-2.7.1-5.2 0-7.9-.2l-3.4-.2c-26.1-2.7-48.8-15.9-65.5-36.1-15.2-20.5-22.2-46.4-18.6-71.7 4.6-25.6 18.3-47.9 39.5-63 35.3-23.5 81.3-22.9 114.2 4.6z" fill="#fa9d13"/><path d="M727 442c3.9 1.5 5.8 3.9 8.4 7.2q1.2 1.5 2.4 3 1.8 2.3 3.7 4.7c11.7 14.9 31.9 25.5 50.5 28.1q7.4.8 14.8 1.2c12.4.8 21.8 4.7 31.2 12.8 11.1 14.3 15.2 31.1 15.3 48.9q0 1.3 0 2.6c-.1 14.3-.1 14.3-3.3 17.5-2.7.3-4.4.4-6.6-1.1-2-2.7-1.9-4.7-2-8q-.1-1.8-.2-3.7-.1-1.9-.1-3.9c-.8-17.1-.8-17.1-6.1-33.3q-.8 1.2-1.7 2.5c-19 28.2-45.7 42.6-78.3 50.5q-1 .3-2 .5c-3.6.9-7.2.8-10.9.9-1.2 0-1.2 0-2.4.1-4 0-6.8-.1-10.1-2.7-8.8-9.6-9.2-24.5-10.6-36.8q-.1-1.1-.3-2.2c-1-8.7-1-17.5-1-26.3q0-1.3 0-2.6c0-20 1.9-39.9 8.3-58.9q.5-.5 1-1z" fill="#d9bd85"/><path d="M630 316q1.4.7 2.8 1.5c11.1 6.4 17.4 15.4 21.2 27.5 2.7 13.3.5 26.6-7 38-7.7 9.6-18.5 16.8-31 18.2-14.2.8-25.6-2.2-37-11.2-9.3-9.1-14.1-20.8-14.3-33.7.2-12.5 4.7-23.1 13.2-32.4 13.8-12.8 35.1-16.8 52.1-7.9z" fill="#225255"/><path d="M727 442c3.9 1.5 5.8 3.9 8.4 7.2q1.2 1.5 2.4 3 1.8 2.3 3.7 4.7c11.7 14.9 31.9 25.5 50.5 28.1q7.4.8 14.8 1.2c12.4.8 21.8 4.7 31.2 12.8 11.1 14.3 15.2 31.1 15.3 48.9q0 1.3 0 2.6c-.1 14.3-.1 14.3-3.3 17.5-2.7.3-4.4.4-6.6-1.1-2-2.7-1.9-4.7-2-8q-.1-1.8-.2-3.7-.1-1.9-.1-3.9c-.9-16-2-34-14.4-45.8-6.3-4.9-14.7-6.4-22.5-6.9-30.3-2.2-54.9-13.5-75.2-36.6-3.3-4-5-6.5-4.9-11.7.8-2.9 1.7-5.6 2.9-8.3z" fill="#c29b4b"/><path d="M815 290c5.4 5.4 4.1 17.6 4.1 24.8q0 6.6-.1 13.2c-1.5-3-2.7-5.9-3.7-9.1q-.4-1.2-.8-2.6c-.5-2.3-.5-2.3.5-5.3q.5 1 1 2c.1-7.7-.4-15.3-1-23z" fill="#fee48b"/><path d="m373 526c2.8 2.4 4.7 5 6.7 8.1 5.3 8.2 12 14.9 19.4 21.2 1.7 1.5 3.3 3.1 4.9 4.7-9.1-1.4-16.6-11.3-21.9-18.1-9.1-12.5-9.1-12.5-9.1-15.9z" fill="#fdf6e6"/><path d="M154 671q1 .5 2 1c-17.2 17.4-17.2 17.4-21 20q-1.5 0-3 0c6.8-6.9 13.6-13.7 21-20q.5-.5 1-1z" fill="#e7d4a3"/></svg>